G75*
%MOIN*%
%OFA0B0*%
%FSLAX25Y25*%
%IPPOS*%
%LPD*%
%AMOC8*
5,1,8,0,0,1.08239X$1,22.5*
%
%ADD10C,0.00000*%
%ADD11C,0.06000*%
%ADD12C,0.07906*%
%ADD13C,0.02205*%
%ADD14C,0.01000*%
%ADD15C,0.01200*%
%ADD16C,0.00600*%
D10*
X0029368Y0021236D02*
X0029368Y0127535D01*
X0100234Y0127535D01*
X0100234Y0021236D01*
X0029368Y0021236D01*
X0031375Y0023835D02*
X0031377Y0023883D01*
X0031383Y0023931D01*
X0031393Y0023978D01*
X0031406Y0024024D01*
X0031424Y0024069D01*
X0031444Y0024113D01*
X0031469Y0024155D01*
X0031497Y0024194D01*
X0031527Y0024231D01*
X0031561Y0024265D01*
X0031598Y0024297D01*
X0031636Y0024326D01*
X0031677Y0024351D01*
X0031720Y0024373D01*
X0031765Y0024391D01*
X0031811Y0024405D01*
X0031858Y0024416D01*
X0031906Y0024423D01*
X0031954Y0024426D01*
X0032002Y0024425D01*
X0032050Y0024420D01*
X0032098Y0024411D01*
X0032144Y0024399D01*
X0032189Y0024382D01*
X0032233Y0024362D01*
X0032275Y0024339D01*
X0032315Y0024312D01*
X0032353Y0024282D01*
X0032388Y0024249D01*
X0032420Y0024213D01*
X0032450Y0024175D01*
X0032476Y0024134D01*
X0032498Y0024091D01*
X0032518Y0024047D01*
X0032533Y0024002D01*
X0032545Y0023955D01*
X0032553Y0023907D01*
X0032557Y0023859D01*
X0032557Y0023811D01*
X0032553Y0023763D01*
X0032545Y0023715D01*
X0032533Y0023668D01*
X0032518Y0023623D01*
X0032498Y0023579D01*
X0032476Y0023536D01*
X0032450Y0023495D01*
X0032420Y0023457D01*
X0032388Y0023421D01*
X0032353Y0023388D01*
X0032315Y0023358D01*
X0032275Y0023331D01*
X0032233Y0023308D01*
X0032189Y0023288D01*
X0032144Y0023271D01*
X0032098Y0023259D01*
X0032050Y0023250D01*
X0032002Y0023245D01*
X0031954Y0023244D01*
X0031906Y0023247D01*
X0031858Y0023254D01*
X0031811Y0023265D01*
X0031765Y0023279D01*
X0031720Y0023297D01*
X0031677Y0023319D01*
X0031636Y0023344D01*
X0031598Y0023373D01*
X0031561Y0023405D01*
X0031527Y0023439D01*
X0031497Y0023476D01*
X0031469Y0023515D01*
X0031444Y0023557D01*
X0031424Y0023601D01*
X0031406Y0023646D01*
X0031393Y0023692D01*
X0031383Y0023739D01*
X0031377Y0023787D01*
X0031375Y0023835D01*
X0031375Y0031236D02*
X0031377Y0031284D01*
X0031383Y0031332D01*
X0031393Y0031379D01*
X0031406Y0031425D01*
X0031424Y0031470D01*
X0031444Y0031514D01*
X0031469Y0031556D01*
X0031497Y0031595D01*
X0031527Y0031632D01*
X0031561Y0031666D01*
X0031598Y0031698D01*
X0031636Y0031727D01*
X0031677Y0031752D01*
X0031720Y0031774D01*
X0031765Y0031792D01*
X0031811Y0031806D01*
X0031858Y0031817D01*
X0031906Y0031824D01*
X0031954Y0031827D01*
X0032002Y0031826D01*
X0032050Y0031821D01*
X0032098Y0031812D01*
X0032144Y0031800D01*
X0032189Y0031783D01*
X0032233Y0031763D01*
X0032275Y0031740D01*
X0032315Y0031713D01*
X0032353Y0031683D01*
X0032388Y0031650D01*
X0032420Y0031614D01*
X0032450Y0031576D01*
X0032476Y0031535D01*
X0032498Y0031492D01*
X0032518Y0031448D01*
X0032533Y0031403D01*
X0032545Y0031356D01*
X0032553Y0031308D01*
X0032557Y0031260D01*
X0032557Y0031212D01*
X0032553Y0031164D01*
X0032545Y0031116D01*
X0032533Y0031069D01*
X0032518Y0031024D01*
X0032498Y0030980D01*
X0032476Y0030937D01*
X0032450Y0030896D01*
X0032420Y0030858D01*
X0032388Y0030822D01*
X0032353Y0030789D01*
X0032315Y0030759D01*
X0032275Y0030732D01*
X0032233Y0030709D01*
X0032189Y0030689D01*
X0032144Y0030672D01*
X0032098Y0030660D01*
X0032050Y0030651D01*
X0032002Y0030646D01*
X0031954Y0030645D01*
X0031906Y0030648D01*
X0031858Y0030655D01*
X0031811Y0030666D01*
X0031765Y0030680D01*
X0031720Y0030698D01*
X0031677Y0030720D01*
X0031636Y0030745D01*
X0031598Y0030774D01*
X0031561Y0030806D01*
X0031527Y0030840D01*
X0031497Y0030877D01*
X0031469Y0030916D01*
X0031444Y0030958D01*
X0031424Y0031002D01*
X0031406Y0031047D01*
X0031393Y0031093D01*
X0031383Y0031140D01*
X0031377Y0031188D01*
X0031375Y0031236D01*
X0038777Y0031236D02*
X0038779Y0031284D01*
X0038785Y0031332D01*
X0038795Y0031379D01*
X0038808Y0031425D01*
X0038826Y0031470D01*
X0038846Y0031514D01*
X0038871Y0031556D01*
X0038899Y0031595D01*
X0038929Y0031632D01*
X0038963Y0031666D01*
X0039000Y0031698D01*
X0039038Y0031727D01*
X0039079Y0031752D01*
X0039122Y0031774D01*
X0039167Y0031792D01*
X0039213Y0031806D01*
X0039260Y0031817D01*
X0039308Y0031824D01*
X0039356Y0031827D01*
X0039404Y0031826D01*
X0039452Y0031821D01*
X0039500Y0031812D01*
X0039546Y0031800D01*
X0039591Y0031783D01*
X0039635Y0031763D01*
X0039677Y0031740D01*
X0039717Y0031713D01*
X0039755Y0031683D01*
X0039790Y0031650D01*
X0039822Y0031614D01*
X0039852Y0031576D01*
X0039878Y0031535D01*
X0039900Y0031492D01*
X0039920Y0031448D01*
X0039935Y0031403D01*
X0039947Y0031356D01*
X0039955Y0031308D01*
X0039959Y0031260D01*
X0039959Y0031212D01*
X0039955Y0031164D01*
X0039947Y0031116D01*
X0039935Y0031069D01*
X0039920Y0031024D01*
X0039900Y0030980D01*
X0039878Y0030937D01*
X0039852Y0030896D01*
X0039822Y0030858D01*
X0039790Y0030822D01*
X0039755Y0030789D01*
X0039717Y0030759D01*
X0039677Y0030732D01*
X0039635Y0030709D01*
X0039591Y0030689D01*
X0039546Y0030672D01*
X0039500Y0030660D01*
X0039452Y0030651D01*
X0039404Y0030646D01*
X0039356Y0030645D01*
X0039308Y0030648D01*
X0039260Y0030655D01*
X0039213Y0030666D01*
X0039167Y0030680D01*
X0039122Y0030698D01*
X0039079Y0030720D01*
X0039038Y0030745D01*
X0039000Y0030774D01*
X0038963Y0030806D01*
X0038929Y0030840D01*
X0038899Y0030877D01*
X0038871Y0030916D01*
X0038846Y0030958D01*
X0038826Y0031002D01*
X0038808Y0031047D01*
X0038795Y0031093D01*
X0038785Y0031140D01*
X0038779Y0031188D01*
X0038777Y0031236D01*
X0038777Y0023835D02*
X0038779Y0023883D01*
X0038785Y0023931D01*
X0038795Y0023978D01*
X0038808Y0024024D01*
X0038826Y0024069D01*
X0038846Y0024113D01*
X0038871Y0024155D01*
X0038899Y0024194D01*
X0038929Y0024231D01*
X0038963Y0024265D01*
X0039000Y0024297D01*
X0039038Y0024326D01*
X0039079Y0024351D01*
X0039122Y0024373D01*
X0039167Y0024391D01*
X0039213Y0024405D01*
X0039260Y0024416D01*
X0039308Y0024423D01*
X0039356Y0024426D01*
X0039404Y0024425D01*
X0039452Y0024420D01*
X0039500Y0024411D01*
X0039546Y0024399D01*
X0039591Y0024382D01*
X0039635Y0024362D01*
X0039677Y0024339D01*
X0039717Y0024312D01*
X0039755Y0024282D01*
X0039790Y0024249D01*
X0039822Y0024213D01*
X0039852Y0024175D01*
X0039878Y0024134D01*
X0039900Y0024091D01*
X0039920Y0024047D01*
X0039935Y0024002D01*
X0039947Y0023955D01*
X0039955Y0023907D01*
X0039959Y0023859D01*
X0039959Y0023811D01*
X0039955Y0023763D01*
X0039947Y0023715D01*
X0039935Y0023668D01*
X0039920Y0023623D01*
X0039900Y0023579D01*
X0039878Y0023536D01*
X0039852Y0023495D01*
X0039822Y0023457D01*
X0039790Y0023421D01*
X0039755Y0023388D01*
X0039717Y0023358D01*
X0039677Y0023331D01*
X0039635Y0023308D01*
X0039591Y0023288D01*
X0039546Y0023271D01*
X0039500Y0023259D01*
X0039452Y0023250D01*
X0039404Y0023245D01*
X0039356Y0023244D01*
X0039308Y0023247D01*
X0039260Y0023254D01*
X0039213Y0023265D01*
X0039167Y0023279D01*
X0039122Y0023297D01*
X0039079Y0023319D01*
X0039038Y0023344D01*
X0039000Y0023373D01*
X0038963Y0023405D01*
X0038929Y0023439D01*
X0038899Y0023476D01*
X0038871Y0023515D01*
X0038846Y0023557D01*
X0038826Y0023601D01*
X0038808Y0023646D01*
X0038795Y0023692D01*
X0038785Y0023739D01*
X0038779Y0023787D01*
X0038777Y0023835D01*
X0048698Y0023835D02*
X0048700Y0023883D01*
X0048706Y0023931D01*
X0048716Y0023978D01*
X0048729Y0024024D01*
X0048747Y0024069D01*
X0048767Y0024113D01*
X0048792Y0024155D01*
X0048820Y0024194D01*
X0048850Y0024231D01*
X0048884Y0024265D01*
X0048921Y0024297D01*
X0048959Y0024326D01*
X0049000Y0024351D01*
X0049043Y0024373D01*
X0049088Y0024391D01*
X0049134Y0024405D01*
X0049181Y0024416D01*
X0049229Y0024423D01*
X0049277Y0024426D01*
X0049325Y0024425D01*
X0049373Y0024420D01*
X0049421Y0024411D01*
X0049467Y0024399D01*
X0049512Y0024382D01*
X0049556Y0024362D01*
X0049598Y0024339D01*
X0049638Y0024312D01*
X0049676Y0024282D01*
X0049711Y0024249D01*
X0049743Y0024213D01*
X0049773Y0024175D01*
X0049799Y0024134D01*
X0049821Y0024091D01*
X0049841Y0024047D01*
X0049856Y0024002D01*
X0049868Y0023955D01*
X0049876Y0023907D01*
X0049880Y0023859D01*
X0049880Y0023811D01*
X0049876Y0023763D01*
X0049868Y0023715D01*
X0049856Y0023668D01*
X0049841Y0023623D01*
X0049821Y0023579D01*
X0049799Y0023536D01*
X0049773Y0023495D01*
X0049743Y0023457D01*
X0049711Y0023421D01*
X0049676Y0023388D01*
X0049638Y0023358D01*
X0049598Y0023331D01*
X0049556Y0023308D01*
X0049512Y0023288D01*
X0049467Y0023271D01*
X0049421Y0023259D01*
X0049373Y0023250D01*
X0049325Y0023245D01*
X0049277Y0023244D01*
X0049229Y0023247D01*
X0049181Y0023254D01*
X0049134Y0023265D01*
X0049088Y0023279D01*
X0049043Y0023297D01*
X0049000Y0023319D01*
X0048959Y0023344D01*
X0048921Y0023373D01*
X0048884Y0023405D01*
X0048850Y0023439D01*
X0048820Y0023476D01*
X0048792Y0023515D01*
X0048767Y0023557D01*
X0048747Y0023601D01*
X0048729Y0023646D01*
X0048716Y0023692D01*
X0048706Y0023739D01*
X0048700Y0023787D01*
X0048698Y0023835D01*
X0048698Y0031236D02*
X0048700Y0031284D01*
X0048706Y0031332D01*
X0048716Y0031379D01*
X0048729Y0031425D01*
X0048747Y0031470D01*
X0048767Y0031514D01*
X0048792Y0031556D01*
X0048820Y0031595D01*
X0048850Y0031632D01*
X0048884Y0031666D01*
X0048921Y0031698D01*
X0048959Y0031727D01*
X0049000Y0031752D01*
X0049043Y0031774D01*
X0049088Y0031792D01*
X0049134Y0031806D01*
X0049181Y0031817D01*
X0049229Y0031824D01*
X0049277Y0031827D01*
X0049325Y0031826D01*
X0049373Y0031821D01*
X0049421Y0031812D01*
X0049467Y0031800D01*
X0049512Y0031783D01*
X0049556Y0031763D01*
X0049598Y0031740D01*
X0049638Y0031713D01*
X0049676Y0031683D01*
X0049711Y0031650D01*
X0049743Y0031614D01*
X0049773Y0031576D01*
X0049799Y0031535D01*
X0049821Y0031492D01*
X0049841Y0031448D01*
X0049856Y0031403D01*
X0049868Y0031356D01*
X0049876Y0031308D01*
X0049880Y0031260D01*
X0049880Y0031212D01*
X0049876Y0031164D01*
X0049868Y0031116D01*
X0049856Y0031069D01*
X0049841Y0031024D01*
X0049821Y0030980D01*
X0049799Y0030937D01*
X0049773Y0030896D01*
X0049743Y0030858D01*
X0049711Y0030822D01*
X0049676Y0030789D01*
X0049638Y0030759D01*
X0049598Y0030732D01*
X0049556Y0030709D01*
X0049512Y0030689D01*
X0049467Y0030672D01*
X0049421Y0030660D01*
X0049373Y0030651D01*
X0049325Y0030646D01*
X0049277Y0030645D01*
X0049229Y0030648D01*
X0049181Y0030655D01*
X0049134Y0030666D01*
X0049088Y0030680D01*
X0049043Y0030698D01*
X0049000Y0030720D01*
X0048959Y0030745D01*
X0048921Y0030774D01*
X0048884Y0030806D01*
X0048850Y0030840D01*
X0048820Y0030877D01*
X0048792Y0030916D01*
X0048767Y0030958D01*
X0048747Y0031002D01*
X0048729Y0031047D01*
X0048716Y0031093D01*
X0048706Y0031140D01*
X0048700Y0031188D01*
X0048698Y0031236D01*
X0056100Y0031236D02*
X0056102Y0031284D01*
X0056108Y0031332D01*
X0056118Y0031379D01*
X0056131Y0031425D01*
X0056149Y0031470D01*
X0056169Y0031514D01*
X0056194Y0031556D01*
X0056222Y0031595D01*
X0056252Y0031632D01*
X0056286Y0031666D01*
X0056323Y0031698D01*
X0056361Y0031727D01*
X0056402Y0031752D01*
X0056445Y0031774D01*
X0056490Y0031792D01*
X0056536Y0031806D01*
X0056583Y0031817D01*
X0056631Y0031824D01*
X0056679Y0031827D01*
X0056727Y0031826D01*
X0056775Y0031821D01*
X0056823Y0031812D01*
X0056869Y0031800D01*
X0056914Y0031783D01*
X0056958Y0031763D01*
X0057000Y0031740D01*
X0057040Y0031713D01*
X0057078Y0031683D01*
X0057113Y0031650D01*
X0057145Y0031614D01*
X0057175Y0031576D01*
X0057201Y0031535D01*
X0057223Y0031492D01*
X0057243Y0031448D01*
X0057258Y0031403D01*
X0057270Y0031356D01*
X0057278Y0031308D01*
X0057282Y0031260D01*
X0057282Y0031212D01*
X0057278Y0031164D01*
X0057270Y0031116D01*
X0057258Y0031069D01*
X0057243Y0031024D01*
X0057223Y0030980D01*
X0057201Y0030937D01*
X0057175Y0030896D01*
X0057145Y0030858D01*
X0057113Y0030822D01*
X0057078Y0030789D01*
X0057040Y0030759D01*
X0057000Y0030732D01*
X0056958Y0030709D01*
X0056914Y0030689D01*
X0056869Y0030672D01*
X0056823Y0030660D01*
X0056775Y0030651D01*
X0056727Y0030646D01*
X0056679Y0030645D01*
X0056631Y0030648D01*
X0056583Y0030655D01*
X0056536Y0030666D01*
X0056490Y0030680D01*
X0056445Y0030698D01*
X0056402Y0030720D01*
X0056361Y0030745D01*
X0056323Y0030774D01*
X0056286Y0030806D01*
X0056252Y0030840D01*
X0056222Y0030877D01*
X0056194Y0030916D01*
X0056169Y0030958D01*
X0056149Y0031002D01*
X0056131Y0031047D01*
X0056118Y0031093D01*
X0056108Y0031140D01*
X0056102Y0031188D01*
X0056100Y0031236D01*
X0056100Y0023835D02*
X0056102Y0023883D01*
X0056108Y0023931D01*
X0056118Y0023978D01*
X0056131Y0024024D01*
X0056149Y0024069D01*
X0056169Y0024113D01*
X0056194Y0024155D01*
X0056222Y0024194D01*
X0056252Y0024231D01*
X0056286Y0024265D01*
X0056323Y0024297D01*
X0056361Y0024326D01*
X0056402Y0024351D01*
X0056445Y0024373D01*
X0056490Y0024391D01*
X0056536Y0024405D01*
X0056583Y0024416D01*
X0056631Y0024423D01*
X0056679Y0024426D01*
X0056727Y0024425D01*
X0056775Y0024420D01*
X0056823Y0024411D01*
X0056869Y0024399D01*
X0056914Y0024382D01*
X0056958Y0024362D01*
X0057000Y0024339D01*
X0057040Y0024312D01*
X0057078Y0024282D01*
X0057113Y0024249D01*
X0057145Y0024213D01*
X0057175Y0024175D01*
X0057201Y0024134D01*
X0057223Y0024091D01*
X0057243Y0024047D01*
X0057258Y0024002D01*
X0057270Y0023955D01*
X0057278Y0023907D01*
X0057282Y0023859D01*
X0057282Y0023811D01*
X0057278Y0023763D01*
X0057270Y0023715D01*
X0057258Y0023668D01*
X0057243Y0023623D01*
X0057223Y0023579D01*
X0057201Y0023536D01*
X0057175Y0023495D01*
X0057145Y0023457D01*
X0057113Y0023421D01*
X0057078Y0023388D01*
X0057040Y0023358D01*
X0057000Y0023331D01*
X0056958Y0023308D01*
X0056914Y0023288D01*
X0056869Y0023271D01*
X0056823Y0023259D01*
X0056775Y0023250D01*
X0056727Y0023245D01*
X0056679Y0023244D01*
X0056631Y0023247D01*
X0056583Y0023254D01*
X0056536Y0023265D01*
X0056490Y0023279D01*
X0056445Y0023297D01*
X0056402Y0023319D01*
X0056361Y0023344D01*
X0056323Y0023373D01*
X0056286Y0023405D01*
X0056252Y0023439D01*
X0056222Y0023476D01*
X0056194Y0023515D01*
X0056169Y0023557D01*
X0056149Y0023601D01*
X0056131Y0023646D01*
X0056118Y0023692D01*
X0056108Y0023739D01*
X0056102Y0023787D01*
X0056100Y0023835D01*
X0072320Y0023835D02*
X0072322Y0023883D01*
X0072328Y0023931D01*
X0072338Y0023978D01*
X0072351Y0024024D01*
X0072369Y0024069D01*
X0072389Y0024113D01*
X0072414Y0024155D01*
X0072442Y0024194D01*
X0072472Y0024231D01*
X0072506Y0024265D01*
X0072543Y0024297D01*
X0072581Y0024326D01*
X0072622Y0024351D01*
X0072665Y0024373D01*
X0072710Y0024391D01*
X0072756Y0024405D01*
X0072803Y0024416D01*
X0072851Y0024423D01*
X0072899Y0024426D01*
X0072947Y0024425D01*
X0072995Y0024420D01*
X0073043Y0024411D01*
X0073089Y0024399D01*
X0073134Y0024382D01*
X0073178Y0024362D01*
X0073220Y0024339D01*
X0073260Y0024312D01*
X0073298Y0024282D01*
X0073333Y0024249D01*
X0073365Y0024213D01*
X0073395Y0024175D01*
X0073421Y0024134D01*
X0073443Y0024091D01*
X0073463Y0024047D01*
X0073478Y0024002D01*
X0073490Y0023955D01*
X0073498Y0023907D01*
X0073502Y0023859D01*
X0073502Y0023811D01*
X0073498Y0023763D01*
X0073490Y0023715D01*
X0073478Y0023668D01*
X0073463Y0023623D01*
X0073443Y0023579D01*
X0073421Y0023536D01*
X0073395Y0023495D01*
X0073365Y0023457D01*
X0073333Y0023421D01*
X0073298Y0023388D01*
X0073260Y0023358D01*
X0073220Y0023331D01*
X0073178Y0023308D01*
X0073134Y0023288D01*
X0073089Y0023271D01*
X0073043Y0023259D01*
X0072995Y0023250D01*
X0072947Y0023245D01*
X0072899Y0023244D01*
X0072851Y0023247D01*
X0072803Y0023254D01*
X0072756Y0023265D01*
X0072710Y0023279D01*
X0072665Y0023297D01*
X0072622Y0023319D01*
X0072581Y0023344D01*
X0072543Y0023373D01*
X0072506Y0023405D01*
X0072472Y0023439D01*
X0072442Y0023476D01*
X0072414Y0023515D01*
X0072389Y0023557D01*
X0072369Y0023601D01*
X0072351Y0023646D01*
X0072338Y0023692D01*
X0072328Y0023739D01*
X0072322Y0023787D01*
X0072320Y0023835D01*
X0072320Y0031236D02*
X0072322Y0031284D01*
X0072328Y0031332D01*
X0072338Y0031379D01*
X0072351Y0031425D01*
X0072369Y0031470D01*
X0072389Y0031514D01*
X0072414Y0031556D01*
X0072442Y0031595D01*
X0072472Y0031632D01*
X0072506Y0031666D01*
X0072543Y0031698D01*
X0072581Y0031727D01*
X0072622Y0031752D01*
X0072665Y0031774D01*
X0072710Y0031792D01*
X0072756Y0031806D01*
X0072803Y0031817D01*
X0072851Y0031824D01*
X0072899Y0031827D01*
X0072947Y0031826D01*
X0072995Y0031821D01*
X0073043Y0031812D01*
X0073089Y0031800D01*
X0073134Y0031783D01*
X0073178Y0031763D01*
X0073220Y0031740D01*
X0073260Y0031713D01*
X0073298Y0031683D01*
X0073333Y0031650D01*
X0073365Y0031614D01*
X0073395Y0031576D01*
X0073421Y0031535D01*
X0073443Y0031492D01*
X0073463Y0031448D01*
X0073478Y0031403D01*
X0073490Y0031356D01*
X0073498Y0031308D01*
X0073502Y0031260D01*
X0073502Y0031212D01*
X0073498Y0031164D01*
X0073490Y0031116D01*
X0073478Y0031069D01*
X0073463Y0031024D01*
X0073443Y0030980D01*
X0073421Y0030937D01*
X0073395Y0030896D01*
X0073365Y0030858D01*
X0073333Y0030822D01*
X0073298Y0030789D01*
X0073260Y0030759D01*
X0073220Y0030732D01*
X0073178Y0030709D01*
X0073134Y0030689D01*
X0073089Y0030672D01*
X0073043Y0030660D01*
X0072995Y0030651D01*
X0072947Y0030646D01*
X0072899Y0030645D01*
X0072851Y0030648D01*
X0072803Y0030655D01*
X0072756Y0030666D01*
X0072710Y0030680D01*
X0072665Y0030698D01*
X0072622Y0030720D01*
X0072581Y0030745D01*
X0072543Y0030774D01*
X0072506Y0030806D01*
X0072472Y0030840D01*
X0072442Y0030877D01*
X0072414Y0030916D01*
X0072389Y0030958D01*
X0072369Y0031002D01*
X0072351Y0031047D01*
X0072338Y0031093D01*
X0072328Y0031140D01*
X0072322Y0031188D01*
X0072320Y0031236D01*
X0079722Y0031236D02*
X0079724Y0031284D01*
X0079730Y0031332D01*
X0079740Y0031379D01*
X0079753Y0031425D01*
X0079771Y0031470D01*
X0079791Y0031514D01*
X0079816Y0031556D01*
X0079844Y0031595D01*
X0079874Y0031632D01*
X0079908Y0031666D01*
X0079945Y0031698D01*
X0079983Y0031727D01*
X0080024Y0031752D01*
X0080067Y0031774D01*
X0080112Y0031792D01*
X0080158Y0031806D01*
X0080205Y0031817D01*
X0080253Y0031824D01*
X0080301Y0031827D01*
X0080349Y0031826D01*
X0080397Y0031821D01*
X0080445Y0031812D01*
X0080491Y0031800D01*
X0080536Y0031783D01*
X0080580Y0031763D01*
X0080622Y0031740D01*
X0080662Y0031713D01*
X0080700Y0031683D01*
X0080735Y0031650D01*
X0080767Y0031614D01*
X0080797Y0031576D01*
X0080823Y0031535D01*
X0080845Y0031492D01*
X0080865Y0031448D01*
X0080880Y0031403D01*
X0080892Y0031356D01*
X0080900Y0031308D01*
X0080904Y0031260D01*
X0080904Y0031212D01*
X0080900Y0031164D01*
X0080892Y0031116D01*
X0080880Y0031069D01*
X0080865Y0031024D01*
X0080845Y0030980D01*
X0080823Y0030937D01*
X0080797Y0030896D01*
X0080767Y0030858D01*
X0080735Y0030822D01*
X0080700Y0030789D01*
X0080662Y0030759D01*
X0080622Y0030732D01*
X0080580Y0030709D01*
X0080536Y0030689D01*
X0080491Y0030672D01*
X0080445Y0030660D01*
X0080397Y0030651D01*
X0080349Y0030646D01*
X0080301Y0030645D01*
X0080253Y0030648D01*
X0080205Y0030655D01*
X0080158Y0030666D01*
X0080112Y0030680D01*
X0080067Y0030698D01*
X0080024Y0030720D01*
X0079983Y0030745D01*
X0079945Y0030774D01*
X0079908Y0030806D01*
X0079874Y0030840D01*
X0079844Y0030877D01*
X0079816Y0030916D01*
X0079791Y0030958D01*
X0079771Y0031002D01*
X0079753Y0031047D01*
X0079740Y0031093D01*
X0079730Y0031140D01*
X0079724Y0031188D01*
X0079722Y0031236D01*
X0079722Y0023835D02*
X0079724Y0023883D01*
X0079730Y0023931D01*
X0079740Y0023978D01*
X0079753Y0024024D01*
X0079771Y0024069D01*
X0079791Y0024113D01*
X0079816Y0024155D01*
X0079844Y0024194D01*
X0079874Y0024231D01*
X0079908Y0024265D01*
X0079945Y0024297D01*
X0079983Y0024326D01*
X0080024Y0024351D01*
X0080067Y0024373D01*
X0080112Y0024391D01*
X0080158Y0024405D01*
X0080205Y0024416D01*
X0080253Y0024423D01*
X0080301Y0024426D01*
X0080349Y0024425D01*
X0080397Y0024420D01*
X0080445Y0024411D01*
X0080491Y0024399D01*
X0080536Y0024382D01*
X0080580Y0024362D01*
X0080622Y0024339D01*
X0080662Y0024312D01*
X0080700Y0024282D01*
X0080735Y0024249D01*
X0080767Y0024213D01*
X0080797Y0024175D01*
X0080823Y0024134D01*
X0080845Y0024091D01*
X0080865Y0024047D01*
X0080880Y0024002D01*
X0080892Y0023955D01*
X0080900Y0023907D01*
X0080904Y0023859D01*
X0080904Y0023811D01*
X0080900Y0023763D01*
X0080892Y0023715D01*
X0080880Y0023668D01*
X0080865Y0023623D01*
X0080845Y0023579D01*
X0080823Y0023536D01*
X0080797Y0023495D01*
X0080767Y0023457D01*
X0080735Y0023421D01*
X0080700Y0023388D01*
X0080662Y0023358D01*
X0080622Y0023331D01*
X0080580Y0023308D01*
X0080536Y0023288D01*
X0080491Y0023271D01*
X0080445Y0023259D01*
X0080397Y0023250D01*
X0080349Y0023245D01*
X0080301Y0023244D01*
X0080253Y0023247D01*
X0080205Y0023254D01*
X0080158Y0023265D01*
X0080112Y0023279D01*
X0080067Y0023297D01*
X0080024Y0023319D01*
X0079983Y0023344D01*
X0079945Y0023373D01*
X0079908Y0023405D01*
X0079874Y0023439D01*
X0079844Y0023476D01*
X0079816Y0023515D01*
X0079791Y0023557D01*
X0079771Y0023601D01*
X0079753Y0023646D01*
X0079740Y0023692D01*
X0079730Y0023739D01*
X0079724Y0023787D01*
X0079722Y0023835D01*
X0089643Y0023835D02*
X0089645Y0023883D01*
X0089651Y0023931D01*
X0089661Y0023978D01*
X0089674Y0024024D01*
X0089692Y0024069D01*
X0089712Y0024113D01*
X0089737Y0024155D01*
X0089765Y0024194D01*
X0089795Y0024231D01*
X0089829Y0024265D01*
X0089866Y0024297D01*
X0089904Y0024326D01*
X0089945Y0024351D01*
X0089988Y0024373D01*
X0090033Y0024391D01*
X0090079Y0024405D01*
X0090126Y0024416D01*
X0090174Y0024423D01*
X0090222Y0024426D01*
X0090270Y0024425D01*
X0090318Y0024420D01*
X0090366Y0024411D01*
X0090412Y0024399D01*
X0090457Y0024382D01*
X0090501Y0024362D01*
X0090543Y0024339D01*
X0090583Y0024312D01*
X0090621Y0024282D01*
X0090656Y0024249D01*
X0090688Y0024213D01*
X0090718Y0024175D01*
X0090744Y0024134D01*
X0090766Y0024091D01*
X0090786Y0024047D01*
X0090801Y0024002D01*
X0090813Y0023955D01*
X0090821Y0023907D01*
X0090825Y0023859D01*
X0090825Y0023811D01*
X0090821Y0023763D01*
X0090813Y0023715D01*
X0090801Y0023668D01*
X0090786Y0023623D01*
X0090766Y0023579D01*
X0090744Y0023536D01*
X0090718Y0023495D01*
X0090688Y0023457D01*
X0090656Y0023421D01*
X0090621Y0023388D01*
X0090583Y0023358D01*
X0090543Y0023331D01*
X0090501Y0023308D01*
X0090457Y0023288D01*
X0090412Y0023271D01*
X0090366Y0023259D01*
X0090318Y0023250D01*
X0090270Y0023245D01*
X0090222Y0023244D01*
X0090174Y0023247D01*
X0090126Y0023254D01*
X0090079Y0023265D01*
X0090033Y0023279D01*
X0089988Y0023297D01*
X0089945Y0023319D01*
X0089904Y0023344D01*
X0089866Y0023373D01*
X0089829Y0023405D01*
X0089795Y0023439D01*
X0089765Y0023476D01*
X0089737Y0023515D01*
X0089712Y0023557D01*
X0089692Y0023601D01*
X0089674Y0023646D01*
X0089661Y0023692D01*
X0089651Y0023739D01*
X0089645Y0023787D01*
X0089643Y0023835D01*
X0089643Y0031236D02*
X0089645Y0031284D01*
X0089651Y0031332D01*
X0089661Y0031379D01*
X0089674Y0031425D01*
X0089692Y0031470D01*
X0089712Y0031514D01*
X0089737Y0031556D01*
X0089765Y0031595D01*
X0089795Y0031632D01*
X0089829Y0031666D01*
X0089866Y0031698D01*
X0089904Y0031727D01*
X0089945Y0031752D01*
X0089988Y0031774D01*
X0090033Y0031792D01*
X0090079Y0031806D01*
X0090126Y0031817D01*
X0090174Y0031824D01*
X0090222Y0031827D01*
X0090270Y0031826D01*
X0090318Y0031821D01*
X0090366Y0031812D01*
X0090412Y0031800D01*
X0090457Y0031783D01*
X0090501Y0031763D01*
X0090543Y0031740D01*
X0090583Y0031713D01*
X0090621Y0031683D01*
X0090656Y0031650D01*
X0090688Y0031614D01*
X0090718Y0031576D01*
X0090744Y0031535D01*
X0090766Y0031492D01*
X0090786Y0031448D01*
X0090801Y0031403D01*
X0090813Y0031356D01*
X0090821Y0031308D01*
X0090825Y0031260D01*
X0090825Y0031212D01*
X0090821Y0031164D01*
X0090813Y0031116D01*
X0090801Y0031069D01*
X0090786Y0031024D01*
X0090766Y0030980D01*
X0090744Y0030937D01*
X0090718Y0030896D01*
X0090688Y0030858D01*
X0090656Y0030822D01*
X0090621Y0030789D01*
X0090583Y0030759D01*
X0090543Y0030732D01*
X0090501Y0030709D01*
X0090457Y0030689D01*
X0090412Y0030672D01*
X0090366Y0030660D01*
X0090318Y0030651D01*
X0090270Y0030646D01*
X0090222Y0030645D01*
X0090174Y0030648D01*
X0090126Y0030655D01*
X0090079Y0030666D01*
X0090033Y0030680D01*
X0089988Y0030698D01*
X0089945Y0030720D01*
X0089904Y0030745D01*
X0089866Y0030774D01*
X0089829Y0030806D01*
X0089795Y0030840D01*
X0089765Y0030877D01*
X0089737Y0030916D01*
X0089712Y0030958D01*
X0089692Y0031002D01*
X0089674Y0031047D01*
X0089661Y0031093D01*
X0089651Y0031140D01*
X0089645Y0031188D01*
X0089643Y0031236D01*
X0097044Y0031236D02*
X0097046Y0031284D01*
X0097052Y0031332D01*
X0097062Y0031379D01*
X0097075Y0031425D01*
X0097093Y0031470D01*
X0097113Y0031514D01*
X0097138Y0031556D01*
X0097166Y0031595D01*
X0097196Y0031632D01*
X0097230Y0031666D01*
X0097267Y0031698D01*
X0097305Y0031727D01*
X0097346Y0031752D01*
X0097389Y0031774D01*
X0097434Y0031792D01*
X0097480Y0031806D01*
X0097527Y0031817D01*
X0097575Y0031824D01*
X0097623Y0031827D01*
X0097671Y0031826D01*
X0097719Y0031821D01*
X0097767Y0031812D01*
X0097813Y0031800D01*
X0097858Y0031783D01*
X0097902Y0031763D01*
X0097944Y0031740D01*
X0097984Y0031713D01*
X0098022Y0031683D01*
X0098057Y0031650D01*
X0098089Y0031614D01*
X0098119Y0031576D01*
X0098145Y0031535D01*
X0098167Y0031492D01*
X0098187Y0031448D01*
X0098202Y0031403D01*
X0098214Y0031356D01*
X0098222Y0031308D01*
X0098226Y0031260D01*
X0098226Y0031212D01*
X0098222Y0031164D01*
X0098214Y0031116D01*
X0098202Y0031069D01*
X0098187Y0031024D01*
X0098167Y0030980D01*
X0098145Y0030937D01*
X0098119Y0030896D01*
X0098089Y0030858D01*
X0098057Y0030822D01*
X0098022Y0030789D01*
X0097984Y0030759D01*
X0097944Y0030732D01*
X0097902Y0030709D01*
X0097858Y0030689D01*
X0097813Y0030672D01*
X0097767Y0030660D01*
X0097719Y0030651D01*
X0097671Y0030646D01*
X0097623Y0030645D01*
X0097575Y0030648D01*
X0097527Y0030655D01*
X0097480Y0030666D01*
X0097434Y0030680D01*
X0097389Y0030698D01*
X0097346Y0030720D01*
X0097305Y0030745D01*
X0097267Y0030774D01*
X0097230Y0030806D01*
X0097196Y0030840D01*
X0097166Y0030877D01*
X0097138Y0030916D01*
X0097113Y0030958D01*
X0097093Y0031002D01*
X0097075Y0031047D01*
X0097062Y0031093D01*
X0097052Y0031140D01*
X0097046Y0031188D01*
X0097044Y0031236D01*
X0097044Y0023835D02*
X0097046Y0023883D01*
X0097052Y0023931D01*
X0097062Y0023978D01*
X0097075Y0024024D01*
X0097093Y0024069D01*
X0097113Y0024113D01*
X0097138Y0024155D01*
X0097166Y0024194D01*
X0097196Y0024231D01*
X0097230Y0024265D01*
X0097267Y0024297D01*
X0097305Y0024326D01*
X0097346Y0024351D01*
X0097389Y0024373D01*
X0097434Y0024391D01*
X0097480Y0024405D01*
X0097527Y0024416D01*
X0097575Y0024423D01*
X0097623Y0024426D01*
X0097671Y0024425D01*
X0097719Y0024420D01*
X0097767Y0024411D01*
X0097813Y0024399D01*
X0097858Y0024382D01*
X0097902Y0024362D01*
X0097944Y0024339D01*
X0097984Y0024312D01*
X0098022Y0024282D01*
X0098057Y0024249D01*
X0098089Y0024213D01*
X0098119Y0024175D01*
X0098145Y0024134D01*
X0098167Y0024091D01*
X0098187Y0024047D01*
X0098202Y0024002D01*
X0098214Y0023955D01*
X0098222Y0023907D01*
X0098226Y0023859D01*
X0098226Y0023811D01*
X0098222Y0023763D01*
X0098214Y0023715D01*
X0098202Y0023668D01*
X0098187Y0023623D01*
X0098167Y0023579D01*
X0098145Y0023536D01*
X0098119Y0023495D01*
X0098089Y0023457D01*
X0098057Y0023421D01*
X0098022Y0023388D01*
X0097984Y0023358D01*
X0097944Y0023331D01*
X0097902Y0023308D01*
X0097858Y0023288D01*
X0097813Y0023271D01*
X0097767Y0023259D01*
X0097719Y0023250D01*
X0097671Y0023245D01*
X0097623Y0023244D01*
X0097575Y0023247D01*
X0097527Y0023254D01*
X0097480Y0023265D01*
X0097434Y0023279D01*
X0097389Y0023297D01*
X0097346Y0023319D01*
X0097305Y0023344D01*
X0097267Y0023373D01*
X0097230Y0023405D01*
X0097196Y0023439D01*
X0097166Y0023476D01*
X0097138Y0023515D01*
X0097113Y0023557D01*
X0097093Y0023601D01*
X0097075Y0023646D01*
X0097062Y0023692D01*
X0097052Y0023739D01*
X0097046Y0023787D01*
X0097044Y0023835D01*
X0097044Y0056906D02*
X0097046Y0056954D01*
X0097052Y0057002D01*
X0097062Y0057049D01*
X0097075Y0057095D01*
X0097093Y0057140D01*
X0097113Y0057184D01*
X0097138Y0057226D01*
X0097166Y0057265D01*
X0097196Y0057302D01*
X0097230Y0057336D01*
X0097267Y0057368D01*
X0097305Y0057397D01*
X0097346Y0057422D01*
X0097389Y0057444D01*
X0097434Y0057462D01*
X0097480Y0057476D01*
X0097527Y0057487D01*
X0097575Y0057494D01*
X0097623Y0057497D01*
X0097671Y0057496D01*
X0097719Y0057491D01*
X0097767Y0057482D01*
X0097813Y0057470D01*
X0097858Y0057453D01*
X0097902Y0057433D01*
X0097944Y0057410D01*
X0097984Y0057383D01*
X0098022Y0057353D01*
X0098057Y0057320D01*
X0098089Y0057284D01*
X0098119Y0057246D01*
X0098145Y0057205D01*
X0098167Y0057162D01*
X0098187Y0057118D01*
X0098202Y0057073D01*
X0098214Y0057026D01*
X0098222Y0056978D01*
X0098226Y0056930D01*
X0098226Y0056882D01*
X0098222Y0056834D01*
X0098214Y0056786D01*
X0098202Y0056739D01*
X0098187Y0056694D01*
X0098167Y0056650D01*
X0098145Y0056607D01*
X0098119Y0056566D01*
X0098089Y0056528D01*
X0098057Y0056492D01*
X0098022Y0056459D01*
X0097984Y0056429D01*
X0097944Y0056402D01*
X0097902Y0056379D01*
X0097858Y0056359D01*
X0097813Y0056342D01*
X0097767Y0056330D01*
X0097719Y0056321D01*
X0097671Y0056316D01*
X0097623Y0056315D01*
X0097575Y0056318D01*
X0097527Y0056325D01*
X0097480Y0056336D01*
X0097434Y0056350D01*
X0097389Y0056368D01*
X0097346Y0056390D01*
X0097305Y0056415D01*
X0097267Y0056444D01*
X0097230Y0056476D01*
X0097196Y0056510D01*
X0097166Y0056547D01*
X0097138Y0056586D01*
X0097113Y0056628D01*
X0097093Y0056672D01*
X0097075Y0056717D01*
X0097062Y0056763D01*
X0097052Y0056810D01*
X0097046Y0056858D01*
X0097044Y0056906D01*
X0097044Y0064307D02*
X0097046Y0064355D01*
X0097052Y0064403D01*
X0097062Y0064450D01*
X0097075Y0064496D01*
X0097093Y0064541D01*
X0097113Y0064585D01*
X0097138Y0064627D01*
X0097166Y0064666D01*
X0097196Y0064703D01*
X0097230Y0064737D01*
X0097267Y0064769D01*
X0097305Y0064798D01*
X0097346Y0064823D01*
X0097389Y0064845D01*
X0097434Y0064863D01*
X0097480Y0064877D01*
X0097527Y0064888D01*
X0097575Y0064895D01*
X0097623Y0064898D01*
X0097671Y0064897D01*
X0097719Y0064892D01*
X0097767Y0064883D01*
X0097813Y0064871D01*
X0097858Y0064854D01*
X0097902Y0064834D01*
X0097944Y0064811D01*
X0097984Y0064784D01*
X0098022Y0064754D01*
X0098057Y0064721D01*
X0098089Y0064685D01*
X0098119Y0064647D01*
X0098145Y0064606D01*
X0098167Y0064563D01*
X0098187Y0064519D01*
X0098202Y0064474D01*
X0098214Y0064427D01*
X0098222Y0064379D01*
X0098226Y0064331D01*
X0098226Y0064283D01*
X0098222Y0064235D01*
X0098214Y0064187D01*
X0098202Y0064140D01*
X0098187Y0064095D01*
X0098167Y0064051D01*
X0098145Y0064008D01*
X0098119Y0063967D01*
X0098089Y0063929D01*
X0098057Y0063893D01*
X0098022Y0063860D01*
X0097984Y0063830D01*
X0097944Y0063803D01*
X0097902Y0063780D01*
X0097858Y0063760D01*
X0097813Y0063743D01*
X0097767Y0063731D01*
X0097719Y0063722D01*
X0097671Y0063717D01*
X0097623Y0063716D01*
X0097575Y0063719D01*
X0097527Y0063726D01*
X0097480Y0063737D01*
X0097434Y0063751D01*
X0097389Y0063769D01*
X0097346Y0063791D01*
X0097305Y0063816D01*
X0097267Y0063845D01*
X0097230Y0063877D01*
X0097196Y0063911D01*
X0097166Y0063948D01*
X0097138Y0063987D01*
X0097113Y0064029D01*
X0097093Y0064073D01*
X0097075Y0064118D01*
X0097062Y0064164D01*
X0097052Y0064211D01*
X0097046Y0064259D01*
X0097044Y0064307D01*
X0089643Y0064307D02*
X0089645Y0064355D01*
X0089651Y0064403D01*
X0089661Y0064450D01*
X0089674Y0064496D01*
X0089692Y0064541D01*
X0089712Y0064585D01*
X0089737Y0064627D01*
X0089765Y0064666D01*
X0089795Y0064703D01*
X0089829Y0064737D01*
X0089866Y0064769D01*
X0089904Y0064798D01*
X0089945Y0064823D01*
X0089988Y0064845D01*
X0090033Y0064863D01*
X0090079Y0064877D01*
X0090126Y0064888D01*
X0090174Y0064895D01*
X0090222Y0064898D01*
X0090270Y0064897D01*
X0090318Y0064892D01*
X0090366Y0064883D01*
X0090412Y0064871D01*
X0090457Y0064854D01*
X0090501Y0064834D01*
X0090543Y0064811D01*
X0090583Y0064784D01*
X0090621Y0064754D01*
X0090656Y0064721D01*
X0090688Y0064685D01*
X0090718Y0064647D01*
X0090744Y0064606D01*
X0090766Y0064563D01*
X0090786Y0064519D01*
X0090801Y0064474D01*
X0090813Y0064427D01*
X0090821Y0064379D01*
X0090825Y0064331D01*
X0090825Y0064283D01*
X0090821Y0064235D01*
X0090813Y0064187D01*
X0090801Y0064140D01*
X0090786Y0064095D01*
X0090766Y0064051D01*
X0090744Y0064008D01*
X0090718Y0063967D01*
X0090688Y0063929D01*
X0090656Y0063893D01*
X0090621Y0063860D01*
X0090583Y0063830D01*
X0090543Y0063803D01*
X0090501Y0063780D01*
X0090457Y0063760D01*
X0090412Y0063743D01*
X0090366Y0063731D01*
X0090318Y0063722D01*
X0090270Y0063717D01*
X0090222Y0063716D01*
X0090174Y0063719D01*
X0090126Y0063726D01*
X0090079Y0063737D01*
X0090033Y0063751D01*
X0089988Y0063769D01*
X0089945Y0063791D01*
X0089904Y0063816D01*
X0089866Y0063845D01*
X0089829Y0063877D01*
X0089795Y0063911D01*
X0089765Y0063948D01*
X0089737Y0063987D01*
X0089712Y0064029D01*
X0089692Y0064073D01*
X0089674Y0064118D01*
X0089661Y0064164D01*
X0089651Y0064211D01*
X0089645Y0064259D01*
X0089643Y0064307D01*
X0089643Y0056906D02*
X0089645Y0056954D01*
X0089651Y0057002D01*
X0089661Y0057049D01*
X0089674Y0057095D01*
X0089692Y0057140D01*
X0089712Y0057184D01*
X0089737Y0057226D01*
X0089765Y0057265D01*
X0089795Y0057302D01*
X0089829Y0057336D01*
X0089866Y0057368D01*
X0089904Y0057397D01*
X0089945Y0057422D01*
X0089988Y0057444D01*
X0090033Y0057462D01*
X0090079Y0057476D01*
X0090126Y0057487D01*
X0090174Y0057494D01*
X0090222Y0057497D01*
X0090270Y0057496D01*
X0090318Y0057491D01*
X0090366Y0057482D01*
X0090412Y0057470D01*
X0090457Y0057453D01*
X0090501Y0057433D01*
X0090543Y0057410D01*
X0090583Y0057383D01*
X0090621Y0057353D01*
X0090656Y0057320D01*
X0090688Y0057284D01*
X0090718Y0057246D01*
X0090744Y0057205D01*
X0090766Y0057162D01*
X0090786Y0057118D01*
X0090801Y0057073D01*
X0090813Y0057026D01*
X0090821Y0056978D01*
X0090825Y0056930D01*
X0090825Y0056882D01*
X0090821Y0056834D01*
X0090813Y0056786D01*
X0090801Y0056739D01*
X0090786Y0056694D01*
X0090766Y0056650D01*
X0090744Y0056607D01*
X0090718Y0056566D01*
X0090688Y0056528D01*
X0090656Y0056492D01*
X0090621Y0056459D01*
X0090583Y0056429D01*
X0090543Y0056402D01*
X0090501Y0056379D01*
X0090457Y0056359D01*
X0090412Y0056342D01*
X0090366Y0056330D01*
X0090318Y0056321D01*
X0090270Y0056316D01*
X0090222Y0056315D01*
X0090174Y0056318D01*
X0090126Y0056325D01*
X0090079Y0056336D01*
X0090033Y0056350D01*
X0089988Y0056368D01*
X0089945Y0056390D01*
X0089904Y0056415D01*
X0089866Y0056444D01*
X0089829Y0056476D01*
X0089795Y0056510D01*
X0089765Y0056547D01*
X0089737Y0056586D01*
X0089712Y0056628D01*
X0089692Y0056672D01*
X0089674Y0056717D01*
X0089661Y0056763D01*
X0089651Y0056810D01*
X0089645Y0056858D01*
X0089643Y0056906D01*
X0038777Y0056906D02*
X0038779Y0056954D01*
X0038785Y0057002D01*
X0038795Y0057049D01*
X0038808Y0057095D01*
X0038826Y0057140D01*
X0038846Y0057184D01*
X0038871Y0057226D01*
X0038899Y0057265D01*
X0038929Y0057302D01*
X0038963Y0057336D01*
X0039000Y0057368D01*
X0039038Y0057397D01*
X0039079Y0057422D01*
X0039122Y0057444D01*
X0039167Y0057462D01*
X0039213Y0057476D01*
X0039260Y0057487D01*
X0039308Y0057494D01*
X0039356Y0057497D01*
X0039404Y0057496D01*
X0039452Y0057491D01*
X0039500Y0057482D01*
X0039546Y0057470D01*
X0039591Y0057453D01*
X0039635Y0057433D01*
X0039677Y0057410D01*
X0039717Y0057383D01*
X0039755Y0057353D01*
X0039790Y0057320D01*
X0039822Y0057284D01*
X0039852Y0057246D01*
X0039878Y0057205D01*
X0039900Y0057162D01*
X0039920Y0057118D01*
X0039935Y0057073D01*
X0039947Y0057026D01*
X0039955Y0056978D01*
X0039959Y0056930D01*
X0039959Y0056882D01*
X0039955Y0056834D01*
X0039947Y0056786D01*
X0039935Y0056739D01*
X0039920Y0056694D01*
X0039900Y0056650D01*
X0039878Y0056607D01*
X0039852Y0056566D01*
X0039822Y0056528D01*
X0039790Y0056492D01*
X0039755Y0056459D01*
X0039717Y0056429D01*
X0039677Y0056402D01*
X0039635Y0056379D01*
X0039591Y0056359D01*
X0039546Y0056342D01*
X0039500Y0056330D01*
X0039452Y0056321D01*
X0039404Y0056316D01*
X0039356Y0056315D01*
X0039308Y0056318D01*
X0039260Y0056325D01*
X0039213Y0056336D01*
X0039167Y0056350D01*
X0039122Y0056368D01*
X0039079Y0056390D01*
X0039038Y0056415D01*
X0039000Y0056444D01*
X0038963Y0056476D01*
X0038929Y0056510D01*
X0038899Y0056547D01*
X0038871Y0056586D01*
X0038846Y0056628D01*
X0038826Y0056672D01*
X0038808Y0056717D01*
X0038795Y0056763D01*
X0038785Y0056810D01*
X0038779Y0056858D01*
X0038777Y0056906D01*
X0038777Y0064307D02*
X0038779Y0064355D01*
X0038785Y0064403D01*
X0038795Y0064450D01*
X0038808Y0064496D01*
X0038826Y0064541D01*
X0038846Y0064585D01*
X0038871Y0064627D01*
X0038899Y0064666D01*
X0038929Y0064703D01*
X0038963Y0064737D01*
X0039000Y0064769D01*
X0039038Y0064798D01*
X0039079Y0064823D01*
X0039122Y0064845D01*
X0039167Y0064863D01*
X0039213Y0064877D01*
X0039260Y0064888D01*
X0039308Y0064895D01*
X0039356Y0064898D01*
X0039404Y0064897D01*
X0039452Y0064892D01*
X0039500Y0064883D01*
X0039546Y0064871D01*
X0039591Y0064854D01*
X0039635Y0064834D01*
X0039677Y0064811D01*
X0039717Y0064784D01*
X0039755Y0064754D01*
X0039790Y0064721D01*
X0039822Y0064685D01*
X0039852Y0064647D01*
X0039878Y0064606D01*
X0039900Y0064563D01*
X0039920Y0064519D01*
X0039935Y0064474D01*
X0039947Y0064427D01*
X0039955Y0064379D01*
X0039959Y0064331D01*
X0039959Y0064283D01*
X0039955Y0064235D01*
X0039947Y0064187D01*
X0039935Y0064140D01*
X0039920Y0064095D01*
X0039900Y0064051D01*
X0039878Y0064008D01*
X0039852Y0063967D01*
X0039822Y0063929D01*
X0039790Y0063893D01*
X0039755Y0063860D01*
X0039717Y0063830D01*
X0039677Y0063803D01*
X0039635Y0063780D01*
X0039591Y0063760D01*
X0039546Y0063743D01*
X0039500Y0063731D01*
X0039452Y0063722D01*
X0039404Y0063717D01*
X0039356Y0063716D01*
X0039308Y0063719D01*
X0039260Y0063726D01*
X0039213Y0063737D01*
X0039167Y0063751D01*
X0039122Y0063769D01*
X0039079Y0063791D01*
X0039038Y0063816D01*
X0039000Y0063845D01*
X0038963Y0063877D01*
X0038929Y0063911D01*
X0038899Y0063948D01*
X0038871Y0063987D01*
X0038846Y0064029D01*
X0038826Y0064073D01*
X0038808Y0064118D01*
X0038795Y0064164D01*
X0038785Y0064211D01*
X0038779Y0064259D01*
X0038777Y0064307D01*
X0031375Y0064307D02*
X0031377Y0064355D01*
X0031383Y0064403D01*
X0031393Y0064450D01*
X0031406Y0064496D01*
X0031424Y0064541D01*
X0031444Y0064585D01*
X0031469Y0064627D01*
X0031497Y0064666D01*
X0031527Y0064703D01*
X0031561Y0064737D01*
X0031598Y0064769D01*
X0031636Y0064798D01*
X0031677Y0064823D01*
X0031720Y0064845D01*
X0031765Y0064863D01*
X0031811Y0064877D01*
X0031858Y0064888D01*
X0031906Y0064895D01*
X0031954Y0064898D01*
X0032002Y0064897D01*
X0032050Y0064892D01*
X0032098Y0064883D01*
X0032144Y0064871D01*
X0032189Y0064854D01*
X0032233Y0064834D01*
X0032275Y0064811D01*
X0032315Y0064784D01*
X0032353Y0064754D01*
X0032388Y0064721D01*
X0032420Y0064685D01*
X0032450Y0064647D01*
X0032476Y0064606D01*
X0032498Y0064563D01*
X0032518Y0064519D01*
X0032533Y0064474D01*
X0032545Y0064427D01*
X0032553Y0064379D01*
X0032557Y0064331D01*
X0032557Y0064283D01*
X0032553Y0064235D01*
X0032545Y0064187D01*
X0032533Y0064140D01*
X0032518Y0064095D01*
X0032498Y0064051D01*
X0032476Y0064008D01*
X0032450Y0063967D01*
X0032420Y0063929D01*
X0032388Y0063893D01*
X0032353Y0063860D01*
X0032315Y0063830D01*
X0032275Y0063803D01*
X0032233Y0063780D01*
X0032189Y0063760D01*
X0032144Y0063743D01*
X0032098Y0063731D01*
X0032050Y0063722D01*
X0032002Y0063717D01*
X0031954Y0063716D01*
X0031906Y0063719D01*
X0031858Y0063726D01*
X0031811Y0063737D01*
X0031765Y0063751D01*
X0031720Y0063769D01*
X0031677Y0063791D01*
X0031636Y0063816D01*
X0031598Y0063845D01*
X0031561Y0063877D01*
X0031527Y0063911D01*
X0031497Y0063948D01*
X0031469Y0063987D01*
X0031444Y0064029D01*
X0031424Y0064073D01*
X0031406Y0064118D01*
X0031393Y0064164D01*
X0031383Y0064211D01*
X0031377Y0064259D01*
X0031375Y0064307D01*
X0031375Y0056906D02*
X0031377Y0056954D01*
X0031383Y0057002D01*
X0031393Y0057049D01*
X0031406Y0057095D01*
X0031424Y0057140D01*
X0031444Y0057184D01*
X0031469Y0057226D01*
X0031497Y0057265D01*
X0031527Y0057302D01*
X0031561Y0057336D01*
X0031598Y0057368D01*
X0031636Y0057397D01*
X0031677Y0057422D01*
X0031720Y0057444D01*
X0031765Y0057462D01*
X0031811Y0057476D01*
X0031858Y0057487D01*
X0031906Y0057494D01*
X0031954Y0057497D01*
X0032002Y0057496D01*
X0032050Y0057491D01*
X0032098Y0057482D01*
X0032144Y0057470D01*
X0032189Y0057453D01*
X0032233Y0057433D01*
X0032275Y0057410D01*
X0032315Y0057383D01*
X0032353Y0057353D01*
X0032388Y0057320D01*
X0032420Y0057284D01*
X0032450Y0057246D01*
X0032476Y0057205D01*
X0032498Y0057162D01*
X0032518Y0057118D01*
X0032533Y0057073D01*
X0032545Y0057026D01*
X0032553Y0056978D01*
X0032557Y0056930D01*
X0032557Y0056882D01*
X0032553Y0056834D01*
X0032545Y0056786D01*
X0032533Y0056739D01*
X0032518Y0056694D01*
X0032498Y0056650D01*
X0032476Y0056607D01*
X0032450Y0056566D01*
X0032420Y0056528D01*
X0032388Y0056492D01*
X0032353Y0056459D01*
X0032315Y0056429D01*
X0032275Y0056402D01*
X0032233Y0056379D01*
X0032189Y0056359D01*
X0032144Y0056342D01*
X0032098Y0056330D01*
X0032050Y0056321D01*
X0032002Y0056316D01*
X0031954Y0056315D01*
X0031906Y0056318D01*
X0031858Y0056325D01*
X0031811Y0056336D01*
X0031765Y0056350D01*
X0031720Y0056368D01*
X0031677Y0056390D01*
X0031636Y0056415D01*
X0031598Y0056444D01*
X0031561Y0056476D01*
X0031527Y0056510D01*
X0031497Y0056547D01*
X0031469Y0056586D01*
X0031444Y0056628D01*
X0031424Y0056672D01*
X0031406Y0056717D01*
X0031393Y0056763D01*
X0031383Y0056810D01*
X0031377Y0056858D01*
X0031375Y0056906D01*
D11*
X0035273Y0079504D03*
X0035273Y0089504D03*
X0035273Y0099504D03*
X0035273Y0109504D03*
X0035273Y0119504D03*
D12*
X0035667Y0060606D03*
X0035667Y0027535D03*
X0052990Y0027535D03*
X0076612Y0027535D03*
X0093935Y0027535D03*
X0093935Y0060606D03*
D13*
X0088423Y0053126D03*
X0084880Y0042890D03*
X0083502Y0041118D03*
X0084880Y0039346D03*
X0082124Y0039346D03*
X0080746Y0041118D03*
X0082124Y0042890D03*
X0079368Y0042890D03*
X0077990Y0041118D03*
X0079368Y0039346D03*
X0076612Y0039346D03*
X0075234Y0041118D03*
X0076612Y0042890D03*
X0073856Y0042890D03*
X0073856Y0039346D03*
X0064801Y0037890D03*
X0055746Y0039346D03*
X0054368Y0041118D03*
X0055746Y0042890D03*
X0052990Y0042890D03*
X0051612Y0041118D03*
X0052990Y0039346D03*
X0050234Y0039346D03*
X0048856Y0041118D03*
X0047478Y0039346D03*
X0046100Y0041118D03*
X0044722Y0039346D03*
X0044722Y0042890D03*
X0047478Y0042890D03*
X0050234Y0042890D03*
X0060864Y0055094D03*
X0060470Y0061394D03*
X0061651Y0067378D03*
X0062045Y0072417D03*
X0058108Y0073992D03*
X0054171Y0073992D03*
X0050628Y0074386D03*
X0044328Y0073992D03*
X0038817Y0073992D03*
X0044328Y0079504D03*
X0052793Y0088559D03*
X0056927Y0084622D03*
X0060076Y0084622D03*
X0055746Y0080291D03*
X0064013Y0075961D03*
X0068738Y0077929D03*
X0072281Y0078913D03*
X0076848Y0081197D03*
X0078187Y0084228D03*
X0078423Y0090646D03*
X0085273Y0087378D03*
X0091572Y0086984D03*
X0093069Y0095134D03*
X0088817Y0095646D03*
X0088817Y0101472D03*
X0088817Y0104307D03*
X0092360Y0106394D03*
X0093147Y0109425D03*
X0089998Y0108717D03*
X0088029Y0111236D03*
X0086061Y0113795D03*
X0084486Y0116315D03*
X0088423Y0118126D03*
X0075037Y0109425D03*
X0071100Y0107457D03*
X0067163Y0109425D03*
X0067163Y0105094D03*
X0062045Y0097220D03*
X0061651Y0092496D03*
X0070313Y0090921D03*
X0078620Y0100488D03*
X0075037Y0103913D03*
X0073462Y0119661D03*
X0064210Y0120213D03*
X0052006Y0110606D03*
X0049919Y0112772D03*
X0049250Y0115724D03*
X0049053Y0120843D03*
X0045116Y0107850D03*
X0048659Y0104307D03*
X0045903Y0092496D03*
X0052202Y0067693D03*
X0046691Y0065331D03*
X0049840Y0057457D03*
X0069722Y0060803D03*
X0069525Y0064543D03*
X0077793Y0057850D03*
X0086179Y0070843D03*
X0077635Y0074110D03*
X0094565Y0076866D03*
X0097793Y0035685D03*
D14*
X0098934Y0035215D02*
X0030668Y0035215D01*
X0030668Y0034217D02*
X0098934Y0034217D01*
X0098934Y0033459D02*
X0071887Y0033835D01*
X0071887Y0032886D01*
X0071020Y0032019D01*
X0071020Y0030453D01*
X0071808Y0029665D01*
X0071359Y0028580D01*
X0071359Y0026491D01*
X0071808Y0025406D01*
X0071020Y0024618D01*
X0071020Y0023052D01*
X0071536Y0022536D01*
X0058108Y0022536D01*
X0058108Y0022578D01*
X0058581Y0023052D01*
X0058581Y0024618D01*
X0058108Y0025091D01*
X0058108Y0026166D01*
X0058243Y0026491D01*
X0058243Y0028580D01*
X0058108Y0028905D01*
X0058108Y0029980D01*
X0058581Y0030453D01*
X0058581Y0032019D01*
X0058108Y0032493D01*
X0058108Y0033835D01*
X0030668Y0033835D01*
X0030668Y0052732D01*
X0040391Y0052732D01*
X0043147Y0055488D01*
X0043147Y0064937D01*
X0040785Y0067299D01*
X0040785Y0113717D01*
X0038778Y0115724D01*
X0030668Y0115724D01*
X0030668Y0126235D01*
X0055352Y0126235D01*
X0055352Y0119661D01*
X0061838Y0119661D01*
X0062174Y0118852D01*
X0062849Y0118176D01*
X0063732Y0117810D01*
X0064688Y0117810D01*
X0065571Y0118176D01*
X0066247Y0118852D01*
X0066582Y0119661D01*
X0086561Y0119661D01*
X0086386Y0119487D01*
X0086020Y0118604D01*
X0086020Y0118178D01*
X0085847Y0118352D01*
X0084964Y0118717D01*
X0084008Y0118717D01*
X0083125Y0118352D01*
X0082449Y0117676D01*
X0082083Y0116793D01*
X0082083Y0115837D01*
X0082449Y0114954D01*
X0083125Y0114278D01*
X0083658Y0114057D01*
X0083658Y0113317D01*
X0084024Y0112434D01*
X0084700Y0111759D01*
X0085583Y0111393D01*
X0085627Y0111393D01*
X0085627Y0110758D01*
X0085993Y0109875D01*
X0086668Y0109200D01*
X0087551Y0108834D01*
X0087595Y0108834D01*
X0087595Y0108239D01*
X0087961Y0107356D01*
X0088607Y0106709D01*
X0088339Y0106709D01*
X0087456Y0106344D01*
X0087019Y0105907D01*
X0084270Y0105907D01*
X0083332Y0104970D01*
X0081547Y0103185D01*
X0081547Y0091978D01*
X0079335Y0089765D01*
X0073193Y0089765D01*
X0072256Y0088828D01*
X0062413Y0078986D01*
X0062413Y0077758D01*
X0061977Y0077321D01*
X0061611Y0076438D01*
X0061611Y0075483D01*
X0061977Y0074600D01*
X0062653Y0073924D01*
X0063536Y0073558D01*
X0064491Y0073558D01*
X0065374Y0073924D01*
X0066050Y0074600D01*
X0066416Y0075483D01*
X0066416Y0076438D01*
X0066050Y0077321D01*
X0065662Y0077709D01*
X0066335Y0078382D01*
X0066335Y0077451D01*
X0066701Y0076568D01*
X0067377Y0075893D01*
X0068260Y0075527D01*
X0069216Y0075527D01*
X0070099Y0075893D01*
X0070774Y0076568D01*
X0071140Y0077451D01*
X0071140Y0078407D01*
X0070774Y0079290D01*
X0070338Y0079727D01*
X0070338Y0080022D01*
X0075306Y0084991D01*
X0075902Y0084991D01*
X0075784Y0084706D01*
X0075784Y0083750D01*
X0076150Y0082868D01*
X0076826Y0082192D01*
X0077709Y0081826D01*
X0078664Y0081826D01*
X0079547Y0082192D01*
X0080223Y0082868D01*
X0080589Y0083750D01*
X0080589Y0084706D01*
X0080471Y0084991D01*
X0081605Y0084991D01*
X0083059Y0086445D01*
X0083237Y0086017D01*
X0083912Y0085341D01*
X0084795Y0084976D01*
X0085751Y0084976D01*
X0086634Y0085341D01*
X0087310Y0086017D01*
X0087676Y0086900D01*
X0087676Y0087856D01*
X0087310Y0088739D01*
X0086634Y0089415D01*
X0086206Y0089592D01*
X0088842Y0092227D01*
X0088842Y0093243D01*
X0089294Y0093243D01*
X0090177Y0093609D01*
X0090853Y0094285D01*
X0091219Y0095168D01*
X0091219Y0096124D01*
X0090853Y0097006D01*
X0090177Y0097682D01*
X0089294Y0098048D01*
X0088339Y0098048D01*
X0087456Y0097682D01*
X0086780Y0097006D01*
X0086414Y0096124D01*
X0086414Y0095506D01*
X0085642Y0094734D01*
X0085642Y0093552D01*
X0084747Y0092658D01*
X0084747Y0101859D01*
X0085595Y0102707D01*
X0087019Y0102707D01*
X0087456Y0102270D01*
X0088339Y0101905D01*
X0089294Y0101905D01*
X0090177Y0102270D01*
X0090853Y0102946D01*
X0091219Y0103829D01*
X0091219Y0104266D01*
X0091882Y0103991D01*
X0092838Y0103991D01*
X0093721Y0104357D01*
X0094396Y0105033D01*
X0094762Y0105916D01*
X0094762Y0106872D01*
X0094396Y0107755D01*
X0093721Y0108430D01*
X0092838Y0108796D01*
X0092400Y0108796D01*
X0092400Y0109194D01*
X0092034Y0110077D01*
X0091358Y0110753D01*
X0090475Y0111119D01*
X0090431Y0111119D01*
X0090431Y0111714D01*
X0090066Y0112597D01*
X0089390Y0113273D01*
X0088507Y0113639D01*
X0088463Y0113639D01*
X0088463Y0114273D01*
X0088097Y0115156D01*
X0087421Y0115832D01*
X0086888Y0116053D01*
X0086888Y0116263D01*
X0087062Y0116089D01*
X0087945Y0115724D01*
X0088901Y0115724D01*
X0089784Y0116089D01*
X0090459Y0116765D01*
X0090825Y0117648D01*
X0090825Y0118604D01*
X0090459Y0119487D01*
X0090285Y0119661D01*
X0092360Y0119661D01*
X0098934Y0113087D01*
X0098934Y0065682D01*
X0098419Y0066198D01*
X0096852Y0066198D01*
X0095745Y0065090D01*
X0095745Y0063524D01*
X0096852Y0062417D01*
X0098419Y0062417D01*
X0098934Y0062932D01*
X0098934Y0058281D01*
X0098419Y0058796D01*
X0096852Y0058796D01*
X0095745Y0057689D01*
X0095745Y0056122D01*
X0096852Y0055015D01*
X0098419Y0055015D01*
X0098934Y0055530D01*
X0098934Y0033459D01*
X0098934Y0036214D02*
X0030668Y0036214D01*
X0030668Y0037212D02*
X0098934Y0037212D01*
X0098934Y0038211D02*
X0030668Y0038211D01*
X0030668Y0039209D02*
X0098934Y0039209D01*
X0098934Y0040208D02*
X0030668Y0040208D01*
X0030668Y0041206D02*
X0098934Y0041206D01*
X0098934Y0042205D02*
X0030668Y0042205D01*
X0030668Y0043203D02*
X0098934Y0043203D01*
X0098934Y0044202D02*
X0030668Y0044202D01*
X0030668Y0045200D02*
X0098934Y0045200D01*
X0098934Y0046199D02*
X0030668Y0046199D01*
X0030668Y0047198D02*
X0098934Y0047198D01*
X0098934Y0048196D02*
X0030668Y0048196D01*
X0030668Y0049195D02*
X0098934Y0049195D01*
X0098934Y0050193D02*
X0030668Y0050193D01*
X0030668Y0051192D02*
X0086960Y0051192D01*
X0087062Y0051089D02*
X0087945Y0050724D01*
X0088901Y0050724D01*
X0089784Y0051089D01*
X0090459Y0051765D01*
X0090825Y0052648D01*
X0090825Y0053604D01*
X0090459Y0054487D01*
X0089931Y0055015D01*
X0091017Y0055015D01*
X0092124Y0056122D01*
X0092124Y0057689D01*
X0091017Y0058796D01*
X0089451Y0058796D01*
X0088343Y0057689D01*
X0088343Y0056122D01*
X0088963Y0055502D01*
X0088901Y0055528D01*
X0087945Y0055528D01*
X0087062Y0055163D01*
X0086386Y0054487D01*
X0086020Y0053604D01*
X0086020Y0052648D01*
X0086386Y0051765D01*
X0087062Y0051089D01*
X0086210Y0052190D02*
X0030668Y0052190D01*
X0040848Y0053189D02*
X0059372Y0053189D01*
X0059503Y0053058D02*
X0058827Y0053734D01*
X0058461Y0054617D01*
X0058461Y0055572D01*
X0058827Y0056455D01*
X0059503Y0057131D01*
X0060386Y0057497D01*
X0061342Y0057497D01*
X0062225Y0057131D01*
X0062900Y0056455D01*
X0063266Y0055572D01*
X0063266Y0054617D01*
X0062900Y0053734D01*
X0062225Y0053058D01*
X0061342Y0052692D01*
X0060386Y0052692D01*
X0059503Y0053058D01*
X0058639Y0054187D02*
X0041846Y0054187D01*
X0042845Y0055186D02*
X0058461Y0055186D01*
X0058715Y0056184D02*
X0043147Y0056184D01*
X0043147Y0057183D02*
X0059627Y0057183D01*
X0062100Y0057183D02*
X0088343Y0057183D01*
X0088343Y0056184D02*
X0063013Y0056184D01*
X0063266Y0055186D02*
X0087118Y0055186D01*
X0086262Y0054187D02*
X0063088Y0054187D01*
X0062355Y0053189D02*
X0086020Y0053189D01*
X0089886Y0051192D02*
X0098934Y0051192D01*
X0098934Y0052190D02*
X0090635Y0052190D01*
X0090825Y0053189D02*
X0098934Y0053189D01*
X0098934Y0054187D02*
X0090584Y0054187D01*
X0091188Y0055186D02*
X0096682Y0055186D01*
X0095745Y0056184D02*
X0092124Y0056184D01*
X0092124Y0057183D02*
X0095745Y0057183D01*
X0096237Y0058181D02*
X0091632Y0058181D01*
X0088836Y0058181D02*
X0043147Y0058181D01*
X0043147Y0059180D02*
X0067948Y0059180D01*
X0067685Y0059442D02*
X0068361Y0058767D01*
X0069244Y0058401D01*
X0070200Y0058401D01*
X0071083Y0058767D01*
X0071759Y0059442D01*
X0072124Y0060325D01*
X0072124Y0061281D01*
X0071759Y0062164D01*
X0071083Y0062840D01*
X0070200Y0063205D01*
X0069244Y0063205D01*
X0068361Y0062840D01*
X0067685Y0062164D01*
X0067320Y0061281D01*
X0067320Y0060325D01*
X0067685Y0059442D01*
X0067381Y0060178D02*
X0043147Y0060178D01*
X0043147Y0061177D02*
X0067320Y0061177D01*
X0067697Y0062175D02*
X0043147Y0062175D01*
X0043147Y0063174D02*
X0045620Y0063174D01*
X0045330Y0063294D02*
X0046213Y0062928D01*
X0047168Y0062928D01*
X0048051Y0063294D01*
X0048727Y0063970D01*
X0049093Y0064853D01*
X0049093Y0065809D01*
X0048727Y0066692D01*
X0048051Y0067367D01*
X0047168Y0067733D01*
X0046213Y0067733D01*
X0045330Y0067367D01*
X0044654Y0066692D01*
X0044288Y0065809D01*
X0044288Y0064853D01*
X0044654Y0063970D01*
X0045330Y0063294D01*
X0044570Y0064172D02*
X0043147Y0064172D01*
X0042914Y0065171D02*
X0044288Y0065171D01*
X0044438Y0066169D02*
X0041915Y0066169D01*
X0040917Y0067168D02*
X0045130Y0067168D01*
X0047761Y0063174D02*
X0069167Y0063174D01*
X0070277Y0063174D02*
X0088694Y0063174D01*
X0088343Y0063524D02*
X0089451Y0062417D01*
X0091017Y0062417D01*
X0092124Y0063524D01*
X0092124Y0065090D01*
X0091017Y0066198D01*
X0089451Y0066198D01*
X0088343Y0065090D01*
X0088343Y0063524D01*
X0088343Y0064172D02*
X0048811Y0064172D01*
X0049093Y0065171D02*
X0088424Y0065171D01*
X0089422Y0066169D02*
X0048944Y0066169D01*
X0048251Y0067168D02*
X0098934Y0067168D01*
X0098934Y0068166D02*
X0040785Y0068166D01*
X0040785Y0069165D02*
X0084459Y0069165D01*
X0084142Y0069482D02*
X0084818Y0068806D01*
X0085701Y0068440D01*
X0086657Y0068440D01*
X0087540Y0068806D01*
X0088215Y0069482D01*
X0088581Y0070365D01*
X0088581Y0071320D01*
X0088215Y0072203D01*
X0087540Y0072879D01*
X0086657Y0073245D01*
X0085701Y0073245D01*
X0084818Y0072879D01*
X0084142Y0072203D01*
X0083776Y0071320D01*
X0083776Y0070365D01*
X0084142Y0069482D01*
X0083860Y0070163D02*
X0040785Y0070163D01*
X0040785Y0071162D02*
X0083776Y0071162D01*
X0084124Y0072160D02*
X0059673Y0072160D01*
X0059469Y0071955D02*
X0060144Y0072631D01*
X0060510Y0073514D01*
X0060510Y0074470D01*
X0060144Y0075353D01*
X0059469Y0076029D01*
X0058586Y0076394D01*
X0057630Y0076394D01*
X0056747Y0076029D01*
X0056139Y0075421D01*
X0055532Y0076029D01*
X0054649Y0076394D01*
X0053693Y0076394D01*
X0052810Y0076029D01*
X0052134Y0075353D01*
X0051769Y0074470D01*
X0051769Y0073514D01*
X0052134Y0072631D01*
X0052810Y0071955D01*
X0053693Y0071590D01*
X0054649Y0071590D01*
X0055532Y0071955D01*
X0056139Y0072563D01*
X0056747Y0071955D01*
X0057630Y0071590D01*
X0058586Y0071590D01*
X0059469Y0071955D01*
X0060363Y0073159D02*
X0085493Y0073159D01*
X0086864Y0073159D02*
X0098934Y0073159D01*
X0098934Y0074157D02*
X0065608Y0074157D01*
X0066280Y0075156D02*
X0098934Y0075156D01*
X0098934Y0076154D02*
X0070360Y0076154D01*
X0071017Y0077153D02*
X0098934Y0077153D01*
X0098934Y0078151D02*
X0071140Y0078151D01*
X0070832Y0079150D02*
X0098934Y0079150D01*
X0098934Y0080148D02*
X0070464Y0080148D01*
X0071462Y0081147D02*
X0098934Y0081147D01*
X0098934Y0082145D02*
X0079436Y0082145D01*
X0080338Y0083144D02*
X0098934Y0083144D01*
X0098934Y0084142D02*
X0080589Y0084142D01*
X0081756Y0085141D02*
X0084396Y0085141D01*
X0083186Y0086139D02*
X0082754Y0086139D01*
X0086150Y0085141D02*
X0098934Y0085141D01*
X0098934Y0086139D02*
X0087361Y0086139D01*
X0087676Y0087138D02*
X0098934Y0087138D01*
X0098934Y0088136D02*
X0087559Y0088136D01*
X0086914Y0089135D02*
X0098934Y0089135D01*
X0098934Y0090134D02*
X0086748Y0090134D01*
X0087747Y0091132D02*
X0098934Y0091132D01*
X0098934Y0092131D02*
X0088745Y0092131D01*
X0088842Y0093129D02*
X0098934Y0093129D01*
X0098934Y0094128D02*
X0090696Y0094128D01*
X0091202Y0095126D02*
X0098934Y0095126D01*
X0098934Y0096125D02*
X0091218Y0096125D01*
X0090737Y0097123D02*
X0098934Y0097123D01*
X0098934Y0098122D02*
X0084747Y0098122D01*
X0084747Y0099120D02*
X0098934Y0099120D01*
X0098934Y0100119D02*
X0084747Y0100119D01*
X0084747Y0101117D02*
X0098934Y0101117D01*
X0098934Y0102116D02*
X0089804Y0102116D01*
X0090923Y0103114D02*
X0098934Y0103114D01*
X0098934Y0104113D02*
X0093131Y0104113D01*
X0091589Y0104113D02*
X0091219Y0104113D01*
X0094429Y0105111D02*
X0098934Y0105111D01*
X0098934Y0106110D02*
X0094762Y0106110D01*
X0094664Y0107108D02*
X0098934Y0107108D01*
X0098934Y0108107D02*
X0094044Y0108107D01*
X0092400Y0109105D02*
X0098934Y0109105D01*
X0098934Y0110104D02*
X0092008Y0110104D01*
X0090516Y0111102D02*
X0098934Y0111102D01*
X0098934Y0112101D02*
X0090271Y0112101D01*
X0089564Y0113099D02*
X0098922Y0113099D01*
X0097923Y0114098D02*
X0088463Y0114098D01*
X0088122Y0115096D02*
X0096925Y0115096D01*
X0095926Y0116095D02*
X0089789Y0116095D01*
X0090595Y0117093D02*
X0094928Y0117093D01*
X0093929Y0118092D02*
X0090825Y0118092D01*
X0090624Y0119090D02*
X0092931Y0119090D01*
X0087057Y0116095D02*
X0086888Y0116095D01*
X0086222Y0119090D02*
X0066346Y0119090D01*
X0065368Y0118092D02*
X0082865Y0118092D01*
X0082208Y0117093D02*
X0051278Y0117093D01*
X0051286Y0117085D02*
X0050610Y0117761D01*
X0049727Y0118127D01*
X0048772Y0118127D01*
X0047889Y0117761D01*
X0047213Y0117085D01*
X0046847Y0116202D01*
X0046847Y0115247D01*
X0047213Y0114364D01*
X0047754Y0113823D01*
X0047517Y0113250D01*
X0047517Y0112294D01*
X0047882Y0111411D01*
X0048558Y0110735D01*
X0049441Y0110369D01*
X0049603Y0110369D01*
X0049603Y0110128D01*
X0049969Y0109245D01*
X0050645Y0108570D01*
X0051528Y0108204D01*
X0052483Y0108204D01*
X0053366Y0108570D01*
X0054042Y0109245D01*
X0054408Y0110128D01*
X0054408Y0111084D01*
X0054042Y0111967D01*
X0053366Y0112643D01*
X0052483Y0113009D01*
X0052321Y0113009D01*
X0052321Y0113250D01*
X0051956Y0114132D01*
X0051415Y0114673D01*
X0051652Y0115247D01*
X0051652Y0116202D01*
X0051286Y0117085D01*
X0051652Y0116095D02*
X0082083Y0116095D01*
X0082390Y0115096D02*
X0051590Y0115096D01*
X0051970Y0114098D02*
X0083561Y0114098D01*
X0083749Y0113099D02*
X0052321Y0113099D01*
X0053909Y0112101D02*
X0084358Y0112101D01*
X0085627Y0111102D02*
X0054400Y0111102D01*
X0054398Y0110104D02*
X0085898Y0110104D01*
X0086896Y0109105D02*
X0053902Y0109105D01*
X0050109Y0109105D02*
X0040785Y0109105D01*
X0040785Y0108107D02*
X0087650Y0108107D01*
X0088209Y0107108D02*
X0040785Y0107108D01*
X0040785Y0106110D02*
X0087222Y0106110D01*
X0087829Y0102116D02*
X0085004Y0102116D01*
X0082475Y0104113D02*
X0040785Y0104113D01*
X0040785Y0105111D02*
X0083474Y0105111D01*
X0081547Y0103114D02*
X0040785Y0103114D01*
X0040785Y0102116D02*
X0081547Y0102116D01*
X0081547Y0101117D02*
X0040785Y0101117D01*
X0040785Y0100119D02*
X0081547Y0100119D01*
X0081547Y0099120D02*
X0040785Y0099120D01*
X0040785Y0098122D02*
X0081547Y0098122D01*
X0081547Y0097123D02*
X0040785Y0097123D01*
X0040785Y0096125D02*
X0081547Y0096125D01*
X0081547Y0095126D02*
X0040785Y0095126D01*
X0040785Y0094128D02*
X0044137Y0094128D01*
X0043867Y0093857D02*
X0043501Y0092974D01*
X0043501Y0092018D01*
X0043867Y0091135D01*
X0044542Y0090459D01*
X0045425Y0090094D01*
X0046381Y0090094D01*
X0047264Y0090459D01*
X0047940Y0091135D01*
X0048305Y0092018D01*
X0048305Y0092974D01*
X0047940Y0093857D01*
X0047264Y0094533D01*
X0046381Y0094898D01*
X0045425Y0094898D01*
X0044542Y0094533D01*
X0043867Y0093857D01*
X0043565Y0093129D02*
X0040785Y0093129D01*
X0040785Y0092131D02*
X0043501Y0092131D01*
X0043870Y0091132D02*
X0040785Y0091132D01*
X0040785Y0090134D02*
X0045329Y0090134D01*
X0046477Y0090134D02*
X0050970Y0090134D01*
X0050756Y0089920D02*
X0051432Y0090596D01*
X0052315Y0090961D01*
X0053271Y0090961D01*
X0054154Y0090596D01*
X0054830Y0089920D01*
X0055195Y0089037D01*
X0055195Y0088081D01*
X0054830Y0087198D01*
X0054154Y0086522D01*
X0053271Y0086157D01*
X0052315Y0086157D01*
X0051432Y0086522D01*
X0050756Y0087198D01*
X0050391Y0088081D01*
X0050391Y0089037D01*
X0050756Y0089920D01*
X0050431Y0089135D02*
X0040785Y0089135D01*
X0040785Y0088136D02*
X0050391Y0088136D01*
X0050817Y0087138D02*
X0040785Y0087138D01*
X0040785Y0086139D02*
X0055047Y0086139D01*
X0054890Y0085983D02*
X0054524Y0085100D01*
X0054524Y0084144D01*
X0054890Y0083261D01*
X0055458Y0082694D01*
X0055268Y0082694D01*
X0054385Y0082328D01*
X0053709Y0081652D01*
X0053343Y0080769D01*
X0053343Y0079813D01*
X0053709Y0078930D01*
X0054385Y0078255D01*
X0055268Y0077889D01*
X0056224Y0077889D01*
X0057106Y0078255D01*
X0057782Y0078930D01*
X0058148Y0079813D01*
X0058148Y0080769D01*
X0057782Y0081652D01*
X0057215Y0082220D01*
X0057405Y0082220D01*
X0058288Y0082585D01*
X0058502Y0082799D01*
X0058716Y0082585D01*
X0059599Y0082220D01*
X0060554Y0082220D01*
X0061437Y0082585D01*
X0062113Y0083261D01*
X0062479Y0084144D01*
X0062479Y0085100D01*
X0062113Y0085983D01*
X0061437Y0086659D01*
X0060554Y0087024D01*
X0059599Y0087024D01*
X0058716Y0086659D01*
X0058502Y0086445D01*
X0058288Y0086659D01*
X0057405Y0087024D01*
X0056449Y0087024D01*
X0055566Y0086659D01*
X0054890Y0085983D01*
X0054541Y0085141D02*
X0040785Y0085141D01*
X0040785Y0084142D02*
X0054525Y0084142D01*
X0055007Y0083144D02*
X0040785Y0083144D01*
X0040785Y0082145D02*
X0054202Y0082145D01*
X0053500Y0081147D02*
X0040785Y0081147D01*
X0040785Y0080148D02*
X0053343Y0080148D01*
X0053618Y0079150D02*
X0040785Y0079150D01*
X0040785Y0078151D02*
X0054634Y0078151D01*
X0055228Y0076154D02*
X0057050Y0076154D01*
X0056857Y0078151D02*
X0062413Y0078151D01*
X0062578Y0079150D02*
X0057873Y0079150D01*
X0058148Y0080148D02*
X0063576Y0080148D01*
X0064575Y0081147D02*
X0057992Y0081147D01*
X0057289Y0082145D02*
X0065573Y0082145D01*
X0066572Y0083144D02*
X0061996Y0083144D01*
X0062478Y0084142D02*
X0067570Y0084142D01*
X0068569Y0085141D02*
X0062462Y0085141D01*
X0061956Y0086139D02*
X0069567Y0086139D01*
X0070566Y0087138D02*
X0054769Y0087138D01*
X0055195Y0088136D02*
X0071564Y0088136D01*
X0072563Y0089135D02*
X0055155Y0089135D01*
X0054616Y0090134D02*
X0079703Y0090134D01*
X0080702Y0091132D02*
X0047937Y0091132D01*
X0048305Y0092131D02*
X0081547Y0092131D01*
X0081547Y0093129D02*
X0048241Y0093129D01*
X0047669Y0094128D02*
X0081547Y0094128D01*
X0084747Y0094128D02*
X0085642Y0094128D01*
X0086034Y0095126D02*
X0084747Y0095126D01*
X0084747Y0096125D02*
X0086415Y0096125D01*
X0086896Y0097123D02*
X0084747Y0097123D01*
X0084747Y0093129D02*
X0085218Y0093129D01*
X0075784Y0084142D02*
X0074458Y0084142D01*
X0073459Y0083144D02*
X0076035Y0083144D01*
X0076938Y0082145D02*
X0072461Y0082145D01*
X0067115Y0076154D02*
X0066416Y0076154D01*
X0066459Y0077153D02*
X0066120Y0077153D01*
X0066105Y0078151D02*
X0066335Y0078151D01*
X0061907Y0077153D02*
X0040785Y0077153D01*
X0040785Y0076154D02*
X0053113Y0076154D01*
X0052053Y0075156D02*
X0040785Y0075156D01*
X0040785Y0074157D02*
X0051769Y0074157D01*
X0051916Y0073159D02*
X0040785Y0073159D01*
X0040785Y0072160D02*
X0052605Y0072160D01*
X0055736Y0072160D02*
X0056542Y0072160D01*
X0060510Y0074157D02*
X0062419Y0074157D01*
X0061746Y0075156D02*
X0060226Y0075156D01*
X0059165Y0076154D02*
X0061611Y0076154D01*
X0071747Y0062175D02*
X0098934Y0062175D01*
X0098934Y0061177D02*
X0072124Y0061177D01*
X0072063Y0060178D02*
X0098934Y0060178D01*
X0098934Y0059180D02*
X0071496Y0059180D01*
X0087898Y0069165D02*
X0098934Y0069165D01*
X0098934Y0070163D02*
X0088498Y0070163D01*
X0088581Y0071162D02*
X0098934Y0071162D01*
X0098934Y0072160D02*
X0088233Y0072160D01*
X0091045Y0066169D02*
X0096824Y0066169D01*
X0095825Y0065171D02*
X0092044Y0065171D01*
X0092124Y0064172D02*
X0095745Y0064172D01*
X0096095Y0063174D02*
X0091774Y0063174D01*
X0098447Y0066169D02*
X0098934Y0066169D01*
X0098934Y0055186D02*
X0098589Y0055186D01*
X0071887Y0033218D02*
X0058108Y0033218D01*
X0058381Y0032220D02*
X0071221Y0032220D01*
X0071020Y0031221D02*
X0058581Y0031221D01*
X0058351Y0030223D02*
X0071251Y0030223D01*
X0071626Y0029224D02*
X0058108Y0029224D01*
X0058243Y0028226D02*
X0071359Y0028226D01*
X0071359Y0027227D02*
X0058243Y0027227D01*
X0058134Y0026229D02*
X0071467Y0026229D01*
X0071633Y0025230D02*
X0058108Y0025230D01*
X0058581Y0024232D02*
X0071020Y0024232D01*
X0071020Y0023233D02*
X0058581Y0023233D01*
X0049613Y0110104D02*
X0040785Y0110104D01*
X0040785Y0111102D02*
X0048191Y0111102D01*
X0047596Y0112101D02*
X0040785Y0112101D01*
X0040785Y0113099D02*
X0047517Y0113099D01*
X0047479Y0114098D02*
X0040404Y0114098D01*
X0039406Y0115096D02*
X0046909Y0115096D01*
X0046847Y0116095D02*
X0030668Y0116095D01*
X0030668Y0117093D02*
X0047221Y0117093D01*
X0048687Y0118092D02*
X0030668Y0118092D01*
X0030668Y0119090D02*
X0062075Y0119090D01*
X0063053Y0118092D02*
X0049812Y0118092D01*
X0055352Y0120089D02*
X0030668Y0120089D01*
X0030668Y0121087D02*
X0055352Y0121087D01*
X0055352Y0122086D02*
X0030668Y0122086D01*
X0030668Y0123084D02*
X0055352Y0123084D01*
X0055352Y0124083D02*
X0030668Y0124083D01*
X0030668Y0125081D02*
X0055352Y0125081D01*
X0055352Y0126080D02*
X0030668Y0126080D01*
D15*
X0038817Y0073992D02*
X0044328Y0073992D01*
X0085667Y0118874D02*
X0085667Y0121236D01*
X0089604Y0121236D01*
X0091966Y0118874D01*
D16*
X0088817Y0104307D02*
X0084932Y0104307D01*
X0083147Y0102522D01*
X0083147Y0091315D01*
X0079998Y0088165D01*
X0073856Y0088165D01*
X0064013Y0078323D01*
X0064013Y0075961D01*
X0068738Y0077929D02*
X0068738Y0080685D01*
X0074643Y0086591D01*
X0080943Y0086591D01*
X0087242Y0092890D01*
X0087242Y0094071D01*
X0088817Y0095646D01*
M02*
