G75*
%MOIN*%
%OFA0B0*%
%FSLAX25Y25*%
%IPPOS*%
%LPD*%
%AMOC8*
5,1,8,0,0,1.08239X$1,22.5*
%
%ADD10C,0.00000*%
%ADD11R,0.07520X0.07520*%
%ADD12C,0.00344*%
%ADD13R,0.02362X0.02756*%
%ADD14R,0.03937X0.06693*%
%ADD15R,0.02756X0.02362*%
%ADD16R,0.02756X0.03543*%
%ADD17R,0.03150X0.04724*%
%ADD18R,0.04724X0.03150*%
%ADD19R,0.02323X0.05709*%
%ADD20R,0.03268X0.02480*%
D10*
X0029368Y0021236D02*
X0029368Y0127535D01*
X0100234Y0127535D01*
X0100234Y0021236D01*
X0029368Y0021236D01*
X0031375Y0023835D02*
X0031377Y0023883D01*
X0031383Y0023931D01*
X0031393Y0023978D01*
X0031406Y0024024D01*
X0031424Y0024069D01*
X0031444Y0024113D01*
X0031469Y0024155D01*
X0031497Y0024194D01*
X0031527Y0024231D01*
X0031561Y0024265D01*
X0031598Y0024297D01*
X0031636Y0024326D01*
X0031677Y0024351D01*
X0031720Y0024373D01*
X0031765Y0024391D01*
X0031811Y0024405D01*
X0031858Y0024416D01*
X0031906Y0024423D01*
X0031954Y0024426D01*
X0032002Y0024425D01*
X0032050Y0024420D01*
X0032098Y0024411D01*
X0032144Y0024399D01*
X0032189Y0024382D01*
X0032233Y0024362D01*
X0032275Y0024339D01*
X0032315Y0024312D01*
X0032353Y0024282D01*
X0032388Y0024249D01*
X0032420Y0024213D01*
X0032450Y0024175D01*
X0032476Y0024134D01*
X0032498Y0024091D01*
X0032518Y0024047D01*
X0032533Y0024002D01*
X0032545Y0023955D01*
X0032553Y0023907D01*
X0032557Y0023859D01*
X0032557Y0023811D01*
X0032553Y0023763D01*
X0032545Y0023715D01*
X0032533Y0023668D01*
X0032518Y0023623D01*
X0032498Y0023579D01*
X0032476Y0023536D01*
X0032450Y0023495D01*
X0032420Y0023457D01*
X0032388Y0023421D01*
X0032353Y0023388D01*
X0032315Y0023358D01*
X0032275Y0023331D01*
X0032233Y0023308D01*
X0032189Y0023288D01*
X0032144Y0023271D01*
X0032098Y0023259D01*
X0032050Y0023250D01*
X0032002Y0023245D01*
X0031954Y0023244D01*
X0031906Y0023247D01*
X0031858Y0023254D01*
X0031811Y0023265D01*
X0031765Y0023279D01*
X0031720Y0023297D01*
X0031677Y0023319D01*
X0031636Y0023344D01*
X0031598Y0023373D01*
X0031561Y0023405D01*
X0031527Y0023439D01*
X0031497Y0023476D01*
X0031469Y0023515D01*
X0031444Y0023557D01*
X0031424Y0023601D01*
X0031406Y0023646D01*
X0031393Y0023692D01*
X0031383Y0023739D01*
X0031377Y0023787D01*
X0031375Y0023835D01*
X0031375Y0031236D02*
X0031377Y0031284D01*
X0031383Y0031332D01*
X0031393Y0031379D01*
X0031406Y0031425D01*
X0031424Y0031470D01*
X0031444Y0031514D01*
X0031469Y0031556D01*
X0031497Y0031595D01*
X0031527Y0031632D01*
X0031561Y0031666D01*
X0031598Y0031698D01*
X0031636Y0031727D01*
X0031677Y0031752D01*
X0031720Y0031774D01*
X0031765Y0031792D01*
X0031811Y0031806D01*
X0031858Y0031817D01*
X0031906Y0031824D01*
X0031954Y0031827D01*
X0032002Y0031826D01*
X0032050Y0031821D01*
X0032098Y0031812D01*
X0032144Y0031800D01*
X0032189Y0031783D01*
X0032233Y0031763D01*
X0032275Y0031740D01*
X0032315Y0031713D01*
X0032353Y0031683D01*
X0032388Y0031650D01*
X0032420Y0031614D01*
X0032450Y0031576D01*
X0032476Y0031535D01*
X0032498Y0031492D01*
X0032518Y0031448D01*
X0032533Y0031403D01*
X0032545Y0031356D01*
X0032553Y0031308D01*
X0032557Y0031260D01*
X0032557Y0031212D01*
X0032553Y0031164D01*
X0032545Y0031116D01*
X0032533Y0031069D01*
X0032518Y0031024D01*
X0032498Y0030980D01*
X0032476Y0030937D01*
X0032450Y0030896D01*
X0032420Y0030858D01*
X0032388Y0030822D01*
X0032353Y0030789D01*
X0032315Y0030759D01*
X0032275Y0030732D01*
X0032233Y0030709D01*
X0032189Y0030689D01*
X0032144Y0030672D01*
X0032098Y0030660D01*
X0032050Y0030651D01*
X0032002Y0030646D01*
X0031954Y0030645D01*
X0031906Y0030648D01*
X0031858Y0030655D01*
X0031811Y0030666D01*
X0031765Y0030680D01*
X0031720Y0030698D01*
X0031677Y0030720D01*
X0031636Y0030745D01*
X0031598Y0030774D01*
X0031561Y0030806D01*
X0031527Y0030840D01*
X0031497Y0030877D01*
X0031469Y0030916D01*
X0031444Y0030958D01*
X0031424Y0031002D01*
X0031406Y0031047D01*
X0031393Y0031093D01*
X0031383Y0031140D01*
X0031377Y0031188D01*
X0031375Y0031236D01*
X0038777Y0031236D02*
X0038779Y0031284D01*
X0038785Y0031332D01*
X0038795Y0031379D01*
X0038808Y0031425D01*
X0038826Y0031470D01*
X0038846Y0031514D01*
X0038871Y0031556D01*
X0038899Y0031595D01*
X0038929Y0031632D01*
X0038963Y0031666D01*
X0039000Y0031698D01*
X0039038Y0031727D01*
X0039079Y0031752D01*
X0039122Y0031774D01*
X0039167Y0031792D01*
X0039213Y0031806D01*
X0039260Y0031817D01*
X0039308Y0031824D01*
X0039356Y0031827D01*
X0039404Y0031826D01*
X0039452Y0031821D01*
X0039500Y0031812D01*
X0039546Y0031800D01*
X0039591Y0031783D01*
X0039635Y0031763D01*
X0039677Y0031740D01*
X0039717Y0031713D01*
X0039755Y0031683D01*
X0039790Y0031650D01*
X0039822Y0031614D01*
X0039852Y0031576D01*
X0039878Y0031535D01*
X0039900Y0031492D01*
X0039920Y0031448D01*
X0039935Y0031403D01*
X0039947Y0031356D01*
X0039955Y0031308D01*
X0039959Y0031260D01*
X0039959Y0031212D01*
X0039955Y0031164D01*
X0039947Y0031116D01*
X0039935Y0031069D01*
X0039920Y0031024D01*
X0039900Y0030980D01*
X0039878Y0030937D01*
X0039852Y0030896D01*
X0039822Y0030858D01*
X0039790Y0030822D01*
X0039755Y0030789D01*
X0039717Y0030759D01*
X0039677Y0030732D01*
X0039635Y0030709D01*
X0039591Y0030689D01*
X0039546Y0030672D01*
X0039500Y0030660D01*
X0039452Y0030651D01*
X0039404Y0030646D01*
X0039356Y0030645D01*
X0039308Y0030648D01*
X0039260Y0030655D01*
X0039213Y0030666D01*
X0039167Y0030680D01*
X0039122Y0030698D01*
X0039079Y0030720D01*
X0039038Y0030745D01*
X0039000Y0030774D01*
X0038963Y0030806D01*
X0038929Y0030840D01*
X0038899Y0030877D01*
X0038871Y0030916D01*
X0038846Y0030958D01*
X0038826Y0031002D01*
X0038808Y0031047D01*
X0038795Y0031093D01*
X0038785Y0031140D01*
X0038779Y0031188D01*
X0038777Y0031236D01*
X0038777Y0023835D02*
X0038779Y0023883D01*
X0038785Y0023931D01*
X0038795Y0023978D01*
X0038808Y0024024D01*
X0038826Y0024069D01*
X0038846Y0024113D01*
X0038871Y0024155D01*
X0038899Y0024194D01*
X0038929Y0024231D01*
X0038963Y0024265D01*
X0039000Y0024297D01*
X0039038Y0024326D01*
X0039079Y0024351D01*
X0039122Y0024373D01*
X0039167Y0024391D01*
X0039213Y0024405D01*
X0039260Y0024416D01*
X0039308Y0024423D01*
X0039356Y0024426D01*
X0039404Y0024425D01*
X0039452Y0024420D01*
X0039500Y0024411D01*
X0039546Y0024399D01*
X0039591Y0024382D01*
X0039635Y0024362D01*
X0039677Y0024339D01*
X0039717Y0024312D01*
X0039755Y0024282D01*
X0039790Y0024249D01*
X0039822Y0024213D01*
X0039852Y0024175D01*
X0039878Y0024134D01*
X0039900Y0024091D01*
X0039920Y0024047D01*
X0039935Y0024002D01*
X0039947Y0023955D01*
X0039955Y0023907D01*
X0039959Y0023859D01*
X0039959Y0023811D01*
X0039955Y0023763D01*
X0039947Y0023715D01*
X0039935Y0023668D01*
X0039920Y0023623D01*
X0039900Y0023579D01*
X0039878Y0023536D01*
X0039852Y0023495D01*
X0039822Y0023457D01*
X0039790Y0023421D01*
X0039755Y0023388D01*
X0039717Y0023358D01*
X0039677Y0023331D01*
X0039635Y0023308D01*
X0039591Y0023288D01*
X0039546Y0023271D01*
X0039500Y0023259D01*
X0039452Y0023250D01*
X0039404Y0023245D01*
X0039356Y0023244D01*
X0039308Y0023247D01*
X0039260Y0023254D01*
X0039213Y0023265D01*
X0039167Y0023279D01*
X0039122Y0023297D01*
X0039079Y0023319D01*
X0039038Y0023344D01*
X0039000Y0023373D01*
X0038963Y0023405D01*
X0038929Y0023439D01*
X0038899Y0023476D01*
X0038871Y0023515D01*
X0038846Y0023557D01*
X0038826Y0023601D01*
X0038808Y0023646D01*
X0038795Y0023692D01*
X0038785Y0023739D01*
X0038779Y0023787D01*
X0038777Y0023835D01*
X0048698Y0023835D02*
X0048700Y0023883D01*
X0048706Y0023931D01*
X0048716Y0023978D01*
X0048729Y0024024D01*
X0048747Y0024069D01*
X0048767Y0024113D01*
X0048792Y0024155D01*
X0048820Y0024194D01*
X0048850Y0024231D01*
X0048884Y0024265D01*
X0048921Y0024297D01*
X0048959Y0024326D01*
X0049000Y0024351D01*
X0049043Y0024373D01*
X0049088Y0024391D01*
X0049134Y0024405D01*
X0049181Y0024416D01*
X0049229Y0024423D01*
X0049277Y0024426D01*
X0049325Y0024425D01*
X0049373Y0024420D01*
X0049421Y0024411D01*
X0049467Y0024399D01*
X0049512Y0024382D01*
X0049556Y0024362D01*
X0049598Y0024339D01*
X0049638Y0024312D01*
X0049676Y0024282D01*
X0049711Y0024249D01*
X0049743Y0024213D01*
X0049773Y0024175D01*
X0049799Y0024134D01*
X0049821Y0024091D01*
X0049841Y0024047D01*
X0049856Y0024002D01*
X0049868Y0023955D01*
X0049876Y0023907D01*
X0049880Y0023859D01*
X0049880Y0023811D01*
X0049876Y0023763D01*
X0049868Y0023715D01*
X0049856Y0023668D01*
X0049841Y0023623D01*
X0049821Y0023579D01*
X0049799Y0023536D01*
X0049773Y0023495D01*
X0049743Y0023457D01*
X0049711Y0023421D01*
X0049676Y0023388D01*
X0049638Y0023358D01*
X0049598Y0023331D01*
X0049556Y0023308D01*
X0049512Y0023288D01*
X0049467Y0023271D01*
X0049421Y0023259D01*
X0049373Y0023250D01*
X0049325Y0023245D01*
X0049277Y0023244D01*
X0049229Y0023247D01*
X0049181Y0023254D01*
X0049134Y0023265D01*
X0049088Y0023279D01*
X0049043Y0023297D01*
X0049000Y0023319D01*
X0048959Y0023344D01*
X0048921Y0023373D01*
X0048884Y0023405D01*
X0048850Y0023439D01*
X0048820Y0023476D01*
X0048792Y0023515D01*
X0048767Y0023557D01*
X0048747Y0023601D01*
X0048729Y0023646D01*
X0048716Y0023692D01*
X0048706Y0023739D01*
X0048700Y0023787D01*
X0048698Y0023835D01*
X0048698Y0031236D02*
X0048700Y0031284D01*
X0048706Y0031332D01*
X0048716Y0031379D01*
X0048729Y0031425D01*
X0048747Y0031470D01*
X0048767Y0031514D01*
X0048792Y0031556D01*
X0048820Y0031595D01*
X0048850Y0031632D01*
X0048884Y0031666D01*
X0048921Y0031698D01*
X0048959Y0031727D01*
X0049000Y0031752D01*
X0049043Y0031774D01*
X0049088Y0031792D01*
X0049134Y0031806D01*
X0049181Y0031817D01*
X0049229Y0031824D01*
X0049277Y0031827D01*
X0049325Y0031826D01*
X0049373Y0031821D01*
X0049421Y0031812D01*
X0049467Y0031800D01*
X0049512Y0031783D01*
X0049556Y0031763D01*
X0049598Y0031740D01*
X0049638Y0031713D01*
X0049676Y0031683D01*
X0049711Y0031650D01*
X0049743Y0031614D01*
X0049773Y0031576D01*
X0049799Y0031535D01*
X0049821Y0031492D01*
X0049841Y0031448D01*
X0049856Y0031403D01*
X0049868Y0031356D01*
X0049876Y0031308D01*
X0049880Y0031260D01*
X0049880Y0031212D01*
X0049876Y0031164D01*
X0049868Y0031116D01*
X0049856Y0031069D01*
X0049841Y0031024D01*
X0049821Y0030980D01*
X0049799Y0030937D01*
X0049773Y0030896D01*
X0049743Y0030858D01*
X0049711Y0030822D01*
X0049676Y0030789D01*
X0049638Y0030759D01*
X0049598Y0030732D01*
X0049556Y0030709D01*
X0049512Y0030689D01*
X0049467Y0030672D01*
X0049421Y0030660D01*
X0049373Y0030651D01*
X0049325Y0030646D01*
X0049277Y0030645D01*
X0049229Y0030648D01*
X0049181Y0030655D01*
X0049134Y0030666D01*
X0049088Y0030680D01*
X0049043Y0030698D01*
X0049000Y0030720D01*
X0048959Y0030745D01*
X0048921Y0030774D01*
X0048884Y0030806D01*
X0048850Y0030840D01*
X0048820Y0030877D01*
X0048792Y0030916D01*
X0048767Y0030958D01*
X0048747Y0031002D01*
X0048729Y0031047D01*
X0048716Y0031093D01*
X0048706Y0031140D01*
X0048700Y0031188D01*
X0048698Y0031236D01*
X0056100Y0031236D02*
X0056102Y0031284D01*
X0056108Y0031332D01*
X0056118Y0031379D01*
X0056131Y0031425D01*
X0056149Y0031470D01*
X0056169Y0031514D01*
X0056194Y0031556D01*
X0056222Y0031595D01*
X0056252Y0031632D01*
X0056286Y0031666D01*
X0056323Y0031698D01*
X0056361Y0031727D01*
X0056402Y0031752D01*
X0056445Y0031774D01*
X0056490Y0031792D01*
X0056536Y0031806D01*
X0056583Y0031817D01*
X0056631Y0031824D01*
X0056679Y0031827D01*
X0056727Y0031826D01*
X0056775Y0031821D01*
X0056823Y0031812D01*
X0056869Y0031800D01*
X0056914Y0031783D01*
X0056958Y0031763D01*
X0057000Y0031740D01*
X0057040Y0031713D01*
X0057078Y0031683D01*
X0057113Y0031650D01*
X0057145Y0031614D01*
X0057175Y0031576D01*
X0057201Y0031535D01*
X0057223Y0031492D01*
X0057243Y0031448D01*
X0057258Y0031403D01*
X0057270Y0031356D01*
X0057278Y0031308D01*
X0057282Y0031260D01*
X0057282Y0031212D01*
X0057278Y0031164D01*
X0057270Y0031116D01*
X0057258Y0031069D01*
X0057243Y0031024D01*
X0057223Y0030980D01*
X0057201Y0030937D01*
X0057175Y0030896D01*
X0057145Y0030858D01*
X0057113Y0030822D01*
X0057078Y0030789D01*
X0057040Y0030759D01*
X0057000Y0030732D01*
X0056958Y0030709D01*
X0056914Y0030689D01*
X0056869Y0030672D01*
X0056823Y0030660D01*
X0056775Y0030651D01*
X0056727Y0030646D01*
X0056679Y0030645D01*
X0056631Y0030648D01*
X0056583Y0030655D01*
X0056536Y0030666D01*
X0056490Y0030680D01*
X0056445Y0030698D01*
X0056402Y0030720D01*
X0056361Y0030745D01*
X0056323Y0030774D01*
X0056286Y0030806D01*
X0056252Y0030840D01*
X0056222Y0030877D01*
X0056194Y0030916D01*
X0056169Y0030958D01*
X0056149Y0031002D01*
X0056131Y0031047D01*
X0056118Y0031093D01*
X0056108Y0031140D01*
X0056102Y0031188D01*
X0056100Y0031236D01*
X0056100Y0023835D02*
X0056102Y0023883D01*
X0056108Y0023931D01*
X0056118Y0023978D01*
X0056131Y0024024D01*
X0056149Y0024069D01*
X0056169Y0024113D01*
X0056194Y0024155D01*
X0056222Y0024194D01*
X0056252Y0024231D01*
X0056286Y0024265D01*
X0056323Y0024297D01*
X0056361Y0024326D01*
X0056402Y0024351D01*
X0056445Y0024373D01*
X0056490Y0024391D01*
X0056536Y0024405D01*
X0056583Y0024416D01*
X0056631Y0024423D01*
X0056679Y0024426D01*
X0056727Y0024425D01*
X0056775Y0024420D01*
X0056823Y0024411D01*
X0056869Y0024399D01*
X0056914Y0024382D01*
X0056958Y0024362D01*
X0057000Y0024339D01*
X0057040Y0024312D01*
X0057078Y0024282D01*
X0057113Y0024249D01*
X0057145Y0024213D01*
X0057175Y0024175D01*
X0057201Y0024134D01*
X0057223Y0024091D01*
X0057243Y0024047D01*
X0057258Y0024002D01*
X0057270Y0023955D01*
X0057278Y0023907D01*
X0057282Y0023859D01*
X0057282Y0023811D01*
X0057278Y0023763D01*
X0057270Y0023715D01*
X0057258Y0023668D01*
X0057243Y0023623D01*
X0057223Y0023579D01*
X0057201Y0023536D01*
X0057175Y0023495D01*
X0057145Y0023457D01*
X0057113Y0023421D01*
X0057078Y0023388D01*
X0057040Y0023358D01*
X0057000Y0023331D01*
X0056958Y0023308D01*
X0056914Y0023288D01*
X0056869Y0023271D01*
X0056823Y0023259D01*
X0056775Y0023250D01*
X0056727Y0023245D01*
X0056679Y0023244D01*
X0056631Y0023247D01*
X0056583Y0023254D01*
X0056536Y0023265D01*
X0056490Y0023279D01*
X0056445Y0023297D01*
X0056402Y0023319D01*
X0056361Y0023344D01*
X0056323Y0023373D01*
X0056286Y0023405D01*
X0056252Y0023439D01*
X0056222Y0023476D01*
X0056194Y0023515D01*
X0056169Y0023557D01*
X0056149Y0023601D01*
X0056131Y0023646D01*
X0056118Y0023692D01*
X0056108Y0023739D01*
X0056102Y0023787D01*
X0056100Y0023835D01*
X0072320Y0023835D02*
X0072322Y0023883D01*
X0072328Y0023931D01*
X0072338Y0023978D01*
X0072351Y0024024D01*
X0072369Y0024069D01*
X0072389Y0024113D01*
X0072414Y0024155D01*
X0072442Y0024194D01*
X0072472Y0024231D01*
X0072506Y0024265D01*
X0072543Y0024297D01*
X0072581Y0024326D01*
X0072622Y0024351D01*
X0072665Y0024373D01*
X0072710Y0024391D01*
X0072756Y0024405D01*
X0072803Y0024416D01*
X0072851Y0024423D01*
X0072899Y0024426D01*
X0072947Y0024425D01*
X0072995Y0024420D01*
X0073043Y0024411D01*
X0073089Y0024399D01*
X0073134Y0024382D01*
X0073178Y0024362D01*
X0073220Y0024339D01*
X0073260Y0024312D01*
X0073298Y0024282D01*
X0073333Y0024249D01*
X0073365Y0024213D01*
X0073395Y0024175D01*
X0073421Y0024134D01*
X0073443Y0024091D01*
X0073463Y0024047D01*
X0073478Y0024002D01*
X0073490Y0023955D01*
X0073498Y0023907D01*
X0073502Y0023859D01*
X0073502Y0023811D01*
X0073498Y0023763D01*
X0073490Y0023715D01*
X0073478Y0023668D01*
X0073463Y0023623D01*
X0073443Y0023579D01*
X0073421Y0023536D01*
X0073395Y0023495D01*
X0073365Y0023457D01*
X0073333Y0023421D01*
X0073298Y0023388D01*
X0073260Y0023358D01*
X0073220Y0023331D01*
X0073178Y0023308D01*
X0073134Y0023288D01*
X0073089Y0023271D01*
X0073043Y0023259D01*
X0072995Y0023250D01*
X0072947Y0023245D01*
X0072899Y0023244D01*
X0072851Y0023247D01*
X0072803Y0023254D01*
X0072756Y0023265D01*
X0072710Y0023279D01*
X0072665Y0023297D01*
X0072622Y0023319D01*
X0072581Y0023344D01*
X0072543Y0023373D01*
X0072506Y0023405D01*
X0072472Y0023439D01*
X0072442Y0023476D01*
X0072414Y0023515D01*
X0072389Y0023557D01*
X0072369Y0023601D01*
X0072351Y0023646D01*
X0072338Y0023692D01*
X0072328Y0023739D01*
X0072322Y0023787D01*
X0072320Y0023835D01*
X0072320Y0031236D02*
X0072322Y0031284D01*
X0072328Y0031332D01*
X0072338Y0031379D01*
X0072351Y0031425D01*
X0072369Y0031470D01*
X0072389Y0031514D01*
X0072414Y0031556D01*
X0072442Y0031595D01*
X0072472Y0031632D01*
X0072506Y0031666D01*
X0072543Y0031698D01*
X0072581Y0031727D01*
X0072622Y0031752D01*
X0072665Y0031774D01*
X0072710Y0031792D01*
X0072756Y0031806D01*
X0072803Y0031817D01*
X0072851Y0031824D01*
X0072899Y0031827D01*
X0072947Y0031826D01*
X0072995Y0031821D01*
X0073043Y0031812D01*
X0073089Y0031800D01*
X0073134Y0031783D01*
X0073178Y0031763D01*
X0073220Y0031740D01*
X0073260Y0031713D01*
X0073298Y0031683D01*
X0073333Y0031650D01*
X0073365Y0031614D01*
X0073395Y0031576D01*
X0073421Y0031535D01*
X0073443Y0031492D01*
X0073463Y0031448D01*
X0073478Y0031403D01*
X0073490Y0031356D01*
X0073498Y0031308D01*
X0073502Y0031260D01*
X0073502Y0031212D01*
X0073498Y0031164D01*
X0073490Y0031116D01*
X0073478Y0031069D01*
X0073463Y0031024D01*
X0073443Y0030980D01*
X0073421Y0030937D01*
X0073395Y0030896D01*
X0073365Y0030858D01*
X0073333Y0030822D01*
X0073298Y0030789D01*
X0073260Y0030759D01*
X0073220Y0030732D01*
X0073178Y0030709D01*
X0073134Y0030689D01*
X0073089Y0030672D01*
X0073043Y0030660D01*
X0072995Y0030651D01*
X0072947Y0030646D01*
X0072899Y0030645D01*
X0072851Y0030648D01*
X0072803Y0030655D01*
X0072756Y0030666D01*
X0072710Y0030680D01*
X0072665Y0030698D01*
X0072622Y0030720D01*
X0072581Y0030745D01*
X0072543Y0030774D01*
X0072506Y0030806D01*
X0072472Y0030840D01*
X0072442Y0030877D01*
X0072414Y0030916D01*
X0072389Y0030958D01*
X0072369Y0031002D01*
X0072351Y0031047D01*
X0072338Y0031093D01*
X0072328Y0031140D01*
X0072322Y0031188D01*
X0072320Y0031236D01*
X0079722Y0031236D02*
X0079724Y0031284D01*
X0079730Y0031332D01*
X0079740Y0031379D01*
X0079753Y0031425D01*
X0079771Y0031470D01*
X0079791Y0031514D01*
X0079816Y0031556D01*
X0079844Y0031595D01*
X0079874Y0031632D01*
X0079908Y0031666D01*
X0079945Y0031698D01*
X0079983Y0031727D01*
X0080024Y0031752D01*
X0080067Y0031774D01*
X0080112Y0031792D01*
X0080158Y0031806D01*
X0080205Y0031817D01*
X0080253Y0031824D01*
X0080301Y0031827D01*
X0080349Y0031826D01*
X0080397Y0031821D01*
X0080445Y0031812D01*
X0080491Y0031800D01*
X0080536Y0031783D01*
X0080580Y0031763D01*
X0080622Y0031740D01*
X0080662Y0031713D01*
X0080700Y0031683D01*
X0080735Y0031650D01*
X0080767Y0031614D01*
X0080797Y0031576D01*
X0080823Y0031535D01*
X0080845Y0031492D01*
X0080865Y0031448D01*
X0080880Y0031403D01*
X0080892Y0031356D01*
X0080900Y0031308D01*
X0080904Y0031260D01*
X0080904Y0031212D01*
X0080900Y0031164D01*
X0080892Y0031116D01*
X0080880Y0031069D01*
X0080865Y0031024D01*
X0080845Y0030980D01*
X0080823Y0030937D01*
X0080797Y0030896D01*
X0080767Y0030858D01*
X0080735Y0030822D01*
X0080700Y0030789D01*
X0080662Y0030759D01*
X0080622Y0030732D01*
X0080580Y0030709D01*
X0080536Y0030689D01*
X0080491Y0030672D01*
X0080445Y0030660D01*
X0080397Y0030651D01*
X0080349Y0030646D01*
X0080301Y0030645D01*
X0080253Y0030648D01*
X0080205Y0030655D01*
X0080158Y0030666D01*
X0080112Y0030680D01*
X0080067Y0030698D01*
X0080024Y0030720D01*
X0079983Y0030745D01*
X0079945Y0030774D01*
X0079908Y0030806D01*
X0079874Y0030840D01*
X0079844Y0030877D01*
X0079816Y0030916D01*
X0079791Y0030958D01*
X0079771Y0031002D01*
X0079753Y0031047D01*
X0079740Y0031093D01*
X0079730Y0031140D01*
X0079724Y0031188D01*
X0079722Y0031236D01*
X0079722Y0023835D02*
X0079724Y0023883D01*
X0079730Y0023931D01*
X0079740Y0023978D01*
X0079753Y0024024D01*
X0079771Y0024069D01*
X0079791Y0024113D01*
X0079816Y0024155D01*
X0079844Y0024194D01*
X0079874Y0024231D01*
X0079908Y0024265D01*
X0079945Y0024297D01*
X0079983Y0024326D01*
X0080024Y0024351D01*
X0080067Y0024373D01*
X0080112Y0024391D01*
X0080158Y0024405D01*
X0080205Y0024416D01*
X0080253Y0024423D01*
X0080301Y0024426D01*
X0080349Y0024425D01*
X0080397Y0024420D01*
X0080445Y0024411D01*
X0080491Y0024399D01*
X0080536Y0024382D01*
X0080580Y0024362D01*
X0080622Y0024339D01*
X0080662Y0024312D01*
X0080700Y0024282D01*
X0080735Y0024249D01*
X0080767Y0024213D01*
X0080797Y0024175D01*
X0080823Y0024134D01*
X0080845Y0024091D01*
X0080865Y0024047D01*
X0080880Y0024002D01*
X0080892Y0023955D01*
X0080900Y0023907D01*
X0080904Y0023859D01*
X0080904Y0023811D01*
X0080900Y0023763D01*
X0080892Y0023715D01*
X0080880Y0023668D01*
X0080865Y0023623D01*
X0080845Y0023579D01*
X0080823Y0023536D01*
X0080797Y0023495D01*
X0080767Y0023457D01*
X0080735Y0023421D01*
X0080700Y0023388D01*
X0080662Y0023358D01*
X0080622Y0023331D01*
X0080580Y0023308D01*
X0080536Y0023288D01*
X0080491Y0023271D01*
X0080445Y0023259D01*
X0080397Y0023250D01*
X0080349Y0023245D01*
X0080301Y0023244D01*
X0080253Y0023247D01*
X0080205Y0023254D01*
X0080158Y0023265D01*
X0080112Y0023279D01*
X0080067Y0023297D01*
X0080024Y0023319D01*
X0079983Y0023344D01*
X0079945Y0023373D01*
X0079908Y0023405D01*
X0079874Y0023439D01*
X0079844Y0023476D01*
X0079816Y0023515D01*
X0079791Y0023557D01*
X0079771Y0023601D01*
X0079753Y0023646D01*
X0079740Y0023692D01*
X0079730Y0023739D01*
X0079724Y0023787D01*
X0079722Y0023835D01*
X0089643Y0023835D02*
X0089645Y0023883D01*
X0089651Y0023931D01*
X0089661Y0023978D01*
X0089674Y0024024D01*
X0089692Y0024069D01*
X0089712Y0024113D01*
X0089737Y0024155D01*
X0089765Y0024194D01*
X0089795Y0024231D01*
X0089829Y0024265D01*
X0089866Y0024297D01*
X0089904Y0024326D01*
X0089945Y0024351D01*
X0089988Y0024373D01*
X0090033Y0024391D01*
X0090079Y0024405D01*
X0090126Y0024416D01*
X0090174Y0024423D01*
X0090222Y0024426D01*
X0090270Y0024425D01*
X0090318Y0024420D01*
X0090366Y0024411D01*
X0090412Y0024399D01*
X0090457Y0024382D01*
X0090501Y0024362D01*
X0090543Y0024339D01*
X0090583Y0024312D01*
X0090621Y0024282D01*
X0090656Y0024249D01*
X0090688Y0024213D01*
X0090718Y0024175D01*
X0090744Y0024134D01*
X0090766Y0024091D01*
X0090786Y0024047D01*
X0090801Y0024002D01*
X0090813Y0023955D01*
X0090821Y0023907D01*
X0090825Y0023859D01*
X0090825Y0023811D01*
X0090821Y0023763D01*
X0090813Y0023715D01*
X0090801Y0023668D01*
X0090786Y0023623D01*
X0090766Y0023579D01*
X0090744Y0023536D01*
X0090718Y0023495D01*
X0090688Y0023457D01*
X0090656Y0023421D01*
X0090621Y0023388D01*
X0090583Y0023358D01*
X0090543Y0023331D01*
X0090501Y0023308D01*
X0090457Y0023288D01*
X0090412Y0023271D01*
X0090366Y0023259D01*
X0090318Y0023250D01*
X0090270Y0023245D01*
X0090222Y0023244D01*
X0090174Y0023247D01*
X0090126Y0023254D01*
X0090079Y0023265D01*
X0090033Y0023279D01*
X0089988Y0023297D01*
X0089945Y0023319D01*
X0089904Y0023344D01*
X0089866Y0023373D01*
X0089829Y0023405D01*
X0089795Y0023439D01*
X0089765Y0023476D01*
X0089737Y0023515D01*
X0089712Y0023557D01*
X0089692Y0023601D01*
X0089674Y0023646D01*
X0089661Y0023692D01*
X0089651Y0023739D01*
X0089645Y0023787D01*
X0089643Y0023835D01*
X0089643Y0031236D02*
X0089645Y0031284D01*
X0089651Y0031332D01*
X0089661Y0031379D01*
X0089674Y0031425D01*
X0089692Y0031470D01*
X0089712Y0031514D01*
X0089737Y0031556D01*
X0089765Y0031595D01*
X0089795Y0031632D01*
X0089829Y0031666D01*
X0089866Y0031698D01*
X0089904Y0031727D01*
X0089945Y0031752D01*
X0089988Y0031774D01*
X0090033Y0031792D01*
X0090079Y0031806D01*
X0090126Y0031817D01*
X0090174Y0031824D01*
X0090222Y0031827D01*
X0090270Y0031826D01*
X0090318Y0031821D01*
X0090366Y0031812D01*
X0090412Y0031800D01*
X0090457Y0031783D01*
X0090501Y0031763D01*
X0090543Y0031740D01*
X0090583Y0031713D01*
X0090621Y0031683D01*
X0090656Y0031650D01*
X0090688Y0031614D01*
X0090718Y0031576D01*
X0090744Y0031535D01*
X0090766Y0031492D01*
X0090786Y0031448D01*
X0090801Y0031403D01*
X0090813Y0031356D01*
X0090821Y0031308D01*
X0090825Y0031260D01*
X0090825Y0031212D01*
X0090821Y0031164D01*
X0090813Y0031116D01*
X0090801Y0031069D01*
X0090786Y0031024D01*
X0090766Y0030980D01*
X0090744Y0030937D01*
X0090718Y0030896D01*
X0090688Y0030858D01*
X0090656Y0030822D01*
X0090621Y0030789D01*
X0090583Y0030759D01*
X0090543Y0030732D01*
X0090501Y0030709D01*
X0090457Y0030689D01*
X0090412Y0030672D01*
X0090366Y0030660D01*
X0090318Y0030651D01*
X0090270Y0030646D01*
X0090222Y0030645D01*
X0090174Y0030648D01*
X0090126Y0030655D01*
X0090079Y0030666D01*
X0090033Y0030680D01*
X0089988Y0030698D01*
X0089945Y0030720D01*
X0089904Y0030745D01*
X0089866Y0030774D01*
X0089829Y0030806D01*
X0089795Y0030840D01*
X0089765Y0030877D01*
X0089737Y0030916D01*
X0089712Y0030958D01*
X0089692Y0031002D01*
X0089674Y0031047D01*
X0089661Y0031093D01*
X0089651Y0031140D01*
X0089645Y0031188D01*
X0089643Y0031236D01*
X0097044Y0031236D02*
X0097046Y0031284D01*
X0097052Y0031332D01*
X0097062Y0031379D01*
X0097075Y0031425D01*
X0097093Y0031470D01*
X0097113Y0031514D01*
X0097138Y0031556D01*
X0097166Y0031595D01*
X0097196Y0031632D01*
X0097230Y0031666D01*
X0097267Y0031698D01*
X0097305Y0031727D01*
X0097346Y0031752D01*
X0097389Y0031774D01*
X0097434Y0031792D01*
X0097480Y0031806D01*
X0097527Y0031817D01*
X0097575Y0031824D01*
X0097623Y0031827D01*
X0097671Y0031826D01*
X0097719Y0031821D01*
X0097767Y0031812D01*
X0097813Y0031800D01*
X0097858Y0031783D01*
X0097902Y0031763D01*
X0097944Y0031740D01*
X0097984Y0031713D01*
X0098022Y0031683D01*
X0098057Y0031650D01*
X0098089Y0031614D01*
X0098119Y0031576D01*
X0098145Y0031535D01*
X0098167Y0031492D01*
X0098187Y0031448D01*
X0098202Y0031403D01*
X0098214Y0031356D01*
X0098222Y0031308D01*
X0098226Y0031260D01*
X0098226Y0031212D01*
X0098222Y0031164D01*
X0098214Y0031116D01*
X0098202Y0031069D01*
X0098187Y0031024D01*
X0098167Y0030980D01*
X0098145Y0030937D01*
X0098119Y0030896D01*
X0098089Y0030858D01*
X0098057Y0030822D01*
X0098022Y0030789D01*
X0097984Y0030759D01*
X0097944Y0030732D01*
X0097902Y0030709D01*
X0097858Y0030689D01*
X0097813Y0030672D01*
X0097767Y0030660D01*
X0097719Y0030651D01*
X0097671Y0030646D01*
X0097623Y0030645D01*
X0097575Y0030648D01*
X0097527Y0030655D01*
X0097480Y0030666D01*
X0097434Y0030680D01*
X0097389Y0030698D01*
X0097346Y0030720D01*
X0097305Y0030745D01*
X0097267Y0030774D01*
X0097230Y0030806D01*
X0097196Y0030840D01*
X0097166Y0030877D01*
X0097138Y0030916D01*
X0097113Y0030958D01*
X0097093Y0031002D01*
X0097075Y0031047D01*
X0097062Y0031093D01*
X0097052Y0031140D01*
X0097046Y0031188D01*
X0097044Y0031236D01*
X0097044Y0023835D02*
X0097046Y0023883D01*
X0097052Y0023931D01*
X0097062Y0023978D01*
X0097075Y0024024D01*
X0097093Y0024069D01*
X0097113Y0024113D01*
X0097138Y0024155D01*
X0097166Y0024194D01*
X0097196Y0024231D01*
X0097230Y0024265D01*
X0097267Y0024297D01*
X0097305Y0024326D01*
X0097346Y0024351D01*
X0097389Y0024373D01*
X0097434Y0024391D01*
X0097480Y0024405D01*
X0097527Y0024416D01*
X0097575Y0024423D01*
X0097623Y0024426D01*
X0097671Y0024425D01*
X0097719Y0024420D01*
X0097767Y0024411D01*
X0097813Y0024399D01*
X0097858Y0024382D01*
X0097902Y0024362D01*
X0097944Y0024339D01*
X0097984Y0024312D01*
X0098022Y0024282D01*
X0098057Y0024249D01*
X0098089Y0024213D01*
X0098119Y0024175D01*
X0098145Y0024134D01*
X0098167Y0024091D01*
X0098187Y0024047D01*
X0098202Y0024002D01*
X0098214Y0023955D01*
X0098222Y0023907D01*
X0098226Y0023859D01*
X0098226Y0023811D01*
X0098222Y0023763D01*
X0098214Y0023715D01*
X0098202Y0023668D01*
X0098187Y0023623D01*
X0098167Y0023579D01*
X0098145Y0023536D01*
X0098119Y0023495D01*
X0098089Y0023457D01*
X0098057Y0023421D01*
X0098022Y0023388D01*
X0097984Y0023358D01*
X0097944Y0023331D01*
X0097902Y0023308D01*
X0097858Y0023288D01*
X0097813Y0023271D01*
X0097767Y0023259D01*
X0097719Y0023250D01*
X0097671Y0023245D01*
X0097623Y0023244D01*
X0097575Y0023247D01*
X0097527Y0023254D01*
X0097480Y0023265D01*
X0097434Y0023279D01*
X0097389Y0023297D01*
X0097346Y0023319D01*
X0097305Y0023344D01*
X0097267Y0023373D01*
X0097230Y0023405D01*
X0097196Y0023439D01*
X0097166Y0023476D01*
X0097138Y0023515D01*
X0097113Y0023557D01*
X0097093Y0023601D01*
X0097075Y0023646D01*
X0097062Y0023692D01*
X0097052Y0023739D01*
X0097046Y0023787D01*
X0097044Y0023835D01*
X0097044Y0056906D02*
X0097046Y0056954D01*
X0097052Y0057002D01*
X0097062Y0057049D01*
X0097075Y0057095D01*
X0097093Y0057140D01*
X0097113Y0057184D01*
X0097138Y0057226D01*
X0097166Y0057265D01*
X0097196Y0057302D01*
X0097230Y0057336D01*
X0097267Y0057368D01*
X0097305Y0057397D01*
X0097346Y0057422D01*
X0097389Y0057444D01*
X0097434Y0057462D01*
X0097480Y0057476D01*
X0097527Y0057487D01*
X0097575Y0057494D01*
X0097623Y0057497D01*
X0097671Y0057496D01*
X0097719Y0057491D01*
X0097767Y0057482D01*
X0097813Y0057470D01*
X0097858Y0057453D01*
X0097902Y0057433D01*
X0097944Y0057410D01*
X0097984Y0057383D01*
X0098022Y0057353D01*
X0098057Y0057320D01*
X0098089Y0057284D01*
X0098119Y0057246D01*
X0098145Y0057205D01*
X0098167Y0057162D01*
X0098187Y0057118D01*
X0098202Y0057073D01*
X0098214Y0057026D01*
X0098222Y0056978D01*
X0098226Y0056930D01*
X0098226Y0056882D01*
X0098222Y0056834D01*
X0098214Y0056786D01*
X0098202Y0056739D01*
X0098187Y0056694D01*
X0098167Y0056650D01*
X0098145Y0056607D01*
X0098119Y0056566D01*
X0098089Y0056528D01*
X0098057Y0056492D01*
X0098022Y0056459D01*
X0097984Y0056429D01*
X0097944Y0056402D01*
X0097902Y0056379D01*
X0097858Y0056359D01*
X0097813Y0056342D01*
X0097767Y0056330D01*
X0097719Y0056321D01*
X0097671Y0056316D01*
X0097623Y0056315D01*
X0097575Y0056318D01*
X0097527Y0056325D01*
X0097480Y0056336D01*
X0097434Y0056350D01*
X0097389Y0056368D01*
X0097346Y0056390D01*
X0097305Y0056415D01*
X0097267Y0056444D01*
X0097230Y0056476D01*
X0097196Y0056510D01*
X0097166Y0056547D01*
X0097138Y0056586D01*
X0097113Y0056628D01*
X0097093Y0056672D01*
X0097075Y0056717D01*
X0097062Y0056763D01*
X0097052Y0056810D01*
X0097046Y0056858D01*
X0097044Y0056906D01*
X0097044Y0064307D02*
X0097046Y0064355D01*
X0097052Y0064403D01*
X0097062Y0064450D01*
X0097075Y0064496D01*
X0097093Y0064541D01*
X0097113Y0064585D01*
X0097138Y0064627D01*
X0097166Y0064666D01*
X0097196Y0064703D01*
X0097230Y0064737D01*
X0097267Y0064769D01*
X0097305Y0064798D01*
X0097346Y0064823D01*
X0097389Y0064845D01*
X0097434Y0064863D01*
X0097480Y0064877D01*
X0097527Y0064888D01*
X0097575Y0064895D01*
X0097623Y0064898D01*
X0097671Y0064897D01*
X0097719Y0064892D01*
X0097767Y0064883D01*
X0097813Y0064871D01*
X0097858Y0064854D01*
X0097902Y0064834D01*
X0097944Y0064811D01*
X0097984Y0064784D01*
X0098022Y0064754D01*
X0098057Y0064721D01*
X0098089Y0064685D01*
X0098119Y0064647D01*
X0098145Y0064606D01*
X0098167Y0064563D01*
X0098187Y0064519D01*
X0098202Y0064474D01*
X0098214Y0064427D01*
X0098222Y0064379D01*
X0098226Y0064331D01*
X0098226Y0064283D01*
X0098222Y0064235D01*
X0098214Y0064187D01*
X0098202Y0064140D01*
X0098187Y0064095D01*
X0098167Y0064051D01*
X0098145Y0064008D01*
X0098119Y0063967D01*
X0098089Y0063929D01*
X0098057Y0063893D01*
X0098022Y0063860D01*
X0097984Y0063830D01*
X0097944Y0063803D01*
X0097902Y0063780D01*
X0097858Y0063760D01*
X0097813Y0063743D01*
X0097767Y0063731D01*
X0097719Y0063722D01*
X0097671Y0063717D01*
X0097623Y0063716D01*
X0097575Y0063719D01*
X0097527Y0063726D01*
X0097480Y0063737D01*
X0097434Y0063751D01*
X0097389Y0063769D01*
X0097346Y0063791D01*
X0097305Y0063816D01*
X0097267Y0063845D01*
X0097230Y0063877D01*
X0097196Y0063911D01*
X0097166Y0063948D01*
X0097138Y0063987D01*
X0097113Y0064029D01*
X0097093Y0064073D01*
X0097075Y0064118D01*
X0097062Y0064164D01*
X0097052Y0064211D01*
X0097046Y0064259D01*
X0097044Y0064307D01*
X0089643Y0064307D02*
X0089645Y0064355D01*
X0089651Y0064403D01*
X0089661Y0064450D01*
X0089674Y0064496D01*
X0089692Y0064541D01*
X0089712Y0064585D01*
X0089737Y0064627D01*
X0089765Y0064666D01*
X0089795Y0064703D01*
X0089829Y0064737D01*
X0089866Y0064769D01*
X0089904Y0064798D01*
X0089945Y0064823D01*
X0089988Y0064845D01*
X0090033Y0064863D01*
X0090079Y0064877D01*
X0090126Y0064888D01*
X0090174Y0064895D01*
X0090222Y0064898D01*
X0090270Y0064897D01*
X0090318Y0064892D01*
X0090366Y0064883D01*
X0090412Y0064871D01*
X0090457Y0064854D01*
X0090501Y0064834D01*
X0090543Y0064811D01*
X0090583Y0064784D01*
X0090621Y0064754D01*
X0090656Y0064721D01*
X0090688Y0064685D01*
X0090718Y0064647D01*
X0090744Y0064606D01*
X0090766Y0064563D01*
X0090786Y0064519D01*
X0090801Y0064474D01*
X0090813Y0064427D01*
X0090821Y0064379D01*
X0090825Y0064331D01*
X0090825Y0064283D01*
X0090821Y0064235D01*
X0090813Y0064187D01*
X0090801Y0064140D01*
X0090786Y0064095D01*
X0090766Y0064051D01*
X0090744Y0064008D01*
X0090718Y0063967D01*
X0090688Y0063929D01*
X0090656Y0063893D01*
X0090621Y0063860D01*
X0090583Y0063830D01*
X0090543Y0063803D01*
X0090501Y0063780D01*
X0090457Y0063760D01*
X0090412Y0063743D01*
X0090366Y0063731D01*
X0090318Y0063722D01*
X0090270Y0063717D01*
X0090222Y0063716D01*
X0090174Y0063719D01*
X0090126Y0063726D01*
X0090079Y0063737D01*
X0090033Y0063751D01*
X0089988Y0063769D01*
X0089945Y0063791D01*
X0089904Y0063816D01*
X0089866Y0063845D01*
X0089829Y0063877D01*
X0089795Y0063911D01*
X0089765Y0063948D01*
X0089737Y0063987D01*
X0089712Y0064029D01*
X0089692Y0064073D01*
X0089674Y0064118D01*
X0089661Y0064164D01*
X0089651Y0064211D01*
X0089645Y0064259D01*
X0089643Y0064307D01*
X0089643Y0056906D02*
X0089645Y0056954D01*
X0089651Y0057002D01*
X0089661Y0057049D01*
X0089674Y0057095D01*
X0089692Y0057140D01*
X0089712Y0057184D01*
X0089737Y0057226D01*
X0089765Y0057265D01*
X0089795Y0057302D01*
X0089829Y0057336D01*
X0089866Y0057368D01*
X0089904Y0057397D01*
X0089945Y0057422D01*
X0089988Y0057444D01*
X0090033Y0057462D01*
X0090079Y0057476D01*
X0090126Y0057487D01*
X0090174Y0057494D01*
X0090222Y0057497D01*
X0090270Y0057496D01*
X0090318Y0057491D01*
X0090366Y0057482D01*
X0090412Y0057470D01*
X0090457Y0057453D01*
X0090501Y0057433D01*
X0090543Y0057410D01*
X0090583Y0057383D01*
X0090621Y0057353D01*
X0090656Y0057320D01*
X0090688Y0057284D01*
X0090718Y0057246D01*
X0090744Y0057205D01*
X0090766Y0057162D01*
X0090786Y0057118D01*
X0090801Y0057073D01*
X0090813Y0057026D01*
X0090821Y0056978D01*
X0090825Y0056930D01*
X0090825Y0056882D01*
X0090821Y0056834D01*
X0090813Y0056786D01*
X0090801Y0056739D01*
X0090786Y0056694D01*
X0090766Y0056650D01*
X0090744Y0056607D01*
X0090718Y0056566D01*
X0090688Y0056528D01*
X0090656Y0056492D01*
X0090621Y0056459D01*
X0090583Y0056429D01*
X0090543Y0056402D01*
X0090501Y0056379D01*
X0090457Y0056359D01*
X0090412Y0056342D01*
X0090366Y0056330D01*
X0090318Y0056321D01*
X0090270Y0056316D01*
X0090222Y0056315D01*
X0090174Y0056318D01*
X0090126Y0056325D01*
X0090079Y0056336D01*
X0090033Y0056350D01*
X0089988Y0056368D01*
X0089945Y0056390D01*
X0089904Y0056415D01*
X0089866Y0056444D01*
X0089829Y0056476D01*
X0089795Y0056510D01*
X0089765Y0056547D01*
X0089737Y0056586D01*
X0089712Y0056628D01*
X0089692Y0056672D01*
X0089674Y0056717D01*
X0089661Y0056763D01*
X0089651Y0056810D01*
X0089645Y0056858D01*
X0089643Y0056906D01*
X0038777Y0056906D02*
X0038779Y0056954D01*
X0038785Y0057002D01*
X0038795Y0057049D01*
X0038808Y0057095D01*
X0038826Y0057140D01*
X0038846Y0057184D01*
X0038871Y0057226D01*
X0038899Y0057265D01*
X0038929Y0057302D01*
X0038963Y0057336D01*
X0039000Y0057368D01*
X0039038Y0057397D01*
X0039079Y0057422D01*
X0039122Y0057444D01*
X0039167Y0057462D01*
X0039213Y0057476D01*
X0039260Y0057487D01*
X0039308Y0057494D01*
X0039356Y0057497D01*
X0039404Y0057496D01*
X0039452Y0057491D01*
X0039500Y0057482D01*
X0039546Y0057470D01*
X0039591Y0057453D01*
X0039635Y0057433D01*
X0039677Y0057410D01*
X0039717Y0057383D01*
X0039755Y0057353D01*
X0039790Y0057320D01*
X0039822Y0057284D01*
X0039852Y0057246D01*
X0039878Y0057205D01*
X0039900Y0057162D01*
X0039920Y0057118D01*
X0039935Y0057073D01*
X0039947Y0057026D01*
X0039955Y0056978D01*
X0039959Y0056930D01*
X0039959Y0056882D01*
X0039955Y0056834D01*
X0039947Y0056786D01*
X0039935Y0056739D01*
X0039920Y0056694D01*
X0039900Y0056650D01*
X0039878Y0056607D01*
X0039852Y0056566D01*
X0039822Y0056528D01*
X0039790Y0056492D01*
X0039755Y0056459D01*
X0039717Y0056429D01*
X0039677Y0056402D01*
X0039635Y0056379D01*
X0039591Y0056359D01*
X0039546Y0056342D01*
X0039500Y0056330D01*
X0039452Y0056321D01*
X0039404Y0056316D01*
X0039356Y0056315D01*
X0039308Y0056318D01*
X0039260Y0056325D01*
X0039213Y0056336D01*
X0039167Y0056350D01*
X0039122Y0056368D01*
X0039079Y0056390D01*
X0039038Y0056415D01*
X0039000Y0056444D01*
X0038963Y0056476D01*
X0038929Y0056510D01*
X0038899Y0056547D01*
X0038871Y0056586D01*
X0038846Y0056628D01*
X0038826Y0056672D01*
X0038808Y0056717D01*
X0038795Y0056763D01*
X0038785Y0056810D01*
X0038779Y0056858D01*
X0038777Y0056906D01*
X0038777Y0064307D02*
X0038779Y0064355D01*
X0038785Y0064403D01*
X0038795Y0064450D01*
X0038808Y0064496D01*
X0038826Y0064541D01*
X0038846Y0064585D01*
X0038871Y0064627D01*
X0038899Y0064666D01*
X0038929Y0064703D01*
X0038963Y0064737D01*
X0039000Y0064769D01*
X0039038Y0064798D01*
X0039079Y0064823D01*
X0039122Y0064845D01*
X0039167Y0064863D01*
X0039213Y0064877D01*
X0039260Y0064888D01*
X0039308Y0064895D01*
X0039356Y0064898D01*
X0039404Y0064897D01*
X0039452Y0064892D01*
X0039500Y0064883D01*
X0039546Y0064871D01*
X0039591Y0064854D01*
X0039635Y0064834D01*
X0039677Y0064811D01*
X0039717Y0064784D01*
X0039755Y0064754D01*
X0039790Y0064721D01*
X0039822Y0064685D01*
X0039852Y0064647D01*
X0039878Y0064606D01*
X0039900Y0064563D01*
X0039920Y0064519D01*
X0039935Y0064474D01*
X0039947Y0064427D01*
X0039955Y0064379D01*
X0039959Y0064331D01*
X0039959Y0064283D01*
X0039955Y0064235D01*
X0039947Y0064187D01*
X0039935Y0064140D01*
X0039920Y0064095D01*
X0039900Y0064051D01*
X0039878Y0064008D01*
X0039852Y0063967D01*
X0039822Y0063929D01*
X0039790Y0063893D01*
X0039755Y0063860D01*
X0039717Y0063830D01*
X0039677Y0063803D01*
X0039635Y0063780D01*
X0039591Y0063760D01*
X0039546Y0063743D01*
X0039500Y0063731D01*
X0039452Y0063722D01*
X0039404Y0063717D01*
X0039356Y0063716D01*
X0039308Y0063719D01*
X0039260Y0063726D01*
X0039213Y0063737D01*
X0039167Y0063751D01*
X0039122Y0063769D01*
X0039079Y0063791D01*
X0039038Y0063816D01*
X0039000Y0063845D01*
X0038963Y0063877D01*
X0038929Y0063911D01*
X0038899Y0063948D01*
X0038871Y0063987D01*
X0038846Y0064029D01*
X0038826Y0064073D01*
X0038808Y0064118D01*
X0038795Y0064164D01*
X0038785Y0064211D01*
X0038779Y0064259D01*
X0038777Y0064307D01*
X0031375Y0064307D02*
X0031377Y0064355D01*
X0031383Y0064403D01*
X0031393Y0064450D01*
X0031406Y0064496D01*
X0031424Y0064541D01*
X0031444Y0064585D01*
X0031469Y0064627D01*
X0031497Y0064666D01*
X0031527Y0064703D01*
X0031561Y0064737D01*
X0031598Y0064769D01*
X0031636Y0064798D01*
X0031677Y0064823D01*
X0031720Y0064845D01*
X0031765Y0064863D01*
X0031811Y0064877D01*
X0031858Y0064888D01*
X0031906Y0064895D01*
X0031954Y0064898D01*
X0032002Y0064897D01*
X0032050Y0064892D01*
X0032098Y0064883D01*
X0032144Y0064871D01*
X0032189Y0064854D01*
X0032233Y0064834D01*
X0032275Y0064811D01*
X0032315Y0064784D01*
X0032353Y0064754D01*
X0032388Y0064721D01*
X0032420Y0064685D01*
X0032450Y0064647D01*
X0032476Y0064606D01*
X0032498Y0064563D01*
X0032518Y0064519D01*
X0032533Y0064474D01*
X0032545Y0064427D01*
X0032553Y0064379D01*
X0032557Y0064331D01*
X0032557Y0064283D01*
X0032553Y0064235D01*
X0032545Y0064187D01*
X0032533Y0064140D01*
X0032518Y0064095D01*
X0032498Y0064051D01*
X0032476Y0064008D01*
X0032450Y0063967D01*
X0032420Y0063929D01*
X0032388Y0063893D01*
X0032353Y0063860D01*
X0032315Y0063830D01*
X0032275Y0063803D01*
X0032233Y0063780D01*
X0032189Y0063760D01*
X0032144Y0063743D01*
X0032098Y0063731D01*
X0032050Y0063722D01*
X0032002Y0063717D01*
X0031954Y0063716D01*
X0031906Y0063719D01*
X0031858Y0063726D01*
X0031811Y0063737D01*
X0031765Y0063751D01*
X0031720Y0063769D01*
X0031677Y0063791D01*
X0031636Y0063816D01*
X0031598Y0063845D01*
X0031561Y0063877D01*
X0031527Y0063911D01*
X0031497Y0063948D01*
X0031469Y0063987D01*
X0031444Y0064029D01*
X0031424Y0064073D01*
X0031406Y0064118D01*
X0031393Y0064164D01*
X0031383Y0064211D01*
X0031377Y0064259D01*
X0031375Y0064307D01*
X0031375Y0056906D02*
X0031377Y0056954D01*
X0031383Y0057002D01*
X0031393Y0057049D01*
X0031406Y0057095D01*
X0031424Y0057140D01*
X0031444Y0057184D01*
X0031469Y0057226D01*
X0031497Y0057265D01*
X0031527Y0057302D01*
X0031561Y0057336D01*
X0031598Y0057368D01*
X0031636Y0057397D01*
X0031677Y0057422D01*
X0031720Y0057444D01*
X0031765Y0057462D01*
X0031811Y0057476D01*
X0031858Y0057487D01*
X0031906Y0057494D01*
X0031954Y0057497D01*
X0032002Y0057496D01*
X0032050Y0057491D01*
X0032098Y0057482D01*
X0032144Y0057470D01*
X0032189Y0057453D01*
X0032233Y0057433D01*
X0032275Y0057410D01*
X0032315Y0057383D01*
X0032353Y0057353D01*
X0032388Y0057320D01*
X0032420Y0057284D01*
X0032450Y0057246D01*
X0032476Y0057205D01*
X0032498Y0057162D01*
X0032518Y0057118D01*
X0032533Y0057073D01*
X0032545Y0057026D01*
X0032553Y0056978D01*
X0032557Y0056930D01*
X0032557Y0056882D01*
X0032553Y0056834D01*
X0032545Y0056786D01*
X0032533Y0056739D01*
X0032518Y0056694D01*
X0032498Y0056650D01*
X0032476Y0056607D01*
X0032450Y0056566D01*
X0032420Y0056528D01*
X0032388Y0056492D01*
X0032353Y0056459D01*
X0032315Y0056429D01*
X0032275Y0056402D01*
X0032233Y0056379D01*
X0032189Y0056359D01*
X0032144Y0056342D01*
X0032098Y0056330D01*
X0032050Y0056321D01*
X0032002Y0056316D01*
X0031954Y0056315D01*
X0031906Y0056318D01*
X0031858Y0056325D01*
X0031811Y0056336D01*
X0031765Y0056350D01*
X0031720Y0056368D01*
X0031677Y0056390D01*
X0031636Y0056415D01*
X0031598Y0056444D01*
X0031561Y0056476D01*
X0031527Y0056510D01*
X0031497Y0056547D01*
X0031469Y0056586D01*
X0031444Y0056628D01*
X0031424Y0056672D01*
X0031406Y0056717D01*
X0031393Y0056763D01*
X0031383Y0056810D01*
X0031377Y0056858D01*
X0031375Y0056906D01*
D11*
X0063817Y0094661D03*
X0074446Y0094661D03*
X0074446Y0105291D03*
X0063817Y0105291D03*
D12*
X0064727Y0112117D02*
X0064727Y0113545D01*
X0064727Y0112117D02*
X0063693Y0112117D01*
X0063693Y0113545D01*
X0064727Y0113545D01*
X0064727Y0112460D02*
X0063693Y0112460D01*
X0063693Y0112803D02*
X0064727Y0112803D01*
X0064727Y0113146D02*
X0063693Y0113146D01*
X0063693Y0113489D02*
X0064727Y0113489D01*
X0066696Y0113545D02*
X0066696Y0112117D01*
X0065662Y0112117D01*
X0065662Y0113545D01*
X0066696Y0113545D01*
X0066696Y0112460D02*
X0065662Y0112460D01*
X0065662Y0112803D02*
X0066696Y0112803D01*
X0066696Y0113146D02*
X0065662Y0113146D01*
X0065662Y0113489D02*
X0066696Y0113489D01*
X0068664Y0113545D02*
X0068664Y0112117D01*
X0067630Y0112117D01*
X0067630Y0113545D01*
X0068664Y0113545D01*
X0068664Y0112460D02*
X0067630Y0112460D01*
X0067630Y0112803D02*
X0068664Y0112803D01*
X0068664Y0113146D02*
X0067630Y0113146D01*
X0067630Y0113489D02*
X0068664Y0113489D01*
X0070633Y0113545D02*
X0070633Y0112117D01*
X0069599Y0112117D01*
X0069599Y0113545D01*
X0070633Y0113545D01*
X0070633Y0112460D02*
X0069599Y0112460D01*
X0069599Y0112803D02*
X0070633Y0112803D01*
X0070633Y0113146D02*
X0069599Y0113146D01*
X0069599Y0113489D02*
X0070633Y0113489D01*
X0072601Y0113545D02*
X0072601Y0112117D01*
X0071567Y0112117D01*
X0071567Y0113545D01*
X0072601Y0113545D01*
X0072601Y0112460D02*
X0071567Y0112460D01*
X0071567Y0112803D02*
X0072601Y0112803D01*
X0072601Y0113146D02*
X0071567Y0113146D01*
X0071567Y0113489D02*
X0072601Y0113489D01*
X0074570Y0113545D02*
X0074570Y0112117D01*
X0073536Y0112117D01*
X0073536Y0113545D01*
X0074570Y0113545D01*
X0074570Y0112460D02*
X0073536Y0112460D01*
X0073536Y0112803D02*
X0074570Y0112803D01*
X0074570Y0113146D02*
X0073536Y0113146D01*
X0073536Y0113489D02*
X0074570Y0113489D01*
X0076538Y0113545D02*
X0076538Y0112117D01*
X0075504Y0112117D01*
X0075504Y0113545D01*
X0076538Y0113545D01*
X0076538Y0112460D02*
X0075504Y0112460D01*
X0075504Y0112803D02*
X0076538Y0112803D01*
X0076538Y0113146D02*
X0075504Y0113146D01*
X0075504Y0113489D02*
X0076538Y0113489D01*
X0078507Y0113545D02*
X0078507Y0112117D01*
X0077473Y0112117D01*
X0077473Y0113545D01*
X0078507Y0113545D01*
X0078507Y0112460D02*
X0077473Y0112460D01*
X0077473Y0112803D02*
X0078507Y0112803D01*
X0078507Y0113146D02*
X0077473Y0113146D01*
X0077473Y0113489D02*
X0078507Y0113489D01*
X0080475Y0113545D02*
X0080475Y0112117D01*
X0079441Y0112117D01*
X0079441Y0113545D01*
X0080475Y0113545D01*
X0080475Y0112460D02*
X0079441Y0112460D01*
X0079441Y0112803D02*
X0080475Y0112803D01*
X0080475Y0113146D02*
X0079441Y0113146D01*
X0079441Y0113489D02*
X0080475Y0113489D01*
X0081272Y0110286D02*
X0082700Y0110286D01*
X0081272Y0110286D02*
X0081272Y0111320D01*
X0082700Y0111320D01*
X0082700Y0110286D01*
X0082700Y0110629D02*
X0081272Y0110629D01*
X0081272Y0110972D02*
X0082700Y0110972D01*
X0082700Y0111315D02*
X0081272Y0111315D01*
X0081272Y0108318D02*
X0082700Y0108318D01*
X0081272Y0108318D02*
X0081272Y0109352D01*
X0082700Y0109352D01*
X0082700Y0108318D01*
X0082700Y0108661D02*
X0081272Y0108661D01*
X0081272Y0109004D02*
X0082700Y0109004D01*
X0082700Y0109347D02*
X0081272Y0109347D01*
X0081272Y0106349D02*
X0082700Y0106349D01*
X0081272Y0106349D02*
X0081272Y0107383D01*
X0082700Y0107383D01*
X0082700Y0106349D01*
X0082700Y0106692D02*
X0081272Y0106692D01*
X0081272Y0107035D02*
X0082700Y0107035D01*
X0082700Y0107378D02*
X0081272Y0107378D01*
X0081272Y0104381D02*
X0082700Y0104381D01*
X0081272Y0104381D02*
X0081272Y0105415D01*
X0082700Y0105415D01*
X0082700Y0104381D01*
X0082700Y0104724D02*
X0081272Y0104724D01*
X0081272Y0105067D02*
X0082700Y0105067D01*
X0082700Y0105410D02*
X0081272Y0105410D01*
X0081272Y0102412D02*
X0082700Y0102412D01*
X0081272Y0102412D02*
X0081272Y0103446D01*
X0082700Y0103446D01*
X0082700Y0102412D01*
X0082700Y0102755D02*
X0081272Y0102755D01*
X0081272Y0103098D02*
X0082700Y0103098D01*
X0082700Y0103441D02*
X0081272Y0103441D01*
X0081272Y0100444D02*
X0082700Y0100444D01*
X0081272Y0100444D02*
X0081272Y0101478D01*
X0082700Y0101478D01*
X0082700Y0100444D01*
X0082700Y0100787D02*
X0081272Y0100787D01*
X0081272Y0101130D02*
X0082700Y0101130D01*
X0082700Y0101473D02*
X0081272Y0101473D01*
X0081272Y0098475D02*
X0082700Y0098475D01*
X0081272Y0098475D02*
X0081272Y0099509D01*
X0082700Y0099509D01*
X0082700Y0098475D01*
X0082700Y0098818D02*
X0081272Y0098818D01*
X0081272Y0099161D02*
X0082700Y0099161D01*
X0082700Y0099504D02*
X0081272Y0099504D01*
X0081272Y0096507D02*
X0082700Y0096507D01*
X0081272Y0096507D02*
X0081272Y0097541D01*
X0082700Y0097541D01*
X0082700Y0096507D01*
X0082700Y0096850D02*
X0081272Y0096850D01*
X0081272Y0097193D02*
X0082700Y0097193D01*
X0082700Y0097536D02*
X0081272Y0097536D01*
X0081272Y0094538D02*
X0082700Y0094538D01*
X0081272Y0094538D02*
X0081272Y0095572D01*
X0082700Y0095572D01*
X0082700Y0094538D01*
X0082700Y0094881D02*
X0081272Y0094881D01*
X0081272Y0095224D02*
X0082700Y0095224D01*
X0082700Y0095567D02*
X0081272Y0095567D01*
X0081272Y0092570D02*
X0082700Y0092570D01*
X0081272Y0092570D02*
X0081272Y0093604D01*
X0082700Y0093604D01*
X0082700Y0092570D01*
X0082700Y0092913D02*
X0081272Y0092913D01*
X0081272Y0093256D02*
X0082700Y0093256D01*
X0082700Y0093599D02*
X0081272Y0093599D01*
X0081272Y0090601D02*
X0082700Y0090601D01*
X0081272Y0090601D02*
X0081272Y0091635D01*
X0082700Y0091635D01*
X0082700Y0090601D01*
X0082700Y0090944D02*
X0081272Y0090944D01*
X0081272Y0091287D02*
X0082700Y0091287D01*
X0082700Y0091630D02*
X0081272Y0091630D01*
X0081272Y0088633D02*
X0082700Y0088633D01*
X0081272Y0088633D02*
X0081272Y0089667D01*
X0082700Y0089667D01*
X0082700Y0088633D01*
X0082700Y0088976D02*
X0081272Y0088976D01*
X0081272Y0089319D02*
X0082700Y0089319D01*
X0082700Y0089662D02*
X0081272Y0089662D01*
X0079441Y0087836D02*
X0079441Y0086408D01*
X0079441Y0087836D02*
X0080475Y0087836D01*
X0080475Y0086408D01*
X0079441Y0086408D01*
X0079441Y0086751D02*
X0080475Y0086751D01*
X0080475Y0087094D02*
X0079441Y0087094D01*
X0079441Y0087437D02*
X0080475Y0087437D01*
X0080475Y0087780D02*
X0079441Y0087780D01*
X0077473Y0087836D02*
X0077473Y0086408D01*
X0077473Y0087836D02*
X0078507Y0087836D01*
X0078507Y0086408D01*
X0077473Y0086408D01*
X0077473Y0086751D02*
X0078507Y0086751D01*
X0078507Y0087094D02*
X0077473Y0087094D01*
X0077473Y0087437D02*
X0078507Y0087437D01*
X0078507Y0087780D02*
X0077473Y0087780D01*
X0075504Y0087836D02*
X0075504Y0086408D01*
X0075504Y0087836D02*
X0076538Y0087836D01*
X0076538Y0086408D01*
X0075504Y0086408D01*
X0075504Y0086751D02*
X0076538Y0086751D01*
X0076538Y0087094D02*
X0075504Y0087094D01*
X0075504Y0087437D02*
X0076538Y0087437D01*
X0076538Y0087780D02*
X0075504Y0087780D01*
X0073536Y0087836D02*
X0073536Y0086408D01*
X0073536Y0087836D02*
X0074570Y0087836D01*
X0074570Y0086408D01*
X0073536Y0086408D01*
X0073536Y0086751D02*
X0074570Y0086751D01*
X0074570Y0087094D02*
X0073536Y0087094D01*
X0073536Y0087437D02*
X0074570Y0087437D01*
X0074570Y0087780D02*
X0073536Y0087780D01*
X0071567Y0087836D02*
X0071567Y0086408D01*
X0071567Y0087836D02*
X0072601Y0087836D01*
X0072601Y0086408D01*
X0071567Y0086408D01*
X0071567Y0086751D02*
X0072601Y0086751D01*
X0072601Y0087094D02*
X0071567Y0087094D01*
X0071567Y0087437D02*
X0072601Y0087437D01*
X0072601Y0087780D02*
X0071567Y0087780D01*
X0069599Y0087836D02*
X0069599Y0086408D01*
X0069599Y0087836D02*
X0070633Y0087836D01*
X0070633Y0086408D01*
X0069599Y0086408D01*
X0069599Y0086751D02*
X0070633Y0086751D01*
X0070633Y0087094D02*
X0069599Y0087094D01*
X0069599Y0087437D02*
X0070633Y0087437D01*
X0070633Y0087780D02*
X0069599Y0087780D01*
X0067630Y0087836D02*
X0067630Y0086408D01*
X0067630Y0087836D02*
X0068664Y0087836D01*
X0068664Y0086408D01*
X0067630Y0086408D01*
X0067630Y0086751D02*
X0068664Y0086751D01*
X0068664Y0087094D02*
X0067630Y0087094D01*
X0067630Y0087437D02*
X0068664Y0087437D01*
X0068664Y0087780D02*
X0067630Y0087780D01*
X0065662Y0087836D02*
X0065662Y0086408D01*
X0065662Y0087836D02*
X0066696Y0087836D01*
X0066696Y0086408D01*
X0065662Y0086408D01*
X0065662Y0086751D02*
X0066696Y0086751D01*
X0066696Y0087094D02*
X0065662Y0087094D01*
X0065662Y0087437D02*
X0066696Y0087437D01*
X0066696Y0087780D02*
X0065662Y0087780D01*
X0063693Y0087836D02*
X0063693Y0086408D01*
X0063693Y0087836D02*
X0064727Y0087836D01*
X0064727Y0086408D01*
X0063693Y0086408D01*
X0063693Y0086751D02*
X0064727Y0086751D01*
X0064727Y0087094D02*
X0063693Y0087094D01*
X0063693Y0087437D02*
X0064727Y0087437D01*
X0064727Y0087780D02*
X0063693Y0087780D01*
X0061725Y0087836D02*
X0061725Y0086408D01*
X0061725Y0087836D02*
X0062759Y0087836D01*
X0062759Y0086408D01*
X0061725Y0086408D01*
X0061725Y0086751D02*
X0062759Y0086751D01*
X0062759Y0087094D02*
X0061725Y0087094D01*
X0061725Y0087437D02*
X0062759Y0087437D01*
X0062759Y0087780D02*
X0061725Y0087780D01*
X0059756Y0087836D02*
X0059756Y0086408D01*
X0059756Y0087836D02*
X0060790Y0087836D01*
X0060790Y0086408D01*
X0059756Y0086408D01*
X0059756Y0086751D02*
X0060790Y0086751D01*
X0060790Y0087094D02*
X0059756Y0087094D01*
X0059756Y0087437D02*
X0060790Y0087437D01*
X0060790Y0087780D02*
X0059756Y0087780D01*
X0057788Y0087836D02*
X0057788Y0086408D01*
X0057788Y0087836D02*
X0058822Y0087836D01*
X0058822Y0086408D01*
X0057788Y0086408D01*
X0057788Y0086751D02*
X0058822Y0086751D01*
X0058822Y0087094D02*
X0057788Y0087094D01*
X0057788Y0087437D02*
X0058822Y0087437D01*
X0058822Y0087780D02*
X0057788Y0087780D01*
X0056991Y0089667D02*
X0055563Y0089667D01*
X0056991Y0089667D02*
X0056991Y0088633D01*
X0055563Y0088633D01*
X0055563Y0089667D01*
X0055563Y0088976D02*
X0056991Y0088976D01*
X0056991Y0089319D02*
X0055563Y0089319D01*
X0055563Y0089662D02*
X0056991Y0089662D01*
X0056991Y0091635D02*
X0055563Y0091635D01*
X0056991Y0091635D02*
X0056991Y0090601D01*
X0055563Y0090601D01*
X0055563Y0091635D01*
X0055563Y0090944D02*
X0056991Y0090944D01*
X0056991Y0091287D02*
X0055563Y0091287D01*
X0055563Y0091630D02*
X0056991Y0091630D01*
X0056991Y0093604D02*
X0055563Y0093604D01*
X0056991Y0093604D02*
X0056991Y0092570D01*
X0055563Y0092570D01*
X0055563Y0093604D01*
X0055563Y0092913D02*
X0056991Y0092913D01*
X0056991Y0093256D02*
X0055563Y0093256D01*
X0055563Y0093599D02*
X0056991Y0093599D01*
X0056991Y0095572D02*
X0055563Y0095572D01*
X0056991Y0095572D02*
X0056991Y0094538D01*
X0055563Y0094538D01*
X0055563Y0095572D01*
X0055563Y0094881D02*
X0056991Y0094881D01*
X0056991Y0095224D02*
X0055563Y0095224D01*
X0055563Y0095567D02*
X0056991Y0095567D01*
X0056991Y0097541D02*
X0055563Y0097541D01*
X0056991Y0097541D02*
X0056991Y0096507D01*
X0055563Y0096507D01*
X0055563Y0097541D01*
X0055563Y0096850D02*
X0056991Y0096850D01*
X0056991Y0097193D02*
X0055563Y0097193D01*
X0055563Y0097536D02*
X0056991Y0097536D01*
X0056991Y0099509D02*
X0055563Y0099509D01*
X0056991Y0099509D02*
X0056991Y0098475D01*
X0055563Y0098475D01*
X0055563Y0099509D01*
X0055563Y0098818D02*
X0056991Y0098818D01*
X0056991Y0099161D02*
X0055563Y0099161D01*
X0055563Y0099504D02*
X0056991Y0099504D01*
X0056991Y0101478D02*
X0055563Y0101478D01*
X0056991Y0101478D02*
X0056991Y0100444D01*
X0055563Y0100444D01*
X0055563Y0101478D01*
X0055563Y0100787D02*
X0056991Y0100787D01*
X0056991Y0101130D02*
X0055563Y0101130D01*
X0055563Y0101473D02*
X0056991Y0101473D01*
X0056991Y0103446D02*
X0055563Y0103446D01*
X0056991Y0103446D02*
X0056991Y0102412D01*
X0055563Y0102412D01*
X0055563Y0103446D01*
X0055563Y0102755D02*
X0056991Y0102755D01*
X0056991Y0103098D02*
X0055563Y0103098D01*
X0055563Y0103441D02*
X0056991Y0103441D01*
X0056991Y0105415D02*
X0055563Y0105415D01*
X0056991Y0105415D02*
X0056991Y0104381D01*
X0055563Y0104381D01*
X0055563Y0105415D01*
X0055563Y0104724D02*
X0056991Y0104724D01*
X0056991Y0105067D02*
X0055563Y0105067D01*
X0055563Y0105410D02*
X0056991Y0105410D01*
X0056991Y0107383D02*
X0055563Y0107383D01*
X0056991Y0107383D02*
X0056991Y0106349D01*
X0055563Y0106349D01*
X0055563Y0107383D01*
X0055563Y0106692D02*
X0056991Y0106692D01*
X0056991Y0107035D02*
X0055563Y0107035D01*
X0055563Y0107378D02*
X0056991Y0107378D01*
X0056991Y0109352D02*
X0055563Y0109352D01*
X0056991Y0109352D02*
X0056991Y0108318D01*
X0055563Y0108318D01*
X0055563Y0109352D01*
X0055563Y0108661D02*
X0056991Y0108661D01*
X0056991Y0109004D02*
X0055563Y0109004D01*
X0055563Y0109347D02*
X0056991Y0109347D01*
X0056991Y0111320D02*
X0055563Y0111320D01*
X0056991Y0111320D02*
X0056991Y0110286D01*
X0055563Y0110286D01*
X0055563Y0111320D01*
X0055563Y0110629D02*
X0056991Y0110629D01*
X0056991Y0110972D02*
X0055563Y0110972D01*
X0055563Y0111315D02*
X0056991Y0111315D01*
X0058822Y0112117D02*
X0058822Y0113545D01*
X0058822Y0112117D02*
X0057788Y0112117D01*
X0057788Y0113545D01*
X0058822Y0113545D01*
X0058822Y0112460D02*
X0057788Y0112460D01*
X0057788Y0112803D02*
X0058822Y0112803D01*
X0058822Y0113146D02*
X0057788Y0113146D01*
X0057788Y0113489D02*
X0058822Y0113489D01*
X0060790Y0113545D02*
X0060790Y0112117D01*
X0059756Y0112117D01*
X0059756Y0113545D01*
X0060790Y0113545D01*
X0060790Y0112460D02*
X0059756Y0112460D01*
X0059756Y0112803D02*
X0060790Y0112803D01*
X0060790Y0113146D02*
X0059756Y0113146D01*
X0059756Y0113489D02*
X0060790Y0113489D01*
X0062759Y0113545D02*
X0062759Y0112117D01*
X0061725Y0112117D01*
X0061725Y0113545D01*
X0062759Y0113545D01*
X0062759Y0112460D02*
X0061725Y0112460D01*
X0061725Y0112803D02*
X0062759Y0112803D01*
X0062759Y0113146D02*
X0061725Y0113146D01*
X0061725Y0113489D02*
X0062759Y0113489D01*
D13*
X0063620Y0116512D03*
X0067557Y0116512D03*
X0077006Y0118480D03*
X0080943Y0118480D03*
X0052596Y0105882D03*
X0048659Y0105882D03*
X0077399Y0081472D03*
X0081336Y0081472D03*
X0080155Y0076354D03*
X0084092Y0076354D03*
X0087439Y0078362D03*
X0091376Y0078362D03*
X0091376Y0082850D03*
X0087439Y0082850D03*
X0042754Y0070055D03*
X0038817Y0070055D03*
D14*
X0059880Y0123402D03*
X0069722Y0123402D03*
D15*
X0054958Y0120449D03*
X0054958Y0116512D03*
X0052596Y0088165D03*
X0052596Y0084228D03*
X0052990Y0053520D03*
X0052990Y0049583D03*
X0071100Y0048402D03*
X0071100Y0052339D03*
X0085588Y0098717D03*
X0085588Y0102654D03*
X0092754Y0113756D03*
X0092754Y0117693D03*
D16*
X0090588Y0091118D03*
X0085470Y0091118D03*
X0054761Y0124780D03*
X0049643Y0124780D03*
D17*
X0089998Y0072417D03*
X0097084Y0072417D03*
X0082517Y0052339D03*
X0075431Y0052339D03*
X0090391Y0049386D03*
X0090391Y0043087D03*
X0090391Y0036787D03*
X0097478Y0036787D03*
X0097478Y0043087D03*
X0097478Y0049386D03*
X0039604Y0049386D03*
X0039604Y0043087D03*
X0039604Y0036787D03*
X0032517Y0036787D03*
X0032517Y0043087D03*
X0032517Y0049386D03*
D18*
X0045509Y0049976D03*
X0045509Y0057063D03*
X0080155Y0061472D03*
X0080155Y0068559D03*
D19*
X0066572Y0051768D03*
X0062832Y0051768D03*
X0059092Y0051768D03*
X0059092Y0042673D03*
X0062832Y0042673D03*
X0066572Y0042673D03*
D20*
X0073856Y0056866D03*
X0073856Y0065921D03*
M02*
