G75*
%MOIN*%
%OFA0B0*%
%FSLAX25Y25*%
%IPPOS*%
%LPD*%
%AMOC8*
5,1,8,0,0,1.08239X$1,22.5*
%
%ADD10C,0.00000*%
%ADD11R,0.03000X0.01000*%
%ADD12R,0.01000X0.03000*%
%ADD13R,0.10400X0.10400*%
%ADD14C,0.00100*%
%ADD15R,0.02362X0.02953*%
%ADD16R,0.01969X0.01181*%
%ADD17R,0.02165X0.02165*%
%ADD18R,0.03937X0.06693*%
%ADD19R,0.02362X0.02756*%
%ADD20R,0.04724X0.03150*%
%ADD21R,0.02756X0.02362*%
%ADD22R,0.02756X0.03150*%
%ADD23R,0.03150X0.04724*%
%ADD24R,0.02756X0.03543*%
%ADD25R,0.02362X0.00984*%
%ADD26R,0.00984X0.02362*%
%ADD27R,0.03937X0.03937*%
%ADD28R,0.03937X0.03937*%
D10*
X0029368Y0021236D02*
X0029368Y0127535D01*
X0100234Y0127535D01*
X0100234Y0021236D01*
X0029368Y0021236D01*
X0031375Y0023835D02*
X0031377Y0023883D01*
X0031383Y0023931D01*
X0031393Y0023978D01*
X0031406Y0024024D01*
X0031424Y0024069D01*
X0031444Y0024113D01*
X0031469Y0024155D01*
X0031497Y0024194D01*
X0031527Y0024231D01*
X0031561Y0024265D01*
X0031598Y0024297D01*
X0031636Y0024326D01*
X0031677Y0024351D01*
X0031720Y0024373D01*
X0031765Y0024391D01*
X0031811Y0024405D01*
X0031858Y0024416D01*
X0031906Y0024423D01*
X0031954Y0024426D01*
X0032002Y0024425D01*
X0032050Y0024420D01*
X0032098Y0024411D01*
X0032144Y0024399D01*
X0032189Y0024382D01*
X0032233Y0024362D01*
X0032275Y0024339D01*
X0032315Y0024312D01*
X0032353Y0024282D01*
X0032388Y0024249D01*
X0032420Y0024213D01*
X0032450Y0024175D01*
X0032476Y0024134D01*
X0032498Y0024091D01*
X0032518Y0024047D01*
X0032533Y0024002D01*
X0032545Y0023955D01*
X0032553Y0023907D01*
X0032557Y0023859D01*
X0032557Y0023811D01*
X0032553Y0023763D01*
X0032545Y0023715D01*
X0032533Y0023668D01*
X0032518Y0023623D01*
X0032498Y0023579D01*
X0032476Y0023536D01*
X0032450Y0023495D01*
X0032420Y0023457D01*
X0032388Y0023421D01*
X0032353Y0023388D01*
X0032315Y0023358D01*
X0032275Y0023331D01*
X0032233Y0023308D01*
X0032189Y0023288D01*
X0032144Y0023271D01*
X0032098Y0023259D01*
X0032050Y0023250D01*
X0032002Y0023245D01*
X0031954Y0023244D01*
X0031906Y0023247D01*
X0031858Y0023254D01*
X0031811Y0023265D01*
X0031765Y0023279D01*
X0031720Y0023297D01*
X0031677Y0023319D01*
X0031636Y0023344D01*
X0031598Y0023373D01*
X0031561Y0023405D01*
X0031527Y0023439D01*
X0031497Y0023476D01*
X0031469Y0023515D01*
X0031444Y0023557D01*
X0031424Y0023601D01*
X0031406Y0023646D01*
X0031393Y0023692D01*
X0031383Y0023739D01*
X0031377Y0023787D01*
X0031375Y0023835D01*
X0031375Y0031236D02*
X0031377Y0031284D01*
X0031383Y0031332D01*
X0031393Y0031379D01*
X0031406Y0031425D01*
X0031424Y0031470D01*
X0031444Y0031514D01*
X0031469Y0031556D01*
X0031497Y0031595D01*
X0031527Y0031632D01*
X0031561Y0031666D01*
X0031598Y0031698D01*
X0031636Y0031727D01*
X0031677Y0031752D01*
X0031720Y0031774D01*
X0031765Y0031792D01*
X0031811Y0031806D01*
X0031858Y0031817D01*
X0031906Y0031824D01*
X0031954Y0031827D01*
X0032002Y0031826D01*
X0032050Y0031821D01*
X0032098Y0031812D01*
X0032144Y0031800D01*
X0032189Y0031783D01*
X0032233Y0031763D01*
X0032275Y0031740D01*
X0032315Y0031713D01*
X0032353Y0031683D01*
X0032388Y0031650D01*
X0032420Y0031614D01*
X0032450Y0031576D01*
X0032476Y0031535D01*
X0032498Y0031492D01*
X0032518Y0031448D01*
X0032533Y0031403D01*
X0032545Y0031356D01*
X0032553Y0031308D01*
X0032557Y0031260D01*
X0032557Y0031212D01*
X0032553Y0031164D01*
X0032545Y0031116D01*
X0032533Y0031069D01*
X0032518Y0031024D01*
X0032498Y0030980D01*
X0032476Y0030937D01*
X0032450Y0030896D01*
X0032420Y0030858D01*
X0032388Y0030822D01*
X0032353Y0030789D01*
X0032315Y0030759D01*
X0032275Y0030732D01*
X0032233Y0030709D01*
X0032189Y0030689D01*
X0032144Y0030672D01*
X0032098Y0030660D01*
X0032050Y0030651D01*
X0032002Y0030646D01*
X0031954Y0030645D01*
X0031906Y0030648D01*
X0031858Y0030655D01*
X0031811Y0030666D01*
X0031765Y0030680D01*
X0031720Y0030698D01*
X0031677Y0030720D01*
X0031636Y0030745D01*
X0031598Y0030774D01*
X0031561Y0030806D01*
X0031527Y0030840D01*
X0031497Y0030877D01*
X0031469Y0030916D01*
X0031444Y0030958D01*
X0031424Y0031002D01*
X0031406Y0031047D01*
X0031393Y0031093D01*
X0031383Y0031140D01*
X0031377Y0031188D01*
X0031375Y0031236D01*
X0038777Y0031236D02*
X0038779Y0031284D01*
X0038785Y0031332D01*
X0038795Y0031379D01*
X0038808Y0031425D01*
X0038826Y0031470D01*
X0038846Y0031514D01*
X0038871Y0031556D01*
X0038899Y0031595D01*
X0038929Y0031632D01*
X0038963Y0031666D01*
X0039000Y0031698D01*
X0039038Y0031727D01*
X0039079Y0031752D01*
X0039122Y0031774D01*
X0039167Y0031792D01*
X0039213Y0031806D01*
X0039260Y0031817D01*
X0039308Y0031824D01*
X0039356Y0031827D01*
X0039404Y0031826D01*
X0039452Y0031821D01*
X0039500Y0031812D01*
X0039546Y0031800D01*
X0039591Y0031783D01*
X0039635Y0031763D01*
X0039677Y0031740D01*
X0039717Y0031713D01*
X0039755Y0031683D01*
X0039790Y0031650D01*
X0039822Y0031614D01*
X0039852Y0031576D01*
X0039878Y0031535D01*
X0039900Y0031492D01*
X0039920Y0031448D01*
X0039935Y0031403D01*
X0039947Y0031356D01*
X0039955Y0031308D01*
X0039959Y0031260D01*
X0039959Y0031212D01*
X0039955Y0031164D01*
X0039947Y0031116D01*
X0039935Y0031069D01*
X0039920Y0031024D01*
X0039900Y0030980D01*
X0039878Y0030937D01*
X0039852Y0030896D01*
X0039822Y0030858D01*
X0039790Y0030822D01*
X0039755Y0030789D01*
X0039717Y0030759D01*
X0039677Y0030732D01*
X0039635Y0030709D01*
X0039591Y0030689D01*
X0039546Y0030672D01*
X0039500Y0030660D01*
X0039452Y0030651D01*
X0039404Y0030646D01*
X0039356Y0030645D01*
X0039308Y0030648D01*
X0039260Y0030655D01*
X0039213Y0030666D01*
X0039167Y0030680D01*
X0039122Y0030698D01*
X0039079Y0030720D01*
X0039038Y0030745D01*
X0039000Y0030774D01*
X0038963Y0030806D01*
X0038929Y0030840D01*
X0038899Y0030877D01*
X0038871Y0030916D01*
X0038846Y0030958D01*
X0038826Y0031002D01*
X0038808Y0031047D01*
X0038795Y0031093D01*
X0038785Y0031140D01*
X0038779Y0031188D01*
X0038777Y0031236D01*
X0038777Y0023835D02*
X0038779Y0023883D01*
X0038785Y0023931D01*
X0038795Y0023978D01*
X0038808Y0024024D01*
X0038826Y0024069D01*
X0038846Y0024113D01*
X0038871Y0024155D01*
X0038899Y0024194D01*
X0038929Y0024231D01*
X0038963Y0024265D01*
X0039000Y0024297D01*
X0039038Y0024326D01*
X0039079Y0024351D01*
X0039122Y0024373D01*
X0039167Y0024391D01*
X0039213Y0024405D01*
X0039260Y0024416D01*
X0039308Y0024423D01*
X0039356Y0024426D01*
X0039404Y0024425D01*
X0039452Y0024420D01*
X0039500Y0024411D01*
X0039546Y0024399D01*
X0039591Y0024382D01*
X0039635Y0024362D01*
X0039677Y0024339D01*
X0039717Y0024312D01*
X0039755Y0024282D01*
X0039790Y0024249D01*
X0039822Y0024213D01*
X0039852Y0024175D01*
X0039878Y0024134D01*
X0039900Y0024091D01*
X0039920Y0024047D01*
X0039935Y0024002D01*
X0039947Y0023955D01*
X0039955Y0023907D01*
X0039959Y0023859D01*
X0039959Y0023811D01*
X0039955Y0023763D01*
X0039947Y0023715D01*
X0039935Y0023668D01*
X0039920Y0023623D01*
X0039900Y0023579D01*
X0039878Y0023536D01*
X0039852Y0023495D01*
X0039822Y0023457D01*
X0039790Y0023421D01*
X0039755Y0023388D01*
X0039717Y0023358D01*
X0039677Y0023331D01*
X0039635Y0023308D01*
X0039591Y0023288D01*
X0039546Y0023271D01*
X0039500Y0023259D01*
X0039452Y0023250D01*
X0039404Y0023245D01*
X0039356Y0023244D01*
X0039308Y0023247D01*
X0039260Y0023254D01*
X0039213Y0023265D01*
X0039167Y0023279D01*
X0039122Y0023297D01*
X0039079Y0023319D01*
X0039038Y0023344D01*
X0039000Y0023373D01*
X0038963Y0023405D01*
X0038929Y0023439D01*
X0038899Y0023476D01*
X0038871Y0023515D01*
X0038846Y0023557D01*
X0038826Y0023601D01*
X0038808Y0023646D01*
X0038795Y0023692D01*
X0038785Y0023739D01*
X0038779Y0023787D01*
X0038777Y0023835D01*
X0048698Y0023835D02*
X0048700Y0023883D01*
X0048706Y0023931D01*
X0048716Y0023978D01*
X0048729Y0024024D01*
X0048747Y0024069D01*
X0048767Y0024113D01*
X0048792Y0024155D01*
X0048820Y0024194D01*
X0048850Y0024231D01*
X0048884Y0024265D01*
X0048921Y0024297D01*
X0048959Y0024326D01*
X0049000Y0024351D01*
X0049043Y0024373D01*
X0049088Y0024391D01*
X0049134Y0024405D01*
X0049181Y0024416D01*
X0049229Y0024423D01*
X0049277Y0024426D01*
X0049325Y0024425D01*
X0049373Y0024420D01*
X0049421Y0024411D01*
X0049467Y0024399D01*
X0049512Y0024382D01*
X0049556Y0024362D01*
X0049598Y0024339D01*
X0049638Y0024312D01*
X0049676Y0024282D01*
X0049711Y0024249D01*
X0049743Y0024213D01*
X0049773Y0024175D01*
X0049799Y0024134D01*
X0049821Y0024091D01*
X0049841Y0024047D01*
X0049856Y0024002D01*
X0049868Y0023955D01*
X0049876Y0023907D01*
X0049880Y0023859D01*
X0049880Y0023811D01*
X0049876Y0023763D01*
X0049868Y0023715D01*
X0049856Y0023668D01*
X0049841Y0023623D01*
X0049821Y0023579D01*
X0049799Y0023536D01*
X0049773Y0023495D01*
X0049743Y0023457D01*
X0049711Y0023421D01*
X0049676Y0023388D01*
X0049638Y0023358D01*
X0049598Y0023331D01*
X0049556Y0023308D01*
X0049512Y0023288D01*
X0049467Y0023271D01*
X0049421Y0023259D01*
X0049373Y0023250D01*
X0049325Y0023245D01*
X0049277Y0023244D01*
X0049229Y0023247D01*
X0049181Y0023254D01*
X0049134Y0023265D01*
X0049088Y0023279D01*
X0049043Y0023297D01*
X0049000Y0023319D01*
X0048959Y0023344D01*
X0048921Y0023373D01*
X0048884Y0023405D01*
X0048850Y0023439D01*
X0048820Y0023476D01*
X0048792Y0023515D01*
X0048767Y0023557D01*
X0048747Y0023601D01*
X0048729Y0023646D01*
X0048716Y0023692D01*
X0048706Y0023739D01*
X0048700Y0023787D01*
X0048698Y0023835D01*
X0048698Y0031236D02*
X0048700Y0031284D01*
X0048706Y0031332D01*
X0048716Y0031379D01*
X0048729Y0031425D01*
X0048747Y0031470D01*
X0048767Y0031514D01*
X0048792Y0031556D01*
X0048820Y0031595D01*
X0048850Y0031632D01*
X0048884Y0031666D01*
X0048921Y0031698D01*
X0048959Y0031727D01*
X0049000Y0031752D01*
X0049043Y0031774D01*
X0049088Y0031792D01*
X0049134Y0031806D01*
X0049181Y0031817D01*
X0049229Y0031824D01*
X0049277Y0031827D01*
X0049325Y0031826D01*
X0049373Y0031821D01*
X0049421Y0031812D01*
X0049467Y0031800D01*
X0049512Y0031783D01*
X0049556Y0031763D01*
X0049598Y0031740D01*
X0049638Y0031713D01*
X0049676Y0031683D01*
X0049711Y0031650D01*
X0049743Y0031614D01*
X0049773Y0031576D01*
X0049799Y0031535D01*
X0049821Y0031492D01*
X0049841Y0031448D01*
X0049856Y0031403D01*
X0049868Y0031356D01*
X0049876Y0031308D01*
X0049880Y0031260D01*
X0049880Y0031212D01*
X0049876Y0031164D01*
X0049868Y0031116D01*
X0049856Y0031069D01*
X0049841Y0031024D01*
X0049821Y0030980D01*
X0049799Y0030937D01*
X0049773Y0030896D01*
X0049743Y0030858D01*
X0049711Y0030822D01*
X0049676Y0030789D01*
X0049638Y0030759D01*
X0049598Y0030732D01*
X0049556Y0030709D01*
X0049512Y0030689D01*
X0049467Y0030672D01*
X0049421Y0030660D01*
X0049373Y0030651D01*
X0049325Y0030646D01*
X0049277Y0030645D01*
X0049229Y0030648D01*
X0049181Y0030655D01*
X0049134Y0030666D01*
X0049088Y0030680D01*
X0049043Y0030698D01*
X0049000Y0030720D01*
X0048959Y0030745D01*
X0048921Y0030774D01*
X0048884Y0030806D01*
X0048850Y0030840D01*
X0048820Y0030877D01*
X0048792Y0030916D01*
X0048767Y0030958D01*
X0048747Y0031002D01*
X0048729Y0031047D01*
X0048716Y0031093D01*
X0048706Y0031140D01*
X0048700Y0031188D01*
X0048698Y0031236D01*
X0056100Y0031236D02*
X0056102Y0031284D01*
X0056108Y0031332D01*
X0056118Y0031379D01*
X0056131Y0031425D01*
X0056149Y0031470D01*
X0056169Y0031514D01*
X0056194Y0031556D01*
X0056222Y0031595D01*
X0056252Y0031632D01*
X0056286Y0031666D01*
X0056323Y0031698D01*
X0056361Y0031727D01*
X0056402Y0031752D01*
X0056445Y0031774D01*
X0056490Y0031792D01*
X0056536Y0031806D01*
X0056583Y0031817D01*
X0056631Y0031824D01*
X0056679Y0031827D01*
X0056727Y0031826D01*
X0056775Y0031821D01*
X0056823Y0031812D01*
X0056869Y0031800D01*
X0056914Y0031783D01*
X0056958Y0031763D01*
X0057000Y0031740D01*
X0057040Y0031713D01*
X0057078Y0031683D01*
X0057113Y0031650D01*
X0057145Y0031614D01*
X0057175Y0031576D01*
X0057201Y0031535D01*
X0057223Y0031492D01*
X0057243Y0031448D01*
X0057258Y0031403D01*
X0057270Y0031356D01*
X0057278Y0031308D01*
X0057282Y0031260D01*
X0057282Y0031212D01*
X0057278Y0031164D01*
X0057270Y0031116D01*
X0057258Y0031069D01*
X0057243Y0031024D01*
X0057223Y0030980D01*
X0057201Y0030937D01*
X0057175Y0030896D01*
X0057145Y0030858D01*
X0057113Y0030822D01*
X0057078Y0030789D01*
X0057040Y0030759D01*
X0057000Y0030732D01*
X0056958Y0030709D01*
X0056914Y0030689D01*
X0056869Y0030672D01*
X0056823Y0030660D01*
X0056775Y0030651D01*
X0056727Y0030646D01*
X0056679Y0030645D01*
X0056631Y0030648D01*
X0056583Y0030655D01*
X0056536Y0030666D01*
X0056490Y0030680D01*
X0056445Y0030698D01*
X0056402Y0030720D01*
X0056361Y0030745D01*
X0056323Y0030774D01*
X0056286Y0030806D01*
X0056252Y0030840D01*
X0056222Y0030877D01*
X0056194Y0030916D01*
X0056169Y0030958D01*
X0056149Y0031002D01*
X0056131Y0031047D01*
X0056118Y0031093D01*
X0056108Y0031140D01*
X0056102Y0031188D01*
X0056100Y0031236D01*
X0056100Y0023835D02*
X0056102Y0023883D01*
X0056108Y0023931D01*
X0056118Y0023978D01*
X0056131Y0024024D01*
X0056149Y0024069D01*
X0056169Y0024113D01*
X0056194Y0024155D01*
X0056222Y0024194D01*
X0056252Y0024231D01*
X0056286Y0024265D01*
X0056323Y0024297D01*
X0056361Y0024326D01*
X0056402Y0024351D01*
X0056445Y0024373D01*
X0056490Y0024391D01*
X0056536Y0024405D01*
X0056583Y0024416D01*
X0056631Y0024423D01*
X0056679Y0024426D01*
X0056727Y0024425D01*
X0056775Y0024420D01*
X0056823Y0024411D01*
X0056869Y0024399D01*
X0056914Y0024382D01*
X0056958Y0024362D01*
X0057000Y0024339D01*
X0057040Y0024312D01*
X0057078Y0024282D01*
X0057113Y0024249D01*
X0057145Y0024213D01*
X0057175Y0024175D01*
X0057201Y0024134D01*
X0057223Y0024091D01*
X0057243Y0024047D01*
X0057258Y0024002D01*
X0057270Y0023955D01*
X0057278Y0023907D01*
X0057282Y0023859D01*
X0057282Y0023811D01*
X0057278Y0023763D01*
X0057270Y0023715D01*
X0057258Y0023668D01*
X0057243Y0023623D01*
X0057223Y0023579D01*
X0057201Y0023536D01*
X0057175Y0023495D01*
X0057145Y0023457D01*
X0057113Y0023421D01*
X0057078Y0023388D01*
X0057040Y0023358D01*
X0057000Y0023331D01*
X0056958Y0023308D01*
X0056914Y0023288D01*
X0056869Y0023271D01*
X0056823Y0023259D01*
X0056775Y0023250D01*
X0056727Y0023245D01*
X0056679Y0023244D01*
X0056631Y0023247D01*
X0056583Y0023254D01*
X0056536Y0023265D01*
X0056490Y0023279D01*
X0056445Y0023297D01*
X0056402Y0023319D01*
X0056361Y0023344D01*
X0056323Y0023373D01*
X0056286Y0023405D01*
X0056252Y0023439D01*
X0056222Y0023476D01*
X0056194Y0023515D01*
X0056169Y0023557D01*
X0056149Y0023601D01*
X0056131Y0023646D01*
X0056118Y0023692D01*
X0056108Y0023739D01*
X0056102Y0023787D01*
X0056100Y0023835D01*
X0072320Y0023835D02*
X0072322Y0023883D01*
X0072328Y0023931D01*
X0072338Y0023978D01*
X0072351Y0024024D01*
X0072369Y0024069D01*
X0072389Y0024113D01*
X0072414Y0024155D01*
X0072442Y0024194D01*
X0072472Y0024231D01*
X0072506Y0024265D01*
X0072543Y0024297D01*
X0072581Y0024326D01*
X0072622Y0024351D01*
X0072665Y0024373D01*
X0072710Y0024391D01*
X0072756Y0024405D01*
X0072803Y0024416D01*
X0072851Y0024423D01*
X0072899Y0024426D01*
X0072947Y0024425D01*
X0072995Y0024420D01*
X0073043Y0024411D01*
X0073089Y0024399D01*
X0073134Y0024382D01*
X0073178Y0024362D01*
X0073220Y0024339D01*
X0073260Y0024312D01*
X0073298Y0024282D01*
X0073333Y0024249D01*
X0073365Y0024213D01*
X0073395Y0024175D01*
X0073421Y0024134D01*
X0073443Y0024091D01*
X0073463Y0024047D01*
X0073478Y0024002D01*
X0073490Y0023955D01*
X0073498Y0023907D01*
X0073502Y0023859D01*
X0073502Y0023811D01*
X0073498Y0023763D01*
X0073490Y0023715D01*
X0073478Y0023668D01*
X0073463Y0023623D01*
X0073443Y0023579D01*
X0073421Y0023536D01*
X0073395Y0023495D01*
X0073365Y0023457D01*
X0073333Y0023421D01*
X0073298Y0023388D01*
X0073260Y0023358D01*
X0073220Y0023331D01*
X0073178Y0023308D01*
X0073134Y0023288D01*
X0073089Y0023271D01*
X0073043Y0023259D01*
X0072995Y0023250D01*
X0072947Y0023245D01*
X0072899Y0023244D01*
X0072851Y0023247D01*
X0072803Y0023254D01*
X0072756Y0023265D01*
X0072710Y0023279D01*
X0072665Y0023297D01*
X0072622Y0023319D01*
X0072581Y0023344D01*
X0072543Y0023373D01*
X0072506Y0023405D01*
X0072472Y0023439D01*
X0072442Y0023476D01*
X0072414Y0023515D01*
X0072389Y0023557D01*
X0072369Y0023601D01*
X0072351Y0023646D01*
X0072338Y0023692D01*
X0072328Y0023739D01*
X0072322Y0023787D01*
X0072320Y0023835D01*
X0072320Y0031236D02*
X0072322Y0031284D01*
X0072328Y0031332D01*
X0072338Y0031379D01*
X0072351Y0031425D01*
X0072369Y0031470D01*
X0072389Y0031514D01*
X0072414Y0031556D01*
X0072442Y0031595D01*
X0072472Y0031632D01*
X0072506Y0031666D01*
X0072543Y0031698D01*
X0072581Y0031727D01*
X0072622Y0031752D01*
X0072665Y0031774D01*
X0072710Y0031792D01*
X0072756Y0031806D01*
X0072803Y0031817D01*
X0072851Y0031824D01*
X0072899Y0031827D01*
X0072947Y0031826D01*
X0072995Y0031821D01*
X0073043Y0031812D01*
X0073089Y0031800D01*
X0073134Y0031783D01*
X0073178Y0031763D01*
X0073220Y0031740D01*
X0073260Y0031713D01*
X0073298Y0031683D01*
X0073333Y0031650D01*
X0073365Y0031614D01*
X0073395Y0031576D01*
X0073421Y0031535D01*
X0073443Y0031492D01*
X0073463Y0031448D01*
X0073478Y0031403D01*
X0073490Y0031356D01*
X0073498Y0031308D01*
X0073502Y0031260D01*
X0073502Y0031212D01*
X0073498Y0031164D01*
X0073490Y0031116D01*
X0073478Y0031069D01*
X0073463Y0031024D01*
X0073443Y0030980D01*
X0073421Y0030937D01*
X0073395Y0030896D01*
X0073365Y0030858D01*
X0073333Y0030822D01*
X0073298Y0030789D01*
X0073260Y0030759D01*
X0073220Y0030732D01*
X0073178Y0030709D01*
X0073134Y0030689D01*
X0073089Y0030672D01*
X0073043Y0030660D01*
X0072995Y0030651D01*
X0072947Y0030646D01*
X0072899Y0030645D01*
X0072851Y0030648D01*
X0072803Y0030655D01*
X0072756Y0030666D01*
X0072710Y0030680D01*
X0072665Y0030698D01*
X0072622Y0030720D01*
X0072581Y0030745D01*
X0072543Y0030774D01*
X0072506Y0030806D01*
X0072472Y0030840D01*
X0072442Y0030877D01*
X0072414Y0030916D01*
X0072389Y0030958D01*
X0072369Y0031002D01*
X0072351Y0031047D01*
X0072338Y0031093D01*
X0072328Y0031140D01*
X0072322Y0031188D01*
X0072320Y0031236D01*
X0079722Y0031236D02*
X0079724Y0031284D01*
X0079730Y0031332D01*
X0079740Y0031379D01*
X0079753Y0031425D01*
X0079771Y0031470D01*
X0079791Y0031514D01*
X0079816Y0031556D01*
X0079844Y0031595D01*
X0079874Y0031632D01*
X0079908Y0031666D01*
X0079945Y0031698D01*
X0079983Y0031727D01*
X0080024Y0031752D01*
X0080067Y0031774D01*
X0080112Y0031792D01*
X0080158Y0031806D01*
X0080205Y0031817D01*
X0080253Y0031824D01*
X0080301Y0031827D01*
X0080349Y0031826D01*
X0080397Y0031821D01*
X0080445Y0031812D01*
X0080491Y0031800D01*
X0080536Y0031783D01*
X0080580Y0031763D01*
X0080622Y0031740D01*
X0080662Y0031713D01*
X0080700Y0031683D01*
X0080735Y0031650D01*
X0080767Y0031614D01*
X0080797Y0031576D01*
X0080823Y0031535D01*
X0080845Y0031492D01*
X0080865Y0031448D01*
X0080880Y0031403D01*
X0080892Y0031356D01*
X0080900Y0031308D01*
X0080904Y0031260D01*
X0080904Y0031212D01*
X0080900Y0031164D01*
X0080892Y0031116D01*
X0080880Y0031069D01*
X0080865Y0031024D01*
X0080845Y0030980D01*
X0080823Y0030937D01*
X0080797Y0030896D01*
X0080767Y0030858D01*
X0080735Y0030822D01*
X0080700Y0030789D01*
X0080662Y0030759D01*
X0080622Y0030732D01*
X0080580Y0030709D01*
X0080536Y0030689D01*
X0080491Y0030672D01*
X0080445Y0030660D01*
X0080397Y0030651D01*
X0080349Y0030646D01*
X0080301Y0030645D01*
X0080253Y0030648D01*
X0080205Y0030655D01*
X0080158Y0030666D01*
X0080112Y0030680D01*
X0080067Y0030698D01*
X0080024Y0030720D01*
X0079983Y0030745D01*
X0079945Y0030774D01*
X0079908Y0030806D01*
X0079874Y0030840D01*
X0079844Y0030877D01*
X0079816Y0030916D01*
X0079791Y0030958D01*
X0079771Y0031002D01*
X0079753Y0031047D01*
X0079740Y0031093D01*
X0079730Y0031140D01*
X0079724Y0031188D01*
X0079722Y0031236D01*
X0079722Y0023835D02*
X0079724Y0023883D01*
X0079730Y0023931D01*
X0079740Y0023978D01*
X0079753Y0024024D01*
X0079771Y0024069D01*
X0079791Y0024113D01*
X0079816Y0024155D01*
X0079844Y0024194D01*
X0079874Y0024231D01*
X0079908Y0024265D01*
X0079945Y0024297D01*
X0079983Y0024326D01*
X0080024Y0024351D01*
X0080067Y0024373D01*
X0080112Y0024391D01*
X0080158Y0024405D01*
X0080205Y0024416D01*
X0080253Y0024423D01*
X0080301Y0024426D01*
X0080349Y0024425D01*
X0080397Y0024420D01*
X0080445Y0024411D01*
X0080491Y0024399D01*
X0080536Y0024382D01*
X0080580Y0024362D01*
X0080622Y0024339D01*
X0080662Y0024312D01*
X0080700Y0024282D01*
X0080735Y0024249D01*
X0080767Y0024213D01*
X0080797Y0024175D01*
X0080823Y0024134D01*
X0080845Y0024091D01*
X0080865Y0024047D01*
X0080880Y0024002D01*
X0080892Y0023955D01*
X0080900Y0023907D01*
X0080904Y0023859D01*
X0080904Y0023811D01*
X0080900Y0023763D01*
X0080892Y0023715D01*
X0080880Y0023668D01*
X0080865Y0023623D01*
X0080845Y0023579D01*
X0080823Y0023536D01*
X0080797Y0023495D01*
X0080767Y0023457D01*
X0080735Y0023421D01*
X0080700Y0023388D01*
X0080662Y0023358D01*
X0080622Y0023331D01*
X0080580Y0023308D01*
X0080536Y0023288D01*
X0080491Y0023271D01*
X0080445Y0023259D01*
X0080397Y0023250D01*
X0080349Y0023245D01*
X0080301Y0023244D01*
X0080253Y0023247D01*
X0080205Y0023254D01*
X0080158Y0023265D01*
X0080112Y0023279D01*
X0080067Y0023297D01*
X0080024Y0023319D01*
X0079983Y0023344D01*
X0079945Y0023373D01*
X0079908Y0023405D01*
X0079874Y0023439D01*
X0079844Y0023476D01*
X0079816Y0023515D01*
X0079791Y0023557D01*
X0079771Y0023601D01*
X0079753Y0023646D01*
X0079740Y0023692D01*
X0079730Y0023739D01*
X0079724Y0023787D01*
X0079722Y0023835D01*
X0089643Y0023835D02*
X0089645Y0023883D01*
X0089651Y0023931D01*
X0089661Y0023978D01*
X0089674Y0024024D01*
X0089692Y0024069D01*
X0089712Y0024113D01*
X0089737Y0024155D01*
X0089765Y0024194D01*
X0089795Y0024231D01*
X0089829Y0024265D01*
X0089866Y0024297D01*
X0089904Y0024326D01*
X0089945Y0024351D01*
X0089988Y0024373D01*
X0090033Y0024391D01*
X0090079Y0024405D01*
X0090126Y0024416D01*
X0090174Y0024423D01*
X0090222Y0024426D01*
X0090270Y0024425D01*
X0090318Y0024420D01*
X0090366Y0024411D01*
X0090412Y0024399D01*
X0090457Y0024382D01*
X0090501Y0024362D01*
X0090543Y0024339D01*
X0090583Y0024312D01*
X0090621Y0024282D01*
X0090656Y0024249D01*
X0090688Y0024213D01*
X0090718Y0024175D01*
X0090744Y0024134D01*
X0090766Y0024091D01*
X0090786Y0024047D01*
X0090801Y0024002D01*
X0090813Y0023955D01*
X0090821Y0023907D01*
X0090825Y0023859D01*
X0090825Y0023811D01*
X0090821Y0023763D01*
X0090813Y0023715D01*
X0090801Y0023668D01*
X0090786Y0023623D01*
X0090766Y0023579D01*
X0090744Y0023536D01*
X0090718Y0023495D01*
X0090688Y0023457D01*
X0090656Y0023421D01*
X0090621Y0023388D01*
X0090583Y0023358D01*
X0090543Y0023331D01*
X0090501Y0023308D01*
X0090457Y0023288D01*
X0090412Y0023271D01*
X0090366Y0023259D01*
X0090318Y0023250D01*
X0090270Y0023245D01*
X0090222Y0023244D01*
X0090174Y0023247D01*
X0090126Y0023254D01*
X0090079Y0023265D01*
X0090033Y0023279D01*
X0089988Y0023297D01*
X0089945Y0023319D01*
X0089904Y0023344D01*
X0089866Y0023373D01*
X0089829Y0023405D01*
X0089795Y0023439D01*
X0089765Y0023476D01*
X0089737Y0023515D01*
X0089712Y0023557D01*
X0089692Y0023601D01*
X0089674Y0023646D01*
X0089661Y0023692D01*
X0089651Y0023739D01*
X0089645Y0023787D01*
X0089643Y0023835D01*
X0089643Y0031236D02*
X0089645Y0031284D01*
X0089651Y0031332D01*
X0089661Y0031379D01*
X0089674Y0031425D01*
X0089692Y0031470D01*
X0089712Y0031514D01*
X0089737Y0031556D01*
X0089765Y0031595D01*
X0089795Y0031632D01*
X0089829Y0031666D01*
X0089866Y0031698D01*
X0089904Y0031727D01*
X0089945Y0031752D01*
X0089988Y0031774D01*
X0090033Y0031792D01*
X0090079Y0031806D01*
X0090126Y0031817D01*
X0090174Y0031824D01*
X0090222Y0031827D01*
X0090270Y0031826D01*
X0090318Y0031821D01*
X0090366Y0031812D01*
X0090412Y0031800D01*
X0090457Y0031783D01*
X0090501Y0031763D01*
X0090543Y0031740D01*
X0090583Y0031713D01*
X0090621Y0031683D01*
X0090656Y0031650D01*
X0090688Y0031614D01*
X0090718Y0031576D01*
X0090744Y0031535D01*
X0090766Y0031492D01*
X0090786Y0031448D01*
X0090801Y0031403D01*
X0090813Y0031356D01*
X0090821Y0031308D01*
X0090825Y0031260D01*
X0090825Y0031212D01*
X0090821Y0031164D01*
X0090813Y0031116D01*
X0090801Y0031069D01*
X0090786Y0031024D01*
X0090766Y0030980D01*
X0090744Y0030937D01*
X0090718Y0030896D01*
X0090688Y0030858D01*
X0090656Y0030822D01*
X0090621Y0030789D01*
X0090583Y0030759D01*
X0090543Y0030732D01*
X0090501Y0030709D01*
X0090457Y0030689D01*
X0090412Y0030672D01*
X0090366Y0030660D01*
X0090318Y0030651D01*
X0090270Y0030646D01*
X0090222Y0030645D01*
X0090174Y0030648D01*
X0090126Y0030655D01*
X0090079Y0030666D01*
X0090033Y0030680D01*
X0089988Y0030698D01*
X0089945Y0030720D01*
X0089904Y0030745D01*
X0089866Y0030774D01*
X0089829Y0030806D01*
X0089795Y0030840D01*
X0089765Y0030877D01*
X0089737Y0030916D01*
X0089712Y0030958D01*
X0089692Y0031002D01*
X0089674Y0031047D01*
X0089661Y0031093D01*
X0089651Y0031140D01*
X0089645Y0031188D01*
X0089643Y0031236D01*
X0097044Y0031236D02*
X0097046Y0031284D01*
X0097052Y0031332D01*
X0097062Y0031379D01*
X0097075Y0031425D01*
X0097093Y0031470D01*
X0097113Y0031514D01*
X0097138Y0031556D01*
X0097166Y0031595D01*
X0097196Y0031632D01*
X0097230Y0031666D01*
X0097267Y0031698D01*
X0097305Y0031727D01*
X0097346Y0031752D01*
X0097389Y0031774D01*
X0097434Y0031792D01*
X0097480Y0031806D01*
X0097527Y0031817D01*
X0097575Y0031824D01*
X0097623Y0031827D01*
X0097671Y0031826D01*
X0097719Y0031821D01*
X0097767Y0031812D01*
X0097813Y0031800D01*
X0097858Y0031783D01*
X0097902Y0031763D01*
X0097944Y0031740D01*
X0097984Y0031713D01*
X0098022Y0031683D01*
X0098057Y0031650D01*
X0098089Y0031614D01*
X0098119Y0031576D01*
X0098145Y0031535D01*
X0098167Y0031492D01*
X0098187Y0031448D01*
X0098202Y0031403D01*
X0098214Y0031356D01*
X0098222Y0031308D01*
X0098226Y0031260D01*
X0098226Y0031212D01*
X0098222Y0031164D01*
X0098214Y0031116D01*
X0098202Y0031069D01*
X0098187Y0031024D01*
X0098167Y0030980D01*
X0098145Y0030937D01*
X0098119Y0030896D01*
X0098089Y0030858D01*
X0098057Y0030822D01*
X0098022Y0030789D01*
X0097984Y0030759D01*
X0097944Y0030732D01*
X0097902Y0030709D01*
X0097858Y0030689D01*
X0097813Y0030672D01*
X0097767Y0030660D01*
X0097719Y0030651D01*
X0097671Y0030646D01*
X0097623Y0030645D01*
X0097575Y0030648D01*
X0097527Y0030655D01*
X0097480Y0030666D01*
X0097434Y0030680D01*
X0097389Y0030698D01*
X0097346Y0030720D01*
X0097305Y0030745D01*
X0097267Y0030774D01*
X0097230Y0030806D01*
X0097196Y0030840D01*
X0097166Y0030877D01*
X0097138Y0030916D01*
X0097113Y0030958D01*
X0097093Y0031002D01*
X0097075Y0031047D01*
X0097062Y0031093D01*
X0097052Y0031140D01*
X0097046Y0031188D01*
X0097044Y0031236D01*
X0097044Y0023835D02*
X0097046Y0023883D01*
X0097052Y0023931D01*
X0097062Y0023978D01*
X0097075Y0024024D01*
X0097093Y0024069D01*
X0097113Y0024113D01*
X0097138Y0024155D01*
X0097166Y0024194D01*
X0097196Y0024231D01*
X0097230Y0024265D01*
X0097267Y0024297D01*
X0097305Y0024326D01*
X0097346Y0024351D01*
X0097389Y0024373D01*
X0097434Y0024391D01*
X0097480Y0024405D01*
X0097527Y0024416D01*
X0097575Y0024423D01*
X0097623Y0024426D01*
X0097671Y0024425D01*
X0097719Y0024420D01*
X0097767Y0024411D01*
X0097813Y0024399D01*
X0097858Y0024382D01*
X0097902Y0024362D01*
X0097944Y0024339D01*
X0097984Y0024312D01*
X0098022Y0024282D01*
X0098057Y0024249D01*
X0098089Y0024213D01*
X0098119Y0024175D01*
X0098145Y0024134D01*
X0098167Y0024091D01*
X0098187Y0024047D01*
X0098202Y0024002D01*
X0098214Y0023955D01*
X0098222Y0023907D01*
X0098226Y0023859D01*
X0098226Y0023811D01*
X0098222Y0023763D01*
X0098214Y0023715D01*
X0098202Y0023668D01*
X0098187Y0023623D01*
X0098167Y0023579D01*
X0098145Y0023536D01*
X0098119Y0023495D01*
X0098089Y0023457D01*
X0098057Y0023421D01*
X0098022Y0023388D01*
X0097984Y0023358D01*
X0097944Y0023331D01*
X0097902Y0023308D01*
X0097858Y0023288D01*
X0097813Y0023271D01*
X0097767Y0023259D01*
X0097719Y0023250D01*
X0097671Y0023245D01*
X0097623Y0023244D01*
X0097575Y0023247D01*
X0097527Y0023254D01*
X0097480Y0023265D01*
X0097434Y0023279D01*
X0097389Y0023297D01*
X0097346Y0023319D01*
X0097305Y0023344D01*
X0097267Y0023373D01*
X0097230Y0023405D01*
X0097196Y0023439D01*
X0097166Y0023476D01*
X0097138Y0023515D01*
X0097113Y0023557D01*
X0097093Y0023601D01*
X0097075Y0023646D01*
X0097062Y0023692D01*
X0097052Y0023739D01*
X0097046Y0023787D01*
X0097044Y0023835D01*
X0097044Y0056906D02*
X0097046Y0056954D01*
X0097052Y0057002D01*
X0097062Y0057049D01*
X0097075Y0057095D01*
X0097093Y0057140D01*
X0097113Y0057184D01*
X0097138Y0057226D01*
X0097166Y0057265D01*
X0097196Y0057302D01*
X0097230Y0057336D01*
X0097267Y0057368D01*
X0097305Y0057397D01*
X0097346Y0057422D01*
X0097389Y0057444D01*
X0097434Y0057462D01*
X0097480Y0057476D01*
X0097527Y0057487D01*
X0097575Y0057494D01*
X0097623Y0057497D01*
X0097671Y0057496D01*
X0097719Y0057491D01*
X0097767Y0057482D01*
X0097813Y0057470D01*
X0097858Y0057453D01*
X0097902Y0057433D01*
X0097944Y0057410D01*
X0097984Y0057383D01*
X0098022Y0057353D01*
X0098057Y0057320D01*
X0098089Y0057284D01*
X0098119Y0057246D01*
X0098145Y0057205D01*
X0098167Y0057162D01*
X0098187Y0057118D01*
X0098202Y0057073D01*
X0098214Y0057026D01*
X0098222Y0056978D01*
X0098226Y0056930D01*
X0098226Y0056882D01*
X0098222Y0056834D01*
X0098214Y0056786D01*
X0098202Y0056739D01*
X0098187Y0056694D01*
X0098167Y0056650D01*
X0098145Y0056607D01*
X0098119Y0056566D01*
X0098089Y0056528D01*
X0098057Y0056492D01*
X0098022Y0056459D01*
X0097984Y0056429D01*
X0097944Y0056402D01*
X0097902Y0056379D01*
X0097858Y0056359D01*
X0097813Y0056342D01*
X0097767Y0056330D01*
X0097719Y0056321D01*
X0097671Y0056316D01*
X0097623Y0056315D01*
X0097575Y0056318D01*
X0097527Y0056325D01*
X0097480Y0056336D01*
X0097434Y0056350D01*
X0097389Y0056368D01*
X0097346Y0056390D01*
X0097305Y0056415D01*
X0097267Y0056444D01*
X0097230Y0056476D01*
X0097196Y0056510D01*
X0097166Y0056547D01*
X0097138Y0056586D01*
X0097113Y0056628D01*
X0097093Y0056672D01*
X0097075Y0056717D01*
X0097062Y0056763D01*
X0097052Y0056810D01*
X0097046Y0056858D01*
X0097044Y0056906D01*
X0097044Y0064307D02*
X0097046Y0064355D01*
X0097052Y0064403D01*
X0097062Y0064450D01*
X0097075Y0064496D01*
X0097093Y0064541D01*
X0097113Y0064585D01*
X0097138Y0064627D01*
X0097166Y0064666D01*
X0097196Y0064703D01*
X0097230Y0064737D01*
X0097267Y0064769D01*
X0097305Y0064798D01*
X0097346Y0064823D01*
X0097389Y0064845D01*
X0097434Y0064863D01*
X0097480Y0064877D01*
X0097527Y0064888D01*
X0097575Y0064895D01*
X0097623Y0064898D01*
X0097671Y0064897D01*
X0097719Y0064892D01*
X0097767Y0064883D01*
X0097813Y0064871D01*
X0097858Y0064854D01*
X0097902Y0064834D01*
X0097944Y0064811D01*
X0097984Y0064784D01*
X0098022Y0064754D01*
X0098057Y0064721D01*
X0098089Y0064685D01*
X0098119Y0064647D01*
X0098145Y0064606D01*
X0098167Y0064563D01*
X0098187Y0064519D01*
X0098202Y0064474D01*
X0098214Y0064427D01*
X0098222Y0064379D01*
X0098226Y0064331D01*
X0098226Y0064283D01*
X0098222Y0064235D01*
X0098214Y0064187D01*
X0098202Y0064140D01*
X0098187Y0064095D01*
X0098167Y0064051D01*
X0098145Y0064008D01*
X0098119Y0063967D01*
X0098089Y0063929D01*
X0098057Y0063893D01*
X0098022Y0063860D01*
X0097984Y0063830D01*
X0097944Y0063803D01*
X0097902Y0063780D01*
X0097858Y0063760D01*
X0097813Y0063743D01*
X0097767Y0063731D01*
X0097719Y0063722D01*
X0097671Y0063717D01*
X0097623Y0063716D01*
X0097575Y0063719D01*
X0097527Y0063726D01*
X0097480Y0063737D01*
X0097434Y0063751D01*
X0097389Y0063769D01*
X0097346Y0063791D01*
X0097305Y0063816D01*
X0097267Y0063845D01*
X0097230Y0063877D01*
X0097196Y0063911D01*
X0097166Y0063948D01*
X0097138Y0063987D01*
X0097113Y0064029D01*
X0097093Y0064073D01*
X0097075Y0064118D01*
X0097062Y0064164D01*
X0097052Y0064211D01*
X0097046Y0064259D01*
X0097044Y0064307D01*
X0089643Y0064307D02*
X0089645Y0064355D01*
X0089651Y0064403D01*
X0089661Y0064450D01*
X0089674Y0064496D01*
X0089692Y0064541D01*
X0089712Y0064585D01*
X0089737Y0064627D01*
X0089765Y0064666D01*
X0089795Y0064703D01*
X0089829Y0064737D01*
X0089866Y0064769D01*
X0089904Y0064798D01*
X0089945Y0064823D01*
X0089988Y0064845D01*
X0090033Y0064863D01*
X0090079Y0064877D01*
X0090126Y0064888D01*
X0090174Y0064895D01*
X0090222Y0064898D01*
X0090270Y0064897D01*
X0090318Y0064892D01*
X0090366Y0064883D01*
X0090412Y0064871D01*
X0090457Y0064854D01*
X0090501Y0064834D01*
X0090543Y0064811D01*
X0090583Y0064784D01*
X0090621Y0064754D01*
X0090656Y0064721D01*
X0090688Y0064685D01*
X0090718Y0064647D01*
X0090744Y0064606D01*
X0090766Y0064563D01*
X0090786Y0064519D01*
X0090801Y0064474D01*
X0090813Y0064427D01*
X0090821Y0064379D01*
X0090825Y0064331D01*
X0090825Y0064283D01*
X0090821Y0064235D01*
X0090813Y0064187D01*
X0090801Y0064140D01*
X0090786Y0064095D01*
X0090766Y0064051D01*
X0090744Y0064008D01*
X0090718Y0063967D01*
X0090688Y0063929D01*
X0090656Y0063893D01*
X0090621Y0063860D01*
X0090583Y0063830D01*
X0090543Y0063803D01*
X0090501Y0063780D01*
X0090457Y0063760D01*
X0090412Y0063743D01*
X0090366Y0063731D01*
X0090318Y0063722D01*
X0090270Y0063717D01*
X0090222Y0063716D01*
X0090174Y0063719D01*
X0090126Y0063726D01*
X0090079Y0063737D01*
X0090033Y0063751D01*
X0089988Y0063769D01*
X0089945Y0063791D01*
X0089904Y0063816D01*
X0089866Y0063845D01*
X0089829Y0063877D01*
X0089795Y0063911D01*
X0089765Y0063948D01*
X0089737Y0063987D01*
X0089712Y0064029D01*
X0089692Y0064073D01*
X0089674Y0064118D01*
X0089661Y0064164D01*
X0089651Y0064211D01*
X0089645Y0064259D01*
X0089643Y0064307D01*
X0089643Y0056906D02*
X0089645Y0056954D01*
X0089651Y0057002D01*
X0089661Y0057049D01*
X0089674Y0057095D01*
X0089692Y0057140D01*
X0089712Y0057184D01*
X0089737Y0057226D01*
X0089765Y0057265D01*
X0089795Y0057302D01*
X0089829Y0057336D01*
X0089866Y0057368D01*
X0089904Y0057397D01*
X0089945Y0057422D01*
X0089988Y0057444D01*
X0090033Y0057462D01*
X0090079Y0057476D01*
X0090126Y0057487D01*
X0090174Y0057494D01*
X0090222Y0057497D01*
X0090270Y0057496D01*
X0090318Y0057491D01*
X0090366Y0057482D01*
X0090412Y0057470D01*
X0090457Y0057453D01*
X0090501Y0057433D01*
X0090543Y0057410D01*
X0090583Y0057383D01*
X0090621Y0057353D01*
X0090656Y0057320D01*
X0090688Y0057284D01*
X0090718Y0057246D01*
X0090744Y0057205D01*
X0090766Y0057162D01*
X0090786Y0057118D01*
X0090801Y0057073D01*
X0090813Y0057026D01*
X0090821Y0056978D01*
X0090825Y0056930D01*
X0090825Y0056882D01*
X0090821Y0056834D01*
X0090813Y0056786D01*
X0090801Y0056739D01*
X0090786Y0056694D01*
X0090766Y0056650D01*
X0090744Y0056607D01*
X0090718Y0056566D01*
X0090688Y0056528D01*
X0090656Y0056492D01*
X0090621Y0056459D01*
X0090583Y0056429D01*
X0090543Y0056402D01*
X0090501Y0056379D01*
X0090457Y0056359D01*
X0090412Y0056342D01*
X0090366Y0056330D01*
X0090318Y0056321D01*
X0090270Y0056316D01*
X0090222Y0056315D01*
X0090174Y0056318D01*
X0090126Y0056325D01*
X0090079Y0056336D01*
X0090033Y0056350D01*
X0089988Y0056368D01*
X0089945Y0056390D01*
X0089904Y0056415D01*
X0089866Y0056444D01*
X0089829Y0056476D01*
X0089795Y0056510D01*
X0089765Y0056547D01*
X0089737Y0056586D01*
X0089712Y0056628D01*
X0089692Y0056672D01*
X0089674Y0056717D01*
X0089661Y0056763D01*
X0089651Y0056810D01*
X0089645Y0056858D01*
X0089643Y0056906D01*
X0038777Y0056906D02*
X0038779Y0056954D01*
X0038785Y0057002D01*
X0038795Y0057049D01*
X0038808Y0057095D01*
X0038826Y0057140D01*
X0038846Y0057184D01*
X0038871Y0057226D01*
X0038899Y0057265D01*
X0038929Y0057302D01*
X0038963Y0057336D01*
X0039000Y0057368D01*
X0039038Y0057397D01*
X0039079Y0057422D01*
X0039122Y0057444D01*
X0039167Y0057462D01*
X0039213Y0057476D01*
X0039260Y0057487D01*
X0039308Y0057494D01*
X0039356Y0057497D01*
X0039404Y0057496D01*
X0039452Y0057491D01*
X0039500Y0057482D01*
X0039546Y0057470D01*
X0039591Y0057453D01*
X0039635Y0057433D01*
X0039677Y0057410D01*
X0039717Y0057383D01*
X0039755Y0057353D01*
X0039790Y0057320D01*
X0039822Y0057284D01*
X0039852Y0057246D01*
X0039878Y0057205D01*
X0039900Y0057162D01*
X0039920Y0057118D01*
X0039935Y0057073D01*
X0039947Y0057026D01*
X0039955Y0056978D01*
X0039959Y0056930D01*
X0039959Y0056882D01*
X0039955Y0056834D01*
X0039947Y0056786D01*
X0039935Y0056739D01*
X0039920Y0056694D01*
X0039900Y0056650D01*
X0039878Y0056607D01*
X0039852Y0056566D01*
X0039822Y0056528D01*
X0039790Y0056492D01*
X0039755Y0056459D01*
X0039717Y0056429D01*
X0039677Y0056402D01*
X0039635Y0056379D01*
X0039591Y0056359D01*
X0039546Y0056342D01*
X0039500Y0056330D01*
X0039452Y0056321D01*
X0039404Y0056316D01*
X0039356Y0056315D01*
X0039308Y0056318D01*
X0039260Y0056325D01*
X0039213Y0056336D01*
X0039167Y0056350D01*
X0039122Y0056368D01*
X0039079Y0056390D01*
X0039038Y0056415D01*
X0039000Y0056444D01*
X0038963Y0056476D01*
X0038929Y0056510D01*
X0038899Y0056547D01*
X0038871Y0056586D01*
X0038846Y0056628D01*
X0038826Y0056672D01*
X0038808Y0056717D01*
X0038795Y0056763D01*
X0038785Y0056810D01*
X0038779Y0056858D01*
X0038777Y0056906D01*
X0038777Y0064307D02*
X0038779Y0064355D01*
X0038785Y0064403D01*
X0038795Y0064450D01*
X0038808Y0064496D01*
X0038826Y0064541D01*
X0038846Y0064585D01*
X0038871Y0064627D01*
X0038899Y0064666D01*
X0038929Y0064703D01*
X0038963Y0064737D01*
X0039000Y0064769D01*
X0039038Y0064798D01*
X0039079Y0064823D01*
X0039122Y0064845D01*
X0039167Y0064863D01*
X0039213Y0064877D01*
X0039260Y0064888D01*
X0039308Y0064895D01*
X0039356Y0064898D01*
X0039404Y0064897D01*
X0039452Y0064892D01*
X0039500Y0064883D01*
X0039546Y0064871D01*
X0039591Y0064854D01*
X0039635Y0064834D01*
X0039677Y0064811D01*
X0039717Y0064784D01*
X0039755Y0064754D01*
X0039790Y0064721D01*
X0039822Y0064685D01*
X0039852Y0064647D01*
X0039878Y0064606D01*
X0039900Y0064563D01*
X0039920Y0064519D01*
X0039935Y0064474D01*
X0039947Y0064427D01*
X0039955Y0064379D01*
X0039959Y0064331D01*
X0039959Y0064283D01*
X0039955Y0064235D01*
X0039947Y0064187D01*
X0039935Y0064140D01*
X0039920Y0064095D01*
X0039900Y0064051D01*
X0039878Y0064008D01*
X0039852Y0063967D01*
X0039822Y0063929D01*
X0039790Y0063893D01*
X0039755Y0063860D01*
X0039717Y0063830D01*
X0039677Y0063803D01*
X0039635Y0063780D01*
X0039591Y0063760D01*
X0039546Y0063743D01*
X0039500Y0063731D01*
X0039452Y0063722D01*
X0039404Y0063717D01*
X0039356Y0063716D01*
X0039308Y0063719D01*
X0039260Y0063726D01*
X0039213Y0063737D01*
X0039167Y0063751D01*
X0039122Y0063769D01*
X0039079Y0063791D01*
X0039038Y0063816D01*
X0039000Y0063845D01*
X0038963Y0063877D01*
X0038929Y0063911D01*
X0038899Y0063948D01*
X0038871Y0063987D01*
X0038846Y0064029D01*
X0038826Y0064073D01*
X0038808Y0064118D01*
X0038795Y0064164D01*
X0038785Y0064211D01*
X0038779Y0064259D01*
X0038777Y0064307D01*
X0031375Y0064307D02*
X0031377Y0064355D01*
X0031383Y0064403D01*
X0031393Y0064450D01*
X0031406Y0064496D01*
X0031424Y0064541D01*
X0031444Y0064585D01*
X0031469Y0064627D01*
X0031497Y0064666D01*
X0031527Y0064703D01*
X0031561Y0064737D01*
X0031598Y0064769D01*
X0031636Y0064798D01*
X0031677Y0064823D01*
X0031720Y0064845D01*
X0031765Y0064863D01*
X0031811Y0064877D01*
X0031858Y0064888D01*
X0031906Y0064895D01*
X0031954Y0064898D01*
X0032002Y0064897D01*
X0032050Y0064892D01*
X0032098Y0064883D01*
X0032144Y0064871D01*
X0032189Y0064854D01*
X0032233Y0064834D01*
X0032275Y0064811D01*
X0032315Y0064784D01*
X0032353Y0064754D01*
X0032388Y0064721D01*
X0032420Y0064685D01*
X0032450Y0064647D01*
X0032476Y0064606D01*
X0032498Y0064563D01*
X0032518Y0064519D01*
X0032533Y0064474D01*
X0032545Y0064427D01*
X0032553Y0064379D01*
X0032557Y0064331D01*
X0032557Y0064283D01*
X0032553Y0064235D01*
X0032545Y0064187D01*
X0032533Y0064140D01*
X0032518Y0064095D01*
X0032498Y0064051D01*
X0032476Y0064008D01*
X0032450Y0063967D01*
X0032420Y0063929D01*
X0032388Y0063893D01*
X0032353Y0063860D01*
X0032315Y0063830D01*
X0032275Y0063803D01*
X0032233Y0063780D01*
X0032189Y0063760D01*
X0032144Y0063743D01*
X0032098Y0063731D01*
X0032050Y0063722D01*
X0032002Y0063717D01*
X0031954Y0063716D01*
X0031906Y0063719D01*
X0031858Y0063726D01*
X0031811Y0063737D01*
X0031765Y0063751D01*
X0031720Y0063769D01*
X0031677Y0063791D01*
X0031636Y0063816D01*
X0031598Y0063845D01*
X0031561Y0063877D01*
X0031527Y0063911D01*
X0031497Y0063948D01*
X0031469Y0063987D01*
X0031444Y0064029D01*
X0031424Y0064073D01*
X0031406Y0064118D01*
X0031393Y0064164D01*
X0031383Y0064211D01*
X0031377Y0064259D01*
X0031375Y0064307D01*
X0031375Y0056906D02*
X0031377Y0056954D01*
X0031383Y0057002D01*
X0031393Y0057049D01*
X0031406Y0057095D01*
X0031424Y0057140D01*
X0031444Y0057184D01*
X0031469Y0057226D01*
X0031497Y0057265D01*
X0031527Y0057302D01*
X0031561Y0057336D01*
X0031598Y0057368D01*
X0031636Y0057397D01*
X0031677Y0057422D01*
X0031720Y0057444D01*
X0031765Y0057462D01*
X0031811Y0057476D01*
X0031858Y0057487D01*
X0031906Y0057494D01*
X0031954Y0057497D01*
X0032002Y0057496D01*
X0032050Y0057491D01*
X0032098Y0057482D01*
X0032144Y0057470D01*
X0032189Y0057453D01*
X0032233Y0057433D01*
X0032275Y0057410D01*
X0032315Y0057383D01*
X0032353Y0057353D01*
X0032388Y0057320D01*
X0032420Y0057284D01*
X0032450Y0057246D01*
X0032476Y0057205D01*
X0032498Y0057162D01*
X0032518Y0057118D01*
X0032533Y0057073D01*
X0032545Y0057026D01*
X0032553Y0056978D01*
X0032557Y0056930D01*
X0032557Y0056882D01*
X0032553Y0056834D01*
X0032545Y0056786D01*
X0032533Y0056739D01*
X0032518Y0056694D01*
X0032498Y0056650D01*
X0032476Y0056607D01*
X0032450Y0056566D01*
X0032420Y0056528D01*
X0032388Y0056492D01*
X0032353Y0056459D01*
X0032315Y0056429D01*
X0032275Y0056402D01*
X0032233Y0056379D01*
X0032189Y0056359D01*
X0032144Y0056342D01*
X0032098Y0056330D01*
X0032050Y0056321D01*
X0032002Y0056316D01*
X0031954Y0056315D01*
X0031906Y0056318D01*
X0031858Y0056325D01*
X0031811Y0056336D01*
X0031765Y0056350D01*
X0031720Y0056368D01*
X0031677Y0056390D01*
X0031636Y0056415D01*
X0031598Y0056444D01*
X0031561Y0056476D01*
X0031527Y0056510D01*
X0031497Y0056547D01*
X0031469Y0056586D01*
X0031444Y0056628D01*
X0031424Y0056672D01*
X0031406Y0056717D01*
X0031393Y0056763D01*
X0031383Y0056810D01*
X0031377Y0056858D01*
X0031375Y0056906D01*
D11*
X0063350Y0102929D03*
X0063350Y0104898D03*
X0063350Y0106866D03*
X0063350Y0108835D03*
X0063350Y0110803D03*
X0063350Y0112772D03*
X0078850Y0112772D03*
X0078850Y0110803D03*
X0078850Y0108835D03*
X0078850Y0106866D03*
X0078850Y0104898D03*
X0078850Y0102929D03*
D12*
X0076021Y0100100D03*
X0074053Y0100100D03*
X0072084Y0100100D03*
X0070116Y0100100D03*
X0068147Y0100100D03*
X0066179Y0100100D03*
X0066179Y0115600D03*
X0068147Y0115600D03*
X0070116Y0115600D03*
X0072084Y0115600D03*
X0074053Y0115600D03*
X0076021Y0115600D03*
D13*
X0071100Y0107850D03*
D14*
X0071494Y0107457D02*
X0075906Y0107457D01*
X0075906Y0103044D01*
X0071494Y0103044D01*
X0071494Y0107457D01*
X0071494Y0107434D02*
X0075906Y0107434D01*
X0075906Y0107335D02*
X0071494Y0107335D01*
X0071494Y0107237D02*
X0075906Y0107237D01*
X0075906Y0107138D02*
X0071494Y0107138D01*
X0071494Y0107040D02*
X0075906Y0107040D01*
X0075906Y0106941D02*
X0071494Y0106941D01*
X0071494Y0106843D02*
X0075906Y0106843D01*
X0075906Y0106744D02*
X0071494Y0106744D01*
X0071494Y0106646D02*
X0075906Y0106646D01*
X0075906Y0106547D02*
X0071494Y0106547D01*
X0071494Y0106449D02*
X0075906Y0106449D01*
X0075906Y0106350D02*
X0071494Y0106350D01*
X0071494Y0106251D02*
X0075906Y0106251D01*
X0075906Y0106153D02*
X0071494Y0106153D01*
X0071494Y0106054D02*
X0075906Y0106054D01*
X0075906Y0105956D02*
X0071494Y0105956D01*
X0071494Y0105857D02*
X0075906Y0105857D01*
X0075906Y0105759D02*
X0071494Y0105759D01*
X0071494Y0105660D02*
X0075906Y0105660D01*
X0075906Y0105562D02*
X0071494Y0105562D01*
X0071494Y0105463D02*
X0075906Y0105463D01*
X0075906Y0105365D02*
X0071494Y0105365D01*
X0071494Y0105266D02*
X0075906Y0105266D01*
X0075906Y0105168D02*
X0071494Y0105168D01*
X0071494Y0105069D02*
X0075906Y0105069D01*
X0075906Y0104971D02*
X0071494Y0104971D01*
X0071494Y0104872D02*
X0075906Y0104872D01*
X0075906Y0104774D02*
X0071494Y0104774D01*
X0071494Y0104675D02*
X0075906Y0104675D01*
X0075906Y0104577D02*
X0071494Y0104577D01*
X0071494Y0104478D02*
X0075906Y0104478D01*
X0075906Y0104380D02*
X0071494Y0104380D01*
X0071494Y0104281D02*
X0075906Y0104281D01*
X0075906Y0104183D02*
X0071494Y0104183D01*
X0071494Y0104084D02*
X0075906Y0104084D01*
X0075906Y0103986D02*
X0071494Y0103986D01*
X0071494Y0103887D02*
X0075906Y0103887D01*
X0075906Y0103789D02*
X0071494Y0103789D01*
X0071494Y0103690D02*
X0075906Y0103690D01*
X0075906Y0103592D02*
X0071494Y0103592D01*
X0071494Y0103493D02*
X0075906Y0103493D01*
X0075906Y0103395D02*
X0071494Y0103395D01*
X0071494Y0103296D02*
X0075906Y0103296D01*
X0075906Y0103198D02*
X0071494Y0103198D01*
X0071494Y0103099D02*
X0075906Y0103099D01*
X0075906Y0108244D02*
X0071494Y0108244D01*
X0071494Y0112657D01*
X0075906Y0112657D01*
X0075906Y0108244D01*
X0075906Y0108320D02*
X0071494Y0108320D01*
X0071494Y0108419D02*
X0075906Y0108419D01*
X0075906Y0108517D02*
X0071494Y0108517D01*
X0071494Y0108616D02*
X0075906Y0108616D01*
X0075906Y0108714D02*
X0071494Y0108714D01*
X0071494Y0108813D02*
X0075906Y0108813D01*
X0075906Y0108911D02*
X0071494Y0108911D01*
X0071494Y0109010D02*
X0075906Y0109010D01*
X0075906Y0109108D02*
X0071494Y0109108D01*
X0071494Y0109207D02*
X0075906Y0109207D01*
X0075906Y0109305D02*
X0071494Y0109305D01*
X0071494Y0109404D02*
X0075906Y0109404D01*
X0075906Y0109502D02*
X0071494Y0109502D01*
X0071494Y0109601D02*
X0075906Y0109601D01*
X0075906Y0109699D02*
X0071494Y0109699D01*
X0071494Y0109798D02*
X0075906Y0109798D01*
X0075906Y0109896D02*
X0071494Y0109896D01*
X0071494Y0109995D02*
X0075906Y0109995D01*
X0075906Y0110093D02*
X0071494Y0110093D01*
X0071494Y0110192D02*
X0075906Y0110192D01*
X0075906Y0110290D02*
X0071494Y0110290D01*
X0071494Y0110389D02*
X0075906Y0110389D01*
X0075906Y0110487D02*
X0071494Y0110487D01*
X0071494Y0110586D02*
X0075906Y0110586D01*
X0075906Y0110684D02*
X0071494Y0110684D01*
X0071494Y0110783D02*
X0075906Y0110783D01*
X0075906Y0110882D02*
X0071494Y0110882D01*
X0071494Y0110980D02*
X0075906Y0110980D01*
X0075906Y0111079D02*
X0071494Y0111079D01*
X0071494Y0111177D02*
X0075906Y0111177D01*
X0075906Y0111276D02*
X0071494Y0111276D01*
X0071494Y0111374D02*
X0075906Y0111374D01*
X0075906Y0111473D02*
X0071494Y0111473D01*
X0071494Y0111571D02*
X0075906Y0111571D01*
X0075906Y0111670D02*
X0071494Y0111670D01*
X0071494Y0111768D02*
X0075906Y0111768D01*
X0075906Y0111867D02*
X0071494Y0111867D01*
X0071494Y0111965D02*
X0075906Y0111965D01*
X0075906Y0112064D02*
X0071494Y0112064D01*
X0071494Y0112162D02*
X0075906Y0112162D01*
X0075906Y0112261D02*
X0071494Y0112261D01*
X0071494Y0112359D02*
X0075906Y0112359D01*
X0075906Y0112458D02*
X0071494Y0112458D01*
X0071494Y0112556D02*
X0075906Y0112556D01*
X0075906Y0112655D02*
X0071494Y0112655D01*
X0070706Y0112655D02*
X0066294Y0112655D01*
X0066294Y0112657D02*
X0070706Y0112657D01*
X0070706Y0108244D01*
X0066294Y0108244D01*
X0066294Y0112657D01*
X0066294Y0112556D02*
X0070706Y0112556D01*
X0070706Y0112458D02*
X0066294Y0112458D01*
X0066294Y0112359D02*
X0070706Y0112359D01*
X0070706Y0112261D02*
X0066294Y0112261D01*
X0066294Y0112162D02*
X0070706Y0112162D01*
X0070706Y0112064D02*
X0066294Y0112064D01*
X0066294Y0111965D02*
X0070706Y0111965D01*
X0070706Y0111867D02*
X0066294Y0111867D01*
X0066294Y0111768D02*
X0070706Y0111768D01*
X0070706Y0111670D02*
X0066294Y0111670D01*
X0066294Y0111571D02*
X0070706Y0111571D01*
X0070706Y0111473D02*
X0066294Y0111473D01*
X0066294Y0111374D02*
X0070706Y0111374D01*
X0070706Y0111276D02*
X0066294Y0111276D01*
X0066294Y0111177D02*
X0070706Y0111177D01*
X0070706Y0111079D02*
X0066294Y0111079D01*
X0066294Y0110980D02*
X0070706Y0110980D01*
X0070706Y0110882D02*
X0066294Y0110882D01*
X0066294Y0110783D02*
X0070706Y0110783D01*
X0070706Y0110684D02*
X0066294Y0110684D01*
X0066294Y0110586D02*
X0070706Y0110586D01*
X0070706Y0110487D02*
X0066294Y0110487D01*
X0066294Y0110389D02*
X0070706Y0110389D01*
X0070706Y0110290D02*
X0066294Y0110290D01*
X0066294Y0110192D02*
X0070706Y0110192D01*
X0070706Y0110093D02*
X0066294Y0110093D01*
X0066294Y0109995D02*
X0070706Y0109995D01*
X0070706Y0109896D02*
X0066294Y0109896D01*
X0066294Y0109798D02*
X0070706Y0109798D01*
X0070706Y0109699D02*
X0066294Y0109699D01*
X0066294Y0109601D02*
X0070706Y0109601D01*
X0070706Y0109502D02*
X0066294Y0109502D01*
X0066294Y0109404D02*
X0070706Y0109404D01*
X0070706Y0109305D02*
X0066294Y0109305D01*
X0066294Y0109207D02*
X0070706Y0109207D01*
X0070706Y0109108D02*
X0066294Y0109108D01*
X0066294Y0109010D02*
X0070706Y0109010D01*
X0070706Y0108911D02*
X0066294Y0108911D01*
X0066294Y0108813D02*
X0070706Y0108813D01*
X0070706Y0108714D02*
X0066294Y0108714D01*
X0066294Y0108616D02*
X0070706Y0108616D01*
X0070706Y0108517D02*
X0066294Y0108517D01*
X0066294Y0108419D02*
X0070706Y0108419D01*
X0070706Y0108320D02*
X0066294Y0108320D01*
X0066294Y0107457D02*
X0070706Y0107457D01*
X0070706Y0103044D01*
X0066294Y0103044D01*
X0066294Y0107457D01*
X0066294Y0107434D02*
X0070706Y0107434D01*
X0070706Y0107335D02*
X0066294Y0107335D01*
X0066294Y0107237D02*
X0070706Y0107237D01*
X0070706Y0107138D02*
X0066294Y0107138D01*
X0066294Y0107040D02*
X0070706Y0107040D01*
X0070706Y0106941D02*
X0066294Y0106941D01*
X0066294Y0106843D02*
X0070706Y0106843D01*
X0070706Y0106744D02*
X0066294Y0106744D01*
X0066294Y0106646D02*
X0070706Y0106646D01*
X0070706Y0106547D02*
X0066294Y0106547D01*
X0066294Y0106449D02*
X0070706Y0106449D01*
X0070706Y0106350D02*
X0066294Y0106350D01*
X0066294Y0106251D02*
X0070706Y0106251D01*
X0070706Y0106153D02*
X0066294Y0106153D01*
X0066294Y0106054D02*
X0070706Y0106054D01*
X0070706Y0105956D02*
X0066294Y0105956D01*
X0066294Y0105857D02*
X0070706Y0105857D01*
X0070706Y0105759D02*
X0066294Y0105759D01*
X0066294Y0105660D02*
X0070706Y0105660D01*
X0070706Y0105562D02*
X0066294Y0105562D01*
X0066294Y0105463D02*
X0070706Y0105463D01*
X0070706Y0105365D02*
X0066294Y0105365D01*
X0066294Y0105266D02*
X0070706Y0105266D01*
X0070706Y0105168D02*
X0066294Y0105168D01*
X0066294Y0105069D02*
X0070706Y0105069D01*
X0070706Y0104971D02*
X0066294Y0104971D01*
X0066294Y0104872D02*
X0070706Y0104872D01*
X0070706Y0104774D02*
X0066294Y0104774D01*
X0066294Y0104675D02*
X0070706Y0104675D01*
X0070706Y0104577D02*
X0066294Y0104577D01*
X0066294Y0104478D02*
X0070706Y0104478D01*
X0070706Y0104380D02*
X0066294Y0104380D01*
X0066294Y0104281D02*
X0070706Y0104281D01*
X0070706Y0104183D02*
X0066294Y0104183D01*
X0066294Y0104084D02*
X0070706Y0104084D01*
X0070706Y0103986D02*
X0066294Y0103986D01*
X0066294Y0103887D02*
X0070706Y0103887D01*
X0070706Y0103789D02*
X0066294Y0103789D01*
X0066294Y0103690D02*
X0070706Y0103690D01*
X0070706Y0103592D02*
X0066294Y0103592D01*
X0066294Y0103493D02*
X0070706Y0103493D01*
X0070706Y0103395D02*
X0066294Y0103395D01*
X0066294Y0103296D02*
X0070706Y0103296D01*
X0070706Y0103198D02*
X0066294Y0103198D01*
X0066294Y0103099D02*
X0070706Y0103099D01*
X0074051Y0054307D02*
X0078677Y0054307D01*
X0078874Y0054110D01*
X0078874Y0052929D01*
X0078677Y0052732D01*
X0074051Y0052732D01*
X0074051Y0053028D01*
X0072870Y0053028D01*
X0072673Y0053224D01*
X0072673Y0053815D01*
X0072870Y0054012D01*
X0074051Y0054012D01*
X0074051Y0054307D01*
X0074051Y0054238D02*
X0078746Y0054238D01*
X0078845Y0054139D02*
X0074051Y0054139D01*
X0074051Y0054040D02*
X0078874Y0054040D01*
X0078874Y0053942D02*
X0072800Y0053942D01*
X0072701Y0053843D02*
X0078874Y0053843D01*
X0078874Y0053745D02*
X0072673Y0053745D01*
X0072673Y0053646D02*
X0078874Y0053646D01*
X0078874Y0053548D02*
X0072673Y0053548D01*
X0072673Y0053449D02*
X0078874Y0053449D01*
X0078874Y0053351D02*
X0072673Y0053351D01*
X0072673Y0053252D02*
X0078874Y0053252D01*
X0078874Y0053154D02*
X0072743Y0053154D01*
X0072842Y0053055D02*
X0078874Y0053055D01*
X0078874Y0052957D02*
X0074051Y0052957D01*
X0074051Y0052858D02*
X0078803Y0052858D01*
X0078704Y0052760D02*
X0074051Y0052760D01*
X0074051Y0050764D02*
X0078677Y0050764D01*
X0078874Y0050567D01*
X0078874Y0049386D01*
X0078677Y0049189D01*
X0074051Y0049189D01*
X0074051Y0049484D01*
X0072870Y0049484D01*
X0072673Y0049681D01*
X0072673Y0050272D01*
X0072870Y0050469D01*
X0074051Y0050469D01*
X0074051Y0050764D01*
X0074051Y0050691D02*
X0078749Y0050691D01*
X0078848Y0050593D02*
X0074051Y0050593D01*
X0074051Y0050494D02*
X0078874Y0050494D01*
X0078874Y0050396D02*
X0072797Y0050396D01*
X0072698Y0050297D02*
X0078874Y0050297D01*
X0078874Y0050199D02*
X0072673Y0050199D01*
X0072673Y0050100D02*
X0078874Y0050100D01*
X0078874Y0050002D02*
X0072673Y0050002D01*
X0072673Y0049903D02*
X0078874Y0049903D01*
X0078874Y0049805D02*
X0072673Y0049805D01*
X0072673Y0049706D02*
X0078874Y0049706D01*
X0078874Y0049607D02*
X0072746Y0049607D01*
X0072845Y0049509D02*
X0078874Y0049509D01*
X0078874Y0049410D02*
X0074051Y0049410D01*
X0074051Y0049312D02*
X0078800Y0049312D01*
X0078701Y0049213D02*
X0074051Y0049213D01*
X0074051Y0047614D02*
X0078677Y0047614D01*
X0078874Y0047417D01*
X0078874Y0046236D01*
X0078677Y0046039D01*
X0074051Y0046039D01*
X0074051Y0046335D01*
X0072870Y0046335D01*
X0072673Y0046531D01*
X0072673Y0047122D01*
X0072870Y0047319D01*
X0074051Y0047319D01*
X0074051Y0047614D01*
X0074051Y0047539D02*
X0078752Y0047539D01*
X0078851Y0047440D02*
X0074051Y0047440D01*
X0074051Y0047342D02*
X0078874Y0047342D01*
X0078874Y0047243D02*
X0072794Y0047243D01*
X0072695Y0047145D02*
X0078874Y0047145D01*
X0078874Y0047046D02*
X0072673Y0047046D01*
X0072673Y0046948D02*
X0078874Y0046948D01*
X0078874Y0046849D02*
X0072673Y0046849D01*
X0072673Y0046751D02*
X0078874Y0046751D01*
X0078874Y0046652D02*
X0072673Y0046652D01*
X0072673Y0046554D02*
X0078874Y0046554D01*
X0078874Y0046455D02*
X0072749Y0046455D01*
X0072848Y0046357D02*
X0078874Y0046357D01*
X0078874Y0046258D02*
X0074051Y0046258D01*
X0074051Y0046160D02*
X0078797Y0046160D01*
X0078698Y0046061D02*
X0074051Y0046061D01*
X0074051Y0044071D02*
X0078677Y0044071D01*
X0078874Y0043874D01*
X0078874Y0042693D01*
X0078677Y0042496D01*
X0074051Y0042496D01*
X0074051Y0042791D01*
X0072870Y0042791D01*
X0072673Y0042988D01*
X0072673Y0043579D01*
X0072870Y0043776D01*
X0074051Y0043776D01*
X0074051Y0044071D01*
X0074051Y0043992D02*
X0078755Y0043992D01*
X0078854Y0043894D02*
X0074051Y0043894D01*
X0074051Y0043795D02*
X0078874Y0043795D01*
X0078874Y0043697D02*
X0072791Y0043697D01*
X0072692Y0043598D02*
X0078874Y0043598D01*
X0078874Y0043500D02*
X0072673Y0043500D01*
X0072673Y0043401D02*
X0078874Y0043401D01*
X0078874Y0043303D02*
X0072673Y0043303D01*
X0072673Y0043204D02*
X0078874Y0043204D01*
X0078874Y0043106D02*
X0072673Y0043106D01*
X0072673Y0043007D02*
X0078874Y0043007D01*
X0078874Y0042909D02*
X0072752Y0042909D01*
X0072851Y0042810D02*
X0078874Y0042810D01*
X0078874Y0042712D02*
X0074051Y0042712D01*
X0074051Y0042613D02*
X0078794Y0042613D01*
X0078695Y0042515D02*
X0074051Y0042515D01*
X0075923Y0041512D02*
X0075923Y0038362D01*
X0076120Y0038165D01*
X0076710Y0038165D01*
X0076907Y0038362D01*
X0076907Y0041512D01*
X0076710Y0041709D01*
X0076120Y0041709D01*
X0075923Y0041512D01*
X0075941Y0041530D02*
X0076889Y0041530D01*
X0076907Y0041431D02*
X0075923Y0041431D01*
X0075923Y0041333D02*
X0076907Y0041333D01*
X0076907Y0041234D02*
X0075923Y0041234D01*
X0075923Y0041136D02*
X0076907Y0041136D01*
X0076907Y0041037D02*
X0075923Y0041037D01*
X0075923Y0040938D02*
X0076907Y0040938D01*
X0076907Y0040840D02*
X0075923Y0040840D01*
X0075923Y0040741D02*
X0076907Y0040741D01*
X0076907Y0040643D02*
X0075923Y0040643D01*
X0075923Y0040544D02*
X0076907Y0040544D01*
X0076907Y0040446D02*
X0075923Y0040446D01*
X0075923Y0040347D02*
X0076907Y0040347D01*
X0076907Y0040249D02*
X0075923Y0040249D01*
X0075923Y0040150D02*
X0076907Y0040150D01*
X0076907Y0040052D02*
X0075923Y0040052D01*
X0075923Y0039953D02*
X0076907Y0039953D01*
X0076907Y0039855D02*
X0075923Y0039855D01*
X0075923Y0039756D02*
X0076907Y0039756D01*
X0076907Y0039658D02*
X0075923Y0039658D01*
X0075923Y0039559D02*
X0076907Y0039559D01*
X0076907Y0039461D02*
X0075923Y0039461D01*
X0075923Y0039362D02*
X0076907Y0039362D01*
X0076907Y0039264D02*
X0075923Y0039264D01*
X0075923Y0039165D02*
X0076907Y0039165D01*
X0076907Y0039067D02*
X0075923Y0039067D01*
X0075923Y0038968D02*
X0076907Y0038968D01*
X0076907Y0038870D02*
X0075923Y0038870D01*
X0075923Y0038771D02*
X0076907Y0038771D01*
X0076907Y0038673D02*
X0075923Y0038673D01*
X0075923Y0038574D02*
X0076907Y0038574D01*
X0076907Y0038476D02*
X0075923Y0038476D01*
X0075923Y0038377D02*
X0076907Y0038377D01*
X0076824Y0038279D02*
X0076006Y0038279D01*
X0076105Y0038180D02*
X0076725Y0038180D01*
X0077891Y0038362D02*
X0077891Y0041512D01*
X0078088Y0041709D01*
X0078679Y0041709D01*
X0078876Y0041512D01*
X0078876Y0038362D01*
X0078679Y0038165D01*
X0078088Y0038165D01*
X0077891Y0038362D01*
X0077891Y0038377D02*
X0078876Y0038377D01*
X0078876Y0038476D02*
X0077891Y0038476D01*
X0077891Y0038574D02*
X0078876Y0038574D01*
X0078876Y0038673D02*
X0077891Y0038673D01*
X0077891Y0038771D02*
X0078876Y0038771D01*
X0078876Y0038870D02*
X0077891Y0038870D01*
X0077891Y0038968D02*
X0078876Y0038968D01*
X0078876Y0039067D02*
X0077891Y0039067D01*
X0077891Y0039165D02*
X0078876Y0039165D01*
X0078876Y0039264D02*
X0077891Y0039264D01*
X0077891Y0039362D02*
X0078876Y0039362D01*
X0078876Y0039461D02*
X0077891Y0039461D01*
X0077891Y0039559D02*
X0078876Y0039559D01*
X0078876Y0039658D02*
X0077891Y0039658D01*
X0077891Y0039756D02*
X0078876Y0039756D01*
X0078876Y0039855D02*
X0077891Y0039855D01*
X0077891Y0039953D02*
X0078876Y0039953D01*
X0078876Y0040052D02*
X0077891Y0040052D01*
X0077891Y0040150D02*
X0078876Y0040150D01*
X0078876Y0040249D02*
X0077891Y0040249D01*
X0077891Y0040347D02*
X0078876Y0040347D01*
X0078876Y0040446D02*
X0077891Y0040446D01*
X0077891Y0040544D02*
X0078876Y0040544D01*
X0078876Y0040643D02*
X0077891Y0040643D01*
X0077891Y0040741D02*
X0078876Y0040741D01*
X0078876Y0040840D02*
X0077891Y0040840D01*
X0077891Y0040938D02*
X0078876Y0040938D01*
X0078876Y0041037D02*
X0077891Y0041037D01*
X0077891Y0041136D02*
X0078876Y0041136D01*
X0078876Y0041234D02*
X0077891Y0041234D01*
X0077891Y0041333D02*
X0078876Y0041333D01*
X0078876Y0041431D02*
X0077891Y0041431D01*
X0077909Y0041530D02*
X0078858Y0041530D01*
X0078759Y0041628D02*
X0078008Y0041628D01*
X0076791Y0041628D02*
X0076039Y0041628D01*
X0077975Y0038279D02*
X0078792Y0038279D01*
X0078694Y0038180D02*
X0078073Y0038180D01*
X0079860Y0038362D02*
X0079860Y0041512D01*
X0080057Y0041709D01*
X0080647Y0041709D01*
X0080844Y0041512D01*
X0080844Y0038362D01*
X0080647Y0038165D01*
X0080057Y0038165D01*
X0079860Y0038362D01*
X0079860Y0038377D02*
X0080844Y0038377D01*
X0080844Y0038476D02*
X0079860Y0038476D01*
X0079860Y0038574D02*
X0080844Y0038574D01*
X0080844Y0038673D02*
X0079860Y0038673D01*
X0079860Y0038771D02*
X0080844Y0038771D01*
X0080844Y0038870D02*
X0079860Y0038870D01*
X0079860Y0038968D02*
X0080844Y0038968D01*
X0080844Y0039067D02*
X0079860Y0039067D01*
X0079860Y0039165D02*
X0080844Y0039165D01*
X0080844Y0039264D02*
X0079860Y0039264D01*
X0079860Y0039362D02*
X0080844Y0039362D01*
X0080844Y0039461D02*
X0079860Y0039461D01*
X0079860Y0039559D02*
X0080844Y0039559D01*
X0080844Y0039658D02*
X0079860Y0039658D01*
X0079860Y0039756D02*
X0080844Y0039756D01*
X0080844Y0039855D02*
X0079860Y0039855D01*
X0079860Y0039953D02*
X0080844Y0039953D01*
X0080844Y0040052D02*
X0079860Y0040052D01*
X0079860Y0040150D02*
X0080844Y0040150D01*
X0080844Y0040249D02*
X0079860Y0040249D01*
X0079860Y0040347D02*
X0080844Y0040347D01*
X0080844Y0040446D02*
X0079860Y0040446D01*
X0079860Y0040544D02*
X0080844Y0040544D01*
X0080844Y0040643D02*
X0079860Y0040643D01*
X0079860Y0040741D02*
X0080844Y0040741D01*
X0080844Y0040840D02*
X0079860Y0040840D01*
X0079860Y0040938D02*
X0080844Y0040938D01*
X0080844Y0041037D02*
X0079860Y0041037D01*
X0079860Y0041136D02*
X0080844Y0041136D01*
X0080844Y0041234D02*
X0079860Y0041234D01*
X0079860Y0041333D02*
X0080844Y0041333D01*
X0080844Y0041431D02*
X0079860Y0041431D01*
X0079878Y0041530D02*
X0080826Y0041530D01*
X0080728Y0041628D02*
X0079976Y0041628D01*
X0080059Y0042496D02*
X0084685Y0042496D01*
X0084685Y0042791D01*
X0085866Y0042791D01*
X0086063Y0042988D01*
X0086063Y0043579D01*
X0085866Y0043776D01*
X0084685Y0043776D01*
X0084685Y0044071D01*
X0080059Y0044071D01*
X0079862Y0043874D01*
X0079862Y0042693D01*
X0080059Y0042496D01*
X0080040Y0042515D02*
X0084685Y0042515D01*
X0084685Y0042613D02*
X0079942Y0042613D01*
X0079862Y0042712D02*
X0084685Y0042712D01*
X0084685Y0043795D02*
X0079862Y0043795D01*
X0079862Y0043697D02*
X0085945Y0043697D01*
X0086043Y0043598D02*
X0079862Y0043598D01*
X0079862Y0043500D02*
X0086063Y0043500D01*
X0086063Y0043401D02*
X0079862Y0043401D01*
X0079862Y0043303D02*
X0086063Y0043303D01*
X0086063Y0043204D02*
X0079862Y0043204D01*
X0079862Y0043106D02*
X0086063Y0043106D01*
X0086063Y0043007D02*
X0079862Y0043007D01*
X0079862Y0042909D02*
X0085983Y0042909D01*
X0085885Y0042810D02*
X0079862Y0042810D01*
X0079882Y0043894D02*
X0084685Y0043894D01*
X0084685Y0043992D02*
X0079980Y0043992D01*
X0080059Y0046039D02*
X0084685Y0046039D01*
X0084685Y0046335D01*
X0085866Y0046335D01*
X0086063Y0046532D01*
X0086063Y0047122D01*
X0085866Y0047319D01*
X0084685Y0047319D01*
X0084685Y0047614D01*
X0080059Y0047614D01*
X0079862Y0047417D01*
X0079862Y0046236D01*
X0080059Y0046039D01*
X0080037Y0046061D02*
X0084685Y0046061D01*
X0084685Y0046160D02*
X0079938Y0046160D01*
X0079862Y0046258D02*
X0084685Y0046258D01*
X0084685Y0047342D02*
X0079862Y0047342D01*
X0079862Y0047243D02*
X0085941Y0047243D01*
X0086040Y0047145D02*
X0079862Y0047145D01*
X0079862Y0047046D02*
X0086063Y0047046D01*
X0086063Y0046948D02*
X0079862Y0046948D01*
X0079862Y0046849D02*
X0086063Y0046849D01*
X0086063Y0046751D02*
X0079862Y0046751D01*
X0079862Y0046652D02*
X0086063Y0046652D01*
X0086063Y0046554D02*
X0079862Y0046554D01*
X0079862Y0046455D02*
X0085986Y0046455D01*
X0085888Y0046357D02*
X0079862Y0046357D01*
X0079885Y0047440D02*
X0084685Y0047440D01*
X0084685Y0047539D02*
X0079983Y0047539D01*
X0080059Y0049189D02*
X0084685Y0049189D01*
X0084685Y0049484D01*
X0085866Y0049484D01*
X0086063Y0049681D01*
X0086063Y0050272D01*
X0085866Y0050469D01*
X0084685Y0050469D01*
X0084685Y0050764D01*
X0080059Y0050764D01*
X0079862Y0050567D01*
X0079862Y0049386D01*
X0080059Y0049189D01*
X0080034Y0049213D02*
X0084685Y0049213D01*
X0084685Y0049312D02*
X0079936Y0049312D01*
X0079862Y0049410D02*
X0084685Y0049410D01*
X0084685Y0050494D02*
X0079862Y0050494D01*
X0079862Y0050396D02*
X0085939Y0050396D01*
X0086037Y0050297D02*
X0079862Y0050297D01*
X0079862Y0050199D02*
X0086063Y0050199D01*
X0086063Y0050100D02*
X0079862Y0050100D01*
X0079862Y0050002D02*
X0086063Y0050002D01*
X0086063Y0049903D02*
X0079862Y0049903D01*
X0079862Y0049805D02*
X0086063Y0049805D01*
X0086063Y0049706D02*
X0079862Y0049706D01*
X0079862Y0049607D02*
X0085989Y0049607D01*
X0085890Y0049509D02*
X0079862Y0049509D01*
X0079887Y0050593D02*
X0084685Y0050593D01*
X0084685Y0050691D02*
X0079986Y0050691D01*
X0080059Y0052732D02*
X0084685Y0052732D01*
X0084685Y0053028D01*
X0085866Y0053028D01*
X0086063Y0053224D01*
X0086063Y0053815D01*
X0085866Y0054012D01*
X0084685Y0054012D01*
X0084685Y0054307D01*
X0080059Y0054307D01*
X0079862Y0054110D01*
X0079862Y0052929D01*
X0080059Y0052732D01*
X0080031Y0052760D02*
X0084685Y0052760D01*
X0084685Y0052858D02*
X0079933Y0052858D01*
X0079862Y0052957D02*
X0084685Y0052957D01*
X0084685Y0054040D02*
X0079862Y0054040D01*
X0079862Y0053942D02*
X0085936Y0053942D01*
X0086034Y0053843D02*
X0079862Y0053843D01*
X0079862Y0053745D02*
X0086063Y0053745D01*
X0086063Y0053646D02*
X0079862Y0053646D01*
X0079862Y0053548D02*
X0086063Y0053548D01*
X0086063Y0053449D02*
X0079862Y0053449D01*
X0079862Y0053351D02*
X0086063Y0053351D01*
X0086063Y0053252D02*
X0079862Y0053252D01*
X0079862Y0053154D02*
X0085992Y0053154D01*
X0085894Y0053055D02*
X0079862Y0053055D01*
X0079890Y0054139D02*
X0084685Y0054139D01*
X0084685Y0054238D02*
X0079989Y0054238D01*
X0082025Y0041709D02*
X0082616Y0041709D01*
X0082813Y0041512D01*
X0082813Y0038362D01*
X0082616Y0038165D01*
X0082025Y0038165D01*
X0081828Y0038362D01*
X0081828Y0041512D01*
X0082025Y0041709D01*
X0081945Y0041628D02*
X0082696Y0041628D01*
X0082795Y0041530D02*
X0081846Y0041530D01*
X0081828Y0041431D02*
X0082813Y0041431D01*
X0082813Y0041333D02*
X0081828Y0041333D01*
X0081828Y0041234D02*
X0082813Y0041234D01*
X0082813Y0041136D02*
X0081828Y0041136D01*
X0081828Y0041037D02*
X0082813Y0041037D01*
X0082813Y0040938D02*
X0081828Y0040938D01*
X0081828Y0040840D02*
X0082813Y0040840D01*
X0082813Y0040741D02*
X0081828Y0040741D01*
X0081828Y0040643D02*
X0082813Y0040643D01*
X0082813Y0040544D02*
X0081828Y0040544D01*
X0081828Y0040446D02*
X0082813Y0040446D01*
X0082813Y0040347D02*
X0081828Y0040347D01*
X0081828Y0040249D02*
X0082813Y0040249D01*
X0082813Y0040150D02*
X0081828Y0040150D01*
X0081828Y0040052D02*
X0082813Y0040052D01*
X0082813Y0039953D02*
X0081828Y0039953D01*
X0081828Y0039855D02*
X0082813Y0039855D01*
X0082813Y0039756D02*
X0081828Y0039756D01*
X0081828Y0039658D02*
X0082813Y0039658D01*
X0082813Y0039559D02*
X0081828Y0039559D01*
X0081828Y0039461D02*
X0082813Y0039461D01*
X0082813Y0039362D02*
X0081828Y0039362D01*
X0081828Y0039264D02*
X0082813Y0039264D01*
X0082813Y0039165D02*
X0081828Y0039165D01*
X0081828Y0039067D02*
X0082813Y0039067D01*
X0082813Y0038968D02*
X0081828Y0038968D01*
X0081828Y0038870D02*
X0082813Y0038870D01*
X0082813Y0038771D02*
X0081828Y0038771D01*
X0081828Y0038673D02*
X0082813Y0038673D01*
X0082813Y0038574D02*
X0081828Y0038574D01*
X0081828Y0038476D02*
X0082813Y0038476D01*
X0082813Y0038377D02*
X0081828Y0038377D01*
X0081912Y0038279D02*
X0082729Y0038279D01*
X0082631Y0038180D02*
X0082010Y0038180D01*
X0080761Y0038279D02*
X0079943Y0038279D01*
X0080042Y0038180D02*
X0080662Y0038180D01*
X0056929Y0042988D02*
X0056929Y0043579D01*
X0056732Y0043776D01*
X0055551Y0043776D01*
X0055551Y0044071D01*
X0050925Y0044071D01*
X0050728Y0043874D01*
X0050728Y0042693D01*
X0050925Y0042496D01*
X0055551Y0042496D01*
X0055551Y0042791D01*
X0056732Y0042791D01*
X0056929Y0042988D01*
X0056929Y0043007D02*
X0050728Y0043007D01*
X0050728Y0042909D02*
X0056849Y0042909D01*
X0056751Y0042810D02*
X0050728Y0042810D01*
X0050728Y0042712D02*
X0055551Y0042712D01*
X0055551Y0042613D02*
X0050808Y0042613D01*
X0050906Y0042515D02*
X0055551Y0042515D01*
X0055551Y0043795D02*
X0050728Y0043795D01*
X0050728Y0043697D02*
X0056811Y0043697D01*
X0056909Y0043598D02*
X0050728Y0043598D01*
X0050728Y0043500D02*
X0056929Y0043500D01*
X0056929Y0043401D02*
X0050728Y0043401D01*
X0050728Y0043303D02*
X0056929Y0043303D01*
X0056929Y0043204D02*
X0050728Y0043204D01*
X0050728Y0043106D02*
X0056929Y0043106D01*
X0055551Y0043894D02*
X0050748Y0043894D01*
X0050846Y0043992D02*
X0055551Y0043992D01*
X0055551Y0046039D02*
X0055551Y0046335D01*
X0056732Y0046335D01*
X0056929Y0046532D01*
X0056929Y0047122D01*
X0056732Y0047319D01*
X0055551Y0047319D01*
X0055551Y0047614D01*
X0050925Y0047614D01*
X0050728Y0047417D01*
X0050728Y0046236D01*
X0050925Y0046039D01*
X0055551Y0046039D01*
X0055551Y0046061D02*
X0050903Y0046061D01*
X0050805Y0046160D02*
X0055551Y0046160D01*
X0055551Y0046258D02*
X0050728Y0046258D01*
X0050728Y0046357D02*
X0056754Y0046357D01*
X0056852Y0046455D02*
X0050728Y0046455D01*
X0050728Y0046554D02*
X0056929Y0046554D01*
X0056929Y0046652D02*
X0050728Y0046652D01*
X0050728Y0046751D02*
X0056929Y0046751D01*
X0056929Y0046849D02*
X0050728Y0046849D01*
X0050728Y0046948D02*
X0056929Y0046948D01*
X0056929Y0047046D02*
X0050728Y0047046D01*
X0050728Y0047145D02*
X0056906Y0047145D01*
X0056808Y0047243D02*
X0050728Y0047243D01*
X0050728Y0047342D02*
X0055551Y0047342D01*
X0055551Y0047440D02*
X0050751Y0047440D01*
X0050849Y0047539D02*
X0055551Y0047539D01*
X0055551Y0049189D02*
X0055551Y0049484D01*
X0056732Y0049484D01*
X0056929Y0049681D01*
X0056929Y0050272D01*
X0056732Y0050469D01*
X0055551Y0050469D01*
X0055551Y0050764D01*
X0050925Y0050764D01*
X0050728Y0050567D01*
X0050728Y0049386D01*
X0050925Y0049189D01*
X0055551Y0049189D01*
X0055551Y0049213D02*
X0050900Y0049213D01*
X0050802Y0049312D02*
X0055551Y0049312D01*
X0055551Y0049410D02*
X0050728Y0049410D01*
X0050728Y0049509D02*
X0056757Y0049509D01*
X0056855Y0049607D02*
X0050728Y0049607D01*
X0050728Y0049706D02*
X0056929Y0049706D01*
X0056929Y0049805D02*
X0050728Y0049805D01*
X0050728Y0049903D02*
X0056929Y0049903D01*
X0056929Y0050002D02*
X0050728Y0050002D01*
X0050728Y0050100D02*
X0056929Y0050100D01*
X0056929Y0050199D02*
X0050728Y0050199D01*
X0050728Y0050297D02*
X0056903Y0050297D01*
X0056805Y0050396D02*
X0050728Y0050396D01*
X0050728Y0050494D02*
X0055551Y0050494D01*
X0055551Y0050593D02*
X0050754Y0050593D01*
X0050852Y0050691D02*
X0055551Y0050691D01*
X0055551Y0052732D02*
X0055551Y0053028D01*
X0056732Y0053028D01*
X0056929Y0053224D01*
X0056929Y0053815D01*
X0056732Y0054012D01*
X0055551Y0054012D01*
X0055551Y0054307D01*
X0050925Y0054307D01*
X0050728Y0054110D01*
X0050728Y0052929D01*
X0050925Y0052732D01*
X0055551Y0052732D01*
X0055551Y0052760D02*
X0050897Y0052760D01*
X0050799Y0052858D02*
X0055551Y0052858D01*
X0055551Y0052957D02*
X0050728Y0052957D01*
X0050728Y0053055D02*
X0056760Y0053055D01*
X0056858Y0053154D02*
X0050728Y0053154D01*
X0050728Y0053252D02*
X0056929Y0053252D01*
X0056929Y0053351D02*
X0050728Y0053351D01*
X0050728Y0053449D02*
X0056929Y0053449D01*
X0056929Y0053548D02*
X0050728Y0053548D01*
X0050728Y0053646D02*
X0056929Y0053646D01*
X0056929Y0053745D02*
X0050728Y0053745D01*
X0050728Y0053843D02*
X0056900Y0053843D01*
X0056802Y0053942D02*
X0050728Y0053942D01*
X0050728Y0054040D02*
X0055551Y0054040D01*
X0055551Y0054139D02*
X0050757Y0054139D01*
X0050855Y0054238D02*
X0055551Y0054238D01*
X0049740Y0054110D02*
X0049740Y0052929D01*
X0049543Y0052732D01*
X0044917Y0052732D01*
X0044917Y0053028D01*
X0043736Y0053028D01*
X0043539Y0053224D01*
X0043539Y0053815D01*
X0043736Y0054012D01*
X0044917Y0054012D01*
X0044917Y0054307D01*
X0049543Y0054307D01*
X0049740Y0054110D01*
X0049711Y0054139D02*
X0044917Y0054139D01*
X0044917Y0054238D02*
X0049612Y0054238D01*
X0049740Y0054040D02*
X0044917Y0054040D01*
X0044917Y0052957D02*
X0049740Y0052957D01*
X0049740Y0053055D02*
X0043708Y0053055D01*
X0043609Y0053154D02*
X0049740Y0053154D01*
X0049740Y0053252D02*
X0043539Y0053252D01*
X0043539Y0053351D02*
X0049740Y0053351D01*
X0049740Y0053449D02*
X0043539Y0053449D01*
X0043539Y0053548D02*
X0049740Y0053548D01*
X0049740Y0053646D02*
X0043539Y0053646D01*
X0043539Y0053745D02*
X0049740Y0053745D01*
X0049740Y0053843D02*
X0043567Y0053843D01*
X0043666Y0053942D02*
X0049740Y0053942D01*
X0049669Y0052858D02*
X0044917Y0052858D01*
X0044917Y0052760D02*
X0049570Y0052760D01*
X0049543Y0050764D02*
X0049740Y0050567D01*
X0049740Y0049386D01*
X0049543Y0049189D01*
X0044917Y0049189D01*
X0044917Y0049484D01*
X0043736Y0049484D01*
X0043539Y0049681D01*
X0043539Y0050272D01*
X0043736Y0050469D01*
X0044917Y0050469D01*
X0044917Y0050764D01*
X0049543Y0050764D01*
X0049616Y0050691D02*
X0044917Y0050691D01*
X0044917Y0050593D02*
X0049714Y0050593D01*
X0049740Y0050494D02*
X0044917Y0050494D01*
X0044917Y0049410D02*
X0049740Y0049410D01*
X0049740Y0049509D02*
X0043711Y0049509D01*
X0043613Y0049607D02*
X0049740Y0049607D01*
X0049740Y0049706D02*
X0043539Y0049706D01*
X0043539Y0049805D02*
X0049740Y0049805D01*
X0049740Y0049903D02*
X0043539Y0049903D01*
X0043539Y0050002D02*
X0049740Y0050002D01*
X0049740Y0050100D02*
X0043539Y0050100D01*
X0043539Y0050199D02*
X0049740Y0050199D01*
X0049740Y0050297D02*
X0043564Y0050297D01*
X0043663Y0050396D02*
X0049740Y0050396D01*
X0049666Y0049312D02*
X0044917Y0049312D01*
X0044917Y0049213D02*
X0049567Y0049213D01*
X0049543Y0047614D02*
X0049740Y0047417D01*
X0049740Y0046236D01*
X0049543Y0046039D01*
X0044917Y0046039D01*
X0044917Y0046335D01*
X0043736Y0046335D01*
X0043539Y0046531D01*
X0043539Y0047122D01*
X0043736Y0047319D01*
X0044917Y0047319D01*
X0044917Y0047614D01*
X0049543Y0047614D01*
X0049618Y0047539D02*
X0044917Y0047539D01*
X0044917Y0047440D02*
X0049717Y0047440D01*
X0049740Y0047342D02*
X0044917Y0047342D01*
X0044917Y0046258D02*
X0049740Y0046258D01*
X0049740Y0046357D02*
X0043714Y0046357D01*
X0043615Y0046455D02*
X0049740Y0046455D01*
X0049740Y0046554D02*
X0043539Y0046554D01*
X0043539Y0046652D02*
X0049740Y0046652D01*
X0049740Y0046751D02*
X0043539Y0046751D01*
X0043539Y0046849D02*
X0049740Y0046849D01*
X0049740Y0046948D02*
X0043539Y0046948D01*
X0043539Y0047046D02*
X0049740Y0047046D01*
X0049740Y0047145D02*
X0043562Y0047145D01*
X0043660Y0047243D02*
X0049740Y0047243D01*
X0049663Y0046160D02*
X0044917Y0046160D01*
X0044917Y0046061D02*
X0049565Y0046061D01*
X0049543Y0044071D02*
X0049740Y0043874D01*
X0049740Y0042693D01*
X0049543Y0042496D01*
X0044917Y0042496D01*
X0044917Y0042791D01*
X0043736Y0042791D01*
X0043539Y0042988D01*
X0043539Y0043579D01*
X0043736Y0043776D01*
X0044917Y0043776D01*
X0044917Y0044071D01*
X0049543Y0044071D01*
X0049621Y0043992D02*
X0044917Y0043992D01*
X0044917Y0043894D02*
X0049720Y0043894D01*
X0049740Y0043795D02*
X0044917Y0043795D01*
X0044917Y0042712D02*
X0049740Y0042712D01*
X0049740Y0042810D02*
X0043717Y0042810D01*
X0043618Y0042909D02*
X0049740Y0042909D01*
X0049740Y0043007D02*
X0043539Y0043007D01*
X0043539Y0043106D02*
X0049740Y0043106D01*
X0049740Y0043204D02*
X0043539Y0043204D01*
X0043539Y0043303D02*
X0049740Y0043303D01*
X0049740Y0043401D02*
X0043539Y0043401D01*
X0043539Y0043500D02*
X0049740Y0043500D01*
X0049740Y0043598D02*
X0043559Y0043598D01*
X0043657Y0043697D02*
X0049740Y0043697D01*
X0049660Y0042613D02*
X0044917Y0042613D01*
X0044917Y0042515D02*
X0049562Y0042515D01*
X0049545Y0041709D02*
X0048954Y0041709D01*
X0048757Y0041512D01*
X0048757Y0038362D01*
X0048954Y0038165D01*
X0049545Y0038165D01*
X0049742Y0038362D01*
X0049742Y0041512D01*
X0049545Y0041709D01*
X0049625Y0041628D02*
X0048874Y0041628D01*
X0048775Y0041530D02*
X0049724Y0041530D01*
X0049742Y0041431D02*
X0048757Y0041431D01*
X0048757Y0041333D02*
X0049742Y0041333D01*
X0049742Y0041234D02*
X0048757Y0041234D01*
X0048757Y0041136D02*
X0049742Y0041136D01*
X0049742Y0041037D02*
X0048757Y0041037D01*
X0048757Y0040938D02*
X0049742Y0040938D01*
X0049742Y0040840D02*
X0048757Y0040840D01*
X0048757Y0040741D02*
X0049742Y0040741D01*
X0049742Y0040643D02*
X0048757Y0040643D01*
X0048757Y0040544D02*
X0049742Y0040544D01*
X0049742Y0040446D02*
X0048757Y0040446D01*
X0048757Y0040347D02*
X0049742Y0040347D01*
X0049742Y0040249D02*
X0048757Y0040249D01*
X0048757Y0040150D02*
X0049742Y0040150D01*
X0049742Y0040052D02*
X0048757Y0040052D01*
X0048757Y0039953D02*
X0049742Y0039953D01*
X0049742Y0039855D02*
X0048757Y0039855D01*
X0048757Y0039756D02*
X0049742Y0039756D01*
X0049742Y0039658D02*
X0048757Y0039658D01*
X0048757Y0039559D02*
X0049742Y0039559D01*
X0049742Y0039461D02*
X0048757Y0039461D01*
X0048757Y0039362D02*
X0049742Y0039362D01*
X0049742Y0039264D02*
X0048757Y0039264D01*
X0048757Y0039165D02*
X0049742Y0039165D01*
X0049742Y0039067D02*
X0048757Y0039067D01*
X0048757Y0038968D02*
X0049742Y0038968D01*
X0049742Y0038870D02*
X0048757Y0038870D01*
X0048757Y0038771D02*
X0049742Y0038771D01*
X0049742Y0038673D02*
X0048757Y0038673D01*
X0048757Y0038574D02*
X0049742Y0038574D01*
X0049742Y0038476D02*
X0048757Y0038476D01*
X0048757Y0038377D02*
X0049742Y0038377D01*
X0049658Y0038279D02*
X0048841Y0038279D01*
X0048940Y0038180D02*
X0049560Y0038180D01*
X0050726Y0038362D02*
X0050726Y0041512D01*
X0050923Y0041709D01*
X0051513Y0041709D01*
X0051710Y0041512D01*
X0051710Y0038362D01*
X0051513Y0038165D01*
X0050923Y0038165D01*
X0050726Y0038362D01*
X0050726Y0038377D02*
X0051710Y0038377D01*
X0051710Y0038476D02*
X0050726Y0038476D01*
X0050726Y0038574D02*
X0051710Y0038574D01*
X0051710Y0038673D02*
X0050726Y0038673D01*
X0050726Y0038771D02*
X0051710Y0038771D01*
X0051710Y0038870D02*
X0050726Y0038870D01*
X0050726Y0038968D02*
X0051710Y0038968D01*
X0051710Y0039067D02*
X0050726Y0039067D01*
X0050726Y0039165D02*
X0051710Y0039165D01*
X0051710Y0039264D02*
X0050726Y0039264D01*
X0050726Y0039362D02*
X0051710Y0039362D01*
X0051710Y0039461D02*
X0050726Y0039461D01*
X0050726Y0039559D02*
X0051710Y0039559D01*
X0051710Y0039658D02*
X0050726Y0039658D01*
X0050726Y0039756D02*
X0051710Y0039756D01*
X0051710Y0039855D02*
X0050726Y0039855D01*
X0050726Y0039953D02*
X0051710Y0039953D01*
X0051710Y0040052D02*
X0050726Y0040052D01*
X0050726Y0040150D02*
X0051710Y0040150D01*
X0051710Y0040249D02*
X0050726Y0040249D01*
X0050726Y0040347D02*
X0051710Y0040347D01*
X0051710Y0040446D02*
X0050726Y0040446D01*
X0050726Y0040544D02*
X0051710Y0040544D01*
X0051710Y0040643D02*
X0050726Y0040643D01*
X0050726Y0040741D02*
X0051710Y0040741D01*
X0051710Y0040840D02*
X0050726Y0040840D01*
X0050726Y0040938D02*
X0051710Y0040938D01*
X0051710Y0041037D02*
X0050726Y0041037D01*
X0050726Y0041136D02*
X0051710Y0041136D01*
X0051710Y0041234D02*
X0050726Y0041234D01*
X0050726Y0041333D02*
X0051710Y0041333D01*
X0051710Y0041431D02*
X0050726Y0041431D01*
X0050744Y0041530D02*
X0051692Y0041530D01*
X0051594Y0041628D02*
X0050842Y0041628D01*
X0052694Y0041512D02*
X0052694Y0038362D01*
X0052891Y0038165D01*
X0053482Y0038165D01*
X0053679Y0038362D01*
X0053679Y0041512D01*
X0053482Y0041709D01*
X0052891Y0041709D01*
X0052694Y0041512D01*
X0052712Y0041530D02*
X0053661Y0041530D01*
X0053679Y0041431D02*
X0052694Y0041431D01*
X0052694Y0041333D02*
X0053679Y0041333D01*
X0053679Y0041234D02*
X0052694Y0041234D01*
X0052694Y0041136D02*
X0053679Y0041136D01*
X0053679Y0041037D02*
X0052694Y0041037D01*
X0052694Y0040938D02*
X0053679Y0040938D01*
X0053679Y0040840D02*
X0052694Y0040840D01*
X0052694Y0040741D02*
X0053679Y0040741D01*
X0053679Y0040643D02*
X0052694Y0040643D01*
X0052694Y0040544D02*
X0053679Y0040544D01*
X0053679Y0040446D02*
X0052694Y0040446D01*
X0052694Y0040347D02*
X0053679Y0040347D01*
X0053679Y0040249D02*
X0052694Y0040249D01*
X0052694Y0040150D02*
X0053679Y0040150D01*
X0053679Y0040052D02*
X0052694Y0040052D01*
X0052694Y0039953D02*
X0053679Y0039953D01*
X0053679Y0039855D02*
X0052694Y0039855D01*
X0052694Y0039756D02*
X0053679Y0039756D01*
X0053679Y0039658D02*
X0052694Y0039658D01*
X0052694Y0039559D02*
X0053679Y0039559D01*
X0053679Y0039461D02*
X0052694Y0039461D01*
X0052694Y0039362D02*
X0053679Y0039362D01*
X0053679Y0039264D02*
X0052694Y0039264D01*
X0052694Y0039165D02*
X0053679Y0039165D01*
X0053679Y0039067D02*
X0052694Y0039067D01*
X0052694Y0038968D02*
X0053679Y0038968D01*
X0053679Y0038870D02*
X0052694Y0038870D01*
X0052694Y0038771D02*
X0053679Y0038771D01*
X0053679Y0038673D02*
X0052694Y0038673D01*
X0052694Y0038574D02*
X0053679Y0038574D01*
X0053679Y0038476D02*
X0052694Y0038476D01*
X0052694Y0038377D02*
X0053679Y0038377D01*
X0053595Y0038279D02*
X0052778Y0038279D01*
X0052877Y0038180D02*
X0053497Y0038180D01*
X0051627Y0038279D02*
X0050810Y0038279D01*
X0050908Y0038180D02*
X0051528Y0038180D01*
X0052811Y0041628D02*
X0053562Y0041628D01*
X0047773Y0041512D02*
X0047773Y0038362D01*
X0047576Y0038165D01*
X0046986Y0038165D01*
X0046789Y0038362D01*
X0046789Y0041512D01*
X0046986Y0041709D01*
X0047576Y0041709D01*
X0047773Y0041512D01*
X0047755Y0041530D02*
X0046807Y0041530D01*
X0046789Y0041431D02*
X0047773Y0041431D01*
X0047773Y0041333D02*
X0046789Y0041333D01*
X0046789Y0041234D02*
X0047773Y0041234D01*
X0047773Y0041136D02*
X0046789Y0041136D01*
X0046789Y0041037D02*
X0047773Y0041037D01*
X0047773Y0040938D02*
X0046789Y0040938D01*
X0046789Y0040840D02*
X0047773Y0040840D01*
X0047773Y0040741D02*
X0046789Y0040741D01*
X0046789Y0040643D02*
X0047773Y0040643D01*
X0047773Y0040544D02*
X0046789Y0040544D01*
X0046789Y0040446D02*
X0047773Y0040446D01*
X0047773Y0040347D02*
X0046789Y0040347D01*
X0046789Y0040249D02*
X0047773Y0040249D01*
X0047773Y0040150D02*
X0046789Y0040150D01*
X0046789Y0040052D02*
X0047773Y0040052D01*
X0047773Y0039953D02*
X0046789Y0039953D01*
X0046789Y0039855D02*
X0047773Y0039855D01*
X0047773Y0039756D02*
X0046789Y0039756D01*
X0046789Y0039658D02*
X0047773Y0039658D01*
X0047773Y0039559D02*
X0046789Y0039559D01*
X0046789Y0039461D02*
X0047773Y0039461D01*
X0047773Y0039362D02*
X0046789Y0039362D01*
X0046789Y0039264D02*
X0047773Y0039264D01*
X0047773Y0039165D02*
X0046789Y0039165D01*
X0046789Y0039067D02*
X0047773Y0039067D01*
X0047773Y0038968D02*
X0046789Y0038968D01*
X0046789Y0038870D02*
X0047773Y0038870D01*
X0047773Y0038771D02*
X0046789Y0038771D01*
X0046789Y0038673D02*
X0047773Y0038673D01*
X0047773Y0038574D02*
X0046789Y0038574D01*
X0046789Y0038476D02*
X0047773Y0038476D01*
X0047773Y0038377D02*
X0046789Y0038377D01*
X0046873Y0038279D02*
X0047690Y0038279D01*
X0047591Y0038180D02*
X0046971Y0038180D01*
X0046905Y0041628D02*
X0047657Y0041628D01*
D15*
X0052104Y0097358D03*
X0052104Y0101807D03*
X0058600Y0101807D03*
X0058600Y0097358D03*
D16*
X0068738Y0122024D03*
X0071494Y0122024D03*
D17*
X0070116Y0119661D03*
X0070116Y0124386D03*
D18*
X0077202Y0123402D03*
X0087045Y0123402D03*
D19*
X0077793Y0094465D03*
X0073856Y0094465D03*
X0085667Y0090921D03*
X0089604Y0090921D03*
X0057320Y0092102D03*
X0053383Y0092102D03*
X0053383Y0106866D03*
X0057320Y0106866D03*
D20*
X0084486Y0103520D03*
X0084486Y0096433D03*
X0064801Y0063756D03*
X0064801Y0056669D03*
D21*
X0091966Y0098795D03*
X0091966Y0102732D03*
X0058108Y0116118D03*
X0058108Y0120055D03*
X0052990Y0120055D03*
X0052990Y0116118D03*
D22*
X0052596Y0084819D03*
X0052596Y0079701D03*
X0047872Y0079701D03*
X0047872Y0084819D03*
D23*
X0065588Y0084228D03*
X0072675Y0084228D03*
D24*
X0082714Y0034583D03*
X0087832Y0034583D03*
X0046887Y0034583D03*
X0041769Y0034583D03*
D25*
X0044722Y0056177D03*
X0044722Y0058146D03*
X0044722Y0060114D03*
X0055746Y0060114D03*
X0055746Y0058146D03*
X0055746Y0056177D03*
X0073856Y0056177D03*
X0073856Y0058146D03*
X0073856Y0060114D03*
X0084880Y0060114D03*
X0084880Y0058146D03*
X0084880Y0056177D03*
D26*
X0082320Y0062181D03*
X0080352Y0062181D03*
X0078383Y0062181D03*
X0076415Y0062181D03*
X0053187Y0062181D03*
X0051218Y0062181D03*
X0049250Y0062181D03*
X0047281Y0062181D03*
D27*
G36*
X0069994Y0070334D02*
X0067211Y0067551D01*
X0064428Y0070334D01*
X0067211Y0073117D01*
X0069994Y0070334D01*
G37*
G36*
X0075736Y0072302D02*
X0072953Y0069519D01*
X0070170Y0072302D01*
X0072953Y0075085D01*
X0075736Y0072302D01*
G37*
D28*
X0047557Y0068362D03*
M02*
