G75*
%MOIN*%
%OFA0B0*%
%FSLAX25Y25*%
%IPPOS*%
%LPD*%
%AMOC8*
5,1,8,0,0,1.08239X$1,22.5*
%
%ADD10C,0.00000*%
%ADD11R,0.03000X0.01000*%
%ADD12R,0.01000X0.03000*%
%ADD13R,0.10400X0.10400*%
%ADD14R,0.02362X0.02953*%
%ADD15R,0.01969X0.01181*%
%ADD16R,0.02165X0.02165*%
%ADD17R,0.03937X0.06693*%
%ADD18R,0.02362X0.02756*%
%ADD19R,0.04724X0.03150*%
%ADD20R,0.02756X0.02362*%
%ADD21R,0.02756X0.03150*%
%ADD22R,0.02480X0.03268*%
%ADD23C,0.07400*%
%ADD24R,0.03150X0.04724*%
%ADD25R,0.10630X0.10630*%
%ADD26R,0.02756X0.03543*%
%ADD27R,0.02362X0.00984*%
%ADD28R,0.13780X0.01969*%
%ADD29R,0.06594X0.01969*%
%ADD30R,0.13780X0.06299*%
%ADD31R,0.00984X0.02362*%
%ADD32R,0.03937X0.03937*%
%ADD33R,0.03937X0.03937*%
%ADD34C,0.00600*%
%ADD35OC8,0.02205*%
%ADD36C,0.01000*%
%ADD37R,0.02205X0.02205*%
%ADD38C,0.02400*%
%ADD39C,0.01600*%
%ADD40OC8,0.02756*%
%ADD41C,0.00984*%
D10*
X0029368Y0002452D02*
X0029368Y0108751D01*
X0100234Y0108751D01*
X0100234Y0002452D01*
X0029368Y0002452D01*
X0031375Y0005050D02*
X0031377Y0005098D01*
X0031383Y0005146D01*
X0031393Y0005193D01*
X0031406Y0005239D01*
X0031424Y0005284D01*
X0031444Y0005328D01*
X0031469Y0005370D01*
X0031497Y0005409D01*
X0031527Y0005446D01*
X0031561Y0005480D01*
X0031598Y0005512D01*
X0031636Y0005541D01*
X0031677Y0005566D01*
X0031720Y0005588D01*
X0031765Y0005606D01*
X0031811Y0005620D01*
X0031858Y0005631D01*
X0031906Y0005638D01*
X0031954Y0005641D01*
X0032002Y0005640D01*
X0032050Y0005635D01*
X0032098Y0005626D01*
X0032144Y0005614D01*
X0032189Y0005597D01*
X0032233Y0005577D01*
X0032275Y0005554D01*
X0032315Y0005527D01*
X0032353Y0005497D01*
X0032388Y0005464D01*
X0032420Y0005428D01*
X0032450Y0005390D01*
X0032476Y0005349D01*
X0032498Y0005306D01*
X0032518Y0005262D01*
X0032533Y0005217D01*
X0032545Y0005170D01*
X0032553Y0005122D01*
X0032557Y0005074D01*
X0032557Y0005026D01*
X0032553Y0004978D01*
X0032545Y0004930D01*
X0032533Y0004883D01*
X0032518Y0004838D01*
X0032498Y0004794D01*
X0032476Y0004751D01*
X0032450Y0004710D01*
X0032420Y0004672D01*
X0032388Y0004636D01*
X0032353Y0004603D01*
X0032315Y0004573D01*
X0032275Y0004546D01*
X0032233Y0004523D01*
X0032189Y0004503D01*
X0032144Y0004486D01*
X0032098Y0004474D01*
X0032050Y0004465D01*
X0032002Y0004460D01*
X0031954Y0004459D01*
X0031906Y0004462D01*
X0031858Y0004469D01*
X0031811Y0004480D01*
X0031765Y0004494D01*
X0031720Y0004512D01*
X0031677Y0004534D01*
X0031636Y0004559D01*
X0031598Y0004588D01*
X0031561Y0004620D01*
X0031527Y0004654D01*
X0031497Y0004691D01*
X0031469Y0004730D01*
X0031444Y0004772D01*
X0031424Y0004816D01*
X0031406Y0004861D01*
X0031393Y0004907D01*
X0031383Y0004954D01*
X0031377Y0005002D01*
X0031375Y0005050D01*
X0031375Y0012452D02*
X0031377Y0012500D01*
X0031383Y0012548D01*
X0031393Y0012595D01*
X0031406Y0012641D01*
X0031424Y0012686D01*
X0031444Y0012730D01*
X0031469Y0012772D01*
X0031497Y0012811D01*
X0031527Y0012848D01*
X0031561Y0012882D01*
X0031598Y0012914D01*
X0031636Y0012943D01*
X0031677Y0012968D01*
X0031720Y0012990D01*
X0031765Y0013008D01*
X0031811Y0013022D01*
X0031858Y0013033D01*
X0031906Y0013040D01*
X0031954Y0013043D01*
X0032002Y0013042D01*
X0032050Y0013037D01*
X0032098Y0013028D01*
X0032144Y0013016D01*
X0032189Y0012999D01*
X0032233Y0012979D01*
X0032275Y0012956D01*
X0032315Y0012929D01*
X0032353Y0012899D01*
X0032388Y0012866D01*
X0032420Y0012830D01*
X0032450Y0012792D01*
X0032476Y0012751D01*
X0032498Y0012708D01*
X0032518Y0012664D01*
X0032533Y0012619D01*
X0032545Y0012572D01*
X0032553Y0012524D01*
X0032557Y0012476D01*
X0032557Y0012428D01*
X0032553Y0012380D01*
X0032545Y0012332D01*
X0032533Y0012285D01*
X0032518Y0012240D01*
X0032498Y0012196D01*
X0032476Y0012153D01*
X0032450Y0012112D01*
X0032420Y0012074D01*
X0032388Y0012038D01*
X0032353Y0012005D01*
X0032315Y0011975D01*
X0032275Y0011948D01*
X0032233Y0011925D01*
X0032189Y0011905D01*
X0032144Y0011888D01*
X0032098Y0011876D01*
X0032050Y0011867D01*
X0032002Y0011862D01*
X0031954Y0011861D01*
X0031906Y0011864D01*
X0031858Y0011871D01*
X0031811Y0011882D01*
X0031765Y0011896D01*
X0031720Y0011914D01*
X0031677Y0011936D01*
X0031636Y0011961D01*
X0031598Y0011990D01*
X0031561Y0012022D01*
X0031527Y0012056D01*
X0031497Y0012093D01*
X0031469Y0012132D01*
X0031444Y0012174D01*
X0031424Y0012218D01*
X0031406Y0012263D01*
X0031393Y0012309D01*
X0031383Y0012356D01*
X0031377Y0012404D01*
X0031375Y0012452D01*
X0038777Y0012452D02*
X0038779Y0012500D01*
X0038785Y0012548D01*
X0038795Y0012595D01*
X0038808Y0012641D01*
X0038826Y0012686D01*
X0038846Y0012730D01*
X0038871Y0012772D01*
X0038899Y0012811D01*
X0038929Y0012848D01*
X0038963Y0012882D01*
X0039000Y0012914D01*
X0039038Y0012943D01*
X0039079Y0012968D01*
X0039122Y0012990D01*
X0039167Y0013008D01*
X0039213Y0013022D01*
X0039260Y0013033D01*
X0039308Y0013040D01*
X0039356Y0013043D01*
X0039404Y0013042D01*
X0039452Y0013037D01*
X0039500Y0013028D01*
X0039546Y0013016D01*
X0039591Y0012999D01*
X0039635Y0012979D01*
X0039677Y0012956D01*
X0039717Y0012929D01*
X0039755Y0012899D01*
X0039790Y0012866D01*
X0039822Y0012830D01*
X0039852Y0012792D01*
X0039878Y0012751D01*
X0039900Y0012708D01*
X0039920Y0012664D01*
X0039935Y0012619D01*
X0039947Y0012572D01*
X0039955Y0012524D01*
X0039959Y0012476D01*
X0039959Y0012428D01*
X0039955Y0012380D01*
X0039947Y0012332D01*
X0039935Y0012285D01*
X0039920Y0012240D01*
X0039900Y0012196D01*
X0039878Y0012153D01*
X0039852Y0012112D01*
X0039822Y0012074D01*
X0039790Y0012038D01*
X0039755Y0012005D01*
X0039717Y0011975D01*
X0039677Y0011948D01*
X0039635Y0011925D01*
X0039591Y0011905D01*
X0039546Y0011888D01*
X0039500Y0011876D01*
X0039452Y0011867D01*
X0039404Y0011862D01*
X0039356Y0011861D01*
X0039308Y0011864D01*
X0039260Y0011871D01*
X0039213Y0011882D01*
X0039167Y0011896D01*
X0039122Y0011914D01*
X0039079Y0011936D01*
X0039038Y0011961D01*
X0039000Y0011990D01*
X0038963Y0012022D01*
X0038929Y0012056D01*
X0038899Y0012093D01*
X0038871Y0012132D01*
X0038846Y0012174D01*
X0038826Y0012218D01*
X0038808Y0012263D01*
X0038795Y0012309D01*
X0038785Y0012356D01*
X0038779Y0012404D01*
X0038777Y0012452D01*
X0038777Y0005050D02*
X0038779Y0005098D01*
X0038785Y0005146D01*
X0038795Y0005193D01*
X0038808Y0005239D01*
X0038826Y0005284D01*
X0038846Y0005328D01*
X0038871Y0005370D01*
X0038899Y0005409D01*
X0038929Y0005446D01*
X0038963Y0005480D01*
X0039000Y0005512D01*
X0039038Y0005541D01*
X0039079Y0005566D01*
X0039122Y0005588D01*
X0039167Y0005606D01*
X0039213Y0005620D01*
X0039260Y0005631D01*
X0039308Y0005638D01*
X0039356Y0005641D01*
X0039404Y0005640D01*
X0039452Y0005635D01*
X0039500Y0005626D01*
X0039546Y0005614D01*
X0039591Y0005597D01*
X0039635Y0005577D01*
X0039677Y0005554D01*
X0039717Y0005527D01*
X0039755Y0005497D01*
X0039790Y0005464D01*
X0039822Y0005428D01*
X0039852Y0005390D01*
X0039878Y0005349D01*
X0039900Y0005306D01*
X0039920Y0005262D01*
X0039935Y0005217D01*
X0039947Y0005170D01*
X0039955Y0005122D01*
X0039959Y0005074D01*
X0039959Y0005026D01*
X0039955Y0004978D01*
X0039947Y0004930D01*
X0039935Y0004883D01*
X0039920Y0004838D01*
X0039900Y0004794D01*
X0039878Y0004751D01*
X0039852Y0004710D01*
X0039822Y0004672D01*
X0039790Y0004636D01*
X0039755Y0004603D01*
X0039717Y0004573D01*
X0039677Y0004546D01*
X0039635Y0004523D01*
X0039591Y0004503D01*
X0039546Y0004486D01*
X0039500Y0004474D01*
X0039452Y0004465D01*
X0039404Y0004460D01*
X0039356Y0004459D01*
X0039308Y0004462D01*
X0039260Y0004469D01*
X0039213Y0004480D01*
X0039167Y0004494D01*
X0039122Y0004512D01*
X0039079Y0004534D01*
X0039038Y0004559D01*
X0039000Y0004588D01*
X0038963Y0004620D01*
X0038929Y0004654D01*
X0038899Y0004691D01*
X0038871Y0004730D01*
X0038846Y0004772D01*
X0038826Y0004816D01*
X0038808Y0004861D01*
X0038795Y0004907D01*
X0038785Y0004954D01*
X0038779Y0005002D01*
X0038777Y0005050D01*
X0048698Y0005050D02*
X0048700Y0005098D01*
X0048706Y0005146D01*
X0048716Y0005193D01*
X0048729Y0005239D01*
X0048747Y0005284D01*
X0048767Y0005328D01*
X0048792Y0005370D01*
X0048820Y0005409D01*
X0048850Y0005446D01*
X0048884Y0005480D01*
X0048921Y0005512D01*
X0048959Y0005541D01*
X0049000Y0005566D01*
X0049043Y0005588D01*
X0049088Y0005606D01*
X0049134Y0005620D01*
X0049181Y0005631D01*
X0049229Y0005638D01*
X0049277Y0005641D01*
X0049325Y0005640D01*
X0049373Y0005635D01*
X0049421Y0005626D01*
X0049467Y0005614D01*
X0049512Y0005597D01*
X0049556Y0005577D01*
X0049598Y0005554D01*
X0049638Y0005527D01*
X0049676Y0005497D01*
X0049711Y0005464D01*
X0049743Y0005428D01*
X0049773Y0005390D01*
X0049799Y0005349D01*
X0049821Y0005306D01*
X0049841Y0005262D01*
X0049856Y0005217D01*
X0049868Y0005170D01*
X0049876Y0005122D01*
X0049880Y0005074D01*
X0049880Y0005026D01*
X0049876Y0004978D01*
X0049868Y0004930D01*
X0049856Y0004883D01*
X0049841Y0004838D01*
X0049821Y0004794D01*
X0049799Y0004751D01*
X0049773Y0004710D01*
X0049743Y0004672D01*
X0049711Y0004636D01*
X0049676Y0004603D01*
X0049638Y0004573D01*
X0049598Y0004546D01*
X0049556Y0004523D01*
X0049512Y0004503D01*
X0049467Y0004486D01*
X0049421Y0004474D01*
X0049373Y0004465D01*
X0049325Y0004460D01*
X0049277Y0004459D01*
X0049229Y0004462D01*
X0049181Y0004469D01*
X0049134Y0004480D01*
X0049088Y0004494D01*
X0049043Y0004512D01*
X0049000Y0004534D01*
X0048959Y0004559D01*
X0048921Y0004588D01*
X0048884Y0004620D01*
X0048850Y0004654D01*
X0048820Y0004691D01*
X0048792Y0004730D01*
X0048767Y0004772D01*
X0048747Y0004816D01*
X0048729Y0004861D01*
X0048716Y0004907D01*
X0048706Y0004954D01*
X0048700Y0005002D01*
X0048698Y0005050D01*
X0048698Y0012452D02*
X0048700Y0012500D01*
X0048706Y0012548D01*
X0048716Y0012595D01*
X0048729Y0012641D01*
X0048747Y0012686D01*
X0048767Y0012730D01*
X0048792Y0012772D01*
X0048820Y0012811D01*
X0048850Y0012848D01*
X0048884Y0012882D01*
X0048921Y0012914D01*
X0048959Y0012943D01*
X0049000Y0012968D01*
X0049043Y0012990D01*
X0049088Y0013008D01*
X0049134Y0013022D01*
X0049181Y0013033D01*
X0049229Y0013040D01*
X0049277Y0013043D01*
X0049325Y0013042D01*
X0049373Y0013037D01*
X0049421Y0013028D01*
X0049467Y0013016D01*
X0049512Y0012999D01*
X0049556Y0012979D01*
X0049598Y0012956D01*
X0049638Y0012929D01*
X0049676Y0012899D01*
X0049711Y0012866D01*
X0049743Y0012830D01*
X0049773Y0012792D01*
X0049799Y0012751D01*
X0049821Y0012708D01*
X0049841Y0012664D01*
X0049856Y0012619D01*
X0049868Y0012572D01*
X0049876Y0012524D01*
X0049880Y0012476D01*
X0049880Y0012428D01*
X0049876Y0012380D01*
X0049868Y0012332D01*
X0049856Y0012285D01*
X0049841Y0012240D01*
X0049821Y0012196D01*
X0049799Y0012153D01*
X0049773Y0012112D01*
X0049743Y0012074D01*
X0049711Y0012038D01*
X0049676Y0012005D01*
X0049638Y0011975D01*
X0049598Y0011948D01*
X0049556Y0011925D01*
X0049512Y0011905D01*
X0049467Y0011888D01*
X0049421Y0011876D01*
X0049373Y0011867D01*
X0049325Y0011862D01*
X0049277Y0011861D01*
X0049229Y0011864D01*
X0049181Y0011871D01*
X0049134Y0011882D01*
X0049088Y0011896D01*
X0049043Y0011914D01*
X0049000Y0011936D01*
X0048959Y0011961D01*
X0048921Y0011990D01*
X0048884Y0012022D01*
X0048850Y0012056D01*
X0048820Y0012093D01*
X0048792Y0012132D01*
X0048767Y0012174D01*
X0048747Y0012218D01*
X0048729Y0012263D01*
X0048716Y0012309D01*
X0048706Y0012356D01*
X0048700Y0012404D01*
X0048698Y0012452D01*
X0056100Y0012452D02*
X0056102Y0012500D01*
X0056108Y0012548D01*
X0056118Y0012595D01*
X0056131Y0012641D01*
X0056149Y0012686D01*
X0056169Y0012730D01*
X0056194Y0012772D01*
X0056222Y0012811D01*
X0056252Y0012848D01*
X0056286Y0012882D01*
X0056323Y0012914D01*
X0056361Y0012943D01*
X0056402Y0012968D01*
X0056445Y0012990D01*
X0056490Y0013008D01*
X0056536Y0013022D01*
X0056583Y0013033D01*
X0056631Y0013040D01*
X0056679Y0013043D01*
X0056727Y0013042D01*
X0056775Y0013037D01*
X0056823Y0013028D01*
X0056869Y0013016D01*
X0056914Y0012999D01*
X0056958Y0012979D01*
X0057000Y0012956D01*
X0057040Y0012929D01*
X0057078Y0012899D01*
X0057113Y0012866D01*
X0057145Y0012830D01*
X0057175Y0012792D01*
X0057201Y0012751D01*
X0057223Y0012708D01*
X0057243Y0012664D01*
X0057258Y0012619D01*
X0057270Y0012572D01*
X0057278Y0012524D01*
X0057282Y0012476D01*
X0057282Y0012428D01*
X0057278Y0012380D01*
X0057270Y0012332D01*
X0057258Y0012285D01*
X0057243Y0012240D01*
X0057223Y0012196D01*
X0057201Y0012153D01*
X0057175Y0012112D01*
X0057145Y0012074D01*
X0057113Y0012038D01*
X0057078Y0012005D01*
X0057040Y0011975D01*
X0057000Y0011948D01*
X0056958Y0011925D01*
X0056914Y0011905D01*
X0056869Y0011888D01*
X0056823Y0011876D01*
X0056775Y0011867D01*
X0056727Y0011862D01*
X0056679Y0011861D01*
X0056631Y0011864D01*
X0056583Y0011871D01*
X0056536Y0011882D01*
X0056490Y0011896D01*
X0056445Y0011914D01*
X0056402Y0011936D01*
X0056361Y0011961D01*
X0056323Y0011990D01*
X0056286Y0012022D01*
X0056252Y0012056D01*
X0056222Y0012093D01*
X0056194Y0012132D01*
X0056169Y0012174D01*
X0056149Y0012218D01*
X0056131Y0012263D01*
X0056118Y0012309D01*
X0056108Y0012356D01*
X0056102Y0012404D01*
X0056100Y0012452D01*
X0056100Y0005050D02*
X0056102Y0005098D01*
X0056108Y0005146D01*
X0056118Y0005193D01*
X0056131Y0005239D01*
X0056149Y0005284D01*
X0056169Y0005328D01*
X0056194Y0005370D01*
X0056222Y0005409D01*
X0056252Y0005446D01*
X0056286Y0005480D01*
X0056323Y0005512D01*
X0056361Y0005541D01*
X0056402Y0005566D01*
X0056445Y0005588D01*
X0056490Y0005606D01*
X0056536Y0005620D01*
X0056583Y0005631D01*
X0056631Y0005638D01*
X0056679Y0005641D01*
X0056727Y0005640D01*
X0056775Y0005635D01*
X0056823Y0005626D01*
X0056869Y0005614D01*
X0056914Y0005597D01*
X0056958Y0005577D01*
X0057000Y0005554D01*
X0057040Y0005527D01*
X0057078Y0005497D01*
X0057113Y0005464D01*
X0057145Y0005428D01*
X0057175Y0005390D01*
X0057201Y0005349D01*
X0057223Y0005306D01*
X0057243Y0005262D01*
X0057258Y0005217D01*
X0057270Y0005170D01*
X0057278Y0005122D01*
X0057282Y0005074D01*
X0057282Y0005026D01*
X0057278Y0004978D01*
X0057270Y0004930D01*
X0057258Y0004883D01*
X0057243Y0004838D01*
X0057223Y0004794D01*
X0057201Y0004751D01*
X0057175Y0004710D01*
X0057145Y0004672D01*
X0057113Y0004636D01*
X0057078Y0004603D01*
X0057040Y0004573D01*
X0057000Y0004546D01*
X0056958Y0004523D01*
X0056914Y0004503D01*
X0056869Y0004486D01*
X0056823Y0004474D01*
X0056775Y0004465D01*
X0056727Y0004460D01*
X0056679Y0004459D01*
X0056631Y0004462D01*
X0056583Y0004469D01*
X0056536Y0004480D01*
X0056490Y0004494D01*
X0056445Y0004512D01*
X0056402Y0004534D01*
X0056361Y0004559D01*
X0056323Y0004588D01*
X0056286Y0004620D01*
X0056252Y0004654D01*
X0056222Y0004691D01*
X0056194Y0004730D01*
X0056169Y0004772D01*
X0056149Y0004816D01*
X0056131Y0004861D01*
X0056118Y0004907D01*
X0056108Y0004954D01*
X0056102Y0005002D01*
X0056100Y0005050D01*
X0072320Y0005050D02*
X0072322Y0005098D01*
X0072328Y0005146D01*
X0072338Y0005193D01*
X0072351Y0005239D01*
X0072369Y0005284D01*
X0072389Y0005328D01*
X0072414Y0005370D01*
X0072442Y0005409D01*
X0072472Y0005446D01*
X0072506Y0005480D01*
X0072543Y0005512D01*
X0072581Y0005541D01*
X0072622Y0005566D01*
X0072665Y0005588D01*
X0072710Y0005606D01*
X0072756Y0005620D01*
X0072803Y0005631D01*
X0072851Y0005638D01*
X0072899Y0005641D01*
X0072947Y0005640D01*
X0072995Y0005635D01*
X0073043Y0005626D01*
X0073089Y0005614D01*
X0073134Y0005597D01*
X0073178Y0005577D01*
X0073220Y0005554D01*
X0073260Y0005527D01*
X0073298Y0005497D01*
X0073333Y0005464D01*
X0073365Y0005428D01*
X0073395Y0005390D01*
X0073421Y0005349D01*
X0073443Y0005306D01*
X0073463Y0005262D01*
X0073478Y0005217D01*
X0073490Y0005170D01*
X0073498Y0005122D01*
X0073502Y0005074D01*
X0073502Y0005026D01*
X0073498Y0004978D01*
X0073490Y0004930D01*
X0073478Y0004883D01*
X0073463Y0004838D01*
X0073443Y0004794D01*
X0073421Y0004751D01*
X0073395Y0004710D01*
X0073365Y0004672D01*
X0073333Y0004636D01*
X0073298Y0004603D01*
X0073260Y0004573D01*
X0073220Y0004546D01*
X0073178Y0004523D01*
X0073134Y0004503D01*
X0073089Y0004486D01*
X0073043Y0004474D01*
X0072995Y0004465D01*
X0072947Y0004460D01*
X0072899Y0004459D01*
X0072851Y0004462D01*
X0072803Y0004469D01*
X0072756Y0004480D01*
X0072710Y0004494D01*
X0072665Y0004512D01*
X0072622Y0004534D01*
X0072581Y0004559D01*
X0072543Y0004588D01*
X0072506Y0004620D01*
X0072472Y0004654D01*
X0072442Y0004691D01*
X0072414Y0004730D01*
X0072389Y0004772D01*
X0072369Y0004816D01*
X0072351Y0004861D01*
X0072338Y0004907D01*
X0072328Y0004954D01*
X0072322Y0005002D01*
X0072320Y0005050D01*
X0072320Y0012452D02*
X0072322Y0012500D01*
X0072328Y0012548D01*
X0072338Y0012595D01*
X0072351Y0012641D01*
X0072369Y0012686D01*
X0072389Y0012730D01*
X0072414Y0012772D01*
X0072442Y0012811D01*
X0072472Y0012848D01*
X0072506Y0012882D01*
X0072543Y0012914D01*
X0072581Y0012943D01*
X0072622Y0012968D01*
X0072665Y0012990D01*
X0072710Y0013008D01*
X0072756Y0013022D01*
X0072803Y0013033D01*
X0072851Y0013040D01*
X0072899Y0013043D01*
X0072947Y0013042D01*
X0072995Y0013037D01*
X0073043Y0013028D01*
X0073089Y0013016D01*
X0073134Y0012999D01*
X0073178Y0012979D01*
X0073220Y0012956D01*
X0073260Y0012929D01*
X0073298Y0012899D01*
X0073333Y0012866D01*
X0073365Y0012830D01*
X0073395Y0012792D01*
X0073421Y0012751D01*
X0073443Y0012708D01*
X0073463Y0012664D01*
X0073478Y0012619D01*
X0073490Y0012572D01*
X0073498Y0012524D01*
X0073502Y0012476D01*
X0073502Y0012428D01*
X0073498Y0012380D01*
X0073490Y0012332D01*
X0073478Y0012285D01*
X0073463Y0012240D01*
X0073443Y0012196D01*
X0073421Y0012153D01*
X0073395Y0012112D01*
X0073365Y0012074D01*
X0073333Y0012038D01*
X0073298Y0012005D01*
X0073260Y0011975D01*
X0073220Y0011948D01*
X0073178Y0011925D01*
X0073134Y0011905D01*
X0073089Y0011888D01*
X0073043Y0011876D01*
X0072995Y0011867D01*
X0072947Y0011862D01*
X0072899Y0011861D01*
X0072851Y0011864D01*
X0072803Y0011871D01*
X0072756Y0011882D01*
X0072710Y0011896D01*
X0072665Y0011914D01*
X0072622Y0011936D01*
X0072581Y0011961D01*
X0072543Y0011990D01*
X0072506Y0012022D01*
X0072472Y0012056D01*
X0072442Y0012093D01*
X0072414Y0012132D01*
X0072389Y0012174D01*
X0072369Y0012218D01*
X0072351Y0012263D01*
X0072338Y0012309D01*
X0072328Y0012356D01*
X0072322Y0012404D01*
X0072320Y0012452D01*
X0079722Y0012452D02*
X0079724Y0012500D01*
X0079730Y0012548D01*
X0079740Y0012595D01*
X0079753Y0012641D01*
X0079771Y0012686D01*
X0079791Y0012730D01*
X0079816Y0012772D01*
X0079844Y0012811D01*
X0079874Y0012848D01*
X0079908Y0012882D01*
X0079945Y0012914D01*
X0079983Y0012943D01*
X0080024Y0012968D01*
X0080067Y0012990D01*
X0080112Y0013008D01*
X0080158Y0013022D01*
X0080205Y0013033D01*
X0080253Y0013040D01*
X0080301Y0013043D01*
X0080349Y0013042D01*
X0080397Y0013037D01*
X0080445Y0013028D01*
X0080491Y0013016D01*
X0080536Y0012999D01*
X0080580Y0012979D01*
X0080622Y0012956D01*
X0080662Y0012929D01*
X0080700Y0012899D01*
X0080735Y0012866D01*
X0080767Y0012830D01*
X0080797Y0012792D01*
X0080823Y0012751D01*
X0080845Y0012708D01*
X0080865Y0012664D01*
X0080880Y0012619D01*
X0080892Y0012572D01*
X0080900Y0012524D01*
X0080904Y0012476D01*
X0080904Y0012428D01*
X0080900Y0012380D01*
X0080892Y0012332D01*
X0080880Y0012285D01*
X0080865Y0012240D01*
X0080845Y0012196D01*
X0080823Y0012153D01*
X0080797Y0012112D01*
X0080767Y0012074D01*
X0080735Y0012038D01*
X0080700Y0012005D01*
X0080662Y0011975D01*
X0080622Y0011948D01*
X0080580Y0011925D01*
X0080536Y0011905D01*
X0080491Y0011888D01*
X0080445Y0011876D01*
X0080397Y0011867D01*
X0080349Y0011862D01*
X0080301Y0011861D01*
X0080253Y0011864D01*
X0080205Y0011871D01*
X0080158Y0011882D01*
X0080112Y0011896D01*
X0080067Y0011914D01*
X0080024Y0011936D01*
X0079983Y0011961D01*
X0079945Y0011990D01*
X0079908Y0012022D01*
X0079874Y0012056D01*
X0079844Y0012093D01*
X0079816Y0012132D01*
X0079791Y0012174D01*
X0079771Y0012218D01*
X0079753Y0012263D01*
X0079740Y0012309D01*
X0079730Y0012356D01*
X0079724Y0012404D01*
X0079722Y0012452D01*
X0079722Y0005050D02*
X0079724Y0005098D01*
X0079730Y0005146D01*
X0079740Y0005193D01*
X0079753Y0005239D01*
X0079771Y0005284D01*
X0079791Y0005328D01*
X0079816Y0005370D01*
X0079844Y0005409D01*
X0079874Y0005446D01*
X0079908Y0005480D01*
X0079945Y0005512D01*
X0079983Y0005541D01*
X0080024Y0005566D01*
X0080067Y0005588D01*
X0080112Y0005606D01*
X0080158Y0005620D01*
X0080205Y0005631D01*
X0080253Y0005638D01*
X0080301Y0005641D01*
X0080349Y0005640D01*
X0080397Y0005635D01*
X0080445Y0005626D01*
X0080491Y0005614D01*
X0080536Y0005597D01*
X0080580Y0005577D01*
X0080622Y0005554D01*
X0080662Y0005527D01*
X0080700Y0005497D01*
X0080735Y0005464D01*
X0080767Y0005428D01*
X0080797Y0005390D01*
X0080823Y0005349D01*
X0080845Y0005306D01*
X0080865Y0005262D01*
X0080880Y0005217D01*
X0080892Y0005170D01*
X0080900Y0005122D01*
X0080904Y0005074D01*
X0080904Y0005026D01*
X0080900Y0004978D01*
X0080892Y0004930D01*
X0080880Y0004883D01*
X0080865Y0004838D01*
X0080845Y0004794D01*
X0080823Y0004751D01*
X0080797Y0004710D01*
X0080767Y0004672D01*
X0080735Y0004636D01*
X0080700Y0004603D01*
X0080662Y0004573D01*
X0080622Y0004546D01*
X0080580Y0004523D01*
X0080536Y0004503D01*
X0080491Y0004486D01*
X0080445Y0004474D01*
X0080397Y0004465D01*
X0080349Y0004460D01*
X0080301Y0004459D01*
X0080253Y0004462D01*
X0080205Y0004469D01*
X0080158Y0004480D01*
X0080112Y0004494D01*
X0080067Y0004512D01*
X0080024Y0004534D01*
X0079983Y0004559D01*
X0079945Y0004588D01*
X0079908Y0004620D01*
X0079874Y0004654D01*
X0079844Y0004691D01*
X0079816Y0004730D01*
X0079791Y0004772D01*
X0079771Y0004816D01*
X0079753Y0004861D01*
X0079740Y0004907D01*
X0079730Y0004954D01*
X0079724Y0005002D01*
X0079722Y0005050D01*
X0089643Y0005050D02*
X0089645Y0005098D01*
X0089651Y0005146D01*
X0089661Y0005193D01*
X0089674Y0005239D01*
X0089692Y0005284D01*
X0089712Y0005328D01*
X0089737Y0005370D01*
X0089765Y0005409D01*
X0089795Y0005446D01*
X0089829Y0005480D01*
X0089866Y0005512D01*
X0089904Y0005541D01*
X0089945Y0005566D01*
X0089988Y0005588D01*
X0090033Y0005606D01*
X0090079Y0005620D01*
X0090126Y0005631D01*
X0090174Y0005638D01*
X0090222Y0005641D01*
X0090270Y0005640D01*
X0090318Y0005635D01*
X0090366Y0005626D01*
X0090412Y0005614D01*
X0090457Y0005597D01*
X0090501Y0005577D01*
X0090543Y0005554D01*
X0090583Y0005527D01*
X0090621Y0005497D01*
X0090656Y0005464D01*
X0090688Y0005428D01*
X0090718Y0005390D01*
X0090744Y0005349D01*
X0090766Y0005306D01*
X0090786Y0005262D01*
X0090801Y0005217D01*
X0090813Y0005170D01*
X0090821Y0005122D01*
X0090825Y0005074D01*
X0090825Y0005026D01*
X0090821Y0004978D01*
X0090813Y0004930D01*
X0090801Y0004883D01*
X0090786Y0004838D01*
X0090766Y0004794D01*
X0090744Y0004751D01*
X0090718Y0004710D01*
X0090688Y0004672D01*
X0090656Y0004636D01*
X0090621Y0004603D01*
X0090583Y0004573D01*
X0090543Y0004546D01*
X0090501Y0004523D01*
X0090457Y0004503D01*
X0090412Y0004486D01*
X0090366Y0004474D01*
X0090318Y0004465D01*
X0090270Y0004460D01*
X0090222Y0004459D01*
X0090174Y0004462D01*
X0090126Y0004469D01*
X0090079Y0004480D01*
X0090033Y0004494D01*
X0089988Y0004512D01*
X0089945Y0004534D01*
X0089904Y0004559D01*
X0089866Y0004588D01*
X0089829Y0004620D01*
X0089795Y0004654D01*
X0089765Y0004691D01*
X0089737Y0004730D01*
X0089712Y0004772D01*
X0089692Y0004816D01*
X0089674Y0004861D01*
X0089661Y0004907D01*
X0089651Y0004954D01*
X0089645Y0005002D01*
X0089643Y0005050D01*
X0089643Y0012452D02*
X0089645Y0012500D01*
X0089651Y0012548D01*
X0089661Y0012595D01*
X0089674Y0012641D01*
X0089692Y0012686D01*
X0089712Y0012730D01*
X0089737Y0012772D01*
X0089765Y0012811D01*
X0089795Y0012848D01*
X0089829Y0012882D01*
X0089866Y0012914D01*
X0089904Y0012943D01*
X0089945Y0012968D01*
X0089988Y0012990D01*
X0090033Y0013008D01*
X0090079Y0013022D01*
X0090126Y0013033D01*
X0090174Y0013040D01*
X0090222Y0013043D01*
X0090270Y0013042D01*
X0090318Y0013037D01*
X0090366Y0013028D01*
X0090412Y0013016D01*
X0090457Y0012999D01*
X0090501Y0012979D01*
X0090543Y0012956D01*
X0090583Y0012929D01*
X0090621Y0012899D01*
X0090656Y0012866D01*
X0090688Y0012830D01*
X0090718Y0012792D01*
X0090744Y0012751D01*
X0090766Y0012708D01*
X0090786Y0012664D01*
X0090801Y0012619D01*
X0090813Y0012572D01*
X0090821Y0012524D01*
X0090825Y0012476D01*
X0090825Y0012428D01*
X0090821Y0012380D01*
X0090813Y0012332D01*
X0090801Y0012285D01*
X0090786Y0012240D01*
X0090766Y0012196D01*
X0090744Y0012153D01*
X0090718Y0012112D01*
X0090688Y0012074D01*
X0090656Y0012038D01*
X0090621Y0012005D01*
X0090583Y0011975D01*
X0090543Y0011948D01*
X0090501Y0011925D01*
X0090457Y0011905D01*
X0090412Y0011888D01*
X0090366Y0011876D01*
X0090318Y0011867D01*
X0090270Y0011862D01*
X0090222Y0011861D01*
X0090174Y0011864D01*
X0090126Y0011871D01*
X0090079Y0011882D01*
X0090033Y0011896D01*
X0089988Y0011914D01*
X0089945Y0011936D01*
X0089904Y0011961D01*
X0089866Y0011990D01*
X0089829Y0012022D01*
X0089795Y0012056D01*
X0089765Y0012093D01*
X0089737Y0012132D01*
X0089712Y0012174D01*
X0089692Y0012218D01*
X0089674Y0012263D01*
X0089661Y0012309D01*
X0089651Y0012356D01*
X0089645Y0012404D01*
X0089643Y0012452D01*
X0097044Y0012452D02*
X0097046Y0012500D01*
X0097052Y0012548D01*
X0097062Y0012595D01*
X0097075Y0012641D01*
X0097093Y0012686D01*
X0097113Y0012730D01*
X0097138Y0012772D01*
X0097166Y0012811D01*
X0097196Y0012848D01*
X0097230Y0012882D01*
X0097267Y0012914D01*
X0097305Y0012943D01*
X0097346Y0012968D01*
X0097389Y0012990D01*
X0097434Y0013008D01*
X0097480Y0013022D01*
X0097527Y0013033D01*
X0097575Y0013040D01*
X0097623Y0013043D01*
X0097671Y0013042D01*
X0097719Y0013037D01*
X0097767Y0013028D01*
X0097813Y0013016D01*
X0097858Y0012999D01*
X0097902Y0012979D01*
X0097944Y0012956D01*
X0097984Y0012929D01*
X0098022Y0012899D01*
X0098057Y0012866D01*
X0098089Y0012830D01*
X0098119Y0012792D01*
X0098145Y0012751D01*
X0098167Y0012708D01*
X0098187Y0012664D01*
X0098202Y0012619D01*
X0098214Y0012572D01*
X0098222Y0012524D01*
X0098226Y0012476D01*
X0098226Y0012428D01*
X0098222Y0012380D01*
X0098214Y0012332D01*
X0098202Y0012285D01*
X0098187Y0012240D01*
X0098167Y0012196D01*
X0098145Y0012153D01*
X0098119Y0012112D01*
X0098089Y0012074D01*
X0098057Y0012038D01*
X0098022Y0012005D01*
X0097984Y0011975D01*
X0097944Y0011948D01*
X0097902Y0011925D01*
X0097858Y0011905D01*
X0097813Y0011888D01*
X0097767Y0011876D01*
X0097719Y0011867D01*
X0097671Y0011862D01*
X0097623Y0011861D01*
X0097575Y0011864D01*
X0097527Y0011871D01*
X0097480Y0011882D01*
X0097434Y0011896D01*
X0097389Y0011914D01*
X0097346Y0011936D01*
X0097305Y0011961D01*
X0097267Y0011990D01*
X0097230Y0012022D01*
X0097196Y0012056D01*
X0097166Y0012093D01*
X0097138Y0012132D01*
X0097113Y0012174D01*
X0097093Y0012218D01*
X0097075Y0012263D01*
X0097062Y0012309D01*
X0097052Y0012356D01*
X0097046Y0012404D01*
X0097044Y0012452D01*
X0097044Y0005050D02*
X0097046Y0005098D01*
X0097052Y0005146D01*
X0097062Y0005193D01*
X0097075Y0005239D01*
X0097093Y0005284D01*
X0097113Y0005328D01*
X0097138Y0005370D01*
X0097166Y0005409D01*
X0097196Y0005446D01*
X0097230Y0005480D01*
X0097267Y0005512D01*
X0097305Y0005541D01*
X0097346Y0005566D01*
X0097389Y0005588D01*
X0097434Y0005606D01*
X0097480Y0005620D01*
X0097527Y0005631D01*
X0097575Y0005638D01*
X0097623Y0005641D01*
X0097671Y0005640D01*
X0097719Y0005635D01*
X0097767Y0005626D01*
X0097813Y0005614D01*
X0097858Y0005597D01*
X0097902Y0005577D01*
X0097944Y0005554D01*
X0097984Y0005527D01*
X0098022Y0005497D01*
X0098057Y0005464D01*
X0098089Y0005428D01*
X0098119Y0005390D01*
X0098145Y0005349D01*
X0098167Y0005306D01*
X0098187Y0005262D01*
X0098202Y0005217D01*
X0098214Y0005170D01*
X0098222Y0005122D01*
X0098226Y0005074D01*
X0098226Y0005026D01*
X0098222Y0004978D01*
X0098214Y0004930D01*
X0098202Y0004883D01*
X0098187Y0004838D01*
X0098167Y0004794D01*
X0098145Y0004751D01*
X0098119Y0004710D01*
X0098089Y0004672D01*
X0098057Y0004636D01*
X0098022Y0004603D01*
X0097984Y0004573D01*
X0097944Y0004546D01*
X0097902Y0004523D01*
X0097858Y0004503D01*
X0097813Y0004486D01*
X0097767Y0004474D01*
X0097719Y0004465D01*
X0097671Y0004460D01*
X0097623Y0004459D01*
X0097575Y0004462D01*
X0097527Y0004469D01*
X0097480Y0004480D01*
X0097434Y0004494D01*
X0097389Y0004512D01*
X0097346Y0004534D01*
X0097305Y0004559D01*
X0097267Y0004588D01*
X0097230Y0004620D01*
X0097196Y0004654D01*
X0097166Y0004691D01*
X0097138Y0004730D01*
X0097113Y0004772D01*
X0097093Y0004816D01*
X0097075Y0004861D01*
X0097062Y0004907D01*
X0097052Y0004954D01*
X0097046Y0005002D01*
X0097044Y0005050D01*
X0097044Y0038121D02*
X0097046Y0038169D01*
X0097052Y0038217D01*
X0097062Y0038264D01*
X0097075Y0038310D01*
X0097093Y0038355D01*
X0097113Y0038399D01*
X0097138Y0038441D01*
X0097166Y0038480D01*
X0097196Y0038517D01*
X0097230Y0038551D01*
X0097267Y0038583D01*
X0097305Y0038612D01*
X0097346Y0038637D01*
X0097389Y0038659D01*
X0097434Y0038677D01*
X0097480Y0038691D01*
X0097527Y0038702D01*
X0097575Y0038709D01*
X0097623Y0038712D01*
X0097671Y0038711D01*
X0097719Y0038706D01*
X0097767Y0038697D01*
X0097813Y0038685D01*
X0097858Y0038668D01*
X0097902Y0038648D01*
X0097944Y0038625D01*
X0097984Y0038598D01*
X0098022Y0038568D01*
X0098057Y0038535D01*
X0098089Y0038499D01*
X0098119Y0038461D01*
X0098145Y0038420D01*
X0098167Y0038377D01*
X0098187Y0038333D01*
X0098202Y0038288D01*
X0098214Y0038241D01*
X0098222Y0038193D01*
X0098226Y0038145D01*
X0098226Y0038097D01*
X0098222Y0038049D01*
X0098214Y0038001D01*
X0098202Y0037954D01*
X0098187Y0037909D01*
X0098167Y0037865D01*
X0098145Y0037822D01*
X0098119Y0037781D01*
X0098089Y0037743D01*
X0098057Y0037707D01*
X0098022Y0037674D01*
X0097984Y0037644D01*
X0097944Y0037617D01*
X0097902Y0037594D01*
X0097858Y0037574D01*
X0097813Y0037557D01*
X0097767Y0037545D01*
X0097719Y0037536D01*
X0097671Y0037531D01*
X0097623Y0037530D01*
X0097575Y0037533D01*
X0097527Y0037540D01*
X0097480Y0037551D01*
X0097434Y0037565D01*
X0097389Y0037583D01*
X0097346Y0037605D01*
X0097305Y0037630D01*
X0097267Y0037659D01*
X0097230Y0037691D01*
X0097196Y0037725D01*
X0097166Y0037762D01*
X0097138Y0037801D01*
X0097113Y0037843D01*
X0097093Y0037887D01*
X0097075Y0037932D01*
X0097062Y0037978D01*
X0097052Y0038025D01*
X0097046Y0038073D01*
X0097044Y0038121D01*
X0089643Y0038121D02*
X0089645Y0038169D01*
X0089651Y0038217D01*
X0089661Y0038264D01*
X0089674Y0038310D01*
X0089692Y0038355D01*
X0089712Y0038399D01*
X0089737Y0038441D01*
X0089765Y0038480D01*
X0089795Y0038517D01*
X0089829Y0038551D01*
X0089866Y0038583D01*
X0089904Y0038612D01*
X0089945Y0038637D01*
X0089988Y0038659D01*
X0090033Y0038677D01*
X0090079Y0038691D01*
X0090126Y0038702D01*
X0090174Y0038709D01*
X0090222Y0038712D01*
X0090270Y0038711D01*
X0090318Y0038706D01*
X0090366Y0038697D01*
X0090412Y0038685D01*
X0090457Y0038668D01*
X0090501Y0038648D01*
X0090543Y0038625D01*
X0090583Y0038598D01*
X0090621Y0038568D01*
X0090656Y0038535D01*
X0090688Y0038499D01*
X0090718Y0038461D01*
X0090744Y0038420D01*
X0090766Y0038377D01*
X0090786Y0038333D01*
X0090801Y0038288D01*
X0090813Y0038241D01*
X0090821Y0038193D01*
X0090825Y0038145D01*
X0090825Y0038097D01*
X0090821Y0038049D01*
X0090813Y0038001D01*
X0090801Y0037954D01*
X0090786Y0037909D01*
X0090766Y0037865D01*
X0090744Y0037822D01*
X0090718Y0037781D01*
X0090688Y0037743D01*
X0090656Y0037707D01*
X0090621Y0037674D01*
X0090583Y0037644D01*
X0090543Y0037617D01*
X0090501Y0037594D01*
X0090457Y0037574D01*
X0090412Y0037557D01*
X0090366Y0037545D01*
X0090318Y0037536D01*
X0090270Y0037531D01*
X0090222Y0037530D01*
X0090174Y0037533D01*
X0090126Y0037540D01*
X0090079Y0037551D01*
X0090033Y0037565D01*
X0089988Y0037583D01*
X0089945Y0037605D01*
X0089904Y0037630D01*
X0089866Y0037659D01*
X0089829Y0037691D01*
X0089795Y0037725D01*
X0089765Y0037762D01*
X0089737Y0037801D01*
X0089712Y0037843D01*
X0089692Y0037887D01*
X0089674Y0037932D01*
X0089661Y0037978D01*
X0089651Y0038025D01*
X0089645Y0038073D01*
X0089643Y0038121D01*
X0089643Y0045522D02*
X0089645Y0045570D01*
X0089651Y0045618D01*
X0089661Y0045665D01*
X0089674Y0045711D01*
X0089692Y0045756D01*
X0089712Y0045800D01*
X0089737Y0045842D01*
X0089765Y0045881D01*
X0089795Y0045918D01*
X0089829Y0045952D01*
X0089866Y0045984D01*
X0089904Y0046013D01*
X0089945Y0046038D01*
X0089988Y0046060D01*
X0090033Y0046078D01*
X0090079Y0046092D01*
X0090126Y0046103D01*
X0090174Y0046110D01*
X0090222Y0046113D01*
X0090270Y0046112D01*
X0090318Y0046107D01*
X0090366Y0046098D01*
X0090412Y0046086D01*
X0090457Y0046069D01*
X0090501Y0046049D01*
X0090543Y0046026D01*
X0090583Y0045999D01*
X0090621Y0045969D01*
X0090656Y0045936D01*
X0090688Y0045900D01*
X0090718Y0045862D01*
X0090744Y0045821D01*
X0090766Y0045778D01*
X0090786Y0045734D01*
X0090801Y0045689D01*
X0090813Y0045642D01*
X0090821Y0045594D01*
X0090825Y0045546D01*
X0090825Y0045498D01*
X0090821Y0045450D01*
X0090813Y0045402D01*
X0090801Y0045355D01*
X0090786Y0045310D01*
X0090766Y0045266D01*
X0090744Y0045223D01*
X0090718Y0045182D01*
X0090688Y0045144D01*
X0090656Y0045108D01*
X0090621Y0045075D01*
X0090583Y0045045D01*
X0090543Y0045018D01*
X0090501Y0044995D01*
X0090457Y0044975D01*
X0090412Y0044958D01*
X0090366Y0044946D01*
X0090318Y0044937D01*
X0090270Y0044932D01*
X0090222Y0044931D01*
X0090174Y0044934D01*
X0090126Y0044941D01*
X0090079Y0044952D01*
X0090033Y0044966D01*
X0089988Y0044984D01*
X0089945Y0045006D01*
X0089904Y0045031D01*
X0089866Y0045060D01*
X0089829Y0045092D01*
X0089795Y0045126D01*
X0089765Y0045163D01*
X0089737Y0045202D01*
X0089712Y0045244D01*
X0089692Y0045288D01*
X0089674Y0045333D01*
X0089661Y0045379D01*
X0089651Y0045426D01*
X0089645Y0045474D01*
X0089643Y0045522D01*
X0097044Y0045522D02*
X0097046Y0045570D01*
X0097052Y0045618D01*
X0097062Y0045665D01*
X0097075Y0045711D01*
X0097093Y0045756D01*
X0097113Y0045800D01*
X0097138Y0045842D01*
X0097166Y0045881D01*
X0097196Y0045918D01*
X0097230Y0045952D01*
X0097267Y0045984D01*
X0097305Y0046013D01*
X0097346Y0046038D01*
X0097389Y0046060D01*
X0097434Y0046078D01*
X0097480Y0046092D01*
X0097527Y0046103D01*
X0097575Y0046110D01*
X0097623Y0046113D01*
X0097671Y0046112D01*
X0097719Y0046107D01*
X0097767Y0046098D01*
X0097813Y0046086D01*
X0097858Y0046069D01*
X0097902Y0046049D01*
X0097944Y0046026D01*
X0097984Y0045999D01*
X0098022Y0045969D01*
X0098057Y0045936D01*
X0098089Y0045900D01*
X0098119Y0045862D01*
X0098145Y0045821D01*
X0098167Y0045778D01*
X0098187Y0045734D01*
X0098202Y0045689D01*
X0098214Y0045642D01*
X0098222Y0045594D01*
X0098226Y0045546D01*
X0098226Y0045498D01*
X0098222Y0045450D01*
X0098214Y0045402D01*
X0098202Y0045355D01*
X0098187Y0045310D01*
X0098167Y0045266D01*
X0098145Y0045223D01*
X0098119Y0045182D01*
X0098089Y0045144D01*
X0098057Y0045108D01*
X0098022Y0045075D01*
X0097984Y0045045D01*
X0097944Y0045018D01*
X0097902Y0044995D01*
X0097858Y0044975D01*
X0097813Y0044958D01*
X0097767Y0044946D01*
X0097719Y0044937D01*
X0097671Y0044932D01*
X0097623Y0044931D01*
X0097575Y0044934D01*
X0097527Y0044941D01*
X0097480Y0044952D01*
X0097434Y0044966D01*
X0097389Y0044984D01*
X0097346Y0045006D01*
X0097305Y0045031D01*
X0097267Y0045060D01*
X0097230Y0045092D01*
X0097196Y0045126D01*
X0097166Y0045163D01*
X0097138Y0045202D01*
X0097113Y0045244D01*
X0097093Y0045288D01*
X0097075Y0045333D01*
X0097062Y0045379D01*
X0097052Y0045426D01*
X0097046Y0045474D01*
X0097044Y0045522D01*
X0038777Y0045522D02*
X0038779Y0045570D01*
X0038785Y0045618D01*
X0038795Y0045665D01*
X0038808Y0045711D01*
X0038826Y0045756D01*
X0038846Y0045800D01*
X0038871Y0045842D01*
X0038899Y0045881D01*
X0038929Y0045918D01*
X0038963Y0045952D01*
X0039000Y0045984D01*
X0039038Y0046013D01*
X0039079Y0046038D01*
X0039122Y0046060D01*
X0039167Y0046078D01*
X0039213Y0046092D01*
X0039260Y0046103D01*
X0039308Y0046110D01*
X0039356Y0046113D01*
X0039404Y0046112D01*
X0039452Y0046107D01*
X0039500Y0046098D01*
X0039546Y0046086D01*
X0039591Y0046069D01*
X0039635Y0046049D01*
X0039677Y0046026D01*
X0039717Y0045999D01*
X0039755Y0045969D01*
X0039790Y0045936D01*
X0039822Y0045900D01*
X0039852Y0045862D01*
X0039878Y0045821D01*
X0039900Y0045778D01*
X0039920Y0045734D01*
X0039935Y0045689D01*
X0039947Y0045642D01*
X0039955Y0045594D01*
X0039959Y0045546D01*
X0039959Y0045498D01*
X0039955Y0045450D01*
X0039947Y0045402D01*
X0039935Y0045355D01*
X0039920Y0045310D01*
X0039900Y0045266D01*
X0039878Y0045223D01*
X0039852Y0045182D01*
X0039822Y0045144D01*
X0039790Y0045108D01*
X0039755Y0045075D01*
X0039717Y0045045D01*
X0039677Y0045018D01*
X0039635Y0044995D01*
X0039591Y0044975D01*
X0039546Y0044958D01*
X0039500Y0044946D01*
X0039452Y0044937D01*
X0039404Y0044932D01*
X0039356Y0044931D01*
X0039308Y0044934D01*
X0039260Y0044941D01*
X0039213Y0044952D01*
X0039167Y0044966D01*
X0039122Y0044984D01*
X0039079Y0045006D01*
X0039038Y0045031D01*
X0039000Y0045060D01*
X0038963Y0045092D01*
X0038929Y0045126D01*
X0038899Y0045163D01*
X0038871Y0045202D01*
X0038846Y0045244D01*
X0038826Y0045288D01*
X0038808Y0045333D01*
X0038795Y0045379D01*
X0038785Y0045426D01*
X0038779Y0045474D01*
X0038777Y0045522D01*
X0031375Y0045522D02*
X0031377Y0045570D01*
X0031383Y0045618D01*
X0031393Y0045665D01*
X0031406Y0045711D01*
X0031424Y0045756D01*
X0031444Y0045800D01*
X0031469Y0045842D01*
X0031497Y0045881D01*
X0031527Y0045918D01*
X0031561Y0045952D01*
X0031598Y0045984D01*
X0031636Y0046013D01*
X0031677Y0046038D01*
X0031720Y0046060D01*
X0031765Y0046078D01*
X0031811Y0046092D01*
X0031858Y0046103D01*
X0031906Y0046110D01*
X0031954Y0046113D01*
X0032002Y0046112D01*
X0032050Y0046107D01*
X0032098Y0046098D01*
X0032144Y0046086D01*
X0032189Y0046069D01*
X0032233Y0046049D01*
X0032275Y0046026D01*
X0032315Y0045999D01*
X0032353Y0045969D01*
X0032388Y0045936D01*
X0032420Y0045900D01*
X0032450Y0045862D01*
X0032476Y0045821D01*
X0032498Y0045778D01*
X0032518Y0045734D01*
X0032533Y0045689D01*
X0032545Y0045642D01*
X0032553Y0045594D01*
X0032557Y0045546D01*
X0032557Y0045498D01*
X0032553Y0045450D01*
X0032545Y0045402D01*
X0032533Y0045355D01*
X0032518Y0045310D01*
X0032498Y0045266D01*
X0032476Y0045223D01*
X0032450Y0045182D01*
X0032420Y0045144D01*
X0032388Y0045108D01*
X0032353Y0045075D01*
X0032315Y0045045D01*
X0032275Y0045018D01*
X0032233Y0044995D01*
X0032189Y0044975D01*
X0032144Y0044958D01*
X0032098Y0044946D01*
X0032050Y0044937D01*
X0032002Y0044932D01*
X0031954Y0044931D01*
X0031906Y0044934D01*
X0031858Y0044941D01*
X0031811Y0044952D01*
X0031765Y0044966D01*
X0031720Y0044984D01*
X0031677Y0045006D01*
X0031636Y0045031D01*
X0031598Y0045060D01*
X0031561Y0045092D01*
X0031527Y0045126D01*
X0031497Y0045163D01*
X0031469Y0045202D01*
X0031444Y0045244D01*
X0031424Y0045288D01*
X0031406Y0045333D01*
X0031393Y0045379D01*
X0031383Y0045426D01*
X0031377Y0045474D01*
X0031375Y0045522D01*
X0031375Y0038121D02*
X0031377Y0038169D01*
X0031383Y0038217D01*
X0031393Y0038264D01*
X0031406Y0038310D01*
X0031424Y0038355D01*
X0031444Y0038399D01*
X0031469Y0038441D01*
X0031497Y0038480D01*
X0031527Y0038517D01*
X0031561Y0038551D01*
X0031598Y0038583D01*
X0031636Y0038612D01*
X0031677Y0038637D01*
X0031720Y0038659D01*
X0031765Y0038677D01*
X0031811Y0038691D01*
X0031858Y0038702D01*
X0031906Y0038709D01*
X0031954Y0038712D01*
X0032002Y0038711D01*
X0032050Y0038706D01*
X0032098Y0038697D01*
X0032144Y0038685D01*
X0032189Y0038668D01*
X0032233Y0038648D01*
X0032275Y0038625D01*
X0032315Y0038598D01*
X0032353Y0038568D01*
X0032388Y0038535D01*
X0032420Y0038499D01*
X0032450Y0038461D01*
X0032476Y0038420D01*
X0032498Y0038377D01*
X0032518Y0038333D01*
X0032533Y0038288D01*
X0032545Y0038241D01*
X0032553Y0038193D01*
X0032557Y0038145D01*
X0032557Y0038097D01*
X0032553Y0038049D01*
X0032545Y0038001D01*
X0032533Y0037954D01*
X0032518Y0037909D01*
X0032498Y0037865D01*
X0032476Y0037822D01*
X0032450Y0037781D01*
X0032420Y0037743D01*
X0032388Y0037707D01*
X0032353Y0037674D01*
X0032315Y0037644D01*
X0032275Y0037617D01*
X0032233Y0037594D01*
X0032189Y0037574D01*
X0032144Y0037557D01*
X0032098Y0037545D01*
X0032050Y0037536D01*
X0032002Y0037531D01*
X0031954Y0037530D01*
X0031906Y0037533D01*
X0031858Y0037540D01*
X0031811Y0037551D01*
X0031765Y0037565D01*
X0031720Y0037583D01*
X0031677Y0037605D01*
X0031636Y0037630D01*
X0031598Y0037659D01*
X0031561Y0037691D01*
X0031527Y0037725D01*
X0031497Y0037762D01*
X0031469Y0037801D01*
X0031444Y0037843D01*
X0031424Y0037887D01*
X0031406Y0037932D01*
X0031393Y0037978D01*
X0031383Y0038025D01*
X0031377Y0038073D01*
X0031375Y0038121D01*
X0038777Y0038121D02*
X0038779Y0038169D01*
X0038785Y0038217D01*
X0038795Y0038264D01*
X0038808Y0038310D01*
X0038826Y0038355D01*
X0038846Y0038399D01*
X0038871Y0038441D01*
X0038899Y0038480D01*
X0038929Y0038517D01*
X0038963Y0038551D01*
X0039000Y0038583D01*
X0039038Y0038612D01*
X0039079Y0038637D01*
X0039122Y0038659D01*
X0039167Y0038677D01*
X0039213Y0038691D01*
X0039260Y0038702D01*
X0039308Y0038709D01*
X0039356Y0038712D01*
X0039404Y0038711D01*
X0039452Y0038706D01*
X0039500Y0038697D01*
X0039546Y0038685D01*
X0039591Y0038668D01*
X0039635Y0038648D01*
X0039677Y0038625D01*
X0039717Y0038598D01*
X0039755Y0038568D01*
X0039790Y0038535D01*
X0039822Y0038499D01*
X0039852Y0038461D01*
X0039878Y0038420D01*
X0039900Y0038377D01*
X0039920Y0038333D01*
X0039935Y0038288D01*
X0039947Y0038241D01*
X0039955Y0038193D01*
X0039959Y0038145D01*
X0039959Y0038097D01*
X0039955Y0038049D01*
X0039947Y0038001D01*
X0039935Y0037954D01*
X0039920Y0037909D01*
X0039900Y0037865D01*
X0039878Y0037822D01*
X0039852Y0037781D01*
X0039822Y0037743D01*
X0039790Y0037707D01*
X0039755Y0037674D01*
X0039717Y0037644D01*
X0039677Y0037617D01*
X0039635Y0037594D01*
X0039591Y0037574D01*
X0039546Y0037557D01*
X0039500Y0037545D01*
X0039452Y0037536D01*
X0039404Y0037531D01*
X0039356Y0037530D01*
X0039308Y0037533D01*
X0039260Y0037540D01*
X0039213Y0037551D01*
X0039167Y0037565D01*
X0039122Y0037583D01*
X0039079Y0037605D01*
X0039038Y0037630D01*
X0039000Y0037659D01*
X0038963Y0037691D01*
X0038929Y0037725D01*
X0038899Y0037762D01*
X0038871Y0037801D01*
X0038846Y0037843D01*
X0038826Y0037887D01*
X0038808Y0037932D01*
X0038795Y0037978D01*
X0038785Y0038025D01*
X0038779Y0038073D01*
X0038777Y0038121D01*
D11*
X0063350Y0084144D03*
X0063350Y0086113D03*
X0063350Y0088081D03*
X0063350Y0090050D03*
X0063350Y0092019D03*
X0063350Y0093987D03*
X0078850Y0093987D03*
X0078850Y0092019D03*
X0078850Y0090050D03*
X0078850Y0088081D03*
X0078850Y0086113D03*
X0078850Y0084144D03*
D12*
X0076021Y0081316D03*
X0074053Y0081316D03*
X0072084Y0081316D03*
X0070116Y0081316D03*
X0068147Y0081316D03*
X0066179Y0081316D03*
X0066179Y0096816D03*
X0068147Y0096816D03*
X0070116Y0096816D03*
X0072084Y0096816D03*
X0074053Y0096816D03*
X0076021Y0096816D03*
D13*
X0071100Y0089066D03*
D14*
X0058600Y0083022D03*
X0058600Y0078574D03*
X0052104Y0078574D03*
X0052104Y0083022D03*
D15*
X0068738Y0103239D03*
X0071494Y0103239D03*
D16*
X0070116Y0105601D03*
X0070116Y0100877D03*
D17*
X0077202Y0104617D03*
X0087045Y0104617D03*
D18*
X0077793Y0075680D03*
X0073856Y0075680D03*
X0085667Y0072137D03*
X0089604Y0072137D03*
X0057320Y0073318D03*
X0053383Y0073318D03*
X0053383Y0088081D03*
X0057320Y0088081D03*
D19*
X0084486Y0084735D03*
X0084486Y0077648D03*
X0064801Y0044971D03*
X0064801Y0037885D03*
D20*
X0091966Y0080011D03*
X0091966Y0083948D03*
X0058108Y0097333D03*
X0058108Y0101270D03*
X0052990Y0101270D03*
X0052990Y0097333D03*
D21*
X0052596Y0066034D03*
X0047872Y0066034D03*
X0047872Y0060916D03*
X0052596Y0060916D03*
D22*
X0076021Y0060129D03*
X0085076Y0060129D03*
D23*
X0035273Y0060719D03*
X0035273Y0070719D03*
X0035273Y0080719D03*
X0035273Y0090719D03*
X0035273Y0100719D03*
D24*
X0065588Y0065444D03*
X0072675Y0065444D03*
D25*
X0093935Y0041822D03*
X0093935Y0008751D03*
X0076612Y0008751D03*
X0052990Y0008751D03*
X0035667Y0008751D03*
X0035667Y0041822D03*
D26*
X0041769Y0015798D03*
X0046887Y0015798D03*
X0082714Y0015798D03*
X0087832Y0015798D03*
D27*
X0084880Y0037393D03*
X0084880Y0039361D03*
X0084880Y0041330D03*
X0073856Y0041330D03*
X0073856Y0039361D03*
X0073856Y0037393D03*
X0055746Y0037393D03*
X0055746Y0039361D03*
X0055746Y0041330D03*
X0044722Y0041330D03*
X0044722Y0039361D03*
X0044722Y0037393D03*
D28*
X0050234Y0034735D03*
X0079368Y0034735D03*
D29*
X0082962Y0031192D03*
X0082962Y0028042D03*
X0075773Y0028042D03*
X0075773Y0031192D03*
X0053828Y0031192D03*
X0053828Y0028042D03*
X0046639Y0028042D03*
X0046639Y0031192D03*
D30*
X0050234Y0022333D03*
X0079368Y0022333D03*
D31*
X0080352Y0043396D03*
X0078383Y0043396D03*
X0076415Y0043396D03*
X0082320Y0043396D03*
X0053187Y0043396D03*
X0051218Y0043396D03*
X0049250Y0043396D03*
X0047281Y0043396D03*
D32*
G36*
X0069994Y0051549D02*
X0067211Y0048766D01*
X0064428Y0051549D01*
X0067211Y0054332D01*
X0069994Y0051549D01*
G37*
G36*
X0075736Y0053517D02*
X0072953Y0050734D01*
X0070170Y0053517D01*
X0072953Y0056300D01*
X0075736Y0053517D01*
G37*
D33*
X0043935Y0048515D03*
D34*
X0041966Y0048515D01*
X0041966Y0050483D01*
X0041966Y0069774D01*
X0045903Y0073711D01*
X0045903Y0085719D01*
X0052006Y0091822D01*
X0058895Y0091822D01*
X0060667Y0090050D01*
X0063350Y0090050D01*
X0063350Y0092019D02*
X0060903Y0092019D01*
X0059131Y0093790D01*
X0056533Y0093790D01*
X0052990Y0097333D01*
X0052990Y0096822D01*
X0052754Y0096822D01*
X0055268Y0096753D02*
X0055268Y0098887D01*
X0054981Y0099174D01*
X0055043Y0099209D01*
X0055248Y0099414D01*
X0055393Y0099665D01*
X0055468Y0099945D01*
X0055468Y0100980D01*
X0053280Y0100980D01*
X0053280Y0101561D01*
X0052699Y0101561D01*
X0052699Y0100980D01*
X0050512Y0100980D01*
X0050512Y0099945D01*
X0050587Y0099665D01*
X0050732Y0099414D01*
X0050936Y0099209D01*
X0050998Y0099174D01*
X0050712Y0098887D01*
X0050712Y0098309D01*
X0050079Y0098942D01*
X0048420Y0098942D01*
X0047247Y0097769D01*
X0047247Y0096110D01*
X0048229Y0095129D01*
X0047917Y0094816D01*
X0047917Y0093158D01*
X0049089Y0091985D01*
X0050003Y0091985D01*
X0050003Y0091516D01*
X0044703Y0086216D01*
X0044703Y0075343D01*
X0043901Y0074541D01*
X0043901Y0073406D01*
X0041469Y0070974D01*
X0040766Y0070271D01*
X0040766Y0048037D01*
X0035273Y0048037D01*
X0035273Y0052845D01*
X0040391Y0057963D01*
X0040391Y0093003D01*
X0037121Y0096273D01*
X0037789Y0096614D01*
X0038400Y0097058D01*
X0038934Y0097592D01*
X0039379Y0098204D01*
X0039722Y0098877D01*
X0039955Y0099595D01*
X0040073Y0100342D01*
X0040073Y0100419D01*
X0035573Y0100419D01*
X0035573Y0101019D01*
X0040073Y0101019D01*
X0040073Y0101097D01*
X0039955Y0101843D01*
X0039722Y0102562D01*
X0039379Y0103235D01*
X0038934Y0103846D01*
X0038400Y0104381D01*
X0037789Y0104825D01*
X0037116Y0105168D01*
X0036397Y0105401D01*
X0035651Y0105519D01*
X0035573Y0105519D01*
X0035573Y0101019D01*
X0035273Y0101019D01*
X0035273Y0107663D01*
X0056027Y0107663D01*
X0056027Y0103304D01*
X0055850Y0103127D01*
X0055705Y0102876D01*
X0055630Y0102596D01*
X0055630Y0101561D01*
X0056027Y0101561D01*
X0056027Y0100980D01*
X0055630Y0100980D01*
X0055630Y0099945D01*
X0055705Y0099665D01*
X0055850Y0099414D01*
X0056055Y0099209D01*
X0056116Y0099174D01*
X0055830Y0098887D01*
X0055830Y0096190D01*
X0055268Y0096753D01*
X0055268Y0097016D02*
X0055830Y0097016D01*
X0055830Y0096418D02*
X0055602Y0096418D01*
X0055830Y0097615D02*
X0055268Y0097615D01*
X0055268Y0098213D02*
X0055830Y0098213D01*
X0055830Y0098812D02*
X0055268Y0098812D01*
X0055244Y0099410D02*
X0055853Y0099410D01*
X0055630Y0100009D02*
X0055468Y0100009D01*
X0055468Y0100607D02*
X0055630Y0100607D01*
X0056027Y0101206D02*
X0053280Y0101206D01*
X0053280Y0101561D02*
X0055468Y0101561D01*
X0055468Y0102596D01*
X0055393Y0102876D01*
X0055248Y0103127D01*
X0055043Y0103332D01*
X0054792Y0103477D01*
X0054513Y0103552D01*
X0053280Y0103552D01*
X0053280Y0101561D01*
X0053280Y0101804D02*
X0052699Y0101804D01*
X0052699Y0101561D02*
X0052699Y0103552D01*
X0051467Y0103552D01*
X0051187Y0103477D01*
X0050936Y0103332D01*
X0050732Y0103127D01*
X0050587Y0102876D01*
X0050512Y0102596D01*
X0050512Y0101561D01*
X0052699Y0101561D01*
X0052699Y0101206D02*
X0040056Y0101206D01*
X0039961Y0101804D02*
X0050512Y0101804D01*
X0050512Y0102403D02*
X0039773Y0102403D01*
X0039498Y0103001D02*
X0050659Y0103001D01*
X0052699Y0103001D02*
X0053280Y0103001D01*
X0053280Y0102403D02*
X0052699Y0102403D01*
X0055320Y0103001D02*
X0055777Y0103001D01*
X0055630Y0102403D02*
X0055468Y0102403D01*
X0055468Y0101804D02*
X0055630Y0101804D01*
X0056027Y0103600D02*
X0039113Y0103600D01*
X0038582Y0104198D02*
X0056027Y0104198D01*
X0056027Y0104797D02*
X0037827Y0104797D01*
X0036414Y0105396D02*
X0056027Y0105396D01*
X0056027Y0105994D02*
X0035273Y0105994D01*
X0035273Y0105396D02*
X0035573Y0105396D01*
X0035573Y0104797D02*
X0035273Y0104797D01*
X0035273Y0104198D02*
X0035573Y0104198D01*
X0035573Y0103600D02*
X0035273Y0103600D01*
X0035273Y0103001D02*
X0035573Y0103001D01*
X0035573Y0102403D02*
X0035273Y0102403D01*
X0035273Y0101804D02*
X0035573Y0101804D01*
X0035573Y0101206D02*
X0035273Y0101206D01*
X0035573Y0100607D02*
X0050512Y0100607D01*
X0050512Y0100009D02*
X0040021Y0100009D01*
X0039895Y0099410D02*
X0050735Y0099410D01*
X0050712Y0098812D02*
X0050209Y0098812D01*
X0048290Y0098812D02*
X0039689Y0098812D01*
X0039384Y0098213D02*
X0047691Y0098213D01*
X0047247Y0097615D02*
X0038951Y0097615D01*
X0038343Y0097016D02*
X0047247Y0097016D01*
X0047247Y0096418D02*
X0037404Y0096418D01*
X0037575Y0095819D02*
X0047538Y0095819D01*
X0048137Y0095221D02*
X0038173Y0095221D01*
X0038772Y0094622D02*
X0047917Y0094622D01*
X0047917Y0094024D02*
X0039370Y0094024D01*
X0039969Y0093425D02*
X0047917Y0093425D01*
X0048247Y0092827D02*
X0040391Y0092827D01*
X0040391Y0092228D02*
X0048846Y0092228D01*
X0050003Y0091630D02*
X0040391Y0091630D01*
X0040391Y0091031D02*
X0049518Y0091031D01*
X0048920Y0090433D02*
X0040391Y0090433D01*
X0040391Y0089834D02*
X0048321Y0089834D01*
X0047723Y0089236D02*
X0040391Y0089236D01*
X0040391Y0088637D02*
X0047124Y0088637D01*
X0046526Y0088039D02*
X0040391Y0088039D01*
X0040391Y0087440D02*
X0045927Y0087440D01*
X0045328Y0086842D02*
X0040391Y0086842D01*
X0040391Y0086243D02*
X0044730Y0086243D01*
X0044703Y0085645D02*
X0040391Y0085645D01*
X0040391Y0085046D02*
X0044703Y0085046D01*
X0044703Y0084448D02*
X0040391Y0084448D01*
X0040391Y0083849D02*
X0044703Y0083849D01*
X0044703Y0083251D02*
X0040391Y0083251D01*
X0040391Y0082652D02*
X0044703Y0082652D01*
X0044703Y0082054D02*
X0040391Y0082054D01*
X0040391Y0081455D02*
X0044703Y0081455D01*
X0044703Y0080857D02*
X0040391Y0080857D01*
X0040391Y0080258D02*
X0044703Y0080258D01*
X0044703Y0079660D02*
X0040391Y0079660D01*
X0040391Y0079061D02*
X0044703Y0079061D01*
X0044703Y0078463D02*
X0040391Y0078463D01*
X0040391Y0077864D02*
X0044703Y0077864D01*
X0044703Y0077265D02*
X0040391Y0077265D01*
X0040391Y0076667D02*
X0044703Y0076667D01*
X0044703Y0076068D02*
X0040391Y0076068D01*
X0040391Y0075470D02*
X0044703Y0075470D01*
X0044231Y0074871D02*
X0040391Y0074871D01*
X0040391Y0074273D02*
X0043901Y0074273D01*
X0043901Y0073674D02*
X0040391Y0073674D01*
X0040391Y0073076D02*
X0043571Y0073076D01*
X0042972Y0072477D02*
X0040391Y0072477D01*
X0040391Y0071879D02*
X0042374Y0071879D01*
X0041775Y0071280D02*
X0040391Y0071280D01*
X0040391Y0070682D02*
X0041177Y0070682D01*
X0040766Y0070083D02*
X0040391Y0070083D01*
X0040391Y0069485D02*
X0040766Y0069485D01*
X0040766Y0068886D02*
X0040391Y0068886D01*
X0040391Y0068288D02*
X0040766Y0068288D01*
X0040766Y0067689D02*
X0040391Y0067689D01*
X0040391Y0067091D02*
X0040766Y0067091D01*
X0040766Y0066492D02*
X0040391Y0066492D01*
X0040391Y0065894D02*
X0040766Y0065894D01*
X0040766Y0065295D02*
X0040391Y0065295D01*
X0040391Y0064697D02*
X0040766Y0064697D01*
X0040766Y0064098D02*
X0040391Y0064098D01*
X0040391Y0063500D02*
X0040766Y0063500D01*
X0040766Y0062901D02*
X0040391Y0062901D01*
X0040391Y0062303D02*
X0040766Y0062303D01*
X0040766Y0061704D02*
X0040391Y0061704D01*
X0040391Y0061106D02*
X0040766Y0061106D01*
X0040766Y0060507D02*
X0040391Y0060507D01*
X0040391Y0059909D02*
X0040766Y0059909D01*
X0040766Y0059310D02*
X0040391Y0059310D01*
X0040391Y0058712D02*
X0040766Y0058712D01*
X0040766Y0058113D02*
X0040391Y0058113D01*
X0040766Y0057515D02*
X0039943Y0057515D01*
X0039344Y0056916D02*
X0040766Y0056916D01*
X0040766Y0056318D02*
X0038746Y0056318D01*
X0038147Y0055719D02*
X0040766Y0055719D01*
X0040766Y0055121D02*
X0037549Y0055121D01*
X0036950Y0054522D02*
X0040766Y0054522D01*
X0040766Y0053924D02*
X0036352Y0053924D01*
X0035753Y0053325D02*
X0040766Y0053325D01*
X0040766Y0052727D02*
X0035273Y0052727D01*
X0035273Y0052128D02*
X0040766Y0052128D01*
X0040766Y0051530D02*
X0035273Y0051530D01*
X0035273Y0050931D02*
X0040766Y0050931D01*
X0040766Y0050332D02*
X0035273Y0050332D01*
X0035273Y0049734D02*
X0040766Y0049734D01*
X0040766Y0049135D02*
X0035273Y0049135D01*
X0035273Y0048537D02*
X0040766Y0048537D01*
X0041966Y0048515D02*
X0041966Y0046546D01*
X0046691Y0046546D01*
X0048693Y0046741D02*
X0055333Y0046741D01*
X0055333Y0046143D02*
X0048693Y0046143D01*
X0048693Y0045678D02*
X0048693Y0048021D01*
X0048166Y0048548D01*
X0046803Y0048548D01*
X0046803Y0050856D01*
X0046276Y0051383D01*
X0043166Y0051383D01*
X0043166Y0069277D01*
X0045598Y0071709D01*
X0046733Y0071709D01*
X0047905Y0072882D01*
X0047905Y0074541D01*
X0047103Y0075343D01*
X0047103Y0085222D01*
X0051302Y0089421D01*
X0051302Y0086331D01*
X0051830Y0085804D01*
X0053374Y0085804D01*
X0055564Y0083614D01*
X0056312Y0083614D01*
X0056519Y0083406D01*
X0056519Y0081173D01*
X0056755Y0080937D01*
X0056743Y0080930D01*
X0056539Y0080725D01*
X0056394Y0080475D01*
X0056319Y0080195D01*
X0056319Y0078864D01*
X0058309Y0078864D01*
X0058309Y0078283D01*
X0056319Y0078283D01*
X0056319Y0076952D01*
X0056394Y0076673D01*
X0056539Y0076422D01*
X0056743Y0076217D01*
X0056994Y0076072D01*
X0057274Y0075997D01*
X0058309Y0075997D01*
X0058309Y0078283D01*
X0058891Y0078283D01*
X0058891Y0078864D01*
X0060881Y0078864D01*
X0060881Y0080195D01*
X0060806Y0080475D01*
X0060661Y0080725D01*
X0060457Y0080930D01*
X0060445Y0080937D01*
X0060681Y0081173D01*
X0060681Y0084872D01*
X0060189Y0085364D01*
X0060189Y0085895D01*
X0059662Y0086422D01*
X0059402Y0086422D01*
X0059402Y0086881D01*
X0060783Y0086881D01*
X0060750Y0086758D01*
X0060750Y0086113D01*
X0063350Y0086113D01*
X0071100Y0086113D01*
X0071100Y0089066D01*
X0066179Y0089066D01*
X0066179Y0098711D01*
X0066179Y0098812D02*
X0066179Y0098812D01*
X0066179Y0099410D02*
X0066179Y0099410D01*
X0066179Y0099416D02*
X0065534Y0099416D01*
X0065254Y0099341D01*
X0065003Y0099196D01*
X0064799Y0098991D01*
X0064654Y0098740D01*
X0064579Y0098461D01*
X0064579Y0096816D01*
X0066179Y0096816D01*
X0066179Y0096816D01*
X0066179Y0099416D01*
X0066824Y0099416D01*
X0067103Y0099341D01*
X0067163Y0099306D01*
X0067223Y0099341D01*
X0067502Y0099416D01*
X0068139Y0099416D01*
X0068133Y0099421D01*
X0068133Y0100370D01*
X0065985Y0100370D01*
X0065040Y0099426D01*
X0063381Y0099426D01*
X0062436Y0100370D01*
X0060586Y0100370D01*
X0060586Y0099945D01*
X0060511Y0099665D01*
X0060366Y0099414D01*
X0060161Y0099209D01*
X0060100Y0099174D01*
X0060386Y0098887D01*
X0060386Y0096359D01*
X0061417Y0095327D01*
X0061477Y0095387D01*
X0064579Y0095387D01*
X0064579Y0096816D01*
X0066179Y0096816D01*
X0066179Y0099416D01*
X0066843Y0099410D02*
X0067483Y0099410D01*
X0068133Y0100009D02*
X0065623Y0100009D01*
X0065514Y0099410D02*
X0060362Y0099410D01*
X0060386Y0098812D02*
X0064695Y0098812D01*
X0064579Y0098213D02*
X0060386Y0098213D01*
X0060386Y0097615D02*
X0064579Y0097615D01*
X0064579Y0097016D02*
X0060386Y0097016D01*
X0060386Y0096418D02*
X0064579Y0096418D01*
X0064579Y0095819D02*
X0060925Y0095819D01*
X0061061Y0093987D02*
X0058305Y0096743D01*
X0058108Y0097333D01*
X0060586Y0100009D02*
X0062798Y0100009D01*
X0061848Y0100089D02*
X0061848Y0101940D01*
X0063383Y0103475D01*
X0068895Y0103475D01*
X0069244Y0103239D02*
X0070822Y0103239D01*
X0071494Y0103239D01*
X0073578Y0103239D01*
X0073578Y0103901D01*
X0074334Y0103901D01*
X0074334Y0100898D01*
X0074861Y0100370D01*
X0086620Y0100370D01*
X0086420Y0100171D01*
X0086420Y0098512D01*
X0087593Y0097339D01*
X0089252Y0097339D01*
X0090425Y0098512D01*
X0090425Y0100171D01*
X0090225Y0100370D01*
X0095095Y0100370D01*
X0095622Y0100898D01*
X0095622Y0107663D01*
X0099146Y0107663D01*
X0099146Y0048237D01*
X0094235Y0048237D01*
X0094235Y0042122D01*
X0093635Y0042122D01*
X0093635Y0048237D01*
X0088475Y0048237D01*
X0088195Y0048162D01*
X0087944Y0048017D01*
X0087739Y0047812D01*
X0087595Y0047561D01*
X0087520Y0047281D01*
X0087520Y0046390D01*
X0084111Y0049799D01*
X0083408Y0050502D01*
X0074747Y0050502D01*
X0074371Y0050878D01*
X0076637Y0053145D01*
X0076637Y0053890D01*
X0073326Y0057201D01*
X0072580Y0057201D01*
X0070314Y0054935D01*
X0069938Y0055311D01*
X0069938Y0057513D01*
X0070740Y0058315D01*
X0070740Y0059974D01*
X0069567Y0061147D01*
X0067908Y0061147D01*
X0066735Y0059974D01*
X0066735Y0058315D01*
X0067538Y0057513D01*
X0067538Y0055349D01*
X0066016Y0056871D01*
X0066016Y0058005D01*
X0064843Y0059178D01*
X0063184Y0059178D01*
X0062011Y0058005D01*
X0062011Y0056347D01*
X0063184Y0055174D01*
X0064319Y0055174D01*
X0065549Y0053944D01*
X0063527Y0051922D01*
X0063527Y0051176D01*
X0066838Y0047865D01*
X0067584Y0047865D01*
X0069605Y0049887D01*
X0072965Y0046527D01*
X0082020Y0046527D01*
X0082870Y0045678D01*
X0082321Y0045678D01*
X0082321Y0043397D01*
X0082320Y0043397D01*
X0082320Y0045678D01*
X0081684Y0045678D01*
X0081404Y0045603D01*
X0081336Y0045564D01*
X0081269Y0045603D01*
X0080989Y0045678D01*
X0080352Y0045678D01*
X0080352Y0043397D01*
X0080352Y0043397D01*
X0080352Y0045678D01*
X0079715Y0045678D01*
X0079435Y0045603D01*
X0079368Y0045564D01*
X0079300Y0045603D01*
X0079020Y0045678D01*
X0078384Y0045678D01*
X0078384Y0043397D01*
X0079976Y0043397D01*
X0080352Y0043397D01*
X0081944Y0043397D01*
X0082320Y0043397D01*
X0082320Y0043396D01*
X0082321Y0043396D01*
X0082321Y0041115D01*
X0082798Y0041115D01*
X0082798Y0040465D01*
X0082918Y0040345D01*
X0082798Y0040226D01*
X0082798Y0038526D01*
X0082673Y0038309D01*
X0082598Y0038029D01*
X0082598Y0037393D01*
X0084879Y0037393D01*
X0084879Y0037392D01*
X0082598Y0037392D01*
X0082598Y0037210D01*
X0075937Y0037210D01*
X0075937Y0038228D01*
X0076062Y0038444D01*
X0076137Y0038724D01*
X0076137Y0039361D01*
X0073856Y0039361D01*
X0073856Y0039361D01*
X0076137Y0039361D01*
X0076137Y0039998D01*
X0076062Y0040278D01*
X0075937Y0040494D01*
X0075937Y0041315D01*
X0077250Y0041315D01*
X0077467Y0041190D01*
X0077747Y0041115D01*
X0078383Y0041115D01*
X0078383Y0043396D01*
X0078384Y0043396D01*
X0078384Y0043397D01*
X0078383Y0043397D01*
X0078383Y0045678D01*
X0077747Y0045678D01*
X0077467Y0045603D01*
X0077250Y0045478D01*
X0075550Y0045478D01*
X0075023Y0044950D01*
X0075023Y0042722D01*
X0072302Y0042722D01*
X0071775Y0042194D01*
X0071775Y0040494D01*
X0071650Y0040278D01*
X0071575Y0039998D01*
X0071575Y0039361D01*
X0071575Y0038910D01*
X0070922Y0039563D01*
X0070922Y0040387D01*
X0071724Y0041189D01*
X0071724Y0042848D01*
X0070551Y0044021D01*
X0068893Y0044021D01*
X0068263Y0043391D01*
X0068263Y0044671D01*
X0065101Y0044671D01*
X0065101Y0042296D01*
X0067308Y0042296D01*
X0067588Y0042371D01*
X0067720Y0042448D01*
X0067720Y0041189D01*
X0068522Y0040387D01*
X0068522Y0038691D01*
X0068063Y0038691D01*
X0068063Y0039832D01*
X0067536Y0040359D01*
X0062066Y0040359D01*
X0061539Y0039832D01*
X0061539Y0038691D01*
X0059579Y0038691D01*
X0058876Y0037988D01*
X0058027Y0037138D01*
X0058027Y0037392D01*
X0055746Y0037392D01*
X0055746Y0037393D01*
X0058027Y0037393D01*
X0058027Y0038029D01*
X0057991Y0038161D01*
X0058605Y0038161D01*
X0059308Y0038864D01*
X0059308Y0053576D01*
X0060110Y0054378D01*
X0060110Y0056037D01*
X0058937Y0057210D01*
X0057278Y0057210D01*
X0056139Y0056071D01*
X0055000Y0057210D01*
X0053341Y0057210D01*
X0052169Y0056037D01*
X0052169Y0054378D01*
X0052971Y0053576D01*
X0052971Y0052703D01*
X0053674Y0052000D01*
X0055333Y0050341D01*
X0055333Y0042722D01*
X0054779Y0042722D01*
X0054779Y0043396D01*
X0053187Y0043396D01*
X0053187Y0041115D01*
X0053665Y0041115D01*
X0053665Y0040465D01*
X0053784Y0040345D01*
X0053665Y0040226D01*
X0053665Y0038526D01*
X0053540Y0038309D01*
X0053465Y0038029D01*
X0053465Y0037393D01*
X0055746Y0037393D01*
X0055746Y0037392D01*
X0053465Y0037392D01*
X0053465Y0037210D01*
X0046803Y0037210D01*
X0046803Y0038228D01*
X0046928Y0038444D01*
X0047003Y0038724D01*
X0047003Y0039361D01*
X0044722Y0039361D01*
X0044722Y0039361D01*
X0047003Y0039361D01*
X0047003Y0039998D01*
X0046928Y0040278D01*
X0046803Y0040494D01*
X0046803Y0041315D01*
X0048116Y0041315D01*
X0048333Y0041190D01*
X0048613Y0041115D01*
X0049250Y0041115D01*
X0049887Y0041115D01*
X0050166Y0041190D01*
X0050234Y0041229D01*
X0050301Y0041190D01*
X0050581Y0041115D01*
X0051218Y0041115D01*
X0051218Y0043396D01*
X0051218Y0043396D01*
X0051218Y0041115D01*
X0051855Y0041115D01*
X0052135Y0041190D01*
X0052202Y0041229D01*
X0052270Y0041190D01*
X0052550Y0041115D01*
X0053187Y0041115D01*
X0053187Y0043396D01*
X0053187Y0043396D01*
X0053187Y0043397D01*
X0053187Y0043397D01*
X0053187Y0045678D01*
X0053824Y0045678D01*
X0054103Y0045603D01*
X0054354Y0045458D01*
X0054559Y0045253D01*
X0054704Y0045002D01*
X0054779Y0044722D01*
X0054779Y0043397D01*
X0053187Y0043397D01*
X0053187Y0045678D01*
X0052550Y0045678D01*
X0052270Y0045603D01*
X0052202Y0045564D01*
X0052135Y0045603D01*
X0051855Y0045678D01*
X0051218Y0045678D01*
X0050581Y0045678D01*
X0050301Y0045603D01*
X0050234Y0045564D01*
X0050166Y0045603D01*
X0049887Y0045678D01*
X0049250Y0045678D01*
X0049250Y0043397D01*
X0049250Y0043397D01*
X0050842Y0043397D01*
X0051218Y0043397D01*
X0051218Y0045678D01*
X0051218Y0043397D01*
X0051218Y0043397D01*
X0051218Y0043396D01*
X0049250Y0043396D01*
X0049250Y0043397D01*
X0049250Y0045678D01*
X0048693Y0045678D01*
X0049250Y0045544D02*
X0049250Y0045544D01*
X0049250Y0044946D02*
X0049250Y0044946D01*
X0049250Y0044347D02*
X0049250Y0044347D01*
X0049250Y0043749D02*
X0049250Y0043749D01*
X0049250Y0043396D02*
X0049250Y0041115D01*
X0049250Y0043396D01*
X0049250Y0043396D01*
X0049250Y0043150D02*
X0049250Y0043150D01*
X0049250Y0042552D02*
X0049250Y0042552D01*
X0049250Y0041953D02*
X0049250Y0041953D01*
X0049250Y0041355D02*
X0049250Y0041355D01*
X0046803Y0040756D02*
X0053665Y0040756D01*
X0053665Y0040158D02*
X0046960Y0040158D01*
X0047003Y0039559D02*
X0053665Y0039559D01*
X0053665Y0038961D02*
X0047003Y0038961D01*
X0046881Y0038362D02*
X0053570Y0038362D01*
X0053465Y0037764D02*
X0046803Y0037764D01*
X0044722Y0037393D02*
X0042760Y0037393D01*
X0041966Y0038186D01*
X0041966Y0046546D01*
X0043166Y0051530D02*
X0054144Y0051530D01*
X0053546Y0052128D02*
X0043166Y0052128D01*
X0043166Y0052727D02*
X0052971Y0052727D01*
X0052971Y0053325D02*
X0043166Y0053325D01*
X0043166Y0053924D02*
X0052623Y0053924D01*
X0052169Y0054522D02*
X0043166Y0054522D01*
X0043166Y0055121D02*
X0052169Y0055121D01*
X0052169Y0055719D02*
X0043166Y0055719D01*
X0043166Y0056318D02*
X0052449Y0056318D01*
X0053048Y0056916D02*
X0043166Y0056916D01*
X0043166Y0057515D02*
X0062011Y0057515D01*
X0062011Y0056916D02*
X0059231Y0056916D01*
X0059830Y0056318D02*
X0062040Y0056318D01*
X0062639Y0055719D02*
X0060110Y0055719D01*
X0060110Y0055121D02*
X0064372Y0055121D01*
X0064970Y0054522D02*
X0060110Y0054522D01*
X0059656Y0053924D02*
X0065529Y0053924D01*
X0064930Y0053325D02*
X0059308Y0053325D01*
X0059308Y0052727D02*
X0064332Y0052727D01*
X0063733Y0052128D02*
X0059308Y0052128D01*
X0059308Y0051530D02*
X0063527Y0051530D01*
X0063772Y0050931D02*
X0059308Y0050931D01*
X0059308Y0050332D02*
X0064370Y0050332D01*
X0064969Y0049734D02*
X0059308Y0049734D01*
X0059308Y0049135D02*
X0065567Y0049135D01*
X0066166Y0048537D02*
X0059308Y0048537D01*
X0059308Y0047938D02*
X0066765Y0047938D01*
X0067308Y0047646D02*
X0065101Y0047646D01*
X0065101Y0045271D01*
X0068263Y0045271D01*
X0068263Y0046691D01*
X0068188Y0046971D01*
X0068043Y0047221D01*
X0067838Y0047426D01*
X0067588Y0047571D01*
X0067308Y0047646D01*
X0067657Y0047938D02*
X0071554Y0047938D01*
X0072152Y0047340D02*
X0067925Y0047340D01*
X0068249Y0046741D02*
X0072751Y0046741D01*
X0073462Y0047727D02*
X0068541Y0052648D01*
X0068541Y0051549D01*
X0067211Y0051549D01*
X0068541Y0052648D02*
X0064013Y0057176D01*
X0062717Y0058712D02*
X0054617Y0058712D01*
X0054874Y0058969D02*
X0054874Y0059547D01*
X0054916Y0059504D01*
X0056575Y0059504D01*
X0057748Y0060677D01*
X0057748Y0062336D01*
X0056575Y0063509D01*
X0054916Y0063509D01*
X0054572Y0063165D01*
X0054347Y0063391D01*
X0050845Y0063391D01*
X0050318Y0062864D01*
X0050318Y0062753D01*
X0050275Y0062916D01*
X0050130Y0063166D01*
X0049925Y0063371D01*
X0049674Y0063516D01*
X0049512Y0063559D01*
X0049622Y0063559D01*
X0050150Y0064087D01*
X0050150Y0067982D01*
X0049622Y0068509D01*
X0046121Y0068509D01*
X0045594Y0067982D01*
X0045594Y0064087D01*
X0046121Y0063559D01*
X0046231Y0063559D01*
X0046069Y0063516D01*
X0045818Y0063371D01*
X0045613Y0063166D01*
X0045469Y0062916D01*
X0045394Y0062636D01*
X0045394Y0061216D01*
X0047572Y0061216D01*
X0047572Y0060616D01*
X0048172Y0060616D01*
X0048172Y0058241D01*
X0049394Y0058241D01*
X0049674Y0058316D01*
X0049925Y0058461D01*
X0050130Y0058666D01*
X0050275Y0058917D01*
X0050318Y0059079D01*
X0050318Y0058969D01*
X0050845Y0058441D01*
X0054347Y0058441D01*
X0054874Y0058969D01*
X0054874Y0059310D02*
X0066735Y0059310D01*
X0066735Y0058712D02*
X0065309Y0058712D01*
X0065908Y0058113D02*
X0066937Y0058113D01*
X0067536Y0057515D02*
X0066016Y0057515D01*
X0066016Y0056916D02*
X0067538Y0056916D01*
X0067538Y0056318D02*
X0066569Y0056318D01*
X0067167Y0055719D02*
X0067538Y0055719D01*
X0068738Y0054814D02*
X0068738Y0059144D01*
X0070207Y0060507D02*
X0073681Y0060507D01*
X0073681Y0060429D02*
X0075721Y0060429D01*
X0075721Y0062863D01*
X0075150Y0062863D01*
X0075150Y0063744D01*
X0077055Y0063744D01*
X0077357Y0063441D01*
X0079016Y0063441D01*
X0080189Y0064614D01*
X0080189Y0066273D01*
X0079016Y0067446D01*
X0077357Y0067446D01*
X0077055Y0067144D01*
X0075202Y0067144D01*
X0075202Y0073402D01*
X0075410Y0073402D01*
X0075696Y0073688D01*
X0075732Y0073627D01*
X0075936Y0073422D01*
X0076187Y0073277D01*
X0076467Y0073202D01*
X0077502Y0073202D01*
X0077502Y0075389D01*
X0078083Y0075389D01*
X0078083Y0073202D01*
X0079119Y0073202D01*
X0079399Y0073277D01*
X0079649Y0073422D01*
X0079854Y0073627D01*
X0079999Y0073877D01*
X0080074Y0074157D01*
X0080074Y0075389D01*
X0078084Y0075389D01*
X0078084Y0075970D01*
X0080074Y0075970D01*
X0080074Y0076457D01*
X0080176Y0076355D01*
X0081224Y0076355D01*
X0081224Y0075701D01*
X0081751Y0075174D01*
X0083573Y0075174D01*
X0083573Y0069725D01*
X0083271Y0069423D01*
X0083271Y0067764D01*
X0084444Y0066591D01*
X0086103Y0066591D01*
X0087276Y0067764D01*
X0087276Y0069423D01*
X0086973Y0069725D01*
X0086973Y0069859D01*
X0087221Y0069859D01*
X0087507Y0070145D01*
X0087543Y0070083D01*
X0087747Y0069878D01*
X0087998Y0069734D01*
X0088278Y0069659D01*
X0089313Y0069659D01*
X0089313Y0071846D01*
X0089894Y0071846D01*
X0089894Y0069659D01*
X0090930Y0069659D01*
X0091210Y0069734D01*
X0091460Y0069878D01*
X0091665Y0070083D01*
X0091810Y0070334D01*
X0091885Y0070614D01*
X0091885Y0071846D01*
X0089895Y0071846D01*
X0089895Y0072427D01*
X0091885Y0072427D01*
X0091885Y0073659D01*
X0091810Y0073939D01*
X0091665Y0074190D01*
X0091460Y0074395D01*
X0091210Y0074540D01*
X0090930Y0074615D01*
X0089894Y0074615D01*
X0089894Y0072427D01*
X0089313Y0072427D01*
X0089313Y0074615D01*
X0088278Y0074615D01*
X0087998Y0074540D01*
X0087747Y0074395D01*
X0087543Y0074190D01*
X0087507Y0074128D01*
X0087221Y0074415D01*
X0086973Y0074415D01*
X0086973Y0075174D01*
X0087221Y0075174D01*
X0087446Y0075399D01*
X0087987Y0074859D01*
X0089646Y0074859D01*
X0090819Y0076032D01*
X0090819Y0077690D01*
X0090780Y0077730D01*
X0091676Y0077730D01*
X0091676Y0079720D01*
X0092257Y0079720D01*
X0092257Y0080301D01*
X0094444Y0080301D01*
X0094444Y0081337D01*
X0094369Y0081616D01*
X0094224Y0081867D01*
X0094020Y0082072D01*
X0093958Y0082108D01*
X0094244Y0082394D01*
X0094244Y0085502D01*
X0093760Y0085986D01*
X0093760Y0086177D01*
X0094362Y0086780D01*
X0094362Y0088438D01*
X0093189Y0089611D01*
X0092000Y0089611D01*
X0092000Y0090761D01*
X0090827Y0091934D01*
X0090031Y0091934D01*
X0090031Y0093281D01*
X0088859Y0094454D01*
X0088063Y0094454D01*
X0088063Y0095840D01*
X0086890Y0097013D01*
X0086488Y0097013D01*
X0086488Y0098360D01*
X0085315Y0099533D01*
X0083656Y0099533D01*
X0082854Y0098730D01*
X0077379Y0098730D01*
X0076894Y0099216D01*
X0075194Y0099216D01*
X0074977Y0099341D01*
X0074698Y0099416D01*
X0074053Y0099416D01*
X0074053Y0096816D01*
X0074053Y0096816D01*
X0074053Y0099416D01*
X0073408Y0099416D01*
X0073128Y0099341D01*
X0073069Y0099306D01*
X0073009Y0099341D01*
X0072729Y0099416D01*
X0072093Y0099416D01*
X0072098Y0099421D01*
X0072098Y0101548D01*
X0072623Y0101548D01*
X0072903Y0101623D01*
X0073153Y0101768D01*
X0073358Y0101973D01*
X0073503Y0102224D01*
X0073578Y0102504D01*
X0073578Y0103239D01*
X0071494Y0103239D01*
X0071494Y0103239D01*
X0069244Y0103239D01*
X0069244Y0103239D01*
X0071494Y0103239D02*
X0071494Y0103239D01*
X0073551Y0102403D02*
X0074334Y0102403D01*
X0074334Y0103001D02*
X0073578Y0103001D01*
X0073578Y0103600D02*
X0074334Y0103600D01*
X0074334Y0101804D02*
X0073190Y0101804D01*
X0073462Y0100877D02*
X0072084Y0100877D01*
X0072084Y0096816D01*
X0072084Y0090641D01*
X0075037Y0090641D01*
X0075712Y0089366D02*
X0075712Y0088766D01*
X0071400Y0088766D01*
X0071400Y0089366D01*
X0071400Y0093678D01*
X0070800Y0093678D01*
X0070800Y0089366D01*
X0071400Y0089366D01*
X0075712Y0089366D01*
X0075712Y0089236D02*
X0071400Y0089236D01*
X0071100Y0089066D02*
X0068147Y0089066D01*
X0068147Y0096816D01*
X0068147Y0100365D01*
X0066179Y0100365D01*
X0066179Y0098213D02*
X0066179Y0098213D01*
X0066179Y0097615D02*
X0066179Y0097615D01*
X0066179Y0097016D02*
X0066179Y0097016D01*
X0066179Y0096816D02*
X0066179Y0096816D01*
X0063350Y0093987D02*
X0061061Y0093987D01*
X0066488Y0089366D02*
X0070800Y0089366D01*
X0070800Y0088766D01*
X0066488Y0088766D01*
X0066488Y0089366D01*
X0066488Y0089236D02*
X0070800Y0089236D01*
X0071100Y0089066D02*
X0072084Y0089066D01*
X0072084Y0096816D01*
X0074053Y0096816D02*
X0074053Y0095366D01*
X0074053Y0095366D01*
X0074053Y0096816D01*
X0074053Y0096816D01*
X0074053Y0097016D02*
X0074053Y0097016D01*
X0074053Y0096418D02*
X0074053Y0096418D01*
X0074053Y0096113D02*
X0074053Y0089066D01*
X0071100Y0089066D01*
X0071100Y0084263D01*
X0078344Y0084263D01*
X0078850Y0084144D02*
X0078850Y0084144D01*
X0078850Y0082544D01*
X0080495Y0082544D01*
X0080775Y0082619D01*
X0081025Y0082764D01*
X0081224Y0082963D01*
X0081224Y0082787D01*
X0081751Y0082260D01*
X0087221Y0082260D01*
X0087748Y0082787D01*
X0087748Y0083759D01*
X0087987Y0083520D01*
X0089646Y0083520D01*
X0089688Y0083562D01*
X0089688Y0082394D01*
X0089974Y0082108D01*
X0089913Y0082072D01*
X0089708Y0081867D01*
X0089563Y0081616D01*
X0089488Y0081337D01*
X0089488Y0080301D01*
X0091676Y0080301D01*
X0091676Y0079720D01*
X0089488Y0079720D01*
X0089488Y0078863D01*
X0087987Y0078863D01*
X0087748Y0078624D01*
X0087748Y0079596D01*
X0087221Y0080123D01*
X0083991Y0080123D01*
X0083491Y0080623D01*
X0077421Y0080623D01*
X0077421Y0082544D01*
X0078850Y0082544D01*
X0078850Y0084144D01*
X0078850Y0083849D02*
X0078850Y0083849D01*
X0078850Y0083251D02*
X0078850Y0083251D01*
X0078850Y0082652D02*
X0078850Y0082652D01*
X0077421Y0082054D02*
X0089894Y0082054D01*
X0089688Y0082652D02*
X0087613Y0082652D01*
X0087748Y0083251D02*
X0089688Y0083251D01*
X0089520Y0081455D02*
X0077421Y0081455D01*
X0077421Y0080857D02*
X0089488Y0080857D01*
X0089488Y0079660D02*
X0087684Y0079660D01*
X0087748Y0079061D02*
X0089488Y0079061D01*
X0091676Y0079061D02*
X0092257Y0079061D01*
X0092257Y0078463D02*
X0091676Y0078463D01*
X0091676Y0077864D02*
X0092257Y0077864D01*
X0092257Y0077730D02*
X0093489Y0077730D01*
X0093769Y0077804D01*
X0094020Y0077949D01*
X0094224Y0078154D01*
X0094369Y0078405D01*
X0094444Y0078685D01*
X0094444Y0079720D01*
X0092257Y0079720D01*
X0092257Y0077730D01*
X0090819Y0077265D02*
X0099146Y0077265D01*
X0099146Y0076667D02*
X0090819Y0076667D01*
X0090819Y0076068D02*
X0099146Y0076068D01*
X0099146Y0075470D02*
X0090257Y0075470D01*
X0089659Y0074871D02*
X0099146Y0074871D01*
X0099146Y0074273D02*
X0091582Y0074273D01*
X0091881Y0073674D02*
X0099146Y0073674D01*
X0099146Y0073076D02*
X0091885Y0073076D01*
X0091885Y0072477D02*
X0099146Y0072477D01*
X0099146Y0071879D02*
X0089895Y0071879D01*
X0089894Y0072477D02*
X0089313Y0072477D01*
X0089313Y0073076D02*
X0089894Y0073076D01*
X0089894Y0073674D02*
X0089313Y0073674D01*
X0089313Y0074273D02*
X0089894Y0074273D01*
X0087974Y0074871D02*
X0086973Y0074871D01*
X0087362Y0074273D02*
X0087626Y0074273D01*
X0083573Y0074273D02*
X0080074Y0074273D01*
X0080074Y0074871D02*
X0083573Y0074871D01*
X0083573Y0073674D02*
X0079882Y0073674D01*
X0078083Y0073674D02*
X0077502Y0073674D01*
X0077502Y0074273D02*
X0078083Y0074273D01*
X0078083Y0074871D02*
X0077502Y0074871D01*
X0078084Y0075470D02*
X0081454Y0075470D01*
X0081224Y0076068D02*
X0080074Y0076068D01*
X0083573Y0073076D02*
X0075202Y0073076D01*
X0075202Y0072477D02*
X0083573Y0072477D01*
X0083573Y0071879D02*
X0075202Y0071879D01*
X0075202Y0071280D02*
X0083573Y0071280D01*
X0083573Y0070682D02*
X0075202Y0070682D01*
X0075202Y0070083D02*
X0083573Y0070083D01*
X0083333Y0069485D02*
X0075202Y0069485D01*
X0075202Y0068886D02*
X0083271Y0068886D01*
X0083271Y0068288D02*
X0075202Y0068288D01*
X0075202Y0067689D02*
X0083345Y0067689D01*
X0083944Y0067091D02*
X0079371Y0067091D01*
X0079970Y0066492D02*
X0082151Y0066492D01*
X0082475Y0066816D02*
X0081302Y0065643D01*
X0081302Y0063984D01*
X0082105Y0063182D01*
X0082105Y0061403D01*
X0082808Y0060700D01*
X0082936Y0060572D01*
X0082936Y0058122D01*
X0083463Y0057595D01*
X0086689Y0057595D01*
X0087217Y0058122D01*
X0087217Y0062135D01*
X0086689Y0062663D01*
X0084505Y0062663D01*
X0084505Y0063182D01*
X0085307Y0063984D01*
X0085307Y0065643D01*
X0084134Y0066816D01*
X0082475Y0066816D01*
X0081553Y0065894D02*
X0080189Y0065894D01*
X0080189Y0065295D02*
X0081302Y0065295D01*
X0081302Y0064697D02*
X0080189Y0064697D01*
X0079673Y0064098D02*
X0081302Y0064098D01*
X0081787Y0063500D02*
X0079074Y0063500D01*
X0078142Y0062438D02*
X0077937Y0062643D01*
X0077686Y0062788D01*
X0077406Y0062863D01*
X0076321Y0062863D01*
X0076321Y0060429D01*
X0075721Y0060429D01*
X0075721Y0059829D01*
X0073681Y0059829D01*
X0073681Y0058350D01*
X0073756Y0058070D01*
X0073901Y0057819D01*
X0074106Y0057615D01*
X0074357Y0057470D01*
X0074636Y0057395D01*
X0075721Y0057395D01*
X0075721Y0059829D01*
X0076321Y0059829D01*
X0076321Y0057395D01*
X0077406Y0057395D01*
X0077686Y0057470D01*
X0077937Y0057615D01*
X0078142Y0057819D01*
X0078286Y0058070D01*
X0078361Y0058350D01*
X0078361Y0059829D01*
X0076321Y0059829D01*
X0076321Y0060429D01*
X0078361Y0060429D01*
X0078361Y0061907D01*
X0078286Y0062187D01*
X0078142Y0062438D01*
X0078220Y0062303D02*
X0082105Y0062303D01*
X0082105Y0062901D02*
X0075150Y0062901D01*
X0075150Y0063500D02*
X0077299Y0063500D01*
X0076321Y0062303D02*
X0075721Y0062303D01*
X0075721Y0061704D02*
X0076321Y0061704D01*
X0076321Y0061106D02*
X0075721Y0061106D01*
X0075721Y0060507D02*
X0076321Y0060507D01*
X0076321Y0059909D02*
X0082936Y0059909D01*
X0082936Y0060507D02*
X0078361Y0060507D01*
X0078361Y0061106D02*
X0082402Y0061106D01*
X0082105Y0061704D02*
X0078361Y0061704D01*
X0078361Y0059310D02*
X0082936Y0059310D01*
X0082936Y0058712D02*
X0078361Y0058712D01*
X0078298Y0058113D02*
X0082945Y0058113D01*
X0085076Y0060129D02*
X0083305Y0061900D01*
X0083305Y0064814D01*
X0084822Y0063500D02*
X0099146Y0063500D01*
X0099146Y0064098D02*
X0085307Y0064098D01*
X0085307Y0064697D02*
X0099146Y0064697D01*
X0099146Y0065295D02*
X0085307Y0065295D01*
X0085056Y0065894D02*
X0099146Y0065894D01*
X0099146Y0066492D02*
X0084458Y0066492D01*
X0086602Y0067091D02*
X0099146Y0067091D01*
X0099146Y0067689D02*
X0087201Y0067689D01*
X0087276Y0068288D02*
X0099146Y0068288D01*
X0099146Y0068886D02*
X0087276Y0068886D01*
X0087213Y0069485D02*
X0099146Y0069485D01*
X0099146Y0070083D02*
X0091665Y0070083D01*
X0091885Y0070682D02*
X0099146Y0070682D01*
X0099146Y0071280D02*
X0091885Y0071280D01*
X0089894Y0071280D02*
X0089313Y0071280D01*
X0089313Y0070682D02*
X0089894Y0070682D01*
X0089894Y0070083D02*
X0089313Y0070083D01*
X0087543Y0070083D02*
X0087446Y0070083D01*
X0084505Y0062901D02*
X0099146Y0062901D01*
X0099146Y0062303D02*
X0087049Y0062303D01*
X0087217Y0061704D02*
X0099146Y0061704D01*
X0099146Y0061106D02*
X0087217Y0061106D01*
X0087217Y0060507D02*
X0099146Y0060507D01*
X0099146Y0059909D02*
X0087217Y0059909D01*
X0087217Y0059310D02*
X0099146Y0059310D01*
X0099146Y0058712D02*
X0087217Y0058712D01*
X0087208Y0058113D02*
X0099146Y0058113D01*
X0099146Y0057515D02*
X0077764Y0057515D01*
X0076321Y0057515D02*
X0075721Y0057515D01*
X0075721Y0058113D02*
X0076321Y0058113D01*
X0076321Y0058712D02*
X0075721Y0058712D01*
X0075721Y0059310D02*
X0076321Y0059310D01*
X0075721Y0059909D02*
X0070740Y0059909D01*
X0070740Y0059310D02*
X0073681Y0059310D01*
X0073681Y0058712D02*
X0070740Y0058712D01*
X0070538Y0058113D02*
X0073745Y0058113D01*
X0074279Y0057515D02*
X0069940Y0057515D01*
X0069938Y0056916D02*
X0072295Y0056916D01*
X0071697Y0056318D02*
X0069938Y0056318D01*
X0069938Y0055719D02*
X0071098Y0055719D01*
X0070500Y0055121D02*
X0070128Y0055121D01*
X0068738Y0054814D02*
X0071691Y0051861D01*
X0071691Y0053517D01*
X0072953Y0053517D01*
X0071691Y0051861D02*
X0074250Y0049302D01*
X0082911Y0049302D01*
X0087242Y0044971D01*
X0087242Y0039361D01*
X0084880Y0039361D01*
X0084880Y0037393D02*
X0087161Y0037393D01*
X0087161Y0038029D01*
X0087125Y0038161D01*
X0087520Y0038161D01*
X0087520Y0036435D01*
X0087062Y0036435D01*
X0087086Y0036476D01*
X0087161Y0036756D01*
X0087161Y0037392D01*
X0084880Y0037392D01*
X0084880Y0037393D01*
X0082598Y0037764D02*
X0075937Y0037764D01*
X0076015Y0038362D02*
X0082704Y0038362D01*
X0082798Y0038961D02*
X0076137Y0038961D01*
X0076137Y0039559D02*
X0082798Y0039559D01*
X0082798Y0040158D02*
X0076094Y0040158D01*
X0075937Y0040756D02*
X0082798Y0040756D01*
X0082320Y0041115D02*
X0082320Y0043396D01*
X0080352Y0043396D01*
X0080352Y0041115D01*
X0080989Y0041115D01*
X0081269Y0041190D01*
X0081336Y0041229D01*
X0081404Y0041190D01*
X0081684Y0041115D01*
X0082320Y0041115D01*
X0082320Y0041355D02*
X0082321Y0041355D01*
X0082320Y0041953D02*
X0082321Y0041953D01*
X0082320Y0042552D02*
X0082321Y0042552D01*
X0082320Y0043150D02*
X0082321Y0043150D01*
X0082320Y0043749D02*
X0082321Y0043749D01*
X0082320Y0044347D02*
X0082321Y0044347D01*
X0082320Y0044946D02*
X0082321Y0044946D01*
X0082320Y0045544D02*
X0082321Y0045544D01*
X0082405Y0046143D02*
X0068263Y0046143D01*
X0068263Y0045544D02*
X0077366Y0045544D01*
X0078383Y0045544D02*
X0078384Y0045544D01*
X0078383Y0044946D02*
X0078384Y0044946D01*
X0078383Y0044347D02*
X0078384Y0044347D01*
X0078383Y0043749D02*
X0078384Y0043749D01*
X0078384Y0043396D02*
X0080352Y0043396D01*
X0080352Y0043396D01*
X0080352Y0041115D01*
X0079715Y0041115D01*
X0079435Y0041190D01*
X0079368Y0041229D01*
X0079300Y0041190D01*
X0079020Y0041115D01*
X0078384Y0041115D01*
X0078384Y0043396D01*
X0078383Y0043150D02*
X0078384Y0043150D01*
X0078383Y0042552D02*
X0078384Y0042552D01*
X0078383Y0041953D02*
X0078384Y0041953D01*
X0078383Y0041355D02*
X0078384Y0041355D01*
X0080352Y0041355D02*
X0080352Y0041355D01*
X0080352Y0041953D02*
X0080352Y0041953D01*
X0080352Y0042552D02*
X0080352Y0042552D01*
X0080352Y0043150D02*
X0080352Y0043150D01*
X0080352Y0043396D02*
X0080352Y0043397D01*
X0080352Y0043396D01*
X0080352Y0043749D02*
X0080352Y0043749D01*
X0080352Y0044347D02*
X0080352Y0044347D01*
X0080352Y0044946D02*
X0080352Y0044946D01*
X0080352Y0045544D02*
X0080352Y0045544D01*
X0082517Y0047727D02*
X0073462Y0047727D01*
X0070955Y0048537D02*
X0068255Y0048537D01*
X0068854Y0049135D02*
X0070357Y0049135D01*
X0069758Y0049734D02*
X0069453Y0049734D01*
X0065101Y0047340D02*
X0064501Y0047340D01*
X0064501Y0047646D02*
X0062294Y0047646D01*
X0062014Y0047571D01*
X0061763Y0047426D01*
X0061558Y0047221D01*
X0061414Y0046971D01*
X0061339Y0046691D01*
X0061339Y0045271D01*
X0064501Y0045271D01*
X0064501Y0044671D01*
X0065101Y0044671D01*
X0065101Y0045271D01*
X0064501Y0045271D01*
X0064501Y0047646D01*
X0064501Y0046741D02*
X0065101Y0046741D01*
X0065101Y0046143D02*
X0064501Y0046143D01*
X0064501Y0045544D02*
X0065101Y0045544D01*
X0065101Y0044946D02*
X0075023Y0044946D01*
X0075023Y0044347D02*
X0068263Y0044347D01*
X0068263Y0043749D02*
X0068621Y0043749D01*
X0067720Y0041953D02*
X0059308Y0041953D01*
X0059308Y0041355D02*
X0067720Y0041355D01*
X0068152Y0040756D02*
X0059308Y0040756D01*
X0059308Y0040158D02*
X0061864Y0040158D01*
X0061539Y0039559D02*
X0059308Y0039559D01*
X0059308Y0038961D02*
X0061539Y0038961D01*
X0060076Y0037491D02*
X0069525Y0037491D01*
X0071494Y0035522D01*
X0072675Y0035522D01*
X0072675Y0033948D01*
X0056927Y0033948D01*
X0056927Y0035522D01*
X0058108Y0035522D01*
X0060076Y0037491D01*
X0059751Y0037165D02*
X0069851Y0037165D01*
X0070449Y0036567D02*
X0059152Y0036567D01*
X0058554Y0035968D02*
X0071048Y0035968D01*
X0071395Y0037393D02*
X0073856Y0037393D01*
X0073856Y0039361D02*
X0071575Y0039361D01*
X0073856Y0039361D01*
X0073856Y0039361D01*
X0071575Y0039559D02*
X0070926Y0039559D01*
X0070922Y0040158D02*
X0071618Y0040158D01*
X0071775Y0040756D02*
X0071292Y0040756D01*
X0071724Y0041355D02*
X0071775Y0041355D01*
X0071775Y0041953D02*
X0071724Y0041953D01*
X0071724Y0042552D02*
X0072132Y0042552D01*
X0071422Y0043150D02*
X0075023Y0043150D01*
X0075023Y0043749D02*
X0070823Y0043749D01*
X0069722Y0042019D02*
X0069722Y0039066D01*
X0071395Y0037393D01*
X0071524Y0038961D02*
X0071575Y0038961D01*
X0068522Y0038961D02*
X0068063Y0038961D01*
X0068063Y0039559D02*
X0068522Y0039559D01*
X0068522Y0040158D02*
X0067737Y0040158D01*
X0065101Y0042552D02*
X0064501Y0042552D01*
X0064501Y0042296D02*
X0064501Y0044671D01*
X0061339Y0044671D01*
X0061339Y0043252D01*
X0061414Y0042972D01*
X0061558Y0042721D01*
X0061763Y0042516D01*
X0062014Y0042371D01*
X0062294Y0042296D01*
X0064501Y0042296D01*
X0064501Y0043150D02*
X0065101Y0043150D01*
X0065101Y0043749D02*
X0064501Y0043749D01*
X0064501Y0044347D02*
X0065101Y0044347D01*
X0064501Y0044946D02*
X0059308Y0044946D01*
X0059308Y0045544D02*
X0061339Y0045544D01*
X0061339Y0046143D02*
X0059308Y0046143D01*
X0059308Y0046741D02*
X0061352Y0046741D01*
X0061677Y0047340D02*
X0059308Y0047340D01*
X0059308Y0044347D02*
X0061339Y0044347D01*
X0061339Y0043749D02*
X0059308Y0043749D01*
X0059308Y0043150D02*
X0061366Y0043150D01*
X0061728Y0042552D02*
X0059308Y0042552D01*
X0056533Y0041330D02*
X0056533Y0050838D01*
X0054171Y0053200D01*
X0054171Y0055207D01*
X0055294Y0056916D02*
X0056985Y0056916D01*
X0056386Y0056318D02*
X0055892Y0056318D01*
X0058108Y0055207D02*
X0058108Y0039361D01*
X0055746Y0039361D01*
X0055746Y0041330D02*
X0056533Y0041330D01*
X0055333Y0043150D02*
X0054779Y0043150D01*
X0054779Y0043749D02*
X0055333Y0043749D01*
X0055333Y0044347D02*
X0054779Y0044347D01*
X0054719Y0044946D02*
X0055333Y0044946D01*
X0055333Y0045544D02*
X0054204Y0045544D01*
X0053187Y0045544D02*
X0053187Y0045544D01*
X0053187Y0044946D02*
X0053187Y0044946D01*
X0053187Y0044347D02*
X0053187Y0044347D01*
X0053187Y0043749D02*
X0053187Y0043749D01*
X0053186Y0043397D02*
X0053186Y0043396D01*
X0051218Y0043396D01*
X0051218Y0043397D01*
X0052810Y0043397D01*
X0053186Y0043397D01*
X0053187Y0043150D02*
X0053187Y0043150D01*
X0053187Y0042552D02*
X0053187Y0042552D01*
X0053187Y0041953D02*
X0053187Y0041953D01*
X0053187Y0041355D02*
X0053187Y0041355D01*
X0051218Y0041355D02*
X0051218Y0041355D01*
X0051218Y0041953D02*
X0051218Y0041953D01*
X0051218Y0042552D02*
X0051218Y0042552D01*
X0051218Y0043150D02*
X0051218Y0043150D01*
X0051218Y0043749D02*
X0051218Y0043749D01*
X0051218Y0044347D02*
X0051218Y0044347D01*
X0051218Y0044946D02*
X0051218Y0044946D01*
X0051218Y0045544D02*
X0051218Y0045544D01*
X0048693Y0047340D02*
X0055333Y0047340D01*
X0055333Y0047938D02*
X0048693Y0047938D01*
X0048177Y0048537D02*
X0055333Y0048537D01*
X0055333Y0049135D02*
X0046803Y0049135D01*
X0046803Y0049734D02*
X0055333Y0049734D01*
X0055333Y0050332D02*
X0046803Y0050332D01*
X0046728Y0050931D02*
X0054743Y0050931D01*
X0047572Y0058241D02*
X0047572Y0060616D01*
X0045394Y0060616D01*
X0045394Y0059197D01*
X0045469Y0058917D01*
X0045613Y0058666D01*
X0045818Y0058461D01*
X0046069Y0058316D01*
X0046349Y0058241D01*
X0047572Y0058241D01*
X0047572Y0058712D02*
X0048172Y0058712D01*
X0048172Y0059310D02*
X0047572Y0059310D01*
X0047572Y0059909D02*
X0048172Y0059909D01*
X0048172Y0060507D02*
X0047572Y0060507D01*
X0047572Y0061106D02*
X0043166Y0061106D01*
X0043166Y0061704D02*
X0045394Y0061704D01*
X0045394Y0062303D02*
X0043166Y0062303D01*
X0043166Y0062901D02*
X0045465Y0062901D01*
X0046041Y0063500D02*
X0043166Y0063500D01*
X0043166Y0064098D02*
X0045594Y0064098D01*
X0045594Y0064697D02*
X0043166Y0064697D01*
X0043166Y0065295D02*
X0045594Y0065295D01*
X0045594Y0065894D02*
X0043166Y0065894D01*
X0043166Y0066492D02*
X0045594Y0066492D01*
X0045594Y0067091D02*
X0043166Y0067091D01*
X0043166Y0067689D02*
X0045594Y0067689D01*
X0045900Y0068288D02*
X0043166Y0068288D01*
X0043166Y0068886D02*
X0050849Y0068886D01*
X0050791Y0068945D02*
X0051227Y0068509D01*
X0050845Y0068509D01*
X0050318Y0067982D01*
X0050318Y0064087D01*
X0050845Y0063559D01*
X0054347Y0063559D01*
X0054874Y0064087D01*
X0054874Y0067982D01*
X0054353Y0068503D01*
X0054795Y0068945D01*
X0054795Y0070604D01*
X0054359Y0071040D01*
X0054937Y0071040D01*
X0055224Y0071326D01*
X0055259Y0071264D01*
X0055464Y0071060D01*
X0055715Y0070915D01*
X0055995Y0070840D01*
X0057030Y0070840D01*
X0057030Y0073027D01*
X0057611Y0073027D01*
X0057611Y0070840D01*
X0058646Y0070840D01*
X0058926Y0070915D01*
X0059177Y0071060D01*
X0059382Y0071264D01*
X0059527Y0071515D01*
X0059602Y0071795D01*
X0059602Y0073027D01*
X0057611Y0073027D01*
X0057611Y0073608D01*
X0059602Y0073608D01*
X0059602Y0074840D01*
X0059527Y0075120D01*
X0059382Y0075371D01*
X0059177Y0075576D01*
X0058926Y0075721D01*
X0058646Y0075796D01*
X0057611Y0075796D01*
X0057611Y0073608D01*
X0057030Y0073608D01*
X0055465Y0073608D01*
X0055465Y0073027D01*
X0057030Y0073027D01*
X0057030Y0073608D01*
X0057030Y0075796D01*
X0055995Y0075796D01*
X0055715Y0075721D01*
X0055464Y0075576D01*
X0055450Y0075562D01*
X0055450Y0081374D01*
X0054185Y0082638D01*
X0054185Y0084872D01*
X0053658Y0085399D01*
X0050550Y0085399D01*
X0050023Y0084872D01*
X0050023Y0081173D01*
X0050398Y0080798D01*
X0050023Y0080423D01*
X0050023Y0076724D01*
X0050550Y0076197D01*
X0053050Y0076197D01*
X0053050Y0075596D01*
X0051830Y0075596D01*
X0051302Y0075068D01*
X0051302Y0071567D01*
X0051393Y0071476D01*
X0051393Y0071206D01*
X0050791Y0070604D01*
X0050791Y0068945D01*
X0050791Y0069485D02*
X0043374Y0069485D01*
X0043972Y0070083D02*
X0050791Y0070083D01*
X0050869Y0070682D02*
X0044571Y0070682D01*
X0045169Y0071280D02*
X0051393Y0071280D01*
X0051302Y0071879D02*
X0046902Y0071879D01*
X0047501Y0072477D02*
X0051302Y0072477D01*
X0051302Y0073076D02*
X0047905Y0073076D01*
X0047905Y0073674D02*
X0051302Y0073674D01*
X0051302Y0074273D02*
X0047905Y0074273D01*
X0047575Y0074871D02*
X0051302Y0074871D01*
X0051704Y0075470D02*
X0047103Y0075470D01*
X0047103Y0076068D02*
X0053050Y0076068D01*
X0055450Y0076068D02*
X0057008Y0076068D01*
X0057030Y0075470D02*
X0057611Y0075470D01*
X0057611Y0074871D02*
X0057030Y0074871D01*
X0057030Y0074273D02*
X0057611Y0074273D01*
X0057611Y0073674D02*
X0057030Y0073674D01*
X0056887Y0073318D02*
X0055470Y0073318D01*
X0055470Y0076979D01*
X0055450Y0077265D02*
X0056319Y0077265D01*
X0056319Y0077864D02*
X0055450Y0077864D01*
X0055450Y0078463D02*
X0058309Y0078463D01*
X0058891Y0078463D02*
X0064979Y0078463D01*
X0064979Y0079061D02*
X0060881Y0079061D01*
X0060881Y0079660D02*
X0064779Y0079660D01*
X0064779Y0079443D02*
X0064979Y0079243D01*
X0064979Y0075586D01*
X0057232Y0067840D01*
X0056097Y0067840D01*
X0054924Y0066667D01*
X0054924Y0065008D01*
X0056097Y0063835D01*
X0057756Y0063835D01*
X0058502Y0064580D01*
X0059247Y0063835D01*
X0060906Y0063835D01*
X0062079Y0065008D01*
X0062079Y0066143D01*
X0062913Y0066977D01*
X0062913Y0065744D01*
X0065288Y0065744D01*
X0065288Y0068906D01*
X0064842Y0068906D01*
X0069347Y0073411D01*
X0069347Y0073599D01*
X0071473Y0073599D01*
X0071789Y0073915D01*
X0071802Y0073902D01*
X0071802Y0068706D01*
X0070727Y0068706D01*
X0070200Y0068179D01*
X0070200Y0062709D01*
X0070727Y0062181D01*
X0073755Y0062181D01*
X0073681Y0061907D01*
X0073681Y0060429D01*
X0073681Y0061106D02*
X0069608Y0061106D01*
X0070606Y0062303D02*
X0067940Y0062303D01*
X0067838Y0062201D02*
X0068043Y0062406D01*
X0068188Y0062657D01*
X0068263Y0062937D01*
X0068263Y0065144D01*
X0065888Y0065144D01*
X0065888Y0065744D01*
X0065288Y0065744D01*
X0065288Y0065144D01*
X0062913Y0065144D01*
X0062913Y0062937D01*
X0062988Y0062657D01*
X0063133Y0062406D01*
X0063338Y0062201D01*
X0063589Y0062056D01*
X0063869Y0061981D01*
X0065288Y0061981D01*
X0065288Y0065144D01*
X0065888Y0065144D01*
X0065888Y0061981D01*
X0067308Y0061981D01*
X0067588Y0062056D01*
X0067838Y0062201D01*
X0068253Y0062901D02*
X0070200Y0062901D01*
X0070200Y0063500D02*
X0068263Y0063500D01*
X0068263Y0064098D02*
X0070200Y0064098D01*
X0070200Y0064697D02*
X0068263Y0064697D01*
X0068263Y0065744D02*
X0068263Y0067951D01*
X0068188Y0068230D01*
X0068043Y0068481D01*
X0067838Y0068686D01*
X0067588Y0068831D01*
X0067308Y0068906D01*
X0065888Y0068906D01*
X0065888Y0065744D01*
X0068263Y0065744D01*
X0068263Y0065894D02*
X0070200Y0065894D01*
X0070200Y0066492D02*
X0068263Y0066492D01*
X0068263Y0067091D02*
X0070200Y0067091D01*
X0070200Y0067689D02*
X0068263Y0067689D01*
X0068155Y0068288D02*
X0070309Y0068288D01*
X0071802Y0068886D02*
X0067381Y0068886D01*
X0065888Y0068886D02*
X0065288Y0068886D01*
X0065288Y0068288D02*
X0065888Y0068288D01*
X0065888Y0067689D02*
X0065288Y0067689D01*
X0065288Y0067091D02*
X0065888Y0067091D01*
X0065888Y0066492D02*
X0065288Y0066492D01*
X0065288Y0065894D02*
X0065888Y0065894D01*
X0065888Y0065295D02*
X0070200Y0065295D01*
X0065888Y0064697D02*
X0065288Y0064697D01*
X0065288Y0065295D02*
X0062079Y0065295D01*
X0062079Y0065894D02*
X0062913Y0065894D01*
X0062913Y0066492D02*
X0062428Y0066492D01*
X0062913Y0064697D02*
X0061767Y0064697D01*
X0061169Y0064098D02*
X0062913Y0064098D01*
X0062913Y0063500D02*
X0056584Y0063500D01*
X0057183Y0062901D02*
X0062923Y0062901D01*
X0063237Y0062303D02*
X0057748Y0062303D01*
X0057748Y0061704D02*
X0073681Y0061704D01*
X0073611Y0056916D02*
X0099146Y0056916D01*
X0099146Y0056318D02*
X0074210Y0056318D01*
X0074808Y0055719D02*
X0099146Y0055719D01*
X0099146Y0055121D02*
X0075407Y0055121D01*
X0076005Y0054522D02*
X0099146Y0054522D01*
X0099146Y0053924D02*
X0087535Y0053924D01*
X0087122Y0054336D02*
X0085235Y0054336D01*
X0083901Y0053001D01*
X0083901Y0051114D01*
X0085235Y0049780D01*
X0087122Y0049780D01*
X0088457Y0051114D01*
X0088457Y0053001D01*
X0087122Y0054336D01*
X0088133Y0053325D02*
X0099146Y0053325D01*
X0099146Y0052727D02*
X0088457Y0052727D01*
X0088457Y0052128D02*
X0099146Y0052128D01*
X0099146Y0051530D02*
X0088457Y0051530D01*
X0088273Y0050931D02*
X0099146Y0050931D01*
X0099146Y0050332D02*
X0087675Y0050332D01*
X0085373Y0048537D02*
X0099146Y0048537D01*
X0099146Y0049135D02*
X0084775Y0049135D01*
X0084176Y0049734D02*
X0099146Y0049734D01*
X0094235Y0047938D02*
X0093635Y0047938D01*
X0093635Y0047340D02*
X0094235Y0047340D01*
X0094235Y0046741D02*
X0093635Y0046741D01*
X0093635Y0046143D02*
X0094235Y0046143D01*
X0094235Y0045544D02*
X0093635Y0045544D01*
X0093635Y0044946D02*
X0094235Y0044946D01*
X0094235Y0044347D02*
X0093635Y0044347D01*
X0093635Y0043749D02*
X0094235Y0043749D01*
X0094235Y0043150D02*
X0093635Y0043150D01*
X0093635Y0042552D02*
X0094235Y0042552D01*
X0094235Y0041522D02*
X0094235Y0035407D01*
X0099146Y0035407D01*
X0099146Y0014966D01*
X0095135Y0014966D01*
X0095135Y0032397D01*
X0094432Y0033100D01*
X0090014Y0033100D01*
X0090425Y0033512D01*
X0090425Y0035171D01*
X0090189Y0035407D01*
X0093635Y0035407D01*
X0093635Y0041522D01*
X0094235Y0041522D01*
X0094235Y0041355D02*
X0093635Y0041355D01*
X0093635Y0040756D02*
X0094235Y0040756D01*
X0094235Y0040158D02*
X0093635Y0040158D01*
X0093635Y0039559D02*
X0094235Y0039559D01*
X0094235Y0038961D02*
X0093635Y0038961D01*
X0093635Y0038362D02*
X0094235Y0038362D01*
X0094235Y0037764D02*
X0093635Y0037764D01*
X0093635Y0037165D02*
X0094235Y0037165D01*
X0094235Y0036567D02*
X0093635Y0036567D01*
X0093635Y0035968D02*
X0094235Y0035968D01*
X0094556Y0032976D02*
X0099146Y0032976D01*
X0099146Y0033574D02*
X0090425Y0033574D01*
X0090425Y0034173D02*
X0099146Y0034173D01*
X0099146Y0034771D02*
X0090425Y0034771D01*
X0090226Y0035370D02*
X0099146Y0035370D01*
X0099146Y0032377D02*
X0095135Y0032377D01*
X0095135Y0031779D02*
X0099146Y0031779D01*
X0099146Y0031180D02*
X0095135Y0031180D01*
X0095135Y0030582D02*
X0099146Y0030582D01*
X0099146Y0029983D02*
X0095135Y0029983D01*
X0095135Y0029385D02*
X0099146Y0029385D01*
X0099146Y0028786D02*
X0095135Y0028786D01*
X0095135Y0028188D02*
X0099146Y0028188D01*
X0099146Y0027589D02*
X0095135Y0027589D01*
X0095135Y0026991D02*
X0099146Y0026991D01*
X0099146Y0026392D02*
X0095135Y0026392D01*
X0095135Y0025794D02*
X0099146Y0025794D01*
X0099146Y0025195D02*
X0095135Y0025195D01*
X0095135Y0024596D02*
X0099146Y0024596D01*
X0099146Y0023998D02*
X0095135Y0023998D01*
X0095135Y0023399D02*
X0099146Y0023399D01*
X0099146Y0022801D02*
X0095135Y0022801D01*
X0095135Y0022202D02*
X0099146Y0022202D01*
X0099146Y0021604D02*
X0095135Y0021604D01*
X0095135Y0021005D02*
X0099146Y0021005D01*
X0099146Y0020407D02*
X0095135Y0020407D01*
X0095135Y0019808D02*
X0099146Y0019808D01*
X0099146Y0019210D02*
X0095135Y0019210D01*
X0095135Y0018611D02*
X0099146Y0018611D01*
X0099146Y0018013D02*
X0095135Y0018013D01*
X0095135Y0017414D02*
X0099146Y0017414D01*
X0099146Y0016816D02*
X0095135Y0016816D01*
X0095135Y0016217D02*
X0099146Y0016217D01*
X0099146Y0015619D02*
X0095135Y0015619D01*
X0095135Y0015020D02*
X0099146Y0015020D01*
X0093935Y0015020D02*
X0089210Y0015020D01*
X0089210Y0014422D02*
X0093935Y0014422D01*
X0093935Y0013823D02*
X0091235Y0013823D01*
X0090929Y0014130D02*
X0089539Y0014130D01*
X0089210Y0013801D01*
X0089210Y0027255D01*
X0086061Y0027255D01*
X0086061Y0031900D01*
X0093935Y0031900D01*
X0093935Y0013475D01*
X0091583Y0013475D01*
X0090929Y0014130D01*
X0089233Y0013823D02*
X0089210Y0013823D01*
X0089210Y0015619D02*
X0093935Y0015619D01*
X0093935Y0016217D02*
X0089210Y0016217D01*
X0089210Y0016816D02*
X0093935Y0016816D01*
X0093935Y0017414D02*
X0089210Y0017414D01*
X0089210Y0018013D02*
X0093935Y0018013D01*
X0093935Y0018611D02*
X0089210Y0018611D01*
X0089210Y0019210D02*
X0093935Y0019210D01*
X0093935Y0019808D02*
X0089210Y0019808D01*
X0089210Y0020407D02*
X0093935Y0020407D01*
X0093935Y0021005D02*
X0089210Y0021005D01*
X0089210Y0021604D02*
X0093935Y0021604D01*
X0093935Y0022202D02*
X0089210Y0022202D01*
X0089210Y0022801D02*
X0093935Y0022801D01*
X0093935Y0023399D02*
X0089210Y0023399D01*
X0089210Y0023998D02*
X0093935Y0023998D01*
X0093935Y0024596D02*
X0089210Y0024596D01*
X0089210Y0025195D02*
X0093935Y0025195D01*
X0093935Y0025794D02*
X0089210Y0025794D01*
X0089210Y0026392D02*
X0093935Y0026392D01*
X0093935Y0026991D02*
X0089210Y0026991D01*
X0086061Y0027589D02*
X0093935Y0027589D01*
X0093935Y0028188D02*
X0086061Y0028188D01*
X0086061Y0028786D02*
X0093935Y0028786D01*
X0093935Y0029385D02*
X0086061Y0029385D01*
X0086061Y0029983D02*
X0093935Y0029983D01*
X0093935Y0030582D02*
X0086061Y0030582D01*
X0086061Y0031180D02*
X0093935Y0031180D01*
X0093935Y0031779D02*
X0086061Y0031779D01*
X0087110Y0036567D02*
X0087520Y0036567D01*
X0087520Y0037165D02*
X0087161Y0037165D01*
X0087161Y0037764D02*
X0087520Y0037764D01*
X0089289Y0037373D02*
X0081848Y0037373D01*
X0081848Y0037530D01*
X0084880Y0041330D02*
X0084880Y0045365D01*
X0082517Y0047727D01*
X0083578Y0050332D02*
X0084683Y0050332D01*
X0084084Y0050931D02*
X0074423Y0050931D01*
X0075022Y0051530D02*
X0083901Y0051530D01*
X0083901Y0052128D02*
X0075620Y0052128D01*
X0076219Y0052727D02*
X0083901Y0052727D01*
X0084224Y0053325D02*
X0076637Y0053325D01*
X0076604Y0053924D02*
X0084823Y0053924D01*
X0085972Y0047938D02*
X0087866Y0047938D01*
X0087535Y0047340D02*
X0086570Y0047340D01*
X0087169Y0046741D02*
X0087520Y0046741D01*
X0072675Y0035370D02*
X0056927Y0035370D01*
X0056927Y0034771D02*
X0072675Y0034771D01*
X0072675Y0034173D02*
X0056927Y0034173D01*
X0056927Y0031979D02*
X0063226Y0031979D01*
X0063226Y0020362D01*
X0062798Y0019935D01*
X0062798Y0018276D01*
X0063226Y0017848D01*
X0063226Y0013475D01*
X0058040Y0013475D01*
X0057386Y0014130D01*
X0055996Y0014130D01*
X0055341Y0013475D01*
X0050638Y0013475D01*
X0049984Y0014130D01*
X0048594Y0014130D01*
X0048265Y0013801D01*
X0048265Y0017806D01*
X0058502Y0017806D01*
X0058502Y0027255D01*
X0056927Y0027255D01*
X0056927Y0031979D01*
X0056927Y0031779D02*
X0063226Y0031779D01*
X0063226Y0031180D02*
X0056927Y0031180D01*
X0056927Y0030582D02*
X0063226Y0030582D01*
X0063226Y0029983D02*
X0056927Y0029983D01*
X0056927Y0029385D02*
X0063226Y0029385D01*
X0063226Y0028786D02*
X0056927Y0028786D01*
X0056927Y0028188D02*
X0063226Y0028188D01*
X0063226Y0027589D02*
X0056927Y0027589D01*
X0058502Y0026991D02*
X0063226Y0026991D01*
X0063226Y0026392D02*
X0058502Y0026392D01*
X0058502Y0025794D02*
X0063226Y0025794D01*
X0063226Y0025195D02*
X0058502Y0025195D01*
X0058502Y0024596D02*
X0063226Y0024596D01*
X0063226Y0023998D02*
X0058502Y0023998D01*
X0058502Y0023399D02*
X0063226Y0023399D01*
X0063226Y0022801D02*
X0058502Y0022801D01*
X0058502Y0022202D02*
X0063226Y0022202D01*
X0063226Y0021604D02*
X0058502Y0021604D01*
X0058502Y0021005D02*
X0063226Y0021005D01*
X0063226Y0020407D02*
X0058502Y0020407D01*
X0058502Y0019808D02*
X0062798Y0019808D01*
X0062798Y0019210D02*
X0058502Y0019210D01*
X0058502Y0018611D02*
X0062798Y0018611D01*
X0063061Y0018013D02*
X0058502Y0018013D01*
X0057692Y0013823D02*
X0063226Y0013823D01*
X0063226Y0014422D02*
X0048265Y0014422D01*
X0048265Y0015020D02*
X0063226Y0015020D01*
X0063226Y0015619D02*
X0048265Y0015619D01*
X0048265Y0016217D02*
X0063226Y0016217D01*
X0063226Y0016816D02*
X0048265Y0016816D01*
X0048265Y0017414D02*
X0063226Y0017414D01*
X0064426Y0018312D02*
X0064426Y0019662D01*
X0065176Y0019662D01*
X0065176Y0018312D01*
X0064426Y0018312D01*
X0064426Y0018611D02*
X0065176Y0018611D01*
X0065176Y0019210D02*
X0064426Y0019210D01*
X0066376Y0020362D02*
X0066376Y0031979D01*
X0072675Y0031979D01*
X0072675Y0027255D01*
X0071100Y0027255D01*
X0071100Y0017412D01*
X0081730Y0017412D01*
X0081730Y0013475D01*
X0081662Y0013475D01*
X0081008Y0014130D01*
X0079618Y0014130D01*
X0078963Y0013475D01*
X0074260Y0013475D01*
X0073606Y0014130D01*
X0072216Y0014130D01*
X0071562Y0013475D01*
X0066376Y0013475D01*
X0066376Y0017848D01*
X0066803Y0018276D01*
X0066803Y0019935D01*
X0066376Y0020362D01*
X0066376Y0020407D02*
X0071100Y0020407D01*
X0071100Y0021005D02*
X0066376Y0021005D01*
X0066376Y0021604D02*
X0071100Y0021604D01*
X0071100Y0022202D02*
X0066376Y0022202D01*
X0066376Y0022801D02*
X0071100Y0022801D01*
X0071100Y0023399D02*
X0066376Y0023399D01*
X0066376Y0023998D02*
X0071100Y0023998D01*
X0071100Y0024596D02*
X0066376Y0024596D01*
X0066376Y0025195D02*
X0071100Y0025195D01*
X0071100Y0025794D02*
X0066376Y0025794D01*
X0066376Y0026392D02*
X0071100Y0026392D01*
X0071100Y0026991D02*
X0066376Y0026991D01*
X0066376Y0027589D02*
X0072675Y0027589D01*
X0072675Y0028188D02*
X0066376Y0028188D01*
X0066376Y0028786D02*
X0072675Y0028786D01*
X0072675Y0029385D02*
X0066376Y0029385D01*
X0066376Y0029983D02*
X0072675Y0029983D01*
X0072675Y0030582D02*
X0066376Y0030582D01*
X0066376Y0031180D02*
X0072675Y0031180D01*
X0072675Y0031779D02*
X0066376Y0031779D01*
X0059251Y0038362D02*
X0058806Y0038362D01*
X0058652Y0037764D02*
X0058027Y0037764D01*
X0058027Y0037165D02*
X0058054Y0037165D01*
X0050534Y0024780D02*
X0050534Y0022634D01*
X0049934Y0022634D01*
X0049934Y0024780D01*
X0050534Y0024780D01*
X0050534Y0024596D02*
X0049934Y0024596D01*
X0049934Y0023998D02*
X0050534Y0023998D01*
X0050534Y0023399D02*
X0049934Y0023399D01*
X0049934Y0022801D02*
X0050534Y0022801D01*
X0050534Y0022633D02*
X0056420Y0022633D01*
X0056420Y0022033D01*
X0050534Y0022033D01*
X0050534Y0019887D01*
X0049934Y0019887D01*
X0049934Y0022033D01*
X0050534Y0022033D01*
X0050534Y0022633D01*
X0050534Y0022202D02*
X0056420Y0022202D01*
X0050534Y0021604D02*
X0049934Y0021604D01*
X0049934Y0022033D02*
X0044047Y0022033D01*
X0044047Y0022633D01*
X0049934Y0022633D01*
X0049934Y0022033D01*
X0049934Y0022202D02*
X0044047Y0022202D01*
X0041179Y0022202D02*
X0035667Y0022202D01*
X0035667Y0021604D02*
X0041179Y0021604D01*
X0041179Y0021005D02*
X0035667Y0021005D01*
X0035667Y0020407D02*
X0041179Y0020407D01*
X0041179Y0019808D02*
X0035667Y0019808D01*
X0035667Y0019210D02*
X0041179Y0019210D01*
X0041179Y0018611D02*
X0035667Y0018611D01*
X0035667Y0018013D02*
X0041179Y0018013D01*
X0041179Y0017414D02*
X0035667Y0017414D01*
X0035667Y0016816D02*
X0041179Y0016816D01*
X0041179Y0016217D02*
X0035667Y0016217D01*
X0035667Y0015619D02*
X0041179Y0015619D01*
X0041179Y0015020D02*
X0035667Y0015020D01*
X0035667Y0014422D02*
X0041179Y0014422D01*
X0041179Y0013823D02*
X0040369Y0013823D01*
X0040063Y0014130D02*
X0038673Y0014130D01*
X0038018Y0013475D01*
X0035667Y0013475D01*
X0035667Y0031979D01*
X0043541Y0031979D01*
X0043541Y0027255D01*
X0041179Y0027255D01*
X0041179Y0013475D01*
X0040717Y0013475D01*
X0040063Y0014130D01*
X0038366Y0013823D02*
X0035667Y0013823D01*
X0035667Y0022801D02*
X0041179Y0022801D01*
X0041179Y0023399D02*
X0035667Y0023399D01*
X0035667Y0023998D02*
X0041179Y0023998D01*
X0041179Y0024596D02*
X0035667Y0024596D01*
X0035667Y0025195D02*
X0041179Y0025195D01*
X0041179Y0025794D02*
X0035667Y0025794D01*
X0035667Y0026392D02*
X0041179Y0026392D01*
X0041179Y0026991D02*
X0035667Y0026991D01*
X0035667Y0027589D02*
X0043541Y0027589D01*
X0043541Y0028188D02*
X0035667Y0028188D01*
X0035667Y0028786D02*
X0043541Y0028786D01*
X0043541Y0029385D02*
X0035667Y0029385D01*
X0035667Y0029983D02*
X0043541Y0029983D01*
X0043541Y0030582D02*
X0035667Y0030582D01*
X0035667Y0031180D02*
X0043541Y0031180D01*
X0043541Y0031779D02*
X0035667Y0031779D01*
X0038673Y0036443D02*
X0040063Y0036443D01*
X0040717Y0037097D01*
X0040785Y0037097D01*
X0040785Y0035522D01*
X0043935Y0035522D01*
X0043935Y0033948D01*
X0030943Y0033948D01*
X0030943Y0036772D01*
X0031271Y0036443D01*
X0032661Y0036443D01*
X0033315Y0037097D01*
X0038018Y0037097D01*
X0038673Y0036443D01*
X0038549Y0036567D02*
X0032785Y0036567D01*
X0031147Y0036567D02*
X0030943Y0036567D01*
X0030943Y0035968D02*
X0040785Y0035968D01*
X0040785Y0036567D02*
X0040187Y0036567D01*
X0043935Y0035370D02*
X0030943Y0035370D01*
X0030943Y0034771D02*
X0043935Y0034771D01*
X0043935Y0034173D02*
X0030943Y0034173D01*
X0049934Y0021005D02*
X0050534Y0021005D01*
X0050534Y0020407D02*
X0049934Y0020407D01*
X0050290Y0013823D02*
X0055689Y0013823D01*
X0048288Y0013823D02*
X0048265Y0013823D01*
X0066376Y0013823D02*
X0071910Y0013823D01*
X0073912Y0013823D02*
X0079311Y0013823D01*
X0081314Y0013823D02*
X0081730Y0013823D01*
X0081730Y0014422D02*
X0066376Y0014422D01*
X0066376Y0015020D02*
X0081730Y0015020D01*
X0081730Y0015619D02*
X0066376Y0015619D01*
X0066376Y0016217D02*
X0081730Y0016217D01*
X0081730Y0016816D02*
X0066376Y0016816D01*
X0066376Y0017414D02*
X0071100Y0017414D01*
X0071100Y0018013D02*
X0066540Y0018013D01*
X0066803Y0018611D02*
X0071100Y0018611D01*
X0071100Y0019210D02*
X0066803Y0019210D01*
X0066803Y0019808D02*
X0071100Y0019808D01*
X0073181Y0022033D02*
X0073181Y0022633D01*
X0079068Y0022633D01*
X0079068Y0022033D01*
X0079068Y0019887D01*
X0079668Y0019887D01*
X0079668Y0022033D01*
X0079068Y0022033D01*
X0073181Y0022033D01*
X0073181Y0022202D02*
X0079068Y0022202D01*
X0079068Y0022634D02*
X0079068Y0024780D01*
X0079668Y0024780D01*
X0079668Y0022634D01*
X0079068Y0022634D01*
X0079068Y0022801D02*
X0079668Y0022801D01*
X0079668Y0022633D02*
X0085554Y0022633D01*
X0085554Y0022033D01*
X0079668Y0022033D01*
X0079668Y0022633D01*
X0079668Y0022202D02*
X0085554Y0022202D01*
X0079668Y0021604D02*
X0079068Y0021604D01*
X0079068Y0021005D02*
X0079668Y0021005D01*
X0079668Y0020407D02*
X0079068Y0020407D01*
X0079068Y0023399D02*
X0079668Y0023399D01*
X0079668Y0023998D02*
X0079068Y0023998D01*
X0079068Y0024596D02*
X0079668Y0024596D01*
X0062119Y0058113D02*
X0043166Y0058113D01*
X0043166Y0058712D02*
X0045587Y0058712D01*
X0045394Y0059310D02*
X0043166Y0059310D01*
X0043166Y0059909D02*
X0045394Y0059909D01*
X0045394Y0060507D02*
X0043166Y0060507D01*
X0049702Y0063500D02*
X0054907Y0063500D01*
X0054874Y0064098D02*
X0055834Y0064098D01*
X0055236Y0064697D02*
X0054874Y0064697D01*
X0054874Y0065295D02*
X0054924Y0065295D01*
X0054924Y0065894D02*
X0054874Y0065894D01*
X0054874Y0066492D02*
X0054924Y0066492D01*
X0054874Y0067091D02*
X0055348Y0067091D01*
X0054874Y0067689D02*
X0055947Y0067689D01*
X0054568Y0068288D02*
X0057680Y0068288D01*
X0058279Y0068886D02*
X0054737Y0068886D01*
X0054795Y0069485D02*
X0058877Y0069485D01*
X0059476Y0070083D02*
X0054795Y0070083D01*
X0054717Y0070682D02*
X0060074Y0070682D01*
X0060673Y0071280D02*
X0059391Y0071280D01*
X0059602Y0071879D02*
X0061271Y0071879D01*
X0061870Y0072477D02*
X0059602Y0072477D01*
X0059602Y0073674D02*
X0063067Y0073674D01*
X0062468Y0073076D02*
X0057611Y0073076D01*
X0057030Y0073076D02*
X0055465Y0073076D01*
X0054250Y0073318D02*
X0053383Y0073318D01*
X0054250Y0073318D02*
X0054250Y0080877D01*
X0052104Y0083022D01*
X0050023Y0083251D02*
X0047103Y0083251D01*
X0047103Y0083849D02*
X0050023Y0083849D01*
X0050023Y0084448D02*
X0047103Y0084448D01*
X0047103Y0085046D02*
X0050197Y0085046D01*
X0051390Y0086243D02*
X0048124Y0086243D01*
X0047526Y0085645D02*
X0053533Y0085645D01*
X0054010Y0085046D02*
X0054131Y0085046D01*
X0054185Y0084448D02*
X0054730Y0084448D01*
X0054185Y0083849D02*
X0055328Y0083849D01*
X0056061Y0084814D02*
X0053383Y0087491D01*
X0053383Y0088081D01*
X0051302Y0088039D02*
X0049920Y0088039D01*
X0050518Y0088637D02*
X0051302Y0088637D01*
X0051302Y0089236D02*
X0051117Y0089236D01*
X0051302Y0087440D02*
X0049321Y0087440D01*
X0048723Y0086842D02*
X0051302Y0086842D01*
X0054185Y0083251D02*
X0056519Y0083251D01*
X0056519Y0082652D02*
X0054185Y0082652D01*
X0054770Y0082054D02*
X0056519Y0082054D01*
X0056519Y0081455D02*
X0055368Y0081455D01*
X0055450Y0080857D02*
X0056670Y0080857D01*
X0056336Y0080258D02*
X0055450Y0080258D01*
X0055450Y0079660D02*
X0056319Y0079660D01*
X0056319Y0079061D02*
X0055450Y0079061D01*
X0055450Y0076667D02*
X0056397Y0076667D01*
X0058309Y0076667D02*
X0058891Y0076667D01*
X0058891Y0077265D02*
X0058309Y0077265D01*
X0058309Y0077864D02*
X0058891Y0077864D01*
X0058891Y0078283D02*
X0058891Y0075997D01*
X0059926Y0075997D01*
X0060206Y0076072D01*
X0060457Y0076217D01*
X0060661Y0076422D01*
X0060806Y0076673D01*
X0060881Y0076952D01*
X0060881Y0078283D01*
X0058891Y0078283D01*
X0058891Y0076068D02*
X0058309Y0076068D01*
X0059283Y0075470D02*
X0064862Y0075470D01*
X0064979Y0076068D02*
X0060192Y0076068D01*
X0060803Y0076667D02*
X0064979Y0076667D01*
X0064979Y0077265D02*
X0060881Y0077265D01*
X0060881Y0077864D02*
X0064979Y0077864D01*
X0064779Y0079443D02*
X0064779Y0082744D01*
X0061477Y0082744D01*
X0060950Y0083272D01*
X0060950Y0084972D01*
X0060825Y0085188D01*
X0060750Y0085468D01*
X0060750Y0086113D01*
X0063350Y0086113D01*
X0063350Y0086113D01*
X0063350Y0088081D02*
X0057320Y0088081D01*
X0059402Y0086842D02*
X0060772Y0086842D01*
X0060750Y0086243D02*
X0059841Y0086243D01*
X0060189Y0085645D02*
X0060750Y0085645D01*
X0060907Y0085046D02*
X0060507Y0085046D01*
X0060681Y0084448D02*
X0060950Y0084448D01*
X0060950Y0083849D02*
X0060681Y0083849D01*
X0060681Y0083251D02*
X0060971Y0083251D01*
X0060681Y0082652D02*
X0064779Y0082652D01*
X0064779Y0082054D02*
X0060681Y0082054D01*
X0060681Y0081455D02*
X0064779Y0081455D01*
X0064779Y0080857D02*
X0060530Y0080857D01*
X0060864Y0080258D02*
X0064779Y0080258D01*
X0066179Y0081316D02*
X0066179Y0075089D01*
X0056927Y0065837D01*
X0058019Y0064098D02*
X0058984Y0064098D01*
X0060076Y0065837D02*
X0068147Y0073908D01*
X0068147Y0081316D01*
X0070800Y0084454D02*
X0070800Y0088766D01*
X0071400Y0088766D01*
X0071400Y0084454D01*
X0070800Y0084454D01*
X0070800Y0085046D02*
X0071400Y0085046D01*
X0071400Y0085645D02*
X0070800Y0085645D01*
X0070800Y0086243D02*
X0071400Y0086243D01*
X0071400Y0086842D02*
X0070800Y0086842D01*
X0070800Y0087440D02*
X0071400Y0087440D01*
X0071400Y0088039D02*
X0070800Y0088039D01*
X0070800Y0088637D02*
X0071400Y0088637D01*
X0071400Y0089834D02*
X0070800Y0089834D01*
X0070800Y0090433D02*
X0071400Y0090433D01*
X0071400Y0091031D02*
X0070800Y0091031D01*
X0070800Y0091630D02*
X0071400Y0091630D01*
X0071400Y0092228D02*
X0070800Y0092228D01*
X0070800Y0092827D02*
X0071400Y0092827D01*
X0071400Y0093425D02*
X0070800Y0093425D01*
X0074053Y0095819D02*
X0074053Y0095819D01*
X0074053Y0097615D02*
X0074053Y0097615D01*
X0074053Y0098213D02*
X0074053Y0098213D01*
X0074053Y0098812D02*
X0074053Y0098812D01*
X0074053Y0099410D02*
X0074053Y0099410D01*
X0074717Y0099410D02*
X0083534Y0099410D01*
X0082936Y0098812D02*
X0077298Y0098812D01*
X0076021Y0097530D02*
X0076021Y0096816D01*
X0076021Y0097530D02*
X0084486Y0097530D01*
X0086036Y0098812D02*
X0086420Y0098812D01*
X0086420Y0099410D02*
X0085437Y0099410D01*
X0086420Y0100009D02*
X0072098Y0100009D01*
X0072098Y0100607D02*
X0074624Y0100607D01*
X0074334Y0101206D02*
X0072098Y0101206D01*
X0072749Y0099410D02*
X0073388Y0099410D01*
X0078850Y0093987D02*
X0079958Y0093987D01*
X0080155Y0094184D01*
X0082872Y0094184D01*
X0083698Y0094971D01*
X0086021Y0094971D01*
X0086021Y0094972D02*
X0086031Y0094973D01*
X0086041Y0094977D01*
X0086049Y0094983D01*
X0086055Y0094992D01*
X0086059Y0095001D01*
X0086060Y0095011D01*
X0087485Y0096418D02*
X0099146Y0096418D01*
X0099146Y0097016D02*
X0086488Y0097016D01*
X0086488Y0097615D02*
X0087318Y0097615D01*
X0086719Y0098213D02*
X0086488Y0098213D01*
X0088063Y0095819D02*
X0099146Y0095819D01*
X0099146Y0095221D02*
X0088063Y0095221D01*
X0088063Y0094622D02*
X0099146Y0094622D01*
X0099146Y0094024D02*
X0089289Y0094024D01*
X0089887Y0093425D02*
X0099146Y0093425D01*
X0099146Y0092827D02*
X0090031Y0092827D01*
X0090031Y0092228D02*
X0099146Y0092228D01*
X0099146Y0091630D02*
X0091132Y0091630D01*
X0091730Y0091031D02*
X0099146Y0091031D01*
X0099146Y0090433D02*
X0092000Y0090433D01*
X0092000Y0089834D02*
X0099146Y0089834D01*
X0099146Y0089236D02*
X0093565Y0089236D01*
X0094163Y0088637D02*
X0099146Y0088637D01*
X0099146Y0088039D02*
X0094362Y0088039D01*
X0094362Y0087440D02*
X0099146Y0087440D01*
X0099146Y0086842D02*
X0094362Y0086842D01*
X0093826Y0086243D02*
X0099146Y0086243D01*
X0099146Y0085645D02*
X0094101Y0085645D01*
X0094244Y0085046D02*
X0099146Y0085046D01*
X0099146Y0084448D02*
X0094244Y0084448D01*
X0094244Y0083849D02*
X0099146Y0083849D01*
X0099146Y0083251D02*
X0094244Y0083251D01*
X0094244Y0082652D02*
X0099146Y0082652D01*
X0099146Y0082054D02*
X0094038Y0082054D01*
X0094412Y0081455D02*
X0099146Y0081455D01*
X0099146Y0080857D02*
X0094444Y0080857D01*
X0094444Y0079660D02*
X0099146Y0079660D01*
X0099146Y0080258D02*
X0092257Y0080258D01*
X0091676Y0080258D02*
X0083856Y0080258D01*
X0081359Y0082652D02*
X0080831Y0082652D01*
X0082911Y0086113D02*
X0084486Y0084735D01*
X0082911Y0086113D02*
X0078850Y0086113D01*
X0078850Y0088081D02*
X0088423Y0088081D01*
X0088895Y0087609D01*
X0092360Y0087609D01*
X0089998Y0089932D02*
X0089880Y0090050D01*
X0078850Y0090050D01*
X0078850Y0092019D02*
X0087596Y0092019D01*
X0088029Y0092452D01*
X0089528Y0097615D02*
X0099146Y0097615D01*
X0099146Y0098213D02*
X0090127Y0098213D01*
X0090425Y0098812D02*
X0099146Y0098812D01*
X0099146Y0099410D02*
X0090425Y0099410D01*
X0090425Y0100009D02*
X0099146Y0100009D01*
X0099146Y0100607D02*
X0095332Y0100607D01*
X0095622Y0101206D02*
X0099146Y0101206D01*
X0099146Y0101804D02*
X0095622Y0101804D01*
X0095622Y0102403D02*
X0099146Y0102403D01*
X0099146Y0103001D02*
X0095622Y0103001D01*
X0095622Y0103600D02*
X0099146Y0103600D01*
X0099146Y0104198D02*
X0095622Y0104198D01*
X0095622Y0104797D02*
X0099146Y0104797D01*
X0099146Y0105396D02*
X0095622Y0105396D01*
X0095622Y0105994D02*
X0099146Y0105994D01*
X0099146Y0106593D02*
X0095622Y0106593D01*
X0095622Y0107191D02*
X0099146Y0107191D01*
X0099146Y0079061D02*
X0094444Y0079061D01*
X0094385Y0078463D02*
X0099146Y0078463D01*
X0099146Y0077864D02*
X0093872Y0077864D01*
X0092257Y0079660D02*
X0091676Y0079660D01*
X0075704Y0073674D02*
X0075682Y0073674D01*
X0071802Y0073674D02*
X0071548Y0073674D01*
X0071802Y0073076D02*
X0069012Y0073076D01*
X0068413Y0072477D02*
X0071802Y0072477D01*
X0071802Y0071879D02*
X0067815Y0071879D01*
X0067216Y0071280D02*
X0071802Y0071280D01*
X0071802Y0070682D02*
X0066618Y0070682D01*
X0066019Y0070083D02*
X0071802Y0070083D01*
X0071802Y0069485D02*
X0065421Y0069485D01*
X0063665Y0074273D02*
X0059602Y0074273D01*
X0059593Y0074871D02*
X0064264Y0074871D01*
X0057611Y0072477D02*
X0057030Y0072477D01*
X0057030Y0071879D02*
X0057611Y0071879D01*
X0057611Y0071280D02*
X0057030Y0071280D01*
X0055250Y0071280D02*
X0055178Y0071280D01*
X0050624Y0068288D02*
X0049844Y0068288D01*
X0050150Y0067689D02*
X0050318Y0067689D01*
X0050318Y0067091D02*
X0050150Y0067091D01*
X0050150Y0066492D02*
X0050318Y0066492D01*
X0050318Y0065894D02*
X0050150Y0065894D01*
X0050150Y0065295D02*
X0050318Y0065295D01*
X0050318Y0064697D02*
X0050150Y0064697D01*
X0050150Y0064098D02*
X0050318Y0064098D01*
X0050278Y0062901D02*
X0050356Y0062901D01*
X0052596Y0060916D02*
X0053187Y0061507D01*
X0055746Y0061507D01*
X0056979Y0059909D02*
X0066735Y0059909D01*
X0067269Y0060507D02*
X0057578Y0060507D01*
X0057748Y0061106D02*
X0067867Y0061106D01*
X0065888Y0062303D02*
X0065288Y0062303D01*
X0065288Y0062901D02*
X0065888Y0062901D01*
X0065888Y0063500D02*
X0065288Y0063500D01*
X0065288Y0064098D02*
X0065888Y0064098D01*
X0050575Y0058712D02*
X0050156Y0058712D01*
X0050080Y0076667D02*
X0047103Y0076667D01*
X0047103Y0077265D02*
X0050023Y0077265D01*
X0050023Y0077864D02*
X0047103Y0077864D01*
X0047103Y0078463D02*
X0050023Y0078463D01*
X0050023Y0079061D02*
X0047103Y0079061D01*
X0047103Y0079660D02*
X0050023Y0079660D01*
X0050023Y0080258D02*
X0047103Y0080258D01*
X0047103Y0080857D02*
X0050340Y0080857D01*
X0050023Y0081455D02*
X0047103Y0081455D01*
X0047103Y0082054D02*
X0050023Y0082054D01*
X0050023Y0082652D02*
X0047103Y0082652D01*
X0056061Y0084814D02*
X0056809Y0084814D01*
X0058600Y0083022D01*
X0056027Y0106593D02*
X0035273Y0106593D01*
X0035273Y0107191D02*
X0056027Y0107191D01*
D35*
X0054958Y0106389D03*
X0049053Y0102058D03*
X0049250Y0096940D03*
X0049919Y0093987D03*
X0052006Y0091822D03*
X0048659Y0085522D03*
X0045116Y0089066D03*
X0045903Y0073711D03*
X0052793Y0069774D03*
X0056927Y0065837D03*
X0060076Y0065837D03*
X0055746Y0061507D03*
X0054171Y0055207D03*
X0050628Y0055601D03*
X0044328Y0055207D03*
X0038817Y0055207D03*
X0044328Y0060719D03*
X0052202Y0048908D03*
X0058108Y0055207D03*
X0062045Y0053633D03*
X0064013Y0057176D03*
X0068738Y0059144D03*
X0072281Y0060129D03*
X0078187Y0065444D03*
X0081021Y0062333D03*
X0083305Y0064814D03*
X0085273Y0068593D03*
X0091572Y0068200D03*
X0093069Y0076349D03*
X0088817Y0076861D03*
X0088817Y0082688D03*
X0088817Y0085522D03*
X0092360Y0087609D03*
X0093147Y0090641D03*
X0089998Y0089932D03*
X0088029Y0092452D03*
X0086061Y0095011D03*
X0084486Y0097530D03*
X0088423Y0099341D03*
X0075037Y0090641D03*
X0071100Y0088672D03*
X0067163Y0090641D03*
X0067163Y0086310D03*
X0075037Y0085129D03*
X0078620Y0081704D03*
X0078423Y0071861D03*
X0070313Y0072137D03*
X0061651Y0073711D03*
X0062045Y0078436D03*
X0073462Y0100877D03*
X0064210Y0101428D03*
X0080155Y0053633D03*
X0069525Y0045759D03*
X0069722Y0042019D03*
X0077793Y0039066D03*
X0088423Y0034341D03*
X0097793Y0016900D03*
X0064801Y0019105D03*
X0049840Y0038672D03*
X0060470Y0042609D03*
X0061651Y0048593D03*
D36*
X0052596Y0066034D02*
X0052793Y0066231D01*
X0052793Y0069774D01*
X0052793Y0073318D01*
X0053383Y0073318D01*
X0052104Y0083022D02*
X0052104Y0083160D01*
X0049919Y0093987D02*
X0052754Y0096822D01*
X0053265Y0101940D02*
X0058108Y0101940D01*
X0058108Y0101270D01*
X0058108Y0101940D02*
X0061848Y0101940D01*
X0045509Y0102303D02*
X0035273Y0102303D01*
X0035273Y0103301D02*
X0045509Y0103301D01*
X0045509Y0104300D02*
X0035273Y0104300D01*
X0035273Y0105298D02*
X0045509Y0105298D01*
X0045509Y0106297D02*
X0035273Y0106297D01*
X0035273Y0107251D02*
X0045509Y0107251D01*
X0045509Y0096940D01*
X0035273Y0096940D01*
X0035273Y0107251D01*
X0035273Y0101304D02*
X0045509Y0101304D01*
X0045509Y0100306D02*
X0035273Y0100306D01*
X0035273Y0099307D02*
X0045509Y0099307D01*
X0045509Y0098309D02*
X0035273Y0098309D01*
X0035273Y0097310D02*
X0045509Y0097310D01*
X0074053Y0081316D02*
X0074053Y0076861D01*
X0073856Y0075680D01*
X0076021Y0079223D02*
X0082911Y0079223D01*
X0084486Y0077648D01*
X0083698Y0077648D01*
X0076021Y0079223D02*
X0076021Y0081316D01*
X0091966Y0083948D02*
X0092360Y0083948D01*
X0092360Y0087609D01*
X0089210Y0051270D02*
X0089210Y0047455D01*
X0089368Y0047613D01*
X0091100Y0047613D01*
X0092324Y0046388D01*
X0092324Y0046152D01*
X0095545Y0046152D01*
X0095545Y0046388D01*
X0096769Y0047613D01*
X0098501Y0047613D01*
X0098734Y0047380D01*
X0098734Y0051270D01*
X0089210Y0051270D01*
X0089210Y0050380D02*
X0098734Y0050380D01*
X0098734Y0049382D02*
X0089210Y0049382D01*
X0089210Y0048383D02*
X0098734Y0048383D01*
X0098730Y0047385D02*
X0098734Y0047385D01*
X0096541Y0047385D02*
X0091328Y0047385D01*
X0092324Y0046386D02*
X0095545Y0046386D01*
D37*
X0084880Y0024105D03*
X0083502Y0022333D03*
X0084880Y0020562D03*
X0082124Y0020562D03*
X0080746Y0022333D03*
X0079368Y0020562D03*
X0077990Y0022333D03*
X0076612Y0020562D03*
X0075234Y0022333D03*
X0073856Y0020562D03*
X0073856Y0024105D03*
X0076612Y0024105D03*
X0079368Y0024105D03*
X0082124Y0024105D03*
X0060864Y0036310D03*
X0055746Y0024105D03*
X0054368Y0022333D03*
X0055746Y0020562D03*
X0052990Y0020562D03*
X0051612Y0022333D03*
X0050234Y0020562D03*
X0048856Y0022333D03*
X0047478Y0020562D03*
X0046100Y0022333D03*
X0044722Y0020562D03*
X0044722Y0024105D03*
X0047478Y0024105D03*
X0050234Y0024105D03*
X0052990Y0024105D03*
X0046691Y0046546D03*
D38*
X0092635Y0042373D02*
X0092635Y0034105D01*
X0098029Y0032373D02*
X0098029Y0040641D01*
D39*
X0088423Y0034341D02*
X0088029Y0034735D01*
X0079368Y0034735D01*
X0078187Y0065444D02*
X0073265Y0065444D01*
X0073265Y0066034D01*
X0072675Y0065444D01*
X0073502Y0065444D01*
X0073502Y0075326D01*
X0073856Y0075680D01*
X0084486Y0077648D02*
X0085273Y0077648D01*
X0085273Y0068593D01*
X0085273Y0072137D01*
X0085667Y0072137D01*
X0077202Y0104617D02*
X0077202Y0105601D01*
X0070116Y0105601D01*
D40*
X0086179Y0052058D03*
D41*
X0070116Y0096816D02*
X0070116Y0100877D01*
M02*
