G75*
%MOIN*%
%OFA0B0*%
%FSLAX25Y25*%
%IPPOS*%
%LPD*%
%AMOC8*
5,1,8,0,0,1.08239X$1,22.5*
%
%ADD10C,0.00000*%
%ADD11C,0.00344*%
%ADD12R,0.21260X0.21260*%
%ADD13R,0.02362X0.02756*%
%ADD14R,0.03937X0.06693*%
%ADD15R,0.02756X0.02362*%
%ADD16C,0.07400*%
%ADD17R,0.02756X0.03543*%
%ADD18R,0.10630X0.10630*%
%ADD19R,0.03150X0.04724*%
%ADD20R,0.04724X0.03150*%
%ADD21R,0.02323X0.05709*%
%ADD22R,0.03268X0.02480*%
%ADD23C,0.00600*%
%ADD24OC8,0.02205*%
%ADD25C,0.01000*%
%ADD26R,0.02205X0.02205*%
%ADD27C,0.02362*%
%ADD28OC8,0.03150*%
%ADD29C,0.01600*%
%ADD30C,0.01200*%
%ADD31C,0.00800*%
D10*
X0029368Y0021236D02*
X0029368Y0127535D01*
X0100234Y0127535D01*
X0100234Y0021236D01*
X0029368Y0021236D01*
X0031375Y0023835D02*
X0031377Y0023883D01*
X0031383Y0023931D01*
X0031393Y0023978D01*
X0031406Y0024024D01*
X0031424Y0024069D01*
X0031444Y0024113D01*
X0031469Y0024155D01*
X0031497Y0024194D01*
X0031527Y0024231D01*
X0031561Y0024265D01*
X0031598Y0024297D01*
X0031636Y0024326D01*
X0031677Y0024351D01*
X0031720Y0024373D01*
X0031765Y0024391D01*
X0031811Y0024405D01*
X0031858Y0024416D01*
X0031906Y0024423D01*
X0031954Y0024426D01*
X0032002Y0024425D01*
X0032050Y0024420D01*
X0032098Y0024411D01*
X0032144Y0024399D01*
X0032189Y0024382D01*
X0032233Y0024362D01*
X0032275Y0024339D01*
X0032315Y0024312D01*
X0032353Y0024282D01*
X0032388Y0024249D01*
X0032420Y0024213D01*
X0032450Y0024175D01*
X0032476Y0024134D01*
X0032498Y0024091D01*
X0032518Y0024047D01*
X0032533Y0024002D01*
X0032545Y0023955D01*
X0032553Y0023907D01*
X0032557Y0023859D01*
X0032557Y0023811D01*
X0032553Y0023763D01*
X0032545Y0023715D01*
X0032533Y0023668D01*
X0032518Y0023623D01*
X0032498Y0023579D01*
X0032476Y0023536D01*
X0032450Y0023495D01*
X0032420Y0023457D01*
X0032388Y0023421D01*
X0032353Y0023388D01*
X0032315Y0023358D01*
X0032275Y0023331D01*
X0032233Y0023308D01*
X0032189Y0023288D01*
X0032144Y0023271D01*
X0032098Y0023259D01*
X0032050Y0023250D01*
X0032002Y0023245D01*
X0031954Y0023244D01*
X0031906Y0023247D01*
X0031858Y0023254D01*
X0031811Y0023265D01*
X0031765Y0023279D01*
X0031720Y0023297D01*
X0031677Y0023319D01*
X0031636Y0023344D01*
X0031598Y0023373D01*
X0031561Y0023405D01*
X0031527Y0023439D01*
X0031497Y0023476D01*
X0031469Y0023515D01*
X0031444Y0023557D01*
X0031424Y0023601D01*
X0031406Y0023646D01*
X0031393Y0023692D01*
X0031383Y0023739D01*
X0031377Y0023787D01*
X0031375Y0023835D01*
X0031375Y0031236D02*
X0031377Y0031284D01*
X0031383Y0031332D01*
X0031393Y0031379D01*
X0031406Y0031425D01*
X0031424Y0031470D01*
X0031444Y0031514D01*
X0031469Y0031556D01*
X0031497Y0031595D01*
X0031527Y0031632D01*
X0031561Y0031666D01*
X0031598Y0031698D01*
X0031636Y0031727D01*
X0031677Y0031752D01*
X0031720Y0031774D01*
X0031765Y0031792D01*
X0031811Y0031806D01*
X0031858Y0031817D01*
X0031906Y0031824D01*
X0031954Y0031827D01*
X0032002Y0031826D01*
X0032050Y0031821D01*
X0032098Y0031812D01*
X0032144Y0031800D01*
X0032189Y0031783D01*
X0032233Y0031763D01*
X0032275Y0031740D01*
X0032315Y0031713D01*
X0032353Y0031683D01*
X0032388Y0031650D01*
X0032420Y0031614D01*
X0032450Y0031576D01*
X0032476Y0031535D01*
X0032498Y0031492D01*
X0032518Y0031448D01*
X0032533Y0031403D01*
X0032545Y0031356D01*
X0032553Y0031308D01*
X0032557Y0031260D01*
X0032557Y0031212D01*
X0032553Y0031164D01*
X0032545Y0031116D01*
X0032533Y0031069D01*
X0032518Y0031024D01*
X0032498Y0030980D01*
X0032476Y0030937D01*
X0032450Y0030896D01*
X0032420Y0030858D01*
X0032388Y0030822D01*
X0032353Y0030789D01*
X0032315Y0030759D01*
X0032275Y0030732D01*
X0032233Y0030709D01*
X0032189Y0030689D01*
X0032144Y0030672D01*
X0032098Y0030660D01*
X0032050Y0030651D01*
X0032002Y0030646D01*
X0031954Y0030645D01*
X0031906Y0030648D01*
X0031858Y0030655D01*
X0031811Y0030666D01*
X0031765Y0030680D01*
X0031720Y0030698D01*
X0031677Y0030720D01*
X0031636Y0030745D01*
X0031598Y0030774D01*
X0031561Y0030806D01*
X0031527Y0030840D01*
X0031497Y0030877D01*
X0031469Y0030916D01*
X0031444Y0030958D01*
X0031424Y0031002D01*
X0031406Y0031047D01*
X0031393Y0031093D01*
X0031383Y0031140D01*
X0031377Y0031188D01*
X0031375Y0031236D01*
X0038777Y0031236D02*
X0038779Y0031284D01*
X0038785Y0031332D01*
X0038795Y0031379D01*
X0038808Y0031425D01*
X0038826Y0031470D01*
X0038846Y0031514D01*
X0038871Y0031556D01*
X0038899Y0031595D01*
X0038929Y0031632D01*
X0038963Y0031666D01*
X0039000Y0031698D01*
X0039038Y0031727D01*
X0039079Y0031752D01*
X0039122Y0031774D01*
X0039167Y0031792D01*
X0039213Y0031806D01*
X0039260Y0031817D01*
X0039308Y0031824D01*
X0039356Y0031827D01*
X0039404Y0031826D01*
X0039452Y0031821D01*
X0039500Y0031812D01*
X0039546Y0031800D01*
X0039591Y0031783D01*
X0039635Y0031763D01*
X0039677Y0031740D01*
X0039717Y0031713D01*
X0039755Y0031683D01*
X0039790Y0031650D01*
X0039822Y0031614D01*
X0039852Y0031576D01*
X0039878Y0031535D01*
X0039900Y0031492D01*
X0039920Y0031448D01*
X0039935Y0031403D01*
X0039947Y0031356D01*
X0039955Y0031308D01*
X0039959Y0031260D01*
X0039959Y0031212D01*
X0039955Y0031164D01*
X0039947Y0031116D01*
X0039935Y0031069D01*
X0039920Y0031024D01*
X0039900Y0030980D01*
X0039878Y0030937D01*
X0039852Y0030896D01*
X0039822Y0030858D01*
X0039790Y0030822D01*
X0039755Y0030789D01*
X0039717Y0030759D01*
X0039677Y0030732D01*
X0039635Y0030709D01*
X0039591Y0030689D01*
X0039546Y0030672D01*
X0039500Y0030660D01*
X0039452Y0030651D01*
X0039404Y0030646D01*
X0039356Y0030645D01*
X0039308Y0030648D01*
X0039260Y0030655D01*
X0039213Y0030666D01*
X0039167Y0030680D01*
X0039122Y0030698D01*
X0039079Y0030720D01*
X0039038Y0030745D01*
X0039000Y0030774D01*
X0038963Y0030806D01*
X0038929Y0030840D01*
X0038899Y0030877D01*
X0038871Y0030916D01*
X0038846Y0030958D01*
X0038826Y0031002D01*
X0038808Y0031047D01*
X0038795Y0031093D01*
X0038785Y0031140D01*
X0038779Y0031188D01*
X0038777Y0031236D01*
X0038777Y0023835D02*
X0038779Y0023883D01*
X0038785Y0023931D01*
X0038795Y0023978D01*
X0038808Y0024024D01*
X0038826Y0024069D01*
X0038846Y0024113D01*
X0038871Y0024155D01*
X0038899Y0024194D01*
X0038929Y0024231D01*
X0038963Y0024265D01*
X0039000Y0024297D01*
X0039038Y0024326D01*
X0039079Y0024351D01*
X0039122Y0024373D01*
X0039167Y0024391D01*
X0039213Y0024405D01*
X0039260Y0024416D01*
X0039308Y0024423D01*
X0039356Y0024426D01*
X0039404Y0024425D01*
X0039452Y0024420D01*
X0039500Y0024411D01*
X0039546Y0024399D01*
X0039591Y0024382D01*
X0039635Y0024362D01*
X0039677Y0024339D01*
X0039717Y0024312D01*
X0039755Y0024282D01*
X0039790Y0024249D01*
X0039822Y0024213D01*
X0039852Y0024175D01*
X0039878Y0024134D01*
X0039900Y0024091D01*
X0039920Y0024047D01*
X0039935Y0024002D01*
X0039947Y0023955D01*
X0039955Y0023907D01*
X0039959Y0023859D01*
X0039959Y0023811D01*
X0039955Y0023763D01*
X0039947Y0023715D01*
X0039935Y0023668D01*
X0039920Y0023623D01*
X0039900Y0023579D01*
X0039878Y0023536D01*
X0039852Y0023495D01*
X0039822Y0023457D01*
X0039790Y0023421D01*
X0039755Y0023388D01*
X0039717Y0023358D01*
X0039677Y0023331D01*
X0039635Y0023308D01*
X0039591Y0023288D01*
X0039546Y0023271D01*
X0039500Y0023259D01*
X0039452Y0023250D01*
X0039404Y0023245D01*
X0039356Y0023244D01*
X0039308Y0023247D01*
X0039260Y0023254D01*
X0039213Y0023265D01*
X0039167Y0023279D01*
X0039122Y0023297D01*
X0039079Y0023319D01*
X0039038Y0023344D01*
X0039000Y0023373D01*
X0038963Y0023405D01*
X0038929Y0023439D01*
X0038899Y0023476D01*
X0038871Y0023515D01*
X0038846Y0023557D01*
X0038826Y0023601D01*
X0038808Y0023646D01*
X0038795Y0023692D01*
X0038785Y0023739D01*
X0038779Y0023787D01*
X0038777Y0023835D01*
X0048698Y0023835D02*
X0048700Y0023883D01*
X0048706Y0023931D01*
X0048716Y0023978D01*
X0048729Y0024024D01*
X0048747Y0024069D01*
X0048767Y0024113D01*
X0048792Y0024155D01*
X0048820Y0024194D01*
X0048850Y0024231D01*
X0048884Y0024265D01*
X0048921Y0024297D01*
X0048959Y0024326D01*
X0049000Y0024351D01*
X0049043Y0024373D01*
X0049088Y0024391D01*
X0049134Y0024405D01*
X0049181Y0024416D01*
X0049229Y0024423D01*
X0049277Y0024426D01*
X0049325Y0024425D01*
X0049373Y0024420D01*
X0049421Y0024411D01*
X0049467Y0024399D01*
X0049512Y0024382D01*
X0049556Y0024362D01*
X0049598Y0024339D01*
X0049638Y0024312D01*
X0049676Y0024282D01*
X0049711Y0024249D01*
X0049743Y0024213D01*
X0049773Y0024175D01*
X0049799Y0024134D01*
X0049821Y0024091D01*
X0049841Y0024047D01*
X0049856Y0024002D01*
X0049868Y0023955D01*
X0049876Y0023907D01*
X0049880Y0023859D01*
X0049880Y0023811D01*
X0049876Y0023763D01*
X0049868Y0023715D01*
X0049856Y0023668D01*
X0049841Y0023623D01*
X0049821Y0023579D01*
X0049799Y0023536D01*
X0049773Y0023495D01*
X0049743Y0023457D01*
X0049711Y0023421D01*
X0049676Y0023388D01*
X0049638Y0023358D01*
X0049598Y0023331D01*
X0049556Y0023308D01*
X0049512Y0023288D01*
X0049467Y0023271D01*
X0049421Y0023259D01*
X0049373Y0023250D01*
X0049325Y0023245D01*
X0049277Y0023244D01*
X0049229Y0023247D01*
X0049181Y0023254D01*
X0049134Y0023265D01*
X0049088Y0023279D01*
X0049043Y0023297D01*
X0049000Y0023319D01*
X0048959Y0023344D01*
X0048921Y0023373D01*
X0048884Y0023405D01*
X0048850Y0023439D01*
X0048820Y0023476D01*
X0048792Y0023515D01*
X0048767Y0023557D01*
X0048747Y0023601D01*
X0048729Y0023646D01*
X0048716Y0023692D01*
X0048706Y0023739D01*
X0048700Y0023787D01*
X0048698Y0023835D01*
X0048698Y0031236D02*
X0048700Y0031284D01*
X0048706Y0031332D01*
X0048716Y0031379D01*
X0048729Y0031425D01*
X0048747Y0031470D01*
X0048767Y0031514D01*
X0048792Y0031556D01*
X0048820Y0031595D01*
X0048850Y0031632D01*
X0048884Y0031666D01*
X0048921Y0031698D01*
X0048959Y0031727D01*
X0049000Y0031752D01*
X0049043Y0031774D01*
X0049088Y0031792D01*
X0049134Y0031806D01*
X0049181Y0031817D01*
X0049229Y0031824D01*
X0049277Y0031827D01*
X0049325Y0031826D01*
X0049373Y0031821D01*
X0049421Y0031812D01*
X0049467Y0031800D01*
X0049512Y0031783D01*
X0049556Y0031763D01*
X0049598Y0031740D01*
X0049638Y0031713D01*
X0049676Y0031683D01*
X0049711Y0031650D01*
X0049743Y0031614D01*
X0049773Y0031576D01*
X0049799Y0031535D01*
X0049821Y0031492D01*
X0049841Y0031448D01*
X0049856Y0031403D01*
X0049868Y0031356D01*
X0049876Y0031308D01*
X0049880Y0031260D01*
X0049880Y0031212D01*
X0049876Y0031164D01*
X0049868Y0031116D01*
X0049856Y0031069D01*
X0049841Y0031024D01*
X0049821Y0030980D01*
X0049799Y0030937D01*
X0049773Y0030896D01*
X0049743Y0030858D01*
X0049711Y0030822D01*
X0049676Y0030789D01*
X0049638Y0030759D01*
X0049598Y0030732D01*
X0049556Y0030709D01*
X0049512Y0030689D01*
X0049467Y0030672D01*
X0049421Y0030660D01*
X0049373Y0030651D01*
X0049325Y0030646D01*
X0049277Y0030645D01*
X0049229Y0030648D01*
X0049181Y0030655D01*
X0049134Y0030666D01*
X0049088Y0030680D01*
X0049043Y0030698D01*
X0049000Y0030720D01*
X0048959Y0030745D01*
X0048921Y0030774D01*
X0048884Y0030806D01*
X0048850Y0030840D01*
X0048820Y0030877D01*
X0048792Y0030916D01*
X0048767Y0030958D01*
X0048747Y0031002D01*
X0048729Y0031047D01*
X0048716Y0031093D01*
X0048706Y0031140D01*
X0048700Y0031188D01*
X0048698Y0031236D01*
X0056100Y0031236D02*
X0056102Y0031284D01*
X0056108Y0031332D01*
X0056118Y0031379D01*
X0056131Y0031425D01*
X0056149Y0031470D01*
X0056169Y0031514D01*
X0056194Y0031556D01*
X0056222Y0031595D01*
X0056252Y0031632D01*
X0056286Y0031666D01*
X0056323Y0031698D01*
X0056361Y0031727D01*
X0056402Y0031752D01*
X0056445Y0031774D01*
X0056490Y0031792D01*
X0056536Y0031806D01*
X0056583Y0031817D01*
X0056631Y0031824D01*
X0056679Y0031827D01*
X0056727Y0031826D01*
X0056775Y0031821D01*
X0056823Y0031812D01*
X0056869Y0031800D01*
X0056914Y0031783D01*
X0056958Y0031763D01*
X0057000Y0031740D01*
X0057040Y0031713D01*
X0057078Y0031683D01*
X0057113Y0031650D01*
X0057145Y0031614D01*
X0057175Y0031576D01*
X0057201Y0031535D01*
X0057223Y0031492D01*
X0057243Y0031448D01*
X0057258Y0031403D01*
X0057270Y0031356D01*
X0057278Y0031308D01*
X0057282Y0031260D01*
X0057282Y0031212D01*
X0057278Y0031164D01*
X0057270Y0031116D01*
X0057258Y0031069D01*
X0057243Y0031024D01*
X0057223Y0030980D01*
X0057201Y0030937D01*
X0057175Y0030896D01*
X0057145Y0030858D01*
X0057113Y0030822D01*
X0057078Y0030789D01*
X0057040Y0030759D01*
X0057000Y0030732D01*
X0056958Y0030709D01*
X0056914Y0030689D01*
X0056869Y0030672D01*
X0056823Y0030660D01*
X0056775Y0030651D01*
X0056727Y0030646D01*
X0056679Y0030645D01*
X0056631Y0030648D01*
X0056583Y0030655D01*
X0056536Y0030666D01*
X0056490Y0030680D01*
X0056445Y0030698D01*
X0056402Y0030720D01*
X0056361Y0030745D01*
X0056323Y0030774D01*
X0056286Y0030806D01*
X0056252Y0030840D01*
X0056222Y0030877D01*
X0056194Y0030916D01*
X0056169Y0030958D01*
X0056149Y0031002D01*
X0056131Y0031047D01*
X0056118Y0031093D01*
X0056108Y0031140D01*
X0056102Y0031188D01*
X0056100Y0031236D01*
X0056100Y0023835D02*
X0056102Y0023883D01*
X0056108Y0023931D01*
X0056118Y0023978D01*
X0056131Y0024024D01*
X0056149Y0024069D01*
X0056169Y0024113D01*
X0056194Y0024155D01*
X0056222Y0024194D01*
X0056252Y0024231D01*
X0056286Y0024265D01*
X0056323Y0024297D01*
X0056361Y0024326D01*
X0056402Y0024351D01*
X0056445Y0024373D01*
X0056490Y0024391D01*
X0056536Y0024405D01*
X0056583Y0024416D01*
X0056631Y0024423D01*
X0056679Y0024426D01*
X0056727Y0024425D01*
X0056775Y0024420D01*
X0056823Y0024411D01*
X0056869Y0024399D01*
X0056914Y0024382D01*
X0056958Y0024362D01*
X0057000Y0024339D01*
X0057040Y0024312D01*
X0057078Y0024282D01*
X0057113Y0024249D01*
X0057145Y0024213D01*
X0057175Y0024175D01*
X0057201Y0024134D01*
X0057223Y0024091D01*
X0057243Y0024047D01*
X0057258Y0024002D01*
X0057270Y0023955D01*
X0057278Y0023907D01*
X0057282Y0023859D01*
X0057282Y0023811D01*
X0057278Y0023763D01*
X0057270Y0023715D01*
X0057258Y0023668D01*
X0057243Y0023623D01*
X0057223Y0023579D01*
X0057201Y0023536D01*
X0057175Y0023495D01*
X0057145Y0023457D01*
X0057113Y0023421D01*
X0057078Y0023388D01*
X0057040Y0023358D01*
X0057000Y0023331D01*
X0056958Y0023308D01*
X0056914Y0023288D01*
X0056869Y0023271D01*
X0056823Y0023259D01*
X0056775Y0023250D01*
X0056727Y0023245D01*
X0056679Y0023244D01*
X0056631Y0023247D01*
X0056583Y0023254D01*
X0056536Y0023265D01*
X0056490Y0023279D01*
X0056445Y0023297D01*
X0056402Y0023319D01*
X0056361Y0023344D01*
X0056323Y0023373D01*
X0056286Y0023405D01*
X0056252Y0023439D01*
X0056222Y0023476D01*
X0056194Y0023515D01*
X0056169Y0023557D01*
X0056149Y0023601D01*
X0056131Y0023646D01*
X0056118Y0023692D01*
X0056108Y0023739D01*
X0056102Y0023787D01*
X0056100Y0023835D01*
X0072320Y0023835D02*
X0072322Y0023883D01*
X0072328Y0023931D01*
X0072338Y0023978D01*
X0072351Y0024024D01*
X0072369Y0024069D01*
X0072389Y0024113D01*
X0072414Y0024155D01*
X0072442Y0024194D01*
X0072472Y0024231D01*
X0072506Y0024265D01*
X0072543Y0024297D01*
X0072581Y0024326D01*
X0072622Y0024351D01*
X0072665Y0024373D01*
X0072710Y0024391D01*
X0072756Y0024405D01*
X0072803Y0024416D01*
X0072851Y0024423D01*
X0072899Y0024426D01*
X0072947Y0024425D01*
X0072995Y0024420D01*
X0073043Y0024411D01*
X0073089Y0024399D01*
X0073134Y0024382D01*
X0073178Y0024362D01*
X0073220Y0024339D01*
X0073260Y0024312D01*
X0073298Y0024282D01*
X0073333Y0024249D01*
X0073365Y0024213D01*
X0073395Y0024175D01*
X0073421Y0024134D01*
X0073443Y0024091D01*
X0073463Y0024047D01*
X0073478Y0024002D01*
X0073490Y0023955D01*
X0073498Y0023907D01*
X0073502Y0023859D01*
X0073502Y0023811D01*
X0073498Y0023763D01*
X0073490Y0023715D01*
X0073478Y0023668D01*
X0073463Y0023623D01*
X0073443Y0023579D01*
X0073421Y0023536D01*
X0073395Y0023495D01*
X0073365Y0023457D01*
X0073333Y0023421D01*
X0073298Y0023388D01*
X0073260Y0023358D01*
X0073220Y0023331D01*
X0073178Y0023308D01*
X0073134Y0023288D01*
X0073089Y0023271D01*
X0073043Y0023259D01*
X0072995Y0023250D01*
X0072947Y0023245D01*
X0072899Y0023244D01*
X0072851Y0023247D01*
X0072803Y0023254D01*
X0072756Y0023265D01*
X0072710Y0023279D01*
X0072665Y0023297D01*
X0072622Y0023319D01*
X0072581Y0023344D01*
X0072543Y0023373D01*
X0072506Y0023405D01*
X0072472Y0023439D01*
X0072442Y0023476D01*
X0072414Y0023515D01*
X0072389Y0023557D01*
X0072369Y0023601D01*
X0072351Y0023646D01*
X0072338Y0023692D01*
X0072328Y0023739D01*
X0072322Y0023787D01*
X0072320Y0023835D01*
X0072320Y0031236D02*
X0072322Y0031284D01*
X0072328Y0031332D01*
X0072338Y0031379D01*
X0072351Y0031425D01*
X0072369Y0031470D01*
X0072389Y0031514D01*
X0072414Y0031556D01*
X0072442Y0031595D01*
X0072472Y0031632D01*
X0072506Y0031666D01*
X0072543Y0031698D01*
X0072581Y0031727D01*
X0072622Y0031752D01*
X0072665Y0031774D01*
X0072710Y0031792D01*
X0072756Y0031806D01*
X0072803Y0031817D01*
X0072851Y0031824D01*
X0072899Y0031827D01*
X0072947Y0031826D01*
X0072995Y0031821D01*
X0073043Y0031812D01*
X0073089Y0031800D01*
X0073134Y0031783D01*
X0073178Y0031763D01*
X0073220Y0031740D01*
X0073260Y0031713D01*
X0073298Y0031683D01*
X0073333Y0031650D01*
X0073365Y0031614D01*
X0073395Y0031576D01*
X0073421Y0031535D01*
X0073443Y0031492D01*
X0073463Y0031448D01*
X0073478Y0031403D01*
X0073490Y0031356D01*
X0073498Y0031308D01*
X0073502Y0031260D01*
X0073502Y0031212D01*
X0073498Y0031164D01*
X0073490Y0031116D01*
X0073478Y0031069D01*
X0073463Y0031024D01*
X0073443Y0030980D01*
X0073421Y0030937D01*
X0073395Y0030896D01*
X0073365Y0030858D01*
X0073333Y0030822D01*
X0073298Y0030789D01*
X0073260Y0030759D01*
X0073220Y0030732D01*
X0073178Y0030709D01*
X0073134Y0030689D01*
X0073089Y0030672D01*
X0073043Y0030660D01*
X0072995Y0030651D01*
X0072947Y0030646D01*
X0072899Y0030645D01*
X0072851Y0030648D01*
X0072803Y0030655D01*
X0072756Y0030666D01*
X0072710Y0030680D01*
X0072665Y0030698D01*
X0072622Y0030720D01*
X0072581Y0030745D01*
X0072543Y0030774D01*
X0072506Y0030806D01*
X0072472Y0030840D01*
X0072442Y0030877D01*
X0072414Y0030916D01*
X0072389Y0030958D01*
X0072369Y0031002D01*
X0072351Y0031047D01*
X0072338Y0031093D01*
X0072328Y0031140D01*
X0072322Y0031188D01*
X0072320Y0031236D01*
X0079722Y0031236D02*
X0079724Y0031284D01*
X0079730Y0031332D01*
X0079740Y0031379D01*
X0079753Y0031425D01*
X0079771Y0031470D01*
X0079791Y0031514D01*
X0079816Y0031556D01*
X0079844Y0031595D01*
X0079874Y0031632D01*
X0079908Y0031666D01*
X0079945Y0031698D01*
X0079983Y0031727D01*
X0080024Y0031752D01*
X0080067Y0031774D01*
X0080112Y0031792D01*
X0080158Y0031806D01*
X0080205Y0031817D01*
X0080253Y0031824D01*
X0080301Y0031827D01*
X0080349Y0031826D01*
X0080397Y0031821D01*
X0080445Y0031812D01*
X0080491Y0031800D01*
X0080536Y0031783D01*
X0080580Y0031763D01*
X0080622Y0031740D01*
X0080662Y0031713D01*
X0080700Y0031683D01*
X0080735Y0031650D01*
X0080767Y0031614D01*
X0080797Y0031576D01*
X0080823Y0031535D01*
X0080845Y0031492D01*
X0080865Y0031448D01*
X0080880Y0031403D01*
X0080892Y0031356D01*
X0080900Y0031308D01*
X0080904Y0031260D01*
X0080904Y0031212D01*
X0080900Y0031164D01*
X0080892Y0031116D01*
X0080880Y0031069D01*
X0080865Y0031024D01*
X0080845Y0030980D01*
X0080823Y0030937D01*
X0080797Y0030896D01*
X0080767Y0030858D01*
X0080735Y0030822D01*
X0080700Y0030789D01*
X0080662Y0030759D01*
X0080622Y0030732D01*
X0080580Y0030709D01*
X0080536Y0030689D01*
X0080491Y0030672D01*
X0080445Y0030660D01*
X0080397Y0030651D01*
X0080349Y0030646D01*
X0080301Y0030645D01*
X0080253Y0030648D01*
X0080205Y0030655D01*
X0080158Y0030666D01*
X0080112Y0030680D01*
X0080067Y0030698D01*
X0080024Y0030720D01*
X0079983Y0030745D01*
X0079945Y0030774D01*
X0079908Y0030806D01*
X0079874Y0030840D01*
X0079844Y0030877D01*
X0079816Y0030916D01*
X0079791Y0030958D01*
X0079771Y0031002D01*
X0079753Y0031047D01*
X0079740Y0031093D01*
X0079730Y0031140D01*
X0079724Y0031188D01*
X0079722Y0031236D01*
X0079722Y0023835D02*
X0079724Y0023883D01*
X0079730Y0023931D01*
X0079740Y0023978D01*
X0079753Y0024024D01*
X0079771Y0024069D01*
X0079791Y0024113D01*
X0079816Y0024155D01*
X0079844Y0024194D01*
X0079874Y0024231D01*
X0079908Y0024265D01*
X0079945Y0024297D01*
X0079983Y0024326D01*
X0080024Y0024351D01*
X0080067Y0024373D01*
X0080112Y0024391D01*
X0080158Y0024405D01*
X0080205Y0024416D01*
X0080253Y0024423D01*
X0080301Y0024426D01*
X0080349Y0024425D01*
X0080397Y0024420D01*
X0080445Y0024411D01*
X0080491Y0024399D01*
X0080536Y0024382D01*
X0080580Y0024362D01*
X0080622Y0024339D01*
X0080662Y0024312D01*
X0080700Y0024282D01*
X0080735Y0024249D01*
X0080767Y0024213D01*
X0080797Y0024175D01*
X0080823Y0024134D01*
X0080845Y0024091D01*
X0080865Y0024047D01*
X0080880Y0024002D01*
X0080892Y0023955D01*
X0080900Y0023907D01*
X0080904Y0023859D01*
X0080904Y0023811D01*
X0080900Y0023763D01*
X0080892Y0023715D01*
X0080880Y0023668D01*
X0080865Y0023623D01*
X0080845Y0023579D01*
X0080823Y0023536D01*
X0080797Y0023495D01*
X0080767Y0023457D01*
X0080735Y0023421D01*
X0080700Y0023388D01*
X0080662Y0023358D01*
X0080622Y0023331D01*
X0080580Y0023308D01*
X0080536Y0023288D01*
X0080491Y0023271D01*
X0080445Y0023259D01*
X0080397Y0023250D01*
X0080349Y0023245D01*
X0080301Y0023244D01*
X0080253Y0023247D01*
X0080205Y0023254D01*
X0080158Y0023265D01*
X0080112Y0023279D01*
X0080067Y0023297D01*
X0080024Y0023319D01*
X0079983Y0023344D01*
X0079945Y0023373D01*
X0079908Y0023405D01*
X0079874Y0023439D01*
X0079844Y0023476D01*
X0079816Y0023515D01*
X0079791Y0023557D01*
X0079771Y0023601D01*
X0079753Y0023646D01*
X0079740Y0023692D01*
X0079730Y0023739D01*
X0079724Y0023787D01*
X0079722Y0023835D01*
X0089643Y0023835D02*
X0089645Y0023883D01*
X0089651Y0023931D01*
X0089661Y0023978D01*
X0089674Y0024024D01*
X0089692Y0024069D01*
X0089712Y0024113D01*
X0089737Y0024155D01*
X0089765Y0024194D01*
X0089795Y0024231D01*
X0089829Y0024265D01*
X0089866Y0024297D01*
X0089904Y0024326D01*
X0089945Y0024351D01*
X0089988Y0024373D01*
X0090033Y0024391D01*
X0090079Y0024405D01*
X0090126Y0024416D01*
X0090174Y0024423D01*
X0090222Y0024426D01*
X0090270Y0024425D01*
X0090318Y0024420D01*
X0090366Y0024411D01*
X0090412Y0024399D01*
X0090457Y0024382D01*
X0090501Y0024362D01*
X0090543Y0024339D01*
X0090583Y0024312D01*
X0090621Y0024282D01*
X0090656Y0024249D01*
X0090688Y0024213D01*
X0090718Y0024175D01*
X0090744Y0024134D01*
X0090766Y0024091D01*
X0090786Y0024047D01*
X0090801Y0024002D01*
X0090813Y0023955D01*
X0090821Y0023907D01*
X0090825Y0023859D01*
X0090825Y0023811D01*
X0090821Y0023763D01*
X0090813Y0023715D01*
X0090801Y0023668D01*
X0090786Y0023623D01*
X0090766Y0023579D01*
X0090744Y0023536D01*
X0090718Y0023495D01*
X0090688Y0023457D01*
X0090656Y0023421D01*
X0090621Y0023388D01*
X0090583Y0023358D01*
X0090543Y0023331D01*
X0090501Y0023308D01*
X0090457Y0023288D01*
X0090412Y0023271D01*
X0090366Y0023259D01*
X0090318Y0023250D01*
X0090270Y0023245D01*
X0090222Y0023244D01*
X0090174Y0023247D01*
X0090126Y0023254D01*
X0090079Y0023265D01*
X0090033Y0023279D01*
X0089988Y0023297D01*
X0089945Y0023319D01*
X0089904Y0023344D01*
X0089866Y0023373D01*
X0089829Y0023405D01*
X0089795Y0023439D01*
X0089765Y0023476D01*
X0089737Y0023515D01*
X0089712Y0023557D01*
X0089692Y0023601D01*
X0089674Y0023646D01*
X0089661Y0023692D01*
X0089651Y0023739D01*
X0089645Y0023787D01*
X0089643Y0023835D01*
X0089643Y0031236D02*
X0089645Y0031284D01*
X0089651Y0031332D01*
X0089661Y0031379D01*
X0089674Y0031425D01*
X0089692Y0031470D01*
X0089712Y0031514D01*
X0089737Y0031556D01*
X0089765Y0031595D01*
X0089795Y0031632D01*
X0089829Y0031666D01*
X0089866Y0031698D01*
X0089904Y0031727D01*
X0089945Y0031752D01*
X0089988Y0031774D01*
X0090033Y0031792D01*
X0090079Y0031806D01*
X0090126Y0031817D01*
X0090174Y0031824D01*
X0090222Y0031827D01*
X0090270Y0031826D01*
X0090318Y0031821D01*
X0090366Y0031812D01*
X0090412Y0031800D01*
X0090457Y0031783D01*
X0090501Y0031763D01*
X0090543Y0031740D01*
X0090583Y0031713D01*
X0090621Y0031683D01*
X0090656Y0031650D01*
X0090688Y0031614D01*
X0090718Y0031576D01*
X0090744Y0031535D01*
X0090766Y0031492D01*
X0090786Y0031448D01*
X0090801Y0031403D01*
X0090813Y0031356D01*
X0090821Y0031308D01*
X0090825Y0031260D01*
X0090825Y0031212D01*
X0090821Y0031164D01*
X0090813Y0031116D01*
X0090801Y0031069D01*
X0090786Y0031024D01*
X0090766Y0030980D01*
X0090744Y0030937D01*
X0090718Y0030896D01*
X0090688Y0030858D01*
X0090656Y0030822D01*
X0090621Y0030789D01*
X0090583Y0030759D01*
X0090543Y0030732D01*
X0090501Y0030709D01*
X0090457Y0030689D01*
X0090412Y0030672D01*
X0090366Y0030660D01*
X0090318Y0030651D01*
X0090270Y0030646D01*
X0090222Y0030645D01*
X0090174Y0030648D01*
X0090126Y0030655D01*
X0090079Y0030666D01*
X0090033Y0030680D01*
X0089988Y0030698D01*
X0089945Y0030720D01*
X0089904Y0030745D01*
X0089866Y0030774D01*
X0089829Y0030806D01*
X0089795Y0030840D01*
X0089765Y0030877D01*
X0089737Y0030916D01*
X0089712Y0030958D01*
X0089692Y0031002D01*
X0089674Y0031047D01*
X0089661Y0031093D01*
X0089651Y0031140D01*
X0089645Y0031188D01*
X0089643Y0031236D01*
X0097044Y0031236D02*
X0097046Y0031284D01*
X0097052Y0031332D01*
X0097062Y0031379D01*
X0097075Y0031425D01*
X0097093Y0031470D01*
X0097113Y0031514D01*
X0097138Y0031556D01*
X0097166Y0031595D01*
X0097196Y0031632D01*
X0097230Y0031666D01*
X0097267Y0031698D01*
X0097305Y0031727D01*
X0097346Y0031752D01*
X0097389Y0031774D01*
X0097434Y0031792D01*
X0097480Y0031806D01*
X0097527Y0031817D01*
X0097575Y0031824D01*
X0097623Y0031827D01*
X0097671Y0031826D01*
X0097719Y0031821D01*
X0097767Y0031812D01*
X0097813Y0031800D01*
X0097858Y0031783D01*
X0097902Y0031763D01*
X0097944Y0031740D01*
X0097984Y0031713D01*
X0098022Y0031683D01*
X0098057Y0031650D01*
X0098089Y0031614D01*
X0098119Y0031576D01*
X0098145Y0031535D01*
X0098167Y0031492D01*
X0098187Y0031448D01*
X0098202Y0031403D01*
X0098214Y0031356D01*
X0098222Y0031308D01*
X0098226Y0031260D01*
X0098226Y0031212D01*
X0098222Y0031164D01*
X0098214Y0031116D01*
X0098202Y0031069D01*
X0098187Y0031024D01*
X0098167Y0030980D01*
X0098145Y0030937D01*
X0098119Y0030896D01*
X0098089Y0030858D01*
X0098057Y0030822D01*
X0098022Y0030789D01*
X0097984Y0030759D01*
X0097944Y0030732D01*
X0097902Y0030709D01*
X0097858Y0030689D01*
X0097813Y0030672D01*
X0097767Y0030660D01*
X0097719Y0030651D01*
X0097671Y0030646D01*
X0097623Y0030645D01*
X0097575Y0030648D01*
X0097527Y0030655D01*
X0097480Y0030666D01*
X0097434Y0030680D01*
X0097389Y0030698D01*
X0097346Y0030720D01*
X0097305Y0030745D01*
X0097267Y0030774D01*
X0097230Y0030806D01*
X0097196Y0030840D01*
X0097166Y0030877D01*
X0097138Y0030916D01*
X0097113Y0030958D01*
X0097093Y0031002D01*
X0097075Y0031047D01*
X0097062Y0031093D01*
X0097052Y0031140D01*
X0097046Y0031188D01*
X0097044Y0031236D01*
X0097044Y0023835D02*
X0097046Y0023883D01*
X0097052Y0023931D01*
X0097062Y0023978D01*
X0097075Y0024024D01*
X0097093Y0024069D01*
X0097113Y0024113D01*
X0097138Y0024155D01*
X0097166Y0024194D01*
X0097196Y0024231D01*
X0097230Y0024265D01*
X0097267Y0024297D01*
X0097305Y0024326D01*
X0097346Y0024351D01*
X0097389Y0024373D01*
X0097434Y0024391D01*
X0097480Y0024405D01*
X0097527Y0024416D01*
X0097575Y0024423D01*
X0097623Y0024426D01*
X0097671Y0024425D01*
X0097719Y0024420D01*
X0097767Y0024411D01*
X0097813Y0024399D01*
X0097858Y0024382D01*
X0097902Y0024362D01*
X0097944Y0024339D01*
X0097984Y0024312D01*
X0098022Y0024282D01*
X0098057Y0024249D01*
X0098089Y0024213D01*
X0098119Y0024175D01*
X0098145Y0024134D01*
X0098167Y0024091D01*
X0098187Y0024047D01*
X0098202Y0024002D01*
X0098214Y0023955D01*
X0098222Y0023907D01*
X0098226Y0023859D01*
X0098226Y0023811D01*
X0098222Y0023763D01*
X0098214Y0023715D01*
X0098202Y0023668D01*
X0098187Y0023623D01*
X0098167Y0023579D01*
X0098145Y0023536D01*
X0098119Y0023495D01*
X0098089Y0023457D01*
X0098057Y0023421D01*
X0098022Y0023388D01*
X0097984Y0023358D01*
X0097944Y0023331D01*
X0097902Y0023308D01*
X0097858Y0023288D01*
X0097813Y0023271D01*
X0097767Y0023259D01*
X0097719Y0023250D01*
X0097671Y0023245D01*
X0097623Y0023244D01*
X0097575Y0023247D01*
X0097527Y0023254D01*
X0097480Y0023265D01*
X0097434Y0023279D01*
X0097389Y0023297D01*
X0097346Y0023319D01*
X0097305Y0023344D01*
X0097267Y0023373D01*
X0097230Y0023405D01*
X0097196Y0023439D01*
X0097166Y0023476D01*
X0097138Y0023515D01*
X0097113Y0023557D01*
X0097093Y0023601D01*
X0097075Y0023646D01*
X0097062Y0023692D01*
X0097052Y0023739D01*
X0097046Y0023787D01*
X0097044Y0023835D01*
X0097044Y0056906D02*
X0097046Y0056954D01*
X0097052Y0057002D01*
X0097062Y0057049D01*
X0097075Y0057095D01*
X0097093Y0057140D01*
X0097113Y0057184D01*
X0097138Y0057226D01*
X0097166Y0057265D01*
X0097196Y0057302D01*
X0097230Y0057336D01*
X0097267Y0057368D01*
X0097305Y0057397D01*
X0097346Y0057422D01*
X0097389Y0057444D01*
X0097434Y0057462D01*
X0097480Y0057476D01*
X0097527Y0057487D01*
X0097575Y0057494D01*
X0097623Y0057497D01*
X0097671Y0057496D01*
X0097719Y0057491D01*
X0097767Y0057482D01*
X0097813Y0057470D01*
X0097858Y0057453D01*
X0097902Y0057433D01*
X0097944Y0057410D01*
X0097984Y0057383D01*
X0098022Y0057353D01*
X0098057Y0057320D01*
X0098089Y0057284D01*
X0098119Y0057246D01*
X0098145Y0057205D01*
X0098167Y0057162D01*
X0098187Y0057118D01*
X0098202Y0057073D01*
X0098214Y0057026D01*
X0098222Y0056978D01*
X0098226Y0056930D01*
X0098226Y0056882D01*
X0098222Y0056834D01*
X0098214Y0056786D01*
X0098202Y0056739D01*
X0098187Y0056694D01*
X0098167Y0056650D01*
X0098145Y0056607D01*
X0098119Y0056566D01*
X0098089Y0056528D01*
X0098057Y0056492D01*
X0098022Y0056459D01*
X0097984Y0056429D01*
X0097944Y0056402D01*
X0097902Y0056379D01*
X0097858Y0056359D01*
X0097813Y0056342D01*
X0097767Y0056330D01*
X0097719Y0056321D01*
X0097671Y0056316D01*
X0097623Y0056315D01*
X0097575Y0056318D01*
X0097527Y0056325D01*
X0097480Y0056336D01*
X0097434Y0056350D01*
X0097389Y0056368D01*
X0097346Y0056390D01*
X0097305Y0056415D01*
X0097267Y0056444D01*
X0097230Y0056476D01*
X0097196Y0056510D01*
X0097166Y0056547D01*
X0097138Y0056586D01*
X0097113Y0056628D01*
X0097093Y0056672D01*
X0097075Y0056717D01*
X0097062Y0056763D01*
X0097052Y0056810D01*
X0097046Y0056858D01*
X0097044Y0056906D01*
X0097044Y0064307D02*
X0097046Y0064355D01*
X0097052Y0064403D01*
X0097062Y0064450D01*
X0097075Y0064496D01*
X0097093Y0064541D01*
X0097113Y0064585D01*
X0097138Y0064627D01*
X0097166Y0064666D01*
X0097196Y0064703D01*
X0097230Y0064737D01*
X0097267Y0064769D01*
X0097305Y0064798D01*
X0097346Y0064823D01*
X0097389Y0064845D01*
X0097434Y0064863D01*
X0097480Y0064877D01*
X0097527Y0064888D01*
X0097575Y0064895D01*
X0097623Y0064898D01*
X0097671Y0064897D01*
X0097719Y0064892D01*
X0097767Y0064883D01*
X0097813Y0064871D01*
X0097858Y0064854D01*
X0097902Y0064834D01*
X0097944Y0064811D01*
X0097984Y0064784D01*
X0098022Y0064754D01*
X0098057Y0064721D01*
X0098089Y0064685D01*
X0098119Y0064647D01*
X0098145Y0064606D01*
X0098167Y0064563D01*
X0098187Y0064519D01*
X0098202Y0064474D01*
X0098214Y0064427D01*
X0098222Y0064379D01*
X0098226Y0064331D01*
X0098226Y0064283D01*
X0098222Y0064235D01*
X0098214Y0064187D01*
X0098202Y0064140D01*
X0098187Y0064095D01*
X0098167Y0064051D01*
X0098145Y0064008D01*
X0098119Y0063967D01*
X0098089Y0063929D01*
X0098057Y0063893D01*
X0098022Y0063860D01*
X0097984Y0063830D01*
X0097944Y0063803D01*
X0097902Y0063780D01*
X0097858Y0063760D01*
X0097813Y0063743D01*
X0097767Y0063731D01*
X0097719Y0063722D01*
X0097671Y0063717D01*
X0097623Y0063716D01*
X0097575Y0063719D01*
X0097527Y0063726D01*
X0097480Y0063737D01*
X0097434Y0063751D01*
X0097389Y0063769D01*
X0097346Y0063791D01*
X0097305Y0063816D01*
X0097267Y0063845D01*
X0097230Y0063877D01*
X0097196Y0063911D01*
X0097166Y0063948D01*
X0097138Y0063987D01*
X0097113Y0064029D01*
X0097093Y0064073D01*
X0097075Y0064118D01*
X0097062Y0064164D01*
X0097052Y0064211D01*
X0097046Y0064259D01*
X0097044Y0064307D01*
X0089643Y0064307D02*
X0089645Y0064355D01*
X0089651Y0064403D01*
X0089661Y0064450D01*
X0089674Y0064496D01*
X0089692Y0064541D01*
X0089712Y0064585D01*
X0089737Y0064627D01*
X0089765Y0064666D01*
X0089795Y0064703D01*
X0089829Y0064737D01*
X0089866Y0064769D01*
X0089904Y0064798D01*
X0089945Y0064823D01*
X0089988Y0064845D01*
X0090033Y0064863D01*
X0090079Y0064877D01*
X0090126Y0064888D01*
X0090174Y0064895D01*
X0090222Y0064898D01*
X0090270Y0064897D01*
X0090318Y0064892D01*
X0090366Y0064883D01*
X0090412Y0064871D01*
X0090457Y0064854D01*
X0090501Y0064834D01*
X0090543Y0064811D01*
X0090583Y0064784D01*
X0090621Y0064754D01*
X0090656Y0064721D01*
X0090688Y0064685D01*
X0090718Y0064647D01*
X0090744Y0064606D01*
X0090766Y0064563D01*
X0090786Y0064519D01*
X0090801Y0064474D01*
X0090813Y0064427D01*
X0090821Y0064379D01*
X0090825Y0064331D01*
X0090825Y0064283D01*
X0090821Y0064235D01*
X0090813Y0064187D01*
X0090801Y0064140D01*
X0090786Y0064095D01*
X0090766Y0064051D01*
X0090744Y0064008D01*
X0090718Y0063967D01*
X0090688Y0063929D01*
X0090656Y0063893D01*
X0090621Y0063860D01*
X0090583Y0063830D01*
X0090543Y0063803D01*
X0090501Y0063780D01*
X0090457Y0063760D01*
X0090412Y0063743D01*
X0090366Y0063731D01*
X0090318Y0063722D01*
X0090270Y0063717D01*
X0090222Y0063716D01*
X0090174Y0063719D01*
X0090126Y0063726D01*
X0090079Y0063737D01*
X0090033Y0063751D01*
X0089988Y0063769D01*
X0089945Y0063791D01*
X0089904Y0063816D01*
X0089866Y0063845D01*
X0089829Y0063877D01*
X0089795Y0063911D01*
X0089765Y0063948D01*
X0089737Y0063987D01*
X0089712Y0064029D01*
X0089692Y0064073D01*
X0089674Y0064118D01*
X0089661Y0064164D01*
X0089651Y0064211D01*
X0089645Y0064259D01*
X0089643Y0064307D01*
X0089643Y0056906D02*
X0089645Y0056954D01*
X0089651Y0057002D01*
X0089661Y0057049D01*
X0089674Y0057095D01*
X0089692Y0057140D01*
X0089712Y0057184D01*
X0089737Y0057226D01*
X0089765Y0057265D01*
X0089795Y0057302D01*
X0089829Y0057336D01*
X0089866Y0057368D01*
X0089904Y0057397D01*
X0089945Y0057422D01*
X0089988Y0057444D01*
X0090033Y0057462D01*
X0090079Y0057476D01*
X0090126Y0057487D01*
X0090174Y0057494D01*
X0090222Y0057497D01*
X0090270Y0057496D01*
X0090318Y0057491D01*
X0090366Y0057482D01*
X0090412Y0057470D01*
X0090457Y0057453D01*
X0090501Y0057433D01*
X0090543Y0057410D01*
X0090583Y0057383D01*
X0090621Y0057353D01*
X0090656Y0057320D01*
X0090688Y0057284D01*
X0090718Y0057246D01*
X0090744Y0057205D01*
X0090766Y0057162D01*
X0090786Y0057118D01*
X0090801Y0057073D01*
X0090813Y0057026D01*
X0090821Y0056978D01*
X0090825Y0056930D01*
X0090825Y0056882D01*
X0090821Y0056834D01*
X0090813Y0056786D01*
X0090801Y0056739D01*
X0090786Y0056694D01*
X0090766Y0056650D01*
X0090744Y0056607D01*
X0090718Y0056566D01*
X0090688Y0056528D01*
X0090656Y0056492D01*
X0090621Y0056459D01*
X0090583Y0056429D01*
X0090543Y0056402D01*
X0090501Y0056379D01*
X0090457Y0056359D01*
X0090412Y0056342D01*
X0090366Y0056330D01*
X0090318Y0056321D01*
X0090270Y0056316D01*
X0090222Y0056315D01*
X0090174Y0056318D01*
X0090126Y0056325D01*
X0090079Y0056336D01*
X0090033Y0056350D01*
X0089988Y0056368D01*
X0089945Y0056390D01*
X0089904Y0056415D01*
X0089866Y0056444D01*
X0089829Y0056476D01*
X0089795Y0056510D01*
X0089765Y0056547D01*
X0089737Y0056586D01*
X0089712Y0056628D01*
X0089692Y0056672D01*
X0089674Y0056717D01*
X0089661Y0056763D01*
X0089651Y0056810D01*
X0089645Y0056858D01*
X0089643Y0056906D01*
X0038777Y0056906D02*
X0038779Y0056954D01*
X0038785Y0057002D01*
X0038795Y0057049D01*
X0038808Y0057095D01*
X0038826Y0057140D01*
X0038846Y0057184D01*
X0038871Y0057226D01*
X0038899Y0057265D01*
X0038929Y0057302D01*
X0038963Y0057336D01*
X0039000Y0057368D01*
X0039038Y0057397D01*
X0039079Y0057422D01*
X0039122Y0057444D01*
X0039167Y0057462D01*
X0039213Y0057476D01*
X0039260Y0057487D01*
X0039308Y0057494D01*
X0039356Y0057497D01*
X0039404Y0057496D01*
X0039452Y0057491D01*
X0039500Y0057482D01*
X0039546Y0057470D01*
X0039591Y0057453D01*
X0039635Y0057433D01*
X0039677Y0057410D01*
X0039717Y0057383D01*
X0039755Y0057353D01*
X0039790Y0057320D01*
X0039822Y0057284D01*
X0039852Y0057246D01*
X0039878Y0057205D01*
X0039900Y0057162D01*
X0039920Y0057118D01*
X0039935Y0057073D01*
X0039947Y0057026D01*
X0039955Y0056978D01*
X0039959Y0056930D01*
X0039959Y0056882D01*
X0039955Y0056834D01*
X0039947Y0056786D01*
X0039935Y0056739D01*
X0039920Y0056694D01*
X0039900Y0056650D01*
X0039878Y0056607D01*
X0039852Y0056566D01*
X0039822Y0056528D01*
X0039790Y0056492D01*
X0039755Y0056459D01*
X0039717Y0056429D01*
X0039677Y0056402D01*
X0039635Y0056379D01*
X0039591Y0056359D01*
X0039546Y0056342D01*
X0039500Y0056330D01*
X0039452Y0056321D01*
X0039404Y0056316D01*
X0039356Y0056315D01*
X0039308Y0056318D01*
X0039260Y0056325D01*
X0039213Y0056336D01*
X0039167Y0056350D01*
X0039122Y0056368D01*
X0039079Y0056390D01*
X0039038Y0056415D01*
X0039000Y0056444D01*
X0038963Y0056476D01*
X0038929Y0056510D01*
X0038899Y0056547D01*
X0038871Y0056586D01*
X0038846Y0056628D01*
X0038826Y0056672D01*
X0038808Y0056717D01*
X0038795Y0056763D01*
X0038785Y0056810D01*
X0038779Y0056858D01*
X0038777Y0056906D01*
X0038777Y0064307D02*
X0038779Y0064355D01*
X0038785Y0064403D01*
X0038795Y0064450D01*
X0038808Y0064496D01*
X0038826Y0064541D01*
X0038846Y0064585D01*
X0038871Y0064627D01*
X0038899Y0064666D01*
X0038929Y0064703D01*
X0038963Y0064737D01*
X0039000Y0064769D01*
X0039038Y0064798D01*
X0039079Y0064823D01*
X0039122Y0064845D01*
X0039167Y0064863D01*
X0039213Y0064877D01*
X0039260Y0064888D01*
X0039308Y0064895D01*
X0039356Y0064898D01*
X0039404Y0064897D01*
X0039452Y0064892D01*
X0039500Y0064883D01*
X0039546Y0064871D01*
X0039591Y0064854D01*
X0039635Y0064834D01*
X0039677Y0064811D01*
X0039717Y0064784D01*
X0039755Y0064754D01*
X0039790Y0064721D01*
X0039822Y0064685D01*
X0039852Y0064647D01*
X0039878Y0064606D01*
X0039900Y0064563D01*
X0039920Y0064519D01*
X0039935Y0064474D01*
X0039947Y0064427D01*
X0039955Y0064379D01*
X0039959Y0064331D01*
X0039959Y0064283D01*
X0039955Y0064235D01*
X0039947Y0064187D01*
X0039935Y0064140D01*
X0039920Y0064095D01*
X0039900Y0064051D01*
X0039878Y0064008D01*
X0039852Y0063967D01*
X0039822Y0063929D01*
X0039790Y0063893D01*
X0039755Y0063860D01*
X0039717Y0063830D01*
X0039677Y0063803D01*
X0039635Y0063780D01*
X0039591Y0063760D01*
X0039546Y0063743D01*
X0039500Y0063731D01*
X0039452Y0063722D01*
X0039404Y0063717D01*
X0039356Y0063716D01*
X0039308Y0063719D01*
X0039260Y0063726D01*
X0039213Y0063737D01*
X0039167Y0063751D01*
X0039122Y0063769D01*
X0039079Y0063791D01*
X0039038Y0063816D01*
X0039000Y0063845D01*
X0038963Y0063877D01*
X0038929Y0063911D01*
X0038899Y0063948D01*
X0038871Y0063987D01*
X0038846Y0064029D01*
X0038826Y0064073D01*
X0038808Y0064118D01*
X0038795Y0064164D01*
X0038785Y0064211D01*
X0038779Y0064259D01*
X0038777Y0064307D01*
X0031375Y0064307D02*
X0031377Y0064355D01*
X0031383Y0064403D01*
X0031393Y0064450D01*
X0031406Y0064496D01*
X0031424Y0064541D01*
X0031444Y0064585D01*
X0031469Y0064627D01*
X0031497Y0064666D01*
X0031527Y0064703D01*
X0031561Y0064737D01*
X0031598Y0064769D01*
X0031636Y0064798D01*
X0031677Y0064823D01*
X0031720Y0064845D01*
X0031765Y0064863D01*
X0031811Y0064877D01*
X0031858Y0064888D01*
X0031906Y0064895D01*
X0031954Y0064898D01*
X0032002Y0064897D01*
X0032050Y0064892D01*
X0032098Y0064883D01*
X0032144Y0064871D01*
X0032189Y0064854D01*
X0032233Y0064834D01*
X0032275Y0064811D01*
X0032315Y0064784D01*
X0032353Y0064754D01*
X0032388Y0064721D01*
X0032420Y0064685D01*
X0032450Y0064647D01*
X0032476Y0064606D01*
X0032498Y0064563D01*
X0032518Y0064519D01*
X0032533Y0064474D01*
X0032545Y0064427D01*
X0032553Y0064379D01*
X0032557Y0064331D01*
X0032557Y0064283D01*
X0032553Y0064235D01*
X0032545Y0064187D01*
X0032533Y0064140D01*
X0032518Y0064095D01*
X0032498Y0064051D01*
X0032476Y0064008D01*
X0032450Y0063967D01*
X0032420Y0063929D01*
X0032388Y0063893D01*
X0032353Y0063860D01*
X0032315Y0063830D01*
X0032275Y0063803D01*
X0032233Y0063780D01*
X0032189Y0063760D01*
X0032144Y0063743D01*
X0032098Y0063731D01*
X0032050Y0063722D01*
X0032002Y0063717D01*
X0031954Y0063716D01*
X0031906Y0063719D01*
X0031858Y0063726D01*
X0031811Y0063737D01*
X0031765Y0063751D01*
X0031720Y0063769D01*
X0031677Y0063791D01*
X0031636Y0063816D01*
X0031598Y0063845D01*
X0031561Y0063877D01*
X0031527Y0063911D01*
X0031497Y0063948D01*
X0031469Y0063987D01*
X0031444Y0064029D01*
X0031424Y0064073D01*
X0031406Y0064118D01*
X0031393Y0064164D01*
X0031383Y0064211D01*
X0031377Y0064259D01*
X0031375Y0064307D01*
X0031375Y0056906D02*
X0031377Y0056954D01*
X0031383Y0057002D01*
X0031393Y0057049D01*
X0031406Y0057095D01*
X0031424Y0057140D01*
X0031444Y0057184D01*
X0031469Y0057226D01*
X0031497Y0057265D01*
X0031527Y0057302D01*
X0031561Y0057336D01*
X0031598Y0057368D01*
X0031636Y0057397D01*
X0031677Y0057422D01*
X0031720Y0057444D01*
X0031765Y0057462D01*
X0031811Y0057476D01*
X0031858Y0057487D01*
X0031906Y0057494D01*
X0031954Y0057497D01*
X0032002Y0057496D01*
X0032050Y0057491D01*
X0032098Y0057482D01*
X0032144Y0057470D01*
X0032189Y0057453D01*
X0032233Y0057433D01*
X0032275Y0057410D01*
X0032315Y0057383D01*
X0032353Y0057353D01*
X0032388Y0057320D01*
X0032420Y0057284D01*
X0032450Y0057246D01*
X0032476Y0057205D01*
X0032498Y0057162D01*
X0032518Y0057118D01*
X0032533Y0057073D01*
X0032545Y0057026D01*
X0032553Y0056978D01*
X0032557Y0056930D01*
X0032557Y0056882D01*
X0032553Y0056834D01*
X0032545Y0056786D01*
X0032533Y0056739D01*
X0032518Y0056694D01*
X0032498Y0056650D01*
X0032476Y0056607D01*
X0032450Y0056566D01*
X0032420Y0056528D01*
X0032388Y0056492D01*
X0032353Y0056459D01*
X0032315Y0056429D01*
X0032275Y0056402D01*
X0032233Y0056379D01*
X0032189Y0056359D01*
X0032144Y0056342D01*
X0032098Y0056330D01*
X0032050Y0056321D01*
X0032002Y0056316D01*
X0031954Y0056315D01*
X0031906Y0056318D01*
X0031858Y0056325D01*
X0031811Y0056336D01*
X0031765Y0056350D01*
X0031720Y0056368D01*
X0031677Y0056390D01*
X0031636Y0056415D01*
X0031598Y0056444D01*
X0031561Y0056476D01*
X0031527Y0056510D01*
X0031497Y0056547D01*
X0031469Y0056586D01*
X0031444Y0056628D01*
X0031424Y0056672D01*
X0031406Y0056717D01*
X0031393Y0056763D01*
X0031383Y0056810D01*
X0031377Y0056858D01*
X0031375Y0056906D01*
D11*
X0057788Y0086408D02*
X0057788Y0087836D01*
X0058822Y0087836D01*
X0058822Y0086408D01*
X0057788Y0086408D01*
X0057788Y0086751D02*
X0058822Y0086751D01*
X0058822Y0087094D02*
X0057788Y0087094D01*
X0057788Y0087437D02*
X0058822Y0087437D01*
X0058822Y0087780D02*
X0057788Y0087780D01*
X0056991Y0089667D02*
X0055563Y0089667D01*
X0056991Y0089667D02*
X0056991Y0088633D01*
X0055563Y0088633D01*
X0055563Y0089667D01*
X0055563Y0088976D02*
X0056991Y0088976D01*
X0056991Y0089319D02*
X0055563Y0089319D01*
X0055563Y0089662D02*
X0056991Y0089662D01*
X0056991Y0091635D02*
X0055563Y0091635D01*
X0056991Y0091635D02*
X0056991Y0090601D01*
X0055563Y0090601D01*
X0055563Y0091635D01*
X0055563Y0090944D02*
X0056991Y0090944D01*
X0056991Y0091287D02*
X0055563Y0091287D01*
X0055563Y0091630D02*
X0056991Y0091630D01*
X0056991Y0093604D02*
X0055563Y0093604D01*
X0056991Y0093604D02*
X0056991Y0092570D01*
X0055563Y0092570D01*
X0055563Y0093604D01*
X0055563Y0092913D02*
X0056991Y0092913D01*
X0056991Y0093256D02*
X0055563Y0093256D01*
X0055563Y0093599D02*
X0056991Y0093599D01*
X0056991Y0095572D02*
X0055563Y0095572D01*
X0056991Y0095572D02*
X0056991Y0094538D01*
X0055563Y0094538D01*
X0055563Y0095572D01*
X0055563Y0094881D02*
X0056991Y0094881D01*
X0056991Y0095224D02*
X0055563Y0095224D01*
X0055563Y0095567D02*
X0056991Y0095567D01*
X0056991Y0097541D02*
X0055563Y0097541D01*
X0056991Y0097541D02*
X0056991Y0096507D01*
X0055563Y0096507D01*
X0055563Y0097541D01*
X0055563Y0096850D02*
X0056991Y0096850D01*
X0056991Y0097193D02*
X0055563Y0097193D01*
X0055563Y0097536D02*
X0056991Y0097536D01*
X0056991Y0099509D02*
X0055563Y0099509D01*
X0056991Y0099509D02*
X0056991Y0098475D01*
X0055563Y0098475D01*
X0055563Y0099509D01*
X0055563Y0098818D02*
X0056991Y0098818D01*
X0056991Y0099161D02*
X0055563Y0099161D01*
X0055563Y0099504D02*
X0056991Y0099504D01*
X0056991Y0101478D02*
X0055563Y0101478D01*
X0056991Y0101478D02*
X0056991Y0100444D01*
X0055563Y0100444D01*
X0055563Y0101478D01*
X0055563Y0100787D02*
X0056991Y0100787D01*
X0056991Y0101130D02*
X0055563Y0101130D01*
X0055563Y0101473D02*
X0056991Y0101473D01*
X0056991Y0103446D02*
X0055563Y0103446D01*
X0056991Y0103446D02*
X0056991Y0102412D01*
X0055563Y0102412D01*
X0055563Y0103446D01*
X0055563Y0102755D02*
X0056991Y0102755D01*
X0056991Y0103098D02*
X0055563Y0103098D01*
X0055563Y0103441D02*
X0056991Y0103441D01*
X0056991Y0105415D02*
X0055563Y0105415D01*
X0056991Y0105415D02*
X0056991Y0104381D01*
X0055563Y0104381D01*
X0055563Y0105415D01*
X0055563Y0104724D02*
X0056991Y0104724D01*
X0056991Y0105067D02*
X0055563Y0105067D01*
X0055563Y0105410D02*
X0056991Y0105410D01*
X0056991Y0107383D02*
X0055563Y0107383D01*
X0056991Y0107383D02*
X0056991Y0106349D01*
X0055563Y0106349D01*
X0055563Y0107383D01*
X0055563Y0106692D02*
X0056991Y0106692D01*
X0056991Y0107035D02*
X0055563Y0107035D01*
X0055563Y0107378D02*
X0056991Y0107378D01*
X0056991Y0109352D02*
X0055563Y0109352D01*
X0056991Y0109352D02*
X0056991Y0108318D01*
X0055563Y0108318D01*
X0055563Y0109352D01*
X0055563Y0108661D02*
X0056991Y0108661D01*
X0056991Y0109004D02*
X0055563Y0109004D01*
X0055563Y0109347D02*
X0056991Y0109347D01*
X0056991Y0111320D02*
X0055563Y0111320D01*
X0056991Y0111320D02*
X0056991Y0110286D01*
X0055563Y0110286D01*
X0055563Y0111320D01*
X0055563Y0110629D02*
X0056991Y0110629D01*
X0056991Y0110972D02*
X0055563Y0110972D01*
X0055563Y0111315D02*
X0056991Y0111315D01*
X0058822Y0112117D02*
X0058822Y0113545D01*
X0058822Y0112117D02*
X0057788Y0112117D01*
X0057788Y0113545D01*
X0058822Y0113545D01*
X0058822Y0112460D02*
X0057788Y0112460D01*
X0057788Y0112803D02*
X0058822Y0112803D01*
X0058822Y0113146D02*
X0057788Y0113146D01*
X0057788Y0113489D02*
X0058822Y0113489D01*
X0060790Y0113545D02*
X0060790Y0112117D01*
X0059756Y0112117D01*
X0059756Y0113545D01*
X0060790Y0113545D01*
X0060790Y0112460D02*
X0059756Y0112460D01*
X0059756Y0112803D02*
X0060790Y0112803D01*
X0060790Y0113146D02*
X0059756Y0113146D01*
X0059756Y0113489D02*
X0060790Y0113489D01*
X0062759Y0113545D02*
X0062759Y0112117D01*
X0061725Y0112117D01*
X0061725Y0113545D01*
X0062759Y0113545D01*
X0062759Y0112460D02*
X0061725Y0112460D01*
X0061725Y0112803D02*
X0062759Y0112803D01*
X0062759Y0113146D02*
X0061725Y0113146D01*
X0061725Y0113489D02*
X0062759Y0113489D01*
X0064727Y0113545D02*
X0064727Y0112117D01*
X0063693Y0112117D01*
X0063693Y0113545D01*
X0064727Y0113545D01*
X0064727Y0112460D02*
X0063693Y0112460D01*
X0063693Y0112803D02*
X0064727Y0112803D01*
X0064727Y0113146D02*
X0063693Y0113146D01*
X0063693Y0113489D02*
X0064727Y0113489D01*
X0066696Y0113545D02*
X0066696Y0112117D01*
X0065662Y0112117D01*
X0065662Y0113545D01*
X0066696Y0113545D01*
X0066696Y0112460D02*
X0065662Y0112460D01*
X0065662Y0112803D02*
X0066696Y0112803D01*
X0066696Y0113146D02*
X0065662Y0113146D01*
X0065662Y0113489D02*
X0066696Y0113489D01*
X0068664Y0113545D02*
X0068664Y0112117D01*
X0067630Y0112117D01*
X0067630Y0113545D01*
X0068664Y0113545D01*
X0068664Y0112460D02*
X0067630Y0112460D01*
X0067630Y0112803D02*
X0068664Y0112803D01*
X0068664Y0113146D02*
X0067630Y0113146D01*
X0067630Y0113489D02*
X0068664Y0113489D01*
X0070633Y0113545D02*
X0070633Y0112117D01*
X0069599Y0112117D01*
X0069599Y0113545D01*
X0070633Y0113545D01*
X0070633Y0112460D02*
X0069599Y0112460D01*
X0069599Y0112803D02*
X0070633Y0112803D01*
X0070633Y0113146D02*
X0069599Y0113146D01*
X0069599Y0113489D02*
X0070633Y0113489D01*
X0072601Y0113545D02*
X0072601Y0112117D01*
X0071567Y0112117D01*
X0071567Y0113545D01*
X0072601Y0113545D01*
X0072601Y0112460D02*
X0071567Y0112460D01*
X0071567Y0112803D02*
X0072601Y0112803D01*
X0072601Y0113146D02*
X0071567Y0113146D01*
X0071567Y0113489D02*
X0072601Y0113489D01*
X0074570Y0113545D02*
X0074570Y0112117D01*
X0073536Y0112117D01*
X0073536Y0113545D01*
X0074570Y0113545D01*
X0074570Y0112460D02*
X0073536Y0112460D01*
X0073536Y0112803D02*
X0074570Y0112803D01*
X0074570Y0113146D02*
X0073536Y0113146D01*
X0073536Y0113489D02*
X0074570Y0113489D01*
X0076538Y0113545D02*
X0076538Y0112117D01*
X0075504Y0112117D01*
X0075504Y0113545D01*
X0076538Y0113545D01*
X0076538Y0112460D02*
X0075504Y0112460D01*
X0075504Y0112803D02*
X0076538Y0112803D01*
X0076538Y0113146D02*
X0075504Y0113146D01*
X0075504Y0113489D02*
X0076538Y0113489D01*
X0078507Y0113545D02*
X0078507Y0112117D01*
X0077473Y0112117D01*
X0077473Y0113545D01*
X0078507Y0113545D01*
X0078507Y0112460D02*
X0077473Y0112460D01*
X0077473Y0112803D02*
X0078507Y0112803D01*
X0078507Y0113146D02*
X0077473Y0113146D01*
X0077473Y0113489D02*
X0078507Y0113489D01*
X0080475Y0113545D02*
X0080475Y0112117D01*
X0079441Y0112117D01*
X0079441Y0113545D01*
X0080475Y0113545D01*
X0080475Y0112460D02*
X0079441Y0112460D01*
X0079441Y0112803D02*
X0080475Y0112803D01*
X0080475Y0113146D02*
X0079441Y0113146D01*
X0079441Y0113489D02*
X0080475Y0113489D01*
X0081272Y0110286D02*
X0082700Y0110286D01*
X0081272Y0110286D02*
X0081272Y0111320D01*
X0082700Y0111320D01*
X0082700Y0110286D01*
X0082700Y0110629D02*
X0081272Y0110629D01*
X0081272Y0110972D02*
X0082700Y0110972D01*
X0082700Y0111315D02*
X0081272Y0111315D01*
X0081272Y0108318D02*
X0082700Y0108318D01*
X0081272Y0108318D02*
X0081272Y0109352D01*
X0082700Y0109352D01*
X0082700Y0108318D01*
X0082700Y0108661D02*
X0081272Y0108661D01*
X0081272Y0109004D02*
X0082700Y0109004D01*
X0082700Y0109347D02*
X0081272Y0109347D01*
X0081272Y0106349D02*
X0082700Y0106349D01*
X0081272Y0106349D02*
X0081272Y0107383D01*
X0082700Y0107383D01*
X0082700Y0106349D01*
X0082700Y0106692D02*
X0081272Y0106692D01*
X0081272Y0107035D02*
X0082700Y0107035D01*
X0082700Y0107378D02*
X0081272Y0107378D01*
X0081272Y0104381D02*
X0082700Y0104381D01*
X0081272Y0104381D02*
X0081272Y0105415D01*
X0082700Y0105415D01*
X0082700Y0104381D01*
X0082700Y0104724D02*
X0081272Y0104724D01*
X0081272Y0105067D02*
X0082700Y0105067D01*
X0082700Y0105410D02*
X0081272Y0105410D01*
X0081272Y0102412D02*
X0082700Y0102412D01*
X0081272Y0102412D02*
X0081272Y0103446D01*
X0082700Y0103446D01*
X0082700Y0102412D01*
X0082700Y0102755D02*
X0081272Y0102755D01*
X0081272Y0103098D02*
X0082700Y0103098D01*
X0082700Y0103441D02*
X0081272Y0103441D01*
X0081272Y0100444D02*
X0082700Y0100444D01*
X0081272Y0100444D02*
X0081272Y0101478D01*
X0082700Y0101478D01*
X0082700Y0100444D01*
X0082700Y0100787D02*
X0081272Y0100787D01*
X0081272Y0101130D02*
X0082700Y0101130D01*
X0082700Y0101473D02*
X0081272Y0101473D01*
X0081272Y0098475D02*
X0082700Y0098475D01*
X0081272Y0098475D02*
X0081272Y0099509D01*
X0082700Y0099509D01*
X0082700Y0098475D01*
X0082700Y0098818D02*
X0081272Y0098818D01*
X0081272Y0099161D02*
X0082700Y0099161D01*
X0082700Y0099504D02*
X0081272Y0099504D01*
X0081272Y0096507D02*
X0082700Y0096507D01*
X0081272Y0096507D02*
X0081272Y0097541D01*
X0082700Y0097541D01*
X0082700Y0096507D01*
X0082700Y0096850D02*
X0081272Y0096850D01*
X0081272Y0097193D02*
X0082700Y0097193D01*
X0082700Y0097536D02*
X0081272Y0097536D01*
X0081272Y0094538D02*
X0082700Y0094538D01*
X0081272Y0094538D02*
X0081272Y0095572D01*
X0082700Y0095572D01*
X0082700Y0094538D01*
X0082700Y0094881D02*
X0081272Y0094881D01*
X0081272Y0095224D02*
X0082700Y0095224D01*
X0082700Y0095567D02*
X0081272Y0095567D01*
X0081272Y0092570D02*
X0082700Y0092570D01*
X0081272Y0092570D02*
X0081272Y0093604D01*
X0082700Y0093604D01*
X0082700Y0092570D01*
X0082700Y0092913D02*
X0081272Y0092913D01*
X0081272Y0093256D02*
X0082700Y0093256D01*
X0082700Y0093599D02*
X0081272Y0093599D01*
X0081272Y0090601D02*
X0082700Y0090601D01*
X0081272Y0090601D02*
X0081272Y0091635D01*
X0082700Y0091635D01*
X0082700Y0090601D01*
X0082700Y0090944D02*
X0081272Y0090944D01*
X0081272Y0091287D02*
X0082700Y0091287D01*
X0082700Y0091630D02*
X0081272Y0091630D01*
X0081272Y0088633D02*
X0082700Y0088633D01*
X0081272Y0088633D02*
X0081272Y0089667D01*
X0082700Y0089667D01*
X0082700Y0088633D01*
X0082700Y0088976D02*
X0081272Y0088976D01*
X0081272Y0089319D02*
X0082700Y0089319D01*
X0082700Y0089662D02*
X0081272Y0089662D01*
X0079441Y0087836D02*
X0079441Y0086408D01*
X0079441Y0087836D02*
X0080475Y0087836D01*
X0080475Y0086408D01*
X0079441Y0086408D01*
X0079441Y0086751D02*
X0080475Y0086751D01*
X0080475Y0087094D02*
X0079441Y0087094D01*
X0079441Y0087437D02*
X0080475Y0087437D01*
X0080475Y0087780D02*
X0079441Y0087780D01*
X0077473Y0087836D02*
X0077473Y0086408D01*
X0077473Y0087836D02*
X0078507Y0087836D01*
X0078507Y0086408D01*
X0077473Y0086408D01*
X0077473Y0086751D02*
X0078507Y0086751D01*
X0078507Y0087094D02*
X0077473Y0087094D01*
X0077473Y0087437D02*
X0078507Y0087437D01*
X0078507Y0087780D02*
X0077473Y0087780D01*
X0075504Y0087836D02*
X0075504Y0086408D01*
X0075504Y0087836D02*
X0076538Y0087836D01*
X0076538Y0086408D01*
X0075504Y0086408D01*
X0075504Y0086751D02*
X0076538Y0086751D01*
X0076538Y0087094D02*
X0075504Y0087094D01*
X0075504Y0087437D02*
X0076538Y0087437D01*
X0076538Y0087780D02*
X0075504Y0087780D01*
X0073536Y0087836D02*
X0073536Y0086408D01*
X0073536Y0087836D02*
X0074570Y0087836D01*
X0074570Y0086408D01*
X0073536Y0086408D01*
X0073536Y0086751D02*
X0074570Y0086751D01*
X0074570Y0087094D02*
X0073536Y0087094D01*
X0073536Y0087437D02*
X0074570Y0087437D01*
X0074570Y0087780D02*
X0073536Y0087780D01*
X0071567Y0087836D02*
X0071567Y0086408D01*
X0071567Y0087836D02*
X0072601Y0087836D01*
X0072601Y0086408D01*
X0071567Y0086408D01*
X0071567Y0086751D02*
X0072601Y0086751D01*
X0072601Y0087094D02*
X0071567Y0087094D01*
X0071567Y0087437D02*
X0072601Y0087437D01*
X0072601Y0087780D02*
X0071567Y0087780D01*
X0069599Y0087836D02*
X0069599Y0086408D01*
X0069599Y0087836D02*
X0070633Y0087836D01*
X0070633Y0086408D01*
X0069599Y0086408D01*
X0069599Y0086751D02*
X0070633Y0086751D01*
X0070633Y0087094D02*
X0069599Y0087094D01*
X0069599Y0087437D02*
X0070633Y0087437D01*
X0070633Y0087780D02*
X0069599Y0087780D01*
X0067630Y0087836D02*
X0067630Y0086408D01*
X0067630Y0087836D02*
X0068664Y0087836D01*
X0068664Y0086408D01*
X0067630Y0086408D01*
X0067630Y0086751D02*
X0068664Y0086751D01*
X0068664Y0087094D02*
X0067630Y0087094D01*
X0067630Y0087437D02*
X0068664Y0087437D01*
X0068664Y0087780D02*
X0067630Y0087780D01*
X0065662Y0087836D02*
X0065662Y0086408D01*
X0065662Y0087836D02*
X0066696Y0087836D01*
X0066696Y0086408D01*
X0065662Y0086408D01*
X0065662Y0086751D02*
X0066696Y0086751D01*
X0066696Y0087094D02*
X0065662Y0087094D01*
X0065662Y0087437D02*
X0066696Y0087437D01*
X0066696Y0087780D02*
X0065662Y0087780D01*
X0063693Y0087836D02*
X0063693Y0086408D01*
X0063693Y0087836D02*
X0064727Y0087836D01*
X0064727Y0086408D01*
X0063693Y0086408D01*
X0063693Y0086751D02*
X0064727Y0086751D01*
X0064727Y0087094D02*
X0063693Y0087094D01*
X0063693Y0087437D02*
X0064727Y0087437D01*
X0064727Y0087780D02*
X0063693Y0087780D01*
X0061725Y0087836D02*
X0061725Y0086408D01*
X0061725Y0087836D02*
X0062759Y0087836D01*
X0062759Y0086408D01*
X0061725Y0086408D01*
X0061725Y0086751D02*
X0062759Y0086751D01*
X0062759Y0087094D02*
X0061725Y0087094D01*
X0061725Y0087437D02*
X0062759Y0087437D01*
X0062759Y0087780D02*
X0061725Y0087780D01*
X0059756Y0087836D02*
X0059756Y0086408D01*
X0059756Y0087836D02*
X0060790Y0087836D01*
X0060790Y0086408D01*
X0059756Y0086408D01*
X0059756Y0086751D02*
X0060790Y0086751D01*
X0060790Y0087094D02*
X0059756Y0087094D01*
X0059756Y0087437D02*
X0060790Y0087437D01*
X0060790Y0087780D02*
X0059756Y0087780D01*
D12*
X0069131Y0099976D03*
D13*
X0067557Y0116512D03*
X0063620Y0116512D03*
X0077006Y0118480D03*
X0080943Y0118480D03*
X0087439Y0082850D03*
X0091376Y0082850D03*
X0091376Y0078362D03*
X0087439Y0078362D03*
X0080943Y0077929D03*
X0077006Y0077929D03*
X0042754Y0070055D03*
X0038817Y0070055D03*
D14*
X0059880Y0123402D03*
X0069722Y0123402D03*
D15*
X0054958Y0120449D03*
X0054958Y0116512D03*
X0085588Y0102654D03*
X0085588Y0098717D03*
X0092754Y0113756D03*
X0092754Y0117693D03*
X0052990Y0053520D03*
X0052990Y0049583D03*
X0071100Y0048402D03*
X0071100Y0052339D03*
D16*
X0035273Y0079504D03*
X0035273Y0089504D03*
X0035273Y0099504D03*
X0035273Y0109504D03*
X0035273Y0119504D03*
D17*
X0049643Y0124780D03*
X0054761Y0124780D03*
X0085470Y0091118D03*
X0090588Y0091118D03*
D18*
X0093935Y0060606D03*
X0093935Y0027535D03*
X0076612Y0027535D03*
X0052990Y0027535D03*
X0035667Y0027535D03*
X0035667Y0060606D03*
D19*
X0032517Y0049386D03*
X0032517Y0043087D03*
X0032517Y0036787D03*
X0039604Y0036787D03*
X0039604Y0043087D03*
X0039604Y0049386D03*
X0075431Y0052339D03*
X0082517Y0052339D03*
X0090391Y0049386D03*
X0090391Y0043087D03*
X0090391Y0036787D03*
X0097478Y0036787D03*
X0097478Y0043087D03*
X0097478Y0049386D03*
X0097084Y0072417D03*
X0089998Y0072417D03*
D20*
X0080155Y0068559D03*
X0080155Y0061472D03*
X0045509Y0057063D03*
X0045509Y0049976D03*
D21*
X0059092Y0051768D03*
X0062832Y0051768D03*
X0066572Y0051768D03*
X0066572Y0042673D03*
X0062832Y0042673D03*
X0059092Y0042673D03*
D22*
X0073856Y0056866D03*
X0073856Y0065921D03*
D23*
X0074156Y0066125D02*
X0077097Y0066125D01*
X0077117Y0066104D02*
X0077368Y0065959D01*
X0077648Y0065884D01*
X0079855Y0065884D01*
X0079855Y0068259D01*
X0076693Y0068259D01*
X0076693Y0066839D01*
X0076768Y0066560D01*
X0076913Y0066309D01*
X0077117Y0066104D01*
X0076590Y0066221D02*
X0076590Y0067306D01*
X0076515Y0067586D01*
X0076370Y0067837D01*
X0076165Y0068042D01*
X0075914Y0068186D01*
X0075635Y0068261D01*
X0074156Y0068261D01*
X0074156Y0066221D01*
X0076590Y0066221D01*
X0076590Y0066723D02*
X0076724Y0066723D01*
X0076693Y0067322D02*
X0076586Y0067322D01*
X0076693Y0067920D02*
X0076287Y0067920D01*
X0076693Y0068859D02*
X0076693Y0070279D01*
X0076768Y0070558D01*
X0076913Y0070809D01*
X0077117Y0071014D01*
X0077368Y0071159D01*
X0077648Y0071234D01*
X0079855Y0071234D01*
X0079855Y0068859D01*
X0079855Y0068259D01*
X0080455Y0068259D01*
X0080455Y0065884D01*
X0082662Y0065884D01*
X0082942Y0065959D01*
X0083193Y0066104D01*
X0083398Y0066309D01*
X0083542Y0066560D01*
X0083617Y0066839D01*
X0083617Y0068259D01*
X0080455Y0068259D01*
X0080455Y0068859D01*
X0079855Y0068859D01*
X0076693Y0068859D01*
X0076693Y0069117D02*
X0069891Y0069117D01*
X0069629Y0068855D02*
X0070331Y0069558D01*
X0076425Y0075651D01*
X0078559Y0075651D01*
X0078974Y0076066D01*
X0079389Y0075651D01*
X0082496Y0075651D01*
X0083024Y0076178D01*
X0083024Y0076229D01*
X0085740Y0076229D01*
X0085885Y0076084D01*
X0088992Y0076084D01*
X0089279Y0076370D01*
X0089314Y0076309D01*
X0089519Y0076104D01*
X0089770Y0075959D01*
X0090050Y0075884D01*
X0091085Y0075884D01*
X0091085Y0078072D01*
X0091666Y0078072D01*
X0091666Y0078653D01*
X0091085Y0078653D01*
X0091085Y0082560D01*
X0091666Y0082560D01*
X0091666Y0080372D01*
X0091666Y0078653D01*
X0093657Y0078653D01*
X0093657Y0079885D01*
X0093582Y0080165D01*
X0093437Y0080416D01*
X0093246Y0080606D01*
X0093437Y0080797D01*
X0093582Y0081048D01*
X0093657Y0081328D01*
X0093657Y0082560D01*
X0091666Y0082560D01*
X0091666Y0083141D01*
X0091085Y0083141D01*
X0091085Y0085328D01*
X0090050Y0085328D01*
X0089770Y0085253D01*
X0089519Y0085109D01*
X0089314Y0084904D01*
X0089279Y0084842D01*
X0088992Y0085128D01*
X0085885Y0085128D01*
X0085755Y0084998D01*
X0083602Y0084998D01*
X0083186Y0085414D01*
X0083186Y0087603D01*
X0083271Y0087688D01*
X0083271Y0086549D01*
X0084444Y0085376D01*
X0086103Y0085376D01*
X0087276Y0086549D01*
X0087276Y0088207D01*
X0087036Y0088446D01*
X0087221Y0088446D01*
X0087748Y0088974D01*
X0087748Y0093263D01*
X0087221Y0093790D01*
X0083772Y0093790D01*
X0083772Y0093851D01*
X0083885Y0094047D01*
X0083972Y0094371D01*
X0083972Y0094581D01*
X0084107Y0094446D01*
X0084120Y0094446D01*
X0084130Y0094437D01*
X0084615Y0094446D01*
X0087185Y0094446D01*
X0087987Y0093643D01*
X0088408Y0093643D01*
X0088330Y0093565D01*
X0088185Y0093314D01*
X0088110Y0093035D01*
X0088110Y0091418D01*
X0090288Y0091418D01*
X0090288Y0090818D01*
X0088110Y0090818D01*
X0088110Y0089202D01*
X0088185Y0088922D01*
X0088330Y0088671D01*
X0088535Y0088466D01*
X0088786Y0088321D01*
X0089065Y0088246D01*
X0090288Y0088246D01*
X0090288Y0090818D01*
X0090888Y0090818D01*
X0090888Y0088246D01*
X0092111Y0088246D01*
X0092391Y0088321D01*
X0092642Y0088466D01*
X0092846Y0088671D01*
X0092991Y0088922D01*
X0093066Y0089202D01*
X0093066Y0090818D01*
X0090888Y0090818D01*
X0090888Y0091418D01*
X0090288Y0091418D01*
X0090288Y0093990D01*
X0089992Y0093990D01*
X0090819Y0094816D01*
X0090819Y0096475D01*
X0089646Y0097648D01*
X0087987Y0097648D01*
X0087866Y0097527D01*
X0087866Y0097750D01*
X0092113Y0097750D01*
X0092933Y0098570D01*
X0093760Y0099396D01*
X0093760Y0104962D01*
X0094362Y0105564D01*
X0094362Y0107223D01*
X0093189Y0108396D01*
X0092000Y0108396D01*
X0092000Y0109546D01*
X0090827Y0110719D01*
X0090031Y0110719D01*
X0090031Y0112066D01*
X0088859Y0113239D01*
X0088063Y0113239D01*
X0088063Y0114625D01*
X0086890Y0115798D01*
X0086488Y0115798D01*
X0086488Y0117144D01*
X0086470Y0117162D01*
X0086555Y0117162D01*
X0087593Y0116124D01*
X0089252Y0116124D01*
X0090425Y0117297D01*
X0090425Y0118324D01*
X0090476Y0118274D01*
X0090476Y0116139D01*
X0090762Y0115853D01*
X0090700Y0115817D01*
X0090495Y0115612D01*
X0090351Y0115362D01*
X0090276Y0115082D01*
X0090276Y0114046D01*
X0092463Y0114046D01*
X0092463Y0113465D01*
X0093044Y0113465D01*
X0093044Y0111475D01*
X0094276Y0111475D01*
X0094556Y0111550D01*
X0094807Y0111695D01*
X0095012Y0111899D01*
X0095157Y0112150D01*
X0095231Y0112430D01*
X0095231Y0113465D01*
X0093044Y0113465D01*
X0093044Y0114046D01*
X0095231Y0114046D01*
X0095231Y0115082D01*
X0095157Y0115362D01*
X0095012Y0115612D01*
X0094807Y0115817D01*
X0094745Y0115853D01*
X0095031Y0116139D01*
X0095031Y0119155D01*
X0099146Y0119155D01*
X0099146Y0075768D01*
X0099084Y0075805D01*
X0098804Y0075880D01*
X0097384Y0075880D01*
X0097384Y0072717D01*
X0096784Y0072717D01*
X0096784Y0072117D01*
X0097384Y0072117D01*
X0097384Y0068955D01*
X0098804Y0068955D01*
X0099084Y0069030D01*
X0099146Y0069066D01*
X0099146Y0067021D01*
X0094235Y0067021D01*
X0094235Y0060906D01*
X0093635Y0060906D01*
X0093635Y0067021D01*
X0088475Y0067021D01*
X0088195Y0066946D01*
X0087944Y0066801D01*
X0087879Y0066736D01*
X0087879Y0069043D01*
X0087979Y0069143D01*
X0090702Y0069143D01*
X0090714Y0069155D01*
X0091945Y0069155D01*
X0092472Y0069682D01*
X0092472Y0075152D01*
X0091945Y0075680D01*
X0088050Y0075680D01*
X0087523Y0075152D01*
X0087523Y0072998D01*
X0087204Y0073317D01*
X0085154Y0073317D01*
X0083704Y0071868D01*
X0083704Y0069817D01*
X0084479Y0069043D01*
X0084479Y0066940D01*
X0081486Y0063947D01*
X0077420Y0063947D01*
X0076893Y0063420D01*
X0076893Y0059525D01*
X0077420Y0058998D01*
X0080817Y0058998D01*
X0080817Y0055601D01*
X0080570Y0055601D01*
X0080043Y0055074D01*
X0080043Y0050773D01*
X0075406Y0046137D01*
X0071075Y0046137D01*
X0070372Y0045434D01*
X0069506Y0044568D01*
X0069506Y0038427D01*
X0067688Y0036609D01*
X0063138Y0036609D01*
X0060727Y0039020D01*
X0060821Y0039113D01*
X0060995Y0038939D01*
X0061246Y0038794D01*
X0061526Y0038719D01*
X0062552Y0038719D01*
X0062552Y0042392D01*
X0063113Y0042392D01*
X0063113Y0038719D01*
X0064139Y0038719D01*
X0064418Y0038794D01*
X0064669Y0038939D01*
X0064844Y0039113D01*
X0065038Y0038919D01*
X0068107Y0038919D01*
X0068634Y0039446D01*
X0068634Y0044491D01*
X0070464Y0046320D01*
X0072851Y0046320D01*
X0073378Y0046848D01*
X0073378Y0049182D01*
X0073483Y0049076D01*
X0077378Y0049076D01*
X0077905Y0049604D01*
X0077905Y0055074D01*
X0077378Y0055601D01*
X0076390Y0055601D01*
X0076390Y0058479D01*
X0075863Y0059006D01*
X0071849Y0059006D01*
X0071322Y0058479D01*
X0071322Y0055253D01*
X0071849Y0054726D01*
X0072943Y0054726D01*
X0072943Y0054327D01*
X0072851Y0054420D01*
X0069349Y0054420D01*
X0068968Y0054039D01*
X0068634Y0054039D01*
X0068634Y0054995D01*
X0068107Y0055522D01*
X0065038Y0055522D01*
X0064702Y0055186D01*
X0064366Y0055522D01*
X0063628Y0055522D01*
X0063536Y0055613D01*
X0062866Y0055613D01*
X0062866Y0056570D01*
X0062339Y0057097D01*
X0059389Y0057097D01*
X0058861Y0056570D01*
X0058861Y0055613D01*
X0050544Y0055613D01*
X0048772Y0057386D01*
X0048772Y0059011D01*
X0048244Y0059538D01*
X0042774Y0059538D01*
X0042381Y0059144D01*
X0041882Y0059144D01*
X0041882Y0066294D01*
X0041355Y0066821D01*
X0040517Y0066821D01*
X0040517Y0067923D01*
X0040785Y0068192D01*
X0041200Y0067777D01*
X0044307Y0067777D01*
X0044835Y0068304D01*
X0044835Y0068855D01*
X0069629Y0068855D01*
X0070331Y0069558D02*
X0070331Y0069558D01*
X0070489Y0069716D02*
X0076693Y0069716D01*
X0076702Y0070314D02*
X0071088Y0070314D01*
X0071686Y0070913D02*
X0077016Y0070913D01*
X0079855Y0070913D02*
X0080455Y0070913D01*
X0080455Y0071234D02*
X0080455Y0068859D01*
X0083617Y0068859D01*
X0083617Y0070279D01*
X0083542Y0070558D01*
X0083398Y0070809D01*
X0083193Y0071014D01*
X0082942Y0071159D01*
X0082662Y0071234D01*
X0080455Y0071234D01*
X0080455Y0070314D02*
X0079855Y0070314D01*
X0079855Y0069716D02*
X0080455Y0069716D01*
X0080455Y0069117D02*
X0079855Y0069117D01*
X0079855Y0068519D02*
X0044835Y0068519D01*
X0044450Y0067920D02*
X0071425Y0067920D01*
X0071342Y0067837D02*
X0071197Y0067586D01*
X0071122Y0067306D01*
X0071122Y0066221D01*
X0073556Y0066221D01*
X0073556Y0065621D01*
X0074156Y0065621D01*
X0074156Y0063581D01*
X0075635Y0063581D01*
X0075914Y0063656D01*
X0076165Y0063801D01*
X0076370Y0064006D01*
X0076515Y0064257D01*
X0076590Y0064536D01*
X0076590Y0065621D01*
X0074156Y0065621D01*
X0074156Y0066221D01*
X0073556Y0066221D01*
X0073556Y0068261D01*
X0072077Y0068261D01*
X0071797Y0068186D01*
X0071547Y0068042D01*
X0071342Y0067837D01*
X0071126Y0067322D02*
X0048177Y0067322D01*
X0048166Y0067333D02*
X0045215Y0067333D01*
X0044688Y0066806D01*
X0044688Y0063856D01*
X0045215Y0063328D01*
X0048166Y0063328D01*
X0048693Y0063856D01*
X0048693Y0064131D01*
X0064697Y0064131D01*
X0067720Y0061108D01*
X0067720Y0059974D01*
X0068893Y0058801D01*
X0070551Y0058801D01*
X0071724Y0059974D01*
X0071724Y0061633D01*
X0070551Y0062805D01*
X0069417Y0062805D01*
X0066394Y0065828D01*
X0065692Y0066531D01*
X0048693Y0066531D01*
X0048693Y0066806D01*
X0048166Y0067333D01*
X0048693Y0066723D02*
X0071122Y0066723D01*
X0071122Y0065621D02*
X0071122Y0064536D01*
X0071197Y0064257D01*
X0071342Y0064006D01*
X0071547Y0063801D01*
X0071797Y0063656D01*
X0072077Y0063581D01*
X0073556Y0063581D01*
X0073556Y0065621D01*
X0071122Y0065621D01*
X0071122Y0065526D02*
X0066696Y0065526D01*
X0066098Y0066125D02*
X0073556Y0066125D01*
X0073556Y0066723D02*
X0074156Y0066723D01*
X0074156Y0067322D02*
X0073556Y0067322D01*
X0073556Y0067920D02*
X0074156Y0067920D01*
X0074156Y0065526D02*
X0073556Y0065526D01*
X0073556Y0064928D02*
X0074156Y0064928D01*
X0074156Y0064329D02*
X0073556Y0064329D01*
X0073556Y0063731D02*
X0074156Y0063731D01*
X0076043Y0063731D02*
X0077203Y0063731D01*
X0076893Y0063132D02*
X0069090Y0063132D01*
X0068492Y0063731D02*
X0071668Y0063731D01*
X0071178Y0064329D02*
X0067893Y0064329D01*
X0067295Y0064928D02*
X0071122Y0064928D01*
X0070823Y0062534D02*
X0076893Y0062534D01*
X0076893Y0061935D02*
X0071422Y0061935D01*
X0071724Y0061336D02*
X0076893Y0061336D01*
X0076893Y0060738D02*
X0071724Y0060738D01*
X0071724Y0060139D02*
X0076893Y0060139D01*
X0076893Y0059541D02*
X0071292Y0059541D01*
X0071785Y0058942D02*
X0070693Y0058942D01*
X0071322Y0058344D02*
X0048772Y0058344D01*
X0048772Y0058942D02*
X0068751Y0058942D01*
X0068152Y0059541D02*
X0041882Y0059541D01*
X0041882Y0060139D02*
X0067720Y0060139D01*
X0067720Y0060738D02*
X0041882Y0060738D01*
X0041882Y0061336D02*
X0067492Y0061336D01*
X0066893Y0061935D02*
X0041882Y0061935D01*
X0041882Y0062534D02*
X0066295Y0062534D01*
X0065696Y0063132D02*
X0041882Y0063132D01*
X0041882Y0063731D02*
X0044813Y0063731D01*
X0044688Y0064329D02*
X0041882Y0064329D01*
X0041882Y0064928D02*
X0044688Y0064928D01*
X0044688Y0065526D02*
X0041882Y0065526D01*
X0041882Y0066125D02*
X0044688Y0066125D01*
X0044688Y0066723D02*
X0041453Y0066723D01*
X0040517Y0067322D02*
X0045204Y0067322D01*
X0046691Y0065331D02*
X0065194Y0065331D01*
X0069722Y0060803D01*
X0071322Y0057745D02*
X0048772Y0057745D01*
X0049011Y0057147D02*
X0071322Y0057147D01*
X0071322Y0056548D02*
X0062866Y0056548D01*
X0062866Y0055950D02*
X0071322Y0055950D01*
X0071322Y0055351D02*
X0068277Y0055351D01*
X0068634Y0054753D02*
X0071822Y0054753D01*
X0069084Y0054154D02*
X0068634Y0054154D01*
X0068634Y0050639D02*
X0068968Y0050639D01*
X0069237Y0050370D01*
X0068822Y0049955D01*
X0068822Y0048356D01*
X0066894Y0046428D01*
X0065038Y0046428D01*
X0064844Y0046233D01*
X0064669Y0046408D01*
X0064418Y0046553D01*
X0064139Y0046628D01*
X0063113Y0046628D01*
X0063113Y0042954D01*
X0062552Y0042954D01*
X0062552Y0046628D01*
X0061526Y0046628D01*
X0061246Y0046553D01*
X0060995Y0046408D01*
X0060821Y0046233D01*
X0060626Y0046428D01*
X0057558Y0046428D01*
X0057031Y0045900D01*
X0057031Y0039446D01*
X0057558Y0038919D01*
X0057892Y0038919D01*
X0057892Y0038461D01*
X0062144Y0034209D01*
X0068682Y0034209D01*
X0071203Y0036730D01*
X0071203Y0036730D01*
X0071906Y0037433D01*
X0071906Y0043574D01*
X0072069Y0043737D01*
X0076400Y0043737D01*
X0081740Y0049076D01*
X0084465Y0049076D01*
X0084992Y0049604D01*
X0084992Y0055074D01*
X0084465Y0055601D01*
X0084217Y0055601D01*
X0084217Y0061871D01*
X0086883Y0064536D01*
X0087520Y0065173D01*
X0087520Y0060906D01*
X0093635Y0060906D01*
X0093635Y0060306D01*
X0094235Y0060306D01*
X0094235Y0054191D01*
X0099146Y0054191D01*
X0099146Y0052848D01*
X0097778Y0052848D01*
X0097778Y0049686D01*
X0097178Y0049686D01*
X0097178Y0052848D01*
X0095758Y0052848D01*
X0095479Y0052773D01*
X0095228Y0052628D01*
X0095023Y0052423D01*
X0094878Y0052173D01*
X0094803Y0051893D01*
X0094803Y0049686D01*
X0097178Y0049686D01*
X0097178Y0049086D01*
X0094803Y0049086D01*
X0094803Y0046879D01*
X0094878Y0046599D01*
X0095023Y0046348D01*
X0095135Y0046236D01*
X0095023Y0046124D01*
X0094878Y0045873D01*
X0094803Y0045594D01*
X0094803Y0043387D01*
X0097178Y0043387D01*
X0097178Y0046549D01*
X0097178Y0049086D01*
X0097778Y0049086D01*
X0097778Y0043387D01*
X0097178Y0043387D01*
X0097178Y0042787D01*
X0094803Y0042787D01*
X0094803Y0040580D01*
X0094878Y0040300D01*
X0095023Y0040049D01*
X0095135Y0039937D01*
X0095023Y0039825D01*
X0094878Y0039574D01*
X0094803Y0039294D01*
X0094803Y0037087D01*
X0097178Y0037087D01*
X0097178Y0036487D01*
X0094803Y0036487D01*
X0094803Y0034280D01*
X0094878Y0034001D01*
X0095023Y0033750D01*
X0092564Y0033750D01*
X0092866Y0034052D01*
X0092866Y0039522D01*
X0092452Y0039937D01*
X0092866Y0040352D01*
X0092866Y0045822D01*
X0092452Y0046236D01*
X0092866Y0046651D01*
X0092866Y0052121D01*
X0092339Y0052648D01*
X0090910Y0052648D01*
X0090910Y0053043D01*
X0090425Y0053528D01*
X0090425Y0053955D01*
X0090189Y0054191D01*
X0093635Y0054191D01*
X0093635Y0060306D01*
X0087520Y0060306D01*
X0087520Y0055147D01*
X0087539Y0055074D01*
X0086420Y0053955D01*
X0086420Y0052297D01*
X0087510Y0051207D01*
X0087510Y0050453D01*
X0087917Y0050047D01*
X0087917Y0046651D01*
X0088331Y0046236D01*
X0087917Y0045822D01*
X0087917Y0040352D01*
X0088331Y0039937D01*
X0087917Y0039522D01*
X0087917Y0034052D01*
X0088233Y0033736D01*
X0087720Y0033223D01*
X0087720Y0032654D01*
X0082827Y0032654D01*
X0082827Y0033223D01*
X0082300Y0033750D01*
X0070924Y0033750D01*
X0070397Y0033223D01*
X0070397Y0022324D01*
X0059205Y0022324D01*
X0059205Y0033223D01*
X0058678Y0033750D01*
X0047302Y0033750D01*
X0046775Y0033223D01*
X0046775Y0032654D01*
X0041882Y0032654D01*
X0041882Y0033223D01*
X0041668Y0033437D01*
X0041854Y0033545D01*
X0042059Y0033750D01*
X0042204Y0034001D01*
X0042279Y0034280D01*
X0042279Y0036487D01*
X0039904Y0036487D01*
X0039904Y0037087D01*
X0042279Y0037087D01*
X0042279Y0039294D01*
X0042204Y0039574D01*
X0042059Y0039825D01*
X0041947Y0039937D01*
X0042059Y0040049D01*
X0042204Y0040300D01*
X0042279Y0040580D01*
X0042279Y0042787D01*
X0039904Y0042787D01*
X0039904Y0043387D01*
X0039304Y0043387D01*
X0039304Y0049086D01*
X0039904Y0049086D01*
X0039904Y0049686D01*
X0039304Y0049686D01*
X0039304Y0052848D01*
X0038477Y0052848D01*
X0038166Y0053160D01*
X0037420Y0053160D01*
X0036893Y0052633D01*
X0036893Y0039286D01*
X0036854Y0039247D01*
X0036854Y0038501D01*
X0036929Y0038426D01*
X0036929Y0037087D01*
X0039304Y0037087D01*
X0039304Y0036487D01*
X0036929Y0036487D01*
X0036929Y0034280D01*
X0037004Y0034001D01*
X0037149Y0033750D01*
X0035273Y0033750D01*
X0035273Y0054391D01*
X0041355Y0054391D01*
X0041882Y0054919D01*
X0041882Y0054982D01*
X0042381Y0054982D01*
X0042774Y0054588D01*
X0046761Y0054588D01*
X0049136Y0052213D01*
X0050712Y0052213D01*
X0050712Y0051966D01*
X0050998Y0051680D01*
X0050936Y0051644D01*
X0050732Y0051439D01*
X0050587Y0051188D01*
X0050512Y0050909D01*
X0050512Y0049873D01*
X0052699Y0049873D01*
X0052699Y0049292D01*
X0050512Y0049292D01*
X0050512Y0048257D01*
X0050587Y0047977D01*
X0050732Y0047726D01*
X0050936Y0047521D01*
X0051187Y0047377D01*
X0051467Y0047302D01*
X0052699Y0047302D01*
X0052699Y0049292D01*
X0053280Y0049292D01*
X0053280Y0047302D01*
X0054513Y0047302D01*
X0054792Y0047377D01*
X0055043Y0047521D01*
X0055248Y0047726D01*
X0055393Y0047977D01*
X0055468Y0048257D01*
X0055468Y0049292D01*
X0053280Y0049292D01*
X0053280Y0049873D01*
X0055468Y0049873D01*
X0055468Y0050909D01*
X0055393Y0051188D01*
X0055248Y0051439D01*
X0055043Y0051644D01*
X0054981Y0051680D01*
X0055268Y0051966D01*
X0055268Y0052213D01*
X0057031Y0052213D01*
X0057031Y0048541D01*
X0057558Y0048013D01*
X0060626Y0048013D01*
X0060962Y0048349D01*
X0061298Y0048013D01*
X0064366Y0048013D01*
X0064702Y0048349D01*
X0065038Y0048013D01*
X0068107Y0048013D01*
X0068634Y0048541D01*
X0068634Y0050639D01*
X0068634Y0050563D02*
X0069043Y0050563D01*
X0068831Y0049965D02*
X0068634Y0049965D01*
X0068634Y0049366D02*
X0068822Y0049366D01*
X0068822Y0048768D02*
X0068634Y0048768D01*
X0068635Y0048169D02*
X0068262Y0048169D01*
X0068037Y0047571D02*
X0055092Y0047571D01*
X0055444Y0048169D02*
X0057402Y0048169D01*
X0057031Y0048768D02*
X0055468Y0048768D01*
X0055468Y0049965D02*
X0057031Y0049965D01*
X0057031Y0050563D02*
X0055468Y0050563D01*
X0055400Y0051162D02*
X0057031Y0051162D01*
X0057031Y0051760D02*
X0055062Y0051760D01*
X0053777Y0053913D02*
X0052990Y0053520D01*
X0050917Y0051760D02*
X0048954Y0051760D01*
X0048972Y0051696D02*
X0048897Y0051976D01*
X0048752Y0052227D01*
X0048547Y0052431D01*
X0048296Y0052576D01*
X0048016Y0052651D01*
X0045809Y0052651D01*
X0045809Y0050276D01*
X0045209Y0050276D01*
X0045209Y0049676D01*
X0042047Y0049676D01*
X0042047Y0049086D01*
X0039904Y0049086D01*
X0039904Y0045924D01*
X0039904Y0043387D01*
X0042279Y0043387D01*
X0042279Y0045594D01*
X0042204Y0045873D01*
X0042059Y0046124D01*
X0041947Y0046236D01*
X0042059Y0046348D01*
X0042204Y0046599D01*
X0042279Y0046879D01*
X0042279Y0047714D01*
X0042472Y0047521D01*
X0042723Y0047377D01*
X0043002Y0047302D01*
X0045209Y0047302D01*
X0045209Y0049676D01*
X0045809Y0049676D01*
X0045809Y0047302D01*
X0048016Y0047302D01*
X0048296Y0047377D01*
X0048547Y0047521D01*
X0048752Y0047726D01*
X0048897Y0047977D01*
X0048972Y0048257D01*
X0048972Y0049676D01*
X0045809Y0049676D01*
X0045809Y0050276D01*
X0048972Y0050276D01*
X0048972Y0051696D01*
X0048972Y0051162D02*
X0050580Y0051162D01*
X0050512Y0050563D02*
X0048972Y0050563D01*
X0048972Y0049366D02*
X0052699Y0049366D01*
X0053280Y0049366D02*
X0057031Y0049366D01*
X0057504Y0046374D02*
X0042074Y0046374D01*
X0042230Y0045775D02*
X0057031Y0045775D01*
X0057031Y0045177D02*
X0042279Y0045177D01*
X0042279Y0044578D02*
X0057031Y0044578D01*
X0057031Y0043980D02*
X0042279Y0043980D01*
X0042279Y0042783D02*
X0057031Y0042783D01*
X0057031Y0043381D02*
X0039904Y0043381D01*
X0039904Y0042787D02*
X0039904Y0039624D01*
X0039904Y0037087D01*
X0039304Y0037087D01*
X0039304Y0042787D01*
X0039904Y0042787D01*
X0039904Y0042783D02*
X0039304Y0042783D01*
X0039304Y0042184D02*
X0039904Y0042184D01*
X0039904Y0041586D02*
X0039304Y0041586D01*
X0039304Y0040987D02*
X0039904Y0040987D01*
X0039904Y0040389D02*
X0039304Y0040389D01*
X0039304Y0039790D02*
X0039904Y0039790D01*
X0039904Y0039192D02*
X0039304Y0039192D01*
X0039304Y0038593D02*
X0039904Y0038593D01*
X0039904Y0037995D02*
X0039304Y0037995D01*
X0039304Y0037396D02*
X0039904Y0037396D01*
X0039904Y0036798D02*
X0059556Y0036798D01*
X0058957Y0037396D02*
X0042279Y0037396D01*
X0042279Y0037995D02*
X0058359Y0037995D01*
X0057892Y0038593D02*
X0042279Y0038593D01*
X0042279Y0039192D02*
X0057285Y0039192D01*
X0057031Y0039790D02*
X0042079Y0039790D01*
X0042228Y0040389D02*
X0057031Y0040389D01*
X0057031Y0040987D02*
X0042279Y0040987D01*
X0042279Y0041586D02*
X0057031Y0041586D01*
X0057031Y0042184D02*
X0042279Y0042184D01*
X0039904Y0043980D02*
X0039304Y0043980D01*
X0039304Y0044578D02*
X0039904Y0044578D01*
X0039904Y0045177D02*
X0039304Y0045177D01*
X0039304Y0045775D02*
X0039904Y0045775D01*
X0039904Y0046374D02*
X0039304Y0046374D01*
X0039304Y0046972D02*
X0039904Y0046972D01*
X0039904Y0047571D02*
X0039304Y0047571D01*
X0039304Y0048169D02*
X0039904Y0048169D01*
X0039904Y0048768D02*
X0039304Y0048768D01*
X0039904Y0049366D02*
X0042047Y0049366D01*
X0042279Y0049686D02*
X0042279Y0050276D01*
X0045209Y0050276D01*
X0045209Y0052651D01*
X0043002Y0052651D01*
X0042723Y0052576D01*
X0042472Y0052431D01*
X0042267Y0052227D01*
X0042214Y0052135D01*
X0042204Y0052173D01*
X0042059Y0052423D01*
X0041854Y0052628D01*
X0041603Y0052773D01*
X0041324Y0052848D01*
X0039904Y0052848D01*
X0039904Y0049686D01*
X0042279Y0049686D01*
X0042279Y0049965D02*
X0045209Y0049965D01*
X0045209Y0050563D02*
X0045809Y0050563D01*
X0045809Y0049965D02*
X0050512Y0049965D01*
X0050512Y0048768D02*
X0048972Y0048768D01*
X0048948Y0048169D02*
X0050535Y0048169D01*
X0050887Y0047571D02*
X0048596Y0047571D01*
X0045809Y0047571D02*
X0045209Y0047571D01*
X0045209Y0048169D02*
X0045809Y0048169D01*
X0045809Y0048768D02*
X0045209Y0048768D01*
X0045209Y0049366D02*
X0045809Y0049366D01*
X0045809Y0051162D02*
X0045209Y0051162D01*
X0045209Y0051760D02*
X0045809Y0051760D01*
X0045809Y0052359D02*
X0045209Y0052359D01*
X0042610Y0054753D02*
X0041716Y0054753D01*
X0042096Y0052359D02*
X0042399Y0052359D01*
X0039904Y0052359D02*
X0039304Y0052359D01*
X0039304Y0051760D02*
X0039904Y0051760D01*
X0039904Y0051162D02*
X0039304Y0051162D01*
X0039304Y0050563D02*
X0039904Y0050563D01*
X0039904Y0049965D02*
X0039304Y0049965D01*
X0036893Y0049965D02*
X0035273Y0049965D01*
X0035273Y0050563D02*
X0036893Y0050563D01*
X0036893Y0051162D02*
X0035273Y0051162D01*
X0035273Y0051760D02*
X0036893Y0051760D01*
X0036893Y0052359D02*
X0035273Y0052359D01*
X0035273Y0052957D02*
X0037218Y0052957D01*
X0038368Y0052957D02*
X0048392Y0052957D01*
X0048620Y0052359D02*
X0048991Y0052359D01*
X0047794Y0053556D02*
X0035273Y0053556D01*
X0035273Y0054154D02*
X0047195Y0054154D01*
X0049609Y0056548D02*
X0058861Y0056548D01*
X0058861Y0055950D02*
X0050208Y0055950D01*
X0052699Y0048768D02*
X0053280Y0048768D01*
X0053280Y0048169D02*
X0052699Y0048169D01*
X0052699Y0047571D02*
X0053280Y0047571D01*
X0059092Y0042673D02*
X0059092Y0038958D01*
X0062641Y0035409D01*
X0068185Y0035409D01*
X0070706Y0037930D01*
X0070706Y0044071D01*
X0071572Y0044937D01*
X0075903Y0044937D01*
X0082517Y0051551D01*
X0082517Y0052339D01*
X0080043Y0052359D02*
X0077905Y0052359D01*
X0077905Y0052957D02*
X0080043Y0052957D01*
X0080043Y0053556D02*
X0077905Y0053556D01*
X0077905Y0054154D02*
X0080043Y0054154D01*
X0080043Y0054753D02*
X0077905Y0054753D01*
X0077628Y0055351D02*
X0080320Y0055351D01*
X0080817Y0055950D02*
X0076390Y0055950D01*
X0076390Y0056548D02*
X0080817Y0056548D01*
X0080817Y0057147D02*
X0076390Y0057147D01*
X0076390Y0057745D02*
X0080817Y0057745D01*
X0080817Y0058344D02*
X0076390Y0058344D01*
X0075926Y0058942D02*
X0080817Y0058942D01*
X0084217Y0058942D02*
X0087520Y0058942D01*
X0087520Y0058344D02*
X0084217Y0058344D01*
X0084217Y0057745D02*
X0087520Y0057745D01*
X0087520Y0057147D02*
X0084217Y0057147D01*
X0084217Y0056548D02*
X0087520Y0056548D01*
X0087520Y0055950D02*
X0084217Y0055950D01*
X0084714Y0055351D02*
X0087520Y0055351D01*
X0087218Y0054753D02*
X0084992Y0054753D01*
X0084992Y0054154D02*
X0086619Y0054154D01*
X0086420Y0053556D02*
X0084992Y0053556D01*
X0084992Y0052957D02*
X0086420Y0052957D01*
X0086420Y0052359D02*
X0084992Y0052359D01*
X0084992Y0051760D02*
X0086957Y0051760D01*
X0087510Y0051162D02*
X0084992Y0051162D01*
X0084992Y0050563D02*
X0087510Y0050563D01*
X0087917Y0049965D02*
X0084992Y0049965D01*
X0084755Y0049366D02*
X0087917Y0049366D01*
X0087917Y0048768D02*
X0081431Y0048768D01*
X0080832Y0048169D02*
X0087917Y0048169D01*
X0087917Y0047571D02*
X0080234Y0047571D01*
X0079635Y0046972D02*
X0087917Y0046972D01*
X0088194Y0046374D02*
X0079037Y0046374D01*
X0078438Y0045775D02*
X0087917Y0045775D01*
X0087917Y0045177D02*
X0077840Y0045177D01*
X0077241Y0044578D02*
X0087917Y0044578D01*
X0087917Y0043980D02*
X0076643Y0043980D01*
X0075643Y0046374D02*
X0072904Y0046374D01*
X0073378Y0046972D02*
X0076241Y0046972D01*
X0076840Y0047571D02*
X0073378Y0047571D01*
X0073378Y0048169D02*
X0077438Y0048169D01*
X0078037Y0048768D02*
X0073378Y0048768D01*
X0070714Y0045775D02*
X0069918Y0045775D01*
X0070115Y0045177D02*
X0069320Y0045177D01*
X0069517Y0044578D02*
X0068721Y0044578D01*
X0068634Y0043980D02*
X0069506Y0043980D01*
X0069506Y0043381D02*
X0068634Y0043381D01*
X0068634Y0042783D02*
X0069506Y0042783D01*
X0069506Y0042184D02*
X0068634Y0042184D01*
X0068634Y0041586D02*
X0069506Y0041586D01*
X0069506Y0040987D02*
X0068634Y0040987D01*
X0068634Y0040389D02*
X0069506Y0040389D01*
X0069506Y0039790D02*
X0068634Y0039790D01*
X0068379Y0039192D02*
X0069506Y0039192D01*
X0069506Y0038593D02*
X0061154Y0038593D01*
X0061753Y0037995D02*
X0069073Y0037995D01*
X0068475Y0037396D02*
X0062351Y0037396D01*
X0062950Y0036798D02*
X0067876Y0036798D01*
X0068876Y0034403D02*
X0087917Y0034403D01*
X0087917Y0035002D02*
X0069475Y0035002D01*
X0070073Y0035600D02*
X0087917Y0035600D01*
X0087917Y0036199D02*
X0070672Y0036199D01*
X0071271Y0036798D02*
X0087917Y0036798D01*
X0087917Y0037396D02*
X0071869Y0037396D01*
X0071906Y0037995D02*
X0087917Y0037995D01*
X0087917Y0038593D02*
X0071906Y0038593D01*
X0071906Y0039192D02*
X0087917Y0039192D01*
X0088184Y0039790D02*
X0071906Y0039790D01*
X0071906Y0040389D02*
X0087917Y0040389D01*
X0087917Y0040987D02*
X0071906Y0040987D01*
X0071906Y0041586D02*
X0087917Y0041586D01*
X0087917Y0042184D02*
X0071906Y0042184D01*
X0071906Y0042783D02*
X0087917Y0042783D01*
X0087917Y0043381D02*
X0071906Y0043381D01*
X0067438Y0046972D02*
X0042279Y0046972D01*
X0042279Y0047571D02*
X0042422Y0047571D01*
X0036893Y0047571D02*
X0035273Y0047571D01*
X0035273Y0048169D02*
X0036893Y0048169D01*
X0036893Y0048768D02*
X0035273Y0048768D01*
X0035273Y0049366D02*
X0036893Y0049366D01*
X0036893Y0046972D02*
X0035273Y0046972D01*
X0035273Y0046374D02*
X0036893Y0046374D01*
X0036893Y0045775D02*
X0035273Y0045775D01*
X0035273Y0045177D02*
X0036893Y0045177D01*
X0036893Y0044578D02*
X0035273Y0044578D01*
X0035273Y0043980D02*
X0036893Y0043980D01*
X0036893Y0043381D02*
X0035273Y0043381D01*
X0035273Y0042783D02*
X0036893Y0042783D01*
X0036893Y0042184D02*
X0035273Y0042184D01*
X0035273Y0041586D02*
X0036893Y0041586D01*
X0036893Y0040987D02*
X0035273Y0040987D01*
X0035273Y0040389D02*
X0036893Y0040389D01*
X0036893Y0039790D02*
X0035273Y0039790D01*
X0035273Y0039192D02*
X0036854Y0039192D01*
X0036854Y0038593D02*
X0035273Y0038593D01*
X0035273Y0037995D02*
X0036929Y0037995D01*
X0036929Y0037396D02*
X0035273Y0037396D01*
X0035273Y0036798D02*
X0039304Y0036798D01*
X0036929Y0036199D02*
X0035273Y0036199D01*
X0035273Y0035600D02*
X0036929Y0035600D01*
X0036929Y0035002D02*
X0035273Y0035002D01*
X0035273Y0034403D02*
X0036929Y0034403D01*
X0037117Y0033805D02*
X0035273Y0033805D01*
X0041882Y0033206D02*
X0046775Y0033206D01*
X0042279Y0034403D02*
X0061950Y0034403D01*
X0061351Y0035002D02*
X0042279Y0035002D01*
X0042279Y0035600D02*
X0060753Y0035600D01*
X0060154Y0036199D02*
X0042279Y0036199D01*
X0042091Y0033805D02*
X0088164Y0033805D01*
X0087720Y0033206D02*
X0082827Y0033206D01*
X0092619Y0033805D02*
X0094991Y0033805D01*
X0094803Y0034403D02*
X0092866Y0034403D01*
X0092866Y0035002D02*
X0094803Y0035002D01*
X0094803Y0035600D02*
X0092866Y0035600D01*
X0092866Y0036199D02*
X0094803Y0036199D01*
X0094803Y0037396D02*
X0092866Y0037396D01*
X0092866Y0036798D02*
X0097178Y0036798D01*
X0097178Y0037087D02*
X0097178Y0040250D01*
X0097178Y0042787D01*
X0097778Y0042787D01*
X0097778Y0037087D01*
X0099146Y0037087D01*
X0099146Y0036487D01*
X0097778Y0036487D01*
X0097778Y0037087D01*
X0097178Y0037087D01*
X0097178Y0037396D02*
X0097778Y0037396D01*
X0097778Y0036798D02*
X0099146Y0036798D01*
X0097778Y0037995D02*
X0097178Y0037995D01*
X0097178Y0038593D02*
X0097778Y0038593D01*
X0097778Y0039192D02*
X0097178Y0039192D01*
X0097178Y0039790D02*
X0097778Y0039790D01*
X0097778Y0040389D02*
X0097178Y0040389D01*
X0097178Y0040987D02*
X0097778Y0040987D01*
X0097778Y0041586D02*
X0097178Y0041586D01*
X0097178Y0042184D02*
X0097778Y0042184D01*
X0097778Y0042783D02*
X0097178Y0042783D01*
X0097178Y0043381D02*
X0092866Y0043381D01*
X0092866Y0042783D02*
X0094803Y0042783D01*
X0094803Y0042184D02*
X0092866Y0042184D01*
X0092866Y0041586D02*
X0094803Y0041586D01*
X0094803Y0040987D02*
X0092866Y0040987D01*
X0092866Y0040389D02*
X0094854Y0040389D01*
X0095003Y0039790D02*
X0092598Y0039790D01*
X0092866Y0039192D02*
X0094803Y0039192D01*
X0094803Y0038593D02*
X0092866Y0038593D01*
X0092866Y0037995D02*
X0094803Y0037995D01*
X0094803Y0043980D02*
X0092866Y0043980D01*
X0092866Y0044578D02*
X0094803Y0044578D01*
X0094803Y0045177D02*
X0092866Y0045177D01*
X0092866Y0045775D02*
X0094852Y0045775D01*
X0095008Y0046374D02*
X0092589Y0046374D01*
X0092866Y0046972D02*
X0094803Y0046972D01*
X0094803Y0047571D02*
X0092866Y0047571D01*
X0092866Y0048169D02*
X0094803Y0048169D01*
X0094803Y0048768D02*
X0092866Y0048768D01*
X0092866Y0049366D02*
X0097178Y0049366D01*
X0097178Y0048768D02*
X0097778Y0048768D01*
X0097778Y0048169D02*
X0097178Y0048169D01*
X0097178Y0047571D02*
X0097778Y0047571D01*
X0097778Y0046972D02*
X0097178Y0046972D01*
X0097178Y0046374D02*
X0097778Y0046374D01*
X0097778Y0045775D02*
X0097178Y0045775D01*
X0097178Y0045177D02*
X0097778Y0045177D01*
X0097778Y0044578D02*
X0097178Y0044578D01*
X0097178Y0043980D02*
X0097778Y0043980D01*
X0097778Y0049965D02*
X0097178Y0049965D01*
X0097178Y0050563D02*
X0097778Y0050563D01*
X0097778Y0051162D02*
X0097178Y0051162D01*
X0097178Y0051760D02*
X0097778Y0051760D01*
X0097778Y0052359D02*
X0097178Y0052359D01*
X0094986Y0052359D02*
X0092628Y0052359D01*
X0092866Y0051760D02*
X0094803Y0051760D01*
X0094803Y0051162D02*
X0092866Y0051162D01*
X0092866Y0050563D02*
X0094803Y0050563D01*
X0094803Y0049965D02*
X0092866Y0049965D01*
X0090910Y0052957D02*
X0099146Y0052957D01*
X0099146Y0053556D02*
X0090425Y0053556D01*
X0090226Y0054154D02*
X0099146Y0054154D01*
X0094235Y0054753D02*
X0093635Y0054753D01*
X0093635Y0055351D02*
X0094235Y0055351D01*
X0094235Y0055950D02*
X0093635Y0055950D01*
X0093635Y0056548D02*
X0094235Y0056548D01*
X0094235Y0057147D02*
X0093635Y0057147D01*
X0093635Y0057745D02*
X0094235Y0057745D01*
X0094235Y0058344D02*
X0093635Y0058344D01*
X0093635Y0058942D02*
X0094235Y0058942D01*
X0094235Y0059541D02*
X0093635Y0059541D01*
X0093635Y0060139D02*
X0094235Y0060139D01*
X0093635Y0060738D02*
X0084217Y0060738D01*
X0084217Y0061336D02*
X0087520Y0061336D01*
X0087520Y0061935D02*
X0084282Y0061935D01*
X0084880Y0062534D02*
X0087520Y0062534D01*
X0087520Y0063132D02*
X0085479Y0063132D01*
X0086077Y0063731D02*
X0087520Y0063731D01*
X0087520Y0064329D02*
X0086676Y0064329D01*
X0087274Y0064928D02*
X0087520Y0064928D01*
X0087879Y0067322D02*
X0099146Y0067322D01*
X0099146Y0067920D02*
X0087879Y0067920D01*
X0087879Y0068519D02*
X0099146Y0068519D01*
X0097384Y0069117D02*
X0096784Y0069117D01*
X0096784Y0068955D02*
X0096784Y0072117D01*
X0094409Y0072117D01*
X0094409Y0069910D01*
X0094484Y0069631D01*
X0094629Y0069380D01*
X0094834Y0069175D01*
X0095085Y0069030D01*
X0095365Y0068955D01*
X0096784Y0068955D01*
X0096784Y0069716D02*
X0097384Y0069716D01*
X0097384Y0070314D02*
X0096784Y0070314D01*
X0096784Y0070913D02*
X0097384Y0070913D01*
X0097384Y0071511D02*
X0096784Y0071511D01*
X0096784Y0072110D02*
X0097384Y0072110D01*
X0096784Y0072708D02*
X0092472Y0072708D01*
X0092472Y0072110D02*
X0094409Y0072110D01*
X0094409Y0071511D02*
X0092472Y0071511D01*
X0092472Y0070913D02*
X0094409Y0070913D01*
X0094409Y0070314D02*
X0092472Y0070314D01*
X0092472Y0069716D02*
X0094462Y0069716D01*
X0094934Y0069117D02*
X0087953Y0069117D01*
X0084479Y0068519D02*
X0080455Y0068519D01*
X0080455Y0067920D02*
X0079855Y0067920D01*
X0079855Y0067322D02*
X0080455Y0067322D01*
X0080455Y0066723D02*
X0079855Y0066723D01*
X0079855Y0066125D02*
X0080455Y0066125D01*
X0081867Y0064329D02*
X0076534Y0064329D01*
X0076590Y0064928D02*
X0082466Y0064928D01*
X0083064Y0065526D02*
X0076590Y0065526D01*
X0083213Y0066125D02*
X0083663Y0066125D01*
X0083586Y0066723D02*
X0084261Y0066723D01*
X0084479Y0067322D02*
X0083617Y0067322D01*
X0083617Y0067920D02*
X0084479Y0067920D01*
X0084404Y0069117D02*
X0083617Y0069117D01*
X0083617Y0069716D02*
X0083806Y0069716D01*
X0083704Y0070314D02*
X0083608Y0070314D01*
X0083704Y0070913D02*
X0083294Y0070913D01*
X0083704Y0071511D02*
X0072285Y0071511D01*
X0072883Y0072110D02*
X0083946Y0072110D01*
X0084545Y0072708D02*
X0073482Y0072708D01*
X0074080Y0073307D02*
X0085143Y0073307D01*
X0087214Y0073307D02*
X0087523Y0073307D01*
X0087523Y0073905D02*
X0074679Y0073905D01*
X0075277Y0074504D02*
X0087523Y0074504D01*
X0087523Y0075102D02*
X0075876Y0075102D01*
X0074277Y0076898D02*
X0070538Y0076898D01*
X0070740Y0077100D02*
X0069567Y0075927D01*
X0067908Y0075927D01*
X0066735Y0077100D01*
X0066735Y0078759D01*
X0067908Y0079931D01*
X0069567Y0079931D01*
X0070740Y0078759D01*
X0070740Y0077100D01*
X0070740Y0077496D02*
X0074876Y0077496D01*
X0074924Y0077545D02*
X0068634Y0071255D01*
X0044835Y0071255D01*
X0044835Y0071806D01*
X0044307Y0072333D01*
X0041200Y0072333D01*
X0040785Y0071918D01*
X0040370Y0072333D01*
X0037866Y0072333D01*
X0037866Y0072869D01*
X0037780Y0072955D01*
X0041572Y0076748D01*
X0041572Y0078988D01*
X0041591Y0079007D01*
X0050791Y0088206D01*
X0050791Y0087730D01*
X0051964Y0086557D01*
X0053622Y0086557D01*
X0054795Y0087730D01*
X0054795Y0087750D01*
X0054930Y0087750D01*
X0055119Y0087561D01*
X0056716Y0087561D01*
X0056716Y0086738D01*
X0056602Y0086624D01*
X0056097Y0086624D01*
X0054924Y0085451D01*
X0054924Y0083793D01*
X0056097Y0082620D01*
X0057756Y0082620D01*
X0058502Y0083365D01*
X0059247Y0082620D01*
X0059715Y0082620D01*
X0058587Y0081491D01*
X0057377Y0081491D01*
X0056575Y0082294D01*
X0054916Y0082294D01*
X0053743Y0081121D01*
X0053743Y0079462D01*
X0054916Y0078289D01*
X0056575Y0078289D01*
X0057377Y0079091D01*
X0057573Y0079091D01*
X0054476Y0075994D01*
X0053341Y0075994D01*
X0052169Y0074822D01*
X0052169Y0073163D01*
X0053341Y0071990D01*
X0055000Y0071990D01*
X0056139Y0073129D01*
X0057278Y0071990D01*
X0058937Y0071990D01*
X0060110Y0073163D01*
X0060110Y0074297D01*
X0061243Y0075430D01*
X0061951Y0075430D01*
X0062011Y0075490D01*
X0062011Y0075131D01*
X0063184Y0073958D01*
X0064843Y0073958D01*
X0066016Y0075131D01*
X0066016Y0076790D01*
X0064843Y0077963D01*
X0064484Y0077963D01*
X0069156Y0082635D01*
X0073093Y0082635D01*
X0075253Y0084794D01*
X0075253Y0085336D01*
X0076463Y0085336D01*
X0076184Y0085058D01*
X0076184Y0083399D01*
X0077357Y0082226D01*
X0079016Y0082226D01*
X0080189Y0083399D01*
X0080189Y0085058D01*
X0079910Y0085336D01*
X0080786Y0085336D01*
X0080786Y0084420D01*
X0081489Y0083717D01*
X0081905Y0083301D01*
X0081905Y0083019D01*
X0082725Y0082198D01*
X0085357Y0082198D01*
X0085357Y0081100D01*
X0085739Y0080719D01*
X0085739Y0080494D01*
X0085357Y0080113D01*
X0085357Y0079629D01*
X0083024Y0079629D01*
X0083024Y0079680D01*
X0082496Y0080207D01*
X0079389Y0080207D01*
X0078974Y0079792D01*
X0078559Y0080207D01*
X0075452Y0080207D01*
X0074924Y0079680D01*
X0074924Y0077545D01*
X0074924Y0078095D02*
X0070740Y0078095D01*
X0070740Y0078693D02*
X0074924Y0078693D01*
X0074924Y0079292D02*
X0070207Y0079292D01*
X0069608Y0079890D02*
X0075135Y0079890D01*
X0077006Y0077929D02*
X0069131Y0070055D01*
X0042754Y0070055D01*
X0044835Y0071511D02*
X0068891Y0071511D01*
X0069489Y0072110D02*
X0059057Y0072110D01*
X0059656Y0072708D02*
X0070088Y0072708D01*
X0070686Y0073307D02*
X0060110Y0073307D01*
X0060110Y0073905D02*
X0071285Y0073905D01*
X0071883Y0074504D02*
X0065388Y0074504D01*
X0065987Y0075102D02*
X0072482Y0075102D01*
X0073080Y0075701D02*
X0066016Y0075701D01*
X0066016Y0076299D02*
X0067536Y0076299D01*
X0066937Y0076898D02*
X0065908Y0076898D01*
X0065309Y0077496D02*
X0066735Y0077496D01*
X0066735Y0078095D02*
X0064616Y0078095D01*
X0065215Y0078693D02*
X0066735Y0078693D01*
X0067269Y0079292D02*
X0065813Y0079292D01*
X0066412Y0079890D02*
X0067867Y0079890D01*
X0067010Y0080489D02*
X0085733Y0080489D01*
X0085370Y0081087D02*
X0067609Y0081087D01*
X0068207Y0081686D02*
X0085357Y0081686D01*
X0085357Y0079890D02*
X0082813Y0079890D01*
X0082639Y0082284D02*
X0079074Y0082284D01*
X0079673Y0082883D02*
X0082040Y0082883D01*
X0081725Y0083481D02*
X0080189Y0083481D01*
X0080189Y0084080D02*
X0081126Y0084080D01*
X0081489Y0083717D02*
X0081489Y0083717D01*
X0080786Y0084678D02*
X0080189Y0084678D01*
X0079970Y0085277D02*
X0080786Y0085277D01*
X0081986Y0084917D02*
X0081986Y0089150D01*
X0083254Y0087671D02*
X0083271Y0087671D01*
X0083271Y0087072D02*
X0083186Y0087072D01*
X0083186Y0086474D02*
X0083345Y0086474D01*
X0083186Y0085875D02*
X0083944Y0085875D01*
X0083323Y0085277D02*
X0089858Y0085277D01*
X0091085Y0085277D02*
X0091666Y0085277D01*
X0091666Y0085328D02*
X0091666Y0083141D01*
X0093657Y0083141D01*
X0093657Y0084373D01*
X0093582Y0084653D01*
X0093437Y0084904D01*
X0093232Y0085109D01*
X0092981Y0085253D01*
X0092702Y0085328D01*
X0091666Y0085328D01*
X0091666Y0084678D02*
X0091085Y0084678D01*
X0091085Y0084080D02*
X0091666Y0084080D01*
X0091666Y0083481D02*
X0091085Y0083481D01*
X0091666Y0082883D02*
X0099146Y0082883D01*
X0099146Y0083481D02*
X0093657Y0083481D01*
X0093657Y0084080D02*
X0099146Y0084080D01*
X0099146Y0084678D02*
X0093567Y0084678D01*
X0092893Y0085277D02*
X0099146Y0085277D01*
X0099146Y0085875D02*
X0086602Y0085875D01*
X0087201Y0086474D02*
X0099146Y0086474D01*
X0099146Y0087072D02*
X0087276Y0087072D01*
X0087276Y0087671D02*
X0099146Y0087671D01*
X0099146Y0088269D02*
X0092197Y0088269D01*
X0092960Y0088868D02*
X0099146Y0088868D01*
X0099146Y0089467D02*
X0093066Y0089467D01*
X0093066Y0090065D02*
X0099146Y0090065D01*
X0099146Y0090664D02*
X0093066Y0090664D01*
X0093066Y0091418D02*
X0093066Y0093035D01*
X0092991Y0093314D01*
X0092846Y0093565D01*
X0092642Y0093770D01*
X0092391Y0093915D01*
X0092111Y0093990D01*
X0090888Y0093990D01*
X0090888Y0091418D01*
X0093066Y0091418D01*
X0093066Y0091861D02*
X0099146Y0091861D01*
X0099146Y0092459D02*
X0093066Y0092459D01*
X0093060Y0093058D02*
X0099146Y0093058D01*
X0099146Y0093656D02*
X0092755Y0093656D01*
X0090888Y0093656D02*
X0090288Y0093656D01*
X0090288Y0093058D02*
X0090888Y0093058D01*
X0090888Y0092459D02*
X0090288Y0092459D01*
X0090288Y0091861D02*
X0090888Y0091861D01*
X0090888Y0091262D02*
X0099146Y0091262D01*
X0099146Y0094255D02*
X0090257Y0094255D01*
X0090819Y0094853D02*
X0099146Y0094853D01*
X0099146Y0095452D02*
X0090819Y0095452D01*
X0090819Y0096050D02*
X0099146Y0096050D01*
X0099146Y0096649D02*
X0090645Y0096649D01*
X0090047Y0097247D02*
X0099146Y0097247D01*
X0099146Y0097846D02*
X0092209Y0097846D01*
X0092808Y0098444D02*
X0099146Y0098444D01*
X0099146Y0099043D02*
X0093406Y0099043D01*
X0093760Y0099641D02*
X0099146Y0099641D01*
X0099146Y0100240D02*
X0093760Y0100240D01*
X0093760Y0100838D02*
X0099146Y0100838D01*
X0099146Y0101437D02*
X0093760Y0101437D01*
X0093760Y0102035D02*
X0099146Y0102035D01*
X0099146Y0102634D02*
X0093760Y0102634D01*
X0093760Y0103232D02*
X0099146Y0103232D01*
X0099146Y0103831D02*
X0093760Y0103831D01*
X0093760Y0104429D02*
X0099146Y0104429D01*
X0099146Y0105028D02*
X0093826Y0105028D01*
X0094362Y0105626D02*
X0099146Y0105626D01*
X0099146Y0106225D02*
X0094362Y0106225D01*
X0094362Y0106823D02*
X0099146Y0106823D01*
X0099146Y0107422D02*
X0094163Y0107422D01*
X0093565Y0108020D02*
X0099146Y0108020D01*
X0099146Y0108619D02*
X0092000Y0108619D01*
X0092000Y0109217D02*
X0099146Y0109217D01*
X0099146Y0109816D02*
X0091730Y0109816D01*
X0091132Y0110414D02*
X0099146Y0110414D01*
X0099146Y0111013D02*
X0090031Y0111013D01*
X0090031Y0111611D02*
X0090844Y0111611D01*
X0090951Y0111550D02*
X0091231Y0111475D01*
X0092463Y0111475D01*
X0092463Y0113465D01*
X0090276Y0113465D01*
X0090276Y0112430D01*
X0090351Y0112150D01*
X0090495Y0111899D01*
X0090700Y0111695D01*
X0090951Y0111550D01*
X0090335Y0112210D02*
X0089887Y0112210D01*
X0090276Y0112808D02*
X0089289Y0112808D01*
X0090276Y0113407D02*
X0088063Y0113407D01*
X0088063Y0114005D02*
X0092463Y0114005D01*
X0093044Y0114005D02*
X0099146Y0114005D01*
X0099146Y0113407D02*
X0095231Y0113407D01*
X0095231Y0112808D02*
X0099146Y0112808D01*
X0099146Y0112210D02*
X0095173Y0112210D01*
X0094663Y0111611D02*
X0099146Y0111611D01*
X0099146Y0114604D02*
X0095231Y0114604D01*
X0095199Y0115202D02*
X0099146Y0115202D01*
X0099146Y0115801D02*
X0094823Y0115801D01*
X0095031Y0116400D02*
X0099146Y0116400D01*
X0099146Y0116998D02*
X0095031Y0116998D01*
X0095031Y0117597D02*
X0099146Y0117597D01*
X0099146Y0118195D02*
X0095031Y0118195D01*
X0095031Y0118794D02*
X0099146Y0118794D01*
X0092754Y0117693D02*
X0089195Y0121252D01*
X0079226Y0121252D01*
X0077006Y0119031D01*
X0077006Y0118480D01*
X0074924Y0118576D02*
X0072653Y0116304D01*
X0072653Y0114617D01*
X0071123Y0114617D01*
X0071100Y0114593D01*
X0071077Y0114617D01*
X0069709Y0114617D01*
X0069763Y0114709D01*
X0069838Y0114989D01*
X0069838Y0116221D01*
X0067847Y0116221D01*
X0067847Y0116802D01*
X0069838Y0116802D01*
X0069838Y0118035D01*
X0069763Y0118314D01*
X0069618Y0118565D01*
X0069413Y0118770D01*
X0069244Y0118868D01*
X0069244Y0119155D01*
X0072063Y0119155D01*
X0072591Y0119682D01*
X0072591Y0120730D01*
X0074137Y0120730D01*
X0074137Y0119682D01*
X0074664Y0119155D01*
X0074924Y0119155D01*
X0074924Y0118576D01*
X0074924Y0118794D02*
X0069372Y0118794D01*
X0069795Y0118195D02*
X0074544Y0118195D01*
X0073945Y0117597D02*
X0069838Y0117597D01*
X0069838Y0116998D02*
X0073346Y0116998D01*
X0072748Y0116400D02*
X0067847Y0116400D01*
X0069838Y0115801D02*
X0072653Y0115801D01*
X0072653Y0115202D02*
X0069838Y0115202D01*
X0071089Y0114604D02*
X0071111Y0114604D01*
X0072300Y0119392D02*
X0074427Y0119392D01*
X0074137Y0119991D02*
X0072591Y0119991D01*
X0072591Y0120589D02*
X0074137Y0120589D01*
X0080943Y0118480D02*
X0080943Y0118362D01*
X0088187Y0118362D01*
X0088423Y0118126D01*
X0090425Y0118195D02*
X0090476Y0118195D01*
X0090476Y0117597D02*
X0090425Y0117597D01*
X0090476Y0116998D02*
X0090127Y0116998D01*
X0090476Y0116400D02*
X0089528Y0116400D01*
X0090684Y0115801D02*
X0086488Y0115801D01*
X0086488Y0116400D02*
X0087318Y0116400D01*
X0086719Y0116998D02*
X0086488Y0116998D01*
X0087485Y0115202D02*
X0090308Y0115202D01*
X0090276Y0114604D02*
X0088063Y0114604D01*
X0086061Y0113795D02*
X0085313Y0113795D01*
X0082320Y0110803D01*
X0081986Y0110803D01*
X0081986Y0108835D02*
X0085628Y0108835D01*
X0088029Y0111236D01*
X0089998Y0108717D02*
X0088147Y0106866D01*
X0081986Y0106866D01*
X0081986Y0104898D02*
X0088226Y0104898D01*
X0088817Y0104307D01*
X0089975Y0102634D02*
X0090960Y0102634D01*
X0090960Y0103232D02*
X0090573Y0103232D01*
X0090819Y0103478D02*
X0090819Y0105103D01*
X0090960Y0104962D01*
X0090960Y0100556D01*
X0090953Y0100550D01*
X0087587Y0100550D01*
X0087580Y0100557D01*
X0087642Y0100592D01*
X0087846Y0100797D01*
X0087991Y0101048D01*
X0088066Y0101328D01*
X0088066Y0102305D01*
X0089646Y0102305D01*
X0090819Y0103478D01*
X0090819Y0103831D02*
X0090960Y0103831D01*
X0090960Y0104429D02*
X0090819Y0104429D01*
X0090819Y0105028D02*
X0090894Y0105028D01*
X0090960Y0102035D02*
X0088066Y0102035D01*
X0088066Y0101437D02*
X0090960Y0101437D01*
X0090960Y0100838D02*
X0087870Y0100838D01*
X0088817Y0095646D02*
X0084604Y0095646D01*
X0083541Y0096669D01*
X0081986Y0096669D01*
X0081986Y0097024D01*
X0081848Y0094701D02*
X0083698Y0094701D01*
X0084565Y0093835D01*
X0083940Y0094255D02*
X0087376Y0094255D01*
X0087354Y0093656D02*
X0087974Y0093656D01*
X0088116Y0093058D02*
X0087748Y0093058D01*
X0087748Y0092459D02*
X0088110Y0092459D01*
X0088110Y0091861D02*
X0087748Y0091861D01*
X0087748Y0091262D02*
X0090288Y0091262D01*
X0090288Y0090664D02*
X0090888Y0090664D01*
X0090888Y0090065D02*
X0090288Y0090065D01*
X0090288Y0089467D02*
X0090888Y0089467D01*
X0090888Y0088868D02*
X0090288Y0088868D01*
X0090288Y0088269D02*
X0090888Y0088269D01*
X0088979Y0088269D02*
X0087213Y0088269D01*
X0087642Y0088868D02*
X0088216Y0088868D01*
X0088110Y0089467D02*
X0087748Y0089467D01*
X0087748Y0090065D02*
X0088110Y0090065D01*
X0088110Y0090664D02*
X0087748Y0090664D01*
X0085470Y0091118D02*
X0085273Y0091118D01*
X0081986Y0084917D02*
X0083305Y0083598D01*
X0079072Y0079890D02*
X0078876Y0079890D01*
X0077299Y0082284D02*
X0068806Y0082284D01*
X0068659Y0083835D02*
X0072596Y0083835D01*
X0074053Y0085291D01*
X0074053Y0087122D01*
X0075253Y0085277D02*
X0076403Y0085277D01*
X0076184Y0084678D02*
X0075137Y0084678D01*
X0074538Y0084080D02*
X0076184Y0084080D01*
X0076184Y0083481D02*
X0073940Y0083481D01*
X0073341Y0082883D02*
X0076700Y0082883D01*
X0072084Y0085646D02*
X0071730Y0085291D01*
X0066966Y0085291D01*
X0059919Y0078244D01*
X0058423Y0078244D01*
X0054171Y0073992D01*
X0055719Y0072708D02*
X0056560Y0072708D01*
X0057159Y0072110D02*
X0055120Y0072110D01*
X0053222Y0072110D02*
X0044531Y0072110D01*
X0041057Y0067920D02*
X0040517Y0067920D01*
X0040594Y0072110D02*
X0040976Y0072110D01*
X0038730Y0073905D02*
X0052169Y0073905D01*
X0052169Y0073307D02*
X0038131Y0073307D01*
X0037866Y0072708D02*
X0052623Y0072708D01*
X0052169Y0074504D02*
X0039328Y0074504D01*
X0039927Y0075102D02*
X0052449Y0075102D01*
X0053048Y0075701D02*
X0040525Y0075701D01*
X0041124Y0076299D02*
X0054781Y0076299D01*
X0055379Y0076898D02*
X0041572Y0076898D01*
X0041572Y0077496D02*
X0055978Y0077496D01*
X0056577Y0078095D02*
X0041572Y0078095D01*
X0041572Y0078693D02*
X0054512Y0078693D01*
X0053913Y0079292D02*
X0041876Y0079292D01*
X0042475Y0079890D02*
X0053743Y0079890D01*
X0053743Y0080489D02*
X0043073Y0080489D01*
X0043672Y0081087D02*
X0053743Y0081087D01*
X0054308Y0081686D02*
X0044270Y0081686D01*
X0044869Y0082284D02*
X0054907Y0082284D01*
X0055834Y0082883D02*
X0045467Y0082883D01*
X0046066Y0083481D02*
X0055236Y0083481D01*
X0054924Y0084080D02*
X0046664Y0084080D01*
X0047263Y0084678D02*
X0054924Y0084678D01*
X0054924Y0085277D02*
X0047861Y0085277D01*
X0048460Y0085875D02*
X0055348Y0085875D01*
X0055947Y0086474D02*
X0049058Y0086474D01*
X0049657Y0087072D02*
X0051448Y0087072D01*
X0050849Y0087671D02*
X0050255Y0087671D01*
X0052006Y0091118D02*
X0040391Y0079504D01*
X0035273Y0079504D01*
X0035273Y0089504D02*
X0046848Y0089504D01*
X0050431Y0093087D01*
X0056277Y0093087D01*
X0056277Y0095055D02*
X0044840Y0095055D01*
X0040391Y0099504D01*
X0035273Y0099504D01*
X0035273Y0109504D02*
X0040391Y0109504D01*
X0052872Y0097024D01*
X0056277Y0097024D01*
X0056277Y0098992D02*
X0053153Y0098992D01*
X0052006Y0100140D01*
X0052006Y0110606D01*
X0050563Y0109217D02*
X0042375Y0109217D01*
X0042973Y0108619D02*
X0050806Y0108619D01*
X0050806Y0108975D02*
X0050806Y0100787D01*
X0041591Y0110001D01*
X0041572Y0110020D01*
X0041572Y0111394D01*
X0037642Y0115324D01*
X0037789Y0115399D01*
X0038400Y0115843D01*
X0038934Y0116377D01*
X0039379Y0116988D01*
X0039722Y0117661D01*
X0039955Y0118380D01*
X0040073Y0119126D01*
X0040073Y0119204D01*
X0035573Y0119204D01*
X0035573Y0119804D01*
X0035273Y0119804D01*
X0035273Y0126448D01*
X0047165Y0126448D01*
X0047165Y0125079D01*
X0049343Y0125079D01*
X0049343Y0124480D01*
X0047165Y0124480D01*
X0047165Y0122863D01*
X0047240Y0122583D01*
X0047385Y0122332D01*
X0047590Y0122128D01*
X0047841Y0121983D01*
X0048121Y0121908D01*
X0049343Y0121908D01*
X0049343Y0124479D01*
X0049943Y0124479D01*
X0049943Y0121908D01*
X0051166Y0121908D01*
X0051446Y0121983D01*
X0051697Y0122128D01*
X0051901Y0122332D01*
X0052046Y0122583D01*
X0052121Y0122863D01*
X0052121Y0124480D01*
X0049943Y0124480D01*
X0049943Y0125079D01*
X0052121Y0125079D01*
X0052121Y0126448D01*
X0052483Y0126448D01*
X0052483Y0122635D01*
X0052757Y0122362D01*
X0052700Y0122305D01*
X0052555Y0122055D01*
X0052480Y0121775D01*
X0052480Y0120739D01*
X0054668Y0120739D01*
X0054668Y0120158D01*
X0052480Y0120158D01*
X0052480Y0119123D01*
X0052555Y0118843D01*
X0052700Y0118592D01*
X0052905Y0118387D01*
X0052967Y0118352D01*
X0052680Y0118066D01*
X0052680Y0116924D01*
X0050881Y0116924D01*
X0050079Y0117727D01*
X0048420Y0117727D01*
X0047247Y0116554D01*
X0047247Y0114895D01*
X0048229Y0113913D01*
X0047917Y0113601D01*
X0047917Y0111942D01*
X0049089Y0110769D01*
X0050003Y0110769D01*
X0050003Y0109777D01*
X0050806Y0108975D01*
X0050806Y0108020D02*
X0043572Y0108020D01*
X0044170Y0107422D02*
X0050806Y0107422D01*
X0050806Y0106823D02*
X0044769Y0106823D01*
X0045367Y0106225D02*
X0050806Y0106225D01*
X0050806Y0105626D02*
X0045966Y0105626D01*
X0046565Y0105028D02*
X0050806Y0105028D01*
X0050806Y0104429D02*
X0047163Y0104429D01*
X0047762Y0103831D02*
X0050806Y0103831D01*
X0050806Y0103232D02*
X0048360Y0103232D01*
X0048959Y0102634D02*
X0050806Y0102634D01*
X0050806Y0102035D02*
X0049557Y0102035D01*
X0050156Y0101437D02*
X0050806Y0101437D01*
X0050806Y0100838D02*
X0050754Y0100838D01*
X0050003Y0109816D02*
X0041776Y0109816D01*
X0041572Y0110414D02*
X0050003Y0110414D01*
X0048846Y0111013D02*
X0041572Y0111013D01*
X0041355Y0111611D02*
X0048247Y0111611D01*
X0047917Y0112210D02*
X0040756Y0112210D01*
X0040158Y0112808D02*
X0047917Y0112808D01*
X0047917Y0113407D02*
X0039559Y0113407D01*
X0038961Y0114005D02*
X0048137Y0114005D01*
X0047538Y0114604D02*
X0038362Y0114604D01*
X0037764Y0115202D02*
X0047247Y0115202D01*
X0047247Y0115801D02*
X0038343Y0115801D01*
X0038951Y0116400D02*
X0047247Y0116400D01*
X0047691Y0116998D02*
X0039384Y0116998D01*
X0039689Y0117597D02*
X0048290Y0117597D01*
X0050209Y0117597D02*
X0052680Y0117597D01*
X0052680Y0116998D02*
X0050808Y0116998D01*
X0049250Y0115724D02*
X0054171Y0115724D01*
X0054407Y0115724D01*
X0052810Y0118195D02*
X0039895Y0118195D01*
X0040021Y0118794D02*
X0052584Y0118794D01*
X0052480Y0119392D02*
X0035573Y0119392D01*
X0035573Y0119804D02*
X0040073Y0119804D01*
X0040073Y0119882D01*
X0039955Y0120628D01*
X0039722Y0121346D01*
X0039379Y0122020D01*
X0038934Y0122631D01*
X0038400Y0123165D01*
X0037789Y0123609D01*
X0037116Y0123952D01*
X0036397Y0124186D01*
X0035651Y0124304D01*
X0035573Y0124304D01*
X0035573Y0119804D01*
X0035573Y0119991D02*
X0035273Y0119991D01*
X0035273Y0120589D02*
X0035573Y0120589D01*
X0035573Y0121188D02*
X0035273Y0121188D01*
X0035273Y0121786D02*
X0035573Y0121786D01*
X0035573Y0122385D02*
X0035273Y0122385D01*
X0035273Y0122983D02*
X0035573Y0122983D01*
X0035573Y0123582D02*
X0035273Y0123582D01*
X0035273Y0124180D02*
X0035573Y0124180D01*
X0035273Y0124779D02*
X0049343Y0124779D01*
X0049343Y0124180D02*
X0049943Y0124180D01*
X0049943Y0123582D02*
X0049343Y0123582D01*
X0049343Y0122983D02*
X0049943Y0122983D01*
X0049943Y0122385D02*
X0049343Y0122385D01*
X0047355Y0122385D02*
X0039113Y0122385D01*
X0039498Y0121786D02*
X0052483Y0121786D01*
X0052480Y0121188D02*
X0039773Y0121188D01*
X0039961Y0120589D02*
X0054668Y0120589D01*
X0052480Y0119991D02*
X0040056Y0119991D01*
X0038582Y0122983D02*
X0047165Y0122983D01*
X0047165Y0123582D02*
X0037827Y0123582D01*
X0036414Y0124180D02*
X0047165Y0124180D01*
X0047165Y0125377D02*
X0035273Y0125377D01*
X0035273Y0125976D02*
X0047165Y0125976D01*
X0049943Y0124779D02*
X0052483Y0124779D01*
X0052483Y0125377D02*
X0052121Y0125377D01*
X0052121Y0125976D02*
X0052483Y0125976D01*
X0052483Y0124180D02*
X0052121Y0124180D01*
X0052121Y0123582D02*
X0052483Y0123582D01*
X0052483Y0122983D02*
X0052121Y0122983D01*
X0051932Y0122385D02*
X0052734Y0122385D01*
X0071100Y0107457D02*
X0071100Y0101945D01*
X0069131Y0099976D01*
X0068832Y0099676D02*
X0068832Y0089853D01*
X0069431Y0089853D01*
X0069431Y0099676D01*
X0068832Y0099676D01*
X0068832Y0099641D02*
X0069431Y0099641D01*
X0069431Y0099043D02*
X0068832Y0099043D01*
X0068832Y0098444D02*
X0069431Y0098444D01*
X0069431Y0097846D02*
X0068832Y0097846D01*
X0068832Y0097247D02*
X0069431Y0097247D01*
X0069431Y0096649D02*
X0068832Y0096649D01*
X0068832Y0096050D02*
X0069431Y0096050D01*
X0069431Y0095452D02*
X0068832Y0095452D01*
X0068832Y0094853D02*
X0069431Y0094853D01*
X0069431Y0094255D02*
X0068832Y0094255D01*
X0068832Y0093656D02*
X0069431Y0093656D01*
X0069431Y0093058D02*
X0068832Y0093058D01*
X0068832Y0092459D02*
X0069431Y0092459D01*
X0069431Y0091861D02*
X0068832Y0091861D01*
X0068832Y0091262D02*
X0069431Y0091262D01*
X0069431Y0090664D02*
X0068832Y0090664D01*
X0068832Y0090065D02*
X0069431Y0090065D01*
X0072084Y0087122D02*
X0072084Y0085646D01*
X0068659Y0083835D02*
X0061454Y0076630D01*
X0060746Y0076630D01*
X0058108Y0073992D01*
X0060317Y0074504D02*
X0062639Y0074504D01*
X0062040Y0075102D02*
X0060915Y0075102D01*
X0057175Y0078693D02*
X0056979Y0078693D01*
X0055746Y0080291D02*
X0059084Y0080291D01*
X0062242Y0083449D01*
X0062242Y0087122D01*
X0060273Y0087122D02*
X0060076Y0087122D01*
X0060076Y0084622D01*
X0058984Y0082883D02*
X0058019Y0082883D01*
X0058781Y0081686D02*
X0057183Y0081686D01*
X0056584Y0082284D02*
X0059380Y0082284D01*
X0056927Y0084622D02*
X0057399Y0085094D01*
X0057045Y0085370D01*
X0058305Y0086630D01*
X0058305Y0087122D01*
X0056716Y0087072D02*
X0054138Y0087072D01*
X0054737Y0087671D02*
X0055009Y0087671D01*
X0056277Y0091118D02*
X0052006Y0091118D01*
X0069940Y0076299D02*
X0073679Y0076299D01*
X0078609Y0075701D02*
X0079339Y0075701D01*
X0082546Y0075701D02*
X0094905Y0075701D01*
X0094834Y0075660D02*
X0094629Y0075455D01*
X0094484Y0075204D01*
X0094409Y0074924D01*
X0094409Y0072717D01*
X0096784Y0072717D01*
X0096784Y0075880D01*
X0095365Y0075880D01*
X0095085Y0075805D01*
X0094834Y0075660D01*
X0094457Y0075102D02*
X0092472Y0075102D01*
X0092472Y0074504D02*
X0094409Y0074504D01*
X0094409Y0073905D02*
X0092472Y0073905D01*
X0092472Y0073307D02*
X0094409Y0073307D01*
X0096784Y0073307D02*
X0097384Y0073307D01*
X0097384Y0073905D02*
X0096784Y0073905D01*
X0096784Y0074504D02*
X0097384Y0074504D01*
X0097384Y0075102D02*
X0096784Y0075102D01*
X0096784Y0075701D02*
X0097384Y0075701D01*
X0099146Y0076299D02*
X0093427Y0076299D01*
X0093437Y0076309D02*
X0093582Y0076560D01*
X0093657Y0076839D01*
X0093657Y0078072D01*
X0091666Y0078072D01*
X0091666Y0075884D01*
X0092702Y0075884D01*
X0092981Y0075959D01*
X0093232Y0076104D01*
X0093437Y0076309D01*
X0093657Y0076898D02*
X0099146Y0076898D01*
X0099146Y0077496D02*
X0093657Y0077496D01*
X0093657Y0078693D02*
X0099146Y0078693D01*
X0099146Y0078095D02*
X0091666Y0078095D01*
X0091666Y0078693D02*
X0091085Y0078693D01*
X0091085Y0079292D02*
X0091666Y0079292D01*
X0091666Y0079890D02*
X0091085Y0079890D01*
X0091085Y0080489D02*
X0091666Y0080489D01*
X0091666Y0081087D02*
X0091085Y0081087D01*
X0091085Y0081686D02*
X0091666Y0081686D01*
X0091666Y0082284D02*
X0091085Y0082284D01*
X0093364Y0080489D02*
X0099146Y0080489D01*
X0099146Y0081087D02*
X0093592Y0081087D01*
X0093657Y0081686D02*
X0099146Y0081686D01*
X0099146Y0082284D02*
X0093657Y0082284D01*
X0093655Y0079890D02*
X0099146Y0079890D01*
X0099146Y0079292D02*
X0093657Y0079292D01*
X0091666Y0077496D02*
X0091085Y0077496D01*
X0091085Y0076898D02*
X0091666Y0076898D01*
X0091666Y0076299D02*
X0091085Y0076299D01*
X0089324Y0076299D02*
X0089207Y0076299D01*
X0093635Y0066723D02*
X0094235Y0066723D01*
X0094235Y0066125D02*
X0093635Y0066125D01*
X0093635Y0065526D02*
X0094235Y0065526D01*
X0094235Y0064928D02*
X0093635Y0064928D01*
X0093635Y0064329D02*
X0094235Y0064329D01*
X0094235Y0063731D02*
X0093635Y0063731D01*
X0093635Y0063132D02*
X0094235Y0063132D01*
X0094235Y0062534D02*
X0093635Y0062534D01*
X0093635Y0061935D02*
X0094235Y0061935D01*
X0094235Y0061336D02*
X0093635Y0061336D01*
X0087520Y0060139D02*
X0084217Y0060139D01*
X0084217Y0059541D02*
X0087520Y0059541D01*
X0080043Y0051760D02*
X0077905Y0051760D01*
X0077905Y0051162D02*
X0080043Y0051162D01*
X0079832Y0050563D02*
X0077905Y0050563D01*
X0077905Y0049965D02*
X0079234Y0049965D01*
X0078635Y0049366D02*
X0077668Y0049366D01*
X0064882Y0048169D02*
X0064522Y0048169D01*
X0064703Y0046374D02*
X0064984Y0046374D01*
X0063113Y0046374D02*
X0062552Y0046374D01*
X0062552Y0045775D02*
X0063113Y0045775D01*
X0063113Y0045177D02*
X0062552Y0045177D01*
X0062552Y0044578D02*
X0063113Y0044578D01*
X0063113Y0043980D02*
X0062552Y0043980D01*
X0062552Y0043381D02*
X0063113Y0043381D01*
X0063113Y0042184D02*
X0062552Y0042184D01*
X0062552Y0041586D02*
X0063113Y0041586D01*
X0063113Y0040987D02*
X0062552Y0040987D01*
X0062552Y0040389D02*
X0063113Y0040389D01*
X0063113Y0039790D02*
X0062552Y0039790D01*
X0062552Y0039192D02*
X0063113Y0039192D01*
X0059205Y0033206D02*
X0070397Y0033206D01*
X0070397Y0032608D02*
X0059205Y0032608D01*
X0059205Y0032009D02*
X0070397Y0032009D01*
X0070397Y0031411D02*
X0059205Y0031411D01*
X0059205Y0030812D02*
X0070397Y0030812D01*
X0070397Y0030214D02*
X0059205Y0030214D01*
X0059205Y0029615D02*
X0070397Y0029615D01*
X0070397Y0029017D02*
X0059205Y0029017D01*
X0059205Y0028418D02*
X0070397Y0028418D01*
X0070397Y0027820D02*
X0059205Y0027820D01*
X0059205Y0027221D02*
X0070397Y0027221D01*
X0070397Y0026623D02*
X0059205Y0026623D01*
X0059205Y0026024D02*
X0070397Y0026024D01*
X0070397Y0025426D02*
X0059205Y0025426D01*
X0059205Y0024827D02*
X0070397Y0024827D01*
X0070397Y0024229D02*
X0059205Y0024229D01*
X0059205Y0023630D02*
X0070397Y0023630D01*
X0070397Y0023032D02*
X0059205Y0023032D01*
X0059205Y0022433D02*
X0070397Y0022433D01*
X0060961Y0046374D02*
X0060680Y0046374D01*
X0060782Y0048169D02*
X0061142Y0048169D01*
X0064537Y0055351D02*
X0064868Y0055351D01*
X0065098Y0063731D02*
X0048568Y0063731D01*
X0079958Y0112831D02*
X0083443Y0116315D01*
X0084486Y0116315D01*
X0092463Y0113407D02*
X0093044Y0113407D01*
X0093044Y0112808D02*
X0092463Y0112808D01*
X0092463Y0112210D02*
X0093044Y0112210D01*
X0093044Y0111611D02*
X0092463Y0111611D01*
D24*
X0093147Y0109425D03*
X0092360Y0106394D03*
X0089998Y0108717D03*
X0088029Y0111236D03*
X0086061Y0113795D03*
X0084486Y0116315D03*
X0088423Y0118126D03*
X0088817Y0104307D03*
X0088817Y0101472D03*
X0088817Y0095646D03*
X0093069Y0095134D03*
X0091572Y0086984D03*
X0085273Y0087378D03*
X0078423Y0090646D03*
X0078187Y0084228D03*
X0076848Y0081197D03*
X0072281Y0078913D03*
X0068738Y0077929D03*
X0064013Y0075961D03*
X0062045Y0072417D03*
X0058108Y0073992D03*
X0054171Y0073992D03*
X0050628Y0074386D03*
X0044328Y0073992D03*
X0038817Y0073992D03*
X0044328Y0079504D03*
X0052793Y0088559D03*
X0056927Y0084622D03*
X0060076Y0084622D03*
X0055746Y0080291D03*
X0052202Y0067693D03*
X0060470Y0061394D03*
X0061651Y0067378D03*
X0069525Y0064543D03*
X0069722Y0060803D03*
X0077793Y0057850D03*
X0088423Y0053126D03*
X0097793Y0035685D03*
X0077635Y0074110D03*
X0070313Y0090921D03*
X0061651Y0092496D03*
X0062045Y0097220D03*
X0067163Y0105094D03*
X0067163Y0109425D03*
X0071100Y0107457D03*
X0075037Y0109425D03*
X0075037Y0103913D03*
X0078620Y0100488D03*
X0073462Y0119661D03*
X0064210Y0120213D03*
X0052006Y0110606D03*
X0049919Y0112772D03*
X0049250Y0115724D03*
X0049053Y0120843D03*
X0045116Y0107850D03*
X0048659Y0104307D03*
X0045903Y0092496D03*
X0049840Y0057457D03*
X0064801Y0037890D03*
X0094565Y0076866D03*
D25*
X0087439Y0082850D02*
X0087439Y0083598D01*
X0083305Y0083598D01*
X0078187Y0084228D02*
X0077990Y0084425D01*
X0077990Y0087122D01*
X0078423Y0090646D02*
X0078423Y0095055D01*
X0081986Y0095055D01*
X0081986Y0091118D02*
X0085273Y0091118D01*
X0085588Y0098717D02*
X0085588Y0099150D01*
X0091533Y0099150D01*
X0092360Y0099976D01*
X0092360Y0106394D01*
X0088817Y0101984D02*
X0088817Y0101472D01*
X0088817Y0101984D02*
X0086257Y0101984D01*
X0085588Y0102654D01*
X0085588Y0098992D02*
X0085588Y0098717D01*
X0085588Y0098992D02*
X0081986Y0098992D01*
X0074053Y0112831D02*
X0074053Y0115724D01*
X0076809Y0118480D01*
X0077006Y0118480D01*
X0064210Y0117693D02*
X0063620Y0116512D01*
X0064210Y0115331D01*
X0064210Y0112831D01*
X0062242Y0112831D02*
X0062242Y0115134D01*
X0063620Y0116512D01*
X0064210Y0117693D02*
X0064210Y0120213D01*
X0058305Y0112831D02*
X0055214Y0115921D01*
X0054958Y0116512D01*
X0054171Y0115921D01*
X0054171Y0115724D01*
X0054171Y0106866D01*
X0054171Y0100961D01*
X0056277Y0100961D01*
X0056277Y0106866D02*
X0054171Y0106866D01*
X0045509Y0115331D02*
X0045509Y0126248D01*
X0035273Y0126248D01*
X0035273Y0115331D01*
X0045509Y0115331D01*
X0045509Y0116095D02*
X0035273Y0116095D01*
X0035273Y0117093D02*
X0045509Y0117093D01*
X0045509Y0118092D02*
X0035273Y0118092D01*
X0035273Y0119090D02*
X0045509Y0119090D01*
X0045509Y0120089D02*
X0035273Y0120089D01*
X0035273Y0121087D02*
X0045509Y0121087D01*
X0045509Y0122086D02*
X0035273Y0122086D01*
X0035273Y0123084D02*
X0045509Y0123084D01*
X0045509Y0124083D02*
X0035273Y0124083D01*
X0035273Y0125081D02*
X0045509Y0125081D01*
X0045509Y0126080D02*
X0035273Y0126080D01*
X0052793Y0089150D02*
X0052793Y0088559D01*
X0052793Y0089150D02*
X0056277Y0089150D01*
X0087635Y0064440D02*
X0087635Y0056276D01*
X0088143Y0056276D01*
X0088143Y0057771D01*
X0089368Y0058996D01*
X0091100Y0058996D01*
X0092324Y0057771D01*
X0092324Y0056276D01*
X0093935Y0056276D01*
X0093935Y0053913D01*
X0098659Y0053913D01*
X0098659Y0054973D01*
X0098501Y0054815D01*
X0096769Y0054815D01*
X0095545Y0056040D01*
X0095545Y0057771D01*
X0096769Y0058996D01*
X0098501Y0058996D01*
X0098659Y0058838D01*
X0098659Y0062374D01*
X0098501Y0062217D01*
X0096769Y0062217D01*
X0095545Y0063441D01*
X0095545Y0065173D01*
X0096769Y0066398D01*
X0098501Y0066398D01*
X0098659Y0066240D01*
X0098659Y0067693D01*
X0093935Y0067693D01*
X0093935Y0064937D01*
X0092324Y0064937D01*
X0092324Y0063441D01*
X0091100Y0062217D01*
X0089368Y0062217D01*
X0088143Y0063441D01*
X0088143Y0064937D01*
X0088132Y0064937D01*
X0087635Y0064440D01*
X0087635Y0064172D02*
X0088143Y0064172D01*
X0088411Y0063174D02*
X0087635Y0063174D01*
X0087635Y0062175D02*
X0098659Y0062175D01*
X0098659Y0061177D02*
X0087635Y0061177D01*
X0087635Y0060178D02*
X0098659Y0060178D01*
X0098659Y0059180D02*
X0087635Y0059180D01*
X0087635Y0058181D02*
X0088553Y0058181D01*
X0088143Y0057183D02*
X0087635Y0057183D01*
X0091915Y0058181D02*
X0095955Y0058181D01*
X0095545Y0057183D02*
X0092324Y0057183D01*
X0093935Y0056184D02*
X0095545Y0056184D01*
X0096399Y0055186D02*
X0093935Y0055186D01*
X0093935Y0054187D02*
X0098659Y0054187D01*
X0095812Y0063174D02*
X0092057Y0063174D01*
X0092324Y0064172D02*
X0095545Y0064172D01*
X0095545Y0065171D02*
X0093935Y0065171D01*
X0093935Y0066169D02*
X0096541Y0066169D01*
X0098659Y0067168D02*
X0093935Y0067168D01*
D26*
X0084880Y0042890D03*
X0083502Y0041118D03*
X0084880Y0039346D03*
X0082124Y0039346D03*
X0080746Y0041118D03*
X0082124Y0042890D03*
X0079368Y0042890D03*
X0077990Y0041118D03*
X0079368Y0039346D03*
X0076612Y0039346D03*
X0075234Y0041118D03*
X0076612Y0042890D03*
X0073856Y0042890D03*
X0073856Y0039346D03*
X0060864Y0055094D03*
X0055746Y0042890D03*
X0054368Y0041118D03*
X0055746Y0039346D03*
X0052990Y0039346D03*
X0051612Y0041118D03*
X0052990Y0042890D03*
X0050234Y0042890D03*
X0048856Y0041118D03*
X0050234Y0039346D03*
X0047478Y0039346D03*
X0046100Y0041118D03*
X0044722Y0039346D03*
X0044722Y0042890D03*
X0047478Y0042890D03*
X0046691Y0065331D03*
D27*
X0045509Y0057063D02*
X0039210Y0057063D01*
X0035667Y0060606D01*
X0031730Y0056669D01*
X0031730Y0052732D01*
X0031730Y0044071D01*
X0031730Y0038953D01*
X0089604Y0060606D02*
X0093935Y0060606D01*
D28*
X0086179Y0070843D03*
D29*
X0089998Y0070843D01*
X0089998Y0072417D01*
X0086179Y0070843D02*
X0086179Y0066236D01*
X0082517Y0062575D01*
X0082517Y0061472D01*
X0080155Y0061472D01*
X0082517Y0061472D02*
X0082517Y0052339D01*
X0088423Y0053126D02*
X0089210Y0052339D01*
X0089210Y0051157D01*
X0075431Y0052339D02*
X0074643Y0052339D01*
X0074643Y0056079D01*
X0073856Y0056866D01*
X0075431Y0052339D02*
X0071100Y0052339D01*
X0066572Y0052339D01*
X0066572Y0051768D01*
X0062832Y0051768D02*
X0062832Y0053913D01*
X0059092Y0053913D01*
X0059092Y0051768D01*
X0059092Y0053913D02*
X0053777Y0053913D01*
X0049840Y0053913D01*
X0046691Y0057063D01*
X0045509Y0057063D01*
X0038817Y0063756D02*
X0038817Y0070055D01*
X0038817Y0063756D02*
X0035667Y0060606D01*
X0080943Y0077929D02*
X0086454Y0077929D01*
X0087439Y0078362D01*
X0087439Y0082850D01*
X0059880Y0123402D02*
X0059880Y0124780D01*
X0054761Y0124780D01*
D30*
X0059880Y0123402D02*
X0060273Y0123402D01*
X0060273Y0112831D01*
X0031730Y0052732D02*
X0031730Y0051551D01*
X0032517Y0049386D01*
X0031730Y0045646D02*
X0031730Y0044071D01*
X0032517Y0043087D02*
X0031730Y0045646D01*
X0031730Y0039740D02*
X0031730Y0038953D01*
X0031730Y0039740D02*
X0032517Y0036787D01*
X0090391Y0036787D02*
X0090391Y0043087D01*
X0090391Y0049386D01*
X0090391Y0049976D01*
X0089210Y0051157D01*
D31*
X0071100Y0048402D02*
X0070313Y0048008D01*
X0066572Y0044268D01*
X0066572Y0042673D01*
M02*
