G75*
%MOIN*%
%OFA0B0*%
%FSLAX25Y25*%
%IPPOS*%
%LPD*%
%AMOC8*
5,1,8,0,0,1.08239X$1,22.5*
%
%ADD10C,0.00000*%
%ADD11C,0.00344*%
%ADD12R,0.21260X0.21260*%
%ADD13R,0.02756X0.03543*%
%ADD14R,0.03937X0.06693*%
%ADD15R,0.03543X0.02756*%
%ADD16OC8,0.05906*%
%ADD17C,0.07400*%
%ADD18C,0.00600*%
%ADD19OC8,0.02205*%
%ADD20C,0.01000*%
%ADD21C,0.01200*%
%ADD22C,0.01600*%
D10*
X0034486Y0027830D02*
X0034486Y0086885D01*
X0095509Y0086885D01*
X0095509Y0027830D01*
X0034486Y0027830D01*
D11*
X0055563Y0049016D02*
X0056991Y0049016D01*
X0056991Y0047982D01*
X0055563Y0047982D01*
X0055563Y0049016D01*
X0055563Y0048325D02*
X0056991Y0048325D01*
X0056991Y0048668D02*
X0055563Y0048668D01*
X0055563Y0049011D02*
X0056991Y0049011D01*
X0056991Y0050985D02*
X0055563Y0050985D01*
X0056991Y0050985D02*
X0056991Y0049951D01*
X0055563Y0049951D01*
X0055563Y0050985D01*
X0055563Y0050294D02*
X0056991Y0050294D01*
X0056991Y0050637D02*
X0055563Y0050637D01*
X0055563Y0050980D02*
X0056991Y0050980D01*
X0056991Y0052953D02*
X0055563Y0052953D01*
X0056991Y0052953D02*
X0056991Y0051919D01*
X0055563Y0051919D01*
X0055563Y0052953D01*
X0055563Y0052262D02*
X0056991Y0052262D01*
X0056991Y0052605D02*
X0055563Y0052605D01*
X0055563Y0052948D02*
X0056991Y0052948D01*
X0056991Y0054922D02*
X0055563Y0054922D01*
X0056991Y0054922D02*
X0056991Y0053888D01*
X0055563Y0053888D01*
X0055563Y0054922D01*
X0055563Y0054231D02*
X0056991Y0054231D01*
X0056991Y0054574D02*
X0055563Y0054574D01*
X0055563Y0054917D02*
X0056991Y0054917D01*
X0056991Y0056890D02*
X0055563Y0056890D01*
X0056991Y0056890D02*
X0056991Y0055856D01*
X0055563Y0055856D01*
X0055563Y0056890D01*
X0055563Y0056199D02*
X0056991Y0056199D01*
X0056991Y0056542D02*
X0055563Y0056542D01*
X0055563Y0056885D02*
X0056991Y0056885D01*
X0056991Y0058859D02*
X0055563Y0058859D01*
X0056991Y0058859D02*
X0056991Y0057825D01*
X0055563Y0057825D01*
X0055563Y0058859D01*
X0055563Y0058168D02*
X0056991Y0058168D01*
X0056991Y0058511D02*
X0055563Y0058511D01*
X0055563Y0058854D02*
X0056991Y0058854D01*
X0056991Y0060827D02*
X0055563Y0060827D01*
X0056991Y0060827D02*
X0056991Y0059793D01*
X0055563Y0059793D01*
X0055563Y0060827D01*
X0055563Y0060136D02*
X0056991Y0060136D01*
X0056991Y0060479D02*
X0055563Y0060479D01*
X0055563Y0060822D02*
X0056991Y0060822D01*
X0056991Y0062796D02*
X0055563Y0062796D01*
X0056991Y0062796D02*
X0056991Y0061762D01*
X0055563Y0061762D01*
X0055563Y0062796D01*
X0055563Y0062105D02*
X0056991Y0062105D01*
X0056991Y0062448D02*
X0055563Y0062448D01*
X0055563Y0062791D02*
X0056991Y0062791D01*
X0056991Y0064764D02*
X0055563Y0064764D01*
X0056991Y0064764D02*
X0056991Y0063730D01*
X0055563Y0063730D01*
X0055563Y0064764D01*
X0055563Y0064073D02*
X0056991Y0064073D01*
X0056991Y0064416D02*
X0055563Y0064416D01*
X0055563Y0064759D02*
X0056991Y0064759D01*
X0056991Y0066733D02*
X0055563Y0066733D01*
X0056991Y0066733D02*
X0056991Y0065699D01*
X0055563Y0065699D01*
X0055563Y0066733D01*
X0055563Y0066042D02*
X0056991Y0066042D01*
X0056991Y0066385D02*
X0055563Y0066385D01*
X0055563Y0066728D02*
X0056991Y0066728D01*
X0056991Y0068701D02*
X0055563Y0068701D01*
X0056991Y0068701D02*
X0056991Y0067667D01*
X0055563Y0067667D01*
X0055563Y0068701D01*
X0055563Y0068010D02*
X0056991Y0068010D01*
X0056991Y0068353D02*
X0055563Y0068353D01*
X0055563Y0068696D02*
X0056991Y0068696D01*
X0056991Y0070670D02*
X0055563Y0070670D01*
X0056991Y0070670D02*
X0056991Y0069636D01*
X0055563Y0069636D01*
X0055563Y0070670D01*
X0055563Y0069979D02*
X0056991Y0069979D01*
X0056991Y0070322D02*
X0055563Y0070322D01*
X0055563Y0070665D02*
X0056991Y0070665D01*
X0058822Y0071466D02*
X0058822Y0072894D01*
X0058822Y0071466D02*
X0057788Y0071466D01*
X0057788Y0072894D01*
X0058822Y0072894D01*
X0058822Y0071809D02*
X0057788Y0071809D01*
X0057788Y0072152D02*
X0058822Y0072152D01*
X0058822Y0072495D02*
X0057788Y0072495D01*
X0057788Y0072838D02*
X0058822Y0072838D01*
X0060790Y0072894D02*
X0060790Y0071466D01*
X0059756Y0071466D01*
X0059756Y0072894D01*
X0060790Y0072894D01*
X0060790Y0071809D02*
X0059756Y0071809D01*
X0059756Y0072152D02*
X0060790Y0072152D01*
X0060790Y0072495D02*
X0059756Y0072495D01*
X0059756Y0072838D02*
X0060790Y0072838D01*
X0062759Y0072894D02*
X0062759Y0071466D01*
X0061725Y0071466D01*
X0061725Y0072894D01*
X0062759Y0072894D01*
X0062759Y0071809D02*
X0061725Y0071809D01*
X0061725Y0072152D02*
X0062759Y0072152D01*
X0062759Y0072495D02*
X0061725Y0072495D01*
X0061725Y0072838D02*
X0062759Y0072838D01*
X0064727Y0072894D02*
X0064727Y0071466D01*
X0063693Y0071466D01*
X0063693Y0072894D01*
X0064727Y0072894D01*
X0064727Y0071809D02*
X0063693Y0071809D01*
X0063693Y0072152D02*
X0064727Y0072152D01*
X0064727Y0072495D02*
X0063693Y0072495D01*
X0063693Y0072838D02*
X0064727Y0072838D01*
X0066696Y0072894D02*
X0066696Y0071466D01*
X0065662Y0071466D01*
X0065662Y0072894D01*
X0066696Y0072894D01*
X0066696Y0071809D02*
X0065662Y0071809D01*
X0065662Y0072152D02*
X0066696Y0072152D01*
X0066696Y0072495D02*
X0065662Y0072495D01*
X0065662Y0072838D02*
X0066696Y0072838D01*
X0068664Y0072894D02*
X0068664Y0071466D01*
X0067630Y0071466D01*
X0067630Y0072894D01*
X0068664Y0072894D01*
X0068664Y0071809D02*
X0067630Y0071809D01*
X0067630Y0072152D02*
X0068664Y0072152D01*
X0068664Y0072495D02*
X0067630Y0072495D01*
X0067630Y0072838D02*
X0068664Y0072838D01*
X0070633Y0072894D02*
X0070633Y0071466D01*
X0069599Y0071466D01*
X0069599Y0072894D01*
X0070633Y0072894D01*
X0070633Y0071809D02*
X0069599Y0071809D01*
X0069599Y0072152D02*
X0070633Y0072152D01*
X0070633Y0072495D02*
X0069599Y0072495D01*
X0069599Y0072838D02*
X0070633Y0072838D01*
X0072601Y0072894D02*
X0072601Y0071466D01*
X0071567Y0071466D01*
X0071567Y0072894D01*
X0072601Y0072894D01*
X0072601Y0071809D02*
X0071567Y0071809D01*
X0071567Y0072152D02*
X0072601Y0072152D01*
X0072601Y0072495D02*
X0071567Y0072495D01*
X0071567Y0072838D02*
X0072601Y0072838D01*
X0074570Y0072894D02*
X0074570Y0071466D01*
X0073536Y0071466D01*
X0073536Y0072894D01*
X0074570Y0072894D01*
X0074570Y0071809D02*
X0073536Y0071809D01*
X0073536Y0072152D02*
X0074570Y0072152D01*
X0074570Y0072495D02*
X0073536Y0072495D01*
X0073536Y0072838D02*
X0074570Y0072838D01*
X0076538Y0072894D02*
X0076538Y0071466D01*
X0075504Y0071466D01*
X0075504Y0072894D01*
X0076538Y0072894D01*
X0076538Y0071809D02*
X0075504Y0071809D01*
X0075504Y0072152D02*
X0076538Y0072152D01*
X0076538Y0072495D02*
X0075504Y0072495D01*
X0075504Y0072838D02*
X0076538Y0072838D01*
X0078507Y0072894D02*
X0078507Y0071466D01*
X0077473Y0071466D01*
X0077473Y0072894D01*
X0078507Y0072894D01*
X0078507Y0071809D02*
X0077473Y0071809D01*
X0077473Y0072152D02*
X0078507Y0072152D01*
X0078507Y0072495D02*
X0077473Y0072495D01*
X0077473Y0072838D02*
X0078507Y0072838D01*
X0080475Y0072894D02*
X0080475Y0071466D01*
X0079441Y0071466D01*
X0079441Y0072894D01*
X0080475Y0072894D01*
X0080475Y0071809D02*
X0079441Y0071809D01*
X0079441Y0072152D02*
X0080475Y0072152D01*
X0080475Y0072495D02*
X0079441Y0072495D01*
X0079441Y0072838D02*
X0080475Y0072838D01*
X0081272Y0069636D02*
X0082700Y0069636D01*
X0081272Y0069636D02*
X0081272Y0070670D01*
X0082700Y0070670D01*
X0082700Y0069636D01*
X0082700Y0069979D02*
X0081272Y0069979D01*
X0081272Y0070322D02*
X0082700Y0070322D01*
X0082700Y0070665D02*
X0081272Y0070665D01*
X0081272Y0067667D02*
X0082700Y0067667D01*
X0081272Y0067667D02*
X0081272Y0068701D01*
X0082700Y0068701D01*
X0082700Y0067667D01*
X0082700Y0068010D02*
X0081272Y0068010D01*
X0081272Y0068353D02*
X0082700Y0068353D01*
X0082700Y0068696D02*
X0081272Y0068696D01*
X0081272Y0065699D02*
X0082700Y0065699D01*
X0081272Y0065699D02*
X0081272Y0066733D01*
X0082700Y0066733D01*
X0082700Y0065699D01*
X0082700Y0066042D02*
X0081272Y0066042D01*
X0081272Y0066385D02*
X0082700Y0066385D01*
X0082700Y0066728D02*
X0081272Y0066728D01*
X0081272Y0063730D02*
X0082700Y0063730D01*
X0081272Y0063730D02*
X0081272Y0064764D01*
X0082700Y0064764D01*
X0082700Y0063730D01*
X0082700Y0064073D02*
X0081272Y0064073D01*
X0081272Y0064416D02*
X0082700Y0064416D01*
X0082700Y0064759D02*
X0081272Y0064759D01*
X0081272Y0061762D02*
X0082700Y0061762D01*
X0081272Y0061762D02*
X0081272Y0062796D01*
X0082700Y0062796D01*
X0082700Y0061762D01*
X0082700Y0062105D02*
X0081272Y0062105D01*
X0081272Y0062448D02*
X0082700Y0062448D01*
X0082700Y0062791D02*
X0081272Y0062791D01*
X0081272Y0059793D02*
X0082700Y0059793D01*
X0081272Y0059793D02*
X0081272Y0060827D01*
X0082700Y0060827D01*
X0082700Y0059793D01*
X0082700Y0060136D02*
X0081272Y0060136D01*
X0081272Y0060479D02*
X0082700Y0060479D01*
X0082700Y0060822D02*
X0081272Y0060822D01*
X0081272Y0057825D02*
X0082700Y0057825D01*
X0081272Y0057825D02*
X0081272Y0058859D01*
X0082700Y0058859D01*
X0082700Y0057825D01*
X0082700Y0058168D02*
X0081272Y0058168D01*
X0081272Y0058511D02*
X0082700Y0058511D01*
X0082700Y0058854D02*
X0081272Y0058854D01*
X0081272Y0055856D02*
X0082700Y0055856D01*
X0081272Y0055856D02*
X0081272Y0056890D01*
X0082700Y0056890D01*
X0082700Y0055856D01*
X0082700Y0056199D02*
X0081272Y0056199D01*
X0081272Y0056542D02*
X0082700Y0056542D01*
X0082700Y0056885D02*
X0081272Y0056885D01*
X0081272Y0053888D02*
X0082700Y0053888D01*
X0081272Y0053888D02*
X0081272Y0054922D01*
X0082700Y0054922D01*
X0082700Y0053888D01*
X0082700Y0054231D02*
X0081272Y0054231D01*
X0081272Y0054574D02*
X0082700Y0054574D01*
X0082700Y0054917D02*
X0081272Y0054917D01*
X0081272Y0051919D02*
X0082700Y0051919D01*
X0081272Y0051919D02*
X0081272Y0052953D01*
X0082700Y0052953D01*
X0082700Y0051919D01*
X0082700Y0052262D02*
X0081272Y0052262D01*
X0081272Y0052605D02*
X0082700Y0052605D01*
X0082700Y0052948D02*
X0081272Y0052948D01*
X0081272Y0049951D02*
X0082700Y0049951D01*
X0081272Y0049951D02*
X0081272Y0050985D01*
X0082700Y0050985D01*
X0082700Y0049951D01*
X0082700Y0050294D02*
X0081272Y0050294D01*
X0081272Y0050637D02*
X0082700Y0050637D01*
X0082700Y0050980D02*
X0081272Y0050980D01*
X0081272Y0047982D02*
X0082700Y0047982D01*
X0081272Y0047982D02*
X0081272Y0049016D01*
X0082700Y0049016D01*
X0082700Y0047982D01*
X0082700Y0048325D02*
X0081272Y0048325D01*
X0081272Y0048668D02*
X0082700Y0048668D01*
X0082700Y0049011D02*
X0081272Y0049011D01*
X0079441Y0047186D02*
X0079441Y0045758D01*
X0079441Y0047186D02*
X0080475Y0047186D01*
X0080475Y0045758D01*
X0079441Y0045758D01*
X0079441Y0046101D02*
X0080475Y0046101D01*
X0080475Y0046444D02*
X0079441Y0046444D01*
X0079441Y0046787D02*
X0080475Y0046787D01*
X0080475Y0047130D02*
X0079441Y0047130D01*
X0077473Y0047186D02*
X0077473Y0045758D01*
X0077473Y0047186D02*
X0078507Y0047186D01*
X0078507Y0045758D01*
X0077473Y0045758D01*
X0077473Y0046101D02*
X0078507Y0046101D01*
X0078507Y0046444D02*
X0077473Y0046444D01*
X0077473Y0046787D02*
X0078507Y0046787D01*
X0078507Y0047130D02*
X0077473Y0047130D01*
X0075504Y0047186D02*
X0075504Y0045758D01*
X0075504Y0047186D02*
X0076538Y0047186D01*
X0076538Y0045758D01*
X0075504Y0045758D01*
X0075504Y0046101D02*
X0076538Y0046101D01*
X0076538Y0046444D02*
X0075504Y0046444D01*
X0075504Y0046787D02*
X0076538Y0046787D01*
X0076538Y0047130D02*
X0075504Y0047130D01*
X0073536Y0047186D02*
X0073536Y0045758D01*
X0073536Y0047186D02*
X0074570Y0047186D01*
X0074570Y0045758D01*
X0073536Y0045758D01*
X0073536Y0046101D02*
X0074570Y0046101D01*
X0074570Y0046444D02*
X0073536Y0046444D01*
X0073536Y0046787D02*
X0074570Y0046787D01*
X0074570Y0047130D02*
X0073536Y0047130D01*
X0071567Y0047186D02*
X0071567Y0045758D01*
X0071567Y0047186D02*
X0072601Y0047186D01*
X0072601Y0045758D01*
X0071567Y0045758D01*
X0071567Y0046101D02*
X0072601Y0046101D01*
X0072601Y0046444D02*
X0071567Y0046444D01*
X0071567Y0046787D02*
X0072601Y0046787D01*
X0072601Y0047130D02*
X0071567Y0047130D01*
X0069599Y0047186D02*
X0069599Y0045758D01*
X0069599Y0047186D02*
X0070633Y0047186D01*
X0070633Y0045758D01*
X0069599Y0045758D01*
X0069599Y0046101D02*
X0070633Y0046101D01*
X0070633Y0046444D02*
X0069599Y0046444D01*
X0069599Y0046787D02*
X0070633Y0046787D01*
X0070633Y0047130D02*
X0069599Y0047130D01*
X0067630Y0047186D02*
X0067630Y0045758D01*
X0067630Y0047186D02*
X0068664Y0047186D01*
X0068664Y0045758D01*
X0067630Y0045758D01*
X0067630Y0046101D02*
X0068664Y0046101D01*
X0068664Y0046444D02*
X0067630Y0046444D01*
X0067630Y0046787D02*
X0068664Y0046787D01*
X0068664Y0047130D02*
X0067630Y0047130D01*
X0065662Y0047186D02*
X0065662Y0045758D01*
X0065662Y0047186D02*
X0066696Y0047186D01*
X0066696Y0045758D01*
X0065662Y0045758D01*
X0065662Y0046101D02*
X0066696Y0046101D01*
X0066696Y0046444D02*
X0065662Y0046444D01*
X0065662Y0046787D02*
X0066696Y0046787D01*
X0066696Y0047130D02*
X0065662Y0047130D01*
X0063693Y0047186D02*
X0063693Y0045758D01*
X0063693Y0047186D02*
X0064727Y0047186D01*
X0064727Y0045758D01*
X0063693Y0045758D01*
X0063693Y0046101D02*
X0064727Y0046101D01*
X0064727Y0046444D02*
X0063693Y0046444D01*
X0063693Y0046787D02*
X0064727Y0046787D01*
X0064727Y0047130D02*
X0063693Y0047130D01*
X0061725Y0047186D02*
X0061725Y0045758D01*
X0061725Y0047186D02*
X0062759Y0047186D01*
X0062759Y0045758D01*
X0061725Y0045758D01*
X0061725Y0046101D02*
X0062759Y0046101D01*
X0062759Y0046444D02*
X0061725Y0046444D01*
X0061725Y0046787D02*
X0062759Y0046787D01*
X0062759Y0047130D02*
X0061725Y0047130D01*
X0059756Y0047186D02*
X0059756Y0045758D01*
X0059756Y0047186D02*
X0060790Y0047186D01*
X0060790Y0045758D01*
X0059756Y0045758D01*
X0059756Y0046101D02*
X0060790Y0046101D01*
X0060790Y0046444D02*
X0059756Y0046444D01*
X0059756Y0046787D02*
X0060790Y0046787D01*
X0060790Y0047130D02*
X0059756Y0047130D01*
X0057788Y0047186D02*
X0057788Y0045758D01*
X0057788Y0047186D02*
X0058822Y0047186D01*
X0058822Y0045758D01*
X0057788Y0045758D01*
X0057788Y0046101D02*
X0058822Y0046101D01*
X0058822Y0046444D02*
X0057788Y0046444D01*
X0057788Y0046787D02*
X0058822Y0046787D01*
X0058822Y0047130D02*
X0057788Y0047130D01*
D12*
X0069131Y0059326D03*
D13*
X0085470Y0050468D03*
X0090588Y0050468D03*
X0091572Y0042200D03*
X0091572Y0037712D03*
X0086454Y0037712D03*
X0086454Y0042200D03*
X0081139Y0037279D03*
X0076021Y0037279D03*
X0068147Y0075861D03*
X0063029Y0075861D03*
X0076809Y0079011D03*
X0081927Y0079011D03*
D14*
X0069722Y0082751D03*
X0059880Y0082751D03*
D15*
X0054958Y0080389D03*
X0054958Y0075271D03*
X0086848Y0060310D03*
X0086848Y0055192D03*
X0092754Y0072515D03*
X0092754Y0077633D03*
D16*
X0091572Y0031767D03*
X0083698Y0031767D03*
X0075824Y0031767D03*
X0067950Y0031767D03*
X0060076Y0031767D03*
X0052202Y0031767D03*
X0044328Y0031767D03*
D17*
X0040391Y0038854D03*
X0040391Y0048854D03*
X0040391Y0058854D03*
X0040391Y0068854D03*
X0040391Y0078854D03*
D18*
X0040504Y0079049D02*
X0045509Y0079049D01*
X0045191Y0079154D02*
X0045191Y0079231D01*
X0045073Y0079978D01*
X0044840Y0080696D01*
X0044497Y0081369D01*
X0044053Y0081981D01*
X0043518Y0082515D01*
X0042907Y0082959D01*
X0042234Y0083302D01*
X0041515Y0083535D01*
X0040769Y0083654D01*
X0040691Y0083654D01*
X0040691Y0079154D01*
X0040504Y0079154D01*
X0040504Y0085798D01*
X0045509Y0085798D01*
X0045509Y0069169D01*
X0044991Y0069169D01*
X0044991Y0069769D01*
X0044291Y0071459D01*
X0042997Y0072753D01*
X0041306Y0073454D01*
X0040504Y0073454D01*
X0040504Y0085798D01*
X0057011Y0085798D01*
X0057011Y0082830D01*
X0056875Y0082867D01*
X0055258Y0082867D01*
X0055258Y0080689D01*
X0054658Y0080689D01*
X0054658Y0080089D01*
X0052087Y0080089D01*
X0052087Y0078866D01*
X0052162Y0078586D01*
X0052306Y0078336D01*
X0052511Y0078131D01*
X0052762Y0077986D01*
X0053042Y0077911D01*
X0054658Y0077911D01*
X0054658Y0080089D01*
X0055258Y0080089D01*
X0055258Y0077911D01*
X0056875Y0077911D01*
X0057155Y0077986D01*
X0057405Y0078131D01*
X0057610Y0078336D01*
X0057708Y0078505D01*
X0058773Y0078505D01*
X0058773Y0073966D01*
X0058499Y0073966D01*
X0057630Y0074835D01*
X0057630Y0077022D01*
X0057103Y0077549D01*
X0052814Y0077549D01*
X0052287Y0077022D01*
X0052287Y0076274D01*
X0050881Y0076274D01*
X0050079Y0077076D01*
X0048420Y0077076D01*
X0047247Y0075903D01*
X0047247Y0074245D01*
X0048229Y0073263D01*
X0047917Y0072951D01*
X0047917Y0071292D01*
X0049089Y0070119D01*
X0050003Y0070119D01*
X0050003Y0069127D01*
X0050806Y0068324D01*
X0050806Y0060136D01*
X0049859Y0061083D01*
X0044409Y0066533D01*
X0044991Y0067939D01*
X0044991Y0069769D01*
X0044291Y0071459D01*
X0042997Y0072753D01*
X0041306Y0073454D01*
X0040504Y0073454D01*
X0040504Y0078553D01*
X0040691Y0078553D01*
X0040691Y0074054D01*
X0040769Y0074054D01*
X0041515Y0074172D01*
X0042234Y0074405D01*
X0042907Y0074748D01*
X0043518Y0075192D01*
X0044053Y0075727D01*
X0044497Y0076338D01*
X0044840Y0077011D01*
X0045073Y0077730D01*
X0045191Y0078476D01*
X0045191Y0078554D01*
X0040691Y0078554D01*
X0040691Y0079154D01*
X0045191Y0079154D01*
X0045125Y0079648D02*
X0052087Y0079648D01*
X0052087Y0079049D02*
X0040691Y0079049D01*
X0040691Y0078451D02*
X0040504Y0078451D01*
X0045509Y0078451D01*
X0045187Y0078451D02*
X0052240Y0078451D01*
X0052519Y0077254D02*
X0044919Y0077254D01*
X0045509Y0077254D02*
X0040504Y0077254D01*
X0040691Y0077254D01*
X0040691Y0077852D02*
X0040504Y0077852D01*
X0045509Y0077852D01*
X0045093Y0077852D02*
X0058773Y0077852D01*
X0058773Y0077254D02*
X0057398Y0077254D01*
X0057630Y0076655D02*
X0058773Y0076655D01*
X0058773Y0076057D02*
X0057630Y0076057D01*
X0057630Y0075458D02*
X0058773Y0075458D01*
X0058773Y0074860D02*
X0057630Y0074860D01*
X0058204Y0074261D02*
X0058773Y0074261D01*
X0058773Y0078451D02*
X0057677Y0078451D01*
X0055258Y0078451D02*
X0054658Y0078451D01*
X0054658Y0079049D02*
X0055258Y0079049D01*
X0055258Y0079648D02*
X0054658Y0079648D01*
X0054658Y0080246D02*
X0044986Y0080246D01*
X0045509Y0080246D02*
X0040504Y0080246D01*
X0040691Y0080246D01*
X0040691Y0079648D02*
X0040504Y0079648D01*
X0045509Y0079648D01*
X0045509Y0080845D02*
X0040504Y0080845D01*
X0040691Y0080845D01*
X0040691Y0081443D02*
X0040504Y0081443D01*
X0045509Y0081443D01*
X0045509Y0082042D02*
X0040504Y0082042D01*
X0040691Y0082042D01*
X0040691Y0082640D02*
X0040504Y0082640D01*
X0045509Y0082640D01*
X0045509Y0083239D02*
X0040504Y0083239D01*
X0040691Y0083239D01*
X0040504Y0083837D02*
X0045509Y0083837D01*
X0045509Y0084436D02*
X0040504Y0084436D01*
X0057011Y0084436D01*
X0057011Y0085034D02*
X0040504Y0085034D01*
X0045509Y0085034D01*
X0045509Y0085633D02*
X0040504Y0085633D01*
X0057011Y0085633D01*
X0057011Y0083837D02*
X0040504Y0083837D01*
X0042357Y0083239D02*
X0057011Y0083239D01*
X0055258Y0082640D02*
X0054658Y0082640D01*
X0054658Y0082867D02*
X0053042Y0082867D01*
X0052762Y0082792D01*
X0052511Y0082647D01*
X0052306Y0082442D01*
X0052162Y0082192D01*
X0052087Y0081912D01*
X0052087Y0080689D01*
X0054658Y0080689D01*
X0054658Y0082867D01*
X0054658Y0082042D02*
X0055258Y0082042D01*
X0055258Y0081443D02*
X0054658Y0081443D01*
X0054658Y0080845D02*
X0055258Y0080845D01*
X0052504Y0082640D02*
X0043345Y0082640D01*
X0043991Y0082042D02*
X0052121Y0082042D01*
X0052087Y0081443D02*
X0044443Y0081443D01*
X0044764Y0080845D02*
X0052087Y0080845D01*
X0052287Y0076655D02*
X0050500Y0076655D01*
X0049250Y0075074D02*
X0054171Y0075074D01*
X0054407Y0075074D01*
X0050003Y0070072D02*
X0044866Y0070072D01*
X0045509Y0070072D01*
X0045509Y0070670D02*
X0044618Y0070670D01*
X0048538Y0070670D01*
X0047940Y0071269D02*
X0044370Y0071269D01*
X0045509Y0071269D01*
X0045509Y0071867D02*
X0043883Y0071867D01*
X0047917Y0071867D01*
X0047917Y0072466D02*
X0043285Y0072466D01*
X0045509Y0072466D01*
X0045509Y0073064D02*
X0042246Y0073064D01*
X0048030Y0073064D01*
X0047829Y0073663D02*
X0040504Y0073663D01*
X0045509Y0073663D01*
X0045509Y0074261D02*
X0040504Y0074261D01*
X0040691Y0074261D01*
X0040691Y0074860D02*
X0040504Y0074860D01*
X0045509Y0074860D01*
X0045509Y0075458D02*
X0040504Y0075458D01*
X0040691Y0075458D01*
X0040691Y0076057D02*
X0040504Y0076057D01*
X0045509Y0076057D01*
X0045509Y0076655D02*
X0040504Y0076655D01*
X0040691Y0076655D01*
X0041791Y0074261D02*
X0047247Y0074261D01*
X0047247Y0074860D02*
X0043061Y0074860D01*
X0043784Y0075458D02*
X0047247Y0075458D01*
X0047401Y0076057D02*
X0044292Y0076057D01*
X0044658Y0076655D02*
X0047999Y0076655D01*
X0050003Y0069473D02*
X0044991Y0069473D01*
X0045509Y0069473D01*
X0044991Y0068875D02*
X0050255Y0068875D01*
X0050806Y0068276D02*
X0044991Y0068276D01*
X0044883Y0067678D02*
X0050806Y0067678D01*
X0050806Y0067079D02*
X0044635Y0067079D01*
X0044461Y0066481D02*
X0050806Y0066481D01*
X0050806Y0065882D02*
X0045060Y0065882D01*
X0045658Y0065284D02*
X0050806Y0065284D01*
X0050806Y0064685D02*
X0046257Y0064685D01*
X0046855Y0064087D02*
X0050806Y0064087D01*
X0050806Y0063488D02*
X0047454Y0063488D01*
X0048052Y0062890D02*
X0050806Y0062890D01*
X0050806Y0062291D02*
X0048651Y0062291D01*
X0049249Y0061692D02*
X0050806Y0061692D01*
X0050806Y0061094D02*
X0049848Y0061094D01*
X0050446Y0060495D02*
X0050806Y0060495D01*
X0052006Y0059490D02*
X0052006Y0069956D01*
X0048659Y0060586D02*
X0040391Y0068854D01*
X0048659Y0060586D02*
X0052872Y0056373D01*
X0056277Y0056373D01*
X0056277Y0054405D02*
X0044840Y0054405D01*
X0040391Y0058854D01*
X0046848Y0048854D02*
X0050431Y0052436D01*
X0056277Y0052436D01*
X0056277Y0050468D02*
X0052006Y0050468D01*
X0049446Y0047909D01*
X0040391Y0038854D01*
X0044328Y0031767D02*
X0050155Y0037594D01*
X0059919Y0037594D01*
X0066966Y0044641D01*
X0072084Y0044641D01*
X0072084Y0046472D01*
X0074053Y0046472D02*
X0074053Y0044641D01*
X0072596Y0043184D01*
X0068659Y0043184D01*
X0061454Y0035980D01*
X0056415Y0035980D01*
X0052202Y0031767D01*
X0060076Y0031767D02*
X0069919Y0041609D01*
X0073462Y0041609D01*
X0076021Y0044169D01*
X0076021Y0046472D01*
X0079958Y0046472D02*
X0080273Y0046472D01*
X0080273Y0042672D01*
X0079092Y0041491D01*
X0075116Y0041491D01*
X0073974Y0040350D01*
X0070557Y0040350D01*
X0067950Y0037743D01*
X0067950Y0031767D01*
X0069150Y0035620D02*
X0069150Y0037246D01*
X0071054Y0039150D01*
X0073743Y0039150D01*
X0073743Y0035817D01*
X0069546Y0035817D01*
X0069349Y0035620D01*
X0069150Y0035620D01*
X0069150Y0035957D02*
X0073743Y0035957D01*
X0073743Y0036555D02*
X0069150Y0036555D01*
X0069150Y0037154D02*
X0073743Y0037154D01*
X0073743Y0037752D02*
X0069657Y0037752D01*
X0070255Y0038351D02*
X0073743Y0038351D01*
X0073743Y0038949D02*
X0070854Y0038949D01*
X0062242Y0042799D02*
X0062242Y0046472D01*
X0060273Y0046472D02*
X0060076Y0046472D01*
X0060076Y0043972D01*
X0062242Y0042799D02*
X0059084Y0039641D01*
X0055746Y0039641D01*
X0056927Y0043972D02*
X0057399Y0044444D01*
X0057045Y0044720D01*
X0058305Y0045980D01*
X0058305Y0046472D01*
X0068832Y0049202D02*
X0068832Y0059026D01*
X0069431Y0059026D01*
X0069431Y0049202D01*
X0068832Y0049202D01*
X0068832Y0049722D02*
X0069431Y0049722D01*
X0069431Y0050321D02*
X0068832Y0050321D01*
X0068832Y0050919D02*
X0069431Y0050919D01*
X0069431Y0051518D02*
X0068832Y0051518D01*
X0068832Y0052116D02*
X0069431Y0052116D01*
X0069431Y0052715D02*
X0068832Y0052715D01*
X0068832Y0053313D02*
X0069431Y0053313D01*
X0069431Y0053912D02*
X0068832Y0053912D01*
X0068832Y0054510D02*
X0069431Y0054510D01*
X0069431Y0055109D02*
X0068832Y0055109D01*
X0068832Y0055707D02*
X0069431Y0055707D01*
X0069431Y0056306D02*
X0068832Y0056306D01*
X0068832Y0056904D02*
X0069431Y0056904D01*
X0069431Y0057503D02*
X0068832Y0057503D01*
X0068832Y0058101D02*
X0069431Y0058101D01*
X0069431Y0058700D02*
X0068832Y0058700D01*
X0069131Y0059326D02*
X0071100Y0061294D01*
X0071100Y0066806D01*
X0071100Y0073943D02*
X0071077Y0073966D01*
X0070625Y0073966D01*
X0070625Y0075561D01*
X0068447Y0075561D01*
X0068447Y0076161D01*
X0070625Y0076161D01*
X0070625Y0077778D01*
X0070550Y0078058D01*
X0070405Y0078308D01*
X0070209Y0078505D01*
X0072063Y0078505D01*
X0072591Y0079032D01*
X0072591Y0085798D01*
X0074137Y0085798D01*
X0074137Y0079032D01*
X0074493Y0078676D01*
X0072653Y0076835D01*
X0072653Y0073966D01*
X0071123Y0073966D01*
X0071100Y0073943D01*
X0070625Y0074261D02*
X0072653Y0074261D01*
X0072653Y0074860D02*
X0070625Y0074860D01*
X0070625Y0075458D02*
X0072653Y0075458D01*
X0072653Y0076057D02*
X0068447Y0076057D01*
X0070625Y0076655D02*
X0072653Y0076655D01*
X0073072Y0077254D02*
X0070625Y0077254D01*
X0070605Y0077852D02*
X0073670Y0077852D01*
X0074269Y0078451D02*
X0070263Y0078451D01*
X0072591Y0079049D02*
X0074137Y0079049D01*
X0074137Y0079648D02*
X0072591Y0079648D01*
X0072591Y0080246D02*
X0074137Y0080246D01*
X0074137Y0080845D02*
X0072591Y0080845D01*
X0072591Y0081443D02*
X0074137Y0081443D01*
X0074137Y0082042D02*
X0072591Y0082042D01*
X0072591Y0082640D02*
X0074137Y0082640D01*
X0074137Y0083239D02*
X0072591Y0083239D01*
X0072591Y0083837D02*
X0074137Y0083837D01*
X0074137Y0084436D02*
X0072591Y0084436D01*
X0072591Y0085034D02*
X0074137Y0085034D01*
X0074137Y0085633D02*
X0072591Y0085633D01*
X0076809Y0079011D02*
X0079565Y0081767D01*
X0088620Y0081767D01*
X0092754Y0077633D01*
X0093054Y0074993D02*
X0093054Y0072815D01*
X0092454Y0072815D01*
X0092454Y0074993D01*
X0090837Y0074993D01*
X0090557Y0074918D01*
X0090306Y0074773D01*
X0090102Y0074568D01*
X0089957Y0074317D01*
X0089882Y0074038D01*
X0089882Y0072815D01*
X0092453Y0072815D01*
X0092453Y0072215D01*
X0089882Y0072215D01*
X0089882Y0071565D01*
X0088859Y0072588D01*
X0088063Y0072588D01*
X0088063Y0073974D01*
X0086890Y0075147D01*
X0086488Y0075147D01*
X0086488Y0076494D01*
X0085315Y0077667D01*
X0084205Y0077667D01*
X0084205Y0077811D01*
X0086390Y0077811D01*
X0086420Y0077781D01*
X0086420Y0076646D01*
X0087593Y0075473D01*
X0089252Y0075473D01*
X0090082Y0076303D01*
X0090082Y0075882D01*
X0090609Y0075355D01*
X0094422Y0075355D01*
X0094422Y0074993D01*
X0093054Y0074993D01*
X0093054Y0074860D02*
X0092454Y0074860D01*
X0092454Y0074261D02*
X0093054Y0074261D01*
X0093054Y0073663D02*
X0092454Y0073663D01*
X0092454Y0073064D02*
X0093054Y0073064D01*
X0092453Y0072466D02*
X0088981Y0072466D01*
X0089580Y0071867D02*
X0089882Y0071867D01*
X0089882Y0073064D02*
X0088063Y0073064D01*
X0088063Y0073663D02*
X0089882Y0073663D01*
X0089942Y0074261D02*
X0087776Y0074261D01*
X0087178Y0074860D02*
X0090457Y0074860D01*
X0090506Y0075458D02*
X0086488Y0075458D01*
X0086488Y0076057D02*
X0087010Y0076057D01*
X0086420Y0076655D02*
X0086327Y0076655D01*
X0086420Y0077254D02*
X0085728Y0077254D01*
X0084486Y0075665D02*
X0083443Y0075665D01*
X0079958Y0072180D01*
X0081986Y0070153D02*
X0082320Y0070153D01*
X0085313Y0073145D01*
X0086061Y0073145D01*
X0088029Y0070586D02*
X0085628Y0068184D01*
X0081986Y0068184D01*
X0081986Y0066216D02*
X0088147Y0066216D01*
X0089998Y0068066D01*
X0091422Y0069473D02*
X0094422Y0069473D01*
X0094422Y0070037D02*
X0093054Y0070037D01*
X0093054Y0072215D01*
X0092454Y0072215D01*
X0092454Y0070037D01*
X0090859Y0070037D01*
X0092000Y0068896D01*
X0092000Y0067746D01*
X0093189Y0067746D01*
X0094362Y0066573D01*
X0094362Y0064914D01*
X0093760Y0064312D01*
X0093760Y0059730D01*
X0092940Y0058910D01*
X0089520Y0058910D01*
X0089520Y0058559D01*
X0088992Y0058032D01*
X0086550Y0058032D01*
X0086188Y0057670D01*
X0086548Y0057670D01*
X0086548Y0055492D01*
X0086548Y0054892D01*
X0083976Y0054892D01*
X0083976Y0053669D01*
X0084051Y0053390D01*
X0084196Y0053139D01*
X0083772Y0053139D01*
X0083772Y0053201D01*
X0083885Y0053397D01*
X0083972Y0053720D01*
X0083972Y0054360D01*
X0082030Y0054360D01*
X0082030Y0054449D01*
X0083972Y0054449D01*
X0083972Y0055089D01*
X0083885Y0055413D01*
X0083772Y0055609D01*
X0083772Y0056942D01*
X0084037Y0056942D01*
X0083976Y0056715D01*
X0083976Y0055492D01*
X0086548Y0055492D01*
X0087148Y0055492D01*
X0089720Y0055492D01*
X0089720Y0056715D01*
X0089645Y0056995D01*
X0089500Y0057245D01*
X0089295Y0057450D01*
X0089044Y0057595D01*
X0088765Y0057670D01*
X0087148Y0057670D01*
X0087148Y0055492D01*
X0087148Y0054892D01*
X0089720Y0054892D01*
X0089720Y0053669D01*
X0089645Y0053390D01*
X0089616Y0053339D01*
X0090288Y0053339D01*
X0090288Y0050768D01*
X0090888Y0050768D01*
X0090888Y0053339D01*
X0092111Y0053339D01*
X0092391Y0053264D01*
X0092642Y0053120D01*
X0092846Y0052915D01*
X0092991Y0052664D01*
X0093066Y0052384D01*
X0093066Y0050768D01*
X0090888Y0050768D01*
X0090888Y0050168D01*
X0093066Y0050168D01*
X0093066Y0048551D01*
X0092991Y0048271D01*
X0092846Y0048021D01*
X0092642Y0047816D01*
X0092391Y0047671D01*
X0092111Y0047596D01*
X0090888Y0047596D01*
X0090888Y0050168D01*
X0090288Y0050168D01*
X0088110Y0050168D01*
X0088110Y0048551D01*
X0088185Y0048271D01*
X0088330Y0048021D01*
X0088535Y0047816D01*
X0088786Y0047671D01*
X0089065Y0047596D01*
X0090288Y0047596D01*
X0090288Y0050168D01*
X0090288Y0050768D01*
X0088110Y0050768D01*
X0088110Y0052384D01*
X0088185Y0052664D01*
X0088214Y0052714D01*
X0087646Y0052714D01*
X0087748Y0052612D01*
X0087748Y0048323D01*
X0087221Y0047796D01*
X0087036Y0047796D01*
X0087276Y0047557D01*
X0087276Y0045898D01*
X0086249Y0044872D01*
X0088205Y0044872D01*
X0088732Y0044344D01*
X0088732Y0040056D01*
X0088633Y0039956D01*
X0088732Y0039856D01*
X0088732Y0035567D01*
X0088205Y0035040D01*
X0085874Y0035040D01*
X0087520Y0033394D01*
X0087520Y0033446D01*
X0089327Y0035252D01*
X0089314Y0035265D01*
X0089169Y0035516D01*
X0089094Y0035795D01*
X0089094Y0037412D01*
X0091272Y0037412D01*
X0091272Y0038012D01*
X0089094Y0038012D01*
X0089094Y0039628D01*
X0089169Y0039908D01*
X0089197Y0039956D01*
X0089169Y0040004D01*
X0089094Y0040284D01*
X0089094Y0041900D01*
X0091272Y0041900D01*
X0091272Y0042500D01*
X0089094Y0042500D01*
X0089094Y0044116D01*
X0089169Y0044396D01*
X0089314Y0044647D01*
X0089519Y0044852D01*
X0089770Y0044997D01*
X0090050Y0045072D01*
X0091272Y0045072D01*
X0091272Y0042500D01*
X0091872Y0042500D01*
X0091872Y0045072D01*
X0093095Y0045072D01*
X0093375Y0044997D01*
X0093626Y0044852D01*
X0093831Y0044647D01*
X0093975Y0044396D01*
X0094050Y0044116D01*
X0094050Y0042500D01*
X0091872Y0042500D01*
X0091872Y0041900D01*
X0091872Y0039328D01*
X0091872Y0038012D01*
X0091272Y0038012D01*
X0091272Y0041900D01*
X0091872Y0041900D01*
X0094050Y0041900D01*
X0094050Y0040284D01*
X0093975Y0040004D01*
X0093948Y0039956D01*
X0093975Y0039908D01*
X0094050Y0039628D01*
X0094050Y0038012D01*
X0091872Y0038012D01*
X0091872Y0037412D01*
X0091872Y0034840D01*
X0091872Y0034840D01*
X0091872Y0032067D01*
X0091272Y0032067D01*
X0091272Y0034840D01*
X0091272Y0034840D01*
X0091272Y0037412D01*
X0091872Y0037412D01*
X0094050Y0037412D01*
X0094050Y0035795D01*
X0093975Y0035516D01*
X0093831Y0035265D01*
X0093818Y0035252D01*
X0094422Y0034649D01*
X0094422Y0070037D01*
X0094422Y0068875D02*
X0092000Y0068875D01*
X0092000Y0068276D02*
X0094422Y0068276D01*
X0094422Y0067678D02*
X0093257Y0067678D01*
X0093856Y0067079D02*
X0094422Y0067079D01*
X0094422Y0066481D02*
X0094362Y0066481D01*
X0094362Y0065882D02*
X0094422Y0065882D01*
X0094422Y0065284D02*
X0094362Y0065284D01*
X0094422Y0064685D02*
X0094133Y0064685D01*
X0094422Y0064087D02*
X0093760Y0064087D01*
X0093760Y0063488D02*
X0094422Y0063488D01*
X0094422Y0062890D02*
X0093760Y0062890D01*
X0093760Y0062291D02*
X0094422Y0062291D01*
X0094422Y0061692D02*
X0093760Y0061692D01*
X0093760Y0061094D02*
X0094422Y0061094D01*
X0094422Y0060495D02*
X0093760Y0060495D01*
X0093760Y0059897D02*
X0094422Y0059897D01*
X0094422Y0059298D02*
X0093328Y0059298D01*
X0094422Y0058700D02*
X0089520Y0058700D01*
X0089062Y0058101D02*
X0094422Y0058101D01*
X0094422Y0057503D02*
X0089204Y0057503D01*
X0089669Y0056904D02*
X0094422Y0056904D01*
X0094422Y0056306D02*
X0089720Y0056306D01*
X0089720Y0055707D02*
X0094422Y0055707D01*
X0094422Y0055109D02*
X0087148Y0055109D01*
X0087148Y0055707D02*
X0086548Y0055707D01*
X0086548Y0055109D02*
X0083966Y0055109D01*
X0083976Y0055707D02*
X0083772Y0055707D01*
X0083772Y0056306D02*
X0083976Y0056306D01*
X0084027Y0056904D02*
X0083772Y0056904D01*
X0083972Y0054510D02*
X0083976Y0054510D01*
X0083972Y0053912D02*
X0083976Y0053912D01*
X0084095Y0053313D02*
X0083837Y0053313D01*
X0086548Y0056306D02*
X0087148Y0056306D01*
X0087148Y0056904D02*
X0086548Y0056904D01*
X0086548Y0057503D02*
X0087148Y0057503D01*
X0089720Y0054510D02*
X0094422Y0054510D01*
X0094422Y0053912D02*
X0089720Y0053912D01*
X0090288Y0053313D02*
X0090888Y0053313D01*
X0090888Y0052715D02*
X0090288Y0052715D01*
X0090288Y0052116D02*
X0090888Y0052116D01*
X0090888Y0051518D02*
X0090288Y0051518D01*
X0090288Y0050919D02*
X0090888Y0050919D01*
X0090888Y0050321D02*
X0094422Y0050321D01*
X0094422Y0050919D02*
X0093066Y0050919D01*
X0093066Y0051518D02*
X0094422Y0051518D01*
X0094422Y0052116D02*
X0093066Y0052116D01*
X0092962Y0052715D02*
X0094422Y0052715D01*
X0094422Y0053313D02*
X0092208Y0053313D01*
X0090288Y0050321D02*
X0087748Y0050321D01*
X0087748Y0050919D02*
X0088110Y0050919D01*
X0088110Y0051518D02*
X0087748Y0051518D01*
X0087748Y0052116D02*
X0088110Y0052116D01*
X0088110Y0049722D02*
X0087748Y0049722D01*
X0087748Y0049124D02*
X0088110Y0049124D01*
X0088117Y0048525D02*
X0087748Y0048525D01*
X0087351Y0047927D02*
X0088424Y0047927D01*
X0087276Y0047328D02*
X0094422Y0047328D01*
X0094422Y0046730D02*
X0087276Y0046730D01*
X0087276Y0046131D02*
X0094422Y0046131D01*
X0094422Y0045533D02*
X0086910Y0045533D01*
X0086312Y0044934D02*
X0089662Y0044934D01*
X0089153Y0044336D02*
X0088732Y0044336D01*
X0088732Y0043737D02*
X0089094Y0043737D01*
X0089094Y0043139D02*
X0088732Y0043139D01*
X0088732Y0042540D02*
X0089094Y0042540D01*
X0088732Y0041942D02*
X0091272Y0041942D01*
X0091272Y0042540D02*
X0091872Y0042540D01*
X0091872Y0041942D02*
X0094422Y0041942D01*
X0094422Y0042540D02*
X0094050Y0042540D01*
X0094050Y0043139D02*
X0094422Y0043139D01*
X0094422Y0043737D02*
X0094050Y0043737D01*
X0093992Y0044336D02*
X0094422Y0044336D01*
X0094422Y0044934D02*
X0093483Y0044934D01*
X0091872Y0044934D02*
X0091272Y0044934D01*
X0091272Y0044336D02*
X0091872Y0044336D01*
X0091872Y0043737D02*
X0091272Y0043737D01*
X0091272Y0043139D02*
X0091872Y0043139D01*
X0091872Y0041343D02*
X0091272Y0041343D01*
X0091272Y0040745D02*
X0091872Y0040745D01*
X0091872Y0040146D02*
X0091272Y0040146D01*
X0091272Y0039548D02*
X0091872Y0039548D01*
X0091872Y0038949D02*
X0091272Y0038949D01*
X0091272Y0038351D02*
X0091872Y0038351D01*
X0091872Y0037752D02*
X0094422Y0037752D01*
X0094422Y0037154D02*
X0094050Y0037154D01*
X0094050Y0036555D02*
X0094422Y0036555D01*
X0094422Y0035957D02*
X0094050Y0035957D01*
X0093884Y0035358D02*
X0094422Y0035358D01*
X0094422Y0034759D02*
X0094311Y0034759D01*
X0091872Y0034759D02*
X0091272Y0034759D01*
X0091272Y0034161D02*
X0091872Y0034161D01*
X0091872Y0033562D02*
X0091272Y0033562D01*
X0091272Y0032964D02*
X0091872Y0032964D01*
X0091872Y0032365D02*
X0091272Y0032365D01*
X0088834Y0034759D02*
X0086154Y0034759D01*
X0086753Y0034161D02*
X0088235Y0034161D01*
X0087637Y0033562D02*
X0087351Y0033562D01*
X0088523Y0035358D02*
X0089260Y0035358D01*
X0089094Y0035957D02*
X0088732Y0035957D01*
X0088732Y0036555D02*
X0089094Y0036555D01*
X0089094Y0037154D02*
X0088732Y0037154D01*
X0088732Y0037752D02*
X0091272Y0037752D01*
X0091272Y0037154D02*
X0091872Y0037154D01*
X0091872Y0036555D02*
X0091272Y0036555D01*
X0091272Y0035957D02*
X0091872Y0035957D01*
X0091872Y0035358D02*
X0091272Y0035358D01*
X0089094Y0038351D02*
X0088732Y0038351D01*
X0088732Y0038949D02*
X0089094Y0038949D01*
X0089094Y0039548D02*
X0088732Y0039548D01*
X0088732Y0040146D02*
X0089131Y0040146D01*
X0089094Y0040745D02*
X0088732Y0040745D01*
X0088732Y0041343D02*
X0089094Y0041343D01*
X0085824Y0041767D02*
X0083305Y0041767D01*
X0081986Y0043086D01*
X0081986Y0048499D01*
X0085273Y0050468D02*
X0085470Y0050468D01*
X0090288Y0049722D02*
X0090888Y0049722D01*
X0090888Y0049124D02*
X0090288Y0049124D01*
X0090288Y0048525D02*
X0090888Y0048525D01*
X0090888Y0047927D02*
X0090288Y0047927D01*
X0092752Y0047927D02*
X0094422Y0047927D01*
X0094422Y0048525D02*
X0093059Y0048525D01*
X0093066Y0049124D02*
X0094422Y0049124D01*
X0094422Y0049722D02*
X0093066Y0049722D01*
X0086455Y0042199D02*
X0086445Y0042156D01*
X0086431Y0042113D01*
X0086414Y0042072D01*
X0086394Y0042032D01*
X0086371Y0041994D01*
X0086344Y0041958D01*
X0086314Y0041925D01*
X0086282Y0041894D01*
X0086248Y0041865D01*
X0086211Y0041840D01*
X0086172Y0041818D01*
X0086131Y0041799D01*
X0086090Y0041783D01*
X0086046Y0041771D01*
X0086003Y0041763D01*
X0085958Y0041758D01*
X0085913Y0041757D01*
X0085869Y0041760D01*
X0085824Y0041766D01*
X0094050Y0041343D02*
X0094422Y0041343D01*
X0094422Y0040745D02*
X0094050Y0040745D01*
X0094014Y0040146D02*
X0094422Y0040146D01*
X0094422Y0039548D02*
X0094050Y0039548D01*
X0094050Y0038949D02*
X0094422Y0038949D01*
X0094422Y0038351D02*
X0094050Y0038351D01*
X0093054Y0070072D02*
X0092454Y0070072D01*
X0092454Y0070670D02*
X0093054Y0070670D01*
X0093054Y0071269D02*
X0092454Y0071269D01*
X0092454Y0071867D02*
X0093054Y0071867D01*
X0090082Y0076057D02*
X0089836Y0076057D01*
X0088423Y0077476D02*
X0086887Y0079011D01*
X0081927Y0079011D01*
X0056277Y0058342D02*
X0053153Y0058342D01*
X0052006Y0059490D01*
X0046848Y0048854D02*
X0040391Y0048854D01*
D19*
X0052793Y0047909D03*
X0056927Y0043972D03*
X0060076Y0043972D03*
X0055746Y0039641D03*
X0061651Y0051846D03*
X0062045Y0056570D03*
X0070313Y0050271D03*
X0078423Y0049995D03*
X0078187Y0043578D03*
X0083305Y0041767D03*
X0085273Y0046728D03*
X0091572Y0046334D03*
X0090706Y0054090D03*
X0078620Y0059838D03*
X0075037Y0063263D03*
X0071100Y0066806D03*
X0067163Y0068775D03*
X0067163Y0064444D03*
X0075037Y0068775D03*
X0084486Y0075665D03*
X0086061Y0073145D03*
X0088029Y0070586D03*
X0089998Y0068066D03*
X0093147Y0068775D03*
X0092360Y0065743D03*
X0088423Y0077476D03*
X0073462Y0079011D03*
X0064210Y0079562D03*
X0054958Y0084523D03*
X0049053Y0080192D03*
X0049250Y0075074D03*
X0049919Y0072121D03*
X0052006Y0069956D03*
X0049053Y0063657D03*
X0072281Y0038263D03*
D20*
X0077990Y0043775D02*
X0078187Y0043578D01*
X0077990Y0043775D02*
X0077990Y0046472D01*
X0078423Y0049995D02*
X0078423Y0054405D01*
X0081986Y0054405D01*
X0086061Y0054405D01*
X0086848Y0055192D01*
X0084880Y0058342D02*
X0086848Y0060310D01*
X0092360Y0060310D01*
X0092360Y0065743D01*
X0084880Y0058342D02*
X0081986Y0058342D01*
X0081986Y0050468D02*
X0085273Y0050468D01*
X0074053Y0072180D02*
X0074053Y0076255D01*
X0076809Y0079011D01*
X0064210Y0079562D02*
X0064210Y0077436D01*
X0063029Y0075861D01*
X0064210Y0074680D01*
X0064210Y0072180D01*
X0062242Y0072180D02*
X0062242Y0075861D01*
X0063029Y0075861D01*
X0058305Y0072180D02*
X0055214Y0075271D01*
X0054958Y0075271D01*
X0054171Y0075271D01*
X0054171Y0075074D01*
X0054171Y0066216D01*
X0054171Y0060310D01*
X0056277Y0060310D01*
X0056277Y0066216D02*
X0054171Y0066216D01*
X0052793Y0048499D02*
X0052793Y0047909D01*
X0052793Y0048499D02*
X0056277Y0048499D01*
D21*
X0060273Y0072180D02*
X0060273Y0082751D01*
X0059880Y0082751D01*
D22*
X0086454Y0042200D02*
X0086454Y0037712D01*
X0086454Y0037279D01*
X0081139Y0037279D01*
X0076021Y0037279D02*
X0076021Y0031767D01*
X0075824Y0031767D01*
M02*
