G75*
%MOIN*%
%OFA0B0*%
%FSLAX25Y25*%
%IPPOS*%
%LPD*%
%AMOC8*
5,1,8,0,0,1.08239X$1,22.5*
%
%ADD10C,0.00000*%
%ADD11C,0.05150*%
%ADD12C,0.06000*%
%ADD13C,0.02205*%
%ADD14C,0.01000*%
D10*
X0034486Y0027830D02*
X0034486Y0086885D01*
X0095509Y0086885D01*
X0095509Y0027830D01*
X0034486Y0027830D01*
D11*
X0044328Y0031767D03*
X0052202Y0031767D03*
X0060076Y0031767D03*
X0067950Y0031767D03*
X0075824Y0031767D03*
X0083698Y0031767D03*
X0091572Y0031767D03*
D12*
X0040391Y0038854D03*
X0040391Y0048854D03*
X0040391Y0058854D03*
X0040391Y0068854D03*
X0040391Y0078854D03*
D13*
X0049053Y0080192D03*
X0049250Y0075074D03*
X0049919Y0072121D03*
X0052006Y0069956D03*
X0049053Y0063657D03*
X0062045Y0056570D03*
X0061651Y0051846D03*
X0060076Y0043972D03*
X0056927Y0043972D03*
X0052793Y0047909D03*
X0055746Y0039641D03*
X0070313Y0050271D03*
X0078423Y0049995D03*
X0078187Y0043578D03*
X0083305Y0041767D03*
X0085273Y0046728D03*
X0091572Y0046334D03*
X0090706Y0054090D03*
X0078620Y0059838D03*
X0075037Y0063263D03*
X0071100Y0066806D03*
X0067163Y0068775D03*
X0067163Y0064444D03*
X0075037Y0068775D03*
X0084486Y0075665D03*
X0086061Y0073145D03*
X0088029Y0070586D03*
X0089998Y0068066D03*
X0093147Y0068775D03*
X0092360Y0065743D03*
X0088423Y0077476D03*
X0073462Y0079011D03*
X0064210Y0079562D03*
X0054958Y0084523D03*
X0072281Y0038263D03*
D14*
X0073630Y0035052D02*
X0072540Y0033962D01*
X0071950Y0032538D01*
X0071950Y0031767D01*
X0071825Y0031767D01*
X0071825Y0032538D01*
X0071235Y0033962D01*
X0070145Y0035052D01*
X0068721Y0035642D01*
X0067180Y0035642D01*
X0065755Y0035052D01*
X0064665Y0033962D01*
X0064076Y0032538D01*
X0064076Y0031767D01*
X0063951Y0031767D01*
X0063951Y0032538D01*
X0063361Y0033962D01*
X0062271Y0035052D01*
X0060847Y0035642D01*
X0059306Y0035642D01*
X0057881Y0035052D01*
X0056791Y0033962D01*
X0056202Y0032538D01*
X0056202Y0031767D01*
X0056077Y0031767D01*
X0056077Y0032538D01*
X0055487Y0033962D01*
X0054397Y0035052D01*
X0052973Y0035642D01*
X0051432Y0035642D01*
X0050007Y0035052D01*
X0048917Y0033962D01*
X0048328Y0032538D01*
X0048328Y0031767D01*
X0048203Y0031767D01*
X0048203Y0032538D01*
X0047613Y0033962D01*
X0046523Y0035052D01*
X0045099Y0035642D01*
X0043558Y0035642D01*
X0043051Y0035432D01*
X0044037Y0036418D01*
X0044691Y0037998D01*
X0044691Y0039709D01*
X0044037Y0041289D01*
X0042827Y0042499D01*
X0041247Y0043154D01*
X0040391Y0043154D01*
X0040391Y0044554D01*
X0041247Y0044554D01*
X0042827Y0045208D01*
X0044037Y0046418D01*
X0044691Y0047998D01*
X0044691Y0049709D01*
X0044037Y0051289D01*
X0042827Y0052499D01*
X0041247Y0053154D01*
X0040391Y0053154D01*
X0040391Y0054554D01*
X0041247Y0054554D01*
X0042827Y0055208D01*
X0044037Y0056418D01*
X0044691Y0057998D01*
X0044691Y0059709D01*
X0044037Y0061289D01*
X0042827Y0062499D01*
X0041247Y0063154D01*
X0040391Y0063154D01*
X0040391Y0064554D01*
X0041247Y0064554D01*
X0042827Y0065208D01*
X0044037Y0066418D01*
X0044691Y0067998D01*
X0044691Y0069709D01*
X0044037Y0071289D01*
X0042827Y0072499D01*
X0041247Y0073154D01*
X0040391Y0073154D01*
X0040391Y0085585D01*
X0094209Y0085585D01*
X0094209Y0067291D01*
X0093721Y0067780D01*
X0092838Y0068146D01*
X0092400Y0068146D01*
X0092400Y0068544D01*
X0092034Y0069427D01*
X0091358Y0070103D01*
X0090475Y0070468D01*
X0090431Y0070468D01*
X0090431Y0071064D01*
X0090066Y0071947D01*
X0089390Y0072622D01*
X0088507Y0072988D01*
X0088463Y0072988D01*
X0088463Y0073623D01*
X0088097Y0074506D01*
X0087421Y0075181D01*
X0086888Y0075402D01*
X0086888Y0075613D01*
X0087062Y0075439D01*
X0087945Y0075073D01*
X0088901Y0075073D01*
X0089784Y0075439D01*
X0090459Y0076115D01*
X0090825Y0076998D01*
X0090825Y0077953D01*
X0090459Y0078836D01*
X0089784Y0079512D01*
X0088901Y0079878D01*
X0087945Y0079878D01*
X0087062Y0079512D01*
X0086386Y0078836D01*
X0086020Y0077953D01*
X0086020Y0077527D01*
X0085847Y0077701D01*
X0084964Y0078067D01*
X0084008Y0078067D01*
X0083125Y0077701D01*
X0082449Y0077025D01*
X0082083Y0076142D01*
X0082083Y0075187D01*
X0082449Y0074304D01*
X0083125Y0073628D01*
X0083658Y0073407D01*
X0083658Y0072667D01*
X0084024Y0071784D01*
X0084700Y0071108D01*
X0085583Y0070743D01*
X0085627Y0070743D01*
X0085627Y0070108D01*
X0085993Y0069225D01*
X0086668Y0068549D01*
X0087551Y0068183D01*
X0087595Y0068183D01*
X0087595Y0067588D01*
X0087961Y0066705D01*
X0088637Y0066030D01*
X0089520Y0065664D01*
X0089957Y0065664D01*
X0089957Y0065265D01*
X0090323Y0064382D01*
X0090999Y0063707D01*
X0091882Y0063341D01*
X0092838Y0063341D01*
X0093721Y0063707D01*
X0094209Y0064195D01*
X0094209Y0031767D01*
X0087573Y0031767D01*
X0087573Y0032538D01*
X0086983Y0033962D01*
X0085893Y0035052D01*
X0084469Y0035642D01*
X0082928Y0035642D01*
X0081504Y0035052D01*
X0080414Y0033962D01*
X0079824Y0032538D01*
X0079824Y0031767D01*
X0079699Y0031767D01*
X0079699Y0032538D01*
X0079109Y0033962D01*
X0078019Y0035052D01*
X0076595Y0035642D01*
X0075054Y0035642D01*
X0073630Y0035052D01*
X0073340Y0034762D02*
X0070435Y0034762D01*
X0071317Y0033764D02*
X0072458Y0033764D01*
X0072044Y0032765D02*
X0071731Y0032765D01*
X0071825Y0031767D02*
X0071950Y0031767D01*
X0065466Y0034762D02*
X0062561Y0034762D01*
X0063443Y0033764D02*
X0064584Y0033764D01*
X0064170Y0032765D02*
X0063857Y0032765D01*
X0063951Y0031767D02*
X0064076Y0031767D01*
X0057592Y0034762D02*
X0054687Y0034762D01*
X0055569Y0033764D02*
X0056710Y0033764D01*
X0056296Y0032765D02*
X0055983Y0032765D01*
X0056077Y0031767D02*
X0056202Y0031767D01*
X0056224Y0037239D02*
X0057106Y0037604D01*
X0057782Y0038280D01*
X0058148Y0039163D01*
X0058148Y0040119D01*
X0057782Y0041002D01*
X0057215Y0041569D01*
X0057405Y0041569D01*
X0058288Y0041935D01*
X0058502Y0042149D01*
X0058716Y0041935D01*
X0059599Y0041569D01*
X0060554Y0041569D01*
X0061437Y0041935D01*
X0062113Y0042611D01*
X0062479Y0043494D01*
X0062479Y0044450D01*
X0062113Y0045332D01*
X0061437Y0046008D01*
X0060554Y0046374D01*
X0059599Y0046374D01*
X0058716Y0046008D01*
X0058502Y0045794D01*
X0058288Y0046008D01*
X0057405Y0046374D01*
X0056449Y0046374D01*
X0055566Y0046008D01*
X0054890Y0045332D01*
X0054524Y0044450D01*
X0054524Y0043494D01*
X0054890Y0042611D01*
X0055458Y0042043D01*
X0055268Y0042043D01*
X0054385Y0041678D01*
X0053709Y0041002D01*
X0053343Y0040119D01*
X0053343Y0039163D01*
X0053709Y0038280D01*
X0054385Y0037604D01*
X0055268Y0037239D01*
X0056224Y0037239D01*
X0057260Y0037758D02*
X0094209Y0037758D01*
X0094209Y0036759D02*
X0044178Y0036759D01*
X0044592Y0037758D02*
X0054231Y0037758D01*
X0053512Y0038757D02*
X0044691Y0038757D01*
X0044672Y0039755D02*
X0053343Y0039755D01*
X0053606Y0040754D02*
X0044259Y0040754D01*
X0043574Y0041752D02*
X0054565Y0041752D01*
X0054832Y0042751D02*
X0042220Y0042751D01*
X0040391Y0043749D02*
X0054524Y0043749D01*
X0054648Y0044748D02*
X0041715Y0044748D01*
X0043365Y0045746D02*
X0051736Y0045746D01*
X0051432Y0045872D02*
X0052315Y0045506D01*
X0053271Y0045506D01*
X0054154Y0045872D01*
X0054830Y0046548D01*
X0055195Y0047431D01*
X0055195Y0048387D01*
X0054830Y0049269D01*
X0054154Y0049945D01*
X0053271Y0050311D01*
X0052315Y0050311D01*
X0051432Y0049945D01*
X0050756Y0049269D01*
X0050391Y0048387D01*
X0050391Y0047431D01*
X0050756Y0046548D01*
X0051432Y0045872D01*
X0050675Y0046745D02*
X0044172Y0046745D01*
X0044586Y0047743D02*
X0050391Y0047743D01*
X0050538Y0048742D02*
X0044691Y0048742D01*
X0044678Y0049740D02*
X0051227Y0049740D01*
X0054359Y0049740D02*
X0094209Y0049740D01*
X0094209Y0048742D02*
X0086657Y0048742D01*
X0086634Y0048764D02*
X0085751Y0049130D01*
X0084795Y0049130D01*
X0083912Y0048764D01*
X0083237Y0048088D01*
X0082871Y0047205D01*
X0082871Y0046250D01*
X0083237Y0045367D01*
X0083912Y0044691D01*
X0084795Y0044325D01*
X0085751Y0044325D01*
X0086634Y0044691D01*
X0087310Y0045367D01*
X0087676Y0046250D01*
X0087676Y0047205D01*
X0087310Y0048088D01*
X0086634Y0048764D01*
X0087453Y0047743D02*
X0094209Y0047743D01*
X0094209Y0046745D02*
X0087676Y0046745D01*
X0087467Y0045746D02*
X0094209Y0045746D01*
X0094209Y0044748D02*
X0086691Y0044748D01*
X0085341Y0043128D02*
X0084666Y0043804D01*
X0083783Y0044169D01*
X0082827Y0044169D01*
X0081944Y0043804D01*
X0081268Y0043128D01*
X0080902Y0042245D01*
X0080902Y0041289D01*
X0081268Y0040406D01*
X0081944Y0039730D01*
X0082827Y0039365D01*
X0083783Y0039365D01*
X0084666Y0039730D01*
X0085341Y0040406D01*
X0085707Y0041289D01*
X0085707Y0042245D01*
X0085341Y0043128D01*
X0085498Y0042751D02*
X0094209Y0042751D01*
X0094209Y0043749D02*
X0084720Y0043749D01*
X0083856Y0044748D02*
X0080302Y0044748D01*
X0080223Y0044939D02*
X0079547Y0045615D01*
X0078664Y0045980D01*
X0077709Y0045980D01*
X0076826Y0045615D01*
X0076150Y0044939D01*
X0075784Y0044056D01*
X0075784Y0043100D01*
X0076150Y0042217D01*
X0076826Y0041541D01*
X0077709Y0041176D01*
X0078664Y0041176D01*
X0079547Y0041541D01*
X0080223Y0042217D01*
X0080589Y0043100D01*
X0080589Y0044056D01*
X0080223Y0044939D01*
X0080589Y0043749D02*
X0081889Y0043749D01*
X0081112Y0042751D02*
X0080444Y0042751D01*
X0080902Y0041752D02*
X0079758Y0041752D01*
X0081124Y0040754D02*
X0057885Y0040754D01*
X0057846Y0041752D02*
X0059157Y0041752D01*
X0060995Y0041752D02*
X0076615Y0041752D01*
X0075929Y0042751D02*
X0062171Y0042751D01*
X0062479Y0043749D02*
X0075784Y0043749D01*
X0076071Y0044748D02*
X0062355Y0044748D01*
X0061699Y0045746D02*
X0077143Y0045746D01*
X0079230Y0045746D02*
X0083079Y0045746D01*
X0082871Y0046745D02*
X0054911Y0046745D01*
X0055195Y0047743D02*
X0083094Y0047743D01*
X0083890Y0048742D02*
X0055048Y0048742D01*
X0055304Y0045746D02*
X0053850Y0045746D01*
X0058148Y0039755D02*
X0081919Y0039755D01*
X0084690Y0039755D02*
X0094209Y0039755D01*
X0094209Y0038757D02*
X0057980Y0038757D01*
X0049718Y0034762D02*
X0046813Y0034762D01*
X0047695Y0033764D02*
X0048836Y0033764D01*
X0048422Y0032765D02*
X0048109Y0032765D01*
X0048203Y0031767D02*
X0048328Y0031767D01*
X0043380Y0035761D02*
X0094209Y0035761D01*
X0094209Y0034762D02*
X0086183Y0034762D01*
X0087065Y0033764D02*
X0094209Y0033764D01*
X0094209Y0032765D02*
X0087479Y0032765D01*
X0087573Y0031767D02*
X0094209Y0031767D01*
X0094209Y0040754D02*
X0085485Y0040754D01*
X0085707Y0041752D02*
X0094209Y0041752D01*
X0094209Y0050739D02*
X0044265Y0050739D01*
X0043589Y0051737D02*
X0094209Y0051737D01*
X0094209Y0052736D02*
X0042255Y0052736D01*
X0040391Y0053734D02*
X0094209Y0053734D01*
X0094209Y0054733D02*
X0041679Y0054733D01*
X0043350Y0055731D02*
X0094209Y0055731D01*
X0094209Y0056730D02*
X0044166Y0056730D01*
X0044579Y0057728D02*
X0094209Y0057728D01*
X0094209Y0058727D02*
X0044691Y0058727D01*
X0044685Y0059725D02*
X0094209Y0059725D01*
X0094209Y0060724D02*
X0044271Y0060724D01*
X0043604Y0061722D02*
X0094209Y0061722D01*
X0094209Y0062721D02*
X0042291Y0062721D01*
X0040391Y0063719D02*
X0090986Y0063719D01*
X0090184Y0064718D02*
X0041643Y0064718D01*
X0043335Y0065716D02*
X0089393Y0065716D01*
X0087957Y0066715D02*
X0044160Y0066715D01*
X0044573Y0067713D02*
X0051142Y0067713D01*
X0051528Y0067554D02*
X0052483Y0067554D01*
X0053366Y0067919D01*
X0054042Y0068595D01*
X0054408Y0069478D01*
X0054408Y0070434D01*
X0054042Y0071317D01*
X0053366Y0071993D01*
X0052483Y0072358D01*
X0052321Y0072358D01*
X0052321Y0072599D01*
X0051956Y0073482D01*
X0051415Y0074023D01*
X0051652Y0074596D01*
X0051652Y0075552D01*
X0051286Y0076435D01*
X0050610Y0077111D01*
X0049727Y0077476D01*
X0048772Y0077476D01*
X0047889Y0077111D01*
X0047213Y0076435D01*
X0046847Y0075552D01*
X0046847Y0074596D01*
X0047213Y0073713D01*
X0047754Y0073172D01*
X0047517Y0072599D01*
X0047517Y0071643D01*
X0047882Y0070760D01*
X0048558Y0070085D01*
X0049441Y0069719D01*
X0049603Y0069719D01*
X0049603Y0069478D01*
X0049969Y0068595D01*
X0050645Y0067919D01*
X0051528Y0067554D01*
X0052869Y0067713D02*
X0087595Y0067713D01*
X0086506Y0068712D02*
X0054090Y0068712D01*
X0054408Y0069710D02*
X0085791Y0069710D01*
X0085627Y0070709D02*
X0054294Y0070709D01*
X0053651Y0071707D02*
X0084101Y0071707D01*
X0083658Y0072706D02*
X0052277Y0072706D01*
X0051733Y0073704D02*
X0083049Y0073704D01*
X0082284Y0074703D02*
X0051652Y0074703D01*
X0051590Y0075701D02*
X0082083Y0075701D01*
X0082314Y0076700D02*
X0051021Y0076700D01*
X0047478Y0076700D02*
X0040391Y0076700D01*
X0040391Y0077698D02*
X0062677Y0077698D01*
X0062849Y0077526D02*
X0063732Y0077160D01*
X0064688Y0077160D01*
X0065571Y0077526D01*
X0066247Y0078201D01*
X0066613Y0079084D01*
X0066613Y0080040D01*
X0066247Y0080923D01*
X0065571Y0081599D01*
X0064688Y0081965D01*
X0063732Y0081965D01*
X0062849Y0081599D01*
X0062174Y0080923D01*
X0061808Y0080040D01*
X0061808Y0079084D01*
X0062174Y0078201D01*
X0062849Y0077526D01*
X0061968Y0078697D02*
X0040391Y0078697D01*
X0040391Y0079695D02*
X0061808Y0079695D01*
X0062079Y0080694D02*
X0040391Y0080694D01*
X0040391Y0081692D02*
X0063076Y0081692D01*
X0065345Y0081692D02*
X0094209Y0081692D01*
X0094209Y0080694D02*
X0066342Y0080694D01*
X0066613Y0079695D02*
X0087504Y0079695D01*
X0086328Y0078697D02*
X0066452Y0078697D01*
X0065744Y0077698D02*
X0083122Y0077698D01*
X0085849Y0077698D02*
X0086020Y0077698D01*
X0087900Y0074703D02*
X0094209Y0074703D01*
X0094209Y0075701D02*
X0090046Y0075701D01*
X0090702Y0076700D02*
X0094209Y0076700D01*
X0094209Y0077698D02*
X0090825Y0077698D01*
X0090517Y0078697D02*
X0094209Y0078697D01*
X0094209Y0079695D02*
X0089341Y0079695D01*
X0094209Y0082691D02*
X0040391Y0082691D01*
X0040391Y0083690D02*
X0094209Y0083690D01*
X0094209Y0084688D02*
X0040391Y0084688D01*
X0040391Y0075701D02*
X0046909Y0075701D01*
X0046847Y0074703D02*
X0040391Y0074703D01*
X0040391Y0073704D02*
X0047222Y0073704D01*
X0047561Y0072706D02*
X0042327Y0072706D01*
X0043619Y0071707D02*
X0047517Y0071707D01*
X0047934Y0070709D02*
X0044277Y0070709D01*
X0044691Y0069710D02*
X0049603Y0069710D01*
X0049921Y0068712D02*
X0044691Y0068712D01*
X0078309Y0034762D02*
X0081214Y0034762D01*
X0080332Y0033764D02*
X0079191Y0033764D01*
X0079605Y0032765D02*
X0079918Y0032765D01*
X0079824Y0031767D02*
X0079699Y0031767D01*
X0093733Y0063719D02*
X0094209Y0063719D01*
X0094209Y0067713D02*
X0093787Y0067713D01*
X0094209Y0068712D02*
X0092330Y0068712D01*
X0091751Y0069710D02*
X0094209Y0069710D01*
X0094209Y0070709D02*
X0090431Y0070709D01*
X0090165Y0071707D02*
X0094209Y0071707D01*
X0094209Y0072706D02*
X0089188Y0072706D01*
X0088429Y0073704D02*
X0094209Y0073704D01*
M02*
