%
M48
M72
T01C0.0118
T02C0.0315
T03C0.0400
%
T01
X7346Y7901
X7862Y5984
X7842Y5000
X9071Y5409
X7504Y6877
X6716Y6877
X6716Y6444
X7504Y6326
X7110Y6681
X6204Y5657
X6165Y5185
X4905Y6366
X4905Y8019
X5496Y8452
X9315Y6877
X9157Y4633
X7031Y5027
X7228Y3826
X6421Y7956
X4925Y7507
X9236Y6574
X5279Y4791
X7819Y4358
X8842Y7748
X5575Y3964
X8606Y7314
X8803Y7059
X9000Y6807
X8449Y7566
X5201Y6996
X5693Y4397
X6008Y4397
X8527Y4673
X4992Y7212
X8330Y4177
T02
X4433Y3177
X5220Y3177
X6008Y3177
X6795Y3177
X7582Y3177
X8370Y3177
X9157Y3177
T03
X4039Y3885
X4039Y4885
X4039Y5885
X4039Y6885
X4039Y7885
M30
