G75*
%MOIN*%
%OFA0B0*%
%FSLAX25Y25*%
%IPPOS*%
%LPD*%
%AMOC8*
5,1,8,0,0,1.08239X$1,22.5*
%
%ADD10C,0.00000*%
%ADD11R,0.07520X0.07520*%
%ADD12C,0.00344*%
%ADD13R,0.02756X0.03543*%
%ADD14R,0.03937X0.06693*%
%ADD15R,0.03543X0.02756*%
D10*
X0034486Y0027830D02*
X0034486Y0086885D01*
X0095509Y0086885D01*
X0095509Y0027830D01*
X0034486Y0027830D01*
D11*
X0063817Y0054011D03*
X0074446Y0054011D03*
X0074446Y0064641D03*
X0063817Y0064641D03*
D12*
X0064727Y0071466D02*
X0064727Y0072894D01*
X0064727Y0071466D02*
X0063693Y0071466D01*
X0063693Y0072894D01*
X0064727Y0072894D01*
X0064727Y0071809D02*
X0063693Y0071809D01*
X0063693Y0072152D02*
X0064727Y0072152D01*
X0064727Y0072495D02*
X0063693Y0072495D01*
X0063693Y0072838D02*
X0064727Y0072838D01*
X0066696Y0072894D02*
X0066696Y0071466D01*
X0065662Y0071466D01*
X0065662Y0072894D01*
X0066696Y0072894D01*
X0066696Y0071809D02*
X0065662Y0071809D01*
X0065662Y0072152D02*
X0066696Y0072152D01*
X0066696Y0072495D02*
X0065662Y0072495D01*
X0065662Y0072838D02*
X0066696Y0072838D01*
X0068664Y0072894D02*
X0068664Y0071466D01*
X0067630Y0071466D01*
X0067630Y0072894D01*
X0068664Y0072894D01*
X0068664Y0071809D02*
X0067630Y0071809D01*
X0067630Y0072152D02*
X0068664Y0072152D01*
X0068664Y0072495D02*
X0067630Y0072495D01*
X0067630Y0072838D02*
X0068664Y0072838D01*
X0070633Y0072894D02*
X0070633Y0071466D01*
X0069599Y0071466D01*
X0069599Y0072894D01*
X0070633Y0072894D01*
X0070633Y0071809D02*
X0069599Y0071809D01*
X0069599Y0072152D02*
X0070633Y0072152D01*
X0070633Y0072495D02*
X0069599Y0072495D01*
X0069599Y0072838D02*
X0070633Y0072838D01*
X0072601Y0072894D02*
X0072601Y0071466D01*
X0071567Y0071466D01*
X0071567Y0072894D01*
X0072601Y0072894D01*
X0072601Y0071809D02*
X0071567Y0071809D01*
X0071567Y0072152D02*
X0072601Y0072152D01*
X0072601Y0072495D02*
X0071567Y0072495D01*
X0071567Y0072838D02*
X0072601Y0072838D01*
X0074570Y0072894D02*
X0074570Y0071466D01*
X0073536Y0071466D01*
X0073536Y0072894D01*
X0074570Y0072894D01*
X0074570Y0071809D02*
X0073536Y0071809D01*
X0073536Y0072152D02*
X0074570Y0072152D01*
X0074570Y0072495D02*
X0073536Y0072495D01*
X0073536Y0072838D02*
X0074570Y0072838D01*
X0076538Y0072894D02*
X0076538Y0071466D01*
X0075504Y0071466D01*
X0075504Y0072894D01*
X0076538Y0072894D01*
X0076538Y0071809D02*
X0075504Y0071809D01*
X0075504Y0072152D02*
X0076538Y0072152D01*
X0076538Y0072495D02*
X0075504Y0072495D01*
X0075504Y0072838D02*
X0076538Y0072838D01*
X0078507Y0072894D02*
X0078507Y0071466D01*
X0077473Y0071466D01*
X0077473Y0072894D01*
X0078507Y0072894D01*
X0078507Y0071809D02*
X0077473Y0071809D01*
X0077473Y0072152D02*
X0078507Y0072152D01*
X0078507Y0072495D02*
X0077473Y0072495D01*
X0077473Y0072838D02*
X0078507Y0072838D01*
X0080475Y0072894D02*
X0080475Y0071466D01*
X0079441Y0071466D01*
X0079441Y0072894D01*
X0080475Y0072894D01*
X0080475Y0071809D02*
X0079441Y0071809D01*
X0079441Y0072152D02*
X0080475Y0072152D01*
X0080475Y0072495D02*
X0079441Y0072495D01*
X0079441Y0072838D02*
X0080475Y0072838D01*
X0081272Y0069636D02*
X0082700Y0069636D01*
X0081272Y0069636D02*
X0081272Y0070670D01*
X0082700Y0070670D01*
X0082700Y0069636D01*
X0082700Y0069979D02*
X0081272Y0069979D01*
X0081272Y0070322D02*
X0082700Y0070322D01*
X0082700Y0070665D02*
X0081272Y0070665D01*
X0081272Y0067667D02*
X0082700Y0067667D01*
X0081272Y0067667D02*
X0081272Y0068701D01*
X0082700Y0068701D01*
X0082700Y0067667D01*
X0082700Y0068010D02*
X0081272Y0068010D01*
X0081272Y0068353D02*
X0082700Y0068353D01*
X0082700Y0068696D02*
X0081272Y0068696D01*
X0081272Y0065699D02*
X0082700Y0065699D01*
X0081272Y0065699D02*
X0081272Y0066733D01*
X0082700Y0066733D01*
X0082700Y0065699D01*
X0082700Y0066042D02*
X0081272Y0066042D01*
X0081272Y0066385D02*
X0082700Y0066385D01*
X0082700Y0066728D02*
X0081272Y0066728D01*
X0081272Y0063730D02*
X0082700Y0063730D01*
X0081272Y0063730D02*
X0081272Y0064764D01*
X0082700Y0064764D01*
X0082700Y0063730D01*
X0082700Y0064073D02*
X0081272Y0064073D01*
X0081272Y0064416D02*
X0082700Y0064416D01*
X0082700Y0064759D02*
X0081272Y0064759D01*
X0081272Y0061762D02*
X0082700Y0061762D01*
X0081272Y0061762D02*
X0081272Y0062796D01*
X0082700Y0062796D01*
X0082700Y0061762D01*
X0082700Y0062105D02*
X0081272Y0062105D01*
X0081272Y0062448D02*
X0082700Y0062448D01*
X0082700Y0062791D02*
X0081272Y0062791D01*
X0081272Y0059793D02*
X0082700Y0059793D01*
X0081272Y0059793D02*
X0081272Y0060827D01*
X0082700Y0060827D01*
X0082700Y0059793D01*
X0082700Y0060136D02*
X0081272Y0060136D01*
X0081272Y0060479D02*
X0082700Y0060479D01*
X0082700Y0060822D02*
X0081272Y0060822D01*
X0081272Y0057825D02*
X0082700Y0057825D01*
X0081272Y0057825D02*
X0081272Y0058859D01*
X0082700Y0058859D01*
X0082700Y0057825D01*
X0082700Y0058168D02*
X0081272Y0058168D01*
X0081272Y0058511D02*
X0082700Y0058511D01*
X0082700Y0058854D02*
X0081272Y0058854D01*
X0081272Y0055856D02*
X0082700Y0055856D01*
X0081272Y0055856D02*
X0081272Y0056890D01*
X0082700Y0056890D01*
X0082700Y0055856D01*
X0082700Y0056199D02*
X0081272Y0056199D01*
X0081272Y0056542D02*
X0082700Y0056542D01*
X0082700Y0056885D02*
X0081272Y0056885D01*
X0081272Y0053888D02*
X0082700Y0053888D01*
X0081272Y0053888D02*
X0081272Y0054922D01*
X0082700Y0054922D01*
X0082700Y0053888D01*
X0082700Y0054231D02*
X0081272Y0054231D01*
X0081272Y0054574D02*
X0082700Y0054574D01*
X0082700Y0054917D02*
X0081272Y0054917D01*
X0081272Y0051919D02*
X0082700Y0051919D01*
X0081272Y0051919D02*
X0081272Y0052953D01*
X0082700Y0052953D01*
X0082700Y0051919D01*
X0082700Y0052262D02*
X0081272Y0052262D01*
X0081272Y0052605D02*
X0082700Y0052605D01*
X0082700Y0052948D02*
X0081272Y0052948D01*
X0081272Y0049951D02*
X0082700Y0049951D01*
X0081272Y0049951D02*
X0081272Y0050985D01*
X0082700Y0050985D01*
X0082700Y0049951D01*
X0082700Y0050294D02*
X0081272Y0050294D01*
X0081272Y0050637D02*
X0082700Y0050637D01*
X0082700Y0050980D02*
X0081272Y0050980D01*
X0081272Y0047982D02*
X0082700Y0047982D01*
X0081272Y0047982D02*
X0081272Y0049016D01*
X0082700Y0049016D01*
X0082700Y0047982D01*
X0082700Y0048325D02*
X0081272Y0048325D01*
X0081272Y0048668D02*
X0082700Y0048668D01*
X0082700Y0049011D02*
X0081272Y0049011D01*
X0079441Y0047186D02*
X0079441Y0045758D01*
X0079441Y0047186D02*
X0080475Y0047186D01*
X0080475Y0045758D01*
X0079441Y0045758D01*
X0079441Y0046101D02*
X0080475Y0046101D01*
X0080475Y0046444D02*
X0079441Y0046444D01*
X0079441Y0046787D02*
X0080475Y0046787D01*
X0080475Y0047130D02*
X0079441Y0047130D01*
X0077473Y0047186D02*
X0077473Y0045758D01*
X0077473Y0047186D02*
X0078507Y0047186D01*
X0078507Y0045758D01*
X0077473Y0045758D01*
X0077473Y0046101D02*
X0078507Y0046101D01*
X0078507Y0046444D02*
X0077473Y0046444D01*
X0077473Y0046787D02*
X0078507Y0046787D01*
X0078507Y0047130D02*
X0077473Y0047130D01*
X0075504Y0047186D02*
X0075504Y0045758D01*
X0075504Y0047186D02*
X0076538Y0047186D01*
X0076538Y0045758D01*
X0075504Y0045758D01*
X0075504Y0046101D02*
X0076538Y0046101D01*
X0076538Y0046444D02*
X0075504Y0046444D01*
X0075504Y0046787D02*
X0076538Y0046787D01*
X0076538Y0047130D02*
X0075504Y0047130D01*
X0073536Y0047186D02*
X0073536Y0045758D01*
X0073536Y0047186D02*
X0074570Y0047186D01*
X0074570Y0045758D01*
X0073536Y0045758D01*
X0073536Y0046101D02*
X0074570Y0046101D01*
X0074570Y0046444D02*
X0073536Y0046444D01*
X0073536Y0046787D02*
X0074570Y0046787D01*
X0074570Y0047130D02*
X0073536Y0047130D01*
X0071567Y0047186D02*
X0071567Y0045758D01*
X0071567Y0047186D02*
X0072601Y0047186D01*
X0072601Y0045758D01*
X0071567Y0045758D01*
X0071567Y0046101D02*
X0072601Y0046101D01*
X0072601Y0046444D02*
X0071567Y0046444D01*
X0071567Y0046787D02*
X0072601Y0046787D01*
X0072601Y0047130D02*
X0071567Y0047130D01*
X0069599Y0047186D02*
X0069599Y0045758D01*
X0069599Y0047186D02*
X0070633Y0047186D01*
X0070633Y0045758D01*
X0069599Y0045758D01*
X0069599Y0046101D02*
X0070633Y0046101D01*
X0070633Y0046444D02*
X0069599Y0046444D01*
X0069599Y0046787D02*
X0070633Y0046787D01*
X0070633Y0047130D02*
X0069599Y0047130D01*
X0067630Y0047186D02*
X0067630Y0045758D01*
X0067630Y0047186D02*
X0068664Y0047186D01*
X0068664Y0045758D01*
X0067630Y0045758D01*
X0067630Y0046101D02*
X0068664Y0046101D01*
X0068664Y0046444D02*
X0067630Y0046444D01*
X0067630Y0046787D02*
X0068664Y0046787D01*
X0068664Y0047130D02*
X0067630Y0047130D01*
X0065662Y0047186D02*
X0065662Y0045758D01*
X0065662Y0047186D02*
X0066696Y0047186D01*
X0066696Y0045758D01*
X0065662Y0045758D01*
X0065662Y0046101D02*
X0066696Y0046101D01*
X0066696Y0046444D02*
X0065662Y0046444D01*
X0065662Y0046787D02*
X0066696Y0046787D01*
X0066696Y0047130D02*
X0065662Y0047130D01*
X0063693Y0047186D02*
X0063693Y0045758D01*
X0063693Y0047186D02*
X0064727Y0047186D01*
X0064727Y0045758D01*
X0063693Y0045758D01*
X0063693Y0046101D02*
X0064727Y0046101D01*
X0064727Y0046444D02*
X0063693Y0046444D01*
X0063693Y0046787D02*
X0064727Y0046787D01*
X0064727Y0047130D02*
X0063693Y0047130D01*
X0061725Y0047186D02*
X0061725Y0045758D01*
X0061725Y0047186D02*
X0062759Y0047186D01*
X0062759Y0045758D01*
X0061725Y0045758D01*
X0061725Y0046101D02*
X0062759Y0046101D01*
X0062759Y0046444D02*
X0061725Y0046444D01*
X0061725Y0046787D02*
X0062759Y0046787D01*
X0062759Y0047130D02*
X0061725Y0047130D01*
X0059756Y0047186D02*
X0059756Y0045758D01*
X0059756Y0047186D02*
X0060790Y0047186D01*
X0060790Y0045758D01*
X0059756Y0045758D01*
X0059756Y0046101D02*
X0060790Y0046101D01*
X0060790Y0046444D02*
X0059756Y0046444D01*
X0059756Y0046787D02*
X0060790Y0046787D01*
X0060790Y0047130D02*
X0059756Y0047130D01*
X0057788Y0047186D02*
X0057788Y0045758D01*
X0057788Y0047186D02*
X0058822Y0047186D01*
X0058822Y0045758D01*
X0057788Y0045758D01*
X0057788Y0046101D02*
X0058822Y0046101D01*
X0058822Y0046444D02*
X0057788Y0046444D01*
X0057788Y0046787D02*
X0058822Y0046787D01*
X0058822Y0047130D02*
X0057788Y0047130D01*
X0056991Y0049016D02*
X0055563Y0049016D01*
X0056991Y0049016D02*
X0056991Y0047982D01*
X0055563Y0047982D01*
X0055563Y0049016D01*
X0055563Y0048325D02*
X0056991Y0048325D01*
X0056991Y0048668D02*
X0055563Y0048668D01*
X0055563Y0049011D02*
X0056991Y0049011D01*
X0056991Y0050985D02*
X0055563Y0050985D01*
X0056991Y0050985D02*
X0056991Y0049951D01*
X0055563Y0049951D01*
X0055563Y0050985D01*
X0055563Y0050294D02*
X0056991Y0050294D01*
X0056991Y0050637D02*
X0055563Y0050637D01*
X0055563Y0050980D02*
X0056991Y0050980D01*
X0056991Y0052953D02*
X0055563Y0052953D01*
X0056991Y0052953D02*
X0056991Y0051919D01*
X0055563Y0051919D01*
X0055563Y0052953D01*
X0055563Y0052262D02*
X0056991Y0052262D01*
X0056991Y0052605D02*
X0055563Y0052605D01*
X0055563Y0052948D02*
X0056991Y0052948D01*
X0056991Y0054922D02*
X0055563Y0054922D01*
X0056991Y0054922D02*
X0056991Y0053888D01*
X0055563Y0053888D01*
X0055563Y0054922D01*
X0055563Y0054231D02*
X0056991Y0054231D01*
X0056991Y0054574D02*
X0055563Y0054574D01*
X0055563Y0054917D02*
X0056991Y0054917D01*
X0056991Y0056890D02*
X0055563Y0056890D01*
X0056991Y0056890D02*
X0056991Y0055856D01*
X0055563Y0055856D01*
X0055563Y0056890D01*
X0055563Y0056199D02*
X0056991Y0056199D01*
X0056991Y0056542D02*
X0055563Y0056542D01*
X0055563Y0056885D02*
X0056991Y0056885D01*
X0056991Y0058859D02*
X0055563Y0058859D01*
X0056991Y0058859D02*
X0056991Y0057825D01*
X0055563Y0057825D01*
X0055563Y0058859D01*
X0055563Y0058168D02*
X0056991Y0058168D01*
X0056991Y0058511D02*
X0055563Y0058511D01*
X0055563Y0058854D02*
X0056991Y0058854D01*
X0056991Y0060827D02*
X0055563Y0060827D01*
X0056991Y0060827D02*
X0056991Y0059793D01*
X0055563Y0059793D01*
X0055563Y0060827D01*
X0055563Y0060136D02*
X0056991Y0060136D01*
X0056991Y0060479D02*
X0055563Y0060479D01*
X0055563Y0060822D02*
X0056991Y0060822D01*
X0056991Y0062796D02*
X0055563Y0062796D01*
X0056991Y0062796D02*
X0056991Y0061762D01*
X0055563Y0061762D01*
X0055563Y0062796D01*
X0055563Y0062105D02*
X0056991Y0062105D01*
X0056991Y0062448D02*
X0055563Y0062448D01*
X0055563Y0062791D02*
X0056991Y0062791D01*
X0056991Y0064764D02*
X0055563Y0064764D01*
X0056991Y0064764D02*
X0056991Y0063730D01*
X0055563Y0063730D01*
X0055563Y0064764D01*
X0055563Y0064073D02*
X0056991Y0064073D01*
X0056991Y0064416D02*
X0055563Y0064416D01*
X0055563Y0064759D02*
X0056991Y0064759D01*
X0056991Y0066733D02*
X0055563Y0066733D01*
X0056991Y0066733D02*
X0056991Y0065699D01*
X0055563Y0065699D01*
X0055563Y0066733D01*
X0055563Y0066042D02*
X0056991Y0066042D01*
X0056991Y0066385D02*
X0055563Y0066385D01*
X0055563Y0066728D02*
X0056991Y0066728D01*
X0056991Y0068701D02*
X0055563Y0068701D01*
X0056991Y0068701D02*
X0056991Y0067667D01*
X0055563Y0067667D01*
X0055563Y0068701D01*
X0055563Y0068010D02*
X0056991Y0068010D01*
X0056991Y0068353D02*
X0055563Y0068353D01*
X0055563Y0068696D02*
X0056991Y0068696D01*
X0056991Y0070670D02*
X0055563Y0070670D01*
X0056991Y0070670D02*
X0056991Y0069636D01*
X0055563Y0069636D01*
X0055563Y0070670D01*
X0055563Y0069979D02*
X0056991Y0069979D01*
X0056991Y0070322D02*
X0055563Y0070322D01*
X0055563Y0070665D02*
X0056991Y0070665D01*
X0058822Y0071466D02*
X0058822Y0072894D01*
X0058822Y0071466D02*
X0057788Y0071466D01*
X0057788Y0072894D01*
X0058822Y0072894D01*
X0058822Y0071809D02*
X0057788Y0071809D01*
X0057788Y0072152D02*
X0058822Y0072152D01*
X0058822Y0072495D02*
X0057788Y0072495D01*
X0057788Y0072838D02*
X0058822Y0072838D01*
X0060790Y0072894D02*
X0060790Y0071466D01*
X0059756Y0071466D01*
X0059756Y0072894D01*
X0060790Y0072894D01*
X0060790Y0071809D02*
X0059756Y0071809D01*
X0059756Y0072152D02*
X0060790Y0072152D01*
X0060790Y0072495D02*
X0059756Y0072495D01*
X0059756Y0072838D02*
X0060790Y0072838D01*
X0062759Y0072894D02*
X0062759Y0071466D01*
X0061725Y0071466D01*
X0061725Y0072894D01*
X0062759Y0072894D01*
X0062759Y0071809D02*
X0061725Y0071809D01*
X0061725Y0072152D02*
X0062759Y0072152D01*
X0062759Y0072495D02*
X0061725Y0072495D01*
X0061725Y0072838D02*
X0062759Y0072838D01*
D13*
X0063029Y0075861D03*
X0068147Y0075861D03*
X0076809Y0079011D03*
X0081927Y0079011D03*
X0085470Y0050468D03*
X0090588Y0050468D03*
X0091572Y0042200D03*
X0091572Y0037712D03*
X0086454Y0037712D03*
X0086454Y0042200D03*
X0081139Y0037279D03*
X0076021Y0037279D03*
D14*
X0069722Y0082751D03*
X0059880Y0082751D03*
D15*
X0054958Y0080389D03*
X0054958Y0075271D03*
X0086848Y0060310D03*
X0086848Y0055192D03*
X0092754Y0072515D03*
X0092754Y0077633D03*
M02*
