%
M48
M72
T01C0.0118
T02C0.0315
T03C0.0591
%
T01
X5918Y5442
X6659Y5442
X5918Y4701
X6659Y4701
X7296Y5442
X8037Y5442
X7296Y4701
X8037Y4701
X8792Y5442
X9533Y5442
X8792Y4701
X9533Y4701
X10170Y5442
X10911Y5442
X10170Y4701
X10911Y4701
X6285Y6678
X6600Y6567
X7040Y6567
X7159Y7394
X7159Y7630
X7159Y7867
X6289Y7280
X6289Y7504
X7789Y7827
X7789Y7591
X9115Y6796
X6285Y6965
X9485Y7272
X7485Y6166
X7485Y5942
X9320Y6134
T02
X6037Y6095
X10789Y6552
X10777Y8379
X9989Y8379
X9202Y8379
X8414Y8379
X7627Y8379
X6840Y8379
X6052Y8379
T03
X6289Y5071
X7666Y5071
X9163Y5071
X10540Y5071
M30
