G75*
%MOIN*%
%OFA0B0*%
%FSLAX25Y25*%
%IPPOS*%
%LPD*%
%AMOC8*
5,1,8,0,0,1.08239X$1,22.5*
%
%ADD10C,0.00000*%
%ADD11R,0.10630X0.10630*%
%ADD12R,0.05906X0.05906*%
%ADD13R,0.03150X0.04724*%
%ADD14OC8,0.05906*%
%ADD15R,0.02283X0.04724*%
%ADD16R,0.07874X0.07874*%
%ADD17R,0.02756X0.03543*%
%ADD18C,0.00600*%
%ADD19R,0.02205X0.02205*%
%ADD20C,0.01000*%
%ADD21C,0.02362*%
%ADD22OC8,0.02205*%
%ADD23C,0.01600*%
D10*
X0056586Y0044415D02*
X0056586Y0087722D01*
X0111704Y0087722D01*
X0111704Y0044415D01*
X0056586Y0044415D01*
X0058593Y0047013D02*
X0058595Y0047061D01*
X0058601Y0047109D01*
X0058611Y0047156D01*
X0058624Y0047202D01*
X0058642Y0047247D01*
X0058662Y0047291D01*
X0058687Y0047333D01*
X0058715Y0047372D01*
X0058745Y0047409D01*
X0058779Y0047443D01*
X0058816Y0047475D01*
X0058854Y0047504D01*
X0058895Y0047529D01*
X0058938Y0047551D01*
X0058983Y0047569D01*
X0059029Y0047583D01*
X0059076Y0047594D01*
X0059124Y0047601D01*
X0059172Y0047604D01*
X0059220Y0047603D01*
X0059268Y0047598D01*
X0059316Y0047589D01*
X0059362Y0047577D01*
X0059407Y0047560D01*
X0059451Y0047540D01*
X0059493Y0047517D01*
X0059533Y0047490D01*
X0059571Y0047460D01*
X0059606Y0047427D01*
X0059638Y0047391D01*
X0059668Y0047353D01*
X0059694Y0047312D01*
X0059716Y0047269D01*
X0059736Y0047225D01*
X0059751Y0047180D01*
X0059763Y0047133D01*
X0059771Y0047085D01*
X0059775Y0047037D01*
X0059775Y0046989D01*
X0059771Y0046941D01*
X0059763Y0046893D01*
X0059751Y0046846D01*
X0059736Y0046801D01*
X0059716Y0046757D01*
X0059694Y0046714D01*
X0059668Y0046673D01*
X0059638Y0046635D01*
X0059606Y0046599D01*
X0059571Y0046566D01*
X0059533Y0046536D01*
X0059493Y0046509D01*
X0059451Y0046486D01*
X0059407Y0046466D01*
X0059362Y0046449D01*
X0059316Y0046437D01*
X0059268Y0046428D01*
X0059220Y0046423D01*
X0059172Y0046422D01*
X0059124Y0046425D01*
X0059076Y0046432D01*
X0059029Y0046443D01*
X0058983Y0046457D01*
X0058938Y0046475D01*
X0058895Y0046497D01*
X0058854Y0046522D01*
X0058816Y0046551D01*
X0058779Y0046583D01*
X0058745Y0046617D01*
X0058715Y0046654D01*
X0058687Y0046693D01*
X0058662Y0046735D01*
X0058642Y0046779D01*
X0058624Y0046824D01*
X0058611Y0046870D01*
X0058601Y0046917D01*
X0058595Y0046965D01*
X0058593Y0047013D01*
X0058593Y0054415D02*
X0058595Y0054463D01*
X0058601Y0054511D01*
X0058611Y0054558D01*
X0058624Y0054604D01*
X0058642Y0054649D01*
X0058662Y0054693D01*
X0058687Y0054735D01*
X0058715Y0054774D01*
X0058745Y0054811D01*
X0058779Y0054845D01*
X0058816Y0054877D01*
X0058854Y0054906D01*
X0058895Y0054931D01*
X0058938Y0054953D01*
X0058983Y0054971D01*
X0059029Y0054985D01*
X0059076Y0054996D01*
X0059124Y0055003D01*
X0059172Y0055006D01*
X0059220Y0055005D01*
X0059268Y0055000D01*
X0059316Y0054991D01*
X0059362Y0054979D01*
X0059407Y0054962D01*
X0059451Y0054942D01*
X0059493Y0054919D01*
X0059533Y0054892D01*
X0059571Y0054862D01*
X0059606Y0054829D01*
X0059638Y0054793D01*
X0059668Y0054755D01*
X0059694Y0054714D01*
X0059716Y0054671D01*
X0059736Y0054627D01*
X0059751Y0054582D01*
X0059763Y0054535D01*
X0059771Y0054487D01*
X0059775Y0054439D01*
X0059775Y0054391D01*
X0059771Y0054343D01*
X0059763Y0054295D01*
X0059751Y0054248D01*
X0059736Y0054203D01*
X0059716Y0054159D01*
X0059694Y0054116D01*
X0059668Y0054075D01*
X0059638Y0054037D01*
X0059606Y0054001D01*
X0059571Y0053968D01*
X0059533Y0053938D01*
X0059493Y0053911D01*
X0059451Y0053888D01*
X0059407Y0053868D01*
X0059362Y0053851D01*
X0059316Y0053839D01*
X0059268Y0053830D01*
X0059220Y0053825D01*
X0059172Y0053824D01*
X0059124Y0053827D01*
X0059076Y0053834D01*
X0059029Y0053845D01*
X0058983Y0053859D01*
X0058938Y0053877D01*
X0058895Y0053899D01*
X0058854Y0053924D01*
X0058816Y0053953D01*
X0058779Y0053985D01*
X0058745Y0054019D01*
X0058715Y0054056D01*
X0058687Y0054095D01*
X0058662Y0054137D01*
X0058642Y0054181D01*
X0058624Y0054226D01*
X0058611Y0054272D01*
X0058601Y0054319D01*
X0058595Y0054367D01*
X0058593Y0054415D01*
X0065995Y0054415D02*
X0065997Y0054463D01*
X0066003Y0054511D01*
X0066013Y0054558D01*
X0066026Y0054604D01*
X0066044Y0054649D01*
X0066064Y0054693D01*
X0066089Y0054735D01*
X0066117Y0054774D01*
X0066147Y0054811D01*
X0066181Y0054845D01*
X0066218Y0054877D01*
X0066256Y0054906D01*
X0066297Y0054931D01*
X0066340Y0054953D01*
X0066385Y0054971D01*
X0066431Y0054985D01*
X0066478Y0054996D01*
X0066526Y0055003D01*
X0066574Y0055006D01*
X0066622Y0055005D01*
X0066670Y0055000D01*
X0066718Y0054991D01*
X0066764Y0054979D01*
X0066809Y0054962D01*
X0066853Y0054942D01*
X0066895Y0054919D01*
X0066935Y0054892D01*
X0066973Y0054862D01*
X0067008Y0054829D01*
X0067040Y0054793D01*
X0067070Y0054755D01*
X0067096Y0054714D01*
X0067118Y0054671D01*
X0067138Y0054627D01*
X0067153Y0054582D01*
X0067165Y0054535D01*
X0067173Y0054487D01*
X0067177Y0054439D01*
X0067177Y0054391D01*
X0067173Y0054343D01*
X0067165Y0054295D01*
X0067153Y0054248D01*
X0067138Y0054203D01*
X0067118Y0054159D01*
X0067096Y0054116D01*
X0067070Y0054075D01*
X0067040Y0054037D01*
X0067008Y0054001D01*
X0066973Y0053968D01*
X0066935Y0053938D01*
X0066895Y0053911D01*
X0066853Y0053888D01*
X0066809Y0053868D01*
X0066764Y0053851D01*
X0066718Y0053839D01*
X0066670Y0053830D01*
X0066622Y0053825D01*
X0066574Y0053824D01*
X0066526Y0053827D01*
X0066478Y0053834D01*
X0066431Y0053845D01*
X0066385Y0053859D01*
X0066340Y0053877D01*
X0066297Y0053899D01*
X0066256Y0053924D01*
X0066218Y0053953D01*
X0066181Y0053985D01*
X0066147Y0054019D01*
X0066117Y0054056D01*
X0066089Y0054095D01*
X0066064Y0054137D01*
X0066044Y0054181D01*
X0066026Y0054226D01*
X0066013Y0054272D01*
X0066003Y0054319D01*
X0065997Y0054367D01*
X0065995Y0054415D01*
X0072373Y0054415D02*
X0072375Y0054463D01*
X0072381Y0054511D01*
X0072391Y0054558D01*
X0072404Y0054604D01*
X0072422Y0054649D01*
X0072442Y0054693D01*
X0072467Y0054735D01*
X0072495Y0054774D01*
X0072525Y0054811D01*
X0072559Y0054845D01*
X0072596Y0054877D01*
X0072634Y0054906D01*
X0072675Y0054931D01*
X0072718Y0054953D01*
X0072763Y0054971D01*
X0072809Y0054985D01*
X0072856Y0054996D01*
X0072904Y0055003D01*
X0072952Y0055006D01*
X0073000Y0055005D01*
X0073048Y0055000D01*
X0073096Y0054991D01*
X0073142Y0054979D01*
X0073187Y0054962D01*
X0073231Y0054942D01*
X0073273Y0054919D01*
X0073313Y0054892D01*
X0073351Y0054862D01*
X0073386Y0054829D01*
X0073418Y0054793D01*
X0073448Y0054755D01*
X0073474Y0054714D01*
X0073496Y0054671D01*
X0073516Y0054627D01*
X0073531Y0054582D01*
X0073543Y0054535D01*
X0073551Y0054487D01*
X0073555Y0054439D01*
X0073555Y0054391D01*
X0073551Y0054343D01*
X0073543Y0054295D01*
X0073531Y0054248D01*
X0073516Y0054203D01*
X0073496Y0054159D01*
X0073474Y0054116D01*
X0073448Y0054075D01*
X0073418Y0054037D01*
X0073386Y0054001D01*
X0073351Y0053968D01*
X0073313Y0053938D01*
X0073273Y0053911D01*
X0073231Y0053888D01*
X0073187Y0053868D01*
X0073142Y0053851D01*
X0073096Y0053839D01*
X0073048Y0053830D01*
X0073000Y0053825D01*
X0072952Y0053824D01*
X0072904Y0053827D01*
X0072856Y0053834D01*
X0072809Y0053845D01*
X0072763Y0053859D01*
X0072718Y0053877D01*
X0072675Y0053899D01*
X0072634Y0053924D01*
X0072596Y0053953D01*
X0072559Y0053985D01*
X0072525Y0054019D01*
X0072495Y0054056D01*
X0072467Y0054095D01*
X0072442Y0054137D01*
X0072422Y0054181D01*
X0072404Y0054226D01*
X0072391Y0054272D01*
X0072381Y0054319D01*
X0072375Y0054367D01*
X0072373Y0054415D01*
X0072373Y0047013D02*
X0072375Y0047061D01*
X0072381Y0047109D01*
X0072391Y0047156D01*
X0072404Y0047202D01*
X0072422Y0047247D01*
X0072442Y0047291D01*
X0072467Y0047333D01*
X0072495Y0047372D01*
X0072525Y0047409D01*
X0072559Y0047443D01*
X0072596Y0047475D01*
X0072634Y0047504D01*
X0072675Y0047529D01*
X0072718Y0047551D01*
X0072763Y0047569D01*
X0072809Y0047583D01*
X0072856Y0047594D01*
X0072904Y0047601D01*
X0072952Y0047604D01*
X0073000Y0047603D01*
X0073048Y0047598D01*
X0073096Y0047589D01*
X0073142Y0047577D01*
X0073187Y0047560D01*
X0073231Y0047540D01*
X0073273Y0047517D01*
X0073313Y0047490D01*
X0073351Y0047460D01*
X0073386Y0047427D01*
X0073418Y0047391D01*
X0073448Y0047353D01*
X0073474Y0047312D01*
X0073496Y0047269D01*
X0073516Y0047225D01*
X0073531Y0047180D01*
X0073543Y0047133D01*
X0073551Y0047085D01*
X0073555Y0047037D01*
X0073555Y0046989D01*
X0073551Y0046941D01*
X0073543Y0046893D01*
X0073531Y0046846D01*
X0073516Y0046801D01*
X0073496Y0046757D01*
X0073474Y0046714D01*
X0073448Y0046673D01*
X0073418Y0046635D01*
X0073386Y0046599D01*
X0073351Y0046566D01*
X0073313Y0046536D01*
X0073273Y0046509D01*
X0073231Y0046486D01*
X0073187Y0046466D01*
X0073142Y0046449D01*
X0073096Y0046437D01*
X0073048Y0046428D01*
X0073000Y0046423D01*
X0072952Y0046422D01*
X0072904Y0046425D01*
X0072856Y0046432D01*
X0072809Y0046443D01*
X0072763Y0046457D01*
X0072718Y0046475D01*
X0072675Y0046497D01*
X0072634Y0046522D01*
X0072596Y0046551D01*
X0072559Y0046583D01*
X0072525Y0046617D01*
X0072495Y0046654D01*
X0072467Y0046693D01*
X0072442Y0046735D01*
X0072422Y0046779D01*
X0072404Y0046824D01*
X0072391Y0046870D01*
X0072381Y0046917D01*
X0072375Y0046965D01*
X0072373Y0047013D01*
X0065995Y0047013D02*
X0065997Y0047061D01*
X0066003Y0047109D01*
X0066013Y0047156D01*
X0066026Y0047202D01*
X0066044Y0047247D01*
X0066064Y0047291D01*
X0066089Y0047333D01*
X0066117Y0047372D01*
X0066147Y0047409D01*
X0066181Y0047443D01*
X0066218Y0047475D01*
X0066256Y0047504D01*
X0066297Y0047529D01*
X0066340Y0047551D01*
X0066385Y0047569D01*
X0066431Y0047583D01*
X0066478Y0047594D01*
X0066526Y0047601D01*
X0066574Y0047604D01*
X0066622Y0047603D01*
X0066670Y0047598D01*
X0066718Y0047589D01*
X0066764Y0047577D01*
X0066809Y0047560D01*
X0066853Y0047540D01*
X0066895Y0047517D01*
X0066935Y0047490D01*
X0066973Y0047460D01*
X0067008Y0047427D01*
X0067040Y0047391D01*
X0067070Y0047353D01*
X0067096Y0047312D01*
X0067118Y0047269D01*
X0067138Y0047225D01*
X0067153Y0047180D01*
X0067165Y0047133D01*
X0067173Y0047085D01*
X0067177Y0047037D01*
X0067177Y0046989D01*
X0067173Y0046941D01*
X0067165Y0046893D01*
X0067153Y0046846D01*
X0067138Y0046801D01*
X0067118Y0046757D01*
X0067096Y0046714D01*
X0067070Y0046673D01*
X0067040Y0046635D01*
X0067008Y0046599D01*
X0066973Y0046566D01*
X0066935Y0046536D01*
X0066895Y0046509D01*
X0066853Y0046486D01*
X0066809Y0046466D01*
X0066764Y0046449D01*
X0066718Y0046437D01*
X0066670Y0046428D01*
X0066622Y0046423D01*
X0066574Y0046422D01*
X0066526Y0046425D01*
X0066478Y0046432D01*
X0066431Y0046443D01*
X0066385Y0046457D01*
X0066340Y0046475D01*
X0066297Y0046497D01*
X0066256Y0046522D01*
X0066218Y0046551D01*
X0066181Y0046583D01*
X0066147Y0046617D01*
X0066117Y0046654D01*
X0066089Y0046693D01*
X0066064Y0046735D01*
X0066044Y0046779D01*
X0066026Y0046824D01*
X0066013Y0046870D01*
X0066003Y0046917D01*
X0065997Y0046965D01*
X0065995Y0047013D01*
X0079774Y0047013D02*
X0079776Y0047061D01*
X0079782Y0047109D01*
X0079792Y0047156D01*
X0079805Y0047202D01*
X0079823Y0047247D01*
X0079843Y0047291D01*
X0079868Y0047333D01*
X0079896Y0047372D01*
X0079926Y0047409D01*
X0079960Y0047443D01*
X0079997Y0047475D01*
X0080035Y0047504D01*
X0080076Y0047529D01*
X0080119Y0047551D01*
X0080164Y0047569D01*
X0080210Y0047583D01*
X0080257Y0047594D01*
X0080305Y0047601D01*
X0080353Y0047604D01*
X0080401Y0047603D01*
X0080449Y0047598D01*
X0080497Y0047589D01*
X0080543Y0047577D01*
X0080588Y0047560D01*
X0080632Y0047540D01*
X0080674Y0047517D01*
X0080714Y0047490D01*
X0080752Y0047460D01*
X0080787Y0047427D01*
X0080819Y0047391D01*
X0080849Y0047353D01*
X0080875Y0047312D01*
X0080897Y0047269D01*
X0080917Y0047225D01*
X0080932Y0047180D01*
X0080944Y0047133D01*
X0080952Y0047085D01*
X0080956Y0047037D01*
X0080956Y0046989D01*
X0080952Y0046941D01*
X0080944Y0046893D01*
X0080932Y0046846D01*
X0080917Y0046801D01*
X0080897Y0046757D01*
X0080875Y0046714D01*
X0080849Y0046673D01*
X0080819Y0046635D01*
X0080787Y0046599D01*
X0080752Y0046566D01*
X0080714Y0046536D01*
X0080674Y0046509D01*
X0080632Y0046486D01*
X0080588Y0046466D01*
X0080543Y0046449D01*
X0080497Y0046437D01*
X0080449Y0046428D01*
X0080401Y0046423D01*
X0080353Y0046422D01*
X0080305Y0046425D01*
X0080257Y0046432D01*
X0080210Y0046443D01*
X0080164Y0046457D01*
X0080119Y0046475D01*
X0080076Y0046497D01*
X0080035Y0046522D01*
X0079997Y0046551D01*
X0079960Y0046583D01*
X0079926Y0046617D01*
X0079896Y0046654D01*
X0079868Y0046693D01*
X0079843Y0046735D01*
X0079823Y0046779D01*
X0079805Y0046824D01*
X0079792Y0046870D01*
X0079782Y0046917D01*
X0079776Y0046965D01*
X0079774Y0047013D01*
X0079774Y0054415D02*
X0079776Y0054463D01*
X0079782Y0054511D01*
X0079792Y0054558D01*
X0079805Y0054604D01*
X0079823Y0054649D01*
X0079843Y0054693D01*
X0079868Y0054735D01*
X0079896Y0054774D01*
X0079926Y0054811D01*
X0079960Y0054845D01*
X0079997Y0054877D01*
X0080035Y0054906D01*
X0080076Y0054931D01*
X0080119Y0054953D01*
X0080164Y0054971D01*
X0080210Y0054985D01*
X0080257Y0054996D01*
X0080305Y0055003D01*
X0080353Y0055006D01*
X0080401Y0055005D01*
X0080449Y0055000D01*
X0080497Y0054991D01*
X0080543Y0054979D01*
X0080588Y0054962D01*
X0080632Y0054942D01*
X0080674Y0054919D01*
X0080714Y0054892D01*
X0080752Y0054862D01*
X0080787Y0054829D01*
X0080819Y0054793D01*
X0080849Y0054755D01*
X0080875Y0054714D01*
X0080897Y0054671D01*
X0080917Y0054627D01*
X0080932Y0054582D01*
X0080944Y0054535D01*
X0080952Y0054487D01*
X0080956Y0054439D01*
X0080956Y0054391D01*
X0080952Y0054343D01*
X0080944Y0054295D01*
X0080932Y0054248D01*
X0080917Y0054203D01*
X0080897Y0054159D01*
X0080875Y0054116D01*
X0080849Y0054075D01*
X0080819Y0054037D01*
X0080787Y0054001D01*
X0080752Y0053968D01*
X0080714Y0053938D01*
X0080674Y0053911D01*
X0080632Y0053888D01*
X0080588Y0053868D01*
X0080543Y0053851D01*
X0080497Y0053839D01*
X0080449Y0053830D01*
X0080401Y0053825D01*
X0080353Y0053824D01*
X0080305Y0053827D01*
X0080257Y0053834D01*
X0080210Y0053845D01*
X0080164Y0053859D01*
X0080119Y0053877D01*
X0080076Y0053899D01*
X0080035Y0053924D01*
X0079997Y0053953D01*
X0079960Y0053985D01*
X0079926Y0054019D01*
X0079896Y0054056D01*
X0079868Y0054095D01*
X0079843Y0054137D01*
X0079823Y0054181D01*
X0079805Y0054226D01*
X0079792Y0054272D01*
X0079782Y0054319D01*
X0079776Y0054367D01*
X0079774Y0054415D01*
X0087333Y0054415D02*
X0087335Y0054463D01*
X0087341Y0054511D01*
X0087351Y0054558D01*
X0087364Y0054604D01*
X0087382Y0054649D01*
X0087402Y0054693D01*
X0087427Y0054735D01*
X0087455Y0054774D01*
X0087485Y0054811D01*
X0087519Y0054845D01*
X0087556Y0054877D01*
X0087594Y0054906D01*
X0087635Y0054931D01*
X0087678Y0054953D01*
X0087723Y0054971D01*
X0087769Y0054985D01*
X0087816Y0054996D01*
X0087864Y0055003D01*
X0087912Y0055006D01*
X0087960Y0055005D01*
X0088008Y0055000D01*
X0088056Y0054991D01*
X0088102Y0054979D01*
X0088147Y0054962D01*
X0088191Y0054942D01*
X0088233Y0054919D01*
X0088273Y0054892D01*
X0088311Y0054862D01*
X0088346Y0054829D01*
X0088378Y0054793D01*
X0088408Y0054755D01*
X0088434Y0054714D01*
X0088456Y0054671D01*
X0088476Y0054627D01*
X0088491Y0054582D01*
X0088503Y0054535D01*
X0088511Y0054487D01*
X0088515Y0054439D01*
X0088515Y0054391D01*
X0088511Y0054343D01*
X0088503Y0054295D01*
X0088491Y0054248D01*
X0088476Y0054203D01*
X0088456Y0054159D01*
X0088434Y0054116D01*
X0088408Y0054075D01*
X0088378Y0054037D01*
X0088346Y0054001D01*
X0088311Y0053968D01*
X0088273Y0053938D01*
X0088233Y0053911D01*
X0088191Y0053888D01*
X0088147Y0053868D01*
X0088102Y0053851D01*
X0088056Y0053839D01*
X0088008Y0053830D01*
X0087960Y0053825D01*
X0087912Y0053824D01*
X0087864Y0053827D01*
X0087816Y0053834D01*
X0087769Y0053845D01*
X0087723Y0053859D01*
X0087678Y0053877D01*
X0087635Y0053899D01*
X0087594Y0053924D01*
X0087556Y0053953D01*
X0087519Y0053985D01*
X0087485Y0054019D01*
X0087455Y0054056D01*
X0087427Y0054095D01*
X0087402Y0054137D01*
X0087382Y0054181D01*
X0087364Y0054226D01*
X0087351Y0054272D01*
X0087341Y0054319D01*
X0087335Y0054367D01*
X0087333Y0054415D01*
X0087333Y0047013D02*
X0087335Y0047061D01*
X0087341Y0047109D01*
X0087351Y0047156D01*
X0087364Y0047202D01*
X0087382Y0047247D01*
X0087402Y0047291D01*
X0087427Y0047333D01*
X0087455Y0047372D01*
X0087485Y0047409D01*
X0087519Y0047443D01*
X0087556Y0047475D01*
X0087594Y0047504D01*
X0087635Y0047529D01*
X0087678Y0047551D01*
X0087723Y0047569D01*
X0087769Y0047583D01*
X0087816Y0047594D01*
X0087864Y0047601D01*
X0087912Y0047604D01*
X0087960Y0047603D01*
X0088008Y0047598D01*
X0088056Y0047589D01*
X0088102Y0047577D01*
X0088147Y0047560D01*
X0088191Y0047540D01*
X0088233Y0047517D01*
X0088273Y0047490D01*
X0088311Y0047460D01*
X0088346Y0047427D01*
X0088378Y0047391D01*
X0088408Y0047353D01*
X0088434Y0047312D01*
X0088456Y0047269D01*
X0088476Y0047225D01*
X0088491Y0047180D01*
X0088503Y0047133D01*
X0088511Y0047085D01*
X0088515Y0047037D01*
X0088515Y0046989D01*
X0088511Y0046941D01*
X0088503Y0046893D01*
X0088491Y0046846D01*
X0088476Y0046801D01*
X0088456Y0046757D01*
X0088434Y0046714D01*
X0088408Y0046673D01*
X0088378Y0046635D01*
X0088346Y0046599D01*
X0088311Y0046566D01*
X0088273Y0046536D01*
X0088233Y0046509D01*
X0088191Y0046486D01*
X0088147Y0046466D01*
X0088102Y0046449D01*
X0088056Y0046437D01*
X0088008Y0046428D01*
X0087960Y0046423D01*
X0087912Y0046422D01*
X0087864Y0046425D01*
X0087816Y0046432D01*
X0087769Y0046443D01*
X0087723Y0046457D01*
X0087678Y0046475D01*
X0087635Y0046497D01*
X0087594Y0046522D01*
X0087556Y0046551D01*
X0087519Y0046583D01*
X0087485Y0046617D01*
X0087455Y0046654D01*
X0087427Y0046693D01*
X0087402Y0046735D01*
X0087382Y0046779D01*
X0087364Y0046824D01*
X0087351Y0046870D01*
X0087341Y0046917D01*
X0087335Y0046965D01*
X0087333Y0047013D01*
X0094735Y0047013D02*
X0094737Y0047061D01*
X0094743Y0047109D01*
X0094753Y0047156D01*
X0094766Y0047202D01*
X0094784Y0047247D01*
X0094804Y0047291D01*
X0094829Y0047333D01*
X0094857Y0047372D01*
X0094887Y0047409D01*
X0094921Y0047443D01*
X0094958Y0047475D01*
X0094996Y0047504D01*
X0095037Y0047529D01*
X0095080Y0047551D01*
X0095125Y0047569D01*
X0095171Y0047583D01*
X0095218Y0047594D01*
X0095266Y0047601D01*
X0095314Y0047604D01*
X0095362Y0047603D01*
X0095410Y0047598D01*
X0095458Y0047589D01*
X0095504Y0047577D01*
X0095549Y0047560D01*
X0095593Y0047540D01*
X0095635Y0047517D01*
X0095675Y0047490D01*
X0095713Y0047460D01*
X0095748Y0047427D01*
X0095780Y0047391D01*
X0095810Y0047353D01*
X0095836Y0047312D01*
X0095858Y0047269D01*
X0095878Y0047225D01*
X0095893Y0047180D01*
X0095905Y0047133D01*
X0095913Y0047085D01*
X0095917Y0047037D01*
X0095917Y0046989D01*
X0095913Y0046941D01*
X0095905Y0046893D01*
X0095893Y0046846D01*
X0095878Y0046801D01*
X0095858Y0046757D01*
X0095836Y0046714D01*
X0095810Y0046673D01*
X0095780Y0046635D01*
X0095748Y0046599D01*
X0095713Y0046566D01*
X0095675Y0046536D01*
X0095635Y0046509D01*
X0095593Y0046486D01*
X0095549Y0046466D01*
X0095504Y0046449D01*
X0095458Y0046437D01*
X0095410Y0046428D01*
X0095362Y0046423D01*
X0095314Y0046422D01*
X0095266Y0046425D01*
X0095218Y0046432D01*
X0095171Y0046443D01*
X0095125Y0046457D01*
X0095080Y0046475D01*
X0095037Y0046497D01*
X0094996Y0046522D01*
X0094958Y0046551D01*
X0094921Y0046583D01*
X0094887Y0046617D01*
X0094857Y0046654D01*
X0094829Y0046693D01*
X0094804Y0046735D01*
X0094784Y0046779D01*
X0094766Y0046824D01*
X0094753Y0046870D01*
X0094743Y0046917D01*
X0094737Y0046965D01*
X0094735Y0047013D01*
X0101113Y0047013D02*
X0101115Y0047061D01*
X0101121Y0047109D01*
X0101131Y0047156D01*
X0101144Y0047202D01*
X0101162Y0047247D01*
X0101182Y0047291D01*
X0101207Y0047333D01*
X0101235Y0047372D01*
X0101265Y0047409D01*
X0101299Y0047443D01*
X0101336Y0047475D01*
X0101374Y0047504D01*
X0101415Y0047529D01*
X0101458Y0047551D01*
X0101503Y0047569D01*
X0101549Y0047583D01*
X0101596Y0047594D01*
X0101644Y0047601D01*
X0101692Y0047604D01*
X0101740Y0047603D01*
X0101788Y0047598D01*
X0101836Y0047589D01*
X0101882Y0047577D01*
X0101927Y0047560D01*
X0101971Y0047540D01*
X0102013Y0047517D01*
X0102053Y0047490D01*
X0102091Y0047460D01*
X0102126Y0047427D01*
X0102158Y0047391D01*
X0102188Y0047353D01*
X0102214Y0047312D01*
X0102236Y0047269D01*
X0102256Y0047225D01*
X0102271Y0047180D01*
X0102283Y0047133D01*
X0102291Y0047085D01*
X0102295Y0047037D01*
X0102295Y0046989D01*
X0102291Y0046941D01*
X0102283Y0046893D01*
X0102271Y0046846D01*
X0102256Y0046801D01*
X0102236Y0046757D01*
X0102214Y0046714D01*
X0102188Y0046673D01*
X0102158Y0046635D01*
X0102126Y0046599D01*
X0102091Y0046566D01*
X0102053Y0046536D01*
X0102013Y0046509D01*
X0101971Y0046486D01*
X0101927Y0046466D01*
X0101882Y0046449D01*
X0101836Y0046437D01*
X0101788Y0046428D01*
X0101740Y0046423D01*
X0101692Y0046422D01*
X0101644Y0046425D01*
X0101596Y0046432D01*
X0101549Y0046443D01*
X0101503Y0046457D01*
X0101458Y0046475D01*
X0101415Y0046497D01*
X0101374Y0046522D01*
X0101336Y0046551D01*
X0101299Y0046583D01*
X0101265Y0046617D01*
X0101235Y0046654D01*
X0101207Y0046693D01*
X0101182Y0046735D01*
X0101162Y0046779D01*
X0101144Y0046824D01*
X0101131Y0046870D01*
X0101121Y0046917D01*
X0101115Y0046965D01*
X0101113Y0047013D01*
X0101113Y0054415D02*
X0101115Y0054463D01*
X0101121Y0054511D01*
X0101131Y0054558D01*
X0101144Y0054604D01*
X0101162Y0054649D01*
X0101182Y0054693D01*
X0101207Y0054735D01*
X0101235Y0054774D01*
X0101265Y0054811D01*
X0101299Y0054845D01*
X0101336Y0054877D01*
X0101374Y0054906D01*
X0101415Y0054931D01*
X0101458Y0054953D01*
X0101503Y0054971D01*
X0101549Y0054985D01*
X0101596Y0054996D01*
X0101644Y0055003D01*
X0101692Y0055006D01*
X0101740Y0055005D01*
X0101788Y0055000D01*
X0101836Y0054991D01*
X0101882Y0054979D01*
X0101927Y0054962D01*
X0101971Y0054942D01*
X0102013Y0054919D01*
X0102053Y0054892D01*
X0102091Y0054862D01*
X0102126Y0054829D01*
X0102158Y0054793D01*
X0102188Y0054755D01*
X0102214Y0054714D01*
X0102236Y0054671D01*
X0102256Y0054627D01*
X0102271Y0054582D01*
X0102283Y0054535D01*
X0102291Y0054487D01*
X0102295Y0054439D01*
X0102295Y0054391D01*
X0102291Y0054343D01*
X0102283Y0054295D01*
X0102271Y0054248D01*
X0102256Y0054203D01*
X0102236Y0054159D01*
X0102214Y0054116D01*
X0102188Y0054075D01*
X0102158Y0054037D01*
X0102126Y0054001D01*
X0102091Y0053968D01*
X0102053Y0053938D01*
X0102013Y0053911D01*
X0101971Y0053888D01*
X0101927Y0053868D01*
X0101882Y0053851D01*
X0101836Y0053839D01*
X0101788Y0053830D01*
X0101740Y0053825D01*
X0101692Y0053824D01*
X0101644Y0053827D01*
X0101596Y0053834D01*
X0101549Y0053845D01*
X0101503Y0053859D01*
X0101458Y0053877D01*
X0101415Y0053899D01*
X0101374Y0053924D01*
X0101336Y0053953D01*
X0101299Y0053985D01*
X0101265Y0054019D01*
X0101235Y0054056D01*
X0101207Y0054095D01*
X0101182Y0054137D01*
X0101162Y0054181D01*
X0101144Y0054226D01*
X0101131Y0054272D01*
X0101121Y0054319D01*
X0101115Y0054367D01*
X0101113Y0054415D01*
X0094735Y0054415D02*
X0094737Y0054463D01*
X0094743Y0054511D01*
X0094753Y0054558D01*
X0094766Y0054604D01*
X0094784Y0054649D01*
X0094804Y0054693D01*
X0094829Y0054735D01*
X0094857Y0054774D01*
X0094887Y0054811D01*
X0094921Y0054845D01*
X0094958Y0054877D01*
X0094996Y0054906D01*
X0095037Y0054931D01*
X0095080Y0054953D01*
X0095125Y0054971D01*
X0095171Y0054985D01*
X0095218Y0054996D01*
X0095266Y0055003D01*
X0095314Y0055006D01*
X0095362Y0055005D01*
X0095410Y0055000D01*
X0095458Y0054991D01*
X0095504Y0054979D01*
X0095549Y0054962D01*
X0095593Y0054942D01*
X0095635Y0054919D01*
X0095675Y0054892D01*
X0095713Y0054862D01*
X0095748Y0054829D01*
X0095780Y0054793D01*
X0095810Y0054755D01*
X0095836Y0054714D01*
X0095858Y0054671D01*
X0095878Y0054627D01*
X0095893Y0054582D01*
X0095905Y0054535D01*
X0095913Y0054487D01*
X0095917Y0054439D01*
X0095917Y0054391D01*
X0095913Y0054343D01*
X0095905Y0054295D01*
X0095893Y0054248D01*
X0095878Y0054203D01*
X0095858Y0054159D01*
X0095836Y0054116D01*
X0095810Y0054075D01*
X0095780Y0054037D01*
X0095748Y0054001D01*
X0095713Y0053968D01*
X0095675Y0053938D01*
X0095635Y0053911D01*
X0095593Y0053888D01*
X0095549Y0053868D01*
X0095504Y0053851D01*
X0095458Y0053839D01*
X0095410Y0053830D01*
X0095362Y0053825D01*
X0095314Y0053824D01*
X0095266Y0053827D01*
X0095218Y0053834D01*
X0095171Y0053845D01*
X0095125Y0053859D01*
X0095080Y0053877D01*
X0095037Y0053899D01*
X0094996Y0053924D01*
X0094958Y0053953D01*
X0094921Y0053985D01*
X0094887Y0054019D01*
X0094857Y0054056D01*
X0094829Y0054095D01*
X0094804Y0054137D01*
X0094784Y0054181D01*
X0094766Y0054226D01*
X0094753Y0054272D01*
X0094743Y0054319D01*
X0094737Y0054367D01*
X0094735Y0054415D01*
X0108515Y0054415D02*
X0108517Y0054463D01*
X0108523Y0054511D01*
X0108533Y0054558D01*
X0108546Y0054604D01*
X0108564Y0054649D01*
X0108584Y0054693D01*
X0108609Y0054735D01*
X0108637Y0054774D01*
X0108667Y0054811D01*
X0108701Y0054845D01*
X0108738Y0054877D01*
X0108776Y0054906D01*
X0108817Y0054931D01*
X0108860Y0054953D01*
X0108905Y0054971D01*
X0108951Y0054985D01*
X0108998Y0054996D01*
X0109046Y0055003D01*
X0109094Y0055006D01*
X0109142Y0055005D01*
X0109190Y0055000D01*
X0109238Y0054991D01*
X0109284Y0054979D01*
X0109329Y0054962D01*
X0109373Y0054942D01*
X0109415Y0054919D01*
X0109455Y0054892D01*
X0109493Y0054862D01*
X0109528Y0054829D01*
X0109560Y0054793D01*
X0109590Y0054755D01*
X0109616Y0054714D01*
X0109638Y0054671D01*
X0109658Y0054627D01*
X0109673Y0054582D01*
X0109685Y0054535D01*
X0109693Y0054487D01*
X0109697Y0054439D01*
X0109697Y0054391D01*
X0109693Y0054343D01*
X0109685Y0054295D01*
X0109673Y0054248D01*
X0109658Y0054203D01*
X0109638Y0054159D01*
X0109616Y0054116D01*
X0109590Y0054075D01*
X0109560Y0054037D01*
X0109528Y0054001D01*
X0109493Y0053968D01*
X0109455Y0053938D01*
X0109415Y0053911D01*
X0109373Y0053888D01*
X0109329Y0053868D01*
X0109284Y0053851D01*
X0109238Y0053839D01*
X0109190Y0053830D01*
X0109142Y0053825D01*
X0109094Y0053824D01*
X0109046Y0053827D01*
X0108998Y0053834D01*
X0108951Y0053845D01*
X0108905Y0053859D01*
X0108860Y0053877D01*
X0108817Y0053899D01*
X0108776Y0053924D01*
X0108738Y0053953D01*
X0108701Y0053985D01*
X0108667Y0054019D01*
X0108637Y0054056D01*
X0108609Y0054095D01*
X0108584Y0054137D01*
X0108564Y0054181D01*
X0108546Y0054226D01*
X0108533Y0054272D01*
X0108523Y0054319D01*
X0108517Y0054367D01*
X0108515Y0054415D01*
X0108515Y0047013D02*
X0108517Y0047061D01*
X0108523Y0047109D01*
X0108533Y0047156D01*
X0108546Y0047202D01*
X0108564Y0047247D01*
X0108584Y0047291D01*
X0108609Y0047333D01*
X0108637Y0047372D01*
X0108667Y0047409D01*
X0108701Y0047443D01*
X0108738Y0047475D01*
X0108776Y0047504D01*
X0108817Y0047529D01*
X0108860Y0047551D01*
X0108905Y0047569D01*
X0108951Y0047583D01*
X0108998Y0047594D01*
X0109046Y0047601D01*
X0109094Y0047604D01*
X0109142Y0047603D01*
X0109190Y0047598D01*
X0109238Y0047589D01*
X0109284Y0047577D01*
X0109329Y0047560D01*
X0109373Y0047540D01*
X0109415Y0047517D01*
X0109455Y0047490D01*
X0109493Y0047460D01*
X0109528Y0047427D01*
X0109560Y0047391D01*
X0109590Y0047353D01*
X0109616Y0047312D01*
X0109638Y0047269D01*
X0109658Y0047225D01*
X0109673Y0047180D01*
X0109685Y0047133D01*
X0109693Y0047085D01*
X0109697Y0047037D01*
X0109697Y0046989D01*
X0109693Y0046941D01*
X0109685Y0046893D01*
X0109673Y0046846D01*
X0109658Y0046801D01*
X0109638Y0046757D01*
X0109616Y0046714D01*
X0109590Y0046673D01*
X0109560Y0046635D01*
X0109528Y0046599D01*
X0109493Y0046566D01*
X0109455Y0046536D01*
X0109415Y0046509D01*
X0109373Y0046486D01*
X0109329Y0046466D01*
X0109284Y0046449D01*
X0109238Y0046437D01*
X0109190Y0046428D01*
X0109142Y0046423D01*
X0109094Y0046422D01*
X0109046Y0046425D01*
X0108998Y0046432D01*
X0108951Y0046443D01*
X0108905Y0046457D01*
X0108860Y0046475D01*
X0108817Y0046497D01*
X0108776Y0046522D01*
X0108738Y0046551D01*
X0108701Y0046583D01*
X0108667Y0046617D01*
X0108637Y0046654D01*
X0108609Y0046693D01*
X0108584Y0046735D01*
X0108564Y0046779D01*
X0108546Y0046824D01*
X0108533Y0046870D01*
X0108523Y0046917D01*
X0108517Y0046965D01*
X0108515Y0047013D01*
D11*
X0105405Y0050714D03*
X0091625Y0050714D03*
X0076665Y0050714D03*
X0062885Y0050714D03*
D12*
X0060365Y0060950D03*
X0107885Y0065517D03*
D13*
X0109027Y0077092D03*
X0101940Y0077092D03*
X0066428Y0075517D03*
X0059342Y0075517D03*
D14*
X0060523Y0083785D03*
X0068397Y0083785D03*
X0076271Y0083785D03*
X0084145Y0083785D03*
X0092019Y0083785D03*
X0099893Y0083785D03*
X0107767Y0083785D03*
D15*
X0090050Y0062919D03*
X0084145Y0062919D03*
X0078239Y0062919D03*
D16*
X0084145Y0075124D03*
D17*
X0093003Y0078273D03*
X0098121Y0078273D03*
D18*
X0094578Y0074730D01*
X0093987Y0074730D01*
X0092413Y0073155D01*
X0092413Y0071580D01*
X0093200Y0070793D01*
X0093200Y0061344D01*
X0092000Y0065746D02*
X0091565Y0066181D01*
X0088536Y0066181D01*
X0088009Y0065654D01*
X0088009Y0060288D01*
X0086353Y0060288D01*
X0086387Y0060412D01*
X0086387Y0062648D01*
X0084416Y0062648D01*
X0084416Y0063190D01*
X0086387Y0063190D01*
X0086387Y0065426D01*
X0086312Y0065706D01*
X0086167Y0065957D01*
X0085962Y0066161D01*
X0085711Y0066306D01*
X0085431Y0066381D01*
X0084416Y0066381D01*
X0084416Y0063190D01*
X0083874Y0063190D01*
X0083874Y0066381D01*
X0082858Y0066381D01*
X0082695Y0066337D01*
X0082695Y0067560D01*
X0081699Y0068556D01*
X0076975Y0068556D01*
X0075176Y0070355D01*
X0074180Y0071351D01*
X0063977Y0071351D01*
X0063675Y0071654D01*
X0062016Y0071654D01*
X0060843Y0070481D01*
X0060843Y0068822D01*
X0062016Y0067649D01*
X0063675Y0067649D01*
X0063977Y0067951D01*
X0072771Y0067951D01*
X0075567Y0065156D01*
X0076198Y0065156D01*
X0076198Y0064513D01*
X0063981Y0064513D01*
X0063691Y0064803D01*
X0060254Y0064803D01*
X0060254Y0072255D01*
X0061289Y0072255D01*
X0061817Y0072782D01*
X0061817Y0078252D01*
X0061289Y0078780D01*
X0057673Y0078780D01*
X0057673Y0081186D01*
X0058927Y0079932D01*
X0062119Y0079932D01*
X0064284Y0082098D01*
X0064636Y0082098D01*
X0066801Y0079932D01*
X0069993Y0079932D01*
X0072158Y0082098D01*
X0072510Y0082098D01*
X0074675Y0079932D01*
X0077867Y0079932D01*
X0080032Y0082098D01*
X0080384Y0082098D01*
X0082321Y0080161D01*
X0080063Y0080161D01*
X0079783Y0080086D01*
X0079532Y0079941D01*
X0079328Y0079736D01*
X0079183Y0079485D01*
X0079108Y0079206D01*
X0079108Y0075424D01*
X0083845Y0075424D01*
X0083845Y0074824D01*
X0079108Y0074824D01*
X0079108Y0071042D01*
X0079183Y0070762D01*
X0079328Y0070511D01*
X0079532Y0070306D01*
X0079783Y0070162D01*
X0080063Y0070087D01*
X0083845Y0070087D01*
X0083845Y0074824D01*
X0084445Y0074824D01*
X0084445Y0075424D01*
X0089182Y0075424D01*
X0089182Y0079206D01*
X0089107Y0079485D01*
X0088962Y0079736D01*
X0088757Y0079941D01*
X0088506Y0080086D01*
X0088227Y0080161D01*
X0085969Y0080161D01*
X0087906Y0082098D01*
X0088258Y0082098D01*
X0090423Y0079932D01*
X0090725Y0079932D01*
X0090725Y0076129D01*
X0091252Y0075602D01*
X0093162Y0075602D01*
X0092787Y0075227D01*
X0091213Y0073652D01*
X0091213Y0072658D01*
X0091213Y0071083D01*
X0091916Y0070380D01*
X0092000Y0070296D01*
X0092000Y0065746D01*
X0092000Y0065961D02*
X0091785Y0065961D01*
X0092000Y0066560D02*
X0082695Y0066560D01*
X0082695Y0067158D02*
X0092000Y0067158D01*
X0092000Y0067757D02*
X0082498Y0067757D01*
X0081900Y0068355D02*
X0092000Y0068355D01*
X0092000Y0068954D02*
X0076577Y0068954D01*
X0075978Y0069552D02*
X0092000Y0069552D01*
X0092000Y0070151D02*
X0088467Y0070151D01*
X0088506Y0070162D02*
X0088757Y0070306D01*
X0088962Y0070511D01*
X0089107Y0070762D01*
X0089182Y0071042D01*
X0089182Y0074824D01*
X0084445Y0074824D01*
X0084445Y0070087D01*
X0088227Y0070087D01*
X0088506Y0070162D01*
X0089100Y0070750D02*
X0091546Y0070750D01*
X0091213Y0071348D02*
X0089182Y0071348D01*
X0089182Y0071947D02*
X0091213Y0071947D01*
X0091213Y0072545D02*
X0089182Y0072545D01*
X0089182Y0073144D02*
X0091213Y0073144D01*
X0091302Y0073742D02*
X0089182Y0073742D01*
X0089182Y0074341D02*
X0091901Y0074341D01*
X0092499Y0074939D02*
X0084445Y0074939D01*
X0084445Y0074341D02*
X0083845Y0074341D01*
X0083845Y0074939D02*
X0069103Y0074939D01*
X0069103Y0075217D02*
X0066728Y0075217D01*
X0066728Y0072055D01*
X0068148Y0072055D01*
X0068428Y0072130D01*
X0068679Y0072275D01*
X0068883Y0072480D01*
X0069028Y0072731D01*
X0069103Y0073010D01*
X0069103Y0075217D01*
X0069103Y0075817D02*
X0069103Y0078024D01*
X0069028Y0078304D01*
X0068883Y0078555D01*
X0068679Y0078760D01*
X0068428Y0078905D01*
X0068148Y0078980D01*
X0066728Y0078980D01*
X0066728Y0075817D01*
X0069103Y0075817D01*
X0069103Y0076136D02*
X0079108Y0076136D01*
X0079108Y0075538D02*
X0066728Y0075538D01*
X0066728Y0075817D02*
X0066728Y0075217D01*
X0066128Y0075217D01*
X0066128Y0072055D01*
X0064709Y0072055D01*
X0064429Y0072130D01*
X0064178Y0072275D01*
X0063973Y0072480D01*
X0063829Y0072731D01*
X0063754Y0073010D01*
X0063754Y0075217D01*
X0066128Y0075217D01*
X0066128Y0075817D01*
X0063754Y0075817D01*
X0063754Y0078024D01*
X0063829Y0078304D01*
X0063973Y0078555D01*
X0064178Y0078760D01*
X0064429Y0078905D01*
X0064709Y0078980D01*
X0066128Y0078980D01*
X0066128Y0075817D01*
X0066728Y0075817D01*
X0066728Y0076136D02*
X0066128Y0076136D01*
X0066128Y0075538D02*
X0061817Y0075538D01*
X0061817Y0076136D02*
X0063754Y0076136D01*
X0063754Y0076735D02*
X0061817Y0076735D01*
X0061817Y0077333D02*
X0063754Y0077333D01*
X0063754Y0077932D02*
X0061817Y0077932D01*
X0061539Y0078530D02*
X0063959Y0078530D01*
X0066128Y0078530D02*
X0066728Y0078530D01*
X0066728Y0077932D02*
X0066128Y0077932D01*
X0066128Y0077333D02*
X0066728Y0077333D01*
X0066728Y0076735D02*
X0066128Y0076735D01*
X0066128Y0074939D02*
X0066728Y0074939D01*
X0066728Y0074341D02*
X0066128Y0074341D01*
X0066128Y0073742D02*
X0066728Y0073742D01*
X0066728Y0073144D02*
X0066128Y0073144D01*
X0066128Y0072545D02*
X0066728Y0072545D01*
X0068921Y0072545D02*
X0079108Y0072545D01*
X0079108Y0071947D02*
X0060254Y0071947D01*
X0060254Y0071348D02*
X0061711Y0071348D01*
X0061112Y0070750D02*
X0060254Y0070750D01*
X0060254Y0070151D02*
X0060843Y0070151D01*
X0060843Y0069552D02*
X0060254Y0069552D01*
X0060254Y0068954D02*
X0060843Y0068954D01*
X0061310Y0068355D02*
X0060254Y0068355D01*
X0060254Y0067757D02*
X0061908Y0067757D01*
X0060254Y0067158D02*
X0073564Y0067158D01*
X0074163Y0066560D02*
X0060254Y0066560D01*
X0060254Y0065961D02*
X0074761Y0065961D01*
X0075360Y0065363D02*
X0060254Y0065363D01*
X0062491Y0063313D02*
X0079027Y0063313D01*
X0079027Y0057407D01*
X0062491Y0057407D01*
X0062491Y0063313D01*
X0062491Y0062969D02*
X0079027Y0062969D01*
X0079027Y0062370D02*
X0062491Y0062370D01*
X0062491Y0061772D02*
X0079027Y0061772D01*
X0079027Y0061173D02*
X0062491Y0061173D01*
X0062491Y0060575D02*
X0079027Y0060575D01*
X0079027Y0059976D02*
X0062491Y0059976D01*
X0062491Y0059378D02*
X0079027Y0059378D01*
X0079027Y0058779D02*
X0062491Y0058779D01*
X0062491Y0058181D02*
X0079027Y0058181D01*
X0079027Y0057582D02*
X0062491Y0057582D01*
X0063730Y0064764D02*
X0076198Y0064764D01*
X0072966Y0067757D02*
X0063783Y0067757D01*
X0063936Y0072545D02*
X0061579Y0072545D01*
X0061817Y0073144D02*
X0063754Y0073144D01*
X0063754Y0073742D02*
X0061817Y0073742D01*
X0061817Y0074341D02*
X0063754Y0074341D01*
X0063754Y0074939D02*
X0061817Y0074939D01*
X0057673Y0079129D02*
X0079108Y0079129D01*
X0079108Y0078530D02*
X0068898Y0078530D01*
X0069103Y0077932D02*
X0079108Y0077932D01*
X0079108Y0077333D02*
X0069103Y0077333D01*
X0069103Y0076735D02*
X0079108Y0076735D01*
X0079108Y0074341D02*
X0069103Y0074341D01*
X0069103Y0073742D02*
X0079108Y0073742D01*
X0079108Y0073144D02*
X0069103Y0073144D01*
X0074183Y0071348D02*
X0079108Y0071348D01*
X0079190Y0070750D02*
X0074781Y0070750D01*
X0075380Y0070151D02*
X0079823Y0070151D01*
X0083845Y0070151D02*
X0084445Y0070151D01*
X0084445Y0070750D02*
X0083845Y0070750D01*
X0083845Y0071348D02*
X0084445Y0071348D01*
X0084445Y0071947D02*
X0083845Y0071947D01*
X0083845Y0072545D02*
X0084445Y0072545D01*
X0084445Y0073144D02*
X0083845Y0073144D01*
X0083845Y0073742D02*
X0084445Y0073742D01*
X0089182Y0075538D02*
X0093098Y0075538D01*
X0090725Y0076136D02*
X0089182Y0076136D01*
X0089182Y0076735D02*
X0090725Y0076735D01*
X0090725Y0077333D02*
X0089182Y0077333D01*
X0089182Y0077932D02*
X0090725Y0077932D01*
X0090725Y0078530D02*
X0089182Y0078530D01*
X0089182Y0079129D02*
X0090725Y0079129D01*
X0090725Y0079727D02*
X0088967Y0079727D01*
X0090030Y0080326D02*
X0086134Y0080326D01*
X0086733Y0080924D02*
X0089431Y0080924D01*
X0088833Y0081523D02*
X0087331Y0081523D01*
X0082156Y0080326D02*
X0078260Y0080326D01*
X0078859Y0080924D02*
X0081557Y0080924D01*
X0080959Y0081523D02*
X0079457Y0081523D01*
X0079323Y0079727D02*
X0057673Y0079727D01*
X0057673Y0080326D02*
X0058534Y0080326D01*
X0057935Y0080924D02*
X0057673Y0080924D01*
X0062512Y0080326D02*
X0066408Y0080326D01*
X0065809Y0080924D02*
X0063111Y0080924D01*
X0063709Y0081523D02*
X0065211Y0081523D01*
X0070386Y0080326D02*
X0074282Y0080326D01*
X0073683Y0080924D02*
X0070985Y0080924D01*
X0071583Y0081523D02*
X0073085Y0081523D01*
X0083874Y0065961D02*
X0084416Y0065961D01*
X0084416Y0065363D02*
X0083874Y0065363D01*
X0083874Y0064764D02*
X0084416Y0064764D01*
X0084416Y0064166D02*
X0083874Y0064166D01*
X0083874Y0063567D02*
X0084416Y0063567D01*
X0084416Y0062969D02*
X0088009Y0062969D01*
X0088009Y0063567D02*
X0086387Y0063567D01*
X0086387Y0064166D02*
X0088009Y0064166D01*
X0088009Y0064764D02*
X0086387Y0064764D01*
X0086387Y0065363D02*
X0088009Y0065363D01*
X0088316Y0065961D02*
X0086162Y0065961D01*
X0086387Y0062370D02*
X0088009Y0062370D01*
X0088009Y0061772D02*
X0086387Y0061772D01*
X0086387Y0061173D02*
X0088009Y0061173D01*
X0088009Y0060575D02*
X0086387Y0060575D01*
X0098765Y0059414D02*
X0100018Y0060668D01*
X0100018Y0072451D01*
X0101397Y0073830D01*
X0103888Y0073830D01*
X0104415Y0074357D01*
X0104415Y0079827D01*
X0103888Y0080354D01*
X0102774Y0080354D01*
X0102774Y0081218D01*
X0103654Y0082098D01*
X0103723Y0082098D01*
X0106088Y0079732D01*
X0106388Y0079732D01*
X0106352Y0079599D01*
X0106352Y0077392D01*
X0108727Y0077392D01*
X0108727Y0076792D01*
X0109327Y0076792D01*
X0109327Y0073630D01*
X0110617Y0073630D01*
X0110617Y0069570D01*
X0108185Y0069570D01*
X0108185Y0065817D01*
X0107585Y0065817D01*
X0107585Y0065217D01*
X0108185Y0065217D01*
X0108185Y0061465D01*
X0110617Y0061465D01*
X0110617Y0056929D01*
X0101250Y0056929D01*
X0098765Y0059414D01*
X0098801Y0059378D02*
X0110617Y0059378D01*
X0110617Y0059976D02*
X0099326Y0059976D01*
X0099925Y0060575D02*
X0110617Y0060575D01*
X0110617Y0061173D02*
X0100018Y0061173D01*
X0100018Y0061772D02*
X0104169Y0061772D01*
X0104257Y0061684D02*
X0104508Y0061540D01*
X0104787Y0061465D01*
X0107585Y0061465D01*
X0107585Y0065217D01*
X0103832Y0065217D01*
X0103832Y0062420D01*
X0103907Y0062140D01*
X0104052Y0061889D01*
X0104257Y0061684D01*
X0103846Y0062370D02*
X0100018Y0062370D01*
X0100018Y0062969D02*
X0103832Y0062969D01*
X0103832Y0063567D02*
X0100018Y0063567D01*
X0100018Y0064166D02*
X0103832Y0064166D01*
X0103832Y0064764D02*
X0100018Y0064764D01*
X0100018Y0065363D02*
X0107585Y0065363D01*
X0107585Y0065817D02*
X0103832Y0065817D01*
X0103832Y0068615D01*
X0103907Y0068895D01*
X0104052Y0069146D01*
X0104257Y0069350D01*
X0104508Y0069495D01*
X0104787Y0069570D01*
X0107585Y0069570D01*
X0107585Y0065817D01*
X0107585Y0065961D02*
X0108185Y0065961D01*
X0108185Y0066560D02*
X0107585Y0066560D01*
X0107585Y0067158D02*
X0108185Y0067158D01*
X0108185Y0067757D02*
X0107585Y0067757D01*
X0107585Y0068355D02*
X0108185Y0068355D01*
X0108185Y0068954D02*
X0107585Y0068954D01*
X0107585Y0069552D02*
X0108185Y0069552D01*
X0110617Y0070151D02*
X0100018Y0070151D01*
X0100018Y0069552D02*
X0104722Y0069552D01*
X0103941Y0068954D02*
X0100018Y0068954D01*
X0100018Y0068355D02*
X0103832Y0068355D01*
X0103832Y0067757D02*
X0100018Y0067757D01*
X0100018Y0067158D02*
X0103832Y0067158D01*
X0103832Y0066560D02*
X0100018Y0066560D01*
X0100018Y0065961D02*
X0103832Y0065961D01*
X0107585Y0064764D02*
X0108185Y0064764D01*
X0108185Y0064166D02*
X0107585Y0064166D01*
X0107585Y0063567D02*
X0108185Y0063567D01*
X0108185Y0062969D02*
X0107585Y0062969D01*
X0107585Y0062370D02*
X0108185Y0062370D01*
X0108185Y0061772D02*
X0107585Y0061772D01*
X0110617Y0058779D02*
X0099400Y0058779D01*
X0099998Y0058181D02*
X0110617Y0058181D01*
X0110617Y0057582D02*
X0100597Y0057582D01*
X0101195Y0056984D02*
X0110617Y0056984D01*
X0110617Y0070750D02*
X0100018Y0070750D01*
X0100018Y0071348D02*
X0110617Y0071348D01*
X0110617Y0071947D02*
X0100018Y0071947D01*
X0100112Y0072545D02*
X0110617Y0072545D01*
X0110617Y0073144D02*
X0100711Y0073144D01*
X0101309Y0073742D02*
X0106963Y0073742D01*
X0107027Y0073705D02*
X0107307Y0073630D01*
X0108727Y0073630D01*
X0108727Y0076792D01*
X0106352Y0076792D01*
X0106352Y0074585D01*
X0106427Y0074305D01*
X0106572Y0074055D01*
X0106777Y0073850D01*
X0107027Y0073705D01*
X0106417Y0074341D02*
X0104398Y0074341D01*
X0104415Y0074939D02*
X0106352Y0074939D01*
X0106352Y0075538D02*
X0104415Y0075538D01*
X0104415Y0076136D02*
X0106352Y0076136D01*
X0106352Y0076735D02*
X0104415Y0076735D01*
X0104415Y0077333D02*
X0108727Y0077333D01*
X0108948Y0077880D02*
X0108948Y0082098D01*
X0110523Y0082098D01*
X0110523Y0077880D01*
X0108948Y0077880D01*
X0108948Y0077932D02*
X0110523Y0077932D01*
X0110523Y0078530D02*
X0108948Y0078530D01*
X0108948Y0079129D02*
X0110523Y0079129D01*
X0110523Y0079727D02*
X0108948Y0079727D01*
X0108948Y0080326D02*
X0110523Y0080326D01*
X0110523Y0080924D02*
X0108948Y0080924D01*
X0108948Y0081523D02*
X0110523Y0081523D01*
X0106386Y0079727D02*
X0104415Y0079727D01*
X0104415Y0079129D02*
X0106352Y0079129D01*
X0106352Y0078530D02*
X0104415Y0078530D01*
X0104415Y0077932D02*
X0106352Y0077932D01*
X0105495Y0080326D02*
X0103916Y0080326D01*
X0104896Y0080924D02*
X0102774Y0080924D01*
X0103079Y0081523D02*
X0104298Y0081523D01*
X0108727Y0076735D02*
X0109327Y0076735D01*
X0109327Y0076136D02*
X0108727Y0076136D01*
X0108727Y0075538D02*
X0109327Y0075538D01*
X0109327Y0074939D02*
X0108727Y0074939D01*
X0108727Y0074341D02*
X0109327Y0074341D01*
X0109327Y0073742D02*
X0108727Y0073742D01*
D19*
X0091153Y0067958D03*
X0077885Y0075911D03*
X0077885Y0078273D03*
X0071586Y0078667D03*
X0071586Y0076305D03*
X0071586Y0073943D03*
X0070405Y0065675D03*
X0074854Y0061659D03*
X0074854Y0059415D03*
X0065995Y0065675D03*
X0062846Y0066777D03*
X0062885Y0072801D03*
X0062885Y0075045D03*
D20*
X0079027Y0071974D02*
X0090050Y0071974D01*
X0087294Y0075124D02*
X0084145Y0075124D01*
X0087294Y0075124D02*
X0087294Y0080635D01*
X0080995Y0080635D02*
X0080995Y0078273D01*
D21*
X0103436Y0065517D02*
X0107885Y0065517D01*
X0107767Y0070399D02*
X0107767Y0060163D01*
D22*
X0094854Y0072722D03*
X0093200Y0061344D03*
X0062846Y0069651D03*
D23*
X0073476Y0069651D01*
X0076271Y0066856D01*
X0080995Y0066856D01*
X0080995Y0058588D01*
X0090050Y0058588D01*
X0095534Y0058588D01*
X0098318Y0061372D01*
X0098318Y0073155D01*
X0097885Y0072722D01*
X0094854Y0072722D01*
X0098318Y0073155D02*
X0101074Y0075911D01*
X0101074Y0077880D01*
X0101940Y0077880D01*
X0101940Y0077092D01*
X0101074Y0077880D02*
X0101074Y0082604D01*
X0099893Y0083785D01*
X0093003Y0083785D02*
X0093003Y0078273D01*
X0093003Y0083785D02*
X0092019Y0083785D01*
X0090050Y0062919D02*
X0090050Y0058588D01*
X0060365Y0060950D02*
X0058554Y0060950D01*
X0058554Y0073549D01*
X0059342Y0075517D01*
M02*
