G75*
%MOIN*%
%OFA0B0*%
%FSLAX25Y25*%
%IPPOS*%
%LPD*%
%AMOC8*
5,1,8,0,0,1.08239X$1,22.5*
%
%ADD10C,0.00000*%
D10*
X0056586Y0044415D02*
X0056586Y0087722D01*
X0111704Y0087722D01*
X0111704Y0044415D01*
X0056586Y0044415D01*
X0058593Y0047013D02*
X0058595Y0047061D01*
X0058601Y0047109D01*
X0058611Y0047156D01*
X0058624Y0047202D01*
X0058642Y0047247D01*
X0058662Y0047291D01*
X0058687Y0047333D01*
X0058715Y0047372D01*
X0058745Y0047409D01*
X0058779Y0047443D01*
X0058816Y0047475D01*
X0058854Y0047504D01*
X0058895Y0047529D01*
X0058938Y0047551D01*
X0058983Y0047569D01*
X0059029Y0047583D01*
X0059076Y0047594D01*
X0059124Y0047601D01*
X0059172Y0047604D01*
X0059220Y0047603D01*
X0059268Y0047598D01*
X0059316Y0047589D01*
X0059362Y0047577D01*
X0059407Y0047560D01*
X0059451Y0047540D01*
X0059493Y0047517D01*
X0059533Y0047490D01*
X0059571Y0047460D01*
X0059606Y0047427D01*
X0059638Y0047391D01*
X0059668Y0047353D01*
X0059694Y0047312D01*
X0059716Y0047269D01*
X0059736Y0047225D01*
X0059751Y0047180D01*
X0059763Y0047133D01*
X0059771Y0047085D01*
X0059775Y0047037D01*
X0059775Y0046989D01*
X0059771Y0046941D01*
X0059763Y0046893D01*
X0059751Y0046846D01*
X0059736Y0046801D01*
X0059716Y0046757D01*
X0059694Y0046714D01*
X0059668Y0046673D01*
X0059638Y0046635D01*
X0059606Y0046599D01*
X0059571Y0046566D01*
X0059533Y0046536D01*
X0059493Y0046509D01*
X0059451Y0046486D01*
X0059407Y0046466D01*
X0059362Y0046449D01*
X0059316Y0046437D01*
X0059268Y0046428D01*
X0059220Y0046423D01*
X0059172Y0046422D01*
X0059124Y0046425D01*
X0059076Y0046432D01*
X0059029Y0046443D01*
X0058983Y0046457D01*
X0058938Y0046475D01*
X0058895Y0046497D01*
X0058854Y0046522D01*
X0058816Y0046551D01*
X0058779Y0046583D01*
X0058745Y0046617D01*
X0058715Y0046654D01*
X0058687Y0046693D01*
X0058662Y0046735D01*
X0058642Y0046779D01*
X0058624Y0046824D01*
X0058611Y0046870D01*
X0058601Y0046917D01*
X0058595Y0046965D01*
X0058593Y0047013D01*
X0058593Y0054415D02*
X0058595Y0054463D01*
X0058601Y0054511D01*
X0058611Y0054558D01*
X0058624Y0054604D01*
X0058642Y0054649D01*
X0058662Y0054693D01*
X0058687Y0054735D01*
X0058715Y0054774D01*
X0058745Y0054811D01*
X0058779Y0054845D01*
X0058816Y0054877D01*
X0058854Y0054906D01*
X0058895Y0054931D01*
X0058938Y0054953D01*
X0058983Y0054971D01*
X0059029Y0054985D01*
X0059076Y0054996D01*
X0059124Y0055003D01*
X0059172Y0055006D01*
X0059220Y0055005D01*
X0059268Y0055000D01*
X0059316Y0054991D01*
X0059362Y0054979D01*
X0059407Y0054962D01*
X0059451Y0054942D01*
X0059493Y0054919D01*
X0059533Y0054892D01*
X0059571Y0054862D01*
X0059606Y0054829D01*
X0059638Y0054793D01*
X0059668Y0054755D01*
X0059694Y0054714D01*
X0059716Y0054671D01*
X0059736Y0054627D01*
X0059751Y0054582D01*
X0059763Y0054535D01*
X0059771Y0054487D01*
X0059775Y0054439D01*
X0059775Y0054391D01*
X0059771Y0054343D01*
X0059763Y0054295D01*
X0059751Y0054248D01*
X0059736Y0054203D01*
X0059716Y0054159D01*
X0059694Y0054116D01*
X0059668Y0054075D01*
X0059638Y0054037D01*
X0059606Y0054001D01*
X0059571Y0053968D01*
X0059533Y0053938D01*
X0059493Y0053911D01*
X0059451Y0053888D01*
X0059407Y0053868D01*
X0059362Y0053851D01*
X0059316Y0053839D01*
X0059268Y0053830D01*
X0059220Y0053825D01*
X0059172Y0053824D01*
X0059124Y0053827D01*
X0059076Y0053834D01*
X0059029Y0053845D01*
X0058983Y0053859D01*
X0058938Y0053877D01*
X0058895Y0053899D01*
X0058854Y0053924D01*
X0058816Y0053953D01*
X0058779Y0053985D01*
X0058745Y0054019D01*
X0058715Y0054056D01*
X0058687Y0054095D01*
X0058662Y0054137D01*
X0058642Y0054181D01*
X0058624Y0054226D01*
X0058611Y0054272D01*
X0058601Y0054319D01*
X0058595Y0054367D01*
X0058593Y0054415D01*
X0065995Y0054415D02*
X0065997Y0054463D01*
X0066003Y0054511D01*
X0066013Y0054558D01*
X0066026Y0054604D01*
X0066044Y0054649D01*
X0066064Y0054693D01*
X0066089Y0054735D01*
X0066117Y0054774D01*
X0066147Y0054811D01*
X0066181Y0054845D01*
X0066218Y0054877D01*
X0066256Y0054906D01*
X0066297Y0054931D01*
X0066340Y0054953D01*
X0066385Y0054971D01*
X0066431Y0054985D01*
X0066478Y0054996D01*
X0066526Y0055003D01*
X0066574Y0055006D01*
X0066622Y0055005D01*
X0066670Y0055000D01*
X0066718Y0054991D01*
X0066764Y0054979D01*
X0066809Y0054962D01*
X0066853Y0054942D01*
X0066895Y0054919D01*
X0066935Y0054892D01*
X0066973Y0054862D01*
X0067008Y0054829D01*
X0067040Y0054793D01*
X0067070Y0054755D01*
X0067096Y0054714D01*
X0067118Y0054671D01*
X0067138Y0054627D01*
X0067153Y0054582D01*
X0067165Y0054535D01*
X0067173Y0054487D01*
X0067177Y0054439D01*
X0067177Y0054391D01*
X0067173Y0054343D01*
X0067165Y0054295D01*
X0067153Y0054248D01*
X0067138Y0054203D01*
X0067118Y0054159D01*
X0067096Y0054116D01*
X0067070Y0054075D01*
X0067040Y0054037D01*
X0067008Y0054001D01*
X0066973Y0053968D01*
X0066935Y0053938D01*
X0066895Y0053911D01*
X0066853Y0053888D01*
X0066809Y0053868D01*
X0066764Y0053851D01*
X0066718Y0053839D01*
X0066670Y0053830D01*
X0066622Y0053825D01*
X0066574Y0053824D01*
X0066526Y0053827D01*
X0066478Y0053834D01*
X0066431Y0053845D01*
X0066385Y0053859D01*
X0066340Y0053877D01*
X0066297Y0053899D01*
X0066256Y0053924D01*
X0066218Y0053953D01*
X0066181Y0053985D01*
X0066147Y0054019D01*
X0066117Y0054056D01*
X0066089Y0054095D01*
X0066064Y0054137D01*
X0066044Y0054181D01*
X0066026Y0054226D01*
X0066013Y0054272D01*
X0066003Y0054319D01*
X0065997Y0054367D01*
X0065995Y0054415D01*
X0072373Y0054415D02*
X0072375Y0054463D01*
X0072381Y0054511D01*
X0072391Y0054558D01*
X0072404Y0054604D01*
X0072422Y0054649D01*
X0072442Y0054693D01*
X0072467Y0054735D01*
X0072495Y0054774D01*
X0072525Y0054811D01*
X0072559Y0054845D01*
X0072596Y0054877D01*
X0072634Y0054906D01*
X0072675Y0054931D01*
X0072718Y0054953D01*
X0072763Y0054971D01*
X0072809Y0054985D01*
X0072856Y0054996D01*
X0072904Y0055003D01*
X0072952Y0055006D01*
X0073000Y0055005D01*
X0073048Y0055000D01*
X0073096Y0054991D01*
X0073142Y0054979D01*
X0073187Y0054962D01*
X0073231Y0054942D01*
X0073273Y0054919D01*
X0073313Y0054892D01*
X0073351Y0054862D01*
X0073386Y0054829D01*
X0073418Y0054793D01*
X0073448Y0054755D01*
X0073474Y0054714D01*
X0073496Y0054671D01*
X0073516Y0054627D01*
X0073531Y0054582D01*
X0073543Y0054535D01*
X0073551Y0054487D01*
X0073555Y0054439D01*
X0073555Y0054391D01*
X0073551Y0054343D01*
X0073543Y0054295D01*
X0073531Y0054248D01*
X0073516Y0054203D01*
X0073496Y0054159D01*
X0073474Y0054116D01*
X0073448Y0054075D01*
X0073418Y0054037D01*
X0073386Y0054001D01*
X0073351Y0053968D01*
X0073313Y0053938D01*
X0073273Y0053911D01*
X0073231Y0053888D01*
X0073187Y0053868D01*
X0073142Y0053851D01*
X0073096Y0053839D01*
X0073048Y0053830D01*
X0073000Y0053825D01*
X0072952Y0053824D01*
X0072904Y0053827D01*
X0072856Y0053834D01*
X0072809Y0053845D01*
X0072763Y0053859D01*
X0072718Y0053877D01*
X0072675Y0053899D01*
X0072634Y0053924D01*
X0072596Y0053953D01*
X0072559Y0053985D01*
X0072525Y0054019D01*
X0072495Y0054056D01*
X0072467Y0054095D01*
X0072442Y0054137D01*
X0072422Y0054181D01*
X0072404Y0054226D01*
X0072391Y0054272D01*
X0072381Y0054319D01*
X0072375Y0054367D01*
X0072373Y0054415D01*
X0072373Y0047013D02*
X0072375Y0047061D01*
X0072381Y0047109D01*
X0072391Y0047156D01*
X0072404Y0047202D01*
X0072422Y0047247D01*
X0072442Y0047291D01*
X0072467Y0047333D01*
X0072495Y0047372D01*
X0072525Y0047409D01*
X0072559Y0047443D01*
X0072596Y0047475D01*
X0072634Y0047504D01*
X0072675Y0047529D01*
X0072718Y0047551D01*
X0072763Y0047569D01*
X0072809Y0047583D01*
X0072856Y0047594D01*
X0072904Y0047601D01*
X0072952Y0047604D01*
X0073000Y0047603D01*
X0073048Y0047598D01*
X0073096Y0047589D01*
X0073142Y0047577D01*
X0073187Y0047560D01*
X0073231Y0047540D01*
X0073273Y0047517D01*
X0073313Y0047490D01*
X0073351Y0047460D01*
X0073386Y0047427D01*
X0073418Y0047391D01*
X0073448Y0047353D01*
X0073474Y0047312D01*
X0073496Y0047269D01*
X0073516Y0047225D01*
X0073531Y0047180D01*
X0073543Y0047133D01*
X0073551Y0047085D01*
X0073555Y0047037D01*
X0073555Y0046989D01*
X0073551Y0046941D01*
X0073543Y0046893D01*
X0073531Y0046846D01*
X0073516Y0046801D01*
X0073496Y0046757D01*
X0073474Y0046714D01*
X0073448Y0046673D01*
X0073418Y0046635D01*
X0073386Y0046599D01*
X0073351Y0046566D01*
X0073313Y0046536D01*
X0073273Y0046509D01*
X0073231Y0046486D01*
X0073187Y0046466D01*
X0073142Y0046449D01*
X0073096Y0046437D01*
X0073048Y0046428D01*
X0073000Y0046423D01*
X0072952Y0046422D01*
X0072904Y0046425D01*
X0072856Y0046432D01*
X0072809Y0046443D01*
X0072763Y0046457D01*
X0072718Y0046475D01*
X0072675Y0046497D01*
X0072634Y0046522D01*
X0072596Y0046551D01*
X0072559Y0046583D01*
X0072525Y0046617D01*
X0072495Y0046654D01*
X0072467Y0046693D01*
X0072442Y0046735D01*
X0072422Y0046779D01*
X0072404Y0046824D01*
X0072391Y0046870D01*
X0072381Y0046917D01*
X0072375Y0046965D01*
X0072373Y0047013D01*
X0065995Y0047013D02*
X0065997Y0047061D01*
X0066003Y0047109D01*
X0066013Y0047156D01*
X0066026Y0047202D01*
X0066044Y0047247D01*
X0066064Y0047291D01*
X0066089Y0047333D01*
X0066117Y0047372D01*
X0066147Y0047409D01*
X0066181Y0047443D01*
X0066218Y0047475D01*
X0066256Y0047504D01*
X0066297Y0047529D01*
X0066340Y0047551D01*
X0066385Y0047569D01*
X0066431Y0047583D01*
X0066478Y0047594D01*
X0066526Y0047601D01*
X0066574Y0047604D01*
X0066622Y0047603D01*
X0066670Y0047598D01*
X0066718Y0047589D01*
X0066764Y0047577D01*
X0066809Y0047560D01*
X0066853Y0047540D01*
X0066895Y0047517D01*
X0066935Y0047490D01*
X0066973Y0047460D01*
X0067008Y0047427D01*
X0067040Y0047391D01*
X0067070Y0047353D01*
X0067096Y0047312D01*
X0067118Y0047269D01*
X0067138Y0047225D01*
X0067153Y0047180D01*
X0067165Y0047133D01*
X0067173Y0047085D01*
X0067177Y0047037D01*
X0067177Y0046989D01*
X0067173Y0046941D01*
X0067165Y0046893D01*
X0067153Y0046846D01*
X0067138Y0046801D01*
X0067118Y0046757D01*
X0067096Y0046714D01*
X0067070Y0046673D01*
X0067040Y0046635D01*
X0067008Y0046599D01*
X0066973Y0046566D01*
X0066935Y0046536D01*
X0066895Y0046509D01*
X0066853Y0046486D01*
X0066809Y0046466D01*
X0066764Y0046449D01*
X0066718Y0046437D01*
X0066670Y0046428D01*
X0066622Y0046423D01*
X0066574Y0046422D01*
X0066526Y0046425D01*
X0066478Y0046432D01*
X0066431Y0046443D01*
X0066385Y0046457D01*
X0066340Y0046475D01*
X0066297Y0046497D01*
X0066256Y0046522D01*
X0066218Y0046551D01*
X0066181Y0046583D01*
X0066147Y0046617D01*
X0066117Y0046654D01*
X0066089Y0046693D01*
X0066064Y0046735D01*
X0066044Y0046779D01*
X0066026Y0046824D01*
X0066013Y0046870D01*
X0066003Y0046917D01*
X0065997Y0046965D01*
X0065995Y0047013D01*
X0079774Y0047013D02*
X0079776Y0047061D01*
X0079782Y0047109D01*
X0079792Y0047156D01*
X0079805Y0047202D01*
X0079823Y0047247D01*
X0079843Y0047291D01*
X0079868Y0047333D01*
X0079896Y0047372D01*
X0079926Y0047409D01*
X0079960Y0047443D01*
X0079997Y0047475D01*
X0080035Y0047504D01*
X0080076Y0047529D01*
X0080119Y0047551D01*
X0080164Y0047569D01*
X0080210Y0047583D01*
X0080257Y0047594D01*
X0080305Y0047601D01*
X0080353Y0047604D01*
X0080401Y0047603D01*
X0080449Y0047598D01*
X0080497Y0047589D01*
X0080543Y0047577D01*
X0080588Y0047560D01*
X0080632Y0047540D01*
X0080674Y0047517D01*
X0080714Y0047490D01*
X0080752Y0047460D01*
X0080787Y0047427D01*
X0080819Y0047391D01*
X0080849Y0047353D01*
X0080875Y0047312D01*
X0080897Y0047269D01*
X0080917Y0047225D01*
X0080932Y0047180D01*
X0080944Y0047133D01*
X0080952Y0047085D01*
X0080956Y0047037D01*
X0080956Y0046989D01*
X0080952Y0046941D01*
X0080944Y0046893D01*
X0080932Y0046846D01*
X0080917Y0046801D01*
X0080897Y0046757D01*
X0080875Y0046714D01*
X0080849Y0046673D01*
X0080819Y0046635D01*
X0080787Y0046599D01*
X0080752Y0046566D01*
X0080714Y0046536D01*
X0080674Y0046509D01*
X0080632Y0046486D01*
X0080588Y0046466D01*
X0080543Y0046449D01*
X0080497Y0046437D01*
X0080449Y0046428D01*
X0080401Y0046423D01*
X0080353Y0046422D01*
X0080305Y0046425D01*
X0080257Y0046432D01*
X0080210Y0046443D01*
X0080164Y0046457D01*
X0080119Y0046475D01*
X0080076Y0046497D01*
X0080035Y0046522D01*
X0079997Y0046551D01*
X0079960Y0046583D01*
X0079926Y0046617D01*
X0079896Y0046654D01*
X0079868Y0046693D01*
X0079843Y0046735D01*
X0079823Y0046779D01*
X0079805Y0046824D01*
X0079792Y0046870D01*
X0079782Y0046917D01*
X0079776Y0046965D01*
X0079774Y0047013D01*
X0079774Y0054415D02*
X0079776Y0054463D01*
X0079782Y0054511D01*
X0079792Y0054558D01*
X0079805Y0054604D01*
X0079823Y0054649D01*
X0079843Y0054693D01*
X0079868Y0054735D01*
X0079896Y0054774D01*
X0079926Y0054811D01*
X0079960Y0054845D01*
X0079997Y0054877D01*
X0080035Y0054906D01*
X0080076Y0054931D01*
X0080119Y0054953D01*
X0080164Y0054971D01*
X0080210Y0054985D01*
X0080257Y0054996D01*
X0080305Y0055003D01*
X0080353Y0055006D01*
X0080401Y0055005D01*
X0080449Y0055000D01*
X0080497Y0054991D01*
X0080543Y0054979D01*
X0080588Y0054962D01*
X0080632Y0054942D01*
X0080674Y0054919D01*
X0080714Y0054892D01*
X0080752Y0054862D01*
X0080787Y0054829D01*
X0080819Y0054793D01*
X0080849Y0054755D01*
X0080875Y0054714D01*
X0080897Y0054671D01*
X0080917Y0054627D01*
X0080932Y0054582D01*
X0080944Y0054535D01*
X0080952Y0054487D01*
X0080956Y0054439D01*
X0080956Y0054391D01*
X0080952Y0054343D01*
X0080944Y0054295D01*
X0080932Y0054248D01*
X0080917Y0054203D01*
X0080897Y0054159D01*
X0080875Y0054116D01*
X0080849Y0054075D01*
X0080819Y0054037D01*
X0080787Y0054001D01*
X0080752Y0053968D01*
X0080714Y0053938D01*
X0080674Y0053911D01*
X0080632Y0053888D01*
X0080588Y0053868D01*
X0080543Y0053851D01*
X0080497Y0053839D01*
X0080449Y0053830D01*
X0080401Y0053825D01*
X0080353Y0053824D01*
X0080305Y0053827D01*
X0080257Y0053834D01*
X0080210Y0053845D01*
X0080164Y0053859D01*
X0080119Y0053877D01*
X0080076Y0053899D01*
X0080035Y0053924D01*
X0079997Y0053953D01*
X0079960Y0053985D01*
X0079926Y0054019D01*
X0079896Y0054056D01*
X0079868Y0054095D01*
X0079843Y0054137D01*
X0079823Y0054181D01*
X0079805Y0054226D01*
X0079792Y0054272D01*
X0079782Y0054319D01*
X0079776Y0054367D01*
X0079774Y0054415D01*
X0087333Y0054415D02*
X0087335Y0054463D01*
X0087341Y0054511D01*
X0087351Y0054558D01*
X0087364Y0054604D01*
X0087382Y0054649D01*
X0087402Y0054693D01*
X0087427Y0054735D01*
X0087455Y0054774D01*
X0087485Y0054811D01*
X0087519Y0054845D01*
X0087556Y0054877D01*
X0087594Y0054906D01*
X0087635Y0054931D01*
X0087678Y0054953D01*
X0087723Y0054971D01*
X0087769Y0054985D01*
X0087816Y0054996D01*
X0087864Y0055003D01*
X0087912Y0055006D01*
X0087960Y0055005D01*
X0088008Y0055000D01*
X0088056Y0054991D01*
X0088102Y0054979D01*
X0088147Y0054962D01*
X0088191Y0054942D01*
X0088233Y0054919D01*
X0088273Y0054892D01*
X0088311Y0054862D01*
X0088346Y0054829D01*
X0088378Y0054793D01*
X0088408Y0054755D01*
X0088434Y0054714D01*
X0088456Y0054671D01*
X0088476Y0054627D01*
X0088491Y0054582D01*
X0088503Y0054535D01*
X0088511Y0054487D01*
X0088515Y0054439D01*
X0088515Y0054391D01*
X0088511Y0054343D01*
X0088503Y0054295D01*
X0088491Y0054248D01*
X0088476Y0054203D01*
X0088456Y0054159D01*
X0088434Y0054116D01*
X0088408Y0054075D01*
X0088378Y0054037D01*
X0088346Y0054001D01*
X0088311Y0053968D01*
X0088273Y0053938D01*
X0088233Y0053911D01*
X0088191Y0053888D01*
X0088147Y0053868D01*
X0088102Y0053851D01*
X0088056Y0053839D01*
X0088008Y0053830D01*
X0087960Y0053825D01*
X0087912Y0053824D01*
X0087864Y0053827D01*
X0087816Y0053834D01*
X0087769Y0053845D01*
X0087723Y0053859D01*
X0087678Y0053877D01*
X0087635Y0053899D01*
X0087594Y0053924D01*
X0087556Y0053953D01*
X0087519Y0053985D01*
X0087485Y0054019D01*
X0087455Y0054056D01*
X0087427Y0054095D01*
X0087402Y0054137D01*
X0087382Y0054181D01*
X0087364Y0054226D01*
X0087351Y0054272D01*
X0087341Y0054319D01*
X0087335Y0054367D01*
X0087333Y0054415D01*
X0087333Y0047013D02*
X0087335Y0047061D01*
X0087341Y0047109D01*
X0087351Y0047156D01*
X0087364Y0047202D01*
X0087382Y0047247D01*
X0087402Y0047291D01*
X0087427Y0047333D01*
X0087455Y0047372D01*
X0087485Y0047409D01*
X0087519Y0047443D01*
X0087556Y0047475D01*
X0087594Y0047504D01*
X0087635Y0047529D01*
X0087678Y0047551D01*
X0087723Y0047569D01*
X0087769Y0047583D01*
X0087816Y0047594D01*
X0087864Y0047601D01*
X0087912Y0047604D01*
X0087960Y0047603D01*
X0088008Y0047598D01*
X0088056Y0047589D01*
X0088102Y0047577D01*
X0088147Y0047560D01*
X0088191Y0047540D01*
X0088233Y0047517D01*
X0088273Y0047490D01*
X0088311Y0047460D01*
X0088346Y0047427D01*
X0088378Y0047391D01*
X0088408Y0047353D01*
X0088434Y0047312D01*
X0088456Y0047269D01*
X0088476Y0047225D01*
X0088491Y0047180D01*
X0088503Y0047133D01*
X0088511Y0047085D01*
X0088515Y0047037D01*
X0088515Y0046989D01*
X0088511Y0046941D01*
X0088503Y0046893D01*
X0088491Y0046846D01*
X0088476Y0046801D01*
X0088456Y0046757D01*
X0088434Y0046714D01*
X0088408Y0046673D01*
X0088378Y0046635D01*
X0088346Y0046599D01*
X0088311Y0046566D01*
X0088273Y0046536D01*
X0088233Y0046509D01*
X0088191Y0046486D01*
X0088147Y0046466D01*
X0088102Y0046449D01*
X0088056Y0046437D01*
X0088008Y0046428D01*
X0087960Y0046423D01*
X0087912Y0046422D01*
X0087864Y0046425D01*
X0087816Y0046432D01*
X0087769Y0046443D01*
X0087723Y0046457D01*
X0087678Y0046475D01*
X0087635Y0046497D01*
X0087594Y0046522D01*
X0087556Y0046551D01*
X0087519Y0046583D01*
X0087485Y0046617D01*
X0087455Y0046654D01*
X0087427Y0046693D01*
X0087402Y0046735D01*
X0087382Y0046779D01*
X0087364Y0046824D01*
X0087351Y0046870D01*
X0087341Y0046917D01*
X0087335Y0046965D01*
X0087333Y0047013D01*
X0094735Y0047013D02*
X0094737Y0047061D01*
X0094743Y0047109D01*
X0094753Y0047156D01*
X0094766Y0047202D01*
X0094784Y0047247D01*
X0094804Y0047291D01*
X0094829Y0047333D01*
X0094857Y0047372D01*
X0094887Y0047409D01*
X0094921Y0047443D01*
X0094958Y0047475D01*
X0094996Y0047504D01*
X0095037Y0047529D01*
X0095080Y0047551D01*
X0095125Y0047569D01*
X0095171Y0047583D01*
X0095218Y0047594D01*
X0095266Y0047601D01*
X0095314Y0047604D01*
X0095362Y0047603D01*
X0095410Y0047598D01*
X0095458Y0047589D01*
X0095504Y0047577D01*
X0095549Y0047560D01*
X0095593Y0047540D01*
X0095635Y0047517D01*
X0095675Y0047490D01*
X0095713Y0047460D01*
X0095748Y0047427D01*
X0095780Y0047391D01*
X0095810Y0047353D01*
X0095836Y0047312D01*
X0095858Y0047269D01*
X0095878Y0047225D01*
X0095893Y0047180D01*
X0095905Y0047133D01*
X0095913Y0047085D01*
X0095917Y0047037D01*
X0095917Y0046989D01*
X0095913Y0046941D01*
X0095905Y0046893D01*
X0095893Y0046846D01*
X0095878Y0046801D01*
X0095858Y0046757D01*
X0095836Y0046714D01*
X0095810Y0046673D01*
X0095780Y0046635D01*
X0095748Y0046599D01*
X0095713Y0046566D01*
X0095675Y0046536D01*
X0095635Y0046509D01*
X0095593Y0046486D01*
X0095549Y0046466D01*
X0095504Y0046449D01*
X0095458Y0046437D01*
X0095410Y0046428D01*
X0095362Y0046423D01*
X0095314Y0046422D01*
X0095266Y0046425D01*
X0095218Y0046432D01*
X0095171Y0046443D01*
X0095125Y0046457D01*
X0095080Y0046475D01*
X0095037Y0046497D01*
X0094996Y0046522D01*
X0094958Y0046551D01*
X0094921Y0046583D01*
X0094887Y0046617D01*
X0094857Y0046654D01*
X0094829Y0046693D01*
X0094804Y0046735D01*
X0094784Y0046779D01*
X0094766Y0046824D01*
X0094753Y0046870D01*
X0094743Y0046917D01*
X0094737Y0046965D01*
X0094735Y0047013D01*
X0101113Y0047013D02*
X0101115Y0047061D01*
X0101121Y0047109D01*
X0101131Y0047156D01*
X0101144Y0047202D01*
X0101162Y0047247D01*
X0101182Y0047291D01*
X0101207Y0047333D01*
X0101235Y0047372D01*
X0101265Y0047409D01*
X0101299Y0047443D01*
X0101336Y0047475D01*
X0101374Y0047504D01*
X0101415Y0047529D01*
X0101458Y0047551D01*
X0101503Y0047569D01*
X0101549Y0047583D01*
X0101596Y0047594D01*
X0101644Y0047601D01*
X0101692Y0047604D01*
X0101740Y0047603D01*
X0101788Y0047598D01*
X0101836Y0047589D01*
X0101882Y0047577D01*
X0101927Y0047560D01*
X0101971Y0047540D01*
X0102013Y0047517D01*
X0102053Y0047490D01*
X0102091Y0047460D01*
X0102126Y0047427D01*
X0102158Y0047391D01*
X0102188Y0047353D01*
X0102214Y0047312D01*
X0102236Y0047269D01*
X0102256Y0047225D01*
X0102271Y0047180D01*
X0102283Y0047133D01*
X0102291Y0047085D01*
X0102295Y0047037D01*
X0102295Y0046989D01*
X0102291Y0046941D01*
X0102283Y0046893D01*
X0102271Y0046846D01*
X0102256Y0046801D01*
X0102236Y0046757D01*
X0102214Y0046714D01*
X0102188Y0046673D01*
X0102158Y0046635D01*
X0102126Y0046599D01*
X0102091Y0046566D01*
X0102053Y0046536D01*
X0102013Y0046509D01*
X0101971Y0046486D01*
X0101927Y0046466D01*
X0101882Y0046449D01*
X0101836Y0046437D01*
X0101788Y0046428D01*
X0101740Y0046423D01*
X0101692Y0046422D01*
X0101644Y0046425D01*
X0101596Y0046432D01*
X0101549Y0046443D01*
X0101503Y0046457D01*
X0101458Y0046475D01*
X0101415Y0046497D01*
X0101374Y0046522D01*
X0101336Y0046551D01*
X0101299Y0046583D01*
X0101265Y0046617D01*
X0101235Y0046654D01*
X0101207Y0046693D01*
X0101182Y0046735D01*
X0101162Y0046779D01*
X0101144Y0046824D01*
X0101131Y0046870D01*
X0101121Y0046917D01*
X0101115Y0046965D01*
X0101113Y0047013D01*
X0101113Y0054415D02*
X0101115Y0054463D01*
X0101121Y0054511D01*
X0101131Y0054558D01*
X0101144Y0054604D01*
X0101162Y0054649D01*
X0101182Y0054693D01*
X0101207Y0054735D01*
X0101235Y0054774D01*
X0101265Y0054811D01*
X0101299Y0054845D01*
X0101336Y0054877D01*
X0101374Y0054906D01*
X0101415Y0054931D01*
X0101458Y0054953D01*
X0101503Y0054971D01*
X0101549Y0054985D01*
X0101596Y0054996D01*
X0101644Y0055003D01*
X0101692Y0055006D01*
X0101740Y0055005D01*
X0101788Y0055000D01*
X0101836Y0054991D01*
X0101882Y0054979D01*
X0101927Y0054962D01*
X0101971Y0054942D01*
X0102013Y0054919D01*
X0102053Y0054892D01*
X0102091Y0054862D01*
X0102126Y0054829D01*
X0102158Y0054793D01*
X0102188Y0054755D01*
X0102214Y0054714D01*
X0102236Y0054671D01*
X0102256Y0054627D01*
X0102271Y0054582D01*
X0102283Y0054535D01*
X0102291Y0054487D01*
X0102295Y0054439D01*
X0102295Y0054391D01*
X0102291Y0054343D01*
X0102283Y0054295D01*
X0102271Y0054248D01*
X0102256Y0054203D01*
X0102236Y0054159D01*
X0102214Y0054116D01*
X0102188Y0054075D01*
X0102158Y0054037D01*
X0102126Y0054001D01*
X0102091Y0053968D01*
X0102053Y0053938D01*
X0102013Y0053911D01*
X0101971Y0053888D01*
X0101927Y0053868D01*
X0101882Y0053851D01*
X0101836Y0053839D01*
X0101788Y0053830D01*
X0101740Y0053825D01*
X0101692Y0053824D01*
X0101644Y0053827D01*
X0101596Y0053834D01*
X0101549Y0053845D01*
X0101503Y0053859D01*
X0101458Y0053877D01*
X0101415Y0053899D01*
X0101374Y0053924D01*
X0101336Y0053953D01*
X0101299Y0053985D01*
X0101265Y0054019D01*
X0101235Y0054056D01*
X0101207Y0054095D01*
X0101182Y0054137D01*
X0101162Y0054181D01*
X0101144Y0054226D01*
X0101131Y0054272D01*
X0101121Y0054319D01*
X0101115Y0054367D01*
X0101113Y0054415D01*
X0094735Y0054415D02*
X0094737Y0054463D01*
X0094743Y0054511D01*
X0094753Y0054558D01*
X0094766Y0054604D01*
X0094784Y0054649D01*
X0094804Y0054693D01*
X0094829Y0054735D01*
X0094857Y0054774D01*
X0094887Y0054811D01*
X0094921Y0054845D01*
X0094958Y0054877D01*
X0094996Y0054906D01*
X0095037Y0054931D01*
X0095080Y0054953D01*
X0095125Y0054971D01*
X0095171Y0054985D01*
X0095218Y0054996D01*
X0095266Y0055003D01*
X0095314Y0055006D01*
X0095362Y0055005D01*
X0095410Y0055000D01*
X0095458Y0054991D01*
X0095504Y0054979D01*
X0095549Y0054962D01*
X0095593Y0054942D01*
X0095635Y0054919D01*
X0095675Y0054892D01*
X0095713Y0054862D01*
X0095748Y0054829D01*
X0095780Y0054793D01*
X0095810Y0054755D01*
X0095836Y0054714D01*
X0095858Y0054671D01*
X0095878Y0054627D01*
X0095893Y0054582D01*
X0095905Y0054535D01*
X0095913Y0054487D01*
X0095917Y0054439D01*
X0095917Y0054391D01*
X0095913Y0054343D01*
X0095905Y0054295D01*
X0095893Y0054248D01*
X0095878Y0054203D01*
X0095858Y0054159D01*
X0095836Y0054116D01*
X0095810Y0054075D01*
X0095780Y0054037D01*
X0095748Y0054001D01*
X0095713Y0053968D01*
X0095675Y0053938D01*
X0095635Y0053911D01*
X0095593Y0053888D01*
X0095549Y0053868D01*
X0095504Y0053851D01*
X0095458Y0053839D01*
X0095410Y0053830D01*
X0095362Y0053825D01*
X0095314Y0053824D01*
X0095266Y0053827D01*
X0095218Y0053834D01*
X0095171Y0053845D01*
X0095125Y0053859D01*
X0095080Y0053877D01*
X0095037Y0053899D01*
X0094996Y0053924D01*
X0094958Y0053953D01*
X0094921Y0053985D01*
X0094887Y0054019D01*
X0094857Y0054056D01*
X0094829Y0054095D01*
X0094804Y0054137D01*
X0094784Y0054181D01*
X0094766Y0054226D01*
X0094753Y0054272D01*
X0094743Y0054319D01*
X0094737Y0054367D01*
X0094735Y0054415D01*
X0108515Y0054415D02*
X0108517Y0054463D01*
X0108523Y0054511D01*
X0108533Y0054558D01*
X0108546Y0054604D01*
X0108564Y0054649D01*
X0108584Y0054693D01*
X0108609Y0054735D01*
X0108637Y0054774D01*
X0108667Y0054811D01*
X0108701Y0054845D01*
X0108738Y0054877D01*
X0108776Y0054906D01*
X0108817Y0054931D01*
X0108860Y0054953D01*
X0108905Y0054971D01*
X0108951Y0054985D01*
X0108998Y0054996D01*
X0109046Y0055003D01*
X0109094Y0055006D01*
X0109142Y0055005D01*
X0109190Y0055000D01*
X0109238Y0054991D01*
X0109284Y0054979D01*
X0109329Y0054962D01*
X0109373Y0054942D01*
X0109415Y0054919D01*
X0109455Y0054892D01*
X0109493Y0054862D01*
X0109528Y0054829D01*
X0109560Y0054793D01*
X0109590Y0054755D01*
X0109616Y0054714D01*
X0109638Y0054671D01*
X0109658Y0054627D01*
X0109673Y0054582D01*
X0109685Y0054535D01*
X0109693Y0054487D01*
X0109697Y0054439D01*
X0109697Y0054391D01*
X0109693Y0054343D01*
X0109685Y0054295D01*
X0109673Y0054248D01*
X0109658Y0054203D01*
X0109638Y0054159D01*
X0109616Y0054116D01*
X0109590Y0054075D01*
X0109560Y0054037D01*
X0109528Y0054001D01*
X0109493Y0053968D01*
X0109455Y0053938D01*
X0109415Y0053911D01*
X0109373Y0053888D01*
X0109329Y0053868D01*
X0109284Y0053851D01*
X0109238Y0053839D01*
X0109190Y0053830D01*
X0109142Y0053825D01*
X0109094Y0053824D01*
X0109046Y0053827D01*
X0108998Y0053834D01*
X0108951Y0053845D01*
X0108905Y0053859D01*
X0108860Y0053877D01*
X0108817Y0053899D01*
X0108776Y0053924D01*
X0108738Y0053953D01*
X0108701Y0053985D01*
X0108667Y0054019D01*
X0108637Y0054056D01*
X0108609Y0054095D01*
X0108584Y0054137D01*
X0108564Y0054181D01*
X0108546Y0054226D01*
X0108533Y0054272D01*
X0108523Y0054319D01*
X0108517Y0054367D01*
X0108515Y0054415D01*
X0108515Y0047013D02*
X0108517Y0047061D01*
X0108523Y0047109D01*
X0108533Y0047156D01*
X0108546Y0047202D01*
X0108564Y0047247D01*
X0108584Y0047291D01*
X0108609Y0047333D01*
X0108637Y0047372D01*
X0108667Y0047409D01*
X0108701Y0047443D01*
X0108738Y0047475D01*
X0108776Y0047504D01*
X0108817Y0047529D01*
X0108860Y0047551D01*
X0108905Y0047569D01*
X0108951Y0047583D01*
X0108998Y0047594D01*
X0109046Y0047601D01*
X0109094Y0047604D01*
X0109142Y0047603D01*
X0109190Y0047598D01*
X0109238Y0047589D01*
X0109284Y0047577D01*
X0109329Y0047560D01*
X0109373Y0047540D01*
X0109415Y0047517D01*
X0109455Y0047490D01*
X0109493Y0047460D01*
X0109528Y0047427D01*
X0109560Y0047391D01*
X0109590Y0047353D01*
X0109616Y0047312D01*
X0109638Y0047269D01*
X0109658Y0047225D01*
X0109673Y0047180D01*
X0109685Y0047133D01*
X0109693Y0047085D01*
X0109697Y0047037D01*
X0109697Y0046989D01*
X0109693Y0046941D01*
X0109685Y0046893D01*
X0109673Y0046846D01*
X0109658Y0046801D01*
X0109638Y0046757D01*
X0109616Y0046714D01*
X0109590Y0046673D01*
X0109560Y0046635D01*
X0109528Y0046599D01*
X0109493Y0046566D01*
X0109455Y0046536D01*
X0109415Y0046509D01*
X0109373Y0046486D01*
X0109329Y0046466D01*
X0109284Y0046449D01*
X0109238Y0046437D01*
X0109190Y0046428D01*
X0109142Y0046423D01*
X0109094Y0046422D01*
X0109046Y0046425D01*
X0108998Y0046432D01*
X0108951Y0046443D01*
X0108905Y0046457D01*
X0108860Y0046475D01*
X0108817Y0046497D01*
X0108776Y0046522D01*
X0108738Y0046551D01*
X0108701Y0046583D01*
X0108667Y0046617D01*
X0108637Y0046654D01*
X0108609Y0046693D01*
X0108584Y0046735D01*
X0108564Y0046779D01*
X0108546Y0046824D01*
X0108533Y0046870D01*
X0108523Y0046917D01*
X0108517Y0046965D01*
X0108515Y0047013D01*
M02*
