G75*
%MOIN*%
%OFA0B0*%
%FSLAX25Y25*%
%IPPOS*%
%LPD*%
%AMOC8*
5,1,8,0,0,1.08239X$1,22.5*
%
%ADD10C,0.00000*%
%ADD11C,0.00443*%
%ADD12R,0.21654X0.21654*%
%ADD13R,0.02756X0.03150*%
%ADD14R,0.04331X0.07087*%
%ADD15R,0.03150X0.02756*%
%ADD16C,0.07794*%
%ADD17R,0.03150X0.03937*%
%ADD18R,0.11024X0.11024*%
%ADD19C,0.01575*%
%ADD20R,0.05118X0.03543*%
%ADD21R,0.03543X0.05118*%
%ADD22R,0.02717X0.06102*%
%ADD23R,0.02874X0.03661*%
D10*
X0029368Y0008145D02*
X0029368Y0086885D01*
X0100234Y0086885D01*
X0100234Y0008145D01*
X0029368Y0008145D01*
X0031375Y0010743D02*
X0031377Y0010791D01*
X0031383Y0010839D01*
X0031393Y0010886D01*
X0031406Y0010932D01*
X0031424Y0010977D01*
X0031444Y0011021D01*
X0031469Y0011063D01*
X0031497Y0011102D01*
X0031527Y0011139D01*
X0031561Y0011173D01*
X0031598Y0011205D01*
X0031636Y0011234D01*
X0031677Y0011259D01*
X0031720Y0011281D01*
X0031765Y0011299D01*
X0031811Y0011313D01*
X0031858Y0011324D01*
X0031906Y0011331D01*
X0031954Y0011334D01*
X0032002Y0011333D01*
X0032050Y0011328D01*
X0032098Y0011319D01*
X0032144Y0011307D01*
X0032189Y0011290D01*
X0032233Y0011270D01*
X0032275Y0011247D01*
X0032315Y0011220D01*
X0032353Y0011190D01*
X0032388Y0011157D01*
X0032420Y0011121D01*
X0032450Y0011083D01*
X0032476Y0011042D01*
X0032498Y0010999D01*
X0032518Y0010955D01*
X0032533Y0010910D01*
X0032545Y0010863D01*
X0032553Y0010815D01*
X0032557Y0010767D01*
X0032557Y0010719D01*
X0032553Y0010671D01*
X0032545Y0010623D01*
X0032533Y0010576D01*
X0032518Y0010531D01*
X0032498Y0010487D01*
X0032476Y0010444D01*
X0032450Y0010403D01*
X0032420Y0010365D01*
X0032388Y0010329D01*
X0032353Y0010296D01*
X0032315Y0010266D01*
X0032275Y0010239D01*
X0032233Y0010216D01*
X0032189Y0010196D01*
X0032144Y0010179D01*
X0032098Y0010167D01*
X0032050Y0010158D01*
X0032002Y0010153D01*
X0031954Y0010152D01*
X0031906Y0010155D01*
X0031858Y0010162D01*
X0031811Y0010173D01*
X0031765Y0010187D01*
X0031720Y0010205D01*
X0031677Y0010227D01*
X0031636Y0010252D01*
X0031598Y0010281D01*
X0031561Y0010313D01*
X0031527Y0010347D01*
X0031497Y0010384D01*
X0031469Y0010423D01*
X0031444Y0010465D01*
X0031424Y0010509D01*
X0031406Y0010554D01*
X0031393Y0010600D01*
X0031383Y0010647D01*
X0031377Y0010695D01*
X0031375Y0010743D01*
X0038777Y0010743D02*
X0038779Y0010791D01*
X0038785Y0010839D01*
X0038795Y0010886D01*
X0038808Y0010932D01*
X0038826Y0010977D01*
X0038846Y0011021D01*
X0038871Y0011063D01*
X0038899Y0011102D01*
X0038929Y0011139D01*
X0038963Y0011173D01*
X0039000Y0011205D01*
X0039038Y0011234D01*
X0039079Y0011259D01*
X0039122Y0011281D01*
X0039167Y0011299D01*
X0039213Y0011313D01*
X0039260Y0011324D01*
X0039308Y0011331D01*
X0039356Y0011334D01*
X0039404Y0011333D01*
X0039452Y0011328D01*
X0039500Y0011319D01*
X0039546Y0011307D01*
X0039591Y0011290D01*
X0039635Y0011270D01*
X0039677Y0011247D01*
X0039717Y0011220D01*
X0039755Y0011190D01*
X0039790Y0011157D01*
X0039822Y0011121D01*
X0039852Y0011083D01*
X0039878Y0011042D01*
X0039900Y0010999D01*
X0039920Y0010955D01*
X0039935Y0010910D01*
X0039947Y0010863D01*
X0039955Y0010815D01*
X0039959Y0010767D01*
X0039959Y0010719D01*
X0039955Y0010671D01*
X0039947Y0010623D01*
X0039935Y0010576D01*
X0039920Y0010531D01*
X0039900Y0010487D01*
X0039878Y0010444D01*
X0039852Y0010403D01*
X0039822Y0010365D01*
X0039790Y0010329D01*
X0039755Y0010296D01*
X0039717Y0010266D01*
X0039677Y0010239D01*
X0039635Y0010216D01*
X0039591Y0010196D01*
X0039546Y0010179D01*
X0039500Y0010167D01*
X0039452Y0010158D01*
X0039404Y0010153D01*
X0039356Y0010152D01*
X0039308Y0010155D01*
X0039260Y0010162D01*
X0039213Y0010173D01*
X0039167Y0010187D01*
X0039122Y0010205D01*
X0039079Y0010227D01*
X0039038Y0010252D01*
X0039000Y0010281D01*
X0038963Y0010313D01*
X0038929Y0010347D01*
X0038899Y0010384D01*
X0038871Y0010423D01*
X0038846Y0010465D01*
X0038826Y0010509D01*
X0038808Y0010554D01*
X0038795Y0010600D01*
X0038785Y0010647D01*
X0038779Y0010695D01*
X0038777Y0010743D01*
X0038777Y0018145D02*
X0038779Y0018193D01*
X0038785Y0018241D01*
X0038795Y0018288D01*
X0038808Y0018334D01*
X0038826Y0018379D01*
X0038846Y0018423D01*
X0038871Y0018465D01*
X0038899Y0018504D01*
X0038929Y0018541D01*
X0038963Y0018575D01*
X0039000Y0018607D01*
X0039038Y0018636D01*
X0039079Y0018661D01*
X0039122Y0018683D01*
X0039167Y0018701D01*
X0039213Y0018715D01*
X0039260Y0018726D01*
X0039308Y0018733D01*
X0039356Y0018736D01*
X0039404Y0018735D01*
X0039452Y0018730D01*
X0039500Y0018721D01*
X0039546Y0018709D01*
X0039591Y0018692D01*
X0039635Y0018672D01*
X0039677Y0018649D01*
X0039717Y0018622D01*
X0039755Y0018592D01*
X0039790Y0018559D01*
X0039822Y0018523D01*
X0039852Y0018485D01*
X0039878Y0018444D01*
X0039900Y0018401D01*
X0039920Y0018357D01*
X0039935Y0018312D01*
X0039947Y0018265D01*
X0039955Y0018217D01*
X0039959Y0018169D01*
X0039959Y0018121D01*
X0039955Y0018073D01*
X0039947Y0018025D01*
X0039935Y0017978D01*
X0039920Y0017933D01*
X0039900Y0017889D01*
X0039878Y0017846D01*
X0039852Y0017805D01*
X0039822Y0017767D01*
X0039790Y0017731D01*
X0039755Y0017698D01*
X0039717Y0017668D01*
X0039677Y0017641D01*
X0039635Y0017618D01*
X0039591Y0017598D01*
X0039546Y0017581D01*
X0039500Y0017569D01*
X0039452Y0017560D01*
X0039404Y0017555D01*
X0039356Y0017554D01*
X0039308Y0017557D01*
X0039260Y0017564D01*
X0039213Y0017575D01*
X0039167Y0017589D01*
X0039122Y0017607D01*
X0039079Y0017629D01*
X0039038Y0017654D01*
X0039000Y0017683D01*
X0038963Y0017715D01*
X0038929Y0017749D01*
X0038899Y0017786D01*
X0038871Y0017825D01*
X0038846Y0017867D01*
X0038826Y0017911D01*
X0038808Y0017956D01*
X0038795Y0018002D01*
X0038785Y0018049D01*
X0038779Y0018097D01*
X0038777Y0018145D01*
X0031375Y0018145D02*
X0031377Y0018193D01*
X0031383Y0018241D01*
X0031393Y0018288D01*
X0031406Y0018334D01*
X0031424Y0018379D01*
X0031444Y0018423D01*
X0031469Y0018465D01*
X0031497Y0018504D01*
X0031527Y0018541D01*
X0031561Y0018575D01*
X0031598Y0018607D01*
X0031636Y0018636D01*
X0031677Y0018661D01*
X0031720Y0018683D01*
X0031765Y0018701D01*
X0031811Y0018715D01*
X0031858Y0018726D01*
X0031906Y0018733D01*
X0031954Y0018736D01*
X0032002Y0018735D01*
X0032050Y0018730D01*
X0032098Y0018721D01*
X0032144Y0018709D01*
X0032189Y0018692D01*
X0032233Y0018672D01*
X0032275Y0018649D01*
X0032315Y0018622D01*
X0032353Y0018592D01*
X0032388Y0018559D01*
X0032420Y0018523D01*
X0032450Y0018485D01*
X0032476Y0018444D01*
X0032498Y0018401D01*
X0032518Y0018357D01*
X0032533Y0018312D01*
X0032545Y0018265D01*
X0032553Y0018217D01*
X0032557Y0018169D01*
X0032557Y0018121D01*
X0032553Y0018073D01*
X0032545Y0018025D01*
X0032533Y0017978D01*
X0032518Y0017933D01*
X0032498Y0017889D01*
X0032476Y0017846D01*
X0032450Y0017805D01*
X0032420Y0017767D01*
X0032388Y0017731D01*
X0032353Y0017698D01*
X0032315Y0017668D01*
X0032275Y0017641D01*
X0032233Y0017618D01*
X0032189Y0017598D01*
X0032144Y0017581D01*
X0032098Y0017569D01*
X0032050Y0017560D01*
X0032002Y0017555D01*
X0031954Y0017554D01*
X0031906Y0017557D01*
X0031858Y0017564D01*
X0031811Y0017575D01*
X0031765Y0017589D01*
X0031720Y0017607D01*
X0031677Y0017629D01*
X0031636Y0017654D01*
X0031598Y0017683D01*
X0031561Y0017715D01*
X0031527Y0017749D01*
X0031497Y0017786D01*
X0031469Y0017825D01*
X0031444Y0017867D01*
X0031424Y0017911D01*
X0031406Y0017956D01*
X0031393Y0018002D01*
X0031383Y0018049D01*
X0031377Y0018097D01*
X0031375Y0018145D01*
X0089643Y0018145D02*
X0089645Y0018193D01*
X0089651Y0018241D01*
X0089661Y0018288D01*
X0089674Y0018334D01*
X0089692Y0018379D01*
X0089712Y0018423D01*
X0089737Y0018465D01*
X0089765Y0018504D01*
X0089795Y0018541D01*
X0089829Y0018575D01*
X0089866Y0018607D01*
X0089904Y0018636D01*
X0089945Y0018661D01*
X0089988Y0018683D01*
X0090033Y0018701D01*
X0090079Y0018715D01*
X0090126Y0018726D01*
X0090174Y0018733D01*
X0090222Y0018736D01*
X0090270Y0018735D01*
X0090318Y0018730D01*
X0090366Y0018721D01*
X0090412Y0018709D01*
X0090457Y0018692D01*
X0090501Y0018672D01*
X0090543Y0018649D01*
X0090583Y0018622D01*
X0090621Y0018592D01*
X0090656Y0018559D01*
X0090688Y0018523D01*
X0090718Y0018485D01*
X0090744Y0018444D01*
X0090766Y0018401D01*
X0090786Y0018357D01*
X0090801Y0018312D01*
X0090813Y0018265D01*
X0090821Y0018217D01*
X0090825Y0018169D01*
X0090825Y0018121D01*
X0090821Y0018073D01*
X0090813Y0018025D01*
X0090801Y0017978D01*
X0090786Y0017933D01*
X0090766Y0017889D01*
X0090744Y0017846D01*
X0090718Y0017805D01*
X0090688Y0017767D01*
X0090656Y0017731D01*
X0090621Y0017698D01*
X0090583Y0017668D01*
X0090543Y0017641D01*
X0090501Y0017618D01*
X0090457Y0017598D01*
X0090412Y0017581D01*
X0090366Y0017569D01*
X0090318Y0017560D01*
X0090270Y0017555D01*
X0090222Y0017554D01*
X0090174Y0017557D01*
X0090126Y0017564D01*
X0090079Y0017575D01*
X0090033Y0017589D01*
X0089988Y0017607D01*
X0089945Y0017629D01*
X0089904Y0017654D01*
X0089866Y0017683D01*
X0089829Y0017715D01*
X0089795Y0017749D01*
X0089765Y0017786D01*
X0089737Y0017825D01*
X0089712Y0017867D01*
X0089692Y0017911D01*
X0089674Y0017956D01*
X0089661Y0018002D01*
X0089651Y0018049D01*
X0089645Y0018097D01*
X0089643Y0018145D01*
X0097044Y0018145D02*
X0097046Y0018193D01*
X0097052Y0018241D01*
X0097062Y0018288D01*
X0097075Y0018334D01*
X0097093Y0018379D01*
X0097113Y0018423D01*
X0097138Y0018465D01*
X0097166Y0018504D01*
X0097196Y0018541D01*
X0097230Y0018575D01*
X0097267Y0018607D01*
X0097305Y0018636D01*
X0097346Y0018661D01*
X0097389Y0018683D01*
X0097434Y0018701D01*
X0097480Y0018715D01*
X0097527Y0018726D01*
X0097575Y0018733D01*
X0097623Y0018736D01*
X0097671Y0018735D01*
X0097719Y0018730D01*
X0097767Y0018721D01*
X0097813Y0018709D01*
X0097858Y0018692D01*
X0097902Y0018672D01*
X0097944Y0018649D01*
X0097984Y0018622D01*
X0098022Y0018592D01*
X0098057Y0018559D01*
X0098089Y0018523D01*
X0098119Y0018485D01*
X0098145Y0018444D01*
X0098167Y0018401D01*
X0098187Y0018357D01*
X0098202Y0018312D01*
X0098214Y0018265D01*
X0098222Y0018217D01*
X0098226Y0018169D01*
X0098226Y0018121D01*
X0098222Y0018073D01*
X0098214Y0018025D01*
X0098202Y0017978D01*
X0098187Y0017933D01*
X0098167Y0017889D01*
X0098145Y0017846D01*
X0098119Y0017805D01*
X0098089Y0017767D01*
X0098057Y0017731D01*
X0098022Y0017698D01*
X0097984Y0017668D01*
X0097944Y0017641D01*
X0097902Y0017618D01*
X0097858Y0017598D01*
X0097813Y0017581D01*
X0097767Y0017569D01*
X0097719Y0017560D01*
X0097671Y0017555D01*
X0097623Y0017554D01*
X0097575Y0017557D01*
X0097527Y0017564D01*
X0097480Y0017575D01*
X0097434Y0017589D01*
X0097389Y0017607D01*
X0097346Y0017629D01*
X0097305Y0017654D01*
X0097267Y0017683D01*
X0097230Y0017715D01*
X0097196Y0017749D01*
X0097166Y0017786D01*
X0097138Y0017825D01*
X0097113Y0017867D01*
X0097093Y0017911D01*
X0097075Y0017956D01*
X0097062Y0018002D01*
X0097052Y0018049D01*
X0097046Y0018097D01*
X0097044Y0018145D01*
X0097044Y0010743D02*
X0097046Y0010791D01*
X0097052Y0010839D01*
X0097062Y0010886D01*
X0097075Y0010932D01*
X0097093Y0010977D01*
X0097113Y0011021D01*
X0097138Y0011063D01*
X0097166Y0011102D01*
X0097196Y0011139D01*
X0097230Y0011173D01*
X0097267Y0011205D01*
X0097305Y0011234D01*
X0097346Y0011259D01*
X0097389Y0011281D01*
X0097434Y0011299D01*
X0097480Y0011313D01*
X0097527Y0011324D01*
X0097575Y0011331D01*
X0097623Y0011334D01*
X0097671Y0011333D01*
X0097719Y0011328D01*
X0097767Y0011319D01*
X0097813Y0011307D01*
X0097858Y0011290D01*
X0097902Y0011270D01*
X0097944Y0011247D01*
X0097984Y0011220D01*
X0098022Y0011190D01*
X0098057Y0011157D01*
X0098089Y0011121D01*
X0098119Y0011083D01*
X0098145Y0011042D01*
X0098167Y0010999D01*
X0098187Y0010955D01*
X0098202Y0010910D01*
X0098214Y0010863D01*
X0098222Y0010815D01*
X0098226Y0010767D01*
X0098226Y0010719D01*
X0098222Y0010671D01*
X0098214Y0010623D01*
X0098202Y0010576D01*
X0098187Y0010531D01*
X0098167Y0010487D01*
X0098145Y0010444D01*
X0098119Y0010403D01*
X0098089Y0010365D01*
X0098057Y0010329D01*
X0098022Y0010296D01*
X0097984Y0010266D01*
X0097944Y0010239D01*
X0097902Y0010216D01*
X0097858Y0010196D01*
X0097813Y0010179D01*
X0097767Y0010167D01*
X0097719Y0010158D01*
X0097671Y0010153D01*
X0097623Y0010152D01*
X0097575Y0010155D01*
X0097527Y0010162D01*
X0097480Y0010173D01*
X0097434Y0010187D01*
X0097389Y0010205D01*
X0097346Y0010227D01*
X0097305Y0010252D01*
X0097267Y0010281D01*
X0097230Y0010313D01*
X0097196Y0010347D01*
X0097166Y0010384D01*
X0097138Y0010423D01*
X0097113Y0010465D01*
X0097093Y0010509D01*
X0097075Y0010554D01*
X0097062Y0010600D01*
X0097052Y0010647D01*
X0097046Y0010695D01*
X0097044Y0010743D01*
X0089643Y0010743D02*
X0089645Y0010791D01*
X0089651Y0010839D01*
X0089661Y0010886D01*
X0089674Y0010932D01*
X0089692Y0010977D01*
X0089712Y0011021D01*
X0089737Y0011063D01*
X0089765Y0011102D01*
X0089795Y0011139D01*
X0089829Y0011173D01*
X0089866Y0011205D01*
X0089904Y0011234D01*
X0089945Y0011259D01*
X0089988Y0011281D01*
X0090033Y0011299D01*
X0090079Y0011313D01*
X0090126Y0011324D01*
X0090174Y0011331D01*
X0090222Y0011334D01*
X0090270Y0011333D01*
X0090318Y0011328D01*
X0090366Y0011319D01*
X0090412Y0011307D01*
X0090457Y0011290D01*
X0090501Y0011270D01*
X0090543Y0011247D01*
X0090583Y0011220D01*
X0090621Y0011190D01*
X0090656Y0011157D01*
X0090688Y0011121D01*
X0090718Y0011083D01*
X0090744Y0011042D01*
X0090766Y0010999D01*
X0090786Y0010955D01*
X0090801Y0010910D01*
X0090813Y0010863D01*
X0090821Y0010815D01*
X0090825Y0010767D01*
X0090825Y0010719D01*
X0090821Y0010671D01*
X0090813Y0010623D01*
X0090801Y0010576D01*
X0090786Y0010531D01*
X0090766Y0010487D01*
X0090744Y0010444D01*
X0090718Y0010403D01*
X0090688Y0010365D01*
X0090656Y0010329D01*
X0090621Y0010296D01*
X0090583Y0010266D01*
X0090543Y0010239D01*
X0090501Y0010216D01*
X0090457Y0010196D01*
X0090412Y0010179D01*
X0090366Y0010167D01*
X0090318Y0010158D01*
X0090270Y0010153D01*
X0090222Y0010152D01*
X0090174Y0010155D01*
X0090126Y0010162D01*
X0090079Y0010173D01*
X0090033Y0010187D01*
X0089988Y0010205D01*
X0089945Y0010227D01*
X0089904Y0010252D01*
X0089866Y0010281D01*
X0089829Y0010313D01*
X0089795Y0010347D01*
X0089765Y0010384D01*
X0089737Y0010423D01*
X0089712Y0010465D01*
X0089692Y0010509D01*
X0089674Y0010554D01*
X0089661Y0010600D01*
X0089651Y0010647D01*
X0089645Y0010695D01*
X0089643Y0010743D01*
D11*
X0079293Y0045611D02*
X0079293Y0047333D01*
X0080623Y0047333D01*
X0080623Y0045611D01*
X0079293Y0045611D01*
X0079293Y0046053D02*
X0080623Y0046053D01*
X0080623Y0046495D02*
X0079293Y0046495D01*
X0079293Y0046937D02*
X0080623Y0046937D01*
X0077325Y0047333D02*
X0077325Y0045611D01*
X0077325Y0047333D02*
X0078655Y0047333D01*
X0078655Y0045611D01*
X0077325Y0045611D01*
X0077325Y0046053D02*
X0078655Y0046053D01*
X0078655Y0046495D02*
X0077325Y0046495D01*
X0077325Y0046937D02*
X0078655Y0046937D01*
X0075356Y0047333D02*
X0075356Y0045611D01*
X0075356Y0047333D02*
X0076686Y0047333D01*
X0076686Y0045611D01*
X0075356Y0045611D01*
X0075356Y0046053D02*
X0076686Y0046053D01*
X0076686Y0046495D02*
X0075356Y0046495D01*
X0075356Y0046937D02*
X0076686Y0046937D01*
X0073388Y0047333D02*
X0073388Y0045611D01*
X0073388Y0047333D02*
X0074718Y0047333D01*
X0074718Y0045611D01*
X0073388Y0045611D01*
X0073388Y0046053D02*
X0074718Y0046053D01*
X0074718Y0046495D02*
X0073388Y0046495D01*
X0073388Y0046937D02*
X0074718Y0046937D01*
X0071419Y0047333D02*
X0071419Y0045611D01*
X0071419Y0047333D02*
X0072749Y0047333D01*
X0072749Y0045611D01*
X0071419Y0045611D01*
X0071419Y0046053D02*
X0072749Y0046053D01*
X0072749Y0046495D02*
X0071419Y0046495D01*
X0071419Y0046937D02*
X0072749Y0046937D01*
X0069451Y0047333D02*
X0069451Y0045611D01*
X0069451Y0047333D02*
X0070781Y0047333D01*
X0070781Y0045611D01*
X0069451Y0045611D01*
X0069451Y0046053D02*
X0070781Y0046053D01*
X0070781Y0046495D02*
X0069451Y0046495D01*
X0069451Y0046937D02*
X0070781Y0046937D01*
X0067482Y0047333D02*
X0067482Y0045611D01*
X0067482Y0047333D02*
X0068812Y0047333D01*
X0068812Y0045611D01*
X0067482Y0045611D01*
X0067482Y0046053D02*
X0068812Y0046053D01*
X0068812Y0046495D02*
X0067482Y0046495D01*
X0067482Y0046937D02*
X0068812Y0046937D01*
X0065514Y0047333D02*
X0065514Y0045611D01*
X0065514Y0047333D02*
X0066844Y0047333D01*
X0066844Y0045611D01*
X0065514Y0045611D01*
X0065514Y0046053D02*
X0066844Y0046053D01*
X0066844Y0046495D02*
X0065514Y0046495D01*
X0065514Y0046937D02*
X0066844Y0046937D01*
X0063545Y0047333D02*
X0063545Y0045611D01*
X0063545Y0047333D02*
X0064875Y0047333D01*
X0064875Y0045611D01*
X0063545Y0045611D01*
X0063545Y0046053D02*
X0064875Y0046053D01*
X0064875Y0046495D02*
X0063545Y0046495D01*
X0063545Y0046937D02*
X0064875Y0046937D01*
X0061577Y0047333D02*
X0061577Y0045611D01*
X0061577Y0047333D02*
X0062907Y0047333D01*
X0062907Y0045611D01*
X0061577Y0045611D01*
X0061577Y0046053D02*
X0062907Y0046053D01*
X0062907Y0046495D02*
X0061577Y0046495D01*
X0061577Y0046937D02*
X0062907Y0046937D01*
X0059608Y0047333D02*
X0059608Y0045611D01*
X0059608Y0047333D02*
X0060938Y0047333D01*
X0060938Y0045611D01*
X0059608Y0045611D01*
X0059608Y0046053D02*
X0060938Y0046053D01*
X0060938Y0046495D02*
X0059608Y0046495D01*
X0059608Y0046937D02*
X0060938Y0046937D01*
X0057640Y0047333D02*
X0057640Y0045611D01*
X0057640Y0047333D02*
X0058970Y0047333D01*
X0058970Y0045611D01*
X0057640Y0045611D01*
X0057640Y0046053D02*
X0058970Y0046053D01*
X0058970Y0046495D02*
X0057640Y0046495D01*
X0057640Y0046937D02*
X0058970Y0046937D01*
X0057138Y0049164D02*
X0055416Y0049164D01*
X0057138Y0049164D02*
X0057138Y0047834D01*
X0055416Y0047834D01*
X0055416Y0049164D01*
X0055416Y0048276D02*
X0057138Y0048276D01*
X0057138Y0048718D02*
X0055416Y0048718D01*
X0055416Y0049160D02*
X0057138Y0049160D01*
X0057138Y0051133D02*
X0055416Y0051133D01*
X0057138Y0051133D02*
X0057138Y0049803D01*
X0055416Y0049803D01*
X0055416Y0051133D01*
X0055416Y0050245D02*
X0057138Y0050245D01*
X0057138Y0050687D02*
X0055416Y0050687D01*
X0055416Y0051129D02*
X0057138Y0051129D01*
X0057138Y0053101D02*
X0055416Y0053101D01*
X0057138Y0053101D02*
X0057138Y0051771D01*
X0055416Y0051771D01*
X0055416Y0053101D01*
X0055416Y0052213D02*
X0057138Y0052213D01*
X0057138Y0052655D02*
X0055416Y0052655D01*
X0055416Y0053097D02*
X0057138Y0053097D01*
X0057138Y0055070D02*
X0055416Y0055070D01*
X0057138Y0055070D02*
X0057138Y0053740D01*
X0055416Y0053740D01*
X0055416Y0055070D01*
X0055416Y0054182D02*
X0057138Y0054182D01*
X0057138Y0054624D02*
X0055416Y0054624D01*
X0055416Y0055066D02*
X0057138Y0055066D01*
X0057138Y0057038D02*
X0055416Y0057038D01*
X0057138Y0057038D02*
X0057138Y0055708D01*
X0055416Y0055708D01*
X0055416Y0057038D01*
X0055416Y0056150D02*
X0057138Y0056150D01*
X0057138Y0056592D02*
X0055416Y0056592D01*
X0055416Y0057034D02*
X0057138Y0057034D01*
X0057138Y0059007D02*
X0055416Y0059007D01*
X0057138Y0059007D02*
X0057138Y0057677D01*
X0055416Y0057677D01*
X0055416Y0059007D01*
X0055416Y0058119D02*
X0057138Y0058119D01*
X0057138Y0058561D02*
X0055416Y0058561D01*
X0055416Y0059003D02*
X0057138Y0059003D01*
X0057138Y0060975D02*
X0055416Y0060975D01*
X0057138Y0060975D02*
X0057138Y0059645D01*
X0055416Y0059645D01*
X0055416Y0060975D01*
X0055416Y0060087D02*
X0057138Y0060087D01*
X0057138Y0060529D02*
X0055416Y0060529D01*
X0055416Y0060971D02*
X0057138Y0060971D01*
X0057138Y0062944D02*
X0055416Y0062944D01*
X0057138Y0062944D02*
X0057138Y0061614D01*
X0055416Y0061614D01*
X0055416Y0062944D01*
X0055416Y0062056D02*
X0057138Y0062056D01*
X0057138Y0062498D02*
X0055416Y0062498D01*
X0055416Y0062940D02*
X0057138Y0062940D01*
X0057138Y0064912D02*
X0055416Y0064912D01*
X0057138Y0064912D02*
X0057138Y0063582D01*
X0055416Y0063582D01*
X0055416Y0064912D01*
X0055416Y0064024D02*
X0057138Y0064024D01*
X0057138Y0064466D02*
X0055416Y0064466D01*
X0055416Y0064908D02*
X0057138Y0064908D01*
X0057138Y0066881D02*
X0055416Y0066881D01*
X0057138Y0066881D02*
X0057138Y0065551D01*
X0055416Y0065551D01*
X0055416Y0066881D01*
X0055416Y0065993D02*
X0057138Y0065993D01*
X0057138Y0066435D02*
X0055416Y0066435D01*
X0055416Y0066877D02*
X0057138Y0066877D01*
X0057138Y0068849D02*
X0055416Y0068849D01*
X0057138Y0068849D02*
X0057138Y0067519D01*
X0055416Y0067519D01*
X0055416Y0068849D01*
X0055416Y0067961D02*
X0057138Y0067961D01*
X0057138Y0068403D02*
X0055416Y0068403D01*
X0055416Y0068845D02*
X0057138Y0068845D01*
X0057138Y0070818D02*
X0055416Y0070818D01*
X0057138Y0070818D02*
X0057138Y0069488D01*
X0055416Y0069488D01*
X0055416Y0070818D01*
X0055416Y0069930D02*
X0057138Y0069930D01*
X0057138Y0070372D02*
X0055416Y0070372D01*
X0055416Y0070814D02*
X0057138Y0070814D01*
X0058970Y0071319D02*
X0058970Y0073041D01*
X0058970Y0071319D02*
X0057640Y0071319D01*
X0057640Y0073041D01*
X0058970Y0073041D01*
X0058970Y0071761D02*
X0057640Y0071761D01*
X0057640Y0072203D02*
X0058970Y0072203D01*
X0058970Y0072645D02*
X0057640Y0072645D01*
X0060938Y0073041D02*
X0060938Y0071319D01*
X0059608Y0071319D01*
X0059608Y0073041D01*
X0060938Y0073041D01*
X0060938Y0071761D02*
X0059608Y0071761D01*
X0059608Y0072203D02*
X0060938Y0072203D01*
X0060938Y0072645D02*
X0059608Y0072645D01*
X0062907Y0073041D02*
X0062907Y0071319D01*
X0061577Y0071319D01*
X0061577Y0073041D01*
X0062907Y0073041D01*
X0062907Y0071761D02*
X0061577Y0071761D01*
X0061577Y0072203D02*
X0062907Y0072203D01*
X0062907Y0072645D02*
X0061577Y0072645D01*
X0064875Y0073041D02*
X0064875Y0071319D01*
X0063545Y0071319D01*
X0063545Y0073041D01*
X0064875Y0073041D01*
X0064875Y0071761D02*
X0063545Y0071761D01*
X0063545Y0072203D02*
X0064875Y0072203D01*
X0064875Y0072645D02*
X0063545Y0072645D01*
X0066844Y0073041D02*
X0066844Y0071319D01*
X0065514Y0071319D01*
X0065514Y0073041D01*
X0066844Y0073041D01*
X0066844Y0071761D02*
X0065514Y0071761D01*
X0065514Y0072203D02*
X0066844Y0072203D01*
X0066844Y0072645D02*
X0065514Y0072645D01*
X0068812Y0073041D02*
X0068812Y0071319D01*
X0067482Y0071319D01*
X0067482Y0073041D01*
X0068812Y0073041D01*
X0068812Y0071761D02*
X0067482Y0071761D01*
X0067482Y0072203D02*
X0068812Y0072203D01*
X0068812Y0072645D02*
X0067482Y0072645D01*
X0070781Y0073041D02*
X0070781Y0071319D01*
X0069451Y0071319D01*
X0069451Y0073041D01*
X0070781Y0073041D01*
X0070781Y0071761D02*
X0069451Y0071761D01*
X0069451Y0072203D02*
X0070781Y0072203D01*
X0070781Y0072645D02*
X0069451Y0072645D01*
X0072749Y0073041D02*
X0072749Y0071319D01*
X0071419Y0071319D01*
X0071419Y0073041D01*
X0072749Y0073041D01*
X0072749Y0071761D02*
X0071419Y0071761D01*
X0071419Y0072203D02*
X0072749Y0072203D01*
X0072749Y0072645D02*
X0071419Y0072645D01*
X0074718Y0073041D02*
X0074718Y0071319D01*
X0073388Y0071319D01*
X0073388Y0073041D01*
X0074718Y0073041D01*
X0074718Y0071761D02*
X0073388Y0071761D01*
X0073388Y0072203D02*
X0074718Y0072203D01*
X0074718Y0072645D02*
X0073388Y0072645D01*
X0076686Y0073041D02*
X0076686Y0071319D01*
X0075356Y0071319D01*
X0075356Y0073041D01*
X0076686Y0073041D01*
X0076686Y0071761D02*
X0075356Y0071761D01*
X0075356Y0072203D02*
X0076686Y0072203D01*
X0076686Y0072645D02*
X0075356Y0072645D01*
X0078655Y0073041D02*
X0078655Y0071319D01*
X0077325Y0071319D01*
X0077325Y0073041D01*
X0078655Y0073041D01*
X0078655Y0071761D02*
X0077325Y0071761D01*
X0077325Y0072203D02*
X0078655Y0072203D01*
X0078655Y0072645D02*
X0077325Y0072645D01*
X0080623Y0073041D02*
X0080623Y0071319D01*
X0079293Y0071319D01*
X0079293Y0073041D01*
X0080623Y0073041D01*
X0080623Y0071761D02*
X0079293Y0071761D01*
X0079293Y0072203D02*
X0080623Y0072203D01*
X0080623Y0072645D02*
X0079293Y0072645D01*
X0081125Y0069488D02*
X0082847Y0069488D01*
X0081125Y0069488D02*
X0081125Y0070818D01*
X0082847Y0070818D01*
X0082847Y0069488D01*
X0082847Y0069930D02*
X0081125Y0069930D01*
X0081125Y0070372D02*
X0082847Y0070372D01*
X0082847Y0070814D02*
X0081125Y0070814D01*
X0081125Y0067519D02*
X0082847Y0067519D01*
X0081125Y0067519D02*
X0081125Y0068849D01*
X0082847Y0068849D01*
X0082847Y0067519D01*
X0082847Y0067961D02*
X0081125Y0067961D01*
X0081125Y0068403D02*
X0082847Y0068403D01*
X0082847Y0068845D02*
X0081125Y0068845D01*
X0081125Y0065551D02*
X0082847Y0065551D01*
X0081125Y0065551D02*
X0081125Y0066881D01*
X0082847Y0066881D01*
X0082847Y0065551D01*
X0082847Y0065993D02*
X0081125Y0065993D01*
X0081125Y0066435D02*
X0082847Y0066435D01*
X0082847Y0066877D02*
X0081125Y0066877D01*
X0081125Y0063582D02*
X0082847Y0063582D01*
X0081125Y0063582D02*
X0081125Y0064912D01*
X0082847Y0064912D01*
X0082847Y0063582D01*
X0082847Y0064024D02*
X0081125Y0064024D01*
X0081125Y0064466D02*
X0082847Y0064466D01*
X0082847Y0064908D02*
X0081125Y0064908D01*
X0081125Y0061614D02*
X0082847Y0061614D01*
X0081125Y0061614D02*
X0081125Y0062944D01*
X0082847Y0062944D01*
X0082847Y0061614D01*
X0082847Y0062056D02*
X0081125Y0062056D01*
X0081125Y0062498D02*
X0082847Y0062498D01*
X0082847Y0062940D02*
X0081125Y0062940D01*
X0081125Y0059645D02*
X0082847Y0059645D01*
X0081125Y0059645D02*
X0081125Y0060975D01*
X0082847Y0060975D01*
X0082847Y0059645D01*
X0082847Y0060087D02*
X0081125Y0060087D01*
X0081125Y0060529D02*
X0082847Y0060529D01*
X0082847Y0060971D02*
X0081125Y0060971D01*
X0081125Y0057677D02*
X0082847Y0057677D01*
X0081125Y0057677D02*
X0081125Y0059007D01*
X0082847Y0059007D01*
X0082847Y0057677D01*
X0082847Y0058119D02*
X0081125Y0058119D01*
X0081125Y0058561D02*
X0082847Y0058561D01*
X0082847Y0059003D02*
X0081125Y0059003D01*
X0081125Y0055708D02*
X0082847Y0055708D01*
X0081125Y0055708D02*
X0081125Y0057038D01*
X0082847Y0057038D01*
X0082847Y0055708D01*
X0082847Y0056150D02*
X0081125Y0056150D01*
X0081125Y0056592D02*
X0082847Y0056592D01*
X0082847Y0057034D02*
X0081125Y0057034D01*
X0081125Y0053740D02*
X0082847Y0053740D01*
X0081125Y0053740D02*
X0081125Y0055070D01*
X0082847Y0055070D01*
X0082847Y0053740D01*
X0082847Y0054182D02*
X0081125Y0054182D01*
X0081125Y0054624D02*
X0082847Y0054624D01*
X0082847Y0055066D02*
X0081125Y0055066D01*
X0081125Y0051771D02*
X0082847Y0051771D01*
X0081125Y0051771D02*
X0081125Y0053101D01*
X0082847Y0053101D01*
X0082847Y0051771D01*
X0082847Y0052213D02*
X0081125Y0052213D01*
X0081125Y0052655D02*
X0082847Y0052655D01*
X0082847Y0053097D02*
X0081125Y0053097D01*
X0081125Y0049803D02*
X0082847Y0049803D01*
X0081125Y0049803D02*
X0081125Y0051133D01*
X0082847Y0051133D01*
X0082847Y0049803D01*
X0082847Y0050245D02*
X0081125Y0050245D01*
X0081125Y0050687D02*
X0082847Y0050687D01*
X0082847Y0051129D02*
X0081125Y0051129D01*
X0081125Y0047834D02*
X0082847Y0047834D01*
X0081125Y0047834D02*
X0081125Y0049164D01*
X0082847Y0049164D01*
X0082847Y0047834D01*
X0082847Y0048276D02*
X0081125Y0048276D01*
X0081125Y0048718D02*
X0082847Y0048718D01*
X0082847Y0049160D02*
X0081125Y0049160D01*
D12*
X0069131Y0059326D03*
D13*
X0067557Y0075861D03*
X0063620Y0075861D03*
X0077006Y0077830D03*
X0080943Y0077830D03*
X0087439Y0042200D03*
X0091376Y0042200D03*
X0091376Y0037712D03*
X0087439Y0037712D03*
X0087439Y0033342D03*
X0091376Y0033342D03*
D14*
X0069722Y0082751D03*
X0059880Y0082751D03*
D15*
X0054958Y0079798D03*
X0054958Y0075861D03*
X0085588Y0062003D03*
X0085588Y0058066D03*
X0092754Y0073106D03*
X0092754Y0077043D03*
X0071887Y0023499D03*
X0071887Y0019562D03*
D16*
X0069801Y0030586D03*
X0079801Y0030586D03*
X0059801Y0030586D03*
X0049801Y0030586D03*
X0035273Y0038854D03*
X0035273Y0048854D03*
X0035273Y0058854D03*
X0035273Y0068854D03*
X0035273Y0078854D03*
D17*
X0085470Y0050468D03*
X0090588Y0050468D03*
D18*
X0093935Y0014444D03*
X0035667Y0014444D03*
D19*
X0039368Y0010743D03*
X0031966Y0010743D03*
X0031966Y0018145D03*
X0039368Y0018145D03*
X0090234Y0018145D03*
X0097635Y0018145D03*
X0097635Y0010743D03*
X0090234Y0010743D03*
D20*
X0053383Y0016019D03*
X0045509Y0016019D03*
X0045509Y0023106D03*
X0053383Y0023106D03*
D21*
X0076218Y0022318D03*
X0083305Y0022318D03*
X0087714Y0027436D03*
X0094801Y0027436D03*
D22*
X0067360Y0022928D03*
X0063620Y0022928D03*
X0059880Y0022928D03*
X0059880Y0013834D03*
X0063620Y0013834D03*
X0067360Y0013834D03*
D23*
X0076415Y0015625D03*
X0085470Y0015625D03*
M02*
