G75*
%MOIN*%
%OFA0B0*%
%FSLAX25Y25*%
%IPPOS*%
%LPD*%
%AMOC8*
5,1,8,0,0,1.08239X$1,22.5*
%
%ADD10C,0.00000*%
%ADD11R,0.07520X0.07520*%
%ADD12C,0.00344*%
%ADD13R,0.02362X0.02756*%
%ADD14R,0.03937X0.06693*%
%ADD15R,0.02756X0.02362*%
%ADD16R,0.02756X0.03543*%
%ADD17R,0.04724X0.03150*%
%ADD18R,0.03150X0.04724*%
%ADD19R,0.02323X0.05709*%
%ADD20R,0.02480X0.03268*%
%ADD21R,0.03268X0.02480*%
D10*
X0029368Y0014150D02*
X0029368Y0092890D01*
X0100234Y0092890D01*
X0100234Y0014150D01*
X0029368Y0014150D01*
X0031375Y0016748D02*
X0031377Y0016796D01*
X0031383Y0016844D01*
X0031393Y0016891D01*
X0031406Y0016937D01*
X0031424Y0016982D01*
X0031444Y0017026D01*
X0031469Y0017068D01*
X0031497Y0017107D01*
X0031527Y0017144D01*
X0031561Y0017178D01*
X0031598Y0017210D01*
X0031636Y0017239D01*
X0031677Y0017264D01*
X0031720Y0017286D01*
X0031765Y0017304D01*
X0031811Y0017318D01*
X0031858Y0017329D01*
X0031906Y0017336D01*
X0031954Y0017339D01*
X0032002Y0017338D01*
X0032050Y0017333D01*
X0032098Y0017324D01*
X0032144Y0017312D01*
X0032189Y0017295D01*
X0032233Y0017275D01*
X0032275Y0017252D01*
X0032315Y0017225D01*
X0032353Y0017195D01*
X0032388Y0017162D01*
X0032420Y0017126D01*
X0032450Y0017088D01*
X0032476Y0017047D01*
X0032498Y0017004D01*
X0032518Y0016960D01*
X0032533Y0016915D01*
X0032545Y0016868D01*
X0032553Y0016820D01*
X0032557Y0016772D01*
X0032557Y0016724D01*
X0032553Y0016676D01*
X0032545Y0016628D01*
X0032533Y0016581D01*
X0032518Y0016536D01*
X0032498Y0016492D01*
X0032476Y0016449D01*
X0032450Y0016408D01*
X0032420Y0016370D01*
X0032388Y0016334D01*
X0032353Y0016301D01*
X0032315Y0016271D01*
X0032275Y0016244D01*
X0032233Y0016221D01*
X0032189Y0016201D01*
X0032144Y0016184D01*
X0032098Y0016172D01*
X0032050Y0016163D01*
X0032002Y0016158D01*
X0031954Y0016157D01*
X0031906Y0016160D01*
X0031858Y0016167D01*
X0031811Y0016178D01*
X0031765Y0016192D01*
X0031720Y0016210D01*
X0031677Y0016232D01*
X0031636Y0016257D01*
X0031598Y0016286D01*
X0031561Y0016318D01*
X0031527Y0016352D01*
X0031497Y0016389D01*
X0031469Y0016428D01*
X0031444Y0016470D01*
X0031424Y0016514D01*
X0031406Y0016559D01*
X0031393Y0016605D01*
X0031383Y0016652D01*
X0031377Y0016700D01*
X0031375Y0016748D01*
X0031375Y0024150D02*
X0031377Y0024198D01*
X0031383Y0024246D01*
X0031393Y0024293D01*
X0031406Y0024339D01*
X0031424Y0024384D01*
X0031444Y0024428D01*
X0031469Y0024470D01*
X0031497Y0024509D01*
X0031527Y0024546D01*
X0031561Y0024580D01*
X0031598Y0024612D01*
X0031636Y0024641D01*
X0031677Y0024666D01*
X0031720Y0024688D01*
X0031765Y0024706D01*
X0031811Y0024720D01*
X0031858Y0024731D01*
X0031906Y0024738D01*
X0031954Y0024741D01*
X0032002Y0024740D01*
X0032050Y0024735D01*
X0032098Y0024726D01*
X0032144Y0024714D01*
X0032189Y0024697D01*
X0032233Y0024677D01*
X0032275Y0024654D01*
X0032315Y0024627D01*
X0032353Y0024597D01*
X0032388Y0024564D01*
X0032420Y0024528D01*
X0032450Y0024490D01*
X0032476Y0024449D01*
X0032498Y0024406D01*
X0032518Y0024362D01*
X0032533Y0024317D01*
X0032545Y0024270D01*
X0032553Y0024222D01*
X0032557Y0024174D01*
X0032557Y0024126D01*
X0032553Y0024078D01*
X0032545Y0024030D01*
X0032533Y0023983D01*
X0032518Y0023938D01*
X0032498Y0023894D01*
X0032476Y0023851D01*
X0032450Y0023810D01*
X0032420Y0023772D01*
X0032388Y0023736D01*
X0032353Y0023703D01*
X0032315Y0023673D01*
X0032275Y0023646D01*
X0032233Y0023623D01*
X0032189Y0023603D01*
X0032144Y0023586D01*
X0032098Y0023574D01*
X0032050Y0023565D01*
X0032002Y0023560D01*
X0031954Y0023559D01*
X0031906Y0023562D01*
X0031858Y0023569D01*
X0031811Y0023580D01*
X0031765Y0023594D01*
X0031720Y0023612D01*
X0031677Y0023634D01*
X0031636Y0023659D01*
X0031598Y0023688D01*
X0031561Y0023720D01*
X0031527Y0023754D01*
X0031497Y0023791D01*
X0031469Y0023830D01*
X0031444Y0023872D01*
X0031424Y0023916D01*
X0031406Y0023961D01*
X0031393Y0024007D01*
X0031383Y0024054D01*
X0031377Y0024102D01*
X0031375Y0024150D01*
X0038777Y0024150D02*
X0038779Y0024198D01*
X0038785Y0024246D01*
X0038795Y0024293D01*
X0038808Y0024339D01*
X0038826Y0024384D01*
X0038846Y0024428D01*
X0038871Y0024470D01*
X0038899Y0024509D01*
X0038929Y0024546D01*
X0038963Y0024580D01*
X0039000Y0024612D01*
X0039038Y0024641D01*
X0039079Y0024666D01*
X0039122Y0024688D01*
X0039167Y0024706D01*
X0039213Y0024720D01*
X0039260Y0024731D01*
X0039308Y0024738D01*
X0039356Y0024741D01*
X0039404Y0024740D01*
X0039452Y0024735D01*
X0039500Y0024726D01*
X0039546Y0024714D01*
X0039591Y0024697D01*
X0039635Y0024677D01*
X0039677Y0024654D01*
X0039717Y0024627D01*
X0039755Y0024597D01*
X0039790Y0024564D01*
X0039822Y0024528D01*
X0039852Y0024490D01*
X0039878Y0024449D01*
X0039900Y0024406D01*
X0039920Y0024362D01*
X0039935Y0024317D01*
X0039947Y0024270D01*
X0039955Y0024222D01*
X0039959Y0024174D01*
X0039959Y0024126D01*
X0039955Y0024078D01*
X0039947Y0024030D01*
X0039935Y0023983D01*
X0039920Y0023938D01*
X0039900Y0023894D01*
X0039878Y0023851D01*
X0039852Y0023810D01*
X0039822Y0023772D01*
X0039790Y0023736D01*
X0039755Y0023703D01*
X0039717Y0023673D01*
X0039677Y0023646D01*
X0039635Y0023623D01*
X0039591Y0023603D01*
X0039546Y0023586D01*
X0039500Y0023574D01*
X0039452Y0023565D01*
X0039404Y0023560D01*
X0039356Y0023559D01*
X0039308Y0023562D01*
X0039260Y0023569D01*
X0039213Y0023580D01*
X0039167Y0023594D01*
X0039122Y0023612D01*
X0039079Y0023634D01*
X0039038Y0023659D01*
X0039000Y0023688D01*
X0038963Y0023720D01*
X0038929Y0023754D01*
X0038899Y0023791D01*
X0038871Y0023830D01*
X0038846Y0023872D01*
X0038826Y0023916D01*
X0038808Y0023961D01*
X0038795Y0024007D01*
X0038785Y0024054D01*
X0038779Y0024102D01*
X0038777Y0024150D01*
X0038777Y0016748D02*
X0038779Y0016796D01*
X0038785Y0016844D01*
X0038795Y0016891D01*
X0038808Y0016937D01*
X0038826Y0016982D01*
X0038846Y0017026D01*
X0038871Y0017068D01*
X0038899Y0017107D01*
X0038929Y0017144D01*
X0038963Y0017178D01*
X0039000Y0017210D01*
X0039038Y0017239D01*
X0039079Y0017264D01*
X0039122Y0017286D01*
X0039167Y0017304D01*
X0039213Y0017318D01*
X0039260Y0017329D01*
X0039308Y0017336D01*
X0039356Y0017339D01*
X0039404Y0017338D01*
X0039452Y0017333D01*
X0039500Y0017324D01*
X0039546Y0017312D01*
X0039591Y0017295D01*
X0039635Y0017275D01*
X0039677Y0017252D01*
X0039717Y0017225D01*
X0039755Y0017195D01*
X0039790Y0017162D01*
X0039822Y0017126D01*
X0039852Y0017088D01*
X0039878Y0017047D01*
X0039900Y0017004D01*
X0039920Y0016960D01*
X0039935Y0016915D01*
X0039947Y0016868D01*
X0039955Y0016820D01*
X0039959Y0016772D01*
X0039959Y0016724D01*
X0039955Y0016676D01*
X0039947Y0016628D01*
X0039935Y0016581D01*
X0039920Y0016536D01*
X0039900Y0016492D01*
X0039878Y0016449D01*
X0039852Y0016408D01*
X0039822Y0016370D01*
X0039790Y0016334D01*
X0039755Y0016301D01*
X0039717Y0016271D01*
X0039677Y0016244D01*
X0039635Y0016221D01*
X0039591Y0016201D01*
X0039546Y0016184D01*
X0039500Y0016172D01*
X0039452Y0016163D01*
X0039404Y0016158D01*
X0039356Y0016157D01*
X0039308Y0016160D01*
X0039260Y0016167D01*
X0039213Y0016178D01*
X0039167Y0016192D01*
X0039122Y0016210D01*
X0039079Y0016232D01*
X0039038Y0016257D01*
X0039000Y0016286D01*
X0038963Y0016318D01*
X0038929Y0016352D01*
X0038899Y0016389D01*
X0038871Y0016428D01*
X0038846Y0016470D01*
X0038826Y0016514D01*
X0038808Y0016559D01*
X0038795Y0016605D01*
X0038785Y0016652D01*
X0038779Y0016700D01*
X0038777Y0016748D01*
X0089643Y0016748D02*
X0089645Y0016796D01*
X0089651Y0016844D01*
X0089661Y0016891D01*
X0089674Y0016937D01*
X0089692Y0016982D01*
X0089712Y0017026D01*
X0089737Y0017068D01*
X0089765Y0017107D01*
X0089795Y0017144D01*
X0089829Y0017178D01*
X0089866Y0017210D01*
X0089904Y0017239D01*
X0089945Y0017264D01*
X0089988Y0017286D01*
X0090033Y0017304D01*
X0090079Y0017318D01*
X0090126Y0017329D01*
X0090174Y0017336D01*
X0090222Y0017339D01*
X0090270Y0017338D01*
X0090318Y0017333D01*
X0090366Y0017324D01*
X0090412Y0017312D01*
X0090457Y0017295D01*
X0090501Y0017275D01*
X0090543Y0017252D01*
X0090583Y0017225D01*
X0090621Y0017195D01*
X0090656Y0017162D01*
X0090688Y0017126D01*
X0090718Y0017088D01*
X0090744Y0017047D01*
X0090766Y0017004D01*
X0090786Y0016960D01*
X0090801Y0016915D01*
X0090813Y0016868D01*
X0090821Y0016820D01*
X0090825Y0016772D01*
X0090825Y0016724D01*
X0090821Y0016676D01*
X0090813Y0016628D01*
X0090801Y0016581D01*
X0090786Y0016536D01*
X0090766Y0016492D01*
X0090744Y0016449D01*
X0090718Y0016408D01*
X0090688Y0016370D01*
X0090656Y0016334D01*
X0090621Y0016301D01*
X0090583Y0016271D01*
X0090543Y0016244D01*
X0090501Y0016221D01*
X0090457Y0016201D01*
X0090412Y0016184D01*
X0090366Y0016172D01*
X0090318Y0016163D01*
X0090270Y0016158D01*
X0090222Y0016157D01*
X0090174Y0016160D01*
X0090126Y0016167D01*
X0090079Y0016178D01*
X0090033Y0016192D01*
X0089988Y0016210D01*
X0089945Y0016232D01*
X0089904Y0016257D01*
X0089866Y0016286D01*
X0089829Y0016318D01*
X0089795Y0016352D01*
X0089765Y0016389D01*
X0089737Y0016428D01*
X0089712Y0016470D01*
X0089692Y0016514D01*
X0089674Y0016559D01*
X0089661Y0016605D01*
X0089651Y0016652D01*
X0089645Y0016700D01*
X0089643Y0016748D01*
X0089643Y0024150D02*
X0089645Y0024198D01*
X0089651Y0024246D01*
X0089661Y0024293D01*
X0089674Y0024339D01*
X0089692Y0024384D01*
X0089712Y0024428D01*
X0089737Y0024470D01*
X0089765Y0024509D01*
X0089795Y0024546D01*
X0089829Y0024580D01*
X0089866Y0024612D01*
X0089904Y0024641D01*
X0089945Y0024666D01*
X0089988Y0024688D01*
X0090033Y0024706D01*
X0090079Y0024720D01*
X0090126Y0024731D01*
X0090174Y0024738D01*
X0090222Y0024741D01*
X0090270Y0024740D01*
X0090318Y0024735D01*
X0090366Y0024726D01*
X0090412Y0024714D01*
X0090457Y0024697D01*
X0090501Y0024677D01*
X0090543Y0024654D01*
X0090583Y0024627D01*
X0090621Y0024597D01*
X0090656Y0024564D01*
X0090688Y0024528D01*
X0090718Y0024490D01*
X0090744Y0024449D01*
X0090766Y0024406D01*
X0090786Y0024362D01*
X0090801Y0024317D01*
X0090813Y0024270D01*
X0090821Y0024222D01*
X0090825Y0024174D01*
X0090825Y0024126D01*
X0090821Y0024078D01*
X0090813Y0024030D01*
X0090801Y0023983D01*
X0090786Y0023938D01*
X0090766Y0023894D01*
X0090744Y0023851D01*
X0090718Y0023810D01*
X0090688Y0023772D01*
X0090656Y0023736D01*
X0090621Y0023703D01*
X0090583Y0023673D01*
X0090543Y0023646D01*
X0090501Y0023623D01*
X0090457Y0023603D01*
X0090412Y0023586D01*
X0090366Y0023574D01*
X0090318Y0023565D01*
X0090270Y0023560D01*
X0090222Y0023559D01*
X0090174Y0023562D01*
X0090126Y0023569D01*
X0090079Y0023580D01*
X0090033Y0023594D01*
X0089988Y0023612D01*
X0089945Y0023634D01*
X0089904Y0023659D01*
X0089866Y0023688D01*
X0089829Y0023720D01*
X0089795Y0023754D01*
X0089765Y0023791D01*
X0089737Y0023830D01*
X0089712Y0023872D01*
X0089692Y0023916D01*
X0089674Y0023961D01*
X0089661Y0024007D01*
X0089651Y0024054D01*
X0089645Y0024102D01*
X0089643Y0024150D01*
X0097044Y0024150D02*
X0097046Y0024198D01*
X0097052Y0024246D01*
X0097062Y0024293D01*
X0097075Y0024339D01*
X0097093Y0024384D01*
X0097113Y0024428D01*
X0097138Y0024470D01*
X0097166Y0024509D01*
X0097196Y0024546D01*
X0097230Y0024580D01*
X0097267Y0024612D01*
X0097305Y0024641D01*
X0097346Y0024666D01*
X0097389Y0024688D01*
X0097434Y0024706D01*
X0097480Y0024720D01*
X0097527Y0024731D01*
X0097575Y0024738D01*
X0097623Y0024741D01*
X0097671Y0024740D01*
X0097719Y0024735D01*
X0097767Y0024726D01*
X0097813Y0024714D01*
X0097858Y0024697D01*
X0097902Y0024677D01*
X0097944Y0024654D01*
X0097984Y0024627D01*
X0098022Y0024597D01*
X0098057Y0024564D01*
X0098089Y0024528D01*
X0098119Y0024490D01*
X0098145Y0024449D01*
X0098167Y0024406D01*
X0098187Y0024362D01*
X0098202Y0024317D01*
X0098214Y0024270D01*
X0098222Y0024222D01*
X0098226Y0024174D01*
X0098226Y0024126D01*
X0098222Y0024078D01*
X0098214Y0024030D01*
X0098202Y0023983D01*
X0098187Y0023938D01*
X0098167Y0023894D01*
X0098145Y0023851D01*
X0098119Y0023810D01*
X0098089Y0023772D01*
X0098057Y0023736D01*
X0098022Y0023703D01*
X0097984Y0023673D01*
X0097944Y0023646D01*
X0097902Y0023623D01*
X0097858Y0023603D01*
X0097813Y0023586D01*
X0097767Y0023574D01*
X0097719Y0023565D01*
X0097671Y0023560D01*
X0097623Y0023559D01*
X0097575Y0023562D01*
X0097527Y0023569D01*
X0097480Y0023580D01*
X0097434Y0023594D01*
X0097389Y0023612D01*
X0097346Y0023634D01*
X0097305Y0023659D01*
X0097267Y0023688D01*
X0097230Y0023720D01*
X0097196Y0023754D01*
X0097166Y0023791D01*
X0097138Y0023830D01*
X0097113Y0023872D01*
X0097093Y0023916D01*
X0097075Y0023961D01*
X0097062Y0024007D01*
X0097052Y0024054D01*
X0097046Y0024102D01*
X0097044Y0024150D01*
X0097044Y0016748D02*
X0097046Y0016796D01*
X0097052Y0016844D01*
X0097062Y0016891D01*
X0097075Y0016937D01*
X0097093Y0016982D01*
X0097113Y0017026D01*
X0097138Y0017068D01*
X0097166Y0017107D01*
X0097196Y0017144D01*
X0097230Y0017178D01*
X0097267Y0017210D01*
X0097305Y0017239D01*
X0097346Y0017264D01*
X0097389Y0017286D01*
X0097434Y0017304D01*
X0097480Y0017318D01*
X0097527Y0017329D01*
X0097575Y0017336D01*
X0097623Y0017339D01*
X0097671Y0017338D01*
X0097719Y0017333D01*
X0097767Y0017324D01*
X0097813Y0017312D01*
X0097858Y0017295D01*
X0097902Y0017275D01*
X0097944Y0017252D01*
X0097984Y0017225D01*
X0098022Y0017195D01*
X0098057Y0017162D01*
X0098089Y0017126D01*
X0098119Y0017088D01*
X0098145Y0017047D01*
X0098167Y0017004D01*
X0098187Y0016960D01*
X0098202Y0016915D01*
X0098214Y0016868D01*
X0098222Y0016820D01*
X0098226Y0016772D01*
X0098226Y0016724D01*
X0098222Y0016676D01*
X0098214Y0016628D01*
X0098202Y0016581D01*
X0098187Y0016536D01*
X0098167Y0016492D01*
X0098145Y0016449D01*
X0098119Y0016408D01*
X0098089Y0016370D01*
X0098057Y0016334D01*
X0098022Y0016301D01*
X0097984Y0016271D01*
X0097944Y0016244D01*
X0097902Y0016221D01*
X0097858Y0016201D01*
X0097813Y0016184D01*
X0097767Y0016172D01*
X0097719Y0016163D01*
X0097671Y0016158D01*
X0097623Y0016157D01*
X0097575Y0016160D01*
X0097527Y0016167D01*
X0097480Y0016178D01*
X0097434Y0016192D01*
X0097389Y0016210D01*
X0097346Y0016232D01*
X0097305Y0016257D01*
X0097267Y0016286D01*
X0097230Y0016318D01*
X0097196Y0016352D01*
X0097166Y0016389D01*
X0097138Y0016428D01*
X0097113Y0016470D01*
X0097093Y0016514D01*
X0097075Y0016559D01*
X0097062Y0016605D01*
X0097052Y0016652D01*
X0097046Y0016700D01*
X0097044Y0016748D01*
D11*
X0074446Y0060016D03*
X0063817Y0060016D03*
X0063817Y0070646D03*
X0074446Y0070646D03*
D12*
X0074570Y0077471D02*
X0074570Y0078899D01*
X0074570Y0077471D02*
X0073536Y0077471D01*
X0073536Y0078899D01*
X0074570Y0078899D01*
X0074570Y0077814D02*
X0073536Y0077814D01*
X0073536Y0078157D02*
X0074570Y0078157D01*
X0074570Y0078500D02*
X0073536Y0078500D01*
X0073536Y0078843D02*
X0074570Y0078843D01*
X0076538Y0078899D02*
X0076538Y0077471D01*
X0075504Y0077471D01*
X0075504Y0078899D01*
X0076538Y0078899D01*
X0076538Y0077814D02*
X0075504Y0077814D01*
X0075504Y0078157D02*
X0076538Y0078157D01*
X0076538Y0078500D02*
X0075504Y0078500D01*
X0075504Y0078843D02*
X0076538Y0078843D01*
X0078507Y0078899D02*
X0078507Y0077471D01*
X0077473Y0077471D01*
X0077473Y0078899D01*
X0078507Y0078899D01*
X0078507Y0077814D02*
X0077473Y0077814D01*
X0077473Y0078157D02*
X0078507Y0078157D01*
X0078507Y0078500D02*
X0077473Y0078500D01*
X0077473Y0078843D02*
X0078507Y0078843D01*
X0080475Y0078899D02*
X0080475Y0077471D01*
X0079441Y0077471D01*
X0079441Y0078899D01*
X0080475Y0078899D01*
X0080475Y0077814D02*
X0079441Y0077814D01*
X0079441Y0078157D02*
X0080475Y0078157D01*
X0080475Y0078500D02*
X0079441Y0078500D01*
X0079441Y0078843D02*
X0080475Y0078843D01*
X0081272Y0075640D02*
X0082700Y0075640D01*
X0081272Y0075640D02*
X0081272Y0076674D01*
X0082700Y0076674D01*
X0082700Y0075640D01*
X0082700Y0075983D02*
X0081272Y0075983D01*
X0081272Y0076326D02*
X0082700Y0076326D01*
X0082700Y0076669D02*
X0081272Y0076669D01*
X0081272Y0073672D02*
X0082700Y0073672D01*
X0081272Y0073672D02*
X0081272Y0074706D01*
X0082700Y0074706D01*
X0082700Y0073672D01*
X0082700Y0074015D02*
X0081272Y0074015D01*
X0081272Y0074358D02*
X0082700Y0074358D01*
X0082700Y0074701D02*
X0081272Y0074701D01*
X0081272Y0071703D02*
X0082700Y0071703D01*
X0081272Y0071703D02*
X0081272Y0072737D01*
X0082700Y0072737D01*
X0082700Y0071703D01*
X0082700Y0072046D02*
X0081272Y0072046D01*
X0081272Y0072389D02*
X0082700Y0072389D01*
X0082700Y0072732D02*
X0081272Y0072732D01*
X0081272Y0069735D02*
X0082700Y0069735D01*
X0081272Y0069735D02*
X0081272Y0070769D01*
X0082700Y0070769D01*
X0082700Y0069735D01*
X0082700Y0070078D02*
X0081272Y0070078D01*
X0081272Y0070421D02*
X0082700Y0070421D01*
X0082700Y0070764D02*
X0081272Y0070764D01*
X0081272Y0067766D02*
X0082700Y0067766D01*
X0081272Y0067766D02*
X0081272Y0068800D01*
X0082700Y0068800D01*
X0082700Y0067766D01*
X0082700Y0068109D02*
X0081272Y0068109D01*
X0081272Y0068452D02*
X0082700Y0068452D01*
X0082700Y0068795D02*
X0081272Y0068795D01*
X0081272Y0065798D02*
X0082700Y0065798D01*
X0081272Y0065798D02*
X0081272Y0066832D01*
X0082700Y0066832D01*
X0082700Y0065798D01*
X0082700Y0066141D02*
X0081272Y0066141D01*
X0081272Y0066484D02*
X0082700Y0066484D01*
X0082700Y0066827D02*
X0081272Y0066827D01*
X0081272Y0063829D02*
X0082700Y0063829D01*
X0081272Y0063829D02*
X0081272Y0064863D01*
X0082700Y0064863D01*
X0082700Y0063829D01*
X0082700Y0064172D02*
X0081272Y0064172D01*
X0081272Y0064515D02*
X0082700Y0064515D01*
X0082700Y0064858D02*
X0081272Y0064858D01*
X0081272Y0061861D02*
X0082700Y0061861D01*
X0081272Y0061861D02*
X0081272Y0062895D01*
X0082700Y0062895D01*
X0082700Y0061861D01*
X0082700Y0062204D02*
X0081272Y0062204D01*
X0081272Y0062547D02*
X0082700Y0062547D01*
X0082700Y0062890D02*
X0081272Y0062890D01*
X0081272Y0059892D02*
X0082700Y0059892D01*
X0081272Y0059892D02*
X0081272Y0060926D01*
X0082700Y0060926D01*
X0082700Y0059892D01*
X0082700Y0060235D02*
X0081272Y0060235D01*
X0081272Y0060578D02*
X0082700Y0060578D01*
X0082700Y0060921D02*
X0081272Y0060921D01*
X0081272Y0057924D02*
X0082700Y0057924D01*
X0081272Y0057924D02*
X0081272Y0058958D01*
X0082700Y0058958D01*
X0082700Y0057924D01*
X0082700Y0058267D02*
X0081272Y0058267D01*
X0081272Y0058610D02*
X0082700Y0058610D01*
X0082700Y0058953D02*
X0081272Y0058953D01*
X0081272Y0055955D02*
X0082700Y0055955D01*
X0081272Y0055955D02*
X0081272Y0056989D01*
X0082700Y0056989D01*
X0082700Y0055955D01*
X0082700Y0056298D02*
X0081272Y0056298D01*
X0081272Y0056641D02*
X0082700Y0056641D01*
X0082700Y0056984D02*
X0081272Y0056984D01*
X0081272Y0053987D02*
X0082700Y0053987D01*
X0081272Y0053987D02*
X0081272Y0055021D01*
X0082700Y0055021D01*
X0082700Y0053987D01*
X0082700Y0054330D02*
X0081272Y0054330D01*
X0081272Y0054673D02*
X0082700Y0054673D01*
X0082700Y0055016D02*
X0081272Y0055016D01*
X0079441Y0053190D02*
X0079441Y0051762D01*
X0079441Y0053190D02*
X0080475Y0053190D01*
X0080475Y0051762D01*
X0079441Y0051762D01*
X0079441Y0052105D02*
X0080475Y0052105D01*
X0080475Y0052448D02*
X0079441Y0052448D01*
X0079441Y0052791D02*
X0080475Y0052791D01*
X0080475Y0053134D02*
X0079441Y0053134D01*
X0077473Y0053190D02*
X0077473Y0051762D01*
X0077473Y0053190D02*
X0078507Y0053190D01*
X0078507Y0051762D01*
X0077473Y0051762D01*
X0077473Y0052105D02*
X0078507Y0052105D01*
X0078507Y0052448D02*
X0077473Y0052448D01*
X0077473Y0052791D02*
X0078507Y0052791D01*
X0078507Y0053134D02*
X0077473Y0053134D01*
X0075504Y0053190D02*
X0075504Y0051762D01*
X0075504Y0053190D02*
X0076538Y0053190D01*
X0076538Y0051762D01*
X0075504Y0051762D01*
X0075504Y0052105D02*
X0076538Y0052105D01*
X0076538Y0052448D02*
X0075504Y0052448D01*
X0075504Y0052791D02*
X0076538Y0052791D01*
X0076538Y0053134D02*
X0075504Y0053134D01*
X0073536Y0053190D02*
X0073536Y0051762D01*
X0073536Y0053190D02*
X0074570Y0053190D01*
X0074570Y0051762D01*
X0073536Y0051762D01*
X0073536Y0052105D02*
X0074570Y0052105D01*
X0074570Y0052448D02*
X0073536Y0052448D01*
X0073536Y0052791D02*
X0074570Y0052791D01*
X0074570Y0053134D02*
X0073536Y0053134D01*
X0071567Y0053190D02*
X0071567Y0051762D01*
X0071567Y0053190D02*
X0072601Y0053190D01*
X0072601Y0051762D01*
X0071567Y0051762D01*
X0071567Y0052105D02*
X0072601Y0052105D01*
X0072601Y0052448D02*
X0071567Y0052448D01*
X0071567Y0052791D02*
X0072601Y0052791D01*
X0072601Y0053134D02*
X0071567Y0053134D01*
X0069599Y0053190D02*
X0069599Y0051762D01*
X0069599Y0053190D02*
X0070633Y0053190D01*
X0070633Y0051762D01*
X0069599Y0051762D01*
X0069599Y0052105D02*
X0070633Y0052105D01*
X0070633Y0052448D02*
X0069599Y0052448D01*
X0069599Y0052791D02*
X0070633Y0052791D01*
X0070633Y0053134D02*
X0069599Y0053134D01*
X0067630Y0053190D02*
X0067630Y0051762D01*
X0067630Y0053190D02*
X0068664Y0053190D01*
X0068664Y0051762D01*
X0067630Y0051762D01*
X0067630Y0052105D02*
X0068664Y0052105D01*
X0068664Y0052448D02*
X0067630Y0052448D01*
X0067630Y0052791D02*
X0068664Y0052791D01*
X0068664Y0053134D02*
X0067630Y0053134D01*
X0065662Y0053190D02*
X0065662Y0051762D01*
X0065662Y0053190D02*
X0066696Y0053190D01*
X0066696Y0051762D01*
X0065662Y0051762D01*
X0065662Y0052105D02*
X0066696Y0052105D01*
X0066696Y0052448D02*
X0065662Y0052448D01*
X0065662Y0052791D02*
X0066696Y0052791D01*
X0066696Y0053134D02*
X0065662Y0053134D01*
X0063693Y0053190D02*
X0063693Y0051762D01*
X0063693Y0053190D02*
X0064727Y0053190D01*
X0064727Y0051762D01*
X0063693Y0051762D01*
X0063693Y0052105D02*
X0064727Y0052105D01*
X0064727Y0052448D02*
X0063693Y0052448D01*
X0063693Y0052791D02*
X0064727Y0052791D01*
X0064727Y0053134D02*
X0063693Y0053134D01*
X0061725Y0053190D02*
X0061725Y0051762D01*
X0061725Y0053190D02*
X0062759Y0053190D01*
X0062759Y0051762D01*
X0061725Y0051762D01*
X0061725Y0052105D02*
X0062759Y0052105D01*
X0062759Y0052448D02*
X0061725Y0052448D01*
X0061725Y0052791D02*
X0062759Y0052791D01*
X0062759Y0053134D02*
X0061725Y0053134D01*
X0059756Y0053190D02*
X0059756Y0051762D01*
X0059756Y0053190D02*
X0060790Y0053190D01*
X0060790Y0051762D01*
X0059756Y0051762D01*
X0059756Y0052105D02*
X0060790Y0052105D01*
X0060790Y0052448D02*
X0059756Y0052448D01*
X0059756Y0052791D02*
X0060790Y0052791D01*
X0060790Y0053134D02*
X0059756Y0053134D01*
X0057788Y0053190D02*
X0057788Y0051762D01*
X0057788Y0053190D02*
X0058822Y0053190D01*
X0058822Y0051762D01*
X0057788Y0051762D01*
X0057788Y0052105D02*
X0058822Y0052105D01*
X0058822Y0052448D02*
X0057788Y0052448D01*
X0057788Y0052791D02*
X0058822Y0052791D01*
X0058822Y0053134D02*
X0057788Y0053134D01*
X0056991Y0055021D02*
X0055563Y0055021D01*
X0056991Y0055021D02*
X0056991Y0053987D01*
X0055563Y0053987D01*
X0055563Y0055021D01*
X0055563Y0054330D02*
X0056991Y0054330D01*
X0056991Y0054673D02*
X0055563Y0054673D01*
X0055563Y0055016D02*
X0056991Y0055016D01*
X0056991Y0056989D02*
X0055563Y0056989D01*
X0056991Y0056989D02*
X0056991Y0055955D01*
X0055563Y0055955D01*
X0055563Y0056989D01*
X0055563Y0056298D02*
X0056991Y0056298D01*
X0056991Y0056641D02*
X0055563Y0056641D01*
X0055563Y0056984D02*
X0056991Y0056984D01*
X0056991Y0058958D02*
X0055563Y0058958D01*
X0056991Y0058958D02*
X0056991Y0057924D01*
X0055563Y0057924D01*
X0055563Y0058958D01*
X0055563Y0058267D02*
X0056991Y0058267D01*
X0056991Y0058610D02*
X0055563Y0058610D01*
X0055563Y0058953D02*
X0056991Y0058953D01*
X0056991Y0060926D02*
X0055563Y0060926D01*
X0056991Y0060926D02*
X0056991Y0059892D01*
X0055563Y0059892D01*
X0055563Y0060926D01*
X0055563Y0060235D02*
X0056991Y0060235D01*
X0056991Y0060578D02*
X0055563Y0060578D01*
X0055563Y0060921D02*
X0056991Y0060921D01*
X0056991Y0062895D02*
X0055563Y0062895D01*
X0056991Y0062895D02*
X0056991Y0061861D01*
X0055563Y0061861D01*
X0055563Y0062895D01*
X0055563Y0062204D02*
X0056991Y0062204D01*
X0056991Y0062547D02*
X0055563Y0062547D01*
X0055563Y0062890D02*
X0056991Y0062890D01*
X0056991Y0064863D02*
X0055563Y0064863D01*
X0056991Y0064863D02*
X0056991Y0063829D01*
X0055563Y0063829D01*
X0055563Y0064863D01*
X0055563Y0064172D02*
X0056991Y0064172D01*
X0056991Y0064515D02*
X0055563Y0064515D01*
X0055563Y0064858D02*
X0056991Y0064858D01*
X0056991Y0066832D02*
X0055563Y0066832D01*
X0056991Y0066832D02*
X0056991Y0065798D01*
X0055563Y0065798D01*
X0055563Y0066832D01*
X0055563Y0066141D02*
X0056991Y0066141D01*
X0056991Y0066484D02*
X0055563Y0066484D01*
X0055563Y0066827D02*
X0056991Y0066827D01*
X0056991Y0068800D02*
X0055563Y0068800D01*
X0056991Y0068800D02*
X0056991Y0067766D01*
X0055563Y0067766D01*
X0055563Y0068800D01*
X0055563Y0068109D02*
X0056991Y0068109D01*
X0056991Y0068452D02*
X0055563Y0068452D01*
X0055563Y0068795D02*
X0056991Y0068795D01*
X0056991Y0070769D02*
X0055563Y0070769D01*
X0056991Y0070769D02*
X0056991Y0069735D01*
X0055563Y0069735D01*
X0055563Y0070769D01*
X0055563Y0070078D02*
X0056991Y0070078D01*
X0056991Y0070421D02*
X0055563Y0070421D01*
X0055563Y0070764D02*
X0056991Y0070764D01*
X0056991Y0072737D02*
X0055563Y0072737D01*
X0056991Y0072737D02*
X0056991Y0071703D01*
X0055563Y0071703D01*
X0055563Y0072737D01*
X0055563Y0072046D02*
X0056991Y0072046D01*
X0056991Y0072389D02*
X0055563Y0072389D01*
X0055563Y0072732D02*
X0056991Y0072732D01*
X0056991Y0074706D02*
X0055563Y0074706D01*
X0056991Y0074706D02*
X0056991Y0073672D01*
X0055563Y0073672D01*
X0055563Y0074706D01*
X0055563Y0074015D02*
X0056991Y0074015D01*
X0056991Y0074358D02*
X0055563Y0074358D01*
X0055563Y0074701D02*
X0056991Y0074701D01*
X0056991Y0076674D02*
X0055563Y0076674D01*
X0056991Y0076674D02*
X0056991Y0075640D01*
X0055563Y0075640D01*
X0055563Y0076674D01*
X0055563Y0075983D02*
X0056991Y0075983D01*
X0056991Y0076326D02*
X0055563Y0076326D01*
X0055563Y0076669D02*
X0056991Y0076669D01*
X0058822Y0077471D02*
X0058822Y0078899D01*
X0058822Y0077471D02*
X0057788Y0077471D01*
X0057788Y0078899D01*
X0058822Y0078899D01*
X0058822Y0077814D02*
X0057788Y0077814D01*
X0057788Y0078157D02*
X0058822Y0078157D01*
X0058822Y0078500D02*
X0057788Y0078500D01*
X0057788Y0078843D02*
X0058822Y0078843D01*
X0060790Y0078899D02*
X0060790Y0077471D01*
X0059756Y0077471D01*
X0059756Y0078899D01*
X0060790Y0078899D01*
X0060790Y0077814D02*
X0059756Y0077814D01*
X0059756Y0078157D02*
X0060790Y0078157D01*
X0060790Y0078500D02*
X0059756Y0078500D01*
X0059756Y0078843D02*
X0060790Y0078843D01*
X0062759Y0078899D02*
X0062759Y0077471D01*
X0061725Y0077471D01*
X0061725Y0078899D01*
X0062759Y0078899D01*
X0062759Y0077814D02*
X0061725Y0077814D01*
X0061725Y0078157D02*
X0062759Y0078157D01*
X0062759Y0078500D02*
X0061725Y0078500D01*
X0061725Y0078843D02*
X0062759Y0078843D01*
X0064727Y0078899D02*
X0064727Y0077471D01*
X0063693Y0077471D01*
X0063693Y0078899D01*
X0064727Y0078899D01*
X0064727Y0077814D02*
X0063693Y0077814D01*
X0063693Y0078157D02*
X0064727Y0078157D01*
X0064727Y0078500D02*
X0063693Y0078500D01*
X0063693Y0078843D02*
X0064727Y0078843D01*
X0066696Y0078899D02*
X0066696Y0077471D01*
X0065662Y0077471D01*
X0065662Y0078899D01*
X0066696Y0078899D01*
X0066696Y0077814D02*
X0065662Y0077814D01*
X0065662Y0078157D02*
X0066696Y0078157D01*
X0066696Y0078500D02*
X0065662Y0078500D01*
X0065662Y0078843D02*
X0066696Y0078843D01*
X0068664Y0078899D02*
X0068664Y0077471D01*
X0067630Y0077471D01*
X0067630Y0078899D01*
X0068664Y0078899D01*
X0068664Y0077814D02*
X0067630Y0077814D01*
X0067630Y0078157D02*
X0068664Y0078157D01*
X0068664Y0078500D02*
X0067630Y0078500D01*
X0067630Y0078843D02*
X0068664Y0078843D01*
X0070633Y0078899D02*
X0070633Y0077471D01*
X0069599Y0077471D01*
X0069599Y0078899D01*
X0070633Y0078899D01*
X0070633Y0077814D02*
X0069599Y0077814D01*
X0069599Y0078157D02*
X0070633Y0078157D01*
X0070633Y0078500D02*
X0069599Y0078500D01*
X0069599Y0078843D02*
X0070633Y0078843D01*
X0072601Y0078899D02*
X0072601Y0077471D01*
X0071567Y0077471D01*
X0071567Y0078899D01*
X0072601Y0078899D01*
X0072601Y0077814D02*
X0071567Y0077814D01*
X0071567Y0078157D02*
X0072601Y0078157D01*
X0072601Y0078500D02*
X0071567Y0078500D01*
X0071567Y0078843D02*
X0072601Y0078843D01*
D13*
X0077006Y0083835D03*
X0080943Y0083835D03*
X0067557Y0081866D03*
X0063620Y0081866D03*
X0055352Y0089740D03*
X0051415Y0089740D03*
X0052596Y0072024D03*
X0048659Y0072024D03*
X0077006Y0046827D03*
X0080943Y0046827D03*
X0080943Y0041709D03*
X0077006Y0041709D03*
X0087439Y0040134D03*
X0091376Y0040134D03*
X0091376Y0044504D03*
X0087439Y0044504D03*
X0087439Y0048992D03*
X0091376Y0048992D03*
D14*
X0069722Y0088756D03*
X0059880Y0088756D03*
D15*
X0054958Y0085803D03*
X0054958Y0081866D03*
X0052596Y0053913D03*
X0052596Y0049976D03*
X0069525Y0036984D03*
X0069525Y0033047D03*
X0085588Y0064071D03*
X0085588Y0068008D03*
X0092754Y0079110D03*
X0092754Y0083047D03*
D16*
X0090588Y0056472D03*
X0085470Y0056472D03*
D17*
X0051021Y0036591D03*
X0051021Y0029504D03*
X0043147Y0031472D03*
X0043147Y0038559D03*
D18*
X0073856Y0035803D03*
X0080943Y0035803D03*
X0089289Y0033441D03*
X0096376Y0033441D03*
D19*
X0064998Y0036413D03*
X0061257Y0036413D03*
X0057517Y0036413D03*
X0057517Y0027319D03*
X0061257Y0027319D03*
X0064998Y0027319D03*
D20*
X0074053Y0029110D03*
X0083108Y0029110D03*
D21*
X0035667Y0027732D03*
X0035667Y0036787D03*
M02*
