G75*
%MOIN*%
%OFA0B0*%
%FSLAX25Y25*%
%IPPOS*%
%LPD*%
%AMOC8*
5,1,8,0,0,1.08239X$1,22.5*
%
%ADD10C,0.00000*%
%ADD11C,0.00300*%
%ADD12C,0.00400*%
%ADD13C,0.00500*%
%ADD14R,0.02362X0.02362*%
%ADD15C,0.00800*%
%ADD16C,0.00984*%
%ADD17C,0.01600*%
%ADD18C,0.00600*%
%ADD19C,0.00787*%
D10*
X0029368Y0010142D02*
X0029368Y0088882D01*
X0100234Y0088882D01*
X0100234Y0010142D01*
X0029368Y0010142D01*
X0031375Y0012741D02*
X0031377Y0012789D01*
X0031383Y0012837D01*
X0031393Y0012884D01*
X0031406Y0012930D01*
X0031424Y0012975D01*
X0031444Y0013019D01*
X0031469Y0013061D01*
X0031497Y0013100D01*
X0031527Y0013137D01*
X0031561Y0013171D01*
X0031598Y0013203D01*
X0031636Y0013232D01*
X0031677Y0013257D01*
X0031720Y0013279D01*
X0031765Y0013297D01*
X0031811Y0013311D01*
X0031858Y0013322D01*
X0031906Y0013329D01*
X0031954Y0013332D01*
X0032002Y0013331D01*
X0032050Y0013326D01*
X0032098Y0013317D01*
X0032144Y0013305D01*
X0032189Y0013288D01*
X0032233Y0013268D01*
X0032275Y0013245D01*
X0032315Y0013218D01*
X0032353Y0013188D01*
X0032388Y0013155D01*
X0032420Y0013119D01*
X0032450Y0013081D01*
X0032476Y0013040D01*
X0032498Y0012997D01*
X0032518Y0012953D01*
X0032533Y0012908D01*
X0032545Y0012861D01*
X0032553Y0012813D01*
X0032557Y0012765D01*
X0032557Y0012717D01*
X0032553Y0012669D01*
X0032545Y0012621D01*
X0032533Y0012574D01*
X0032518Y0012529D01*
X0032498Y0012485D01*
X0032476Y0012442D01*
X0032450Y0012401D01*
X0032420Y0012363D01*
X0032388Y0012327D01*
X0032353Y0012294D01*
X0032315Y0012264D01*
X0032275Y0012237D01*
X0032233Y0012214D01*
X0032189Y0012194D01*
X0032144Y0012177D01*
X0032098Y0012165D01*
X0032050Y0012156D01*
X0032002Y0012151D01*
X0031954Y0012150D01*
X0031906Y0012153D01*
X0031858Y0012160D01*
X0031811Y0012171D01*
X0031765Y0012185D01*
X0031720Y0012203D01*
X0031677Y0012225D01*
X0031636Y0012250D01*
X0031598Y0012279D01*
X0031561Y0012311D01*
X0031527Y0012345D01*
X0031497Y0012382D01*
X0031469Y0012421D01*
X0031444Y0012463D01*
X0031424Y0012507D01*
X0031406Y0012552D01*
X0031393Y0012598D01*
X0031383Y0012645D01*
X0031377Y0012693D01*
X0031375Y0012741D01*
X0038777Y0012741D02*
X0038779Y0012789D01*
X0038785Y0012837D01*
X0038795Y0012884D01*
X0038808Y0012930D01*
X0038826Y0012975D01*
X0038846Y0013019D01*
X0038871Y0013061D01*
X0038899Y0013100D01*
X0038929Y0013137D01*
X0038963Y0013171D01*
X0039000Y0013203D01*
X0039038Y0013232D01*
X0039079Y0013257D01*
X0039122Y0013279D01*
X0039167Y0013297D01*
X0039213Y0013311D01*
X0039260Y0013322D01*
X0039308Y0013329D01*
X0039356Y0013332D01*
X0039404Y0013331D01*
X0039452Y0013326D01*
X0039500Y0013317D01*
X0039546Y0013305D01*
X0039591Y0013288D01*
X0039635Y0013268D01*
X0039677Y0013245D01*
X0039717Y0013218D01*
X0039755Y0013188D01*
X0039790Y0013155D01*
X0039822Y0013119D01*
X0039852Y0013081D01*
X0039878Y0013040D01*
X0039900Y0012997D01*
X0039920Y0012953D01*
X0039935Y0012908D01*
X0039947Y0012861D01*
X0039955Y0012813D01*
X0039959Y0012765D01*
X0039959Y0012717D01*
X0039955Y0012669D01*
X0039947Y0012621D01*
X0039935Y0012574D01*
X0039920Y0012529D01*
X0039900Y0012485D01*
X0039878Y0012442D01*
X0039852Y0012401D01*
X0039822Y0012363D01*
X0039790Y0012327D01*
X0039755Y0012294D01*
X0039717Y0012264D01*
X0039677Y0012237D01*
X0039635Y0012214D01*
X0039591Y0012194D01*
X0039546Y0012177D01*
X0039500Y0012165D01*
X0039452Y0012156D01*
X0039404Y0012151D01*
X0039356Y0012150D01*
X0039308Y0012153D01*
X0039260Y0012160D01*
X0039213Y0012171D01*
X0039167Y0012185D01*
X0039122Y0012203D01*
X0039079Y0012225D01*
X0039038Y0012250D01*
X0039000Y0012279D01*
X0038963Y0012311D01*
X0038929Y0012345D01*
X0038899Y0012382D01*
X0038871Y0012421D01*
X0038846Y0012463D01*
X0038826Y0012507D01*
X0038808Y0012552D01*
X0038795Y0012598D01*
X0038785Y0012645D01*
X0038779Y0012693D01*
X0038777Y0012741D01*
X0038777Y0020142D02*
X0038779Y0020190D01*
X0038785Y0020238D01*
X0038795Y0020285D01*
X0038808Y0020331D01*
X0038826Y0020376D01*
X0038846Y0020420D01*
X0038871Y0020462D01*
X0038899Y0020501D01*
X0038929Y0020538D01*
X0038963Y0020572D01*
X0039000Y0020604D01*
X0039038Y0020633D01*
X0039079Y0020658D01*
X0039122Y0020680D01*
X0039167Y0020698D01*
X0039213Y0020712D01*
X0039260Y0020723D01*
X0039308Y0020730D01*
X0039356Y0020733D01*
X0039404Y0020732D01*
X0039452Y0020727D01*
X0039500Y0020718D01*
X0039546Y0020706D01*
X0039591Y0020689D01*
X0039635Y0020669D01*
X0039677Y0020646D01*
X0039717Y0020619D01*
X0039755Y0020589D01*
X0039790Y0020556D01*
X0039822Y0020520D01*
X0039852Y0020482D01*
X0039878Y0020441D01*
X0039900Y0020398D01*
X0039920Y0020354D01*
X0039935Y0020309D01*
X0039947Y0020262D01*
X0039955Y0020214D01*
X0039959Y0020166D01*
X0039959Y0020118D01*
X0039955Y0020070D01*
X0039947Y0020022D01*
X0039935Y0019975D01*
X0039920Y0019930D01*
X0039900Y0019886D01*
X0039878Y0019843D01*
X0039852Y0019802D01*
X0039822Y0019764D01*
X0039790Y0019728D01*
X0039755Y0019695D01*
X0039717Y0019665D01*
X0039677Y0019638D01*
X0039635Y0019615D01*
X0039591Y0019595D01*
X0039546Y0019578D01*
X0039500Y0019566D01*
X0039452Y0019557D01*
X0039404Y0019552D01*
X0039356Y0019551D01*
X0039308Y0019554D01*
X0039260Y0019561D01*
X0039213Y0019572D01*
X0039167Y0019586D01*
X0039122Y0019604D01*
X0039079Y0019626D01*
X0039038Y0019651D01*
X0039000Y0019680D01*
X0038963Y0019712D01*
X0038929Y0019746D01*
X0038899Y0019783D01*
X0038871Y0019822D01*
X0038846Y0019864D01*
X0038826Y0019908D01*
X0038808Y0019953D01*
X0038795Y0019999D01*
X0038785Y0020046D01*
X0038779Y0020094D01*
X0038777Y0020142D01*
X0031375Y0020142D02*
X0031377Y0020190D01*
X0031383Y0020238D01*
X0031393Y0020285D01*
X0031406Y0020331D01*
X0031424Y0020376D01*
X0031444Y0020420D01*
X0031469Y0020462D01*
X0031497Y0020501D01*
X0031527Y0020538D01*
X0031561Y0020572D01*
X0031598Y0020604D01*
X0031636Y0020633D01*
X0031677Y0020658D01*
X0031720Y0020680D01*
X0031765Y0020698D01*
X0031811Y0020712D01*
X0031858Y0020723D01*
X0031906Y0020730D01*
X0031954Y0020733D01*
X0032002Y0020732D01*
X0032050Y0020727D01*
X0032098Y0020718D01*
X0032144Y0020706D01*
X0032189Y0020689D01*
X0032233Y0020669D01*
X0032275Y0020646D01*
X0032315Y0020619D01*
X0032353Y0020589D01*
X0032388Y0020556D01*
X0032420Y0020520D01*
X0032450Y0020482D01*
X0032476Y0020441D01*
X0032498Y0020398D01*
X0032518Y0020354D01*
X0032533Y0020309D01*
X0032545Y0020262D01*
X0032553Y0020214D01*
X0032557Y0020166D01*
X0032557Y0020118D01*
X0032553Y0020070D01*
X0032545Y0020022D01*
X0032533Y0019975D01*
X0032518Y0019930D01*
X0032498Y0019886D01*
X0032476Y0019843D01*
X0032450Y0019802D01*
X0032420Y0019764D01*
X0032388Y0019728D01*
X0032353Y0019695D01*
X0032315Y0019665D01*
X0032275Y0019638D01*
X0032233Y0019615D01*
X0032189Y0019595D01*
X0032144Y0019578D01*
X0032098Y0019566D01*
X0032050Y0019557D01*
X0032002Y0019552D01*
X0031954Y0019551D01*
X0031906Y0019554D01*
X0031858Y0019561D01*
X0031811Y0019572D01*
X0031765Y0019586D01*
X0031720Y0019604D01*
X0031677Y0019626D01*
X0031636Y0019651D01*
X0031598Y0019680D01*
X0031561Y0019712D01*
X0031527Y0019746D01*
X0031497Y0019783D01*
X0031469Y0019822D01*
X0031444Y0019864D01*
X0031424Y0019908D01*
X0031406Y0019953D01*
X0031393Y0019999D01*
X0031383Y0020046D01*
X0031377Y0020094D01*
X0031375Y0020142D01*
X0089643Y0020142D02*
X0089645Y0020190D01*
X0089651Y0020238D01*
X0089661Y0020285D01*
X0089674Y0020331D01*
X0089692Y0020376D01*
X0089712Y0020420D01*
X0089737Y0020462D01*
X0089765Y0020501D01*
X0089795Y0020538D01*
X0089829Y0020572D01*
X0089866Y0020604D01*
X0089904Y0020633D01*
X0089945Y0020658D01*
X0089988Y0020680D01*
X0090033Y0020698D01*
X0090079Y0020712D01*
X0090126Y0020723D01*
X0090174Y0020730D01*
X0090222Y0020733D01*
X0090270Y0020732D01*
X0090318Y0020727D01*
X0090366Y0020718D01*
X0090412Y0020706D01*
X0090457Y0020689D01*
X0090501Y0020669D01*
X0090543Y0020646D01*
X0090583Y0020619D01*
X0090621Y0020589D01*
X0090656Y0020556D01*
X0090688Y0020520D01*
X0090718Y0020482D01*
X0090744Y0020441D01*
X0090766Y0020398D01*
X0090786Y0020354D01*
X0090801Y0020309D01*
X0090813Y0020262D01*
X0090821Y0020214D01*
X0090825Y0020166D01*
X0090825Y0020118D01*
X0090821Y0020070D01*
X0090813Y0020022D01*
X0090801Y0019975D01*
X0090786Y0019930D01*
X0090766Y0019886D01*
X0090744Y0019843D01*
X0090718Y0019802D01*
X0090688Y0019764D01*
X0090656Y0019728D01*
X0090621Y0019695D01*
X0090583Y0019665D01*
X0090543Y0019638D01*
X0090501Y0019615D01*
X0090457Y0019595D01*
X0090412Y0019578D01*
X0090366Y0019566D01*
X0090318Y0019557D01*
X0090270Y0019552D01*
X0090222Y0019551D01*
X0090174Y0019554D01*
X0090126Y0019561D01*
X0090079Y0019572D01*
X0090033Y0019586D01*
X0089988Y0019604D01*
X0089945Y0019626D01*
X0089904Y0019651D01*
X0089866Y0019680D01*
X0089829Y0019712D01*
X0089795Y0019746D01*
X0089765Y0019783D01*
X0089737Y0019822D01*
X0089712Y0019864D01*
X0089692Y0019908D01*
X0089674Y0019953D01*
X0089661Y0019999D01*
X0089651Y0020046D01*
X0089645Y0020094D01*
X0089643Y0020142D01*
X0089643Y0012741D02*
X0089645Y0012789D01*
X0089651Y0012837D01*
X0089661Y0012884D01*
X0089674Y0012930D01*
X0089692Y0012975D01*
X0089712Y0013019D01*
X0089737Y0013061D01*
X0089765Y0013100D01*
X0089795Y0013137D01*
X0089829Y0013171D01*
X0089866Y0013203D01*
X0089904Y0013232D01*
X0089945Y0013257D01*
X0089988Y0013279D01*
X0090033Y0013297D01*
X0090079Y0013311D01*
X0090126Y0013322D01*
X0090174Y0013329D01*
X0090222Y0013332D01*
X0090270Y0013331D01*
X0090318Y0013326D01*
X0090366Y0013317D01*
X0090412Y0013305D01*
X0090457Y0013288D01*
X0090501Y0013268D01*
X0090543Y0013245D01*
X0090583Y0013218D01*
X0090621Y0013188D01*
X0090656Y0013155D01*
X0090688Y0013119D01*
X0090718Y0013081D01*
X0090744Y0013040D01*
X0090766Y0012997D01*
X0090786Y0012953D01*
X0090801Y0012908D01*
X0090813Y0012861D01*
X0090821Y0012813D01*
X0090825Y0012765D01*
X0090825Y0012717D01*
X0090821Y0012669D01*
X0090813Y0012621D01*
X0090801Y0012574D01*
X0090786Y0012529D01*
X0090766Y0012485D01*
X0090744Y0012442D01*
X0090718Y0012401D01*
X0090688Y0012363D01*
X0090656Y0012327D01*
X0090621Y0012294D01*
X0090583Y0012264D01*
X0090543Y0012237D01*
X0090501Y0012214D01*
X0090457Y0012194D01*
X0090412Y0012177D01*
X0090366Y0012165D01*
X0090318Y0012156D01*
X0090270Y0012151D01*
X0090222Y0012150D01*
X0090174Y0012153D01*
X0090126Y0012160D01*
X0090079Y0012171D01*
X0090033Y0012185D01*
X0089988Y0012203D01*
X0089945Y0012225D01*
X0089904Y0012250D01*
X0089866Y0012279D01*
X0089829Y0012311D01*
X0089795Y0012345D01*
X0089765Y0012382D01*
X0089737Y0012421D01*
X0089712Y0012463D01*
X0089692Y0012507D01*
X0089674Y0012552D01*
X0089661Y0012598D01*
X0089651Y0012645D01*
X0089645Y0012693D01*
X0089643Y0012741D01*
X0097044Y0012741D02*
X0097046Y0012789D01*
X0097052Y0012837D01*
X0097062Y0012884D01*
X0097075Y0012930D01*
X0097093Y0012975D01*
X0097113Y0013019D01*
X0097138Y0013061D01*
X0097166Y0013100D01*
X0097196Y0013137D01*
X0097230Y0013171D01*
X0097267Y0013203D01*
X0097305Y0013232D01*
X0097346Y0013257D01*
X0097389Y0013279D01*
X0097434Y0013297D01*
X0097480Y0013311D01*
X0097527Y0013322D01*
X0097575Y0013329D01*
X0097623Y0013332D01*
X0097671Y0013331D01*
X0097719Y0013326D01*
X0097767Y0013317D01*
X0097813Y0013305D01*
X0097858Y0013288D01*
X0097902Y0013268D01*
X0097944Y0013245D01*
X0097984Y0013218D01*
X0098022Y0013188D01*
X0098057Y0013155D01*
X0098089Y0013119D01*
X0098119Y0013081D01*
X0098145Y0013040D01*
X0098167Y0012997D01*
X0098187Y0012953D01*
X0098202Y0012908D01*
X0098214Y0012861D01*
X0098222Y0012813D01*
X0098226Y0012765D01*
X0098226Y0012717D01*
X0098222Y0012669D01*
X0098214Y0012621D01*
X0098202Y0012574D01*
X0098187Y0012529D01*
X0098167Y0012485D01*
X0098145Y0012442D01*
X0098119Y0012401D01*
X0098089Y0012363D01*
X0098057Y0012327D01*
X0098022Y0012294D01*
X0097984Y0012264D01*
X0097944Y0012237D01*
X0097902Y0012214D01*
X0097858Y0012194D01*
X0097813Y0012177D01*
X0097767Y0012165D01*
X0097719Y0012156D01*
X0097671Y0012151D01*
X0097623Y0012150D01*
X0097575Y0012153D01*
X0097527Y0012160D01*
X0097480Y0012171D01*
X0097434Y0012185D01*
X0097389Y0012203D01*
X0097346Y0012225D01*
X0097305Y0012250D01*
X0097267Y0012279D01*
X0097230Y0012311D01*
X0097196Y0012345D01*
X0097166Y0012382D01*
X0097138Y0012421D01*
X0097113Y0012463D01*
X0097093Y0012507D01*
X0097075Y0012552D01*
X0097062Y0012598D01*
X0097052Y0012645D01*
X0097046Y0012693D01*
X0097044Y0012741D01*
X0097044Y0020142D02*
X0097046Y0020190D01*
X0097052Y0020238D01*
X0097062Y0020285D01*
X0097075Y0020331D01*
X0097093Y0020376D01*
X0097113Y0020420D01*
X0097138Y0020462D01*
X0097166Y0020501D01*
X0097196Y0020538D01*
X0097230Y0020572D01*
X0097267Y0020604D01*
X0097305Y0020633D01*
X0097346Y0020658D01*
X0097389Y0020680D01*
X0097434Y0020698D01*
X0097480Y0020712D01*
X0097527Y0020723D01*
X0097575Y0020730D01*
X0097623Y0020733D01*
X0097671Y0020732D01*
X0097719Y0020727D01*
X0097767Y0020718D01*
X0097813Y0020706D01*
X0097858Y0020689D01*
X0097902Y0020669D01*
X0097944Y0020646D01*
X0097984Y0020619D01*
X0098022Y0020589D01*
X0098057Y0020556D01*
X0098089Y0020520D01*
X0098119Y0020482D01*
X0098145Y0020441D01*
X0098167Y0020398D01*
X0098187Y0020354D01*
X0098202Y0020309D01*
X0098214Y0020262D01*
X0098222Y0020214D01*
X0098226Y0020166D01*
X0098226Y0020118D01*
X0098222Y0020070D01*
X0098214Y0020022D01*
X0098202Y0019975D01*
X0098187Y0019930D01*
X0098167Y0019886D01*
X0098145Y0019843D01*
X0098119Y0019802D01*
X0098089Y0019764D01*
X0098057Y0019728D01*
X0098022Y0019695D01*
X0097984Y0019665D01*
X0097944Y0019638D01*
X0097902Y0019615D01*
X0097858Y0019595D01*
X0097813Y0019578D01*
X0097767Y0019566D01*
X0097719Y0019557D01*
X0097671Y0019552D01*
X0097623Y0019551D01*
X0097575Y0019554D01*
X0097527Y0019561D01*
X0097480Y0019572D01*
X0097434Y0019586D01*
X0097389Y0019604D01*
X0097346Y0019626D01*
X0097305Y0019651D01*
X0097267Y0019680D01*
X0097230Y0019712D01*
X0097196Y0019746D01*
X0097166Y0019783D01*
X0097138Y0019822D01*
X0097113Y0019864D01*
X0097093Y0019908D01*
X0097075Y0019953D01*
X0097062Y0019999D01*
X0097052Y0020046D01*
X0097046Y0020094D01*
X0097044Y0020142D01*
D11*
X0046311Y0036670D02*
X0046311Y0040310D01*
X0044490Y0040310D01*
X0043884Y0039704D01*
X0043884Y0038490D01*
X0044490Y0037884D01*
X0046311Y0037884D01*
X0042685Y0039097D02*
X0041472Y0040310D01*
X0041472Y0036670D01*
X0042685Y0036670D02*
X0040259Y0036670D01*
X0040865Y0041395D02*
X0040259Y0042001D01*
X0040259Y0044428D01*
X0040865Y0045035D01*
X0042079Y0045035D01*
X0042685Y0044428D01*
X0042685Y0043821D01*
X0042079Y0043215D01*
X0040259Y0043215D01*
X0040865Y0041395D02*
X0042079Y0041395D01*
X0042685Y0042001D01*
X0043884Y0041395D02*
X0046311Y0041395D01*
X0045097Y0041395D02*
X0045097Y0045035D01*
X0046311Y0043821D01*
X0045917Y0046119D02*
X0045917Y0049759D01*
X0044097Y0049759D01*
X0043490Y0049152D01*
X0043490Y0047939D01*
X0044097Y0047332D01*
X0045917Y0047332D01*
X0045917Y0050843D02*
X0043490Y0050843D01*
X0042292Y0050843D02*
X0039865Y0053270D01*
X0039865Y0053877D01*
X0040472Y0054484D01*
X0041685Y0054484D01*
X0042292Y0053877D01*
X0043490Y0053877D02*
X0044097Y0054484D01*
X0045310Y0054484D01*
X0045917Y0053877D01*
X0043490Y0053877D02*
X0043490Y0053270D01*
X0045917Y0050843D01*
X0042292Y0050843D02*
X0039865Y0050843D01*
X0040472Y0049759D02*
X0041685Y0049759D01*
X0042292Y0049152D01*
X0040472Y0049759D02*
X0039865Y0049152D01*
X0039865Y0048546D01*
X0042292Y0046119D01*
X0039865Y0046119D01*
X0040865Y0055962D02*
X0042079Y0055962D01*
X0042685Y0056568D01*
X0041472Y0057782D02*
X0040865Y0057782D01*
X0040259Y0057175D01*
X0040259Y0056568D01*
X0040865Y0055962D01*
X0040865Y0057782D02*
X0040259Y0058388D01*
X0040259Y0058995D01*
X0040865Y0059602D01*
X0042079Y0059602D01*
X0042685Y0058995D01*
X0042685Y0060686D02*
X0040259Y0064326D01*
X0040259Y0066591D02*
X0042685Y0066591D01*
X0041472Y0066591D02*
X0041472Y0070232D01*
X0042685Y0069018D01*
X0042685Y0070922D02*
X0040259Y0074562D01*
X0042685Y0074562D02*
X0040259Y0070922D01*
X0045097Y0070922D02*
X0045097Y0074562D01*
X0043884Y0074562D02*
X0046311Y0074562D01*
X0045917Y0080371D02*
X0045917Y0084011D01*
X0043490Y0080371D01*
X0043490Y0084011D01*
X0042292Y0084011D02*
X0040472Y0084011D01*
X0039865Y0083404D01*
X0039865Y0080978D01*
X0040472Y0080371D01*
X0042292Y0080371D01*
X0042292Y0084011D01*
X0047115Y0083404D02*
X0047722Y0084011D01*
X0048935Y0084011D01*
X0049542Y0083404D01*
X0049542Y0080978D01*
X0048935Y0080371D01*
X0047722Y0080371D01*
X0047115Y0080978D01*
X0047115Y0082191D01*
X0048329Y0082191D01*
X0046311Y0064326D02*
X0044490Y0064326D01*
X0043884Y0063719D01*
X0043884Y0062506D01*
X0044490Y0061899D01*
X0046311Y0061899D01*
X0046311Y0060686D02*
X0046311Y0064326D01*
X0045097Y0061899D02*
X0043884Y0060686D01*
X0040259Y0060686D02*
X0042685Y0064326D01*
X0037567Y0026137D02*
X0037567Y0023710D01*
X0036354Y0022497D01*
X0035141Y0023710D01*
X0035141Y0026137D01*
X0032729Y0025530D02*
X0032729Y0023104D01*
X0033942Y0024317D02*
X0031515Y0024317D01*
D12*
X0094922Y0039279D02*
X0095512Y0038689D01*
X0094922Y0039279D02*
X0094922Y0040459D01*
X0095512Y0041049D01*
X0096102Y0041049D01*
X0096692Y0040459D01*
X0096692Y0039279D01*
X0097282Y0038689D01*
X0097872Y0038689D01*
X0098462Y0039279D01*
X0098462Y0040459D01*
X0097872Y0041049D01*
X0098462Y0042314D02*
X0094922Y0042314D01*
X0096692Y0042314D02*
X0096692Y0044674D01*
X0096102Y0045939D02*
X0096102Y0047709D01*
X0096692Y0048299D01*
X0097872Y0048299D01*
X0098462Y0047709D01*
X0098462Y0045939D01*
X0094922Y0045939D01*
X0094922Y0044674D02*
X0098462Y0044674D01*
X0096102Y0047119D02*
X0094922Y0048299D01*
X0094922Y0049564D02*
X0094922Y0051924D01*
X0094922Y0053189D02*
X0096102Y0054369D01*
X0094922Y0055549D01*
X0098462Y0055549D01*
X0096692Y0056814D02*
X0096692Y0059174D01*
X0095512Y0060440D02*
X0094922Y0060440D01*
X0094922Y0062800D01*
X0094922Y0064065D02*
X0094922Y0066425D01*
X0094922Y0067690D02*
X0098462Y0067690D01*
X0098462Y0069460D01*
X0097872Y0070050D01*
X0096692Y0070050D01*
X0096102Y0069460D01*
X0096102Y0067690D01*
X0096102Y0068870D02*
X0094922Y0070050D01*
X0095512Y0071315D02*
X0094922Y0071905D01*
X0094922Y0073085D01*
X0095512Y0073675D01*
X0097872Y0073675D01*
X0098462Y0073085D01*
X0098462Y0071905D01*
X0097872Y0071315D01*
X0095512Y0071315D01*
X0098462Y0066425D02*
X0098462Y0064065D01*
X0094922Y0064065D01*
X0096692Y0064065D02*
X0096692Y0065245D01*
X0097872Y0062800D02*
X0095512Y0060440D01*
X0098462Y0060440D02*
X0098462Y0062800D01*
X0097872Y0062800D01*
X0098462Y0053189D02*
X0094922Y0053189D01*
X0096692Y0050744D02*
X0096692Y0049564D01*
X0098462Y0049564D02*
X0094922Y0049564D01*
X0098462Y0049564D02*
X0098462Y0051924D01*
D13*
X0082911Y0048548D02*
X0082911Y0047544D01*
X0081907Y0047544D01*
X0067419Y0031008D02*
X0067419Y0024709D01*
X0076612Y0025103D02*
X0078974Y0026284D01*
X0078974Y0023922D01*
X0076612Y0025103D01*
X0055096Y0024709D02*
X0055096Y0031008D01*
X0055352Y0047544D02*
X0055352Y0048548D01*
X0055352Y0047544D02*
X0056356Y0047544D01*
X0054958Y0074099D02*
X0054958Y0075497D01*
X0056356Y0075497D01*
X0081907Y0075103D02*
X0082911Y0075103D01*
X0082911Y0074099D01*
D14*
X0055352Y0075103D03*
D15*
X0062801Y0081249D02*
X0066801Y0081249D01*
X0066801Y0088249D02*
X0062801Y0088249D01*
X0075037Y0027662D02*
X0076612Y0027662D01*
X0076612Y0025103D01*
X0076612Y0022544D01*
X0082124Y0022544D01*
X0082124Y0027662D02*
X0076612Y0027662D01*
X0076612Y0022544D02*
X0075037Y0022544D01*
D16*
X0063226Y0083961D02*
X0063226Y0085536D01*
D17*
X0088029Y0052585D02*
X0088029Y0052345D01*
D18*
X0078580Y0034158D02*
X0076218Y0034158D01*
X0076218Y0029434D02*
X0078580Y0029434D01*
X0091651Y0031796D02*
X0094013Y0031796D01*
X0094013Y0027071D02*
X0091651Y0027071D01*
X0053383Y0027859D02*
X0053383Y0030221D01*
X0048659Y0030221D02*
X0048659Y0027859D01*
X0045509Y0027859D02*
X0045509Y0030221D01*
X0040785Y0030221D02*
X0040785Y0027859D01*
D19*
X0067556Y0021441D02*
X0067558Y0021480D01*
X0067564Y0021519D01*
X0067574Y0021557D01*
X0067587Y0021594D01*
X0067604Y0021629D01*
X0067624Y0021663D01*
X0067648Y0021694D01*
X0067675Y0021723D01*
X0067704Y0021749D01*
X0067736Y0021772D01*
X0067770Y0021792D01*
X0067806Y0021808D01*
X0067843Y0021820D01*
X0067882Y0021829D01*
X0067921Y0021834D01*
X0067960Y0021835D01*
X0067999Y0021832D01*
X0068038Y0021825D01*
X0068075Y0021814D01*
X0068112Y0021800D01*
X0068147Y0021782D01*
X0068180Y0021761D01*
X0068211Y0021736D01*
X0068239Y0021709D01*
X0068264Y0021679D01*
X0068286Y0021646D01*
X0068305Y0021612D01*
X0068320Y0021576D01*
X0068332Y0021538D01*
X0068340Y0021500D01*
X0068344Y0021461D01*
X0068344Y0021421D01*
X0068340Y0021382D01*
X0068332Y0021344D01*
X0068320Y0021306D01*
X0068305Y0021270D01*
X0068286Y0021236D01*
X0068264Y0021203D01*
X0068239Y0021173D01*
X0068211Y0021146D01*
X0068180Y0021121D01*
X0068147Y0021100D01*
X0068112Y0021082D01*
X0068075Y0021068D01*
X0068038Y0021057D01*
X0067999Y0021050D01*
X0067960Y0021047D01*
X0067921Y0021048D01*
X0067882Y0021053D01*
X0067843Y0021062D01*
X0067806Y0021074D01*
X0067770Y0021090D01*
X0067736Y0021110D01*
X0067704Y0021133D01*
X0067675Y0021159D01*
X0067648Y0021188D01*
X0067624Y0021219D01*
X0067604Y0021253D01*
X0067587Y0021288D01*
X0067574Y0021325D01*
X0067564Y0021363D01*
X0067558Y0021402D01*
X0067556Y0021441D01*
M02*
