G04 This is an RS-274x file exported by *
G04 gerbv version 2.6A *
G04 More information is available about gerbv at *
G04 http://gerbv.geda-project.org/ *
G04 --End of header info--*
%MOIN*%
%FSLAX34Y34*%
%IPPOS*%
G04 --Define apertures--*
%ADD10C,0.0000*%
%ADD11C,0.0600*%
%ADD12C,0.0791*%
%ADD13C,0.0221*%
%ADD14C,0.0100*%
%ADD15C,0.0060*%
G04 --Start main section--*
G54D10*
G01X0002937Y0000815D02*
G01X0002937Y0008689D01*
G01X0002937Y0008689D02*
G01X0010023Y0008689D01*
G01X0010023Y0008689D02*
G01X0010023Y0000815D01*
G01X0010023Y0000815D02*
G01X0002937Y0000815D01*
G01X0003137Y0001074D02*
G01X0003138Y0001079D01*
G01X0003138Y0001079D02*
G01X0003138Y0001084D01*
G01X0003138Y0001084D02*
G01X0003139Y0001089D01*
G01X0003139Y0001089D02*
G01X0003141Y0001093D01*
G01X0003141Y0001093D02*
G01X0003142Y0001098D01*
G01X0003142Y0001098D02*
G01X0003144Y0001102D01*
G01X0003144Y0001102D02*
G01X0003147Y0001106D01*
G01X0003147Y0001106D02*
G01X0003150Y0001110D01*
G01X0003150Y0001110D02*
G01X0003153Y0001114D01*
G01X0003153Y0001114D02*
G01X0003156Y0001117D01*
G01X0003156Y0001117D02*
G01X0003160Y0001121D01*
G01X0003160Y0001121D02*
G01X0003164Y0001123D01*
G01X0003164Y0001123D02*
G01X0003168Y0001126D01*
G01X0003168Y0001126D02*
G01X0003172Y0001128D01*
G01X0003172Y0001128D02*
G01X0003177Y0001130D01*
G01X0003177Y0001130D02*
G01X0003181Y0001131D01*
G01X0003181Y0001131D02*
G01X0003186Y0001132D01*
G01X0003186Y0001132D02*
G01X0003191Y0001133D01*
G01X0003191Y0001133D02*
G01X0003195Y0001133D01*
G01X0003195Y0001133D02*
G01X0003200Y0001133D01*
G01X0003200Y0001133D02*
G01X0003205Y0001133D01*
G01X0003205Y0001133D02*
G01X0003210Y0001132D01*
G01X0003210Y0001132D02*
G01X0003214Y0001131D01*
G01X0003214Y0001131D02*
G01X0003219Y0001129D01*
G01X0003219Y0001129D02*
G01X0003223Y0001127D01*
G01X0003223Y0001127D02*
G01X0003228Y0001125D01*
G01X0003228Y0001125D02*
G01X0003232Y0001122D01*
G01X0003232Y0001122D02*
G01X0003235Y0001119D01*
G01X0003235Y0001119D02*
G01X0003239Y0001116D01*
G01X0003239Y0001116D02*
G01X0003242Y0001112D01*
G01X0003242Y0001112D02*
G01X0003245Y0001108D01*
G01X0003245Y0001108D02*
G01X0003248Y0001104D01*
G01X0003248Y0001104D02*
G01X0003250Y0001100D01*
G01X0003250Y0001100D02*
G01X0003252Y0001096D01*
G01X0003252Y0001096D02*
G01X0003253Y0001091D01*
G01X0003253Y0001091D02*
G01X0003255Y0001086D01*
G01X0003255Y0001086D02*
G01X0003255Y0001082D01*
G01X0003255Y0001082D02*
G01X0003256Y0001077D01*
G01X0003256Y0001077D02*
G01X0003256Y0001072D01*
G01X0003256Y0001072D02*
G01X0003255Y0001067D01*
G01X0003255Y0001067D02*
G01X0003255Y0001062D01*
G01X0003255Y0001062D02*
G01X0003253Y0001058D01*
G01X0003253Y0001058D02*
G01X0003252Y0001053D01*
G01X0003252Y0001053D02*
G01X0003250Y0001049D01*
G01X0003250Y0001049D02*
G01X0003248Y0001044D01*
G01X0003248Y0001044D02*
G01X0003245Y0001040D01*
G01X0003245Y0001040D02*
G01X0003242Y0001037D01*
G01X0003242Y0001037D02*
G01X0003239Y0001033D01*
G01X0003239Y0001033D02*
G01X0003235Y0001030D01*
G01X0003235Y0001030D02*
G01X0003232Y0001027D01*
G01X0003232Y0001027D02*
G01X0003228Y0001024D01*
G01X0003228Y0001024D02*
G01X0003223Y0001022D01*
G01X0003223Y0001022D02*
G01X0003219Y0001020D01*
G01X0003219Y0001020D02*
G01X0003214Y0001018D01*
G01X0003214Y0001018D02*
G01X0003210Y0001017D01*
G01X0003210Y0001017D02*
G01X0003205Y0001016D01*
G01X0003205Y0001016D02*
G01X0003200Y0001015D01*
G01X0003200Y0001015D02*
G01X0003195Y0001015D01*
G01X0003195Y0001015D02*
G01X0003191Y0001016D01*
G01X0003191Y0001016D02*
G01X0003186Y0001016D01*
G01X0003186Y0001016D02*
G01X0003181Y0001017D01*
G01X0003181Y0001017D02*
G01X0003177Y0001019D01*
G01X0003177Y0001019D02*
G01X0003172Y0001021D01*
G01X0003172Y0001021D02*
G01X0003168Y0001023D01*
G01X0003168Y0001023D02*
G01X0003164Y0001025D01*
G01X0003164Y0001025D02*
G01X0003160Y0001028D01*
G01X0003160Y0001028D02*
G01X0003156Y0001031D01*
G01X0003156Y0001031D02*
G01X0003153Y0001035D01*
G01X0003153Y0001035D02*
G01X0003150Y0001038D01*
G01X0003150Y0001038D02*
G01X0003147Y0001042D01*
G01X0003147Y0001042D02*
G01X0003144Y0001047D01*
G01X0003144Y0001047D02*
G01X0003142Y0001051D01*
G01X0003142Y0001051D02*
G01X0003141Y0001055D01*
G01X0003141Y0001055D02*
G01X0003139Y0001060D01*
G01X0003139Y0001060D02*
G01X0003138Y0001065D01*
G01X0003138Y0001065D02*
G01X0003138Y0001070D01*
G01X0003138Y0001070D02*
G01X0003137Y0001074D01*
G01X0003878Y0001074D02*
G01X0003878Y0001079D01*
G01X0003878Y0001079D02*
G01X0003878Y0001084D01*
G01X0003878Y0001084D02*
G01X0003880Y0001089D01*
G01X0003880Y0001089D02*
G01X0003881Y0001093D01*
G01X0003881Y0001093D02*
G01X0003883Y0001098D01*
G01X0003883Y0001098D02*
G01X0003885Y0001102D01*
G01X0003885Y0001102D02*
G01X0003887Y0001106D01*
G01X0003887Y0001106D02*
G01X0003890Y0001110D01*
G01X0003890Y0001110D02*
G01X0003893Y0001114D01*
G01X0003893Y0001114D02*
G01X0003896Y0001117D01*
G01X0003896Y0001117D02*
G01X0003900Y0001121D01*
G01X0003900Y0001121D02*
G01X0003904Y0001123D01*
G01X0003904Y0001123D02*
G01X0003908Y0001126D01*
G01X0003908Y0001126D02*
G01X0003912Y0001128D01*
G01X0003912Y0001128D02*
G01X0003917Y0001130D01*
G01X0003917Y0001130D02*
G01X0003921Y0001131D01*
G01X0003921Y0001131D02*
G01X0003926Y0001132D01*
G01X0003926Y0001132D02*
G01X0003931Y0001133D01*
G01X0003931Y0001133D02*
G01X0003936Y0001133D01*
G01X0003936Y0001133D02*
G01X0003940Y0001133D01*
G01X0003940Y0001133D02*
G01X0003945Y0001133D01*
G01X0003945Y0001133D02*
G01X0003950Y0001132D01*
G01X0003950Y0001132D02*
G01X0003955Y0001131D01*
G01X0003955Y0001131D02*
G01X0003959Y0001129D01*
G01X0003959Y0001129D02*
G01X0003964Y0001127D01*
G01X0003964Y0001127D02*
G01X0003968Y0001125D01*
G01X0003968Y0001125D02*
G01X0003972Y0001122D01*
G01X0003972Y0001122D02*
G01X0003976Y0001119D01*
G01X0003976Y0001119D02*
G01X0003979Y0001116D01*
G01X0003979Y0001116D02*
G01X0003982Y0001112D01*
G01X0003982Y0001112D02*
G01X0003985Y0001108D01*
G01X0003985Y0001108D02*
G01X0003988Y0001104D01*
G01X0003988Y0001104D02*
G01X0003990Y0001100D01*
G01X0003990Y0001100D02*
G01X0003992Y0001096D01*
G01X0003992Y0001096D02*
G01X0003994Y0001091D01*
G01X0003994Y0001091D02*
G01X0003995Y0001086D01*
G01X0003995Y0001086D02*
G01X0003996Y0001082D01*
G01X0003996Y0001082D02*
G01X0003996Y0001077D01*
G01X0003996Y0001077D02*
G01X0003996Y0001072D01*
G01X0003996Y0001072D02*
G01X0003996Y0001067D01*
G01X0003996Y0001067D02*
G01X0003995Y0001062D01*
G01X0003995Y0001062D02*
G01X0003994Y0001058D01*
G01X0003994Y0001058D02*
G01X0003992Y0001053D01*
G01X0003992Y0001053D02*
G01X0003990Y0001049D01*
G01X0003990Y0001049D02*
G01X0003988Y0001044D01*
G01X0003988Y0001044D02*
G01X0003985Y0001040D01*
G01X0003985Y0001040D02*
G01X0003982Y0001037D01*
G01X0003982Y0001037D02*
G01X0003979Y0001033D01*
G01X0003979Y0001033D02*
G01X0003976Y0001030D01*
G01X0003976Y0001030D02*
G01X0003972Y0001027D01*
G01X0003972Y0001027D02*
G01X0003968Y0001024D01*
G01X0003968Y0001024D02*
G01X0003964Y0001022D01*
G01X0003964Y0001022D02*
G01X0003959Y0001020D01*
G01X0003959Y0001020D02*
G01X0003955Y0001018D01*
G01X0003955Y0001018D02*
G01X0003950Y0001017D01*
G01X0003950Y0001017D02*
G01X0003945Y0001016D01*
G01X0003945Y0001016D02*
G01X0003940Y0001015D01*
G01X0003940Y0001015D02*
G01X0003936Y0001015D01*
G01X0003936Y0001015D02*
G01X0003931Y0001016D01*
G01X0003931Y0001016D02*
G01X0003926Y0001016D01*
G01X0003926Y0001016D02*
G01X0003921Y0001017D01*
G01X0003921Y0001017D02*
G01X0003917Y0001019D01*
G01X0003917Y0001019D02*
G01X0003912Y0001021D01*
G01X0003912Y0001021D02*
G01X0003908Y0001023D01*
G01X0003908Y0001023D02*
G01X0003904Y0001025D01*
G01X0003904Y0001025D02*
G01X0003900Y0001028D01*
G01X0003900Y0001028D02*
G01X0003896Y0001031D01*
G01X0003896Y0001031D02*
G01X0003893Y0001035D01*
G01X0003893Y0001035D02*
G01X0003890Y0001038D01*
G01X0003890Y0001038D02*
G01X0003887Y0001042D01*
G01X0003887Y0001042D02*
G01X0003885Y0001047D01*
G01X0003885Y0001047D02*
G01X0003883Y0001051D01*
G01X0003883Y0001051D02*
G01X0003881Y0001055D01*
G01X0003881Y0001055D02*
G01X0003880Y0001060D01*
G01X0003880Y0001060D02*
G01X0003878Y0001065D01*
G01X0003878Y0001065D02*
G01X0003878Y0001070D01*
G01X0003878Y0001070D02*
G01X0003878Y0001074D01*
G01X0003878Y0001815D02*
G01X0003878Y0001819D01*
G01X0003878Y0001819D02*
G01X0003878Y0001824D01*
G01X0003878Y0001824D02*
G01X0003880Y0001829D01*
G01X0003880Y0001829D02*
G01X0003881Y0001833D01*
G01X0003881Y0001833D02*
G01X0003883Y0001838D01*
G01X0003883Y0001838D02*
G01X0003885Y0001842D01*
G01X0003885Y0001842D02*
G01X0003887Y0001847D01*
G01X0003887Y0001847D02*
G01X0003890Y0001850D01*
G01X0003890Y0001850D02*
G01X0003893Y0001854D01*
G01X0003893Y0001854D02*
G01X0003896Y0001858D01*
G01X0003896Y0001858D02*
G01X0003900Y0001861D01*
G01X0003900Y0001861D02*
G01X0003904Y0001864D01*
G01X0003904Y0001864D02*
G01X0003908Y0001866D01*
G01X0003908Y0001866D02*
G01X0003912Y0001868D01*
G01X0003912Y0001868D02*
G01X0003917Y0001870D01*
G01X0003917Y0001870D02*
G01X0003921Y0001872D01*
G01X0003921Y0001872D02*
G01X0003926Y0001873D01*
G01X0003926Y0001873D02*
G01X0003931Y0001873D01*
G01X0003931Y0001873D02*
G01X0003936Y0001874D01*
G01X0003936Y0001874D02*
G01X0003940Y0001874D01*
G01X0003940Y0001874D02*
G01X0003945Y0001873D01*
G01X0003945Y0001873D02*
G01X0003950Y0001872D01*
G01X0003950Y0001872D02*
G01X0003955Y0001871D01*
G01X0003955Y0001871D02*
G01X0003959Y0001869D01*
G01X0003959Y0001869D02*
G01X0003964Y0001867D01*
G01X0003964Y0001867D02*
G01X0003968Y0001865D01*
G01X0003968Y0001865D02*
G01X0003972Y0001862D01*
G01X0003972Y0001862D02*
G01X0003976Y0001859D01*
G01X0003976Y0001859D02*
G01X0003979Y0001856D01*
G01X0003979Y0001856D02*
G01X0003982Y0001852D01*
G01X0003982Y0001852D02*
G01X0003985Y0001848D01*
G01X0003985Y0001848D02*
G01X0003988Y0001844D01*
G01X0003988Y0001844D02*
G01X0003990Y0001840D01*
G01X0003990Y0001840D02*
G01X0003992Y0001836D01*
G01X0003992Y0001836D02*
G01X0003994Y0001831D01*
G01X0003994Y0001831D02*
G01X0003995Y0001827D01*
G01X0003995Y0001827D02*
G01X0003996Y0001822D01*
G01X0003996Y0001822D02*
G01X0003996Y0001817D01*
G01X0003996Y0001817D02*
G01X0003996Y0001812D01*
G01X0003996Y0001812D02*
G01X0003996Y0001807D01*
G01X0003996Y0001807D02*
G01X0003995Y0001803D01*
G01X0003995Y0001803D02*
G01X0003994Y0001798D01*
G01X0003994Y0001798D02*
G01X0003992Y0001793D01*
G01X0003992Y0001793D02*
G01X0003990Y0001789D01*
G01X0003990Y0001789D02*
G01X0003988Y0001785D01*
G01X0003988Y0001785D02*
G01X0003985Y0001781D01*
G01X0003985Y0001781D02*
G01X0003982Y0001777D01*
G01X0003982Y0001777D02*
G01X0003979Y0001773D01*
G01X0003979Y0001773D02*
G01X0003976Y0001770D01*
G01X0003976Y0001770D02*
G01X0003972Y0001767D01*
G01X0003972Y0001767D02*
G01X0003968Y0001764D01*
G01X0003968Y0001764D02*
G01X0003964Y0001762D01*
G01X0003964Y0001762D02*
G01X0003959Y0001760D01*
G01X0003959Y0001760D02*
G01X0003955Y0001758D01*
G01X0003955Y0001758D02*
G01X0003950Y0001757D01*
G01X0003950Y0001757D02*
G01X0003945Y0001756D01*
G01X0003945Y0001756D02*
G01X0003940Y0001756D01*
G01X0003940Y0001756D02*
G01X0003936Y0001755D01*
G01X0003936Y0001755D02*
G01X0003931Y0001756D01*
G01X0003931Y0001756D02*
G01X0003926Y0001756D01*
G01X0003926Y0001756D02*
G01X0003921Y0001758D01*
G01X0003921Y0001758D02*
G01X0003917Y0001759D01*
G01X0003917Y0001759D02*
G01X0003912Y0001761D01*
G01X0003912Y0001761D02*
G01X0003908Y0001763D01*
G01X0003908Y0001763D02*
G01X0003904Y0001765D01*
G01X0003904Y0001765D02*
G01X0003900Y0001768D01*
G01X0003900Y0001768D02*
G01X0003896Y0001772D01*
G01X0003896Y0001772D02*
G01X0003893Y0001775D01*
G01X0003893Y0001775D02*
G01X0003890Y0001779D01*
G01X0003890Y0001779D02*
G01X0003887Y0001783D01*
G01X0003887Y0001783D02*
G01X0003885Y0001787D01*
G01X0003885Y0001787D02*
G01X0003883Y0001791D01*
G01X0003883Y0001791D02*
G01X0003881Y0001796D01*
G01X0003881Y0001796D02*
G01X0003880Y0001800D01*
G01X0003880Y0001800D02*
G01X0003878Y0001805D01*
G01X0003878Y0001805D02*
G01X0003878Y0001810D01*
G01X0003878Y0001810D02*
G01X0003878Y0001815D01*
G01X0003137Y0001815D02*
G01X0003138Y0001819D01*
G01X0003138Y0001819D02*
G01X0003138Y0001824D01*
G01X0003138Y0001824D02*
G01X0003139Y0001829D01*
G01X0003139Y0001829D02*
G01X0003141Y0001833D01*
G01X0003141Y0001833D02*
G01X0003142Y0001838D01*
G01X0003142Y0001838D02*
G01X0003144Y0001842D01*
G01X0003144Y0001842D02*
G01X0003147Y0001847D01*
G01X0003147Y0001847D02*
G01X0003150Y0001850D01*
G01X0003150Y0001850D02*
G01X0003153Y0001854D01*
G01X0003153Y0001854D02*
G01X0003156Y0001858D01*
G01X0003156Y0001858D02*
G01X0003160Y0001861D01*
G01X0003160Y0001861D02*
G01X0003164Y0001864D01*
G01X0003164Y0001864D02*
G01X0003168Y0001866D01*
G01X0003168Y0001866D02*
G01X0003172Y0001868D01*
G01X0003172Y0001868D02*
G01X0003177Y0001870D01*
G01X0003177Y0001870D02*
G01X0003181Y0001872D01*
G01X0003181Y0001872D02*
G01X0003186Y0001873D01*
G01X0003186Y0001873D02*
G01X0003191Y0001873D01*
G01X0003191Y0001873D02*
G01X0003195Y0001874D01*
G01X0003195Y0001874D02*
G01X0003200Y0001874D01*
G01X0003200Y0001874D02*
G01X0003205Y0001873D01*
G01X0003205Y0001873D02*
G01X0003210Y0001872D01*
G01X0003210Y0001872D02*
G01X0003214Y0001871D01*
G01X0003214Y0001871D02*
G01X0003219Y0001869D01*
G01X0003219Y0001869D02*
G01X0003223Y0001867D01*
G01X0003223Y0001867D02*
G01X0003228Y0001865D01*
G01X0003228Y0001865D02*
G01X0003232Y0001862D01*
G01X0003232Y0001862D02*
G01X0003235Y0001859D01*
G01X0003235Y0001859D02*
G01X0003239Y0001856D01*
G01X0003239Y0001856D02*
G01X0003242Y0001852D01*
G01X0003242Y0001852D02*
G01X0003245Y0001848D01*
G01X0003245Y0001848D02*
G01X0003248Y0001844D01*
G01X0003248Y0001844D02*
G01X0003250Y0001840D01*
G01X0003250Y0001840D02*
G01X0003252Y0001836D01*
G01X0003252Y0001836D02*
G01X0003253Y0001831D01*
G01X0003253Y0001831D02*
G01X0003255Y0001827D01*
G01X0003255Y0001827D02*
G01X0003255Y0001822D01*
G01X0003255Y0001822D02*
G01X0003256Y0001817D01*
G01X0003256Y0001817D02*
G01X0003256Y0001812D01*
G01X0003256Y0001812D02*
G01X0003255Y0001807D01*
G01X0003255Y0001807D02*
G01X0003255Y0001803D01*
G01X0003255Y0001803D02*
G01X0003253Y0001798D01*
G01X0003253Y0001798D02*
G01X0003252Y0001793D01*
G01X0003252Y0001793D02*
G01X0003250Y0001789D01*
G01X0003250Y0001789D02*
G01X0003248Y0001785D01*
G01X0003248Y0001785D02*
G01X0003245Y0001781D01*
G01X0003245Y0001781D02*
G01X0003242Y0001777D01*
G01X0003242Y0001777D02*
G01X0003239Y0001773D01*
G01X0003239Y0001773D02*
G01X0003235Y0001770D01*
G01X0003235Y0001770D02*
G01X0003232Y0001767D01*
G01X0003232Y0001767D02*
G01X0003228Y0001764D01*
G01X0003228Y0001764D02*
G01X0003223Y0001762D01*
G01X0003223Y0001762D02*
G01X0003219Y0001760D01*
G01X0003219Y0001760D02*
G01X0003214Y0001758D01*
G01X0003214Y0001758D02*
G01X0003210Y0001757D01*
G01X0003210Y0001757D02*
G01X0003205Y0001756D01*
G01X0003205Y0001756D02*
G01X0003200Y0001756D01*
G01X0003200Y0001756D02*
G01X0003195Y0001755D01*
G01X0003195Y0001755D02*
G01X0003191Y0001756D01*
G01X0003191Y0001756D02*
G01X0003186Y0001756D01*
G01X0003186Y0001756D02*
G01X0003181Y0001758D01*
G01X0003181Y0001758D02*
G01X0003177Y0001759D01*
G01X0003177Y0001759D02*
G01X0003172Y0001761D01*
G01X0003172Y0001761D02*
G01X0003168Y0001763D01*
G01X0003168Y0001763D02*
G01X0003164Y0001765D01*
G01X0003164Y0001765D02*
G01X0003160Y0001768D01*
G01X0003160Y0001768D02*
G01X0003156Y0001772D01*
G01X0003156Y0001772D02*
G01X0003153Y0001775D01*
G01X0003153Y0001775D02*
G01X0003150Y0001779D01*
G01X0003150Y0001779D02*
G01X0003147Y0001783D01*
G01X0003147Y0001783D02*
G01X0003144Y0001787D01*
G01X0003144Y0001787D02*
G01X0003142Y0001791D01*
G01X0003142Y0001791D02*
G01X0003141Y0001796D01*
G01X0003141Y0001796D02*
G01X0003139Y0001800D01*
G01X0003139Y0001800D02*
G01X0003138Y0001805D01*
G01X0003138Y0001805D02*
G01X0003138Y0001810D01*
G01X0003138Y0001810D02*
G01X0003137Y0001815D01*
G01X0008964Y0001815D02*
G01X0008965Y0001819D01*
G01X0008965Y0001819D02*
G01X0008965Y0001824D01*
G01X0008965Y0001824D02*
G01X0008966Y0001829D01*
G01X0008966Y0001829D02*
G01X0008967Y0001833D01*
G01X0008967Y0001833D02*
G01X0008969Y0001838D01*
G01X0008969Y0001838D02*
G01X0008971Y0001842D01*
G01X0008971Y0001842D02*
G01X0008974Y0001847D01*
G01X0008974Y0001847D02*
G01X0008977Y0001850D01*
G01X0008977Y0001850D02*
G01X0008980Y0001854D01*
G01X0008980Y0001854D02*
G01X0008983Y0001858D01*
G01X0008983Y0001858D02*
G01X0008987Y0001861D01*
G01X0008987Y0001861D02*
G01X0008990Y0001864D01*
G01X0008990Y0001864D02*
G01X0008995Y0001866D01*
G01X0008995Y0001866D02*
G01X0008999Y0001868D01*
G01X0008999Y0001868D02*
G01X0009003Y0001870D01*
G01X0009003Y0001870D02*
G01X0009008Y0001872D01*
G01X0009008Y0001872D02*
G01X0009013Y0001873D01*
G01X0009013Y0001873D02*
G01X0009017Y0001873D01*
G01X0009017Y0001873D02*
G01X0009022Y0001874D01*
G01X0009022Y0001874D02*
G01X0009027Y0001874D01*
G01X0009027Y0001874D02*
G01X0009032Y0001873D01*
G01X0009032Y0001873D02*
G01X0009037Y0001872D01*
G01X0009037Y0001872D02*
G01X0009041Y0001871D01*
G01X0009041Y0001871D02*
G01X0009046Y0001869D01*
G01X0009046Y0001869D02*
G01X0009050Y0001867D01*
G01X0009050Y0001867D02*
G01X0009054Y0001865D01*
G01X0009054Y0001865D02*
G01X0009058Y0001862D01*
G01X0009058Y0001862D02*
G01X0009062Y0001859D01*
G01X0009062Y0001859D02*
G01X0009066Y0001856D01*
G01X0009066Y0001856D02*
G01X0009069Y0001852D01*
G01X0009069Y0001852D02*
G01X0009072Y0001848D01*
G01X0009072Y0001848D02*
G01X0009074Y0001844D01*
G01X0009074Y0001844D02*
G01X0009077Y0001840D01*
G01X0009077Y0001840D02*
G01X0009079Y0001836D01*
G01X0009079Y0001836D02*
G01X0009080Y0001831D01*
G01X0009080Y0001831D02*
G01X0009081Y0001827D01*
G01X0009081Y0001827D02*
G01X0009082Y0001822D01*
G01X0009082Y0001822D02*
G01X0009083Y0001817D01*
G01X0009083Y0001817D02*
G01X0009083Y0001812D01*
G01X0009083Y0001812D02*
G01X0009082Y0001807D01*
G01X0009082Y0001807D02*
G01X0009081Y0001803D01*
G01X0009081Y0001803D02*
G01X0009080Y0001798D01*
G01X0009080Y0001798D02*
G01X0009079Y0001793D01*
G01X0009079Y0001793D02*
G01X0009077Y0001789D01*
G01X0009077Y0001789D02*
G01X0009074Y0001785D01*
G01X0009074Y0001785D02*
G01X0009072Y0001781D01*
G01X0009072Y0001781D02*
G01X0009069Y0001777D01*
G01X0009069Y0001777D02*
G01X0009066Y0001773D01*
G01X0009066Y0001773D02*
G01X0009062Y0001770D01*
G01X0009062Y0001770D02*
G01X0009058Y0001767D01*
G01X0009058Y0001767D02*
G01X0009054Y0001764D01*
G01X0009054Y0001764D02*
G01X0009050Y0001762D01*
G01X0009050Y0001762D02*
G01X0009046Y0001760D01*
G01X0009046Y0001760D02*
G01X0009041Y0001758D01*
G01X0009041Y0001758D02*
G01X0009037Y0001757D01*
G01X0009037Y0001757D02*
G01X0009032Y0001756D01*
G01X0009032Y0001756D02*
G01X0009027Y0001756D01*
G01X0009027Y0001756D02*
G01X0009022Y0001755D01*
G01X0009022Y0001755D02*
G01X0009017Y0001756D01*
G01X0009017Y0001756D02*
G01X0009013Y0001756D01*
G01X0009013Y0001756D02*
G01X0009008Y0001758D01*
G01X0009008Y0001758D02*
G01X0009003Y0001759D01*
G01X0009003Y0001759D02*
G01X0008999Y0001761D01*
G01X0008999Y0001761D02*
G01X0008995Y0001763D01*
G01X0008995Y0001763D02*
G01X0008990Y0001765D01*
G01X0008990Y0001765D02*
G01X0008987Y0001768D01*
G01X0008987Y0001768D02*
G01X0008983Y0001772D01*
G01X0008983Y0001772D02*
G01X0008980Y0001775D01*
G01X0008980Y0001775D02*
G01X0008977Y0001779D01*
G01X0008977Y0001779D02*
G01X0008974Y0001783D01*
G01X0008974Y0001783D02*
G01X0008971Y0001787D01*
G01X0008971Y0001787D02*
G01X0008969Y0001791D01*
G01X0008969Y0001791D02*
G01X0008967Y0001796D01*
G01X0008967Y0001796D02*
G01X0008966Y0001800D01*
G01X0008966Y0001800D02*
G01X0008965Y0001805D01*
G01X0008965Y0001805D02*
G01X0008965Y0001810D01*
G01X0008965Y0001810D02*
G01X0008964Y0001815D01*
G01X0009704Y0001815D02*
G01X0009705Y0001819D01*
G01X0009705Y0001819D02*
G01X0009705Y0001824D01*
G01X0009705Y0001824D02*
G01X0009706Y0001829D01*
G01X0009706Y0001829D02*
G01X0009708Y0001833D01*
G01X0009708Y0001833D02*
G01X0009709Y0001838D01*
G01X0009709Y0001838D02*
G01X0009711Y0001842D01*
G01X0009711Y0001842D02*
G01X0009714Y0001847D01*
G01X0009714Y0001847D02*
G01X0009717Y0001850D01*
G01X0009717Y0001850D02*
G01X0009720Y0001854D01*
G01X0009720Y0001854D02*
G01X0009723Y0001858D01*
G01X0009723Y0001858D02*
G01X0009727Y0001861D01*
G01X0009727Y0001861D02*
G01X0009731Y0001864D01*
G01X0009731Y0001864D02*
G01X0009735Y0001866D01*
G01X0009735Y0001866D02*
G01X0009739Y0001868D01*
G01X0009739Y0001868D02*
G01X0009743Y0001870D01*
G01X0009743Y0001870D02*
G01X0009748Y0001872D01*
G01X0009748Y0001872D02*
G01X0009753Y0001873D01*
G01X0009753Y0001873D02*
G01X0009758Y0001873D01*
G01X0009758Y0001873D02*
G01X0009762Y0001874D01*
G01X0009762Y0001874D02*
G01X0009767Y0001874D01*
G01X0009767Y0001874D02*
G01X0009772Y0001873D01*
G01X0009772Y0001873D02*
G01X0009777Y0001872D01*
G01X0009777Y0001872D02*
G01X0009781Y0001871D01*
G01X0009781Y0001871D02*
G01X0009786Y0001869D01*
G01X0009786Y0001869D02*
G01X0009790Y0001867D01*
G01X0009790Y0001867D02*
G01X0009794Y0001865D01*
G01X0009794Y0001865D02*
G01X0009798Y0001862D01*
G01X0009798Y0001862D02*
G01X0009802Y0001859D01*
G01X0009802Y0001859D02*
G01X0009806Y0001856D01*
G01X0009806Y0001856D02*
G01X0009809Y0001852D01*
G01X0009809Y0001852D02*
G01X0009812Y0001848D01*
G01X0009812Y0001848D02*
G01X0009815Y0001844D01*
G01X0009815Y0001844D02*
G01X0009817Y0001840D01*
G01X0009817Y0001840D02*
G01X0009819Y0001836D01*
G01X0009819Y0001836D02*
G01X0009820Y0001831D01*
G01X0009820Y0001831D02*
G01X0009821Y0001827D01*
G01X0009821Y0001827D02*
G01X0009822Y0001822D01*
G01X0009822Y0001822D02*
G01X0009823Y0001817D01*
G01X0009823Y0001817D02*
G01X0009823Y0001812D01*
G01X0009823Y0001812D02*
G01X0009822Y0001807D01*
G01X0009822Y0001807D02*
G01X0009821Y0001803D01*
G01X0009821Y0001803D02*
G01X0009820Y0001798D01*
G01X0009820Y0001798D02*
G01X0009819Y0001793D01*
G01X0009819Y0001793D02*
G01X0009817Y0001789D01*
G01X0009817Y0001789D02*
G01X0009815Y0001785D01*
G01X0009815Y0001785D02*
G01X0009812Y0001781D01*
G01X0009812Y0001781D02*
G01X0009809Y0001777D01*
G01X0009809Y0001777D02*
G01X0009806Y0001773D01*
G01X0009806Y0001773D02*
G01X0009802Y0001770D01*
G01X0009802Y0001770D02*
G01X0009798Y0001767D01*
G01X0009798Y0001767D02*
G01X0009794Y0001764D01*
G01X0009794Y0001764D02*
G01X0009790Y0001762D01*
G01X0009790Y0001762D02*
G01X0009786Y0001760D01*
G01X0009786Y0001760D02*
G01X0009781Y0001758D01*
G01X0009781Y0001758D02*
G01X0009777Y0001757D01*
G01X0009777Y0001757D02*
G01X0009772Y0001756D01*
G01X0009772Y0001756D02*
G01X0009767Y0001756D01*
G01X0009767Y0001756D02*
G01X0009762Y0001755D01*
G01X0009762Y0001755D02*
G01X0009758Y0001756D01*
G01X0009758Y0001756D02*
G01X0009753Y0001756D01*
G01X0009753Y0001756D02*
G01X0009748Y0001758D01*
G01X0009748Y0001758D02*
G01X0009743Y0001759D01*
G01X0009743Y0001759D02*
G01X0009739Y0001761D01*
G01X0009739Y0001761D02*
G01X0009735Y0001763D01*
G01X0009735Y0001763D02*
G01X0009731Y0001765D01*
G01X0009731Y0001765D02*
G01X0009727Y0001768D01*
G01X0009727Y0001768D02*
G01X0009723Y0001772D01*
G01X0009723Y0001772D02*
G01X0009720Y0001775D01*
G01X0009720Y0001775D02*
G01X0009717Y0001779D01*
G01X0009717Y0001779D02*
G01X0009714Y0001783D01*
G01X0009714Y0001783D02*
G01X0009711Y0001787D01*
G01X0009711Y0001787D02*
G01X0009709Y0001791D01*
G01X0009709Y0001791D02*
G01X0009708Y0001796D01*
G01X0009708Y0001796D02*
G01X0009706Y0001800D01*
G01X0009706Y0001800D02*
G01X0009705Y0001805D01*
G01X0009705Y0001805D02*
G01X0009705Y0001810D01*
G01X0009705Y0001810D02*
G01X0009704Y0001815D01*
G01X0009704Y0001074D02*
G01X0009705Y0001079D01*
G01X0009705Y0001079D02*
G01X0009705Y0001084D01*
G01X0009705Y0001084D02*
G01X0009706Y0001089D01*
G01X0009706Y0001089D02*
G01X0009708Y0001093D01*
G01X0009708Y0001093D02*
G01X0009709Y0001098D01*
G01X0009709Y0001098D02*
G01X0009711Y0001102D01*
G01X0009711Y0001102D02*
G01X0009714Y0001106D01*
G01X0009714Y0001106D02*
G01X0009717Y0001110D01*
G01X0009717Y0001110D02*
G01X0009720Y0001114D01*
G01X0009720Y0001114D02*
G01X0009723Y0001117D01*
G01X0009723Y0001117D02*
G01X0009727Y0001121D01*
G01X0009727Y0001121D02*
G01X0009731Y0001123D01*
G01X0009731Y0001123D02*
G01X0009735Y0001126D01*
G01X0009735Y0001126D02*
G01X0009739Y0001128D01*
G01X0009739Y0001128D02*
G01X0009743Y0001130D01*
G01X0009743Y0001130D02*
G01X0009748Y0001131D01*
G01X0009748Y0001131D02*
G01X0009753Y0001132D01*
G01X0009753Y0001132D02*
G01X0009758Y0001133D01*
G01X0009758Y0001133D02*
G01X0009762Y0001133D01*
G01X0009762Y0001133D02*
G01X0009767Y0001133D01*
G01X0009767Y0001133D02*
G01X0009772Y0001133D01*
G01X0009772Y0001133D02*
G01X0009777Y0001132D01*
G01X0009777Y0001132D02*
G01X0009781Y0001131D01*
G01X0009781Y0001131D02*
G01X0009786Y0001129D01*
G01X0009786Y0001129D02*
G01X0009790Y0001127D01*
G01X0009790Y0001127D02*
G01X0009794Y0001125D01*
G01X0009794Y0001125D02*
G01X0009798Y0001122D01*
G01X0009798Y0001122D02*
G01X0009802Y0001119D01*
G01X0009802Y0001119D02*
G01X0009806Y0001116D01*
G01X0009806Y0001116D02*
G01X0009809Y0001112D01*
G01X0009809Y0001112D02*
G01X0009812Y0001108D01*
G01X0009812Y0001108D02*
G01X0009815Y0001104D01*
G01X0009815Y0001104D02*
G01X0009817Y0001100D01*
G01X0009817Y0001100D02*
G01X0009819Y0001096D01*
G01X0009819Y0001096D02*
G01X0009820Y0001091D01*
G01X0009820Y0001091D02*
G01X0009821Y0001086D01*
G01X0009821Y0001086D02*
G01X0009822Y0001082D01*
G01X0009822Y0001082D02*
G01X0009823Y0001077D01*
G01X0009823Y0001077D02*
G01X0009823Y0001072D01*
G01X0009823Y0001072D02*
G01X0009822Y0001067D01*
G01X0009822Y0001067D02*
G01X0009821Y0001062D01*
G01X0009821Y0001062D02*
G01X0009820Y0001058D01*
G01X0009820Y0001058D02*
G01X0009819Y0001053D01*
G01X0009819Y0001053D02*
G01X0009817Y0001049D01*
G01X0009817Y0001049D02*
G01X0009815Y0001044D01*
G01X0009815Y0001044D02*
G01X0009812Y0001040D01*
G01X0009812Y0001040D02*
G01X0009809Y0001037D01*
G01X0009809Y0001037D02*
G01X0009806Y0001033D01*
G01X0009806Y0001033D02*
G01X0009802Y0001030D01*
G01X0009802Y0001030D02*
G01X0009798Y0001027D01*
G01X0009798Y0001027D02*
G01X0009794Y0001024D01*
G01X0009794Y0001024D02*
G01X0009790Y0001022D01*
G01X0009790Y0001022D02*
G01X0009786Y0001020D01*
G01X0009786Y0001020D02*
G01X0009781Y0001018D01*
G01X0009781Y0001018D02*
G01X0009777Y0001017D01*
G01X0009777Y0001017D02*
G01X0009772Y0001016D01*
G01X0009772Y0001016D02*
G01X0009767Y0001015D01*
G01X0009767Y0001015D02*
G01X0009762Y0001015D01*
G01X0009762Y0001015D02*
G01X0009758Y0001016D01*
G01X0009758Y0001016D02*
G01X0009753Y0001016D01*
G01X0009753Y0001016D02*
G01X0009748Y0001017D01*
G01X0009748Y0001017D02*
G01X0009743Y0001019D01*
G01X0009743Y0001019D02*
G01X0009739Y0001021D01*
G01X0009739Y0001021D02*
G01X0009735Y0001023D01*
G01X0009735Y0001023D02*
G01X0009731Y0001025D01*
G01X0009731Y0001025D02*
G01X0009727Y0001028D01*
G01X0009727Y0001028D02*
G01X0009723Y0001031D01*
G01X0009723Y0001031D02*
G01X0009720Y0001035D01*
G01X0009720Y0001035D02*
G01X0009717Y0001038D01*
G01X0009717Y0001038D02*
G01X0009714Y0001042D01*
G01X0009714Y0001042D02*
G01X0009711Y0001047D01*
G01X0009711Y0001047D02*
G01X0009709Y0001051D01*
G01X0009709Y0001051D02*
G01X0009708Y0001055D01*
G01X0009708Y0001055D02*
G01X0009706Y0001060D01*
G01X0009706Y0001060D02*
G01X0009705Y0001065D01*
G01X0009705Y0001065D02*
G01X0009705Y0001070D01*
G01X0009705Y0001070D02*
G01X0009704Y0001074D01*
G01X0008964Y0001074D02*
G01X0008965Y0001079D01*
G01X0008965Y0001079D02*
G01X0008965Y0001084D01*
G01X0008965Y0001084D02*
G01X0008966Y0001089D01*
G01X0008966Y0001089D02*
G01X0008967Y0001093D01*
G01X0008967Y0001093D02*
G01X0008969Y0001098D01*
G01X0008969Y0001098D02*
G01X0008971Y0001102D01*
G01X0008971Y0001102D02*
G01X0008974Y0001106D01*
G01X0008974Y0001106D02*
G01X0008977Y0001110D01*
G01X0008977Y0001110D02*
G01X0008980Y0001114D01*
G01X0008980Y0001114D02*
G01X0008983Y0001117D01*
G01X0008983Y0001117D02*
G01X0008987Y0001121D01*
G01X0008987Y0001121D02*
G01X0008990Y0001123D01*
G01X0008990Y0001123D02*
G01X0008995Y0001126D01*
G01X0008995Y0001126D02*
G01X0008999Y0001128D01*
G01X0008999Y0001128D02*
G01X0009003Y0001130D01*
G01X0009003Y0001130D02*
G01X0009008Y0001131D01*
G01X0009008Y0001131D02*
G01X0009013Y0001132D01*
G01X0009013Y0001132D02*
G01X0009017Y0001133D01*
G01X0009017Y0001133D02*
G01X0009022Y0001133D01*
G01X0009022Y0001133D02*
G01X0009027Y0001133D01*
G01X0009027Y0001133D02*
G01X0009032Y0001133D01*
G01X0009032Y0001133D02*
G01X0009037Y0001132D01*
G01X0009037Y0001132D02*
G01X0009041Y0001131D01*
G01X0009041Y0001131D02*
G01X0009046Y0001129D01*
G01X0009046Y0001129D02*
G01X0009050Y0001127D01*
G01X0009050Y0001127D02*
G01X0009054Y0001125D01*
G01X0009054Y0001125D02*
G01X0009058Y0001122D01*
G01X0009058Y0001122D02*
G01X0009062Y0001119D01*
G01X0009062Y0001119D02*
G01X0009066Y0001116D01*
G01X0009066Y0001116D02*
G01X0009069Y0001112D01*
G01X0009069Y0001112D02*
G01X0009072Y0001108D01*
G01X0009072Y0001108D02*
G01X0009074Y0001104D01*
G01X0009074Y0001104D02*
G01X0009077Y0001100D01*
G01X0009077Y0001100D02*
G01X0009079Y0001096D01*
G01X0009079Y0001096D02*
G01X0009080Y0001091D01*
G01X0009080Y0001091D02*
G01X0009081Y0001086D01*
G01X0009081Y0001086D02*
G01X0009082Y0001082D01*
G01X0009082Y0001082D02*
G01X0009083Y0001077D01*
G01X0009083Y0001077D02*
G01X0009083Y0001072D01*
G01X0009083Y0001072D02*
G01X0009082Y0001067D01*
G01X0009082Y0001067D02*
G01X0009081Y0001062D01*
G01X0009081Y0001062D02*
G01X0009080Y0001058D01*
G01X0009080Y0001058D02*
G01X0009079Y0001053D01*
G01X0009079Y0001053D02*
G01X0009077Y0001049D01*
G01X0009077Y0001049D02*
G01X0009074Y0001044D01*
G01X0009074Y0001044D02*
G01X0009072Y0001040D01*
G01X0009072Y0001040D02*
G01X0009069Y0001037D01*
G01X0009069Y0001037D02*
G01X0009066Y0001033D01*
G01X0009066Y0001033D02*
G01X0009062Y0001030D01*
G01X0009062Y0001030D02*
G01X0009058Y0001027D01*
G01X0009058Y0001027D02*
G01X0009054Y0001024D01*
G01X0009054Y0001024D02*
G01X0009050Y0001022D01*
G01X0009050Y0001022D02*
G01X0009046Y0001020D01*
G01X0009046Y0001020D02*
G01X0009041Y0001018D01*
G01X0009041Y0001018D02*
G01X0009037Y0001017D01*
G01X0009037Y0001017D02*
G01X0009032Y0001016D01*
G01X0009032Y0001016D02*
G01X0009027Y0001015D01*
G01X0009027Y0001015D02*
G01X0009022Y0001015D01*
G01X0009022Y0001015D02*
G01X0009017Y0001016D01*
G01X0009017Y0001016D02*
G01X0009013Y0001016D01*
G01X0009013Y0001016D02*
G01X0009008Y0001017D01*
G01X0009008Y0001017D02*
G01X0009003Y0001019D01*
G01X0009003Y0001019D02*
G01X0008999Y0001021D01*
G01X0008999Y0001021D02*
G01X0008995Y0001023D01*
G01X0008995Y0001023D02*
G01X0008990Y0001025D01*
G01X0008990Y0001025D02*
G01X0008987Y0001028D01*
G01X0008987Y0001028D02*
G01X0008983Y0001031D01*
G01X0008983Y0001031D02*
G01X0008980Y0001035D01*
G01X0008980Y0001035D02*
G01X0008977Y0001038D01*
G01X0008977Y0001038D02*
G01X0008974Y0001042D01*
G01X0008974Y0001042D02*
G01X0008971Y0001047D01*
G01X0008971Y0001047D02*
G01X0008969Y0001051D01*
G01X0008969Y0001051D02*
G01X0008967Y0001055D01*
G01X0008967Y0001055D02*
G01X0008966Y0001060D01*
G01X0008966Y0001060D02*
G01X0008965Y0001065D01*
G01X0008965Y0001065D02*
G01X0008965Y0001070D01*
G01X0008965Y0001070D02*
G01X0008964Y0001074D01*
G54D11*
G01X0007980Y0003059D03*
G01X0006980Y0003059D03*
G01X0005980Y0003059D03*
G01X0004980Y0003059D03*
G01X0003527Y0003885D03*
G01X0003527Y0004885D03*
G01X0003527Y0005885D03*
G01X0003527Y0006885D03*
G01X0003527Y0007885D03*
G54D12*
G01X0003567Y0001444D03*
G01X0009394Y0001444D03*
G54D13*
G01X0008606Y0001090D03*
G01X0008803Y0002311D03*
G01X0009787Y0003216D03*
G01X0009472Y0003374D03*
G01X0008331Y0004295D03*
G01X0008102Y0004047D03*
G01X0007819Y0004358D03*
G01X0007842Y0005000D03*
G01X0008527Y0004673D03*
G01X0009157Y0004633D03*
G01X0009307Y0005448D03*
G01X0008882Y0005500D03*
G01X0008882Y0006082D03*
G01X0008882Y0006366D03*
G01X0009236Y0006574D03*
G01X0009315Y0006878D03*
G01X0009000Y0006807D03*
G01X0008803Y0007059D03*
G01X0008606Y0007315D03*
G01X0008449Y0007567D03*
G01X0008842Y0007748D03*
G01X0007504Y0006878D03*
G01X0007110Y0006681D03*
G01X0006716Y0006878D03*
G01X0006716Y0006444D03*
G01X0007504Y0006326D03*
G01X0007862Y0005984D03*
G01X0007031Y0005027D03*
G01X0006165Y0005185D03*
G01X0006204Y0005657D03*
G01X0005279Y0004791D03*
G01X0005693Y0004397D03*
G01X0006008Y0004397D03*
G01X0005575Y0003964D03*
G01X0006480Y0003610D03*
G01X0006953Y0003807D03*
G01X0007464Y0002704D03*
G01X0005693Y0001129D03*
G01X0004354Y0001090D03*
G01X0004000Y0002350D03*
G01X0005496Y0002704D03*
G01X0004433Y0003885D03*
G01X0004866Y0006366D03*
G01X0004512Y0006720D03*
G01X0004992Y0007212D03*
G01X0005201Y0006996D03*
G01X0004925Y0007507D03*
G01X0004905Y0008019D03*
G01X0005496Y0008452D03*
G01X0006421Y0007956D03*
G01X0007346Y0007901D03*
G54D14*
G01X0006658Y0007901D02*
G01X0008656Y0007901D01*
G01X0008656Y0007901D02*
G01X0008639Y0007884D01*
G01X0008639Y0007884D02*
G01X0008602Y0007795D01*
G01X0008602Y0007795D02*
G01X0008602Y0007753D01*
G01X0008602Y0007753D02*
G01X0008585Y0007770D01*
G01X0008585Y0007770D02*
G01X0008496Y0007807D01*
G01X0008496Y0007807D02*
G01X0008401Y0007807D01*
G01X0008401Y0007807D02*
G01X0008313Y0007770D01*
G01X0008313Y0007770D02*
G01X0008245Y0007703D01*
G01X0008245Y0007703D02*
G01X0008208Y0007614D01*
G01X0008208Y0007614D02*
G01X0008208Y0007519D01*
G01X0008208Y0007519D02*
G01X0008245Y0007430D01*
G01X0008245Y0007430D02*
G01X0008313Y0007363D01*
G01X0008313Y0007363D02*
G01X0008366Y0007341D01*
G01X0008366Y0007341D02*
G01X0008366Y0007267D01*
G01X0008366Y0007267D02*
G01X0008402Y0007178D01*
G01X0008402Y0007178D02*
G01X0008470Y0007111D01*
G01X0008470Y0007111D02*
G01X0008558Y0007074D01*
G01X0008558Y0007074D02*
G01X0008563Y0007074D01*
G01X0008563Y0007074D02*
G01X0008563Y0007011D01*
G01X0008563Y0007011D02*
G01X0008599Y0006923D01*
G01X0008599Y0006923D02*
G01X0008667Y0006855D01*
G01X0008667Y0006855D02*
G01X0008755Y0006818D01*
G01X0008755Y0006818D02*
G01X0008760Y0006818D01*
G01X0008760Y0006818D02*
G01X0008760Y0006759D01*
G01X0008760Y0006759D02*
G01X0008796Y0006671D01*
G01X0008796Y0006671D02*
G01X0008861Y0006606D01*
G01X0008861Y0006606D02*
G01X0008834Y0006606D01*
G01X0008834Y0006606D02*
G01X0008746Y0006569D01*
G01X0008746Y0006569D02*
G01X0008702Y0006526D01*
G01X0008702Y0006526D02*
G01X0008427Y0006526D01*
G01X0008427Y0006526D02*
G01X0008333Y0006432D01*
G01X0008333Y0006432D02*
G01X0008155Y0006253D01*
G01X0008155Y0006253D02*
G01X0008155Y0005133D01*
G01X0008155Y0005133D02*
G01X0007934Y0004912D01*
G01X0007934Y0004912D02*
G01X0007319Y0004912D01*
G01X0007319Y0004912D02*
G01X0007226Y0004818D01*
G01X0007226Y0004818D02*
G01X0006320Y0003912D01*
G01X0006320Y0003912D02*
G01X0006320Y0003790D01*
G01X0006320Y0003790D02*
G01X0006276Y0003746D01*
G01X0006276Y0003746D02*
G01X0006240Y0003658D01*
G01X0006240Y0003658D02*
G01X0006240Y0003562D01*
G01X0006240Y0003562D02*
G01X0006276Y0003474D01*
G01X0006276Y0003474D02*
G01X0006344Y0003406D01*
G01X0006344Y0003406D02*
G01X0006432Y0003370D01*
G01X0006432Y0003370D02*
G01X0006528Y0003370D01*
G01X0006528Y0003370D02*
G01X0006616Y0003406D01*
G01X0006616Y0003406D02*
G01X0006684Y0003474D01*
G01X0006684Y0003474D02*
G01X0006720Y0003562D01*
G01X0006720Y0003562D02*
G01X0006720Y0003658D01*
G01X0006720Y0003658D02*
G01X0006684Y0003746D01*
G01X0006684Y0003746D02*
G01X0006645Y0003785D01*
G01X0006645Y0003785D02*
G01X0006712Y0003852D01*
G01X0006712Y0003852D02*
G01X0006712Y0003759D01*
G01X0006712Y0003759D02*
G01X0006749Y0003671D01*
G01X0006749Y0003671D02*
G01X0006816Y0003603D01*
G01X0006816Y0003603D02*
G01X0006905Y0003566D01*
G01X0006905Y0003566D02*
G01X0007000Y0003566D01*
G01X0007000Y0003566D02*
G01X0007089Y0003603D01*
G01X0007089Y0003603D02*
G01X0007156Y0003671D01*
G01X0007156Y0003671D02*
G01X0007193Y0003759D01*
G01X0007193Y0003759D02*
G01X0007193Y0003854D01*
G01X0007193Y0003854D02*
G01X0007156Y0003943D01*
G01X0007156Y0003943D02*
G01X0007113Y0003986D01*
G01X0007113Y0003986D02*
G01X0007113Y0004016D01*
G01X0007113Y0004016D02*
G01X0007531Y0004434D01*
G01X0007531Y0004434D02*
G01X0007590Y0004434D01*
G01X0007590Y0004434D02*
G01X0007578Y0004406D01*
G01X0007578Y0004406D02*
G01X0007578Y0004310D01*
G01X0007578Y0004310D02*
G01X0007615Y0004222D01*
G01X0007615Y0004222D02*
G01X0007683Y0004154D01*
G01X0007683Y0004154D02*
G01X0007771Y0004118D01*
G01X0007771Y0004118D02*
G01X0007866Y0004118D01*
G01X0007866Y0004118D02*
G01X0007955Y0004154D01*
G01X0007955Y0004154D02*
G01X0008022Y0004222D01*
G01X0008022Y0004222D02*
G01X0008059Y0004310D01*
G01X0008059Y0004310D02*
G01X0008059Y0004406D01*
G01X0008059Y0004406D02*
G01X0008047Y0004434D01*
G01X0008047Y0004434D02*
G01X0008130Y0004434D01*
G01X0008130Y0004434D02*
G01X0008127Y0004431D01*
G01X0008127Y0004431D02*
G01X0008090Y0004343D01*
G01X0008090Y0004343D02*
G01X0008090Y0004247D01*
G01X0008090Y0004247D02*
G01X0008127Y0004159D01*
G01X0008127Y0004159D02*
G01X0008194Y0004091D01*
G01X0008194Y0004091D02*
G01X0008283Y0004055D01*
G01X0008283Y0004055D02*
G01X0008378Y0004055D01*
G01X0008378Y0004055D02*
G01X0008467Y0004091D01*
G01X0008467Y0004091D02*
G01X0008534Y0004159D01*
G01X0008534Y0004159D02*
G01X0008571Y0004247D01*
G01X0008571Y0004247D02*
G01X0008571Y0004343D01*
G01X0008571Y0004343D02*
G01X0008534Y0004431D01*
G01X0008534Y0004431D02*
G01X0008533Y0004433D01*
G01X0008533Y0004433D02*
G01X0008575Y0004433D01*
G01X0008575Y0004433D02*
G01X0008663Y0004469D01*
G01X0008663Y0004469D02*
G01X0008731Y0004537D01*
G01X0008731Y0004537D02*
G01X0008768Y0004625D01*
G01X0008768Y0004625D02*
G01X0008768Y0004721D01*
G01X0008768Y0004721D02*
G01X0008731Y0004809D01*
G01X0008731Y0004809D02*
G01X0008663Y0004876D01*
G01X0008663Y0004876D02*
G01X0008621Y0004894D01*
G01X0008621Y0004894D02*
G01X0008790Y0005064D01*
G01X0008790Y0005064D02*
G01X0008884Y0005158D01*
G01X0008884Y0005158D02*
G01X0008884Y0005259D01*
G01X0008884Y0005259D02*
G01X0008929Y0005259D01*
G01X0008929Y0005259D02*
G01X0009018Y0005296D01*
G01X0009018Y0005296D02*
G01X0009085Y0005363D01*
G01X0009085Y0005363D02*
G01X0009122Y0005452D01*
G01X0009122Y0005452D02*
G01X0009122Y0005547D01*
G01X0009122Y0005547D02*
G01X0009085Y0005636D01*
G01X0009085Y0005636D02*
G01X0009018Y0005703D01*
G01X0009018Y0005703D02*
G01X0008929Y0005740D01*
G01X0008929Y0005740D02*
G01X0008834Y0005740D01*
G01X0008834Y0005740D02*
G01X0008746Y0005703D01*
G01X0008746Y0005703D02*
G01X0008678Y0005636D01*
G01X0008678Y0005636D02*
G01X0008641Y0005547D01*
G01X0008641Y0005547D02*
G01X0008641Y0005486D01*
G01X0008641Y0005486D02*
G01X0008564Y0005408D01*
G01X0008564Y0005408D02*
G01X0008564Y0005290D01*
G01X0008564Y0005290D02*
G01X0008475Y0005201D01*
G01X0008475Y0005201D02*
G01X0008475Y0006121D01*
G01X0008475Y0006121D02*
G01X0008560Y0006206D01*
G01X0008560Y0006206D02*
G01X0008702Y0006206D01*
G01X0008702Y0006206D02*
G01X0008746Y0006162D01*
G01X0008746Y0006162D02*
G01X0008834Y0006125D01*
G01X0008834Y0006125D02*
G01X0008929Y0006125D01*
G01X0008929Y0006125D02*
G01X0009018Y0006162D01*
G01X0009018Y0006162D02*
G01X0009085Y0006230D01*
G01X0009085Y0006230D02*
G01X0009122Y0006318D01*
G01X0009122Y0006318D02*
G01X0009122Y0006362D01*
G01X0009122Y0006362D02*
G01X0009188Y0006334D01*
G01X0009188Y0006334D02*
G01X0009284Y0006334D01*
G01X0009284Y0006334D02*
G01X0009372Y0006371D01*
G01X0009372Y0006371D02*
G01X0009440Y0006438D01*
G01X0009440Y0006438D02*
G01X0009476Y0006526D01*
G01X0009476Y0006526D02*
G01X0009476Y0006622D01*
G01X0009476Y0006622D02*
G01X0009440Y0006710D01*
G01X0009440Y0006710D02*
G01X0009372Y0006778D01*
G01X0009372Y0006778D02*
G01X0009284Y0006815D01*
G01X0009284Y0006815D02*
G01X0009240Y0006815D01*
G01X0009240Y0006815D02*
G01X0009240Y0006854D01*
G01X0009240Y0006854D02*
G01X0009203Y0006943D01*
G01X0009203Y0006943D02*
G01X0009136Y0007010D01*
G01X0009136Y0007010D02*
G01X0009048Y0007047D01*
G01X0009048Y0007047D02*
G01X0009043Y0007047D01*
G01X0009043Y0007047D02*
G01X0009043Y0007106D01*
G01X0009043Y0007106D02*
G01X0009007Y0007195D01*
G01X0009007Y0007195D02*
G01X0008939Y0007262D01*
G01X0008939Y0007262D02*
G01X0008851Y0007299D01*
G01X0008851Y0007299D02*
G01X0008846Y0007299D01*
G01X0008846Y0007299D02*
G01X0008846Y0007362D01*
G01X0008846Y0007362D02*
G01X0008810Y0007451D01*
G01X0008810Y0007451D02*
G01X0008742Y0007518D01*
G01X0008742Y0007518D02*
G01X0008689Y0007540D01*
G01X0008689Y0007540D02*
G01X0008689Y0007561D01*
G01X0008689Y0007561D02*
G01X0008706Y0007544D01*
G01X0008706Y0007544D02*
G01X0008795Y0007507D01*
G01X0008795Y0007507D02*
G01X0008890Y0007507D01*
G01X0008890Y0007507D02*
G01X0008978Y0007544D01*
G01X0008978Y0007544D02*
G01X0009046Y0007612D01*
G01X0009046Y0007612D02*
G01X0009083Y0007700D01*
G01X0009083Y0007700D02*
G01X0009083Y0007795D01*
G01X0009083Y0007795D02*
G01X0009046Y0007884D01*
G01X0009046Y0007884D02*
G01X0009029Y0007901D01*
G01X0009029Y0007901D02*
G01X0009236Y0007901D01*
G01X0009236Y0007901D02*
G01X0009893Y0007244D01*
G01X0009893Y0007244D02*
G01X0009893Y0001952D01*
G01X0009893Y0001952D02*
G01X0009842Y0002004D01*
G01X0009842Y0002004D02*
G01X0009685Y0002004D01*
G01X0009685Y0002004D02*
G01X0009575Y0001893D01*
G01X0009575Y0001893D02*
G01X0009575Y0001736D01*
G01X0009575Y0001736D02*
G01X0009685Y0001625D01*
G01X0009685Y0001625D02*
G01X0009842Y0001625D01*
G01X0009842Y0001625D02*
G01X0009893Y0001677D01*
G01X0009893Y0001677D02*
G01X0009893Y0001212D01*
G01X0009893Y0001212D02*
G01X0009842Y0001263D01*
G01X0009842Y0001263D02*
G01X0009685Y0001263D01*
G01X0009685Y0001263D02*
G01X0009575Y0001153D01*
G01X0009575Y0001153D02*
G01X0009575Y0000996D01*
G01X0009575Y0000996D02*
G01X0009626Y0000945D01*
G01X0009626Y0000945D02*
G01X0009161Y0000945D01*
G01X0009161Y0000945D02*
G01X0009212Y0000996D01*
G01X0009212Y0000996D02*
G01X0009212Y0001153D01*
G01X0009212Y0001153D02*
G01X0009102Y0001263D01*
G01X0009102Y0001263D02*
G01X0008945Y0001263D01*
G01X0008945Y0001263D02*
G01X0008834Y0001153D01*
G01X0008834Y0001153D02*
G01X0008834Y0000996D01*
G01X0008834Y0000996D02*
G01X0008886Y0000945D01*
G01X0008886Y0000945D02*
G01X0005848Y0000945D01*
G01X0005848Y0000945D02*
G01X0005896Y0000993D01*
G01X0005896Y0000993D02*
G01X0005933Y0001082D01*
G01X0005933Y0001082D02*
G01X0005933Y0001177D01*
G01X0005933Y0001177D02*
G01X0005896Y0001266D01*
G01X0005896Y0001266D02*
G01X0005829Y0001333D01*
G01X0005829Y0001333D02*
G01X0005740Y0001370D01*
G01X0005740Y0001370D02*
G01X0005645Y0001370D01*
G01X0005645Y0001370D02*
G01X0005557Y0001333D01*
G01X0005557Y0001333D02*
G01X0005489Y0001266D01*
G01X0005489Y0001266D02*
G01X0005452Y0001177D01*
G01X0005452Y0001177D02*
G01X0005452Y0001082D01*
G01X0005452Y0001082D02*
G01X0005489Y0000993D01*
G01X0005489Y0000993D02*
G01X0005538Y0000945D01*
G01X0005538Y0000945D02*
G01X0004074Y0000945D01*
G01X0004074Y0000945D02*
G01X0004126Y0000996D01*
G01X0004126Y0000996D02*
G01X0004126Y0001153D01*
G01X0004126Y0001153D02*
G01X0004047Y0001231D01*
G01X0004047Y0001231D02*
G01X0004092Y0001340D01*
G01X0004092Y0001340D02*
G01X0004092Y0001549D01*
G01X0004092Y0001549D02*
G01X0004047Y0001657D01*
G01X0004047Y0001657D02*
G01X0004126Y0001736D01*
G01X0004126Y0001736D02*
G01X0004126Y0001893D01*
G01X0004126Y0001893D02*
G01X0004039Y0001979D01*
G01X0004039Y0001979D02*
G01X0004039Y0002704D01*
G01X0004039Y0002704D02*
G01X0004077Y0007266D01*
G01X0004077Y0007266D02*
G01X0003837Y0007507D01*
G01X0003837Y0007507D02*
G01X0003067Y0007507D01*
G01X0003067Y0007507D02*
G01X0003067Y0008559D01*
G01X0003067Y0008559D02*
G01X0005496Y0008559D01*
G01X0005496Y0008559D02*
G01X0005496Y0007901D01*
G01X0005496Y0007901D02*
G01X0006184Y0007901D01*
G01X0006184Y0007901D02*
G01X0006217Y0007820D01*
G01X0006217Y0007820D02*
G01X0006285Y0007753D01*
G01X0006285Y0007753D02*
G01X0006373Y0007716D01*
G01X0006373Y0007716D02*
G01X0006469Y0007716D01*
G01X0006469Y0007716D02*
G01X0006557Y0007753D01*
G01X0006557Y0007753D02*
G01X0006625Y0007820D01*
G01X0006625Y0007820D02*
G01X0006658Y0007901D01*
G01X0006609Y0007804D02*
G01X0008395Y0007804D01*
G01X0008503Y0007804D02*
G01X0008606Y0007804D01*
G01X0008756Y0007504D02*
G01X0009633Y0007504D01*
G01X0009732Y0007405D02*
G01X0008829Y0007405D01*
G01X0008846Y0007305D02*
G01X0009832Y0007305D01*
G01X0009893Y0007205D02*
G01X0008996Y0007205D01*
G01X0009043Y0007105D02*
G01X0009893Y0007105D01*
G01X0009893Y0007005D02*
G01X0009141Y0007005D01*
G01X0009219Y0006905D02*
G01X0009893Y0006905D01*
G01X0009893Y0006806D02*
G01X0009306Y0006806D01*
G01X0009442Y0006706D02*
G01X0009893Y0006706D01*
G01X0009893Y0006606D02*
G01X0009476Y0006606D01*
G01X0009468Y0006506D02*
G01X0009893Y0006506D01*
G01X0009893Y0006406D02*
G01X0009408Y0006406D01*
G01X0009117Y0006306D02*
G01X0009893Y0006306D01*
G01X0009893Y0006206D02*
G01X0009062Y0006206D01*
G01X0008834Y0006606D02*
G01X0004071Y0006606D01*
G01X0004072Y0006706D02*
G01X0008782Y0006706D01*
G01X0008760Y0006806D02*
G01X0005350Y0006806D01*
G01X0005337Y0006792D02*
G01X0005404Y0006859D01*
G01X0005404Y0006859D02*
G01X0005441Y0006948D01*
G01X0005441Y0006948D02*
G01X0005441Y0007043D01*
G01X0005441Y0007043D02*
G01X0005404Y0007132D01*
G01X0005404Y0007132D02*
G01X0005337Y0007199D01*
G01X0005337Y0007199D02*
G01X0005248Y0007236D01*
G01X0005248Y0007236D02*
G01X0005232Y0007236D01*
G01X0005232Y0007236D02*
G01X0005232Y0007260D01*
G01X0005232Y0007260D02*
G01X0005196Y0007348D01*
G01X0005196Y0007348D02*
G01X0005142Y0007402D01*
G01X0005142Y0007402D02*
G01X0005165Y0007460D01*
G01X0005165Y0007460D02*
G01X0005165Y0007555D01*
G01X0005165Y0007555D02*
G01X0005129Y0007644D01*
G01X0005129Y0007644D02*
G01X0005061Y0007711D01*
G01X0005061Y0007711D02*
G01X0004973Y0007748D01*
G01X0004973Y0007748D02*
G01X0004877Y0007748D01*
G01X0004877Y0007748D02*
G01X0004789Y0007711D01*
G01X0004789Y0007711D02*
G01X0004721Y0007644D01*
G01X0004721Y0007644D02*
G01X0004685Y0007555D01*
G01X0004685Y0007555D02*
G01X0004685Y0007460D01*
G01X0004685Y0007460D02*
G01X0004721Y0007371D01*
G01X0004721Y0007371D02*
G01X0004775Y0007317D01*
G01X0004775Y0007317D02*
G01X0004752Y0007260D01*
G01X0004752Y0007260D02*
G01X0004752Y0007164D01*
G01X0004752Y0007164D02*
G01X0004788Y0007076D01*
G01X0004788Y0007076D02*
G01X0004856Y0007009D01*
G01X0004856Y0007009D02*
G01X0004944Y0006972D01*
G01X0004944Y0006972D02*
G01X0004960Y0006972D01*
G01X0004960Y0006972D02*
G01X0004960Y0006948D01*
G01X0004960Y0006948D02*
G01X0004997Y0006859D01*
G01X0004997Y0006859D02*
G01X0005065Y0006792D01*
G01X0005065Y0006792D02*
G01X0005153Y0006755D01*
G01X0005153Y0006755D02*
G01X0005248Y0006755D01*
G01X0005248Y0006755D02*
G01X0005337Y0006792D01*
G01X0005423Y0006905D02*
G01X0008616Y0006905D01*
G01X0008565Y0007005D02*
G01X0005441Y0007005D01*
G01X0005415Y0007105D02*
G01X0008484Y0007105D01*
G01X0008391Y0007205D02*
G01X0005323Y0007205D01*
G01X0005214Y0007305D02*
G01X0008366Y0007305D01*
G01X0008271Y0007405D02*
G01X0005142Y0007405D01*
G01X0005165Y0007504D02*
G01X0008214Y0007504D01*
G01X0008208Y0007604D02*
G01X0005145Y0007604D01*
G01X0005068Y0007704D02*
G01X0008247Y0007704D01*
G01X0009039Y0007604D02*
G01X0009533Y0007604D01*
G01X0009433Y0007704D02*
G01X0009083Y0007704D01*
G01X0009079Y0007804D02*
G01X0009333Y0007804D01*
G01X0008407Y0006506D02*
G01X0004070Y0006506D01*
G01X0004070Y0006406D02*
G01X0008307Y0006406D01*
G01X0008208Y0006306D02*
G01X0004069Y0006306D01*
G01X0004068Y0006206D02*
G01X0008155Y0006206D01*
G01X0008155Y0006107D02*
G01X0004067Y0006107D01*
G01X0004066Y0006007D02*
G01X0008155Y0006007D01*
G01X0008155Y0005907D02*
G01X0004065Y0005907D01*
G01X0004065Y0005807D02*
G01X0008155Y0005807D01*
G01X0008155Y0005707D02*
G01X0004064Y0005707D01*
G01X0004063Y0005607D02*
G01X0008155Y0005607D01*
G01X0008155Y0005508D02*
G01X0004062Y0005508D01*
G01X0004061Y0005408D02*
G01X0008155Y0005408D01*
G01X0008155Y0005308D02*
G01X0004061Y0005308D01*
G01X0004060Y0005208D02*
G01X0008155Y0005208D01*
G01X0008130Y0005108D02*
G01X0004059Y0005108D01*
G01X0004058Y0005008D02*
G01X0005176Y0005008D01*
G01X0005143Y0004995D02*
G01X0005076Y0004927D01*
G01X0005076Y0004927D02*
G01X0005039Y0004839D01*
G01X0005039Y0004839D02*
G01X0005039Y0004743D01*
G01X0005039Y0004743D02*
G01X0005076Y0004655D01*
G01X0005076Y0004655D02*
G01X0005143Y0004587D01*
G01X0005143Y0004587D02*
G01X0005232Y0004551D01*
G01X0005232Y0004551D02*
G01X0005327Y0004551D01*
G01X0005327Y0004551D02*
G01X0005415Y0004587D01*
G01X0005415Y0004587D02*
G01X0005483Y0004655D01*
G01X0005483Y0004655D02*
G01X0005520Y0004743D01*
G01X0005520Y0004743D02*
G01X0005520Y0004839D01*
G01X0005520Y0004839D02*
G01X0005483Y0004927D01*
G01X0005483Y0004927D02*
G01X0005415Y0004995D01*
G01X0005415Y0004995D02*
G01X0005327Y0005031D01*
G01X0005327Y0005031D02*
G01X0005232Y0005031D01*
G01X0005232Y0005031D02*
G01X0005143Y0004995D01*
G01X0005068Y0004908D02*
G01X0004057Y0004908D01*
G01X0004056Y0004809D02*
G01X0005039Y0004809D01*
G01X0005053Y0004709D02*
G01X0004056Y0004709D01*
G01X0004055Y0004609D02*
G01X0005122Y0004609D01*
G01X0005437Y0004609D02*
G01X0005576Y0004609D01*
G01X0005557Y0004601D02*
G01X0005489Y0004533D01*
G01X0005489Y0004533D02*
G01X0005452Y0004445D01*
G01X0005452Y0004445D02*
G01X0005452Y0004349D01*
G01X0005452Y0004349D02*
G01X0005489Y0004261D01*
G01X0005489Y0004261D02*
G01X0005546Y0004204D01*
G01X0005546Y0004204D02*
G01X0005527Y0004204D01*
G01X0005527Y0004204D02*
G01X0005438Y0004168D01*
G01X0005438Y0004168D02*
G01X0005371Y0004100D01*
G01X0005371Y0004100D02*
G01X0005334Y0004012D01*
G01X0005334Y0004012D02*
G01X0005334Y0003916D01*
G01X0005334Y0003916D02*
G01X0005371Y0003828D01*
G01X0005371Y0003828D02*
G01X0005438Y0003760D01*
G01X0005438Y0003760D02*
G01X0005527Y0003724D01*
G01X0005527Y0003724D02*
G01X0005622Y0003724D01*
G01X0005622Y0003724D02*
G01X0005711Y0003760D01*
G01X0005711Y0003760D02*
G01X0005778Y0003828D01*
G01X0005778Y0003828D02*
G01X0005815Y0003916D01*
G01X0005815Y0003916D02*
G01X0005815Y0004012D01*
G01X0005815Y0004012D02*
G01X0005778Y0004100D01*
G01X0005778Y0004100D02*
G01X0005722Y0004157D01*
G01X0005722Y0004157D02*
G01X0005740Y0004157D01*
G01X0005740Y0004157D02*
G01X0005829Y0004194D01*
G01X0005829Y0004194D02*
G01X0005850Y0004215D01*
G01X0005850Y0004215D02*
G01X0005872Y0004194D01*
G01X0005872Y0004194D02*
G01X0005960Y0004157D01*
G01X0005960Y0004157D02*
G01X0006055Y0004157D01*
G01X0006055Y0004157D02*
G01X0006144Y0004194D01*
G01X0006144Y0004194D02*
G01X0006211Y0004261D01*
G01X0006211Y0004261D02*
G01X0006248Y0004349D01*
G01X0006248Y0004349D02*
G01X0006248Y0004445D01*
G01X0006248Y0004445D02*
G01X0006211Y0004533D01*
G01X0006211Y0004533D02*
G01X0006144Y0004601D01*
G01X0006144Y0004601D02*
G01X0006055Y0004637D01*
G01X0006055Y0004637D02*
G01X0005960Y0004637D01*
G01X0005960Y0004637D02*
G01X0005872Y0004601D01*
G01X0005872Y0004601D02*
G01X0005850Y0004579D01*
G01X0005850Y0004579D02*
G01X0005829Y0004601D01*
G01X0005829Y0004601D02*
G01X0005740Y0004637D01*
G01X0005740Y0004637D02*
G01X0005645Y0004637D01*
G01X0005645Y0004637D02*
G01X0005557Y0004601D01*
G01X0005505Y0004709D02*
G01X0007117Y0004709D01*
G01X0007216Y0004809D02*
G01X0005520Y0004809D01*
G01X0005491Y0004908D02*
G01X0007316Y0004908D01*
G01X0007017Y0004609D02*
G01X0006124Y0004609D01*
G01X0006221Y0004509D02*
G01X0006917Y0004509D01*
G01X0006817Y0004409D02*
G01X0006248Y0004409D01*
G01X0006231Y0004309D02*
G01X0006717Y0004309D01*
G01X0006617Y0004209D02*
G01X0006160Y0004209D01*
G01X0005856Y0004209D02*
G01X0005845Y0004209D01*
G01X0005769Y0004110D02*
G01X0006517Y0004110D01*
G01X0006418Y0004010D02*
G01X0005815Y0004010D01*
G01X0005812Y0003910D02*
G01X0006320Y0003910D01*
G01X0006320Y0003810D02*
G01X0005760Y0003810D01*
G01X0005389Y0003810D02*
G01X0004048Y0003810D01*
G01X0004047Y0003710D02*
G01X0006262Y0003710D01*
G01X0006240Y0003610D02*
G01X0004047Y0003610D01*
G01X0004046Y0003510D02*
G01X0006261Y0003510D01*
G01X0006224Y0003423D02*
G01X0006066Y0003489D01*
G01X0006066Y0003489D02*
G01X0005895Y0003489D01*
G01X0005895Y0003489D02*
G01X0005737Y0003423D01*
G01X0005737Y0003423D02*
G01X0005616Y0003302D01*
G01X0005616Y0003302D02*
G01X0005550Y0003144D01*
G01X0005550Y0003144D02*
G01X0005550Y0002973D01*
G01X0005550Y0002973D02*
G01X0005616Y0002815D01*
G01X0005616Y0002815D02*
G01X0005737Y0002694D01*
G01X0005737Y0002694D02*
G01X0005895Y0002629D01*
G01X0005895Y0002629D02*
G01X0006066Y0002629D01*
G01X0006066Y0002629D02*
G01X0006224Y0002694D01*
G01X0006224Y0002694D02*
G01X0006345Y0002815D01*
G01X0006345Y0002815D02*
G01X0006410Y0002973D01*
G01X0006410Y0002973D02*
G01X0006410Y0003144D01*
G01X0006410Y0003144D02*
G01X0006345Y0003302D01*
G01X0006345Y0003302D02*
G01X0006224Y0003423D01*
G01X0006236Y0003411D02*
G01X0006340Y0003411D01*
G01X0006336Y0003311D02*
G01X0006624Y0003311D01*
G01X0006616Y0003302D02*
G01X0006550Y0003144D01*
G01X0006550Y0003144D02*
G01X0006550Y0002973D01*
G01X0006550Y0002973D02*
G01X0006616Y0002815D01*
G01X0006616Y0002815D02*
G01X0006737Y0002694D01*
G01X0006737Y0002694D02*
G01X0006895Y0002629D01*
G01X0006895Y0002629D02*
G01X0007066Y0002629D01*
G01X0007066Y0002629D02*
G01X0007224Y0002694D01*
G01X0007224Y0002694D02*
G01X0007345Y0002815D01*
G01X0007345Y0002815D02*
G01X0007410Y0002973D01*
G01X0007410Y0002973D02*
G01X0007410Y0003144D01*
G01X0007410Y0003144D02*
G01X0007345Y0003302D01*
G01X0007345Y0003302D02*
G01X0007224Y0003423D01*
G01X0007224Y0003423D02*
G01X0007066Y0003489D01*
G01X0007066Y0003489D02*
G01X0006895Y0003489D01*
G01X0006895Y0003489D02*
G01X0006737Y0003423D01*
G01X0006737Y0003423D02*
G01X0006616Y0003302D01*
G01X0006578Y0003211D02*
G01X0006382Y0003211D01*
G01X0006410Y0003111D02*
G01X0006550Y0003111D01*
G01X0006550Y0003011D02*
G01X0006410Y0003011D01*
G01X0006385Y0002911D02*
G01X0006576Y0002911D01*
G01X0006619Y0002812D02*
G01X0006341Y0002812D01*
G01X0006241Y0002712D02*
G01X0006719Y0002712D01*
G01X0007241Y0002712D02*
G01X0007719Y0002712D01*
G01X0007736Y0002694D02*
G01X0007895Y0002629D01*
G01X0007895Y0002629D02*
G01X0008066Y0002629D01*
G01X0008066Y0002629D02*
G01X0008224Y0002694D01*
G01X0008224Y0002694D02*
G01X0008345Y0002815D01*
G01X0008345Y0002815D02*
G01X0008410Y0002973D01*
G01X0008410Y0002973D02*
G01X0008410Y0003144D01*
G01X0008410Y0003144D02*
G01X0008345Y0003302D01*
G01X0008345Y0003302D02*
G01X0008224Y0003423D01*
G01X0008224Y0003423D02*
G01X0008066Y0003489D01*
G01X0008066Y0003489D02*
G01X0007895Y0003489D01*
G01X0007895Y0003489D02*
G01X0007736Y0003423D01*
G01X0007736Y0003423D02*
G01X0007615Y0003302D01*
G01X0007615Y0003302D02*
G01X0007550Y0003144D01*
G01X0007550Y0003144D02*
G01X0007550Y0002973D01*
G01X0007550Y0002973D02*
G01X0007615Y0002815D01*
G01X0007615Y0002815D02*
G01X0007736Y0002694D01*
G01X0007619Y0002812D02*
G01X0007341Y0002812D01*
G01X0007385Y0002911D02*
G01X0007576Y0002911D01*
G01X0007550Y0003011D02*
G01X0007410Y0003011D01*
G01X0007410Y0003111D02*
G01X0007550Y0003111D01*
G01X0007578Y0003211D02*
G01X0007382Y0003211D01*
G01X0007336Y0003311D02*
G01X0007624Y0003311D01*
G01X0007724Y0003411D02*
G01X0007236Y0003411D01*
G01X0007096Y0003610D02*
G01X0009416Y0003610D01*
G01X0009424Y0003614D02*
G01X0009336Y0003577D01*
G01X0009336Y0003577D02*
G01X0009269Y0003510D01*
G01X0009269Y0003510D02*
G01X0009232Y0003421D01*
G01X0009232Y0003421D02*
G01X0009232Y0003326D01*
G01X0009232Y0003326D02*
G01X0009269Y0003238D01*
G01X0009269Y0003238D02*
G01X0009336Y0003170D01*
G01X0009336Y0003170D02*
G01X0009424Y0003133D01*
G01X0009424Y0003133D02*
G01X0009520Y0003133D01*
G01X0009520Y0003133D02*
G01X0009608Y0003170D01*
G01X0009608Y0003170D02*
G01X0009676Y0003238D01*
G01X0009676Y0003238D02*
G01X0009712Y0003326D01*
G01X0009712Y0003326D02*
G01X0009712Y0003421D01*
G01X0009712Y0003421D02*
G01X0009676Y0003510D01*
G01X0009676Y0003510D02*
G01X0009608Y0003577D01*
G01X0009608Y0003577D02*
G01X0009520Y0003614D01*
G01X0009520Y0003614D02*
G01X0009424Y0003614D01*
G01X0009528Y0003610D02*
G01X0009893Y0003610D01*
G01X0009893Y0003510D02*
G01X0009675Y0003510D01*
G01X0009712Y0003411D02*
G01X0009893Y0003411D01*
G01X0009893Y0003311D02*
G01X0009706Y0003311D01*
G01X0009649Y0003211D02*
G01X0009893Y0003211D01*
G01X0009893Y0003111D02*
G01X0008410Y0003111D01*
G01X0008410Y0003011D02*
G01X0009893Y0003011D01*
G01X0009893Y0002911D02*
G01X0008385Y0002911D01*
G01X0008341Y0002812D02*
G01X0009893Y0002812D01*
G01X0009893Y0002712D02*
G01X0008241Y0002712D01*
G01X0008599Y0002447D02*
G01X0008563Y0002358D01*
G01X0008563Y0002358D02*
G01X0008563Y0002263D01*
G01X0008563Y0002263D02*
G01X0008599Y0002175D01*
G01X0008599Y0002175D02*
G01X0008667Y0002107D01*
G01X0008667Y0002107D02*
G01X0008755Y0002070D01*
G01X0008755Y0002070D02*
G01X0008851Y0002070D01*
G01X0008851Y0002070D02*
G01X0008939Y0002107D01*
G01X0008939Y0002107D02*
G01X0009007Y0002175D01*
G01X0009007Y0002175D02*
G01X0009043Y0002263D01*
G01X0009043Y0002263D02*
G01X0009043Y0002358D01*
G01X0009043Y0002358D02*
G01X0009007Y0002447D01*
G01X0009007Y0002447D02*
G01X0008939Y0002514D01*
G01X0008939Y0002514D02*
G01X0008851Y0002551D01*
G01X0008851Y0002551D02*
G01X0008755Y0002551D01*
G01X0008755Y0002551D02*
G01X0008667Y0002514D01*
G01X0008667Y0002514D02*
G01X0008599Y0002447D01*
G01X0008585Y0002412D02*
G01X0004039Y0002412D01*
G01X0004039Y0002312D02*
G01X0008563Y0002312D01*
G01X0008584Y0002212D02*
G01X0004039Y0002212D01*
G01X0004039Y0002113D02*
G01X0008661Y0002113D01*
G01X0008854Y0001913D02*
G01X0004106Y0001913D01*
G01X0004126Y0001813D02*
G01X0008834Y0001813D01*
G01X0008834Y0001736D02*
G01X0008834Y0001893D01*
G01X0008834Y0001893D02*
G01X0008945Y0002004D01*
G01X0008945Y0002004D02*
G01X0009102Y0002004D01*
G01X0009102Y0002004D02*
G01X0009212Y0001893D01*
G01X0009212Y0001893D02*
G01X0009212Y0001736D01*
G01X0009212Y0001736D02*
G01X0009102Y0001625D01*
G01X0009102Y0001625D02*
G01X0008945Y0001625D01*
G01X0008945Y0001625D02*
G01X0008834Y0001736D01*
G01X0008857Y0001713D02*
G01X0004103Y0001713D01*
G01X0004065Y0001613D02*
G01X0009893Y0001613D01*
G01X0009893Y0001513D02*
G01X0004092Y0001513D01*
G01X0004092Y0001414D02*
G01X0009893Y0001414D01*
G01X0009893Y0001314D02*
G01X0005848Y0001314D01*
G01X0005918Y0001214D02*
G01X0008896Y0001214D01*
G01X0008834Y0001114D02*
G01X0005933Y0001114D01*
G01X0005905Y0001014D02*
G01X0008834Y0001014D01*
G01X0009151Y0001214D02*
G01X0009636Y0001214D01*
G01X0009575Y0001114D02*
G01X0009212Y0001114D01*
G01X0009212Y0001014D02*
G01X0009575Y0001014D01*
G01X0009891Y0001214D02*
G01X0009893Y0001214D01*
G01X0009598Y0001713D02*
G01X0009189Y0001713D01*
G01X0009212Y0001813D02*
G01X0009575Y0001813D01*
G01X0009595Y0001913D02*
G01X0009192Y0001913D01*
G01X0008945Y0002113D02*
G01X0009893Y0002113D01*
G01X0009893Y0002212D02*
G01X0009022Y0002212D01*
G01X0009043Y0002312D02*
G01X0009893Y0002312D01*
G01X0009893Y0002412D02*
G01X0009021Y0002412D01*
G01X0008941Y0002512D02*
G01X0009893Y0002512D01*
G01X0009893Y0002612D02*
G01X0004039Y0002612D01*
G01X0004039Y0002512D02*
G01X0008665Y0002512D01*
G01X0008382Y0003211D02*
G01X0009295Y0003211D01*
G01X0009238Y0003311D02*
G01X0008336Y0003311D01*
G01X0008236Y0003411D02*
G01X0009232Y0003411D01*
G01X0009269Y0003510D02*
G01X0006699Y0003510D01*
G01X0006720Y0003610D02*
G01X0006809Y0003610D01*
G01X0006732Y0003710D02*
G01X0006698Y0003710D01*
G01X0006712Y0003810D02*
G01X0006670Y0003810D01*
G01X0006621Y0003411D02*
G01X0006724Y0003411D01*
G01X0007173Y0003710D02*
G01X0009893Y0003710D01*
G01X0009893Y0003810D02*
G01X0007193Y0003810D01*
G01X0007170Y0003910D02*
G01X0009893Y0003910D01*
G01X0009893Y0004010D02*
G01X0007113Y0004010D01*
G01X0007206Y0004110D02*
G01X0008176Y0004110D01*
G01X0008106Y0004209D02*
G01X0008010Y0004209D01*
G01X0008059Y0004309D02*
G01X0008090Y0004309D01*
G01X0008118Y0004409D02*
G01X0008057Y0004409D01*
G01X0007627Y0004209D02*
G01X0007306Y0004209D01*
G01X0007406Y0004309D02*
G01X0007579Y0004309D01*
G01X0007580Y0004409D02*
G01X0007506Y0004409D01*
G01X0008030Y0005008D02*
G01X0005382Y0005008D01*
G01X0005809Y0004609D02*
G01X0005891Y0004609D01*
G01X0005479Y0004509D02*
G01X0004054Y0004509D01*
G01X0004053Y0004409D02*
G01X0005452Y0004409D01*
G01X0005469Y0004309D02*
G01X0004052Y0004309D01*
G01X0004052Y0004209D02*
G01X0005541Y0004209D01*
G01X0005380Y0004110D02*
G01X0004051Y0004110D01*
G01X0004050Y0004010D02*
G01X0005334Y0004010D01*
G01X0005337Y0003910D02*
G01X0004049Y0003910D01*
G01X0004045Y0003411D02*
G01X0004724Y0003411D01*
G01X0004737Y0003423D02*
G01X0004616Y0003302D01*
G01X0004616Y0003302D02*
G01X0004550Y0003144D01*
G01X0004550Y0003144D02*
G01X0004550Y0002973D01*
G01X0004550Y0002973D02*
G01X0004616Y0002815D01*
G01X0004616Y0002815D02*
G01X0004737Y0002694D01*
G01X0004737Y0002694D02*
G01X0004895Y0002629D01*
G01X0004895Y0002629D02*
G01X0005066Y0002629D01*
G01X0005066Y0002629D02*
G01X0005224Y0002694D01*
G01X0005224Y0002694D02*
G01X0005345Y0002815D01*
G01X0005345Y0002815D02*
G01X0005410Y0002973D01*
G01X0005410Y0002973D02*
G01X0005410Y0003144D01*
G01X0005410Y0003144D02*
G01X0005345Y0003302D01*
G01X0005345Y0003302D02*
G01X0005224Y0003423D01*
G01X0005224Y0003423D02*
G01X0005066Y0003489D01*
G01X0005066Y0003489D02*
G01X0004895Y0003489D01*
G01X0004895Y0003489D02*
G01X0004737Y0003423D01*
G01X0004624Y0003311D02*
G01X0004044Y0003311D01*
G01X0004043Y0003211D02*
G01X0004578Y0003211D01*
G01X0004550Y0003111D02*
G01X0004043Y0003111D01*
G01X0004042Y0003011D02*
G01X0004550Y0003011D01*
G01X0004576Y0002911D02*
G01X0004041Y0002911D01*
G01X0004040Y0002812D02*
G01X0004619Y0002812D01*
G01X0004719Y0002712D02*
G01X0004039Y0002712D01*
G01X0004039Y0002013D02*
G01X0009893Y0002013D01*
G01X0009893Y0004110D02*
G01X0008485Y0004110D01*
G01X0008555Y0004209D02*
G01X0009893Y0004209D01*
G01X0009893Y0004309D02*
G01X0008571Y0004309D01*
G01X0008543Y0004409D02*
G01X0009893Y0004409D01*
G01X0009893Y0004509D02*
G01X0008703Y0004509D01*
G01X0008761Y0004609D02*
G01X0009893Y0004609D01*
G01X0009893Y0004709D02*
G01X0008768Y0004709D01*
G01X0008731Y0004809D02*
G01X0009893Y0004809D01*
G01X0009893Y0004908D02*
G01X0008635Y0004908D01*
G01X0008735Y0005008D02*
G01X0009893Y0005008D01*
G01X0009893Y0005108D02*
G01X0008835Y0005108D01*
G01X0008884Y0005208D02*
G01X0009893Y0005208D01*
G01X0009893Y0005308D02*
G01X0009030Y0005308D01*
G01X0009104Y0005408D02*
G01X0009893Y0005408D01*
G01X0009893Y0005508D02*
G01X0009122Y0005508D01*
G01X0009097Y0005607D02*
G01X0009893Y0005607D01*
G01X0009893Y0005707D02*
G01X0009008Y0005707D01*
G01X0008755Y0005707D02*
G01X0008475Y0005707D01*
G01X0008475Y0005807D02*
G01X0009893Y0005807D01*
G01X0009893Y0005907D02*
G01X0008475Y0005907D01*
G01X0008475Y0006007D02*
G01X0009893Y0006007D01*
G01X0009893Y0006107D02*
G01X0008475Y0006107D01*
G01X0008475Y0005607D02*
G01X0008666Y0005607D01*
G01X0008641Y0005508D02*
G01X0008475Y0005508D01*
G01X0008475Y0005408D02*
G01X0008564Y0005408D01*
G01X0008564Y0005308D02*
G01X0008475Y0005308D01*
G01X0008475Y0005208D02*
G01X0008482Y0005208D01*
G01X0005724Y0003411D02*
G01X0005236Y0003411D01*
G01X0005336Y0003311D02*
G01X0005624Y0003311D01*
G01X0005578Y0003211D02*
G01X0005382Y0003211D01*
G01X0005410Y0003111D02*
G01X0005550Y0003111D01*
G01X0005550Y0003011D02*
G01X0005410Y0003011D01*
G01X0005385Y0002911D02*
G01X0005576Y0002911D01*
G01X0005619Y0002812D02*
G01X0005341Y0002812D01*
G01X0005241Y0002712D02*
G01X0005719Y0002712D01*
G01X0005537Y0001314D02*
G01X0004081Y0001314D01*
G01X0004065Y0001214D02*
G01X0005468Y0001214D01*
G01X0005452Y0001114D02*
G01X0004126Y0001114D01*
G01X0004126Y0001014D02*
G01X0005480Y0001014D01*
G01X0005051Y0006806D02*
G01X0004073Y0006806D01*
G01X0004074Y0006905D02*
G01X0004978Y0006905D01*
G01X0004864Y0007005D02*
G01X0004074Y0007005D01*
G01X0004075Y0007105D02*
G01X0004776Y0007105D01*
G01X0004752Y0007205D02*
G01X0004076Y0007205D01*
G01X0004038Y0007305D02*
G01X0004770Y0007305D01*
G01X0004708Y0007405D02*
G01X0003939Y0007405D01*
G01X0003840Y0007504D02*
G01X0004685Y0007504D01*
G01X0004705Y0007604D02*
G01X0003067Y0007604D01*
G01X0003067Y0007704D02*
G01X0004782Y0007704D01*
G01X0005496Y0007904D02*
G01X0003067Y0007904D01*
G01X0003067Y0007804D02*
G01X0006233Y0007804D01*
G01X0005496Y0008004D02*
G01X0003067Y0008004D01*
G01X0003067Y0008104D02*
G01X0005496Y0008104D01*
G01X0005496Y0008204D02*
G01X0003067Y0008204D01*
G01X0003067Y0008303D02*
G01X0005496Y0008303D01*
G01X0005496Y0008403D02*
G01X0003067Y0008403D01*
G01X0003067Y0008503D02*
G01X0005496Y0008503D01*
G54D15*
G01X0008315Y0006187D02*
G01X0008493Y0006366D01*
G01X0008493Y0006366D02*
G01X0008882Y0006366D01*
G01X0008315Y0006187D02*
G01X0008315Y0005067D01*
G01X0008315Y0005067D02*
G01X0008000Y0004752D01*
G01X0008000Y0004752D02*
G01X0007386Y0004752D01*
G01X0007386Y0004752D02*
G01X0006480Y0003846D01*
G01X0006480Y0003846D02*
G01X0006480Y0003610D01*
G01X0006953Y0003807D02*
G01X0006953Y0004082D01*
G01X0006953Y0004082D02*
G01X0007464Y0004594D01*
G01X0007464Y0004594D02*
G01X0008094Y0004594D01*
G01X0008094Y0004594D02*
G01X0008724Y0005224D01*
G01X0008724Y0005224D02*
G01X0008724Y0005342D01*
G01X0008724Y0005342D02*
G01X0008882Y0005500D01*
M02*
