G75*
%MOIN*%
%OFA0B0*%
%FSLAX25Y25*%
%IPPOS*%
%LPD*%
%AMOC8*
5,1,8,0,0,1.08239X$1,22.5*
%
%ADD10C,0.00000*%
%ADD11C,0.06000*%
%ADD12C,0.07906*%
%ADD13C,0.02205*%
%ADD14C,0.00600*%
%ADD15C,0.00800*%
%ADD16C,0.01000*%
D10*
X0029368Y0008145D02*
X0029368Y0086885D01*
X0100234Y0086885D01*
X0100234Y0008145D01*
X0029368Y0008145D01*
X0031375Y0010743D02*
X0031377Y0010791D01*
X0031383Y0010839D01*
X0031393Y0010886D01*
X0031406Y0010932D01*
X0031424Y0010977D01*
X0031444Y0011021D01*
X0031469Y0011063D01*
X0031497Y0011102D01*
X0031527Y0011139D01*
X0031561Y0011173D01*
X0031598Y0011205D01*
X0031636Y0011234D01*
X0031677Y0011259D01*
X0031720Y0011281D01*
X0031765Y0011299D01*
X0031811Y0011313D01*
X0031858Y0011324D01*
X0031906Y0011331D01*
X0031954Y0011334D01*
X0032002Y0011333D01*
X0032050Y0011328D01*
X0032098Y0011319D01*
X0032144Y0011307D01*
X0032189Y0011290D01*
X0032233Y0011270D01*
X0032275Y0011247D01*
X0032315Y0011220D01*
X0032353Y0011190D01*
X0032388Y0011157D01*
X0032420Y0011121D01*
X0032450Y0011083D01*
X0032476Y0011042D01*
X0032498Y0010999D01*
X0032518Y0010955D01*
X0032533Y0010910D01*
X0032545Y0010863D01*
X0032553Y0010815D01*
X0032557Y0010767D01*
X0032557Y0010719D01*
X0032553Y0010671D01*
X0032545Y0010623D01*
X0032533Y0010576D01*
X0032518Y0010531D01*
X0032498Y0010487D01*
X0032476Y0010444D01*
X0032450Y0010403D01*
X0032420Y0010365D01*
X0032388Y0010329D01*
X0032353Y0010296D01*
X0032315Y0010266D01*
X0032275Y0010239D01*
X0032233Y0010216D01*
X0032189Y0010196D01*
X0032144Y0010179D01*
X0032098Y0010167D01*
X0032050Y0010158D01*
X0032002Y0010153D01*
X0031954Y0010152D01*
X0031906Y0010155D01*
X0031858Y0010162D01*
X0031811Y0010173D01*
X0031765Y0010187D01*
X0031720Y0010205D01*
X0031677Y0010227D01*
X0031636Y0010252D01*
X0031598Y0010281D01*
X0031561Y0010313D01*
X0031527Y0010347D01*
X0031497Y0010384D01*
X0031469Y0010423D01*
X0031444Y0010465D01*
X0031424Y0010509D01*
X0031406Y0010554D01*
X0031393Y0010600D01*
X0031383Y0010647D01*
X0031377Y0010695D01*
X0031375Y0010743D01*
X0038777Y0010743D02*
X0038779Y0010791D01*
X0038785Y0010839D01*
X0038795Y0010886D01*
X0038808Y0010932D01*
X0038826Y0010977D01*
X0038846Y0011021D01*
X0038871Y0011063D01*
X0038899Y0011102D01*
X0038929Y0011139D01*
X0038963Y0011173D01*
X0039000Y0011205D01*
X0039038Y0011234D01*
X0039079Y0011259D01*
X0039122Y0011281D01*
X0039167Y0011299D01*
X0039213Y0011313D01*
X0039260Y0011324D01*
X0039308Y0011331D01*
X0039356Y0011334D01*
X0039404Y0011333D01*
X0039452Y0011328D01*
X0039500Y0011319D01*
X0039546Y0011307D01*
X0039591Y0011290D01*
X0039635Y0011270D01*
X0039677Y0011247D01*
X0039717Y0011220D01*
X0039755Y0011190D01*
X0039790Y0011157D01*
X0039822Y0011121D01*
X0039852Y0011083D01*
X0039878Y0011042D01*
X0039900Y0010999D01*
X0039920Y0010955D01*
X0039935Y0010910D01*
X0039947Y0010863D01*
X0039955Y0010815D01*
X0039959Y0010767D01*
X0039959Y0010719D01*
X0039955Y0010671D01*
X0039947Y0010623D01*
X0039935Y0010576D01*
X0039920Y0010531D01*
X0039900Y0010487D01*
X0039878Y0010444D01*
X0039852Y0010403D01*
X0039822Y0010365D01*
X0039790Y0010329D01*
X0039755Y0010296D01*
X0039717Y0010266D01*
X0039677Y0010239D01*
X0039635Y0010216D01*
X0039591Y0010196D01*
X0039546Y0010179D01*
X0039500Y0010167D01*
X0039452Y0010158D01*
X0039404Y0010153D01*
X0039356Y0010152D01*
X0039308Y0010155D01*
X0039260Y0010162D01*
X0039213Y0010173D01*
X0039167Y0010187D01*
X0039122Y0010205D01*
X0039079Y0010227D01*
X0039038Y0010252D01*
X0039000Y0010281D01*
X0038963Y0010313D01*
X0038929Y0010347D01*
X0038899Y0010384D01*
X0038871Y0010423D01*
X0038846Y0010465D01*
X0038826Y0010509D01*
X0038808Y0010554D01*
X0038795Y0010600D01*
X0038785Y0010647D01*
X0038779Y0010695D01*
X0038777Y0010743D01*
X0038777Y0018145D02*
X0038779Y0018193D01*
X0038785Y0018241D01*
X0038795Y0018288D01*
X0038808Y0018334D01*
X0038826Y0018379D01*
X0038846Y0018423D01*
X0038871Y0018465D01*
X0038899Y0018504D01*
X0038929Y0018541D01*
X0038963Y0018575D01*
X0039000Y0018607D01*
X0039038Y0018636D01*
X0039079Y0018661D01*
X0039122Y0018683D01*
X0039167Y0018701D01*
X0039213Y0018715D01*
X0039260Y0018726D01*
X0039308Y0018733D01*
X0039356Y0018736D01*
X0039404Y0018735D01*
X0039452Y0018730D01*
X0039500Y0018721D01*
X0039546Y0018709D01*
X0039591Y0018692D01*
X0039635Y0018672D01*
X0039677Y0018649D01*
X0039717Y0018622D01*
X0039755Y0018592D01*
X0039790Y0018559D01*
X0039822Y0018523D01*
X0039852Y0018485D01*
X0039878Y0018444D01*
X0039900Y0018401D01*
X0039920Y0018357D01*
X0039935Y0018312D01*
X0039947Y0018265D01*
X0039955Y0018217D01*
X0039959Y0018169D01*
X0039959Y0018121D01*
X0039955Y0018073D01*
X0039947Y0018025D01*
X0039935Y0017978D01*
X0039920Y0017933D01*
X0039900Y0017889D01*
X0039878Y0017846D01*
X0039852Y0017805D01*
X0039822Y0017767D01*
X0039790Y0017731D01*
X0039755Y0017698D01*
X0039717Y0017668D01*
X0039677Y0017641D01*
X0039635Y0017618D01*
X0039591Y0017598D01*
X0039546Y0017581D01*
X0039500Y0017569D01*
X0039452Y0017560D01*
X0039404Y0017555D01*
X0039356Y0017554D01*
X0039308Y0017557D01*
X0039260Y0017564D01*
X0039213Y0017575D01*
X0039167Y0017589D01*
X0039122Y0017607D01*
X0039079Y0017629D01*
X0039038Y0017654D01*
X0039000Y0017683D01*
X0038963Y0017715D01*
X0038929Y0017749D01*
X0038899Y0017786D01*
X0038871Y0017825D01*
X0038846Y0017867D01*
X0038826Y0017911D01*
X0038808Y0017956D01*
X0038795Y0018002D01*
X0038785Y0018049D01*
X0038779Y0018097D01*
X0038777Y0018145D01*
X0031375Y0018145D02*
X0031377Y0018193D01*
X0031383Y0018241D01*
X0031393Y0018288D01*
X0031406Y0018334D01*
X0031424Y0018379D01*
X0031444Y0018423D01*
X0031469Y0018465D01*
X0031497Y0018504D01*
X0031527Y0018541D01*
X0031561Y0018575D01*
X0031598Y0018607D01*
X0031636Y0018636D01*
X0031677Y0018661D01*
X0031720Y0018683D01*
X0031765Y0018701D01*
X0031811Y0018715D01*
X0031858Y0018726D01*
X0031906Y0018733D01*
X0031954Y0018736D01*
X0032002Y0018735D01*
X0032050Y0018730D01*
X0032098Y0018721D01*
X0032144Y0018709D01*
X0032189Y0018692D01*
X0032233Y0018672D01*
X0032275Y0018649D01*
X0032315Y0018622D01*
X0032353Y0018592D01*
X0032388Y0018559D01*
X0032420Y0018523D01*
X0032450Y0018485D01*
X0032476Y0018444D01*
X0032498Y0018401D01*
X0032518Y0018357D01*
X0032533Y0018312D01*
X0032545Y0018265D01*
X0032553Y0018217D01*
X0032557Y0018169D01*
X0032557Y0018121D01*
X0032553Y0018073D01*
X0032545Y0018025D01*
X0032533Y0017978D01*
X0032518Y0017933D01*
X0032498Y0017889D01*
X0032476Y0017846D01*
X0032450Y0017805D01*
X0032420Y0017767D01*
X0032388Y0017731D01*
X0032353Y0017698D01*
X0032315Y0017668D01*
X0032275Y0017641D01*
X0032233Y0017618D01*
X0032189Y0017598D01*
X0032144Y0017581D01*
X0032098Y0017569D01*
X0032050Y0017560D01*
X0032002Y0017555D01*
X0031954Y0017554D01*
X0031906Y0017557D01*
X0031858Y0017564D01*
X0031811Y0017575D01*
X0031765Y0017589D01*
X0031720Y0017607D01*
X0031677Y0017629D01*
X0031636Y0017654D01*
X0031598Y0017683D01*
X0031561Y0017715D01*
X0031527Y0017749D01*
X0031497Y0017786D01*
X0031469Y0017825D01*
X0031444Y0017867D01*
X0031424Y0017911D01*
X0031406Y0017956D01*
X0031393Y0018002D01*
X0031383Y0018049D01*
X0031377Y0018097D01*
X0031375Y0018145D01*
X0089643Y0018145D02*
X0089645Y0018193D01*
X0089651Y0018241D01*
X0089661Y0018288D01*
X0089674Y0018334D01*
X0089692Y0018379D01*
X0089712Y0018423D01*
X0089737Y0018465D01*
X0089765Y0018504D01*
X0089795Y0018541D01*
X0089829Y0018575D01*
X0089866Y0018607D01*
X0089904Y0018636D01*
X0089945Y0018661D01*
X0089988Y0018683D01*
X0090033Y0018701D01*
X0090079Y0018715D01*
X0090126Y0018726D01*
X0090174Y0018733D01*
X0090222Y0018736D01*
X0090270Y0018735D01*
X0090318Y0018730D01*
X0090366Y0018721D01*
X0090412Y0018709D01*
X0090457Y0018692D01*
X0090501Y0018672D01*
X0090543Y0018649D01*
X0090583Y0018622D01*
X0090621Y0018592D01*
X0090656Y0018559D01*
X0090688Y0018523D01*
X0090718Y0018485D01*
X0090744Y0018444D01*
X0090766Y0018401D01*
X0090786Y0018357D01*
X0090801Y0018312D01*
X0090813Y0018265D01*
X0090821Y0018217D01*
X0090825Y0018169D01*
X0090825Y0018121D01*
X0090821Y0018073D01*
X0090813Y0018025D01*
X0090801Y0017978D01*
X0090786Y0017933D01*
X0090766Y0017889D01*
X0090744Y0017846D01*
X0090718Y0017805D01*
X0090688Y0017767D01*
X0090656Y0017731D01*
X0090621Y0017698D01*
X0090583Y0017668D01*
X0090543Y0017641D01*
X0090501Y0017618D01*
X0090457Y0017598D01*
X0090412Y0017581D01*
X0090366Y0017569D01*
X0090318Y0017560D01*
X0090270Y0017555D01*
X0090222Y0017554D01*
X0090174Y0017557D01*
X0090126Y0017564D01*
X0090079Y0017575D01*
X0090033Y0017589D01*
X0089988Y0017607D01*
X0089945Y0017629D01*
X0089904Y0017654D01*
X0089866Y0017683D01*
X0089829Y0017715D01*
X0089795Y0017749D01*
X0089765Y0017786D01*
X0089737Y0017825D01*
X0089712Y0017867D01*
X0089692Y0017911D01*
X0089674Y0017956D01*
X0089661Y0018002D01*
X0089651Y0018049D01*
X0089645Y0018097D01*
X0089643Y0018145D01*
X0097044Y0018145D02*
X0097046Y0018193D01*
X0097052Y0018241D01*
X0097062Y0018288D01*
X0097075Y0018334D01*
X0097093Y0018379D01*
X0097113Y0018423D01*
X0097138Y0018465D01*
X0097166Y0018504D01*
X0097196Y0018541D01*
X0097230Y0018575D01*
X0097267Y0018607D01*
X0097305Y0018636D01*
X0097346Y0018661D01*
X0097389Y0018683D01*
X0097434Y0018701D01*
X0097480Y0018715D01*
X0097527Y0018726D01*
X0097575Y0018733D01*
X0097623Y0018736D01*
X0097671Y0018735D01*
X0097719Y0018730D01*
X0097767Y0018721D01*
X0097813Y0018709D01*
X0097858Y0018692D01*
X0097902Y0018672D01*
X0097944Y0018649D01*
X0097984Y0018622D01*
X0098022Y0018592D01*
X0098057Y0018559D01*
X0098089Y0018523D01*
X0098119Y0018485D01*
X0098145Y0018444D01*
X0098167Y0018401D01*
X0098187Y0018357D01*
X0098202Y0018312D01*
X0098214Y0018265D01*
X0098222Y0018217D01*
X0098226Y0018169D01*
X0098226Y0018121D01*
X0098222Y0018073D01*
X0098214Y0018025D01*
X0098202Y0017978D01*
X0098187Y0017933D01*
X0098167Y0017889D01*
X0098145Y0017846D01*
X0098119Y0017805D01*
X0098089Y0017767D01*
X0098057Y0017731D01*
X0098022Y0017698D01*
X0097984Y0017668D01*
X0097944Y0017641D01*
X0097902Y0017618D01*
X0097858Y0017598D01*
X0097813Y0017581D01*
X0097767Y0017569D01*
X0097719Y0017560D01*
X0097671Y0017555D01*
X0097623Y0017554D01*
X0097575Y0017557D01*
X0097527Y0017564D01*
X0097480Y0017575D01*
X0097434Y0017589D01*
X0097389Y0017607D01*
X0097346Y0017629D01*
X0097305Y0017654D01*
X0097267Y0017683D01*
X0097230Y0017715D01*
X0097196Y0017749D01*
X0097166Y0017786D01*
X0097138Y0017825D01*
X0097113Y0017867D01*
X0097093Y0017911D01*
X0097075Y0017956D01*
X0097062Y0018002D01*
X0097052Y0018049D01*
X0097046Y0018097D01*
X0097044Y0018145D01*
X0097044Y0010743D02*
X0097046Y0010791D01*
X0097052Y0010839D01*
X0097062Y0010886D01*
X0097075Y0010932D01*
X0097093Y0010977D01*
X0097113Y0011021D01*
X0097138Y0011063D01*
X0097166Y0011102D01*
X0097196Y0011139D01*
X0097230Y0011173D01*
X0097267Y0011205D01*
X0097305Y0011234D01*
X0097346Y0011259D01*
X0097389Y0011281D01*
X0097434Y0011299D01*
X0097480Y0011313D01*
X0097527Y0011324D01*
X0097575Y0011331D01*
X0097623Y0011334D01*
X0097671Y0011333D01*
X0097719Y0011328D01*
X0097767Y0011319D01*
X0097813Y0011307D01*
X0097858Y0011290D01*
X0097902Y0011270D01*
X0097944Y0011247D01*
X0097984Y0011220D01*
X0098022Y0011190D01*
X0098057Y0011157D01*
X0098089Y0011121D01*
X0098119Y0011083D01*
X0098145Y0011042D01*
X0098167Y0010999D01*
X0098187Y0010955D01*
X0098202Y0010910D01*
X0098214Y0010863D01*
X0098222Y0010815D01*
X0098226Y0010767D01*
X0098226Y0010719D01*
X0098222Y0010671D01*
X0098214Y0010623D01*
X0098202Y0010576D01*
X0098187Y0010531D01*
X0098167Y0010487D01*
X0098145Y0010444D01*
X0098119Y0010403D01*
X0098089Y0010365D01*
X0098057Y0010329D01*
X0098022Y0010296D01*
X0097984Y0010266D01*
X0097944Y0010239D01*
X0097902Y0010216D01*
X0097858Y0010196D01*
X0097813Y0010179D01*
X0097767Y0010167D01*
X0097719Y0010158D01*
X0097671Y0010153D01*
X0097623Y0010152D01*
X0097575Y0010155D01*
X0097527Y0010162D01*
X0097480Y0010173D01*
X0097434Y0010187D01*
X0097389Y0010205D01*
X0097346Y0010227D01*
X0097305Y0010252D01*
X0097267Y0010281D01*
X0097230Y0010313D01*
X0097196Y0010347D01*
X0097166Y0010384D01*
X0097138Y0010423D01*
X0097113Y0010465D01*
X0097093Y0010509D01*
X0097075Y0010554D01*
X0097062Y0010600D01*
X0097052Y0010647D01*
X0097046Y0010695D01*
X0097044Y0010743D01*
X0089643Y0010743D02*
X0089645Y0010791D01*
X0089651Y0010839D01*
X0089661Y0010886D01*
X0089674Y0010932D01*
X0089692Y0010977D01*
X0089712Y0011021D01*
X0089737Y0011063D01*
X0089765Y0011102D01*
X0089795Y0011139D01*
X0089829Y0011173D01*
X0089866Y0011205D01*
X0089904Y0011234D01*
X0089945Y0011259D01*
X0089988Y0011281D01*
X0090033Y0011299D01*
X0090079Y0011313D01*
X0090126Y0011324D01*
X0090174Y0011331D01*
X0090222Y0011334D01*
X0090270Y0011333D01*
X0090318Y0011328D01*
X0090366Y0011319D01*
X0090412Y0011307D01*
X0090457Y0011290D01*
X0090501Y0011270D01*
X0090543Y0011247D01*
X0090583Y0011220D01*
X0090621Y0011190D01*
X0090656Y0011157D01*
X0090688Y0011121D01*
X0090718Y0011083D01*
X0090744Y0011042D01*
X0090766Y0010999D01*
X0090786Y0010955D01*
X0090801Y0010910D01*
X0090813Y0010863D01*
X0090821Y0010815D01*
X0090825Y0010767D01*
X0090825Y0010719D01*
X0090821Y0010671D01*
X0090813Y0010623D01*
X0090801Y0010576D01*
X0090786Y0010531D01*
X0090766Y0010487D01*
X0090744Y0010444D01*
X0090718Y0010403D01*
X0090688Y0010365D01*
X0090656Y0010329D01*
X0090621Y0010296D01*
X0090583Y0010266D01*
X0090543Y0010239D01*
X0090501Y0010216D01*
X0090457Y0010196D01*
X0090412Y0010179D01*
X0090366Y0010167D01*
X0090318Y0010158D01*
X0090270Y0010153D01*
X0090222Y0010152D01*
X0090174Y0010155D01*
X0090126Y0010162D01*
X0090079Y0010173D01*
X0090033Y0010187D01*
X0089988Y0010205D01*
X0089945Y0010227D01*
X0089904Y0010252D01*
X0089866Y0010281D01*
X0089829Y0010313D01*
X0089795Y0010347D01*
X0089765Y0010384D01*
X0089737Y0010423D01*
X0089712Y0010465D01*
X0089692Y0010509D01*
X0089674Y0010554D01*
X0089661Y0010600D01*
X0089651Y0010647D01*
X0089645Y0010695D01*
X0089643Y0010743D01*
D11*
X0079801Y0030586D03*
X0069801Y0030586D03*
X0059801Y0030586D03*
X0049801Y0030586D03*
X0035273Y0038854D03*
X0035273Y0048854D03*
X0035273Y0058854D03*
X0035273Y0068854D03*
X0035273Y0078854D03*
D12*
X0035667Y0014444D03*
X0093935Y0014444D03*
D13*
X0086061Y0010901D03*
X0088029Y0023106D03*
X0097872Y0032161D03*
X0094722Y0033735D03*
X0083305Y0042948D03*
X0081021Y0040468D03*
X0078187Y0043578D03*
X0078423Y0049995D03*
X0085273Y0046728D03*
X0091572Y0046334D03*
X0093069Y0054483D03*
X0088817Y0054995D03*
X0088817Y0060822D03*
X0088817Y0063657D03*
X0092360Y0065743D03*
X0093147Y0068775D03*
X0089998Y0068066D03*
X0088029Y0070586D03*
X0086061Y0073145D03*
X0084486Y0075665D03*
X0088423Y0077476D03*
X0075037Y0068775D03*
X0071100Y0066806D03*
X0067163Y0068775D03*
X0067163Y0064444D03*
X0075037Y0063263D03*
X0078620Y0059838D03*
X0070313Y0050271D03*
X0061651Y0051846D03*
X0062045Y0056570D03*
X0052793Y0047909D03*
X0056927Y0043972D03*
X0060076Y0043972D03*
X0055746Y0039641D03*
X0064801Y0036098D03*
X0069525Y0038066D03*
X0074643Y0027043D03*
X0056927Y0011294D03*
X0043541Y0010901D03*
X0039998Y0023499D03*
X0054958Y0027043D03*
X0044328Y0038854D03*
X0048659Y0063657D03*
X0045116Y0067200D03*
X0049919Y0072121D03*
X0052006Y0069956D03*
X0049250Y0075074D03*
X0049053Y0080192D03*
X0054958Y0084523D03*
X0064210Y0079562D03*
X0073462Y0079011D03*
D14*
X0078423Y0049956D02*
X0081021Y0047357D01*
X0081021Y0040468D01*
D15*
X0079521Y0042224D02*
X0078719Y0041421D01*
X0078719Y0039514D01*
X0080068Y0038165D01*
X0081975Y0038165D01*
X0083324Y0039514D01*
X0083324Y0040646D01*
X0084258Y0040646D01*
X0085607Y0041994D01*
X0085607Y0043902D01*
X0085084Y0044425D01*
X0086227Y0044425D01*
X0087576Y0045774D01*
X0087576Y0047681D01*
X0086227Y0049030D01*
X0085375Y0049030D01*
X0079284Y0055120D01*
X0075151Y0055120D01*
X0068123Y0062148D01*
X0069465Y0063490D01*
X0069465Y0065185D01*
X0070146Y0064504D01*
X0072054Y0064504D01*
X0073402Y0065853D01*
X0073402Y0067153D01*
X0074083Y0066472D01*
X0075991Y0066472D01*
X0077339Y0067821D01*
X0077339Y0069728D01*
X0075991Y0071077D01*
X0074083Y0071077D01*
X0072735Y0069728D01*
X0072735Y0068428D01*
X0072054Y0069109D01*
X0070146Y0069109D01*
X0069465Y0068428D01*
X0069465Y0069728D01*
X0068117Y0071077D01*
X0066209Y0071077D01*
X0064861Y0069728D01*
X0064861Y0067821D01*
X0066072Y0066609D01*
X0064867Y0065404D01*
X0055331Y0074940D01*
X0050333Y0074940D01*
X0049817Y0074424D01*
X0048965Y0074424D01*
X0047617Y0073075D01*
X0047617Y0071168D01*
X0048965Y0069819D01*
X0049703Y0069819D01*
X0049703Y0069002D01*
X0051052Y0067654D01*
X0052959Y0067654D01*
X0054308Y0069002D01*
X0054308Y0070910D01*
X0053678Y0071540D01*
X0053923Y0071540D01*
X0072746Y0052716D01*
X0073742Y0051720D01*
X0076892Y0051720D01*
X0076120Y0050949D01*
X0076120Y0049042D01*
X0077469Y0047693D01*
X0078565Y0047693D01*
X0079521Y0046736D01*
X0079521Y0042224D01*
X0079521Y0042481D02*
X0061842Y0042481D01*
X0062379Y0043018D02*
X0061030Y0041669D01*
X0059123Y0041669D01*
X0058502Y0042290D01*
X0057880Y0041669D01*
X0056973Y0041669D01*
X0058048Y0040595D01*
X0058048Y0038687D01*
X0056699Y0037339D01*
X0054792Y0037339D01*
X0053443Y0038687D01*
X0053443Y0040595D01*
X0054792Y0041943D01*
X0055699Y0041943D01*
X0054624Y0043018D01*
X0054624Y0044925D01*
X0055973Y0046274D01*
X0057880Y0046274D01*
X0058502Y0045653D01*
X0059123Y0046274D01*
X0061030Y0046274D01*
X0062379Y0044925D01*
X0062379Y0043018D01*
X0062379Y0043279D02*
X0079521Y0043279D01*
X0079521Y0044078D02*
X0062379Y0044078D01*
X0062379Y0044876D02*
X0079521Y0044876D01*
X0079521Y0045675D02*
X0061629Y0045675D01*
X0058524Y0045675D02*
X0058480Y0045675D01*
X0055374Y0045675D02*
X0040391Y0045675D01*
X0040391Y0046473D02*
X0079521Y0046473D01*
X0078985Y0047272D02*
X0040391Y0047272D01*
X0040391Y0048070D02*
X0069257Y0048070D01*
X0069359Y0047969D02*
X0068010Y0049317D01*
X0068010Y0051225D01*
X0069359Y0052573D01*
X0071266Y0052573D01*
X0072615Y0051225D01*
X0072615Y0049317D01*
X0071266Y0047969D01*
X0069359Y0047969D01*
X0068458Y0048869D02*
X0040391Y0048869D01*
X0040391Y0049667D02*
X0060573Y0049667D01*
X0060698Y0049543D02*
X0062605Y0049543D01*
X0063954Y0050892D01*
X0063954Y0052799D01*
X0062605Y0054148D01*
X0060698Y0054148D01*
X0059349Y0052799D01*
X0059349Y0050892D01*
X0060698Y0049543D01*
X0059775Y0050466D02*
X0040391Y0050466D01*
X0040391Y0051264D02*
X0059349Y0051264D01*
X0059349Y0052063D02*
X0040391Y0052063D01*
X0040391Y0052862D02*
X0059411Y0052862D01*
X0060210Y0053660D02*
X0040391Y0053660D01*
X0040391Y0054459D02*
X0060900Y0054459D01*
X0061091Y0054268D02*
X0059743Y0055616D01*
X0059743Y0057524D01*
X0061091Y0058872D01*
X0062999Y0058872D01*
X0064347Y0057524D01*
X0064347Y0055616D01*
X0062999Y0054268D01*
X0061091Y0054268D01*
X0060102Y0055257D02*
X0040391Y0055257D01*
X0040391Y0056056D02*
X0059743Y0056056D01*
X0059743Y0056854D02*
X0040391Y0056854D01*
X0040391Y0057653D02*
X0059871Y0057653D01*
X0060670Y0058451D02*
X0040391Y0058451D01*
X0040391Y0059250D02*
X0066213Y0059250D01*
X0065415Y0060048D02*
X0040391Y0060048D01*
X0040391Y0060847D02*
X0064616Y0060847D01*
X0063818Y0061645D02*
X0049904Y0061645D01*
X0049613Y0061354D02*
X0050961Y0062703D01*
X0050961Y0064610D01*
X0049613Y0065959D01*
X0047705Y0065959D01*
X0046357Y0064610D01*
X0046357Y0062703D01*
X0047705Y0061354D01*
X0049613Y0061354D01*
X0050702Y0062444D02*
X0063019Y0062444D01*
X0062221Y0063242D02*
X0050961Y0063242D01*
X0050961Y0064041D02*
X0061422Y0064041D01*
X0060624Y0064839D02*
X0050733Y0064839D01*
X0049934Y0065638D02*
X0059825Y0065638D01*
X0059027Y0066436D02*
X0047418Y0066436D01*
X0047418Y0066246D02*
X0046069Y0064898D01*
X0044162Y0064898D01*
X0042813Y0066246D01*
X0042813Y0068154D01*
X0044162Y0069502D01*
X0046069Y0069502D01*
X0047418Y0068154D01*
X0047418Y0066246D01*
X0047384Y0065638D02*
X0046809Y0065638D01*
X0046586Y0064839D02*
X0040391Y0064839D01*
X0040391Y0064041D02*
X0046357Y0064041D01*
X0046357Y0063242D02*
X0040391Y0063242D01*
X0040391Y0062444D02*
X0046616Y0062444D01*
X0047415Y0061645D02*
X0040391Y0061645D01*
X0040391Y0065638D02*
X0043422Y0065638D01*
X0042813Y0066436D02*
X0040391Y0066436D01*
X0040391Y0067235D02*
X0042813Y0067235D01*
X0042813Y0068033D02*
X0040391Y0068033D01*
X0040391Y0068832D02*
X0043491Y0068832D01*
X0040391Y0069630D02*
X0049703Y0069630D01*
X0049874Y0068832D02*
X0046740Y0068832D01*
X0047418Y0068033D02*
X0050672Y0068033D01*
X0053339Y0068033D02*
X0057430Y0068033D01*
X0058228Y0067235D02*
X0047418Y0067235D01*
X0048355Y0070429D02*
X0040391Y0070429D01*
X0040391Y0071227D02*
X0047617Y0071227D01*
X0047617Y0072026D02*
X0040391Y0072026D01*
X0040391Y0072824D02*
X0047617Y0072824D01*
X0048164Y0073623D02*
X0040391Y0073623D01*
X0040391Y0074421D02*
X0048963Y0074421D01*
X0048099Y0077890D02*
X0050006Y0077890D01*
X0051355Y0079238D01*
X0051355Y0080192D01*
X0071387Y0080192D01*
X0071160Y0079965D01*
X0071160Y0078057D01*
X0072509Y0076709D01*
X0074416Y0076709D01*
X0075765Y0078057D01*
X0075765Y0079965D01*
X0075537Y0080192D01*
X0091179Y0080192D01*
X0099034Y0072337D01*
X0099034Y0034254D01*
X0098825Y0034463D01*
X0097024Y0034463D01*
X0097024Y0034689D01*
X0095676Y0036038D01*
X0093768Y0036038D01*
X0092420Y0034689D01*
X0092420Y0032782D01*
X0093768Y0031433D01*
X0095569Y0031433D01*
X0095569Y0031207D01*
X0096918Y0029858D01*
X0098825Y0029858D01*
X0099034Y0030067D01*
X0099034Y0019279D01*
X0098377Y0019935D01*
X0096894Y0019935D01*
X0096088Y0019129D01*
X0094960Y0019597D01*
X0092910Y0019597D01*
X0091781Y0019129D01*
X0090976Y0019935D01*
X0089492Y0019935D01*
X0088443Y0018887D01*
X0088443Y0017403D01*
X0089249Y0016597D01*
X0088782Y0015469D01*
X0088782Y0013419D01*
X0089249Y0012291D01*
X0088443Y0011485D01*
X0088443Y0010002D01*
X0089100Y0009345D01*
X0087761Y0009345D01*
X0088363Y0009947D01*
X0088363Y0011854D01*
X0087014Y0013203D01*
X0085107Y0013203D01*
X0083758Y0011854D01*
X0083758Y0009947D01*
X0084361Y0009345D01*
X0045241Y0009345D01*
X0045843Y0009947D01*
X0045843Y0011854D01*
X0044495Y0013203D01*
X0042587Y0013203D01*
X0041239Y0011854D01*
X0041239Y0009947D01*
X0041841Y0009345D01*
X0040501Y0009345D01*
X0041158Y0010002D01*
X0041158Y0011485D01*
X0040391Y0012252D01*
X0040391Y0012385D01*
X0040820Y0013419D01*
X0040820Y0015469D01*
X0040391Y0016503D01*
X0040391Y0016636D01*
X0041158Y0017403D01*
X0041158Y0018887D01*
X0040391Y0019653D01*
X0040391Y0021197D01*
X0040951Y0021197D01*
X0042300Y0022546D01*
X0042300Y0024453D01*
X0040951Y0025802D01*
X0040391Y0025802D01*
X0040391Y0080192D01*
X0046750Y0080192D01*
X0046750Y0079238D01*
X0048099Y0077890D01*
X0047575Y0078414D02*
X0040391Y0078414D01*
X0040391Y0079212D02*
X0046776Y0079212D01*
X0046750Y0080011D02*
X0040391Y0080011D01*
X0040391Y0077615D02*
X0071602Y0077615D01*
X0071160Y0078414D02*
X0050531Y0078414D01*
X0051329Y0079212D02*
X0071160Y0079212D01*
X0071206Y0080011D02*
X0051355Y0080011D01*
X0055850Y0074421D02*
X0082473Y0074421D01*
X0082183Y0074711D02*
X0083532Y0073362D01*
X0083758Y0073362D01*
X0083758Y0072191D01*
X0085107Y0070843D01*
X0085727Y0070843D01*
X0085727Y0069632D01*
X0087075Y0068283D01*
X0087695Y0068283D01*
X0087695Y0067112D01*
X0088849Y0065959D01*
X0087863Y0065959D01*
X0086514Y0064610D01*
X0086514Y0062703D01*
X0086978Y0062239D01*
X0086514Y0061776D01*
X0086514Y0059868D01*
X0087863Y0058520D01*
X0089770Y0058520D01*
X0091119Y0059868D01*
X0091119Y0061776D01*
X0090655Y0062239D01*
X0091119Y0062703D01*
X0091119Y0064610D01*
X0089965Y0065764D01*
X0090951Y0065764D01*
X0091927Y0066739D01*
X0092194Y0066472D01*
X0094101Y0066472D01*
X0095450Y0067821D01*
X0095450Y0069728D01*
X0094101Y0071077D01*
X0092194Y0071077D01*
X0091218Y0070102D01*
X0090951Y0070368D01*
X0090331Y0070368D01*
X0090331Y0071539D01*
X0088983Y0072888D01*
X0088363Y0072888D01*
X0088363Y0074099D01*
X0087014Y0075447D01*
X0086788Y0075447D01*
X0086788Y0076618D01*
X0085439Y0077967D01*
X0083532Y0077967D01*
X0082183Y0076618D01*
X0082183Y0074711D01*
X0082183Y0075220D02*
X0040391Y0075220D01*
X0040391Y0076018D02*
X0082183Y0076018D01*
X0082382Y0076817D02*
X0074524Y0076817D01*
X0075323Y0077615D02*
X0083181Y0077615D01*
X0085791Y0077615D02*
X0093755Y0077615D01*
X0092957Y0078414D02*
X0075765Y0078414D01*
X0075765Y0079212D02*
X0092158Y0079212D01*
X0091360Y0080011D02*
X0075718Y0080011D01*
X0072400Y0076817D02*
X0040391Y0076817D01*
X0053990Y0071227D02*
X0054235Y0071227D01*
X0054308Y0070429D02*
X0055034Y0070429D01*
X0054308Y0069630D02*
X0055833Y0069630D01*
X0056631Y0068832D02*
X0054137Y0068832D01*
X0057447Y0072824D02*
X0083758Y0072824D01*
X0083924Y0072026D02*
X0058245Y0072026D01*
X0059044Y0071227D02*
X0084722Y0071227D01*
X0085727Y0070429D02*
X0076639Y0070429D01*
X0077339Y0069630D02*
X0085729Y0069630D01*
X0086527Y0068832D02*
X0077339Y0068832D01*
X0077339Y0068033D02*
X0087695Y0068033D01*
X0087695Y0067235D02*
X0076753Y0067235D01*
X0075991Y0065565D02*
X0074083Y0065565D01*
X0072735Y0064217D01*
X0072735Y0062309D01*
X0074083Y0060961D01*
X0075991Y0060961D01*
X0077339Y0062309D01*
X0077339Y0064217D01*
X0075991Y0065565D01*
X0076717Y0064839D02*
X0086743Y0064839D01*
X0086514Y0064041D02*
X0077339Y0064041D01*
X0077339Y0063242D02*
X0086514Y0063242D01*
X0086774Y0062444D02*
X0077339Y0062444D01*
X0077666Y0062140D02*
X0076317Y0060791D01*
X0076317Y0058884D01*
X0077666Y0057535D01*
X0079573Y0057535D01*
X0080922Y0058884D01*
X0080922Y0060791D01*
X0079573Y0062140D01*
X0077666Y0062140D01*
X0077171Y0061645D02*
X0076675Y0061645D01*
X0076372Y0060847D02*
X0069424Y0060847D01*
X0068626Y0061645D02*
X0073399Y0061645D01*
X0072735Y0062444D02*
X0068419Y0062444D01*
X0069217Y0063242D02*
X0072735Y0063242D01*
X0072735Y0064041D02*
X0069465Y0064041D01*
X0069465Y0064839D02*
X0069811Y0064839D01*
X0072389Y0064839D02*
X0073357Y0064839D01*
X0073187Y0065638D02*
X0087542Y0065638D01*
X0088372Y0066436D02*
X0073402Y0066436D01*
X0072735Y0068832D02*
X0072331Y0068832D01*
X0072735Y0069630D02*
X0069465Y0069630D01*
X0069465Y0068832D02*
X0069869Y0068832D01*
X0068765Y0070429D02*
X0073435Y0070429D01*
X0065561Y0070429D02*
X0059842Y0070429D01*
X0060641Y0069630D02*
X0064861Y0069630D01*
X0064861Y0068832D02*
X0061439Y0068832D01*
X0062238Y0068033D02*
X0064861Y0068033D01*
X0065447Y0067235D02*
X0063036Y0067235D01*
X0063835Y0066436D02*
X0065899Y0066436D01*
X0065101Y0065638D02*
X0064633Y0065638D01*
X0070223Y0060048D02*
X0076317Y0060048D01*
X0076317Y0059250D02*
X0071021Y0059250D01*
X0071820Y0058451D02*
X0076750Y0058451D01*
X0077549Y0057653D02*
X0072618Y0057653D01*
X0073417Y0056854D02*
X0087419Y0056854D01*
X0087863Y0057298D02*
X0086514Y0055949D01*
X0086514Y0054042D01*
X0087863Y0052693D01*
X0089770Y0052693D01*
X0090766Y0053689D01*
X0090766Y0053530D01*
X0092115Y0052181D01*
X0094022Y0052181D01*
X0095371Y0053530D01*
X0095371Y0055437D01*
X0094022Y0056786D01*
X0092115Y0056786D01*
X0091119Y0055790D01*
X0091119Y0055949D01*
X0089770Y0057298D01*
X0087863Y0057298D01*
X0086621Y0056056D02*
X0074216Y0056056D01*
X0075014Y0055257D02*
X0086514Y0055257D01*
X0086514Y0054459D02*
X0079946Y0054459D01*
X0080745Y0053660D02*
X0086896Y0053660D01*
X0087694Y0052862D02*
X0081543Y0052862D01*
X0082342Y0052063D02*
X0099034Y0052063D01*
X0099034Y0052862D02*
X0094703Y0052862D01*
X0095371Y0053660D02*
X0099034Y0053660D01*
X0099034Y0054459D02*
X0095371Y0054459D01*
X0095371Y0055257D02*
X0099034Y0055257D01*
X0099034Y0056056D02*
X0094752Y0056056D01*
X0091385Y0056056D02*
X0091012Y0056056D01*
X0090214Y0056854D02*
X0099034Y0056854D01*
X0099034Y0057653D02*
X0079691Y0057653D01*
X0080489Y0058451D02*
X0099034Y0058451D01*
X0099034Y0059250D02*
X0090500Y0059250D01*
X0091119Y0060048D02*
X0099034Y0060048D01*
X0099034Y0060847D02*
X0091119Y0060847D01*
X0091119Y0061645D02*
X0099034Y0061645D01*
X0099034Y0062444D02*
X0090860Y0062444D01*
X0091119Y0063242D02*
X0099034Y0063242D01*
X0099034Y0064041D02*
X0091119Y0064041D01*
X0090890Y0064839D02*
X0099034Y0064839D01*
X0099034Y0065638D02*
X0090092Y0065638D01*
X0091624Y0066436D02*
X0099034Y0066436D01*
X0099034Y0067235D02*
X0094863Y0067235D01*
X0095450Y0068033D02*
X0099034Y0068033D01*
X0099034Y0068832D02*
X0095450Y0068832D01*
X0095450Y0069630D02*
X0099034Y0069630D01*
X0099034Y0070429D02*
X0094749Y0070429D01*
X0091545Y0070429D02*
X0090331Y0070429D01*
X0090331Y0071227D02*
X0099034Y0071227D01*
X0099034Y0072026D02*
X0089845Y0072026D01*
X0089047Y0072824D02*
X0098547Y0072824D01*
X0097748Y0073623D02*
X0088363Y0073623D01*
X0088040Y0074421D02*
X0096950Y0074421D01*
X0096151Y0075220D02*
X0087242Y0075220D01*
X0086788Y0076018D02*
X0095353Y0076018D01*
X0094554Y0076817D02*
X0086590Y0076817D01*
X0083272Y0073623D02*
X0056648Y0073623D01*
X0063420Y0058451D02*
X0067012Y0058451D01*
X0067810Y0057653D02*
X0064218Y0057653D01*
X0064347Y0056854D02*
X0068609Y0056854D01*
X0069407Y0056056D02*
X0064347Y0056056D01*
X0063988Y0055257D02*
X0070206Y0055257D01*
X0071004Y0054459D02*
X0063189Y0054459D01*
X0063093Y0053660D02*
X0071803Y0053660D01*
X0072601Y0052862D02*
X0063891Y0052862D01*
X0063954Y0052063D02*
X0068849Y0052063D01*
X0068050Y0051264D02*
X0063954Y0051264D01*
X0063528Y0050466D02*
X0068010Y0050466D01*
X0068010Y0049667D02*
X0062729Y0049667D01*
X0071368Y0048070D02*
X0077092Y0048070D01*
X0076293Y0048869D02*
X0072167Y0048869D01*
X0072615Y0049667D02*
X0076120Y0049667D01*
X0076120Y0050466D02*
X0072615Y0050466D01*
X0072575Y0051264D02*
X0076436Y0051264D01*
X0073400Y0052063D02*
X0071776Y0052063D01*
X0080922Y0059250D02*
X0087133Y0059250D01*
X0086514Y0060048D02*
X0080922Y0060048D01*
X0080867Y0060847D02*
X0086514Y0060847D01*
X0086514Y0061645D02*
X0080068Y0061645D01*
X0089939Y0052862D02*
X0091434Y0052862D01*
X0090766Y0053660D02*
X0090737Y0053660D01*
X0090619Y0048636D02*
X0089270Y0047288D01*
X0089270Y0045380D01*
X0090619Y0044031D01*
X0092526Y0044031D01*
X0093875Y0045380D01*
X0093875Y0047288D01*
X0092526Y0048636D01*
X0090619Y0048636D01*
X0090053Y0048070D02*
X0087186Y0048070D01*
X0087576Y0047272D02*
X0089270Y0047272D01*
X0089270Y0046473D02*
X0087576Y0046473D01*
X0087477Y0045675D02*
X0089270Y0045675D01*
X0089774Y0044876D02*
X0086678Y0044876D01*
X0085431Y0044078D02*
X0090572Y0044078D01*
X0092573Y0044078D02*
X0099034Y0044078D01*
X0099034Y0044876D02*
X0093371Y0044876D01*
X0093875Y0045675D02*
X0099034Y0045675D01*
X0099034Y0046473D02*
X0093875Y0046473D01*
X0093875Y0047272D02*
X0099034Y0047272D01*
X0099034Y0048070D02*
X0093092Y0048070D01*
X0099034Y0048869D02*
X0086388Y0048869D01*
X0084737Y0049667D02*
X0099034Y0049667D01*
X0099034Y0050466D02*
X0083939Y0050466D01*
X0083140Y0051264D02*
X0099034Y0051264D01*
X0099034Y0043279D02*
X0085607Y0043279D01*
X0085607Y0042481D02*
X0099034Y0042481D01*
X0099034Y0041682D02*
X0085295Y0041682D01*
X0084497Y0040884D02*
X0099034Y0040884D01*
X0099034Y0040085D02*
X0083324Y0040085D01*
X0083096Y0039287D02*
X0099034Y0039287D01*
X0099034Y0038488D02*
X0082298Y0038488D01*
X0079745Y0038488D02*
X0071828Y0038488D01*
X0071828Y0039020D02*
X0071828Y0037112D01*
X0070479Y0035764D01*
X0068572Y0035764D01*
X0067223Y0037112D01*
X0067223Y0039020D01*
X0068572Y0040368D01*
X0070479Y0040368D01*
X0071828Y0039020D01*
X0071561Y0039287D02*
X0078946Y0039287D01*
X0078719Y0040085D02*
X0070762Y0040085D01*
X0068288Y0040085D02*
X0058048Y0040085D01*
X0058048Y0039287D02*
X0067490Y0039287D01*
X0067223Y0038488D02*
X0057849Y0038488D01*
X0057051Y0037690D02*
X0063137Y0037690D01*
X0062498Y0037051D02*
X0062498Y0035144D01*
X0063847Y0033795D01*
X0065754Y0033795D01*
X0067103Y0035144D01*
X0067103Y0037051D01*
X0065754Y0038400D01*
X0063847Y0038400D01*
X0062498Y0037051D01*
X0062498Y0036891D02*
X0045622Y0036891D01*
X0045282Y0036551D02*
X0046631Y0037900D01*
X0046631Y0039807D01*
X0045282Y0041156D01*
X0043375Y0041156D01*
X0042026Y0039807D01*
X0042026Y0037900D01*
X0043375Y0036551D01*
X0045282Y0036551D01*
X0046421Y0037690D02*
X0054441Y0037690D01*
X0053642Y0038488D02*
X0046631Y0038488D01*
X0046631Y0039287D02*
X0053443Y0039287D01*
X0053443Y0040085D02*
X0046353Y0040085D01*
X0045554Y0040884D02*
X0053733Y0040884D01*
X0054531Y0041682D02*
X0040391Y0041682D01*
X0040391Y0040884D02*
X0043103Y0040884D01*
X0042304Y0040085D02*
X0040391Y0040085D01*
X0040391Y0039287D02*
X0042026Y0039287D01*
X0042026Y0038488D02*
X0040391Y0038488D01*
X0040391Y0037690D02*
X0042236Y0037690D01*
X0043035Y0036891D02*
X0040391Y0036891D01*
X0040391Y0036093D02*
X0062498Y0036093D01*
X0062498Y0035294D02*
X0040391Y0035294D01*
X0040391Y0034496D02*
X0048265Y0034496D01*
X0048965Y0034786D02*
X0047422Y0034146D01*
X0046240Y0032965D01*
X0045601Y0031421D01*
X0045601Y0029750D01*
X0046240Y0028207D01*
X0047422Y0027025D01*
X0048965Y0026386D01*
X0050636Y0026386D01*
X0052180Y0027025D01*
X0052656Y0027501D01*
X0052656Y0026089D01*
X0054005Y0024740D01*
X0055912Y0024740D01*
X0057261Y0026089D01*
X0057261Y0027186D01*
X0057422Y0027025D01*
X0058965Y0026386D01*
X0060636Y0026386D01*
X0062180Y0027025D01*
X0063361Y0028207D01*
X0064001Y0029750D01*
X0064001Y0031421D01*
X0063361Y0032965D01*
X0062180Y0034146D01*
X0060636Y0034786D01*
X0058965Y0034786D01*
X0057422Y0034146D01*
X0056240Y0032965D01*
X0055601Y0031421D01*
X0055601Y0029750D01*
X0055769Y0029345D01*
X0054005Y0029345D01*
X0053711Y0029052D01*
X0054001Y0029750D01*
X0054001Y0031421D01*
X0053361Y0032965D01*
X0052180Y0034146D01*
X0050636Y0034786D01*
X0048965Y0034786D01*
X0046973Y0033697D02*
X0040391Y0033697D01*
X0040391Y0032899D02*
X0046213Y0032899D01*
X0045882Y0032100D02*
X0040391Y0032100D01*
X0040391Y0031302D02*
X0045601Y0031302D01*
X0045601Y0030503D02*
X0040391Y0030503D01*
X0040391Y0029705D02*
X0045620Y0029705D01*
X0045950Y0028906D02*
X0040391Y0028906D01*
X0040391Y0028108D02*
X0046339Y0028108D01*
X0047138Y0027309D02*
X0040391Y0027309D01*
X0040391Y0026511D02*
X0048664Y0026511D01*
X0050938Y0026511D02*
X0052656Y0026511D01*
X0052656Y0027309D02*
X0052464Y0027309D01*
X0053033Y0025712D02*
X0041041Y0025712D01*
X0041839Y0024914D02*
X0053831Y0024914D01*
X0056085Y0024914D02*
X0073516Y0024914D01*
X0073690Y0024740D02*
X0072341Y0026089D01*
X0072341Y0027186D01*
X0072180Y0027025D01*
X0070636Y0026386D01*
X0068965Y0026386D01*
X0067422Y0027025D01*
X0066240Y0028207D01*
X0065601Y0029750D01*
X0065601Y0031421D01*
X0066240Y0032965D01*
X0067422Y0034146D01*
X0068965Y0034786D01*
X0070636Y0034786D01*
X0072180Y0034146D01*
X0073361Y0032965D01*
X0074001Y0031421D01*
X0074001Y0029750D01*
X0073833Y0029345D01*
X0075597Y0029345D01*
X0075890Y0029052D01*
X0075601Y0029750D01*
X0075601Y0031421D01*
X0076240Y0032965D01*
X0077422Y0034146D01*
X0078965Y0034786D01*
X0080636Y0034786D01*
X0082180Y0034146D01*
X0083361Y0032965D01*
X0084001Y0031421D01*
X0084001Y0029750D01*
X0083361Y0028207D01*
X0082180Y0027025D01*
X0080636Y0026386D01*
X0078965Y0026386D01*
X0077422Y0027025D01*
X0076946Y0027501D01*
X0076946Y0026089D01*
X0075597Y0024740D01*
X0073690Y0024740D01*
X0072718Y0025712D02*
X0056884Y0025712D01*
X0057261Y0026511D02*
X0058664Y0026511D01*
X0060938Y0026511D02*
X0068664Y0026511D01*
X0067138Y0027309D02*
X0062464Y0027309D01*
X0063262Y0028108D02*
X0066339Y0028108D01*
X0065950Y0028906D02*
X0063651Y0028906D01*
X0063982Y0029705D02*
X0065620Y0029705D01*
X0065601Y0030503D02*
X0064001Y0030503D01*
X0064001Y0031302D02*
X0065601Y0031302D01*
X0065882Y0032100D02*
X0063720Y0032100D01*
X0063389Y0032899D02*
X0066213Y0032899D01*
X0066973Y0033697D02*
X0062629Y0033697D01*
X0063147Y0034496D02*
X0061336Y0034496D01*
X0058265Y0034496D02*
X0051336Y0034496D01*
X0052629Y0033697D02*
X0056973Y0033697D01*
X0056213Y0032899D02*
X0053389Y0032899D01*
X0053720Y0032100D02*
X0055882Y0032100D01*
X0055601Y0031302D02*
X0054001Y0031302D01*
X0054001Y0030503D02*
X0055601Y0030503D01*
X0055620Y0029705D02*
X0053982Y0029705D01*
X0066455Y0034496D02*
X0068265Y0034496D01*
X0067103Y0035294D02*
X0093025Y0035294D01*
X0092420Y0034496D02*
X0081336Y0034496D01*
X0082629Y0033697D02*
X0092420Y0033697D01*
X0092420Y0032899D02*
X0083389Y0032899D01*
X0083720Y0032100D02*
X0093101Y0032100D01*
X0095569Y0031302D02*
X0084001Y0031302D01*
X0084001Y0030503D02*
X0096273Y0030503D01*
X0099034Y0029705D02*
X0083982Y0029705D01*
X0083651Y0028906D02*
X0099034Y0028906D01*
X0099034Y0028108D02*
X0083262Y0028108D01*
X0082464Y0027309D02*
X0099034Y0027309D01*
X0099034Y0026511D02*
X0080938Y0026511D01*
X0078664Y0026511D02*
X0076946Y0026511D01*
X0076946Y0027309D02*
X0077138Y0027309D01*
X0076569Y0025712D02*
X0099034Y0025712D01*
X0099034Y0024914D02*
X0075770Y0024914D01*
X0072341Y0026511D02*
X0070938Y0026511D01*
X0073982Y0029705D02*
X0075620Y0029705D01*
X0075601Y0030503D02*
X0074001Y0030503D01*
X0074001Y0031302D02*
X0075601Y0031302D01*
X0075882Y0032100D02*
X0073720Y0032100D01*
X0073389Y0032899D02*
X0076213Y0032899D01*
X0076973Y0033697D02*
X0072629Y0033697D01*
X0071336Y0034496D02*
X0078265Y0034496D01*
X0078719Y0040884D02*
X0057759Y0040884D01*
X0057893Y0041682D02*
X0059110Y0041682D01*
X0061043Y0041682D02*
X0078980Y0041682D01*
X0071828Y0037690D02*
X0099034Y0037690D01*
X0099034Y0036891D02*
X0071606Y0036891D01*
X0070808Y0036093D02*
X0099034Y0036093D01*
X0099034Y0035294D02*
X0096419Y0035294D01*
X0097024Y0034496D02*
X0099034Y0034496D01*
X0099034Y0024115D02*
X0042300Y0024115D01*
X0042300Y0023317D02*
X0099034Y0023317D01*
X0099034Y0022518D02*
X0042273Y0022518D01*
X0041474Y0021720D02*
X0099034Y0021720D01*
X0099034Y0020921D02*
X0040391Y0020921D01*
X0040391Y0020123D02*
X0099034Y0020123D01*
X0099034Y0019324D02*
X0098988Y0019324D01*
X0096282Y0019324D02*
X0095618Y0019324D01*
X0092251Y0019324D02*
X0091587Y0019324D01*
X0088881Y0019324D02*
X0040721Y0019324D01*
X0041158Y0018526D02*
X0088443Y0018526D01*
X0088443Y0017727D02*
X0041158Y0017727D01*
X0040684Y0016929D02*
X0088918Y0016929D01*
X0089056Y0016130D02*
X0040546Y0016130D01*
X0040820Y0015331D02*
X0088782Y0015331D01*
X0088782Y0014533D02*
X0040820Y0014533D01*
X0040820Y0013734D02*
X0088782Y0013734D01*
X0088982Y0012936D02*
X0087281Y0012936D01*
X0088080Y0012137D02*
X0089096Y0012137D01*
X0088443Y0011339D02*
X0088363Y0011339D01*
X0088363Y0010540D02*
X0088443Y0010540D01*
X0088703Y0009742D02*
X0088158Y0009742D01*
X0083963Y0009742D02*
X0045638Y0009742D01*
X0045843Y0010540D02*
X0083758Y0010540D01*
X0083758Y0011339D02*
X0045843Y0011339D01*
X0045560Y0012137D02*
X0084041Y0012137D01*
X0084840Y0012936D02*
X0044762Y0012936D01*
X0042320Y0012936D02*
X0040620Y0012936D01*
X0040506Y0012137D02*
X0041522Y0012137D01*
X0041239Y0011339D02*
X0041158Y0011339D01*
X0041158Y0010540D02*
X0041239Y0010540D01*
X0041444Y0009742D02*
X0040899Y0009742D01*
X0067103Y0036093D02*
X0068243Y0036093D01*
X0067444Y0036891D02*
X0067103Y0036891D01*
X0067223Y0037690D02*
X0066465Y0037690D01*
X0055162Y0042481D02*
X0040391Y0042481D01*
X0040391Y0043279D02*
X0054624Y0043279D01*
X0054624Y0044078D02*
X0040391Y0044078D01*
X0040391Y0044876D02*
X0054624Y0044876D01*
D16*
X0074446Y0053420D02*
X0078580Y0053420D01*
X0085273Y0046728D01*
X0074446Y0053420D02*
X0054627Y0073240D01*
X0051037Y0073240D01*
X0049919Y0072121D01*
M02*
