G75*
%MOIN*%
%OFA0B0*%
%FSLAX25Y25*%
%IPPOS*%
%LPD*%
%AMOC8*
5,1,8,0,0,1.08239X$1,22.5*
%
%ADD10C,0.00000*%
%ADD11C,0.06000*%
%ADD12C,0.07906*%
%ADD13C,0.02205*%
%ADD14C,0.01000*%
%ADD15C,0.00800*%
%ADD16C,0.01969*%
D10*
X0029368Y0014150D02*
X0029368Y0092890D01*
X0100234Y0092890D01*
X0100234Y0014150D01*
X0029368Y0014150D01*
X0031375Y0016748D02*
X0031377Y0016796D01*
X0031383Y0016844D01*
X0031393Y0016891D01*
X0031406Y0016937D01*
X0031424Y0016982D01*
X0031444Y0017026D01*
X0031469Y0017068D01*
X0031497Y0017107D01*
X0031527Y0017144D01*
X0031561Y0017178D01*
X0031598Y0017210D01*
X0031636Y0017239D01*
X0031677Y0017264D01*
X0031720Y0017286D01*
X0031765Y0017304D01*
X0031811Y0017318D01*
X0031858Y0017329D01*
X0031906Y0017336D01*
X0031954Y0017339D01*
X0032002Y0017338D01*
X0032050Y0017333D01*
X0032098Y0017324D01*
X0032144Y0017312D01*
X0032189Y0017295D01*
X0032233Y0017275D01*
X0032275Y0017252D01*
X0032315Y0017225D01*
X0032353Y0017195D01*
X0032388Y0017162D01*
X0032420Y0017126D01*
X0032450Y0017088D01*
X0032476Y0017047D01*
X0032498Y0017004D01*
X0032518Y0016960D01*
X0032533Y0016915D01*
X0032545Y0016868D01*
X0032553Y0016820D01*
X0032557Y0016772D01*
X0032557Y0016724D01*
X0032553Y0016676D01*
X0032545Y0016628D01*
X0032533Y0016581D01*
X0032518Y0016536D01*
X0032498Y0016492D01*
X0032476Y0016449D01*
X0032450Y0016408D01*
X0032420Y0016370D01*
X0032388Y0016334D01*
X0032353Y0016301D01*
X0032315Y0016271D01*
X0032275Y0016244D01*
X0032233Y0016221D01*
X0032189Y0016201D01*
X0032144Y0016184D01*
X0032098Y0016172D01*
X0032050Y0016163D01*
X0032002Y0016158D01*
X0031954Y0016157D01*
X0031906Y0016160D01*
X0031858Y0016167D01*
X0031811Y0016178D01*
X0031765Y0016192D01*
X0031720Y0016210D01*
X0031677Y0016232D01*
X0031636Y0016257D01*
X0031598Y0016286D01*
X0031561Y0016318D01*
X0031527Y0016352D01*
X0031497Y0016389D01*
X0031469Y0016428D01*
X0031444Y0016470D01*
X0031424Y0016514D01*
X0031406Y0016559D01*
X0031393Y0016605D01*
X0031383Y0016652D01*
X0031377Y0016700D01*
X0031375Y0016748D01*
X0031375Y0024150D02*
X0031377Y0024198D01*
X0031383Y0024246D01*
X0031393Y0024293D01*
X0031406Y0024339D01*
X0031424Y0024384D01*
X0031444Y0024428D01*
X0031469Y0024470D01*
X0031497Y0024509D01*
X0031527Y0024546D01*
X0031561Y0024580D01*
X0031598Y0024612D01*
X0031636Y0024641D01*
X0031677Y0024666D01*
X0031720Y0024688D01*
X0031765Y0024706D01*
X0031811Y0024720D01*
X0031858Y0024731D01*
X0031906Y0024738D01*
X0031954Y0024741D01*
X0032002Y0024740D01*
X0032050Y0024735D01*
X0032098Y0024726D01*
X0032144Y0024714D01*
X0032189Y0024697D01*
X0032233Y0024677D01*
X0032275Y0024654D01*
X0032315Y0024627D01*
X0032353Y0024597D01*
X0032388Y0024564D01*
X0032420Y0024528D01*
X0032450Y0024490D01*
X0032476Y0024449D01*
X0032498Y0024406D01*
X0032518Y0024362D01*
X0032533Y0024317D01*
X0032545Y0024270D01*
X0032553Y0024222D01*
X0032557Y0024174D01*
X0032557Y0024126D01*
X0032553Y0024078D01*
X0032545Y0024030D01*
X0032533Y0023983D01*
X0032518Y0023938D01*
X0032498Y0023894D01*
X0032476Y0023851D01*
X0032450Y0023810D01*
X0032420Y0023772D01*
X0032388Y0023736D01*
X0032353Y0023703D01*
X0032315Y0023673D01*
X0032275Y0023646D01*
X0032233Y0023623D01*
X0032189Y0023603D01*
X0032144Y0023586D01*
X0032098Y0023574D01*
X0032050Y0023565D01*
X0032002Y0023560D01*
X0031954Y0023559D01*
X0031906Y0023562D01*
X0031858Y0023569D01*
X0031811Y0023580D01*
X0031765Y0023594D01*
X0031720Y0023612D01*
X0031677Y0023634D01*
X0031636Y0023659D01*
X0031598Y0023688D01*
X0031561Y0023720D01*
X0031527Y0023754D01*
X0031497Y0023791D01*
X0031469Y0023830D01*
X0031444Y0023872D01*
X0031424Y0023916D01*
X0031406Y0023961D01*
X0031393Y0024007D01*
X0031383Y0024054D01*
X0031377Y0024102D01*
X0031375Y0024150D01*
X0038777Y0024150D02*
X0038779Y0024198D01*
X0038785Y0024246D01*
X0038795Y0024293D01*
X0038808Y0024339D01*
X0038826Y0024384D01*
X0038846Y0024428D01*
X0038871Y0024470D01*
X0038899Y0024509D01*
X0038929Y0024546D01*
X0038963Y0024580D01*
X0039000Y0024612D01*
X0039038Y0024641D01*
X0039079Y0024666D01*
X0039122Y0024688D01*
X0039167Y0024706D01*
X0039213Y0024720D01*
X0039260Y0024731D01*
X0039308Y0024738D01*
X0039356Y0024741D01*
X0039404Y0024740D01*
X0039452Y0024735D01*
X0039500Y0024726D01*
X0039546Y0024714D01*
X0039591Y0024697D01*
X0039635Y0024677D01*
X0039677Y0024654D01*
X0039717Y0024627D01*
X0039755Y0024597D01*
X0039790Y0024564D01*
X0039822Y0024528D01*
X0039852Y0024490D01*
X0039878Y0024449D01*
X0039900Y0024406D01*
X0039920Y0024362D01*
X0039935Y0024317D01*
X0039947Y0024270D01*
X0039955Y0024222D01*
X0039959Y0024174D01*
X0039959Y0024126D01*
X0039955Y0024078D01*
X0039947Y0024030D01*
X0039935Y0023983D01*
X0039920Y0023938D01*
X0039900Y0023894D01*
X0039878Y0023851D01*
X0039852Y0023810D01*
X0039822Y0023772D01*
X0039790Y0023736D01*
X0039755Y0023703D01*
X0039717Y0023673D01*
X0039677Y0023646D01*
X0039635Y0023623D01*
X0039591Y0023603D01*
X0039546Y0023586D01*
X0039500Y0023574D01*
X0039452Y0023565D01*
X0039404Y0023560D01*
X0039356Y0023559D01*
X0039308Y0023562D01*
X0039260Y0023569D01*
X0039213Y0023580D01*
X0039167Y0023594D01*
X0039122Y0023612D01*
X0039079Y0023634D01*
X0039038Y0023659D01*
X0039000Y0023688D01*
X0038963Y0023720D01*
X0038929Y0023754D01*
X0038899Y0023791D01*
X0038871Y0023830D01*
X0038846Y0023872D01*
X0038826Y0023916D01*
X0038808Y0023961D01*
X0038795Y0024007D01*
X0038785Y0024054D01*
X0038779Y0024102D01*
X0038777Y0024150D01*
X0038777Y0016748D02*
X0038779Y0016796D01*
X0038785Y0016844D01*
X0038795Y0016891D01*
X0038808Y0016937D01*
X0038826Y0016982D01*
X0038846Y0017026D01*
X0038871Y0017068D01*
X0038899Y0017107D01*
X0038929Y0017144D01*
X0038963Y0017178D01*
X0039000Y0017210D01*
X0039038Y0017239D01*
X0039079Y0017264D01*
X0039122Y0017286D01*
X0039167Y0017304D01*
X0039213Y0017318D01*
X0039260Y0017329D01*
X0039308Y0017336D01*
X0039356Y0017339D01*
X0039404Y0017338D01*
X0039452Y0017333D01*
X0039500Y0017324D01*
X0039546Y0017312D01*
X0039591Y0017295D01*
X0039635Y0017275D01*
X0039677Y0017252D01*
X0039717Y0017225D01*
X0039755Y0017195D01*
X0039790Y0017162D01*
X0039822Y0017126D01*
X0039852Y0017088D01*
X0039878Y0017047D01*
X0039900Y0017004D01*
X0039920Y0016960D01*
X0039935Y0016915D01*
X0039947Y0016868D01*
X0039955Y0016820D01*
X0039959Y0016772D01*
X0039959Y0016724D01*
X0039955Y0016676D01*
X0039947Y0016628D01*
X0039935Y0016581D01*
X0039920Y0016536D01*
X0039900Y0016492D01*
X0039878Y0016449D01*
X0039852Y0016408D01*
X0039822Y0016370D01*
X0039790Y0016334D01*
X0039755Y0016301D01*
X0039717Y0016271D01*
X0039677Y0016244D01*
X0039635Y0016221D01*
X0039591Y0016201D01*
X0039546Y0016184D01*
X0039500Y0016172D01*
X0039452Y0016163D01*
X0039404Y0016158D01*
X0039356Y0016157D01*
X0039308Y0016160D01*
X0039260Y0016167D01*
X0039213Y0016178D01*
X0039167Y0016192D01*
X0039122Y0016210D01*
X0039079Y0016232D01*
X0039038Y0016257D01*
X0039000Y0016286D01*
X0038963Y0016318D01*
X0038929Y0016352D01*
X0038899Y0016389D01*
X0038871Y0016428D01*
X0038846Y0016470D01*
X0038826Y0016514D01*
X0038808Y0016559D01*
X0038795Y0016605D01*
X0038785Y0016652D01*
X0038779Y0016700D01*
X0038777Y0016748D01*
X0089643Y0016748D02*
X0089645Y0016796D01*
X0089651Y0016844D01*
X0089661Y0016891D01*
X0089674Y0016937D01*
X0089692Y0016982D01*
X0089712Y0017026D01*
X0089737Y0017068D01*
X0089765Y0017107D01*
X0089795Y0017144D01*
X0089829Y0017178D01*
X0089866Y0017210D01*
X0089904Y0017239D01*
X0089945Y0017264D01*
X0089988Y0017286D01*
X0090033Y0017304D01*
X0090079Y0017318D01*
X0090126Y0017329D01*
X0090174Y0017336D01*
X0090222Y0017339D01*
X0090270Y0017338D01*
X0090318Y0017333D01*
X0090366Y0017324D01*
X0090412Y0017312D01*
X0090457Y0017295D01*
X0090501Y0017275D01*
X0090543Y0017252D01*
X0090583Y0017225D01*
X0090621Y0017195D01*
X0090656Y0017162D01*
X0090688Y0017126D01*
X0090718Y0017088D01*
X0090744Y0017047D01*
X0090766Y0017004D01*
X0090786Y0016960D01*
X0090801Y0016915D01*
X0090813Y0016868D01*
X0090821Y0016820D01*
X0090825Y0016772D01*
X0090825Y0016724D01*
X0090821Y0016676D01*
X0090813Y0016628D01*
X0090801Y0016581D01*
X0090786Y0016536D01*
X0090766Y0016492D01*
X0090744Y0016449D01*
X0090718Y0016408D01*
X0090688Y0016370D01*
X0090656Y0016334D01*
X0090621Y0016301D01*
X0090583Y0016271D01*
X0090543Y0016244D01*
X0090501Y0016221D01*
X0090457Y0016201D01*
X0090412Y0016184D01*
X0090366Y0016172D01*
X0090318Y0016163D01*
X0090270Y0016158D01*
X0090222Y0016157D01*
X0090174Y0016160D01*
X0090126Y0016167D01*
X0090079Y0016178D01*
X0090033Y0016192D01*
X0089988Y0016210D01*
X0089945Y0016232D01*
X0089904Y0016257D01*
X0089866Y0016286D01*
X0089829Y0016318D01*
X0089795Y0016352D01*
X0089765Y0016389D01*
X0089737Y0016428D01*
X0089712Y0016470D01*
X0089692Y0016514D01*
X0089674Y0016559D01*
X0089661Y0016605D01*
X0089651Y0016652D01*
X0089645Y0016700D01*
X0089643Y0016748D01*
X0089643Y0024150D02*
X0089645Y0024198D01*
X0089651Y0024246D01*
X0089661Y0024293D01*
X0089674Y0024339D01*
X0089692Y0024384D01*
X0089712Y0024428D01*
X0089737Y0024470D01*
X0089765Y0024509D01*
X0089795Y0024546D01*
X0089829Y0024580D01*
X0089866Y0024612D01*
X0089904Y0024641D01*
X0089945Y0024666D01*
X0089988Y0024688D01*
X0090033Y0024706D01*
X0090079Y0024720D01*
X0090126Y0024731D01*
X0090174Y0024738D01*
X0090222Y0024741D01*
X0090270Y0024740D01*
X0090318Y0024735D01*
X0090366Y0024726D01*
X0090412Y0024714D01*
X0090457Y0024697D01*
X0090501Y0024677D01*
X0090543Y0024654D01*
X0090583Y0024627D01*
X0090621Y0024597D01*
X0090656Y0024564D01*
X0090688Y0024528D01*
X0090718Y0024490D01*
X0090744Y0024449D01*
X0090766Y0024406D01*
X0090786Y0024362D01*
X0090801Y0024317D01*
X0090813Y0024270D01*
X0090821Y0024222D01*
X0090825Y0024174D01*
X0090825Y0024126D01*
X0090821Y0024078D01*
X0090813Y0024030D01*
X0090801Y0023983D01*
X0090786Y0023938D01*
X0090766Y0023894D01*
X0090744Y0023851D01*
X0090718Y0023810D01*
X0090688Y0023772D01*
X0090656Y0023736D01*
X0090621Y0023703D01*
X0090583Y0023673D01*
X0090543Y0023646D01*
X0090501Y0023623D01*
X0090457Y0023603D01*
X0090412Y0023586D01*
X0090366Y0023574D01*
X0090318Y0023565D01*
X0090270Y0023560D01*
X0090222Y0023559D01*
X0090174Y0023562D01*
X0090126Y0023569D01*
X0090079Y0023580D01*
X0090033Y0023594D01*
X0089988Y0023612D01*
X0089945Y0023634D01*
X0089904Y0023659D01*
X0089866Y0023688D01*
X0089829Y0023720D01*
X0089795Y0023754D01*
X0089765Y0023791D01*
X0089737Y0023830D01*
X0089712Y0023872D01*
X0089692Y0023916D01*
X0089674Y0023961D01*
X0089661Y0024007D01*
X0089651Y0024054D01*
X0089645Y0024102D01*
X0089643Y0024150D01*
X0097044Y0024150D02*
X0097046Y0024198D01*
X0097052Y0024246D01*
X0097062Y0024293D01*
X0097075Y0024339D01*
X0097093Y0024384D01*
X0097113Y0024428D01*
X0097138Y0024470D01*
X0097166Y0024509D01*
X0097196Y0024546D01*
X0097230Y0024580D01*
X0097267Y0024612D01*
X0097305Y0024641D01*
X0097346Y0024666D01*
X0097389Y0024688D01*
X0097434Y0024706D01*
X0097480Y0024720D01*
X0097527Y0024731D01*
X0097575Y0024738D01*
X0097623Y0024741D01*
X0097671Y0024740D01*
X0097719Y0024735D01*
X0097767Y0024726D01*
X0097813Y0024714D01*
X0097858Y0024697D01*
X0097902Y0024677D01*
X0097944Y0024654D01*
X0097984Y0024627D01*
X0098022Y0024597D01*
X0098057Y0024564D01*
X0098089Y0024528D01*
X0098119Y0024490D01*
X0098145Y0024449D01*
X0098167Y0024406D01*
X0098187Y0024362D01*
X0098202Y0024317D01*
X0098214Y0024270D01*
X0098222Y0024222D01*
X0098226Y0024174D01*
X0098226Y0024126D01*
X0098222Y0024078D01*
X0098214Y0024030D01*
X0098202Y0023983D01*
X0098187Y0023938D01*
X0098167Y0023894D01*
X0098145Y0023851D01*
X0098119Y0023810D01*
X0098089Y0023772D01*
X0098057Y0023736D01*
X0098022Y0023703D01*
X0097984Y0023673D01*
X0097944Y0023646D01*
X0097902Y0023623D01*
X0097858Y0023603D01*
X0097813Y0023586D01*
X0097767Y0023574D01*
X0097719Y0023565D01*
X0097671Y0023560D01*
X0097623Y0023559D01*
X0097575Y0023562D01*
X0097527Y0023569D01*
X0097480Y0023580D01*
X0097434Y0023594D01*
X0097389Y0023612D01*
X0097346Y0023634D01*
X0097305Y0023659D01*
X0097267Y0023688D01*
X0097230Y0023720D01*
X0097196Y0023754D01*
X0097166Y0023791D01*
X0097138Y0023830D01*
X0097113Y0023872D01*
X0097093Y0023916D01*
X0097075Y0023961D01*
X0097062Y0024007D01*
X0097052Y0024054D01*
X0097046Y0024102D01*
X0097044Y0024150D01*
X0097044Y0016748D02*
X0097046Y0016796D01*
X0097052Y0016844D01*
X0097062Y0016891D01*
X0097075Y0016937D01*
X0097093Y0016982D01*
X0097113Y0017026D01*
X0097138Y0017068D01*
X0097166Y0017107D01*
X0097196Y0017144D01*
X0097230Y0017178D01*
X0097267Y0017210D01*
X0097305Y0017239D01*
X0097346Y0017264D01*
X0097389Y0017286D01*
X0097434Y0017304D01*
X0097480Y0017318D01*
X0097527Y0017329D01*
X0097575Y0017336D01*
X0097623Y0017339D01*
X0097671Y0017338D01*
X0097719Y0017333D01*
X0097767Y0017324D01*
X0097813Y0017312D01*
X0097858Y0017295D01*
X0097902Y0017275D01*
X0097944Y0017252D01*
X0097984Y0017225D01*
X0098022Y0017195D01*
X0098057Y0017162D01*
X0098089Y0017126D01*
X0098119Y0017088D01*
X0098145Y0017047D01*
X0098167Y0017004D01*
X0098187Y0016960D01*
X0098202Y0016915D01*
X0098214Y0016868D01*
X0098222Y0016820D01*
X0098226Y0016772D01*
X0098226Y0016724D01*
X0098222Y0016676D01*
X0098214Y0016628D01*
X0098202Y0016581D01*
X0098187Y0016536D01*
X0098167Y0016492D01*
X0098145Y0016449D01*
X0098119Y0016408D01*
X0098089Y0016370D01*
X0098057Y0016334D01*
X0098022Y0016301D01*
X0097984Y0016271D01*
X0097944Y0016244D01*
X0097902Y0016221D01*
X0097858Y0016201D01*
X0097813Y0016184D01*
X0097767Y0016172D01*
X0097719Y0016163D01*
X0097671Y0016158D01*
X0097623Y0016157D01*
X0097575Y0016160D01*
X0097527Y0016167D01*
X0097480Y0016178D01*
X0097434Y0016192D01*
X0097389Y0016210D01*
X0097346Y0016232D01*
X0097305Y0016257D01*
X0097267Y0016286D01*
X0097230Y0016318D01*
X0097196Y0016352D01*
X0097166Y0016389D01*
X0097138Y0016428D01*
X0097113Y0016470D01*
X0097093Y0016514D01*
X0097075Y0016559D01*
X0097062Y0016605D01*
X0097052Y0016652D01*
X0097046Y0016700D01*
X0097044Y0016748D01*
D11*
X0079801Y0018874D03*
X0069801Y0018874D03*
X0059801Y0018874D03*
X0049801Y0018874D03*
X0035273Y0044858D03*
X0035273Y0054858D03*
X0035273Y0064858D03*
X0035273Y0074858D03*
X0035273Y0084858D03*
D12*
X0035667Y0020449D03*
X0093935Y0020449D03*
D13*
X0086533Y0028874D03*
X0082911Y0024780D03*
X0075824Y0022811D03*
X0073187Y0024937D03*
X0069801Y0024386D03*
X0064801Y0022417D03*
X0054801Y0021512D03*
X0054565Y0024780D03*
X0049801Y0024386D03*
X0043541Y0025921D03*
X0043383Y0022220D03*
X0035509Y0027732D03*
X0035509Y0030094D03*
X0035509Y0032457D03*
X0038423Y0036591D03*
X0047950Y0033047D03*
X0048069Y0040134D03*
X0053383Y0041709D03*
X0055746Y0044858D03*
X0058502Y0047535D03*
X0060076Y0049976D03*
X0056927Y0049976D03*
X0049643Y0054701D03*
X0046691Y0053913D03*
X0044328Y0044858D03*
X0062006Y0042535D03*
X0065194Y0042496D03*
X0069525Y0044071D03*
X0071494Y0040528D03*
X0073856Y0045252D03*
X0083305Y0049740D03*
X0085273Y0052732D03*
X0091533Y0052732D03*
X0084486Y0045646D03*
X0094722Y0039740D03*
X0097872Y0038165D03*
X0092832Y0033441D03*
X0085273Y0034622D03*
X0078423Y0056000D03*
X0070313Y0056276D03*
X0061651Y0057850D03*
X0062045Y0062575D03*
X0067163Y0070449D03*
X0071100Y0072811D03*
X0067163Y0074780D03*
X0075037Y0074780D03*
X0075037Y0069268D03*
X0078620Y0065843D03*
X0088817Y0066827D03*
X0088817Y0069661D03*
X0089998Y0074071D03*
X0088029Y0076591D03*
X0086061Y0079150D03*
X0084486Y0081669D03*
X0088423Y0083480D03*
X0089210Y0080055D03*
X0093147Y0074780D03*
X0093935Y0070961D03*
X0096691Y0076512D03*
X0097872Y0082417D03*
X0098265Y0061787D03*
X0093069Y0060488D03*
X0088817Y0061000D03*
X0073462Y0085016D03*
X0064210Y0085567D03*
X0049919Y0078126D03*
X0049250Y0081079D03*
X0046691Y0079110D03*
X0045313Y0075961D03*
X0043147Y0069268D03*
X0047517Y0064543D03*
X0049053Y0086197D03*
X0047872Y0090685D03*
X0036061Y0090685D03*
D14*
X0035273Y0085016D02*
X0040391Y0085016D01*
X0041572Y0086197D01*
X0049446Y0086197D01*
X0051037Y0079244D02*
X0054627Y0079244D01*
X0074446Y0059425D01*
X0078580Y0059425D01*
X0085273Y0052732D01*
X0098265Y0061787D02*
X0098659Y0061787D01*
X0098659Y0031472D01*
X0098734Y0031079D02*
X0098734Y0026008D01*
X0098501Y0026240D01*
X0096769Y0026240D01*
X0095872Y0025342D01*
X0095165Y0025572D01*
X0094435Y0025688D01*
X0094435Y0020949D01*
X0093435Y0020949D01*
X0093435Y0025688D01*
X0092705Y0025572D01*
X0091997Y0025342D01*
X0091100Y0026240D01*
X0089368Y0026240D01*
X0088143Y0025016D01*
X0088143Y0023284D01*
X0089041Y0022386D01*
X0088811Y0021679D01*
X0088696Y0020949D01*
X0093435Y0020949D01*
X0093435Y0019949D01*
X0088696Y0019949D01*
X0088811Y0019219D01*
X0089041Y0018512D01*
X0088616Y0018087D01*
X0084301Y0018087D01*
X0084301Y0019769D01*
X0083616Y0021423D01*
X0082350Y0022689D01*
X0080696Y0023374D01*
X0078906Y0023374D01*
X0078427Y0023176D01*
X0078427Y0023329D01*
X0078031Y0024285D01*
X0077299Y0025017D01*
X0076342Y0025413D01*
X0075307Y0025413D01*
X0074350Y0025017D01*
X0073618Y0024285D01*
X0073222Y0023329D01*
X0073222Y0022293D01*
X0073559Y0021480D01*
X0072350Y0022689D01*
X0071950Y0022855D01*
X0072007Y0022912D01*
X0072403Y0023868D01*
X0072403Y0024903D01*
X0072007Y0025860D01*
X0071275Y0026592D01*
X0070318Y0026988D01*
X0069283Y0026988D01*
X0068327Y0026592D01*
X0067595Y0025860D01*
X0067198Y0024903D01*
X0067198Y0023868D01*
X0067595Y0022912D01*
X0067652Y0022855D01*
X0067252Y0022689D01*
X0065986Y0021423D01*
X0065301Y0019769D01*
X0065301Y0018087D01*
X0064301Y0018087D01*
X0064301Y0019769D01*
X0063616Y0021423D01*
X0062350Y0022689D01*
X0060696Y0023374D01*
X0058906Y0023374D01*
X0057252Y0022689D01*
X0055986Y0021423D01*
X0055301Y0019769D01*
X0055301Y0018087D01*
X0054301Y0018087D01*
X0054301Y0019769D01*
X0053616Y0021423D01*
X0052350Y0022689D01*
X0051950Y0022855D01*
X0052007Y0022912D01*
X0052264Y0023533D01*
X0052358Y0023305D01*
X0053090Y0022573D01*
X0054047Y0022177D01*
X0055082Y0022177D01*
X0056039Y0022573D01*
X0056771Y0023305D01*
X0057167Y0024262D01*
X0057167Y0025297D01*
X0057049Y0025582D01*
X0057049Y0031079D01*
X0098734Y0031079D01*
X0098734Y0030126D02*
X0057049Y0030126D01*
X0057049Y0029127D02*
X0098734Y0029127D01*
X0098734Y0028129D02*
X0057049Y0028129D01*
X0057049Y0027130D02*
X0098734Y0027130D01*
X0098734Y0026132D02*
X0098610Y0026132D01*
X0096661Y0026132D02*
X0091208Y0026132D01*
X0089260Y0026132D02*
X0071735Y0026132D01*
X0072308Y0025133D02*
X0074630Y0025133D01*
X0073556Y0024135D02*
X0072403Y0024135D01*
X0072100Y0023136D02*
X0073222Y0023136D01*
X0073287Y0022138D02*
X0072901Y0022138D01*
X0077018Y0025133D02*
X0088261Y0025133D01*
X0088143Y0024135D02*
X0078093Y0024135D01*
X0081270Y0023136D02*
X0088291Y0023136D01*
X0088960Y0022138D02*
X0082901Y0022138D01*
X0083733Y0021139D02*
X0088726Y0021139D01*
X0088836Y0019142D02*
X0084301Y0019142D01*
X0084301Y0018144D02*
X0088673Y0018144D01*
X0084147Y0020141D02*
X0093435Y0020141D01*
X0093435Y0021139D02*
X0094435Y0021139D01*
X0094435Y0022138D02*
X0093435Y0022138D01*
X0093435Y0023136D02*
X0094435Y0023136D01*
X0094435Y0024135D02*
X0093435Y0024135D01*
X0093435Y0025133D02*
X0094435Y0025133D01*
X0067866Y0026132D02*
X0057049Y0026132D01*
X0057167Y0025133D02*
X0067294Y0025133D01*
X0067198Y0024135D02*
X0057114Y0024135D01*
X0056602Y0023136D02*
X0058332Y0023136D01*
X0056701Y0022138D02*
X0052901Y0022138D01*
X0052528Y0023136D02*
X0052100Y0023136D01*
X0052080Y0025683D02*
X0052007Y0025860D01*
X0051275Y0026592D01*
X0050318Y0026988D01*
X0049283Y0026988D01*
X0048327Y0026592D01*
X0047595Y0025860D01*
X0047198Y0024903D01*
X0047198Y0023868D01*
X0047595Y0022912D01*
X0047652Y0022855D01*
X0047252Y0022689D01*
X0045986Y0021423D01*
X0045301Y0019769D01*
X0045301Y0018087D01*
X0040986Y0018087D01*
X0040706Y0018366D01*
X0041120Y0019364D01*
X0041120Y0021533D01*
X0040706Y0022532D01*
X0041458Y0023284D01*
X0041458Y0025016D01*
X0040234Y0026240D01*
X0038502Y0026240D01*
X0037750Y0025488D01*
X0036752Y0025902D01*
X0034582Y0025902D01*
X0033584Y0025488D01*
X0032832Y0026240D01*
X0031100Y0026240D01*
X0030868Y0026008D01*
X0030868Y0039740D01*
X0040391Y0039740D01*
X0040391Y0046433D01*
X0048265Y0046433D01*
X0048265Y0031079D01*
X0052080Y0031079D01*
X0052080Y0025683D01*
X0052080Y0026132D02*
X0051735Y0026132D01*
X0052080Y0027130D02*
X0030868Y0027130D01*
X0030868Y0026132D02*
X0030992Y0026132D01*
X0030868Y0028129D02*
X0052080Y0028129D01*
X0052080Y0029127D02*
X0030868Y0029127D01*
X0030868Y0030126D02*
X0052080Y0030126D01*
X0048265Y0031124D02*
X0030868Y0031124D01*
X0030868Y0032123D02*
X0048265Y0032123D01*
X0048265Y0033121D02*
X0030868Y0033121D01*
X0030868Y0034120D02*
X0037587Y0034120D01*
X0037905Y0033988D02*
X0038940Y0033988D01*
X0039897Y0034384D01*
X0040629Y0035116D01*
X0041025Y0036073D01*
X0041025Y0037108D01*
X0040629Y0038065D01*
X0039897Y0038797D01*
X0038940Y0039193D01*
X0037905Y0039193D01*
X0036949Y0038797D01*
X0036217Y0038065D01*
X0035820Y0037108D01*
X0035820Y0036073D01*
X0036217Y0035116D01*
X0036949Y0034384D01*
X0037905Y0033988D01*
X0039258Y0034120D02*
X0048265Y0034120D01*
X0048265Y0035118D02*
X0040630Y0035118D01*
X0041025Y0036117D02*
X0048265Y0036117D01*
X0048265Y0037115D02*
X0041022Y0037115D01*
X0040580Y0038114D02*
X0048265Y0038114D01*
X0048265Y0039112D02*
X0039135Y0039112D01*
X0037711Y0039112D02*
X0030868Y0039112D01*
X0030868Y0038114D02*
X0036266Y0038114D01*
X0035823Y0037115D02*
X0030868Y0037115D01*
X0030868Y0036117D02*
X0035820Y0036117D01*
X0036216Y0035118D02*
X0030868Y0035118D01*
X0032940Y0026132D02*
X0038393Y0026132D01*
X0040342Y0026132D02*
X0047866Y0026132D01*
X0047294Y0025133D02*
X0041341Y0025133D01*
X0041458Y0024135D02*
X0047198Y0024135D01*
X0047502Y0023136D02*
X0041311Y0023136D01*
X0040869Y0022138D02*
X0046701Y0022138D01*
X0045868Y0021139D02*
X0041120Y0021139D01*
X0041120Y0020141D02*
X0045455Y0020141D01*
X0045301Y0019142D02*
X0041028Y0019142D01*
X0040929Y0018144D02*
X0045301Y0018144D01*
X0053733Y0021139D02*
X0055868Y0021139D01*
X0055455Y0020141D02*
X0054147Y0020141D01*
X0054301Y0019142D02*
X0055301Y0019142D01*
X0055301Y0018144D02*
X0054301Y0018144D01*
X0061270Y0023136D02*
X0067502Y0023136D01*
X0066701Y0022138D02*
X0062901Y0022138D01*
X0063733Y0021139D02*
X0065868Y0021139D01*
X0065455Y0020141D02*
X0064147Y0020141D01*
X0064301Y0019142D02*
X0065301Y0019142D01*
X0065301Y0018144D02*
X0064301Y0018144D01*
X0048265Y0040111D02*
X0040391Y0040111D01*
X0040391Y0041109D02*
X0048265Y0041109D01*
X0048265Y0042108D02*
X0040391Y0042108D01*
X0040391Y0043106D02*
X0048265Y0043106D01*
X0048265Y0044105D02*
X0040391Y0044105D01*
X0040391Y0045103D02*
X0048265Y0045103D01*
X0048265Y0046102D02*
X0040391Y0046102D01*
X0040391Y0046039D02*
X0040391Y0069268D01*
X0043147Y0069268D01*
X0040391Y0069268D02*
X0040391Y0085016D01*
X0049919Y0078126D02*
X0051037Y0079244D01*
D15*
X0049817Y0080428D02*
X0048965Y0080428D01*
X0048797Y0080260D01*
X0047644Y0081413D01*
X0045737Y0081413D01*
X0044388Y0080064D01*
X0044388Y0078263D01*
X0044359Y0078263D01*
X0043010Y0076914D01*
X0043010Y0075007D01*
X0044359Y0073658D01*
X0046266Y0073658D01*
X0047615Y0075007D01*
X0047615Y0076808D01*
X0047644Y0076808D01*
X0047813Y0076976D01*
X0048965Y0075824D01*
X0050873Y0075824D01*
X0052221Y0077172D01*
X0052221Y0077544D01*
X0053923Y0077544D01*
X0072746Y0058721D01*
X0073742Y0057725D01*
X0076892Y0057725D01*
X0076120Y0056954D01*
X0076120Y0055046D01*
X0077469Y0053698D01*
X0079377Y0053698D01*
X0080640Y0054961D01*
X0082971Y0052630D01*
X0082971Y0052043D01*
X0082351Y0052043D01*
X0081002Y0050694D01*
X0081002Y0048786D01*
X0082351Y0047438D01*
X0083022Y0047438D01*
X0082183Y0046599D01*
X0082183Y0044692D01*
X0083532Y0043343D01*
X0085439Y0043343D01*
X0086788Y0044692D01*
X0086788Y0046599D01*
X0085439Y0047948D01*
X0084769Y0047948D01*
X0085607Y0048786D01*
X0085607Y0050430D01*
X0086227Y0050430D01*
X0087576Y0051779D01*
X0087576Y0053686D01*
X0086227Y0055035D01*
X0085375Y0055035D01*
X0079284Y0061125D01*
X0077876Y0061125D01*
X0075151Y0061125D01*
X0068123Y0068153D01*
X0069465Y0069495D01*
X0069465Y0071190D01*
X0070146Y0070509D01*
X0072054Y0070509D01*
X0073402Y0071857D01*
X0073402Y0073158D01*
X0074083Y0072477D01*
X0075991Y0072477D01*
X0077339Y0073826D01*
X0077339Y0075733D01*
X0075991Y0077082D01*
X0074083Y0077082D01*
X0072735Y0075733D01*
X0072735Y0074432D01*
X0072054Y0075113D01*
X0070146Y0075113D01*
X0069465Y0074432D01*
X0069465Y0075733D01*
X0068117Y0077082D01*
X0066209Y0077082D01*
X0064861Y0075733D01*
X0064861Y0073826D01*
X0066072Y0072614D01*
X0064867Y0071409D01*
X0055331Y0080944D01*
X0050333Y0080944D01*
X0049817Y0080428D01*
X0048963Y0080426D02*
X0048631Y0080426D01*
X0047832Y0081225D02*
X0082183Y0081225D01*
X0082183Y0080716D02*
X0083532Y0079367D01*
X0083758Y0079367D01*
X0083758Y0078196D01*
X0085107Y0076847D01*
X0085727Y0076847D01*
X0085727Y0075637D01*
X0087075Y0074288D01*
X0087695Y0074288D01*
X0087695Y0073117D01*
X0088849Y0071964D01*
X0087863Y0071964D01*
X0086514Y0070615D01*
X0086514Y0068708D01*
X0086978Y0068244D01*
X0086514Y0067780D01*
X0086514Y0065873D01*
X0087863Y0064524D01*
X0089770Y0064524D01*
X0091119Y0065873D01*
X0091119Y0067780D01*
X0090655Y0068244D01*
X0091119Y0068708D01*
X0091119Y0070615D01*
X0089965Y0071769D01*
X0090951Y0071769D01*
X0091927Y0072744D01*
X0092194Y0072477D01*
X0094101Y0072477D01*
X0095450Y0073826D01*
X0095450Y0074497D01*
X0095737Y0074209D01*
X0097644Y0074209D01*
X0098993Y0075558D01*
X0098993Y0077465D01*
X0097644Y0078814D01*
X0095737Y0078814D01*
X0094388Y0077465D01*
X0094388Y0076795D01*
X0094101Y0077082D01*
X0092194Y0077082D01*
X0091218Y0076106D01*
X0090951Y0076373D01*
X0090331Y0076373D01*
X0090331Y0077544D01*
X0090123Y0077753D01*
X0090164Y0077753D01*
X0091513Y0079101D01*
X0091513Y0081009D01*
X0090164Y0082357D01*
X0088257Y0082357D01*
X0087183Y0081284D01*
X0087014Y0081452D01*
X0086788Y0081452D01*
X0086788Y0082623D01*
X0085439Y0083972D01*
X0083532Y0083972D01*
X0082183Y0082623D01*
X0082183Y0080716D01*
X0082473Y0080426D02*
X0055850Y0080426D01*
X0056648Y0079628D02*
X0083272Y0079628D01*
X0083758Y0078829D02*
X0057447Y0078829D01*
X0058245Y0078031D02*
X0083924Y0078031D01*
X0084722Y0077232D02*
X0059044Y0077232D01*
X0059842Y0076433D02*
X0065561Y0076433D01*
X0064861Y0075635D02*
X0060641Y0075635D01*
X0061439Y0074836D02*
X0064861Y0074836D01*
X0064861Y0074038D02*
X0062238Y0074038D01*
X0063036Y0073239D02*
X0065447Y0073239D01*
X0065899Y0072441D02*
X0063835Y0072441D01*
X0064633Y0071642D02*
X0065101Y0071642D01*
X0063019Y0068448D02*
X0045450Y0068448D01*
X0045450Y0068314D02*
X0045450Y0070221D01*
X0044101Y0071570D01*
X0042194Y0071570D01*
X0042091Y0071468D01*
X0042091Y0084312D01*
X0042277Y0084497D01*
X0047497Y0084497D01*
X0048099Y0083894D01*
X0050006Y0083894D01*
X0051355Y0085243D01*
X0051355Y0086197D01*
X0071387Y0086197D01*
X0071160Y0085969D01*
X0071160Y0084062D01*
X0072509Y0082713D01*
X0074416Y0082713D01*
X0075765Y0084062D01*
X0075765Y0085969D01*
X0075537Y0086197D01*
X0091179Y0086197D01*
X0095569Y0081806D01*
X0095569Y0081464D01*
X0096918Y0080115D01*
X0097261Y0080115D01*
X0099034Y0078342D01*
X0099034Y0064090D01*
X0097312Y0064090D01*
X0095963Y0062741D01*
X0095963Y0060834D01*
X0096959Y0059838D01*
X0096959Y0040759D01*
X0095676Y0042043D01*
X0093768Y0042043D01*
X0092420Y0040694D01*
X0092420Y0038786D01*
X0093768Y0037438D01*
X0095569Y0037438D01*
X0095569Y0037212D01*
X0096918Y0035863D01*
X0096959Y0035863D01*
X0096959Y0033441D01*
X0095135Y0033441D01*
X0095135Y0034395D01*
X0093786Y0035743D01*
X0091879Y0035743D01*
X0090530Y0034395D01*
X0090530Y0033441D01*
X0050253Y0033441D01*
X0050253Y0034001D01*
X0050165Y0034088D01*
X0050165Y0038975D01*
X0050371Y0039180D01*
X0050371Y0041088D01*
X0050165Y0041293D01*
X0050165Y0047220D01*
X0049052Y0048333D01*
X0042091Y0048333D01*
X0042091Y0067068D01*
X0042194Y0066965D01*
X0044101Y0066965D01*
X0045450Y0068314D01*
X0045450Y0069247D02*
X0062221Y0069247D01*
X0061422Y0070045D02*
X0045450Y0070045D01*
X0044827Y0070844D02*
X0060624Y0070844D01*
X0059825Y0071642D02*
X0042091Y0071642D01*
X0042091Y0072441D02*
X0059027Y0072441D01*
X0058228Y0073239D02*
X0042091Y0073239D01*
X0042091Y0074038D02*
X0043979Y0074038D01*
X0043181Y0074836D02*
X0042091Y0074836D01*
X0042091Y0075635D02*
X0043010Y0075635D01*
X0043010Y0076433D02*
X0042091Y0076433D01*
X0042091Y0077232D02*
X0043328Y0077232D01*
X0044126Y0078031D02*
X0042091Y0078031D01*
X0042091Y0078829D02*
X0044388Y0078829D01*
X0044388Y0079628D02*
X0042091Y0079628D01*
X0042091Y0080426D02*
X0044750Y0080426D01*
X0045549Y0081225D02*
X0042091Y0081225D01*
X0042091Y0082023D02*
X0082183Y0082023D01*
X0082382Y0082822D02*
X0074524Y0082822D01*
X0075323Y0083620D02*
X0083181Y0083620D01*
X0085791Y0083620D02*
X0093755Y0083620D01*
X0092957Y0084419D02*
X0075765Y0084419D01*
X0075765Y0085217D02*
X0092158Y0085217D01*
X0091360Y0086016D02*
X0075718Y0086016D01*
X0072400Y0082822D02*
X0042091Y0082822D01*
X0042091Y0083620D02*
X0071602Y0083620D01*
X0071160Y0084419D02*
X0050531Y0084419D01*
X0051329Y0085217D02*
X0071160Y0085217D01*
X0071206Y0086016D02*
X0051355Y0086016D01*
X0047575Y0084419D02*
X0042198Y0084419D01*
X0047615Y0076433D02*
X0048355Y0076433D01*
X0047615Y0075635D02*
X0055833Y0075635D01*
X0056631Y0074836D02*
X0047444Y0074836D01*
X0046646Y0074038D02*
X0057430Y0074038D01*
X0055034Y0076433D02*
X0051482Y0076433D01*
X0052221Y0077232D02*
X0054235Y0077232D01*
X0044785Y0067650D02*
X0063818Y0067650D01*
X0064616Y0066851D02*
X0042091Y0066851D01*
X0042091Y0066053D02*
X0065415Y0066053D01*
X0066213Y0065254D02*
X0042091Y0065254D01*
X0042091Y0064456D02*
X0060670Y0064456D01*
X0061091Y0064877D02*
X0059743Y0063528D01*
X0059743Y0061621D01*
X0061091Y0060272D01*
X0062999Y0060272D01*
X0064347Y0061621D01*
X0064347Y0063528D01*
X0062999Y0064877D01*
X0061091Y0064877D01*
X0059871Y0063657D02*
X0042091Y0063657D01*
X0042091Y0062859D02*
X0059743Y0062859D01*
X0059743Y0062060D02*
X0042091Y0062060D01*
X0042091Y0061262D02*
X0060102Y0061262D01*
X0060900Y0060463D02*
X0042091Y0060463D01*
X0042091Y0059665D02*
X0060210Y0059665D01*
X0060698Y0060153D02*
X0059349Y0058804D01*
X0059349Y0056897D01*
X0060698Y0055548D01*
X0062605Y0055548D01*
X0063954Y0056897D01*
X0063954Y0058804D01*
X0062605Y0060153D01*
X0060698Y0060153D01*
X0059411Y0058866D02*
X0042091Y0058866D01*
X0042091Y0058068D02*
X0059349Y0058068D01*
X0059349Y0057269D02*
X0042091Y0057269D01*
X0042091Y0056471D02*
X0059775Y0056471D01*
X0060573Y0055672D02*
X0048188Y0055672D01*
X0047644Y0056216D02*
X0048993Y0054867D01*
X0048993Y0052960D01*
X0047644Y0051611D01*
X0045737Y0051611D01*
X0044388Y0052960D01*
X0044388Y0054867D01*
X0045737Y0056216D01*
X0047644Y0056216D01*
X0048986Y0054874D02*
X0068458Y0054874D01*
X0068010Y0055322D02*
X0069359Y0053973D01*
X0071266Y0053973D01*
X0072615Y0055322D01*
X0072615Y0057229D01*
X0071266Y0058578D01*
X0069359Y0058578D01*
X0068010Y0057229D01*
X0068010Y0055322D01*
X0068010Y0055672D02*
X0062729Y0055672D01*
X0063528Y0056471D02*
X0068010Y0056471D01*
X0068050Y0057269D02*
X0063954Y0057269D01*
X0063954Y0058068D02*
X0068849Y0058068D01*
X0071776Y0058068D02*
X0073400Y0058068D01*
X0072601Y0058866D02*
X0063891Y0058866D01*
X0063093Y0059665D02*
X0071803Y0059665D01*
X0071004Y0060463D02*
X0063189Y0060463D01*
X0063988Y0061262D02*
X0070206Y0061262D01*
X0069407Y0062060D02*
X0064347Y0062060D01*
X0064347Y0062859D02*
X0068609Y0062859D01*
X0067810Y0063657D02*
X0064218Y0063657D01*
X0063420Y0064456D02*
X0067012Y0064456D01*
X0069424Y0066851D02*
X0076372Y0066851D01*
X0076317Y0066796D02*
X0076317Y0064889D01*
X0077666Y0063540D01*
X0079573Y0063540D01*
X0080922Y0064889D01*
X0080922Y0066796D01*
X0079573Y0068145D01*
X0077666Y0068145D01*
X0076317Y0066796D01*
X0075991Y0066965D02*
X0077339Y0068314D01*
X0077339Y0070221D01*
X0075991Y0071570D01*
X0074083Y0071570D01*
X0072735Y0070221D01*
X0072735Y0068314D01*
X0074083Y0066965D01*
X0075991Y0066965D01*
X0076675Y0067650D02*
X0077171Y0067650D01*
X0077339Y0068448D02*
X0086774Y0068448D01*
X0086514Y0067650D02*
X0080068Y0067650D01*
X0080867Y0066851D02*
X0086514Y0066851D01*
X0086514Y0066053D02*
X0080922Y0066053D01*
X0080922Y0065254D02*
X0087133Y0065254D01*
X0087863Y0063302D02*
X0086514Y0061954D01*
X0086514Y0060046D01*
X0087863Y0058698D01*
X0089770Y0058698D01*
X0090766Y0059694D01*
X0090766Y0059535D01*
X0092115Y0058186D01*
X0094022Y0058186D01*
X0095371Y0059535D01*
X0095371Y0061442D01*
X0094022Y0062791D01*
X0092115Y0062791D01*
X0091119Y0061795D01*
X0091119Y0061954D01*
X0089770Y0063302D01*
X0087863Y0063302D01*
X0087419Y0062859D02*
X0073417Y0062859D01*
X0072618Y0063657D02*
X0077549Y0063657D01*
X0076750Y0064456D02*
X0071820Y0064456D01*
X0071021Y0065254D02*
X0076317Y0065254D01*
X0076317Y0066053D02*
X0070223Y0066053D01*
X0068626Y0067650D02*
X0073399Y0067650D01*
X0072735Y0068448D02*
X0068419Y0068448D01*
X0069217Y0069247D02*
X0072735Y0069247D01*
X0072735Y0070045D02*
X0069465Y0070045D01*
X0069465Y0070844D02*
X0069811Y0070844D01*
X0072389Y0070844D02*
X0073357Y0070844D01*
X0073187Y0071642D02*
X0087542Y0071642D01*
X0086743Y0070844D02*
X0076717Y0070844D01*
X0077339Y0070045D02*
X0086514Y0070045D01*
X0086514Y0069247D02*
X0077339Y0069247D01*
X0076753Y0073239D02*
X0087695Y0073239D01*
X0087695Y0074038D02*
X0077339Y0074038D01*
X0077339Y0074836D02*
X0086527Y0074836D01*
X0085729Y0075635D02*
X0077339Y0075635D01*
X0076639Y0076433D02*
X0085727Y0076433D01*
X0090331Y0076433D02*
X0091545Y0076433D01*
X0090331Y0077232D02*
X0094388Y0077232D01*
X0094953Y0078031D02*
X0090442Y0078031D01*
X0091240Y0078829D02*
X0098547Y0078829D01*
X0098428Y0078031D02*
X0099034Y0078031D01*
X0099034Y0077232D02*
X0098993Y0077232D01*
X0098993Y0076433D02*
X0099034Y0076433D01*
X0099034Y0075635D02*
X0098993Y0075635D01*
X0099034Y0074836D02*
X0098271Y0074836D01*
X0099034Y0074038D02*
X0095450Y0074038D01*
X0094863Y0073239D02*
X0099034Y0073239D01*
X0099034Y0072441D02*
X0091624Y0072441D01*
X0090092Y0071642D02*
X0099034Y0071642D01*
X0099034Y0070844D02*
X0090890Y0070844D01*
X0091119Y0070045D02*
X0099034Y0070045D01*
X0099034Y0069247D02*
X0091119Y0069247D01*
X0090860Y0068448D02*
X0099034Y0068448D01*
X0099034Y0067650D02*
X0091119Y0067650D01*
X0091119Y0066851D02*
X0099034Y0066851D01*
X0099034Y0066053D02*
X0091119Y0066053D01*
X0090500Y0065254D02*
X0099034Y0065254D01*
X0099034Y0064456D02*
X0080489Y0064456D01*
X0079691Y0063657D02*
X0096879Y0063657D01*
X0096081Y0062859D02*
X0090214Y0062859D01*
X0091012Y0062060D02*
X0091385Y0062060D01*
X0090766Y0059665D02*
X0090737Y0059665D01*
X0091434Y0058866D02*
X0089939Y0058866D01*
X0087694Y0058866D02*
X0081543Y0058866D01*
X0080745Y0059665D02*
X0086896Y0059665D01*
X0086514Y0060463D02*
X0079946Y0060463D01*
X0082342Y0058068D02*
X0096959Y0058068D01*
X0096959Y0058866D02*
X0094703Y0058866D01*
X0095371Y0059665D02*
X0096959Y0059665D01*
X0096333Y0060463D02*
X0095371Y0060463D01*
X0095371Y0061262D02*
X0095963Y0061262D01*
X0095963Y0062060D02*
X0094752Y0062060D01*
X0096959Y0057269D02*
X0083140Y0057269D01*
X0083939Y0056471D02*
X0096959Y0056471D01*
X0096959Y0055672D02*
X0084737Y0055672D01*
X0086388Y0054874D02*
X0090418Y0054874D01*
X0090579Y0055035D02*
X0089231Y0053686D01*
X0089231Y0051779D01*
X0090579Y0050430D01*
X0092487Y0050430D01*
X0093835Y0051779D01*
X0093835Y0053686D01*
X0092487Y0055035D01*
X0090579Y0055035D01*
X0089620Y0054075D02*
X0087186Y0054075D01*
X0087576Y0053277D02*
X0089231Y0053277D01*
X0089231Y0052478D02*
X0087576Y0052478D01*
X0087477Y0051680D02*
X0089330Y0051680D01*
X0090128Y0050881D02*
X0086678Y0050881D01*
X0085607Y0050083D02*
X0096959Y0050083D01*
X0096959Y0050881D02*
X0092938Y0050881D01*
X0093736Y0051680D02*
X0096959Y0051680D01*
X0096959Y0052478D02*
X0093835Y0052478D01*
X0093835Y0053277D02*
X0096959Y0053277D01*
X0096959Y0054075D02*
X0093446Y0054075D01*
X0092648Y0054874D02*
X0096959Y0054874D01*
X0096959Y0049284D02*
X0085607Y0049284D01*
X0085306Y0048486D02*
X0096959Y0048486D01*
X0096959Y0047687D02*
X0085700Y0047687D01*
X0086499Y0046889D02*
X0096959Y0046889D01*
X0096959Y0046090D02*
X0086788Y0046090D01*
X0086788Y0045292D02*
X0096959Y0045292D01*
X0096959Y0044493D02*
X0086589Y0044493D01*
X0085791Y0043695D02*
X0096959Y0043695D01*
X0096959Y0042896D02*
X0071606Y0042896D01*
X0071540Y0042830D02*
X0071828Y0043117D01*
X0071828Y0045025D01*
X0070479Y0046373D01*
X0068572Y0046373D01*
X0067223Y0045025D01*
X0067223Y0043724D01*
X0066148Y0044798D01*
X0064241Y0044798D01*
X0063620Y0044177D01*
X0062959Y0044838D01*
X0061052Y0044838D01*
X0059703Y0043489D01*
X0059703Y0041582D01*
X0061052Y0040233D01*
X0062959Y0040233D01*
X0063580Y0040854D01*
X0064241Y0040194D01*
X0066148Y0040194D01*
X0067497Y0041542D01*
X0067497Y0042843D01*
X0068572Y0041769D01*
X0069479Y0041769D01*
X0069191Y0041481D01*
X0069191Y0039574D01*
X0070540Y0038225D01*
X0072447Y0038225D01*
X0073796Y0039574D01*
X0073796Y0041481D01*
X0072447Y0042830D01*
X0071540Y0042830D01*
X0071828Y0043695D02*
X0083181Y0043695D01*
X0082382Y0044493D02*
X0071828Y0044493D01*
X0071561Y0045292D02*
X0082183Y0045292D01*
X0082183Y0046090D02*
X0070762Y0046090D01*
X0068288Y0046090D02*
X0060312Y0046090D01*
X0060804Y0046582D02*
X0059455Y0045233D01*
X0058048Y0045233D01*
X0058048Y0043905D01*
X0056699Y0042556D01*
X0055686Y0042556D01*
X0055686Y0040755D01*
X0054337Y0039406D01*
X0052430Y0039406D01*
X0051081Y0040755D01*
X0051081Y0042662D01*
X0052430Y0044011D01*
X0053443Y0044011D01*
X0053443Y0045812D01*
X0054792Y0047161D01*
X0056199Y0047161D01*
X0056199Y0047674D01*
X0055973Y0047674D01*
X0054624Y0049023D01*
X0054624Y0050930D01*
X0055973Y0052279D01*
X0057880Y0052279D01*
X0058502Y0051658D01*
X0059123Y0052279D01*
X0061030Y0052279D01*
X0062379Y0050930D01*
X0062379Y0049023D01*
X0061030Y0047674D01*
X0060804Y0047674D01*
X0060804Y0046582D01*
X0060804Y0046889D02*
X0082473Y0046889D01*
X0082102Y0047687D02*
X0061043Y0047687D01*
X0061842Y0048486D02*
X0081303Y0048486D01*
X0081002Y0049284D02*
X0062379Y0049284D01*
X0062379Y0050083D02*
X0081002Y0050083D01*
X0081190Y0050881D02*
X0062379Y0050881D01*
X0061629Y0051680D02*
X0081988Y0051680D01*
X0082971Y0052478D02*
X0048511Y0052478D01*
X0048993Y0053277D02*
X0082325Y0053277D01*
X0081526Y0054075D02*
X0079754Y0054075D01*
X0080553Y0054874D02*
X0080728Y0054874D01*
X0077092Y0054075D02*
X0071368Y0054075D01*
X0072167Y0054874D02*
X0076293Y0054874D01*
X0076120Y0055672D02*
X0072615Y0055672D01*
X0072615Y0056471D02*
X0076120Y0056471D01*
X0076436Y0057269D02*
X0072575Y0057269D01*
X0069257Y0054075D02*
X0048993Y0054075D01*
X0047713Y0051680D02*
X0055374Y0051680D01*
X0054624Y0050881D02*
X0042091Y0050881D01*
X0042091Y0050083D02*
X0054624Y0050083D01*
X0054624Y0049284D02*
X0042091Y0049284D01*
X0042091Y0048486D02*
X0055162Y0048486D01*
X0055960Y0047687D02*
X0049698Y0047687D01*
X0050165Y0046889D02*
X0054520Y0046889D01*
X0053721Y0046090D02*
X0050165Y0046090D01*
X0050165Y0045292D02*
X0053443Y0045292D01*
X0053443Y0044493D02*
X0050165Y0044493D01*
X0050165Y0043695D02*
X0052113Y0043695D01*
X0051315Y0042896D02*
X0050165Y0042896D01*
X0050165Y0042098D02*
X0051081Y0042098D01*
X0051081Y0041299D02*
X0050165Y0041299D01*
X0050371Y0040500D02*
X0051336Y0040500D01*
X0052134Y0039702D02*
X0050371Y0039702D01*
X0050165Y0038903D02*
X0069862Y0038903D01*
X0069191Y0039702D02*
X0054633Y0039702D01*
X0055431Y0040500D02*
X0060784Y0040500D01*
X0059986Y0041299D02*
X0055686Y0041299D01*
X0055686Y0042098D02*
X0059703Y0042098D01*
X0059703Y0042896D02*
X0057039Y0042896D01*
X0057838Y0043695D02*
X0059909Y0043695D01*
X0060707Y0044493D02*
X0058048Y0044493D01*
X0059514Y0045292D02*
X0067490Y0045292D01*
X0067223Y0044493D02*
X0066454Y0044493D01*
X0063935Y0044493D02*
X0063304Y0044493D01*
X0063227Y0040500D02*
X0063934Y0040500D01*
X0066455Y0040500D02*
X0069191Y0040500D01*
X0069191Y0041299D02*
X0067253Y0041299D01*
X0067497Y0042098D02*
X0068243Y0042098D01*
X0073180Y0042098D02*
X0096959Y0042098D01*
X0096959Y0041299D02*
X0096419Y0041299D01*
X0093025Y0041299D02*
X0073796Y0041299D01*
X0073796Y0040500D02*
X0092420Y0040500D01*
X0092420Y0039702D02*
X0073796Y0039702D01*
X0073126Y0038903D02*
X0092420Y0038903D01*
X0093101Y0038105D02*
X0050165Y0038105D01*
X0050165Y0037306D02*
X0095569Y0037306D01*
X0096273Y0036508D02*
X0050165Y0036508D01*
X0050165Y0035709D02*
X0091845Y0035709D01*
X0091046Y0034911D02*
X0050165Y0034911D01*
X0050165Y0034112D02*
X0090530Y0034112D01*
X0093820Y0035709D02*
X0096959Y0035709D01*
X0096959Y0034911D02*
X0094618Y0034911D01*
X0095135Y0034112D02*
X0096959Y0034112D01*
X0086514Y0061262D02*
X0075014Y0061262D01*
X0074216Y0062060D02*
X0086621Y0062060D01*
X0088372Y0072441D02*
X0073402Y0072441D01*
X0072735Y0074836D02*
X0072331Y0074836D01*
X0072735Y0075635D02*
X0069465Y0075635D01*
X0069465Y0074836D02*
X0069869Y0074836D01*
X0068765Y0076433D02*
X0073435Y0076433D01*
X0086788Y0082023D02*
X0087922Y0082023D01*
X0086590Y0082822D02*
X0094554Y0082822D01*
X0095353Y0082023D02*
X0090498Y0082023D01*
X0091297Y0081225D02*
X0095808Y0081225D01*
X0096607Y0080426D02*
X0091513Y0080426D01*
X0091513Y0079628D02*
X0097748Y0079628D01*
X0058524Y0051680D02*
X0058480Y0051680D01*
X0045668Y0051680D02*
X0042091Y0051680D01*
X0042091Y0052478D02*
X0044870Y0052478D01*
X0044388Y0053277D02*
X0042091Y0053277D01*
X0042091Y0054075D02*
X0044388Y0054075D01*
X0044395Y0054874D02*
X0042091Y0054874D01*
X0042091Y0055672D02*
X0045193Y0055672D01*
D16*
X0054565Y0034622D02*
X0085273Y0034622D01*
X0054565Y0034622D02*
X0054565Y0024780D01*
M02*
