G75*
%MOIN*%
%OFA0B0*%
%FSLAX25Y25*%
%IPPOS*%
%LPD*%
%AMOC8*
5,1,8,0,0,1.08239X$1,22.5*
%
%ADD10C,0.00000*%
%ADD11C,0.00344*%
%ADD12R,0.21260X0.21260*%
%ADD13R,0.02362X0.02756*%
%ADD14R,0.03937X0.06693*%
%ADD15R,0.02756X0.02362*%
%ADD16C,0.07400*%
%ADD17R,0.02756X0.03543*%
%ADD18R,0.10630X0.10630*%
%ADD19R,0.04724X0.03150*%
%ADD20R,0.03150X0.04724*%
%ADD21R,0.02323X0.05709*%
%ADD22R,0.02480X0.03268*%
%ADD23C,0.00600*%
%ADD24OC8,0.02205*%
%ADD25C,0.01000*%
%ADD26C,0.01969*%
%ADD27C,0.01200*%
%ADD28C,0.01600*%
%ADD29C,0.00800*%
D10*
X0029368Y0008145D02*
X0029368Y0086885D01*
X0100234Y0086885D01*
X0100234Y0008145D01*
X0029368Y0008145D01*
X0031375Y0010743D02*
X0031377Y0010791D01*
X0031383Y0010839D01*
X0031393Y0010886D01*
X0031406Y0010932D01*
X0031424Y0010977D01*
X0031444Y0011021D01*
X0031469Y0011063D01*
X0031497Y0011102D01*
X0031527Y0011139D01*
X0031561Y0011173D01*
X0031598Y0011205D01*
X0031636Y0011234D01*
X0031677Y0011259D01*
X0031720Y0011281D01*
X0031765Y0011299D01*
X0031811Y0011313D01*
X0031858Y0011324D01*
X0031906Y0011331D01*
X0031954Y0011334D01*
X0032002Y0011333D01*
X0032050Y0011328D01*
X0032098Y0011319D01*
X0032144Y0011307D01*
X0032189Y0011290D01*
X0032233Y0011270D01*
X0032275Y0011247D01*
X0032315Y0011220D01*
X0032353Y0011190D01*
X0032388Y0011157D01*
X0032420Y0011121D01*
X0032450Y0011083D01*
X0032476Y0011042D01*
X0032498Y0010999D01*
X0032518Y0010955D01*
X0032533Y0010910D01*
X0032545Y0010863D01*
X0032553Y0010815D01*
X0032557Y0010767D01*
X0032557Y0010719D01*
X0032553Y0010671D01*
X0032545Y0010623D01*
X0032533Y0010576D01*
X0032518Y0010531D01*
X0032498Y0010487D01*
X0032476Y0010444D01*
X0032450Y0010403D01*
X0032420Y0010365D01*
X0032388Y0010329D01*
X0032353Y0010296D01*
X0032315Y0010266D01*
X0032275Y0010239D01*
X0032233Y0010216D01*
X0032189Y0010196D01*
X0032144Y0010179D01*
X0032098Y0010167D01*
X0032050Y0010158D01*
X0032002Y0010153D01*
X0031954Y0010152D01*
X0031906Y0010155D01*
X0031858Y0010162D01*
X0031811Y0010173D01*
X0031765Y0010187D01*
X0031720Y0010205D01*
X0031677Y0010227D01*
X0031636Y0010252D01*
X0031598Y0010281D01*
X0031561Y0010313D01*
X0031527Y0010347D01*
X0031497Y0010384D01*
X0031469Y0010423D01*
X0031444Y0010465D01*
X0031424Y0010509D01*
X0031406Y0010554D01*
X0031393Y0010600D01*
X0031383Y0010647D01*
X0031377Y0010695D01*
X0031375Y0010743D01*
X0038777Y0010743D02*
X0038779Y0010791D01*
X0038785Y0010839D01*
X0038795Y0010886D01*
X0038808Y0010932D01*
X0038826Y0010977D01*
X0038846Y0011021D01*
X0038871Y0011063D01*
X0038899Y0011102D01*
X0038929Y0011139D01*
X0038963Y0011173D01*
X0039000Y0011205D01*
X0039038Y0011234D01*
X0039079Y0011259D01*
X0039122Y0011281D01*
X0039167Y0011299D01*
X0039213Y0011313D01*
X0039260Y0011324D01*
X0039308Y0011331D01*
X0039356Y0011334D01*
X0039404Y0011333D01*
X0039452Y0011328D01*
X0039500Y0011319D01*
X0039546Y0011307D01*
X0039591Y0011290D01*
X0039635Y0011270D01*
X0039677Y0011247D01*
X0039717Y0011220D01*
X0039755Y0011190D01*
X0039790Y0011157D01*
X0039822Y0011121D01*
X0039852Y0011083D01*
X0039878Y0011042D01*
X0039900Y0010999D01*
X0039920Y0010955D01*
X0039935Y0010910D01*
X0039947Y0010863D01*
X0039955Y0010815D01*
X0039959Y0010767D01*
X0039959Y0010719D01*
X0039955Y0010671D01*
X0039947Y0010623D01*
X0039935Y0010576D01*
X0039920Y0010531D01*
X0039900Y0010487D01*
X0039878Y0010444D01*
X0039852Y0010403D01*
X0039822Y0010365D01*
X0039790Y0010329D01*
X0039755Y0010296D01*
X0039717Y0010266D01*
X0039677Y0010239D01*
X0039635Y0010216D01*
X0039591Y0010196D01*
X0039546Y0010179D01*
X0039500Y0010167D01*
X0039452Y0010158D01*
X0039404Y0010153D01*
X0039356Y0010152D01*
X0039308Y0010155D01*
X0039260Y0010162D01*
X0039213Y0010173D01*
X0039167Y0010187D01*
X0039122Y0010205D01*
X0039079Y0010227D01*
X0039038Y0010252D01*
X0039000Y0010281D01*
X0038963Y0010313D01*
X0038929Y0010347D01*
X0038899Y0010384D01*
X0038871Y0010423D01*
X0038846Y0010465D01*
X0038826Y0010509D01*
X0038808Y0010554D01*
X0038795Y0010600D01*
X0038785Y0010647D01*
X0038779Y0010695D01*
X0038777Y0010743D01*
X0038777Y0018145D02*
X0038779Y0018193D01*
X0038785Y0018241D01*
X0038795Y0018288D01*
X0038808Y0018334D01*
X0038826Y0018379D01*
X0038846Y0018423D01*
X0038871Y0018465D01*
X0038899Y0018504D01*
X0038929Y0018541D01*
X0038963Y0018575D01*
X0039000Y0018607D01*
X0039038Y0018636D01*
X0039079Y0018661D01*
X0039122Y0018683D01*
X0039167Y0018701D01*
X0039213Y0018715D01*
X0039260Y0018726D01*
X0039308Y0018733D01*
X0039356Y0018736D01*
X0039404Y0018735D01*
X0039452Y0018730D01*
X0039500Y0018721D01*
X0039546Y0018709D01*
X0039591Y0018692D01*
X0039635Y0018672D01*
X0039677Y0018649D01*
X0039717Y0018622D01*
X0039755Y0018592D01*
X0039790Y0018559D01*
X0039822Y0018523D01*
X0039852Y0018485D01*
X0039878Y0018444D01*
X0039900Y0018401D01*
X0039920Y0018357D01*
X0039935Y0018312D01*
X0039947Y0018265D01*
X0039955Y0018217D01*
X0039959Y0018169D01*
X0039959Y0018121D01*
X0039955Y0018073D01*
X0039947Y0018025D01*
X0039935Y0017978D01*
X0039920Y0017933D01*
X0039900Y0017889D01*
X0039878Y0017846D01*
X0039852Y0017805D01*
X0039822Y0017767D01*
X0039790Y0017731D01*
X0039755Y0017698D01*
X0039717Y0017668D01*
X0039677Y0017641D01*
X0039635Y0017618D01*
X0039591Y0017598D01*
X0039546Y0017581D01*
X0039500Y0017569D01*
X0039452Y0017560D01*
X0039404Y0017555D01*
X0039356Y0017554D01*
X0039308Y0017557D01*
X0039260Y0017564D01*
X0039213Y0017575D01*
X0039167Y0017589D01*
X0039122Y0017607D01*
X0039079Y0017629D01*
X0039038Y0017654D01*
X0039000Y0017683D01*
X0038963Y0017715D01*
X0038929Y0017749D01*
X0038899Y0017786D01*
X0038871Y0017825D01*
X0038846Y0017867D01*
X0038826Y0017911D01*
X0038808Y0017956D01*
X0038795Y0018002D01*
X0038785Y0018049D01*
X0038779Y0018097D01*
X0038777Y0018145D01*
X0031375Y0018145D02*
X0031377Y0018193D01*
X0031383Y0018241D01*
X0031393Y0018288D01*
X0031406Y0018334D01*
X0031424Y0018379D01*
X0031444Y0018423D01*
X0031469Y0018465D01*
X0031497Y0018504D01*
X0031527Y0018541D01*
X0031561Y0018575D01*
X0031598Y0018607D01*
X0031636Y0018636D01*
X0031677Y0018661D01*
X0031720Y0018683D01*
X0031765Y0018701D01*
X0031811Y0018715D01*
X0031858Y0018726D01*
X0031906Y0018733D01*
X0031954Y0018736D01*
X0032002Y0018735D01*
X0032050Y0018730D01*
X0032098Y0018721D01*
X0032144Y0018709D01*
X0032189Y0018692D01*
X0032233Y0018672D01*
X0032275Y0018649D01*
X0032315Y0018622D01*
X0032353Y0018592D01*
X0032388Y0018559D01*
X0032420Y0018523D01*
X0032450Y0018485D01*
X0032476Y0018444D01*
X0032498Y0018401D01*
X0032518Y0018357D01*
X0032533Y0018312D01*
X0032545Y0018265D01*
X0032553Y0018217D01*
X0032557Y0018169D01*
X0032557Y0018121D01*
X0032553Y0018073D01*
X0032545Y0018025D01*
X0032533Y0017978D01*
X0032518Y0017933D01*
X0032498Y0017889D01*
X0032476Y0017846D01*
X0032450Y0017805D01*
X0032420Y0017767D01*
X0032388Y0017731D01*
X0032353Y0017698D01*
X0032315Y0017668D01*
X0032275Y0017641D01*
X0032233Y0017618D01*
X0032189Y0017598D01*
X0032144Y0017581D01*
X0032098Y0017569D01*
X0032050Y0017560D01*
X0032002Y0017555D01*
X0031954Y0017554D01*
X0031906Y0017557D01*
X0031858Y0017564D01*
X0031811Y0017575D01*
X0031765Y0017589D01*
X0031720Y0017607D01*
X0031677Y0017629D01*
X0031636Y0017654D01*
X0031598Y0017683D01*
X0031561Y0017715D01*
X0031527Y0017749D01*
X0031497Y0017786D01*
X0031469Y0017825D01*
X0031444Y0017867D01*
X0031424Y0017911D01*
X0031406Y0017956D01*
X0031393Y0018002D01*
X0031383Y0018049D01*
X0031377Y0018097D01*
X0031375Y0018145D01*
X0089643Y0018145D02*
X0089645Y0018193D01*
X0089651Y0018241D01*
X0089661Y0018288D01*
X0089674Y0018334D01*
X0089692Y0018379D01*
X0089712Y0018423D01*
X0089737Y0018465D01*
X0089765Y0018504D01*
X0089795Y0018541D01*
X0089829Y0018575D01*
X0089866Y0018607D01*
X0089904Y0018636D01*
X0089945Y0018661D01*
X0089988Y0018683D01*
X0090033Y0018701D01*
X0090079Y0018715D01*
X0090126Y0018726D01*
X0090174Y0018733D01*
X0090222Y0018736D01*
X0090270Y0018735D01*
X0090318Y0018730D01*
X0090366Y0018721D01*
X0090412Y0018709D01*
X0090457Y0018692D01*
X0090501Y0018672D01*
X0090543Y0018649D01*
X0090583Y0018622D01*
X0090621Y0018592D01*
X0090656Y0018559D01*
X0090688Y0018523D01*
X0090718Y0018485D01*
X0090744Y0018444D01*
X0090766Y0018401D01*
X0090786Y0018357D01*
X0090801Y0018312D01*
X0090813Y0018265D01*
X0090821Y0018217D01*
X0090825Y0018169D01*
X0090825Y0018121D01*
X0090821Y0018073D01*
X0090813Y0018025D01*
X0090801Y0017978D01*
X0090786Y0017933D01*
X0090766Y0017889D01*
X0090744Y0017846D01*
X0090718Y0017805D01*
X0090688Y0017767D01*
X0090656Y0017731D01*
X0090621Y0017698D01*
X0090583Y0017668D01*
X0090543Y0017641D01*
X0090501Y0017618D01*
X0090457Y0017598D01*
X0090412Y0017581D01*
X0090366Y0017569D01*
X0090318Y0017560D01*
X0090270Y0017555D01*
X0090222Y0017554D01*
X0090174Y0017557D01*
X0090126Y0017564D01*
X0090079Y0017575D01*
X0090033Y0017589D01*
X0089988Y0017607D01*
X0089945Y0017629D01*
X0089904Y0017654D01*
X0089866Y0017683D01*
X0089829Y0017715D01*
X0089795Y0017749D01*
X0089765Y0017786D01*
X0089737Y0017825D01*
X0089712Y0017867D01*
X0089692Y0017911D01*
X0089674Y0017956D01*
X0089661Y0018002D01*
X0089651Y0018049D01*
X0089645Y0018097D01*
X0089643Y0018145D01*
X0097044Y0018145D02*
X0097046Y0018193D01*
X0097052Y0018241D01*
X0097062Y0018288D01*
X0097075Y0018334D01*
X0097093Y0018379D01*
X0097113Y0018423D01*
X0097138Y0018465D01*
X0097166Y0018504D01*
X0097196Y0018541D01*
X0097230Y0018575D01*
X0097267Y0018607D01*
X0097305Y0018636D01*
X0097346Y0018661D01*
X0097389Y0018683D01*
X0097434Y0018701D01*
X0097480Y0018715D01*
X0097527Y0018726D01*
X0097575Y0018733D01*
X0097623Y0018736D01*
X0097671Y0018735D01*
X0097719Y0018730D01*
X0097767Y0018721D01*
X0097813Y0018709D01*
X0097858Y0018692D01*
X0097902Y0018672D01*
X0097944Y0018649D01*
X0097984Y0018622D01*
X0098022Y0018592D01*
X0098057Y0018559D01*
X0098089Y0018523D01*
X0098119Y0018485D01*
X0098145Y0018444D01*
X0098167Y0018401D01*
X0098187Y0018357D01*
X0098202Y0018312D01*
X0098214Y0018265D01*
X0098222Y0018217D01*
X0098226Y0018169D01*
X0098226Y0018121D01*
X0098222Y0018073D01*
X0098214Y0018025D01*
X0098202Y0017978D01*
X0098187Y0017933D01*
X0098167Y0017889D01*
X0098145Y0017846D01*
X0098119Y0017805D01*
X0098089Y0017767D01*
X0098057Y0017731D01*
X0098022Y0017698D01*
X0097984Y0017668D01*
X0097944Y0017641D01*
X0097902Y0017618D01*
X0097858Y0017598D01*
X0097813Y0017581D01*
X0097767Y0017569D01*
X0097719Y0017560D01*
X0097671Y0017555D01*
X0097623Y0017554D01*
X0097575Y0017557D01*
X0097527Y0017564D01*
X0097480Y0017575D01*
X0097434Y0017589D01*
X0097389Y0017607D01*
X0097346Y0017629D01*
X0097305Y0017654D01*
X0097267Y0017683D01*
X0097230Y0017715D01*
X0097196Y0017749D01*
X0097166Y0017786D01*
X0097138Y0017825D01*
X0097113Y0017867D01*
X0097093Y0017911D01*
X0097075Y0017956D01*
X0097062Y0018002D01*
X0097052Y0018049D01*
X0097046Y0018097D01*
X0097044Y0018145D01*
X0097044Y0010743D02*
X0097046Y0010791D01*
X0097052Y0010839D01*
X0097062Y0010886D01*
X0097075Y0010932D01*
X0097093Y0010977D01*
X0097113Y0011021D01*
X0097138Y0011063D01*
X0097166Y0011102D01*
X0097196Y0011139D01*
X0097230Y0011173D01*
X0097267Y0011205D01*
X0097305Y0011234D01*
X0097346Y0011259D01*
X0097389Y0011281D01*
X0097434Y0011299D01*
X0097480Y0011313D01*
X0097527Y0011324D01*
X0097575Y0011331D01*
X0097623Y0011334D01*
X0097671Y0011333D01*
X0097719Y0011328D01*
X0097767Y0011319D01*
X0097813Y0011307D01*
X0097858Y0011290D01*
X0097902Y0011270D01*
X0097944Y0011247D01*
X0097984Y0011220D01*
X0098022Y0011190D01*
X0098057Y0011157D01*
X0098089Y0011121D01*
X0098119Y0011083D01*
X0098145Y0011042D01*
X0098167Y0010999D01*
X0098187Y0010955D01*
X0098202Y0010910D01*
X0098214Y0010863D01*
X0098222Y0010815D01*
X0098226Y0010767D01*
X0098226Y0010719D01*
X0098222Y0010671D01*
X0098214Y0010623D01*
X0098202Y0010576D01*
X0098187Y0010531D01*
X0098167Y0010487D01*
X0098145Y0010444D01*
X0098119Y0010403D01*
X0098089Y0010365D01*
X0098057Y0010329D01*
X0098022Y0010296D01*
X0097984Y0010266D01*
X0097944Y0010239D01*
X0097902Y0010216D01*
X0097858Y0010196D01*
X0097813Y0010179D01*
X0097767Y0010167D01*
X0097719Y0010158D01*
X0097671Y0010153D01*
X0097623Y0010152D01*
X0097575Y0010155D01*
X0097527Y0010162D01*
X0097480Y0010173D01*
X0097434Y0010187D01*
X0097389Y0010205D01*
X0097346Y0010227D01*
X0097305Y0010252D01*
X0097267Y0010281D01*
X0097230Y0010313D01*
X0097196Y0010347D01*
X0097166Y0010384D01*
X0097138Y0010423D01*
X0097113Y0010465D01*
X0097093Y0010509D01*
X0097075Y0010554D01*
X0097062Y0010600D01*
X0097052Y0010647D01*
X0097046Y0010695D01*
X0097044Y0010743D01*
X0089643Y0010743D02*
X0089645Y0010791D01*
X0089651Y0010839D01*
X0089661Y0010886D01*
X0089674Y0010932D01*
X0089692Y0010977D01*
X0089712Y0011021D01*
X0089737Y0011063D01*
X0089765Y0011102D01*
X0089795Y0011139D01*
X0089829Y0011173D01*
X0089866Y0011205D01*
X0089904Y0011234D01*
X0089945Y0011259D01*
X0089988Y0011281D01*
X0090033Y0011299D01*
X0090079Y0011313D01*
X0090126Y0011324D01*
X0090174Y0011331D01*
X0090222Y0011334D01*
X0090270Y0011333D01*
X0090318Y0011328D01*
X0090366Y0011319D01*
X0090412Y0011307D01*
X0090457Y0011290D01*
X0090501Y0011270D01*
X0090543Y0011247D01*
X0090583Y0011220D01*
X0090621Y0011190D01*
X0090656Y0011157D01*
X0090688Y0011121D01*
X0090718Y0011083D01*
X0090744Y0011042D01*
X0090766Y0010999D01*
X0090786Y0010955D01*
X0090801Y0010910D01*
X0090813Y0010863D01*
X0090821Y0010815D01*
X0090825Y0010767D01*
X0090825Y0010719D01*
X0090821Y0010671D01*
X0090813Y0010623D01*
X0090801Y0010576D01*
X0090786Y0010531D01*
X0090766Y0010487D01*
X0090744Y0010444D01*
X0090718Y0010403D01*
X0090688Y0010365D01*
X0090656Y0010329D01*
X0090621Y0010296D01*
X0090583Y0010266D01*
X0090543Y0010239D01*
X0090501Y0010216D01*
X0090457Y0010196D01*
X0090412Y0010179D01*
X0090366Y0010167D01*
X0090318Y0010158D01*
X0090270Y0010153D01*
X0090222Y0010152D01*
X0090174Y0010155D01*
X0090126Y0010162D01*
X0090079Y0010173D01*
X0090033Y0010187D01*
X0089988Y0010205D01*
X0089945Y0010227D01*
X0089904Y0010252D01*
X0089866Y0010281D01*
X0089829Y0010313D01*
X0089795Y0010347D01*
X0089765Y0010384D01*
X0089737Y0010423D01*
X0089712Y0010465D01*
X0089692Y0010509D01*
X0089674Y0010554D01*
X0089661Y0010600D01*
X0089651Y0010647D01*
X0089645Y0010695D01*
X0089643Y0010743D01*
D11*
X0079441Y0045758D02*
X0079441Y0047186D01*
X0080475Y0047186D01*
X0080475Y0045758D01*
X0079441Y0045758D01*
X0079441Y0046101D02*
X0080475Y0046101D01*
X0080475Y0046444D02*
X0079441Y0046444D01*
X0079441Y0046787D02*
X0080475Y0046787D01*
X0080475Y0047130D02*
X0079441Y0047130D01*
X0077473Y0047186D02*
X0077473Y0045758D01*
X0077473Y0047186D02*
X0078507Y0047186D01*
X0078507Y0045758D01*
X0077473Y0045758D01*
X0077473Y0046101D02*
X0078507Y0046101D01*
X0078507Y0046444D02*
X0077473Y0046444D01*
X0077473Y0046787D02*
X0078507Y0046787D01*
X0078507Y0047130D02*
X0077473Y0047130D01*
X0075504Y0047186D02*
X0075504Y0045758D01*
X0075504Y0047186D02*
X0076538Y0047186D01*
X0076538Y0045758D01*
X0075504Y0045758D01*
X0075504Y0046101D02*
X0076538Y0046101D01*
X0076538Y0046444D02*
X0075504Y0046444D01*
X0075504Y0046787D02*
X0076538Y0046787D01*
X0076538Y0047130D02*
X0075504Y0047130D01*
X0073536Y0047186D02*
X0073536Y0045758D01*
X0073536Y0047186D02*
X0074570Y0047186D01*
X0074570Y0045758D01*
X0073536Y0045758D01*
X0073536Y0046101D02*
X0074570Y0046101D01*
X0074570Y0046444D02*
X0073536Y0046444D01*
X0073536Y0046787D02*
X0074570Y0046787D01*
X0074570Y0047130D02*
X0073536Y0047130D01*
X0071567Y0047186D02*
X0071567Y0045758D01*
X0071567Y0047186D02*
X0072601Y0047186D01*
X0072601Y0045758D01*
X0071567Y0045758D01*
X0071567Y0046101D02*
X0072601Y0046101D01*
X0072601Y0046444D02*
X0071567Y0046444D01*
X0071567Y0046787D02*
X0072601Y0046787D01*
X0072601Y0047130D02*
X0071567Y0047130D01*
X0069599Y0047186D02*
X0069599Y0045758D01*
X0069599Y0047186D02*
X0070633Y0047186D01*
X0070633Y0045758D01*
X0069599Y0045758D01*
X0069599Y0046101D02*
X0070633Y0046101D01*
X0070633Y0046444D02*
X0069599Y0046444D01*
X0069599Y0046787D02*
X0070633Y0046787D01*
X0070633Y0047130D02*
X0069599Y0047130D01*
X0067630Y0047186D02*
X0067630Y0045758D01*
X0067630Y0047186D02*
X0068664Y0047186D01*
X0068664Y0045758D01*
X0067630Y0045758D01*
X0067630Y0046101D02*
X0068664Y0046101D01*
X0068664Y0046444D02*
X0067630Y0046444D01*
X0067630Y0046787D02*
X0068664Y0046787D01*
X0068664Y0047130D02*
X0067630Y0047130D01*
X0065662Y0047186D02*
X0065662Y0045758D01*
X0065662Y0047186D02*
X0066696Y0047186D01*
X0066696Y0045758D01*
X0065662Y0045758D01*
X0065662Y0046101D02*
X0066696Y0046101D01*
X0066696Y0046444D02*
X0065662Y0046444D01*
X0065662Y0046787D02*
X0066696Y0046787D01*
X0066696Y0047130D02*
X0065662Y0047130D01*
X0063693Y0047186D02*
X0063693Y0045758D01*
X0063693Y0047186D02*
X0064727Y0047186D01*
X0064727Y0045758D01*
X0063693Y0045758D01*
X0063693Y0046101D02*
X0064727Y0046101D01*
X0064727Y0046444D02*
X0063693Y0046444D01*
X0063693Y0046787D02*
X0064727Y0046787D01*
X0064727Y0047130D02*
X0063693Y0047130D01*
X0061725Y0047186D02*
X0061725Y0045758D01*
X0061725Y0047186D02*
X0062759Y0047186D01*
X0062759Y0045758D01*
X0061725Y0045758D01*
X0061725Y0046101D02*
X0062759Y0046101D01*
X0062759Y0046444D02*
X0061725Y0046444D01*
X0061725Y0046787D02*
X0062759Y0046787D01*
X0062759Y0047130D02*
X0061725Y0047130D01*
X0059756Y0047186D02*
X0059756Y0045758D01*
X0059756Y0047186D02*
X0060790Y0047186D01*
X0060790Y0045758D01*
X0059756Y0045758D01*
X0059756Y0046101D02*
X0060790Y0046101D01*
X0060790Y0046444D02*
X0059756Y0046444D01*
X0059756Y0046787D02*
X0060790Y0046787D01*
X0060790Y0047130D02*
X0059756Y0047130D01*
X0057788Y0047186D02*
X0057788Y0045758D01*
X0057788Y0047186D02*
X0058822Y0047186D01*
X0058822Y0045758D01*
X0057788Y0045758D01*
X0057788Y0046101D02*
X0058822Y0046101D01*
X0058822Y0046444D02*
X0057788Y0046444D01*
X0057788Y0046787D02*
X0058822Y0046787D01*
X0058822Y0047130D02*
X0057788Y0047130D01*
X0056991Y0049016D02*
X0055563Y0049016D01*
X0056991Y0049016D02*
X0056991Y0047982D01*
X0055563Y0047982D01*
X0055563Y0049016D01*
X0055563Y0048325D02*
X0056991Y0048325D01*
X0056991Y0048668D02*
X0055563Y0048668D01*
X0055563Y0049011D02*
X0056991Y0049011D01*
X0056991Y0050985D02*
X0055563Y0050985D01*
X0056991Y0050985D02*
X0056991Y0049951D01*
X0055563Y0049951D01*
X0055563Y0050985D01*
X0055563Y0050294D02*
X0056991Y0050294D01*
X0056991Y0050637D02*
X0055563Y0050637D01*
X0055563Y0050980D02*
X0056991Y0050980D01*
X0056991Y0052953D02*
X0055563Y0052953D01*
X0056991Y0052953D02*
X0056991Y0051919D01*
X0055563Y0051919D01*
X0055563Y0052953D01*
X0055563Y0052262D02*
X0056991Y0052262D01*
X0056991Y0052605D02*
X0055563Y0052605D01*
X0055563Y0052948D02*
X0056991Y0052948D01*
X0056991Y0054922D02*
X0055563Y0054922D01*
X0056991Y0054922D02*
X0056991Y0053888D01*
X0055563Y0053888D01*
X0055563Y0054922D01*
X0055563Y0054231D02*
X0056991Y0054231D01*
X0056991Y0054574D02*
X0055563Y0054574D01*
X0055563Y0054917D02*
X0056991Y0054917D01*
X0056991Y0056890D02*
X0055563Y0056890D01*
X0056991Y0056890D02*
X0056991Y0055856D01*
X0055563Y0055856D01*
X0055563Y0056890D01*
X0055563Y0056199D02*
X0056991Y0056199D01*
X0056991Y0056542D02*
X0055563Y0056542D01*
X0055563Y0056885D02*
X0056991Y0056885D01*
X0056991Y0058859D02*
X0055563Y0058859D01*
X0056991Y0058859D02*
X0056991Y0057825D01*
X0055563Y0057825D01*
X0055563Y0058859D01*
X0055563Y0058168D02*
X0056991Y0058168D01*
X0056991Y0058511D02*
X0055563Y0058511D01*
X0055563Y0058854D02*
X0056991Y0058854D01*
X0056991Y0060827D02*
X0055563Y0060827D01*
X0056991Y0060827D02*
X0056991Y0059793D01*
X0055563Y0059793D01*
X0055563Y0060827D01*
X0055563Y0060136D02*
X0056991Y0060136D01*
X0056991Y0060479D02*
X0055563Y0060479D01*
X0055563Y0060822D02*
X0056991Y0060822D01*
X0056991Y0062796D02*
X0055563Y0062796D01*
X0056991Y0062796D02*
X0056991Y0061762D01*
X0055563Y0061762D01*
X0055563Y0062796D01*
X0055563Y0062105D02*
X0056991Y0062105D01*
X0056991Y0062448D02*
X0055563Y0062448D01*
X0055563Y0062791D02*
X0056991Y0062791D01*
X0056991Y0064764D02*
X0055563Y0064764D01*
X0056991Y0064764D02*
X0056991Y0063730D01*
X0055563Y0063730D01*
X0055563Y0064764D01*
X0055563Y0064073D02*
X0056991Y0064073D01*
X0056991Y0064416D02*
X0055563Y0064416D01*
X0055563Y0064759D02*
X0056991Y0064759D01*
X0056991Y0066733D02*
X0055563Y0066733D01*
X0056991Y0066733D02*
X0056991Y0065699D01*
X0055563Y0065699D01*
X0055563Y0066733D01*
X0055563Y0066042D02*
X0056991Y0066042D01*
X0056991Y0066385D02*
X0055563Y0066385D01*
X0055563Y0066728D02*
X0056991Y0066728D01*
X0056991Y0068701D02*
X0055563Y0068701D01*
X0056991Y0068701D02*
X0056991Y0067667D01*
X0055563Y0067667D01*
X0055563Y0068701D01*
X0055563Y0068010D02*
X0056991Y0068010D01*
X0056991Y0068353D02*
X0055563Y0068353D01*
X0055563Y0068696D02*
X0056991Y0068696D01*
X0056991Y0070670D02*
X0055563Y0070670D01*
X0056991Y0070670D02*
X0056991Y0069636D01*
X0055563Y0069636D01*
X0055563Y0070670D01*
X0055563Y0069979D02*
X0056991Y0069979D01*
X0056991Y0070322D02*
X0055563Y0070322D01*
X0055563Y0070665D02*
X0056991Y0070665D01*
X0058822Y0071466D02*
X0058822Y0072894D01*
X0058822Y0071466D02*
X0057788Y0071466D01*
X0057788Y0072894D01*
X0058822Y0072894D01*
X0058822Y0071809D02*
X0057788Y0071809D01*
X0057788Y0072152D02*
X0058822Y0072152D01*
X0058822Y0072495D02*
X0057788Y0072495D01*
X0057788Y0072838D02*
X0058822Y0072838D01*
X0060790Y0072894D02*
X0060790Y0071466D01*
X0059756Y0071466D01*
X0059756Y0072894D01*
X0060790Y0072894D01*
X0060790Y0071809D02*
X0059756Y0071809D01*
X0059756Y0072152D02*
X0060790Y0072152D01*
X0060790Y0072495D02*
X0059756Y0072495D01*
X0059756Y0072838D02*
X0060790Y0072838D01*
X0062759Y0072894D02*
X0062759Y0071466D01*
X0061725Y0071466D01*
X0061725Y0072894D01*
X0062759Y0072894D01*
X0062759Y0071809D02*
X0061725Y0071809D01*
X0061725Y0072152D02*
X0062759Y0072152D01*
X0062759Y0072495D02*
X0061725Y0072495D01*
X0061725Y0072838D02*
X0062759Y0072838D01*
X0064727Y0072894D02*
X0064727Y0071466D01*
X0063693Y0071466D01*
X0063693Y0072894D01*
X0064727Y0072894D01*
X0064727Y0071809D02*
X0063693Y0071809D01*
X0063693Y0072152D02*
X0064727Y0072152D01*
X0064727Y0072495D02*
X0063693Y0072495D01*
X0063693Y0072838D02*
X0064727Y0072838D01*
X0066696Y0072894D02*
X0066696Y0071466D01*
X0065662Y0071466D01*
X0065662Y0072894D01*
X0066696Y0072894D01*
X0066696Y0071809D02*
X0065662Y0071809D01*
X0065662Y0072152D02*
X0066696Y0072152D01*
X0066696Y0072495D02*
X0065662Y0072495D01*
X0065662Y0072838D02*
X0066696Y0072838D01*
X0068664Y0072894D02*
X0068664Y0071466D01*
X0067630Y0071466D01*
X0067630Y0072894D01*
X0068664Y0072894D01*
X0068664Y0071809D02*
X0067630Y0071809D01*
X0067630Y0072152D02*
X0068664Y0072152D01*
X0068664Y0072495D02*
X0067630Y0072495D01*
X0067630Y0072838D02*
X0068664Y0072838D01*
X0070633Y0072894D02*
X0070633Y0071466D01*
X0069599Y0071466D01*
X0069599Y0072894D01*
X0070633Y0072894D01*
X0070633Y0071809D02*
X0069599Y0071809D01*
X0069599Y0072152D02*
X0070633Y0072152D01*
X0070633Y0072495D02*
X0069599Y0072495D01*
X0069599Y0072838D02*
X0070633Y0072838D01*
X0072601Y0072894D02*
X0072601Y0071466D01*
X0071567Y0071466D01*
X0071567Y0072894D01*
X0072601Y0072894D01*
X0072601Y0071809D02*
X0071567Y0071809D01*
X0071567Y0072152D02*
X0072601Y0072152D01*
X0072601Y0072495D02*
X0071567Y0072495D01*
X0071567Y0072838D02*
X0072601Y0072838D01*
X0074570Y0072894D02*
X0074570Y0071466D01*
X0073536Y0071466D01*
X0073536Y0072894D01*
X0074570Y0072894D01*
X0074570Y0071809D02*
X0073536Y0071809D01*
X0073536Y0072152D02*
X0074570Y0072152D01*
X0074570Y0072495D02*
X0073536Y0072495D01*
X0073536Y0072838D02*
X0074570Y0072838D01*
X0076538Y0072894D02*
X0076538Y0071466D01*
X0075504Y0071466D01*
X0075504Y0072894D01*
X0076538Y0072894D01*
X0076538Y0071809D02*
X0075504Y0071809D01*
X0075504Y0072152D02*
X0076538Y0072152D01*
X0076538Y0072495D02*
X0075504Y0072495D01*
X0075504Y0072838D02*
X0076538Y0072838D01*
X0078507Y0072894D02*
X0078507Y0071466D01*
X0077473Y0071466D01*
X0077473Y0072894D01*
X0078507Y0072894D01*
X0078507Y0071809D02*
X0077473Y0071809D01*
X0077473Y0072152D02*
X0078507Y0072152D01*
X0078507Y0072495D02*
X0077473Y0072495D01*
X0077473Y0072838D02*
X0078507Y0072838D01*
X0080475Y0072894D02*
X0080475Y0071466D01*
X0079441Y0071466D01*
X0079441Y0072894D01*
X0080475Y0072894D01*
X0080475Y0071809D02*
X0079441Y0071809D01*
X0079441Y0072152D02*
X0080475Y0072152D01*
X0080475Y0072495D02*
X0079441Y0072495D01*
X0079441Y0072838D02*
X0080475Y0072838D01*
X0081272Y0069636D02*
X0082700Y0069636D01*
X0081272Y0069636D02*
X0081272Y0070670D01*
X0082700Y0070670D01*
X0082700Y0069636D01*
X0082700Y0069979D02*
X0081272Y0069979D01*
X0081272Y0070322D02*
X0082700Y0070322D01*
X0082700Y0070665D02*
X0081272Y0070665D01*
X0081272Y0067667D02*
X0082700Y0067667D01*
X0081272Y0067667D02*
X0081272Y0068701D01*
X0082700Y0068701D01*
X0082700Y0067667D01*
X0082700Y0068010D02*
X0081272Y0068010D01*
X0081272Y0068353D02*
X0082700Y0068353D01*
X0082700Y0068696D02*
X0081272Y0068696D01*
X0081272Y0065699D02*
X0082700Y0065699D01*
X0081272Y0065699D02*
X0081272Y0066733D01*
X0082700Y0066733D01*
X0082700Y0065699D01*
X0082700Y0066042D02*
X0081272Y0066042D01*
X0081272Y0066385D02*
X0082700Y0066385D01*
X0082700Y0066728D02*
X0081272Y0066728D01*
X0081272Y0063730D02*
X0082700Y0063730D01*
X0081272Y0063730D02*
X0081272Y0064764D01*
X0082700Y0064764D01*
X0082700Y0063730D01*
X0082700Y0064073D02*
X0081272Y0064073D01*
X0081272Y0064416D02*
X0082700Y0064416D01*
X0082700Y0064759D02*
X0081272Y0064759D01*
X0081272Y0061762D02*
X0082700Y0061762D01*
X0081272Y0061762D02*
X0081272Y0062796D01*
X0082700Y0062796D01*
X0082700Y0061762D01*
X0082700Y0062105D02*
X0081272Y0062105D01*
X0081272Y0062448D02*
X0082700Y0062448D01*
X0082700Y0062791D02*
X0081272Y0062791D01*
X0081272Y0059793D02*
X0082700Y0059793D01*
X0081272Y0059793D02*
X0081272Y0060827D01*
X0082700Y0060827D01*
X0082700Y0059793D01*
X0082700Y0060136D02*
X0081272Y0060136D01*
X0081272Y0060479D02*
X0082700Y0060479D01*
X0082700Y0060822D02*
X0081272Y0060822D01*
X0081272Y0057825D02*
X0082700Y0057825D01*
X0081272Y0057825D02*
X0081272Y0058859D01*
X0082700Y0058859D01*
X0082700Y0057825D01*
X0082700Y0058168D02*
X0081272Y0058168D01*
X0081272Y0058511D02*
X0082700Y0058511D01*
X0082700Y0058854D02*
X0081272Y0058854D01*
X0081272Y0055856D02*
X0082700Y0055856D01*
X0081272Y0055856D02*
X0081272Y0056890D01*
X0082700Y0056890D01*
X0082700Y0055856D01*
X0082700Y0056199D02*
X0081272Y0056199D01*
X0081272Y0056542D02*
X0082700Y0056542D01*
X0082700Y0056885D02*
X0081272Y0056885D01*
X0081272Y0053888D02*
X0082700Y0053888D01*
X0081272Y0053888D02*
X0081272Y0054922D01*
X0082700Y0054922D01*
X0082700Y0053888D01*
X0082700Y0054231D02*
X0081272Y0054231D01*
X0081272Y0054574D02*
X0082700Y0054574D01*
X0082700Y0054917D02*
X0081272Y0054917D01*
X0081272Y0051919D02*
X0082700Y0051919D01*
X0081272Y0051919D02*
X0081272Y0052953D01*
X0082700Y0052953D01*
X0082700Y0051919D01*
X0082700Y0052262D02*
X0081272Y0052262D01*
X0081272Y0052605D02*
X0082700Y0052605D01*
X0082700Y0052948D02*
X0081272Y0052948D01*
X0081272Y0049951D02*
X0082700Y0049951D01*
X0081272Y0049951D02*
X0081272Y0050985D01*
X0082700Y0050985D01*
X0082700Y0049951D01*
X0082700Y0050294D02*
X0081272Y0050294D01*
X0081272Y0050637D02*
X0082700Y0050637D01*
X0082700Y0050980D02*
X0081272Y0050980D01*
X0081272Y0047982D02*
X0082700Y0047982D01*
X0081272Y0047982D02*
X0081272Y0049016D01*
X0082700Y0049016D01*
X0082700Y0047982D01*
X0082700Y0048325D02*
X0081272Y0048325D01*
X0081272Y0048668D02*
X0082700Y0048668D01*
X0082700Y0049011D02*
X0081272Y0049011D01*
D12*
X0069131Y0059326D03*
D13*
X0067557Y0075861D03*
X0063620Y0075861D03*
X0077006Y0077830D03*
X0080943Y0077830D03*
X0087439Y0042200D03*
X0091376Y0042200D03*
X0091376Y0037712D03*
X0087439Y0037712D03*
X0087439Y0033342D03*
X0091376Y0033342D03*
D14*
X0069722Y0082751D03*
X0059880Y0082751D03*
D15*
X0054958Y0079798D03*
X0054958Y0075861D03*
X0085588Y0062003D03*
X0085588Y0058066D03*
X0092754Y0073106D03*
X0092754Y0077043D03*
X0071887Y0023499D03*
X0071887Y0019562D03*
D16*
X0069801Y0030586D03*
X0079801Y0030586D03*
X0059801Y0030586D03*
X0049801Y0030586D03*
X0035273Y0038854D03*
X0035273Y0048854D03*
X0035273Y0058854D03*
X0035273Y0068854D03*
X0035273Y0078854D03*
D17*
X0085470Y0050468D03*
X0090588Y0050468D03*
D18*
X0093935Y0014444D03*
X0035667Y0014444D03*
D19*
X0045509Y0016019D03*
X0053383Y0016019D03*
X0053383Y0023106D03*
X0045509Y0023106D03*
D20*
X0076218Y0022318D03*
X0083305Y0022318D03*
X0087714Y0027436D03*
X0094801Y0027436D03*
D21*
X0067360Y0022928D03*
X0063620Y0022928D03*
X0059880Y0022928D03*
X0059880Y0013834D03*
X0063620Y0013834D03*
X0067360Y0013834D03*
D22*
X0076415Y0015625D03*
X0085470Y0015625D03*
D23*
X0085170Y0015327D02*
X0078555Y0015327D01*
X0078555Y0014729D02*
X0083130Y0014729D01*
X0083130Y0015325D02*
X0083130Y0013847D01*
X0083205Y0013567D01*
X0083350Y0013316D01*
X0083555Y0013111D01*
X0083805Y0012966D01*
X0084085Y0012891D01*
X0085170Y0012891D01*
X0085170Y0015325D01*
X0085770Y0015325D01*
X0085770Y0012891D01*
X0086855Y0012891D01*
X0087135Y0012966D01*
X0087386Y0013111D01*
X0087520Y0013245D01*
X0087520Y0009232D01*
X0041882Y0009232D01*
X0041882Y0017994D01*
X0044518Y0020631D01*
X0048244Y0020631D01*
X0048772Y0021158D01*
X0048772Y0021221D01*
X0050121Y0021221D01*
X0050121Y0021158D01*
X0050648Y0020631D01*
X0056118Y0020631D01*
X0056646Y0021158D01*
X0056646Y0021221D01*
X0057818Y0021221D01*
X0057818Y0019701D01*
X0058345Y0019174D01*
X0061414Y0019174D01*
X0061750Y0019510D01*
X0062085Y0019174D01*
X0065154Y0019174D01*
X0065490Y0019510D01*
X0065826Y0019174D01*
X0068894Y0019174D01*
X0069421Y0019701D01*
X0069421Y0021799D01*
X0069756Y0021799D01*
X0070024Y0021531D01*
X0069609Y0021116D01*
X0069609Y0019516D01*
X0067681Y0017588D01*
X0065826Y0017588D01*
X0065631Y0017394D01*
X0065457Y0017568D01*
X0065206Y0017713D01*
X0064926Y0017788D01*
X0063900Y0017788D01*
X0063900Y0014115D01*
X0063339Y0014115D01*
X0063339Y0017788D01*
X0062313Y0017788D01*
X0062034Y0017713D01*
X0061783Y0017568D01*
X0061608Y0017394D01*
X0061414Y0017588D01*
X0058345Y0017588D01*
X0057818Y0017061D01*
X0057818Y0013235D01*
X0057756Y0013297D01*
X0056097Y0013297D01*
X0054924Y0012124D01*
X0054924Y0010465D01*
X0056097Y0009292D01*
X0057756Y0009292D01*
X0057874Y0009410D01*
X0060660Y0009410D01*
X0061329Y0010080D01*
X0061414Y0010080D01*
X0061608Y0010274D01*
X0061783Y0010099D01*
X0062034Y0009954D01*
X0062313Y0009880D01*
X0063339Y0009880D01*
X0063339Y0013553D01*
X0063900Y0013553D01*
X0063900Y0009880D01*
X0064926Y0009880D01*
X0065206Y0009954D01*
X0065457Y0010099D01*
X0065631Y0010274D01*
X0065826Y0010080D01*
X0068894Y0010080D01*
X0069421Y0010607D01*
X0069421Y0015651D01*
X0071251Y0017481D01*
X0073638Y0017481D01*
X0074165Y0018008D01*
X0074165Y0019161D01*
X0074271Y0019056D01*
X0074915Y0019056D01*
X0074915Y0018159D01*
X0074802Y0018159D01*
X0074275Y0017632D01*
X0074275Y0013619D01*
X0074802Y0013091D01*
X0078028Y0013091D01*
X0078555Y0013619D01*
X0078555Y0017632D01*
X0078028Y0018159D01*
X0077915Y0018159D01*
X0077915Y0019056D01*
X0078166Y0019056D01*
X0078693Y0019583D01*
X0078693Y0025053D01*
X0078166Y0025580D01*
X0074271Y0025580D01*
X0074074Y0025383D01*
X0073835Y0025383D01*
X0073638Y0025580D01*
X0070137Y0025580D01*
X0069756Y0025199D01*
X0069421Y0025199D01*
X0069421Y0025986D01*
X0070716Y0025986D01*
X0072406Y0026686D01*
X0073700Y0027980D01*
X0074401Y0029671D01*
X0074401Y0031501D01*
X0073700Y0033192D01*
X0072406Y0034486D01*
X0070716Y0035186D01*
X0068886Y0035186D01*
X0067695Y0034693D01*
X0066803Y0035676D01*
X0066803Y0036927D01*
X0065630Y0038100D01*
X0065272Y0038100D01*
X0069156Y0041984D01*
X0073093Y0041984D01*
X0074550Y0043441D01*
X0075253Y0044144D01*
X0075253Y0044686D01*
X0076463Y0044686D01*
X0076184Y0044407D01*
X0076184Y0042749D01*
X0077357Y0041576D01*
X0079016Y0041576D01*
X0080189Y0042749D01*
X0080189Y0044407D01*
X0079910Y0044686D01*
X0080786Y0044686D01*
X0080786Y0043770D01*
X0081302Y0043253D01*
X0081302Y0042119D01*
X0082475Y0040946D01*
X0084134Y0040946D01*
X0084736Y0041548D01*
X0085357Y0041548D01*
X0085357Y0040449D01*
X0085739Y0040068D01*
X0085739Y0039844D01*
X0085357Y0039463D01*
X0085357Y0035961D01*
X0085792Y0035527D01*
X0085357Y0035092D01*
X0085357Y0031591D01*
X0085885Y0031064D01*
X0088992Y0031064D01*
X0089407Y0031478D01*
X0089822Y0031064D01*
X0092929Y0031064D01*
X0093457Y0031591D01*
X0093457Y0032169D01*
X0093893Y0031733D01*
X0095551Y0031733D01*
X0096724Y0032906D01*
X0096724Y0034565D01*
X0095551Y0035738D01*
X0093893Y0035738D01*
X0093390Y0035235D01*
X0093314Y0035235D01*
X0093145Y0035404D01*
X0093232Y0035454D01*
X0093437Y0035658D01*
X0093582Y0035909D01*
X0093657Y0036189D01*
X0093657Y0037421D01*
X0091666Y0037421D01*
X0091666Y0038002D01*
X0093657Y0038002D01*
X0093657Y0039235D01*
X0093582Y0039514D01*
X0093437Y0039765D01*
X0093246Y0039956D01*
X0093437Y0040147D01*
X0093582Y0040397D01*
X0093657Y0040677D01*
X0093657Y0041909D01*
X0091666Y0041909D01*
X0091666Y0039722D01*
X0091666Y0038002D01*
X0091085Y0038002D01*
X0091085Y0041909D01*
X0091666Y0041909D01*
X0091666Y0042491D01*
X0091085Y0042491D01*
X0091085Y0044678D01*
X0090050Y0044678D01*
X0089770Y0044603D01*
X0089519Y0044458D01*
X0089314Y0044253D01*
X0089279Y0044192D01*
X0088992Y0044478D01*
X0085885Y0044478D01*
X0085755Y0044348D01*
X0084736Y0044348D01*
X0084134Y0044950D01*
X0083186Y0044950D01*
X0083186Y0046953D01*
X0083271Y0047038D01*
X0083271Y0045898D01*
X0084444Y0044725D01*
X0086103Y0044725D01*
X0087276Y0045898D01*
X0087276Y0047557D01*
X0087036Y0047796D01*
X0087221Y0047796D01*
X0087748Y0048323D01*
X0087748Y0052612D01*
X0087221Y0053139D01*
X0083772Y0053139D01*
X0083772Y0053201D01*
X0083885Y0053397D01*
X0083972Y0053720D01*
X0083972Y0053931D01*
X0084107Y0053795D01*
X0084120Y0053795D01*
X0084130Y0053786D01*
X0084615Y0053795D01*
X0087185Y0053795D01*
X0087987Y0052993D01*
X0088408Y0052993D01*
X0088330Y0052915D01*
X0088185Y0052664D01*
X0088110Y0052384D01*
X0088110Y0050768D01*
X0090288Y0050768D01*
X0090288Y0053339D01*
X0089992Y0053339D01*
X0090819Y0054166D01*
X0090819Y0055825D01*
X0089646Y0056998D01*
X0087987Y0056998D01*
X0087866Y0056877D01*
X0087866Y0057099D01*
X0092113Y0057099D01*
X0092933Y0057919D01*
X0093760Y0058746D01*
X0093760Y0064312D01*
X0094362Y0064914D01*
X0094362Y0066573D01*
X0093189Y0067746D01*
X0092000Y0067746D01*
X0092000Y0068896D01*
X0090827Y0070068D01*
X0090031Y0070068D01*
X0090031Y0071415D01*
X0088859Y0072588D01*
X0088063Y0072588D01*
X0088063Y0073974D01*
X0086890Y0075147D01*
X0086488Y0075147D01*
X0086488Y0076494D01*
X0086470Y0076512D01*
X0086555Y0076512D01*
X0087593Y0075473D01*
X0089252Y0075473D01*
X0090425Y0076646D01*
X0090425Y0077674D01*
X0090476Y0077623D01*
X0090476Y0075489D01*
X0090762Y0075202D01*
X0090700Y0075167D01*
X0090495Y0074962D01*
X0090351Y0074711D01*
X0090276Y0074431D01*
X0090276Y0073396D01*
X0092463Y0073396D01*
X0092463Y0072815D01*
X0090276Y0072815D01*
X0090276Y0071780D01*
X0090351Y0071500D01*
X0090495Y0071249D01*
X0090700Y0071044D01*
X0090951Y0070899D01*
X0091231Y0070824D01*
X0092463Y0070824D01*
X0092463Y0072815D01*
X0093044Y0072815D01*
X0093044Y0070824D01*
X0094276Y0070824D01*
X0094556Y0070899D01*
X0094807Y0071044D01*
X0095012Y0071249D01*
X0095157Y0071500D01*
X0095231Y0071780D01*
X0095231Y0072815D01*
X0093044Y0072815D01*
X0093044Y0073396D01*
X0095231Y0073396D01*
X0095231Y0074431D01*
X0095157Y0074711D01*
X0095012Y0074962D01*
X0094807Y0075167D01*
X0094745Y0075202D01*
X0095031Y0075489D01*
X0095031Y0077717D01*
X0095095Y0077717D01*
X0095622Y0078245D01*
X0095622Y0085798D01*
X0099146Y0085798D01*
X0099146Y0020859D01*
X0094235Y0020859D01*
X0094235Y0014744D01*
X0093635Y0014744D01*
X0093635Y0020859D01*
X0088475Y0020859D01*
X0088195Y0020784D01*
X0087944Y0020639D01*
X0087739Y0020434D01*
X0087595Y0020184D01*
X0087520Y0019904D01*
X0087520Y0018005D01*
X0087386Y0018139D01*
X0087135Y0018284D01*
X0086855Y0018359D01*
X0085770Y0018359D01*
X0085770Y0015925D01*
X0087520Y0015925D01*
X0087520Y0015325D01*
X0085770Y0015325D01*
X0085770Y0015925D01*
X0085170Y0015925D01*
X0085170Y0015325D01*
X0083130Y0015325D01*
X0083130Y0015925D02*
X0085170Y0015925D01*
X0085170Y0018359D01*
X0084085Y0018359D01*
X0083805Y0018284D01*
X0083555Y0018139D01*
X0083350Y0017934D01*
X0083205Y0017684D01*
X0083130Y0017404D01*
X0083130Y0015925D01*
X0083130Y0015926D02*
X0078555Y0015926D01*
X0078555Y0016524D02*
X0083130Y0016524D01*
X0083130Y0017123D02*
X0078555Y0017123D01*
X0078466Y0017721D02*
X0083227Y0017721D01*
X0083938Y0018320D02*
X0077915Y0018320D01*
X0077915Y0018918D02*
X0087520Y0018918D01*
X0087520Y0018320D02*
X0087002Y0018320D01*
X0085770Y0018320D02*
X0085170Y0018320D01*
X0085170Y0017721D02*
X0085770Y0017721D01*
X0085770Y0017123D02*
X0085170Y0017123D01*
X0085170Y0016524D02*
X0085770Y0016524D01*
X0085770Y0015926D02*
X0085170Y0015926D01*
X0085770Y0015327D02*
X0087520Y0015327D01*
X0085770Y0014729D02*
X0085170Y0014729D01*
X0085170Y0014130D02*
X0085770Y0014130D01*
X0085770Y0013531D02*
X0085170Y0013531D01*
X0085170Y0012933D02*
X0085770Y0012933D01*
X0087010Y0012933D02*
X0087520Y0012933D01*
X0087520Y0012334D02*
X0069421Y0012334D01*
X0069421Y0011736D02*
X0087520Y0011736D01*
X0087520Y0011137D02*
X0069421Y0011137D01*
X0069353Y0010539D02*
X0087520Y0010539D01*
X0087520Y0009940D02*
X0065153Y0009940D01*
X0063900Y0009940D02*
X0063339Y0009940D01*
X0063339Y0010539D02*
X0063900Y0010539D01*
X0063900Y0011137D02*
X0063339Y0011137D01*
X0063339Y0011736D02*
X0063900Y0011736D01*
X0063900Y0012334D02*
X0063339Y0012334D01*
X0063339Y0012933D02*
X0063900Y0012933D01*
X0063900Y0013531D02*
X0063339Y0013531D01*
X0063339Y0014130D02*
X0063900Y0014130D01*
X0063900Y0014729D02*
X0063339Y0014729D01*
X0063339Y0015327D02*
X0063900Y0015327D01*
X0063900Y0015926D02*
X0063339Y0015926D01*
X0063339Y0016524D02*
X0063900Y0016524D01*
X0063900Y0017123D02*
X0063339Y0017123D01*
X0063339Y0017721D02*
X0063900Y0017721D01*
X0065176Y0017721D02*
X0067814Y0017721D01*
X0068413Y0018320D02*
X0056575Y0018320D01*
X0056626Y0018269D02*
X0056421Y0018474D01*
X0056170Y0018619D01*
X0055890Y0018694D01*
X0053683Y0018694D01*
X0053683Y0016319D01*
X0053083Y0016319D01*
X0053083Y0015719D01*
X0049921Y0015719D01*
X0049921Y0014299D01*
X0049996Y0014020D01*
X0050141Y0013769D01*
X0050346Y0013564D01*
X0050597Y0013419D01*
X0050876Y0013344D01*
X0053083Y0013344D01*
X0053083Y0015719D01*
X0053683Y0015719D01*
X0053683Y0013344D01*
X0055890Y0013344D01*
X0056170Y0013419D01*
X0056421Y0013564D01*
X0056626Y0013769D01*
X0056771Y0014020D01*
X0056846Y0014299D01*
X0056846Y0015719D01*
X0053684Y0015719D01*
X0053684Y0016319D01*
X0056846Y0016319D01*
X0056846Y0017739D01*
X0056771Y0018018D01*
X0056626Y0018269D01*
X0056846Y0017721D02*
X0062063Y0017721D01*
X0057880Y0017123D02*
X0056846Y0017123D01*
X0056846Y0016524D02*
X0057818Y0016524D01*
X0057818Y0015926D02*
X0053684Y0015926D01*
X0053683Y0016524D02*
X0053083Y0016524D01*
X0053083Y0016319D02*
X0053083Y0018694D01*
X0050876Y0018694D01*
X0050597Y0018619D01*
X0050346Y0018474D01*
X0050141Y0018269D01*
X0049996Y0018018D01*
X0049921Y0017739D01*
X0049921Y0016319D01*
X0053083Y0016319D01*
X0053083Y0015926D02*
X0045809Y0015926D01*
X0045809Y0015719D02*
X0045809Y0016319D01*
X0045209Y0016319D01*
X0045209Y0015719D01*
X0042047Y0015719D01*
X0042047Y0014299D01*
X0042122Y0014020D01*
X0042267Y0013769D01*
X0042472Y0013564D01*
X0042723Y0013419D01*
X0043002Y0013344D01*
X0045209Y0013344D01*
X0045209Y0015719D01*
X0045809Y0015719D01*
X0045809Y0013344D01*
X0048016Y0013344D01*
X0048296Y0013419D01*
X0048547Y0013564D01*
X0048752Y0013769D01*
X0048897Y0014020D01*
X0048972Y0014299D01*
X0048972Y0015719D01*
X0045809Y0015719D01*
X0045809Y0015327D02*
X0045209Y0015327D01*
X0045209Y0014729D02*
X0045809Y0014729D01*
X0045809Y0014130D02*
X0045209Y0014130D01*
X0045209Y0013531D02*
X0045809Y0013531D01*
X0045209Y0015926D02*
X0041882Y0015926D01*
X0042047Y0016319D02*
X0045209Y0016319D01*
X0045209Y0018694D01*
X0043002Y0018694D01*
X0042723Y0018619D01*
X0042472Y0018474D01*
X0042267Y0018269D01*
X0042122Y0018018D01*
X0042047Y0017739D01*
X0042047Y0016319D01*
X0042047Y0016524D02*
X0041882Y0016524D01*
X0041882Y0017123D02*
X0042047Y0017123D01*
X0042047Y0017721D02*
X0041882Y0017721D01*
X0042207Y0018320D02*
X0042317Y0018320D01*
X0042806Y0018918D02*
X0069011Y0018918D01*
X0069237Y0019517D02*
X0069609Y0019517D01*
X0069609Y0020115D02*
X0069421Y0020115D01*
X0069421Y0020714D02*
X0069609Y0020714D01*
X0069421Y0021312D02*
X0069805Y0021312D01*
X0070893Y0017123D02*
X0074275Y0017123D01*
X0074275Y0016524D02*
X0070294Y0016524D01*
X0069695Y0015926D02*
X0074275Y0015926D01*
X0074275Y0015327D02*
X0069421Y0015327D01*
X0069421Y0014729D02*
X0074275Y0014729D01*
X0074275Y0014130D02*
X0069421Y0014130D01*
X0069421Y0013531D02*
X0074362Y0013531D01*
X0078468Y0013531D02*
X0083225Y0013531D01*
X0083130Y0014130D02*
X0078555Y0014130D01*
X0074364Y0017721D02*
X0073878Y0017721D01*
X0074165Y0018320D02*
X0074915Y0018320D01*
X0074915Y0018918D02*
X0074165Y0018918D01*
X0078626Y0019517D02*
X0080896Y0019517D01*
X0080830Y0019583D02*
X0081357Y0019056D01*
X0085252Y0019056D01*
X0085780Y0019583D01*
X0085780Y0021221D01*
X0087082Y0021221D01*
X0087200Y0021103D01*
X0088859Y0021103D01*
X0090031Y0022276D01*
X0090031Y0023935D01*
X0089913Y0024053D01*
X0089913Y0024426D01*
X0090189Y0024701D01*
X0090189Y0030171D01*
X0089662Y0030698D01*
X0085767Y0030698D01*
X0085239Y0030171D01*
X0085239Y0025580D01*
X0081357Y0025580D01*
X0080830Y0025053D01*
X0080830Y0019583D01*
X0080830Y0020115D02*
X0078693Y0020115D01*
X0078693Y0020714D02*
X0080830Y0020714D01*
X0080830Y0021312D02*
X0078693Y0021312D01*
X0078693Y0021911D02*
X0080830Y0021911D01*
X0080830Y0022509D02*
X0078693Y0022509D01*
X0078693Y0023108D02*
X0080830Y0023108D01*
X0080830Y0023706D02*
X0078693Y0023706D01*
X0078693Y0024305D02*
X0080830Y0024305D01*
X0080830Y0024903D02*
X0078693Y0024903D01*
X0078244Y0025502D02*
X0081279Y0025502D01*
X0080992Y0026100D02*
X0085239Y0026100D01*
X0085239Y0026699D02*
X0082419Y0026699D01*
X0082406Y0026686D02*
X0083700Y0027980D01*
X0084401Y0029671D01*
X0084401Y0031501D01*
X0083700Y0033192D01*
X0082406Y0034486D01*
X0080716Y0035186D01*
X0078886Y0035186D01*
X0077480Y0034604D01*
X0073520Y0038563D01*
X0072818Y0039266D01*
X0071157Y0039266D01*
X0070355Y0040068D01*
X0068696Y0040068D01*
X0067523Y0038896D01*
X0067523Y0037237D01*
X0068696Y0036064D01*
X0070355Y0036064D01*
X0071157Y0036866D01*
X0071823Y0036866D01*
X0075783Y0032907D01*
X0075201Y0031501D01*
X0075201Y0029671D01*
X0075901Y0027980D01*
X0077195Y0026686D01*
X0078886Y0025986D01*
X0080716Y0025986D01*
X0082406Y0026686D01*
X0083018Y0027297D02*
X0085239Y0027297D01*
X0085239Y0027896D02*
X0083616Y0027896D01*
X0083913Y0028494D02*
X0085239Y0028494D01*
X0085239Y0029093D02*
X0084161Y0029093D01*
X0084401Y0029691D02*
X0085239Y0029691D01*
X0085358Y0030290D02*
X0084401Y0030290D01*
X0084401Y0030888D02*
X0093043Y0030888D01*
X0093081Y0030898D02*
X0092801Y0030823D01*
X0092551Y0030679D01*
X0092346Y0030474D01*
X0092201Y0030223D01*
X0092126Y0029943D01*
X0092126Y0027736D01*
X0094501Y0027736D01*
X0094501Y0027136D01*
X0095101Y0027136D01*
X0095101Y0027736D01*
X0097476Y0027736D01*
X0097476Y0029943D01*
X0097401Y0030223D01*
X0097256Y0030474D01*
X0097051Y0030679D01*
X0096800Y0030823D01*
X0096520Y0030898D01*
X0095101Y0030898D01*
X0095101Y0027736D01*
X0094501Y0027736D01*
X0094501Y0030898D01*
X0093081Y0030898D01*
X0093353Y0031487D02*
X0099146Y0031487D01*
X0099146Y0032085D02*
X0095904Y0032085D01*
X0096502Y0032684D02*
X0099146Y0032684D01*
X0099146Y0033282D02*
X0096724Y0033282D01*
X0096724Y0033881D02*
X0099146Y0033881D01*
X0099146Y0034479D02*
X0096724Y0034479D01*
X0096211Y0035078D02*
X0099146Y0035078D01*
X0099146Y0035676D02*
X0095613Y0035676D01*
X0093831Y0035676D02*
X0093447Y0035676D01*
X0093657Y0036275D02*
X0099146Y0036275D01*
X0099146Y0036873D02*
X0093657Y0036873D01*
X0093657Y0038070D02*
X0099146Y0038070D01*
X0099146Y0037472D02*
X0091666Y0037472D01*
X0091666Y0038070D02*
X0091085Y0038070D01*
X0091085Y0038669D02*
X0091666Y0038669D01*
X0091666Y0039267D02*
X0091085Y0039267D01*
X0091085Y0039866D02*
X0091666Y0039866D01*
X0091666Y0040464D02*
X0091085Y0040464D01*
X0091085Y0041063D02*
X0091666Y0041063D01*
X0091666Y0041662D02*
X0091085Y0041662D01*
X0091666Y0042260D02*
X0099146Y0042260D01*
X0099146Y0041662D02*
X0093657Y0041662D01*
X0093657Y0041063D02*
X0099146Y0041063D01*
X0099146Y0040464D02*
X0093600Y0040464D01*
X0093336Y0039866D02*
X0099146Y0039866D01*
X0099146Y0039267D02*
X0093648Y0039267D01*
X0093657Y0038669D02*
X0099146Y0038669D01*
X0099146Y0042859D02*
X0093657Y0042859D01*
X0093657Y0042491D02*
X0093657Y0043723D01*
X0093582Y0044003D01*
X0093437Y0044253D01*
X0093232Y0044458D01*
X0092981Y0044603D01*
X0092702Y0044678D01*
X0091666Y0044678D01*
X0091666Y0042491D01*
X0093657Y0042491D01*
X0093657Y0043457D02*
X0099146Y0043457D01*
X0099146Y0044056D02*
X0093551Y0044056D01*
X0092791Y0044654D02*
X0099146Y0044654D01*
X0099146Y0045253D02*
X0086630Y0045253D01*
X0087229Y0045851D02*
X0099146Y0045851D01*
X0099146Y0046450D02*
X0087276Y0046450D01*
X0087276Y0047048D02*
X0099146Y0047048D01*
X0099146Y0047647D02*
X0092300Y0047647D01*
X0092391Y0047671D02*
X0092642Y0047816D01*
X0092846Y0048021D01*
X0092991Y0048271D01*
X0093066Y0048551D01*
X0093066Y0050168D01*
X0090888Y0050168D01*
X0090888Y0050768D01*
X0090288Y0050768D01*
X0090288Y0050168D01*
X0088110Y0050168D01*
X0088110Y0048551D01*
X0088185Y0048271D01*
X0088330Y0048021D01*
X0088535Y0047816D01*
X0088786Y0047671D01*
X0089065Y0047596D01*
X0090288Y0047596D01*
X0090288Y0050168D01*
X0090888Y0050168D01*
X0090888Y0047596D01*
X0092111Y0047596D01*
X0092391Y0047671D01*
X0092976Y0048245D02*
X0099146Y0048245D01*
X0099146Y0048844D02*
X0093066Y0048844D01*
X0093066Y0049442D02*
X0099146Y0049442D01*
X0099146Y0050041D02*
X0093066Y0050041D01*
X0093066Y0050768D02*
X0090888Y0050768D01*
X0090888Y0053339D01*
X0092111Y0053339D01*
X0092391Y0053264D01*
X0092642Y0053120D01*
X0092846Y0052915D01*
X0092991Y0052664D01*
X0093066Y0052384D01*
X0093066Y0050768D01*
X0093066Y0051238D02*
X0099146Y0051238D01*
X0099146Y0051836D02*
X0093066Y0051836D01*
X0093053Y0052435D02*
X0099146Y0052435D01*
X0099146Y0053033D02*
X0092728Y0053033D01*
X0090888Y0053033D02*
X0090288Y0053033D01*
X0090288Y0052435D02*
X0090888Y0052435D01*
X0090888Y0051836D02*
X0090288Y0051836D01*
X0090288Y0051238D02*
X0090888Y0051238D01*
X0090888Y0050639D02*
X0099146Y0050639D01*
X0099146Y0053632D02*
X0090285Y0053632D01*
X0090819Y0054230D02*
X0099146Y0054230D01*
X0099146Y0054829D02*
X0090819Y0054829D01*
X0090819Y0055427D02*
X0099146Y0055427D01*
X0099146Y0056026D02*
X0090618Y0056026D01*
X0090019Y0056624D02*
X0099146Y0056624D01*
X0099146Y0057223D02*
X0092237Y0057223D01*
X0092835Y0057821D02*
X0099146Y0057821D01*
X0099146Y0058420D02*
X0093434Y0058420D01*
X0093760Y0059018D02*
X0099146Y0059018D01*
X0099146Y0059617D02*
X0093760Y0059617D01*
X0093760Y0060215D02*
X0099146Y0060215D01*
X0099146Y0060814D02*
X0093760Y0060814D01*
X0093760Y0061412D02*
X0099146Y0061412D01*
X0099146Y0062011D02*
X0093760Y0062011D01*
X0093760Y0062609D02*
X0099146Y0062609D01*
X0099146Y0063208D02*
X0093760Y0063208D01*
X0093760Y0063806D02*
X0099146Y0063806D01*
X0099146Y0064405D02*
X0093853Y0064405D01*
X0094362Y0065003D02*
X0099146Y0065003D01*
X0099146Y0065602D02*
X0094362Y0065602D01*
X0094362Y0066200D02*
X0099146Y0066200D01*
X0099146Y0066799D02*
X0094136Y0066799D01*
X0093537Y0067398D02*
X0099146Y0067398D01*
X0099146Y0067996D02*
X0092000Y0067996D01*
X0092000Y0068595D02*
X0099146Y0068595D01*
X0099146Y0069193D02*
X0091702Y0069193D01*
X0091104Y0069792D02*
X0099146Y0069792D01*
X0099146Y0070390D02*
X0090031Y0070390D01*
X0090031Y0070989D02*
X0090797Y0070989D01*
X0090327Y0071587D02*
X0089860Y0071587D01*
X0090276Y0072186D02*
X0089261Y0072186D01*
X0090276Y0072784D02*
X0088063Y0072784D01*
X0088063Y0073383D02*
X0092463Y0073383D01*
X0093044Y0073383D02*
X0099146Y0073383D01*
X0099146Y0073981D02*
X0095231Y0073981D01*
X0095192Y0074580D02*
X0099146Y0074580D01*
X0099146Y0075178D02*
X0094787Y0075178D01*
X0095031Y0075777D02*
X0099146Y0075777D01*
X0099146Y0076375D02*
X0095031Y0076375D01*
X0095031Y0076974D02*
X0099146Y0076974D01*
X0099146Y0077572D02*
X0095031Y0077572D01*
X0095548Y0078171D02*
X0099146Y0078171D01*
X0099146Y0078769D02*
X0095622Y0078769D01*
X0095622Y0079368D02*
X0099146Y0079368D01*
X0099146Y0079966D02*
X0095622Y0079966D01*
X0095622Y0080565D02*
X0099146Y0080565D01*
X0099146Y0081163D02*
X0095622Y0081163D01*
X0095622Y0081762D02*
X0099146Y0081762D01*
X0099146Y0082360D02*
X0095622Y0082360D01*
X0095622Y0082959D02*
X0099146Y0082959D01*
X0099146Y0083557D02*
X0095622Y0083557D01*
X0095622Y0084156D02*
X0099146Y0084156D01*
X0099146Y0084754D02*
X0095622Y0084754D01*
X0095622Y0085353D02*
X0099146Y0085353D01*
X0092754Y0077043D02*
X0089195Y0080601D01*
X0079226Y0080601D01*
X0077006Y0078381D01*
X0077006Y0077830D01*
X0074924Y0077926D02*
X0072653Y0075654D01*
X0072653Y0073966D01*
X0071123Y0073966D01*
X0071100Y0073943D01*
X0071077Y0073966D01*
X0069709Y0073966D01*
X0069763Y0074059D01*
X0069838Y0074339D01*
X0069838Y0075571D01*
X0067847Y0075571D01*
X0067847Y0076152D01*
X0069838Y0076152D01*
X0069838Y0077384D01*
X0069763Y0077664D01*
X0069618Y0077915D01*
X0069413Y0078120D01*
X0069244Y0078217D01*
X0069244Y0078505D01*
X0072063Y0078505D01*
X0072591Y0079032D01*
X0072591Y0080080D01*
X0074137Y0080080D01*
X0074137Y0079032D01*
X0074664Y0078505D01*
X0074924Y0078505D01*
X0074924Y0077926D01*
X0074924Y0078171D02*
X0069325Y0078171D01*
X0069787Y0077572D02*
X0074571Y0077572D01*
X0073973Y0076974D02*
X0069838Y0076974D01*
X0069838Y0076375D02*
X0073374Y0076375D01*
X0072776Y0075777D02*
X0067847Y0075777D01*
X0069838Y0075178D02*
X0072653Y0075178D01*
X0072653Y0074580D02*
X0069838Y0074580D01*
X0069718Y0073981D02*
X0072653Y0073981D01*
X0072328Y0078769D02*
X0074400Y0078769D01*
X0074137Y0079368D02*
X0072591Y0079368D01*
X0072591Y0079966D02*
X0074137Y0079966D01*
X0080943Y0077830D02*
X0080943Y0077712D01*
X0088187Y0077712D01*
X0088423Y0077476D01*
X0090425Y0077572D02*
X0090476Y0077572D01*
X0090476Y0076974D02*
X0090425Y0076974D01*
X0090476Y0076375D02*
X0090154Y0076375D01*
X0090476Y0075777D02*
X0089556Y0075777D01*
X0090720Y0075178D02*
X0086488Y0075178D01*
X0086488Y0075777D02*
X0087290Y0075777D01*
X0086691Y0076375D02*
X0086488Y0076375D01*
X0087458Y0074580D02*
X0090315Y0074580D01*
X0090276Y0073981D02*
X0088056Y0073981D01*
X0086061Y0073145D02*
X0085313Y0073145D01*
X0082320Y0070153D01*
X0081986Y0070153D01*
X0079958Y0072180D02*
X0083443Y0075665D01*
X0084486Y0075665D01*
X0088029Y0070586D02*
X0085628Y0068184D01*
X0081986Y0068184D01*
X0081986Y0066216D02*
X0088147Y0066216D01*
X0089998Y0068066D01*
X0092463Y0070989D02*
X0093044Y0070989D01*
X0093044Y0071587D02*
X0092463Y0071587D01*
X0092463Y0072186D02*
X0093044Y0072186D01*
X0093044Y0072784D02*
X0092463Y0072784D01*
X0095231Y0072784D02*
X0099146Y0072784D01*
X0099146Y0072186D02*
X0095231Y0072186D01*
X0095180Y0071587D02*
X0099146Y0071587D01*
X0099146Y0070989D02*
X0094711Y0070989D01*
X0090819Y0064453D02*
X0090960Y0064312D01*
X0090960Y0059906D01*
X0090953Y0059899D01*
X0087587Y0059899D01*
X0087580Y0059906D01*
X0087642Y0059942D01*
X0087846Y0060147D01*
X0087991Y0060397D01*
X0088066Y0060677D01*
X0088066Y0061654D01*
X0089646Y0061654D01*
X0090819Y0062827D01*
X0090819Y0064453D01*
X0090819Y0064405D02*
X0090866Y0064405D01*
X0090819Y0063806D02*
X0090960Y0063806D01*
X0090960Y0063208D02*
X0090819Y0063208D01*
X0090960Y0062609D02*
X0090601Y0062609D01*
X0090960Y0062011D02*
X0090002Y0062011D01*
X0090960Y0061412D02*
X0088066Y0061412D01*
X0088066Y0060814D02*
X0090960Y0060814D01*
X0090960Y0060215D02*
X0087886Y0060215D01*
X0088817Y0063657D02*
X0088226Y0064247D01*
X0081986Y0064247D01*
X0081986Y0056373D02*
X0081986Y0056019D01*
X0083541Y0056019D01*
X0084604Y0054995D01*
X0088817Y0054995D01*
X0087348Y0053632D02*
X0083948Y0053632D01*
X0087327Y0053033D02*
X0087947Y0053033D01*
X0088124Y0052435D02*
X0087748Y0052435D01*
X0087748Y0051836D02*
X0088110Y0051836D01*
X0088110Y0051238D02*
X0087748Y0051238D01*
X0087748Y0050639D02*
X0090288Y0050639D01*
X0090288Y0050041D02*
X0090888Y0050041D01*
X0090888Y0049442D02*
X0090288Y0049442D01*
X0090288Y0048844D02*
X0090888Y0048844D01*
X0090888Y0048245D02*
X0090288Y0048245D01*
X0090288Y0047647D02*
X0090888Y0047647D01*
X0088877Y0047647D02*
X0087186Y0047647D01*
X0087670Y0048245D02*
X0088200Y0048245D01*
X0088110Y0048844D02*
X0087748Y0048844D01*
X0087748Y0049442D02*
X0088110Y0049442D01*
X0088110Y0050041D02*
X0087748Y0050041D01*
X0085470Y0050468D02*
X0085273Y0050468D01*
X0081986Y0048499D02*
X0081986Y0044267D01*
X0083305Y0042948D01*
X0081302Y0042859D02*
X0080189Y0042859D01*
X0080189Y0043457D02*
X0081099Y0043457D01*
X0080786Y0044056D02*
X0080189Y0044056D01*
X0079942Y0044654D02*
X0080786Y0044654D01*
X0083186Y0045253D02*
X0083916Y0045253D01*
X0084430Y0044654D02*
X0089961Y0044654D01*
X0091085Y0044654D02*
X0091666Y0044654D01*
X0091666Y0044056D02*
X0091085Y0044056D01*
X0091085Y0043457D02*
X0091666Y0043457D01*
X0091666Y0042859D02*
X0091085Y0042859D01*
X0085357Y0041063D02*
X0084251Y0041063D01*
X0085357Y0040464D02*
X0067636Y0040464D01*
X0067038Y0039866D02*
X0068493Y0039866D01*
X0067895Y0039267D02*
X0066439Y0039267D01*
X0065841Y0038669D02*
X0067523Y0038669D01*
X0067523Y0038070D02*
X0065660Y0038070D01*
X0066258Y0037472D02*
X0067523Y0037472D01*
X0067886Y0036873D02*
X0066803Y0036873D01*
X0066803Y0036275D02*
X0068485Y0036275D01*
X0068625Y0035078D02*
X0067346Y0035078D01*
X0066803Y0035676D02*
X0073013Y0035676D01*
X0073612Y0035078D02*
X0070976Y0035078D01*
X0070566Y0036275D02*
X0072415Y0036275D01*
X0072320Y0038066D02*
X0069525Y0038066D01*
X0071156Y0039267D02*
X0085357Y0039267D01*
X0085357Y0038669D02*
X0073415Y0038669D01*
X0074013Y0038070D02*
X0085357Y0038070D01*
X0085357Y0037472D02*
X0074612Y0037472D01*
X0075210Y0036873D02*
X0085357Y0036873D01*
X0085357Y0036275D02*
X0075809Y0036275D01*
X0076407Y0035676D02*
X0085642Y0035676D01*
X0085357Y0035078D02*
X0080976Y0035078D01*
X0082413Y0034479D02*
X0085357Y0034479D01*
X0085357Y0033881D02*
X0083011Y0033881D01*
X0083610Y0033282D02*
X0085357Y0033282D01*
X0085357Y0032684D02*
X0083911Y0032684D01*
X0084159Y0032085D02*
X0085357Y0032085D01*
X0085462Y0031487D02*
X0084401Y0031487D01*
X0079801Y0030586D02*
X0072320Y0038066D01*
X0070557Y0039866D02*
X0085739Y0039866D01*
X0082358Y0041063D02*
X0068235Y0041063D01*
X0068833Y0041662D02*
X0077271Y0041662D01*
X0076673Y0042260D02*
X0073369Y0042260D01*
X0073967Y0042859D02*
X0076184Y0042859D01*
X0076184Y0043457D02*
X0074566Y0043457D01*
X0074550Y0043441D02*
X0074550Y0043441D01*
X0075164Y0044056D02*
X0076184Y0044056D01*
X0076431Y0044654D02*
X0075253Y0044654D01*
X0074053Y0044641D02*
X0072596Y0043184D01*
X0068659Y0043184D01*
X0061376Y0035901D01*
X0059801Y0030586D01*
X0058011Y0026348D02*
X0057195Y0026686D01*
X0055901Y0027980D01*
X0055201Y0029671D01*
X0055201Y0031501D01*
X0055901Y0033192D01*
X0057195Y0034486D01*
X0058190Y0034898D01*
X0055810Y0034898D01*
X0053819Y0032907D01*
X0054401Y0031501D01*
X0054401Y0029671D01*
X0053700Y0027980D01*
X0052406Y0026686D01*
X0050716Y0025986D01*
X0048886Y0025986D01*
X0047195Y0026686D01*
X0045901Y0027980D01*
X0045201Y0029671D01*
X0045201Y0031501D01*
X0045901Y0033192D01*
X0047195Y0034486D01*
X0048886Y0035186D01*
X0050716Y0035186D01*
X0052121Y0034604D01*
X0054816Y0037298D01*
X0057926Y0037298D01*
X0059069Y0038441D01*
X0057377Y0038441D01*
X0056575Y0037639D01*
X0054916Y0037639D01*
X0053743Y0038812D01*
X0053743Y0040470D01*
X0054916Y0041643D01*
X0056575Y0041643D01*
X0057377Y0040841D01*
X0058587Y0040841D01*
X0059715Y0041969D01*
X0059247Y0041969D01*
X0058502Y0042715D01*
X0057756Y0041969D01*
X0056097Y0041969D01*
X0054924Y0043142D01*
X0054924Y0044801D01*
X0056097Y0045974D01*
X0056602Y0045974D01*
X0056716Y0046088D01*
X0056716Y0046910D01*
X0055119Y0046910D01*
X0054930Y0047099D01*
X0054795Y0047099D01*
X0054795Y0047079D01*
X0053622Y0045906D01*
X0051964Y0045906D01*
X0050791Y0047079D01*
X0050791Y0047556D01*
X0041591Y0038356D01*
X0040888Y0037654D01*
X0040391Y0037654D01*
X0040391Y0036098D01*
X0035273Y0030980D01*
X0035273Y0020659D01*
X0039217Y0020659D01*
X0042247Y0023689D01*
X0042247Y0025053D01*
X0042774Y0025580D01*
X0048244Y0025580D01*
X0048772Y0025053D01*
X0048772Y0024990D01*
X0050121Y0024990D01*
X0050121Y0025053D01*
X0050648Y0025580D01*
X0056118Y0025580D01*
X0056646Y0025053D01*
X0056646Y0024990D01*
X0057818Y0024990D01*
X0057818Y0026155D01*
X0058011Y0026348D01*
X0057818Y0026100D02*
X0050992Y0026100D01*
X0050570Y0025502D02*
X0048323Y0025502D01*
X0048610Y0026100D02*
X0035273Y0026100D01*
X0035273Y0025502D02*
X0042696Y0025502D01*
X0042247Y0024903D02*
X0035273Y0024903D01*
X0035273Y0024305D02*
X0042247Y0024305D01*
X0042247Y0023706D02*
X0035273Y0023706D01*
X0035273Y0023108D02*
X0041666Y0023108D01*
X0041067Y0022509D02*
X0035273Y0022509D01*
X0035273Y0021911D02*
X0040469Y0021911D01*
X0039870Y0021312D02*
X0035273Y0021312D01*
X0035273Y0020714D02*
X0039272Y0020714D01*
X0043404Y0019517D02*
X0058003Y0019517D01*
X0057818Y0020115D02*
X0044003Y0020115D01*
X0045209Y0018320D02*
X0045809Y0018320D01*
X0045809Y0018694D02*
X0045809Y0016319D01*
X0048972Y0016319D01*
X0048972Y0017739D01*
X0048897Y0018018D01*
X0048752Y0018269D01*
X0048547Y0018474D01*
X0048296Y0018619D01*
X0048016Y0018694D01*
X0045809Y0018694D01*
X0045809Y0017721D02*
X0045209Y0017721D01*
X0045209Y0017123D02*
X0045809Y0017123D01*
X0045809Y0016524D02*
X0045209Y0016524D01*
X0042047Y0015327D02*
X0041882Y0015327D01*
X0041882Y0014729D02*
X0042047Y0014729D01*
X0042093Y0014130D02*
X0041882Y0014130D01*
X0041882Y0013531D02*
X0042528Y0013531D01*
X0041882Y0012933D02*
X0055734Y0012933D01*
X0055135Y0012334D02*
X0041882Y0012334D01*
X0041882Y0011736D02*
X0054924Y0011736D01*
X0054924Y0011137D02*
X0041882Y0011137D01*
X0041882Y0010539D02*
X0054924Y0010539D01*
X0055449Y0009940D02*
X0041882Y0009940D01*
X0041882Y0009342D02*
X0056048Y0009342D01*
X0057806Y0009342D02*
X0087520Y0009342D01*
X0083930Y0012933D02*
X0069421Y0012933D01*
X0062086Y0009940D02*
X0061190Y0009940D01*
X0057818Y0013531D02*
X0056365Y0013531D01*
X0056800Y0014130D02*
X0057818Y0014130D01*
X0057818Y0014729D02*
X0056846Y0014729D01*
X0056846Y0015327D02*
X0057818Y0015327D01*
X0053683Y0015327D02*
X0053083Y0015327D01*
X0053083Y0014729D02*
X0053683Y0014729D01*
X0053683Y0014130D02*
X0053083Y0014130D01*
X0053083Y0013531D02*
X0053683Y0013531D01*
X0050402Y0013531D02*
X0048491Y0013531D01*
X0048926Y0014130D02*
X0049967Y0014130D01*
X0049921Y0014729D02*
X0048972Y0014729D01*
X0048972Y0015327D02*
X0049921Y0015327D01*
X0049921Y0016524D02*
X0048972Y0016524D01*
X0048972Y0017123D02*
X0049921Y0017123D01*
X0049921Y0017721D02*
X0048972Y0017721D01*
X0048701Y0018320D02*
X0050192Y0018320D01*
X0050566Y0020714D02*
X0048327Y0020714D01*
X0053083Y0018320D02*
X0053683Y0018320D01*
X0053683Y0017721D02*
X0053083Y0017721D01*
X0053083Y0017123D02*
X0053683Y0017123D01*
X0056201Y0020714D02*
X0057818Y0020714D01*
X0057818Y0025502D02*
X0056197Y0025502D01*
X0057182Y0026699D02*
X0052419Y0026699D01*
X0053018Y0027297D02*
X0056584Y0027297D01*
X0055985Y0027896D02*
X0053616Y0027896D01*
X0053913Y0028494D02*
X0055688Y0028494D01*
X0055440Y0029093D02*
X0054161Y0029093D01*
X0054401Y0029691D02*
X0055201Y0029691D01*
X0055201Y0030290D02*
X0054401Y0030290D01*
X0054401Y0030888D02*
X0055201Y0030888D01*
X0055201Y0031487D02*
X0054401Y0031487D01*
X0054159Y0032085D02*
X0055443Y0032085D01*
X0055691Y0032684D02*
X0053911Y0032684D01*
X0054194Y0033282D02*
X0055992Y0033282D01*
X0056590Y0033881D02*
X0054793Y0033881D01*
X0055391Y0034479D02*
X0057189Y0034479D01*
X0058423Y0036098D02*
X0055313Y0036098D01*
X0049801Y0030586D01*
X0046590Y0033881D02*
X0038175Y0033881D01*
X0038773Y0034479D02*
X0047189Y0034479D01*
X0048625Y0035078D02*
X0039372Y0035078D01*
X0039970Y0035676D02*
X0053194Y0035676D01*
X0052596Y0035078D02*
X0050976Y0035078D01*
X0053793Y0036275D02*
X0040391Y0036275D01*
X0040391Y0036873D02*
X0054391Y0036873D01*
X0054484Y0038070D02*
X0041305Y0038070D01*
X0041904Y0038669D02*
X0053886Y0038669D01*
X0053743Y0039267D02*
X0042502Y0039267D01*
X0043101Y0039866D02*
X0053743Y0039866D01*
X0053743Y0040464D02*
X0043699Y0040464D01*
X0044298Y0041063D02*
X0054336Y0041063D01*
X0055807Y0042260D02*
X0045495Y0042260D01*
X0046093Y0042859D02*
X0055208Y0042859D01*
X0054924Y0043457D02*
X0046692Y0043457D01*
X0047290Y0044056D02*
X0054924Y0044056D01*
X0054924Y0044654D02*
X0047889Y0044654D01*
X0048487Y0045253D02*
X0055376Y0045253D01*
X0055974Y0045851D02*
X0049086Y0045851D01*
X0049684Y0046450D02*
X0051420Y0046450D01*
X0050822Y0047048D02*
X0050283Y0047048D01*
X0046848Y0048854D02*
X0035273Y0048854D01*
X0044840Y0054405D02*
X0040391Y0058854D01*
X0035273Y0058854D01*
X0044840Y0054405D02*
X0056277Y0054405D01*
X0056277Y0056373D02*
X0052872Y0056373D01*
X0040391Y0068854D01*
X0035273Y0068854D01*
X0038949Y0072186D02*
X0047917Y0072186D01*
X0047917Y0072784D02*
X0038351Y0072784D01*
X0037752Y0073383D02*
X0048109Y0073383D01*
X0048229Y0073263D02*
X0047917Y0072951D01*
X0047917Y0071292D01*
X0049089Y0070119D01*
X0050003Y0070119D01*
X0050003Y0069127D01*
X0050806Y0068324D01*
X0050806Y0060136D01*
X0041591Y0069351D01*
X0040888Y0070054D01*
X0040391Y0070054D01*
X0040391Y0070743D01*
X0036824Y0074310D01*
X0037116Y0074405D01*
X0037789Y0074748D01*
X0038400Y0075192D01*
X0038934Y0075727D01*
X0039379Y0076338D01*
X0039722Y0077011D01*
X0039955Y0077730D01*
X0040073Y0078476D01*
X0040073Y0078554D01*
X0035573Y0078554D01*
X0035573Y0079154D01*
X0035273Y0079154D01*
X0035273Y0085798D01*
X0057011Y0085798D01*
X0057011Y0081860D01*
X0056761Y0082005D01*
X0056481Y0082080D01*
X0055249Y0082080D01*
X0055249Y0080089D01*
X0054668Y0080089D01*
X0054668Y0082080D01*
X0053435Y0082080D01*
X0053156Y0082005D01*
X0052905Y0081860D01*
X0052700Y0081655D01*
X0052555Y0081404D01*
X0052480Y0081124D01*
X0052480Y0080089D01*
X0054668Y0080089D01*
X0054668Y0079508D01*
X0052480Y0079508D01*
X0052480Y0078472D01*
X0052555Y0078193D01*
X0052700Y0077942D01*
X0052905Y0077737D01*
X0052967Y0077702D01*
X0052680Y0077415D01*
X0052680Y0076274D01*
X0050881Y0076274D01*
X0050079Y0077076D01*
X0048420Y0077076D01*
X0047247Y0075903D01*
X0047247Y0074245D01*
X0048229Y0073263D01*
X0047511Y0073981D02*
X0037154Y0073981D01*
X0037458Y0074580D02*
X0047247Y0074580D01*
X0047247Y0075178D02*
X0038381Y0075178D01*
X0038971Y0075777D02*
X0047247Y0075777D01*
X0047719Y0076375D02*
X0039398Y0076375D01*
X0039703Y0076974D02*
X0048318Y0076974D01*
X0050182Y0076974D02*
X0052680Y0076974D01*
X0052680Y0076375D02*
X0050780Y0076375D01*
X0049250Y0075074D02*
X0054171Y0075074D01*
X0054407Y0075074D01*
X0052837Y0077572D02*
X0039904Y0077572D01*
X0040025Y0078171D02*
X0052568Y0078171D01*
X0052480Y0078769D02*
X0035573Y0078769D01*
X0035573Y0079154D02*
X0040073Y0079154D01*
X0040073Y0079231D01*
X0039955Y0079978D01*
X0039722Y0080696D01*
X0039379Y0081369D01*
X0038934Y0081981D01*
X0038400Y0082515D01*
X0037789Y0082959D01*
X0037116Y0083302D01*
X0036397Y0083535D01*
X0035651Y0083654D01*
X0035573Y0083654D01*
X0035573Y0079154D01*
X0035573Y0079368D02*
X0035273Y0079368D01*
X0035273Y0079966D02*
X0035573Y0079966D01*
X0035573Y0080565D02*
X0035273Y0080565D01*
X0035273Y0081163D02*
X0035573Y0081163D01*
X0035573Y0081762D02*
X0035273Y0081762D01*
X0035273Y0082360D02*
X0035573Y0082360D01*
X0035573Y0082959D02*
X0035273Y0082959D01*
X0035273Y0083557D02*
X0035573Y0083557D01*
X0035273Y0084156D02*
X0057011Y0084156D01*
X0057011Y0084754D02*
X0035273Y0084754D01*
X0035273Y0085353D02*
X0057011Y0085353D01*
X0057011Y0083557D02*
X0036259Y0083557D01*
X0037789Y0082959D02*
X0057011Y0082959D01*
X0057011Y0082360D02*
X0038555Y0082360D01*
X0039093Y0081762D02*
X0052807Y0081762D01*
X0052491Y0081163D02*
X0039484Y0081163D01*
X0039764Y0080565D02*
X0052480Y0080565D01*
X0052480Y0079368D02*
X0040052Y0079368D01*
X0039957Y0079966D02*
X0054668Y0079966D01*
X0054668Y0080565D02*
X0055249Y0080565D01*
X0055249Y0081163D02*
X0054668Y0081163D01*
X0054668Y0081762D02*
X0055249Y0081762D01*
X0047917Y0071587D02*
X0039548Y0071587D01*
X0040146Y0070989D02*
X0048220Y0070989D01*
X0048818Y0070390D02*
X0040391Y0070390D01*
X0041150Y0069792D02*
X0050003Y0069792D01*
X0050003Y0069193D02*
X0041749Y0069193D01*
X0042347Y0068595D02*
X0050535Y0068595D01*
X0050806Y0067996D02*
X0042946Y0067996D01*
X0043544Y0067398D02*
X0050806Y0067398D01*
X0050806Y0066799D02*
X0044143Y0066799D01*
X0044741Y0066200D02*
X0050806Y0066200D01*
X0050806Y0065602D02*
X0045340Y0065602D01*
X0045938Y0065003D02*
X0050806Y0065003D01*
X0050806Y0064405D02*
X0046537Y0064405D01*
X0047135Y0063806D02*
X0050806Y0063806D01*
X0050806Y0063208D02*
X0047734Y0063208D01*
X0048333Y0062609D02*
X0050806Y0062609D01*
X0050806Y0062011D02*
X0048931Y0062011D01*
X0049530Y0061412D02*
X0050806Y0061412D01*
X0050806Y0060814D02*
X0050128Y0060814D01*
X0050727Y0060215D02*
X0050806Y0060215D01*
X0052006Y0059490D02*
X0052006Y0069956D01*
X0052006Y0059490D02*
X0053153Y0058342D01*
X0056277Y0058342D01*
X0056277Y0052436D02*
X0050431Y0052436D01*
X0046848Y0048854D01*
X0052006Y0050468D02*
X0040391Y0038854D01*
X0035273Y0038854D01*
X0040391Y0037472D02*
X0058100Y0037472D01*
X0058699Y0038070D02*
X0057007Y0038070D01*
X0055746Y0039641D02*
X0059084Y0039641D01*
X0062242Y0042799D01*
X0062242Y0046472D01*
X0060273Y0046472D02*
X0060076Y0046472D01*
X0060076Y0043972D01*
X0058956Y0042260D02*
X0058047Y0042260D01*
X0058809Y0041063D02*
X0057155Y0041063D01*
X0059407Y0041662D02*
X0044896Y0041662D01*
X0045992Y0033282D02*
X0037576Y0033282D01*
X0036978Y0032684D02*
X0045691Y0032684D01*
X0045443Y0032085D02*
X0036379Y0032085D01*
X0035781Y0031487D02*
X0045201Y0031487D01*
X0045201Y0030888D02*
X0035273Y0030888D01*
X0035273Y0030290D02*
X0045201Y0030290D01*
X0045201Y0029691D02*
X0035273Y0029691D01*
X0035273Y0029093D02*
X0045440Y0029093D01*
X0045688Y0028494D02*
X0035273Y0028494D01*
X0035273Y0027896D02*
X0045985Y0027896D01*
X0046584Y0027297D02*
X0035273Y0027297D01*
X0035273Y0026699D02*
X0047182Y0026699D01*
X0058423Y0036098D02*
X0066966Y0044641D01*
X0071730Y0044641D01*
X0072084Y0044995D01*
X0072084Y0046472D01*
X0074053Y0046472D02*
X0074053Y0044641D01*
X0079102Y0041662D02*
X0081759Y0041662D01*
X0081302Y0042260D02*
X0079700Y0042260D01*
X0083186Y0045851D02*
X0083318Y0045851D01*
X0083271Y0046450D02*
X0083186Y0046450D01*
X0078625Y0035078D02*
X0077006Y0035078D01*
X0075407Y0033282D02*
X0073610Y0033282D01*
X0073911Y0032684D02*
X0075691Y0032684D01*
X0075443Y0032085D02*
X0074159Y0032085D01*
X0074401Y0031487D02*
X0075201Y0031487D01*
X0075201Y0030888D02*
X0074401Y0030888D01*
X0074401Y0030290D02*
X0075201Y0030290D01*
X0075201Y0029691D02*
X0074401Y0029691D01*
X0074161Y0029093D02*
X0075440Y0029093D01*
X0075688Y0028494D02*
X0073913Y0028494D01*
X0073616Y0027896D02*
X0075985Y0027896D01*
X0076584Y0027297D02*
X0073018Y0027297D01*
X0072419Y0026699D02*
X0077182Y0026699D01*
X0078610Y0026100D02*
X0070992Y0026100D01*
X0070058Y0025502D02*
X0069421Y0025502D01*
X0073717Y0025502D02*
X0074192Y0025502D01*
X0069801Y0030586D02*
X0064801Y0036098D01*
X0072413Y0034479D02*
X0074210Y0034479D01*
X0074809Y0033881D02*
X0073011Y0033881D01*
X0058305Y0045980D02*
X0058305Y0046472D01*
X0058305Y0045980D02*
X0057045Y0044720D01*
X0057399Y0044444D01*
X0056927Y0043972D01*
X0056716Y0046450D02*
X0054166Y0046450D01*
X0054764Y0047048D02*
X0054982Y0047048D01*
X0056277Y0050468D02*
X0052006Y0050468D01*
X0068832Y0050639D02*
X0069431Y0050639D01*
X0069431Y0050041D02*
X0068832Y0050041D01*
X0068832Y0049442D02*
X0069431Y0049442D01*
X0069431Y0049202D02*
X0068832Y0049202D01*
X0068832Y0059026D01*
X0069431Y0059026D01*
X0069431Y0049202D01*
X0069431Y0051238D02*
X0068832Y0051238D01*
X0068832Y0051836D02*
X0069431Y0051836D01*
X0069431Y0052435D02*
X0068832Y0052435D01*
X0068832Y0053033D02*
X0069431Y0053033D01*
X0069431Y0053632D02*
X0068832Y0053632D01*
X0068832Y0054230D02*
X0069431Y0054230D01*
X0069431Y0054829D02*
X0068832Y0054829D01*
X0068832Y0055427D02*
X0069431Y0055427D01*
X0069431Y0056026D02*
X0068832Y0056026D01*
X0068832Y0056624D02*
X0069431Y0056624D01*
X0069431Y0057223D02*
X0068832Y0057223D01*
X0068832Y0057821D02*
X0069431Y0057821D01*
X0069431Y0058420D02*
X0068832Y0058420D01*
X0068832Y0059018D02*
X0069431Y0059018D01*
X0069131Y0059326D02*
X0071100Y0061294D01*
X0071100Y0066806D01*
X0093457Y0032085D02*
X0093540Y0032085D01*
X0094501Y0030888D02*
X0095101Y0030888D01*
X0095101Y0030290D02*
X0094501Y0030290D01*
X0094501Y0029691D02*
X0095101Y0029691D01*
X0095101Y0029093D02*
X0094501Y0029093D01*
X0094501Y0028494D02*
X0095101Y0028494D01*
X0095101Y0027896D02*
X0094501Y0027896D01*
X0094501Y0027297D02*
X0090189Y0027297D01*
X0090189Y0026699D02*
X0092126Y0026699D01*
X0092126Y0027136D02*
X0092126Y0024929D01*
X0092201Y0024649D01*
X0092346Y0024399D01*
X0092551Y0024194D01*
X0092801Y0024049D01*
X0093081Y0023974D01*
X0094501Y0023974D01*
X0094501Y0027136D01*
X0092126Y0027136D01*
X0092126Y0027896D02*
X0090189Y0027896D01*
X0090189Y0028494D02*
X0092126Y0028494D01*
X0092126Y0029093D02*
X0090189Y0029093D01*
X0090189Y0029691D02*
X0092126Y0029691D01*
X0092240Y0030290D02*
X0090070Y0030290D01*
X0094501Y0026699D02*
X0095101Y0026699D01*
X0095101Y0027136D02*
X0095101Y0023974D01*
X0096520Y0023974D01*
X0096800Y0024049D01*
X0097051Y0024194D01*
X0097256Y0024399D01*
X0097401Y0024649D01*
X0097476Y0024929D01*
X0097476Y0027136D01*
X0095101Y0027136D01*
X0095101Y0027297D02*
X0099146Y0027297D01*
X0099146Y0026699D02*
X0097476Y0026699D01*
X0097476Y0026100D02*
X0099146Y0026100D01*
X0099146Y0025502D02*
X0097476Y0025502D01*
X0097469Y0024903D02*
X0099146Y0024903D01*
X0099146Y0024305D02*
X0097162Y0024305D01*
X0095101Y0024305D02*
X0094501Y0024305D01*
X0094501Y0024903D02*
X0095101Y0024903D01*
X0095101Y0025502D02*
X0094501Y0025502D01*
X0094501Y0026100D02*
X0095101Y0026100D01*
X0092126Y0026100D02*
X0090189Y0026100D01*
X0090189Y0025502D02*
X0092126Y0025502D01*
X0092133Y0024903D02*
X0090189Y0024903D01*
X0089913Y0024305D02*
X0092440Y0024305D01*
X0090031Y0023706D02*
X0099146Y0023706D01*
X0099146Y0023108D02*
X0090031Y0023108D01*
X0090031Y0022509D02*
X0099146Y0022509D01*
X0099146Y0021911D02*
X0089666Y0021911D01*
X0089068Y0021312D02*
X0099146Y0021312D01*
X0094235Y0020714D02*
X0093635Y0020714D01*
X0093635Y0020115D02*
X0094235Y0020115D01*
X0094235Y0019517D02*
X0093635Y0019517D01*
X0093635Y0018918D02*
X0094235Y0018918D01*
X0094235Y0018320D02*
X0093635Y0018320D01*
X0093635Y0017721D02*
X0094235Y0017721D01*
X0094235Y0017123D02*
X0093635Y0017123D01*
X0093635Y0016524D02*
X0094235Y0016524D01*
X0094235Y0015926D02*
X0093635Y0015926D01*
X0093635Y0015327D02*
X0094235Y0015327D01*
X0087520Y0019517D02*
X0085713Y0019517D01*
X0085780Y0020115D02*
X0087576Y0020115D01*
X0088073Y0020714D02*
X0085780Y0020714D01*
X0097476Y0027896D02*
X0099146Y0027896D01*
X0099146Y0028494D02*
X0097476Y0028494D01*
X0097476Y0029093D02*
X0099146Y0029093D01*
X0099146Y0029691D02*
X0097476Y0029691D01*
X0097362Y0030290D02*
X0099146Y0030290D01*
X0099146Y0030888D02*
X0096558Y0030888D01*
D24*
X0097872Y0032161D03*
X0094722Y0033735D03*
X0088029Y0023106D03*
X0086061Y0010901D03*
X0074643Y0027043D03*
X0064801Y0036098D03*
X0069525Y0038066D03*
X0078187Y0043578D03*
X0081021Y0040468D03*
X0083305Y0042948D03*
X0085273Y0046728D03*
X0091572Y0046334D03*
X0093069Y0054483D03*
X0088817Y0054995D03*
X0088817Y0060822D03*
X0088817Y0063657D03*
X0092360Y0065743D03*
X0093147Y0068775D03*
X0089998Y0068066D03*
X0088029Y0070586D03*
X0086061Y0073145D03*
X0084486Y0075665D03*
X0088423Y0077476D03*
X0075037Y0068775D03*
X0071100Y0066806D03*
X0067163Y0068775D03*
X0067163Y0064444D03*
X0075037Y0063263D03*
X0078620Y0059838D03*
X0078423Y0049995D03*
X0070313Y0050271D03*
X0061651Y0051846D03*
X0062045Y0056570D03*
X0052793Y0047909D03*
X0056927Y0043972D03*
X0060076Y0043972D03*
X0055746Y0039641D03*
X0044328Y0038854D03*
X0054958Y0027043D03*
X0039998Y0023499D03*
X0043541Y0010901D03*
X0056927Y0011294D03*
X0048659Y0063657D03*
X0045116Y0067200D03*
X0049919Y0072121D03*
X0052006Y0069956D03*
X0049250Y0075074D03*
X0049053Y0080192D03*
X0054958Y0084523D03*
X0064210Y0079562D03*
X0073462Y0079011D03*
D25*
X0076809Y0077830D02*
X0074053Y0075074D01*
X0074053Y0072180D01*
X0076809Y0077830D02*
X0077006Y0077830D01*
X0064210Y0077043D02*
X0063620Y0075861D01*
X0064210Y0074680D01*
X0064210Y0072180D01*
X0062242Y0072180D02*
X0062242Y0074483D01*
X0063620Y0075861D01*
X0064210Y0077043D02*
X0064210Y0079562D01*
X0058305Y0072180D02*
X0055214Y0075271D01*
X0054958Y0075861D01*
X0054171Y0075271D01*
X0054171Y0075074D01*
X0054171Y0066216D01*
X0054171Y0060310D01*
X0056277Y0060310D01*
X0056277Y0066216D02*
X0054171Y0066216D01*
X0045509Y0074680D02*
X0045509Y0085598D01*
X0035273Y0085598D01*
X0035273Y0074680D01*
X0045509Y0074680D01*
X0045509Y0075045D02*
X0035273Y0075045D01*
X0035273Y0076044D02*
X0045509Y0076044D01*
X0045509Y0077042D02*
X0035273Y0077042D01*
X0035273Y0078041D02*
X0045509Y0078041D01*
X0045509Y0079039D02*
X0035273Y0079039D01*
X0035273Y0080038D02*
X0045509Y0080038D01*
X0045509Y0081036D02*
X0035273Y0081036D01*
X0035273Y0082035D02*
X0045509Y0082035D01*
X0045509Y0083033D02*
X0035273Y0083033D01*
X0035273Y0084032D02*
X0045509Y0084032D01*
X0045509Y0085030D02*
X0035273Y0085030D01*
X0052793Y0048499D02*
X0052793Y0047909D01*
X0052793Y0048499D02*
X0056277Y0048499D01*
X0077990Y0046472D02*
X0077990Y0043775D01*
X0078187Y0043578D01*
X0083305Y0042948D02*
X0087439Y0042948D01*
X0087439Y0042200D01*
X0085273Y0050468D02*
X0081986Y0050468D01*
X0078423Y0049995D02*
X0078423Y0054405D01*
X0081986Y0054405D01*
X0081986Y0058342D02*
X0085588Y0058342D01*
X0085588Y0058066D01*
X0085588Y0058499D01*
X0091533Y0058499D01*
X0092360Y0059326D01*
X0092360Y0065743D01*
X0088817Y0061334D02*
X0088817Y0060822D01*
X0088817Y0061334D02*
X0086257Y0061334D01*
X0085588Y0062003D01*
X0093935Y0021531D02*
X0098659Y0021531D01*
X0098659Y0020078D01*
X0098501Y0020235D01*
X0096769Y0020235D01*
X0095545Y0019011D01*
X0095545Y0017279D01*
X0096769Y0016054D01*
X0098501Y0016054D01*
X0098659Y0016212D01*
X0098659Y0012676D01*
X0098501Y0012834D01*
X0096769Y0012834D01*
X0095545Y0011609D01*
X0095545Y0009877D01*
X0095777Y0009645D01*
X0092092Y0009645D01*
X0092324Y0009877D01*
X0092324Y0011609D01*
X0091100Y0012834D01*
X0089368Y0012834D01*
X0089210Y0012676D01*
X0089210Y0016212D01*
X0089368Y0016054D01*
X0091100Y0016054D01*
X0092324Y0017279D01*
X0092324Y0019011D01*
X0092167Y0019169D01*
X0093935Y0019169D01*
X0093935Y0021531D01*
X0093935Y0021126D02*
X0098659Y0021126D01*
X0098659Y0020127D02*
X0098610Y0020127D01*
X0096661Y0020127D02*
X0093935Y0020127D01*
X0092207Y0019129D02*
X0095663Y0019129D01*
X0095545Y0018130D02*
X0092324Y0018130D01*
X0092177Y0017131D02*
X0095692Y0017131D01*
X0096691Y0016133D02*
X0091178Y0016133D01*
X0089289Y0016133D02*
X0089210Y0016133D01*
X0089210Y0015134D02*
X0098659Y0015134D01*
X0098659Y0014136D02*
X0089210Y0014136D01*
X0089210Y0013137D02*
X0098659Y0013137D01*
X0096075Y0012139D02*
X0091795Y0012139D01*
X0092324Y0011140D02*
X0095545Y0011140D01*
X0095545Y0010142D02*
X0092324Y0010142D01*
X0098580Y0016133D02*
X0098659Y0016133D01*
D26*
X0093935Y0014444D02*
X0092754Y0015625D01*
X0086061Y0015625D01*
X0083305Y0022318D02*
X0083305Y0023106D01*
X0088029Y0023106D01*
X0088029Y0027436D01*
X0087714Y0027436D01*
X0076218Y0023499D02*
X0076218Y0022318D01*
X0076218Y0023499D02*
X0071887Y0023499D01*
X0059880Y0023106D02*
X0053383Y0023106D01*
X0045509Y0023106D01*
X0044328Y0023106D01*
X0035667Y0014444D01*
X0056927Y0011294D02*
X0059880Y0011294D01*
X0059880Y0013834D01*
D27*
X0076218Y0022318D02*
X0076415Y0023302D01*
X0076415Y0015625D01*
X0087439Y0033342D02*
X0087439Y0037712D01*
X0091769Y0033735D02*
X0094722Y0033735D01*
X0091769Y0033735D02*
X0091376Y0033342D01*
X0060273Y0072180D02*
X0060273Y0082751D01*
X0059880Y0082751D01*
D28*
X0087439Y0042200D02*
X0087439Y0037712D01*
X0071887Y0023499D02*
X0067360Y0023499D01*
X0067360Y0022928D01*
X0063620Y0022928D02*
X0063620Y0025074D01*
X0059880Y0025074D01*
X0059880Y0023106D01*
X0059880Y0022928D01*
D29*
X0067360Y0015428D02*
X0071100Y0019169D01*
X0071887Y0019562D01*
X0067360Y0015428D02*
X0067360Y0013834D01*
M02*
