G75*
%MOIN*%
%OFA0B0*%
%FSLAX25Y25*%
%IPPOS*%
%LPD*%
%AMOC8*
5,1,8,0,0,1.08239X$1,22.5*
%
%ADD10C,0.00000*%
%ADD11C,0.00443*%
%ADD12R,0.21654X0.21654*%
%ADD13R,0.02756X0.03150*%
%ADD14R,0.04331X0.07087*%
%ADD15R,0.03150X0.02756*%
%ADD16C,0.07794*%
%ADD17R,0.03150X0.03937*%
%ADD18R,0.11024X0.11024*%
%ADD19C,0.01575*%
%ADD20R,0.05118X0.03543*%
%ADD21R,0.03543X0.05118*%
%ADD22R,0.02717X0.06102*%
%ADD23R,0.02874X0.03661*%
D10*
X0029368Y0010142D02*
X0029368Y0088882D01*
X0100234Y0088882D01*
X0100234Y0010142D01*
X0029368Y0010142D01*
X0031375Y0012741D02*
X0031377Y0012789D01*
X0031383Y0012837D01*
X0031393Y0012884D01*
X0031406Y0012930D01*
X0031424Y0012975D01*
X0031444Y0013019D01*
X0031469Y0013061D01*
X0031497Y0013100D01*
X0031527Y0013137D01*
X0031561Y0013171D01*
X0031598Y0013203D01*
X0031636Y0013232D01*
X0031677Y0013257D01*
X0031720Y0013279D01*
X0031765Y0013297D01*
X0031811Y0013311D01*
X0031858Y0013322D01*
X0031906Y0013329D01*
X0031954Y0013332D01*
X0032002Y0013331D01*
X0032050Y0013326D01*
X0032098Y0013317D01*
X0032144Y0013305D01*
X0032189Y0013288D01*
X0032233Y0013268D01*
X0032275Y0013245D01*
X0032315Y0013218D01*
X0032353Y0013188D01*
X0032388Y0013155D01*
X0032420Y0013119D01*
X0032450Y0013081D01*
X0032476Y0013040D01*
X0032498Y0012997D01*
X0032518Y0012953D01*
X0032533Y0012908D01*
X0032545Y0012861D01*
X0032553Y0012813D01*
X0032557Y0012765D01*
X0032557Y0012717D01*
X0032553Y0012669D01*
X0032545Y0012621D01*
X0032533Y0012574D01*
X0032518Y0012529D01*
X0032498Y0012485D01*
X0032476Y0012442D01*
X0032450Y0012401D01*
X0032420Y0012363D01*
X0032388Y0012327D01*
X0032353Y0012294D01*
X0032315Y0012264D01*
X0032275Y0012237D01*
X0032233Y0012214D01*
X0032189Y0012194D01*
X0032144Y0012177D01*
X0032098Y0012165D01*
X0032050Y0012156D01*
X0032002Y0012151D01*
X0031954Y0012150D01*
X0031906Y0012153D01*
X0031858Y0012160D01*
X0031811Y0012171D01*
X0031765Y0012185D01*
X0031720Y0012203D01*
X0031677Y0012225D01*
X0031636Y0012250D01*
X0031598Y0012279D01*
X0031561Y0012311D01*
X0031527Y0012345D01*
X0031497Y0012382D01*
X0031469Y0012421D01*
X0031444Y0012463D01*
X0031424Y0012507D01*
X0031406Y0012552D01*
X0031393Y0012598D01*
X0031383Y0012645D01*
X0031377Y0012693D01*
X0031375Y0012741D01*
X0038777Y0012741D02*
X0038779Y0012789D01*
X0038785Y0012837D01*
X0038795Y0012884D01*
X0038808Y0012930D01*
X0038826Y0012975D01*
X0038846Y0013019D01*
X0038871Y0013061D01*
X0038899Y0013100D01*
X0038929Y0013137D01*
X0038963Y0013171D01*
X0039000Y0013203D01*
X0039038Y0013232D01*
X0039079Y0013257D01*
X0039122Y0013279D01*
X0039167Y0013297D01*
X0039213Y0013311D01*
X0039260Y0013322D01*
X0039308Y0013329D01*
X0039356Y0013332D01*
X0039404Y0013331D01*
X0039452Y0013326D01*
X0039500Y0013317D01*
X0039546Y0013305D01*
X0039591Y0013288D01*
X0039635Y0013268D01*
X0039677Y0013245D01*
X0039717Y0013218D01*
X0039755Y0013188D01*
X0039790Y0013155D01*
X0039822Y0013119D01*
X0039852Y0013081D01*
X0039878Y0013040D01*
X0039900Y0012997D01*
X0039920Y0012953D01*
X0039935Y0012908D01*
X0039947Y0012861D01*
X0039955Y0012813D01*
X0039959Y0012765D01*
X0039959Y0012717D01*
X0039955Y0012669D01*
X0039947Y0012621D01*
X0039935Y0012574D01*
X0039920Y0012529D01*
X0039900Y0012485D01*
X0039878Y0012442D01*
X0039852Y0012401D01*
X0039822Y0012363D01*
X0039790Y0012327D01*
X0039755Y0012294D01*
X0039717Y0012264D01*
X0039677Y0012237D01*
X0039635Y0012214D01*
X0039591Y0012194D01*
X0039546Y0012177D01*
X0039500Y0012165D01*
X0039452Y0012156D01*
X0039404Y0012151D01*
X0039356Y0012150D01*
X0039308Y0012153D01*
X0039260Y0012160D01*
X0039213Y0012171D01*
X0039167Y0012185D01*
X0039122Y0012203D01*
X0039079Y0012225D01*
X0039038Y0012250D01*
X0039000Y0012279D01*
X0038963Y0012311D01*
X0038929Y0012345D01*
X0038899Y0012382D01*
X0038871Y0012421D01*
X0038846Y0012463D01*
X0038826Y0012507D01*
X0038808Y0012552D01*
X0038795Y0012598D01*
X0038785Y0012645D01*
X0038779Y0012693D01*
X0038777Y0012741D01*
X0038777Y0020142D02*
X0038779Y0020190D01*
X0038785Y0020238D01*
X0038795Y0020285D01*
X0038808Y0020331D01*
X0038826Y0020376D01*
X0038846Y0020420D01*
X0038871Y0020462D01*
X0038899Y0020501D01*
X0038929Y0020538D01*
X0038963Y0020572D01*
X0039000Y0020604D01*
X0039038Y0020633D01*
X0039079Y0020658D01*
X0039122Y0020680D01*
X0039167Y0020698D01*
X0039213Y0020712D01*
X0039260Y0020723D01*
X0039308Y0020730D01*
X0039356Y0020733D01*
X0039404Y0020732D01*
X0039452Y0020727D01*
X0039500Y0020718D01*
X0039546Y0020706D01*
X0039591Y0020689D01*
X0039635Y0020669D01*
X0039677Y0020646D01*
X0039717Y0020619D01*
X0039755Y0020589D01*
X0039790Y0020556D01*
X0039822Y0020520D01*
X0039852Y0020482D01*
X0039878Y0020441D01*
X0039900Y0020398D01*
X0039920Y0020354D01*
X0039935Y0020309D01*
X0039947Y0020262D01*
X0039955Y0020214D01*
X0039959Y0020166D01*
X0039959Y0020118D01*
X0039955Y0020070D01*
X0039947Y0020022D01*
X0039935Y0019975D01*
X0039920Y0019930D01*
X0039900Y0019886D01*
X0039878Y0019843D01*
X0039852Y0019802D01*
X0039822Y0019764D01*
X0039790Y0019728D01*
X0039755Y0019695D01*
X0039717Y0019665D01*
X0039677Y0019638D01*
X0039635Y0019615D01*
X0039591Y0019595D01*
X0039546Y0019578D01*
X0039500Y0019566D01*
X0039452Y0019557D01*
X0039404Y0019552D01*
X0039356Y0019551D01*
X0039308Y0019554D01*
X0039260Y0019561D01*
X0039213Y0019572D01*
X0039167Y0019586D01*
X0039122Y0019604D01*
X0039079Y0019626D01*
X0039038Y0019651D01*
X0039000Y0019680D01*
X0038963Y0019712D01*
X0038929Y0019746D01*
X0038899Y0019783D01*
X0038871Y0019822D01*
X0038846Y0019864D01*
X0038826Y0019908D01*
X0038808Y0019953D01*
X0038795Y0019999D01*
X0038785Y0020046D01*
X0038779Y0020094D01*
X0038777Y0020142D01*
X0031375Y0020142D02*
X0031377Y0020190D01*
X0031383Y0020238D01*
X0031393Y0020285D01*
X0031406Y0020331D01*
X0031424Y0020376D01*
X0031444Y0020420D01*
X0031469Y0020462D01*
X0031497Y0020501D01*
X0031527Y0020538D01*
X0031561Y0020572D01*
X0031598Y0020604D01*
X0031636Y0020633D01*
X0031677Y0020658D01*
X0031720Y0020680D01*
X0031765Y0020698D01*
X0031811Y0020712D01*
X0031858Y0020723D01*
X0031906Y0020730D01*
X0031954Y0020733D01*
X0032002Y0020732D01*
X0032050Y0020727D01*
X0032098Y0020718D01*
X0032144Y0020706D01*
X0032189Y0020689D01*
X0032233Y0020669D01*
X0032275Y0020646D01*
X0032315Y0020619D01*
X0032353Y0020589D01*
X0032388Y0020556D01*
X0032420Y0020520D01*
X0032450Y0020482D01*
X0032476Y0020441D01*
X0032498Y0020398D01*
X0032518Y0020354D01*
X0032533Y0020309D01*
X0032545Y0020262D01*
X0032553Y0020214D01*
X0032557Y0020166D01*
X0032557Y0020118D01*
X0032553Y0020070D01*
X0032545Y0020022D01*
X0032533Y0019975D01*
X0032518Y0019930D01*
X0032498Y0019886D01*
X0032476Y0019843D01*
X0032450Y0019802D01*
X0032420Y0019764D01*
X0032388Y0019728D01*
X0032353Y0019695D01*
X0032315Y0019665D01*
X0032275Y0019638D01*
X0032233Y0019615D01*
X0032189Y0019595D01*
X0032144Y0019578D01*
X0032098Y0019566D01*
X0032050Y0019557D01*
X0032002Y0019552D01*
X0031954Y0019551D01*
X0031906Y0019554D01*
X0031858Y0019561D01*
X0031811Y0019572D01*
X0031765Y0019586D01*
X0031720Y0019604D01*
X0031677Y0019626D01*
X0031636Y0019651D01*
X0031598Y0019680D01*
X0031561Y0019712D01*
X0031527Y0019746D01*
X0031497Y0019783D01*
X0031469Y0019822D01*
X0031444Y0019864D01*
X0031424Y0019908D01*
X0031406Y0019953D01*
X0031393Y0019999D01*
X0031383Y0020046D01*
X0031377Y0020094D01*
X0031375Y0020142D01*
X0089643Y0020142D02*
X0089645Y0020190D01*
X0089651Y0020238D01*
X0089661Y0020285D01*
X0089674Y0020331D01*
X0089692Y0020376D01*
X0089712Y0020420D01*
X0089737Y0020462D01*
X0089765Y0020501D01*
X0089795Y0020538D01*
X0089829Y0020572D01*
X0089866Y0020604D01*
X0089904Y0020633D01*
X0089945Y0020658D01*
X0089988Y0020680D01*
X0090033Y0020698D01*
X0090079Y0020712D01*
X0090126Y0020723D01*
X0090174Y0020730D01*
X0090222Y0020733D01*
X0090270Y0020732D01*
X0090318Y0020727D01*
X0090366Y0020718D01*
X0090412Y0020706D01*
X0090457Y0020689D01*
X0090501Y0020669D01*
X0090543Y0020646D01*
X0090583Y0020619D01*
X0090621Y0020589D01*
X0090656Y0020556D01*
X0090688Y0020520D01*
X0090718Y0020482D01*
X0090744Y0020441D01*
X0090766Y0020398D01*
X0090786Y0020354D01*
X0090801Y0020309D01*
X0090813Y0020262D01*
X0090821Y0020214D01*
X0090825Y0020166D01*
X0090825Y0020118D01*
X0090821Y0020070D01*
X0090813Y0020022D01*
X0090801Y0019975D01*
X0090786Y0019930D01*
X0090766Y0019886D01*
X0090744Y0019843D01*
X0090718Y0019802D01*
X0090688Y0019764D01*
X0090656Y0019728D01*
X0090621Y0019695D01*
X0090583Y0019665D01*
X0090543Y0019638D01*
X0090501Y0019615D01*
X0090457Y0019595D01*
X0090412Y0019578D01*
X0090366Y0019566D01*
X0090318Y0019557D01*
X0090270Y0019552D01*
X0090222Y0019551D01*
X0090174Y0019554D01*
X0090126Y0019561D01*
X0090079Y0019572D01*
X0090033Y0019586D01*
X0089988Y0019604D01*
X0089945Y0019626D01*
X0089904Y0019651D01*
X0089866Y0019680D01*
X0089829Y0019712D01*
X0089795Y0019746D01*
X0089765Y0019783D01*
X0089737Y0019822D01*
X0089712Y0019864D01*
X0089692Y0019908D01*
X0089674Y0019953D01*
X0089661Y0019999D01*
X0089651Y0020046D01*
X0089645Y0020094D01*
X0089643Y0020142D01*
X0089643Y0012741D02*
X0089645Y0012789D01*
X0089651Y0012837D01*
X0089661Y0012884D01*
X0089674Y0012930D01*
X0089692Y0012975D01*
X0089712Y0013019D01*
X0089737Y0013061D01*
X0089765Y0013100D01*
X0089795Y0013137D01*
X0089829Y0013171D01*
X0089866Y0013203D01*
X0089904Y0013232D01*
X0089945Y0013257D01*
X0089988Y0013279D01*
X0090033Y0013297D01*
X0090079Y0013311D01*
X0090126Y0013322D01*
X0090174Y0013329D01*
X0090222Y0013332D01*
X0090270Y0013331D01*
X0090318Y0013326D01*
X0090366Y0013317D01*
X0090412Y0013305D01*
X0090457Y0013288D01*
X0090501Y0013268D01*
X0090543Y0013245D01*
X0090583Y0013218D01*
X0090621Y0013188D01*
X0090656Y0013155D01*
X0090688Y0013119D01*
X0090718Y0013081D01*
X0090744Y0013040D01*
X0090766Y0012997D01*
X0090786Y0012953D01*
X0090801Y0012908D01*
X0090813Y0012861D01*
X0090821Y0012813D01*
X0090825Y0012765D01*
X0090825Y0012717D01*
X0090821Y0012669D01*
X0090813Y0012621D01*
X0090801Y0012574D01*
X0090786Y0012529D01*
X0090766Y0012485D01*
X0090744Y0012442D01*
X0090718Y0012401D01*
X0090688Y0012363D01*
X0090656Y0012327D01*
X0090621Y0012294D01*
X0090583Y0012264D01*
X0090543Y0012237D01*
X0090501Y0012214D01*
X0090457Y0012194D01*
X0090412Y0012177D01*
X0090366Y0012165D01*
X0090318Y0012156D01*
X0090270Y0012151D01*
X0090222Y0012150D01*
X0090174Y0012153D01*
X0090126Y0012160D01*
X0090079Y0012171D01*
X0090033Y0012185D01*
X0089988Y0012203D01*
X0089945Y0012225D01*
X0089904Y0012250D01*
X0089866Y0012279D01*
X0089829Y0012311D01*
X0089795Y0012345D01*
X0089765Y0012382D01*
X0089737Y0012421D01*
X0089712Y0012463D01*
X0089692Y0012507D01*
X0089674Y0012552D01*
X0089661Y0012598D01*
X0089651Y0012645D01*
X0089645Y0012693D01*
X0089643Y0012741D01*
X0097044Y0012741D02*
X0097046Y0012789D01*
X0097052Y0012837D01*
X0097062Y0012884D01*
X0097075Y0012930D01*
X0097093Y0012975D01*
X0097113Y0013019D01*
X0097138Y0013061D01*
X0097166Y0013100D01*
X0097196Y0013137D01*
X0097230Y0013171D01*
X0097267Y0013203D01*
X0097305Y0013232D01*
X0097346Y0013257D01*
X0097389Y0013279D01*
X0097434Y0013297D01*
X0097480Y0013311D01*
X0097527Y0013322D01*
X0097575Y0013329D01*
X0097623Y0013332D01*
X0097671Y0013331D01*
X0097719Y0013326D01*
X0097767Y0013317D01*
X0097813Y0013305D01*
X0097858Y0013288D01*
X0097902Y0013268D01*
X0097944Y0013245D01*
X0097984Y0013218D01*
X0098022Y0013188D01*
X0098057Y0013155D01*
X0098089Y0013119D01*
X0098119Y0013081D01*
X0098145Y0013040D01*
X0098167Y0012997D01*
X0098187Y0012953D01*
X0098202Y0012908D01*
X0098214Y0012861D01*
X0098222Y0012813D01*
X0098226Y0012765D01*
X0098226Y0012717D01*
X0098222Y0012669D01*
X0098214Y0012621D01*
X0098202Y0012574D01*
X0098187Y0012529D01*
X0098167Y0012485D01*
X0098145Y0012442D01*
X0098119Y0012401D01*
X0098089Y0012363D01*
X0098057Y0012327D01*
X0098022Y0012294D01*
X0097984Y0012264D01*
X0097944Y0012237D01*
X0097902Y0012214D01*
X0097858Y0012194D01*
X0097813Y0012177D01*
X0097767Y0012165D01*
X0097719Y0012156D01*
X0097671Y0012151D01*
X0097623Y0012150D01*
X0097575Y0012153D01*
X0097527Y0012160D01*
X0097480Y0012171D01*
X0097434Y0012185D01*
X0097389Y0012203D01*
X0097346Y0012225D01*
X0097305Y0012250D01*
X0097267Y0012279D01*
X0097230Y0012311D01*
X0097196Y0012345D01*
X0097166Y0012382D01*
X0097138Y0012421D01*
X0097113Y0012463D01*
X0097093Y0012507D01*
X0097075Y0012552D01*
X0097062Y0012598D01*
X0097052Y0012645D01*
X0097046Y0012693D01*
X0097044Y0012741D01*
X0097044Y0020142D02*
X0097046Y0020190D01*
X0097052Y0020238D01*
X0097062Y0020285D01*
X0097075Y0020331D01*
X0097093Y0020376D01*
X0097113Y0020420D01*
X0097138Y0020462D01*
X0097166Y0020501D01*
X0097196Y0020538D01*
X0097230Y0020572D01*
X0097267Y0020604D01*
X0097305Y0020633D01*
X0097346Y0020658D01*
X0097389Y0020680D01*
X0097434Y0020698D01*
X0097480Y0020712D01*
X0097527Y0020723D01*
X0097575Y0020730D01*
X0097623Y0020733D01*
X0097671Y0020732D01*
X0097719Y0020727D01*
X0097767Y0020718D01*
X0097813Y0020706D01*
X0097858Y0020689D01*
X0097902Y0020669D01*
X0097944Y0020646D01*
X0097984Y0020619D01*
X0098022Y0020589D01*
X0098057Y0020556D01*
X0098089Y0020520D01*
X0098119Y0020482D01*
X0098145Y0020441D01*
X0098167Y0020398D01*
X0098187Y0020354D01*
X0098202Y0020309D01*
X0098214Y0020262D01*
X0098222Y0020214D01*
X0098226Y0020166D01*
X0098226Y0020118D01*
X0098222Y0020070D01*
X0098214Y0020022D01*
X0098202Y0019975D01*
X0098187Y0019930D01*
X0098167Y0019886D01*
X0098145Y0019843D01*
X0098119Y0019802D01*
X0098089Y0019764D01*
X0098057Y0019728D01*
X0098022Y0019695D01*
X0097984Y0019665D01*
X0097944Y0019638D01*
X0097902Y0019615D01*
X0097858Y0019595D01*
X0097813Y0019578D01*
X0097767Y0019566D01*
X0097719Y0019557D01*
X0097671Y0019552D01*
X0097623Y0019551D01*
X0097575Y0019554D01*
X0097527Y0019561D01*
X0097480Y0019572D01*
X0097434Y0019586D01*
X0097389Y0019604D01*
X0097346Y0019626D01*
X0097305Y0019651D01*
X0097267Y0019680D01*
X0097230Y0019712D01*
X0097196Y0019746D01*
X0097166Y0019783D01*
X0097138Y0019822D01*
X0097113Y0019864D01*
X0097093Y0019908D01*
X0097075Y0019953D01*
X0097062Y0019999D01*
X0097052Y0020046D01*
X0097046Y0020094D01*
X0097044Y0020142D01*
D11*
X0079293Y0047608D02*
X0079293Y0049330D01*
X0080623Y0049330D01*
X0080623Y0047608D01*
X0079293Y0047608D01*
X0079293Y0048050D02*
X0080623Y0048050D01*
X0080623Y0048492D02*
X0079293Y0048492D01*
X0079293Y0048934D02*
X0080623Y0048934D01*
X0077325Y0049330D02*
X0077325Y0047608D01*
X0077325Y0049330D02*
X0078655Y0049330D01*
X0078655Y0047608D01*
X0077325Y0047608D01*
X0077325Y0048050D02*
X0078655Y0048050D01*
X0078655Y0048492D02*
X0077325Y0048492D01*
X0077325Y0048934D02*
X0078655Y0048934D01*
X0075356Y0049330D02*
X0075356Y0047608D01*
X0075356Y0049330D02*
X0076686Y0049330D01*
X0076686Y0047608D01*
X0075356Y0047608D01*
X0075356Y0048050D02*
X0076686Y0048050D01*
X0076686Y0048492D02*
X0075356Y0048492D01*
X0075356Y0048934D02*
X0076686Y0048934D01*
X0073388Y0049330D02*
X0073388Y0047608D01*
X0073388Y0049330D02*
X0074718Y0049330D01*
X0074718Y0047608D01*
X0073388Y0047608D01*
X0073388Y0048050D02*
X0074718Y0048050D01*
X0074718Y0048492D02*
X0073388Y0048492D01*
X0073388Y0048934D02*
X0074718Y0048934D01*
X0071419Y0049330D02*
X0071419Y0047608D01*
X0071419Y0049330D02*
X0072749Y0049330D01*
X0072749Y0047608D01*
X0071419Y0047608D01*
X0071419Y0048050D02*
X0072749Y0048050D01*
X0072749Y0048492D02*
X0071419Y0048492D01*
X0071419Y0048934D02*
X0072749Y0048934D01*
X0069451Y0049330D02*
X0069451Y0047608D01*
X0069451Y0049330D02*
X0070781Y0049330D01*
X0070781Y0047608D01*
X0069451Y0047608D01*
X0069451Y0048050D02*
X0070781Y0048050D01*
X0070781Y0048492D02*
X0069451Y0048492D01*
X0069451Y0048934D02*
X0070781Y0048934D01*
X0067482Y0049330D02*
X0067482Y0047608D01*
X0067482Y0049330D02*
X0068812Y0049330D01*
X0068812Y0047608D01*
X0067482Y0047608D01*
X0067482Y0048050D02*
X0068812Y0048050D01*
X0068812Y0048492D02*
X0067482Y0048492D01*
X0067482Y0048934D02*
X0068812Y0048934D01*
X0065514Y0049330D02*
X0065514Y0047608D01*
X0065514Y0049330D02*
X0066844Y0049330D01*
X0066844Y0047608D01*
X0065514Y0047608D01*
X0065514Y0048050D02*
X0066844Y0048050D01*
X0066844Y0048492D02*
X0065514Y0048492D01*
X0065514Y0048934D02*
X0066844Y0048934D01*
X0063545Y0049330D02*
X0063545Y0047608D01*
X0063545Y0049330D02*
X0064875Y0049330D01*
X0064875Y0047608D01*
X0063545Y0047608D01*
X0063545Y0048050D02*
X0064875Y0048050D01*
X0064875Y0048492D02*
X0063545Y0048492D01*
X0063545Y0048934D02*
X0064875Y0048934D01*
X0061577Y0049330D02*
X0061577Y0047608D01*
X0061577Y0049330D02*
X0062907Y0049330D01*
X0062907Y0047608D01*
X0061577Y0047608D01*
X0061577Y0048050D02*
X0062907Y0048050D01*
X0062907Y0048492D02*
X0061577Y0048492D01*
X0061577Y0048934D02*
X0062907Y0048934D01*
X0059608Y0049330D02*
X0059608Y0047608D01*
X0059608Y0049330D02*
X0060938Y0049330D01*
X0060938Y0047608D01*
X0059608Y0047608D01*
X0059608Y0048050D02*
X0060938Y0048050D01*
X0060938Y0048492D02*
X0059608Y0048492D01*
X0059608Y0048934D02*
X0060938Y0048934D01*
X0057640Y0049330D02*
X0057640Y0047608D01*
X0057640Y0049330D02*
X0058970Y0049330D01*
X0058970Y0047608D01*
X0057640Y0047608D01*
X0057640Y0048050D02*
X0058970Y0048050D01*
X0058970Y0048492D02*
X0057640Y0048492D01*
X0057640Y0048934D02*
X0058970Y0048934D01*
X0057138Y0051162D02*
X0055416Y0051162D01*
X0057138Y0051162D02*
X0057138Y0049832D01*
X0055416Y0049832D01*
X0055416Y0051162D01*
X0055416Y0050274D02*
X0057138Y0050274D01*
X0057138Y0050716D02*
X0055416Y0050716D01*
X0055416Y0051158D02*
X0057138Y0051158D01*
X0057138Y0053130D02*
X0055416Y0053130D01*
X0057138Y0053130D02*
X0057138Y0051800D01*
X0055416Y0051800D01*
X0055416Y0053130D01*
X0055416Y0052242D02*
X0057138Y0052242D01*
X0057138Y0052684D02*
X0055416Y0052684D01*
X0055416Y0053126D02*
X0057138Y0053126D01*
X0057138Y0055099D02*
X0055416Y0055099D01*
X0057138Y0055099D02*
X0057138Y0053769D01*
X0055416Y0053769D01*
X0055416Y0055099D01*
X0055416Y0054211D02*
X0057138Y0054211D01*
X0057138Y0054653D02*
X0055416Y0054653D01*
X0055416Y0055095D02*
X0057138Y0055095D01*
X0057138Y0057067D02*
X0055416Y0057067D01*
X0057138Y0057067D02*
X0057138Y0055737D01*
X0055416Y0055737D01*
X0055416Y0057067D01*
X0055416Y0056179D02*
X0057138Y0056179D01*
X0057138Y0056621D02*
X0055416Y0056621D01*
X0055416Y0057063D02*
X0057138Y0057063D01*
X0057138Y0059036D02*
X0055416Y0059036D01*
X0057138Y0059036D02*
X0057138Y0057706D01*
X0055416Y0057706D01*
X0055416Y0059036D01*
X0055416Y0058148D02*
X0057138Y0058148D01*
X0057138Y0058590D02*
X0055416Y0058590D01*
X0055416Y0059032D02*
X0057138Y0059032D01*
X0057138Y0061004D02*
X0055416Y0061004D01*
X0057138Y0061004D02*
X0057138Y0059674D01*
X0055416Y0059674D01*
X0055416Y0061004D01*
X0055416Y0060116D02*
X0057138Y0060116D01*
X0057138Y0060558D02*
X0055416Y0060558D01*
X0055416Y0061000D02*
X0057138Y0061000D01*
X0057138Y0062973D02*
X0055416Y0062973D01*
X0057138Y0062973D02*
X0057138Y0061643D01*
X0055416Y0061643D01*
X0055416Y0062973D01*
X0055416Y0062085D02*
X0057138Y0062085D01*
X0057138Y0062527D02*
X0055416Y0062527D01*
X0055416Y0062969D02*
X0057138Y0062969D01*
X0057138Y0064941D02*
X0055416Y0064941D01*
X0057138Y0064941D02*
X0057138Y0063611D01*
X0055416Y0063611D01*
X0055416Y0064941D01*
X0055416Y0064053D02*
X0057138Y0064053D01*
X0057138Y0064495D02*
X0055416Y0064495D01*
X0055416Y0064937D02*
X0057138Y0064937D01*
X0057138Y0066910D02*
X0055416Y0066910D01*
X0057138Y0066910D02*
X0057138Y0065580D01*
X0055416Y0065580D01*
X0055416Y0066910D01*
X0055416Y0066022D02*
X0057138Y0066022D01*
X0057138Y0066464D02*
X0055416Y0066464D01*
X0055416Y0066906D02*
X0057138Y0066906D01*
X0057138Y0068878D02*
X0055416Y0068878D01*
X0057138Y0068878D02*
X0057138Y0067548D01*
X0055416Y0067548D01*
X0055416Y0068878D01*
X0055416Y0067990D02*
X0057138Y0067990D01*
X0057138Y0068432D02*
X0055416Y0068432D01*
X0055416Y0068874D02*
X0057138Y0068874D01*
X0057138Y0070847D02*
X0055416Y0070847D01*
X0057138Y0070847D02*
X0057138Y0069517D01*
X0055416Y0069517D01*
X0055416Y0070847D01*
X0055416Y0069959D02*
X0057138Y0069959D01*
X0057138Y0070401D02*
X0055416Y0070401D01*
X0055416Y0070843D02*
X0057138Y0070843D01*
X0057138Y0072815D02*
X0055416Y0072815D01*
X0057138Y0072815D02*
X0057138Y0071485D01*
X0055416Y0071485D01*
X0055416Y0072815D01*
X0055416Y0071927D02*
X0057138Y0071927D01*
X0057138Y0072369D02*
X0055416Y0072369D01*
X0055416Y0072811D02*
X0057138Y0072811D01*
X0058970Y0073317D02*
X0058970Y0075039D01*
X0058970Y0073317D02*
X0057640Y0073317D01*
X0057640Y0075039D01*
X0058970Y0075039D01*
X0058970Y0073759D02*
X0057640Y0073759D01*
X0057640Y0074201D02*
X0058970Y0074201D01*
X0058970Y0074643D02*
X0057640Y0074643D01*
X0060938Y0075039D02*
X0060938Y0073317D01*
X0059608Y0073317D01*
X0059608Y0075039D01*
X0060938Y0075039D01*
X0060938Y0073759D02*
X0059608Y0073759D01*
X0059608Y0074201D02*
X0060938Y0074201D01*
X0060938Y0074643D02*
X0059608Y0074643D01*
X0062907Y0075039D02*
X0062907Y0073317D01*
X0061577Y0073317D01*
X0061577Y0075039D01*
X0062907Y0075039D01*
X0062907Y0073759D02*
X0061577Y0073759D01*
X0061577Y0074201D02*
X0062907Y0074201D01*
X0062907Y0074643D02*
X0061577Y0074643D01*
X0064875Y0075039D02*
X0064875Y0073317D01*
X0063545Y0073317D01*
X0063545Y0075039D01*
X0064875Y0075039D01*
X0064875Y0073759D02*
X0063545Y0073759D01*
X0063545Y0074201D02*
X0064875Y0074201D01*
X0064875Y0074643D02*
X0063545Y0074643D01*
X0066844Y0075039D02*
X0066844Y0073317D01*
X0065514Y0073317D01*
X0065514Y0075039D01*
X0066844Y0075039D01*
X0066844Y0073759D02*
X0065514Y0073759D01*
X0065514Y0074201D02*
X0066844Y0074201D01*
X0066844Y0074643D02*
X0065514Y0074643D01*
X0068812Y0075039D02*
X0068812Y0073317D01*
X0067482Y0073317D01*
X0067482Y0075039D01*
X0068812Y0075039D01*
X0068812Y0073759D02*
X0067482Y0073759D01*
X0067482Y0074201D02*
X0068812Y0074201D01*
X0068812Y0074643D02*
X0067482Y0074643D01*
X0070781Y0075039D02*
X0070781Y0073317D01*
X0069451Y0073317D01*
X0069451Y0075039D01*
X0070781Y0075039D01*
X0070781Y0073759D02*
X0069451Y0073759D01*
X0069451Y0074201D02*
X0070781Y0074201D01*
X0070781Y0074643D02*
X0069451Y0074643D01*
X0072749Y0075039D02*
X0072749Y0073317D01*
X0071419Y0073317D01*
X0071419Y0075039D01*
X0072749Y0075039D01*
X0072749Y0073759D02*
X0071419Y0073759D01*
X0071419Y0074201D02*
X0072749Y0074201D01*
X0072749Y0074643D02*
X0071419Y0074643D01*
X0074718Y0075039D02*
X0074718Y0073317D01*
X0073388Y0073317D01*
X0073388Y0075039D01*
X0074718Y0075039D01*
X0074718Y0073759D02*
X0073388Y0073759D01*
X0073388Y0074201D02*
X0074718Y0074201D01*
X0074718Y0074643D02*
X0073388Y0074643D01*
X0076686Y0075039D02*
X0076686Y0073317D01*
X0075356Y0073317D01*
X0075356Y0075039D01*
X0076686Y0075039D01*
X0076686Y0073759D02*
X0075356Y0073759D01*
X0075356Y0074201D02*
X0076686Y0074201D01*
X0076686Y0074643D02*
X0075356Y0074643D01*
X0078655Y0075039D02*
X0078655Y0073317D01*
X0077325Y0073317D01*
X0077325Y0075039D01*
X0078655Y0075039D01*
X0078655Y0073759D02*
X0077325Y0073759D01*
X0077325Y0074201D02*
X0078655Y0074201D01*
X0078655Y0074643D02*
X0077325Y0074643D01*
X0080623Y0075039D02*
X0080623Y0073317D01*
X0079293Y0073317D01*
X0079293Y0075039D01*
X0080623Y0075039D01*
X0080623Y0073759D02*
X0079293Y0073759D01*
X0079293Y0074201D02*
X0080623Y0074201D01*
X0080623Y0074643D02*
X0079293Y0074643D01*
X0081125Y0071485D02*
X0082847Y0071485D01*
X0081125Y0071485D02*
X0081125Y0072815D01*
X0082847Y0072815D01*
X0082847Y0071485D01*
X0082847Y0071927D02*
X0081125Y0071927D01*
X0081125Y0072369D02*
X0082847Y0072369D01*
X0082847Y0072811D02*
X0081125Y0072811D01*
X0081125Y0069517D02*
X0082847Y0069517D01*
X0081125Y0069517D02*
X0081125Y0070847D01*
X0082847Y0070847D01*
X0082847Y0069517D01*
X0082847Y0069959D02*
X0081125Y0069959D01*
X0081125Y0070401D02*
X0082847Y0070401D01*
X0082847Y0070843D02*
X0081125Y0070843D01*
X0081125Y0067548D02*
X0082847Y0067548D01*
X0081125Y0067548D02*
X0081125Y0068878D01*
X0082847Y0068878D01*
X0082847Y0067548D01*
X0082847Y0067990D02*
X0081125Y0067990D01*
X0081125Y0068432D02*
X0082847Y0068432D01*
X0082847Y0068874D02*
X0081125Y0068874D01*
X0081125Y0065580D02*
X0082847Y0065580D01*
X0081125Y0065580D02*
X0081125Y0066910D01*
X0082847Y0066910D01*
X0082847Y0065580D01*
X0082847Y0066022D02*
X0081125Y0066022D01*
X0081125Y0066464D02*
X0082847Y0066464D01*
X0082847Y0066906D02*
X0081125Y0066906D01*
X0081125Y0063611D02*
X0082847Y0063611D01*
X0081125Y0063611D02*
X0081125Y0064941D01*
X0082847Y0064941D01*
X0082847Y0063611D01*
X0082847Y0064053D02*
X0081125Y0064053D01*
X0081125Y0064495D02*
X0082847Y0064495D01*
X0082847Y0064937D02*
X0081125Y0064937D01*
X0081125Y0061643D02*
X0082847Y0061643D01*
X0081125Y0061643D02*
X0081125Y0062973D01*
X0082847Y0062973D01*
X0082847Y0061643D01*
X0082847Y0062085D02*
X0081125Y0062085D01*
X0081125Y0062527D02*
X0082847Y0062527D01*
X0082847Y0062969D02*
X0081125Y0062969D01*
X0081125Y0059674D02*
X0082847Y0059674D01*
X0081125Y0059674D02*
X0081125Y0061004D01*
X0082847Y0061004D01*
X0082847Y0059674D01*
X0082847Y0060116D02*
X0081125Y0060116D01*
X0081125Y0060558D02*
X0082847Y0060558D01*
X0082847Y0061000D02*
X0081125Y0061000D01*
X0081125Y0057706D02*
X0082847Y0057706D01*
X0081125Y0057706D02*
X0081125Y0059036D01*
X0082847Y0059036D01*
X0082847Y0057706D01*
X0082847Y0058148D02*
X0081125Y0058148D01*
X0081125Y0058590D02*
X0082847Y0058590D01*
X0082847Y0059032D02*
X0081125Y0059032D01*
X0081125Y0055737D02*
X0082847Y0055737D01*
X0081125Y0055737D02*
X0081125Y0057067D01*
X0082847Y0057067D01*
X0082847Y0055737D01*
X0082847Y0056179D02*
X0081125Y0056179D01*
X0081125Y0056621D02*
X0082847Y0056621D01*
X0082847Y0057063D02*
X0081125Y0057063D01*
X0081125Y0053769D02*
X0082847Y0053769D01*
X0081125Y0053769D02*
X0081125Y0055099D01*
X0082847Y0055099D01*
X0082847Y0053769D01*
X0082847Y0054211D02*
X0081125Y0054211D01*
X0081125Y0054653D02*
X0082847Y0054653D01*
X0082847Y0055095D02*
X0081125Y0055095D01*
X0081125Y0051800D02*
X0082847Y0051800D01*
X0081125Y0051800D02*
X0081125Y0053130D01*
X0082847Y0053130D01*
X0082847Y0051800D01*
X0082847Y0052242D02*
X0081125Y0052242D01*
X0081125Y0052684D02*
X0082847Y0052684D01*
X0082847Y0053126D02*
X0081125Y0053126D01*
X0081125Y0049832D02*
X0082847Y0049832D01*
X0081125Y0049832D02*
X0081125Y0051162D01*
X0082847Y0051162D01*
X0082847Y0049832D01*
X0082847Y0050274D02*
X0081125Y0050274D01*
X0081125Y0050716D02*
X0082847Y0050716D01*
X0082847Y0051158D02*
X0081125Y0051158D01*
D12*
X0069131Y0061323D03*
D13*
X0087439Y0044197D03*
X0091376Y0044197D03*
X0091376Y0039709D03*
X0087439Y0039709D03*
X0087439Y0035339D03*
X0091376Y0035339D03*
X0067557Y0077859D03*
X0063620Y0077859D03*
X0077006Y0079827D03*
X0080943Y0079827D03*
D14*
X0069722Y0084749D03*
X0059880Y0084749D03*
D15*
X0054958Y0081796D03*
X0054958Y0077859D03*
X0085588Y0064001D03*
X0085588Y0060064D03*
X0092754Y0075103D03*
X0092754Y0079040D03*
X0069525Y0032977D03*
X0069525Y0029040D03*
D16*
X0069801Y0014867D03*
X0079801Y0014867D03*
X0059801Y0014867D03*
X0049801Y0014867D03*
X0035273Y0040851D03*
X0035273Y0050851D03*
X0035273Y0060851D03*
X0035273Y0070851D03*
X0035273Y0080851D03*
D17*
X0085470Y0052465D03*
X0090588Y0052465D03*
D18*
X0093935Y0016441D03*
X0035667Y0016441D03*
D19*
X0039368Y0012741D03*
X0031966Y0012741D03*
X0031966Y0020142D03*
X0039368Y0020142D03*
X0090234Y0020142D03*
X0090234Y0012741D03*
X0097635Y0012741D03*
X0097635Y0020142D03*
D20*
X0051021Y0025497D03*
X0051021Y0032583D03*
X0043147Y0032583D03*
X0043147Y0025497D03*
D21*
X0073856Y0031796D03*
X0080943Y0031796D03*
X0089289Y0029434D03*
X0096376Y0029434D03*
D22*
X0064998Y0032406D03*
X0061257Y0032406D03*
X0057517Y0032406D03*
X0057517Y0023312D03*
X0061257Y0023312D03*
X0064998Y0023312D03*
D23*
X0074053Y0025103D03*
X0083108Y0025103D03*
M02*
