G75*
%MOIN*%
%OFA0B0*%
%FSLAX25Y25*%
%IPPOS*%
%LPD*%
%AMOC8*
5,1,8,0,0,1.08239X$1,22.5*
%
%ADD10C,0.00000*%
%ADD11R,0.07520X0.07520*%
%ADD12C,0.00344*%
%ADD13R,0.02362X0.02756*%
%ADD14R,0.03937X0.06693*%
%ADD15R,0.02756X0.02362*%
%ADD16R,0.02756X0.03543*%
%ADD17R,0.04724X0.03150*%
%ADD18R,0.03150X0.04724*%
%ADD19R,0.02323X0.05709*%
%ADD20R,0.02480X0.03268*%
D10*
X0029368Y0010142D02*
X0029368Y0088882D01*
X0100234Y0088882D01*
X0100234Y0010142D01*
X0029368Y0010142D01*
X0031375Y0012741D02*
X0031377Y0012789D01*
X0031383Y0012837D01*
X0031393Y0012884D01*
X0031406Y0012930D01*
X0031424Y0012975D01*
X0031444Y0013019D01*
X0031469Y0013061D01*
X0031497Y0013100D01*
X0031527Y0013137D01*
X0031561Y0013171D01*
X0031598Y0013203D01*
X0031636Y0013232D01*
X0031677Y0013257D01*
X0031720Y0013279D01*
X0031765Y0013297D01*
X0031811Y0013311D01*
X0031858Y0013322D01*
X0031906Y0013329D01*
X0031954Y0013332D01*
X0032002Y0013331D01*
X0032050Y0013326D01*
X0032098Y0013317D01*
X0032144Y0013305D01*
X0032189Y0013288D01*
X0032233Y0013268D01*
X0032275Y0013245D01*
X0032315Y0013218D01*
X0032353Y0013188D01*
X0032388Y0013155D01*
X0032420Y0013119D01*
X0032450Y0013081D01*
X0032476Y0013040D01*
X0032498Y0012997D01*
X0032518Y0012953D01*
X0032533Y0012908D01*
X0032545Y0012861D01*
X0032553Y0012813D01*
X0032557Y0012765D01*
X0032557Y0012717D01*
X0032553Y0012669D01*
X0032545Y0012621D01*
X0032533Y0012574D01*
X0032518Y0012529D01*
X0032498Y0012485D01*
X0032476Y0012442D01*
X0032450Y0012401D01*
X0032420Y0012363D01*
X0032388Y0012327D01*
X0032353Y0012294D01*
X0032315Y0012264D01*
X0032275Y0012237D01*
X0032233Y0012214D01*
X0032189Y0012194D01*
X0032144Y0012177D01*
X0032098Y0012165D01*
X0032050Y0012156D01*
X0032002Y0012151D01*
X0031954Y0012150D01*
X0031906Y0012153D01*
X0031858Y0012160D01*
X0031811Y0012171D01*
X0031765Y0012185D01*
X0031720Y0012203D01*
X0031677Y0012225D01*
X0031636Y0012250D01*
X0031598Y0012279D01*
X0031561Y0012311D01*
X0031527Y0012345D01*
X0031497Y0012382D01*
X0031469Y0012421D01*
X0031444Y0012463D01*
X0031424Y0012507D01*
X0031406Y0012552D01*
X0031393Y0012598D01*
X0031383Y0012645D01*
X0031377Y0012693D01*
X0031375Y0012741D01*
X0038777Y0012741D02*
X0038779Y0012789D01*
X0038785Y0012837D01*
X0038795Y0012884D01*
X0038808Y0012930D01*
X0038826Y0012975D01*
X0038846Y0013019D01*
X0038871Y0013061D01*
X0038899Y0013100D01*
X0038929Y0013137D01*
X0038963Y0013171D01*
X0039000Y0013203D01*
X0039038Y0013232D01*
X0039079Y0013257D01*
X0039122Y0013279D01*
X0039167Y0013297D01*
X0039213Y0013311D01*
X0039260Y0013322D01*
X0039308Y0013329D01*
X0039356Y0013332D01*
X0039404Y0013331D01*
X0039452Y0013326D01*
X0039500Y0013317D01*
X0039546Y0013305D01*
X0039591Y0013288D01*
X0039635Y0013268D01*
X0039677Y0013245D01*
X0039717Y0013218D01*
X0039755Y0013188D01*
X0039790Y0013155D01*
X0039822Y0013119D01*
X0039852Y0013081D01*
X0039878Y0013040D01*
X0039900Y0012997D01*
X0039920Y0012953D01*
X0039935Y0012908D01*
X0039947Y0012861D01*
X0039955Y0012813D01*
X0039959Y0012765D01*
X0039959Y0012717D01*
X0039955Y0012669D01*
X0039947Y0012621D01*
X0039935Y0012574D01*
X0039920Y0012529D01*
X0039900Y0012485D01*
X0039878Y0012442D01*
X0039852Y0012401D01*
X0039822Y0012363D01*
X0039790Y0012327D01*
X0039755Y0012294D01*
X0039717Y0012264D01*
X0039677Y0012237D01*
X0039635Y0012214D01*
X0039591Y0012194D01*
X0039546Y0012177D01*
X0039500Y0012165D01*
X0039452Y0012156D01*
X0039404Y0012151D01*
X0039356Y0012150D01*
X0039308Y0012153D01*
X0039260Y0012160D01*
X0039213Y0012171D01*
X0039167Y0012185D01*
X0039122Y0012203D01*
X0039079Y0012225D01*
X0039038Y0012250D01*
X0039000Y0012279D01*
X0038963Y0012311D01*
X0038929Y0012345D01*
X0038899Y0012382D01*
X0038871Y0012421D01*
X0038846Y0012463D01*
X0038826Y0012507D01*
X0038808Y0012552D01*
X0038795Y0012598D01*
X0038785Y0012645D01*
X0038779Y0012693D01*
X0038777Y0012741D01*
X0038777Y0020142D02*
X0038779Y0020190D01*
X0038785Y0020238D01*
X0038795Y0020285D01*
X0038808Y0020331D01*
X0038826Y0020376D01*
X0038846Y0020420D01*
X0038871Y0020462D01*
X0038899Y0020501D01*
X0038929Y0020538D01*
X0038963Y0020572D01*
X0039000Y0020604D01*
X0039038Y0020633D01*
X0039079Y0020658D01*
X0039122Y0020680D01*
X0039167Y0020698D01*
X0039213Y0020712D01*
X0039260Y0020723D01*
X0039308Y0020730D01*
X0039356Y0020733D01*
X0039404Y0020732D01*
X0039452Y0020727D01*
X0039500Y0020718D01*
X0039546Y0020706D01*
X0039591Y0020689D01*
X0039635Y0020669D01*
X0039677Y0020646D01*
X0039717Y0020619D01*
X0039755Y0020589D01*
X0039790Y0020556D01*
X0039822Y0020520D01*
X0039852Y0020482D01*
X0039878Y0020441D01*
X0039900Y0020398D01*
X0039920Y0020354D01*
X0039935Y0020309D01*
X0039947Y0020262D01*
X0039955Y0020214D01*
X0039959Y0020166D01*
X0039959Y0020118D01*
X0039955Y0020070D01*
X0039947Y0020022D01*
X0039935Y0019975D01*
X0039920Y0019930D01*
X0039900Y0019886D01*
X0039878Y0019843D01*
X0039852Y0019802D01*
X0039822Y0019764D01*
X0039790Y0019728D01*
X0039755Y0019695D01*
X0039717Y0019665D01*
X0039677Y0019638D01*
X0039635Y0019615D01*
X0039591Y0019595D01*
X0039546Y0019578D01*
X0039500Y0019566D01*
X0039452Y0019557D01*
X0039404Y0019552D01*
X0039356Y0019551D01*
X0039308Y0019554D01*
X0039260Y0019561D01*
X0039213Y0019572D01*
X0039167Y0019586D01*
X0039122Y0019604D01*
X0039079Y0019626D01*
X0039038Y0019651D01*
X0039000Y0019680D01*
X0038963Y0019712D01*
X0038929Y0019746D01*
X0038899Y0019783D01*
X0038871Y0019822D01*
X0038846Y0019864D01*
X0038826Y0019908D01*
X0038808Y0019953D01*
X0038795Y0019999D01*
X0038785Y0020046D01*
X0038779Y0020094D01*
X0038777Y0020142D01*
X0031375Y0020142D02*
X0031377Y0020190D01*
X0031383Y0020238D01*
X0031393Y0020285D01*
X0031406Y0020331D01*
X0031424Y0020376D01*
X0031444Y0020420D01*
X0031469Y0020462D01*
X0031497Y0020501D01*
X0031527Y0020538D01*
X0031561Y0020572D01*
X0031598Y0020604D01*
X0031636Y0020633D01*
X0031677Y0020658D01*
X0031720Y0020680D01*
X0031765Y0020698D01*
X0031811Y0020712D01*
X0031858Y0020723D01*
X0031906Y0020730D01*
X0031954Y0020733D01*
X0032002Y0020732D01*
X0032050Y0020727D01*
X0032098Y0020718D01*
X0032144Y0020706D01*
X0032189Y0020689D01*
X0032233Y0020669D01*
X0032275Y0020646D01*
X0032315Y0020619D01*
X0032353Y0020589D01*
X0032388Y0020556D01*
X0032420Y0020520D01*
X0032450Y0020482D01*
X0032476Y0020441D01*
X0032498Y0020398D01*
X0032518Y0020354D01*
X0032533Y0020309D01*
X0032545Y0020262D01*
X0032553Y0020214D01*
X0032557Y0020166D01*
X0032557Y0020118D01*
X0032553Y0020070D01*
X0032545Y0020022D01*
X0032533Y0019975D01*
X0032518Y0019930D01*
X0032498Y0019886D01*
X0032476Y0019843D01*
X0032450Y0019802D01*
X0032420Y0019764D01*
X0032388Y0019728D01*
X0032353Y0019695D01*
X0032315Y0019665D01*
X0032275Y0019638D01*
X0032233Y0019615D01*
X0032189Y0019595D01*
X0032144Y0019578D01*
X0032098Y0019566D01*
X0032050Y0019557D01*
X0032002Y0019552D01*
X0031954Y0019551D01*
X0031906Y0019554D01*
X0031858Y0019561D01*
X0031811Y0019572D01*
X0031765Y0019586D01*
X0031720Y0019604D01*
X0031677Y0019626D01*
X0031636Y0019651D01*
X0031598Y0019680D01*
X0031561Y0019712D01*
X0031527Y0019746D01*
X0031497Y0019783D01*
X0031469Y0019822D01*
X0031444Y0019864D01*
X0031424Y0019908D01*
X0031406Y0019953D01*
X0031393Y0019999D01*
X0031383Y0020046D01*
X0031377Y0020094D01*
X0031375Y0020142D01*
X0089643Y0020142D02*
X0089645Y0020190D01*
X0089651Y0020238D01*
X0089661Y0020285D01*
X0089674Y0020331D01*
X0089692Y0020376D01*
X0089712Y0020420D01*
X0089737Y0020462D01*
X0089765Y0020501D01*
X0089795Y0020538D01*
X0089829Y0020572D01*
X0089866Y0020604D01*
X0089904Y0020633D01*
X0089945Y0020658D01*
X0089988Y0020680D01*
X0090033Y0020698D01*
X0090079Y0020712D01*
X0090126Y0020723D01*
X0090174Y0020730D01*
X0090222Y0020733D01*
X0090270Y0020732D01*
X0090318Y0020727D01*
X0090366Y0020718D01*
X0090412Y0020706D01*
X0090457Y0020689D01*
X0090501Y0020669D01*
X0090543Y0020646D01*
X0090583Y0020619D01*
X0090621Y0020589D01*
X0090656Y0020556D01*
X0090688Y0020520D01*
X0090718Y0020482D01*
X0090744Y0020441D01*
X0090766Y0020398D01*
X0090786Y0020354D01*
X0090801Y0020309D01*
X0090813Y0020262D01*
X0090821Y0020214D01*
X0090825Y0020166D01*
X0090825Y0020118D01*
X0090821Y0020070D01*
X0090813Y0020022D01*
X0090801Y0019975D01*
X0090786Y0019930D01*
X0090766Y0019886D01*
X0090744Y0019843D01*
X0090718Y0019802D01*
X0090688Y0019764D01*
X0090656Y0019728D01*
X0090621Y0019695D01*
X0090583Y0019665D01*
X0090543Y0019638D01*
X0090501Y0019615D01*
X0090457Y0019595D01*
X0090412Y0019578D01*
X0090366Y0019566D01*
X0090318Y0019557D01*
X0090270Y0019552D01*
X0090222Y0019551D01*
X0090174Y0019554D01*
X0090126Y0019561D01*
X0090079Y0019572D01*
X0090033Y0019586D01*
X0089988Y0019604D01*
X0089945Y0019626D01*
X0089904Y0019651D01*
X0089866Y0019680D01*
X0089829Y0019712D01*
X0089795Y0019746D01*
X0089765Y0019783D01*
X0089737Y0019822D01*
X0089712Y0019864D01*
X0089692Y0019908D01*
X0089674Y0019953D01*
X0089661Y0019999D01*
X0089651Y0020046D01*
X0089645Y0020094D01*
X0089643Y0020142D01*
X0089643Y0012741D02*
X0089645Y0012789D01*
X0089651Y0012837D01*
X0089661Y0012884D01*
X0089674Y0012930D01*
X0089692Y0012975D01*
X0089712Y0013019D01*
X0089737Y0013061D01*
X0089765Y0013100D01*
X0089795Y0013137D01*
X0089829Y0013171D01*
X0089866Y0013203D01*
X0089904Y0013232D01*
X0089945Y0013257D01*
X0089988Y0013279D01*
X0090033Y0013297D01*
X0090079Y0013311D01*
X0090126Y0013322D01*
X0090174Y0013329D01*
X0090222Y0013332D01*
X0090270Y0013331D01*
X0090318Y0013326D01*
X0090366Y0013317D01*
X0090412Y0013305D01*
X0090457Y0013288D01*
X0090501Y0013268D01*
X0090543Y0013245D01*
X0090583Y0013218D01*
X0090621Y0013188D01*
X0090656Y0013155D01*
X0090688Y0013119D01*
X0090718Y0013081D01*
X0090744Y0013040D01*
X0090766Y0012997D01*
X0090786Y0012953D01*
X0090801Y0012908D01*
X0090813Y0012861D01*
X0090821Y0012813D01*
X0090825Y0012765D01*
X0090825Y0012717D01*
X0090821Y0012669D01*
X0090813Y0012621D01*
X0090801Y0012574D01*
X0090786Y0012529D01*
X0090766Y0012485D01*
X0090744Y0012442D01*
X0090718Y0012401D01*
X0090688Y0012363D01*
X0090656Y0012327D01*
X0090621Y0012294D01*
X0090583Y0012264D01*
X0090543Y0012237D01*
X0090501Y0012214D01*
X0090457Y0012194D01*
X0090412Y0012177D01*
X0090366Y0012165D01*
X0090318Y0012156D01*
X0090270Y0012151D01*
X0090222Y0012150D01*
X0090174Y0012153D01*
X0090126Y0012160D01*
X0090079Y0012171D01*
X0090033Y0012185D01*
X0089988Y0012203D01*
X0089945Y0012225D01*
X0089904Y0012250D01*
X0089866Y0012279D01*
X0089829Y0012311D01*
X0089795Y0012345D01*
X0089765Y0012382D01*
X0089737Y0012421D01*
X0089712Y0012463D01*
X0089692Y0012507D01*
X0089674Y0012552D01*
X0089661Y0012598D01*
X0089651Y0012645D01*
X0089645Y0012693D01*
X0089643Y0012741D01*
X0097044Y0012741D02*
X0097046Y0012789D01*
X0097052Y0012837D01*
X0097062Y0012884D01*
X0097075Y0012930D01*
X0097093Y0012975D01*
X0097113Y0013019D01*
X0097138Y0013061D01*
X0097166Y0013100D01*
X0097196Y0013137D01*
X0097230Y0013171D01*
X0097267Y0013203D01*
X0097305Y0013232D01*
X0097346Y0013257D01*
X0097389Y0013279D01*
X0097434Y0013297D01*
X0097480Y0013311D01*
X0097527Y0013322D01*
X0097575Y0013329D01*
X0097623Y0013332D01*
X0097671Y0013331D01*
X0097719Y0013326D01*
X0097767Y0013317D01*
X0097813Y0013305D01*
X0097858Y0013288D01*
X0097902Y0013268D01*
X0097944Y0013245D01*
X0097984Y0013218D01*
X0098022Y0013188D01*
X0098057Y0013155D01*
X0098089Y0013119D01*
X0098119Y0013081D01*
X0098145Y0013040D01*
X0098167Y0012997D01*
X0098187Y0012953D01*
X0098202Y0012908D01*
X0098214Y0012861D01*
X0098222Y0012813D01*
X0098226Y0012765D01*
X0098226Y0012717D01*
X0098222Y0012669D01*
X0098214Y0012621D01*
X0098202Y0012574D01*
X0098187Y0012529D01*
X0098167Y0012485D01*
X0098145Y0012442D01*
X0098119Y0012401D01*
X0098089Y0012363D01*
X0098057Y0012327D01*
X0098022Y0012294D01*
X0097984Y0012264D01*
X0097944Y0012237D01*
X0097902Y0012214D01*
X0097858Y0012194D01*
X0097813Y0012177D01*
X0097767Y0012165D01*
X0097719Y0012156D01*
X0097671Y0012151D01*
X0097623Y0012150D01*
X0097575Y0012153D01*
X0097527Y0012160D01*
X0097480Y0012171D01*
X0097434Y0012185D01*
X0097389Y0012203D01*
X0097346Y0012225D01*
X0097305Y0012250D01*
X0097267Y0012279D01*
X0097230Y0012311D01*
X0097196Y0012345D01*
X0097166Y0012382D01*
X0097138Y0012421D01*
X0097113Y0012463D01*
X0097093Y0012507D01*
X0097075Y0012552D01*
X0097062Y0012598D01*
X0097052Y0012645D01*
X0097046Y0012693D01*
X0097044Y0012741D01*
X0097044Y0020142D02*
X0097046Y0020190D01*
X0097052Y0020238D01*
X0097062Y0020285D01*
X0097075Y0020331D01*
X0097093Y0020376D01*
X0097113Y0020420D01*
X0097138Y0020462D01*
X0097166Y0020501D01*
X0097196Y0020538D01*
X0097230Y0020572D01*
X0097267Y0020604D01*
X0097305Y0020633D01*
X0097346Y0020658D01*
X0097389Y0020680D01*
X0097434Y0020698D01*
X0097480Y0020712D01*
X0097527Y0020723D01*
X0097575Y0020730D01*
X0097623Y0020733D01*
X0097671Y0020732D01*
X0097719Y0020727D01*
X0097767Y0020718D01*
X0097813Y0020706D01*
X0097858Y0020689D01*
X0097902Y0020669D01*
X0097944Y0020646D01*
X0097984Y0020619D01*
X0098022Y0020589D01*
X0098057Y0020556D01*
X0098089Y0020520D01*
X0098119Y0020482D01*
X0098145Y0020441D01*
X0098167Y0020398D01*
X0098187Y0020354D01*
X0098202Y0020309D01*
X0098214Y0020262D01*
X0098222Y0020214D01*
X0098226Y0020166D01*
X0098226Y0020118D01*
X0098222Y0020070D01*
X0098214Y0020022D01*
X0098202Y0019975D01*
X0098187Y0019930D01*
X0098167Y0019886D01*
X0098145Y0019843D01*
X0098119Y0019802D01*
X0098089Y0019764D01*
X0098057Y0019728D01*
X0098022Y0019695D01*
X0097984Y0019665D01*
X0097944Y0019638D01*
X0097902Y0019615D01*
X0097858Y0019595D01*
X0097813Y0019578D01*
X0097767Y0019566D01*
X0097719Y0019557D01*
X0097671Y0019552D01*
X0097623Y0019551D01*
X0097575Y0019554D01*
X0097527Y0019561D01*
X0097480Y0019572D01*
X0097434Y0019586D01*
X0097389Y0019604D01*
X0097346Y0019626D01*
X0097305Y0019651D01*
X0097267Y0019680D01*
X0097230Y0019712D01*
X0097196Y0019746D01*
X0097166Y0019783D01*
X0097138Y0019822D01*
X0097113Y0019864D01*
X0097093Y0019908D01*
X0097075Y0019953D01*
X0097062Y0019999D01*
X0097052Y0020046D01*
X0097046Y0020094D01*
X0097044Y0020142D01*
D11*
X0074446Y0056008D03*
X0063817Y0056008D03*
X0063817Y0066638D03*
X0074446Y0066638D03*
D12*
X0081272Y0065728D02*
X0082700Y0065728D01*
X0081272Y0065728D02*
X0081272Y0066762D01*
X0082700Y0066762D01*
X0082700Y0065728D01*
X0082700Y0066071D02*
X0081272Y0066071D01*
X0081272Y0066414D02*
X0082700Y0066414D01*
X0082700Y0066757D02*
X0081272Y0066757D01*
X0081272Y0067696D02*
X0082700Y0067696D01*
X0081272Y0067696D02*
X0081272Y0068730D01*
X0082700Y0068730D01*
X0082700Y0067696D01*
X0082700Y0068039D02*
X0081272Y0068039D01*
X0081272Y0068382D02*
X0082700Y0068382D01*
X0082700Y0068725D02*
X0081272Y0068725D01*
X0081272Y0069665D02*
X0082700Y0069665D01*
X0081272Y0069665D02*
X0081272Y0070699D01*
X0082700Y0070699D01*
X0082700Y0069665D01*
X0082700Y0070008D02*
X0081272Y0070008D01*
X0081272Y0070351D02*
X0082700Y0070351D01*
X0082700Y0070694D02*
X0081272Y0070694D01*
X0081272Y0071633D02*
X0082700Y0071633D01*
X0081272Y0071633D02*
X0081272Y0072667D01*
X0082700Y0072667D01*
X0082700Y0071633D01*
X0082700Y0071976D02*
X0081272Y0071976D01*
X0081272Y0072319D02*
X0082700Y0072319D01*
X0082700Y0072662D02*
X0081272Y0072662D01*
X0080475Y0073464D02*
X0080475Y0074892D01*
X0080475Y0073464D02*
X0079441Y0073464D01*
X0079441Y0074892D01*
X0080475Y0074892D01*
X0080475Y0073807D02*
X0079441Y0073807D01*
X0079441Y0074150D02*
X0080475Y0074150D01*
X0080475Y0074493D02*
X0079441Y0074493D01*
X0079441Y0074836D02*
X0080475Y0074836D01*
X0078507Y0074892D02*
X0078507Y0073464D01*
X0077473Y0073464D01*
X0077473Y0074892D01*
X0078507Y0074892D01*
X0078507Y0073807D02*
X0077473Y0073807D01*
X0077473Y0074150D02*
X0078507Y0074150D01*
X0078507Y0074493D02*
X0077473Y0074493D01*
X0077473Y0074836D02*
X0078507Y0074836D01*
X0076538Y0074892D02*
X0076538Y0073464D01*
X0075504Y0073464D01*
X0075504Y0074892D01*
X0076538Y0074892D01*
X0076538Y0073807D02*
X0075504Y0073807D01*
X0075504Y0074150D02*
X0076538Y0074150D01*
X0076538Y0074493D02*
X0075504Y0074493D01*
X0075504Y0074836D02*
X0076538Y0074836D01*
X0074570Y0074892D02*
X0074570Y0073464D01*
X0073536Y0073464D01*
X0073536Y0074892D01*
X0074570Y0074892D01*
X0074570Y0073807D02*
X0073536Y0073807D01*
X0073536Y0074150D02*
X0074570Y0074150D01*
X0074570Y0074493D02*
X0073536Y0074493D01*
X0073536Y0074836D02*
X0074570Y0074836D01*
X0072601Y0074892D02*
X0072601Y0073464D01*
X0071567Y0073464D01*
X0071567Y0074892D01*
X0072601Y0074892D01*
X0072601Y0073807D02*
X0071567Y0073807D01*
X0071567Y0074150D02*
X0072601Y0074150D01*
X0072601Y0074493D02*
X0071567Y0074493D01*
X0071567Y0074836D02*
X0072601Y0074836D01*
X0070633Y0074892D02*
X0070633Y0073464D01*
X0069599Y0073464D01*
X0069599Y0074892D01*
X0070633Y0074892D01*
X0070633Y0073807D02*
X0069599Y0073807D01*
X0069599Y0074150D02*
X0070633Y0074150D01*
X0070633Y0074493D02*
X0069599Y0074493D01*
X0069599Y0074836D02*
X0070633Y0074836D01*
X0068664Y0074892D02*
X0068664Y0073464D01*
X0067630Y0073464D01*
X0067630Y0074892D01*
X0068664Y0074892D01*
X0068664Y0073807D02*
X0067630Y0073807D01*
X0067630Y0074150D02*
X0068664Y0074150D01*
X0068664Y0074493D02*
X0067630Y0074493D01*
X0067630Y0074836D02*
X0068664Y0074836D01*
X0066696Y0074892D02*
X0066696Y0073464D01*
X0065662Y0073464D01*
X0065662Y0074892D01*
X0066696Y0074892D01*
X0066696Y0073807D02*
X0065662Y0073807D01*
X0065662Y0074150D02*
X0066696Y0074150D01*
X0066696Y0074493D02*
X0065662Y0074493D01*
X0065662Y0074836D02*
X0066696Y0074836D01*
X0064727Y0074892D02*
X0064727Y0073464D01*
X0063693Y0073464D01*
X0063693Y0074892D01*
X0064727Y0074892D01*
X0064727Y0073807D02*
X0063693Y0073807D01*
X0063693Y0074150D02*
X0064727Y0074150D01*
X0064727Y0074493D02*
X0063693Y0074493D01*
X0063693Y0074836D02*
X0064727Y0074836D01*
X0062759Y0074892D02*
X0062759Y0073464D01*
X0061725Y0073464D01*
X0061725Y0074892D01*
X0062759Y0074892D01*
X0062759Y0073807D02*
X0061725Y0073807D01*
X0061725Y0074150D02*
X0062759Y0074150D01*
X0062759Y0074493D02*
X0061725Y0074493D01*
X0061725Y0074836D02*
X0062759Y0074836D01*
X0060790Y0074892D02*
X0060790Y0073464D01*
X0059756Y0073464D01*
X0059756Y0074892D01*
X0060790Y0074892D01*
X0060790Y0073807D02*
X0059756Y0073807D01*
X0059756Y0074150D02*
X0060790Y0074150D01*
X0060790Y0074493D02*
X0059756Y0074493D01*
X0059756Y0074836D02*
X0060790Y0074836D01*
X0058822Y0074892D02*
X0058822Y0073464D01*
X0057788Y0073464D01*
X0057788Y0074892D01*
X0058822Y0074892D01*
X0058822Y0073807D02*
X0057788Y0073807D01*
X0057788Y0074150D02*
X0058822Y0074150D01*
X0058822Y0074493D02*
X0057788Y0074493D01*
X0057788Y0074836D02*
X0058822Y0074836D01*
X0056991Y0072667D02*
X0055563Y0072667D01*
X0056991Y0072667D02*
X0056991Y0071633D01*
X0055563Y0071633D01*
X0055563Y0072667D01*
X0055563Y0071976D02*
X0056991Y0071976D01*
X0056991Y0072319D02*
X0055563Y0072319D01*
X0055563Y0072662D02*
X0056991Y0072662D01*
X0056991Y0070699D02*
X0055563Y0070699D01*
X0056991Y0070699D02*
X0056991Y0069665D01*
X0055563Y0069665D01*
X0055563Y0070699D01*
X0055563Y0070008D02*
X0056991Y0070008D01*
X0056991Y0070351D02*
X0055563Y0070351D01*
X0055563Y0070694D02*
X0056991Y0070694D01*
X0056991Y0068730D02*
X0055563Y0068730D01*
X0056991Y0068730D02*
X0056991Y0067696D01*
X0055563Y0067696D01*
X0055563Y0068730D01*
X0055563Y0068039D02*
X0056991Y0068039D01*
X0056991Y0068382D02*
X0055563Y0068382D01*
X0055563Y0068725D02*
X0056991Y0068725D01*
X0056991Y0066762D02*
X0055563Y0066762D01*
X0056991Y0066762D02*
X0056991Y0065728D01*
X0055563Y0065728D01*
X0055563Y0066762D01*
X0055563Y0066071D02*
X0056991Y0066071D01*
X0056991Y0066414D02*
X0055563Y0066414D01*
X0055563Y0066757D02*
X0056991Y0066757D01*
X0056991Y0064793D02*
X0055563Y0064793D01*
X0056991Y0064793D02*
X0056991Y0063759D01*
X0055563Y0063759D01*
X0055563Y0064793D01*
X0055563Y0064102D02*
X0056991Y0064102D01*
X0056991Y0064445D02*
X0055563Y0064445D01*
X0055563Y0064788D02*
X0056991Y0064788D01*
X0056991Y0062825D02*
X0055563Y0062825D01*
X0056991Y0062825D02*
X0056991Y0061791D01*
X0055563Y0061791D01*
X0055563Y0062825D01*
X0055563Y0062134D02*
X0056991Y0062134D01*
X0056991Y0062477D02*
X0055563Y0062477D01*
X0055563Y0062820D02*
X0056991Y0062820D01*
X0056991Y0060856D02*
X0055563Y0060856D01*
X0056991Y0060856D02*
X0056991Y0059822D01*
X0055563Y0059822D01*
X0055563Y0060856D01*
X0055563Y0060165D02*
X0056991Y0060165D01*
X0056991Y0060508D02*
X0055563Y0060508D01*
X0055563Y0060851D02*
X0056991Y0060851D01*
X0056991Y0058888D02*
X0055563Y0058888D01*
X0056991Y0058888D02*
X0056991Y0057854D01*
X0055563Y0057854D01*
X0055563Y0058888D01*
X0055563Y0058197D02*
X0056991Y0058197D01*
X0056991Y0058540D02*
X0055563Y0058540D01*
X0055563Y0058883D02*
X0056991Y0058883D01*
X0056991Y0056919D02*
X0055563Y0056919D01*
X0056991Y0056919D02*
X0056991Y0055885D01*
X0055563Y0055885D01*
X0055563Y0056919D01*
X0055563Y0056228D02*
X0056991Y0056228D01*
X0056991Y0056571D02*
X0055563Y0056571D01*
X0055563Y0056914D02*
X0056991Y0056914D01*
X0056991Y0054951D02*
X0055563Y0054951D01*
X0056991Y0054951D02*
X0056991Y0053917D01*
X0055563Y0053917D01*
X0055563Y0054951D01*
X0055563Y0054260D02*
X0056991Y0054260D01*
X0056991Y0054603D02*
X0055563Y0054603D01*
X0055563Y0054946D02*
X0056991Y0054946D01*
X0056991Y0052982D02*
X0055563Y0052982D01*
X0056991Y0052982D02*
X0056991Y0051948D01*
X0055563Y0051948D01*
X0055563Y0052982D01*
X0055563Y0052291D02*
X0056991Y0052291D01*
X0056991Y0052634D02*
X0055563Y0052634D01*
X0055563Y0052977D02*
X0056991Y0052977D01*
X0056991Y0051014D02*
X0055563Y0051014D01*
X0056991Y0051014D02*
X0056991Y0049980D01*
X0055563Y0049980D01*
X0055563Y0051014D01*
X0055563Y0050323D02*
X0056991Y0050323D01*
X0056991Y0050666D02*
X0055563Y0050666D01*
X0055563Y0051009D02*
X0056991Y0051009D01*
X0057788Y0049183D02*
X0057788Y0047755D01*
X0057788Y0049183D02*
X0058822Y0049183D01*
X0058822Y0047755D01*
X0057788Y0047755D01*
X0057788Y0048098D02*
X0058822Y0048098D01*
X0058822Y0048441D02*
X0057788Y0048441D01*
X0057788Y0048784D02*
X0058822Y0048784D01*
X0058822Y0049127D02*
X0057788Y0049127D01*
X0059756Y0049183D02*
X0059756Y0047755D01*
X0059756Y0049183D02*
X0060790Y0049183D01*
X0060790Y0047755D01*
X0059756Y0047755D01*
X0059756Y0048098D02*
X0060790Y0048098D01*
X0060790Y0048441D02*
X0059756Y0048441D01*
X0059756Y0048784D02*
X0060790Y0048784D01*
X0060790Y0049127D02*
X0059756Y0049127D01*
X0061725Y0049183D02*
X0061725Y0047755D01*
X0061725Y0049183D02*
X0062759Y0049183D01*
X0062759Y0047755D01*
X0061725Y0047755D01*
X0061725Y0048098D02*
X0062759Y0048098D01*
X0062759Y0048441D02*
X0061725Y0048441D01*
X0061725Y0048784D02*
X0062759Y0048784D01*
X0062759Y0049127D02*
X0061725Y0049127D01*
X0063693Y0049183D02*
X0063693Y0047755D01*
X0063693Y0049183D02*
X0064727Y0049183D01*
X0064727Y0047755D01*
X0063693Y0047755D01*
X0063693Y0048098D02*
X0064727Y0048098D01*
X0064727Y0048441D02*
X0063693Y0048441D01*
X0063693Y0048784D02*
X0064727Y0048784D01*
X0064727Y0049127D02*
X0063693Y0049127D01*
X0065662Y0049183D02*
X0065662Y0047755D01*
X0065662Y0049183D02*
X0066696Y0049183D01*
X0066696Y0047755D01*
X0065662Y0047755D01*
X0065662Y0048098D02*
X0066696Y0048098D01*
X0066696Y0048441D02*
X0065662Y0048441D01*
X0065662Y0048784D02*
X0066696Y0048784D01*
X0066696Y0049127D02*
X0065662Y0049127D01*
X0067630Y0049183D02*
X0067630Y0047755D01*
X0067630Y0049183D02*
X0068664Y0049183D01*
X0068664Y0047755D01*
X0067630Y0047755D01*
X0067630Y0048098D02*
X0068664Y0048098D01*
X0068664Y0048441D02*
X0067630Y0048441D01*
X0067630Y0048784D02*
X0068664Y0048784D01*
X0068664Y0049127D02*
X0067630Y0049127D01*
X0069599Y0049183D02*
X0069599Y0047755D01*
X0069599Y0049183D02*
X0070633Y0049183D01*
X0070633Y0047755D01*
X0069599Y0047755D01*
X0069599Y0048098D02*
X0070633Y0048098D01*
X0070633Y0048441D02*
X0069599Y0048441D01*
X0069599Y0048784D02*
X0070633Y0048784D01*
X0070633Y0049127D02*
X0069599Y0049127D01*
X0071567Y0049183D02*
X0071567Y0047755D01*
X0071567Y0049183D02*
X0072601Y0049183D01*
X0072601Y0047755D01*
X0071567Y0047755D01*
X0071567Y0048098D02*
X0072601Y0048098D01*
X0072601Y0048441D02*
X0071567Y0048441D01*
X0071567Y0048784D02*
X0072601Y0048784D01*
X0072601Y0049127D02*
X0071567Y0049127D01*
X0073536Y0049183D02*
X0073536Y0047755D01*
X0073536Y0049183D02*
X0074570Y0049183D01*
X0074570Y0047755D01*
X0073536Y0047755D01*
X0073536Y0048098D02*
X0074570Y0048098D01*
X0074570Y0048441D02*
X0073536Y0048441D01*
X0073536Y0048784D02*
X0074570Y0048784D01*
X0074570Y0049127D02*
X0073536Y0049127D01*
X0075504Y0049183D02*
X0075504Y0047755D01*
X0075504Y0049183D02*
X0076538Y0049183D01*
X0076538Y0047755D01*
X0075504Y0047755D01*
X0075504Y0048098D02*
X0076538Y0048098D01*
X0076538Y0048441D02*
X0075504Y0048441D01*
X0075504Y0048784D02*
X0076538Y0048784D01*
X0076538Y0049127D02*
X0075504Y0049127D01*
X0077473Y0049183D02*
X0077473Y0047755D01*
X0077473Y0049183D02*
X0078507Y0049183D01*
X0078507Y0047755D01*
X0077473Y0047755D01*
X0077473Y0048098D02*
X0078507Y0048098D01*
X0078507Y0048441D02*
X0077473Y0048441D01*
X0077473Y0048784D02*
X0078507Y0048784D01*
X0078507Y0049127D02*
X0077473Y0049127D01*
X0079441Y0049183D02*
X0079441Y0047755D01*
X0079441Y0049183D02*
X0080475Y0049183D01*
X0080475Y0047755D01*
X0079441Y0047755D01*
X0079441Y0048098D02*
X0080475Y0048098D01*
X0080475Y0048441D02*
X0079441Y0048441D01*
X0079441Y0048784D02*
X0080475Y0048784D01*
X0080475Y0049127D02*
X0079441Y0049127D01*
X0081272Y0049980D02*
X0082700Y0049980D01*
X0081272Y0049980D02*
X0081272Y0051014D01*
X0082700Y0051014D01*
X0082700Y0049980D01*
X0082700Y0050323D02*
X0081272Y0050323D01*
X0081272Y0050666D02*
X0082700Y0050666D01*
X0082700Y0051009D02*
X0081272Y0051009D01*
X0081272Y0051948D02*
X0082700Y0051948D01*
X0081272Y0051948D02*
X0081272Y0052982D01*
X0082700Y0052982D01*
X0082700Y0051948D01*
X0082700Y0052291D02*
X0081272Y0052291D01*
X0081272Y0052634D02*
X0082700Y0052634D01*
X0082700Y0052977D02*
X0081272Y0052977D01*
X0081272Y0053917D02*
X0082700Y0053917D01*
X0081272Y0053917D02*
X0081272Y0054951D01*
X0082700Y0054951D01*
X0082700Y0053917D01*
X0082700Y0054260D02*
X0081272Y0054260D01*
X0081272Y0054603D02*
X0082700Y0054603D01*
X0082700Y0054946D02*
X0081272Y0054946D01*
X0081272Y0055885D02*
X0082700Y0055885D01*
X0081272Y0055885D02*
X0081272Y0056919D01*
X0082700Y0056919D01*
X0082700Y0055885D01*
X0082700Y0056228D02*
X0081272Y0056228D01*
X0081272Y0056571D02*
X0082700Y0056571D01*
X0082700Y0056914D02*
X0081272Y0056914D01*
X0081272Y0057854D02*
X0082700Y0057854D01*
X0081272Y0057854D02*
X0081272Y0058888D01*
X0082700Y0058888D01*
X0082700Y0057854D01*
X0082700Y0058197D02*
X0081272Y0058197D01*
X0081272Y0058540D02*
X0082700Y0058540D01*
X0082700Y0058883D02*
X0081272Y0058883D01*
X0081272Y0059822D02*
X0082700Y0059822D01*
X0081272Y0059822D02*
X0081272Y0060856D01*
X0082700Y0060856D01*
X0082700Y0059822D01*
X0082700Y0060165D02*
X0081272Y0060165D01*
X0081272Y0060508D02*
X0082700Y0060508D01*
X0082700Y0060851D02*
X0081272Y0060851D01*
X0081272Y0061791D02*
X0082700Y0061791D01*
X0081272Y0061791D02*
X0081272Y0062825D01*
X0082700Y0062825D01*
X0082700Y0061791D01*
X0082700Y0062134D02*
X0081272Y0062134D01*
X0081272Y0062477D02*
X0082700Y0062477D01*
X0082700Y0062820D02*
X0081272Y0062820D01*
X0081272Y0063759D02*
X0082700Y0063759D01*
X0081272Y0063759D02*
X0081272Y0064793D01*
X0082700Y0064793D01*
X0082700Y0063759D01*
X0082700Y0064102D02*
X0081272Y0064102D01*
X0081272Y0064445D02*
X0082700Y0064445D01*
X0082700Y0064788D02*
X0081272Y0064788D01*
D13*
X0067557Y0077859D03*
X0063620Y0077859D03*
X0077006Y0079827D03*
X0080943Y0079827D03*
X0087439Y0044197D03*
X0091376Y0044197D03*
X0091376Y0039709D03*
X0087439Y0039709D03*
X0087439Y0035339D03*
X0091376Y0035339D03*
D14*
X0069722Y0084749D03*
X0059880Y0084749D03*
D15*
X0054958Y0081796D03*
X0054958Y0077859D03*
X0085588Y0064001D03*
X0085588Y0060064D03*
X0092754Y0075103D03*
X0092754Y0079040D03*
X0069525Y0032977D03*
X0069525Y0029040D03*
D16*
X0085470Y0052465D03*
X0090588Y0052465D03*
D17*
X0051021Y0032583D03*
X0051021Y0025497D03*
X0043147Y0025497D03*
X0043147Y0032583D03*
D18*
X0073856Y0031796D03*
X0080943Y0031796D03*
X0089289Y0029434D03*
X0096376Y0029434D03*
D19*
X0064998Y0032406D03*
X0061257Y0032406D03*
X0057517Y0032406D03*
X0057517Y0023312D03*
X0061257Y0023312D03*
X0064998Y0023312D03*
D20*
X0074053Y0025103D03*
X0083108Y0025103D03*
M02*
