G75*
%MOIN*%
%OFA0B0*%
%FSLAX25Y25*%
%IPPOS*%
%LPD*%
%AMOC8*
5,1,8,0,0,1.08239X$1,22.5*
%
%ADD10C,0.00000*%
%ADD11C,0.06000*%
%ADD12C,0.07906*%
%ADD13C,0.02205*%
%ADD14C,0.00600*%
%ADD15C,0.01000*%
%ADD16C,0.00800*%
%ADD17C,0.01969*%
D10*
X0029368Y0010142D02*
X0029368Y0088882D01*
X0100234Y0088882D01*
X0100234Y0010142D01*
X0029368Y0010142D01*
X0031375Y0012741D02*
X0031377Y0012789D01*
X0031383Y0012837D01*
X0031393Y0012884D01*
X0031406Y0012930D01*
X0031424Y0012975D01*
X0031444Y0013019D01*
X0031469Y0013061D01*
X0031497Y0013100D01*
X0031527Y0013137D01*
X0031561Y0013171D01*
X0031598Y0013203D01*
X0031636Y0013232D01*
X0031677Y0013257D01*
X0031720Y0013279D01*
X0031765Y0013297D01*
X0031811Y0013311D01*
X0031858Y0013322D01*
X0031906Y0013329D01*
X0031954Y0013332D01*
X0032002Y0013331D01*
X0032050Y0013326D01*
X0032098Y0013317D01*
X0032144Y0013305D01*
X0032189Y0013288D01*
X0032233Y0013268D01*
X0032275Y0013245D01*
X0032315Y0013218D01*
X0032353Y0013188D01*
X0032388Y0013155D01*
X0032420Y0013119D01*
X0032450Y0013081D01*
X0032476Y0013040D01*
X0032498Y0012997D01*
X0032518Y0012953D01*
X0032533Y0012908D01*
X0032545Y0012861D01*
X0032553Y0012813D01*
X0032557Y0012765D01*
X0032557Y0012717D01*
X0032553Y0012669D01*
X0032545Y0012621D01*
X0032533Y0012574D01*
X0032518Y0012529D01*
X0032498Y0012485D01*
X0032476Y0012442D01*
X0032450Y0012401D01*
X0032420Y0012363D01*
X0032388Y0012327D01*
X0032353Y0012294D01*
X0032315Y0012264D01*
X0032275Y0012237D01*
X0032233Y0012214D01*
X0032189Y0012194D01*
X0032144Y0012177D01*
X0032098Y0012165D01*
X0032050Y0012156D01*
X0032002Y0012151D01*
X0031954Y0012150D01*
X0031906Y0012153D01*
X0031858Y0012160D01*
X0031811Y0012171D01*
X0031765Y0012185D01*
X0031720Y0012203D01*
X0031677Y0012225D01*
X0031636Y0012250D01*
X0031598Y0012279D01*
X0031561Y0012311D01*
X0031527Y0012345D01*
X0031497Y0012382D01*
X0031469Y0012421D01*
X0031444Y0012463D01*
X0031424Y0012507D01*
X0031406Y0012552D01*
X0031393Y0012598D01*
X0031383Y0012645D01*
X0031377Y0012693D01*
X0031375Y0012741D01*
X0038777Y0012741D02*
X0038779Y0012789D01*
X0038785Y0012837D01*
X0038795Y0012884D01*
X0038808Y0012930D01*
X0038826Y0012975D01*
X0038846Y0013019D01*
X0038871Y0013061D01*
X0038899Y0013100D01*
X0038929Y0013137D01*
X0038963Y0013171D01*
X0039000Y0013203D01*
X0039038Y0013232D01*
X0039079Y0013257D01*
X0039122Y0013279D01*
X0039167Y0013297D01*
X0039213Y0013311D01*
X0039260Y0013322D01*
X0039308Y0013329D01*
X0039356Y0013332D01*
X0039404Y0013331D01*
X0039452Y0013326D01*
X0039500Y0013317D01*
X0039546Y0013305D01*
X0039591Y0013288D01*
X0039635Y0013268D01*
X0039677Y0013245D01*
X0039717Y0013218D01*
X0039755Y0013188D01*
X0039790Y0013155D01*
X0039822Y0013119D01*
X0039852Y0013081D01*
X0039878Y0013040D01*
X0039900Y0012997D01*
X0039920Y0012953D01*
X0039935Y0012908D01*
X0039947Y0012861D01*
X0039955Y0012813D01*
X0039959Y0012765D01*
X0039959Y0012717D01*
X0039955Y0012669D01*
X0039947Y0012621D01*
X0039935Y0012574D01*
X0039920Y0012529D01*
X0039900Y0012485D01*
X0039878Y0012442D01*
X0039852Y0012401D01*
X0039822Y0012363D01*
X0039790Y0012327D01*
X0039755Y0012294D01*
X0039717Y0012264D01*
X0039677Y0012237D01*
X0039635Y0012214D01*
X0039591Y0012194D01*
X0039546Y0012177D01*
X0039500Y0012165D01*
X0039452Y0012156D01*
X0039404Y0012151D01*
X0039356Y0012150D01*
X0039308Y0012153D01*
X0039260Y0012160D01*
X0039213Y0012171D01*
X0039167Y0012185D01*
X0039122Y0012203D01*
X0039079Y0012225D01*
X0039038Y0012250D01*
X0039000Y0012279D01*
X0038963Y0012311D01*
X0038929Y0012345D01*
X0038899Y0012382D01*
X0038871Y0012421D01*
X0038846Y0012463D01*
X0038826Y0012507D01*
X0038808Y0012552D01*
X0038795Y0012598D01*
X0038785Y0012645D01*
X0038779Y0012693D01*
X0038777Y0012741D01*
X0038777Y0020142D02*
X0038779Y0020190D01*
X0038785Y0020238D01*
X0038795Y0020285D01*
X0038808Y0020331D01*
X0038826Y0020376D01*
X0038846Y0020420D01*
X0038871Y0020462D01*
X0038899Y0020501D01*
X0038929Y0020538D01*
X0038963Y0020572D01*
X0039000Y0020604D01*
X0039038Y0020633D01*
X0039079Y0020658D01*
X0039122Y0020680D01*
X0039167Y0020698D01*
X0039213Y0020712D01*
X0039260Y0020723D01*
X0039308Y0020730D01*
X0039356Y0020733D01*
X0039404Y0020732D01*
X0039452Y0020727D01*
X0039500Y0020718D01*
X0039546Y0020706D01*
X0039591Y0020689D01*
X0039635Y0020669D01*
X0039677Y0020646D01*
X0039717Y0020619D01*
X0039755Y0020589D01*
X0039790Y0020556D01*
X0039822Y0020520D01*
X0039852Y0020482D01*
X0039878Y0020441D01*
X0039900Y0020398D01*
X0039920Y0020354D01*
X0039935Y0020309D01*
X0039947Y0020262D01*
X0039955Y0020214D01*
X0039959Y0020166D01*
X0039959Y0020118D01*
X0039955Y0020070D01*
X0039947Y0020022D01*
X0039935Y0019975D01*
X0039920Y0019930D01*
X0039900Y0019886D01*
X0039878Y0019843D01*
X0039852Y0019802D01*
X0039822Y0019764D01*
X0039790Y0019728D01*
X0039755Y0019695D01*
X0039717Y0019665D01*
X0039677Y0019638D01*
X0039635Y0019615D01*
X0039591Y0019595D01*
X0039546Y0019578D01*
X0039500Y0019566D01*
X0039452Y0019557D01*
X0039404Y0019552D01*
X0039356Y0019551D01*
X0039308Y0019554D01*
X0039260Y0019561D01*
X0039213Y0019572D01*
X0039167Y0019586D01*
X0039122Y0019604D01*
X0039079Y0019626D01*
X0039038Y0019651D01*
X0039000Y0019680D01*
X0038963Y0019712D01*
X0038929Y0019746D01*
X0038899Y0019783D01*
X0038871Y0019822D01*
X0038846Y0019864D01*
X0038826Y0019908D01*
X0038808Y0019953D01*
X0038795Y0019999D01*
X0038785Y0020046D01*
X0038779Y0020094D01*
X0038777Y0020142D01*
X0031375Y0020142D02*
X0031377Y0020190D01*
X0031383Y0020238D01*
X0031393Y0020285D01*
X0031406Y0020331D01*
X0031424Y0020376D01*
X0031444Y0020420D01*
X0031469Y0020462D01*
X0031497Y0020501D01*
X0031527Y0020538D01*
X0031561Y0020572D01*
X0031598Y0020604D01*
X0031636Y0020633D01*
X0031677Y0020658D01*
X0031720Y0020680D01*
X0031765Y0020698D01*
X0031811Y0020712D01*
X0031858Y0020723D01*
X0031906Y0020730D01*
X0031954Y0020733D01*
X0032002Y0020732D01*
X0032050Y0020727D01*
X0032098Y0020718D01*
X0032144Y0020706D01*
X0032189Y0020689D01*
X0032233Y0020669D01*
X0032275Y0020646D01*
X0032315Y0020619D01*
X0032353Y0020589D01*
X0032388Y0020556D01*
X0032420Y0020520D01*
X0032450Y0020482D01*
X0032476Y0020441D01*
X0032498Y0020398D01*
X0032518Y0020354D01*
X0032533Y0020309D01*
X0032545Y0020262D01*
X0032553Y0020214D01*
X0032557Y0020166D01*
X0032557Y0020118D01*
X0032553Y0020070D01*
X0032545Y0020022D01*
X0032533Y0019975D01*
X0032518Y0019930D01*
X0032498Y0019886D01*
X0032476Y0019843D01*
X0032450Y0019802D01*
X0032420Y0019764D01*
X0032388Y0019728D01*
X0032353Y0019695D01*
X0032315Y0019665D01*
X0032275Y0019638D01*
X0032233Y0019615D01*
X0032189Y0019595D01*
X0032144Y0019578D01*
X0032098Y0019566D01*
X0032050Y0019557D01*
X0032002Y0019552D01*
X0031954Y0019551D01*
X0031906Y0019554D01*
X0031858Y0019561D01*
X0031811Y0019572D01*
X0031765Y0019586D01*
X0031720Y0019604D01*
X0031677Y0019626D01*
X0031636Y0019651D01*
X0031598Y0019680D01*
X0031561Y0019712D01*
X0031527Y0019746D01*
X0031497Y0019783D01*
X0031469Y0019822D01*
X0031444Y0019864D01*
X0031424Y0019908D01*
X0031406Y0019953D01*
X0031393Y0019999D01*
X0031383Y0020046D01*
X0031377Y0020094D01*
X0031375Y0020142D01*
X0089643Y0020142D02*
X0089645Y0020190D01*
X0089651Y0020238D01*
X0089661Y0020285D01*
X0089674Y0020331D01*
X0089692Y0020376D01*
X0089712Y0020420D01*
X0089737Y0020462D01*
X0089765Y0020501D01*
X0089795Y0020538D01*
X0089829Y0020572D01*
X0089866Y0020604D01*
X0089904Y0020633D01*
X0089945Y0020658D01*
X0089988Y0020680D01*
X0090033Y0020698D01*
X0090079Y0020712D01*
X0090126Y0020723D01*
X0090174Y0020730D01*
X0090222Y0020733D01*
X0090270Y0020732D01*
X0090318Y0020727D01*
X0090366Y0020718D01*
X0090412Y0020706D01*
X0090457Y0020689D01*
X0090501Y0020669D01*
X0090543Y0020646D01*
X0090583Y0020619D01*
X0090621Y0020589D01*
X0090656Y0020556D01*
X0090688Y0020520D01*
X0090718Y0020482D01*
X0090744Y0020441D01*
X0090766Y0020398D01*
X0090786Y0020354D01*
X0090801Y0020309D01*
X0090813Y0020262D01*
X0090821Y0020214D01*
X0090825Y0020166D01*
X0090825Y0020118D01*
X0090821Y0020070D01*
X0090813Y0020022D01*
X0090801Y0019975D01*
X0090786Y0019930D01*
X0090766Y0019886D01*
X0090744Y0019843D01*
X0090718Y0019802D01*
X0090688Y0019764D01*
X0090656Y0019728D01*
X0090621Y0019695D01*
X0090583Y0019665D01*
X0090543Y0019638D01*
X0090501Y0019615D01*
X0090457Y0019595D01*
X0090412Y0019578D01*
X0090366Y0019566D01*
X0090318Y0019557D01*
X0090270Y0019552D01*
X0090222Y0019551D01*
X0090174Y0019554D01*
X0090126Y0019561D01*
X0090079Y0019572D01*
X0090033Y0019586D01*
X0089988Y0019604D01*
X0089945Y0019626D01*
X0089904Y0019651D01*
X0089866Y0019680D01*
X0089829Y0019712D01*
X0089795Y0019746D01*
X0089765Y0019783D01*
X0089737Y0019822D01*
X0089712Y0019864D01*
X0089692Y0019908D01*
X0089674Y0019953D01*
X0089661Y0019999D01*
X0089651Y0020046D01*
X0089645Y0020094D01*
X0089643Y0020142D01*
X0089643Y0012741D02*
X0089645Y0012789D01*
X0089651Y0012837D01*
X0089661Y0012884D01*
X0089674Y0012930D01*
X0089692Y0012975D01*
X0089712Y0013019D01*
X0089737Y0013061D01*
X0089765Y0013100D01*
X0089795Y0013137D01*
X0089829Y0013171D01*
X0089866Y0013203D01*
X0089904Y0013232D01*
X0089945Y0013257D01*
X0089988Y0013279D01*
X0090033Y0013297D01*
X0090079Y0013311D01*
X0090126Y0013322D01*
X0090174Y0013329D01*
X0090222Y0013332D01*
X0090270Y0013331D01*
X0090318Y0013326D01*
X0090366Y0013317D01*
X0090412Y0013305D01*
X0090457Y0013288D01*
X0090501Y0013268D01*
X0090543Y0013245D01*
X0090583Y0013218D01*
X0090621Y0013188D01*
X0090656Y0013155D01*
X0090688Y0013119D01*
X0090718Y0013081D01*
X0090744Y0013040D01*
X0090766Y0012997D01*
X0090786Y0012953D01*
X0090801Y0012908D01*
X0090813Y0012861D01*
X0090821Y0012813D01*
X0090825Y0012765D01*
X0090825Y0012717D01*
X0090821Y0012669D01*
X0090813Y0012621D01*
X0090801Y0012574D01*
X0090786Y0012529D01*
X0090766Y0012485D01*
X0090744Y0012442D01*
X0090718Y0012401D01*
X0090688Y0012363D01*
X0090656Y0012327D01*
X0090621Y0012294D01*
X0090583Y0012264D01*
X0090543Y0012237D01*
X0090501Y0012214D01*
X0090457Y0012194D01*
X0090412Y0012177D01*
X0090366Y0012165D01*
X0090318Y0012156D01*
X0090270Y0012151D01*
X0090222Y0012150D01*
X0090174Y0012153D01*
X0090126Y0012160D01*
X0090079Y0012171D01*
X0090033Y0012185D01*
X0089988Y0012203D01*
X0089945Y0012225D01*
X0089904Y0012250D01*
X0089866Y0012279D01*
X0089829Y0012311D01*
X0089795Y0012345D01*
X0089765Y0012382D01*
X0089737Y0012421D01*
X0089712Y0012463D01*
X0089692Y0012507D01*
X0089674Y0012552D01*
X0089661Y0012598D01*
X0089651Y0012645D01*
X0089645Y0012693D01*
X0089643Y0012741D01*
X0097044Y0012741D02*
X0097046Y0012789D01*
X0097052Y0012837D01*
X0097062Y0012884D01*
X0097075Y0012930D01*
X0097093Y0012975D01*
X0097113Y0013019D01*
X0097138Y0013061D01*
X0097166Y0013100D01*
X0097196Y0013137D01*
X0097230Y0013171D01*
X0097267Y0013203D01*
X0097305Y0013232D01*
X0097346Y0013257D01*
X0097389Y0013279D01*
X0097434Y0013297D01*
X0097480Y0013311D01*
X0097527Y0013322D01*
X0097575Y0013329D01*
X0097623Y0013332D01*
X0097671Y0013331D01*
X0097719Y0013326D01*
X0097767Y0013317D01*
X0097813Y0013305D01*
X0097858Y0013288D01*
X0097902Y0013268D01*
X0097944Y0013245D01*
X0097984Y0013218D01*
X0098022Y0013188D01*
X0098057Y0013155D01*
X0098089Y0013119D01*
X0098119Y0013081D01*
X0098145Y0013040D01*
X0098167Y0012997D01*
X0098187Y0012953D01*
X0098202Y0012908D01*
X0098214Y0012861D01*
X0098222Y0012813D01*
X0098226Y0012765D01*
X0098226Y0012717D01*
X0098222Y0012669D01*
X0098214Y0012621D01*
X0098202Y0012574D01*
X0098187Y0012529D01*
X0098167Y0012485D01*
X0098145Y0012442D01*
X0098119Y0012401D01*
X0098089Y0012363D01*
X0098057Y0012327D01*
X0098022Y0012294D01*
X0097984Y0012264D01*
X0097944Y0012237D01*
X0097902Y0012214D01*
X0097858Y0012194D01*
X0097813Y0012177D01*
X0097767Y0012165D01*
X0097719Y0012156D01*
X0097671Y0012151D01*
X0097623Y0012150D01*
X0097575Y0012153D01*
X0097527Y0012160D01*
X0097480Y0012171D01*
X0097434Y0012185D01*
X0097389Y0012203D01*
X0097346Y0012225D01*
X0097305Y0012250D01*
X0097267Y0012279D01*
X0097230Y0012311D01*
X0097196Y0012345D01*
X0097166Y0012382D01*
X0097138Y0012421D01*
X0097113Y0012463D01*
X0097093Y0012507D01*
X0097075Y0012552D01*
X0097062Y0012598D01*
X0097052Y0012645D01*
X0097046Y0012693D01*
X0097044Y0012741D01*
X0097044Y0020142D02*
X0097046Y0020190D01*
X0097052Y0020238D01*
X0097062Y0020285D01*
X0097075Y0020331D01*
X0097093Y0020376D01*
X0097113Y0020420D01*
X0097138Y0020462D01*
X0097166Y0020501D01*
X0097196Y0020538D01*
X0097230Y0020572D01*
X0097267Y0020604D01*
X0097305Y0020633D01*
X0097346Y0020658D01*
X0097389Y0020680D01*
X0097434Y0020698D01*
X0097480Y0020712D01*
X0097527Y0020723D01*
X0097575Y0020730D01*
X0097623Y0020733D01*
X0097671Y0020732D01*
X0097719Y0020727D01*
X0097767Y0020718D01*
X0097813Y0020706D01*
X0097858Y0020689D01*
X0097902Y0020669D01*
X0097944Y0020646D01*
X0097984Y0020619D01*
X0098022Y0020589D01*
X0098057Y0020556D01*
X0098089Y0020520D01*
X0098119Y0020482D01*
X0098145Y0020441D01*
X0098167Y0020398D01*
X0098187Y0020354D01*
X0098202Y0020309D01*
X0098214Y0020262D01*
X0098222Y0020214D01*
X0098226Y0020166D01*
X0098226Y0020118D01*
X0098222Y0020070D01*
X0098214Y0020022D01*
X0098202Y0019975D01*
X0098187Y0019930D01*
X0098167Y0019886D01*
X0098145Y0019843D01*
X0098119Y0019802D01*
X0098089Y0019764D01*
X0098057Y0019728D01*
X0098022Y0019695D01*
X0097984Y0019665D01*
X0097944Y0019638D01*
X0097902Y0019615D01*
X0097858Y0019595D01*
X0097813Y0019578D01*
X0097767Y0019566D01*
X0097719Y0019557D01*
X0097671Y0019552D01*
X0097623Y0019551D01*
X0097575Y0019554D01*
X0097527Y0019561D01*
X0097480Y0019572D01*
X0097434Y0019586D01*
X0097389Y0019604D01*
X0097346Y0019626D01*
X0097305Y0019651D01*
X0097267Y0019680D01*
X0097230Y0019712D01*
X0097196Y0019746D01*
X0097166Y0019783D01*
X0097138Y0019822D01*
X0097113Y0019864D01*
X0097093Y0019908D01*
X0097075Y0019953D01*
X0097062Y0019999D01*
X0097052Y0020046D01*
X0097046Y0020094D01*
X0097044Y0020142D01*
D11*
X0079801Y0014867D03*
X0069801Y0014867D03*
X0059801Y0014867D03*
X0049801Y0014867D03*
X0035273Y0040851D03*
X0035273Y0050851D03*
X0035273Y0060851D03*
X0035273Y0070851D03*
X0035273Y0080851D03*
D12*
X0035667Y0016441D03*
X0093935Y0016441D03*
D13*
X0082911Y0020772D03*
X0075824Y0018804D03*
X0069801Y0020378D03*
X0064801Y0018410D03*
X0054801Y0017504D03*
X0054565Y0020772D03*
X0049801Y0020378D03*
X0043541Y0021914D03*
X0043383Y0018213D03*
X0035509Y0023725D03*
X0035509Y0026087D03*
X0035509Y0028449D03*
X0043147Y0036127D03*
X0044328Y0040851D03*
X0053383Y0037701D03*
X0055746Y0041638D03*
X0056927Y0045969D03*
X0060076Y0045969D03*
X0052793Y0049906D03*
X0061651Y0053843D03*
X0062045Y0058567D03*
X0070313Y0052268D03*
X0078423Y0051993D03*
X0078187Y0045575D03*
X0081021Y0042465D03*
X0083305Y0044945D03*
X0085273Y0048725D03*
X0091572Y0048331D03*
X0093069Y0056481D03*
X0088817Y0056993D03*
X0088817Y0062819D03*
X0088817Y0065654D03*
X0092360Y0067741D03*
X0093147Y0070772D03*
X0089998Y0070064D03*
X0088029Y0072583D03*
X0086061Y0075142D03*
X0084486Y0077662D03*
X0088423Y0079473D03*
X0075037Y0070772D03*
X0071100Y0068804D03*
X0067163Y0070772D03*
X0067163Y0066441D03*
X0075037Y0065260D03*
X0078620Y0061835D03*
X0073462Y0081008D03*
X0064210Y0081560D03*
X0054958Y0086520D03*
X0049053Y0082189D03*
X0049250Y0077071D03*
X0049919Y0074119D03*
X0052006Y0071953D03*
X0048659Y0065654D03*
X0045116Y0069197D03*
X0069525Y0040064D03*
X0065194Y0038489D03*
X0062006Y0038528D03*
X0080549Y0037308D03*
X0085273Y0030615D03*
X0094722Y0035733D03*
X0097872Y0034158D03*
D14*
X0081021Y0042465D02*
X0081021Y0049355D01*
X0078423Y0051953D01*
D15*
X0078580Y0055418D02*
X0074446Y0055418D01*
X0054627Y0075237D01*
X0051037Y0075237D01*
X0049919Y0074119D01*
X0078580Y0055418D02*
X0085273Y0048725D01*
X0098734Y0027071D02*
X0098734Y0022000D01*
X0098501Y0022233D01*
X0096769Y0022233D01*
X0095872Y0021335D01*
X0095165Y0021565D01*
X0094435Y0021680D01*
X0094435Y0016942D01*
X0093435Y0016942D01*
X0093435Y0021680D01*
X0092705Y0021565D01*
X0091997Y0021335D01*
X0091100Y0022233D01*
X0089368Y0022233D01*
X0088143Y0021008D01*
X0088143Y0019276D01*
X0089041Y0018379D01*
X0088811Y0017671D01*
X0088696Y0016941D01*
X0093435Y0016941D01*
X0093435Y0015941D01*
X0088696Y0015941D01*
X0088811Y0015211D01*
X0089041Y0014504D01*
X0088616Y0014079D01*
X0084301Y0014079D01*
X0084301Y0015762D01*
X0083616Y0017416D01*
X0082350Y0018682D01*
X0080696Y0019367D01*
X0078906Y0019367D01*
X0078427Y0019168D01*
X0078427Y0019321D01*
X0078031Y0020278D01*
X0077299Y0021010D01*
X0076342Y0021406D01*
X0075307Y0021406D01*
X0074350Y0021010D01*
X0073618Y0020278D01*
X0073222Y0019321D01*
X0073222Y0018286D01*
X0073559Y0017472D01*
X0072350Y0018682D01*
X0071950Y0018847D01*
X0072007Y0018904D01*
X0072403Y0019861D01*
X0072403Y0020896D01*
X0072007Y0021853D01*
X0071275Y0022585D01*
X0070318Y0022981D01*
X0069283Y0022981D01*
X0068327Y0022585D01*
X0067595Y0021853D01*
X0067198Y0020896D01*
X0067198Y0019861D01*
X0067595Y0018904D01*
X0067652Y0018847D01*
X0067252Y0018682D01*
X0065986Y0017416D01*
X0065301Y0015762D01*
X0065301Y0014079D01*
X0064301Y0014079D01*
X0064301Y0015762D01*
X0063616Y0017416D01*
X0062350Y0018682D01*
X0060696Y0019367D01*
X0058906Y0019367D01*
X0057252Y0018682D01*
X0055986Y0017416D01*
X0055301Y0015762D01*
X0055301Y0014079D01*
X0054301Y0014079D01*
X0054301Y0015762D01*
X0053616Y0017416D01*
X0052350Y0018682D01*
X0051950Y0018847D01*
X0052007Y0018904D01*
X0052264Y0019525D01*
X0052358Y0019298D01*
X0053090Y0018566D01*
X0054047Y0018170D01*
X0055082Y0018170D01*
X0056039Y0018566D01*
X0056771Y0019298D01*
X0057167Y0020255D01*
X0057167Y0021290D01*
X0057049Y0021575D01*
X0057049Y0027071D01*
X0098734Y0027071D01*
X0098734Y0026118D02*
X0057049Y0026118D01*
X0057049Y0025120D02*
X0098734Y0025120D01*
X0098734Y0024121D02*
X0057049Y0024121D01*
X0057049Y0023123D02*
X0098734Y0023123D01*
X0098734Y0022124D02*
X0098610Y0022124D01*
X0096661Y0022124D02*
X0091208Y0022124D01*
X0089260Y0022124D02*
X0071735Y0022124D01*
X0072308Y0021126D02*
X0074630Y0021126D01*
X0073556Y0020127D02*
X0072403Y0020127D01*
X0072100Y0019129D02*
X0073222Y0019129D01*
X0073287Y0018130D02*
X0072901Y0018130D01*
X0077018Y0021126D02*
X0088261Y0021126D01*
X0088143Y0020127D02*
X0078093Y0020127D01*
X0081270Y0019129D02*
X0088291Y0019129D01*
X0088960Y0018130D02*
X0082901Y0018130D01*
X0083733Y0017132D02*
X0088726Y0017132D01*
X0088836Y0015135D02*
X0084301Y0015135D01*
X0084301Y0014136D02*
X0088673Y0014136D01*
X0084147Y0016133D02*
X0093435Y0016133D01*
X0093435Y0017132D02*
X0094435Y0017132D01*
X0094435Y0018130D02*
X0093435Y0018130D01*
X0093435Y0019129D02*
X0094435Y0019129D01*
X0094435Y0020127D02*
X0093435Y0020127D01*
X0093435Y0021126D02*
X0094435Y0021126D01*
X0067866Y0022124D02*
X0057049Y0022124D01*
X0057167Y0021126D02*
X0067294Y0021126D01*
X0067198Y0020127D02*
X0057114Y0020127D01*
X0056602Y0019129D02*
X0058332Y0019129D01*
X0056701Y0018130D02*
X0052901Y0018130D01*
X0052528Y0019129D02*
X0052100Y0019129D01*
X0052080Y0021675D02*
X0052007Y0021853D01*
X0051275Y0022585D01*
X0050318Y0022981D01*
X0049283Y0022981D01*
X0048327Y0022585D01*
X0047595Y0021853D01*
X0047198Y0020896D01*
X0047198Y0019861D01*
X0047595Y0018904D01*
X0047652Y0018847D01*
X0047252Y0018682D01*
X0045986Y0017416D01*
X0045301Y0015762D01*
X0045301Y0014079D01*
X0040986Y0014079D01*
X0040706Y0014359D01*
X0041120Y0015357D01*
X0041120Y0017526D01*
X0040706Y0018524D01*
X0041458Y0019276D01*
X0041458Y0021008D01*
X0040234Y0022233D01*
X0038502Y0022233D01*
X0037750Y0021481D01*
X0036752Y0021894D01*
X0034582Y0021894D01*
X0033584Y0021481D01*
X0032832Y0022233D01*
X0031100Y0022233D01*
X0030868Y0022000D01*
X0030868Y0027071D01*
X0052080Y0027071D01*
X0052080Y0021675D01*
X0052080Y0022124D02*
X0051735Y0022124D01*
X0052080Y0023123D02*
X0030868Y0023123D01*
X0030868Y0024121D02*
X0052080Y0024121D01*
X0052080Y0025120D02*
X0030868Y0025120D01*
X0030868Y0026118D02*
X0052080Y0026118D01*
X0047866Y0022124D02*
X0040342Y0022124D01*
X0041341Y0021126D02*
X0047294Y0021126D01*
X0047198Y0020127D02*
X0041458Y0020127D01*
X0041311Y0019129D02*
X0047502Y0019129D01*
X0046701Y0018130D02*
X0040869Y0018130D01*
X0041120Y0017132D02*
X0045868Y0017132D01*
X0045455Y0016133D02*
X0041120Y0016133D01*
X0041028Y0015135D02*
X0045301Y0015135D01*
X0045301Y0014136D02*
X0040929Y0014136D01*
X0038393Y0022124D02*
X0032940Y0022124D01*
X0030992Y0022124D02*
X0030868Y0022124D01*
X0053733Y0017132D02*
X0055868Y0017132D01*
X0055455Y0016133D02*
X0054147Y0016133D01*
X0054301Y0015135D02*
X0055301Y0015135D01*
X0055301Y0014136D02*
X0054301Y0014136D01*
X0061270Y0019129D02*
X0067502Y0019129D01*
X0066701Y0018130D02*
X0062901Y0018130D01*
X0063733Y0017132D02*
X0065868Y0017132D01*
X0065455Y0016133D02*
X0064147Y0016133D01*
X0064301Y0015135D02*
X0065301Y0015135D01*
X0065301Y0014136D02*
X0064301Y0014136D01*
D16*
X0044374Y0034098D02*
X0093101Y0034098D01*
X0093768Y0033430D02*
X0092420Y0034779D01*
X0092420Y0036686D01*
X0093768Y0038035D01*
X0095676Y0038035D01*
X0097024Y0036686D01*
X0097024Y0036460D01*
X0098825Y0036460D01*
X0099034Y0036252D01*
X0099034Y0074334D01*
X0091179Y0082189D01*
X0075537Y0082189D01*
X0075765Y0081962D01*
X0075765Y0080055D01*
X0074416Y0078706D01*
X0072509Y0078706D01*
X0071160Y0080055D01*
X0071160Y0081962D01*
X0071387Y0082189D01*
X0051355Y0082189D01*
X0051355Y0081236D01*
X0050006Y0079887D01*
X0048099Y0079887D01*
X0046750Y0081236D01*
X0046750Y0082189D01*
X0040391Y0082189D01*
X0040391Y0029434D01*
X0099034Y0029434D01*
X0099034Y0032064D01*
X0098825Y0031856D01*
X0096918Y0031856D01*
X0095569Y0033204D01*
X0095569Y0033430D01*
X0093768Y0033430D01*
X0095569Y0033299D02*
X0040391Y0033299D01*
X0040391Y0032501D02*
X0096273Y0032501D01*
X0099034Y0031702D02*
X0040391Y0031702D01*
X0040391Y0030904D02*
X0099034Y0030904D01*
X0099034Y0030105D02*
X0040391Y0030105D01*
X0040391Y0034098D02*
X0041920Y0034098D01*
X0042194Y0033824D02*
X0044101Y0033824D01*
X0045450Y0035173D01*
X0045450Y0037080D01*
X0044101Y0038429D01*
X0042194Y0038429D01*
X0040845Y0037080D01*
X0040845Y0035173D01*
X0042194Y0033824D01*
X0041122Y0034896D02*
X0040391Y0034896D01*
X0040391Y0035695D02*
X0040845Y0035695D01*
X0040845Y0036493D02*
X0040391Y0036493D01*
X0040391Y0037292D02*
X0041056Y0037292D01*
X0040391Y0038090D02*
X0041855Y0038090D01*
X0043035Y0038889D02*
X0040391Y0038889D01*
X0040391Y0039687D02*
X0042236Y0039687D01*
X0042026Y0039897D02*
X0043375Y0038549D01*
X0045282Y0038549D01*
X0046631Y0039897D01*
X0046631Y0041805D01*
X0045282Y0043153D01*
X0043375Y0043153D01*
X0042026Y0041805D01*
X0042026Y0039897D01*
X0042026Y0040486D02*
X0040391Y0040486D01*
X0040391Y0041284D02*
X0042026Y0041284D01*
X0042304Y0042083D02*
X0040391Y0042083D01*
X0040391Y0042881D02*
X0043103Y0042881D01*
X0045554Y0042881D02*
X0053733Y0042881D01*
X0053443Y0042592D02*
X0053443Y0040685D01*
X0054124Y0040004D01*
X0052430Y0040004D01*
X0051081Y0038655D01*
X0051081Y0036748D01*
X0052430Y0035399D01*
X0054337Y0035399D01*
X0055686Y0036748D01*
X0055686Y0038655D01*
X0055005Y0039336D01*
X0056699Y0039336D01*
X0058048Y0040685D01*
X0058048Y0042592D01*
X0056973Y0043667D01*
X0057880Y0043667D01*
X0058502Y0044288D01*
X0059123Y0043667D01*
X0061030Y0043667D01*
X0062379Y0045015D01*
X0062379Y0046923D01*
X0061030Y0048271D01*
X0059123Y0048271D01*
X0058502Y0047650D01*
X0057880Y0048271D01*
X0055973Y0048271D01*
X0054624Y0046923D01*
X0054624Y0045015D01*
X0055699Y0043941D01*
X0054792Y0043941D01*
X0053443Y0042592D01*
X0053443Y0042083D02*
X0046353Y0042083D01*
X0046631Y0041284D02*
X0053443Y0041284D01*
X0053642Y0040486D02*
X0046631Y0040486D01*
X0046421Y0039687D02*
X0052113Y0039687D01*
X0051315Y0038889D02*
X0045622Y0038889D01*
X0044440Y0038090D02*
X0051081Y0038090D01*
X0051081Y0037292D02*
X0045238Y0037292D01*
X0045450Y0036493D02*
X0051336Y0036493D01*
X0052134Y0035695D02*
X0045450Y0035695D01*
X0045173Y0034896D02*
X0092420Y0034896D01*
X0092420Y0035695D02*
X0082192Y0035695D01*
X0082851Y0036354D02*
X0081502Y0035005D01*
X0079595Y0035005D01*
X0078246Y0036354D01*
X0078246Y0038261D01*
X0079595Y0039610D01*
X0081502Y0039610D01*
X0082851Y0038261D01*
X0082851Y0036354D01*
X0082851Y0036493D02*
X0092420Y0036493D01*
X0093025Y0037292D02*
X0082851Y0037292D01*
X0082851Y0038090D02*
X0099034Y0038090D01*
X0099034Y0037292D02*
X0096419Y0037292D01*
X0097024Y0036493D02*
X0099034Y0036493D01*
X0099034Y0038889D02*
X0082224Y0038889D01*
X0081975Y0040163D02*
X0083324Y0041511D01*
X0083324Y0042643D01*
X0084258Y0042643D01*
X0085607Y0043992D01*
X0085607Y0045899D01*
X0085084Y0046423D01*
X0086227Y0046423D01*
X0087576Y0047771D01*
X0087576Y0049679D01*
X0086227Y0051027D01*
X0085375Y0051027D01*
X0079284Y0057118D01*
X0077876Y0057118D01*
X0075151Y0057118D01*
X0068123Y0064145D01*
X0069465Y0065488D01*
X0069465Y0067182D01*
X0070146Y0066501D01*
X0072054Y0066501D01*
X0073402Y0067850D01*
X0073402Y0069151D01*
X0074083Y0068470D01*
X0075991Y0068470D01*
X0077339Y0069818D01*
X0077339Y0071726D01*
X0075991Y0073075D01*
X0074083Y0073075D01*
X0072735Y0071726D01*
X0072735Y0070425D01*
X0072054Y0071106D01*
X0070146Y0071106D01*
X0069465Y0070425D01*
X0069465Y0071726D01*
X0068117Y0073075D01*
X0066209Y0073075D01*
X0064861Y0071726D01*
X0064861Y0069818D01*
X0066072Y0068607D01*
X0064867Y0067401D01*
X0055331Y0076937D01*
X0050333Y0076937D01*
X0049817Y0076421D01*
X0048965Y0076421D01*
X0047617Y0075072D01*
X0047617Y0073165D01*
X0048965Y0071816D01*
X0049703Y0071816D01*
X0049703Y0071000D01*
X0051052Y0069651D01*
X0052959Y0069651D01*
X0054308Y0071000D01*
X0054308Y0072907D01*
X0053678Y0073537D01*
X0053923Y0073537D01*
X0073742Y0053718D01*
X0076892Y0053718D01*
X0076120Y0052946D01*
X0076120Y0051039D01*
X0077469Y0049690D01*
X0078565Y0049690D01*
X0079521Y0048734D01*
X0079521Y0044221D01*
X0078719Y0043419D01*
X0078719Y0041511D01*
X0080068Y0040163D01*
X0081975Y0040163D01*
X0082298Y0040486D02*
X0099034Y0040486D01*
X0099034Y0041284D02*
X0083096Y0041284D01*
X0083324Y0042083D02*
X0099034Y0042083D01*
X0099034Y0042881D02*
X0084497Y0042881D01*
X0085295Y0043680D02*
X0099034Y0043680D01*
X0099034Y0044478D02*
X0085607Y0044478D01*
X0085607Y0045277D02*
X0099034Y0045277D01*
X0099034Y0046075D02*
X0092573Y0046075D01*
X0092526Y0046029D02*
X0093875Y0047378D01*
X0093875Y0049285D01*
X0092526Y0050634D01*
X0090619Y0050634D01*
X0089270Y0049285D01*
X0089270Y0047378D01*
X0090619Y0046029D01*
X0092526Y0046029D01*
X0093371Y0046874D02*
X0099034Y0046874D01*
X0099034Y0047672D02*
X0093875Y0047672D01*
X0093875Y0048471D02*
X0099034Y0048471D01*
X0099034Y0049269D02*
X0093875Y0049269D01*
X0093092Y0050068D02*
X0099034Y0050068D01*
X0099034Y0050866D02*
X0086388Y0050866D01*
X0087186Y0050068D02*
X0090053Y0050068D01*
X0089270Y0049269D02*
X0087576Y0049269D01*
X0087576Y0048471D02*
X0089270Y0048471D01*
X0089270Y0047672D02*
X0087477Y0047672D01*
X0086678Y0046874D02*
X0089774Y0046874D01*
X0090572Y0046075D02*
X0085431Y0046075D01*
X0079521Y0046075D02*
X0062379Y0046075D01*
X0062379Y0045277D02*
X0079521Y0045277D01*
X0079521Y0044478D02*
X0061842Y0044478D01*
X0061043Y0043680D02*
X0078980Y0043680D01*
X0078719Y0042881D02*
X0057759Y0042881D01*
X0057893Y0043680D02*
X0059110Y0043680D01*
X0058048Y0042083D02*
X0068288Y0042083D01*
X0068572Y0042366D02*
X0067223Y0041017D01*
X0067223Y0039716D01*
X0066148Y0040791D01*
X0064241Y0040791D01*
X0063620Y0040170D01*
X0062959Y0040830D01*
X0061052Y0040830D01*
X0059703Y0039482D01*
X0059703Y0037574D01*
X0061052Y0036226D01*
X0062959Y0036226D01*
X0063580Y0036847D01*
X0064241Y0036186D01*
X0066148Y0036186D01*
X0067497Y0037535D01*
X0067497Y0038836D01*
X0068572Y0037761D01*
X0070479Y0037761D01*
X0071828Y0039110D01*
X0071828Y0041017D01*
X0070479Y0042366D01*
X0068572Y0042366D01*
X0067490Y0041284D02*
X0058048Y0041284D01*
X0057849Y0040486D02*
X0060707Y0040486D01*
X0059909Y0039687D02*
X0057051Y0039687D01*
X0055452Y0038889D02*
X0059703Y0038889D01*
X0059703Y0038090D02*
X0055686Y0038090D01*
X0055686Y0037292D02*
X0059986Y0037292D01*
X0060784Y0036493D02*
X0055431Y0036493D01*
X0054633Y0035695D02*
X0078906Y0035695D01*
X0078246Y0036493D02*
X0066455Y0036493D01*
X0067253Y0037292D02*
X0078246Y0037292D01*
X0078246Y0038090D02*
X0070808Y0038090D01*
X0071606Y0038889D02*
X0078874Y0038889D01*
X0079745Y0040486D02*
X0071828Y0040486D01*
X0071828Y0039687D02*
X0099034Y0039687D01*
X0099034Y0051665D02*
X0084737Y0051665D01*
X0083939Y0052463D02*
X0099034Y0052463D01*
X0099034Y0053262D02*
X0083140Y0053262D01*
X0082342Y0054060D02*
X0099034Y0054060D01*
X0099034Y0054859D02*
X0094703Y0054859D01*
X0095371Y0055527D02*
X0094022Y0054178D01*
X0092115Y0054178D01*
X0090766Y0055527D01*
X0090766Y0055686D01*
X0089770Y0054690D01*
X0087863Y0054690D01*
X0086514Y0056039D01*
X0086514Y0057946D01*
X0087863Y0059295D01*
X0089770Y0059295D01*
X0091119Y0057946D01*
X0091119Y0057787D01*
X0092115Y0058783D01*
X0094022Y0058783D01*
X0095371Y0057434D01*
X0095371Y0055527D01*
X0095371Y0055657D02*
X0099034Y0055657D01*
X0099034Y0056456D02*
X0095371Y0056456D01*
X0095371Y0057254D02*
X0099034Y0057254D01*
X0099034Y0058053D02*
X0094752Y0058053D01*
X0091385Y0058053D02*
X0091012Y0058053D01*
X0090214Y0058851D02*
X0099034Y0058851D01*
X0099034Y0059650D02*
X0079691Y0059650D01*
X0079573Y0059533D02*
X0080922Y0060881D01*
X0080922Y0062789D01*
X0079573Y0064138D01*
X0077666Y0064138D01*
X0076317Y0062789D01*
X0076317Y0060881D01*
X0077666Y0059533D01*
X0079573Y0059533D01*
X0080489Y0060448D02*
X0099034Y0060448D01*
X0099034Y0061247D02*
X0090500Y0061247D01*
X0091119Y0061866D02*
X0089770Y0060517D01*
X0087863Y0060517D01*
X0086514Y0061866D01*
X0086514Y0063773D01*
X0086978Y0064237D01*
X0086514Y0064700D01*
X0086514Y0066608D01*
X0087863Y0067956D01*
X0088849Y0067956D01*
X0087695Y0069110D01*
X0087695Y0070281D01*
X0087075Y0070281D01*
X0085727Y0071630D01*
X0085727Y0072840D01*
X0085107Y0072840D01*
X0083758Y0074189D01*
X0083758Y0075360D01*
X0083532Y0075360D01*
X0082183Y0076708D01*
X0082183Y0078616D01*
X0083532Y0079964D01*
X0085439Y0079964D01*
X0086788Y0078616D01*
X0086788Y0077445D01*
X0087014Y0077445D01*
X0088363Y0076096D01*
X0088363Y0074886D01*
X0088983Y0074886D01*
X0090331Y0073537D01*
X0090331Y0072366D01*
X0090951Y0072366D01*
X0091218Y0072099D01*
X0092194Y0073075D01*
X0094101Y0073075D01*
X0095450Y0071726D01*
X0095450Y0069818D01*
X0094101Y0068470D01*
X0092194Y0068470D01*
X0091927Y0068737D01*
X0090951Y0067761D01*
X0089965Y0067761D01*
X0091119Y0066608D01*
X0091119Y0064700D01*
X0090655Y0064237D01*
X0091119Y0063773D01*
X0091119Y0061866D01*
X0091119Y0062045D02*
X0099034Y0062045D01*
X0099034Y0062844D02*
X0091119Y0062844D01*
X0091119Y0063643D02*
X0099034Y0063643D01*
X0099034Y0064441D02*
X0090860Y0064441D01*
X0091119Y0065240D02*
X0099034Y0065240D01*
X0099034Y0066038D02*
X0091119Y0066038D01*
X0090890Y0066837D02*
X0099034Y0066837D01*
X0099034Y0067635D02*
X0090092Y0067635D01*
X0091624Y0068434D02*
X0099034Y0068434D01*
X0099034Y0069232D02*
X0094863Y0069232D01*
X0095450Y0070031D02*
X0099034Y0070031D01*
X0099034Y0070829D02*
X0095450Y0070829D01*
X0095450Y0071628D02*
X0099034Y0071628D01*
X0099034Y0072426D02*
X0094749Y0072426D01*
X0091545Y0072426D02*
X0090331Y0072426D01*
X0090331Y0073225D02*
X0099034Y0073225D01*
X0099034Y0074023D02*
X0089845Y0074023D01*
X0089047Y0074822D02*
X0098547Y0074822D01*
X0097748Y0075620D02*
X0088363Y0075620D01*
X0088040Y0076419D02*
X0096950Y0076419D01*
X0096151Y0077217D02*
X0087242Y0077217D01*
X0086788Y0078016D02*
X0095353Y0078016D01*
X0094554Y0078814D02*
X0086590Y0078814D01*
X0085791Y0079613D02*
X0093755Y0079613D01*
X0092957Y0080411D02*
X0075765Y0080411D01*
X0075765Y0081210D02*
X0092158Y0081210D01*
X0091360Y0082008D02*
X0075718Y0082008D01*
X0075323Y0079613D02*
X0083181Y0079613D01*
X0082382Y0078814D02*
X0074524Y0078814D01*
X0072400Y0078814D02*
X0040391Y0078814D01*
X0040391Y0078016D02*
X0082183Y0078016D01*
X0082183Y0077217D02*
X0040391Y0077217D01*
X0040391Y0076419D02*
X0048963Y0076419D01*
X0048164Y0075620D02*
X0040391Y0075620D01*
X0040391Y0074822D02*
X0047617Y0074822D01*
X0047617Y0074023D02*
X0040391Y0074023D01*
X0040391Y0073225D02*
X0047617Y0073225D01*
X0048355Y0072426D02*
X0040391Y0072426D01*
X0040391Y0071628D02*
X0049703Y0071628D01*
X0049874Y0070829D02*
X0046740Y0070829D01*
X0046069Y0071500D02*
X0047418Y0070151D01*
X0047418Y0068244D01*
X0046069Y0066895D01*
X0044162Y0066895D01*
X0042813Y0068244D01*
X0042813Y0070151D01*
X0044162Y0071500D01*
X0046069Y0071500D01*
X0047418Y0070031D02*
X0050672Y0070031D01*
X0049613Y0067956D02*
X0047705Y0067956D01*
X0046357Y0066608D01*
X0046357Y0064700D01*
X0047705Y0063352D01*
X0049613Y0063352D01*
X0050961Y0064700D01*
X0050961Y0066608D01*
X0049613Y0067956D01*
X0049934Y0067635D02*
X0059825Y0067635D01*
X0060624Y0066837D02*
X0050733Y0066837D01*
X0050961Y0066038D02*
X0061422Y0066038D01*
X0062221Y0065240D02*
X0050961Y0065240D01*
X0050702Y0064441D02*
X0063019Y0064441D01*
X0063818Y0063643D02*
X0049904Y0063643D01*
X0047415Y0063643D02*
X0040391Y0063643D01*
X0040391Y0064441D02*
X0046616Y0064441D01*
X0046357Y0065240D02*
X0040391Y0065240D01*
X0040391Y0066038D02*
X0046357Y0066038D01*
X0046586Y0066837D02*
X0040391Y0066837D01*
X0040391Y0067635D02*
X0043422Y0067635D01*
X0042813Y0068434D02*
X0040391Y0068434D01*
X0040391Y0069232D02*
X0042813Y0069232D01*
X0042813Y0070031D02*
X0040391Y0070031D01*
X0040391Y0070829D02*
X0043491Y0070829D01*
X0047418Y0069232D02*
X0058228Y0069232D01*
X0059027Y0068434D02*
X0047418Y0068434D01*
X0047384Y0067635D02*
X0046809Y0067635D01*
X0053339Y0070031D02*
X0057430Y0070031D01*
X0056631Y0070829D02*
X0054137Y0070829D01*
X0054308Y0071628D02*
X0055833Y0071628D01*
X0055034Y0072426D02*
X0054308Y0072426D01*
X0054235Y0073225D02*
X0053990Y0073225D01*
X0056648Y0075620D02*
X0083272Y0075620D01*
X0083758Y0074822D02*
X0057447Y0074822D01*
X0058245Y0074023D02*
X0083924Y0074023D01*
X0084722Y0073225D02*
X0059044Y0073225D01*
X0059842Y0072426D02*
X0065561Y0072426D01*
X0064861Y0071628D02*
X0060641Y0071628D01*
X0061439Y0070829D02*
X0064861Y0070829D01*
X0064861Y0070031D02*
X0062238Y0070031D01*
X0063036Y0069232D02*
X0065447Y0069232D01*
X0065899Y0068434D02*
X0063835Y0068434D01*
X0064633Y0067635D02*
X0065101Y0067635D01*
X0069217Y0065240D02*
X0072735Y0065240D01*
X0072735Y0066038D02*
X0069465Y0066038D01*
X0069465Y0066837D02*
X0069811Y0066837D01*
X0072389Y0066837D02*
X0073357Y0066837D01*
X0073187Y0067635D02*
X0087542Y0067635D01*
X0086743Y0066837D02*
X0076717Y0066837D01*
X0077339Y0066214D02*
X0075991Y0067563D01*
X0074083Y0067563D01*
X0072735Y0066214D01*
X0072735Y0064307D01*
X0074083Y0062958D01*
X0075991Y0062958D01*
X0077339Y0064307D01*
X0077339Y0066214D01*
X0077339Y0066038D02*
X0086514Y0066038D01*
X0086514Y0065240D02*
X0077339Y0065240D01*
X0077339Y0064441D02*
X0086774Y0064441D01*
X0086514Y0063643D02*
X0080068Y0063643D01*
X0080867Y0062844D02*
X0086514Y0062844D01*
X0086514Y0062045D02*
X0080922Y0062045D01*
X0080922Y0061247D02*
X0087133Y0061247D01*
X0087419Y0058851D02*
X0073417Y0058851D01*
X0074216Y0058053D02*
X0086621Y0058053D01*
X0086514Y0057254D02*
X0075014Y0057254D01*
X0072618Y0059650D02*
X0077549Y0059650D01*
X0076750Y0060448D02*
X0071820Y0060448D01*
X0071021Y0061247D02*
X0076317Y0061247D01*
X0076317Y0062045D02*
X0070223Y0062045D01*
X0069424Y0062844D02*
X0076372Y0062844D01*
X0076675Y0063643D02*
X0077171Y0063643D01*
X0073399Y0063643D02*
X0068626Y0063643D01*
X0068419Y0064441D02*
X0072735Y0064441D01*
X0073402Y0068434D02*
X0088372Y0068434D01*
X0087695Y0069232D02*
X0076753Y0069232D01*
X0077339Y0070031D02*
X0087695Y0070031D01*
X0086527Y0070829D02*
X0077339Y0070829D01*
X0077339Y0071628D02*
X0085729Y0071628D01*
X0085727Y0072426D02*
X0076639Y0072426D01*
X0073435Y0072426D02*
X0068765Y0072426D01*
X0069465Y0071628D02*
X0072735Y0071628D01*
X0072735Y0070829D02*
X0072331Y0070829D01*
X0069869Y0070829D02*
X0069465Y0070829D01*
X0064616Y0062844D02*
X0040391Y0062844D01*
X0040391Y0062045D02*
X0065415Y0062045D01*
X0066213Y0061247D02*
X0040391Y0061247D01*
X0040391Y0060448D02*
X0060670Y0060448D01*
X0061091Y0060870D02*
X0059743Y0059521D01*
X0059743Y0057614D01*
X0061091Y0056265D01*
X0062999Y0056265D01*
X0064347Y0057614D01*
X0064347Y0059521D01*
X0062999Y0060870D01*
X0061091Y0060870D01*
X0059871Y0059650D02*
X0040391Y0059650D01*
X0040391Y0058851D02*
X0059743Y0058851D01*
X0059743Y0058053D02*
X0040391Y0058053D01*
X0040391Y0057254D02*
X0060102Y0057254D01*
X0060900Y0056456D02*
X0040391Y0056456D01*
X0040391Y0055657D02*
X0060210Y0055657D01*
X0060698Y0056145D02*
X0059349Y0054797D01*
X0059349Y0052889D01*
X0060698Y0051541D01*
X0062605Y0051541D01*
X0063954Y0052889D01*
X0063954Y0054797D01*
X0062605Y0056145D01*
X0060698Y0056145D01*
X0059411Y0054859D02*
X0040391Y0054859D01*
X0040391Y0054060D02*
X0059349Y0054060D01*
X0059349Y0053262D02*
X0040391Y0053262D01*
X0040391Y0052463D02*
X0059775Y0052463D01*
X0060573Y0051665D02*
X0040391Y0051665D01*
X0040391Y0050866D02*
X0068458Y0050866D01*
X0068010Y0051315D02*
X0069359Y0049966D01*
X0071266Y0049966D01*
X0072615Y0051315D01*
X0072615Y0053222D01*
X0071266Y0054571D01*
X0069359Y0054571D01*
X0068010Y0053222D01*
X0068010Y0051315D01*
X0068010Y0051665D02*
X0062729Y0051665D01*
X0063528Y0052463D02*
X0068010Y0052463D01*
X0068050Y0053262D02*
X0063954Y0053262D01*
X0063954Y0054060D02*
X0068849Y0054060D01*
X0071776Y0054060D02*
X0073400Y0054060D01*
X0072601Y0054859D02*
X0063891Y0054859D01*
X0063093Y0055657D02*
X0071803Y0055657D01*
X0071004Y0056456D02*
X0063189Y0056456D01*
X0063988Y0057254D02*
X0070206Y0057254D01*
X0069407Y0058053D02*
X0064347Y0058053D01*
X0064347Y0058851D02*
X0068609Y0058851D01*
X0067810Y0059650D02*
X0064218Y0059650D01*
X0063420Y0060448D02*
X0067012Y0060448D01*
X0072575Y0053262D02*
X0076436Y0053262D01*
X0076120Y0052463D02*
X0072615Y0052463D01*
X0072615Y0051665D02*
X0076120Y0051665D01*
X0076293Y0050866D02*
X0072167Y0050866D01*
X0071368Y0050068D02*
X0077092Y0050068D01*
X0078985Y0049269D02*
X0040391Y0049269D01*
X0040391Y0048471D02*
X0079521Y0048471D01*
X0079521Y0047672D02*
X0061629Y0047672D01*
X0062379Y0046874D02*
X0079521Y0046874D01*
X0078719Y0042083D02*
X0070762Y0042083D01*
X0071561Y0041284D02*
X0078946Y0041284D01*
X0068243Y0038090D02*
X0067497Y0038090D01*
X0067223Y0040486D02*
X0066454Y0040486D01*
X0063935Y0040486D02*
X0063304Y0040486D01*
X0063227Y0036493D02*
X0063934Y0036493D01*
X0054531Y0043680D02*
X0040391Y0043680D01*
X0040391Y0044478D02*
X0055162Y0044478D01*
X0054624Y0045277D02*
X0040391Y0045277D01*
X0040391Y0046075D02*
X0054624Y0046075D01*
X0054624Y0046874D02*
X0040391Y0046874D01*
X0040391Y0047672D02*
X0055374Y0047672D01*
X0058480Y0047672D02*
X0058524Y0047672D01*
X0069257Y0050068D02*
X0040391Y0050068D01*
X0055850Y0076419D02*
X0082473Y0076419D01*
X0071602Y0079613D02*
X0040391Y0079613D01*
X0040391Y0080411D02*
X0047575Y0080411D01*
X0046776Y0081210D02*
X0040391Y0081210D01*
X0040391Y0082008D02*
X0046750Y0082008D01*
X0050531Y0080411D02*
X0071160Y0080411D01*
X0071160Y0081210D02*
X0051329Y0081210D01*
X0051355Y0082008D02*
X0071206Y0082008D01*
X0079946Y0056456D02*
X0086514Y0056456D01*
X0086896Y0055657D02*
X0080745Y0055657D01*
X0081543Y0054859D02*
X0087694Y0054859D01*
X0089939Y0054859D02*
X0091434Y0054859D01*
X0090766Y0055657D02*
X0090737Y0055657D01*
D17*
X0085273Y0030615D02*
X0054565Y0030615D01*
X0054565Y0020772D01*
M02*
