G75*
%MOIN*%
%OFA0B0*%
%FSLAX25Y25*%
%IPPOS*%
%LPD*%
%AMOC8*
5,1,8,0,0,1.08239X$1,22.5*
%
%ADD10C,0.00000*%
%ADD11C,0.00300*%
%ADD12C,0.00600*%
%ADD13R,0.02756X0.02756*%
%ADD14C,0.00500*%
%ADD15C,0.00787*%
%ADD16C,0.00800*%
%ADD17C,0.00984*%
D10*
X0029368Y0008145D02*
X0029368Y0086885D01*
X0100234Y0086885D01*
X0100234Y0008145D01*
X0029368Y0008145D01*
X0031375Y0010743D02*
X0031377Y0010791D01*
X0031383Y0010839D01*
X0031393Y0010886D01*
X0031406Y0010932D01*
X0031424Y0010977D01*
X0031444Y0011021D01*
X0031469Y0011063D01*
X0031497Y0011102D01*
X0031527Y0011139D01*
X0031561Y0011173D01*
X0031598Y0011205D01*
X0031636Y0011234D01*
X0031677Y0011259D01*
X0031720Y0011281D01*
X0031765Y0011299D01*
X0031811Y0011313D01*
X0031858Y0011324D01*
X0031906Y0011331D01*
X0031954Y0011334D01*
X0032002Y0011333D01*
X0032050Y0011328D01*
X0032098Y0011319D01*
X0032144Y0011307D01*
X0032189Y0011290D01*
X0032233Y0011270D01*
X0032275Y0011247D01*
X0032315Y0011220D01*
X0032353Y0011190D01*
X0032388Y0011157D01*
X0032420Y0011121D01*
X0032450Y0011083D01*
X0032476Y0011042D01*
X0032498Y0010999D01*
X0032518Y0010955D01*
X0032533Y0010910D01*
X0032545Y0010863D01*
X0032553Y0010815D01*
X0032557Y0010767D01*
X0032557Y0010719D01*
X0032553Y0010671D01*
X0032545Y0010623D01*
X0032533Y0010576D01*
X0032518Y0010531D01*
X0032498Y0010487D01*
X0032476Y0010444D01*
X0032450Y0010403D01*
X0032420Y0010365D01*
X0032388Y0010329D01*
X0032353Y0010296D01*
X0032315Y0010266D01*
X0032275Y0010239D01*
X0032233Y0010216D01*
X0032189Y0010196D01*
X0032144Y0010179D01*
X0032098Y0010167D01*
X0032050Y0010158D01*
X0032002Y0010153D01*
X0031954Y0010152D01*
X0031906Y0010155D01*
X0031858Y0010162D01*
X0031811Y0010173D01*
X0031765Y0010187D01*
X0031720Y0010205D01*
X0031677Y0010227D01*
X0031636Y0010252D01*
X0031598Y0010281D01*
X0031561Y0010313D01*
X0031527Y0010347D01*
X0031497Y0010384D01*
X0031469Y0010423D01*
X0031444Y0010465D01*
X0031424Y0010509D01*
X0031406Y0010554D01*
X0031393Y0010600D01*
X0031383Y0010647D01*
X0031377Y0010695D01*
X0031375Y0010743D01*
X0038777Y0010743D02*
X0038779Y0010791D01*
X0038785Y0010839D01*
X0038795Y0010886D01*
X0038808Y0010932D01*
X0038826Y0010977D01*
X0038846Y0011021D01*
X0038871Y0011063D01*
X0038899Y0011102D01*
X0038929Y0011139D01*
X0038963Y0011173D01*
X0039000Y0011205D01*
X0039038Y0011234D01*
X0039079Y0011259D01*
X0039122Y0011281D01*
X0039167Y0011299D01*
X0039213Y0011313D01*
X0039260Y0011324D01*
X0039308Y0011331D01*
X0039356Y0011334D01*
X0039404Y0011333D01*
X0039452Y0011328D01*
X0039500Y0011319D01*
X0039546Y0011307D01*
X0039591Y0011290D01*
X0039635Y0011270D01*
X0039677Y0011247D01*
X0039717Y0011220D01*
X0039755Y0011190D01*
X0039790Y0011157D01*
X0039822Y0011121D01*
X0039852Y0011083D01*
X0039878Y0011042D01*
X0039900Y0010999D01*
X0039920Y0010955D01*
X0039935Y0010910D01*
X0039947Y0010863D01*
X0039955Y0010815D01*
X0039959Y0010767D01*
X0039959Y0010719D01*
X0039955Y0010671D01*
X0039947Y0010623D01*
X0039935Y0010576D01*
X0039920Y0010531D01*
X0039900Y0010487D01*
X0039878Y0010444D01*
X0039852Y0010403D01*
X0039822Y0010365D01*
X0039790Y0010329D01*
X0039755Y0010296D01*
X0039717Y0010266D01*
X0039677Y0010239D01*
X0039635Y0010216D01*
X0039591Y0010196D01*
X0039546Y0010179D01*
X0039500Y0010167D01*
X0039452Y0010158D01*
X0039404Y0010153D01*
X0039356Y0010152D01*
X0039308Y0010155D01*
X0039260Y0010162D01*
X0039213Y0010173D01*
X0039167Y0010187D01*
X0039122Y0010205D01*
X0039079Y0010227D01*
X0039038Y0010252D01*
X0039000Y0010281D01*
X0038963Y0010313D01*
X0038929Y0010347D01*
X0038899Y0010384D01*
X0038871Y0010423D01*
X0038846Y0010465D01*
X0038826Y0010509D01*
X0038808Y0010554D01*
X0038795Y0010600D01*
X0038785Y0010647D01*
X0038779Y0010695D01*
X0038777Y0010743D01*
X0038777Y0018145D02*
X0038779Y0018193D01*
X0038785Y0018241D01*
X0038795Y0018288D01*
X0038808Y0018334D01*
X0038826Y0018379D01*
X0038846Y0018423D01*
X0038871Y0018465D01*
X0038899Y0018504D01*
X0038929Y0018541D01*
X0038963Y0018575D01*
X0039000Y0018607D01*
X0039038Y0018636D01*
X0039079Y0018661D01*
X0039122Y0018683D01*
X0039167Y0018701D01*
X0039213Y0018715D01*
X0039260Y0018726D01*
X0039308Y0018733D01*
X0039356Y0018736D01*
X0039404Y0018735D01*
X0039452Y0018730D01*
X0039500Y0018721D01*
X0039546Y0018709D01*
X0039591Y0018692D01*
X0039635Y0018672D01*
X0039677Y0018649D01*
X0039717Y0018622D01*
X0039755Y0018592D01*
X0039790Y0018559D01*
X0039822Y0018523D01*
X0039852Y0018485D01*
X0039878Y0018444D01*
X0039900Y0018401D01*
X0039920Y0018357D01*
X0039935Y0018312D01*
X0039947Y0018265D01*
X0039955Y0018217D01*
X0039959Y0018169D01*
X0039959Y0018121D01*
X0039955Y0018073D01*
X0039947Y0018025D01*
X0039935Y0017978D01*
X0039920Y0017933D01*
X0039900Y0017889D01*
X0039878Y0017846D01*
X0039852Y0017805D01*
X0039822Y0017767D01*
X0039790Y0017731D01*
X0039755Y0017698D01*
X0039717Y0017668D01*
X0039677Y0017641D01*
X0039635Y0017618D01*
X0039591Y0017598D01*
X0039546Y0017581D01*
X0039500Y0017569D01*
X0039452Y0017560D01*
X0039404Y0017555D01*
X0039356Y0017554D01*
X0039308Y0017557D01*
X0039260Y0017564D01*
X0039213Y0017575D01*
X0039167Y0017589D01*
X0039122Y0017607D01*
X0039079Y0017629D01*
X0039038Y0017654D01*
X0039000Y0017683D01*
X0038963Y0017715D01*
X0038929Y0017749D01*
X0038899Y0017786D01*
X0038871Y0017825D01*
X0038846Y0017867D01*
X0038826Y0017911D01*
X0038808Y0017956D01*
X0038795Y0018002D01*
X0038785Y0018049D01*
X0038779Y0018097D01*
X0038777Y0018145D01*
X0031375Y0018145D02*
X0031377Y0018193D01*
X0031383Y0018241D01*
X0031393Y0018288D01*
X0031406Y0018334D01*
X0031424Y0018379D01*
X0031444Y0018423D01*
X0031469Y0018465D01*
X0031497Y0018504D01*
X0031527Y0018541D01*
X0031561Y0018575D01*
X0031598Y0018607D01*
X0031636Y0018636D01*
X0031677Y0018661D01*
X0031720Y0018683D01*
X0031765Y0018701D01*
X0031811Y0018715D01*
X0031858Y0018726D01*
X0031906Y0018733D01*
X0031954Y0018736D01*
X0032002Y0018735D01*
X0032050Y0018730D01*
X0032098Y0018721D01*
X0032144Y0018709D01*
X0032189Y0018692D01*
X0032233Y0018672D01*
X0032275Y0018649D01*
X0032315Y0018622D01*
X0032353Y0018592D01*
X0032388Y0018559D01*
X0032420Y0018523D01*
X0032450Y0018485D01*
X0032476Y0018444D01*
X0032498Y0018401D01*
X0032518Y0018357D01*
X0032533Y0018312D01*
X0032545Y0018265D01*
X0032553Y0018217D01*
X0032557Y0018169D01*
X0032557Y0018121D01*
X0032553Y0018073D01*
X0032545Y0018025D01*
X0032533Y0017978D01*
X0032518Y0017933D01*
X0032498Y0017889D01*
X0032476Y0017846D01*
X0032450Y0017805D01*
X0032420Y0017767D01*
X0032388Y0017731D01*
X0032353Y0017698D01*
X0032315Y0017668D01*
X0032275Y0017641D01*
X0032233Y0017618D01*
X0032189Y0017598D01*
X0032144Y0017581D01*
X0032098Y0017569D01*
X0032050Y0017560D01*
X0032002Y0017555D01*
X0031954Y0017554D01*
X0031906Y0017557D01*
X0031858Y0017564D01*
X0031811Y0017575D01*
X0031765Y0017589D01*
X0031720Y0017607D01*
X0031677Y0017629D01*
X0031636Y0017654D01*
X0031598Y0017683D01*
X0031561Y0017715D01*
X0031527Y0017749D01*
X0031497Y0017786D01*
X0031469Y0017825D01*
X0031444Y0017867D01*
X0031424Y0017911D01*
X0031406Y0017956D01*
X0031393Y0018002D01*
X0031383Y0018049D01*
X0031377Y0018097D01*
X0031375Y0018145D01*
X0089643Y0018145D02*
X0089645Y0018193D01*
X0089651Y0018241D01*
X0089661Y0018288D01*
X0089674Y0018334D01*
X0089692Y0018379D01*
X0089712Y0018423D01*
X0089737Y0018465D01*
X0089765Y0018504D01*
X0089795Y0018541D01*
X0089829Y0018575D01*
X0089866Y0018607D01*
X0089904Y0018636D01*
X0089945Y0018661D01*
X0089988Y0018683D01*
X0090033Y0018701D01*
X0090079Y0018715D01*
X0090126Y0018726D01*
X0090174Y0018733D01*
X0090222Y0018736D01*
X0090270Y0018735D01*
X0090318Y0018730D01*
X0090366Y0018721D01*
X0090412Y0018709D01*
X0090457Y0018692D01*
X0090501Y0018672D01*
X0090543Y0018649D01*
X0090583Y0018622D01*
X0090621Y0018592D01*
X0090656Y0018559D01*
X0090688Y0018523D01*
X0090718Y0018485D01*
X0090744Y0018444D01*
X0090766Y0018401D01*
X0090786Y0018357D01*
X0090801Y0018312D01*
X0090813Y0018265D01*
X0090821Y0018217D01*
X0090825Y0018169D01*
X0090825Y0018121D01*
X0090821Y0018073D01*
X0090813Y0018025D01*
X0090801Y0017978D01*
X0090786Y0017933D01*
X0090766Y0017889D01*
X0090744Y0017846D01*
X0090718Y0017805D01*
X0090688Y0017767D01*
X0090656Y0017731D01*
X0090621Y0017698D01*
X0090583Y0017668D01*
X0090543Y0017641D01*
X0090501Y0017618D01*
X0090457Y0017598D01*
X0090412Y0017581D01*
X0090366Y0017569D01*
X0090318Y0017560D01*
X0090270Y0017555D01*
X0090222Y0017554D01*
X0090174Y0017557D01*
X0090126Y0017564D01*
X0090079Y0017575D01*
X0090033Y0017589D01*
X0089988Y0017607D01*
X0089945Y0017629D01*
X0089904Y0017654D01*
X0089866Y0017683D01*
X0089829Y0017715D01*
X0089795Y0017749D01*
X0089765Y0017786D01*
X0089737Y0017825D01*
X0089712Y0017867D01*
X0089692Y0017911D01*
X0089674Y0017956D01*
X0089661Y0018002D01*
X0089651Y0018049D01*
X0089645Y0018097D01*
X0089643Y0018145D01*
X0097044Y0018145D02*
X0097046Y0018193D01*
X0097052Y0018241D01*
X0097062Y0018288D01*
X0097075Y0018334D01*
X0097093Y0018379D01*
X0097113Y0018423D01*
X0097138Y0018465D01*
X0097166Y0018504D01*
X0097196Y0018541D01*
X0097230Y0018575D01*
X0097267Y0018607D01*
X0097305Y0018636D01*
X0097346Y0018661D01*
X0097389Y0018683D01*
X0097434Y0018701D01*
X0097480Y0018715D01*
X0097527Y0018726D01*
X0097575Y0018733D01*
X0097623Y0018736D01*
X0097671Y0018735D01*
X0097719Y0018730D01*
X0097767Y0018721D01*
X0097813Y0018709D01*
X0097858Y0018692D01*
X0097902Y0018672D01*
X0097944Y0018649D01*
X0097984Y0018622D01*
X0098022Y0018592D01*
X0098057Y0018559D01*
X0098089Y0018523D01*
X0098119Y0018485D01*
X0098145Y0018444D01*
X0098167Y0018401D01*
X0098187Y0018357D01*
X0098202Y0018312D01*
X0098214Y0018265D01*
X0098222Y0018217D01*
X0098226Y0018169D01*
X0098226Y0018121D01*
X0098222Y0018073D01*
X0098214Y0018025D01*
X0098202Y0017978D01*
X0098187Y0017933D01*
X0098167Y0017889D01*
X0098145Y0017846D01*
X0098119Y0017805D01*
X0098089Y0017767D01*
X0098057Y0017731D01*
X0098022Y0017698D01*
X0097984Y0017668D01*
X0097944Y0017641D01*
X0097902Y0017618D01*
X0097858Y0017598D01*
X0097813Y0017581D01*
X0097767Y0017569D01*
X0097719Y0017560D01*
X0097671Y0017555D01*
X0097623Y0017554D01*
X0097575Y0017557D01*
X0097527Y0017564D01*
X0097480Y0017575D01*
X0097434Y0017589D01*
X0097389Y0017607D01*
X0097346Y0017629D01*
X0097305Y0017654D01*
X0097267Y0017683D01*
X0097230Y0017715D01*
X0097196Y0017749D01*
X0097166Y0017786D01*
X0097138Y0017825D01*
X0097113Y0017867D01*
X0097093Y0017911D01*
X0097075Y0017956D01*
X0097062Y0018002D01*
X0097052Y0018049D01*
X0097046Y0018097D01*
X0097044Y0018145D01*
X0097044Y0010743D02*
X0097046Y0010791D01*
X0097052Y0010839D01*
X0097062Y0010886D01*
X0097075Y0010932D01*
X0097093Y0010977D01*
X0097113Y0011021D01*
X0097138Y0011063D01*
X0097166Y0011102D01*
X0097196Y0011139D01*
X0097230Y0011173D01*
X0097267Y0011205D01*
X0097305Y0011234D01*
X0097346Y0011259D01*
X0097389Y0011281D01*
X0097434Y0011299D01*
X0097480Y0011313D01*
X0097527Y0011324D01*
X0097575Y0011331D01*
X0097623Y0011334D01*
X0097671Y0011333D01*
X0097719Y0011328D01*
X0097767Y0011319D01*
X0097813Y0011307D01*
X0097858Y0011290D01*
X0097902Y0011270D01*
X0097944Y0011247D01*
X0097984Y0011220D01*
X0098022Y0011190D01*
X0098057Y0011157D01*
X0098089Y0011121D01*
X0098119Y0011083D01*
X0098145Y0011042D01*
X0098167Y0010999D01*
X0098187Y0010955D01*
X0098202Y0010910D01*
X0098214Y0010863D01*
X0098222Y0010815D01*
X0098226Y0010767D01*
X0098226Y0010719D01*
X0098222Y0010671D01*
X0098214Y0010623D01*
X0098202Y0010576D01*
X0098187Y0010531D01*
X0098167Y0010487D01*
X0098145Y0010444D01*
X0098119Y0010403D01*
X0098089Y0010365D01*
X0098057Y0010329D01*
X0098022Y0010296D01*
X0097984Y0010266D01*
X0097944Y0010239D01*
X0097902Y0010216D01*
X0097858Y0010196D01*
X0097813Y0010179D01*
X0097767Y0010167D01*
X0097719Y0010158D01*
X0097671Y0010153D01*
X0097623Y0010152D01*
X0097575Y0010155D01*
X0097527Y0010162D01*
X0097480Y0010173D01*
X0097434Y0010187D01*
X0097389Y0010205D01*
X0097346Y0010227D01*
X0097305Y0010252D01*
X0097267Y0010281D01*
X0097230Y0010313D01*
X0097196Y0010347D01*
X0097166Y0010384D01*
X0097138Y0010423D01*
X0097113Y0010465D01*
X0097093Y0010509D01*
X0097075Y0010554D01*
X0097062Y0010600D01*
X0097052Y0010647D01*
X0097046Y0010695D01*
X0097044Y0010743D01*
X0089643Y0010743D02*
X0089645Y0010791D01*
X0089651Y0010839D01*
X0089661Y0010886D01*
X0089674Y0010932D01*
X0089692Y0010977D01*
X0089712Y0011021D01*
X0089737Y0011063D01*
X0089765Y0011102D01*
X0089795Y0011139D01*
X0089829Y0011173D01*
X0089866Y0011205D01*
X0089904Y0011234D01*
X0089945Y0011259D01*
X0089988Y0011281D01*
X0090033Y0011299D01*
X0090079Y0011313D01*
X0090126Y0011324D01*
X0090174Y0011331D01*
X0090222Y0011334D01*
X0090270Y0011333D01*
X0090318Y0011328D01*
X0090366Y0011319D01*
X0090412Y0011307D01*
X0090457Y0011290D01*
X0090501Y0011270D01*
X0090543Y0011247D01*
X0090583Y0011220D01*
X0090621Y0011190D01*
X0090656Y0011157D01*
X0090688Y0011121D01*
X0090718Y0011083D01*
X0090744Y0011042D01*
X0090766Y0010999D01*
X0090786Y0010955D01*
X0090801Y0010910D01*
X0090813Y0010863D01*
X0090821Y0010815D01*
X0090825Y0010767D01*
X0090825Y0010719D01*
X0090821Y0010671D01*
X0090813Y0010623D01*
X0090801Y0010576D01*
X0090786Y0010531D01*
X0090766Y0010487D01*
X0090744Y0010444D01*
X0090718Y0010403D01*
X0090688Y0010365D01*
X0090656Y0010329D01*
X0090621Y0010296D01*
X0090583Y0010266D01*
X0090543Y0010239D01*
X0090501Y0010216D01*
X0090457Y0010196D01*
X0090412Y0010179D01*
X0090366Y0010167D01*
X0090318Y0010158D01*
X0090270Y0010153D01*
X0090222Y0010152D01*
X0090174Y0010155D01*
X0090126Y0010162D01*
X0090079Y0010173D01*
X0090033Y0010187D01*
X0089988Y0010205D01*
X0089945Y0010227D01*
X0089904Y0010252D01*
X0089866Y0010281D01*
X0089829Y0010313D01*
X0089795Y0010347D01*
X0089765Y0010384D01*
X0089737Y0010423D01*
X0089712Y0010465D01*
X0089692Y0010509D01*
X0089674Y0010554D01*
X0089661Y0010600D01*
X0089651Y0010647D01*
X0089645Y0010695D01*
X0089643Y0010743D01*
D11*
X0090041Y0020893D02*
X0091254Y0020893D01*
X0091861Y0021500D01*
X0091861Y0022713D01*
X0090648Y0022713D01*
X0089434Y0021500D02*
X0090041Y0020893D01*
X0089434Y0021500D02*
X0089434Y0023927D01*
X0090041Y0024533D01*
X0091254Y0024533D01*
X0091861Y0023927D01*
X0093059Y0024533D02*
X0095486Y0020893D01*
X0095486Y0024533D01*
X0096685Y0024533D02*
X0098505Y0024533D01*
X0099111Y0023927D01*
X0099111Y0021500D01*
X0098505Y0020893D01*
X0096685Y0020893D01*
X0096685Y0024533D01*
X0093059Y0024533D02*
X0093059Y0020893D01*
X0037850Y0022320D02*
X0035423Y0022320D01*
X0034225Y0021713D02*
X0034225Y0024140D01*
X0036637Y0023533D02*
X0036637Y0021106D01*
X0034225Y0021713D02*
X0033011Y0020500D01*
X0031798Y0021713D01*
X0031798Y0024140D01*
D12*
X0043541Y0020743D02*
X0043541Y0018381D01*
X0048265Y0018381D02*
X0048265Y0020743D01*
X0051021Y0020743D02*
X0051021Y0018381D01*
X0055746Y0018381D02*
X0055746Y0020743D01*
X0058305Y0020743D02*
X0058305Y0018381D01*
X0063029Y0018381D02*
X0063029Y0020743D01*
X0065785Y0020743D02*
X0065785Y0018381D01*
X0070509Y0018381D02*
X0070509Y0020743D01*
X0073265Y0020743D02*
X0073265Y0018381D01*
X0077990Y0018381D02*
X0077990Y0020743D01*
X0080943Y0020743D02*
X0080943Y0018381D01*
X0085667Y0018381D02*
X0085667Y0020743D01*
X0070313Y0041216D02*
X0067950Y0041216D01*
X0067950Y0045940D02*
X0070313Y0045940D01*
X0064400Y0058600D02*
X0062500Y0058600D01*
X0062500Y0060500D01*
X0077800Y0058600D02*
X0079700Y0058600D01*
X0079700Y0060500D01*
X0082124Y0060507D02*
X0082124Y0058145D01*
X0086848Y0058145D02*
X0086848Y0060507D01*
X0079700Y0073900D02*
X0079700Y0075800D01*
X0077800Y0075800D01*
X0064400Y0075800D02*
X0062500Y0075800D01*
X0062500Y0073900D01*
D13*
X0063029Y0075271D03*
D14*
X0056159Y0062082D02*
X0054545Y0062082D01*
X0054545Y0055783D02*
X0056159Y0055783D01*
X0080155Y0039444D02*
X0080155Y0037082D01*
X0082517Y0038263D01*
X0080155Y0039444D01*
D15*
X0055352Y0045153D02*
X0055352Y0047121D01*
X0053580Y0047121D01*
X0052596Y0054208D02*
X0049840Y0054208D01*
X0049840Y0056570D01*
X0067754Y0076944D02*
X0072478Y0076944D01*
X0072478Y0079798D01*
X0067754Y0079798D02*
X0067754Y0076944D01*
D16*
X0080124Y0079251D02*
X0084124Y0079251D01*
X0084124Y0086251D02*
X0080124Y0086251D01*
X0082517Y0040822D02*
X0077006Y0040822D01*
X0077006Y0035704D02*
X0082517Y0035704D01*
X0082517Y0038263D01*
X0082517Y0040822D01*
X0084092Y0040822D01*
X0084092Y0035704D02*
X0082517Y0035704D01*
D17*
X0080549Y0081964D02*
X0080549Y0083539D01*
M02*
