G75*
%MOIN*%
%OFA0B0*%
%FSLAX25Y25*%
%IPPOS*%
%LPD*%
%AMOC8*
5,1,8,0,0,1.08239X$1,22.5*
%
%ADD10C,0.00000*%
%ADD11C,0.06000*%
%ADD12C,0.07906*%
%ADD13C,0.02205*%
%ADD14C,0.01000*%
%ADD15C,0.00800*%
%ADD16C,0.00600*%
D10*
X0029368Y0014150D02*
X0029368Y0092890D01*
X0100234Y0092890D01*
X0100234Y0014150D01*
X0029368Y0014150D01*
X0031375Y0016748D02*
X0031377Y0016796D01*
X0031383Y0016844D01*
X0031393Y0016891D01*
X0031406Y0016937D01*
X0031424Y0016982D01*
X0031444Y0017026D01*
X0031469Y0017068D01*
X0031497Y0017107D01*
X0031527Y0017144D01*
X0031561Y0017178D01*
X0031598Y0017210D01*
X0031636Y0017239D01*
X0031677Y0017264D01*
X0031720Y0017286D01*
X0031765Y0017304D01*
X0031811Y0017318D01*
X0031858Y0017329D01*
X0031906Y0017336D01*
X0031954Y0017339D01*
X0032002Y0017338D01*
X0032050Y0017333D01*
X0032098Y0017324D01*
X0032144Y0017312D01*
X0032189Y0017295D01*
X0032233Y0017275D01*
X0032275Y0017252D01*
X0032315Y0017225D01*
X0032353Y0017195D01*
X0032388Y0017162D01*
X0032420Y0017126D01*
X0032450Y0017088D01*
X0032476Y0017047D01*
X0032498Y0017004D01*
X0032518Y0016960D01*
X0032533Y0016915D01*
X0032545Y0016868D01*
X0032553Y0016820D01*
X0032557Y0016772D01*
X0032557Y0016724D01*
X0032553Y0016676D01*
X0032545Y0016628D01*
X0032533Y0016581D01*
X0032518Y0016536D01*
X0032498Y0016492D01*
X0032476Y0016449D01*
X0032450Y0016408D01*
X0032420Y0016370D01*
X0032388Y0016334D01*
X0032353Y0016301D01*
X0032315Y0016271D01*
X0032275Y0016244D01*
X0032233Y0016221D01*
X0032189Y0016201D01*
X0032144Y0016184D01*
X0032098Y0016172D01*
X0032050Y0016163D01*
X0032002Y0016158D01*
X0031954Y0016157D01*
X0031906Y0016160D01*
X0031858Y0016167D01*
X0031811Y0016178D01*
X0031765Y0016192D01*
X0031720Y0016210D01*
X0031677Y0016232D01*
X0031636Y0016257D01*
X0031598Y0016286D01*
X0031561Y0016318D01*
X0031527Y0016352D01*
X0031497Y0016389D01*
X0031469Y0016428D01*
X0031444Y0016470D01*
X0031424Y0016514D01*
X0031406Y0016559D01*
X0031393Y0016605D01*
X0031383Y0016652D01*
X0031377Y0016700D01*
X0031375Y0016748D01*
X0031375Y0024150D02*
X0031377Y0024198D01*
X0031383Y0024246D01*
X0031393Y0024293D01*
X0031406Y0024339D01*
X0031424Y0024384D01*
X0031444Y0024428D01*
X0031469Y0024470D01*
X0031497Y0024509D01*
X0031527Y0024546D01*
X0031561Y0024580D01*
X0031598Y0024612D01*
X0031636Y0024641D01*
X0031677Y0024666D01*
X0031720Y0024688D01*
X0031765Y0024706D01*
X0031811Y0024720D01*
X0031858Y0024731D01*
X0031906Y0024738D01*
X0031954Y0024741D01*
X0032002Y0024740D01*
X0032050Y0024735D01*
X0032098Y0024726D01*
X0032144Y0024714D01*
X0032189Y0024697D01*
X0032233Y0024677D01*
X0032275Y0024654D01*
X0032315Y0024627D01*
X0032353Y0024597D01*
X0032388Y0024564D01*
X0032420Y0024528D01*
X0032450Y0024490D01*
X0032476Y0024449D01*
X0032498Y0024406D01*
X0032518Y0024362D01*
X0032533Y0024317D01*
X0032545Y0024270D01*
X0032553Y0024222D01*
X0032557Y0024174D01*
X0032557Y0024126D01*
X0032553Y0024078D01*
X0032545Y0024030D01*
X0032533Y0023983D01*
X0032518Y0023938D01*
X0032498Y0023894D01*
X0032476Y0023851D01*
X0032450Y0023810D01*
X0032420Y0023772D01*
X0032388Y0023736D01*
X0032353Y0023703D01*
X0032315Y0023673D01*
X0032275Y0023646D01*
X0032233Y0023623D01*
X0032189Y0023603D01*
X0032144Y0023586D01*
X0032098Y0023574D01*
X0032050Y0023565D01*
X0032002Y0023560D01*
X0031954Y0023559D01*
X0031906Y0023562D01*
X0031858Y0023569D01*
X0031811Y0023580D01*
X0031765Y0023594D01*
X0031720Y0023612D01*
X0031677Y0023634D01*
X0031636Y0023659D01*
X0031598Y0023688D01*
X0031561Y0023720D01*
X0031527Y0023754D01*
X0031497Y0023791D01*
X0031469Y0023830D01*
X0031444Y0023872D01*
X0031424Y0023916D01*
X0031406Y0023961D01*
X0031393Y0024007D01*
X0031383Y0024054D01*
X0031377Y0024102D01*
X0031375Y0024150D01*
X0038777Y0024150D02*
X0038779Y0024198D01*
X0038785Y0024246D01*
X0038795Y0024293D01*
X0038808Y0024339D01*
X0038826Y0024384D01*
X0038846Y0024428D01*
X0038871Y0024470D01*
X0038899Y0024509D01*
X0038929Y0024546D01*
X0038963Y0024580D01*
X0039000Y0024612D01*
X0039038Y0024641D01*
X0039079Y0024666D01*
X0039122Y0024688D01*
X0039167Y0024706D01*
X0039213Y0024720D01*
X0039260Y0024731D01*
X0039308Y0024738D01*
X0039356Y0024741D01*
X0039404Y0024740D01*
X0039452Y0024735D01*
X0039500Y0024726D01*
X0039546Y0024714D01*
X0039591Y0024697D01*
X0039635Y0024677D01*
X0039677Y0024654D01*
X0039717Y0024627D01*
X0039755Y0024597D01*
X0039790Y0024564D01*
X0039822Y0024528D01*
X0039852Y0024490D01*
X0039878Y0024449D01*
X0039900Y0024406D01*
X0039920Y0024362D01*
X0039935Y0024317D01*
X0039947Y0024270D01*
X0039955Y0024222D01*
X0039959Y0024174D01*
X0039959Y0024126D01*
X0039955Y0024078D01*
X0039947Y0024030D01*
X0039935Y0023983D01*
X0039920Y0023938D01*
X0039900Y0023894D01*
X0039878Y0023851D01*
X0039852Y0023810D01*
X0039822Y0023772D01*
X0039790Y0023736D01*
X0039755Y0023703D01*
X0039717Y0023673D01*
X0039677Y0023646D01*
X0039635Y0023623D01*
X0039591Y0023603D01*
X0039546Y0023586D01*
X0039500Y0023574D01*
X0039452Y0023565D01*
X0039404Y0023560D01*
X0039356Y0023559D01*
X0039308Y0023562D01*
X0039260Y0023569D01*
X0039213Y0023580D01*
X0039167Y0023594D01*
X0039122Y0023612D01*
X0039079Y0023634D01*
X0039038Y0023659D01*
X0039000Y0023688D01*
X0038963Y0023720D01*
X0038929Y0023754D01*
X0038899Y0023791D01*
X0038871Y0023830D01*
X0038846Y0023872D01*
X0038826Y0023916D01*
X0038808Y0023961D01*
X0038795Y0024007D01*
X0038785Y0024054D01*
X0038779Y0024102D01*
X0038777Y0024150D01*
X0038777Y0016748D02*
X0038779Y0016796D01*
X0038785Y0016844D01*
X0038795Y0016891D01*
X0038808Y0016937D01*
X0038826Y0016982D01*
X0038846Y0017026D01*
X0038871Y0017068D01*
X0038899Y0017107D01*
X0038929Y0017144D01*
X0038963Y0017178D01*
X0039000Y0017210D01*
X0039038Y0017239D01*
X0039079Y0017264D01*
X0039122Y0017286D01*
X0039167Y0017304D01*
X0039213Y0017318D01*
X0039260Y0017329D01*
X0039308Y0017336D01*
X0039356Y0017339D01*
X0039404Y0017338D01*
X0039452Y0017333D01*
X0039500Y0017324D01*
X0039546Y0017312D01*
X0039591Y0017295D01*
X0039635Y0017275D01*
X0039677Y0017252D01*
X0039717Y0017225D01*
X0039755Y0017195D01*
X0039790Y0017162D01*
X0039822Y0017126D01*
X0039852Y0017088D01*
X0039878Y0017047D01*
X0039900Y0017004D01*
X0039920Y0016960D01*
X0039935Y0016915D01*
X0039947Y0016868D01*
X0039955Y0016820D01*
X0039959Y0016772D01*
X0039959Y0016724D01*
X0039955Y0016676D01*
X0039947Y0016628D01*
X0039935Y0016581D01*
X0039920Y0016536D01*
X0039900Y0016492D01*
X0039878Y0016449D01*
X0039852Y0016408D01*
X0039822Y0016370D01*
X0039790Y0016334D01*
X0039755Y0016301D01*
X0039717Y0016271D01*
X0039677Y0016244D01*
X0039635Y0016221D01*
X0039591Y0016201D01*
X0039546Y0016184D01*
X0039500Y0016172D01*
X0039452Y0016163D01*
X0039404Y0016158D01*
X0039356Y0016157D01*
X0039308Y0016160D01*
X0039260Y0016167D01*
X0039213Y0016178D01*
X0039167Y0016192D01*
X0039122Y0016210D01*
X0039079Y0016232D01*
X0039038Y0016257D01*
X0039000Y0016286D01*
X0038963Y0016318D01*
X0038929Y0016352D01*
X0038899Y0016389D01*
X0038871Y0016428D01*
X0038846Y0016470D01*
X0038826Y0016514D01*
X0038808Y0016559D01*
X0038795Y0016605D01*
X0038785Y0016652D01*
X0038779Y0016700D01*
X0038777Y0016748D01*
X0089643Y0016748D02*
X0089645Y0016796D01*
X0089651Y0016844D01*
X0089661Y0016891D01*
X0089674Y0016937D01*
X0089692Y0016982D01*
X0089712Y0017026D01*
X0089737Y0017068D01*
X0089765Y0017107D01*
X0089795Y0017144D01*
X0089829Y0017178D01*
X0089866Y0017210D01*
X0089904Y0017239D01*
X0089945Y0017264D01*
X0089988Y0017286D01*
X0090033Y0017304D01*
X0090079Y0017318D01*
X0090126Y0017329D01*
X0090174Y0017336D01*
X0090222Y0017339D01*
X0090270Y0017338D01*
X0090318Y0017333D01*
X0090366Y0017324D01*
X0090412Y0017312D01*
X0090457Y0017295D01*
X0090501Y0017275D01*
X0090543Y0017252D01*
X0090583Y0017225D01*
X0090621Y0017195D01*
X0090656Y0017162D01*
X0090688Y0017126D01*
X0090718Y0017088D01*
X0090744Y0017047D01*
X0090766Y0017004D01*
X0090786Y0016960D01*
X0090801Y0016915D01*
X0090813Y0016868D01*
X0090821Y0016820D01*
X0090825Y0016772D01*
X0090825Y0016724D01*
X0090821Y0016676D01*
X0090813Y0016628D01*
X0090801Y0016581D01*
X0090786Y0016536D01*
X0090766Y0016492D01*
X0090744Y0016449D01*
X0090718Y0016408D01*
X0090688Y0016370D01*
X0090656Y0016334D01*
X0090621Y0016301D01*
X0090583Y0016271D01*
X0090543Y0016244D01*
X0090501Y0016221D01*
X0090457Y0016201D01*
X0090412Y0016184D01*
X0090366Y0016172D01*
X0090318Y0016163D01*
X0090270Y0016158D01*
X0090222Y0016157D01*
X0090174Y0016160D01*
X0090126Y0016167D01*
X0090079Y0016178D01*
X0090033Y0016192D01*
X0089988Y0016210D01*
X0089945Y0016232D01*
X0089904Y0016257D01*
X0089866Y0016286D01*
X0089829Y0016318D01*
X0089795Y0016352D01*
X0089765Y0016389D01*
X0089737Y0016428D01*
X0089712Y0016470D01*
X0089692Y0016514D01*
X0089674Y0016559D01*
X0089661Y0016605D01*
X0089651Y0016652D01*
X0089645Y0016700D01*
X0089643Y0016748D01*
X0089643Y0024150D02*
X0089645Y0024198D01*
X0089651Y0024246D01*
X0089661Y0024293D01*
X0089674Y0024339D01*
X0089692Y0024384D01*
X0089712Y0024428D01*
X0089737Y0024470D01*
X0089765Y0024509D01*
X0089795Y0024546D01*
X0089829Y0024580D01*
X0089866Y0024612D01*
X0089904Y0024641D01*
X0089945Y0024666D01*
X0089988Y0024688D01*
X0090033Y0024706D01*
X0090079Y0024720D01*
X0090126Y0024731D01*
X0090174Y0024738D01*
X0090222Y0024741D01*
X0090270Y0024740D01*
X0090318Y0024735D01*
X0090366Y0024726D01*
X0090412Y0024714D01*
X0090457Y0024697D01*
X0090501Y0024677D01*
X0090543Y0024654D01*
X0090583Y0024627D01*
X0090621Y0024597D01*
X0090656Y0024564D01*
X0090688Y0024528D01*
X0090718Y0024490D01*
X0090744Y0024449D01*
X0090766Y0024406D01*
X0090786Y0024362D01*
X0090801Y0024317D01*
X0090813Y0024270D01*
X0090821Y0024222D01*
X0090825Y0024174D01*
X0090825Y0024126D01*
X0090821Y0024078D01*
X0090813Y0024030D01*
X0090801Y0023983D01*
X0090786Y0023938D01*
X0090766Y0023894D01*
X0090744Y0023851D01*
X0090718Y0023810D01*
X0090688Y0023772D01*
X0090656Y0023736D01*
X0090621Y0023703D01*
X0090583Y0023673D01*
X0090543Y0023646D01*
X0090501Y0023623D01*
X0090457Y0023603D01*
X0090412Y0023586D01*
X0090366Y0023574D01*
X0090318Y0023565D01*
X0090270Y0023560D01*
X0090222Y0023559D01*
X0090174Y0023562D01*
X0090126Y0023569D01*
X0090079Y0023580D01*
X0090033Y0023594D01*
X0089988Y0023612D01*
X0089945Y0023634D01*
X0089904Y0023659D01*
X0089866Y0023688D01*
X0089829Y0023720D01*
X0089795Y0023754D01*
X0089765Y0023791D01*
X0089737Y0023830D01*
X0089712Y0023872D01*
X0089692Y0023916D01*
X0089674Y0023961D01*
X0089661Y0024007D01*
X0089651Y0024054D01*
X0089645Y0024102D01*
X0089643Y0024150D01*
X0097044Y0024150D02*
X0097046Y0024198D01*
X0097052Y0024246D01*
X0097062Y0024293D01*
X0097075Y0024339D01*
X0097093Y0024384D01*
X0097113Y0024428D01*
X0097138Y0024470D01*
X0097166Y0024509D01*
X0097196Y0024546D01*
X0097230Y0024580D01*
X0097267Y0024612D01*
X0097305Y0024641D01*
X0097346Y0024666D01*
X0097389Y0024688D01*
X0097434Y0024706D01*
X0097480Y0024720D01*
X0097527Y0024731D01*
X0097575Y0024738D01*
X0097623Y0024741D01*
X0097671Y0024740D01*
X0097719Y0024735D01*
X0097767Y0024726D01*
X0097813Y0024714D01*
X0097858Y0024697D01*
X0097902Y0024677D01*
X0097944Y0024654D01*
X0097984Y0024627D01*
X0098022Y0024597D01*
X0098057Y0024564D01*
X0098089Y0024528D01*
X0098119Y0024490D01*
X0098145Y0024449D01*
X0098167Y0024406D01*
X0098187Y0024362D01*
X0098202Y0024317D01*
X0098214Y0024270D01*
X0098222Y0024222D01*
X0098226Y0024174D01*
X0098226Y0024126D01*
X0098222Y0024078D01*
X0098214Y0024030D01*
X0098202Y0023983D01*
X0098187Y0023938D01*
X0098167Y0023894D01*
X0098145Y0023851D01*
X0098119Y0023810D01*
X0098089Y0023772D01*
X0098057Y0023736D01*
X0098022Y0023703D01*
X0097984Y0023673D01*
X0097944Y0023646D01*
X0097902Y0023623D01*
X0097858Y0023603D01*
X0097813Y0023586D01*
X0097767Y0023574D01*
X0097719Y0023565D01*
X0097671Y0023560D01*
X0097623Y0023559D01*
X0097575Y0023562D01*
X0097527Y0023569D01*
X0097480Y0023580D01*
X0097434Y0023594D01*
X0097389Y0023612D01*
X0097346Y0023634D01*
X0097305Y0023659D01*
X0097267Y0023688D01*
X0097230Y0023720D01*
X0097196Y0023754D01*
X0097166Y0023791D01*
X0097138Y0023830D01*
X0097113Y0023872D01*
X0097093Y0023916D01*
X0097075Y0023961D01*
X0097062Y0024007D01*
X0097052Y0024054D01*
X0097046Y0024102D01*
X0097044Y0024150D01*
X0097044Y0016748D02*
X0097046Y0016796D01*
X0097052Y0016844D01*
X0097062Y0016891D01*
X0097075Y0016937D01*
X0097093Y0016982D01*
X0097113Y0017026D01*
X0097138Y0017068D01*
X0097166Y0017107D01*
X0097196Y0017144D01*
X0097230Y0017178D01*
X0097267Y0017210D01*
X0097305Y0017239D01*
X0097346Y0017264D01*
X0097389Y0017286D01*
X0097434Y0017304D01*
X0097480Y0017318D01*
X0097527Y0017329D01*
X0097575Y0017336D01*
X0097623Y0017339D01*
X0097671Y0017338D01*
X0097719Y0017333D01*
X0097767Y0017324D01*
X0097813Y0017312D01*
X0097858Y0017295D01*
X0097902Y0017275D01*
X0097944Y0017252D01*
X0097984Y0017225D01*
X0098022Y0017195D01*
X0098057Y0017162D01*
X0098089Y0017126D01*
X0098119Y0017088D01*
X0098145Y0017047D01*
X0098167Y0017004D01*
X0098187Y0016960D01*
X0098202Y0016915D01*
X0098214Y0016868D01*
X0098222Y0016820D01*
X0098226Y0016772D01*
X0098226Y0016724D01*
X0098222Y0016676D01*
X0098214Y0016628D01*
X0098202Y0016581D01*
X0098187Y0016536D01*
X0098167Y0016492D01*
X0098145Y0016449D01*
X0098119Y0016408D01*
X0098089Y0016370D01*
X0098057Y0016334D01*
X0098022Y0016301D01*
X0097984Y0016271D01*
X0097944Y0016244D01*
X0097902Y0016221D01*
X0097858Y0016201D01*
X0097813Y0016184D01*
X0097767Y0016172D01*
X0097719Y0016163D01*
X0097671Y0016158D01*
X0097623Y0016157D01*
X0097575Y0016160D01*
X0097527Y0016167D01*
X0097480Y0016178D01*
X0097434Y0016192D01*
X0097389Y0016210D01*
X0097346Y0016232D01*
X0097305Y0016257D01*
X0097267Y0016286D01*
X0097230Y0016318D01*
X0097196Y0016352D01*
X0097166Y0016389D01*
X0097138Y0016428D01*
X0097113Y0016470D01*
X0097093Y0016514D01*
X0097075Y0016559D01*
X0097062Y0016605D01*
X0097052Y0016652D01*
X0097046Y0016700D01*
X0097044Y0016748D01*
D11*
X0079801Y0018874D03*
X0069801Y0018874D03*
X0059801Y0018874D03*
X0049801Y0018874D03*
X0035273Y0044858D03*
X0035273Y0054858D03*
X0035273Y0064858D03*
X0035273Y0074858D03*
X0035273Y0084858D03*
D12*
X0035667Y0020449D03*
X0093935Y0020449D03*
D13*
X0086533Y0028874D03*
X0082911Y0024780D03*
X0075824Y0022811D03*
X0073187Y0024937D03*
X0069801Y0024386D03*
X0064801Y0022417D03*
X0054801Y0021512D03*
X0054565Y0024780D03*
X0049801Y0024386D03*
X0043541Y0025921D03*
X0043383Y0022220D03*
X0035509Y0027732D03*
X0035509Y0030094D03*
X0035509Y0032457D03*
X0043147Y0040134D03*
X0047281Y0039346D03*
X0044328Y0044858D03*
X0053383Y0041709D03*
X0055746Y0045646D03*
X0056927Y0049976D03*
X0060076Y0049976D03*
X0062006Y0042535D03*
X0065194Y0042496D03*
X0069525Y0044071D03*
X0072754Y0045409D03*
X0071494Y0040528D03*
X0078187Y0049583D03*
X0083305Y0049740D03*
X0085273Y0052732D03*
X0091533Y0052732D03*
X0084486Y0045646D03*
X0094722Y0039740D03*
X0097872Y0038165D03*
X0092832Y0033441D03*
X0085273Y0034622D03*
X0078423Y0056000D03*
X0070313Y0056276D03*
X0061651Y0057850D03*
X0062045Y0062575D03*
X0067163Y0070449D03*
X0071100Y0072811D03*
X0067163Y0074780D03*
X0075037Y0074780D03*
X0075037Y0069268D03*
X0078620Y0065843D03*
X0088817Y0066827D03*
X0088817Y0069661D03*
X0092360Y0071748D03*
X0089998Y0074071D03*
X0088029Y0076591D03*
X0086061Y0079150D03*
X0084486Y0081669D03*
X0088423Y0083480D03*
X0093147Y0074780D03*
X0096691Y0076512D03*
X0097872Y0082417D03*
X0098265Y0061787D03*
X0093069Y0060488D03*
X0088817Y0061000D03*
X0073462Y0085016D03*
X0064210Y0085567D03*
X0052006Y0075961D03*
X0049919Y0078126D03*
X0049250Y0081079D03*
X0049053Y0086197D03*
X0047872Y0090685D03*
X0036061Y0090685D03*
X0045116Y0073598D03*
X0047517Y0064150D03*
X0052793Y0053913D03*
X0047163Y0033835D03*
D14*
X0048101Y0034120D02*
X0034377Y0034120D01*
X0033379Y0033121D02*
X0048101Y0033121D01*
X0048101Y0032123D02*
X0032380Y0032123D01*
X0031382Y0031124D02*
X0048101Y0031124D01*
X0048101Y0030126D02*
X0030668Y0030126D01*
X0030668Y0030410D02*
X0040745Y0040487D01*
X0040745Y0039656D01*
X0041111Y0038773D01*
X0041786Y0038097D01*
X0042669Y0037731D01*
X0043625Y0037731D01*
X0044508Y0038097D01*
X0045184Y0038773D01*
X0045550Y0039656D01*
X0045550Y0040612D01*
X0045184Y0041495D01*
X0044508Y0042170D01*
X0043625Y0042536D01*
X0042669Y0042536D01*
X0041786Y0042170D01*
X0041111Y0041495D01*
X0040785Y0040709D01*
X0040785Y0078717D01*
X0038423Y0081079D01*
X0030668Y0081079D01*
X0030668Y0091590D01*
X0054958Y0091590D01*
X0054958Y0085016D01*
X0061838Y0085016D01*
X0062174Y0084206D01*
X0062849Y0083530D01*
X0063732Y0083165D01*
X0064688Y0083165D01*
X0065571Y0083530D01*
X0066247Y0084206D01*
X0066582Y0085016D01*
X0086561Y0085016D01*
X0086386Y0084841D01*
X0086020Y0083958D01*
X0086020Y0083532D01*
X0085847Y0083706D01*
X0084964Y0084072D01*
X0084008Y0084072D01*
X0083125Y0083706D01*
X0082449Y0083030D01*
X0082083Y0082147D01*
X0082083Y0081191D01*
X0082449Y0080308D01*
X0083125Y0079633D01*
X0083658Y0079412D01*
X0083658Y0078672D01*
X0084024Y0077789D01*
X0084700Y0077113D01*
X0085583Y0076747D01*
X0085627Y0076747D01*
X0085627Y0076113D01*
X0085993Y0075230D01*
X0086668Y0074554D01*
X0087551Y0074188D01*
X0087595Y0074188D01*
X0087595Y0073593D01*
X0087961Y0072710D01*
X0088607Y0072064D01*
X0088339Y0072064D01*
X0087456Y0071698D01*
X0087019Y0071261D01*
X0084270Y0071261D01*
X0083332Y0070324D01*
X0081547Y0068539D01*
X0081547Y0067214D01*
X0081547Y0057332D01*
X0079335Y0055120D01*
X0073193Y0055120D01*
X0072256Y0054182D01*
X0063594Y0045521D01*
X0063594Y0044344D01*
X0063366Y0044572D01*
X0062483Y0044938D01*
X0061528Y0044938D01*
X0060645Y0044572D01*
X0059969Y0043896D01*
X0059603Y0043013D01*
X0059603Y0042537D01*
X0059097Y0042031D01*
X0058101Y0041035D01*
X0058101Y0022824D01*
X0057365Y0022519D01*
X0056155Y0021310D01*
X0055501Y0019729D01*
X0055501Y0018087D01*
X0054101Y0018087D01*
X0054101Y0019729D01*
X0053446Y0021310D01*
X0052237Y0022519D01*
X0051597Y0022784D01*
X0051837Y0023025D01*
X0052203Y0023908D01*
X0052203Y0024203D01*
X0052528Y0023419D01*
X0053204Y0022743D01*
X0054087Y0022377D01*
X0055042Y0022377D01*
X0055925Y0022743D01*
X0056601Y0023419D01*
X0056967Y0024302D01*
X0056967Y0025257D01*
X0056601Y0026140D01*
X0055925Y0026816D01*
X0055042Y0027182D01*
X0054087Y0027182D01*
X0053204Y0026816D01*
X0052528Y0026140D01*
X0052162Y0025257D01*
X0052162Y0024962D01*
X0051837Y0025747D01*
X0051501Y0026083D01*
X0051501Y0037422D01*
X0053385Y0039306D01*
X0053861Y0039306D01*
X0054744Y0039672D01*
X0055420Y0040348D01*
X0055786Y0041231D01*
X0055786Y0042187D01*
X0055420Y0043069D01*
X0055231Y0043259D01*
X0055268Y0043243D01*
X0056224Y0043243D01*
X0057106Y0043609D01*
X0057782Y0044285D01*
X0058148Y0045168D01*
X0058148Y0046124D01*
X0057782Y0047006D01*
X0057215Y0047574D01*
X0057405Y0047574D01*
X0058288Y0047940D01*
X0058502Y0048154D01*
X0058716Y0047940D01*
X0059599Y0047574D01*
X0060554Y0047574D01*
X0061437Y0047940D01*
X0062113Y0048616D01*
X0062479Y0049499D01*
X0062479Y0050454D01*
X0062113Y0051337D01*
X0061437Y0052013D01*
X0060554Y0052379D01*
X0059599Y0052379D01*
X0058716Y0052013D01*
X0058502Y0051799D01*
X0058288Y0052013D01*
X0057405Y0052379D01*
X0056449Y0052379D01*
X0055566Y0052013D01*
X0054890Y0051337D01*
X0054524Y0050454D01*
X0054524Y0049499D01*
X0054890Y0048616D01*
X0055458Y0048048D01*
X0055268Y0048048D01*
X0054385Y0047682D01*
X0053709Y0047006D01*
X0053343Y0046124D01*
X0053343Y0045168D01*
X0053709Y0044285D01*
X0053898Y0044096D01*
X0053861Y0044111D01*
X0052906Y0044111D01*
X0052023Y0043745D01*
X0051347Y0043069D01*
X0050981Y0042187D01*
X0050981Y0041710D01*
X0049097Y0039826D01*
X0048101Y0038830D01*
X0048101Y0026083D01*
X0047764Y0025747D01*
X0047398Y0024864D01*
X0047398Y0023908D01*
X0047764Y0023025D01*
X0048005Y0022784D01*
X0047365Y0022519D01*
X0046155Y0021310D01*
X0045501Y0019729D01*
X0045501Y0018087D01*
X0040703Y0018087D01*
X0040470Y0018319D01*
X0040920Y0019404D01*
X0040920Y0021494D01*
X0040470Y0022579D01*
X0041258Y0023367D01*
X0041258Y0024933D01*
X0040151Y0026040D01*
X0038585Y0026040D01*
X0037797Y0025252D01*
X0036712Y0025702D01*
X0034622Y0025702D01*
X0033537Y0025252D01*
X0032749Y0026040D01*
X0031183Y0026040D01*
X0030668Y0025525D01*
X0030668Y0030410D01*
X0030668Y0029127D02*
X0048101Y0029127D01*
X0048101Y0028129D02*
X0030668Y0028129D01*
X0030668Y0027130D02*
X0048101Y0027130D01*
X0048101Y0026132D02*
X0030668Y0026132D01*
X0035376Y0035118D02*
X0048101Y0035118D01*
X0048101Y0036117D02*
X0036374Y0036117D01*
X0037373Y0037115D02*
X0048101Y0037115D01*
X0048101Y0038114D02*
X0044525Y0038114D01*
X0045324Y0039112D02*
X0048383Y0039112D01*
X0049382Y0040111D02*
X0045550Y0040111D01*
X0045343Y0041109D02*
X0050380Y0041109D01*
X0050981Y0042108D02*
X0044571Y0042108D01*
X0041724Y0042108D02*
X0040785Y0042108D01*
X0040785Y0043106D02*
X0051384Y0043106D01*
X0052891Y0044105D02*
X0040785Y0044105D01*
X0040785Y0045103D02*
X0053370Y0045103D01*
X0053343Y0046102D02*
X0040785Y0046102D01*
X0040785Y0047100D02*
X0053803Y0047100D01*
X0055407Y0048099D02*
X0040785Y0048099D01*
X0040785Y0049098D02*
X0054691Y0049098D01*
X0054524Y0050096D02*
X0040785Y0050096D01*
X0040785Y0051095D02*
X0054790Y0051095D01*
X0054154Y0051877D02*
X0054830Y0052553D01*
X0055195Y0053436D01*
X0055195Y0054391D01*
X0054830Y0055274D01*
X0054154Y0055950D01*
X0053271Y0056316D01*
X0052315Y0056316D01*
X0051432Y0055950D01*
X0050756Y0055274D01*
X0050391Y0054391D01*
X0050391Y0053436D01*
X0050756Y0052553D01*
X0051432Y0051877D01*
X0052315Y0051511D01*
X0053271Y0051511D01*
X0054154Y0051877D01*
X0054370Y0052093D02*
X0055759Y0052093D01*
X0055053Y0053092D02*
X0071165Y0053092D01*
X0072164Y0054090D02*
X0055195Y0054090D01*
X0054906Y0055089D02*
X0073162Y0055089D01*
X0070167Y0052093D02*
X0061244Y0052093D01*
X0062214Y0051095D02*
X0069168Y0051095D01*
X0068170Y0050096D02*
X0062479Y0050096D01*
X0062313Y0049098D02*
X0067171Y0049098D01*
X0066172Y0048099D02*
X0061596Y0048099D01*
X0058556Y0048099D02*
X0058447Y0048099D01*
X0057688Y0047100D02*
X0065174Y0047100D01*
X0064175Y0046102D02*
X0058148Y0046102D01*
X0058121Y0045103D02*
X0063594Y0045103D01*
X0060178Y0044105D02*
X0057602Y0044105D01*
X0059642Y0043106D02*
X0055383Y0043106D01*
X0055786Y0042108D02*
X0059174Y0042108D01*
X0058175Y0041109D02*
X0055736Y0041109D01*
X0055183Y0040111D02*
X0058101Y0040111D01*
X0058101Y0039112D02*
X0053191Y0039112D01*
X0052193Y0038114D02*
X0058101Y0038114D01*
X0058101Y0037115D02*
X0051501Y0037115D01*
X0051501Y0036117D02*
X0058101Y0036117D01*
X0058101Y0035118D02*
X0051501Y0035118D01*
X0051501Y0034120D02*
X0058101Y0034120D01*
X0058101Y0033121D02*
X0051501Y0033121D01*
X0051501Y0032123D02*
X0058101Y0032123D01*
X0058101Y0031124D02*
X0051501Y0031124D01*
X0051501Y0030126D02*
X0058101Y0030126D01*
X0058101Y0029127D02*
X0051501Y0029127D01*
X0051501Y0028129D02*
X0058101Y0028129D01*
X0058101Y0027130D02*
X0055167Y0027130D01*
X0053962Y0027130D02*
X0051501Y0027130D01*
X0051501Y0026132D02*
X0052524Y0026132D01*
X0052162Y0025133D02*
X0052091Y0025133D01*
X0052203Y0024135D02*
X0052231Y0024135D01*
X0051883Y0023136D02*
X0052810Y0023136D01*
X0052618Y0022138D02*
X0056983Y0022138D01*
X0056319Y0023136D02*
X0058101Y0023136D01*
X0058101Y0024135D02*
X0056898Y0024135D01*
X0056967Y0025133D02*
X0058101Y0025133D01*
X0058101Y0026132D02*
X0056605Y0026132D01*
X0061501Y0026132D02*
X0068101Y0026132D01*
X0068101Y0026083D02*
X0067764Y0025747D01*
X0067398Y0024864D01*
X0067398Y0023908D01*
X0067764Y0023025D01*
X0068005Y0022784D01*
X0067365Y0022519D01*
X0066155Y0021310D01*
X0065501Y0019729D01*
X0065501Y0018087D01*
X0064101Y0018087D01*
X0064101Y0019729D01*
X0063446Y0021310D01*
X0062237Y0022519D01*
X0061501Y0022824D01*
X0061501Y0039627D01*
X0062007Y0040133D01*
X0062483Y0040133D01*
X0063366Y0040499D01*
X0063580Y0040713D01*
X0063834Y0040459D01*
X0064717Y0040094D01*
X0065193Y0040094D01*
X0068101Y0037186D01*
X0068101Y0026083D01*
X0068101Y0027130D02*
X0061501Y0027130D01*
X0061501Y0028129D02*
X0068101Y0028129D01*
X0068101Y0029127D02*
X0061501Y0029127D01*
X0061501Y0030126D02*
X0068101Y0030126D01*
X0068101Y0031124D02*
X0061501Y0031124D01*
X0061501Y0032123D02*
X0068101Y0032123D01*
X0068101Y0033121D02*
X0061501Y0033121D01*
X0061501Y0034120D02*
X0068101Y0034120D01*
X0068101Y0035118D02*
X0061501Y0035118D01*
X0061501Y0036117D02*
X0068101Y0036117D01*
X0068101Y0037115D02*
X0061501Y0037115D01*
X0061501Y0038114D02*
X0067173Y0038114D01*
X0066174Y0039112D02*
X0061501Y0039112D01*
X0061985Y0040111D02*
X0064675Y0040111D01*
X0067597Y0042498D02*
X0067597Y0042602D01*
X0068164Y0042034D01*
X0069047Y0041669D01*
X0069523Y0041669D01*
X0070002Y0041190D01*
X0072364Y0041190D01*
X0074124Y0039430D01*
X0074124Y0024508D01*
X0073788Y0024172D01*
X0073422Y0023289D01*
X0073422Y0022333D01*
X0073788Y0021450D01*
X0074464Y0020774D01*
X0075347Y0020409D01*
X0075782Y0020409D01*
X0075501Y0019729D01*
X0075501Y0018087D01*
X0074101Y0018087D01*
X0074101Y0019729D01*
X0073446Y0021310D01*
X0072237Y0022519D01*
X0071597Y0022784D01*
X0071837Y0023025D01*
X0072203Y0023908D01*
X0072203Y0024864D01*
X0071837Y0025747D01*
X0071501Y0026083D01*
X0071501Y0038594D01*
X0070505Y0039590D01*
X0067597Y0042498D01*
X0067987Y0042108D02*
X0068091Y0042108D01*
X0068985Y0041109D02*
X0072445Y0041109D01*
X0073443Y0040111D02*
X0069984Y0040111D01*
X0070982Y0039112D02*
X0074124Y0039112D01*
X0074124Y0038114D02*
X0071501Y0038114D01*
X0071501Y0037115D02*
X0074124Y0037115D01*
X0074124Y0036117D02*
X0071501Y0036117D01*
X0071501Y0035118D02*
X0074124Y0035118D01*
X0074124Y0034120D02*
X0071501Y0034120D01*
X0071501Y0033121D02*
X0074124Y0033121D01*
X0074124Y0032123D02*
X0071501Y0032123D01*
X0071501Y0031124D02*
X0074124Y0031124D01*
X0074124Y0030126D02*
X0071501Y0030126D01*
X0071501Y0029127D02*
X0074124Y0029127D01*
X0074124Y0028129D02*
X0071501Y0028129D01*
X0071501Y0027130D02*
X0074124Y0027130D01*
X0074124Y0026132D02*
X0071501Y0026132D01*
X0072091Y0025133D02*
X0074124Y0025133D01*
X0073772Y0024135D02*
X0072203Y0024135D01*
X0071883Y0023136D02*
X0073422Y0023136D01*
X0073503Y0022138D02*
X0072618Y0022138D01*
X0073517Y0021139D02*
X0074099Y0021139D01*
X0073930Y0020141D02*
X0075671Y0020141D01*
X0075501Y0019142D02*
X0074101Y0019142D01*
X0074101Y0018144D02*
X0075501Y0018144D01*
X0078227Y0022876D02*
X0078227Y0023289D01*
X0077861Y0024172D01*
X0077524Y0024508D01*
X0077524Y0040838D01*
X0074768Y0043594D01*
X0073773Y0044590D01*
X0071911Y0044590D01*
X0071562Y0045432D01*
X0071125Y0045868D01*
X0071125Y0046164D01*
X0075306Y0050345D01*
X0075902Y0050345D01*
X0075784Y0050061D01*
X0075784Y0049105D01*
X0076150Y0048222D01*
X0076826Y0047546D01*
X0077709Y0047180D01*
X0078664Y0047180D01*
X0079547Y0047546D01*
X0080223Y0048222D01*
X0080589Y0049105D01*
X0080589Y0050061D01*
X0080471Y0050345D01*
X0080955Y0050345D01*
X0080902Y0050218D01*
X0080902Y0049262D01*
X0081268Y0048379D01*
X0081944Y0047704D01*
X0082827Y0047338D01*
X0083783Y0047338D01*
X0084666Y0047704D01*
X0085341Y0048379D01*
X0085707Y0049262D01*
X0085707Y0050218D01*
X0085661Y0050330D01*
X0085751Y0050330D01*
X0086634Y0050696D01*
X0087310Y0051371D01*
X0087676Y0052254D01*
X0087676Y0053210D01*
X0087310Y0054093D01*
X0086634Y0054769D01*
X0086206Y0054946D01*
X0087904Y0056644D01*
X0088842Y0057581D01*
X0088842Y0058598D01*
X0089294Y0058598D01*
X0090177Y0058963D01*
X0090853Y0059639D01*
X0091219Y0060522D01*
X0091219Y0061478D01*
X0090853Y0062361D01*
X0090177Y0063037D01*
X0089294Y0063402D01*
X0088339Y0063402D01*
X0087456Y0063037D01*
X0086780Y0062361D01*
X0086414Y0061478D01*
X0086414Y0060860D01*
X0085642Y0060088D01*
X0085642Y0058907D01*
X0084747Y0058012D01*
X0084747Y0067214D01*
X0085595Y0068061D01*
X0087019Y0068061D01*
X0087456Y0067625D01*
X0088339Y0067259D01*
X0089294Y0067259D01*
X0090177Y0067625D01*
X0090853Y0068301D01*
X0091219Y0069184D01*
X0091219Y0069620D01*
X0091882Y0069346D01*
X0092838Y0069346D01*
X0093721Y0069711D01*
X0094396Y0070387D01*
X0094762Y0071270D01*
X0094762Y0072226D01*
X0094396Y0073109D01*
X0093721Y0073785D01*
X0092838Y0074150D01*
X0092400Y0074150D01*
X0092400Y0074549D01*
X0092034Y0075432D01*
X0091358Y0076107D01*
X0090475Y0076473D01*
X0090431Y0076473D01*
X0090431Y0077068D01*
X0090066Y0077951D01*
X0089390Y0078627D01*
X0088507Y0078993D01*
X0088463Y0078993D01*
X0088463Y0079627D01*
X0088097Y0080510D01*
X0087421Y0081186D01*
X0086888Y0081407D01*
X0086888Y0081618D01*
X0087062Y0081444D01*
X0087945Y0081078D01*
X0088901Y0081078D01*
X0089784Y0081444D01*
X0090459Y0082119D01*
X0090825Y0083002D01*
X0090825Y0083958D01*
X0090459Y0084841D01*
X0090285Y0085016D01*
X0092360Y0085016D01*
X0098934Y0078442D01*
X0098934Y0025525D01*
X0098419Y0026040D01*
X0096852Y0026040D01*
X0095745Y0024933D01*
X0095745Y0023367D01*
X0096852Y0022259D01*
X0098419Y0022259D01*
X0098934Y0022774D01*
X0098934Y0018123D01*
X0098419Y0018639D01*
X0096852Y0018639D01*
X0096300Y0018087D01*
X0091569Y0018087D01*
X0091017Y0018639D01*
X0089451Y0018639D01*
X0088899Y0018087D01*
X0084101Y0018087D01*
X0084101Y0019729D01*
X0083446Y0021310D01*
X0082237Y0022519D01*
X0080656Y0023174D01*
X0078945Y0023174D01*
X0078227Y0022876D01*
X0078227Y0023136D02*
X0078854Y0023136D01*
X0077876Y0024135D02*
X0088343Y0024135D01*
X0088343Y0023367D02*
X0089451Y0022259D01*
X0091017Y0022259D01*
X0092124Y0023367D01*
X0092124Y0024933D01*
X0091017Y0026040D01*
X0089451Y0026040D01*
X0088343Y0024933D01*
X0088343Y0023367D01*
X0088574Y0023136D02*
X0080747Y0023136D01*
X0082618Y0022138D02*
X0098934Y0022138D01*
X0098934Y0021139D02*
X0083517Y0021139D01*
X0083930Y0020141D02*
X0098934Y0020141D01*
X0098934Y0019142D02*
X0084101Y0019142D01*
X0084101Y0018144D02*
X0088956Y0018144D01*
X0091512Y0018144D02*
X0096357Y0018144D01*
X0098913Y0018144D02*
X0098934Y0018144D01*
X0095975Y0023136D02*
X0091894Y0023136D01*
X0092124Y0024135D02*
X0095745Y0024135D01*
X0095945Y0025133D02*
X0091924Y0025133D01*
X0088544Y0025133D02*
X0077524Y0025133D01*
X0077524Y0026132D02*
X0098934Y0026132D01*
X0098934Y0027130D02*
X0077524Y0027130D01*
X0077524Y0028129D02*
X0098934Y0028129D01*
X0098934Y0029127D02*
X0077524Y0029127D01*
X0077524Y0030126D02*
X0098934Y0030126D01*
X0098934Y0031124D02*
X0077524Y0031124D01*
X0077524Y0032123D02*
X0098934Y0032123D01*
X0098934Y0033121D02*
X0087170Y0033121D01*
X0087310Y0033261D02*
X0087676Y0034144D01*
X0087676Y0035100D01*
X0087310Y0035983D01*
X0086634Y0036659D01*
X0085751Y0037024D01*
X0084795Y0037024D01*
X0083912Y0036659D01*
X0083237Y0035983D01*
X0082871Y0035100D01*
X0082871Y0034144D01*
X0083237Y0033261D01*
X0083912Y0032585D01*
X0084795Y0032220D01*
X0085751Y0032220D01*
X0086634Y0032585D01*
X0087310Y0033261D01*
X0087665Y0034120D02*
X0098934Y0034120D01*
X0098934Y0035118D02*
X0087668Y0035118D01*
X0087176Y0036117D02*
X0098934Y0036117D01*
X0098934Y0037115D02*
X0077524Y0037115D01*
X0077524Y0036117D02*
X0083371Y0036117D01*
X0082879Y0035118D02*
X0077524Y0035118D01*
X0077524Y0034120D02*
X0082881Y0034120D01*
X0083376Y0033121D02*
X0077524Y0033121D01*
X0077524Y0038114D02*
X0092951Y0038114D01*
X0092685Y0038379D02*
X0093361Y0037704D01*
X0094244Y0037338D01*
X0095200Y0037338D01*
X0096083Y0037704D01*
X0096759Y0038379D01*
X0097124Y0039262D01*
X0097124Y0040218D01*
X0096759Y0041101D01*
X0096083Y0041777D01*
X0095200Y0042143D01*
X0094244Y0042143D01*
X0093361Y0041777D01*
X0092685Y0041101D01*
X0092320Y0040218D01*
X0092320Y0039262D01*
X0092685Y0038379D01*
X0092382Y0039112D02*
X0077524Y0039112D01*
X0077524Y0040111D02*
X0092320Y0040111D01*
X0092694Y0041109D02*
X0077253Y0041109D01*
X0076254Y0042108D02*
X0094161Y0042108D01*
X0095283Y0042108D02*
X0098934Y0042108D01*
X0098934Y0043106D02*
X0075256Y0043106D01*
X0074257Y0044105D02*
X0098934Y0044105D01*
X0098934Y0045103D02*
X0071698Y0045103D01*
X0071125Y0046102D02*
X0098934Y0046102D01*
X0098934Y0047100D02*
X0072062Y0047100D01*
X0073060Y0048099D02*
X0076273Y0048099D01*
X0075787Y0049098D02*
X0074059Y0049098D01*
X0075057Y0050096D02*
X0075799Y0050096D01*
X0080100Y0048099D02*
X0081548Y0048099D01*
X0080971Y0049098D02*
X0080586Y0049098D01*
X0080574Y0050096D02*
X0080902Y0050096D01*
X0085061Y0048099D02*
X0098934Y0048099D01*
X0098934Y0049098D02*
X0085639Y0049098D01*
X0085707Y0050096D02*
X0098934Y0050096D01*
X0098934Y0051095D02*
X0087033Y0051095D01*
X0087609Y0052093D02*
X0098934Y0052093D01*
X0098934Y0053092D02*
X0087676Y0053092D01*
X0087311Y0054090D02*
X0098934Y0054090D01*
X0098934Y0055089D02*
X0086349Y0055089D01*
X0087347Y0056087D02*
X0098934Y0056087D01*
X0098934Y0057086D02*
X0088346Y0057086D01*
X0088842Y0058084D02*
X0098934Y0058084D01*
X0098934Y0059083D02*
X0090297Y0059083D01*
X0091036Y0060081D02*
X0098934Y0060081D01*
X0098934Y0061080D02*
X0091219Y0061080D01*
X0090970Y0062078D02*
X0098934Y0062078D01*
X0098934Y0063077D02*
X0090081Y0063077D01*
X0087552Y0063077D02*
X0084747Y0063077D01*
X0084747Y0064075D02*
X0098934Y0064075D01*
X0098934Y0065074D02*
X0084747Y0065074D01*
X0084747Y0066072D02*
X0098934Y0066072D01*
X0098934Y0067071D02*
X0084747Y0067071D01*
X0082076Y0069068D02*
X0040785Y0069068D01*
X0040785Y0070066D02*
X0083074Y0070066D01*
X0084073Y0071065D02*
X0040785Y0071065D01*
X0040785Y0072063D02*
X0088337Y0072063D01*
X0087815Y0073062D02*
X0040785Y0073062D01*
X0040785Y0074060D02*
X0050508Y0074060D01*
X0050645Y0073924D02*
X0051528Y0073558D01*
X0052483Y0073558D01*
X0053366Y0073924D01*
X0054042Y0074600D01*
X0054408Y0075483D01*
X0054408Y0076438D01*
X0054042Y0077321D01*
X0053366Y0077997D01*
X0052483Y0078363D01*
X0052321Y0078363D01*
X0052321Y0078604D01*
X0051956Y0079487D01*
X0051415Y0080028D01*
X0051652Y0080601D01*
X0051652Y0081557D01*
X0051286Y0082440D01*
X0050610Y0083115D01*
X0049727Y0083481D01*
X0048772Y0083481D01*
X0047889Y0083115D01*
X0047213Y0082440D01*
X0046847Y0081557D01*
X0046847Y0080601D01*
X0047213Y0079718D01*
X0047754Y0079177D01*
X0047517Y0078604D01*
X0047517Y0077648D01*
X0047882Y0076765D01*
X0048558Y0076089D01*
X0049441Y0075724D01*
X0049603Y0075724D01*
X0049603Y0075483D01*
X0049969Y0074600D01*
X0050645Y0073924D01*
X0049779Y0075059D02*
X0040785Y0075059D01*
X0040785Y0076057D02*
X0048635Y0076057D01*
X0047762Y0077056D02*
X0040785Y0077056D01*
X0040785Y0078054D02*
X0047517Y0078054D01*
X0047703Y0079053D02*
X0040449Y0079053D01*
X0039450Y0080051D02*
X0047075Y0080051D01*
X0046847Y0081050D02*
X0038452Y0081050D01*
X0030668Y0082048D02*
X0047051Y0082048D01*
X0047820Y0083047D02*
X0030668Y0083047D01*
X0030668Y0084045D02*
X0062334Y0084045D01*
X0066086Y0084045D02*
X0083945Y0084045D01*
X0085027Y0084045D02*
X0086057Y0084045D01*
X0087558Y0081050D02*
X0096326Y0081050D01*
X0097324Y0080051D02*
X0088287Y0080051D01*
X0088463Y0079053D02*
X0098323Y0079053D01*
X0098934Y0078054D02*
X0089963Y0078054D01*
X0090431Y0077056D02*
X0098934Y0077056D01*
X0098934Y0076057D02*
X0091409Y0076057D01*
X0092189Y0075059D02*
X0098934Y0075059D01*
X0098934Y0074060D02*
X0093055Y0074060D01*
X0094416Y0073062D02*
X0098934Y0073062D01*
X0098934Y0072063D02*
X0094762Y0072063D01*
X0094677Y0071065D02*
X0098934Y0071065D01*
X0098934Y0070066D02*
X0094076Y0070066D01*
X0091171Y0069068D02*
X0098934Y0069068D01*
X0098934Y0068069D02*
X0090622Y0068069D01*
X0087595Y0074060D02*
X0053503Y0074060D01*
X0054232Y0075059D02*
X0086163Y0075059D01*
X0085650Y0076057D02*
X0054408Y0076057D01*
X0054152Y0077056D02*
X0084838Y0077056D01*
X0083914Y0078054D02*
X0053229Y0078054D01*
X0052135Y0079053D02*
X0083658Y0079053D01*
X0082706Y0080051D02*
X0051424Y0080051D01*
X0051652Y0081050D02*
X0082142Y0081050D01*
X0082083Y0082048D02*
X0051448Y0082048D01*
X0050679Y0083047D02*
X0082466Y0083047D01*
X0090388Y0082048D02*
X0095327Y0082048D01*
X0094329Y0083047D02*
X0090825Y0083047D01*
X0090789Y0084045D02*
X0093330Y0084045D01*
X0081547Y0068069D02*
X0040785Y0068069D01*
X0040785Y0067071D02*
X0081547Y0067071D01*
X0081547Y0066072D02*
X0048992Y0066072D01*
X0048878Y0066186D02*
X0047995Y0066552D01*
X0047039Y0066552D01*
X0046156Y0066186D01*
X0045481Y0065510D01*
X0045115Y0064627D01*
X0045115Y0063672D01*
X0045481Y0062789D01*
X0046156Y0062113D01*
X0047039Y0061747D01*
X0047995Y0061747D01*
X0048878Y0062113D01*
X0049554Y0062789D01*
X0049920Y0063672D01*
X0049920Y0064627D01*
X0049554Y0065510D01*
X0048878Y0066186D01*
X0049735Y0065074D02*
X0081547Y0065074D01*
X0081547Y0064075D02*
X0049920Y0064075D01*
X0049673Y0063077D02*
X0081547Y0063077D01*
X0081547Y0062078D02*
X0048794Y0062078D01*
X0046241Y0062078D02*
X0040785Y0062078D01*
X0040785Y0061080D02*
X0081547Y0061080D01*
X0081547Y0060081D02*
X0040785Y0060081D01*
X0040785Y0059083D02*
X0081547Y0059083D01*
X0081547Y0058084D02*
X0040785Y0058084D01*
X0040785Y0057086D02*
X0081301Y0057086D01*
X0080302Y0056087D02*
X0053823Y0056087D01*
X0051763Y0056087D02*
X0040785Y0056087D01*
X0040785Y0055089D02*
X0050679Y0055089D01*
X0050391Y0054090D02*
X0040785Y0054090D01*
X0040785Y0053092D02*
X0050533Y0053092D01*
X0051216Y0052093D02*
X0040785Y0052093D01*
X0040785Y0041109D02*
X0040951Y0041109D01*
X0040745Y0040111D02*
X0040368Y0040111D01*
X0040970Y0039112D02*
X0039370Y0039112D01*
X0038371Y0038114D02*
X0041770Y0038114D01*
X0053876Y0044105D02*
X0053889Y0044105D01*
X0058094Y0052093D02*
X0058909Y0052093D01*
X0045361Y0063077D02*
X0040785Y0063077D01*
X0040785Y0064075D02*
X0045115Y0064075D01*
X0045300Y0065074D02*
X0040785Y0065074D01*
X0040785Y0066072D02*
X0046042Y0066072D01*
X0054958Y0085044D02*
X0030668Y0085044D01*
X0030668Y0086042D02*
X0054958Y0086042D01*
X0054958Y0087041D02*
X0030668Y0087041D01*
X0030668Y0088039D02*
X0054958Y0088039D01*
X0054958Y0089038D02*
X0030668Y0089038D01*
X0030668Y0090036D02*
X0054958Y0090036D01*
X0054958Y0091035D02*
X0030668Y0091035D01*
X0084747Y0062078D02*
X0086663Y0062078D01*
X0086414Y0061080D02*
X0084747Y0061080D01*
X0084747Y0060081D02*
X0085642Y0060081D01*
X0085642Y0059083D02*
X0084747Y0059083D01*
X0084747Y0058084D02*
X0084819Y0058084D01*
X0096750Y0041109D02*
X0098934Y0041109D01*
X0098934Y0040111D02*
X0097124Y0040111D01*
X0097062Y0039112D02*
X0098934Y0039112D01*
X0098934Y0038114D02*
X0096493Y0038114D01*
X0067510Y0025133D02*
X0061501Y0025133D01*
X0061501Y0024135D02*
X0067398Y0024135D01*
X0067718Y0023136D02*
X0061501Y0023136D01*
X0062618Y0022138D02*
X0066983Y0022138D01*
X0066085Y0021139D02*
X0063517Y0021139D01*
X0063930Y0020141D02*
X0065671Y0020141D01*
X0065501Y0019142D02*
X0064101Y0019142D01*
X0064101Y0018144D02*
X0065501Y0018144D01*
X0056085Y0021139D02*
X0053517Y0021139D01*
X0053930Y0020141D02*
X0055671Y0020141D01*
X0055501Y0019142D02*
X0054101Y0019142D01*
X0054101Y0018144D02*
X0055501Y0018144D01*
X0047718Y0023136D02*
X0041028Y0023136D01*
X0041258Y0024135D02*
X0047398Y0024135D01*
X0047510Y0025133D02*
X0041058Y0025133D01*
X0040653Y0022138D02*
X0046983Y0022138D01*
X0046085Y0021139D02*
X0040920Y0021139D01*
X0040920Y0020141D02*
X0045671Y0020141D01*
X0045501Y0019142D02*
X0040811Y0019142D01*
X0040646Y0018144D02*
X0045501Y0018144D01*
D15*
X0049801Y0024386D02*
X0049801Y0038126D01*
X0053383Y0041709D01*
X0059801Y0040331D02*
X0059801Y0018874D01*
X0069801Y0024386D02*
X0069801Y0037890D01*
X0065194Y0042496D01*
X0062006Y0042535D02*
X0059801Y0040331D01*
X0069525Y0044071D02*
X0070706Y0042890D01*
X0073069Y0042890D01*
X0075824Y0040134D01*
X0075824Y0022811D01*
D16*
X0065194Y0042496D02*
X0065194Y0044858D01*
X0073856Y0053520D01*
X0079998Y0053520D01*
X0083147Y0056669D01*
X0083147Y0067876D01*
X0084932Y0069661D01*
X0088817Y0069661D01*
X0088817Y0061000D02*
X0087242Y0059425D01*
X0087242Y0058244D01*
X0080943Y0051945D01*
X0074643Y0051945D01*
X0069525Y0046827D01*
X0069525Y0044071D01*
M02*
