G75*
%MOIN*%
%OFA0B0*%
%FSLAX25Y25*%
%IPPOS*%
%LPD*%
%AMOC8*
5,1,8,0,0,1.08239X$1,22.5*
%
%ADD10C,0.00000*%
%ADD11C,0.06000*%
%ADD12C,0.07906*%
%ADD13C,0.02205*%
%ADD14C,0.01000*%
%ADD15C,0.00800*%
%ADD16C,0.00600*%
D10*
X0029368Y0010142D02*
X0029368Y0088882D01*
X0100234Y0088882D01*
X0100234Y0010142D01*
X0029368Y0010142D01*
X0031375Y0012741D02*
X0031377Y0012789D01*
X0031383Y0012837D01*
X0031393Y0012884D01*
X0031406Y0012930D01*
X0031424Y0012975D01*
X0031444Y0013019D01*
X0031469Y0013061D01*
X0031497Y0013100D01*
X0031527Y0013137D01*
X0031561Y0013171D01*
X0031598Y0013203D01*
X0031636Y0013232D01*
X0031677Y0013257D01*
X0031720Y0013279D01*
X0031765Y0013297D01*
X0031811Y0013311D01*
X0031858Y0013322D01*
X0031906Y0013329D01*
X0031954Y0013332D01*
X0032002Y0013331D01*
X0032050Y0013326D01*
X0032098Y0013317D01*
X0032144Y0013305D01*
X0032189Y0013288D01*
X0032233Y0013268D01*
X0032275Y0013245D01*
X0032315Y0013218D01*
X0032353Y0013188D01*
X0032388Y0013155D01*
X0032420Y0013119D01*
X0032450Y0013081D01*
X0032476Y0013040D01*
X0032498Y0012997D01*
X0032518Y0012953D01*
X0032533Y0012908D01*
X0032545Y0012861D01*
X0032553Y0012813D01*
X0032557Y0012765D01*
X0032557Y0012717D01*
X0032553Y0012669D01*
X0032545Y0012621D01*
X0032533Y0012574D01*
X0032518Y0012529D01*
X0032498Y0012485D01*
X0032476Y0012442D01*
X0032450Y0012401D01*
X0032420Y0012363D01*
X0032388Y0012327D01*
X0032353Y0012294D01*
X0032315Y0012264D01*
X0032275Y0012237D01*
X0032233Y0012214D01*
X0032189Y0012194D01*
X0032144Y0012177D01*
X0032098Y0012165D01*
X0032050Y0012156D01*
X0032002Y0012151D01*
X0031954Y0012150D01*
X0031906Y0012153D01*
X0031858Y0012160D01*
X0031811Y0012171D01*
X0031765Y0012185D01*
X0031720Y0012203D01*
X0031677Y0012225D01*
X0031636Y0012250D01*
X0031598Y0012279D01*
X0031561Y0012311D01*
X0031527Y0012345D01*
X0031497Y0012382D01*
X0031469Y0012421D01*
X0031444Y0012463D01*
X0031424Y0012507D01*
X0031406Y0012552D01*
X0031393Y0012598D01*
X0031383Y0012645D01*
X0031377Y0012693D01*
X0031375Y0012741D01*
X0038777Y0012741D02*
X0038779Y0012789D01*
X0038785Y0012837D01*
X0038795Y0012884D01*
X0038808Y0012930D01*
X0038826Y0012975D01*
X0038846Y0013019D01*
X0038871Y0013061D01*
X0038899Y0013100D01*
X0038929Y0013137D01*
X0038963Y0013171D01*
X0039000Y0013203D01*
X0039038Y0013232D01*
X0039079Y0013257D01*
X0039122Y0013279D01*
X0039167Y0013297D01*
X0039213Y0013311D01*
X0039260Y0013322D01*
X0039308Y0013329D01*
X0039356Y0013332D01*
X0039404Y0013331D01*
X0039452Y0013326D01*
X0039500Y0013317D01*
X0039546Y0013305D01*
X0039591Y0013288D01*
X0039635Y0013268D01*
X0039677Y0013245D01*
X0039717Y0013218D01*
X0039755Y0013188D01*
X0039790Y0013155D01*
X0039822Y0013119D01*
X0039852Y0013081D01*
X0039878Y0013040D01*
X0039900Y0012997D01*
X0039920Y0012953D01*
X0039935Y0012908D01*
X0039947Y0012861D01*
X0039955Y0012813D01*
X0039959Y0012765D01*
X0039959Y0012717D01*
X0039955Y0012669D01*
X0039947Y0012621D01*
X0039935Y0012574D01*
X0039920Y0012529D01*
X0039900Y0012485D01*
X0039878Y0012442D01*
X0039852Y0012401D01*
X0039822Y0012363D01*
X0039790Y0012327D01*
X0039755Y0012294D01*
X0039717Y0012264D01*
X0039677Y0012237D01*
X0039635Y0012214D01*
X0039591Y0012194D01*
X0039546Y0012177D01*
X0039500Y0012165D01*
X0039452Y0012156D01*
X0039404Y0012151D01*
X0039356Y0012150D01*
X0039308Y0012153D01*
X0039260Y0012160D01*
X0039213Y0012171D01*
X0039167Y0012185D01*
X0039122Y0012203D01*
X0039079Y0012225D01*
X0039038Y0012250D01*
X0039000Y0012279D01*
X0038963Y0012311D01*
X0038929Y0012345D01*
X0038899Y0012382D01*
X0038871Y0012421D01*
X0038846Y0012463D01*
X0038826Y0012507D01*
X0038808Y0012552D01*
X0038795Y0012598D01*
X0038785Y0012645D01*
X0038779Y0012693D01*
X0038777Y0012741D01*
X0038777Y0020142D02*
X0038779Y0020190D01*
X0038785Y0020238D01*
X0038795Y0020285D01*
X0038808Y0020331D01*
X0038826Y0020376D01*
X0038846Y0020420D01*
X0038871Y0020462D01*
X0038899Y0020501D01*
X0038929Y0020538D01*
X0038963Y0020572D01*
X0039000Y0020604D01*
X0039038Y0020633D01*
X0039079Y0020658D01*
X0039122Y0020680D01*
X0039167Y0020698D01*
X0039213Y0020712D01*
X0039260Y0020723D01*
X0039308Y0020730D01*
X0039356Y0020733D01*
X0039404Y0020732D01*
X0039452Y0020727D01*
X0039500Y0020718D01*
X0039546Y0020706D01*
X0039591Y0020689D01*
X0039635Y0020669D01*
X0039677Y0020646D01*
X0039717Y0020619D01*
X0039755Y0020589D01*
X0039790Y0020556D01*
X0039822Y0020520D01*
X0039852Y0020482D01*
X0039878Y0020441D01*
X0039900Y0020398D01*
X0039920Y0020354D01*
X0039935Y0020309D01*
X0039947Y0020262D01*
X0039955Y0020214D01*
X0039959Y0020166D01*
X0039959Y0020118D01*
X0039955Y0020070D01*
X0039947Y0020022D01*
X0039935Y0019975D01*
X0039920Y0019930D01*
X0039900Y0019886D01*
X0039878Y0019843D01*
X0039852Y0019802D01*
X0039822Y0019764D01*
X0039790Y0019728D01*
X0039755Y0019695D01*
X0039717Y0019665D01*
X0039677Y0019638D01*
X0039635Y0019615D01*
X0039591Y0019595D01*
X0039546Y0019578D01*
X0039500Y0019566D01*
X0039452Y0019557D01*
X0039404Y0019552D01*
X0039356Y0019551D01*
X0039308Y0019554D01*
X0039260Y0019561D01*
X0039213Y0019572D01*
X0039167Y0019586D01*
X0039122Y0019604D01*
X0039079Y0019626D01*
X0039038Y0019651D01*
X0039000Y0019680D01*
X0038963Y0019712D01*
X0038929Y0019746D01*
X0038899Y0019783D01*
X0038871Y0019822D01*
X0038846Y0019864D01*
X0038826Y0019908D01*
X0038808Y0019953D01*
X0038795Y0019999D01*
X0038785Y0020046D01*
X0038779Y0020094D01*
X0038777Y0020142D01*
X0031375Y0020142D02*
X0031377Y0020190D01*
X0031383Y0020238D01*
X0031393Y0020285D01*
X0031406Y0020331D01*
X0031424Y0020376D01*
X0031444Y0020420D01*
X0031469Y0020462D01*
X0031497Y0020501D01*
X0031527Y0020538D01*
X0031561Y0020572D01*
X0031598Y0020604D01*
X0031636Y0020633D01*
X0031677Y0020658D01*
X0031720Y0020680D01*
X0031765Y0020698D01*
X0031811Y0020712D01*
X0031858Y0020723D01*
X0031906Y0020730D01*
X0031954Y0020733D01*
X0032002Y0020732D01*
X0032050Y0020727D01*
X0032098Y0020718D01*
X0032144Y0020706D01*
X0032189Y0020689D01*
X0032233Y0020669D01*
X0032275Y0020646D01*
X0032315Y0020619D01*
X0032353Y0020589D01*
X0032388Y0020556D01*
X0032420Y0020520D01*
X0032450Y0020482D01*
X0032476Y0020441D01*
X0032498Y0020398D01*
X0032518Y0020354D01*
X0032533Y0020309D01*
X0032545Y0020262D01*
X0032553Y0020214D01*
X0032557Y0020166D01*
X0032557Y0020118D01*
X0032553Y0020070D01*
X0032545Y0020022D01*
X0032533Y0019975D01*
X0032518Y0019930D01*
X0032498Y0019886D01*
X0032476Y0019843D01*
X0032450Y0019802D01*
X0032420Y0019764D01*
X0032388Y0019728D01*
X0032353Y0019695D01*
X0032315Y0019665D01*
X0032275Y0019638D01*
X0032233Y0019615D01*
X0032189Y0019595D01*
X0032144Y0019578D01*
X0032098Y0019566D01*
X0032050Y0019557D01*
X0032002Y0019552D01*
X0031954Y0019551D01*
X0031906Y0019554D01*
X0031858Y0019561D01*
X0031811Y0019572D01*
X0031765Y0019586D01*
X0031720Y0019604D01*
X0031677Y0019626D01*
X0031636Y0019651D01*
X0031598Y0019680D01*
X0031561Y0019712D01*
X0031527Y0019746D01*
X0031497Y0019783D01*
X0031469Y0019822D01*
X0031444Y0019864D01*
X0031424Y0019908D01*
X0031406Y0019953D01*
X0031393Y0019999D01*
X0031383Y0020046D01*
X0031377Y0020094D01*
X0031375Y0020142D01*
X0089643Y0020142D02*
X0089645Y0020190D01*
X0089651Y0020238D01*
X0089661Y0020285D01*
X0089674Y0020331D01*
X0089692Y0020376D01*
X0089712Y0020420D01*
X0089737Y0020462D01*
X0089765Y0020501D01*
X0089795Y0020538D01*
X0089829Y0020572D01*
X0089866Y0020604D01*
X0089904Y0020633D01*
X0089945Y0020658D01*
X0089988Y0020680D01*
X0090033Y0020698D01*
X0090079Y0020712D01*
X0090126Y0020723D01*
X0090174Y0020730D01*
X0090222Y0020733D01*
X0090270Y0020732D01*
X0090318Y0020727D01*
X0090366Y0020718D01*
X0090412Y0020706D01*
X0090457Y0020689D01*
X0090501Y0020669D01*
X0090543Y0020646D01*
X0090583Y0020619D01*
X0090621Y0020589D01*
X0090656Y0020556D01*
X0090688Y0020520D01*
X0090718Y0020482D01*
X0090744Y0020441D01*
X0090766Y0020398D01*
X0090786Y0020354D01*
X0090801Y0020309D01*
X0090813Y0020262D01*
X0090821Y0020214D01*
X0090825Y0020166D01*
X0090825Y0020118D01*
X0090821Y0020070D01*
X0090813Y0020022D01*
X0090801Y0019975D01*
X0090786Y0019930D01*
X0090766Y0019886D01*
X0090744Y0019843D01*
X0090718Y0019802D01*
X0090688Y0019764D01*
X0090656Y0019728D01*
X0090621Y0019695D01*
X0090583Y0019665D01*
X0090543Y0019638D01*
X0090501Y0019615D01*
X0090457Y0019595D01*
X0090412Y0019578D01*
X0090366Y0019566D01*
X0090318Y0019557D01*
X0090270Y0019552D01*
X0090222Y0019551D01*
X0090174Y0019554D01*
X0090126Y0019561D01*
X0090079Y0019572D01*
X0090033Y0019586D01*
X0089988Y0019604D01*
X0089945Y0019626D01*
X0089904Y0019651D01*
X0089866Y0019680D01*
X0089829Y0019712D01*
X0089795Y0019746D01*
X0089765Y0019783D01*
X0089737Y0019822D01*
X0089712Y0019864D01*
X0089692Y0019908D01*
X0089674Y0019953D01*
X0089661Y0019999D01*
X0089651Y0020046D01*
X0089645Y0020094D01*
X0089643Y0020142D01*
X0089643Y0012741D02*
X0089645Y0012789D01*
X0089651Y0012837D01*
X0089661Y0012884D01*
X0089674Y0012930D01*
X0089692Y0012975D01*
X0089712Y0013019D01*
X0089737Y0013061D01*
X0089765Y0013100D01*
X0089795Y0013137D01*
X0089829Y0013171D01*
X0089866Y0013203D01*
X0089904Y0013232D01*
X0089945Y0013257D01*
X0089988Y0013279D01*
X0090033Y0013297D01*
X0090079Y0013311D01*
X0090126Y0013322D01*
X0090174Y0013329D01*
X0090222Y0013332D01*
X0090270Y0013331D01*
X0090318Y0013326D01*
X0090366Y0013317D01*
X0090412Y0013305D01*
X0090457Y0013288D01*
X0090501Y0013268D01*
X0090543Y0013245D01*
X0090583Y0013218D01*
X0090621Y0013188D01*
X0090656Y0013155D01*
X0090688Y0013119D01*
X0090718Y0013081D01*
X0090744Y0013040D01*
X0090766Y0012997D01*
X0090786Y0012953D01*
X0090801Y0012908D01*
X0090813Y0012861D01*
X0090821Y0012813D01*
X0090825Y0012765D01*
X0090825Y0012717D01*
X0090821Y0012669D01*
X0090813Y0012621D01*
X0090801Y0012574D01*
X0090786Y0012529D01*
X0090766Y0012485D01*
X0090744Y0012442D01*
X0090718Y0012401D01*
X0090688Y0012363D01*
X0090656Y0012327D01*
X0090621Y0012294D01*
X0090583Y0012264D01*
X0090543Y0012237D01*
X0090501Y0012214D01*
X0090457Y0012194D01*
X0090412Y0012177D01*
X0090366Y0012165D01*
X0090318Y0012156D01*
X0090270Y0012151D01*
X0090222Y0012150D01*
X0090174Y0012153D01*
X0090126Y0012160D01*
X0090079Y0012171D01*
X0090033Y0012185D01*
X0089988Y0012203D01*
X0089945Y0012225D01*
X0089904Y0012250D01*
X0089866Y0012279D01*
X0089829Y0012311D01*
X0089795Y0012345D01*
X0089765Y0012382D01*
X0089737Y0012421D01*
X0089712Y0012463D01*
X0089692Y0012507D01*
X0089674Y0012552D01*
X0089661Y0012598D01*
X0089651Y0012645D01*
X0089645Y0012693D01*
X0089643Y0012741D01*
X0097044Y0012741D02*
X0097046Y0012789D01*
X0097052Y0012837D01*
X0097062Y0012884D01*
X0097075Y0012930D01*
X0097093Y0012975D01*
X0097113Y0013019D01*
X0097138Y0013061D01*
X0097166Y0013100D01*
X0097196Y0013137D01*
X0097230Y0013171D01*
X0097267Y0013203D01*
X0097305Y0013232D01*
X0097346Y0013257D01*
X0097389Y0013279D01*
X0097434Y0013297D01*
X0097480Y0013311D01*
X0097527Y0013322D01*
X0097575Y0013329D01*
X0097623Y0013332D01*
X0097671Y0013331D01*
X0097719Y0013326D01*
X0097767Y0013317D01*
X0097813Y0013305D01*
X0097858Y0013288D01*
X0097902Y0013268D01*
X0097944Y0013245D01*
X0097984Y0013218D01*
X0098022Y0013188D01*
X0098057Y0013155D01*
X0098089Y0013119D01*
X0098119Y0013081D01*
X0098145Y0013040D01*
X0098167Y0012997D01*
X0098187Y0012953D01*
X0098202Y0012908D01*
X0098214Y0012861D01*
X0098222Y0012813D01*
X0098226Y0012765D01*
X0098226Y0012717D01*
X0098222Y0012669D01*
X0098214Y0012621D01*
X0098202Y0012574D01*
X0098187Y0012529D01*
X0098167Y0012485D01*
X0098145Y0012442D01*
X0098119Y0012401D01*
X0098089Y0012363D01*
X0098057Y0012327D01*
X0098022Y0012294D01*
X0097984Y0012264D01*
X0097944Y0012237D01*
X0097902Y0012214D01*
X0097858Y0012194D01*
X0097813Y0012177D01*
X0097767Y0012165D01*
X0097719Y0012156D01*
X0097671Y0012151D01*
X0097623Y0012150D01*
X0097575Y0012153D01*
X0097527Y0012160D01*
X0097480Y0012171D01*
X0097434Y0012185D01*
X0097389Y0012203D01*
X0097346Y0012225D01*
X0097305Y0012250D01*
X0097267Y0012279D01*
X0097230Y0012311D01*
X0097196Y0012345D01*
X0097166Y0012382D01*
X0097138Y0012421D01*
X0097113Y0012463D01*
X0097093Y0012507D01*
X0097075Y0012552D01*
X0097062Y0012598D01*
X0097052Y0012645D01*
X0097046Y0012693D01*
X0097044Y0012741D01*
X0097044Y0020142D02*
X0097046Y0020190D01*
X0097052Y0020238D01*
X0097062Y0020285D01*
X0097075Y0020331D01*
X0097093Y0020376D01*
X0097113Y0020420D01*
X0097138Y0020462D01*
X0097166Y0020501D01*
X0097196Y0020538D01*
X0097230Y0020572D01*
X0097267Y0020604D01*
X0097305Y0020633D01*
X0097346Y0020658D01*
X0097389Y0020680D01*
X0097434Y0020698D01*
X0097480Y0020712D01*
X0097527Y0020723D01*
X0097575Y0020730D01*
X0097623Y0020733D01*
X0097671Y0020732D01*
X0097719Y0020727D01*
X0097767Y0020718D01*
X0097813Y0020706D01*
X0097858Y0020689D01*
X0097902Y0020669D01*
X0097944Y0020646D01*
X0097984Y0020619D01*
X0098022Y0020589D01*
X0098057Y0020556D01*
X0098089Y0020520D01*
X0098119Y0020482D01*
X0098145Y0020441D01*
X0098167Y0020398D01*
X0098187Y0020354D01*
X0098202Y0020309D01*
X0098214Y0020262D01*
X0098222Y0020214D01*
X0098226Y0020166D01*
X0098226Y0020118D01*
X0098222Y0020070D01*
X0098214Y0020022D01*
X0098202Y0019975D01*
X0098187Y0019930D01*
X0098167Y0019886D01*
X0098145Y0019843D01*
X0098119Y0019802D01*
X0098089Y0019764D01*
X0098057Y0019728D01*
X0098022Y0019695D01*
X0097984Y0019665D01*
X0097944Y0019638D01*
X0097902Y0019615D01*
X0097858Y0019595D01*
X0097813Y0019578D01*
X0097767Y0019566D01*
X0097719Y0019557D01*
X0097671Y0019552D01*
X0097623Y0019551D01*
X0097575Y0019554D01*
X0097527Y0019561D01*
X0097480Y0019572D01*
X0097434Y0019586D01*
X0097389Y0019604D01*
X0097346Y0019626D01*
X0097305Y0019651D01*
X0097267Y0019680D01*
X0097230Y0019712D01*
X0097196Y0019746D01*
X0097166Y0019783D01*
X0097138Y0019822D01*
X0097113Y0019864D01*
X0097093Y0019908D01*
X0097075Y0019953D01*
X0097062Y0019999D01*
X0097052Y0020046D01*
X0097046Y0020094D01*
X0097044Y0020142D01*
D11*
X0079801Y0014867D03*
X0069801Y0014867D03*
X0059801Y0014867D03*
X0049801Y0014867D03*
X0035273Y0040851D03*
X0035273Y0050851D03*
X0035273Y0060851D03*
X0035273Y0070851D03*
X0035273Y0080851D03*
D12*
X0035667Y0016441D03*
X0093935Y0016441D03*
D13*
X0082911Y0020772D03*
X0075824Y0018804D03*
X0069801Y0020378D03*
X0064801Y0018410D03*
X0054801Y0017504D03*
X0054565Y0020772D03*
X0049801Y0020378D03*
X0043541Y0021914D03*
X0043383Y0018213D03*
X0035509Y0023725D03*
X0035509Y0026087D03*
X0035509Y0028449D03*
X0043147Y0036127D03*
X0044328Y0040851D03*
X0053383Y0037701D03*
X0055746Y0041638D03*
X0056927Y0045969D03*
X0060076Y0045969D03*
X0052793Y0049906D03*
X0061651Y0053843D03*
X0062045Y0058567D03*
X0070313Y0052268D03*
X0078423Y0051993D03*
X0078187Y0045575D03*
X0081021Y0042465D03*
X0083305Y0044945D03*
X0085273Y0048725D03*
X0091572Y0048331D03*
X0093069Y0056481D03*
X0088817Y0056993D03*
X0088817Y0062819D03*
X0088817Y0065654D03*
X0092360Y0067741D03*
X0093147Y0070772D03*
X0089998Y0070064D03*
X0088029Y0072583D03*
X0086061Y0075142D03*
X0084486Y0077662D03*
X0088423Y0079473D03*
X0075037Y0070772D03*
X0071100Y0068804D03*
X0067163Y0070772D03*
X0067163Y0066441D03*
X0075037Y0065260D03*
X0078620Y0061835D03*
X0073462Y0081008D03*
X0064210Y0081560D03*
X0054958Y0086520D03*
X0049053Y0082189D03*
X0049250Y0077071D03*
X0049919Y0074119D03*
X0052006Y0071953D03*
X0048659Y0065654D03*
X0045116Y0069197D03*
X0069525Y0040064D03*
X0065194Y0038489D03*
X0062006Y0038528D03*
X0080549Y0037308D03*
X0085273Y0030615D03*
X0094722Y0035733D03*
X0097872Y0034158D03*
D14*
X0098934Y0034107D02*
X0096493Y0034107D01*
X0096759Y0034372D02*
X0097124Y0035255D01*
X0097124Y0036211D01*
X0096759Y0037094D01*
X0096083Y0037769D01*
X0095200Y0038135D01*
X0094244Y0038135D01*
X0093361Y0037769D01*
X0092685Y0037094D01*
X0092320Y0036211D01*
X0092320Y0035255D01*
X0092685Y0034372D01*
X0093361Y0033696D01*
X0094244Y0033330D01*
X0095200Y0033330D01*
X0096083Y0033696D01*
X0096759Y0034372D01*
X0097062Y0035105D02*
X0098934Y0035105D01*
X0098934Y0036104D02*
X0097124Y0036104D01*
X0096750Y0037102D02*
X0098934Y0037102D01*
X0098934Y0038101D02*
X0095283Y0038101D01*
X0094161Y0038101D02*
X0073892Y0038101D01*
X0072894Y0039099D02*
X0098934Y0039099D01*
X0098934Y0040098D02*
X0071928Y0040098D01*
X0071928Y0040065D02*
X0071928Y0040541D01*
X0071562Y0041424D01*
X0071125Y0041861D01*
X0071125Y0042157D01*
X0075306Y0046338D01*
X0075902Y0046338D01*
X0075784Y0046053D01*
X0075784Y0045097D01*
X0076150Y0044214D01*
X0076826Y0043539D01*
X0077709Y0043173D01*
X0078664Y0043173D01*
X0079547Y0043539D01*
X0080223Y0044214D01*
X0080589Y0045097D01*
X0080589Y0046053D01*
X0080471Y0046338D01*
X0081299Y0046338D01*
X0081268Y0046306D01*
X0080902Y0045423D01*
X0080902Y0044468D01*
X0081268Y0043585D01*
X0081944Y0042909D01*
X0082827Y0042543D01*
X0083783Y0042543D01*
X0084666Y0042909D01*
X0085341Y0043585D01*
X0085707Y0044468D01*
X0085707Y0045423D01*
X0085341Y0046306D01*
X0085325Y0046323D01*
X0085751Y0046323D01*
X0086634Y0046688D01*
X0087310Y0047364D01*
X0087676Y0048247D01*
X0087676Y0049203D01*
X0087310Y0050086D01*
X0086634Y0050762D01*
X0086206Y0050939D01*
X0087904Y0052637D01*
X0088842Y0053574D01*
X0088842Y0054590D01*
X0089294Y0054590D01*
X0090177Y0054956D01*
X0090853Y0055632D01*
X0091219Y0056515D01*
X0091219Y0057470D01*
X0090853Y0058353D01*
X0090177Y0059029D01*
X0089294Y0059395D01*
X0088339Y0059395D01*
X0087456Y0059029D01*
X0086780Y0058353D01*
X0086414Y0057470D01*
X0086414Y0056853D01*
X0085642Y0056081D01*
X0085642Y0054899D01*
X0084747Y0054005D01*
X0084747Y0063206D01*
X0085595Y0064054D01*
X0087019Y0064054D01*
X0087456Y0063617D01*
X0088339Y0063252D01*
X0089294Y0063252D01*
X0090177Y0063617D01*
X0090853Y0064293D01*
X0091219Y0065176D01*
X0091219Y0065613D01*
X0091882Y0065338D01*
X0092838Y0065338D01*
X0093721Y0065704D01*
X0094396Y0066380D01*
X0094762Y0067263D01*
X0094762Y0068219D01*
X0094396Y0069102D01*
X0093721Y0069777D01*
X0092838Y0070143D01*
X0092400Y0070143D01*
X0092400Y0070541D01*
X0092034Y0071424D01*
X0091358Y0072100D01*
X0090475Y0072466D01*
X0090431Y0072466D01*
X0090431Y0073061D01*
X0090066Y0073944D01*
X0089390Y0074620D01*
X0088507Y0074986D01*
X0088463Y0074986D01*
X0088463Y0075620D01*
X0088097Y0076503D01*
X0087421Y0077179D01*
X0086888Y0077400D01*
X0086888Y0077610D01*
X0087062Y0077436D01*
X0087945Y0077071D01*
X0088901Y0077071D01*
X0089784Y0077436D01*
X0090459Y0078112D01*
X0090825Y0078995D01*
X0090825Y0079951D01*
X0090459Y0080834D01*
X0090285Y0081008D01*
X0092360Y0081008D01*
X0098934Y0074434D01*
X0098934Y0021517D01*
X0098419Y0022033D01*
X0096852Y0022033D01*
X0095745Y0020925D01*
X0095745Y0019359D01*
X0096852Y0018252D01*
X0098419Y0018252D01*
X0098934Y0018767D01*
X0098934Y0014116D01*
X0098419Y0014631D01*
X0096852Y0014631D01*
X0096300Y0014079D01*
X0091569Y0014079D01*
X0091017Y0014631D01*
X0089451Y0014631D01*
X0088899Y0014079D01*
X0084101Y0014079D01*
X0084101Y0015722D01*
X0083446Y0017302D01*
X0082237Y0018512D01*
X0080656Y0019167D01*
X0078945Y0019167D01*
X0078227Y0018869D01*
X0078227Y0019282D01*
X0077861Y0020164D01*
X0077524Y0020501D01*
X0077524Y0034468D01*
X0076529Y0035464D01*
X0071928Y0040065D01*
X0071698Y0041096D02*
X0098934Y0041096D01*
X0098934Y0042095D02*
X0071125Y0042095D01*
X0072062Y0043093D02*
X0081760Y0043093D01*
X0081058Y0044092D02*
X0080100Y0044092D01*
X0080586Y0045090D02*
X0080902Y0045090D01*
X0081178Y0046089D02*
X0080574Y0046089D01*
X0076273Y0044092D02*
X0073060Y0044092D01*
X0074059Y0045090D02*
X0075787Y0045090D01*
X0075799Y0046089D02*
X0075057Y0046089D01*
X0071165Y0049084D02*
X0055053Y0049084D01*
X0055195Y0049428D02*
X0054830Y0048545D01*
X0054154Y0047869D01*
X0053271Y0047504D01*
X0052315Y0047504D01*
X0051432Y0047869D01*
X0050756Y0048545D01*
X0050391Y0049428D01*
X0050391Y0050384D01*
X0050756Y0051267D01*
X0051432Y0051943D01*
X0052315Y0052308D01*
X0053271Y0052308D01*
X0054154Y0051943D01*
X0054830Y0051267D01*
X0055195Y0050384D01*
X0055195Y0049428D01*
X0055195Y0050083D02*
X0072164Y0050083D01*
X0072256Y0050175D02*
X0063594Y0041514D01*
X0063594Y0040337D01*
X0063366Y0040565D01*
X0062483Y0040930D01*
X0061528Y0040930D01*
X0060645Y0040565D01*
X0059969Y0039889D01*
X0059603Y0039006D01*
X0059603Y0038530D01*
X0059097Y0038023D01*
X0058101Y0037028D01*
X0058101Y0018817D01*
X0057365Y0018512D01*
X0056155Y0017302D01*
X0055501Y0015722D01*
X0055501Y0014079D01*
X0054101Y0014079D01*
X0054101Y0015722D01*
X0053446Y0017302D01*
X0052237Y0018512D01*
X0051597Y0018777D01*
X0051837Y0019018D01*
X0052203Y0019901D01*
X0052203Y0020195D01*
X0052528Y0019411D01*
X0053204Y0018736D01*
X0054087Y0018370D01*
X0055042Y0018370D01*
X0055925Y0018736D01*
X0056601Y0019411D01*
X0056967Y0020294D01*
X0056967Y0021250D01*
X0056601Y0022133D01*
X0055925Y0022809D01*
X0055042Y0023175D01*
X0054087Y0023175D01*
X0053204Y0022809D01*
X0052528Y0022133D01*
X0052162Y0021250D01*
X0052162Y0020955D01*
X0051837Y0021739D01*
X0051501Y0022076D01*
X0051501Y0033414D01*
X0053385Y0035299D01*
X0053861Y0035299D01*
X0054744Y0035665D01*
X0055420Y0036340D01*
X0055786Y0037223D01*
X0055786Y0038179D01*
X0055420Y0039062D01*
X0055231Y0039251D01*
X0055268Y0039236D01*
X0056224Y0039236D01*
X0057106Y0039602D01*
X0057782Y0040277D01*
X0058148Y0041160D01*
X0058148Y0042116D01*
X0057782Y0042999D01*
X0057215Y0043567D01*
X0057405Y0043567D01*
X0058288Y0043932D01*
X0058502Y0044146D01*
X0058716Y0043932D01*
X0059599Y0043567D01*
X0060554Y0043567D01*
X0061437Y0043932D01*
X0062113Y0044608D01*
X0062479Y0045491D01*
X0062479Y0046447D01*
X0062113Y0047330D01*
X0061437Y0048006D01*
X0060554Y0048371D01*
X0059599Y0048371D01*
X0058716Y0048006D01*
X0058502Y0047792D01*
X0058288Y0048006D01*
X0057405Y0048371D01*
X0056449Y0048371D01*
X0055566Y0048006D01*
X0054890Y0047330D01*
X0054524Y0046447D01*
X0054524Y0045491D01*
X0054890Y0044608D01*
X0055458Y0044041D01*
X0055268Y0044041D01*
X0054385Y0043675D01*
X0053709Y0042999D01*
X0053343Y0042116D01*
X0053343Y0041160D01*
X0053709Y0040277D01*
X0053898Y0040088D01*
X0053861Y0040104D01*
X0052906Y0040104D01*
X0052023Y0039738D01*
X0051347Y0039062D01*
X0050981Y0038179D01*
X0050981Y0037703D01*
X0049097Y0035819D01*
X0048101Y0034823D01*
X0048101Y0022076D01*
X0047764Y0021739D01*
X0047398Y0020856D01*
X0047398Y0019901D01*
X0047764Y0019018D01*
X0048005Y0018777D01*
X0047365Y0018512D01*
X0046155Y0017302D01*
X0045501Y0015722D01*
X0045501Y0014079D01*
X0040703Y0014079D01*
X0040470Y0014312D01*
X0040920Y0015397D01*
X0040920Y0017486D01*
X0040470Y0018571D01*
X0041258Y0019359D01*
X0041258Y0020925D01*
X0040151Y0022033D01*
X0038585Y0022033D01*
X0037797Y0021245D01*
X0036712Y0021694D01*
X0034622Y0021694D01*
X0033537Y0021245D01*
X0032749Y0022033D01*
X0031183Y0022033D01*
X0030668Y0021517D01*
X0030668Y0026403D01*
X0040745Y0036480D01*
X0040745Y0035649D01*
X0041111Y0034766D01*
X0041786Y0034090D01*
X0042669Y0033724D01*
X0043625Y0033724D01*
X0044508Y0034090D01*
X0045184Y0034766D01*
X0045550Y0035649D01*
X0045550Y0036604D01*
X0045184Y0037487D01*
X0044508Y0038163D01*
X0043625Y0038529D01*
X0042669Y0038529D01*
X0041786Y0038163D01*
X0041111Y0037487D01*
X0040785Y0036701D01*
X0040765Y0074656D01*
X0038371Y0077071D01*
X0030668Y0077071D01*
X0030668Y0087582D01*
X0054958Y0087582D01*
X0054958Y0081008D01*
X0061838Y0081008D01*
X0062174Y0080199D01*
X0062849Y0079523D01*
X0063732Y0079157D01*
X0064688Y0079157D01*
X0065571Y0079523D01*
X0066247Y0080199D01*
X0066582Y0081008D01*
X0086561Y0081008D01*
X0086386Y0080834D01*
X0086020Y0079951D01*
X0086020Y0079525D01*
X0085847Y0079699D01*
X0084964Y0080064D01*
X0084008Y0080064D01*
X0083125Y0079699D01*
X0082449Y0079023D01*
X0082083Y0078140D01*
X0082083Y0077184D01*
X0082449Y0076301D01*
X0083125Y0075625D01*
X0083658Y0075404D01*
X0083658Y0074664D01*
X0084024Y0073781D01*
X0084700Y0073106D01*
X0085583Y0072740D01*
X0085627Y0072740D01*
X0085627Y0072105D01*
X0085993Y0071222D01*
X0086668Y0070547D01*
X0087551Y0070181D01*
X0087595Y0070181D01*
X0087595Y0069586D01*
X0087961Y0068703D01*
X0088607Y0068056D01*
X0088339Y0068056D01*
X0087456Y0067691D01*
X0087019Y0067254D01*
X0084270Y0067254D01*
X0083332Y0066317D01*
X0081547Y0064532D01*
X0081547Y0063206D01*
X0081547Y0053325D01*
X0079335Y0051112D01*
X0073193Y0051112D01*
X0072256Y0050175D01*
X0073162Y0051081D02*
X0054906Y0051081D01*
X0053823Y0052080D02*
X0080302Y0052080D01*
X0081301Y0053078D02*
X0040776Y0053078D01*
X0040777Y0052080D02*
X0051763Y0052080D01*
X0050679Y0051081D02*
X0040777Y0051081D01*
X0040778Y0050083D02*
X0050391Y0050083D01*
X0050533Y0049084D02*
X0040779Y0049084D01*
X0040779Y0048086D02*
X0051216Y0048086D01*
X0054370Y0048086D02*
X0055759Y0048086D01*
X0054790Y0047087D02*
X0040780Y0047087D01*
X0040780Y0046089D02*
X0054524Y0046089D01*
X0054691Y0045090D02*
X0040781Y0045090D01*
X0040781Y0044092D02*
X0055407Y0044092D01*
X0053803Y0043093D02*
X0040782Y0043093D01*
X0040782Y0042095D02*
X0053343Y0042095D01*
X0053370Y0041096D02*
X0040783Y0041096D01*
X0040783Y0040098D02*
X0052891Y0040098D01*
X0053876Y0040098D02*
X0053889Y0040098D01*
X0055383Y0039099D02*
X0059642Y0039099D01*
X0059174Y0038101D02*
X0055786Y0038101D01*
X0055736Y0037102D02*
X0058175Y0037102D01*
X0058101Y0036104D02*
X0055183Y0036104D01*
X0053191Y0035105D02*
X0058101Y0035105D01*
X0058101Y0034107D02*
X0052193Y0034107D01*
X0051501Y0033108D02*
X0058101Y0033108D01*
X0058101Y0032109D02*
X0051501Y0032109D01*
X0051501Y0031111D02*
X0058101Y0031111D01*
X0058101Y0030112D02*
X0051501Y0030112D01*
X0051501Y0029114D02*
X0058101Y0029114D01*
X0058101Y0028115D02*
X0051501Y0028115D01*
X0051501Y0027117D02*
X0058101Y0027117D01*
X0058101Y0026118D02*
X0051501Y0026118D01*
X0051501Y0025120D02*
X0058101Y0025120D01*
X0058101Y0024121D02*
X0051501Y0024121D01*
X0051501Y0023123D02*
X0053962Y0023123D01*
X0055167Y0023123D02*
X0058101Y0023123D01*
X0058101Y0022124D02*
X0056605Y0022124D01*
X0056967Y0021126D02*
X0058101Y0021126D01*
X0058101Y0020127D02*
X0056898Y0020127D01*
X0056319Y0019129D02*
X0058101Y0019129D01*
X0056983Y0018130D02*
X0052618Y0018130D01*
X0052810Y0019129D02*
X0051883Y0019129D01*
X0052203Y0020127D02*
X0052231Y0020127D01*
X0052162Y0021126D02*
X0052091Y0021126D01*
X0052524Y0022124D02*
X0051501Y0022124D01*
X0048101Y0022124D02*
X0030668Y0022124D01*
X0030668Y0023123D02*
X0048101Y0023123D01*
X0048101Y0024121D02*
X0030668Y0024121D01*
X0030668Y0025120D02*
X0048101Y0025120D01*
X0048101Y0026118D02*
X0030668Y0026118D01*
X0031382Y0027117D02*
X0048101Y0027117D01*
X0048101Y0028115D02*
X0032380Y0028115D01*
X0033379Y0029114D02*
X0048101Y0029114D01*
X0048101Y0030112D02*
X0034377Y0030112D01*
X0035376Y0031111D02*
X0048101Y0031111D01*
X0048101Y0032109D02*
X0036374Y0032109D01*
X0037373Y0033108D02*
X0048101Y0033108D01*
X0048101Y0034107D02*
X0044525Y0034107D01*
X0045324Y0035105D02*
X0048383Y0035105D01*
X0049382Y0036104D02*
X0045550Y0036104D01*
X0045343Y0037102D02*
X0050380Y0037102D01*
X0050981Y0038101D02*
X0044571Y0038101D01*
X0041724Y0038101D02*
X0040784Y0038101D01*
X0040784Y0039099D02*
X0051384Y0039099D01*
X0057602Y0040098D02*
X0060178Y0040098D01*
X0058121Y0041096D02*
X0063594Y0041096D01*
X0064175Y0042095D02*
X0058148Y0042095D01*
X0057688Y0043093D02*
X0065174Y0043093D01*
X0066172Y0044092D02*
X0061596Y0044092D01*
X0062313Y0045090D02*
X0067171Y0045090D01*
X0068170Y0046089D02*
X0062479Y0046089D01*
X0062214Y0047087D02*
X0069168Y0047087D01*
X0070167Y0048086D02*
X0061244Y0048086D01*
X0058909Y0048086D02*
X0058094Y0048086D01*
X0058447Y0044092D02*
X0058556Y0044092D01*
X0062007Y0036126D02*
X0062483Y0036126D01*
X0063366Y0036491D01*
X0063580Y0036705D01*
X0063834Y0036452D01*
X0064717Y0036086D01*
X0065193Y0036086D01*
X0068101Y0033178D01*
X0068101Y0022076D01*
X0067764Y0021739D01*
X0067398Y0020856D01*
X0067398Y0019901D01*
X0067764Y0019018D01*
X0068005Y0018777D01*
X0067365Y0018512D01*
X0066155Y0017302D01*
X0065501Y0015722D01*
X0065501Y0014079D01*
X0064101Y0014079D01*
X0064101Y0015722D01*
X0063446Y0017302D01*
X0062237Y0018512D01*
X0061501Y0018817D01*
X0061501Y0035619D01*
X0062007Y0036126D01*
X0061985Y0036104D02*
X0064675Y0036104D01*
X0066174Y0035105D02*
X0061501Y0035105D01*
X0061501Y0034107D02*
X0067173Y0034107D01*
X0068101Y0033108D02*
X0061501Y0033108D01*
X0061501Y0032109D02*
X0068101Y0032109D01*
X0068101Y0031111D02*
X0061501Y0031111D01*
X0061501Y0030112D02*
X0068101Y0030112D01*
X0068101Y0029114D02*
X0061501Y0029114D01*
X0061501Y0028115D02*
X0068101Y0028115D01*
X0068101Y0027117D02*
X0061501Y0027117D01*
X0061501Y0026118D02*
X0068101Y0026118D01*
X0068101Y0025120D02*
X0061501Y0025120D01*
X0061501Y0024121D02*
X0068101Y0024121D01*
X0068101Y0023123D02*
X0061501Y0023123D01*
X0061501Y0022124D02*
X0068101Y0022124D01*
X0067510Y0021126D02*
X0061501Y0021126D01*
X0061501Y0020127D02*
X0067398Y0020127D01*
X0067718Y0019129D02*
X0061501Y0019129D01*
X0062618Y0018130D02*
X0066983Y0018130D01*
X0066085Y0017132D02*
X0063517Y0017132D01*
X0063930Y0016133D02*
X0065671Y0016133D01*
X0065501Y0015135D02*
X0064101Y0015135D01*
X0064101Y0014136D02*
X0065501Y0014136D01*
X0056085Y0017132D02*
X0053517Y0017132D01*
X0053930Y0016133D02*
X0055671Y0016133D01*
X0055501Y0015135D02*
X0054101Y0015135D01*
X0054101Y0014136D02*
X0055501Y0014136D01*
X0047718Y0019129D02*
X0041028Y0019129D01*
X0041258Y0020127D02*
X0047398Y0020127D01*
X0047510Y0021126D02*
X0041058Y0021126D01*
X0040653Y0018130D02*
X0046983Y0018130D01*
X0046085Y0017132D02*
X0040920Y0017132D01*
X0040920Y0016133D02*
X0045671Y0016133D01*
X0045501Y0015135D02*
X0040811Y0015135D01*
X0040646Y0014136D02*
X0045501Y0014136D01*
X0041770Y0034107D02*
X0038371Y0034107D01*
X0039370Y0035105D02*
X0040970Y0035105D01*
X0040745Y0036104D02*
X0040368Y0036104D01*
X0040785Y0037102D02*
X0040951Y0037102D01*
X0040776Y0054077D02*
X0081547Y0054077D01*
X0081547Y0055075D02*
X0040775Y0055075D01*
X0040775Y0056074D02*
X0081547Y0056074D01*
X0081547Y0057072D02*
X0040774Y0057072D01*
X0040774Y0058071D02*
X0081547Y0058071D01*
X0081547Y0059069D02*
X0040773Y0059069D01*
X0040773Y0060068D02*
X0081547Y0060068D01*
X0081547Y0061066D02*
X0040772Y0061066D01*
X0040772Y0062065D02*
X0081547Y0062065D01*
X0081547Y0063063D02*
X0040771Y0063063D01*
X0040771Y0064062D02*
X0081547Y0064062D01*
X0082076Y0065060D02*
X0040770Y0065060D01*
X0040770Y0066059D02*
X0083074Y0066059D01*
X0084073Y0067057D02*
X0040769Y0067057D01*
X0040769Y0068056D02*
X0088337Y0068056D01*
X0087815Y0069054D02*
X0040768Y0069054D01*
X0040768Y0070053D02*
X0050508Y0070053D01*
X0050645Y0069917D02*
X0049969Y0070592D01*
X0049603Y0071475D01*
X0049603Y0071716D01*
X0049441Y0071716D01*
X0048558Y0072082D01*
X0047882Y0072758D01*
X0047517Y0073641D01*
X0047517Y0074596D01*
X0047754Y0075170D01*
X0047213Y0075711D01*
X0046847Y0076594D01*
X0046847Y0077549D01*
X0047213Y0078432D01*
X0047889Y0079108D01*
X0048772Y0079474D01*
X0049727Y0079474D01*
X0050610Y0079108D01*
X0051286Y0078432D01*
X0051652Y0077549D01*
X0051652Y0076594D01*
X0051415Y0076020D01*
X0051956Y0075479D01*
X0052321Y0074596D01*
X0052321Y0074356D01*
X0052483Y0074356D01*
X0053366Y0073990D01*
X0054042Y0073314D01*
X0054408Y0072431D01*
X0054408Y0071475D01*
X0054042Y0070592D01*
X0053366Y0069917D01*
X0052483Y0069551D01*
X0051528Y0069551D01*
X0050645Y0069917D01*
X0049779Y0071051D02*
X0040767Y0071051D01*
X0040767Y0072050D02*
X0048635Y0072050D01*
X0047762Y0073048D02*
X0040766Y0073048D01*
X0040766Y0074047D02*
X0047517Y0074047D01*
X0047703Y0075045D02*
X0040379Y0075045D01*
X0039389Y0076044D02*
X0047075Y0076044D01*
X0046847Y0077043D02*
X0038399Y0077043D01*
X0030668Y0078041D02*
X0047051Y0078041D01*
X0047820Y0079040D02*
X0030668Y0079040D01*
X0030668Y0080038D02*
X0062334Y0080038D01*
X0066086Y0080038D02*
X0083945Y0080038D01*
X0085027Y0080038D02*
X0086057Y0080038D01*
X0082466Y0079040D02*
X0050679Y0079040D01*
X0051448Y0078041D02*
X0082083Y0078041D01*
X0082142Y0077043D02*
X0051652Y0077043D01*
X0051424Y0076044D02*
X0082706Y0076044D01*
X0083658Y0075045D02*
X0052135Y0075045D01*
X0053229Y0074047D02*
X0083914Y0074047D01*
X0084838Y0073048D02*
X0054152Y0073048D01*
X0054408Y0072050D02*
X0085650Y0072050D01*
X0086163Y0071051D02*
X0054232Y0071051D01*
X0053503Y0070053D02*
X0087595Y0070053D01*
X0090431Y0073048D02*
X0098934Y0073048D01*
X0098934Y0072050D02*
X0091409Y0072050D01*
X0092189Y0071051D02*
X0098934Y0071051D01*
X0098934Y0070053D02*
X0093055Y0070053D01*
X0094416Y0069054D02*
X0098934Y0069054D01*
X0098934Y0068056D02*
X0094762Y0068056D01*
X0094677Y0067057D02*
X0098934Y0067057D01*
X0098934Y0066059D02*
X0094076Y0066059D01*
X0091171Y0065060D02*
X0098934Y0065060D01*
X0098934Y0064062D02*
X0090622Y0064062D01*
X0090081Y0059069D02*
X0098934Y0059069D01*
X0098934Y0058071D02*
X0090970Y0058071D01*
X0091219Y0057072D02*
X0098934Y0057072D01*
X0098934Y0056074D02*
X0091036Y0056074D01*
X0090297Y0055075D02*
X0098934Y0055075D01*
X0098934Y0054077D02*
X0088842Y0054077D01*
X0088346Y0053078D02*
X0098934Y0053078D01*
X0098934Y0052080D02*
X0087347Y0052080D01*
X0086349Y0051081D02*
X0098934Y0051081D01*
X0098934Y0050083D02*
X0087311Y0050083D01*
X0087676Y0049084D02*
X0098934Y0049084D01*
X0098934Y0048086D02*
X0087609Y0048086D01*
X0087033Y0047087D02*
X0098934Y0047087D01*
X0098934Y0046089D02*
X0085431Y0046089D01*
X0085707Y0045090D02*
X0098934Y0045090D01*
X0098934Y0044092D02*
X0085551Y0044092D01*
X0084850Y0043093D02*
X0098934Y0043093D01*
X0092694Y0037102D02*
X0074891Y0037102D01*
X0075889Y0036104D02*
X0092320Y0036104D01*
X0092382Y0035105D02*
X0076888Y0035105D01*
X0077524Y0034107D02*
X0092951Y0034107D01*
X0087310Y0031976D02*
X0087676Y0031093D01*
X0087676Y0030137D01*
X0087310Y0029254D01*
X0086634Y0028578D01*
X0085751Y0028212D01*
X0084795Y0028212D01*
X0083912Y0028578D01*
X0083237Y0029254D01*
X0082871Y0030137D01*
X0082871Y0031093D01*
X0083237Y0031976D01*
X0083912Y0032651D01*
X0084795Y0033017D01*
X0085751Y0033017D01*
X0086634Y0032651D01*
X0087310Y0031976D01*
X0087176Y0032109D02*
X0098934Y0032109D01*
X0098934Y0031111D02*
X0087668Y0031111D01*
X0087665Y0030112D02*
X0098934Y0030112D01*
X0098934Y0029114D02*
X0087170Y0029114D01*
X0083376Y0029114D02*
X0077524Y0029114D01*
X0077524Y0030112D02*
X0082881Y0030112D01*
X0082879Y0031111D02*
X0077524Y0031111D01*
X0077524Y0032109D02*
X0083371Y0032109D01*
X0077524Y0033108D02*
X0098934Y0033108D01*
X0098934Y0028115D02*
X0077524Y0028115D01*
X0077524Y0027117D02*
X0098934Y0027117D01*
X0098934Y0026118D02*
X0077524Y0026118D01*
X0077524Y0025120D02*
X0098934Y0025120D01*
X0098934Y0024121D02*
X0077524Y0024121D01*
X0077524Y0023123D02*
X0098934Y0023123D01*
X0098934Y0022124D02*
X0077524Y0022124D01*
X0077524Y0021126D02*
X0088544Y0021126D01*
X0088343Y0020925D02*
X0088343Y0019359D01*
X0089451Y0018252D01*
X0091017Y0018252D01*
X0092124Y0019359D01*
X0092124Y0020925D01*
X0091017Y0022033D01*
X0089451Y0022033D01*
X0088343Y0020925D01*
X0088343Y0020127D02*
X0077876Y0020127D01*
X0078227Y0019129D02*
X0078854Y0019129D01*
X0080747Y0019129D02*
X0088574Y0019129D01*
X0091894Y0019129D02*
X0095975Y0019129D01*
X0095745Y0020127D02*
X0092124Y0020127D01*
X0091924Y0021126D02*
X0095945Y0021126D01*
X0098934Y0018130D02*
X0082618Y0018130D01*
X0083517Y0017132D02*
X0098934Y0017132D01*
X0098934Y0016133D02*
X0083930Y0016133D01*
X0084101Y0015135D02*
X0098934Y0015135D01*
X0098913Y0014136D02*
X0098934Y0014136D01*
X0096357Y0014136D02*
X0091512Y0014136D01*
X0088956Y0014136D02*
X0084101Y0014136D01*
X0084747Y0054077D02*
X0084819Y0054077D01*
X0084747Y0055075D02*
X0085642Y0055075D01*
X0085642Y0056074D02*
X0084747Y0056074D01*
X0084747Y0057072D02*
X0086414Y0057072D01*
X0086663Y0058071D02*
X0084747Y0058071D01*
X0084747Y0059069D02*
X0087552Y0059069D01*
X0084747Y0060068D02*
X0098934Y0060068D01*
X0098934Y0061066D02*
X0084747Y0061066D01*
X0084747Y0062065D02*
X0098934Y0062065D01*
X0098934Y0063063D02*
X0084747Y0063063D01*
X0089963Y0074047D02*
X0098934Y0074047D01*
X0098323Y0075045D02*
X0088463Y0075045D01*
X0088287Y0076044D02*
X0097324Y0076044D01*
X0096326Y0077043D02*
X0087558Y0077043D01*
X0090388Y0078041D02*
X0095327Y0078041D01*
X0094329Y0079040D02*
X0090825Y0079040D01*
X0090789Y0080038D02*
X0093330Y0080038D01*
X0054958Y0081037D02*
X0030668Y0081037D01*
X0030668Y0082035D02*
X0054958Y0082035D01*
X0054958Y0083034D02*
X0030668Y0083034D01*
X0030668Y0084032D02*
X0054958Y0084032D01*
X0054958Y0085031D02*
X0030668Y0085031D01*
X0030668Y0086029D02*
X0054958Y0086029D01*
X0054958Y0087028D02*
X0030668Y0087028D01*
D15*
X0069525Y0040064D02*
X0075824Y0033764D01*
X0075824Y0018804D01*
X0069801Y0020378D02*
X0069801Y0033882D01*
X0065194Y0038489D01*
X0062006Y0038528D02*
X0059801Y0036323D01*
X0059801Y0014867D01*
X0049801Y0020378D02*
X0049801Y0034119D01*
X0053383Y0037701D01*
D16*
X0065194Y0038489D02*
X0065194Y0040851D01*
X0073856Y0049512D01*
X0079998Y0049512D01*
X0083147Y0052662D01*
X0083147Y0063869D01*
X0084932Y0065654D01*
X0088817Y0065654D01*
X0088817Y0056993D02*
X0087242Y0055418D01*
X0087242Y0054237D01*
X0080943Y0047938D01*
X0074643Y0047938D01*
X0069525Y0042819D01*
X0069525Y0040064D01*
M02*
