%
M48
M72
T01C0.0118
T02C0.0315
T03C0.0591
%
T01
X505Y1245
X1245Y1245
X505Y505
X1245Y505
X2237Y1245
X2977Y1245
X2237Y505
X2977Y505
X4599Y1245
X5340Y1245
X4599Y505
X5340Y505
X6332Y1245
X7072Y1245
X6332Y505
X7072Y505
X505Y4552
X1245Y4552
X505Y3812
X1245Y3812
X6332Y4552
X7072Y4552
X6332Y3812
X7072Y3812
X1781Y2411
X1781Y2056
X2332Y2056
X2332Y2411
X2056Y2056
X2056Y2411
X5245Y2056
X5245Y2411
X5796Y2411
X5796Y2056
X5521Y2411
X5521Y2056
X5383Y2233
X5659Y2233
X1918Y2233
X2194Y2233
X2292Y3867
X5088Y3907
X5403Y3907
X2470Y2233
X2607Y2411
X2607Y2056
X2745Y2233
X2883Y2411
X2883Y2056
X5107Y2233
X4970Y2056
X4970Y2411
X4832Y2233
X4694Y2411
X4694Y2056
X3355Y4261
X4261Y4576
X4281Y4202
X2253Y4655
X6151Y3434
T02
X6151Y5757
X5363Y5757
X4576Y5757
X3788Y5757
X3001Y5757
X2214Y5757
X1426Y5757
T03
X875Y875
X2607Y875
X4970Y875
X6702Y875
X875Y4182
X6702Y4182
M30
