G75*
%MOIN*%
%OFA0B0*%
%FSLAX25Y25*%
%IPPOS*%
%LPD*%
%AMOC8*
5,1,8,0,0,1.08239X$1,22.5*
%
%ADD10C,0.00000*%
%ADD11C,0.06000*%
%ADD12C,0.07906*%
%ADD13C,0.05937*%
%ADD14C,0.02205*%
%ADD15C,0.00800*%
%ADD16C,0.01000*%
%ADD17C,0.01200*%
D10*
X0051468Y0044415D02*
X0112491Y0044415D01*
X0112491Y0083785D01*
X0112491Y0079848D02*
X0112491Y0134966D01*
X0051468Y0134966D01*
X0051468Y0044415D01*
X0056625Y0047013D02*
X0056627Y0047061D01*
X0056633Y0047109D01*
X0056643Y0047156D01*
X0056656Y0047202D01*
X0056674Y0047247D01*
X0056694Y0047291D01*
X0056719Y0047333D01*
X0056747Y0047372D01*
X0056777Y0047409D01*
X0056811Y0047443D01*
X0056848Y0047475D01*
X0056886Y0047504D01*
X0056927Y0047529D01*
X0056970Y0047551D01*
X0057015Y0047569D01*
X0057061Y0047583D01*
X0057108Y0047594D01*
X0057156Y0047601D01*
X0057204Y0047604D01*
X0057252Y0047603D01*
X0057300Y0047598D01*
X0057348Y0047589D01*
X0057394Y0047577D01*
X0057439Y0047560D01*
X0057483Y0047540D01*
X0057525Y0047517D01*
X0057565Y0047490D01*
X0057603Y0047460D01*
X0057638Y0047427D01*
X0057670Y0047391D01*
X0057700Y0047353D01*
X0057726Y0047312D01*
X0057748Y0047269D01*
X0057768Y0047225D01*
X0057783Y0047180D01*
X0057795Y0047133D01*
X0057803Y0047085D01*
X0057807Y0047037D01*
X0057807Y0046989D01*
X0057803Y0046941D01*
X0057795Y0046893D01*
X0057783Y0046846D01*
X0057768Y0046801D01*
X0057748Y0046757D01*
X0057726Y0046714D01*
X0057700Y0046673D01*
X0057670Y0046635D01*
X0057638Y0046599D01*
X0057603Y0046566D01*
X0057565Y0046536D01*
X0057525Y0046509D01*
X0057483Y0046486D01*
X0057439Y0046466D01*
X0057394Y0046449D01*
X0057348Y0046437D01*
X0057300Y0046428D01*
X0057252Y0046423D01*
X0057204Y0046422D01*
X0057156Y0046425D01*
X0057108Y0046432D01*
X0057061Y0046443D01*
X0057015Y0046457D01*
X0056970Y0046475D01*
X0056927Y0046497D01*
X0056886Y0046522D01*
X0056848Y0046551D01*
X0056811Y0046583D01*
X0056777Y0046617D01*
X0056747Y0046654D01*
X0056719Y0046693D01*
X0056694Y0046735D01*
X0056674Y0046779D01*
X0056656Y0046824D01*
X0056643Y0046870D01*
X0056633Y0046917D01*
X0056627Y0046965D01*
X0056625Y0047013D01*
X0056625Y0054415D02*
X0056627Y0054463D01*
X0056633Y0054511D01*
X0056643Y0054558D01*
X0056656Y0054604D01*
X0056674Y0054649D01*
X0056694Y0054693D01*
X0056719Y0054735D01*
X0056747Y0054774D01*
X0056777Y0054811D01*
X0056811Y0054845D01*
X0056848Y0054877D01*
X0056886Y0054906D01*
X0056927Y0054931D01*
X0056970Y0054953D01*
X0057015Y0054971D01*
X0057061Y0054985D01*
X0057108Y0054996D01*
X0057156Y0055003D01*
X0057204Y0055006D01*
X0057252Y0055005D01*
X0057300Y0055000D01*
X0057348Y0054991D01*
X0057394Y0054979D01*
X0057439Y0054962D01*
X0057483Y0054942D01*
X0057525Y0054919D01*
X0057565Y0054892D01*
X0057603Y0054862D01*
X0057638Y0054829D01*
X0057670Y0054793D01*
X0057700Y0054755D01*
X0057726Y0054714D01*
X0057748Y0054671D01*
X0057768Y0054627D01*
X0057783Y0054582D01*
X0057795Y0054535D01*
X0057803Y0054487D01*
X0057807Y0054439D01*
X0057807Y0054391D01*
X0057803Y0054343D01*
X0057795Y0054295D01*
X0057783Y0054248D01*
X0057768Y0054203D01*
X0057748Y0054159D01*
X0057726Y0054116D01*
X0057700Y0054075D01*
X0057670Y0054037D01*
X0057638Y0054001D01*
X0057603Y0053968D01*
X0057565Y0053938D01*
X0057525Y0053911D01*
X0057483Y0053888D01*
X0057439Y0053868D01*
X0057394Y0053851D01*
X0057348Y0053839D01*
X0057300Y0053830D01*
X0057252Y0053825D01*
X0057204Y0053824D01*
X0057156Y0053827D01*
X0057108Y0053834D01*
X0057061Y0053845D01*
X0057015Y0053859D01*
X0056970Y0053877D01*
X0056927Y0053899D01*
X0056886Y0053924D01*
X0056848Y0053953D01*
X0056811Y0053985D01*
X0056777Y0054019D01*
X0056747Y0054056D01*
X0056719Y0054095D01*
X0056694Y0054137D01*
X0056674Y0054181D01*
X0056656Y0054226D01*
X0056643Y0054272D01*
X0056633Y0054319D01*
X0056627Y0054367D01*
X0056625Y0054415D01*
X0064026Y0054415D02*
X0064028Y0054463D01*
X0064034Y0054511D01*
X0064044Y0054558D01*
X0064057Y0054604D01*
X0064075Y0054649D01*
X0064095Y0054693D01*
X0064120Y0054735D01*
X0064148Y0054774D01*
X0064178Y0054811D01*
X0064212Y0054845D01*
X0064249Y0054877D01*
X0064287Y0054906D01*
X0064328Y0054931D01*
X0064371Y0054953D01*
X0064416Y0054971D01*
X0064462Y0054985D01*
X0064509Y0054996D01*
X0064557Y0055003D01*
X0064605Y0055006D01*
X0064653Y0055005D01*
X0064701Y0055000D01*
X0064749Y0054991D01*
X0064795Y0054979D01*
X0064840Y0054962D01*
X0064884Y0054942D01*
X0064926Y0054919D01*
X0064966Y0054892D01*
X0065004Y0054862D01*
X0065039Y0054829D01*
X0065071Y0054793D01*
X0065101Y0054755D01*
X0065127Y0054714D01*
X0065149Y0054671D01*
X0065169Y0054627D01*
X0065184Y0054582D01*
X0065196Y0054535D01*
X0065204Y0054487D01*
X0065208Y0054439D01*
X0065208Y0054391D01*
X0065204Y0054343D01*
X0065196Y0054295D01*
X0065184Y0054248D01*
X0065169Y0054203D01*
X0065149Y0054159D01*
X0065127Y0054116D01*
X0065101Y0054075D01*
X0065071Y0054037D01*
X0065039Y0054001D01*
X0065004Y0053968D01*
X0064966Y0053938D01*
X0064926Y0053911D01*
X0064884Y0053888D01*
X0064840Y0053868D01*
X0064795Y0053851D01*
X0064749Y0053839D01*
X0064701Y0053830D01*
X0064653Y0053825D01*
X0064605Y0053824D01*
X0064557Y0053827D01*
X0064509Y0053834D01*
X0064462Y0053845D01*
X0064416Y0053859D01*
X0064371Y0053877D01*
X0064328Y0053899D01*
X0064287Y0053924D01*
X0064249Y0053953D01*
X0064212Y0053985D01*
X0064178Y0054019D01*
X0064148Y0054056D01*
X0064120Y0054095D01*
X0064095Y0054137D01*
X0064075Y0054181D01*
X0064057Y0054226D01*
X0064044Y0054272D01*
X0064034Y0054319D01*
X0064028Y0054367D01*
X0064026Y0054415D01*
X0064026Y0047013D02*
X0064028Y0047061D01*
X0064034Y0047109D01*
X0064044Y0047156D01*
X0064057Y0047202D01*
X0064075Y0047247D01*
X0064095Y0047291D01*
X0064120Y0047333D01*
X0064148Y0047372D01*
X0064178Y0047409D01*
X0064212Y0047443D01*
X0064249Y0047475D01*
X0064287Y0047504D01*
X0064328Y0047529D01*
X0064371Y0047551D01*
X0064416Y0047569D01*
X0064462Y0047583D01*
X0064509Y0047594D01*
X0064557Y0047601D01*
X0064605Y0047604D01*
X0064653Y0047603D01*
X0064701Y0047598D01*
X0064749Y0047589D01*
X0064795Y0047577D01*
X0064840Y0047560D01*
X0064884Y0047540D01*
X0064926Y0047517D01*
X0064966Y0047490D01*
X0065004Y0047460D01*
X0065039Y0047427D01*
X0065071Y0047391D01*
X0065101Y0047353D01*
X0065127Y0047312D01*
X0065149Y0047269D01*
X0065169Y0047225D01*
X0065184Y0047180D01*
X0065196Y0047133D01*
X0065204Y0047085D01*
X0065208Y0047037D01*
X0065208Y0046989D01*
X0065204Y0046941D01*
X0065196Y0046893D01*
X0065184Y0046846D01*
X0065169Y0046801D01*
X0065149Y0046757D01*
X0065127Y0046714D01*
X0065101Y0046673D01*
X0065071Y0046635D01*
X0065039Y0046599D01*
X0065004Y0046566D01*
X0064966Y0046536D01*
X0064926Y0046509D01*
X0064884Y0046486D01*
X0064840Y0046466D01*
X0064795Y0046449D01*
X0064749Y0046437D01*
X0064701Y0046428D01*
X0064653Y0046423D01*
X0064605Y0046422D01*
X0064557Y0046425D01*
X0064509Y0046432D01*
X0064462Y0046443D01*
X0064416Y0046457D01*
X0064371Y0046475D01*
X0064328Y0046497D01*
X0064287Y0046522D01*
X0064249Y0046551D01*
X0064212Y0046583D01*
X0064178Y0046617D01*
X0064148Y0046654D01*
X0064120Y0046693D01*
X0064095Y0046735D01*
X0064075Y0046779D01*
X0064057Y0046824D01*
X0064044Y0046870D01*
X0064034Y0046917D01*
X0064028Y0046965D01*
X0064026Y0047013D01*
X0071192Y0047013D02*
X0071194Y0047061D01*
X0071200Y0047109D01*
X0071210Y0047156D01*
X0071223Y0047202D01*
X0071241Y0047247D01*
X0071261Y0047291D01*
X0071286Y0047333D01*
X0071314Y0047372D01*
X0071344Y0047409D01*
X0071378Y0047443D01*
X0071415Y0047475D01*
X0071453Y0047504D01*
X0071494Y0047529D01*
X0071537Y0047551D01*
X0071582Y0047569D01*
X0071628Y0047583D01*
X0071675Y0047594D01*
X0071723Y0047601D01*
X0071771Y0047604D01*
X0071819Y0047603D01*
X0071867Y0047598D01*
X0071915Y0047589D01*
X0071961Y0047577D01*
X0072006Y0047560D01*
X0072050Y0047540D01*
X0072092Y0047517D01*
X0072132Y0047490D01*
X0072170Y0047460D01*
X0072205Y0047427D01*
X0072237Y0047391D01*
X0072267Y0047353D01*
X0072293Y0047312D01*
X0072315Y0047269D01*
X0072335Y0047225D01*
X0072350Y0047180D01*
X0072362Y0047133D01*
X0072370Y0047085D01*
X0072374Y0047037D01*
X0072374Y0046989D01*
X0072370Y0046941D01*
X0072362Y0046893D01*
X0072350Y0046846D01*
X0072335Y0046801D01*
X0072315Y0046757D01*
X0072293Y0046714D01*
X0072267Y0046673D01*
X0072237Y0046635D01*
X0072205Y0046599D01*
X0072170Y0046566D01*
X0072132Y0046536D01*
X0072092Y0046509D01*
X0072050Y0046486D01*
X0072006Y0046466D01*
X0071961Y0046449D01*
X0071915Y0046437D01*
X0071867Y0046428D01*
X0071819Y0046423D01*
X0071771Y0046422D01*
X0071723Y0046425D01*
X0071675Y0046432D01*
X0071628Y0046443D01*
X0071582Y0046457D01*
X0071537Y0046475D01*
X0071494Y0046497D01*
X0071453Y0046522D01*
X0071415Y0046551D01*
X0071378Y0046583D01*
X0071344Y0046617D01*
X0071314Y0046654D01*
X0071286Y0046693D01*
X0071261Y0046735D01*
X0071241Y0046779D01*
X0071223Y0046824D01*
X0071210Y0046870D01*
X0071200Y0046917D01*
X0071194Y0046965D01*
X0071192Y0047013D01*
X0071192Y0054415D02*
X0071194Y0054463D01*
X0071200Y0054511D01*
X0071210Y0054558D01*
X0071223Y0054604D01*
X0071241Y0054649D01*
X0071261Y0054693D01*
X0071286Y0054735D01*
X0071314Y0054774D01*
X0071344Y0054811D01*
X0071378Y0054845D01*
X0071415Y0054877D01*
X0071453Y0054906D01*
X0071494Y0054931D01*
X0071537Y0054953D01*
X0071582Y0054971D01*
X0071628Y0054985D01*
X0071675Y0054996D01*
X0071723Y0055003D01*
X0071771Y0055006D01*
X0071819Y0055005D01*
X0071867Y0055000D01*
X0071915Y0054991D01*
X0071961Y0054979D01*
X0072006Y0054962D01*
X0072050Y0054942D01*
X0072092Y0054919D01*
X0072132Y0054892D01*
X0072170Y0054862D01*
X0072205Y0054829D01*
X0072237Y0054793D01*
X0072267Y0054755D01*
X0072293Y0054714D01*
X0072315Y0054671D01*
X0072335Y0054627D01*
X0072350Y0054582D01*
X0072362Y0054535D01*
X0072370Y0054487D01*
X0072374Y0054439D01*
X0072374Y0054391D01*
X0072370Y0054343D01*
X0072362Y0054295D01*
X0072350Y0054248D01*
X0072335Y0054203D01*
X0072315Y0054159D01*
X0072293Y0054116D01*
X0072267Y0054075D01*
X0072237Y0054037D01*
X0072205Y0054001D01*
X0072170Y0053968D01*
X0072132Y0053938D01*
X0072092Y0053911D01*
X0072050Y0053888D01*
X0072006Y0053868D01*
X0071961Y0053851D01*
X0071915Y0053839D01*
X0071867Y0053830D01*
X0071819Y0053825D01*
X0071771Y0053824D01*
X0071723Y0053827D01*
X0071675Y0053834D01*
X0071628Y0053845D01*
X0071582Y0053859D01*
X0071537Y0053877D01*
X0071494Y0053899D01*
X0071453Y0053924D01*
X0071415Y0053953D01*
X0071378Y0053985D01*
X0071344Y0054019D01*
X0071314Y0054056D01*
X0071286Y0054095D01*
X0071261Y0054137D01*
X0071241Y0054181D01*
X0071223Y0054226D01*
X0071210Y0054272D01*
X0071200Y0054319D01*
X0071194Y0054367D01*
X0071192Y0054415D01*
X0078593Y0054415D02*
X0078595Y0054463D01*
X0078601Y0054511D01*
X0078611Y0054558D01*
X0078624Y0054604D01*
X0078642Y0054649D01*
X0078662Y0054693D01*
X0078687Y0054735D01*
X0078715Y0054774D01*
X0078745Y0054811D01*
X0078779Y0054845D01*
X0078816Y0054877D01*
X0078854Y0054906D01*
X0078895Y0054931D01*
X0078938Y0054953D01*
X0078983Y0054971D01*
X0079029Y0054985D01*
X0079076Y0054996D01*
X0079124Y0055003D01*
X0079172Y0055006D01*
X0079220Y0055005D01*
X0079268Y0055000D01*
X0079316Y0054991D01*
X0079362Y0054979D01*
X0079407Y0054962D01*
X0079451Y0054942D01*
X0079493Y0054919D01*
X0079533Y0054892D01*
X0079571Y0054862D01*
X0079606Y0054829D01*
X0079638Y0054793D01*
X0079668Y0054755D01*
X0079694Y0054714D01*
X0079716Y0054671D01*
X0079736Y0054627D01*
X0079751Y0054582D01*
X0079763Y0054535D01*
X0079771Y0054487D01*
X0079775Y0054439D01*
X0079775Y0054391D01*
X0079771Y0054343D01*
X0079763Y0054295D01*
X0079751Y0054248D01*
X0079736Y0054203D01*
X0079716Y0054159D01*
X0079694Y0054116D01*
X0079668Y0054075D01*
X0079638Y0054037D01*
X0079606Y0054001D01*
X0079571Y0053968D01*
X0079533Y0053938D01*
X0079493Y0053911D01*
X0079451Y0053888D01*
X0079407Y0053868D01*
X0079362Y0053851D01*
X0079316Y0053839D01*
X0079268Y0053830D01*
X0079220Y0053825D01*
X0079172Y0053824D01*
X0079124Y0053827D01*
X0079076Y0053834D01*
X0079029Y0053845D01*
X0078983Y0053859D01*
X0078938Y0053877D01*
X0078895Y0053899D01*
X0078854Y0053924D01*
X0078816Y0053953D01*
X0078779Y0053985D01*
X0078745Y0054019D01*
X0078715Y0054056D01*
X0078687Y0054095D01*
X0078662Y0054137D01*
X0078642Y0054181D01*
X0078624Y0054226D01*
X0078611Y0054272D01*
X0078601Y0054319D01*
X0078595Y0054367D01*
X0078593Y0054415D01*
X0078593Y0047013D02*
X0078595Y0047061D01*
X0078601Y0047109D01*
X0078611Y0047156D01*
X0078624Y0047202D01*
X0078642Y0047247D01*
X0078662Y0047291D01*
X0078687Y0047333D01*
X0078715Y0047372D01*
X0078745Y0047409D01*
X0078779Y0047443D01*
X0078816Y0047475D01*
X0078854Y0047504D01*
X0078895Y0047529D01*
X0078938Y0047551D01*
X0078983Y0047569D01*
X0079029Y0047583D01*
X0079076Y0047594D01*
X0079124Y0047601D01*
X0079172Y0047604D01*
X0079220Y0047603D01*
X0079268Y0047598D01*
X0079316Y0047589D01*
X0079362Y0047577D01*
X0079407Y0047560D01*
X0079451Y0047540D01*
X0079493Y0047517D01*
X0079533Y0047490D01*
X0079571Y0047460D01*
X0079606Y0047427D01*
X0079638Y0047391D01*
X0079668Y0047353D01*
X0079694Y0047312D01*
X0079716Y0047269D01*
X0079736Y0047225D01*
X0079751Y0047180D01*
X0079763Y0047133D01*
X0079771Y0047085D01*
X0079775Y0047037D01*
X0079775Y0046989D01*
X0079771Y0046941D01*
X0079763Y0046893D01*
X0079751Y0046846D01*
X0079736Y0046801D01*
X0079716Y0046757D01*
X0079694Y0046714D01*
X0079668Y0046673D01*
X0079638Y0046635D01*
X0079606Y0046599D01*
X0079571Y0046566D01*
X0079533Y0046536D01*
X0079493Y0046509D01*
X0079451Y0046486D01*
X0079407Y0046466D01*
X0079362Y0046449D01*
X0079316Y0046437D01*
X0079268Y0046428D01*
X0079220Y0046423D01*
X0079172Y0046422D01*
X0079124Y0046425D01*
X0079076Y0046432D01*
X0079029Y0046443D01*
X0078983Y0046457D01*
X0078938Y0046475D01*
X0078895Y0046497D01*
X0078854Y0046522D01*
X0078816Y0046551D01*
X0078779Y0046583D01*
X0078745Y0046617D01*
X0078715Y0046654D01*
X0078687Y0046693D01*
X0078662Y0046735D01*
X0078642Y0046779D01*
X0078624Y0046824D01*
X0078611Y0046870D01*
X0078601Y0046917D01*
X0078595Y0046965D01*
X0078593Y0047013D01*
X0087333Y0047013D02*
X0087335Y0047061D01*
X0087341Y0047109D01*
X0087351Y0047156D01*
X0087364Y0047202D01*
X0087382Y0047247D01*
X0087402Y0047291D01*
X0087427Y0047333D01*
X0087455Y0047372D01*
X0087485Y0047409D01*
X0087519Y0047443D01*
X0087556Y0047475D01*
X0087594Y0047504D01*
X0087635Y0047529D01*
X0087678Y0047551D01*
X0087723Y0047569D01*
X0087769Y0047583D01*
X0087816Y0047594D01*
X0087864Y0047601D01*
X0087912Y0047604D01*
X0087960Y0047603D01*
X0088008Y0047598D01*
X0088056Y0047589D01*
X0088102Y0047577D01*
X0088147Y0047560D01*
X0088191Y0047540D01*
X0088233Y0047517D01*
X0088273Y0047490D01*
X0088311Y0047460D01*
X0088346Y0047427D01*
X0088378Y0047391D01*
X0088408Y0047353D01*
X0088434Y0047312D01*
X0088456Y0047269D01*
X0088476Y0047225D01*
X0088491Y0047180D01*
X0088503Y0047133D01*
X0088511Y0047085D01*
X0088515Y0047037D01*
X0088515Y0046989D01*
X0088511Y0046941D01*
X0088503Y0046893D01*
X0088491Y0046846D01*
X0088476Y0046801D01*
X0088456Y0046757D01*
X0088434Y0046714D01*
X0088408Y0046673D01*
X0088378Y0046635D01*
X0088346Y0046599D01*
X0088311Y0046566D01*
X0088273Y0046536D01*
X0088233Y0046509D01*
X0088191Y0046486D01*
X0088147Y0046466D01*
X0088102Y0046449D01*
X0088056Y0046437D01*
X0088008Y0046428D01*
X0087960Y0046423D01*
X0087912Y0046422D01*
X0087864Y0046425D01*
X0087816Y0046432D01*
X0087769Y0046443D01*
X0087723Y0046457D01*
X0087678Y0046475D01*
X0087635Y0046497D01*
X0087594Y0046522D01*
X0087556Y0046551D01*
X0087519Y0046583D01*
X0087485Y0046617D01*
X0087455Y0046654D01*
X0087427Y0046693D01*
X0087402Y0046735D01*
X0087382Y0046779D01*
X0087364Y0046824D01*
X0087351Y0046870D01*
X0087341Y0046917D01*
X0087335Y0046965D01*
X0087333Y0047013D01*
X0087333Y0054415D02*
X0087335Y0054463D01*
X0087341Y0054511D01*
X0087351Y0054558D01*
X0087364Y0054604D01*
X0087382Y0054649D01*
X0087402Y0054693D01*
X0087427Y0054735D01*
X0087455Y0054774D01*
X0087485Y0054811D01*
X0087519Y0054845D01*
X0087556Y0054877D01*
X0087594Y0054906D01*
X0087635Y0054931D01*
X0087678Y0054953D01*
X0087723Y0054971D01*
X0087769Y0054985D01*
X0087816Y0054996D01*
X0087864Y0055003D01*
X0087912Y0055006D01*
X0087960Y0055005D01*
X0088008Y0055000D01*
X0088056Y0054991D01*
X0088102Y0054979D01*
X0088147Y0054962D01*
X0088191Y0054942D01*
X0088233Y0054919D01*
X0088273Y0054892D01*
X0088311Y0054862D01*
X0088346Y0054829D01*
X0088378Y0054793D01*
X0088408Y0054755D01*
X0088434Y0054714D01*
X0088456Y0054671D01*
X0088476Y0054627D01*
X0088491Y0054582D01*
X0088503Y0054535D01*
X0088511Y0054487D01*
X0088515Y0054439D01*
X0088515Y0054391D01*
X0088511Y0054343D01*
X0088503Y0054295D01*
X0088491Y0054248D01*
X0088476Y0054203D01*
X0088456Y0054159D01*
X0088434Y0054116D01*
X0088408Y0054075D01*
X0088378Y0054037D01*
X0088346Y0054001D01*
X0088311Y0053968D01*
X0088273Y0053938D01*
X0088233Y0053911D01*
X0088191Y0053888D01*
X0088147Y0053868D01*
X0088102Y0053851D01*
X0088056Y0053839D01*
X0088008Y0053830D01*
X0087960Y0053825D01*
X0087912Y0053824D01*
X0087864Y0053827D01*
X0087816Y0053834D01*
X0087769Y0053845D01*
X0087723Y0053859D01*
X0087678Y0053877D01*
X0087635Y0053899D01*
X0087594Y0053924D01*
X0087556Y0053953D01*
X0087519Y0053985D01*
X0087485Y0054019D01*
X0087455Y0054056D01*
X0087427Y0054095D01*
X0087402Y0054137D01*
X0087382Y0054181D01*
X0087364Y0054226D01*
X0087351Y0054272D01*
X0087341Y0054319D01*
X0087335Y0054367D01*
X0087333Y0054415D01*
X0094735Y0054415D02*
X0094737Y0054463D01*
X0094743Y0054511D01*
X0094753Y0054558D01*
X0094766Y0054604D01*
X0094784Y0054649D01*
X0094804Y0054693D01*
X0094829Y0054735D01*
X0094857Y0054774D01*
X0094887Y0054811D01*
X0094921Y0054845D01*
X0094958Y0054877D01*
X0094996Y0054906D01*
X0095037Y0054931D01*
X0095080Y0054953D01*
X0095125Y0054971D01*
X0095171Y0054985D01*
X0095218Y0054996D01*
X0095266Y0055003D01*
X0095314Y0055006D01*
X0095362Y0055005D01*
X0095410Y0055000D01*
X0095458Y0054991D01*
X0095504Y0054979D01*
X0095549Y0054962D01*
X0095593Y0054942D01*
X0095635Y0054919D01*
X0095675Y0054892D01*
X0095713Y0054862D01*
X0095748Y0054829D01*
X0095780Y0054793D01*
X0095810Y0054755D01*
X0095836Y0054714D01*
X0095858Y0054671D01*
X0095878Y0054627D01*
X0095893Y0054582D01*
X0095905Y0054535D01*
X0095913Y0054487D01*
X0095917Y0054439D01*
X0095917Y0054391D01*
X0095913Y0054343D01*
X0095905Y0054295D01*
X0095893Y0054248D01*
X0095878Y0054203D01*
X0095858Y0054159D01*
X0095836Y0054116D01*
X0095810Y0054075D01*
X0095780Y0054037D01*
X0095748Y0054001D01*
X0095713Y0053968D01*
X0095675Y0053938D01*
X0095635Y0053911D01*
X0095593Y0053888D01*
X0095549Y0053868D01*
X0095504Y0053851D01*
X0095458Y0053839D01*
X0095410Y0053830D01*
X0095362Y0053825D01*
X0095314Y0053824D01*
X0095266Y0053827D01*
X0095218Y0053834D01*
X0095171Y0053845D01*
X0095125Y0053859D01*
X0095080Y0053877D01*
X0095037Y0053899D01*
X0094996Y0053924D01*
X0094958Y0053953D01*
X0094921Y0053985D01*
X0094887Y0054019D01*
X0094857Y0054056D01*
X0094829Y0054095D01*
X0094804Y0054137D01*
X0094784Y0054181D01*
X0094766Y0054226D01*
X0094753Y0054272D01*
X0094743Y0054319D01*
X0094737Y0054367D01*
X0094735Y0054415D01*
X0094735Y0047013D02*
X0094737Y0047061D01*
X0094743Y0047109D01*
X0094753Y0047156D01*
X0094766Y0047202D01*
X0094784Y0047247D01*
X0094804Y0047291D01*
X0094829Y0047333D01*
X0094857Y0047372D01*
X0094887Y0047409D01*
X0094921Y0047443D01*
X0094958Y0047475D01*
X0094996Y0047504D01*
X0095037Y0047529D01*
X0095080Y0047551D01*
X0095125Y0047569D01*
X0095171Y0047583D01*
X0095218Y0047594D01*
X0095266Y0047601D01*
X0095314Y0047604D01*
X0095362Y0047603D01*
X0095410Y0047598D01*
X0095458Y0047589D01*
X0095504Y0047577D01*
X0095549Y0047560D01*
X0095593Y0047540D01*
X0095635Y0047517D01*
X0095675Y0047490D01*
X0095713Y0047460D01*
X0095748Y0047427D01*
X0095780Y0047391D01*
X0095810Y0047353D01*
X0095836Y0047312D01*
X0095858Y0047269D01*
X0095878Y0047225D01*
X0095893Y0047180D01*
X0095905Y0047133D01*
X0095913Y0047085D01*
X0095917Y0047037D01*
X0095917Y0046989D01*
X0095913Y0046941D01*
X0095905Y0046893D01*
X0095893Y0046846D01*
X0095878Y0046801D01*
X0095858Y0046757D01*
X0095836Y0046714D01*
X0095810Y0046673D01*
X0095780Y0046635D01*
X0095748Y0046599D01*
X0095713Y0046566D01*
X0095675Y0046536D01*
X0095635Y0046509D01*
X0095593Y0046486D01*
X0095549Y0046466D01*
X0095504Y0046449D01*
X0095458Y0046437D01*
X0095410Y0046428D01*
X0095362Y0046423D01*
X0095314Y0046422D01*
X0095266Y0046425D01*
X0095218Y0046432D01*
X0095171Y0046443D01*
X0095125Y0046457D01*
X0095080Y0046475D01*
X0095037Y0046497D01*
X0094996Y0046522D01*
X0094958Y0046551D01*
X0094921Y0046583D01*
X0094887Y0046617D01*
X0094857Y0046654D01*
X0094829Y0046693D01*
X0094804Y0046735D01*
X0094784Y0046779D01*
X0094766Y0046824D01*
X0094753Y0046870D01*
X0094743Y0046917D01*
X0094737Y0046965D01*
X0094735Y0047013D01*
X0101900Y0047013D02*
X0101902Y0047061D01*
X0101908Y0047109D01*
X0101918Y0047156D01*
X0101931Y0047202D01*
X0101949Y0047247D01*
X0101969Y0047291D01*
X0101994Y0047333D01*
X0102022Y0047372D01*
X0102052Y0047409D01*
X0102086Y0047443D01*
X0102123Y0047475D01*
X0102161Y0047504D01*
X0102202Y0047529D01*
X0102245Y0047551D01*
X0102290Y0047569D01*
X0102336Y0047583D01*
X0102383Y0047594D01*
X0102431Y0047601D01*
X0102479Y0047604D01*
X0102527Y0047603D01*
X0102575Y0047598D01*
X0102623Y0047589D01*
X0102669Y0047577D01*
X0102714Y0047560D01*
X0102758Y0047540D01*
X0102800Y0047517D01*
X0102840Y0047490D01*
X0102878Y0047460D01*
X0102913Y0047427D01*
X0102945Y0047391D01*
X0102975Y0047353D01*
X0103001Y0047312D01*
X0103023Y0047269D01*
X0103043Y0047225D01*
X0103058Y0047180D01*
X0103070Y0047133D01*
X0103078Y0047085D01*
X0103082Y0047037D01*
X0103082Y0046989D01*
X0103078Y0046941D01*
X0103070Y0046893D01*
X0103058Y0046846D01*
X0103043Y0046801D01*
X0103023Y0046757D01*
X0103001Y0046714D01*
X0102975Y0046673D01*
X0102945Y0046635D01*
X0102913Y0046599D01*
X0102878Y0046566D01*
X0102840Y0046536D01*
X0102800Y0046509D01*
X0102758Y0046486D01*
X0102714Y0046466D01*
X0102669Y0046449D01*
X0102623Y0046437D01*
X0102575Y0046428D01*
X0102527Y0046423D01*
X0102479Y0046422D01*
X0102431Y0046425D01*
X0102383Y0046432D01*
X0102336Y0046443D01*
X0102290Y0046457D01*
X0102245Y0046475D01*
X0102202Y0046497D01*
X0102161Y0046522D01*
X0102123Y0046551D01*
X0102086Y0046583D01*
X0102052Y0046617D01*
X0102022Y0046654D01*
X0101994Y0046693D01*
X0101969Y0046735D01*
X0101949Y0046779D01*
X0101931Y0046824D01*
X0101918Y0046870D01*
X0101908Y0046917D01*
X0101902Y0046965D01*
X0101900Y0047013D01*
X0101900Y0054415D02*
X0101902Y0054463D01*
X0101908Y0054511D01*
X0101918Y0054558D01*
X0101931Y0054604D01*
X0101949Y0054649D01*
X0101969Y0054693D01*
X0101994Y0054735D01*
X0102022Y0054774D01*
X0102052Y0054811D01*
X0102086Y0054845D01*
X0102123Y0054877D01*
X0102161Y0054906D01*
X0102202Y0054931D01*
X0102245Y0054953D01*
X0102290Y0054971D01*
X0102336Y0054985D01*
X0102383Y0054996D01*
X0102431Y0055003D01*
X0102479Y0055006D01*
X0102527Y0055005D01*
X0102575Y0055000D01*
X0102623Y0054991D01*
X0102669Y0054979D01*
X0102714Y0054962D01*
X0102758Y0054942D01*
X0102800Y0054919D01*
X0102840Y0054892D01*
X0102878Y0054862D01*
X0102913Y0054829D01*
X0102945Y0054793D01*
X0102975Y0054755D01*
X0103001Y0054714D01*
X0103023Y0054671D01*
X0103043Y0054627D01*
X0103058Y0054582D01*
X0103070Y0054535D01*
X0103078Y0054487D01*
X0103082Y0054439D01*
X0103082Y0054391D01*
X0103078Y0054343D01*
X0103070Y0054295D01*
X0103058Y0054248D01*
X0103043Y0054203D01*
X0103023Y0054159D01*
X0103001Y0054116D01*
X0102975Y0054075D01*
X0102945Y0054037D01*
X0102913Y0054001D01*
X0102878Y0053968D01*
X0102840Y0053938D01*
X0102800Y0053911D01*
X0102758Y0053888D01*
X0102714Y0053868D01*
X0102669Y0053851D01*
X0102623Y0053839D01*
X0102575Y0053830D01*
X0102527Y0053825D01*
X0102479Y0053824D01*
X0102431Y0053827D01*
X0102383Y0053834D01*
X0102336Y0053845D01*
X0102290Y0053859D01*
X0102245Y0053877D01*
X0102202Y0053899D01*
X0102161Y0053924D01*
X0102123Y0053953D01*
X0102086Y0053985D01*
X0102052Y0054019D01*
X0102022Y0054056D01*
X0101994Y0054095D01*
X0101969Y0054137D01*
X0101949Y0054181D01*
X0101931Y0054226D01*
X0101918Y0054272D01*
X0101908Y0054319D01*
X0101902Y0054367D01*
X0101900Y0054415D01*
X0109302Y0054415D02*
X0109304Y0054463D01*
X0109310Y0054511D01*
X0109320Y0054558D01*
X0109333Y0054604D01*
X0109351Y0054649D01*
X0109371Y0054693D01*
X0109396Y0054735D01*
X0109424Y0054774D01*
X0109454Y0054811D01*
X0109488Y0054845D01*
X0109525Y0054877D01*
X0109563Y0054906D01*
X0109604Y0054931D01*
X0109647Y0054953D01*
X0109692Y0054971D01*
X0109738Y0054985D01*
X0109785Y0054996D01*
X0109833Y0055003D01*
X0109881Y0055006D01*
X0109929Y0055005D01*
X0109977Y0055000D01*
X0110025Y0054991D01*
X0110071Y0054979D01*
X0110116Y0054962D01*
X0110160Y0054942D01*
X0110202Y0054919D01*
X0110242Y0054892D01*
X0110280Y0054862D01*
X0110315Y0054829D01*
X0110347Y0054793D01*
X0110377Y0054755D01*
X0110403Y0054714D01*
X0110425Y0054671D01*
X0110445Y0054627D01*
X0110460Y0054582D01*
X0110472Y0054535D01*
X0110480Y0054487D01*
X0110484Y0054439D01*
X0110484Y0054391D01*
X0110480Y0054343D01*
X0110472Y0054295D01*
X0110460Y0054248D01*
X0110445Y0054203D01*
X0110425Y0054159D01*
X0110403Y0054116D01*
X0110377Y0054075D01*
X0110347Y0054037D01*
X0110315Y0054001D01*
X0110280Y0053968D01*
X0110242Y0053938D01*
X0110202Y0053911D01*
X0110160Y0053888D01*
X0110116Y0053868D01*
X0110071Y0053851D01*
X0110025Y0053839D01*
X0109977Y0053830D01*
X0109929Y0053825D01*
X0109881Y0053824D01*
X0109833Y0053827D01*
X0109785Y0053834D01*
X0109738Y0053845D01*
X0109692Y0053859D01*
X0109647Y0053877D01*
X0109604Y0053899D01*
X0109563Y0053924D01*
X0109525Y0053953D01*
X0109488Y0053985D01*
X0109454Y0054019D01*
X0109424Y0054056D01*
X0109396Y0054095D01*
X0109371Y0054137D01*
X0109351Y0054181D01*
X0109333Y0054226D01*
X0109320Y0054272D01*
X0109310Y0054319D01*
X0109304Y0054367D01*
X0109302Y0054415D01*
X0109302Y0047013D02*
X0109304Y0047061D01*
X0109310Y0047109D01*
X0109320Y0047156D01*
X0109333Y0047202D01*
X0109351Y0047247D01*
X0109371Y0047291D01*
X0109396Y0047333D01*
X0109424Y0047372D01*
X0109454Y0047409D01*
X0109488Y0047443D01*
X0109525Y0047475D01*
X0109563Y0047504D01*
X0109604Y0047529D01*
X0109647Y0047551D01*
X0109692Y0047569D01*
X0109738Y0047583D01*
X0109785Y0047594D01*
X0109833Y0047601D01*
X0109881Y0047604D01*
X0109929Y0047603D01*
X0109977Y0047598D01*
X0110025Y0047589D01*
X0110071Y0047577D01*
X0110116Y0047560D01*
X0110160Y0047540D01*
X0110202Y0047517D01*
X0110242Y0047490D01*
X0110280Y0047460D01*
X0110315Y0047427D01*
X0110347Y0047391D01*
X0110377Y0047353D01*
X0110403Y0047312D01*
X0110425Y0047269D01*
X0110445Y0047225D01*
X0110460Y0047180D01*
X0110472Y0047133D01*
X0110480Y0047085D01*
X0110484Y0047037D01*
X0110484Y0046989D01*
X0110480Y0046941D01*
X0110472Y0046893D01*
X0110460Y0046846D01*
X0110445Y0046801D01*
X0110425Y0046757D01*
X0110403Y0046714D01*
X0110377Y0046673D01*
X0110347Y0046635D01*
X0110315Y0046599D01*
X0110280Y0046566D01*
X0110242Y0046536D01*
X0110202Y0046509D01*
X0110160Y0046486D01*
X0110116Y0046466D01*
X0110071Y0046449D01*
X0110025Y0046437D01*
X0109977Y0046428D01*
X0109929Y0046423D01*
X0109881Y0046422D01*
X0109833Y0046425D01*
X0109785Y0046432D01*
X0109738Y0046443D01*
X0109692Y0046457D01*
X0109647Y0046475D01*
X0109604Y0046497D01*
X0109563Y0046522D01*
X0109525Y0046551D01*
X0109488Y0046583D01*
X0109454Y0046617D01*
X0109424Y0046654D01*
X0109396Y0046693D01*
X0109371Y0046735D01*
X0109351Y0046779D01*
X0109333Y0046824D01*
X0109320Y0046870D01*
X0109310Y0046917D01*
X0109304Y0046965D01*
X0109302Y0047013D01*
D11*
X0057373Y0086935D03*
X0057373Y0096935D03*
X0057373Y0106935D03*
X0057373Y0116935D03*
X0057373Y0126935D03*
D12*
X0060917Y0050714D03*
X0075483Y0050714D03*
X0091625Y0050714D03*
X0106192Y0050714D03*
D13*
X0108121Y0064336D03*
X0108121Y0071187D03*
X0056035Y0071187D03*
X0056035Y0064336D03*
D14*
X0062452Y0065990D03*
X0065995Y0065675D03*
X0062649Y0062447D03*
X0062649Y0060084D03*
X0070405Y0065675D03*
X0075247Y0061659D03*
X0075247Y0059415D03*
X0062846Y0069612D03*
X0062885Y0073195D03*
X0068003Y0081029D03*
X0073909Y0083391D03*
X0077058Y0082998D03*
X0079972Y0081856D03*
X0081783Y0084179D03*
X0085720Y0085360D03*
X0092413Y0079848D03*
X0094775Y0082604D03*
X0095641Y0072722D03*
X0091940Y0067958D03*
X0093751Y0061725D03*
X0101901Y0065675D03*
X0095169Y0091659D03*
X0095405Y0098076D03*
X0102255Y0094809D03*
X0105798Y0103076D03*
X0110050Y0102565D03*
X0105798Y0108903D03*
X0105798Y0111738D03*
X0106980Y0116147D03*
X0105011Y0118667D03*
X0103043Y0121226D03*
X0101468Y0123746D03*
X0105405Y0125557D03*
X0110129Y0116856D03*
X0109342Y0113824D03*
X0095602Y0107919D03*
X0092019Y0111344D03*
X0088082Y0114887D03*
X0084145Y0116856D03*
X0084145Y0112525D03*
X0092019Y0116856D03*
X0090444Y0127092D03*
X0081192Y0127643D03*
X0071940Y0132604D03*
X0066035Y0128273D03*
X0066231Y0123155D03*
X0066901Y0120202D03*
X0068987Y0118037D03*
X0066035Y0111738D03*
X0079027Y0104651D03*
X0078633Y0099927D03*
X0077058Y0092053D03*
X0073909Y0092053D03*
X0069775Y0095990D03*
X0072728Y0087722D03*
X0087294Y0098352D03*
D15*
X0089597Y0098714D02*
X0093102Y0098714D01*
X0093102Y0099030D02*
X0093102Y0097123D01*
X0094451Y0095774D01*
X0096358Y0095774D01*
X0097622Y0097038D01*
X0099953Y0094707D01*
X0099953Y0093855D01*
X0101301Y0092506D01*
X0103209Y0092506D01*
X0104557Y0093855D01*
X0104557Y0095762D01*
X0103209Y0097111D01*
X0102357Y0097111D01*
X0096266Y0103202D01*
X0092133Y0103202D01*
X0085105Y0110229D01*
X0086447Y0111572D01*
X0086447Y0113266D01*
X0087128Y0112585D01*
X0089036Y0112585D01*
X0090384Y0113934D01*
X0090384Y0115235D01*
X0091065Y0114554D01*
X0092973Y0114554D01*
X0094321Y0115902D01*
X0094321Y0117810D01*
X0092973Y0119158D01*
X0091065Y0119158D01*
X0089717Y0117810D01*
X0089717Y0116509D01*
X0089036Y0117190D01*
X0087128Y0117190D01*
X0086447Y0116509D01*
X0086447Y0117810D01*
X0085099Y0119158D01*
X0083191Y0119158D01*
X0081843Y0117810D01*
X0081843Y0115902D01*
X0083054Y0114691D01*
X0081849Y0113485D01*
X0072313Y0123021D01*
X0067315Y0123021D01*
X0066799Y0122505D01*
X0065947Y0122505D01*
X0064598Y0121156D01*
X0064598Y0119249D01*
X0065947Y0117900D01*
X0066685Y0117900D01*
X0066685Y0117083D01*
X0068034Y0115735D01*
X0069941Y0115735D01*
X0071290Y0117083D01*
X0071290Y0118991D01*
X0070660Y0119621D01*
X0070905Y0119621D01*
X0090724Y0099802D01*
X0093874Y0099802D01*
X0093102Y0099030D01*
X0093585Y0099512D02*
X0089390Y0099512D01*
X0089597Y0099306D02*
X0088248Y0100654D01*
X0086341Y0100654D01*
X0084992Y0099306D01*
X0084992Y0097398D01*
X0086341Y0096050D01*
X0088248Y0096050D01*
X0089597Y0097398D01*
X0089597Y0099306D01*
X0090215Y0100311D02*
X0088592Y0100311D01*
X0089416Y0101109D02*
X0080707Y0101109D01*
X0080935Y0100880D02*
X0079587Y0102229D01*
X0077679Y0102229D01*
X0076331Y0100880D01*
X0076331Y0098973D01*
X0077679Y0097624D01*
X0079587Y0097624D01*
X0080935Y0098973D01*
X0080935Y0100880D01*
X0080935Y0100311D02*
X0085997Y0100311D01*
X0085199Y0099512D02*
X0080935Y0099512D01*
X0080676Y0098714D02*
X0084992Y0098714D01*
X0084992Y0097915D02*
X0079878Y0097915D01*
X0077389Y0097915D02*
X0061513Y0097915D01*
X0061573Y0097770D02*
X0060934Y0099314D01*
X0059752Y0100495D01*
X0058209Y0101135D01*
X0057373Y0101135D01*
X0057373Y0102735D01*
X0058209Y0102735D01*
X0059752Y0103374D01*
X0060934Y0104556D01*
X0061573Y0106099D01*
X0061573Y0107770D01*
X0060934Y0109314D01*
X0059752Y0110495D01*
X0058209Y0111135D01*
X0057373Y0111135D01*
X0057373Y0112735D01*
X0058209Y0112735D01*
X0059752Y0113374D01*
X0060934Y0114556D01*
X0061573Y0116099D01*
X0061573Y0117770D01*
X0060934Y0119314D01*
X0059752Y0120495D01*
X0058209Y0121135D01*
X0057373Y0121135D01*
X0057373Y0122735D01*
X0058209Y0122735D01*
X0059752Y0123374D01*
X0060934Y0124556D01*
X0061573Y0126099D01*
X0061573Y0127770D01*
X0061528Y0127880D01*
X0063732Y0127880D01*
X0063732Y0127320D01*
X0065081Y0125971D01*
X0066988Y0125971D01*
X0068337Y0127320D01*
X0068337Y0127880D01*
X0088142Y0127880D01*
X0088142Y0126139D01*
X0089490Y0124790D01*
X0091398Y0124790D01*
X0092746Y0126139D01*
X0092746Y0127880D01*
X0107767Y0127880D01*
X0111291Y0124355D01*
X0111291Y0118950D01*
X0111083Y0119158D01*
X0109175Y0119158D01*
X0108200Y0118183D01*
X0107933Y0118450D01*
X0107313Y0118450D01*
X0107313Y0119621D01*
X0105965Y0120969D01*
X0105345Y0120969D01*
X0105345Y0122180D01*
X0103996Y0123528D01*
X0103770Y0123528D01*
X0103770Y0124699D01*
X0102421Y0126048D01*
X0100514Y0126048D01*
X0099165Y0124699D01*
X0099165Y0122792D01*
X0100514Y0121443D01*
X0100740Y0121443D01*
X0100740Y0120272D01*
X0102089Y0118924D01*
X0102709Y0118924D01*
X0102709Y0117713D01*
X0104057Y0116365D01*
X0104677Y0116365D01*
X0104677Y0115194D01*
X0105831Y0114040D01*
X0104845Y0114040D01*
X0103496Y0112692D01*
X0103496Y0110784D01*
X0103960Y0110321D01*
X0103496Y0109857D01*
X0103496Y0107950D01*
X0104845Y0106601D01*
X0106752Y0106601D01*
X0108101Y0107950D01*
X0108101Y0109857D01*
X0107637Y0110321D01*
X0108101Y0110784D01*
X0108101Y0112692D01*
X0106947Y0113845D01*
X0107933Y0113845D01*
X0108909Y0114820D01*
X0109175Y0114554D01*
X0111083Y0114554D01*
X0111291Y0114762D01*
X0111291Y0104580D01*
X0111004Y0104867D01*
X0109097Y0104867D01*
X0108101Y0103871D01*
X0108101Y0104030D01*
X0106752Y0105379D01*
X0104845Y0105379D01*
X0103496Y0104030D01*
X0103496Y0102123D01*
X0104845Y0100774D01*
X0106752Y0100774D01*
X0107748Y0101770D01*
X0107748Y0101611D01*
X0109097Y0100262D01*
X0111004Y0100262D01*
X0111291Y0100550D01*
X0111291Y0073912D01*
X0110483Y0074721D01*
X0108950Y0075355D01*
X0107292Y0075355D01*
X0105760Y0074721D01*
X0104587Y0073548D01*
X0103953Y0072016D01*
X0103953Y0070358D01*
X0104587Y0068825D01*
X0105651Y0067761D01*
X0104587Y0066698D01*
X0104203Y0065770D01*
X0104203Y0066629D01*
X0102854Y0067977D01*
X0100947Y0067977D01*
X0099598Y0066629D01*
X0099598Y0064721D01*
X0100947Y0063373D01*
X0102854Y0063373D01*
X0103953Y0064471D01*
X0103953Y0063507D01*
X0104587Y0061975D01*
X0105760Y0060802D01*
X0107292Y0060168D01*
X0108950Y0060168D01*
X0110483Y0060802D01*
X0111291Y0061611D01*
X0111291Y0055832D01*
X0111008Y0055832D01*
X0110635Y0056206D01*
X0109151Y0056206D01*
X0108778Y0055832D01*
X0107301Y0055832D01*
X0107217Y0055867D01*
X0105167Y0055867D01*
X0105084Y0055832D01*
X0103606Y0055832D01*
X0103233Y0056206D01*
X0101750Y0056206D01*
X0101376Y0055832D01*
X0096581Y0055832D01*
X0096581Y0063437D01*
X0095292Y0064725D01*
X0072707Y0064725D01*
X0072707Y0066629D01*
X0071358Y0067977D01*
X0069451Y0067977D01*
X0068200Y0066726D01*
X0066949Y0067977D01*
X0065042Y0067977D01*
X0064381Y0067317D01*
X0063406Y0068292D01*
X0061498Y0068292D01*
X0060150Y0066943D01*
X0060150Y0065295D01*
X0059569Y0066698D01*
X0058505Y0067761D01*
X0059569Y0068825D01*
X0060203Y0070358D01*
X0060203Y0072016D01*
X0059569Y0073548D01*
X0058396Y0074721D01*
X0057373Y0075144D01*
X0057373Y0082735D01*
X0058209Y0082735D01*
X0059752Y0083374D01*
X0060934Y0084556D01*
X0061573Y0086099D01*
X0061573Y0087770D01*
X0060934Y0089314D01*
X0059752Y0090495D01*
X0058209Y0091135D01*
X0057373Y0091135D01*
X0057373Y0092735D01*
X0058209Y0092735D01*
X0059752Y0093374D01*
X0060934Y0094556D01*
X0061573Y0096099D01*
X0061573Y0097770D01*
X0061573Y0097117D02*
X0085274Y0097117D01*
X0086072Y0096318D02*
X0061573Y0096318D01*
X0061333Y0095520D02*
X0099140Y0095520D01*
X0098341Y0096318D02*
X0096903Y0096318D01*
X0093907Y0096318D02*
X0088517Y0096318D01*
X0089315Y0097117D02*
X0093108Y0097117D01*
X0093102Y0097915D02*
X0089597Y0097915D01*
X0088618Y0101908D02*
X0079908Y0101908D01*
X0079980Y0102349D02*
X0081329Y0103698D01*
X0081329Y0105605D01*
X0079980Y0106954D01*
X0078073Y0106954D01*
X0076724Y0105605D01*
X0076724Y0103698D01*
X0078073Y0102349D01*
X0079980Y0102349D01*
X0080338Y0102706D02*
X0087819Y0102706D01*
X0087021Y0103505D02*
X0081136Y0103505D01*
X0081329Y0104303D02*
X0086222Y0104303D01*
X0085424Y0105102D02*
X0081329Y0105102D01*
X0081034Y0105900D02*
X0084625Y0105900D01*
X0083827Y0106699D02*
X0080235Y0106699D01*
X0077818Y0106699D02*
X0061573Y0106699D01*
X0061573Y0107497D02*
X0083028Y0107497D01*
X0082230Y0108296D02*
X0061355Y0108296D01*
X0061025Y0109094D02*
X0081431Y0109094D01*
X0080633Y0109893D02*
X0067446Y0109893D01*
X0066988Y0109435D02*
X0065081Y0109435D01*
X0063732Y0110784D01*
X0063732Y0112692D01*
X0065081Y0114040D01*
X0066988Y0114040D01*
X0068337Y0112692D01*
X0068337Y0110784D01*
X0066988Y0109435D01*
X0068244Y0110691D02*
X0079834Y0110691D01*
X0079036Y0111490D02*
X0068337Y0111490D01*
X0068337Y0112288D02*
X0078237Y0112288D01*
X0077439Y0113087D02*
X0067942Y0113087D01*
X0067143Y0113886D02*
X0076640Y0113886D01*
X0075842Y0114684D02*
X0060987Y0114684D01*
X0061318Y0115483D02*
X0075043Y0115483D01*
X0074245Y0116281D02*
X0070487Y0116281D01*
X0071286Y0117080D02*
X0073446Y0117080D01*
X0072648Y0117878D02*
X0071290Y0117878D01*
X0071290Y0118677D02*
X0071849Y0118677D01*
X0071051Y0119475D02*
X0070805Y0119475D01*
X0073464Y0121871D02*
X0100087Y0121871D01*
X0100740Y0121072D02*
X0074262Y0121072D01*
X0075061Y0120274D02*
X0100740Y0120274D01*
X0101537Y0119475D02*
X0075859Y0119475D01*
X0076658Y0118677D02*
X0082709Y0118677D01*
X0081911Y0117878D02*
X0077456Y0117878D01*
X0078255Y0117080D02*
X0081843Y0117080D01*
X0081843Y0116281D02*
X0079053Y0116281D01*
X0079852Y0115483D02*
X0082262Y0115483D01*
X0083048Y0114684D02*
X0080650Y0114684D01*
X0081449Y0113886D02*
X0082249Y0113886D01*
X0085567Y0110691D02*
X0089717Y0110691D01*
X0089717Y0110390D02*
X0091065Y0109042D01*
X0092973Y0109042D01*
X0094321Y0110390D01*
X0094321Y0112298D01*
X0092973Y0113647D01*
X0091065Y0113647D01*
X0089717Y0112298D01*
X0089717Y0110390D01*
X0090214Y0109893D02*
X0085441Y0109893D01*
X0086240Y0109094D02*
X0091013Y0109094D01*
X0093025Y0109094D02*
X0093521Y0109094D01*
X0093299Y0108873D02*
X0093299Y0106965D01*
X0094648Y0105617D01*
X0096555Y0105617D01*
X0097904Y0106965D01*
X0097904Y0108873D01*
X0096555Y0110221D01*
X0094648Y0110221D01*
X0093299Y0108873D01*
X0093299Y0108296D02*
X0087038Y0108296D01*
X0087837Y0107497D02*
X0093299Y0107497D01*
X0093566Y0106699D02*
X0088635Y0106699D01*
X0089434Y0105900D02*
X0094364Y0105900D01*
X0096839Y0105900D02*
X0111291Y0105900D01*
X0111291Y0105102D02*
X0107029Y0105102D01*
X0107828Y0104303D02*
X0108533Y0104303D01*
X0106850Y0106699D02*
X0111291Y0106699D01*
X0111291Y0107497D02*
X0107649Y0107497D01*
X0108101Y0108296D02*
X0111291Y0108296D01*
X0111291Y0109094D02*
X0108101Y0109094D01*
X0108065Y0109893D02*
X0111291Y0109893D01*
X0111291Y0110691D02*
X0108008Y0110691D01*
X0108101Y0111490D02*
X0111291Y0111490D01*
X0111291Y0112288D02*
X0108101Y0112288D01*
X0107705Y0113087D02*
X0111291Y0113087D01*
X0111291Y0113886D02*
X0107974Y0113886D01*
X0108772Y0114684D02*
X0109045Y0114684D01*
X0111213Y0114684D02*
X0111291Y0114684D01*
X0108694Y0118677D02*
X0107313Y0118677D01*
X0107313Y0119475D02*
X0111291Y0119475D01*
X0111291Y0120274D02*
X0106660Y0120274D01*
X0105345Y0121072D02*
X0111291Y0121072D01*
X0111291Y0121871D02*
X0105345Y0121871D01*
X0104855Y0122669D02*
X0111291Y0122669D01*
X0111291Y0123468D02*
X0104057Y0123468D01*
X0103770Y0124266D02*
X0111291Y0124266D01*
X0110582Y0125065D02*
X0103405Y0125065D01*
X0102606Y0125863D02*
X0109783Y0125863D01*
X0108985Y0126662D02*
X0092746Y0126662D01*
X0092746Y0127460D02*
X0108186Y0127460D01*
X0100329Y0125863D02*
X0092471Y0125863D01*
X0091673Y0125065D02*
X0099531Y0125065D01*
X0099165Y0124266D02*
X0060644Y0124266D01*
X0061145Y0125065D02*
X0089216Y0125065D01*
X0088417Y0125863D02*
X0061475Y0125863D01*
X0061573Y0126662D02*
X0064390Y0126662D01*
X0063732Y0127460D02*
X0061573Y0127460D01*
X0059846Y0123468D02*
X0099165Y0123468D01*
X0099288Y0122669D02*
X0072665Y0122669D01*
X0066963Y0122669D02*
X0057373Y0122669D01*
X0057373Y0121871D02*
X0065313Y0121871D01*
X0064598Y0121072D02*
X0058360Y0121072D01*
X0059974Y0120274D02*
X0064598Y0120274D01*
X0064598Y0119475D02*
X0060773Y0119475D01*
X0061198Y0118677D02*
X0065171Y0118677D01*
X0066685Y0117878D02*
X0061529Y0117878D01*
X0061573Y0117080D02*
X0066689Y0117080D01*
X0067487Y0116281D02*
X0061573Y0116281D01*
X0060264Y0113886D02*
X0064926Y0113886D01*
X0064128Y0113087D02*
X0059059Y0113087D01*
X0057373Y0112288D02*
X0063732Y0112288D01*
X0063732Y0111490D02*
X0057373Y0111490D01*
X0059279Y0110691D02*
X0063825Y0110691D01*
X0064624Y0109893D02*
X0060355Y0109893D01*
X0061491Y0105900D02*
X0077020Y0105900D01*
X0076724Y0105102D02*
X0061160Y0105102D01*
X0060682Y0104303D02*
X0076724Y0104303D01*
X0076917Y0103505D02*
X0059883Y0103505D01*
X0057373Y0102706D02*
X0077716Y0102706D01*
X0077358Y0101908D02*
X0057373Y0101908D01*
X0058270Y0101109D02*
X0076560Y0101109D01*
X0076331Y0100311D02*
X0059937Y0100311D01*
X0060735Y0099512D02*
X0076331Y0099512D01*
X0076590Y0098714D02*
X0061182Y0098714D01*
X0061002Y0094721D02*
X0099938Y0094721D01*
X0099953Y0093923D02*
X0078444Y0093923D01*
X0078012Y0094355D02*
X0076105Y0094355D01*
X0075483Y0093734D01*
X0074862Y0094355D01*
X0072955Y0094355D01*
X0071606Y0093006D01*
X0071606Y0091099D01*
X0072681Y0090024D01*
X0071774Y0090024D01*
X0070425Y0088676D01*
X0070425Y0086768D01*
X0071774Y0085420D01*
X0072681Y0085420D01*
X0071606Y0084345D01*
X0071606Y0082438D01*
X0072955Y0081089D01*
X0074862Y0081089D01*
X0075287Y0081513D01*
X0076105Y0080695D01*
X0077876Y0080695D01*
X0079018Y0079554D01*
X0080925Y0079554D01*
X0082274Y0080902D01*
X0082274Y0081876D01*
X0082736Y0081876D01*
X0084085Y0083225D01*
X0084085Y0083739D01*
X0084766Y0083058D01*
X0086673Y0083058D01*
X0088022Y0084406D01*
X0088022Y0086314D01*
X0086673Y0087662D01*
X0084766Y0087662D01*
X0083417Y0086314D01*
X0083417Y0085800D01*
X0082736Y0086481D01*
X0080829Y0086481D01*
X0079480Y0085132D01*
X0079480Y0084158D01*
X0079154Y0084158D01*
X0078012Y0085300D01*
X0076105Y0085300D01*
X0075680Y0084876D01*
X0074862Y0085694D01*
X0073955Y0085694D01*
X0075030Y0086768D01*
X0075030Y0088676D01*
X0073955Y0089750D01*
X0074862Y0089750D01*
X0075483Y0090372D01*
X0076105Y0089750D01*
X0078012Y0089750D01*
X0079361Y0091099D01*
X0079361Y0093006D01*
X0078012Y0094355D01*
X0079243Y0093124D02*
X0100684Y0093124D01*
X0103827Y0093124D02*
X0111291Y0093124D01*
X0111291Y0092326D02*
X0079361Y0092326D01*
X0079361Y0091527D02*
X0111291Y0091527D01*
X0111291Y0090729D02*
X0078990Y0090729D01*
X0078192Y0089930D02*
X0111291Y0089930D01*
X0111291Y0089132D02*
X0074574Y0089132D01*
X0075030Y0088333D02*
X0111291Y0088333D01*
X0111291Y0087535D02*
X0086801Y0087535D01*
X0087599Y0086736D02*
X0111291Y0086736D01*
X0111291Y0085938D02*
X0088022Y0085938D01*
X0088022Y0085139D02*
X0111291Y0085139D01*
X0111291Y0084341D02*
X0096294Y0084341D01*
X0095728Y0084906D02*
X0093821Y0084906D01*
X0092472Y0083558D01*
X0092472Y0081650D01*
X0093821Y0080302D01*
X0095728Y0080302D01*
X0097077Y0081650D01*
X0097077Y0083558D01*
X0095728Y0084906D01*
X0097077Y0083542D02*
X0111291Y0083542D01*
X0111291Y0082744D02*
X0097077Y0082744D01*
X0097077Y0081945D02*
X0111291Y0081945D01*
X0111291Y0081147D02*
X0096573Y0081147D01*
X0095775Y0080348D02*
X0111291Y0080348D01*
X0111291Y0079550D02*
X0069780Y0079550D01*
X0070305Y0080076D02*
X0068957Y0078727D01*
X0067049Y0078727D01*
X0065701Y0080076D01*
X0065701Y0081983D01*
X0067049Y0083332D01*
X0068957Y0083332D01*
X0070305Y0081983D01*
X0070305Y0080076D01*
X0070305Y0080348D02*
X0078224Y0080348D01*
X0075653Y0081147D02*
X0074920Y0081147D01*
X0072897Y0081147D02*
X0070305Y0081147D01*
X0070305Y0081945D02*
X0072099Y0081945D01*
X0071606Y0082744D02*
X0069545Y0082744D01*
X0071256Y0085938D02*
X0061506Y0085938D01*
X0061573Y0086736D02*
X0070458Y0086736D01*
X0070425Y0087535D02*
X0061573Y0087535D01*
X0061340Y0088333D02*
X0070425Y0088333D01*
X0070881Y0089132D02*
X0061009Y0089132D01*
X0060317Y0089930D02*
X0071680Y0089930D01*
X0071977Y0090729D02*
X0059189Y0090729D01*
X0057373Y0091527D02*
X0071606Y0091527D01*
X0071606Y0092326D02*
X0057373Y0092326D01*
X0059149Y0093124D02*
X0071724Y0093124D01*
X0072523Y0093923D02*
X0060301Y0093923D01*
X0061175Y0085139D02*
X0072400Y0085139D01*
X0071606Y0084341D02*
X0060719Y0084341D01*
X0059920Y0083542D02*
X0071606Y0083542D01*
X0074199Y0085938D02*
X0080285Y0085938D01*
X0079487Y0085139D02*
X0078173Y0085139D01*
X0078971Y0084341D02*
X0079480Y0084341D01*
X0082274Y0081147D02*
X0092976Y0081147D01*
X0092472Y0081945D02*
X0082805Y0081945D01*
X0083603Y0082744D02*
X0092472Y0082744D01*
X0092472Y0083542D02*
X0087158Y0083542D01*
X0087956Y0084341D02*
X0093255Y0084341D01*
X0093775Y0080348D02*
X0081720Y0080348D01*
X0084085Y0083542D02*
X0084281Y0083542D01*
X0083417Y0085938D02*
X0083280Y0085938D01*
X0083840Y0086736D02*
X0074998Y0086736D01*
X0075030Y0087535D02*
X0084638Y0087535D01*
X0075944Y0085139D02*
X0075417Y0085139D01*
X0075042Y0089930D02*
X0075925Y0089930D01*
X0075672Y0093923D02*
X0075295Y0093923D01*
X0066461Y0082744D02*
X0058230Y0082744D01*
X0057373Y0081945D02*
X0065701Y0081945D01*
X0065701Y0081147D02*
X0057373Y0081147D01*
X0057373Y0080348D02*
X0065701Y0080348D01*
X0066227Y0079550D02*
X0057373Y0079550D01*
X0057373Y0078751D02*
X0067025Y0078751D01*
X0068981Y0078751D02*
X0111291Y0078751D01*
X0111291Y0077952D02*
X0057373Y0077952D01*
X0057373Y0077154D02*
X0111291Y0077154D01*
X0111291Y0076355D02*
X0057373Y0076355D01*
X0057373Y0075557D02*
X0111291Y0075557D01*
X0111291Y0074758D02*
X0110391Y0074758D01*
X0111243Y0073960D02*
X0111291Y0073960D01*
X0105852Y0074758D02*
X0064577Y0074758D01*
X0065187Y0074148D02*
X0063839Y0075497D01*
X0061931Y0075497D01*
X0060583Y0074148D01*
X0060583Y0072241D01*
X0061931Y0070892D01*
X0063839Y0070892D01*
X0065187Y0072241D01*
X0065187Y0074148D01*
X0065187Y0073960D02*
X0104999Y0073960D01*
X0104427Y0073161D02*
X0065187Y0073161D01*
X0065187Y0072363D02*
X0104097Y0072363D01*
X0103953Y0071564D02*
X0064511Y0071564D01*
X0061259Y0071564D02*
X0060203Y0071564D01*
X0060203Y0070766D02*
X0103953Y0070766D01*
X0104114Y0069967D02*
X0093187Y0069967D01*
X0092894Y0070261D02*
X0090986Y0070261D01*
X0089638Y0068912D01*
X0089638Y0067005D01*
X0090986Y0065656D01*
X0092894Y0065656D01*
X0094243Y0067005D01*
X0094243Y0068912D01*
X0092894Y0070261D01*
X0093986Y0069169D02*
X0104445Y0069169D01*
X0105042Y0068370D02*
X0094243Y0068370D01*
X0094243Y0067572D02*
X0100542Y0067572D01*
X0099743Y0066773D02*
X0094011Y0066773D01*
X0093213Y0065975D02*
X0099598Y0065975D01*
X0099598Y0065176D02*
X0072707Y0065176D01*
X0072707Y0065975D02*
X0090668Y0065975D01*
X0089869Y0066773D02*
X0072562Y0066773D01*
X0071764Y0067572D02*
X0089638Y0067572D01*
X0089638Y0068370D02*
X0059113Y0068370D01*
X0058694Y0067572D02*
X0060778Y0067572D01*
X0060150Y0066773D02*
X0059493Y0066773D01*
X0059868Y0065975D02*
X0060150Y0065975D01*
X0059711Y0069169D02*
X0089895Y0069169D01*
X0090693Y0069967D02*
X0060042Y0069967D01*
X0060059Y0072363D02*
X0060583Y0072363D01*
X0060583Y0073161D02*
X0059729Y0073161D01*
X0059157Y0073960D02*
X0060583Y0073960D01*
X0061193Y0074758D02*
X0058304Y0074758D01*
X0064126Y0067572D02*
X0064636Y0067572D01*
X0067354Y0067572D02*
X0069046Y0067572D01*
X0068247Y0066773D02*
X0068153Y0066773D01*
X0095640Y0064378D02*
X0099942Y0064378D01*
X0100740Y0063579D02*
X0096438Y0063579D01*
X0096581Y0062781D02*
X0104254Y0062781D01*
X0103953Y0063579D02*
X0103061Y0063579D01*
X0103860Y0064378D02*
X0103953Y0064378D01*
X0104203Y0065975D02*
X0104288Y0065975D01*
X0104058Y0066773D02*
X0104663Y0066773D01*
X0105462Y0067572D02*
X0103260Y0067572D01*
X0104584Y0061982D02*
X0096581Y0061982D01*
X0096581Y0061184D02*
X0105379Y0061184D01*
X0106767Y0060385D02*
X0096581Y0060385D01*
X0096581Y0059587D02*
X0111291Y0059587D01*
X0111291Y0060385D02*
X0109475Y0060385D01*
X0110864Y0061184D02*
X0111291Y0061184D01*
X0111291Y0058788D02*
X0096581Y0058788D01*
X0096581Y0057990D02*
X0111291Y0057990D01*
X0111291Y0057191D02*
X0096581Y0057191D01*
X0096581Y0056393D02*
X0111291Y0056393D01*
X0111291Y0093923D02*
X0104557Y0093923D01*
X0104557Y0094721D02*
X0111291Y0094721D01*
X0111291Y0095520D02*
X0104557Y0095520D01*
X0104002Y0096318D02*
X0111291Y0096318D01*
X0111291Y0097117D02*
X0102351Y0097117D01*
X0101553Y0097915D02*
X0111291Y0097915D01*
X0111291Y0098714D02*
X0100754Y0098714D01*
X0099956Y0099512D02*
X0111291Y0099512D01*
X0111291Y0100311D02*
X0111053Y0100311D01*
X0109048Y0100311D02*
X0099157Y0100311D01*
X0098359Y0101109D02*
X0104509Y0101109D01*
X0103711Y0101908D02*
X0097560Y0101908D01*
X0096762Y0102706D02*
X0103496Y0102706D01*
X0103496Y0103505D02*
X0091829Y0103505D01*
X0091031Y0104303D02*
X0103769Y0104303D01*
X0104568Y0105102D02*
X0090232Y0105102D01*
X0093824Y0109893D02*
X0094320Y0109893D01*
X0094321Y0110691D02*
X0103589Y0110691D01*
X0103532Y0109893D02*
X0096884Y0109893D01*
X0097682Y0109094D02*
X0103496Y0109094D01*
X0103496Y0108296D02*
X0097904Y0108296D01*
X0097904Y0107497D02*
X0103948Y0107497D01*
X0104747Y0106699D02*
X0097638Y0106699D01*
X0094321Y0111490D02*
X0103496Y0111490D01*
X0103496Y0112288D02*
X0094321Y0112288D01*
X0093532Y0113087D02*
X0103892Y0113087D01*
X0104690Y0113886D02*
X0090336Y0113886D01*
X0090384Y0114684D02*
X0090935Y0114684D01*
X0090506Y0113087D02*
X0089537Y0113087D01*
X0089717Y0112288D02*
X0086447Y0112288D01*
X0086447Y0113087D02*
X0086626Y0113087D01*
X0086366Y0111490D02*
X0089717Y0111490D01*
X0093103Y0114684D02*
X0105187Y0114684D01*
X0104677Y0115483D02*
X0093901Y0115483D01*
X0094321Y0116281D02*
X0104677Y0116281D01*
X0103342Y0117080D02*
X0094321Y0117080D01*
X0094253Y0117878D02*
X0102709Y0117878D01*
X0102709Y0118677D02*
X0093454Y0118677D01*
X0090583Y0118677D02*
X0085580Y0118677D01*
X0086379Y0117878D02*
X0089785Y0117878D01*
X0089717Y0117080D02*
X0089146Y0117080D01*
X0087018Y0117080D02*
X0086447Y0117080D01*
X0088142Y0126662D02*
X0067679Y0126662D01*
X0068337Y0127460D02*
X0088142Y0127460D01*
X0107087Y0101109D02*
X0108250Y0101109D01*
D16*
X0102255Y0094809D02*
X0095562Y0101502D01*
X0091428Y0101502D01*
X0071609Y0121321D01*
X0068019Y0121321D01*
X0066901Y0120202D01*
D17*
X0061704Y0062525D02*
X0094381Y0062525D01*
X0094381Y0056620D01*
X0088849Y0056620D01*
X0088400Y0056806D01*
X0087449Y0056806D01*
X0087000Y0056620D01*
X0080108Y0056620D01*
X0079660Y0056806D01*
X0078709Y0056806D01*
X0078260Y0056620D01*
X0072707Y0056620D01*
X0072258Y0056806D01*
X0071307Y0056806D01*
X0070859Y0056620D01*
X0065541Y0056620D01*
X0065093Y0056806D01*
X0064142Y0056806D01*
X0063693Y0056620D01*
X0061704Y0056620D01*
X0061704Y0062525D01*
X0061704Y0062393D02*
X0094381Y0062393D01*
X0094381Y0061194D02*
X0061704Y0061194D01*
X0061704Y0059996D02*
X0094381Y0059996D01*
X0094381Y0058797D02*
X0061704Y0058797D01*
X0061704Y0057599D02*
X0094381Y0057599D01*
M02*
