G75*
%MOIN*%
%OFA0B0*%
%FSLAX25Y25*%
%IPPOS*%
%LPD*%
%AMOC8*
5,1,8,0,0,1.08239X$1,22.5*
%
%ADD10C,0.00000*%
%ADD11C,0.00344*%
%ADD12R,0.21260X0.21260*%
%ADD13R,0.02362X0.02756*%
%ADD14R,0.03937X0.06693*%
%ADD15R,0.02756X0.02362*%
%ADD16C,0.07400*%
%ADD17R,0.02756X0.03543*%
%ADD18R,0.10630X0.10630*%
%ADD19R,0.07087X0.07087*%
%ADD20R,0.03150X0.04724*%
%ADD21OC8,0.03181*%
%ADD22R,0.03181X0.03181*%
%ADD23R,0.02283X0.04724*%
%ADD24R,0.07874X0.07874*%
%ADD25C,0.00600*%
%ADD26OC8,0.02205*%
%ADD27C,0.01000*%
%ADD28R,0.02205X0.02205*%
%ADD29C,0.01600*%
%ADD30C,0.01200*%
D10*
X0051468Y0044415D02*
X0112491Y0044415D01*
X0112491Y0087722D01*
X0112491Y0079848D02*
X0112491Y0138903D01*
X0051468Y0138903D01*
X0051468Y0044415D01*
X0056625Y0047013D02*
X0056627Y0047061D01*
X0056633Y0047109D01*
X0056643Y0047156D01*
X0056656Y0047202D01*
X0056674Y0047247D01*
X0056694Y0047291D01*
X0056719Y0047333D01*
X0056747Y0047372D01*
X0056777Y0047409D01*
X0056811Y0047443D01*
X0056848Y0047475D01*
X0056886Y0047504D01*
X0056927Y0047529D01*
X0056970Y0047551D01*
X0057015Y0047569D01*
X0057061Y0047583D01*
X0057108Y0047594D01*
X0057156Y0047601D01*
X0057204Y0047604D01*
X0057252Y0047603D01*
X0057300Y0047598D01*
X0057348Y0047589D01*
X0057394Y0047577D01*
X0057439Y0047560D01*
X0057483Y0047540D01*
X0057525Y0047517D01*
X0057565Y0047490D01*
X0057603Y0047460D01*
X0057638Y0047427D01*
X0057670Y0047391D01*
X0057700Y0047353D01*
X0057726Y0047312D01*
X0057748Y0047269D01*
X0057768Y0047225D01*
X0057783Y0047180D01*
X0057795Y0047133D01*
X0057803Y0047085D01*
X0057807Y0047037D01*
X0057807Y0046989D01*
X0057803Y0046941D01*
X0057795Y0046893D01*
X0057783Y0046846D01*
X0057768Y0046801D01*
X0057748Y0046757D01*
X0057726Y0046714D01*
X0057700Y0046673D01*
X0057670Y0046635D01*
X0057638Y0046599D01*
X0057603Y0046566D01*
X0057565Y0046536D01*
X0057525Y0046509D01*
X0057483Y0046486D01*
X0057439Y0046466D01*
X0057394Y0046449D01*
X0057348Y0046437D01*
X0057300Y0046428D01*
X0057252Y0046423D01*
X0057204Y0046422D01*
X0057156Y0046425D01*
X0057108Y0046432D01*
X0057061Y0046443D01*
X0057015Y0046457D01*
X0056970Y0046475D01*
X0056927Y0046497D01*
X0056886Y0046522D01*
X0056848Y0046551D01*
X0056811Y0046583D01*
X0056777Y0046617D01*
X0056747Y0046654D01*
X0056719Y0046693D01*
X0056694Y0046735D01*
X0056674Y0046779D01*
X0056656Y0046824D01*
X0056643Y0046870D01*
X0056633Y0046917D01*
X0056627Y0046965D01*
X0056625Y0047013D01*
X0056625Y0054415D02*
X0056627Y0054463D01*
X0056633Y0054511D01*
X0056643Y0054558D01*
X0056656Y0054604D01*
X0056674Y0054649D01*
X0056694Y0054693D01*
X0056719Y0054735D01*
X0056747Y0054774D01*
X0056777Y0054811D01*
X0056811Y0054845D01*
X0056848Y0054877D01*
X0056886Y0054906D01*
X0056927Y0054931D01*
X0056970Y0054953D01*
X0057015Y0054971D01*
X0057061Y0054985D01*
X0057108Y0054996D01*
X0057156Y0055003D01*
X0057204Y0055006D01*
X0057252Y0055005D01*
X0057300Y0055000D01*
X0057348Y0054991D01*
X0057394Y0054979D01*
X0057439Y0054962D01*
X0057483Y0054942D01*
X0057525Y0054919D01*
X0057565Y0054892D01*
X0057603Y0054862D01*
X0057638Y0054829D01*
X0057670Y0054793D01*
X0057700Y0054755D01*
X0057726Y0054714D01*
X0057748Y0054671D01*
X0057768Y0054627D01*
X0057783Y0054582D01*
X0057795Y0054535D01*
X0057803Y0054487D01*
X0057807Y0054439D01*
X0057807Y0054391D01*
X0057803Y0054343D01*
X0057795Y0054295D01*
X0057783Y0054248D01*
X0057768Y0054203D01*
X0057748Y0054159D01*
X0057726Y0054116D01*
X0057700Y0054075D01*
X0057670Y0054037D01*
X0057638Y0054001D01*
X0057603Y0053968D01*
X0057565Y0053938D01*
X0057525Y0053911D01*
X0057483Y0053888D01*
X0057439Y0053868D01*
X0057394Y0053851D01*
X0057348Y0053839D01*
X0057300Y0053830D01*
X0057252Y0053825D01*
X0057204Y0053824D01*
X0057156Y0053827D01*
X0057108Y0053834D01*
X0057061Y0053845D01*
X0057015Y0053859D01*
X0056970Y0053877D01*
X0056927Y0053899D01*
X0056886Y0053924D01*
X0056848Y0053953D01*
X0056811Y0053985D01*
X0056777Y0054019D01*
X0056747Y0054056D01*
X0056719Y0054095D01*
X0056694Y0054137D01*
X0056674Y0054181D01*
X0056656Y0054226D01*
X0056643Y0054272D01*
X0056633Y0054319D01*
X0056627Y0054367D01*
X0056625Y0054415D01*
X0064026Y0054415D02*
X0064028Y0054463D01*
X0064034Y0054511D01*
X0064044Y0054558D01*
X0064057Y0054604D01*
X0064075Y0054649D01*
X0064095Y0054693D01*
X0064120Y0054735D01*
X0064148Y0054774D01*
X0064178Y0054811D01*
X0064212Y0054845D01*
X0064249Y0054877D01*
X0064287Y0054906D01*
X0064328Y0054931D01*
X0064371Y0054953D01*
X0064416Y0054971D01*
X0064462Y0054985D01*
X0064509Y0054996D01*
X0064557Y0055003D01*
X0064605Y0055006D01*
X0064653Y0055005D01*
X0064701Y0055000D01*
X0064749Y0054991D01*
X0064795Y0054979D01*
X0064840Y0054962D01*
X0064884Y0054942D01*
X0064926Y0054919D01*
X0064966Y0054892D01*
X0065004Y0054862D01*
X0065039Y0054829D01*
X0065071Y0054793D01*
X0065101Y0054755D01*
X0065127Y0054714D01*
X0065149Y0054671D01*
X0065169Y0054627D01*
X0065184Y0054582D01*
X0065196Y0054535D01*
X0065204Y0054487D01*
X0065208Y0054439D01*
X0065208Y0054391D01*
X0065204Y0054343D01*
X0065196Y0054295D01*
X0065184Y0054248D01*
X0065169Y0054203D01*
X0065149Y0054159D01*
X0065127Y0054116D01*
X0065101Y0054075D01*
X0065071Y0054037D01*
X0065039Y0054001D01*
X0065004Y0053968D01*
X0064966Y0053938D01*
X0064926Y0053911D01*
X0064884Y0053888D01*
X0064840Y0053868D01*
X0064795Y0053851D01*
X0064749Y0053839D01*
X0064701Y0053830D01*
X0064653Y0053825D01*
X0064605Y0053824D01*
X0064557Y0053827D01*
X0064509Y0053834D01*
X0064462Y0053845D01*
X0064416Y0053859D01*
X0064371Y0053877D01*
X0064328Y0053899D01*
X0064287Y0053924D01*
X0064249Y0053953D01*
X0064212Y0053985D01*
X0064178Y0054019D01*
X0064148Y0054056D01*
X0064120Y0054095D01*
X0064095Y0054137D01*
X0064075Y0054181D01*
X0064057Y0054226D01*
X0064044Y0054272D01*
X0064034Y0054319D01*
X0064028Y0054367D01*
X0064026Y0054415D01*
X0064026Y0047013D02*
X0064028Y0047061D01*
X0064034Y0047109D01*
X0064044Y0047156D01*
X0064057Y0047202D01*
X0064075Y0047247D01*
X0064095Y0047291D01*
X0064120Y0047333D01*
X0064148Y0047372D01*
X0064178Y0047409D01*
X0064212Y0047443D01*
X0064249Y0047475D01*
X0064287Y0047504D01*
X0064328Y0047529D01*
X0064371Y0047551D01*
X0064416Y0047569D01*
X0064462Y0047583D01*
X0064509Y0047594D01*
X0064557Y0047601D01*
X0064605Y0047604D01*
X0064653Y0047603D01*
X0064701Y0047598D01*
X0064749Y0047589D01*
X0064795Y0047577D01*
X0064840Y0047560D01*
X0064884Y0047540D01*
X0064926Y0047517D01*
X0064966Y0047490D01*
X0065004Y0047460D01*
X0065039Y0047427D01*
X0065071Y0047391D01*
X0065101Y0047353D01*
X0065127Y0047312D01*
X0065149Y0047269D01*
X0065169Y0047225D01*
X0065184Y0047180D01*
X0065196Y0047133D01*
X0065204Y0047085D01*
X0065208Y0047037D01*
X0065208Y0046989D01*
X0065204Y0046941D01*
X0065196Y0046893D01*
X0065184Y0046846D01*
X0065169Y0046801D01*
X0065149Y0046757D01*
X0065127Y0046714D01*
X0065101Y0046673D01*
X0065071Y0046635D01*
X0065039Y0046599D01*
X0065004Y0046566D01*
X0064966Y0046536D01*
X0064926Y0046509D01*
X0064884Y0046486D01*
X0064840Y0046466D01*
X0064795Y0046449D01*
X0064749Y0046437D01*
X0064701Y0046428D01*
X0064653Y0046423D01*
X0064605Y0046422D01*
X0064557Y0046425D01*
X0064509Y0046432D01*
X0064462Y0046443D01*
X0064416Y0046457D01*
X0064371Y0046475D01*
X0064328Y0046497D01*
X0064287Y0046522D01*
X0064249Y0046551D01*
X0064212Y0046583D01*
X0064178Y0046617D01*
X0064148Y0046654D01*
X0064120Y0046693D01*
X0064095Y0046735D01*
X0064075Y0046779D01*
X0064057Y0046824D01*
X0064044Y0046870D01*
X0064034Y0046917D01*
X0064028Y0046965D01*
X0064026Y0047013D01*
X0071192Y0047013D02*
X0071194Y0047061D01*
X0071200Y0047109D01*
X0071210Y0047156D01*
X0071223Y0047202D01*
X0071241Y0047247D01*
X0071261Y0047291D01*
X0071286Y0047333D01*
X0071314Y0047372D01*
X0071344Y0047409D01*
X0071378Y0047443D01*
X0071415Y0047475D01*
X0071453Y0047504D01*
X0071494Y0047529D01*
X0071537Y0047551D01*
X0071582Y0047569D01*
X0071628Y0047583D01*
X0071675Y0047594D01*
X0071723Y0047601D01*
X0071771Y0047604D01*
X0071819Y0047603D01*
X0071867Y0047598D01*
X0071915Y0047589D01*
X0071961Y0047577D01*
X0072006Y0047560D01*
X0072050Y0047540D01*
X0072092Y0047517D01*
X0072132Y0047490D01*
X0072170Y0047460D01*
X0072205Y0047427D01*
X0072237Y0047391D01*
X0072267Y0047353D01*
X0072293Y0047312D01*
X0072315Y0047269D01*
X0072335Y0047225D01*
X0072350Y0047180D01*
X0072362Y0047133D01*
X0072370Y0047085D01*
X0072374Y0047037D01*
X0072374Y0046989D01*
X0072370Y0046941D01*
X0072362Y0046893D01*
X0072350Y0046846D01*
X0072335Y0046801D01*
X0072315Y0046757D01*
X0072293Y0046714D01*
X0072267Y0046673D01*
X0072237Y0046635D01*
X0072205Y0046599D01*
X0072170Y0046566D01*
X0072132Y0046536D01*
X0072092Y0046509D01*
X0072050Y0046486D01*
X0072006Y0046466D01*
X0071961Y0046449D01*
X0071915Y0046437D01*
X0071867Y0046428D01*
X0071819Y0046423D01*
X0071771Y0046422D01*
X0071723Y0046425D01*
X0071675Y0046432D01*
X0071628Y0046443D01*
X0071582Y0046457D01*
X0071537Y0046475D01*
X0071494Y0046497D01*
X0071453Y0046522D01*
X0071415Y0046551D01*
X0071378Y0046583D01*
X0071344Y0046617D01*
X0071314Y0046654D01*
X0071286Y0046693D01*
X0071261Y0046735D01*
X0071241Y0046779D01*
X0071223Y0046824D01*
X0071210Y0046870D01*
X0071200Y0046917D01*
X0071194Y0046965D01*
X0071192Y0047013D01*
X0071192Y0054415D02*
X0071194Y0054463D01*
X0071200Y0054511D01*
X0071210Y0054558D01*
X0071223Y0054604D01*
X0071241Y0054649D01*
X0071261Y0054693D01*
X0071286Y0054735D01*
X0071314Y0054774D01*
X0071344Y0054811D01*
X0071378Y0054845D01*
X0071415Y0054877D01*
X0071453Y0054906D01*
X0071494Y0054931D01*
X0071537Y0054953D01*
X0071582Y0054971D01*
X0071628Y0054985D01*
X0071675Y0054996D01*
X0071723Y0055003D01*
X0071771Y0055006D01*
X0071819Y0055005D01*
X0071867Y0055000D01*
X0071915Y0054991D01*
X0071961Y0054979D01*
X0072006Y0054962D01*
X0072050Y0054942D01*
X0072092Y0054919D01*
X0072132Y0054892D01*
X0072170Y0054862D01*
X0072205Y0054829D01*
X0072237Y0054793D01*
X0072267Y0054755D01*
X0072293Y0054714D01*
X0072315Y0054671D01*
X0072335Y0054627D01*
X0072350Y0054582D01*
X0072362Y0054535D01*
X0072370Y0054487D01*
X0072374Y0054439D01*
X0072374Y0054391D01*
X0072370Y0054343D01*
X0072362Y0054295D01*
X0072350Y0054248D01*
X0072335Y0054203D01*
X0072315Y0054159D01*
X0072293Y0054116D01*
X0072267Y0054075D01*
X0072237Y0054037D01*
X0072205Y0054001D01*
X0072170Y0053968D01*
X0072132Y0053938D01*
X0072092Y0053911D01*
X0072050Y0053888D01*
X0072006Y0053868D01*
X0071961Y0053851D01*
X0071915Y0053839D01*
X0071867Y0053830D01*
X0071819Y0053825D01*
X0071771Y0053824D01*
X0071723Y0053827D01*
X0071675Y0053834D01*
X0071628Y0053845D01*
X0071582Y0053859D01*
X0071537Y0053877D01*
X0071494Y0053899D01*
X0071453Y0053924D01*
X0071415Y0053953D01*
X0071378Y0053985D01*
X0071344Y0054019D01*
X0071314Y0054056D01*
X0071286Y0054095D01*
X0071261Y0054137D01*
X0071241Y0054181D01*
X0071223Y0054226D01*
X0071210Y0054272D01*
X0071200Y0054319D01*
X0071194Y0054367D01*
X0071192Y0054415D01*
X0078593Y0054415D02*
X0078595Y0054463D01*
X0078601Y0054511D01*
X0078611Y0054558D01*
X0078624Y0054604D01*
X0078642Y0054649D01*
X0078662Y0054693D01*
X0078687Y0054735D01*
X0078715Y0054774D01*
X0078745Y0054811D01*
X0078779Y0054845D01*
X0078816Y0054877D01*
X0078854Y0054906D01*
X0078895Y0054931D01*
X0078938Y0054953D01*
X0078983Y0054971D01*
X0079029Y0054985D01*
X0079076Y0054996D01*
X0079124Y0055003D01*
X0079172Y0055006D01*
X0079220Y0055005D01*
X0079268Y0055000D01*
X0079316Y0054991D01*
X0079362Y0054979D01*
X0079407Y0054962D01*
X0079451Y0054942D01*
X0079493Y0054919D01*
X0079533Y0054892D01*
X0079571Y0054862D01*
X0079606Y0054829D01*
X0079638Y0054793D01*
X0079668Y0054755D01*
X0079694Y0054714D01*
X0079716Y0054671D01*
X0079736Y0054627D01*
X0079751Y0054582D01*
X0079763Y0054535D01*
X0079771Y0054487D01*
X0079775Y0054439D01*
X0079775Y0054391D01*
X0079771Y0054343D01*
X0079763Y0054295D01*
X0079751Y0054248D01*
X0079736Y0054203D01*
X0079716Y0054159D01*
X0079694Y0054116D01*
X0079668Y0054075D01*
X0079638Y0054037D01*
X0079606Y0054001D01*
X0079571Y0053968D01*
X0079533Y0053938D01*
X0079493Y0053911D01*
X0079451Y0053888D01*
X0079407Y0053868D01*
X0079362Y0053851D01*
X0079316Y0053839D01*
X0079268Y0053830D01*
X0079220Y0053825D01*
X0079172Y0053824D01*
X0079124Y0053827D01*
X0079076Y0053834D01*
X0079029Y0053845D01*
X0078983Y0053859D01*
X0078938Y0053877D01*
X0078895Y0053899D01*
X0078854Y0053924D01*
X0078816Y0053953D01*
X0078779Y0053985D01*
X0078745Y0054019D01*
X0078715Y0054056D01*
X0078687Y0054095D01*
X0078662Y0054137D01*
X0078642Y0054181D01*
X0078624Y0054226D01*
X0078611Y0054272D01*
X0078601Y0054319D01*
X0078595Y0054367D01*
X0078593Y0054415D01*
X0078593Y0047013D02*
X0078595Y0047061D01*
X0078601Y0047109D01*
X0078611Y0047156D01*
X0078624Y0047202D01*
X0078642Y0047247D01*
X0078662Y0047291D01*
X0078687Y0047333D01*
X0078715Y0047372D01*
X0078745Y0047409D01*
X0078779Y0047443D01*
X0078816Y0047475D01*
X0078854Y0047504D01*
X0078895Y0047529D01*
X0078938Y0047551D01*
X0078983Y0047569D01*
X0079029Y0047583D01*
X0079076Y0047594D01*
X0079124Y0047601D01*
X0079172Y0047604D01*
X0079220Y0047603D01*
X0079268Y0047598D01*
X0079316Y0047589D01*
X0079362Y0047577D01*
X0079407Y0047560D01*
X0079451Y0047540D01*
X0079493Y0047517D01*
X0079533Y0047490D01*
X0079571Y0047460D01*
X0079606Y0047427D01*
X0079638Y0047391D01*
X0079668Y0047353D01*
X0079694Y0047312D01*
X0079716Y0047269D01*
X0079736Y0047225D01*
X0079751Y0047180D01*
X0079763Y0047133D01*
X0079771Y0047085D01*
X0079775Y0047037D01*
X0079775Y0046989D01*
X0079771Y0046941D01*
X0079763Y0046893D01*
X0079751Y0046846D01*
X0079736Y0046801D01*
X0079716Y0046757D01*
X0079694Y0046714D01*
X0079668Y0046673D01*
X0079638Y0046635D01*
X0079606Y0046599D01*
X0079571Y0046566D01*
X0079533Y0046536D01*
X0079493Y0046509D01*
X0079451Y0046486D01*
X0079407Y0046466D01*
X0079362Y0046449D01*
X0079316Y0046437D01*
X0079268Y0046428D01*
X0079220Y0046423D01*
X0079172Y0046422D01*
X0079124Y0046425D01*
X0079076Y0046432D01*
X0079029Y0046443D01*
X0078983Y0046457D01*
X0078938Y0046475D01*
X0078895Y0046497D01*
X0078854Y0046522D01*
X0078816Y0046551D01*
X0078779Y0046583D01*
X0078745Y0046617D01*
X0078715Y0046654D01*
X0078687Y0046693D01*
X0078662Y0046735D01*
X0078642Y0046779D01*
X0078624Y0046824D01*
X0078611Y0046870D01*
X0078601Y0046917D01*
X0078595Y0046965D01*
X0078593Y0047013D01*
X0087333Y0047013D02*
X0087335Y0047061D01*
X0087341Y0047109D01*
X0087351Y0047156D01*
X0087364Y0047202D01*
X0087382Y0047247D01*
X0087402Y0047291D01*
X0087427Y0047333D01*
X0087455Y0047372D01*
X0087485Y0047409D01*
X0087519Y0047443D01*
X0087556Y0047475D01*
X0087594Y0047504D01*
X0087635Y0047529D01*
X0087678Y0047551D01*
X0087723Y0047569D01*
X0087769Y0047583D01*
X0087816Y0047594D01*
X0087864Y0047601D01*
X0087912Y0047604D01*
X0087960Y0047603D01*
X0088008Y0047598D01*
X0088056Y0047589D01*
X0088102Y0047577D01*
X0088147Y0047560D01*
X0088191Y0047540D01*
X0088233Y0047517D01*
X0088273Y0047490D01*
X0088311Y0047460D01*
X0088346Y0047427D01*
X0088378Y0047391D01*
X0088408Y0047353D01*
X0088434Y0047312D01*
X0088456Y0047269D01*
X0088476Y0047225D01*
X0088491Y0047180D01*
X0088503Y0047133D01*
X0088511Y0047085D01*
X0088515Y0047037D01*
X0088515Y0046989D01*
X0088511Y0046941D01*
X0088503Y0046893D01*
X0088491Y0046846D01*
X0088476Y0046801D01*
X0088456Y0046757D01*
X0088434Y0046714D01*
X0088408Y0046673D01*
X0088378Y0046635D01*
X0088346Y0046599D01*
X0088311Y0046566D01*
X0088273Y0046536D01*
X0088233Y0046509D01*
X0088191Y0046486D01*
X0088147Y0046466D01*
X0088102Y0046449D01*
X0088056Y0046437D01*
X0088008Y0046428D01*
X0087960Y0046423D01*
X0087912Y0046422D01*
X0087864Y0046425D01*
X0087816Y0046432D01*
X0087769Y0046443D01*
X0087723Y0046457D01*
X0087678Y0046475D01*
X0087635Y0046497D01*
X0087594Y0046522D01*
X0087556Y0046551D01*
X0087519Y0046583D01*
X0087485Y0046617D01*
X0087455Y0046654D01*
X0087427Y0046693D01*
X0087402Y0046735D01*
X0087382Y0046779D01*
X0087364Y0046824D01*
X0087351Y0046870D01*
X0087341Y0046917D01*
X0087335Y0046965D01*
X0087333Y0047013D01*
X0087333Y0054415D02*
X0087335Y0054463D01*
X0087341Y0054511D01*
X0087351Y0054558D01*
X0087364Y0054604D01*
X0087382Y0054649D01*
X0087402Y0054693D01*
X0087427Y0054735D01*
X0087455Y0054774D01*
X0087485Y0054811D01*
X0087519Y0054845D01*
X0087556Y0054877D01*
X0087594Y0054906D01*
X0087635Y0054931D01*
X0087678Y0054953D01*
X0087723Y0054971D01*
X0087769Y0054985D01*
X0087816Y0054996D01*
X0087864Y0055003D01*
X0087912Y0055006D01*
X0087960Y0055005D01*
X0088008Y0055000D01*
X0088056Y0054991D01*
X0088102Y0054979D01*
X0088147Y0054962D01*
X0088191Y0054942D01*
X0088233Y0054919D01*
X0088273Y0054892D01*
X0088311Y0054862D01*
X0088346Y0054829D01*
X0088378Y0054793D01*
X0088408Y0054755D01*
X0088434Y0054714D01*
X0088456Y0054671D01*
X0088476Y0054627D01*
X0088491Y0054582D01*
X0088503Y0054535D01*
X0088511Y0054487D01*
X0088515Y0054439D01*
X0088515Y0054391D01*
X0088511Y0054343D01*
X0088503Y0054295D01*
X0088491Y0054248D01*
X0088476Y0054203D01*
X0088456Y0054159D01*
X0088434Y0054116D01*
X0088408Y0054075D01*
X0088378Y0054037D01*
X0088346Y0054001D01*
X0088311Y0053968D01*
X0088273Y0053938D01*
X0088233Y0053911D01*
X0088191Y0053888D01*
X0088147Y0053868D01*
X0088102Y0053851D01*
X0088056Y0053839D01*
X0088008Y0053830D01*
X0087960Y0053825D01*
X0087912Y0053824D01*
X0087864Y0053827D01*
X0087816Y0053834D01*
X0087769Y0053845D01*
X0087723Y0053859D01*
X0087678Y0053877D01*
X0087635Y0053899D01*
X0087594Y0053924D01*
X0087556Y0053953D01*
X0087519Y0053985D01*
X0087485Y0054019D01*
X0087455Y0054056D01*
X0087427Y0054095D01*
X0087402Y0054137D01*
X0087382Y0054181D01*
X0087364Y0054226D01*
X0087351Y0054272D01*
X0087341Y0054319D01*
X0087335Y0054367D01*
X0087333Y0054415D01*
X0094735Y0054415D02*
X0094737Y0054463D01*
X0094743Y0054511D01*
X0094753Y0054558D01*
X0094766Y0054604D01*
X0094784Y0054649D01*
X0094804Y0054693D01*
X0094829Y0054735D01*
X0094857Y0054774D01*
X0094887Y0054811D01*
X0094921Y0054845D01*
X0094958Y0054877D01*
X0094996Y0054906D01*
X0095037Y0054931D01*
X0095080Y0054953D01*
X0095125Y0054971D01*
X0095171Y0054985D01*
X0095218Y0054996D01*
X0095266Y0055003D01*
X0095314Y0055006D01*
X0095362Y0055005D01*
X0095410Y0055000D01*
X0095458Y0054991D01*
X0095504Y0054979D01*
X0095549Y0054962D01*
X0095593Y0054942D01*
X0095635Y0054919D01*
X0095675Y0054892D01*
X0095713Y0054862D01*
X0095748Y0054829D01*
X0095780Y0054793D01*
X0095810Y0054755D01*
X0095836Y0054714D01*
X0095858Y0054671D01*
X0095878Y0054627D01*
X0095893Y0054582D01*
X0095905Y0054535D01*
X0095913Y0054487D01*
X0095917Y0054439D01*
X0095917Y0054391D01*
X0095913Y0054343D01*
X0095905Y0054295D01*
X0095893Y0054248D01*
X0095878Y0054203D01*
X0095858Y0054159D01*
X0095836Y0054116D01*
X0095810Y0054075D01*
X0095780Y0054037D01*
X0095748Y0054001D01*
X0095713Y0053968D01*
X0095675Y0053938D01*
X0095635Y0053911D01*
X0095593Y0053888D01*
X0095549Y0053868D01*
X0095504Y0053851D01*
X0095458Y0053839D01*
X0095410Y0053830D01*
X0095362Y0053825D01*
X0095314Y0053824D01*
X0095266Y0053827D01*
X0095218Y0053834D01*
X0095171Y0053845D01*
X0095125Y0053859D01*
X0095080Y0053877D01*
X0095037Y0053899D01*
X0094996Y0053924D01*
X0094958Y0053953D01*
X0094921Y0053985D01*
X0094887Y0054019D01*
X0094857Y0054056D01*
X0094829Y0054095D01*
X0094804Y0054137D01*
X0094784Y0054181D01*
X0094766Y0054226D01*
X0094753Y0054272D01*
X0094743Y0054319D01*
X0094737Y0054367D01*
X0094735Y0054415D01*
X0094735Y0047013D02*
X0094737Y0047061D01*
X0094743Y0047109D01*
X0094753Y0047156D01*
X0094766Y0047202D01*
X0094784Y0047247D01*
X0094804Y0047291D01*
X0094829Y0047333D01*
X0094857Y0047372D01*
X0094887Y0047409D01*
X0094921Y0047443D01*
X0094958Y0047475D01*
X0094996Y0047504D01*
X0095037Y0047529D01*
X0095080Y0047551D01*
X0095125Y0047569D01*
X0095171Y0047583D01*
X0095218Y0047594D01*
X0095266Y0047601D01*
X0095314Y0047604D01*
X0095362Y0047603D01*
X0095410Y0047598D01*
X0095458Y0047589D01*
X0095504Y0047577D01*
X0095549Y0047560D01*
X0095593Y0047540D01*
X0095635Y0047517D01*
X0095675Y0047490D01*
X0095713Y0047460D01*
X0095748Y0047427D01*
X0095780Y0047391D01*
X0095810Y0047353D01*
X0095836Y0047312D01*
X0095858Y0047269D01*
X0095878Y0047225D01*
X0095893Y0047180D01*
X0095905Y0047133D01*
X0095913Y0047085D01*
X0095917Y0047037D01*
X0095917Y0046989D01*
X0095913Y0046941D01*
X0095905Y0046893D01*
X0095893Y0046846D01*
X0095878Y0046801D01*
X0095858Y0046757D01*
X0095836Y0046714D01*
X0095810Y0046673D01*
X0095780Y0046635D01*
X0095748Y0046599D01*
X0095713Y0046566D01*
X0095675Y0046536D01*
X0095635Y0046509D01*
X0095593Y0046486D01*
X0095549Y0046466D01*
X0095504Y0046449D01*
X0095458Y0046437D01*
X0095410Y0046428D01*
X0095362Y0046423D01*
X0095314Y0046422D01*
X0095266Y0046425D01*
X0095218Y0046432D01*
X0095171Y0046443D01*
X0095125Y0046457D01*
X0095080Y0046475D01*
X0095037Y0046497D01*
X0094996Y0046522D01*
X0094958Y0046551D01*
X0094921Y0046583D01*
X0094887Y0046617D01*
X0094857Y0046654D01*
X0094829Y0046693D01*
X0094804Y0046735D01*
X0094784Y0046779D01*
X0094766Y0046824D01*
X0094753Y0046870D01*
X0094743Y0046917D01*
X0094737Y0046965D01*
X0094735Y0047013D01*
X0101900Y0047013D02*
X0101902Y0047061D01*
X0101908Y0047109D01*
X0101918Y0047156D01*
X0101931Y0047202D01*
X0101949Y0047247D01*
X0101969Y0047291D01*
X0101994Y0047333D01*
X0102022Y0047372D01*
X0102052Y0047409D01*
X0102086Y0047443D01*
X0102123Y0047475D01*
X0102161Y0047504D01*
X0102202Y0047529D01*
X0102245Y0047551D01*
X0102290Y0047569D01*
X0102336Y0047583D01*
X0102383Y0047594D01*
X0102431Y0047601D01*
X0102479Y0047604D01*
X0102527Y0047603D01*
X0102575Y0047598D01*
X0102623Y0047589D01*
X0102669Y0047577D01*
X0102714Y0047560D01*
X0102758Y0047540D01*
X0102800Y0047517D01*
X0102840Y0047490D01*
X0102878Y0047460D01*
X0102913Y0047427D01*
X0102945Y0047391D01*
X0102975Y0047353D01*
X0103001Y0047312D01*
X0103023Y0047269D01*
X0103043Y0047225D01*
X0103058Y0047180D01*
X0103070Y0047133D01*
X0103078Y0047085D01*
X0103082Y0047037D01*
X0103082Y0046989D01*
X0103078Y0046941D01*
X0103070Y0046893D01*
X0103058Y0046846D01*
X0103043Y0046801D01*
X0103023Y0046757D01*
X0103001Y0046714D01*
X0102975Y0046673D01*
X0102945Y0046635D01*
X0102913Y0046599D01*
X0102878Y0046566D01*
X0102840Y0046536D01*
X0102800Y0046509D01*
X0102758Y0046486D01*
X0102714Y0046466D01*
X0102669Y0046449D01*
X0102623Y0046437D01*
X0102575Y0046428D01*
X0102527Y0046423D01*
X0102479Y0046422D01*
X0102431Y0046425D01*
X0102383Y0046432D01*
X0102336Y0046443D01*
X0102290Y0046457D01*
X0102245Y0046475D01*
X0102202Y0046497D01*
X0102161Y0046522D01*
X0102123Y0046551D01*
X0102086Y0046583D01*
X0102052Y0046617D01*
X0102022Y0046654D01*
X0101994Y0046693D01*
X0101969Y0046735D01*
X0101949Y0046779D01*
X0101931Y0046824D01*
X0101918Y0046870D01*
X0101908Y0046917D01*
X0101902Y0046965D01*
X0101900Y0047013D01*
X0101900Y0054415D02*
X0101902Y0054463D01*
X0101908Y0054511D01*
X0101918Y0054558D01*
X0101931Y0054604D01*
X0101949Y0054649D01*
X0101969Y0054693D01*
X0101994Y0054735D01*
X0102022Y0054774D01*
X0102052Y0054811D01*
X0102086Y0054845D01*
X0102123Y0054877D01*
X0102161Y0054906D01*
X0102202Y0054931D01*
X0102245Y0054953D01*
X0102290Y0054971D01*
X0102336Y0054985D01*
X0102383Y0054996D01*
X0102431Y0055003D01*
X0102479Y0055006D01*
X0102527Y0055005D01*
X0102575Y0055000D01*
X0102623Y0054991D01*
X0102669Y0054979D01*
X0102714Y0054962D01*
X0102758Y0054942D01*
X0102800Y0054919D01*
X0102840Y0054892D01*
X0102878Y0054862D01*
X0102913Y0054829D01*
X0102945Y0054793D01*
X0102975Y0054755D01*
X0103001Y0054714D01*
X0103023Y0054671D01*
X0103043Y0054627D01*
X0103058Y0054582D01*
X0103070Y0054535D01*
X0103078Y0054487D01*
X0103082Y0054439D01*
X0103082Y0054391D01*
X0103078Y0054343D01*
X0103070Y0054295D01*
X0103058Y0054248D01*
X0103043Y0054203D01*
X0103023Y0054159D01*
X0103001Y0054116D01*
X0102975Y0054075D01*
X0102945Y0054037D01*
X0102913Y0054001D01*
X0102878Y0053968D01*
X0102840Y0053938D01*
X0102800Y0053911D01*
X0102758Y0053888D01*
X0102714Y0053868D01*
X0102669Y0053851D01*
X0102623Y0053839D01*
X0102575Y0053830D01*
X0102527Y0053825D01*
X0102479Y0053824D01*
X0102431Y0053827D01*
X0102383Y0053834D01*
X0102336Y0053845D01*
X0102290Y0053859D01*
X0102245Y0053877D01*
X0102202Y0053899D01*
X0102161Y0053924D01*
X0102123Y0053953D01*
X0102086Y0053985D01*
X0102052Y0054019D01*
X0102022Y0054056D01*
X0101994Y0054095D01*
X0101969Y0054137D01*
X0101949Y0054181D01*
X0101931Y0054226D01*
X0101918Y0054272D01*
X0101908Y0054319D01*
X0101902Y0054367D01*
X0101900Y0054415D01*
X0109302Y0054415D02*
X0109304Y0054463D01*
X0109310Y0054511D01*
X0109320Y0054558D01*
X0109333Y0054604D01*
X0109351Y0054649D01*
X0109371Y0054693D01*
X0109396Y0054735D01*
X0109424Y0054774D01*
X0109454Y0054811D01*
X0109488Y0054845D01*
X0109525Y0054877D01*
X0109563Y0054906D01*
X0109604Y0054931D01*
X0109647Y0054953D01*
X0109692Y0054971D01*
X0109738Y0054985D01*
X0109785Y0054996D01*
X0109833Y0055003D01*
X0109881Y0055006D01*
X0109929Y0055005D01*
X0109977Y0055000D01*
X0110025Y0054991D01*
X0110071Y0054979D01*
X0110116Y0054962D01*
X0110160Y0054942D01*
X0110202Y0054919D01*
X0110242Y0054892D01*
X0110280Y0054862D01*
X0110315Y0054829D01*
X0110347Y0054793D01*
X0110377Y0054755D01*
X0110403Y0054714D01*
X0110425Y0054671D01*
X0110445Y0054627D01*
X0110460Y0054582D01*
X0110472Y0054535D01*
X0110480Y0054487D01*
X0110484Y0054439D01*
X0110484Y0054391D01*
X0110480Y0054343D01*
X0110472Y0054295D01*
X0110460Y0054248D01*
X0110445Y0054203D01*
X0110425Y0054159D01*
X0110403Y0054116D01*
X0110377Y0054075D01*
X0110347Y0054037D01*
X0110315Y0054001D01*
X0110280Y0053968D01*
X0110242Y0053938D01*
X0110202Y0053911D01*
X0110160Y0053888D01*
X0110116Y0053868D01*
X0110071Y0053851D01*
X0110025Y0053839D01*
X0109977Y0053830D01*
X0109929Y0053825D01*
X0109881Y0053824D01*
X0109833Y0053827D01*
X0109785Y0053834D01*
X0109738Y0053845D01*
X0109692Y0053859D01*
X0109647Y0053877D01*
X0109604Y0053899D01*
X0109563Y0053924D01*
X0109525Y0053953D01*
X0109488Y0053985D01*
X0109454Y0054019D01*
X0109424Y0054056D01*
X0109396Y0054095D01*
X0109371Y0054137D01*
X0109351Y0054181D01*
X0109333Y0054226D01*
X0109320Y0054272D01*
X0109310Y0054319D01*
X0109304Y0054367D01*
X0109302Y0054415D01*
X0109302Y0047013D02*
X0109304Y0047061D01*
X0109310Y0047109D01*
X0109320Y0047156D01*
X0109333Y0047202D01*
X0109351Y0047247D01*
X0109371Y0047291D01*
X0109396Y0047333D01*
X0109424Y0047372D01*
X0109454Y0047409D01*
X0109488Y0047443D01*
X0109525Y0047475D01*
X0109563Y0047504D01*
X0109604Y0047529D01*
X0109647Y0047551D01*
X0109692Y0047569D01*
X0109738Y0047583D01*
X0109785Y0047594D01*
X0109833Y0047601D01*
X0109881Y0047604D01*
X0109929Y0047603D01*
X0109977Y0047598D01*
X0110025Y0047589D01*
X0110071Y0047577D01*
X0110116Y0047560D01*
X0110160Y0047540D01*
X0110202Y0047517D01*
X0110242Y0047490D01*
X0110280Y0047460D01*
X0110315Y0047427D01*
X0110347Y0047391D01*
X0110377Y0047353D01*
X0110403Y0047312D01*
X0110425Y0047269D01*
X0110445Y0047225D01*
X0110460Y0047180D01*
X0110472Y0047133D01*
X0110480Y0047085D01*
X0110484Y0047037D01*
X0110484Y0046989D01*
X0110480Y0046941D01*
X0110472Y0046893D01*
X0110460Y0046846D01*
X0110445Y0046801D01*
X0110425Y0046757D01*
X0110403Y0046714D01*
X0110377Y0046673D01*
X0110347Y0046635D01*
X0110315Y0046599D01*
X0110280Y0046566D01*
X0110242Y0046536D01*
X0110202Y0046509D01*
X0110160Y0046486D01*
X0110116Y0046466D01*
X0110071Y0046449D01*
X0110025Y0046437D01*
X0109977Y0046428D01*
X0109929Y0046423D01*
X0109881Y0046422D01*
X0109833Y0046425D01*
X0109785Y0046432D01*
X0109738Y0046443D01*
X0109692Y0046457D01*
X0109647Y0046475D01*
X0109604Y0046497D01*
X0109563Y0046522D01*
X0109525Y0046551D01*
X0109488Y0046583D01*
X0109454Y0046617D01*
X0109424Y0046654D01*
X0109396Y0046693D01*
X0109371Y0046735D01*
X0109351Y0046779D01*
X0109333Y0046824D01*
X0109320Y0046870D01*
X0109310Y0046917D01*
X0109304Y0046965D01*
X0109302Y0047013D01*
D11*
X0096423Y0097776D02*
X0096423Y0099204D01*
X0097457Y0099204D01*
X0097457Y0097776D01*
X0096423Y0097776D01*
X0096423Y0098119D02*
X0097457Y0098119D01*
X0097457Y0098462D02*
X0096423Y0098462D01*
X0096423Y0098805D02*
X0097457Y0098805D01*
X0097457Y0099148D02*
X0096423Y0099148D01*
X0094455Y0099204D02*
X0094455Y0097776D01*
X0094455Y0099204D02*
X0095489Y0099204D01*
X0095489Y0097776D01*
X0094455Y0097776D01*
X0094455Y0098119D02*
X0095489Y0098119D01*
X0095489Y0098462D02*
X0094455Y0098462D01*
X0094455Y0098805D02*
X0095489Y0098805D01*
X0095489Y0099148D02*
X0094455Y0099148D01*
X0092486Y0099204D02*
X0092486Y0097776D01*
X0092486Y0099204D02*
X0093520Y0099204D01*
X0093520Y0097776D01*
X0092486Y0097776D01*
X0092486Y0098119D02*
X0093520Y0098119D01*
X0093520Y0098462D02*
X0092486Y0098462D01*
X0092486Y0098805D02*
X0093520Y0098805D01*
X0093520Y0099148D02*
X0092486Y0099148D01*
X0090518Y0099204D02*
X0090518Y0097776D01*
X0090518Y0099204D02*
X0091552Y0099204D01*
X0091552Y0097776D01*
X0090518Y0097776D01*
X0090518Y0098119D02*
X0091552Y0098119D01*
X0091552Y0098462D02*
X0090518Y0098462D01*
X0090518Y0098805D02*
X0091552Y0098805D01*
X0091552Y0099148D02*
X0090518Y0099148D01*
X0088549Y0099204D02*
X0088549Y0097776D01*
X0088549Y0099204D02*
X0089583Y0099204D01*
X0089583Y0097776D01*
X0088549Y0097776D01*
X0088549Y0098119D02*
X0089583Y0098119D01*
X0089583Y0098462D02*
X0088549Y0098462D01*
X0088549Y0098805D02*
X0089583Y0098805D01*
X0089583Y0099148D02*
X0088549Y0099148D01*
X0086581Y0099204D02*
X0086581Y0097776D01*
X0086581Y0099204D02*
X0087615Y0099204D01*
X0087615Y0097776D01*
X0086581Y0097776D01*
X0086581Y0098119D02*
X0087615Y0098119D01*
X0087615Y0098462D02*
X0086581Y0098462D01*
X0086581Y0098805D02*
X0087615Y0098805D01*
X0087615Y0099148D02*
X0086581Y0099148D01*
X0084612Y0099204D02*
X0084612Y0097776D01*
X0084612Y0099204D02*
X0085646Y0099204D01*
X0085646Y0097776D01*
X0084612Y0097776D01*
X0084612Y0098119D02*
X0085646Y0098119D01*
X0085646Y0098462D02*
X0084612Y0098462D01*
X0084612Y0098805D02*
X0085646Y0098805D01*
X0085646Y0099148D02*
X0084612Y0099148D01*
X0082644Y0099204D02*
X0082644Y0097776D01*
X0082644Y0099204D02*
X0083678Y0099204D01*
X0083678Y0097776D01*
X0082644Y0097776D01*
X0082644Y0098119D02*
X0083678Y0098119D01*
X0083678Y0098462D02*
X0082644Y0098462D01*
X0082644Y0098805D02*
X0083678Y0098805D01*
X0083678Y0099148D02*
X0082644Y0099148D01*
X0080675Y0099204D02*
X0080675Y0097776D01*
X0080675Y0099204D02*
X0081709Y0099204D01*
X0081709Y0097776D01*
X0080675Y0097776D01*
X0080675Y0098119D02*
X0081709Y0098119D01*
X0081709Y0098462D02*
X0080675Y0098462D01*
X0080675Y0098805D02*
X0081709Y0098805D01*
X0081709Y0099148D02*
X0080675Y0099148D01*
X0078707Y0099204D02*
X0078707Y0097776D01*
X0078707Y0099204D02*
X0079741Y0099204D01*
X0079741Y0097776D01*
X0078707Y0097776D01*
X0078707Y0098119D02*
X0079741Y0098119D01*
X0079741Y0098462D02*
X0078707Y0098462D01*
X0078707Y0098805D02*
X0079741Y0098805D01*
X0079741Y0099148D02*
X0078707Y0099148D01*
X0076738Y0099204D02*
X0076738Y0097776D01*
X0076738Y0099204D02*
X0077772Y0099204D01*
X0077772Y0097776D01*
X0076738Y0097776D01*
X0076738Y0098119D02*
X0077772Y0098119D01*
X0077772Y0098462D02*
X0076738Y0098462D01*
X0076738Y0098805D02*
X0077772Y0098805D01*
X0077772Y0099148D02*
X0076738Y0099148D01*
X0074770Y0099204D02*
X0074770Y0097776D01*
X0074770Y0099204D02*
X0075804Y0099204D01*
X0075804Y0097776D01*
X0074770Y0097776D01*
X0074770Y0098119D02*
X0075804Y0098119D01*
X0075804Y0098462D02*
X0074770Y0098462D01*
X0074770Y0098805D02*
X0075804Y0098805D01*
X0075804Y0099148D02*
X0074770Y0099148D01*
X0073973Y0101034D02*
X0072545Y0101034D01*
X0073973Y0101034D02*
X0073973Y0100000D01*
X0072545Y0100000D01*
X0072545Y0101034D01*
X0072545Y0100343D02*
X0073973Y0100343D01*
X0073973Y0100686D02*
X0072545Y0100686D01*
X0072545Y0101029D02*
X0073973Y0101029D01*
X0073973Y0103003D02*
X0072545Y0103003D01*
X0073973Y0103003D02*
X0073973Y0101969D01*
X0072545Y0101969D01*
X0072545Y0103003D01*
X0072545Y0102312D02*
X0073973Y0102312D01*
X0073973Y0102655D02*
X0072545Y0102655D01*
X0072545Y0102998D02*
X0073973Y0102998D01*
X0073973Y0104971D02*
X0072545Y0104971D01*
X0073973Y0104971D02*
X0073973Y0103937D01*
X0072545Y0103937D01*
X0072545Y0104971D01*
X0072545Y0104280D02*
X0073973Y0104280D01*
X0073973Y0104623D02*
X0072545Y0104623D01*
X0072545Y0104966D02*
X0073973Y0104966D01*
X0073973Y0106940D02*
X0072545Y0106940D01*
X0073973Y0106940D02*
X0073973Y0105906D01*
X0072545Y0105906D01*
X0072545Y0106940D01*
X0072545Y0106249D02*
X0073973Y0106249D01*
X0073973Y0106592D02*
X0072545Y0106592D01*
X0072545Y0106935D02*
X0073973Y0106935D01*
X0073973Y0108908D02*
X0072545Y0108908D01*
X0073973Y0108908D02*
X0073973Y0107874D01*
X0072545Y0107874D01*
X0072545Y0108908D01*
X0072545Y0108217D02*
X0073973Y0108217D01*
X0073973Y0108560D02*
X0072545Y0108560D01*
X0072545Y0108903D02*
X0073973Y0108903D01*
X0073973Y0110877D02*
X0072545Y0110877D01*
X0073973Y0110877D02*
X0073973Y0109843D01*
X0072545Y0109843D01*
X0072545Y0110877D01*
X0072545Y0110186D02*
X0073973Y0110186D01*
X0073973Y0110529D02*
X0072545Y0110529D01*
X0072545Y0110872D02*
X0073973Y0110872D01*
X0073973Y0112845D02*
X0072545Y0112845D01*
X0073973Y0112845D02*
X0073973Y0111811D01*
X0072545Y0111811D01*
X0072545Y0112845D01*
X0072545Y0112154D02*
X0073973Y0112154D01*
X0073973Y0112497D02*
X0072545Y0112497D01*
X0072545Y0112840D02*
X0073973Y0112840D01*
X0073973Y0114814D02*
X0072545Y0114814D01*
X0073973Y0114814D02*
X0073973Y0113780D01*
X0072545Y0113780D01*
X0072545Y0114814D01*
X0072545Y0114123D02*
X0073973Y0114123D01*
X0073973Y0114466D02*
X0072545Y0114466D01*
X0072545Y0114809D02*
X0073973Y0114809D01*
X0073973Y0116782D02*
X0072545Y0116782D01*
X0073973Y0116782D02*
X0073973Y0115748D01*
X0072545Y0115748D01*
X0072545Y0116782D01*
X0072545Y0116091D02*
X0073973Y0116091D01*
X0073973Y0116434D02*
X0072545Y0116434D01*
X0072545Y0116777D02*
X0073973Y0116777D01*
X0073973Y0118751D02*
X0072545Y0118751D01*
X0073973Y0118751D02*
X0073973Y0117717D01*
X0072545Y0117717D01*
X0072545Y0118751D01*
X0072545Y0118060D02*
X0073973Y0118060D01*
X0073973Y0118403D02*
X0072545Y0118403D01*
X0072545Y0118746D02*
X0073973Y0118746D01*
X0073973Y0120719D02*
X0072545Y0120719D01*
X0073973Y0120719D02*
X0073973Y0119685D01*
X0072545Y0119685D01*
X0072545Y0120719D01*
X0072545Y0120028D02*
X0073973Y0120028D01*
X0073973Y0120371D02*
X0072545Y0120371D01*
X0072545Y0120714D02*
X0073973Y0120714D01*
X0073973Y0122688D02*
X0072545Y0122688D01*
X0073973Y0122688D02*
X0073973Y0121654D01*
X0072545Y0121654D01*
X0072545Y0122688D01*
X0072545Y0121997D02*
X0073973Y0121997D01*
X0073973Y0122340D02*
X0072545Y0122340D01*
X0072545Y0122683D02*
X0073973Y0122683D01*
X0075804Y0123484D02*
X0075804Y0124912D01*
X0075804Y0123484D02*
X0074770Y0123484D01*
X0074770Y0124912D01*
X0075804Y0124912D01*
X0075804Y0123827D02*
X0074770Y0123827D01*
X0074770Y0124170D02*
X0075804Y0124170D01*
X0075804Y0124513D02*
X0074770Y0124513D01*
X0074770Y0124856D02*
X0075804Y0124856D01*
X0077772Y0124912D02*
X0077772Y0123484D01*
X0076738Y0123484D01*
X0076738Y0124912D01*
X0077772Y0124912D01*
X0077772Y0123827D02*
X0076738Y0123827D01*
X0076738Y0124170D02*
X0077772Y0124170D01*
X0077772Y0124513D02*
X0076738Y0124513D01*
X0076738Y0124856D02*
X0077772Y0124856D01*
X0079741Y0124912D02*
X0079741Y0123484D01*
X0078707Y0123484D01*
X0078707Y0124912D01*
X0079741Y0124912D01*
X0079741Y0123827D02*
X0078707Y0123827D01*
X0078707Y0124170D02*
X0079741Y0124170D01*
X0079741Y0124513D02*
X0078707Y0124513D01*
X0078707Y0124856D02*
X0079741Y0124856D01*
X0081709Y0124912D02*
X0081709Y0123484D01*
X0080675Y0123484D01*
X0080675Y0124912D01*
X0081709Y0124912D01*
X0081709Y0123827D02*
X0080675Y0123827D01*
X0080675Y0124170D02*
X0081709Y0124170D01*
X0081709Y0124513D02*
X0080675Y0124513D01*
X0080675Y0124856D02*
X0081709Y0124856D01*
X0083678Y0124912D02*
X0083678Y0123484D01*
X0082644Y0123484D01*
X0082644Y0124912D01*
X0083678Y0124912D01*
X0083678Y0123827D02*
X0082644Y0123827D01*
X0082644Y0124170D02*
X0083678Y0124170D01*
X0083678Y0124513D02*
X0082644Y0124513D01*
X0082644Y0124856D02*
X0083678Y0124856D01*
X0085646Y0124912D02*
X0085646Y0123484D01*
X0084612Y0123484D01*
X0084612Y0124912D01*
X0085646Y0124912D01*
X0085646Y0123827D02*
X0084612Y0123827D01*
X0084612Y0124170D02*
X0085646Y0124170D01*
X0085646Y0124513D02*
X0084612Y0124513D01*
X0084612Y0124856D02*
X0085646Y0124856D01*
X0087615Y0124912D02*
X0087615Y0123484D01*
X0086581Y0123484D01*
X0086581Y0124912D01*
X0087615Y0124912D01*
X0087615Y0123827D02*
X0086581Y0123827D01*
X0086581Y0124170D02*
X0087615Y0124170D01*
X0087615Y0124513D02*
X0086581Y0124513D01*
X0086581Y0124856D02*
X0087615Y0124856D01*
X0089583Y0124912D02*
X0089583Y0123484D01*
X0088549Y0123484D01*
X0088549Y0124912D01*
X0089583Y0124912D01*
X0089583Y0123827D02*
X0088549Y0123827D01*
X0088549Y0124170D02*
X0089583Y0124170D01*
X0089583Y0124513D02*
X0088549Y0124513D01*
X0088549Y0124856D02*
X0089583Y0124856D01*
X0091552Y0124912D02*
X0091552Y0123484D01*
X0090518Y0123484D01*
X0090518Y0124912D01*
X0091552Y0124912D01*
X0091552Y0123827D02*
X0090518Y0123827D01*
X0090518Y0124170D02*
X0091552Y0124170D01*
X0091552Y0124513D02*
X0090518Y0124513D01*
X0090518Y0124856D02*
X0091552Y0124856D01*
X0093520Y0124912D02*
X0093520Y0123484D01*
X0092486Y0123484D01*
X0092486Y0124912D01*
X0093520Y0124912D01*
X0093520Y0123827D02*
X0092486Y0123827D01*
X0092486Y0124170D02*
X0093520Y0124170D01*
X0093520Y0124513D02*
X0092486Y0124513D01*
X0092486Y0124856D02*
X0093520Y0124856D01*
X0095489Y0124912D02*
X0095489Y0123484D01*
X0094455Y0123484D01*
X0094455Y0124912D01*
X0095489Y0124912D01*
X0095489Y0123827D02*
X0094455Y0123827D01*
X0094455Y0124170D02*
X0095489Y0124170D01*
X0095489Y0124513D02*
X0094455Y0124513D01*
X0094455Y0124856D02*
X0095489Y0124856D01*
X0097457Y0124912D02*
X0097457Y0123484D01*
X0096423Y0123484D01*
X0096423Y0124912D01*
X0097457Y0124912D01*
X0097457Y0123827D02*
X0096423Y0123827D01*
X0096423Y0124170D02*
X0097457Y0124170D01*
X0097457Y0124513D02*
X0096423Y0124513D01*
X0096423Y0124856D02*
X0097457Y0124856D01*
X0098254Y0121654D02*
X0099682Y0121654D01*
X0098254Y0121654D02*
X0098254Y0122688D01*
X0099682Y0122688D01*
X0099682Y0121654D01*
X0099682Y0121997D02*
X0098254Y0121997D01*
X0098254Y0122340D02*
X0099682Y0122340D01*
X0099682Y0122683D02*
X0098254Y0122683D01*
X0098254Y0119685D02*
X0099682Y0119685D01*
X0098254Y0119685D02*
X0098254Y0120719D01*
X0099682Y0120719D01*
X0099682Y0119685D01*
X0099682Y0120028D02*
X0098254Y0120028D01*
X0098254Y0120371D02*
X0099682Y0120371D01*
X0099682Y0120714D02*
X0098254Y0120714D01*
X0098254Y0117717D02*
X0099682Y0117717D01*
X0098254Y0117717D02*
X0098254Y0118751D01*
X0099682Y0118751D01*
X0099682Y0117717D01*
X0099682Y0118060D02*
X0098254Y0118060D01*
X0098254Y0118403D02*
X0099682Y0118403D01*
X0099682Y0118746D02*
X0098254Y0118746D01*
X0098254Y0115748D02*
X0099682Y0115748D01*
X0098254Y0115748D02*
X0098254Y0116782D01*
X0099682Y0116782D01*
X0099682Y0115748D01*
X0099682Y0116091D02*
X0098254Y0116091D01*
X0098254Y0116434D02*
X0099682Y0116434D01*
X0099682Y0116777D02*
X0098254Y0116777D01*
X0098254Y0113780D02*
X0099682Y0113780D01*
X0098254Y0113780D02*
X0098254Y0114814D01*
X0099682Y0114814D01*
X0099682Y0113780D01*
X0099682Y0114123D02*
X0098254Y0114123D01*
X0098254Y0114466D02*
X0099682Y0114466D01*
X0099682Y0114809D02*
X0098254Y0114809D01*
X0098254Y0111811D02*
X0099682Y0111811D01*
X0098254Y0111811D02*
X0098254Y0112845D01*
X0099682Y0112845D01*
X0099682Y0111811D01*
X0099682Y0112154D02*
X0098254Y0112154D01*
X0098254Y0112497D02*
X0099682Y0112497D01*
X0099682Y0112840D02*
X0098254Y0112840D01*
X0098254Y0109843D02*
X0099682Y0109843D01*
X0098254Y0109843D02*
X0098254Y0110877D01*
X0099682Y0110877D01*
X0099682Y0109843D01*
X0099682Y0110186D02*
X0098254Y0110186D01*
X0098254Y0110529D02*
X0099682Y0110529D01*
X0099682Y0110872D02*
X0098254Y0110872D01*
X0098254Y0107874D02*
X0099682Y0107874D01*
X0098254Y0107874D02*
X0098254Y0108908D01*
X0099682Y0108908D01*
X0099682Y0107874D01*
X0099682Y0108217D02*
X0098254Y0108217D01*
X0098254Y0108560D02*
X0099682Y0108560D01*
X0099682Y0108903D02*
X0098254Y0108903D01*
X0098254Y0105906D02*
X0099682Y0105906D01*
X0098254Y0105906D02*
X0098254Y0106940D01*
X0099682Y0106940D01*
X0099682Y0105906D01*
X0099682Y0106249D02*
X0098254Y0106249D01*
X0098254Y0106592D02*
X0099682Y0106592D01*
X0099682Y0106935D02*
X0098254Y0106935D01*
X0098254Y0103937D02*
X0099682Y0103937D01*
X0098254Y0103937D02*
X0098254Y0104971D01*
X0099682Y0104971D01*
X0099682Y0103937D01*
X0099682Y0104280D02*
X0098254Y0104280D01*
X0098254Y0104623D02*
X0099682Y0104623D01*
X0099682Y0104966D02*
X0098254Y0104966D01*
X0098254Y0101969D02*
X0099682Y0101969D01*
X0098254Y0101969D02*
X0098254Y0103003D01*
X0099682Y0103003D01*
X0099682Y0101969D01*
X0099682Y0102312D02*
X0098254Y0102312D01*
X0098254Y0102655D02*
X0099682Y0102655D01*
X0099682Y0102998D02*
X0098254Y0102998D01*
X0098254Y0100000D02*
X0099682Y0100000D01*
X0098254Y0100000D02*
X0098254Y0101034D01*
X0099682Y0101034D01*
X0099682Y0100000D01*
X0099682Y0100343D02*
X0098254Y0100343D01*
X0098254Y0100686D02*
X0099682Y0100686D01*
X0099682Y0101029D02*
X0098254Y0101029D01*
D12*
X0086113Y0111344D03*
D13*
X0084539Y0127880D03*
X0080602Y0127880D03*
X0093987Y0129848D03*
X0097924Y0129848D03*
X0104420Y0094218D03*
X0108357Y0094218D03*
X0108357Y0089730D03*
X0104420Y0089730D03*
X0097924Y0089297D03*
X0093987Y0089297D03*
D14*
X0086704Y0134769D03*
X0076861Y0134769D03*
D15*
X0071940Y0131817D03*
X0071940Y0127880D03*
X0102570Y0114021D03*
X0102570Y0110084D03*
X0109735Y0125124D03*
X0109735Y0129061D03*
D16*
X0057373Y0130872D03*
X0057373Y0120872D03*
X0057373Y0110872D03*
X0057373Y0100872D03*
X0057373Y0090872D03*
D17*
X0093003Y0079454D03*
X0098121Y0079454D03*
X0102452Y0102486D03*
X0107570Y0102486D03*
D18*
X0106192Y0050714D03*
X0091625Y0050714D03*
X0075483Y0050714D03*
X0060917Y0050714D03*
D19*
X0056035Y0064336D03*
X0056035Y0071187D03*
X0108121Y0071187D03*
X0108121Y0064336D03*
D20*
X0109814Y0078273D03*
X0102728Y0078273D03*
X0066428Y0079061D03*
X0059342Y0079061D03*
D21*
X0061310Y0083785D03*
X0069184Y0083785D03*
X0077058Y0083785D03*
X0084932Y0083785D03*
X0092806Y0083785D03*
X0100680Y0083785D03*
D22*
X0108554Y0083785D03*
D23*
X0090838Y0062919D03*
X0084932Y0062919D03*
X0079027Y0062919D03*
D24*
X0084932Y0075124D03*
D25*
X0084632Y0074939D02*
X0061042Y0074939D01*
X0061042Y0074341D02*
X0079895Y0074341D01*
X0079895Y0074824D02*
X0079895Y0071042D01*
X0079970Y0070762D01*
X0080115Y0070511D01*
X0080320Y0070306D01*
X0080571Y0070162D01*
X0080850Y0070087D01*
X0084632Y0070087D01*
X0084632Y0074824D01*
X0079895Y0074824D01*
X0079895Y0075424D02*
X0084632Y0075424D01*
X0084632Y0080161D01*
X0080850Y0080161D01*
X0080571Y0080086D01*
X0080320Y0079941D01*
X0080115Y0079736D01*
X0079970Y0079485D01*
X0079895Y0079206D01*
X0079895Y0075424D01*
X0079895Y0075538D02*
X0061042Y0075538D01*
X0061042Y0075798D02*
X0061289Y0075798D01*
X0061817Y0076326D01*
X0061817Y0081295D01*
X0062342Y0081295D01*
X0063801Y0082753D01*
X0063801Y0084579D01*
X0067634Y0088412D01*
X0072114Y0088412D01*
X0069978Y0086276D01*
X0068153Y0086276D01*
X0066694Y0084817D01*
X0066694Y0082753D01*
X0066924Y0082523D01*
X0066728Y0082523D01*
X0066728Y0079361D01*
X0066128Y0079361D01*
X0066128Y0078761D01*
X0063754Y0078761D01*
X0063754Y0076554D01*
X0063829Y0076274D01*
X0063973Y0076023D01*
X0064178Y0075818D01*
X0064429Y0075673D01*
X0064709Y0075598D01*
X0066128Y0075598D01*
X0066128Y0078761D01*
X0066728Y0078761D01*
X0066728Y0075598D01*
X0068148Y0075598D01*
X0068428Y0075673D01*
X0068679Y0075818D01*
X0068883Y0076023D01*
X0069028Y0076274D01*
X0069103Y0076554D01*
X0069103Y0078761D01*
X0066728Y0078761D01*
X0066728Y0079361D01*
X0069103Y0079361D01*
X0069103Y0081295D01*
X0070216Y0081295D01*
X0071675Y0082753D01*
X0071675Y0084579D01*
X0073894Y0086798D01*
X0078374Y0086798D01*
X0077852Y0086276D01*
X0076027Y0086276D01*
X0074568Y0084817D01*
X0074568Y0082753D01*
X0076027Y0081295D01*
X0078090Y0081295D01*
X0079549Y0082753D01*
X0079549Y0084579D01*
X0080296Y0085326D01*
X0081825Y0085326D01*
X0082998Y0086499D01*
X0082998Y0088158D01*
X0081825Y0089331D01*
X0081466Y0089331D01*
X0086138Y0094002D01*
X0090075Y0094002D01*
X0092235Y0096162D01*
X0092235Y0096704D01*
X0093445Y0096704D01*
X0093166Y0096426D01*
X0093166Y0094767D01*
X0094339Y0093594D01*
X0095998Y0093594D01*
X0097171Y0094767D01*
X0097171Y0096426D01*
X0096892Y0096704D01*
X0097768Y0096704D01*
X0097768Y0095788D01*
X0098284Y0095272D01*
X0098284Y0094137D01*
X0099457Y0092964D01*
X0101116Y0092964D01*
X0101718Y0093566D01*
X0102339Y0093566D01*
X0102339Y0092467D01*
X0102720Y0092086D01*
X0102720Y0091862D01*
X0102339Y0091481D01*
X0102339Y0090997D01*
X0100005Y0090997D01*
X0100005Y0091048D01*
X0099478Y0091575D01*
X0096371Y0091575D01*
X0095956Y0091160D01*
X0095541Y0091575D01*
X0092434Y0091575D01*
X0091906Y0091048D01*
X0091906Y0089337D01*
X0091503Y0088934D01*
X0091503Y0086004D01*
X0090316Y0084817D01*
X0090316Y0082753D01*
X0091098Y0081971D01*
X0090725Y0081599D01*
X0090725Y0077310D01*
X0091252Y0076783D01*
X0094754Y0076783D01*
X0095281Y0077310D01*
X0095281Y0081599D01*
X0094754Y0082126D01*
X0094669Y0082126D01*
X0095297Y0082753D01*
X0095297Y0084817D01*
X0094503Y0085610D01*
X0094503Y0087019D01*
X0095541Y0087019D01*
X0095956Y0087434D01*
X0096371Y0087019D01*
X0099478Y0087019D01*
X0100005Y0087546D01*
X0100005Y0087597D01*
X0102722Y0087597D01*
X0102867Y0087452D01*
X0105974Y0087452D01*
X0106261Y0087738D01*
X0106296Y0087677D01*
X0106501Y0087472D01*
X0106752Y0087327D01*
X0107032Y0087252D01*
X0108067Y0087252D01*
X0108067Y0089439D01*
X0108648Y0089439D01*
X0108648Y0087252D01*
X0109683Y0087252D01*
X0109963Y0087327D01*
X0110214Y0087472D01*
X0110419Y0087677D01*
X0110564Y0087927D01*
X0110639Y0088207D01*
X0110639Y0089439D01*
X0108648Y0089439D01*
X0108648Y0090021D01*
X0108067Y0090021D01*
X0108067Y0093928D01*
X0108648Y0093928D01*
X0108648Y0094509D01*
X0108067Y0094509D01*
X0108067Y0096696D01*
X0107032Y0096696D01*
X0106752Y0096621D01*
X0106501Y0096476D01*
X0106296Y0096272D01*
X0106261Y0096210D01*
X0105974Y0096496D01*
X0102867Y0096496D01*
X0102737Y0096366D01*
X0101718Y0096366D01*
X0101116Y0096969D01*
X0100168Y0096969D01*
X0100168Y0098971D01*
X0100253Y0099056D01*
X0100253Y0097916D01*
X0101426Y0096743D01*
X0103085Y0096743D01*
X0104257Y0097916D01*
X0104257Y0099575D01*
X0104018Y0099814D01*
X0104203Y0099814D01*
X0104730Y0100341D01*
X0104730Y0104630D01*
X0104203Y0105158D01*
X0100754Y0105158D01*
X0100754Y0105219D01*
X0100867Y0105415D01*
X0100954Y0105739D01*
X0100954Y0105949D01*
X0101089Y0105813D01*
X0101102Y0105813D01*
X0101111Y0105804D01*
X0101597Y0105813D01*
X0104167Y0105813D01*
X0104969Y0105011D01*
X0105390Y0105011D01*
X0105312Y0104933D01*
X0105167Y0104682D01*
X0105092Y0104402D01*
X0105092Y0102786D01*
X0107270Y0102786D01*
X0107270Y0105358D01*
X0106974Y0105358D01*
X0107801Y0106184D01*
X0107801Y0107843D01*
X0106628Y0109016D01*
X0104969Y0109016D01*
X0104848Y0108895D01*
X0104848Y0109117D01*
X0108701Y0109117D01*
X0109521Y0109937D01*
X0109521Y0109937D01*
X0110742Y0111158D01*
X0110742Y0116330D01*
X0111344Y0116932D01*
X0111344Y0118591D01*
X0110171Y0119764D01*
X0108982Y0119764D01*
X0108982Y0120914D01*
X0107809Y0122087D01*
X0107013Y0122087D01*
X0107013Y0123433D01*
X0105840Y0124606D01*
X0105045Y0124606D01*
X0105045Y0125992D01*
X0103872Y0127165D01*
X0103470Y0127165D01*
X0103470Y0128512D01*
X0103452Y0128530D01*
X0103537Y0128530D01*
X0104575Y0127491D01*
X0106234Y0127491D01*
X0107407Y0128664D01*
X0107407Y0129692D01*
X0107457Y0129642D01*
X0107457Y0127507D01*
X0107744Y0127221D01*
X0107682Y0127185D01*
X0107477Y0126980D01*
X0107332Y0126729D01*
X0107257Y0126450D01*
X0107257Y0125414D01*
X0109445Y0125414D01*
X0109445Y0124833D01*
X0110026Y0124833D01*
X0110026Y0122843D01*
X0111258Y0122843D01*
X0111404Y0122882D01*
X0111404Y0081735D01*
X0111150Y0081735D01*
X0111170Y0081770D01*
X0111245Y0082050D01*
X0111245Y0083785D01*
X0108554Y0083785D01*
X0105864Y0083785D01*
X0105864Y0082050D01*
X0105939Y0081770D01*
X0106084Y0081519D01*
X0106288Y0081314D01*
X0106539Y0081170D01*
X0106819Y0081095D01*
X0107234Y0081095D01*
X0107214Y0081060D01*
X0107139Y0080780D01*
X0107139Y0078573D01*
X0109514Y0078573D01*
X0109514Y0077973D01*
X0107139Y0077973D01*
X0107139Y0075830D01*
X0105202Y0075830D01*
X0105202Y0081008D01*
X0104675Y0081535D01*
X0103561Y0081535D01*
X0103561Y0083308D01*
X0103171Y0083699D01*
X0103171Y0084817D01*
X0101712Y0086276D01*
X0099649Y0086276D01*
X0098190Y0084817D01*
X0098190Y0082753D01*
X0098817Y0082126D01*
X0096371Y0082126D01*
X0095843Y0081599D01*
X0095843Y0078873D01*
X0095819Y0078849D01*
X0095819Y0077668D01*
X0093097Y0074946D01*
X0092394Y0074243D01*
X0092394Y0071083D01*
X0092787Y0070690D01*
X0092787Y0065746D01*
X0092352Y0066181D01*
X0089323Y0066181D01*
X0088796Y0065654D01*
X0088796Y0060288D01*
X0087141Y0060288D01*
X0087174Y0060412D01*
X0087174Y0062648D01*
X0085203Y0062648D01*
X0085203Y0063190D01*
X0084661Y0063190D01*
X0084661Y0066381D01*
X0083646Y0066381D01*
X0083483Y0066337D01*
X0083483Y0067560D01*
X0082487Y0068556D01*
X0077762Y0068556D01*
X0075963Y0070355D01*
X0074967Y0071351D01*
X0063977Y0071351D01*
X0063675Y0071654D01*
X0062016Y0071654D01*
X0060843Y0070481D01*
X0060843Y0068822D01*
X0062016Y0067649D01*
X0063675Y0067649D01*
X0063977Y0067951D01*
X0073559Y0067951D01*
X0076354Y0065156D01*
X0076985Y0065156D01*
X0076985Y0064513D01*
X0060478Y0064513D01*
X0060478Y0073226D01*
X0061042Y0073790D01*
X0061042Y0075798D01*
X0061627Y0076136D02*
X0063908Y0076136D01*
X0063754Y0076735D02*
X0061817Y0076735D01*
X0061817Y0077333D02*
X0063754Y0077333D01*
X0063754Y0077932D02*
X0061817Y0077932D01*
X0061817Y0078530D02*
X0063754Y0078530D01*
X0063754Y0079361D02*
X0066128Y0079361D01*
X0066128Y0082523D01*
X0064709Y0082523D01*
X0064429Y0082448D01*
X0064178Y0082303D01*
X0063973Y0082098D01*
X0063829Y0081847D01*
X0063754Y0081568D01*
X0063754Y0079361D01*
X0063754Y0079727D02*
X0061817Y0079727D01*
X0061817Y0079129D02*
X0066128Y0079129D01*
X0066128Y0079727D02*
X0066728Y0079727D01*
X0066728Y0079129D02*
X0079895Y0079129D01*
X0079895Y0078530D02*
X0069103Y0078530D01*
X0069103Y0077932D02*
X0079895Y0077932D01*
X0079895Y0077333D02*
X0069103Y0077333D01*
X0069103Y0076735D02*
X0079895Y0076735D01*
X0079895Y0076136D02*
X0068949Y0076136D01*
X0066728Y0076136D02*
X0066128Y0076136D01*
X0066128Y0076735D02*
X0066728Y0076735D01*
X0066728Y0077333D02*
X0066128Y0077333D01*
X0066128Y0077932D02*
X0066728Y0077932D01*
X0066728Y0078530D02*
X0066128Y0078530D01*
X0066128Y0080326D02*
X0066728Y0080326D01*
X0066728Y0080924D02*
X0066128Y0080924D01*
X0066128Y0081523D02*
X0066728Y0081523D01*
X0066728Y0082121D02*
X0066128Y0082121D01*
X0066727Y0082720D02*
X0063767Y0082720D01*
X0063801Y0083318D02*
X0066694Y0083318D01*
X0066694Y0083917D02*
X0063801Y0083917D01*
X0063801Y0084515D02*
X0066694Y0084515D01*
X0066991Y0085114D02*
X0064336Y0085114D01*
X0064934Y0085712D02*
X0067589Y0085712D01*
X0066131Y0086909D02*
X0070611Y0086909D01*
X0070013Y0086311D02*
X0065533Y0086311D01*
X0066730Y0087508D02*
X0071210Y0087508D01*
X0071808Y0088106D02*
X0067329Y0088106D01*
X0067137Y0089612D02*
X0076901Y0089612D01*
X0083948Y0096659D01*
X0088712Y0096659D01*
X0089066Y0097013D01*
X0089066Y0098490D01*
X0091035Y0098490D02*
X0091035Y0096659D01*
X0089578Y0095202D01*
X0085641Y0095202D01*
X0078436Y0087998D01*
X0073397Y0087998D01*
X0069184Y0083785D01*
X0071043Y0082121D02*
X0075200Y0082121D01*
X0075798Y0081523D02*
X0070444Y0081523D01*
X0069103Y0080924D02*
X0090725Y0080924D01*
X0090725Y0080326D02*
X0069103Y0080326D01*
X0069103Y0079727D02*
X0080110Y0079727D01*
X0078318Y0081523D02*
X0083672Y0081523D01*
X0083901Y0081295D02*
X0085964Y0081295D01*
X0087423Y0082753D01*
X0087423Y0084817D01*
X0086920Y0085320D01*
X0086920Y0087665D01*
X0087722Y0088468D01*
X0087722Y0090126D01*
X0086549Y0091299D01*
X0084890Y0091299D01*
X0083717Y0090126D01*
X0083717Y0088468D01*
X0084520Y0087665D01*
X0084520Y0086276D01*
X0083901Y0086276D01*
X0082442Y0084817D01*
X0082442Y0082753D01*
X0083901Y0081295D01*
X0083074Y0082121D02*
X0078917Y0082121D01*
X0079515Y0082720D02*
X0082475Y0082720D01*
X0082442Y0083318D02*
X0079549Y0083318D01*
X0079549Y0083917D02*
X0082442Y0083917D01*
X0082442Y0084515D02*
X0079549Y0084515D01*
X0080084Y0085114D02*
X0082739Y0085114D01*
X0082211Y0085712D02*
X0083337Y0085712D01*
X0082809Y0086311D02*
X0084520Y0086311D01*
X0084520Y0086909D02*
X0082998Y0086909D01*
X0082998Y0087508D02*
X0084520Y0087508D01*
X0084078Y0088106D02*
X0082998Y0088106D01*
X0082451Y0088705D02*
X0083717Y0088705D01*
X0083717Y0089303D02*
X0081852Y0089303D01*
X0082037Y0089902D02*
X0083717Y0089902D01*
X0084091Y0090500D02*
X0082636Y0090500D01*
X0083234Y0091099D02*
X0084690Y0091099D01*
X0083833Y0091697D02*
X0102556Y0091697D01*
X0102511Y0092296D02*
X0084431Y0092296D01*
X0085030Y0092894D02*
X0102339Y0092894D01*
X0102339Y0093493D02*
X0101645Y0093493D01*
X0100287Y0094966D02*
X0098968Y0096285D01*
X0098968Y0100517D01*
X0100168Y0098880D02*
X0100253Y0098880D01*
X0100253Y0098281D02*
X0100168Y0098281D01*
X0100168Y0097683D02*
X0100487Y0097683D01*
X0100168Y0097084D02*
X0101085Y0097084D01*
X0101599Y0096486D02*
X0102856Y0096486D01*
X0103425Y0097084D02*
X0111404Y0097084D01*
X0111404Y0096486D02*
X0110198Y0096486D01*
X0110214Y0096476D02*
X0109963Y0096621D01*
X0109683Y0096696D01*
X0108648Y0096696D01*
X0108648Y0094509D01*
X0110639Y0094509D01*
X0110639Y0095741D01*
X0110564Y0096021D01*
X0110419Y0096272D01*
X0110214Y0096476D01*
X0110599Y0095887D02*
X0111404Y0095887D01*
X0111404Y0095288D02*
X0110639Y0095288D01*
X0110639Y0094690D02*
X0111404Y0094690D01*
X0111404Y0094091D02*
X0108648Y0094091D01*
X0108648Y0093928D02*
X0110639Y0093928D01*
X0110639Y0092695D01*
X0110564Y0092416D01*
X0110419Y0092165D01*
X0110228Y0091974D01*
X0110419Y0091783D01*
X0110564Y0091533D01*
X0110639Y0091253D01*
X0110639Y0090021D01*
X0108648Y0090021D01*
X0108648Y0091740D01*
X0108648Y0093928D01*
X0108648Y0093493D02*
X0108067Y0093493D01*
X0108067Y0092894D02*
X0108648Y0092894D01*
X0108648Y0092296D02*
X0108067Y0092296D01*
X0108067Y0091697D02*
X0108648Y0091697D01*
X0108648Y0091099D02*
X0108067Y0091099D01*
X0108067Y0090500D02*
X0108648Y0090500D01*
X0108648Y0089902D02*
X0111404Y0089902D01*
X0111404Y0090500D02*
X0110639Y0090500D01*
X0110639Y0091099D02*
X0111404Y0091099D01*
X0111404Y0091697D02*
X0110468Y0091697D01*
X0110494Y0092296D02*
X0111404Y0092296D01*
X0111404Y0092894D02*
X0110639Y0092894D01*
X0110639Y0093493D02*
X0111404Y0093493D01*
X0108648Y0094690D02*
X0108067Y0094690D01*
X0108067Y0095288D02*
X0108648Y0095288D01*
X0108648Y0095887D02*
X0108067Y0095887D01*
X0108067Y0096486D02*
X0108648Y0096486D01*
X0106517Y0096486D02*
X0105985Y0096486D01*
X0104024Y0097683D02*
X0111404Y0097683D01*
X0111404Y0098281D02*
X0104257Y0098281D01*
X0104257Y0098880D02*
X0111404Y0098880D01*
X0111404Y0099478D02*
X0104257Y0099478D01*
X0104465Y0100077D02*
X0105290Y0100077D01*
X0105312Y0100039D02*
X0105517Y0099834D01*
X0105768Y0099689D01*
X0106047Y0099614D01*
X0107270Y0099614D01*
X0107270Y0102186D01*
X0105092Y0102186D01*
X0105092Y0100569D01*
X0105167Y0100290D01*
X0105312Y0100039D01*
X0105092Y0100675D02*
X0104730Y0100675D01*
X0104730Y0101274D02*
X0105092Y0101274D01*
X0105092Y0101872D02*
X0104730Y0101872D01*
X0104730Y0102471D02*
X0107270Y0102471D01*
X0107270Y0102186D02*
X0107270Y0102786D01*
X0107870Y0102786D01*
X0107870Y0105358D01*
X0109093Y0105358D01*
X0109373Y0105283D01*
X0109623Y0105138D01*
X0109828Y0104933D01*
X0109973Y0104682D01*
X0110048Y0104402D01*
X0110048Y0102786D01*
X0107870Y0102786D01*
X0107870Y0102186D01*
X0110048Y0102186D01*
X0110048Y0100569D01*
X0109973Y0100290D01*
X0109828Y0100039D01*
X0109623Y0099834D01*
X0109373Y0099689D01*
X0109093Y0099614D01*
X0107870Y0099614D01*
X0107870Y0102186D01*
X0107270Y0102186D01*
X0107270Y0101872D02*
X0107870Y0101872D01*
X0107870Y0101274D02*
X0107270Y0101274D01*
X0107270Y0100675D02*
X0107870Y0100675D01*
X0107870Y0100077D02*
X0107270Y0100077D01*
X0107870Y0102471D02*
X0111404Y0102471D01*
X0111404Y0103069D02*
X0110048Y0103069D01*
X0110048Y0103668D02*
X0111404Y0103668D01*
X0111404Y0104266D02*
X0110048Y0104266D01*
X0109868Y0104865D02*
X0111404Y0104865D01*
X0111404Y0105463D02*
X0107080Y0105463D01*
X0107270Y0104865D02*
X0107870Y0104865D01*
X0107870Y0104266D02*
X0107270Y0104266D01*
X0107270Y0103668D02*
X0107870Y0103668D01*
X0107870Y0103069D02*
X0107270Y0103069D01*
X0105092Y0103069D02*
X0104730Y0103069D01*
X0104730Y0103668D02*
X0105092Y0103668D01*
X0105092Y0104266D02*
X0104730Y0104266D01*
X0104496Y0104865D02*
X0105272Y0104865D01*
X0104517Y0105463D02*
X0100880Y0105463D01*
X0101586Y0107013D02*
X0100523Y0108037D01*
X0098968Y0108037D01*
X0098968Y0108391D01*
X0101586Y0107013D02*
X0105798Y0107013D01*
X0107188Y0108456D02*
X0111404Y0108456D01*
X0111404Y0109054D02*
X0104848Y0109054D01*
X0104569Y0111917D02*
X0104562Y0111924D01*
X0104623Y0111960D01*
X0104828Y0112165D01*
X0104973Y0112416D01*
X0105048Y0112695D01*
X0105048Y0113673D01*
X0106628Y0113673D01*
X0107801Y0114845D01*
X0107801Y0116471D01*
X0107942Y0116330D01*
X0107942Y0112318D01*
X0107541Y0111917D01*
X0104569Y0111917D01*
X0104710Y0112047D02*
X0107671Y0112047D01*
X0107942Y0112645D02*
X0105035Y0112645D01*
X0105048Y0113244D02*
X0107942Y0113244D01*
X0107942Y0113842D02*
X0106798Y0113842D01*
X0107396Y0114441D02*
X0107942Y0114441D01*
X0107942Y0115039D02*
X0107801Y0115039D01*
X0107801Y0115638D02*
X0107942Y0115638D01*
X0107942Y0116236D02*
X0107801Y0116236D01*
X0110742Y0116236D02*
X0111404Y0116236D01*
X0111404Y0115638D02*
X0110742Y0115638D01*
X0110742Y0115039D02*
X0111404Y0115039D01*
X0111404Y0114441D02*
X0110742Y0114441D01*
X0110742Y0113842D02*
X0111404Y0113842D01*
X0111404Y0113244D02*
X0110742Y0113244D01*
X0110742Y0112645D02*
X0111404Y0112645D01*
X0111404Y0112047D02*
X0110742Y0112047D01*
X0110742Y0111448D02*
X0111404Y0111448D01*
X0111404Y0110850D02*
X0110434Y0110850D01*
X0109835Y0110251D02*
X0111404Y0110251D01*
X0111404Y0109653D02*
X0109237Y0109653D01*
X0107786Y0107857D02*
X0111404Y0107857D01*
X0111404Y0107259D02*
X0107801Y0107259D01*
X0107801Y0106660D02*
X0111404Y0106660D01*
X0111404Y0106062D02*
X0107678Y0106062D01*
X0110048Y0101872D02*
X0111404Y0101872D01*
X0111404Y0101274D02*
X0110048Y0101274D01*
X0110048Y0100675D02*
X0111404Y0100675D01*
X0111404Y0100077D02*
X0109850Y0100077D01*
X0102452Y0102486D02*
X0102255Y0102486D01*
X0097768Y0096486D02*
X0097111Y0096486D01*
X0097171Y0095887D02*
X0097768Y0095887D01*
X0098267Y0095288D02*
X0097171Y0095288D01*
X0097094Y0094690D02*
X0098284Y0094690D01*
X0098330Y0094091D02*
X0096496Y0094091D01*
X0093841Y0094091D02*
X0090164Y0094091D01*
X0090763Y0094690D02*
X0093243Y0094690D01*
X0093166Y0095288D02*
X0091361Y0095288D01*
X0091960Y0095887D02*
X0093166Y0095887D01*
X0093226Y0096486D02*
X0092235Y0096486D01*
X0091958Y0091099D02*
X0086749Y0091099D01*
X0087348Y0090500D02*
X0091906Y0090500D01*
X0091906Y0089902D02*
X0087722Y0089902D01*
X0087722Y0089303D02*
X0091873Y0089303D01*
X0091503Y0088705D02*
X0087722Y0088705D01*
X0087361Y0088106D02*
X0091503Y0088106D01*
X0091503Y0087508D02*
X0086920Y0087508D01*
X0086920Y0086909D02*
X0091503Y0086909D01*
X0091503Y0086311D02*
X0086920Y0086311D01*
X0086920Y0085712D02*
X0091211Y0085712D01*
X0090613Y0085114D02*
X0087126Y0085114D01*
X0087423Y0084515D02*
X0090316Y0084515D01*
X0090316Y0083917D02*
X0087423Y0083917D01*
X0087423Y0083318D02*
X0090316Y0083318D01*
X0090349Y0082720D02*
X0087389Y0082720D01*
X0086791Y0082121D02*
X0090948Y0082121D01*
X0090725Y0081523D02*
X0086192Y0081523D01*
X0085232Y0080161D02*
X0085232Y0075424D01*
X0084632Y0075424D01*
X0084632Y0074824D01*
X0085232Y0074824D01*
X0085232Y0075424D01*
X0089969Y0075424D01*
X0089969Y0079206D01*
X0089894Y0079485D01*
X0089749Y0079736D01*
X0089545Y0079941D01*
X0089294Y0080086D01*
X0089014Y0080161D01*
X0085232Y0080161D01*
X0085232Y0079727D02*
X0084632Y0079727D01*
X0084632Y0079129D02*
X0085232Y0079129D01*
X0085232Y0078530D02*
X0084632Y0078530D01*
X0084632Y0077932D02*
X0085232Y0077932D01*
X0085232Y0077333D02*
X0084632Y0077333D01*
X0084632Y0076735D02*
X0085232Y0076735D01*
X0085232Y0076136D02*
X0084632Y0076136D01*
X0084632Y0075538D02*
X0085232Y0075538D01*
X0085232Y0074939D02*
X0093090Y0074939D01*
X0092492Y0074341D02*
X0089969Y0074341D01*
X0089969Y0074824D02*
X0085232Y0074824D01*
X0085232Y0070087D01*
X0089014Y0070087D01*
X0089294Y0070162D01*
X0089545Y0070306D01*
X0089749Y0070511D01*
X0089894Y0070762D01*
X0089969Y0071042D01*
X0089969Y0074824D01*
X0089969Y0075538D02*
X0093689Y0075538D01*
X0094287Y0076136D02*
X0089969Y0076136D01*
X0089969Y0076735D02*
X0094886Y0076735D01*
X0095281Y0077333D02*
X0095484Y0077333D01*
X0095281Y0077932D02*
X0095819Y0077932D01*
X0095819Y0078530D02*
X0095281Y0078530D01*
X0095281Y0079129D02*
X0095843Y0079129D01*
X0095843Y0079727D02*
X0095281Y0079727D01*
X0095281Y0080326D02*
X0095843Y0080326D01*
X0095843Y0080924D02*
X0095281Y0080924D01*
X0095281Y0081523D02*
X0095843Y0081523D01*
X0096366Y0082121D02*
X0094759Y0082121D01*
X0095263Y0082720D02*
X0098223Y0082720D01*
X0098190Y0083318D02*
X0095297Y0083318D01*
X0095297Y0083917D02*
X0098190Y0083917D01*
X0098190Y0084515D02*
X0095297Y0084515D01*
X0095000Y0085114D02*
X0098487Y0085114D01*
X0099085Y0085712D02*
X0094503Y0085712D01*
X0094503Y0086311D02*
X0106384Y0086311D01*
X0106288Y0086256D02*
X0106084Y0086051D01*
X0105939Y0085800D01*
X0105864Y0085520D01*
X0105864Y0083785D01*
X0108554Y0083785D01*
X0108554Y0083785D01*
X0108554Y0086476D01*
X0106819Y0086476D01*
X0106539Y0086401D01*
X0106288Y0086256D01*
X0105915Y0085712D02*
X0102275Y0085712D01*
X0102874Y0085114D02*
X0105864Y0085114D01*
X0105864Y0084515D02*
X0103171Y0084515D01*
X0103171Y0083917D02*
X0105864Y0083917D01*
X0105864Y0083318D02*
X0103551Y0083318D01*
X0103561Y0082720D02*
X0105864Y0082720D01*
X0105864Y0082121D02*
X0103561Y0082121D01*
X0104688Y0081523D02*
X0106081Y0081523D01*
X0105202Y0080924D02*
X0107178Y0080924D01*
X0107139Y0080326D02*
X0105202Y0080326D01*
X0105202Y0079727D02*
X0107139Y0079727D01*
X0107139Y0079129D02*
X0105202Y0079129D01*
X0105202Y0078530D02*
X0109514Y0078530D01*
X0107139Y0077932D02*
X0105202Y0077932D01*
X0105202Y0077333D02*
X0107139Y0077333D01*
X0107139Y0076735D02*
X0105202Y0076735D01*
X0105405Y0076305D02*
X0106586Y0076305D01*
X0106586Y0071580D01*
X0103436Y0071580D01*
X0103436Y0074336D01*
X0105405Y0074336D01*
X0105405Y0076305D01*
X0105405Y0076136D02*
X0106586Y0076136D01*
X0107139Y0076136D02*
X0105202Y0076136D01*
X0105405Y0075538D02*
X0106586Y0075538D01*
X0106586Y0074939D02*
X0105405Y0074939D01*
X0105405Y0074341D02*
X0106586Y0074341D01*
X0106586Y0073742D02*
X0103436Y0073742D01*
X0103478Y0073742D02*
X0102097Y0073742D01*
X0102566Y0074211D02*
X0103366Y0075011D01*
X0103514Y0075011D01*
X0103478Y0074875D01*
X0103478Y0071487D01*
X0107821Y0071487D01*
X0107821Y0070887D01*
X0103478Y0070887D01*
X0103478Y0064636D01*
X0107821Y0064636D01*
X0107821Y0064036D01*
X0108421Y0064036D01*
X0108421Y0059693D01*
X0111404Y0059693D01*
X0111404Y0057801D01*
X0101166Y0057801D01*
X0099552Y0059414D01*
X0100805Y0060668D01*
X0100805Y0072451D01*
X0102566Y0074211D01*
X0102695Y0074341D02*
X0103478Y0074341D01*
X0103495Y0074939D02*
X0103294Y0074939D01*
X0103436Y0073144D02*
X0106586Y0073144D01*
X0106586Y0072545D02*
X0103436Y0072545D01*
X0103478Y0072545D02*
X0100900Y0072545D01*
X0100805Y0071947D02*
X0103478Y0071947D01*
X0103436Y0071947D02*
X0106586Y0071947D01*
X0105798Y0071187D02*
X0105798Y0073155D01*
X0105798Y0071187D02*
X0108161Y0071187D01*
X0107821Y0071348D02*
X0100805Y0071348D01*
X0100805Y0070750D02*
X0103478Y0070750D01*
X0103478Y0070151D02*
X0100805Y0070151D01*
X0100805Y0069552D02*
X0103478Y0069552D01*
X0103478Y0068954D02*
X0100805Y0068954D01*
X0100805Y0068355D02*
X0103478Y0068355D01*
X0103478Y0067757D02*
X0100805Y0067757D01*
X0100805Y0067158D02*
X0103478Y0067158D01*
X0103436Y0066856D02*
X0110917Y0066856D01*
X0110917Y0062919D01*
X0103436Y0062919D01*
X0103436Y0066856D01*
X0103436Y0066560D02*
X0110917Y0066560D01*
X0110917Y0065961D02*
X0103436Y0065961D01*
X0103478Y0065961D02*
X0100805Y0065961D01*
X0100805Y0065363D02*
X0103478Y0065363D01*
X0103436Y0065363D02*
X0110917Y0065363D01*
X0110917Y0064764D02*
X0103436Y0064764D01*
X0103478Y0064764D02*
X0100805Y0064764D01*
X0100805Y0064166D02*
X0107821Y0064166D01*
X0107821Y0064036D02*
X0103478Y0064036D01*
X0103478Y0060648D01*
X0103553Y0060368D01*
X0103698Y0060118D01*
X0103903Y0059913D01*
X0104153Y0059768D01*
X0104433Y0059693D01*
X0107821Y0059693D01*
X0107821Y0064036D01*
X0107821Y0063567D02*
X0108421Y0063567D01*
X0108421Y0062969D02*
X0107821Y0062969D01*
X0107821Y0062370D02*
X0108421Y0062370D01*
X0108421Y0061772D02*
X0107821Y0061772D01*
X0107821Y0061173D02*
X0108421Y0061173D01*
X0108421Y0060575D02*
X0107821Y0060575D01*
X0107821Y0059976D02*
X0108421Y0059976D01*
X0111404Y0059378D02*
X0099589Y0059378D01*
X0100114Y0059976D02*
X0103839Y0059976D01*
X0103498Y0060575D02*
X0100712Y0060575D01*
X0100805Y0061173D02*
X0103478Y0061173D01*
X0103478Y0061772D02*
X0100805Y0061772D01*
X0100805Y0062370D02*
X0103478Y0062370D01*
X0103478Y0062969D02*
X0100805Y0062969D01*
X0100805Y0063567D02*
X0103478Y0063567D01*
X0103436Y0063567D02*
X0110917Y0063567D01*
X0110917Y0062969D02*
X0103436Y0062969D01*
X0103436Y0064166D02*
X0110917Y0064166D01*
X0108421Y0064636D02*
X0108421Y0066543D01*
X0108421Y0070887D01*
X0107821Y0070887D01*
X0107821Y0064636D01*
X0108421Y0064636D01*
X0108421Y0064764D02*
X0107821Y0064764D01*
X0107821Y0065363D02*
X0108421Y0065363D01*
X0108421Y0065961D02*
X0107821Y0065961D01*
X0107821Y0066560D02*
X0108421Y0066560D01*
X0108421Y0067158D02*
X0107821Y0067158D01*
X0107821Y0067757D02*
X0108421Y0067757D01*
X0108421Y0068355D02*
X0107821Y0068355D01*
X0107821Y0068954D02*
X0108421Y0068954D01*
X0108421Y0069552D02*
X0107821Y0069552D01*
X0107821Y0070151D02*
X0108421Y0070151D01*
X0108421Y0070750D02*
X0107821Y0070750D01*
X0103478Y0073144D02*
X0101498Y0073144D01*
X0097019Y0077171D02*
X0097019Y0078352D01*
X0098121Y0079454D01*
X0097019Y0077171D02*
X0093594Y0073746D01*
X0093594Y0071580D01*
X0093987Y0071187D01*
X0093987Y0061725D01*
X0093751Y0061725D01*
X0092787Y0065961D02*
X0092572Y0065961D01*
X0092787Y0066560D02*
X0083483Y0066560D01*
X0083483Y0067158D02*
X0092787Y0067158D01*
X0092787Y0067757D02*
X0083286Y0067757D01*
X0082687Y0068355D02*
X0092787Y0068355D01*
X0092787Y0068954D02*
X0077364Y0068954D01*
X0076766Y0069552D02*
X0092787Y0069552D01*
X0092787Y0070151D02*
X0089254Y0070151D01*
X0089887Y0070750D02*
X0092727Y0070750D01*
X0092394Y0071348D02*
X0089969Y0071348D01*
X0089969Y0071947D02*
X0092394Y0071947D01*
X0092394Y0072545D02*
X0089969Y0072545D01*
X0089969Y0073144D02*
X0092394Y0073144D01*
X0092394Y0073742D02*
X0089969Y0073742D01*
X0089969Y0077333D02*
X0090725Y0077333D01*
X0090725Y0077932D02*
X0089969Y0077932D01*
X0089969Y0078530D02*
X0090725Y0078530D01*
X0090725Y0079129D02*
X0089969Y0079129D01*
X0089755Y0079727D02*
X0090725Y0079727D01*
X0085720Y0084573D02*
X0084932Y0083785D01*
X0085720Y0084573D02*
X0085720Y0089297D01*
X0085629Y0093493D02*
X0098928Y0093493D01*
X0099954Y0091099D02*
X0102339Y0091099D01*
X0102811Y0087508D02*
X0099967Y0087508D01*
X0106030Y0087508D02*
X0106465Y0087508D01*
X0108067Y0087508D02*
X0108648Y0087508D01*
X0108648Y0088106D02*
X0108067Y0088106D01*
X0108067Y0088705D02*
X0108648Y0088705D01*
X0108648Y0089303D02*
X0108067Y0089303D01*
X0110639Y0089303D02*
X0111404Y0089303D01*
X0111404Y0088705D02*
X0110639Y0088705D01*
X0110612Y0088106D02*
X0111404Y0088106D01*
X0111404Y0087508D02*
X0110250Y0087508D01*
X0110290Y0086476D02*
X0108554Y0086476D01*
X0108554Y0083785D01*
X0108554Y0083785D01*
X0108554Y0083785D01*
X0111245Y0083785D01*
X0111245Y0085520D01*
X0111170Y0085800D01*
X0111025Y0086051D01*
X0110820Y0086256D01*
X0110569Y0086401D01*
X0110290Y0086476D01*
X0110725Y0086311D02*
X0111404Y0086311D01*
X0111404Y0086909D02*
X0094503Y0086909D01*
X0085232Y0074341D02*
X0084632Y0074341D01*
X0084632Y0073742D02*
X0085232Y0073742D01*
X0085232Y0073144D02*
X0084632Y0073144D01*
X0084632Y0072545D02*
X0085232Y0072545D01*
X0085232Y0071947D02*
X0084632Y0071947D01*
X0084632Y0071348D02*
X0085232Y0071348D01*
X0085232Y0070750D02*
X0084632Y0070750D01*
X0084632Y0070151D02*
X0085232Y0070151D01*
X0085203Y0066381D02*
X0085203Y0063190D01*
X0087174Y0063190D01*
X0087174Y0065426D01*
X0087099Y0065706D01*
X0086954Y0065957D01*
X0086749Y0066161D01*
X0086499Y0066306D01*
X0086219Y0066381D01*
X0085203Y0066381D01*
X0085203Y0065961D02*
X0084661Y0065961D01*
X0084661Y0065363D02*
X0085203Y0065363D01*
X0085203Y0064764D02*
X0084661Y0064764D01*
X0084661Y0064166D02*
X0085203Y0064166D01*
X0085203Y0063567D02*
X0084661Y0063567D01*
X0085203Y0062969D02*
X0088796Y0062969D01*
X0088796Y0063567D02*
X0087174Y0063567D01*
X0087174Y0064166D02*
X0088796Y0064166D01*
X0088796Y0064764D02*
X0087174Y0064764D01*
X0087174Y0065363D02*
X0088796Y0065363D01*
X0089104Y0065961D02*
X0086949Y0065961D01*
X0087174Y0062370D02*
X0088796Y0062370D01*
X0088796Y0061772D02*
X0087174Y0061772D01*
X0087174Y0061173D02*
X0088796Y0061173D01*
X0088796Y0060575D02*
X0087174Y0060575D01*
X0079814Y0060575D02*
X0057373Y0060575D01*
X0057373Y0061173D02*
X0079814Y0061173D01*
X0079814Y0061772D02*
X0057373Y0061772D01*
X0057373Y0062370D02*
X0079814Y0062370D01*
X0079814Y0062969D02*
X0057373Y0062969D01*
X0057373Y0063313D02*
X0079814Y0063313D01*
X0079814Y0058982D01*
X0057373Y0058982D01*
X0057373Y0063313D01*
X0057373Y0059976D02*
X0079814Y0059976D01*
X0079814Y0059378D02*
X0057373Y0059378D01*
X0060478Y0064764D02*
X0076985Y0064764D01*
X0076147Y0065363D02*
X0060478Y0065363D01*
X0060478Y0065961D02*
X0075549Y0065961D01*
X0074950Y0066560D02*
X0060478Y0066560D01*
X0060478Y0067158D02*
X0074352Y0067158D01*
X0073753Y0067757D02*
X0063783Y0067757D01*
X0061908Y0067757D02*
X0060478Y0067757D01*
X0060478Y0068355D02*
X0061310Y0068355D01*
X0060843Y0068954D02*
X0060478Y0068954D01*
X0060478Y0069552D02*
X0060843Y0069552D01*
X0060843Y0070151D02*
X0060478Y0070151D01*
X0060478Y0070750D02*
X0061112Y0070750D01*
X0061711Y0071348D02*
X0060478Y0071348D01*
X0060478Y0071947D02*
X0079895Y0071947D01*
X0079895Y0072545D02*
X0060478Y0072545D01*
X0060478Y0073144D02*
X0079895Y0073144D01*
X0079895Y0073742D02*
X0060994Y0073742D01*
X0061817Y0080326D02*
X0063754Y0080326D01*
X0063754Y0080924D02*
X0061817Y0080924D01*
X0062570Y0081523D02*
X0063754Y0081523D01*
X0063996Y0082121D02*
X0063169Y0082121D01*
X0061310Y0083785D02*
X0067137Y0089612D01*
X0072728Y0091659D02*
X0076066Y0091659D01*
X0079224Y0094817D01*
X0079224Y0098490D01*
X0077255Y0098490D02*
X0077058Y0098490D01*
X0077058Y0095990D01*
X0075287Y0097998D02*
X0075287Y0098490D01*
X0075287Y0097998D02*
X0074027Y0096738D01*
X0074381Y0096462D01*
X0073909Y0095990D01*
X0073259Y0102486D02*
X0068987Y0102486D01*
X0057373Y0090872D01*
X0057373Y0100872D02*
X0063830Y0100872D01*
X0067413Y0104454D01*
X0073259Y0104454D01*
X0073259Y0106423D02*
X0061822Y0106423D01*
X0057373Y0110872D01*
X0063107Y0116835D02*
X0067787Y0116835D01*
X0067787Y0117433D02*
X0062509Y0117433D01*
X0061910Y0118032D02*
X0067787Y0118032D01*
X0067787Y0118630D02*
X0061424Y0118630D01*
X0061391Y0118551D02*
X0061973Y0119957D01*
X0061973Y0121787D01*
X0061273Y0123477D01*
X0059979Y0124771D01*
X0058288Y0125472D01*
X0057486Y0125472D01*
X0057486Y0137816D01*
X0062491Y0137816D01*
X0062491Y0121187D01*
X0061973Y0121187D01*
X0061973Y0121787D01*
X0061273Y0123477D01*
X0059979Y0124771D01*
X0058288Y0125472D01*
X0057486Y0125472D01*
X0057486Y0130572D01*
X0057673Y0130572D01*
X0057673Y0131172D01*
X0057486Y0131172D01*
X0057486Y0137816D01*
X0073993Y0137816D01*
X0073993Y0133878D01*
X0073743Y0134023D01*
X0073463Y0134098D01*
X0072231Y0134098D01*
X0072231Y0132107D01*
X0071650Y0132107D01*
X0071650Y0134098D01*
X0070417Y0134098D01*
X0070138Y0134023D01*
X0069887Y0133878D01*
X0069682Y0133673D01*
X0069537Y0133422D01*
X0069462Y0133143D01*
X0069462Y0132107D01*
X0071650Y0132107D01*
X0071650Y0131526D01*
X0069462Y0131526D01*
X0069462Y0130491D01*
X0069537Y0130211D01*
X0069682Y0129960D01*
X0069887Y0129755D01*
X0069948Y0129720D01*
X0069662Y0129433D01*
X0069662Y0128292D01*
X0067863Y0128292D01*
X0067061Y0129095D01*
X0065402Y0129095D01*
X0064229Y0127922D01*
X0064229Y0126263D01*
X0065211Y0125281D01*
X0064898Y0124969D01*
X0064898Y0123310D01*
X0066071Y0122137D01*
X0066985Y0122137D01*
X0066985Y0121145D01*
X0067787Y0120342D01*
X0067787Y0112155D01*
X0061391Y0118551D01*
X0061672Y0119229D02*
X0067787Y0119229D01*
X0067787Y0119827D02*
X0061920Y0119827D01*
X0061973Y0120426D02*
X0067704Y0120426D01*
X0067105Y0121024D02*
X0061973Y0121024D01*
X0061973Y0121623D02*
X0062491Y0121623D01*
X0061973Y0121623D02*
X0066985Y0121623D01*
X0065987Y0122221D02*
X0061793Y0122221D01*
X0062491Y0122221D01*
X0062491Y0122820D02*
X0061545Y0122820D01*
X0065388Y0122820D01*
X0064898Y0123419D02*
X0061297Y0123419D01*
X0062491Y0123419D01*
X0062491Y0124017D02*
X0060733Y0124017D01*
X0064898Y0124017D01*
X0064898Y0124616D02*
X0060135Y0124616D01*
X0062491Y0124616D01*
X0062491Y0125214D02*
X0058910Y0125214D01*
X0065144Y0125214D01*
X0064679Y0125813D02*
X0057486Y0125813D01*
X0062491Y0125813D01*
X0062491Y0126411D02*
X0057486Y0126411D01*
X0057673Y0126411D01*
X0057673Y0126072D02*
X0057751Y0126072D01*
X0058497Y0126190D01*
X0059216Y0126423D01*
X0059889Y0126766D01*
X0060500Y0127210D01*
X0061034Y0127745D01*
X0061479Y0128356D01*
X0061822Y0129029D01*
X0062055Y0129748D01*
X0062173Y0130494D01*
X0062173Y0130572D01*
X0057673Y0130572D01*
X0057673Y0126072D01*
X0057673Y0127010D02*
X0057486Y0127010D01*
X0062491Y0127010D01*
X0062491Y0127608D02*
X0057486Y0127608D01*
X0057673Y0127608D01*
X0057673Y0128207D02*
X0057486Y0128207D01*
X0062491Y0128207D01*
X0062491Y0128805D02*
X0057486Y0128805D01*
X0057673Y0128805D01*
X0057673Y0129404D02*
X0057486Y0129404D01*
X0062491Y0129404D01*
X0061943Y0129404D02*
X0069662Y0129404D01*
X0069658Y0130002D02*
X0062095Y0130002D01*
X0062491Y0130002D02*
X0057486Y0130002D01*
X0057673Y0130002D01*
X0057673Y0130601D02*
X0069462Y0130601D01*
X0069462Y0131199D02*
X0062173Y0131199D01*
X0062173Y0131172D02*
X0062173Y0131249D01*
X0062055Y0131996D01*
X0061822Y0132714D01*
X0061479Y0133387D01*
X0061034Y0133999D01*
X0060500Y0134533D01*
X0059889Y0134977D01*
X0059216Y0135320D01*
X0058497Y0135554D01*
X0057751Y0135672D01*
X0057673Y0135672D01*
X0057673Y0131172D01*
X0062173Y0131172D01*
X0062491Y0131199D02*
X0057486Y0131199D01*
X0057673Y0131199D01*
X0057673Y0131798D02*
X0057486Y0131798D01*
X0062491Y0131798D01*
X0062086Y0131798D02*
X0071650Y0131798D01*
X0071650Y0132396D02*
X0072231Y0132396D01*
X0072231Y0132995D02*
X0071650Y0132995D01*
X0071650Y0133593D02*
X0072231Y0133593D01*
X0073993Y0134192D02*
X0060841Y0134192D01*
X0061329Y0133593D02*
X0069636Y0133593D01*
X0069462Y0132995D02*
X0061679Y0132995D01*
X0061925Y0132396D02*
X0069462Y0132396D01*
X0069662Y0128805D02*
X0067350Y0128805D01*
X0066231Y0127092D02*
X0071153Y0127092D01*
X0071389Y0127092D01*
X0068987Y0121974D02*
X0068987Y0111508D01*
X0070135Y0110360D01*
X0073259Y0110360D01*
X0073259Y0108391D02*
X0069854Y0108391D01*
X0057373Y0120872D01*
X0059178Y0126411D02*
X0064229Y0126411D01*
X0064229Y0127010D02*
X0060224Y0127010D01*
X0060898Y0127608D02*
X0064229Y0127608D01*
X0064514Y0128207D02*
X0061370Y0128207D01*
X0061707Y0128805D02*
X0065113Y0128805D01*
X0062491Y0130601D02*
X0057486Y0130601D01*
X0057486Y0132396D02*
X0062491Y0132396D01*
X0062491Y0132995D02*
X0057486Y0132995D01*
X0057673Y0132995D01*
X0057673Y0133593D02*
X0057486Y0133593D01*
X0062491Y0133593D01*
X0062491Y0134192D02*
X0057486Y0134192D01*
X0057673Y0134192D01*
X0057673Y0134790D02*
X0057486Y0134790D01*
X0062491Y0134790D01*
X0062491Y0135389D02*
X0057486Y0135389D01*
X0057673Y0135389D01*
X0057486Y0135987D02*
X0062491Y0135987D01*
X0062491Y0136586D02*
X0057486Y0136586D01*
X0073993Y0136586D01*
X0073993Y0137184D02*
X0057486Y0137184D01*
X0062491Y0137184D01*
X0062491Y0137783D02*
X0057486Y0137783D01*
X0073993Y0137783D01*
X0073993Y0135987D02*
X0057486Y0135987D01*
X0059004Y0135389D02*
X0073993Y0135389D01*
X0073993Y0134790D02*
X0060146Y0134790D01*
X0057673Y0132396D02*
X0057486Y0132396D01*
X0063706Y0116236D02*
X0067787Y0116236D01*
X0067787Y0115638D02*
X0064304Y0115638D01*
X0064903Y0115039D02*
X0067787Y0115039D01*
X0067787Y0114441D02*
X0065501Y0114441D01*
X0066100Y0113842D02*
X0067787Y0113842D01*
X0067787Y0113244D02*
X0066698Y0113244D01*
X0067297Y0112645D02*
X0067787Y0112645D01*
X0084829Y0127589D02*
X0084829Y0128170D01*
X0086820Y0128170D01*
X0086820Y0129402D01*
X0086745Y0129682D01*
X0086600Y0129933D01*
X0086395Y0130138D01*
X0086226Y0130235D01*
X0086226Y0130523D01*
X0089045Y0130523D01*
X0089572Y0131050D01*
X0089572Y0137816D01*
X0091119Y0137816D01*
X0091119Y0131050D01*
X0091646Y0130523D01*
X0091906Y0130523D01*
X0091906Y0129944D01*
X0089635Y0127672D01*
X0089635Y0125984D01*
X0088105Y0125984D01*
X0088082Y0125961D01*
X0088059Y0125984D01*
X0086691Y0125984D01*
X0086745Y0126077D01*
X0086820Y0126357D01*
X0086820Y0127589D01*
X0084829Y0127589D01*
X0084829Y0127608D02*
X0089635Y0127608D01*
X0089635Y0127010D02*
X0086820Y0127010D01*
X0086820Y0126411D02*
X0089635Y0126411D01*
X0090169Y0128207D02*
X0086820Y0128207D01*
X0086820Y0128805D02*
X0090768Y0128805D01*
X0091366Y0129404D02*
X0086819Y0129404D01*
X0086531Y0130002D02*
X0091906Y0130002D01*
X0091568Y0130601D02*
X0089123Y0130601D01*
X0089572Y0131199D02*
X0091119Y0131199D01*
X0091119Y0131798D02*
X0089572Y0131798D01*
X0089572Y0132396D02*
X0091119Y0132396D01*
X0091119Y0132995D02*
X0089572Y0132995D01*
X0089572Y0133593D02*
X0091119Y0133593D01*
X0091119Y0134192D02*
X0089572Y0134192D01*
X0089572Y0134790D02*
X0091119Y0134790D01*
X0091119Y0135389D02*
X0089572Y0135389D01*
X0089572Y0135987D02*
X0091119Y0135987D01*
X0091119Y0136586D02*
X0089572Y0136586D01*
X0089572Y0137184D02*
X0091119Y0137184D01*
X0091119Y0137783D02*
X0089572Y0137783D01*
X0096208Y0132620D02*
X0093987Y0130399D01*
X0093987Y0129848D01*
X0096208Y0132620D02*
X0106177Y0132620D01*
X0109735Y0129061D01*
X0107457Y0128805D02*
X0107407Y0128805D01*
X0107407Y0129404D02*
X0107457Y0129404D01*
X0107457Y0128207D02*
X0106949Y0128207D01*
X0107457Y0127608D02*
X0106351Y0127608D01*
X0107507Y0127010D02*
X0104028Y0127010D01*
X0104459Y0127608D02*
X0103470Y0127608D01*
X0103470Y0128207D02*
X0103860Y0128207D01*
X0104626Y0126411D02*
X0107257Y0126411D01*
X0107257Y0125813D02*
X0105045Y0125813D01*
X0105045Y0125214D02*
X0109445Y0125214D01*
X0109445Y0124833D02*
X0107257Y0124833D01*
X0107257Y0123798D01*
X0107332Y0123518D01*
X0107477Y0123267D01*
X0107682Y0123062D01*
X0107933Y0122918D01*
X0108213Y0122843D01*
X0109445Y0122843D01*
X0109445Y0124833D01*
X0109445Y0124616D02*
X0110026Y0124616D01*
X0110026Y0124017D02*
X0109445Y0124017D01*
X0109445Y0123419D02*
X0110026Y0123419D01*
X0111404Y0122820D02*
X0107013Y0122820D01*
X0107013Y0123419D02*
X0107390Y0123419D01*
X0107257Y0124017D02*
X0106430Y0124017D01*
X0107257Y0124616D02*
X0105045Y0124616D01*
X0103043Y0125163D02*
X0102294Y0125163D01*
X0099302Y0122171D01*
X0098968Y0122171D01*
X0098968Y0120202D02*
X0102609Y0120202D01*
X0105011Y0122604D01*
X0107013Y0122221D02*
X0111404Y0122221D01*
X0111404Y0121623D02*
X0108273Y0121623D01*
X0108871Y0121024D02*
X0111404Y0121024D01*
X0111404Y0120426D02*
X0108982Y0120426D01*
X0108982Y0119827D02*
X0111404Y0119827D01*
X0111404Y0119229D02*
X0110706Y0119229D01*
X0111305Y0118630D02*
X0111404Y0118630D01*
X0111404Y0118032D02*
X0111344Y0118032D01*
X0111344Y0117433D02*
X0111404Y0117433D01*
X0111404Y0116835D02*
X0111247Y0116835D01*
X0106980Y0120084D02*
X0105129Y0118234D01*
X0098968Y0118234D01*
X0098968Y0116265D02*
X0105208Y0116265D01*
X0105798Y0115675D01*
X0096940Y0124198D02*
X0100424Y0127683D01*
X0101468Y0127683D01*
X0097924Y0129730D02*
X0105169Y0129730D01*
X0105405Y0129494D01*
X0097924Y0129730D02*
X0097924Y0129848D01*
X0088082Y0118824D02*
X0088082Y0113313D01*
X0086113Y0111344D01*
X0085813Y0111044D02*
X0085813Y0101221D01*
X0086413Y0101221D01*
X0086413Y0111044D01*
X0085813Y0111044D01*
X0085813Y0110850D02*
X0086413Y0110850D01*
X0086413Y0110251D02*
X0085813Y0110251D01*
X0085813Y0109653D02*
X0086413Y0109653D01*
X0086413Y0109054D02*
X0085813Y0109054D01*
X0085813Y0108456D02*
X0086413Y0108456D01*
X0086413Y0107857D02*
X0085813Y0107857D01*
X0085813Y0107259D02*
X0086413Y0107259D01*
X0086413Y0106660D02*
X0085813Y0106660D01*
X0085813Y0106062D02*
X0086413Y0106062D01*
X0086413Y0105463D02*
X0085813Y0105463D01*
X0085813Y0104865D02*
X0086413Y0104865D01*
X0086413Y0104266D02*
X0085813Y0104266D01*
X0085813Y0103668D02*
X0086413Y0103668D01*
X0086413Y0103069D02*
X0085813Y0103069D01*
X0085813Y0102471D02*
X0086413Y0102471D01*
X0086413Y0101872D02*
X0085813Y0101872D01*
X0085813Y0101274D02*
X0086413Y0101274D01*
X0080995Y0087328D02*
X0080602Y0087328D01*
X0077058Y0083785D01*
X0074568Y0083917D02*
X0071675Y0083917D01*
X0071675Y0084515D02*
X0074568Y0084515D01*
X0074865Y0085114D02*
X0072210Y0085114D01*
X0072809Y0085712D02*
X0075463Y0085712D01*
X0073407Y0086311D02*
X0077887Y0086311D01*
X0074568Y0083318D02*
X0071675Y0083318D01*
X0071641Y0082720D02*
X0074601Y0082720D01*
X0074970Y0071348D02*
X0079895Y0071348D01*
X0079977Y0070750D02*
X0075569Y0070750D01*
X0076167Y0070151D02*
X0080610Y0070151D01*
X0100805Y0066560D02*
X0103478Y0066560D01*
X0100187Y0058779D02*
X0111404Y0058779D01*
X0111404Y0058181D02*
X0100786Y0058181D01*
X0111245Y0082121D02*
X0111404Y0082121D01*
X0111404Y0082720D02*
X0111245Y0082720D01*
X0111245Y0083318D02*
X0111404Y0083318D01*
X0111404Y0083917D02*
X0111245Y0083917D01*
X0111245Y0084515D02*
X0111404Y0084515D01*
X0111404Y0085114D02*
X0111245Y0085114D01*
X0111193Y0085712D02*
X0111404Y0085712D01*
X0108554Y0085712D02*
X0108554Y0085712D01*
X0108554Y0085114D02*
X0108554Y0085114D01*
X0108554Y0084515D02*
X0108554Y0084515D01*
X0108554Y0083917D02*
X0108554Y0083917D01*
X0108554Y0086311D02*
X0108554Y0086311D01*
D26*
X0100287Y0094966D03*
X0098003Y0092486D03*
X0095169Y0095596D03*
X0095405Y0102013D03*
X0102255Y0098746D03*
X0108554Y0098352D03*
X0110050Y0106502D03*
X0105798Y0107013D03*
X0105798Y0112840D03*
X0105798Y0115675D03*
X0109342Y0117761D03*
X0110129Y0120793D03*
X0106980Y0120084D03*
X0105011Y0122604D03*
X0103043Y0125163D03*
X0101468Y0127683D03*
X0105405Y0129494D03*
X0092019Y0120793D03*
X0088082Y0118824D03*
X0084145Y0120793D03*
X0084145Y0116462D03*
X0092019Y0115281D03*
X0095602Y0111856D03*
X0087294Y0102289D03*
X0078633Y0103864D03*
X0079027Y0108588D03*
X0069775Y0099927D03*
X0073909Y0095990D03*
X0077058Y0095990D03*
X0072728Y0091659D03*
X0080995Y0087328D03*
X0085720Y0089297D03*
X0089263Y0084769D03*
X0087294Y0077683D03*
X0095641Y0072722D03*
X0093751Y0061725D03*
X0075247Y0059415D03*
X0062649Y0060084D03*
X0062846Y0069651D03*
X0062885Y0103864D03*
X0066035Y0115675D03*
X0063279Y0120006D03*
X0066901Y0124139D03*
X0068987Y0121974D03*
X0066231Y0127092D03*
X0066035Y0132210D03*
X0071940Y0136541D03*
X0081192Y0131580D03*
X0090444Y0131029D03*
D27*
X0093791Y0129848D02*
X0091035Y0127092D01*
X0091035Y0124198D01*
X0093791Y0129848D02*
X0093987Y0129848D01*
X0081192Y0129454D02*
X0080602Y0127880D01*
X0081192Y0126698D01*
X0081192Y0124198D01*
X0079224Y0124198D02*
X0079224Y0126502D01*
X0080602Y0127880D01*
X0081192Y0129454D02*
X0081192Y0131580D01*
X0075287Y0124198D02*
X0072196Y0127289D01*
X0071940Y0127880D01*
X0071153Y0127289D01*
X0071153Y0127092D01*
X0071153Y0118234D01*
X0071153Y0112328D01*
X0073259Y0112328D01*
X0073259Y0118234D02*
X0071153Y0118234D01*
X0069775Y0100517D02*
X0069775Y0099927D01*
X0069775Y0100517D02*
X0073259Y0100517D01*
X0081783Y0080635D02*
X0081783Y0078273D01*
X0084932Y0075124D02*
X0088082Y0075124D01*
X0088082Y0080635D01*
X0090838Y0071974D02*
X0079814Y0071974D01*
X0100287Y0094966D02*
X0104420Y0094966D01*
X0104420Y0094218D01*
X0102255Y0102486D02*
X0098968Y0102486D01*
X0095405Y0102013D02*
X0095405Y0106423D01*
X0098968Y0106423D01*
X0098968Y0110360D02*
X0102570Y0110360D01*
X0102570Y0110084D01*
X0102570Y0110517D01*
X0108121Y0110517D01*
X0109342Y0111738D01*
X0109342Y0117761D01*
X0105798Y0113352D02*
X0105798Y0112840D01*
X0105798Y0113352D02*
X0103239Y0113352D01*
X0102570Y0114021D01*
X0094972Y0098490D02*
X0094972Y0095793D01*
X0095169Y0095596D01*
D28*
X0078672Y0078273D03*
X0078672Y0075911D03*
X0071586Y0076305D03*
X0071586Y0078667D03*
X0071586Y0073943D03*
X0070405Y0065675D03*
X0065995Y0065675D03*
X0062846Y0066777D03*
X0062649Y0062447D03*
X0062885Y0072801D03*
X0062885Y0075045D03*
X0075247Y0061659D03*
X0091940Y0067958D03*
X0101901Y0065675D03*
D29*
X0099106Y0061372D02*
X0096322Y0058588D01*
X0090838Y0058588D01*
X0081783Y0058588D01*
X0081783Y0066856D01*
X0077058Y0066856D01*
X0074263Y0069651D01*
X0062846Y0069651D01*
X0059342Y0074494D02*
X0056035Y0071187D01*
X0056035Y0064336D01*
X0059342Y0074494D02*
X0059342Y0079061D01*
X0090838Y0062919D02*
X0090838Y0058588D01*
X0099106Y0061372D02*
X0099106Y0073155D01*
X0098672Y0072722D01*
X0095641Y0072722D01*
X0099106Y0073155D02*
X0101861Y0075911D01*
X0101861Y0077880D01*
X0101861Y0082604D01*
X0100680Y0083785D01*
X0102728Y0078273D02*
X0102728Y0077880D01*
X0101861Y0077880D01*
X0103436Y0089297D02*
X0097924Y0089297D01*
X0103436Y0089297D02*
X0104420Y0089730D01*
X0104420Y0094218D01*
D30*
X0093987Y0089297D02*
X0093003Y0088313D01*
X0093003Y0083785D01*
X0092806Y0083785D01*
X0093003Y0083785D02*
X0093003Y0079454D01*
X0077255Y0124198D02*
X0077255Y0134769D01*
X0076861Y0134769D01*
M02*
