G75*
%MOIN*%
%OFA0B0*%
%FSLAX25Y25*%
%IPPOS*%
%LPD*%
%AMOC8*
5,1,8,0,0,1.08239X$1,22.5*
%
%ADD10C,0.00000*%
%ADD11C,0.06000*%
%ADD12C,0.07906*%
%ADD13C,0.05937*%
%ADD14C,0.03181*%
%ADD15C,0.02205*%
%ADD16C,0.00600*%
%ADD17C,0.00800*%
%ADD18C,0.01000*%
%ADD19C,0.01200*%
D10*
X0051468Y0044415D02*
X0112491Y0044415D01*
X0112491Y0087722D01*
X0112491Y0079848D02*
X0112491Y0138903D01*
X0051468Y0138903D01*
X0051468Y0044415D01*
X0056625Y0047013D02*
X0056627Y0047061D01*
X0056633Y0047109D01*
X0056643Y0047156D01*
X0056656Y0047202D01*
X0056674Y0047247D01*
X0056694Y0047291D01*
X0056719Y0047333D01*
X0056747Y0047372D01*
X0056777Y0047409D01*
X0056811Y0047443D01*
X0056848Y0047475D01*
X0056886Y0047504D01*
X0056927Y0047529D01*
X0056970Y0047551D01*
X0057015Y0047569D01*
X0057061Y0047583D01*
X0057108Y0047594D01*
X0057156Y0047601D01*
X0057204Y0047604D01*
X0057252Y0047603D01*
X0057300Y0047598D01*
X0057348Y0047589D01*
X0057394Y0047577D01*
X0057439Y0047560D01*
X0057483Y0047540D01*
X0057525Y0047517D01*
X0057565Y0047490D01*
X0057603Y0047460D01*
X0057638Y0047427D01*
X0057670Y0047391D01*
X0057700Y0047353D01*
X0057726Y0047312D01*
X0057748Y0047269D01*
X0057768Y0047225D01*
X0057783Y0047180D01*
X0057795Y0047133D01*
X0057803Y0047085D01*
X0057807Y0047037D01*
X0057807Y0046989D01*
X0057803Y0046941D01*
X0057795Y0046893D01*
X0057783Y0046846D01*
X0057768Y0046801D01*
X0057748Y0046757D01*
X0057726Y0046714D01*
X0057700Y0046673D01*
X0057670Y0046635D01*
X0057638Y0046599D01*
X0057603Y0046566D01*
X0057565Y0046536D01*
X0057525Y0046509D01*
X0057483Y0046486D01*
X0057439Y0046466D01*
X0057394Y0046449D01*
X0057348Y0046437D01*
X0057300Y0046428D01*
X0057252Y0046423D01*
X0057204Y0046422D01*
X0057156Y0046425D01*
X0057108Y0046432D01*
X0057061Y0046443D01*
X0057015Y0046457D01*
X0056970Y0046475D01*
X0056927Y0046497D01*
X0056886Y0046522D01*
X0056848Y0046551D01*
X0056811Y0046583D01*
X0056777Y0046617D01*
X0056747Y0046654D01*
X0056719Y0046693D01*
X0056694Y0046735D01*
X0056674Y0046779D01*
X0056656Y0046824D01*
X0056643Y0046870D01*
X0056633Y0046917D01*
X0056627Y0046965D01*
X0056625Y0047013D01*
X0056625Y0054415D02*
X0056627Y0054463D01*
X0056633Y0054511D01*
X0056643Y0054558D01*
X0056656Y0054604D01*
X0056674Y0054649D01*
X0056694Y0054693D01*
X0056719Y0054735D01*
X0056747Y0054774D01*
X0056777Y0054811D01*
X0056811Y0054845D01*
X0056848Y0054877D01*
X0056886Y0054906D01*
X0056927Y0054931D01*
X0056970Y0054953D01*
X0057015Y0054971D01*
X0057061Y0054985D01*
X0057108Y0054996D01*
X0057156Y0055003D01*
X0057204Y0055006D01*
X0057252Y0055005D01*
X0057300Y0055000D01*
X0057348Y0054991D01*
X0057394Y0054979D01*
X0057439Y0054962D01*
X0057483Y0054942D01*
X0057525Y0054919D01*
X0057565Y0054892D01*
X0057603Y0054862D01*
X0057638Y0054829D01*
X0057670Y0054793D01*
X0057700Y0054755D01*
X0057726Y0054714D01*
X0057748Y0054671D01*
X0057768Y0054627D01*
X0057783Y0054582D01*
X0057795Y0054535D01*
X0057803Y0054487D01*
X0057807Y0054439D01*
X0057807Y0054391D01*
X0057803Y0054343D01*
X0057795Y0054295D01*
X0057783Y0054248D01*
X0057768Y0054203D01*
X0057748Y0054159D01*
X0057726Y0054116D01*
X0057700Y0054075D01*
X0057670Y0054037D01*
X0057638Y0054001D01*
X0057603Y0053968D01*
X0057565Y0053938D01*
X0057525Y0053911D01*
X0057483Y0053888D01*
X0057439Y0053868D01*
X0057394Y0053851D01*
X0057348Y0053839D01*
X0057300Y0053830D01*
X0057252Y0053825D01*
X0057204Y0053824D01*
X0057156Y0053827D01*
X0057108Y0053834D01*
X0057061Y0053845D01*
X0057015Y0053859D01*
X0056970Y0053877D01*
X0056927Y0053899D01*
X0056886Y0053924D01*
X0056848Y0053953D01*
X0056811Y0053985D01*
X0056777Y0054019D01*
X0056747Y0054056D01*
X0056719Y0054095D01*
X0056694Y0054137D01*
X0056674Y0054181D01*
X0056656Y0054226D01*
X0056643Y0054272D01*
X0056633Y0054319D01*
X0056627Y0054367D01*
X0056625Y0054415D01*
X0064026Y0054415D02*
X0064028Y0054463D01*
X0064034Y0054511D01*
X0064044Y0054558D01*
X0064057Y0054604D01*
X0064075Y0054649D01*
X0064095Y0054693D01*
X0064120Y0054735D01*
X0064148Y0054774D01*
X0064178Y0054811D01*
X0064212Y0054845D01*
X0064249Y0054877D01*
X0064287Y0054906D01*
X0064328Y0054931D01*
X0064371Y0054953D01*
X0064416Y0054971D01*
X0064462Y0054985D01*
X0064509Y0054996D01*
X0064557Y0055003D01*
X0064605Y0055006D01*
X0064653Y0055005D01*
X0064701Y0055000D01*
X0064749Y0054991D01*
X0064795Y0054979D01*
X0064840Y0054962D01*
X0064884Y0054942D01*
X0064926Y0054919D01*
X0064966Y0054892D01*
X0065004Y0054862D01*
X0065039Y0054829D01*
X0065071Y0054793D01*
X0065101Y0054755D01*
X0065127Y0054714D01*
X0065149Y0054671D01*
X0065169Y0054627D01*
X0065184Y0054582D01*
X0065196Y0054535D01*
X0065204Y0054487D01*
X0065208Y0054439D01*
X0065208Y0054391D01*
X0065204Y0054343D01*
X0065196Y0054295D01*
X0065184Y0054248D01*
X0065169Y0054203D01*
X0065149Y0054159D01*
X0065127Y0054116D01*
X0065101Y0054075D01*
X0065071Y0054037D01*
X0065039Y0054001D01*
X0065004Y0053968D01*
X0064966Y0053938D01*
X0064926Y0053911D01*
X0064884Y0053888D01*
X0064840Y0053868D01*
X0064795Y0053851D01*
X0064749Y0053839D01*
X0064701Y0053830D01*
X0064653Y0053825D01*
X0064605Y0053824D01*
X0064557Y0053827D01*
X0064509Y0053834D01*
X0064462Y0053845D01*
X0064416Y0053859D01*
X0064371Y0053877D01*
X0064328Y0053899D01*
X0064287Y0053924D01*
X0064249Y0053953D01*
X0064212Y0053985D01*
X0064178Y0054019D01*
X0064148Y0054056D01*
X0064120Y0054095D01*
X0064095Y0054137D01*
X0064075Y0054181D01*
X0064057Y0054226D01*
X0064044Y0054272D01*
X0064034Y0054319D01*
X0064028Y0054367D01*
X0064026Y0054415D01*
X0064026Y0047013D02*
X0064028Y0047061D01*
X0064034Y0047109D01*
X0064044Y0047156D01*
X0064057Y0047202D01*
X0064075Y0047247D01*
X0064095Y0047291D01*
X0064120Y0047333D01*
X0064148Y0047372D01*
X0064178Y0047409D01*
X0064212Y0047443D01*
X0064249Y0047475D01*
X0064287Y0047504D01*
X0064328Y0047529D01*
X0064371Y0047551D01*
X0064416Y0047569D01*
X0064462Y0047583D01*
X0064509Y0047594D01*
X0064557Y0047601D01*
X0064605Y0047604D01*
X0064653Y0047603D01*
X0064701Y0047598D01*
X0064749Y0047589D01*
X0064795Y0047577D01*
X0064840Y0047560D01*
X0064884Y0047540D01*
X0064926Y0047517D01*
X0064966Y0047490D01*
X0065004Y0047460D01*
X0065039Y0047427D01*
X0065071Y0047391D01*
X0065101Y0047353D01*
X0065127Y0047312D01*
X0065149Y0047269D01*
X0065169Y0047225D01*
X0065184Y0047180D01*
X0065196Y0047133D01*
X0065204Y0047085D01*
X0065208Y0047037D01*
X0065208Y0046989D01*
X0065204Y0046941D01*
X0065196Y0046893D01*
X0065184Y0046846D01*
X0065169Y0046801D01*
X0065149Y0046757D01*
X0065127Y0046714D01*
X0065101Y0046673D01*
X0065071Y0046635D01*
X0065039Y0046599D01*
X0065004Y0046566D01*
X0064966Y0046536D01*
X0064926Y0046509D01*
X0064884Y0046486D01*
X0064840Y0046466D01*
X0064795Y0046449D01*
X0064749Y0046437D01*
X0064701Y0046428D01*
X0064653Y0046423D01*
X0064605Y0046422D01*
X0064557Y0046425D01*
X0064509Y0046432D01*
X0064462Y0046443D01*
X0064416Y0046457D01*
X0064371Y0046475D01*
X0064328Y0046497D01*
X0064287Y0046522D01*
X0064249Y0046551D01*
X0064212Y0046583D01*
X0064178Y0046617D01*
X0064148Y0046654D01*
X0064120Y0046693D01*
X0064095Y0046735D01*
X0064075Y0046779D01*
X0064057Y0046824D01*
X0064044Y0046870D01*
X0064034Y0046917D01*
X0064028Y0046965D01*
X0064026Y0047013D01*
X0071192Y0047013D02*
X0071194Y0047061D01*
X0071200Y0047109D01*
X0071210Y0047156D01*
X0071223Y0047202D01*
X0071241Y0047247D01*
X0071261Y0047291D01*
X0071286Y0047333D01*
X0071314Y0047372D01*
X0071344Y0047409D01*
X0071378Y0047443D01*
X0071415Y0047475D01*
X0071453Y0047504D01*
X0071494Y0047529D01*
X0071537Y0047551D01*
X0071582Y0047569D01*
X0071628Y0047583D01*
X0071675Y0047594D01*
X0071723Y0047601D01*
X0071771Y0047604D01*
X0071819Y0047603D01*
X0071867Y0047598D01*
X0071915Y0047589D01*
X0071961Y0047577D01*
X0072006Y0047560D01*
X0072050Y0047540D01*
X0072092Y0047517D01*
X0072132Y0047490D01*
X0072170Y0047460D01*
X0072205Y0047427D01*
X0072237Y0047391D01*
X0072267Y0047353D01*
X0072293Y0047312D01*
X0072315Y0047269D01*
X0072335Y0047225D01*
X0072350Y0047180D01*
X0072362Y0047133D01*
X0072370Y0047085D01*
X0072374Y0047037D01*
X0072374Y0046989D01*
X0072370Y0046941D01*
X0072362Y0046893D01*
X0072350Y0046846D01*
X0072335Y0046801D01*
X0072315Y0046757D01*
X0072293Y0046714D01*
X0072267Y0046673D01*
X0072237Y0046635D01*
X0072205Y0046599D01*
X0072170Y0046566D01*
X0072132Y0046536D01*
X0072092Y0046509D01*
X0072050Y0046486D01*
X0072006Y0046466D01*
X0071961Y0046449D01*
X0071915Y0046437D01*
X0071867Y0046428D01*
X0071819Y0046423D01*
X0071771Y0046422D01*
X0071723Y0046425D01*
X0071675Y0046432D01*
X0071628Y0046443D01*
X0071582Y0046457D01*
X0071537Y0046475D01*
X0071494Y0046497D01*
X0071453Y0046522D01*
X0071415Y0046551D01*
X0071378Y0046583D01*
X0071344Y0046617D01*
X0071314Y0046654D01*
X0071286Y0046693D01*
X0071261Y0046735D01*
X0071241Y0046779D01*
X0071223Y0046824D01*
X0071210Y0046870D01*
X0071200Y0046917D01*
X0071194Y0046965D01*
X0071192Y0047013D01*
X0071192Y0054415D02*
X0071194Y0054463D01*
X0071200Y0054511D01*
X0071210Y0054558D01*
X0071223Y0054604D01*
X0071241Y0054649D01*
X0071261Y0054693D01*
X0071286Y0054735D01*
X0071314Y0054774D01*
X0071344Y0054811D01*
X0071378Y0054845D01*
X0071415Y0054877D01*
X0071453Y0054906D01*
X0071494Y0054931D01*
X0071537Y0054953D01*
X0071582Y0054971D01*
X0071628Y0054985D01*
X0071675Y0054996D01*
X0071723Y0055003D01*
X0071771Y0055006D01*
X0071819Y0055005D01*
X0071867Y0055000D01*
X0071915Y0054991D01*
X0071961Y0054979D01*
X0072006Y0054962D01*
X0072050Y0054942D01*
X0072092Y0054919D01*
X0072132Y0054892D01*
X0072170Y0054862D01*
X0072205Y0054829D01*
X0072237Y0054793D01*
X0072267Y0054755D01*
X0072293Y0054714D01*
X0072315Y0054671D01*
X0072335Y0054627D01*
X0072350Y0054582D01*
X0072362Y0054535D01*
X0072370Y0054487D01*
X0072374Y0054439D01*
X0072374Y0054391D01*
X0072370Y0054343D01*
X0072362Y0054295D01*
X0072350Y0054248D01*
X0072335Y0054203D01*
X0072315Y0054159D01*
X0072293Y0054116D01*
X0072267Y0054075D01*
X0072237Y0054037D01*
X0072205Y0054001D01*
X0072170Y0053968D01*
X0072132Y0053938D01*
X0072092Y0053911D01*
X0072050Y0053888D01*
X0072006Y0053868D01*
X0071961Y0053851D01*
X0071915Y0053839D01*
X0071867Y0053830D01*
X0071819Y0053825D01*
X0071771Y0053824D01*
X0071723Y0053827D01*
X0071675Y0053834D01*
X0071628Y0053845D01*
X0071582Y0053859D01*
X0071537Y0053877D01*
X0071494Y0053899D01*
X0071453Y0053924D01*
X0071415Y0053953D01*
X0071378Y0053985D01*
X0071344Y0054019D01*
X0071314Y0054056D01*
X0071286Y0054095D01*
X0071261Y0054137D01*
X0071241Y0054181D01*
X0071223Y0054226D01*
X0071210Y0054272D01*
X0071200Y0054319D01*
X0071194Y0054367D01*
X0071192Y0054415D01*
X0078593Y0054415D02*
X0078595Y0054463D01*
X0078601Y0054511D01*
X0078611Y0054558D01*
X0078624Y0054604D01*
X0078642Y0054649D01*
X0078662Y0054693D01*
X0078687Y0054735D01*
X0078715Y0054774D01*
X0078745Y0054811D01*
X0078779Y0054845D01*
X0078816Y0054877D01*
X0078854Y0054906D01*
X0078895Y0054931D01*
X0078938Y0054953D01*
X0078983Y0054971D01*
X0079029Y0054985D01*
X0079076Y0054996D01*
X0079124Y0055003D01*
X0079172Y0055006D01*
X0079220Y0055005D01*
X0079268Y0055000D01*
X0079316Y0054991D01*
X0079362Y0054979D01*
X0079407Y0054962D01*
X0079451Y0054942D01*
X0079493Y0054919D01*
X0079533Y0054892D01*
X0079571Y0054862D01*
X0079606Y0054829D01*
X0079638Y0054793D01*
X0079668Y0054755D01*
X0079694Y0054714D01*
X0079716Y0054671D01*
X0079736Y0054627D01*
X0079751Y0054582D01*
X0079763Y0054535D01*
X0079771Y0054487D01*
X0079775Y0054439D01*
X0079775Y0054391D01*
X0079771Y0054343D01*
X0079763Y0054295D01*
X0079751Y0054248D01*
X0079736Y0054203D01*
X0079716Y0054159D01*
X0079694Y0054116D01*
X0079668Y0054075D01*
X0079638Y0054037D01*
X0079606Y0054001D01*
X0079571Y0053968D01*
X0079533Y0053938D01*
X0079493Y0053911D01*
X0079451Y0053888D01*
X0079407Y0053868D01*
X0079362Y0053851D01*
X0079316Y0053839D01*
X0079268Y0053830D01*
X0079220Y0053825D01*
X0079172Y0053824D01*
X0079124Y0053827D01*
X0079076Y0053834D01*
X0079029Y0053845D01*
X0078983Y0053859D01*
X0078938Y0053877D01*
X0078895Y0053899D01*
X0078854Y0053924D01*
X0078816Y0053953D01*
X0078779Y0053985D01*
X0078745Y0054019D01*
X0078715Y0054056D01*
X0078687Y0054095D01*
X0078662Y0054137D01*
X0078642Y0054181D01*
X0078624Y0054226D01*
X0078611Y0054272D01*
X0078601Y0054319D01*
X0078595Y0054367D01*
X0078593Y0054415D01*
X0078593Y0047013D02*
X0078595Y0047061D01*
X0078601Y0047109D01*
X0078611Y0047156D01*
X0078624Y0047202D01*
X0078642Y0047247D01*
X0078662Y0047291D01*
X0078687Y0047333D01*
X0078715Y0047372D01*
X0078745Y0047409D01*
X0078779Y0047443D01*
X0078816Y0047475D01*
X0078854Y0047504D01*
X0078895Y0047529D01*
X0078938Y0047551D01*
X0078983Y0047569D01*
X0079029Y0047583D01*
X0079076Y0047594D01*
X0079124Y0047601D01*
X0079172Y0047604D01*
X0079220Y0047603D01*
X0079268Y0047598D01*
X0079316Y0047589D01*
X0079362Y0047577D01*
X0079407Y0047560D01*
X0079451Y0047540D01*
X0079493Y0047517D01*
X0079533Y0047490D01*
X0079571Y0047460D01*
X0079606Y0047427D01*
X0079638Y0047391D01*
X0079668Y0047353D01*
X0079694Y0047312D01*
X0079716Y0047269D01*
X0079736Y0047225D01*
X0079751Y0047180D01*
X0079763Y0047133D01*
X0079771Y0047085D01*
X0079775Y0047037D01*
X0079775Y0046989D01*
X0079771Y0046941D01*
X0079763Y0046893D01*
X0079751Y0046846D01*
X0079736Y0046801D01*
X0079716Y0046757D01*
X0079694Y0046714D01*
X0079668Y0046673D01*
X0079638Y0046635D01*
X0079606Y0046599D01*
X0079571Y0046566D01*
X0079533Y0046536D01*
X0079493Y0046509D01*
X0079451Y0046486D01*
X0079407Y0046466D01*
X0079362Y0046449D01*
X0079316Y0046437D01*
X0079268Y0046428D01*
X0079220Y0046423D01*
X0079172Y0046422D01*
X0079124Y0046425D01*
X0079076Y0046432D01*
X0079029Y0046443D01*
X0078983Y0046457D01*
X0078938Y0046475D01*
X0078895Y0046497D01*
X0078854Y0046522D01*
X0078816Y0046551D01*
X0078779Y0046583D01*
X0078745Y0046617D01*
X0078715Y0046654D01*
X0078687Y0046693D01*
X0078662Y0046735D01*
X0078642Y0046779D01*
X0078624Y0046824D01*
X0078611Y0046870D01*
X0078601Y0046917D01*
X0078595Y0046965D01*
X0078593Y0047013D01*
X0087333Y0047013D02*
X0087335Y0047061D01*
X0087341Y0047109D01*
X0087351Y0047156D01*
X0087364Y0047202D01*
X0087382Y0047247D01*
X0087402Y0047291D01*
X0087427Y0047333D01*
X0087455Y0047372D01*
X0087485Y0047409D01*
X0087519Y0047443D01*
X0087556Y0047475D01*
X0087594Y0047504D01*
X0087635Y0047529D01*
X0087678Y0047551D01*
X0087723Y0047569D01*
X0087769Y0047583D01*
X0087816Y0047594D01*
X0087864Y0047601D01*
X0087912Y0047604D01*
X0087960Y0047603D01*
X0088008Y0047598D01*
X0088056Y0047589D01*
X0088102Y0047577D01*
X0088147Y0047560D01*
X0088191Y0047540D01*
X0088233Y0047517D01*
X0088273Y0047490D01*
X0088311Y0047460D01*
X0088346Y0047427D01*
X0088378Y0047391D01*
X0088408Y0047353D01*
X0088434Y0047312D01*
X0088456Y0047269D01*
X0088476Y0047225D01*
X0088491Y0047180D01*
X0088503Y0047133D01*
X0088511Y0047085D01*
X0088515Y0047037D01*
X0088515Y0046989D01*
X0088511Y0046941D01*
X0088503Y0046893D01*
X0088491Y0046846D01*
X0088476Y0046801D01*
X0088456Y0046757D01*
X0088434Y0046714D01*
X0088408Y0046673D01*
X0088378Y0046635D01*
X0088346Y0046599D01*
X0088311Y0046566D01*
X0088273Y0046536D01*
X0088233Y0046509D01*
X0088191Y0046486D01*
X0088147Y0046466D01*
X0088102Y0046449D01*
X0088056Y0046437D01*
X0088008Y0046428D01*
X0087960Y0046423D01*
X0087912Y0046422D01*
X0087864Y0046425D01*
X0087816Y0046432D01*
X0087769Y0046443D01*
X0087723Y0046457D01*
X0087678Y0046475D01*
X0087635Y0046497D01*
X0087594Y0046522D01*
X0087556Y0046551D01*
X0087519Y0046583D01*
X0087485Y0046617D01*
X0087455Y0046654D01*
X0087427Y0046693D01*
X0087402Y0046735D01*
X0087382Y0046779D01*
X0087364Y0046824D01*
X0087351Y0046870D01*
X0087341Y0046917D01*
X0087335Y0046965D01*
X0087333Y0047013D01*
X0087333Y0054415D02*
X0087335Y0054463D01*
X0087341Y0054511D01*
X0087351Y0054558D01*
X0087364Y0054604D01*
X0087382Y0054649D01*
X0087402Y0054693D01*
X0087427Y0054735D01*
X0087455Y0054774D01*
X0087485Y0054811D01*
X0087519Y0054845D01*
X0087556Y0054877D01*
X0087594Y0054906D01*
X0087635Y0054931D01*
X0087678Y0054953D01*
X0087723Y0054971D01*
X0087769Y0054985D01*
X0087816Y0054996D01*
X0087864Y0055003D01*
X0087912Y0055006D01*
X0087960Y0055005D01*
X0088008Y0055000D01*
X0088056Y0054991D01*
X0088102Y0054979D01*
X0088147Y0054962D01*
X0088191Y0054942D01*
X0088233Y0054919D01*
X0088273Y0054892D01*
X0088311Y0054862D01*
X0088346Y0054829D01*
X0088378Y0054793D01*
X0088408Y0054755D01*
X0088434Y0054714D01*
X0088456Y0054671D01*
X0088476Y0054627D01*
X0088491Y0054582D01*
X0088503Y0054535D01*
X0088511Y0054487D01*
X0088515Y0054439D01*
X0088515Y0054391D01*
X0088511Y0054343D01*
X0088503Y0054295D01*
X0088491Y0054248D01*
X0088476Y0054203D01*
X0088456Y0054159D01*
X0088434Y0054116D01*
X0088408Y0054075D01*
X0088378Y0054037D01*
X0088346Y0054001D01*
X0088311Y0053968D01*
X0088273Y0053938D01*
X0088233Y0053911D01*
X0088191Y0053888D01*
X0088147Y0053868D01*
X0088102Y0053851D01*
X0088056Y0053839D01*
X0088008Y0053830D01*
X0087960Y0053825D01*
X0087912Y0053824D01*
X0087864Y0053827D01*
X0087816Y0053834D01*
X0087769Y0053845D01*
X0087723Y0053859D01*
X0087678Y0053877D01*
X0087635Y0053899D01*
X0087594Y0053924D01*
X0087556Y0053953D01*
X0087519Y0053985D01*
X0087485Y0054019D01*
X0087455Y0054056D01*
X0087427Y0054095D01*
X0087402Y0054137D01*
X0087382Y0054181D01*
X0087364Y0054226D01*
X0087351Y0054272D01*
X0087341Y0054319D01*
X0087335Y0054367D01*
X0087333Y0054415D01*
X0094735Y0054415D02*
X0094737Y0054463D01*
X0094743Y0054511D01*
X0094753Y0054558D01*
X0094766Y0054604D01*
X0094784Y0054649D01*
X0094804Y0054693D01*
X0094829Y0054735D01*
X0094857Y0054774D01*
X0094887Y0054811D01*
X0094921Y0054845D01*
X0094958Y0054877D01*
X0094996Y0054906D01*
X0095037Y0054931D01*
X0095080Y0054953D01*
X0095125Y0054971D01*
X0095171Y0054985D01*
X0095218Y0054996D01*
X0095266Y0055003D01*
X0095314Y0055006D01*
X0095362Y0055005D01*
X0095410Y0055000D01*
X0095458Y0054991D01*
X0095504Y0054979D01*
X0095549Y0054962D01*
X0095593Y0054942D01*
X0095635Y0054919D01*
X0095675Y0054892D01*
X0095713Y0054862D01*
X0095748Y0054829D01*
X0095780Y0054793D01*
X0095810Y0054755D01*
X0095836Y0054714D01*
X0095858Y0054671D01*
X0095878Y0054627D01*
X0095893Y0054582D01*
X0095905Y0054535D01*
X0095913Y0054487D01*
X0095917Y0054439D01*
X0095917Y0054391D01*
X0095913Y0054343D01*
X0095905Y0054295D01*
X0095893Y0054248D01*
X0095878Y0054203D01*
X0095858Y0054159D01*
X0095836Y0054116D01*
X0095810Y0054075D01*
X0095780Y0054037D01*
X0095748Y0054001D01*
X0095713Y0053968D01*
X0095675Y0053938D01*
X0095635Y0053911D01*
X0095593Y0053888D01*
X0095549Y0053868D01*
X0095504Y0053851D01*
X0095458Y0053839D01*
X0095410Y0053830D01*
X0095362Y0053825D01*
X0095314Y0053824D01*
X0095266Y0053827D01*
X0095218Y0053834D01*
X0095171Y0053845D01*
X0095125Y0053859D01*
X0095080Y0053877D01*
X0095037Y0053899D01*
X0094996Y0053924D01*
X0094958Y0053953D01*
X0094921Y0053985D01*
X0094887Y0054019D01*
X0094857Y0054056D01*
X0094829Y0054095D01*
X0094804Y0054137D01*
X0094784Y0054181D01*
X0094766Y0054226D01*
X0094753Y0054272D01*
X0094743Y0054319D01*
X0094737Y0054367D01*
X0094735Y0054415D01*
X0094735Y0047013D02*
X0094737Y0047061D01*
X0094743Y0047109D01*
X0094753Y0047156D01*
X0094766Y0047202D01*
X0094784Y0047247D01*
X0094804Y0047291D01*
X0094829Y0047333D01*
X0094857Y0047372D01*
X0094887Y0047409D01*
X0094921Y0047443D01*
X0094958Y0047475D01*
X0094996Y0047504D01*
X0095037Y0047529D01*
X0095080Y0047551D01*
X0095125Y0047569D01*
X0095171Y0047583D01*
X0095218Y0047594D01*
X0095266Y0047601D01*
X0095314Y0047604D01*
X0095362Y0047603D01*
X0095410Y0047598D01*
X0095458Y0047589D01*
X0095504Y0047577D01*
X0095549Y0047560D01*
X0095593Y0047540D01*
X0095635Y0047517D01*
X0095675Y0047490D01*
X0095713Y0047460D01*
X0095748Y0047427D01*
X0095780Y0047391D01*
X0095810Y0047353D01*
X0095836Y0047312D01*
X0095858Y0047269D01*
X0095878Y0047225D01*
X0095893Y0047180D01*
X0095905Y0047133D01*
X0095913Y0047085D01*
X0095917Y0047037D01*
X0095917Y0046989D01*
X0095913Y0046941D01*
X0095905Y0046893D01*
X0095893Y0046846D01*
X0095878Y0046801D01*
X0095858Y0046757D01*
X0095836Y0046714D01*
X0095810Y0046673D01*
X0095780Y0046635D01*
X0095748Y0046599D01*
X0095713Y0046566D01*
X0095675Y0046536D01*
X0095635Y0046509D01*
X0095593Y0046486D01*
X0095549Y0046466D01*
X0095504Y0046449D01*
X0095458Y0046437D01*
X0095410Y0046428D01*
X0095362Y0046423D01*
X0095314Y0046422D01*
X0095266Y0046425D01*
X0095218Y0046432D01*
X0095171Y0046443D01*
X0095125Y0046457D01*
X0095080Y0046475D01*
X0095037Y0046497D01*
X0094996Y0046522D01*
X0094958Y0046551D01*
X0094921Y0046583D01*
X0094887Y0046617D01*
X0094857Y0046654D01*
X0094829Y0046693D01*
X0094804Y0046735D01*
X0094784Y0046779D01*
X0094766Y0046824D01*
X0094753Y0046870D01*
X0094743Y0046917D01*
X0094737Y0046965D01*
X0094735Y0047013D01*
X0101900Y0047013D02*
X0101902Y0047061D01*
X0101908Y0047109D01*
X0101918Y0047156D01*
X0101931Y0047202D01*
X0101949Y0047247D01*
X0101969Y0047291D01*
X0101994Y0047333D01*
X0102022Y0047372D01*
X0102052Y0047409D01*
X0102086Y0047443D01*
X0102123Y0047475D01*
X0102161Y0047504D01*
X0102202Y0047529D01*
X0102245Y0047551D01*
X0102290Y0047569D01*
X0102336Y0047583D01*
X0102383Y0047594D01*
X0102431Y0047601D01*
X0102479Y0047604D01*
X0102527Y0047603D01*
X0102575Y0047598D01*
X0102623Y0047589D01*
X0102669Y0047577D01*
X0102714Y0047560D01*
X0102758Y0047540D01*
X0102800Y0047517D01*
X0102840Y0047490D01*
X0102878Y0047460D01*
X0102913Y0047427D01*
X0102945Y0047391D01*
X0102975Y0047353D01*
X0103001Y0047312D01*
X0103023Y0047269D01*
X0103043Y0047225D01*
X0103058Y0047180D01*
X0103070Y0047133D01*
X0103078Y0047085D01*
X0103082Y0047037D01*
X0103082Y0046989D01*
X0103078Y0046941D01*
X0103070Y0046893D01*
X0103058Y0046846D01*
X0103043Y0046801D01*
X0103023Y0046757D01*
X0103001Y0046714D01*
X0102975Y0046673D01*
X0102945Y0046635D01*
X0102913Y0046599D01*
X0102878Y0046566D01*
X0102840Y0046536D01*
X0102800Y0046509D01*
X0102758Y0046486D01*
X0102714Y0046466D01*
X0102669Y0046449D01*
X0102623Y0046437D01*
X0102575Y0046428D01*
X0102527Y0046423D01*
X0102479Y0046422D01*
X0102431Y0046425D01*
X0102383Y0046432D01*
X0102336Y0046443D01*
X0102290Y0046457D01*
X0102245Y0046475D01*
X0102202Y0046497D01*
X0102161Y0046522D01*
X0102123Y0046551D01*
X0102086Y0046583D01*
X0102052Y0046617D01*
X0102022Y0046654D01*
X0101994Y0046693D01*
X0101969Y0046735D01*
X0101949Y0046779D01*
X0101931Y0046824D01*
X0101918Y0046870D01*
X0101908Y0046917D01*
X0101902Y0046965D01*
X0101900Y0047013D01*
X0101900Y0054415D02*
X0101902Y0054463D01*
X0101908Y0054511D01*
X0101918Y0054558D01*
X0101931Y0054604D01*
X0101949Y0054649D01*
X0101969Y0054693D01*
X0101994Y0054735D01*
X0102022Y0054774D01*
X0102052Y0054811D01*
X0102086Y0054845D01*
X0102123Y0054877D01*
X0102161Y0054906D01*
X0102202Y0054931D01*
X0102245Y0054953D01*
X0102290Y0054971D01*
X0102336Y0054985D01*
X0102383Y0054996D01*
X0102431Y0055003D01*
X0102479Y0055006D01*
X0102527Y0055005D01*
X0102575Y0055000D01*
X0102623Y0054991D01*
X0102669Y0054979D01*
X0102714Y0054962D01*
X0102758Y0054942D01*
X0102800Y0054919D01*
X0102840Y0054892D01*
X0102878Y0054862D01*
X0102913Y0054829D01*
X0102945Y0054793D01*
X0102975Y0054755D01*
X0103001Y0054714D01*
X0103023Y0054671D01*
X0103043Y0054627D01*
X0103058Y0054582D01*
X0103070Y0054535D01*
X0103078Y0054487D01*
X0103082Y0054439D01*
X0103082Y0054391D01*
X0103078Y0054343D01*
X0103070Y0054295D01*
X0103058Y0054248D01*
X0103043Y0054203D01*
X0103023Y0054159D01*
X0103001Y0054116D01*
X0102975Y0054075D01*
X0102945Y0054037D01*
X0102913Y0054001D01*
X0102878Y0053968D01*
X0102840Y0053938D01*
X0102800Y0053911D01*
X0102758Y0053888D01*
X0102714Y0053868D01*
X0102669Y0053851D01*
X0102623Y0053839D01*
X0102575Y0053830D01*
X0102527Y0053825D01*
X0102479Y0053824D01*
X0102431Y0053827D01*
X0102383Y0053834D01*
X0102336Y0053845D01*
X0102290Y0053859D01*
X0102245Y0053877D01*
X0102202Y0053899D01*
X0102161Y0053924D01*
X0102123Y0053953D01*
X0102086Y0053985D01*
X0102052Y0054019D01*
X0102022Y0054056D01*
X0101994Y0054095D01*
X0101969Y0054137D01*
X0101949Y0054181D01*
X0101931Y0054226D01*
X0101918Y0054272D01*
X0101908Y0054319D01*
X0101902Y0054367D01*
X0101900Y0054415D01*
X0109302Y0054415D02*
X0109304Y0054463D01*
X0109310Y0054511D01*
X0109320Y0054558D01*
X0109333Y0054604D01*
X0109351Y0054649D01*
X0109371Y0054693D01*
X0109396Y0054735D01*
X0109424Y0054774D01*
X0109454Y0054811D01*
X0109488Y0054845D01*
X0109525Y0054877D01*
X0109563Y0054906D01*
X0109604Y0054931D01*
X0109647Y0054953D01*
X0109692Y0054971D01*
X0109738Y0054985D01*
X0109785Y0054996D01*
X0109833Y0055003D01*
X0109881Y0055006D01*
X0109929Y0055005D01*
X0109977Y0055000D01*
X0110025Y0054991D01*
X0110071Y0054979D01*
X0110116Y0054962D01*
X0110160Y0054942D01*
X0110202Y0054919D01*
X0110242Y0054892D01*
X0110280Y0054862D01*
X0110315Y0054829D01*
X0110347Y0054793D01*
X0110377Y0054755D01*
X0110403Y0054714D01*
X0110425Y0054671D01*
X0110445Y0054627D01*
X0110460Y0054582D01*
X0110472Y0054535D01*
X0110480Y0054487D01*
X0110484Y0054439D01*
X0110484Y0054391D01*
X0110480Y0054343D01*
X0110472Y0054295D01*
X0110460Y0054248D01*
X0110445Y0054203D01*
X0110425Y0054159D01*
X0110403Y0054116D01*
X0110377Y0054075D01*
X0110347Y0054037D01*
X0110315Y0054001D01*
X0110280Y0053968D01*
X0110242Y0053938D01*
X0110202Y0053911D01*
X0110160Y0053888D01*
X0110116Y0053868D01*
X0110071Y0053851D01*
X0110025Y0053839D01*
X0109977Y0053830D01*
X0109929Y0053825D01*
X0109881Y0053824D01*
X0109833Y0053827D01*
X0109785Y0053834D01*
X0109738Y0053845D01*
X0109692Y0053859D01*
X0109647Y0053877D01*
X0109604Y0053899D01*
X0109563Y0053924D01*
X0109525Y0053953D01*
X0109488Y0053985D01*
X0109454Y0054019D01*
X0109424Y0054056D01*
X0109396Y0054095D01*
X0109371Y0054137D01*
X0109351Y0054181D01*
X0109333Y0054226D01*
X0109320Y0054272D01*
X0109310Y0054319D01*
X0109304Y0054367D01*
X0109302Y0054415D01*
X0109302Y0047013D02*
X0109304Y0047061D01*
X0109310Y0047109D01*
X0109320Y0047156D01*
X0109333Y0047202D01*
X0109351Y0047247D01*
X0109371Y0047291D01*
X0109396Y0047333D01*
X0109424Y0047372D01*
X0109454Y0047409D01*
X0109488Y0047443D01*
X0109525Y0047475D01*
X0109563Y0047504D01*
X0109604Y0047529D01*
X0109647Y0047551D01*
X0109692Y0047569D01*
X0109738Y0047583D01*
X0109785Y0047594D01*
X0109833Y0047601D01*
X0109881Y0047604D01*
X0109929Y0047603D01*
X0109977Y0047598D01*
X0110025Y0047589D01*
X0110071Y0047577D01*
X0110116Y0047560D01*
X0110160Y0047540D01*
X0110202Y0047517D01*
X0110242Y0047490D01*
X0110280Y0047460D01*
X0110315Y0047427D01*
X0110347Y0047391D01*
X0110377Y0047353D01*
X0110403Y0047312D01*
X0110425Y0047269D01*
X0110445Y0047225D01*
X0110460Y0047180D01*
X0110472Y0047133D01*
X0110480Y0047085D01*
X0110484Y0047037D01*
X0110484Y0046989D01*
X0110480Y0046941D01*
X0110472Y0046893D01*
X0110460Y0046846D01*
X0110445Y0046801D01*
X0110425Y0046757D01*
X0110403Y0046714D01*
X0110377Y0046673D01*
X0110347Y0046635D01*
X0110315Y0046599D01*
X0110280Y0046566D01*
X0110242Y0046536D01*
X0110202Y0046509D01*
X0110160Y0046486D01*
X0110116Y0046466D01*
X0110071Y0046449D01*
X0110025Y0046437D01*
X0109977Y0046428D01*
X0109929Y0046423D01*
X0109881Y0046422D01*
X0109833Y0046425D01*
X0109785Y0046432D01*
X0109738Y0046443D01*
X0109692Y0046457D01*
X0109647Y0046475D01*
X0109604Y0046497D01*
X0109563Y0046522D01*
X0109525Y0046551D01*
X0109488Y0046583D01*
X0109454Y0046617D01*
X0109424Y0046654D01*
X0109396Y0046693D01*
X0109371Y0046735D01*
X0109351Y0046779D01*
X0109333Y0046824D01*
X0109320Y0046870D01*
X0109310Y0046917D01*
X0109304Y0046965D01*
X0109302Y0047013D01*
D11*
X0057373Y0090872D03*
X0057373Y0100872D03*
X0057373Y0110872D03*
X0057373Y0120872D03*
X0057373Y0130872D03*
D12*
X0060917Y0050714D03*
X0075483Y0050714D03*
X0091625Y0050714D03*
X0106192Y0050714D03*
D13*
X0108121Y0064336D03*
X0108121Y0071187D03*
X0056035Y0071187D03*
X0056035Y0064336D03*
D14*
X0061310Y0083785D03*
X0069184Y0083785D03*
X0077058Y0083785D03*
X0084932Y0083785D03*
X0092806Y0083785D03*
X0100680Y0083785D03*
X0108554Y0083785D03*
D15*
X0100287Y0094966D03*
X0098003Y0092486D03*
X0095169Y0095596D03*
X0095405Y0102013D03*
X0102255Y0098746D03*
X0108554Y0098352D03*
X0110050Y0106502D03*
X0105798Y0107013D03*
X0105798Y0112840D03*
X0105798Y0115675D03*
X0109342Y0117761D03*
X0110129Y0120793D03*
X0106980Y0120084D03*
X0105011Y0122604D03*
X0103043Y0125163D03*
X0101468Y0127683D03*
X0105405Y0129494D03*
X0092019Y0120793D03*
X0088082Y0118824D03*
X0084145Y0120793D03*
X0084145Y0116462D03*
X0092019Y0115281D03*
X0095602Y0111856D03*
X0087294Y0102289D03*
X0078633Y0103864D03*
X0079027Y0108588D03*
X0069775Y0099927D03*
X0073909Y0095990D03*
X0077058Y0095990D03*
X0072728Y0091659D03*
X0080995Y0087328D03*
X0085720Y0089297D03*
X0089263Y0084769D03*
X0087294Y0077683D03*
X0095641Y0072722D03*
X0091940Y0067958D03*
X0093987Y0061344D03*
X0101901Y0065675D03*
X0078672Y0075911D03*
X0078672Y0078273D03*
X0071586Y0078667D03*
X0071586Y0076305D03*
X0071586Y0073943D03*
X0070405Y0065675D03*
X0065995Y0065675D03*
X0062846Y0066777D03*
X0062846Y0069651D03*
X0062885Y0072801D03*
X0062885Y0075045D03*
X0062649Y0062447D03*
X0062649Y0060084D03*
X0075247Y0059415D03*
X0075247Y0061659D03*
X0062885Y0103864D03*
X0066035Y0115675D03*
X0063279Y0120006D03*
X0066901Y0124139D03*
X0068987Y0121974D03*
X0066231Y0127092D03*
X0066035Y0132210D03*
X0071940Y0136541D03*
X0081192Y0131580D03*
X0090444Y0131029D03*
D16*
X0087334Y0102250D02*
X0089263Y0100321D01*
X0089263Y0090281D01*
X0098003Y0092486D02*
X0098003Y0099376D01*
X0095405Y0101974D01*
D17*
X0093851Y0100311D02*
X0090763Y0100311D01*
X0090763Y0100942D02*
X0089597Y0102108D01*
X0089597Y0103243D01*
X0088248Y0104591D01*
X0086341Y0104591D01*
X0084992Y0103243D01*
X0084992Y0101335D01*
X0086341Y0099987D01*
X0087476Y0099987D01*
X0087763Y0099699D01*
X0087763Y0090510D01*
X0086673Y0091599D01*
X0084766Y0091599D01*
X0083417Y0090251D01*
X0083417Y0088343D01*
X0084766Y0086995D01*
X0086673Y0086995D01*
X0088022Y0088343D01*
X0088022Y0089401D01*
X0088642Y0088781D01*
X0089884Y0088781D01*
X0090763Y0089660D01*
X0090763Y0100942D01*
X0090596Y0101109D02*
X0093102Y0101109D01*
X0093102Y0101060D02*
X0094451Y0099711D01*
X0095546Y0099711D01*
X0096503Y0098754D01*
X0096503Y0094242D01*
X0095701Y0093440D01*
X0095701Y0091532D01*
X0097049Y0090184D01*
X0098957Y0090184D01*
X0100305Y0091532D01*
X0100305Y0092664D01*
X0101240Y0092664D01*
X0102589Y0094013D01*
X0102589Y0095920D01*
X0102065Y0096443D01*
X0103209Y0096443D01*
X0104557Y0097792D01*
X0104557Y0099699D01*
X0103209Y0101048D01*
X0102357Y0101048D01*
X0096266Y0107139D01*
X0094858Y0107139D01*
X0092133Y0107139D01*
X0085105Y0114166D01*
X0086447Y0115509D01*
X0086447Y0117203D01*
X0087128Y0116522D01*
X0089036Y0116522D01*
X0090384Y0117871D01*
X0090384Y0119172D01*
X0091065Y0118491D01*
X0092973Y0118491D01*
X0094321Y0119839D01*
X0094321Y0121747D01*
X0092973Y0123095D01*
X0091065Y0123095D01*
X0089717Y0121747D01*
X0089717Y0120446D01*
X0089036Y0121127D01*
X0087128Y0121127D01*
X0086447Y0120446D01*
X0086447Y0121747D01*
X0085099Y0123095D01*
X0083191Y0123095D01*
X0081843Y0121747D01*
X0081843Y0119839D01*
X0083054Y0118628D01*
X0081849Y0117422D01*
X0072313Y0126958D01*
X0067315Y0126958D01*
X0066799Y0126442D01*
X0065947Y0126442D01*
X0064598Y0125093D01*
X0064598Y0123186D01*
X0065947Y0121837D01*
X0066685Y0121837D01*
X0066685Y0121020D01*
X0068034Y0119672D01*
X0069941Y0119672D01*
X0071290Y0121020D01*
X0071290Y0122928D01*
X0070660Y0123558D01*
X0070905Y0123558D01*
X0089728Y0104734D01*
X0090724Y0103739D01*
X0093874Y0103739D01*
X0093102Y0102967D01*
X0093102Y0101060D01*
X0093102Y0101908D02*
X0089797Y0101908D01*
X0089597Y0102706D02*
X0093102Y0102706D01*
X0093640Y0103505D02*
X0089335Y0103505D01*
X0088536Y0104303D02*
X0090159Y0104303D01*
X0089361Y0105102D02*
X0080651Y0105102D01*
X0080935Y0104818D02*
X0079587Y0106166D01*
X0077679Y0106166D01*
X0076331Y0104818D01*
X0076331Y0102910D01*
X0077679Y0101561D01*
X0079587Y0101561D01*
X0080935Y0102910D01*
X0080935Y0104818D01*
X0080935Y0104303D02*
X0086053Y0104303D01*
X0085254Y0103505D02*
X0080935Y0103505D01*
X0080732Y0102706D02*
X0084992Y0102706D01*
X0084992Y0101908D02*
X0079933Y0101908D01*
X0077333Y0101908D02*
X0064185Y0101908D01*
X0063839Y0101561D02*
X0065187Y0102910D01*
X0065187Y0104818D01*
X0063839Y0106166D01*
X0061931Y0106166D01*
X0060583Y0104818D01*
X0060583Y0103602D01*
X0059752Y0104432D01*
X0058209Y0105072D01*
X0057373Y0105072D01*
X0057373Y0106672D01*
X0058209Y0106672D01*
X0059752Y0107311D01*
X0060934Y0108493D01*
X0061573Y0110036D01*
X0061573Y0111707D01*
X0060934Y0113251D01*
X0059752Y0114432D01*
X0058209Y0115072D01*
X0057373Y0115072D01*
X0057373Y0116672D01*
X0058209Y0116672D01*
X0059752Y0117311D01*
X0060934Y0118493D01*
X0061110Y0118918D01*
X0062325Y0117703D01*
X0064232Y0117703D01*
X0065581Y0119052D01*
X0065581Y0120959D01*
X0064232Y0122308D01*
X0062325Y0122308D01*
X0061573Y0121556D01*
X0061573Y0121707D01*
X0060934Y0123251D01*
X0059752Y0124432D01*
X0058209Y0125072D01*
X0057373Y0125072D01*
X0057373Y0126672D01*
X0058209Y0126672D01*
X0059752Y0127311D01*
X0060934Y0128493D01*
X0061573Y0130036D01*
X0061573Y0131707D01*
X0060934Y0133251D01*
X0059752Y0134432D01*
X0058209Y0135072D01*
X0057373Y0135072D01*
X0057373Y0137703D01*
X0069846Y0137703D01*
X0069638Y0137495D01*
X0069638Y0135587D01*
X0070986Y0134239D01*
X0072894Y0134239D01*
X0074243Y0135587D01*
X0074243Y0137495D01*
X0074034Y0137703D01*
X0111291Y0137703D01*
X0111291Y0122887D01*
X0111083Y0123095D01*
X0109175Y0123095D01*
X0108200Y0122120D01*
X0107933Y0122387D01*
X0107313Y0122387D01*
X0107313Y0123558D01*
X0105965Y0124906D01*
X0105345Y0124906D01*
X0105345Y0126117D01*
X0103996Y0127465D01*
X0103770Y0127465D01*
X0103770Y0128636D01*
X0102421Y0129985D01*
X0100514Y0129985D01*
X0099165Y0128636D01*
X0099165Y0126729D01*
X0100514Y0125380D01*
X0100740Y0125380D01*
X0100740Y0124209D01*
X0102089Y0122861D01*
X0102709Y0122861D01*
X0102709Y0121650D01*
X0104057Y0120302D01*
X0104677Y0120302D01*
X0104677Y0119131D01*
X0105831Y0117977D01*
X0104845Y0117977D01*
X0103496Y0116629D01*
X0103496Y0114721D01*
X0103960Y0114258D01*
X0103496Y0113794D01*
X0103496Y0111887D01*
X0104845Y0110538D01*
X0106752Y0110538D01*
X0108101Y0111887D01*
X0108101Y0113794D01*
X0107637Y0114258D01*
X0108101Y0114721D01*
X0108101Y0116629D01*
X0106947Y0117782D01*
X0107933Y0117782D01*
X0108909Y0118757D01*
X0109175Y0118491D01*
X0111083Y0118491D01*
X0111291Y0118699D01*
X0111291Y0108517D01*
X0111004Y0108804D01*
X0109097Y0108804D01*
X0108101Y0107808D01*
X0108101Y0107967D01*
X0106752Y0109316D01*
X0104845Y0109316D01*
X0103496Y0107967D01*
X0103496Y0106060D01*
X0104845Y0104711D01*
X0106752Y0104711D01*
X0107748Y0105707D01*
X0107748Y0105548D01*
X0109097Y0104199D01*
X0111004Y0104199D01*
X0111291Y0104487D01*
X0111291Y0084469D01*
X0110920Y0085366D01*
X0110135Y0086151D01*
X0109109Y0086576D01*
X0107999Y0086576D01*
X0106974Y0086151D01*
X0106189Y0085366D01*
X0105764Y0084340D01*
X0105764Y0083230D01*
X0106189Y0082204D01*
X0106974Y0081419D01*
X0107999Y0080995D01*
X0109109Y0080995D01*
X0110135Y0081419D01*
X0110920Y0082204D01*
X0111291Y0083101D01*
X0111291Y0073912D01*
X0110483Y0074721D01*
X0108950Y0075355D01*
X0107292Y0075355D01*
X0105760Y0074721D01*
X0104587Y0073548D01*
X0103953Y0072016D01*
X0103953Y0070358D01*
X0104587Y0068825D01*
X0105651Y0067761D01*
X0104587Y0066698D01*
X0104203Y0065770D01*
X0104203Y0066629D01*
X0102854Y0067977D01*
X0100947Y0067977D01*
X0099598Y0066629D01*
X0099598Y0064721D01*
X0100947Y0063373D01*
X0102854Y0063373D01*
X0103953Y0064471D01*
X0103953Y0063507D01*
X0104587Y0061975D01*
X0105760Y0060802D01*
X0107292Y0060168D01*
X0108950Y0060168D01*
X0110483Y0060802D01*
X0111291Y0061611D01*
X0111291Y0055832D01*
X0111008Y0055832D01*
X0110635Y0056206D01*
X0109151Y0056206D01*
X0108778Y0055832D01*
X0107301Y0055832D01*
X0107217Y0055867D01*
X0105167Y0055867D01*
X0105084Y0055832D01*
X0103606Y0055832D01*
X0103233Y0056206D01*
X0101750Y0056206D01*
X0101376Y0055832D01*
X0096441Y0055832D01*
X0096068Y0056206D01*
X0094584Y0056206D01*
X0094211Y0055832D01*
X0092734Y0055832D01*
X0092650Y0055867D01*
X0090600Y0055867D01*
X0090517Y0055832D01*
X0089039Y0055832D01*
X0088666Y0056206D01*
X0087183Y0056206D01*
X0086810Y0055832D01*
X0080299Y0055832D01*
X0079926Y0056206D01*
X0078443Y0056206D01*
X0078069Y0055832D01*
X0076592Y0055832D01*
X0076508Y0055867D01*
X0074459Y0055867D01*
X0074375Y0055832D01*
X0072898Y0055832D01*
X0072524Y0056206D01*
X0071041Y0056206D01*
X0070668Y0055832D01*
X0065732Y0055832D01*
X0065359Y0056206D01*
X0063876Y0056206D01*
X0063502Y0055832D01*
X0062025Y0055832D01*
X0061941Y0055867D01*
X0059892Y0055867D01*
X0059808Y0055832D01*
X0058331Y0055832D01*
X0057957Y0056206D01*
X0057373Y0056206D01*
X0057373Y0060379D01*
X0058396Y0060802D01*
X0059504Y0061910D01*
X0059504Y0057677D01*
X0060793Y0056388D01*
X0077182Y0056388D01*
X0078471Y0057677D01*
X0078471Y0063437D01*
X0077182Y0064725D01*
X0072707Y0064725D01*
X0072707Y0066629D01*
X0071358Y0067977D01*
X0069451Y0067977D01*
X0068200Y0066726D01*
X0066949Y0067977D01*
X0065042Y0067977D01*
X0064972Y0067907D01*
X0063799Y0069080D01*
X0061892Y0069080D01*
X0060543Y0067731D01*
X0060543Y0065824D01*
X0061642Y0064725D01*
X0060793Y0064725D01*
X0060203Y0064136D01*
X0060203Y0065165D01*
X0059569Y0066698D01*
X0058505Y0067761D01*
X0059569Y0068825D01*
X0060203Y0070358D01*
X0060203Y0072016D01*
X0059569Y0073548D01*
X0058396Y0074721D01*
X0057373Y0075144D01*
X0057373Y0086672D01*
X0058209Y0086672D01*
X0059752Y0087311D01*
X0060934Y0088493D01*
X0061573Y0090036D01*
X0061573Y0091707D01*
X0060934Y0093251D01*
X0059752Y0094432D01*
X0058209Y0095072D01*
X0057373Y0095072D01*
X0057373Y0096672D01*
X0058209Y0096672D01*
X0059752Y0097311D01*
X0060934Y0098493D01*
X0061573Y0100036D01*
X0061573Y0101707D01*
X0061423Y0102070D01*
X0061931Y0101561D01*
X0063839Y0101561D01*
X0064984Y0102706D02*
X0076535Y0102706D01*
X0076331Y0103505D02*
X0065187Y0103505D01*
X0065187Y0104303D02*
X0076331Y0104303D01*
X0076615Y0105102D02*
X0064903Y0105102D01*
X0064105Y0105900D02*
X0077414Y0105900D01*
X0078073Y0106286D02*
X0076724Y0107635D01*
X0076724Y0109542D01*
X0078073Y0110891D01*
X0079980Y0110891D01*
X0081329Y0109542D01*
X0081329Y0107635D01*
X0079980Y0106286D01*
X0078073Y0106286D01*
X0077660Y0106699D02*
X0058274Y0106699D01*
X0057373Y0105900D02*
X0061666Y0105900D01*
X0060867Y0105102D02*
X0057373Y0105102D01*
X0059881Y0104303D02*
X0060583Y0104303D01*
X0061490Y0101908D02*
X0061585Y0101908D01*
X0061573Y0101109D02*
X0085218Y0101109D01*
X0086017Y0100311D02*
X0061573Y0100311D01*
X0061356Y0099512D02*
X0087763Y0099512D01*
X0087763Y0098714D02*
X0061025Y0098714D01*
X0060356Y0097915D02*
X0072578Y0097915D01*
X0072955Y0098292D02*
X0071606Y0096943D01*
X0071606Y0095036D01*
X0072681Y0093961D01*
X0071774Y0093961D01*
X0070425Y0092613D01*
X0070425Y0090705D01*
X0071774Y0089357D01*
X0073681Y0089357D01*
X0075030Y0090705D01*
X0075030Y0092613D01*
X0073955Y0093687D01*
X0074862Y0093687D01*
X0075483Y0094309D01*
X0076105Y0093687D01*
X0078012Y0093687D01*
X0079361Y0095036D01*
X0079361Y0096943D01*
X0078012Y0098292D01*
X0076105Y0098292D01*
X0075483Y0097671D01*
X0074862Y0098292D01*
X0072955Y0098292D01*
X0071780Y0097117D02*
X0059283Y0097117D01*
X0057373Y0096318D02*
X0071606Y0096318D01*
X0071606Y0095520D02*
X0057373Y0095520D01*
X0059055Y0094721D02*
X0071921Y0094721D01*
X0071735Y0093923D02*
X0060262Y0093923D01*
X0060986Y0093124D02*
X0070937Y0093124D01*
X0070425Y0092326D02*
X0061317Y0092326D01*
X0061573Y0091527D02*
X0070425Y0091527D01*
X0070425Y0090729D02*
X0061573Y0090729D01*
X0061529Y0089930D02*
X0071200Y0089930D01*
X0074255Y0089930D02*
X0083417Y0089930D01*
X0083417Y0089132D02*
X0082448Y0089132D01*
X0081949Y0089631D02*
X0083298Y0088282D01*
X0083298Y0086375D01*
X0081949Y0085026D01*
X0080042Y0085026D01*
X0078693Y0086375D01*
X0078693Y0088282D01*
X0080042Y0089631D01*
X0081949Y0089631D01*
X0083247Y0088333D02*
X0083427Y0088333D01*
X0083298Y0087535D02*
X0084226Y0087535D01*
X0084377Y0086576D02*
X0083352Y0086151D01*
X0082567Y0085366D01*
X0082142Y0084340D01*
X0082142Y0083230D01*
X0082567Y0082204D01*
X0083352Y0081419D01*
X0084377Y0080995D01*
X0085487Y0080995D01*
X0086513Y0081419D01*
X0087298Y0082204D01*
X0087671Y0083105D01*
X0088309Y0082467D01*
X0090217Y0082467D01*
X0090298Y0082548D01*
X0090441Y0082204D01*
X0091226Y0081419D01*
X0092251Y0080995D01*
X0093361Y0080995D01*
X0094387Y0081419D01*
X0095172Y0082204D01*
X0095597Y0083230D01*
X0095597Y0084340D01*
X0095172Y0085366D01*
X0094387Y0086151D01*
X0093361Y0086576D01*
X0092251Y0086576D01*
X0091226Y0086151D01*
X0091182Y0086107D01*
X0090217Y0087072D01*
X0088309Y0087072D01*
X0086961Y0085723D01*
X0086961Y0085703D01*
X0086513Y0086151D01*
X0085487Y0086576D01*
X0084377Y0086576D01*
X0083298Y0086736D02*
X0087974Y0086736D01*
X0087213Y0087535D02*
X0111291Y0087535D01*
X0111291Y0088333D02*
X0088012Y0088333D01*
X0088022Y0089132D02*
X0088291Y0089132D01*
X0087763Y0090729D02*
X0087544Y0090729D01*
X0087763Y0091527D02*
X0086745Y0091527D01*
X0087763Y0092326D02*
X0075030Y0092326D01*
X0075030Y0091527D02*
X0084694Y0091527D01*
X0083895Y0090729D02*
X0075030Y0090729D01*
X0074518Y0093124D02*
X0087763Y0093124D01*
X0087763Y0093923D02*
X0078247Y0093923D01*
X0079046Y0094721D02*
X0087763Y0094721D01*
X0087763Y0095520D02*
X0079361Y0095520D01*
X0079361Y0096318D02*
X0087763Y0096318D01*
X0087763Y0097117D02*
X0079187Y0097117D01*
X0078389Y0097915D02*
X0087763Y0097915D01*
X0090763Y0097915D02*
X0096503Y0097915D01*
X0096503Y0097117D02*
X0090763Y0097117D01*
X0090763Y0096318D02*
X0096503Y0096318D01*
X0096503Y0095520D02*
X0090763Y0095520D01*
X0090763Y0094721D02*
X0096503Y0094721D01*
X0096184Y0093923D02*
X0090763Y0093923D01*
X0090763Y0093124D02*
X0095701Y0093124D01*
X0095701Y0092326D02*
X0090763Y0092326D01*
X0090763Y0091527D02*
X0095706Y0091527D01*
X0096504Y0090729D02*
X0090763Y0090729D01*
X0090763Y0089930D02*
X0111291Y0089930D01*
X0111291Y0089132D02*
X0090235Y0089132D01*
X0090552Y0086736D02*
X0111291Y0086736D01*
X0111291Y0085938D02*
X0110348Y0085938D01*
X0111014Y0085139D02*
X0111291Y0085139D01*
X0111291Y0082744D02*
X0111143Y0082744D01*
X0111291Y0081945D02*
X0110661Y0081945D01*
X0111291Y0081147D02*
X0109476Y0081147D01*
X0111291Y0080348D02*
X0079854Y0080348D01*
X0079626Y0080576D02*
X0077719Y0080576D01*
X0076370Y0079227D01*
X0076370Y0077320D01*
X0076598Y0077092D01*
X0076370Y0076865D01*
X0076370Y0074957D01*
X0077719Y0073609D01*
X0079626Y0073609D01*
X0080975Y0074957D01*
X0080975Y0076865D01*
X0080747Y0077092D01*
X0080975Y0077320D01*
X0080975Y0079227D01*
X0079626Y0080576D01*
X0078639Y0081419D02*
X0079424Y0082204D01*
X0079849Y0083230D01*
X0079849Y0084340D01*
X0079424Y0085366D01*
X0078639Y0086151D01*
X0077613Y0086576D01*
X0076503Y0086576D01*
X0075478Y0086151D01*
X0074693Y0085366D01*
X0074268Y0084340D01*
X0074268Y0083230D01*
X0074693Y0082204D01*
X0075478Y0081419D01*
X0076503Y0080995D01*
X0077613Y0080995D01*
X0078639Y0081419D01*
X0077980Y0081147D02*
X0084010Y0081147D01*
X0082826Y0081945D02*
X0079165Y0081945D01*
X0079647Y0082744D02*
X0082343Y0082744D01*
X0082142Y0083542D02*
X0079849Y0083542D01*
X0079849Y0084341D02*
X0082142Y0084341D01*
X0082062Y0085139D02*
X0082473Y0085139D01*
X0082861Y0085938D02*
X0083138Y0085938D01*
X0079929Y0085139D02*
X0079518Y0085139D01*
X0079130Y0085938D02*
X0078852Y0085938D01*
X0078693Y0086736D02*
X0058364Y0086736D01*
X0057373Y0085938D02*
X0059516Y0085938D01*
X0059730Y0086151D02*
X0058945Y0085366D01*
X0058520Y0084340D01*
X0058520Y0083230D01*
X0058945Y0082204D01*
X0059730Y0081419D01*
X0060755Y0080995D01*
X0061865Y0080995D01*
X0062891Y0081419D01*
X0063676Y0082204D01*
X0064101Y0083230D01*
X0064101Y0084340D01*
X0063676Y0085366D01*
X0062891Y0086151D01*
X0061865Y0086576D01*
X0060755Y0086576D01*
X0059730Y0086151D01*
X0058851Y0085139D02*
X0057373Y0085139D01*
X0057373Y0084341D02*
X0058520Y0084341D01*
X0058520Y0083542D02*
X0057373Y0083542D01*
X0057373Y0082744D02*
X0058721Y0082744D01*
X0059204Y0081945D02*
X0057373Y0081945D01*
X0057373Y0081147D02*
X0060388Y0081147D01*
X0062232Y0081147D02*
X0068262Y0081147D01*
X0068629Y0080995D02*
X0069739Y0080995D01*
X0070765Y0081419D01*
X0071550Y0082204D01*
X0071975Y0083230D01*
X0071975Y0084340D01*
X0071550Y0085366D01*
X0070765Y0086151D01*
X0069739Y0086576D01*
X0068629Y0086576D01*
X0067604Y0086151D01*
X0066819Y0085366D01*
X0066394Y0084340D01*
X0066394Y0083230D01*
X0066819Y0082204D01*
X0067604Y0081419D01*
X0068629Y0080995D01*
X0070106Y0081147D02*
X0076136Y0081147D01*
X0074952Y0081945D02*
X0071291Y0081945D01*
X0071773Y0082744D02*
X0074469Y0082744D01*
X0074268Y0083542D02*
X0071975Y0083542D01*
X0071975Y0084341D02*
X0074268Y0084341D01*
X0074599Y0085139D02*
X0071644Y0085139D01*
X0070978Y0085938D02*
X0075264Y0085938D01*
X0078693Y0087535D02*
X0059976Y0087535D01*
X0060774Y0088333D02*
X0078744Y0088333D01*
X0079542Y0089132D02*
X0061199Y0089132D01*
X0063104Y0085938D02*
X0067390Y0085938D01*
X0066725Y0085139D02*
X0063770Y0085139D01*
X0064101Y0084341D02*
X0066394Y0084341D01*
X0066394Y0083542D02*
X0064101Y0083542D01*
X0063899Y0082744D02*
X0066595Y0082744D01*
X0067078Y0081945D02*
X0063417Y0081945D01*
X0063839Y0077347D02*
X0061931Y0077347D01*
X0060583Y0075999D01*
X0060583Y0074091D01*
X0060751Y0073923D01*
X0060583Y0073755D01*
X0060583Y0071847D01*
X0061931Y0070498D01*
X0063839Y0070498D01*
X0065187Y0071847D01*
X0065187Y0073755D01*
X0065019Y0073923D01*
X0065187Y0074091D01*
X0065187Y0075999D01*
X0063839Y0077347D01*
X0064032Y0077154D02*
X0069283Y0077154D01*
X0069283Y0077258D02*
X0069283Y0075351D01*
X0069511Y0075124D01*
X0069283Y0074896D01*
X0069283Y0072989D01*
X0070632Y0071640D01*
X0072539Y0071640D01*
X0073888Y0072989D01*
X0073888Y0074896D01*
X0073661Y0075124D01*
X0073888Y0075351D01*
X0073888Y0077258D01*
X0073661Y0077486D01*
X0073888Y0077713D01*
X0073888Y0079621D01*
X0072539Y0080969D01*
X0070632Y0080969D01*
X0069283Y0079621D01*
X0069283Y0077713D01*
X0069511Y0077486D01*
X0069283Y0077258D01*
X0069283Y0077952D02*
X0057373Y0077952D01*
X0057373Y0077154D02*
X0061738Y0077154D01*
X0060940Y0076355D02*
X0057373Y0076355D01*
X0057373Y0075557D02*
X0060583Y0075557D01*
X0060583Y0074758D02*
X0058304Y0074758D01*
X0059157Y0073960D02*
X0060714Y0073960D01*
X0060583Y0073161D02*
X0059729Y0073161D01*
X0060059Y0072363D02*
X0060583Y0072363D01*
X0060865Y0071564D02*
X0060203Y0071564D01*
X0060203Y0070766D02*
X0061664Y0070766D01*
X0060042Y0069967D02*
X0090693Y0069967D01*
X0090986Y0070261D02*
X0089638Y0068912D01*
X0089638Y0067005D01*
X0090986Y0065656D01*
X0092894Y0065656D01*
X0094243Y0067005D01*
X0094243Y0068912D01*
X0092894Y0070261D01*
X0090986Y0070261D01*
X0089895Y0069169D02*
X0059711Y0069169D01*
X0059113Y0068370D02*
X0061183Y0068370D01*
X0060543Y0067572D02*
X0058694Y0067572D01*
X0059493Y0066773D02*
X0060543Y0066773D01*
X0060543Y0065975D02*
X0059868Y0065975D01*
X0060199Y0065176D02*
X0061191Y0065176D01*
X0060445Y0064378D02*
X0060203Y0064378D01*
X0059504Y0061184D02*
X0058777Y0061184D01*
X0059504Y0060385D02*
X0057389Y0060385D01*
X0057373Y0059587D02*
X0059504Y0059587D01*
X0059504Y0058788D02*
X0057373Y0058788D01*
X0057373Y0057990D02*
X0059504Y0057990D01*
X0059990Y0057191D02*
X0057373Y0057191D01*
X0057373Y0056393D02*
X0060788Y0056393D01*
X0068153Y0066773D02*
X0068247Y0066773D01*
X0069046Y0067572D02*
X0067354Y0067572D01*
X0064509Y0068370D02*
X0089638Y0068370D01*
X0089638Y0067572D02*
X0071764Y0067572D01*
X0072562Y0066773D02*
X0089869Y0066773D01*
X0090668Y0065975D02*
X0072707Y0065975D01*
X0072707Y0065176D02*
X0099598Y0065176D01*
X0099598Y0065975D02*
X0093213Y0065975D01*
X0094011Y0066773D02*
X0099743Y0066773D01*
X0100542Y0067572D02*
X0094243Y0067572D01*
X0094243Y0068370D02*
X0105042Y0068370D01*
X0105462Y0067572D02*
X0103260Y0067572D01*
X0104058Y0066773D02*
X0104663Y0066773D01*
X0104288Y0065975D02*
X0104203Y0065975D01*
X0103953Y0064378D02*
X0103860Y0064378D01*
X0103953Y0063579D02*
X0103061Y0063579D01*
X0104254Y0062781D02*
X0095807Y0062781D01*
X0096290Y0062298D02*
X0094941Y0063647D01*
X0093034Y0063647D01*
X0091685Y0062298D01*
X0091685Y0060390D01*
X0093034Y0059042D01*
X0094941Y0059042D01*
X0096290Y0060390D01*
X0096290Y0062298D01*
X0096290Y0061982D02*
X0104584Y0061982D01*
X0105379Y0061184D02*
X0096290Y0061184D01*
X0096285Y0060385D02*
X0106767Y0060385D01*
X0109475Y0060385D02*
X0111291Y0060385D01*
X0111291Y0059587D02*
X0095486Y0059587D01*
X0092489Y0059587D02*
X0078471Y0059587D01*
X0078471Y0060385D02*
X0091690Y0060385D01*
X0091685Y0061184D02*
X0078471Y0061184D01*
X0078471Y0061982D02*
X0091685Y0061982D01*
X0092168Y0062781D02*
X0078471Y0062781D01*
X0078328Y0063579D02*
X0092967Y0063579D01*
X0095008Y0063579D02*
X0100740Y0063579D01*
X0099942Y0064378D02*
X0077530Y0064378D01*
X0078471Y0058788D02*
X0111291Y0058788D01*
X0111291Y0057990D02*
X0078471Y0057990D01*
X0077985Y0057191D02*
X0111291Y0057191D01*
X0111291Y0056393D02*
X0077187Y0056393D01*
X0064106Y0070766D02*
X0103953Y0070766D01*
X0103953Y0071564D02*
X0064905Y0071564D01*
X0065187Y0072363D02*
X0069909Y0072363D01*
X0069283Y0073161D02*
X0065187Y0073161D01*
X0065056Y0073960D02*
X0069283Y0073960D01*
X0069283Y0074758D02*
X0065187Y0074758D01*
X0065187Y0075557D02*
X0069283Y0075557D01*
X0069283Y0076355D02*
X0064831Y0076355D01*
X0069283Y0078751D02*
X0057373Y0078751D01*
X0057373Y0079550D02*
X0069283Y0079550D01*
X0070011Y0080348D02*
X0057373Y0080348D01*
X0073161Y0080348D02*
X0077491Y0080348D01*
X0076693Y0079550D02*
X0073888Y0079550D01*
X0073888Y0078751D02*
X0076370Y0078751D01*
X0076370Y0077952D02*
X0073888Y0077952D01*
X0073888Y0077154D02*
X0076536Y0077154D01*
X0076370Y0076355D02*
X0073888Y0076355D01*
X0073888Y0075557D02*
X0076370Y0075557D01*
X0076569Y0074758D02*
X0073888Y0074758D01*
X0073888Y0073960D02*
X0077368Y0073960D01*
X0079977Y0073960D02*
X0104999Y0073960D01*
X0104427Y0073161D02*
X0073888Y0073161D01*
X0073262Y0072363D02*
X0104097Y0072363D01*
X0104114Y0069967D02*
X0093187Y0069967D01*
X0093986Y0069169D02*
X0104445Y0069169D01*
X0105852Y0074758D02*
X0080776Y0074758D01*
X0080975Y0075557D02*
X0086164Y0075557D01*
X0086341Y0075380D02*
X0088248Y0075380D01*
X0089597Y0076729D01*
X0089597Y0078636D01*
X0088248Y0079985D01*
X0086341Y0079985D01*
X0084992Y0078636D01*
X0084992Y0076729D01*
X0086341Y0075380D01*
X0085366Y0076355D02*
X0080975Y0076355D01*
X0080809Y0077154D02*
X0084992Y0077154D01*
X0084992Y0077952D02*
X0080975Y0077952D01*
X0080975Y0078751D02*
X0085107Y0078751D01*
X0085905Y0079550D02*
X0080652Y0079550D01*
X0085854Y0081147D02*
X0091884Y0081147D01*
X0090700Y0081945D02*
X0087039Y0081945D01*
X0087521Y0082744D02*
X0088033Y0082744D01*
X0088684Y0079550D02*
X0111291Y0079550D01*
X0111291Y0078751D02*
X0089482Y0078751D01*
X0089597Y0077952D02*
X0111291Y0077952D01*
X0111291Y0077154D02*
X0089597Y0077154D01*
X0089223Y0076355D02*
X0111291Y0076355D01*
X0111291Y0075557D02*
X0088425Y0075557D01*
X0093728Y0081147D02*
X0107632Y0081147D01*
X0106448Y0081945D02*
X0094913Y0081945D01*
X0095395Y0082744D02*
X0105965Y0082744D01*
X0105764Y0083542D02*
X0095597Y0083542D01*
X0095597Y0084341D02*
X0105764Y0084341D01*
X0106095Y0085139D02*
X0095266Y0085139D01*
X0094600Y0085938D02*
X0106760Y0085938D01*
X0111291Y0090729D02*
X0099502Y0090729D01*
X0100300Y0091527D02*
X0111291Y0091527D01*
X0111291Y0092326D02*
X0100305Y0092326D01*
X0101701Y0093124D02*
X0111291Y0093124D01*
X0111291Y0093923D02*
X0102499Y0093923D01*
X0102589Y0094721D02*
X0111291Y0094721D01*
X0111291Y0095520D02*
X0102589Y0095520D01*
X0102191Y0096318D02*
X0107332Y0096318D01*
X0107601Y0096050D02*
X0109508Y0096050D01*
X0110857Y0097398D01*
X0110857Y0099306D01*
X0109508Y0100654D01*
X0107601Y0100654D01*
X0106252Y0099306D01*
X0106252Y0097398D01*
X0107601Y0096050D01*
X0106534Y0097117D02*
X0103882Y0097117D01*
X0104557Y0097915D02*
X0106252Y0097915D01*
X0106252Y0098714D02*
X0104557Y0098714D01*
X0104557Y0099512D02*
X0106459Y0099512D01*
X0107257Y0100311D02*
X0103946Y0100311D01*
X0102296Y0101109D02*
X0111291Y0101109D01*
X0111291Y0100311D02*
X0109852Y0100311D01*
X0110650Y0099512D02*
X0111291Y0099512D01*
X0111291Y0098714D02*
X0110857Y0098714D01*
X0110857Y0097915D02*
X0111291Y0097915D01*
X0111291Y0097117D02*
X0110575Y0097117D01*
X0111291Y0096318D02*
X0109777Y0096318D01*
X0111291Y0101908D02*
X0101497Y0101908D01*
X0100699Y0102706D02*
X0111291Y0102706D01*
X0111291Y0103505D02*
X0099900Y0103505D01*
X0099102Y0104303D02*
X0108993Y0104303D01*
X0108194Y0105102D02*
X0107143Y0105102D01*
X0104454Y0105102D02*
X0098303Y0105102D01*
X0097505Y0105900D02*
X0103655Y0105900D01*
X0103496Y0106699D02*
X0096706Y0106699D01*
X0096555Y0109554D02*
X0094648Y0109554D01*
X0093299Y0110902D01*
X0093299Y0112810D01*
X0094648Y0114158D01*
X0096555Y0114158D01*
X0097904Y0112810D01*
X0097904Y0110902D01*
X0096555Y0109554D01*
X0096895Y0109893D02*
X0111291Y0109893D01*
X0111291Y0110691D02*
X0106906Y0110691D01*
X0107704Y0111490D02*
X0111291Y0111490D01*
X0111291Y0112288D02*
X0108101Y0112288D01*
X0108101Y0113087D02*
X0111291Y0113087D01*
X0111291Y0113886D02*
X0108009Y0113886D01*
X0108064Y0114684D02*
X0111291Y0114684D01*
X0111291Y0115483D02*
X0108101Y0115483D01*
X0108101Y0116281D02*
X0111291Y0116281D01*
X0111291Y0117080D02*
X0107650Y0117080D01*
X0108029Y0117878D02*
X0111291Y0117878D01*
X0111269Y0118677D02*
X0111291Y0118677D01*
X0108989Y0118677D02*
X0108828Y0118677D01*
X0105131Y0118677D02*
X0093159Y0118677D01*
X0092973Y0117584D02*
X0091065Y0117584D01*
X0089717Y0116235D01*
X0089717Y0114327D01*
X0091065Y0112979D01*
X0092973Y0112979D01*
X0094321Y0114327D01*
X0094321Y0116235D01*
X0092973Y0117584D01*
X0093477Y0117080D02*
X0103947Y0117080D01*
X0103496Y0116281D02*
X0094275Y0116281D01*
X0094321Y0115483D02*
X0103496Y0115483D01*
X0103533Y0114684D02*
X0094321Y0114684D01*
X0094375Y0113886D02*
X0093879Y0113886D01*
X0093577Y0113087D02*
X0093081Y0113087D01*
X0093299Y0112288D02*
X0086983Y0112288D01*
X0087781Y0111490D02*
X0093299Y0111490D01*
X0093510Y0110691D02*
X0088580Y0110691D01*
X0089378Y0109893D02*
X0094309Y0109893D01*
X0097693Y0110691D02*
X0104691Y0110691D01*
X0103893Y0111490D02*
X0097904Y0111490D01*
X0097904Y0112288D02*
X0103496Y0112288D01*
X0103496Y0113087D02*
X0097627Y0113087D01*
X0096828Y0113886D02*
X0103588Y0113886D01*
X0104623Y0109094D02*
X0090177Y0109094D01*
X0090975Y0108296D02*
X0103825Y0108296D01*
X0103496Y0107497D02*
X0091774Y0107497D01*
X0088562Y0105900D02*
X0079853Y0105900D01*
X0080393Y0106699D02*
X0087764Y0106699D01*
X0086965Y0107497D02*
X0081192Y0107497D01*
X0081329Y0108296D02*
X0086167Y0108296D01*
X0085368Y0109094D02*
X0081329Y0109094D01*
X0080978Y0109893D02*
X0084570Y0109893D01*
X0083771Y0110691D02*
X0080180Y0110691D01*
X0077874Y0110691D02*
X0061573Y0110691D01*
X0061573Y0111490D02*
X0082973Y0111490D01*
X0082174Y0112288D02*
X0061332Y0112288D01*
X0061002Y0113087D02*
X0081376Y0113087D01*
X0080577Y0113886D02*
X0067501Y0113886D01*
X0066988Y0113373D02*
X0068337Y0114721D01*
X0068337Y0116629D01*
X0066988Y0117977D01*
X0065081Y0117977D01*
X0063732Y0116629D01*
X0063732Y0114721D01*
X0065081Y0113373D01*
X0066988Y0113373D01*
X0068300Y0114684D02*
X0079779Y0114684D01*
X0078980Y0115483D02*
X0068337Y0115483D01*
X0068337Y0116281D02*
X0078182Y0116281D01*
X0077383Y0117080D02*
X0067886Y0117080D01*
X0067087Y0117878D02*
X0076585Y0117878D01*
X0075786Y0118677D02*
X0065206Y0118677D01*
X0064982Y0117878D02*
X0064407Y0117878D01*
X0064183Y0117080D02*
X0059193Y0117080D01*
X0060319Y0117878D02*
X0062150Y0117878D01*
X0061352Y0118677D02*
X0061010Y0118677D01*
X0061506Y0121871D02*
X0061888Y0121871D01*
X0061175Y0122669D02*
X0065115Y0122669D01*
X0064670Y0121871D02*
X0065914Y0121871D01*
X0065468Y0121072D02*
X0066685Y0121072D01*
X0067432Y0120274D02*
X0065581Y0120274D01*
X0065581Y0119475D02*
X0074988Y0119475D01*
X0074189Y0120274D02*
X0070543Y0120274D01*
X0071290Y0121072D02*
X0073391Y0121072D01*
X0072592Y0121871D02*
X0071290Y0121871D01*
X0071290Y0122669D02*
X0071794Y0122669D01*
X0070995Y0123468D02*
X0070750Y0123468D01*
X0073408Y0125863D02*
X0100031Y0125863D01*
X0100740Y0125065D02*
X0074206Y0125065D01*
X0075005Y0124266D02*
X0100740Y0124266D01*
X0101482Y0123468D02*
X0075803Y0123468D01*
X0076602Y0122669D02*
X0082765Y0122669D01*
X0081966Y0121871D02*
X0077401Y0121871D01*
X0078199Y0121072D02*
X0081843Y0121072D01*
X0081843Y0120274D02*
X0078998Y0120274D01*
X0079796Y0119475D02*
X0082207Y0119475D01*
X0083005Y0118677D02*
X0080595Y0118677D01*
X0081393Y0117878D02*
X0082305Y0117878D01*
X0086447Y0117080D02*
X0086571Y0117080D01*
X0086447Y0116281D02*
X0089763Y0116281D01*
X0089717Y0115483D02*
X0086421Y0115483D01*
X0085623Y0114684D02*
X0089717Y0114684D01*
X0090159Y0113886D02*
X0085386Y0113886D01*
X0086184Y0113087D02*
X0090957Y0113087D01*
X0090561Y0117080D02*
X0089593Y0117080D01*
X0090384Y0117878D02*
X0104746Y0117878D01*
X0104677Y0119475D02*
X0093957Y0119475D01*
X0094321Y0120274D02*
X0104677Y0120274D01*
X0103287Y0121072D02*
X0094321Y0121072D01*
X0094197Y0121871D02*
X0102709Y0121871D01*
X0102709Y0122669D02*
X0093399Y0122669D01*
X0090639Y0122669D02*
X0085525Y0122669D01*
X0086323Y0121871D02*
X0089841Y0121871D01*
X0089717Y0121072D02*
X0089090Y0121072D01*
X0087074Y0121072D02*
X0086447Y0121072D01*
X0090384Y0118677D02*
X0090879Y0118677D01*
X0099233Y0126662D02*
X0072609Y0126662D01*
X0068337Y0131257D02*
X0066988Y0129908D01*
X0065081Y0129908D01*
X0063732Y0131257D01*
X0063732Y0133164D01*
X0065081Y0134513D01*
X0066988Y0134513D01*
X0068337Y0133164D01*
X0068337Y0131257D01*
X0068337Y0131453D02*
X0088142Y0131453D01*
X0088142Y0131983D02*
X0088142Y0130076D01*
X0089490Y0128727D01*
X0091398Y0128727D01*
X0092746Y0130076D01*
X0092746Y0131983D01*
X0091398Y0133332D01*
X0089490Y0133332D01*
X0088142Y0131983D01*
X0088410Y0132251D02*
X0068337Y0132251D01*
X0068337Y0133050D02*
X0089209Y0133050D01*
X0091680Y0133050D02*
X0111291Y0133050D01*
X0111291Y0133848D02*
X0067653Y0133848D01*
X0069638Y0136244D02*
X0057373Y0136244D01*
X0057373Y0137042D02*
X0069638Y0137042D01*
X0069780Y0135445D02*
X0057373Y0135445D01*
X0059234Y0134647D02*
X0070578Y0134647D01*
X0073302Y0134647D02*
X0111291Y0134647D01*
X0111291Y0135445D02*
X0074100Y0135445D01*
X0074243Y0136244D02*
X0111291Y0136244D01*
X0111291Y0137042D02*
X0074243Y0137042D01*
X0067735Y0130654D02*
X0088142Y0130654D01*
X0088362Y0129856D02*
X0061498Y0129856D01*
X0061573Y0130654D02*
X0064335Y0130654D01*
X0063732Y0131453D02*
X0061573Y0131453D01*
X0061348Y0132251D02*
X0063732Y0132251D01*
X0063732Y0133050D02*
X0061017Y0133050D01*
X0060336Y0133848D02*
X0064417Y0133848D01*
X0061168Y0129057D02*
X0089160Y0129057D01*
X0091728Y0129057D02*
X0099586Y0129057D01*
X0099165Y0128259D02*
X0060700Y0128259D01*
X0059901Y0127460D02*
X0099165Y0127460D01*
X0100385Y0129856D02*
X0092527Y0129856D01*
X0092746Y0130654D02*
X0111291Y0130654D01*
X0111291Y0129856D02*
X0102551Y0129856D01*
X0103349Y0129057D02*
X0111291Y0129057D01*
X0111291Y0128259D02*
X0103770Y0128259D01*
X0104001Y0127460D02*
X0111291Y0127460D01*
X0111291Y0126662D02*
X0104800Y0126662D01*
X0105345Y0125863D02*
X0111291Y0125863D01*
X0111291Y0125065D02*
X0105345Y0125065D01*
X0106605Y0124266D02*
X0111291Y0124266D01*
X0111291Y0123468D02*
X0107313Y0123468D01*
X0107313Y0122669D02*
X0108749Y0122669D01*
X0111291Y0131453D02*
X0092746Y0131453D01*
X0092478Y0132251D02*
X0111291Y0132251D01*
X0111291Y0109094D02*
X0106973Y0109094D01*
X0107772Y0108296D02*
X0108589Y0108296D01*
X0111108Y0104303D02*
X0111291Y0104303D01*
X0096503Y0098714D02*
X0090763Y0098714D01*
X0090763Y0099512D02*
X0095745Y0099512D01*
X0087175Y0085938D02*
X0086726Y0085938D01*
X0075869Y0093923D02*
X0075098Y0093923D01*
X0075239Y0097915D02*
X0075728Y0097915D01*
X0076862Y0107497D02*
X0059939Y0107497D01*
X0060737Y0108296D02*
X0076724Y0108296D01*
X0076724Y0109094D02*
X0061183Y0109094D01*
X0061514Y0109893D02*
X0077075Y0109893D01*
X0064568Y0113886D02*
X0060299Y0113886D01*
X0059145Y0114684D02*
X0063769Y0114684D01*
X0063732Y0115483D02*
X0057373Y0115483D01*
X0057373Y0116281D02*
X0063732Y0116281D01*
X0064598Y0123468D02*
X0060717Y0123468D01*
X0059918Y0124266D02*
X0064598Y0124266D01*
X0064598Y0125065D02*
X0058226Y0125065D01*
X0057373Y0125863D02*
X0065369Y0125863D01*
X0067019Y0126662D02*
X0057373Y0126662D01*
X0110391Y0074758D02*
X0111291Y0074758D01*
X0111291Y0073960D02*
X0111243Y0073960D01*
X0111291Y0061184D02*
X0110864Y0061184D01*
D18*
X0102255Y0098746D02*
X0095562Y0105439D01*
X0091428Y0105439D01*
X0071609Y0125258D01*
X0068019Y0125258D01*
X0066901Y0124139D01*
D19*
X0061704Y0062525D02*
X0076271Y0062525D01*
X0076271Y0058588D01*
X0061704Y0058588D01*
X0061704Y0062525D01*
X0061704Y0062393D02*
X0076271Y0062393D01*
X0076271Y0061194D02*
X0061704Y0061194D01*
X0061704Y0059996D02*
X0076271Y0059996D01*
X0076271Y0058797D02*
X0061704Y0058797D01*
M02*
