G75*
%MOIN*%
%OFA0B0*%
%FSLAX25Y25*%
%IPPOS*%
%LPD*%
%AMOC8*
5,1,8,0,0,1.08239X$1,22.5*
%
%ADD10C,0.00000*%
%ADD11R,0.03000X0.01000*%
%ADD12R,0.01000X0.03000*%
%ADD13R,0.10400X0.10400*%
%ADD14R,0.02362X0.02953*%
%ADD15R,0.01969X0.01181*%
%ADD16R,0.02165X0.02165*%
%ADD17R,0.03937X0.06693*%
%ADD18R,0.02362X0.02756*%
%ADD19R,0.04724X0.03150*%
%ADD20R,0.02756X0.02362*%
%ADD21R,0.02756X0.03150*%
%ADD22R,0.02480X0.03268*%
%ADD23C,0.07400*%
%ADD24R,0.03150X0.04724*%
%ADD25R,0.01100X0.02800*%
%ADD26R,0.06700X0.03900*%
%ADD27R,0.10630X0.10630*%
%ADD28R,0.02756X0.03543*%
%ADD29R,0.07087X0.07087*%
%ADD30OC8,0.03181*%
%ADD31R,0.03181X0.03181*%
%ADD32C,0.00600*%
%ADD33OC8,0.02205*%
%ADD34C,0.01000*%
%ADD35R,0.02205X0.02205*%
%ADD36C,0.02362*%
%ADD37C,0.01600*%
%ADD38C,0.00984*%
%ADD39C,0.01200*%
D10*
X0051468Y0044415D02*
X0112491Y0044415D01*
X0112491Y0087722D01*
X0112491Y0079848D02*
X0112491Y0138903D01*
X0051468Y0138903D01*
X0051468Y0044415D01*
X0056625Y0047013D02*
X0056627Y0047061D01*
X0056633Y0047109D01*
X0056643Y0047156D01*
X0056656Y0047202D01*
X0056674Y0047247D01*
X0056694Y0047291D01*
X0056719Y0047333D01*
X0056747Y0047372D01*
X0056777Y0047409D01*
X0056811Y0047443D01*
X0056848Y0047475D01*
X0056886Y0047504D01*
X0056927Y0047529D01*
X0056970Y0047551D01*
X0057015Y0047569D01*
X0057061Y0047583D01*
X0057108Y0047594D01*
X0057156Y0047601D01*
X0057204Y0047604D01*
X0057252Y0047603D01*
X0057300Y0047598D01*
X0057348Y0047589D01*
X0057394Y0047577D01*
X0057439Y0047560D01*
X0057483Y0047540D01*
X0057525Y0047517D01*
X0057565Y0047490D01*
X0057603Y0047460D01*
X0057638Y0047427D01*
X0057670Y0047391D01*
X0057700Y0047353D01*
X0057726Y0047312D01*
X0057748Y0047269D01*
X0057768Y0047225D01*
X0057783Y0047180D01*
X0057795Y0047133D01*
X0057803Y0047085D01*
X0057807Y0047037D01*
X0057807Y0046989D01*
X0057803Y0046941D01*
X0057795Y0046893D01*
X0057783Y0046846D01*
X0057768Y0046801D01*
X0057748Y0046757D01*
X0057726Y0046714D01*
X0057700Y0046673D01*
X0057670Y0046635D01*
X0057638Y0046599D01*
X0057603Y0046566D01*
X0057565Y0046536D01*
X0057525Y0046509D01*
X0057483Y0046486D01*
X0057439Y0046466D01*
X0057394Y0046449D01*
X0057348Y0046437D01*
X0057300Y0046428D01*
X0057252Y0046423D01*
X0057204Y0046422D01*
X0057156Y0046425D01*
X0057108Y0046432D01*
X0057061Y0046443D01*
X0057015Y0046457D01*
X0056970Y0046475D01*
X0056927Y0046497D01*
X0056886Y0046522D01*
X0056848Y0046551D01*
X0056811Y0046583D01*
X0056777Y0046617D01*
X0056747Y0046654D01*
X0056719Y0046693D01*
X0056694Y0046735D01*
X0056674Y0046779D01*
X0056656Y0046824D01*
X0056643Y0046870D01*
X0056633Y0046917D01*
X0056627Y0046965D01*
X0056625Y0047013D01*
X0056625Y0054415D02*
X0056627Y0054463D01*
X0056633Y0054511D01*
X0056643Y0054558D01*
X0056656Y0054604D01*
X0056674Y0054649D01*
X0056694Y0054693D01*
X0056719Y0054735D01*
X0056747Y0054774D01*
X0056777Y0054811D01*
X0056811Y0054845D01*
X0056848Y0054877D01*
X0056886Y0054906D01*
X0056927Y0054931D01*
X0056970Y0054953D01*
X0057015Y0054971D01*
X0057061Y0054985D01*
X0057108Y0054996D01*
X0057156Y0055003D01*
X0057204Y0055006D01*
X0057252Y0055005D01*
X0057300Y0055000D01*
X0057348Y0054991D01*
X0057394Y0054979D01*
X0057439Y0054962D01*
X0057483Y0054942D01*
X0057525Y0054919D01*
X0057565Y0054892D01*
X0057603Y0054862D01*
X0057638Y0054829D01*
X0057670Y0054793D01*
X0057700Y0054755D01*
X0057726Y0054714D01*
X0057748Y0054671D01*
X0057768Y0054627D01*
X0057783Y0054582D01*
X0057795Y0054535D01*
X0057803Y0054487D01*
X0057807Y0054439D01*
X0057807Y0054391D01*
X0057803Y0054343D01*
X0057795Y0054295D01*
X0057783Y0054248D01*
X0057768Y0054203D01*
X0057748Y0054159D01*
X0057726Y0054116D01*
X0057700Y0054075D01*
X0057670Y0054037D01*
X0057638Y0054001D01*
X0057603Y0053968D01*
X0057565Y0053938D01*
X0057525Y0053911D01*
X0057483Y0053888D01*
X0057439Y0053868D01*
X0057394Y0053851D01*
X0057348Y0053839D01*
X0057300Y0053830D01*
X0057252Y0053825D01*
X0057204Y0053824D01*
X0057156Y0053827D01*
X0057108Y0053834D01*
X0057061Y0053845D01*
X0057015Y0053859D01*
X0056970Y0053877D01*
X0056927Y0053899D01*
X0056886Y0053924D01*
X0056848Y0053953D01*
X0056811Y0053985D01*
X0056777Y0054019D01*
X0056747Y0054056D01*
X0056719Y0054095D01*
X0056694Y0054137D01*
X0056674Y0054181D01*
X0056656Y0054226D01*
X0056643Y0054272D01*
X0056633Y0054319D01*
X0056627Y0054367D01*
X0056625Y0054415D01*
X0064026Y0054415D02*
X0064028Y0054463D01*
X0064034Y0054511D01*
X0064044Y0054558D01*
X0064057Y0054604D01*
X0064075Y0054649D01*
X0064095Y0054693D01*
X0064120Y0054735D01*
X0064148Y0054774D01*
X0064178Y0054811D01*
X0064212Y0054845D01*
X0064249Y0054877D01*
X0064287Y0054906D01*
X0064328Y0054931D01*
X0064371Y0054953D01*
X0064416Y0054971D01*
X0064462Y0054985D01*
X0064509Y0054996D01*
X0064557Y0055003D01*
X0064605Y0055006D01*
X0064653Y0055005D01*
X0064701Y0055000D01*
X0064749Y0054991D01*
X0064795Y0054979D01*
X0064840Y0054962D01*
X0064884Y0054942D01*
X0064926Y0054919D01*
X0064966Y0054892D01*
X0065004Y0054862D01*
X0065039Y0054829D01*
X0065071Y0054793D01*
X0065101Y0054755D01*
X0065127Y0054714D01*
X0065149Y0054671D01*
X0065169Y0054627D01*
X0065184Y0054582D01*
X0065196Y0054535D01*
X0065204Y0054487D01*
X0065208Y0054439D01*
X0065208Y0054391D01*
X0065204Y0054343D01*
X0065196Y0054295D01*
X0065184Y0054248D01*
X0065169Y0054203D01*
X0065149Y0054159D01*
X0065127Y0054116D01*
X0065101Y0054075D01*
X0065071Y0054037D01*
X0065039Y0054001D01*
X0065004Y0053968D01*
X0064966Y0053938D01*
X0064926Y0053911D01*
X0064884Y0053888D01*
X0064840Y0053868D01*
X0064795Y0053851D01*
X0064749Y0053839D01*
X0064701Y0053830D01*
X0064653Y0053825D01*
X0064605Y0053824D01*
X0064557Y0053827D01*
X0064509Y0053834D01*
X0064462Y0053845D01*
X0064416Y0053859D01*
X0064371Y0053877D01*
X0064328Y0053899D01*
X0064287Y0053924D01*
X0064249Y0053953D01*
X0064212Y0053985D01*
X0064178Y0054019D01*
X0064148Y0054056D01*
X0064120Y0054095D01*
X0064095Y0054137D01*
X0064075Y0054181D01*
X0064057Y0054226D01*
X0064044Y0054272D01*
X0064034Y0054319D01*
X0064028Y0054367D01*
X0064026Y0054415D01*
X0064026Y0047013D02*
X0064028Y0047061D01*
X0064034Y0047109D01*
X0064044Y0047156D01*
X0064057Y0047202D01*
X0064075Y0047247D01*
X0064095Y0047291D01*
X0064120Y0047333D01*
X0064148Y0047372D01*
X0064178Y0047409D01*
X0064212Y0047443D01*
X0064249Y0047475D01*
X0064287Y0047504D01*
X0064328Y0047529D01*
X0064371Y0047551D01*
X0064416Y0047569D01*
X0064462Y0047583D01*
X0064509Y0047594D01*
X0064557Y0047601D01*
X0064605Y0047604D01*
X0064653Y0047603D01*
X0064701Y0047598D01*
X0064749Y0047589D01*
X0064795Y0047577D01*
X0064840Y0047560D01*
X0064884Y0047540D01*
X0064926Y0047517D01*
X0064966Y0047490D01*
X0065004Y0047460D01*
X0065039Y0047427D01*
X0065071Y0047391D01*
X0065101Y0047353D01*
X0065127Y0047312D01*
X0065149Y0047269D01*
X0065169Y0047225D01*
X0065184Y0047180D01*
X0065196Y0047133D01*
X0065204Y0047085D01*
X0065208Y0047037D01*
X0065208Y0046989D01*
X0065204Y0046941D01*
X0065196Y0046893D01*
X0065184Y0046846D01*
X0065169Y0046801D01*
X0065149Y0046757D01*
X0065127Y0046714D01*
X0065101Y0046673D01*
X0065071Y0046635D01*
X0065039Y0046599D01*
X0065004Y0046566D01*
X0064966Y0046536D01*
X0064926Y0046509D01*
X0064884Y0046486D01*
X0064840Y0046466D01*
X0064795Y0046449D01*
X0064749Y0046437D01*
X0064701Y0046428D01*
X0064653Y0046423D01*
X0064605Y0046422D01*
X0064557Y0046425D01*
X0064509Y0046432D01*
X0064462Y0046443D01*
X0064416Y0046457D01*
X0064371Y0046475D01*
X0064328Y0046497D01*
X0064287Y0046522D01*
X0064249Y0046551D01*
X0064212Y0046583D01*
X0064178Y0046617D01*
X0064148Y0046654D01*
X0064120Y0046693D01*
X0064095Y0046735D01*
X0064075Y0046779D01*
X0064057Y0046824D01*
X0064044Y0046870D01*
X0064034Y0046917D01*
X0064028Y0046965D01*
X0064026Y0047013D01*
X0071192Y0047013D02*
X0071194Y0047061D01*
X0071200Y0047109D01*
X0071210Y0047156D01*
X0071223Y0047202D01*
X0071241Y0047247D01*
X0071261Y0047291D01*
X0071286Y0047333D01*
X0071314Y0047372D01*
X0071344Y0047409D01*
X0071378Y0047443D01*
X0071415Y0047475D01*
X0071453Y0047504D01*
X0071494Y0047529D01*
X0071537Y0047551D01*
X0071582Y0047569D01*
X0071628Y0047583D01*
X0071675Y0047594D01*
X0071723Y0047601D01*
X0071771Y0047604D01*
X0071819Y0047603D01*
X0071867Y0047598D01*
X0071915Y0047589D01*
X0071961Y0047577D01*
X0072006Y0047560D01*
X0072050Y0047540D01*
X0072092Y0047517D01*
X0072132Y0047490D01*
X0072170Y0047460D01*
X0072205Y0047427D01*
X0072237Y0047391D01*
X0072267Y0047353D01*
X0072293Y0047312D01*
X0072315Y0047269D01*
X0072335Y0047225D01*
X0072350Y0047180D01*
X0072362Y0047133D01*
X0072370Y0047085D01*
X0072374Y0047037D01*
X0072374Y0046989D01*
X0072370Y0046941D01*
X0072362Y0046893D01*
X0072350Y0046846D01*
X0072335Y0046801D01*
X0072315Y0046757D01*
X0072293Y0046714D01*
X0072267Y0046673D01*
X0072237Y0046635D01*
X0072205Y0046599D01*
X0072170Y0046566D01*
X0072132Y0046536D01*
X0072092Y0046509D01*
X0072050Y0046486D01*
X0072006Y0046466D01*
X0071961Y0046449D01*
X0071915Y0046437D01*
X0071867Y0046428D01*
X0071819Y0046423D01*
X0071771Y0046422D01*
X0071723Y0046425D01*
X0071675Y0046432D01*
X0071628Y0046443D01*
X0071582Y0046457D01*
X0071537Y0046475D01*
X0071494Y0046497D01*
X0071453Y0046522D01*
X0071415Y0046551D01*
X0071378Y0046583D01*
X0071344Y0046617D01*
X0071314Y0046654D01*
X0071286Y0046693D01*
X0071261Y0046735D01*
X0071241Y0046779D01*
X0071223Y0046824D01*
X0071210Y0046870D01*
X0071200Y0046917D01*
X0071194Y0046965D01*
X0071192Y0047013D01*
X0071192Y0054415D02*
X0071194Y0054463D01*
X0071200Y0054511D01*
X0071210Y0054558D01*
X0071223Y0054604D01*
X0071241Y0054649D01*
X0071261Y0054693D01*
X0071286Y0054735D01*
X0071314Y0054774D01*
X0071344Y0054811D01*
X0071378Y0054845D01*
X0071415Y0054877D01*
X0071453Y0054906D01*
X0071494Y0054931D01*
X0071537Y0054953D01*
X0071582Y0054971D01*
X0071628Y0054985D01*
X0071675Y0054996D01*
X0071723Y0055003D01*
X0071771Y0055006D01*
X0071819Y0055005D01*
X0071867Y0055000D01*
X0071915Y0054991D01*
X0071961Y0054979D01*
X0072006Y0054962D01*
X0072050Y0054942D01*
X0072092Y0054919D01*
X0072132Y0054892D01*
X0072170Y0054862D01*
X0072205Y0054829D01*
X0072237Y0054793D01*
X0072267Y0054755D01*
X0072293Y0054714D01*
X0072315Y0054671D01*
X0072335Y0054627D01*
X0072350Y0054582D01*
X0072362Y0054535D01*
X0072370Y0054487D01*
X0072374Y0054439D01*
X0072374Y0054391D01*
X0072370Y0054343D01*
X0072362Y0054295D01*
X0072350Y0054248D01*
X0072335Y0054203D01*
X0072315Y0054159D01*
X0072293Y0054116D01*
X0072267Y0054075D01*
X0072237Y0054037D01*
X0072205Y0054001D01*
X0072170Y0053968D01*
X0072132Y0053938D01*
X0072092Y0053911D01*
X0072050Y0053888D01*
X0072006Y0053868D01*
X0071961Y0053851D01*
X0071915Y0053839D01*
X0071867Y0053830D01*
X0071819Y0053825D01*
X0071771Y0053824D01*
X0071723Y0053827D01*
X0071675Y0053834D01*
X0071628Y0053845D01*
X0071582Y0053859D01*
X0071537Y0053877D01*
X0071494Y0053899D01*
X0071453Y0053924D01*
X0071415Y0053953D01*
X0071378Y0053985D01*
X0071344Y0054019D01*
X0071314Y0054056D01*
X0071286Y0054095D01*
X0071261Y0054137D01*
X0071241Y0054181D01*
X0071223Y0054226D01*
X0071210Y0054272D01*
X0071200Y0054319D01*
X0071194Y0054367D01*
X0071192Y0054415D01*
X0078593Y0054415D02*
X0078595Y0054463D01*
X0078601Y0054511D01*
X0078611Y0054558D01*
X0078624Y0054604D01*
X0078642Y0054649D01*
X0078662Y0054693D01*
X0078687Y0054735D01*
X0078715Y0054774D01*
X0078745Y0054811D01*
X0078779Y0054845D01*
X0078816Y0054877D01*
X0078854Y0054906D01*
X0078895Y0054931D01*
X0078938Y0054953D01*
X0078983Y0054971D01*
X0079029Y0054985D01*
X0079076Y0054996D01*
X0079124Y0055003D01*
X0079172Y0055006D01*
X0079220Y0055005D01*
X0079268Y0055000D01*
X0079316Y0054991D01*
X0079362Y0054979D01*
X0079407Y0054962D01*
X0079451Y0054942D01*
X0079493Y0054919D01*
X0079533Y0054892D01*
X0079571Y0054862D01*
X0079606Y0054829D01*
X0079638Y0054793D01*
X0079668Y0054755D01*
X0079694Y0054714D01*
X0079716Y0054671D01*
X0079736Y0054627D01*
X0079751Y0054582D01*
X0079763Y0054535D01*
X0079771Y0054487D01*
X0079775Y0054439D01*
X0079775Y0054391D01*
X0079771Y0054343D01*
X0079763Y0054295D01*
X0079751Y0054248D01*
X0079736Y0054203D01*
X0079716Y0054159D01*
X0079694Y0054116D01*
X0079668Y0054075D01*
X0079638Y0054037D01*
X0079606Y0054001D01*
X0079571Y0053968D01*
X0079533Y0053938D01*
X0079493Y0053911D01*
X0079451Y0053888D01*
X0079407Y0053868D01*
X0079362Y0053851D01*
X0079316Y0053839D01*
X0079268Y0053830D01*
X0079220Y0053825D01*
X0079172Y0053824D01*
X0079124Y0053827D01*
X0079076Y0053834D01*
X0079029Y0053845D01*
X0078983Y0053859D01*
X0078938Y0053877D01*
X0078895Y0053899D01*
X0078854Y0053924D01*
X0078816Y0053953D01*
X0078779Y0053985D01*
X0078745Y0054019D01*
X0078715Y0054056D01*
X0078687Y0054095D01*
X0078662Y0054137D01*
X0078642Y0054181D01*
X0078624Y0054226D01*
X0078611Y0054272D01*
X0078601Y0054319D01*
X0078595Y0054367D01*
X0078593Y0054415D01*
X0078593Y0047013D02*
X0078595Y0047061D01*
X0078601Y0047109D01*
X0078611Y0047156D01*
X0078624Y0047202D01*
X0078642Y0047247D01*
X0078662Y0047291D01*
X0078687Y0047333D01*
X0078715Y0047372D01*
X0078745Y0047409D01*
X0078779Y0047443D01*
X0078816Y0047475D01*
X0078854Y0047504D01*
X0078895Y0047529D01*
X0078938Y0047551D01*
X0078983Y0047569D01*
X0079029Y0047583D01*
X0079076Y0047594D01*
X0079124Y0047601D01*
X0079172Y0047604D01*
X0079220Y0047603D01*
X0079268Y0047598D01*
X0079316Y0047589D01*
X0079362Y0047577D01*
X0079407Y0047560D01*
X0079451Y0047540D01*
X0079493Y0047517D01*
X0079533Y0047490D01*
X0079571Y0047460D01*
X0079606Y0047427D01*
X0079638Y0047391D01*
X0079668Y0047353D01*
X0079694Y0047312D01*
X0079716Y0047269D01*
X0079736Y0047225D01*
X0079751Y0047180D01*
X0079763Y0047133D01*
X0079771Y0047085D01*
X0079775Y0047037D01*
X0079775Y0046989D01*
X0079771Y0046941D01*
X0079763Y0046893D01*
X0079751Y0046846D01*
X0079736Y0046801D01*
X0079716Y0046757D01*
X0079694Y0046714D01*
X0079668Y0046673D01*
X0079638Y0046635D01*
X0079606Y0046599D01*
X0079571Y0046566D01*
X0079533Y0046536D01*
X0079493Y0046509D01*
X0079451Y0046486D01*
X0079407Y0046466D01*
X0079362Y0046449D01*
X0079316Y0046437D01*
X0079268Y0046428D01*
X0079220Y0046423D01*
X0079172Y0046422D01*
X0079124Y0046425D01*
X0079076Y0046432D01*
X0079029Y0046443D01*
X0078983Y0046457D01*
X0078938Y0046475D01*
X0078895Y0046497D01*
X0078854Y0046522D01*
X0078816Y0046551D01*
X0078779Y0046583D01*
X0078745Y0046617D01*
X0078715Y0046654D01*
X0078687Y0046693D01*
X0078662Y0046735D01*
X0078642Y0046779D01*
X0078624Y0046824D01*
X0078611Y0046870D01*
X0078601Y0046917D01*
X0078595Y0046965D01*
X0078593Y0047013D01*
X0087333Y0047013D02*
X0087335Y0047061D01*
X0087341Y0047109D01*
X0087351Y0047156D01*
X0087364Y0047202D01*
X0087382Y0047247D01*
X0087402Y0047291D01*
X0087427Y0047333D01*
X0087455Y0047372D01*
X0087485Y0047409D01*
X0087519Y0047443D01*
X0087556Y0047475D01*
X0087594Y0047504D01*
X0087635Y0047529D01*
X0087678Y0047551D01*
X0087723Y0047569D01*
X0087769Y0047583D01*
X0087816Y0047594D01*
X0087864Y0047601D01*
X0087912Y0047604D01*
X0087960Y0047603D01*
X0088008Y0047598D01*
X0088056Y0047589D01*
X0088102Y0047577D01*
X0088147Y0047560D01*
X0088191Y0047540D01*
X0088233Y0047517D01*
X0088273Y0047490D01*
X0088311Y0047460D01*
X0088346Y0047427D01*
X0088378Y0047391D01*
X0088408Y0047353D01*
X0088434Y0047312D01*
X0088456Y0047269D01*
X0088476Y0047225D01*
X0088491Y0047180D01*
X0088503Y0047133D01*
X0088511Y0047085D01*
X0088515Y0047037D01*
X0088515Y0046989D01*
X0088511Y0046941D01*
X0088503Y0046893D01*
X0088491Y0046846D01*
X0088476Y0046801D01*
X0088456Y0046757D01*
X0088434Y0046714D01*
X0088408Y0046673D01*
X0088378Y0046635D01*
X0088346Y0046599D01*
X0088311Y0046566D01*
X0088273Y0046536D01*
X0088233Y0046509D01*
X0088191Y0046486D01*
X0088147Y0046466D01*
X0088102Y0046449D01*
X0088056Y0046437D01*
X0088008Y0046428D01*
X0087960Y0046423D01*
X0087912Y0046422D01*
X0087864Y0046425D01*
X0087816Y0046432D01*
X0087769Y0046443D01*
X0087723Y0046457D01*
X0087678Y0046475D01*
X0087635Y0046497D01*
X0087594Y0046522D01*
X0087556Y0046551D01*
X0087519Y0046583D01*
X0087485Y0046617D01*
X0087455Y0046654D01*
X0087427Y0046693D01*
X0087402Y0046735D01*
X0087382Y0046779D01*
X0087364Y0046824D01*
X0087351Y0046870D01*
X0087341Y0046917D01*
X0087335Y0046965D01*
X0087333Y0047013D01*
X0087333Y0054415D02*
X0087335Y0054463D01*
X0087341Y0054511D01*
X0087351Y0054558D01*
X0087364Y0054604D01*
X0087382Y0054649D01*
X0087402Y0054693D01*
X0087427Y0054735D01*
X0087455Y0054774D01*
X0087485Y0054811D01*
X0087519Y0054845D01*
X0087556Y0054877D01*
X0087594Y0054906D01*
X0087635Y0054931D01*
X0087678Y0054953D01*
X0087723Y0054971D01*
X0087769Y0054985D01*
X0087816Y0054996D01*
X0087864Y0055003D01*
X0087912Y0055006D01*
X0087960Y0055005D01*
X0088008Y0055000D01*
X0088056Y0054991D01*
X0088102Y0054979D01*
X0088147Y0054962D01*
X0088191Y0054942D01*
X0088233Y0054919D01*
X0088273Y0054892D01*
X0088311Y0054862D01*
X0088346Y0054829D01*
X0088378Y0054793D01*
X0088408Y0054755D01*
X0088434Y0054714D01*
X0088456Y0054671D01*
X0088476Y0054627D01*
X0088491Y0054582D01*
X0088503Y0054535D01*
X0088511Y0054487D01*
X0088515Y0054439D01*
X0088515Y0054391D01*
X0088511Y0054343D01*
X0088503Y0054295D01*
X0088491Y0054248D01*
X0088476Y0054203D01*
X0088456Y0054159D01*
X0088434Y0054116D01*
X0088408Y0054075D01*
X0088378Y0054037D01*
X0088346Y0054001D01*
X0088311Y0053968D01*
X0088273Y0053938D01*
X0088233Y0053911D01*
X0088191Y0053888D01*
X0088147Y0053868D01*
X0088102Y0053851D01*
X0088056Y0053839D01*
X0088008Y0053830D01*
X0087960Y0053825D01*
X0087912Y0053824D01*
X0087864Y0053827D01*
X0087816Y0053834D01*
X0087769Y0053845D01*
X0087723Y0053859D01*
X0087678Y0053877D01*
X0087635Y0053899D01*
X0087594Y0053924D01*
X0087556Y0053953D01*
X0087519Y0053985D01*
X0087485Y0054019D01*
X0087455Y0054056D01*
X0087427Y0054095D01*
X0087402Y0054137D01*
X0087382Y0054181D01*
X0087364Y0054226D01*
X0087351Y0054272D01*
X0087341Y0054319D01*
X0087335Y0054367D01*
X0087333Y0054415D01*
X0094735Y0054415D02*
X0094737Y0054463D01*
X0094743Y0054511D01*
X0094753Y0054558D01*
X0094766Y0054604D01*
X0094784Y0054649D01*
X0094804Y0054693D01*
X0094829Y0054735D01*
X0094857Y0054774D01*
X0094887Y0054811D01*
X0094921Y0054845D01*
X0094958Y0054877D01*
X0094996Y0054906D01*
X0095037Y0054931D01*
X0095080Y0054953D01*
X0095125Y0054971D01*
X0095171Y0054985D01*
X0095218Y0054996D01*
X0095266Y0055003D01*
X0095314Y0055006D01*
X0095362Y0055005D01*
X0095410Y0055000D01*
X0095458Y0054991D01*
X0095504Y0054979D01*
X0095549Y0054962D01*
X0095593Y0054942D01*
X0095635Y0054919D01*
X0095675Y0054892D01*
X0095713Y0054862D01*
X0095748Y0054829D01*
X0095780Y0054793D01*
X0095810Y0054755D01*
X0095836Y0054714D01*
X0095858Y0054671D01*
X0095878Y0054627D01*
X0095893Y0054582D01*
X0095905Y0054535D01*
X0095913Y0054487D01*
X0095917Y0054439D01*
X0095917Y0054391D01*
X0095913Y0054343D01*
X0095905Y0054295D01*
X0095893Y0054248D01*
X0095878Y0054203D01*
X0095858Y0054159D01*
X0095836Y0054116D01*
X0095810Y0054075D01*
X0095780Y0054037D01*
X0095748Y0054001D01*
X0095713Y0053968D01*
X0095675Y0053938D01*
X0095635Y0053911D01*
X0095593Y0053888D01*
X0095549Y0053868D01*
X0095504Y0053851D01*
X0095458Y0053839D01*
X0095410Y0053830D01*
X0095362Y0053825D01*
X0095314Y0053824D01*
X0095266Y0053827D01*
X0095218Y0053834D01*
X0095171Y0053845D01*
X0095125Y0053859D01*
X0095080Y0053877D01*
X0095037Y0053899D01*
X0094996Y0053924D01*
X0094958Y0053953D01*
X0094921Y0053985D01*
X0094887Y0054019D01*
X0094857Y0054056D01*
X0094829Y0054095D01*
X0094804Y0054137D01*
X0094784Y0054181D01*
X0094766Y0054226D01*
X0094753Y0054272D01*
X0094743Y0054319D01*
X0094737Y0054367D01*
X0094735Y0054415D01*
X0094735Y0047013D02*
X0094737Y0047061D01*
X0094743Y0047109D01*
X0094753Y0047156D01*
X0094766Y0047202D01*
X0094784Y0047247D01*
X0094804Y0047291D01*
X0094829Y0047333D01*
X0094857Y0047372D01*
X0094887Y0047409D01*
X0094921Y0047443D01*
X0094958Y0047475D01*
X0094996Y0047504D01*
X0095037Y0047529D01*
X0095080Y0047551D01*
X0095125Y0047569D01*
X0095171Y0047583D01*
X0095218Y0047594D01*
X0095266Y0047601D01*
X0095314Y0047604D01*
X0095362Y0047603D01*
X0095410Y0047598D01*
X0095458Y0047589D01*
X0095504Y0047577D01*
X0095549Y0047560D01*
X0095593Y0047540D01*
X0095635Y0047517D01*
X0095675Y0047490D01*
X0095713Y0047460D01*
X0095748Y0047427D01*
X0095780Y0047391D01*
X0095810Y0047353D01*
X0095836Y0047312D01*
X0095858Y0047269D01*
X0095878Y0047225D01*
X0095893Y0047180D01*
X0095905Y0047133D01*
X0095913Y0047085D01*
X0095917Y0047037D01*
X0095917Y0046989D01*
X0095913Y0046941D01*
X0095905Y0046893D01*
X0095893Y0046846D01*
X0095878Y0046801D01*
X0095858Y0046757D01*
X0095836Y0046714D01*
X0095810Y0046673D01*
X0095780Y0046635D01*
X0095748Y0046599D01*
X0095713Y0046566D01*
X0095675Y0046536D01*
X0095635Y0046509D01*
X0095593Y0046486D01*
X0095549Y0046466D01*
X0095504Y0046449D01*
X0095458Y0046437D01*
X0095410Y0046428D01*
X0095362Y0046423D01*
X0095314Y0046422D01*
X0095266Y0046425D01*
X0095218Y0046432D01*
X0095171Y0046443D01*
X0095125Y0046457D01*
X0095080Y0046475D01*
X0095037Y0046497D01*
X0094996Y0046522D01*
X0094958Y0046551D01*
X0094921Y0046583D01*
X0094887Y0046617D01*
X0094857Y0046654D01*
X0094829Y0046693D01*
X0094804Y0046735D01*
X0094784Y0046779D01*
X0094766Y0046824D01*
X0094753Y0046870D01*
X0094743Y0046917D01*
X0094737Y0046965D01*
X0094735Y0047013D01*
X0101900Y0047013D02*
X0101902Y0047061D01*
X0101908Y0047109D01*
X0101918Y0047156D01*
X0101931Y0047202D01*
X0101949Y0047247D01*
X0101969Y0047291D01*
X0101994Y0047333D01*
X0102022Y0047372D01*
X0102052Y0047409D01*
X0102086Y0047443D01*
X0102123Y0047475D01*
X0102161Y0047504D01*
X0102202Y0047529D01*
X0102245Y0047551D01*
X0102290Y0047569D01*
X0102336Y0047583D01*
X0102383Y0047594D01*
X0102431Y0047601D01*
X0102479Y0047604D01*
X0102527Y0047603D01*
X0102575Y0047598D01*
X0102623Y0047589D01*
X0102669Y0047577D01*
X0102714Y0047560D01*
X0102758Y0047540D01*
X0102800Y0047517D01*
X0102840Y0047490D01*
X0102878Y0047460D01*
X0102913Y0047427D01*
X0102945Y0047391D01*
X0102975Y0047353D01*
X0103001Y0047312D01*
X0103023Y0047269D01*
X0103043Y0047225D01*
X0103058Y0047180D01*
X0103070Y0047133D01*
X0103078Y0047085D01*
X0103082Y0047037D01*
X0103082Y0046989D01*
X0103078Y0046941D01*
X0103070Y0046893D01*
X0103058Y0046846D01*
X0103043Y0046801D01*
X0103023Y0046757D01*
X0103001Y0046714D01*
X0102975Y0046673D01*
X0102945Y0046635D01*
X0102913Y0046599D01*
X0102878Y0046566D01*
X0102840Y0046536D01*
X0102800Y0046509D01*
X0102758Y0046486D01*
X0102714Y0046466D01*
X0102669Y0046449D01*
X0102623Y0046437D01*
X0102575Y0046428D01*
X0102527Y0046423D01*
X0102479Y0046422D01*
X0102431Y0046425D01*
X0102383Y0046432D01*
X0102336Y0046443D01*
X0102290Y0046457D01*
X0102245Y0046475D01*
X0102202Y0046497D01*
X0102161Y0046522D01*
X0102123Y0046551D01*
X0102086Y0046583D01*
X0102052Y0046617D01*
X0102022Y0046654D01*
X0101994Y0046693D01*
X0101969Y0046735D01*
X0101949Y0046779D01*
X0101931Y0046824D01*
X0101918Y0046870D01*
X0101908Y0046917D01*
X0101902Y0046965D01*
X0101900Y0047013D01*
X0101900Y0054415D02*
X0101902Y0054463D01*
X0101908Y0054511D01*
X0101918Y0054558D01*
X0101931Y0054604D01*
X0101949Y0054649D01*
X0101969Y0054693D01*
X0101994Y0054735D01*
X0102022Y0054774D01*
X0102052Y0054811D01*
X0102086Y0054845D01*
X0102123Y0054877D01*
X0102161Y0054906D01*
X0102202Y0054931D01*
X0102245Y0054953D01*
X0102290Y0054971D01*
X0102336Y0054985D01*
X0102383Y0054996D01*
X0102431Y0055003D01*
X0102479Y0055006D01*
X0102527Y0055005D01*
X0102575Y0055000D01*
X0102623Y0054991D01*
X0102669Y0054979D01*
X0102714Y0054962D01*
X0102758Y0054942D01*
X0102800Y0054919D01*
X0102840Y0054892D01*
X0102878Y0054862D01*
X0102913Y0054829D01*
X0102945Y0054793D01*
X0102975Y0054755D01*
X0103001Y0054714D01*
X0103023Y0054671D01*
X0103043Y0054627D01*
X0103058Y0054582D01*
X0103070Y0054535D01*
X0103078Y0054487D01*
X0103082Y0054439D01*
X0103082Y0054391D01*
X0103078Y0054343D01*
X0103070Y0054295D01*
X0103058Y0054248D01*
X0103043Y0054203D01*
X0103023Y0054159D01*
X0103001Y0054116D01*
X0102975Y0054075D01*
X0102945Y0054037D01*
X0102913Y0054001D01*
X0102878Y0053968D01*
X0102840Y0053938D01*
X0102800Y0053911D01*
X0102758Y0053888D01*
X0102714Y0053868D01*
X0102669Y0053851D01*
X0102623Y0053839D01*
X0102575Y0053830D01*
X0102527Y0053825D01*
X0102479Y0053824D01*
X0102431Y0053827D01*
X0102383Y0053834D01*
X0102336Y0053845D01*
X0102290Y0053859D01*
X0102245Y0053877D01*
X0102202Y0053899D01*
X0102161Y0053924D01*
X0102123Y0053953D01*
X0102086Y0053985D01*
X0102052Y0054019D01*
X0102022Y0054056D01*
X0101994Y0054095D01*
X0101969Y0054137D01*
X0101949Y0054181D01*
X0101931Y0054226D01*
X0101918Y0054272D01*
X0101908Y0054319D01*
X0101902Y0054367D01*
X0101900Y0054415D01*
X0109302Y0054415D02*
X0109304Y0054463D01*
X0109310Y0054511D01*
X0109320Y0054558D01*
X0109333Y0054604D01*
X0109351Y0054649D01*
X0109371Y0054693D01*
X0109396Y0054735D01*
X0109424Y0054774D01*
X0109454Y0054811D01*
X0109488Y0054845D01*
X0109525Y0054877D01*
X0109563Y0054906D01*
X0109604Y0054931D01*
X0109647Y0054953D01*
X0109692Y0054971D01*
X0109738Y0054985D01*
X0109785Y0054996D01*
X0109833Y0055003D01*
X0109881Y0055006D01*
X0109929Y0055005D01*
X0109977Y0055000D01*
X0110025Y0054991D01*
X0110071Y0054979D01*
X0110116Y0054962D01*
X0110160Y0054942D01*
X0110202Y0054919D01*
X0110242Y0054892D01*
X0110280Y0054862D01*
X0110315Y0054829D01*
X0110347Y0054793D01*
X0110377Y0054755D01*
X0110403Y0054714D01*
X0110425Y0054671D01*
X0110445Y0054627D01*
X0110460Y0054582D01*
X0110472Y0054535D01*
X0110480Y0054487D01*
X0110484Y0054439D01*
X0110484Y0054391D01*
X0110480Y0054343D01*
X0110472Y0054295D01*
X0110460Y0054248D01*
X0110445Y0054203D01*
X0110425Y0054159D01*
X0110403Y0054116D01*
X0110377Y0054075D01*
X0110347Y0054037D01*
X0110315Y0054001D01*
X0110280Y0053968D01*
X0110242Y0053938D01*
X0110202Y0053911D01*
X0110160Y0053888D01*
X0110116Y0053868D01*
X0110071Y0053851D01*
X0110025Y0053839D01*
X0109977Y0053830D01*
X0109929Y0053825D01*
X0109881Y0053824D01*
X0109833Y0053827D01*
X0109785Y0053834D01*
X0109738Y0053845D01*
X0109692Y0053859D01*
X0109647Y0053877D01*
X0109604Y0053899D01*
X0109563Y0053924D01*
X0109525Y0053953D01*
X0109488Y0053985D01*
X0109454Y0054019D01*
X0109424Y0054056D01*
X0109396Y0054095D01*
X0109371Y0054137D01*
X0109351Y0054181D01*
X0109333Y0054226D01*
X0109320Y0054272D01*
X0109310Y0054319D01*
X0109304Y0054367D01*
X0109302Y0054415D01*
X0109302Y0047013D02*
X0109304Y0047061D01*
X0109310Y0047109D01*
X0109320Y0047156D01*
X0109333Y0047202D01*
X0109351Y0047247D01*
X0109371Y0047291D01*
X0109396Y0047333D01*
X0109424Y0047372D01*
X0109454Y0047409D01*
X0109488Y0047443D01*
X0109525Y0047475D01*
X0109563Y0047504D01*
X0109604Y0047529D01*
X0109647Y0047551D01*
X0109692Y0047569D01*
X0109738Y0047583D01*
X0109785Y0047594D01*
X0109833Y0047601D01*
X0109881Y0047604D01*
X0109929Y0047603D01*
X0109977Y0047598D01*
X0110025Y0047589D01*
X0110071Y0047577D01*
X0110116Y0047560D01*
X0110160Y0047540D01*
X0110202Y0047517D01*
X0110242Y0047490D01*
X0110280Y0047460D01*
X0110315Y0047427D01*
X0110347Y0047391D01*
X0110377Y0047353D01*
X0110403Y0047312D01*
X0110425Y0047269D01*
X0110445Y0047225D01*
X0110460Y0047180D01*
X0110472Y0047133D01*
X0110480Y0047085D01*
X0110484Y0047037D01*
X0110484Y0046989D01*
X0110480Y0046941D01*
X0110472Y0046893D01*
X0110460Y0046846D01*
X0110445Y0046801D01*
X0110425Y0046757D01*
X0110403Y0046714D01*
X0110377Y0046673D01*
X0110347Y0046635D01*
X0110315Y0046599D01*
X0110280Y0046566D01*
X0110242Y0046536D01*
X0110202Y0046509D01*
X0110160Y0046486D01*
X0110116Y0046466D01*
X0110071Y0046449D01*
X0110025Y0046437D01*
X0109977Y0046428D01*
X0109929Y0046423D01*
X0109881Y0046422D01*
X0109833Y0046425D01*
X0109785Y0046432D01*
X0109738Y0046443D01*
X0109692Y0046457D01*
X0109647Y0046475D01*
X0109604Y0046497D01*
X0109563Y0046522D01*
X0109525Y0046551D01*
X0109488Y0046583D01*
X0109454Y0046617D01*
X0109424Y0046654D01*
X0109396Y0046693D01*
X0109371Y0046735D01*
X0109351Y0046779D01*
X0109333Y0046824D01*
X0109320Y0046870D01*
X0109310Y0046917D01*
X0109304Y0046965D01*
X0109302Y0047013D01*
D11*
X0095832Y0114297D03*
X0095832Y0116265D03*
X0095832Y0118234D03*
X0095832Y0120202D03*
X0095832Y0122171D03*
X0095832Y0124139D03*
X0080332Y0124139D03*
X0080332Y0122171D03*
X0080332Y0120202D03*
X0080332Y0118234D03*
X0080332Y0116265D03*
X0080332Y0114297D03*
D12*
X0083161Y0111468D03*
X0085129Y0111468D03*
X0087098Y0111468D03*
X0089066Y0111468D03*
X0091035Y0111468D03*
X0093003Y0111468D03*
X0093003Y0126968D03*
X0091035Y0126968D03*
X0089066Y0126968D03*
X0087098Y0126968D03*
X0085129Y0126968D03*
X0083161Y0126968D03*
D13*
X0088082Y0119218D03*
D14*
X0075582Y0113175D03*
X0075582Y0108726D03*
X0069086Y0108726D03*
X0069086Y0113175D03*
D15*
X0085720Y0133391D03*
X0088476Y0133391D03*
D16*
X0087098Y0135754D03*
X0087098Y0131029D03*
D17*
X0094184Y0134769D03*
X0104027Y0134769D03*
D18*
X0094775Y0105832D03*
X0090838Y0105832D03*
X0102649Y0102289D03*
X0106586Y0102289D03*
X0074302Y0103470D03*
X0070365Y0103470D03*
X0070365Y0118234D03*
X0074302Y0118234D03*
D19*
X0101468Y0114887D03*
X0101468Y0107801D03*
X0089657Y0071580D03*
X0083161Y0071580D03*
X0076665Y0071580D03*
X0076665Y0064494D03*
X0083161Y0064494D03*
X0089657Y0064494D03*
D20*
X0108948Y0110163D03*
X0108948Y0114100D03*
X0075090Y0127486D03*
X0075090Y0131423D03*
X0069972Y0131423D03*
X0069972Y0127486D03*
D21*
X0069578Y0096187D03*
X0064854Y0096187D03*
X0064854Y0091069D03*
X0069578Y0091069D03*
D22*
X0093003Y0090281D03*
X0102058Y0090281D03*
D23*
X0057373Y0090872D03*
X0057373Y0100872D03*
X0057373Y0110872D03*
X0057373Y0120872D03*
X0057373Y0130872D03*
D24*
X0082570Y0095596D03*
X0089657Y0095596D03*
D25*
X0095916Y0069625D03*
X0097885Y0069625D03*
X0099854Y0069625D03*
X0101823Y0069625D03*
X0101823Y0061725D03*
X0099854Y0061725D03*
X0097885Y0061725D03*
X0095916Y0061725D03*
X0071153Y0061725D03*
X0069184Y0061725D03*
X0067216Y0061725D03*
X0065247Y0061725D03*
X0065247Y0069625D03*
X0067216Y0069625D03*
X0069184Y0069625D03*
X0071153Y0069625D03*
D26*
X0068200Y0065675D03*
X0098869Y0065675D03*
D27*
X0091625Y0050714D03*
X0106192Y0050714D03*
X0075483Y0050714D03*
X0060917Y0050714D03*
D28*
X0066625Y0057761D03*
X0071743Y0057761D03*
X0097334Y0057761D03*
X0102452Y0057761D03*
D29*
X0108121Y0064336D03*
X0108121Y0071187D03*
X0056035Y0071187D03*
X0056035Y0064336D03*
D30*
X0061310Y0083785D03*
X0069184Y0083785D03*
X0077058Y0083785D03*
X0084932Y0083785D03*
X0092806Y0083785D03*
X0100680Y0083785D03*
D31*
X0108554Y0083785D03*
D32*
X0105864Y0083785D01*
X0105864Y0082050D01*
X0105939Y0081770D01*
X0106084Y0081519D01*
X0106288Y0081314D01*
X0106539Y0081170D01*
X0106819Y0081095D01*
X0108554Y0081095D01*
X0108554Y0083785D01*
X0108554Y0083785D01*
X0105864Y0083785D01*
X0105864Y0085520D01*
X0105939Y0085800D01*
X0106084Y0086051D01*
X0106288Y0086256D01*
X0106539Y0086401D01*
X0106819Y0086476D01*
X0108554Y0086476D01*
X0108554Y0083785D01*
X0108554Y0083785D01*
X0108554Y0083785D01*
X0108554Y0081095D01*
X0110290Y0081095D01*
X0110569Y0081170D01*
X0110820Y0081314D01*
X0111025Y0081519D01*
X0111170Y0081770D01*
X0111245Y0082050D01*
X0111245Y0083785D01*
X0108554Y0083785D01*
X0108554Y0086476D01*
X0110290Y0086476D01*
X0110569Y0086401D01*
X0110820Y0086256D01*
X0111025Y0086051D01*
X0111170Y0085800D01*
X0111245Y0085520D01*
X0111245Y0083785D01*
X0108554Y0083785D01*
X0108554Y0083785D01*
X0108554Y0083917D02*
X0108554Y0083917D01*
X0108554Y0084515D02*
X0108554Y0084515D01*
X0108554Y0085114D02*
X0108554Y0085114D01*
X0108554Y0085712D02*
X0108554Y0085712D01*
X0108554Y0086311D02*
X0108554Y0086311D01*
X0106384Y0086311D02*
X0082809Y0086311D01*
X0082998Y0086499D02*
X0081825Y0085326D01*
X0080166Y0085326D01*
X0078993Y0086499D01*
X0078993Y0088158D01*
X0080166Y0089331D01*
X0081825Y0089331D01*
X0082998Y0088158D01*
X0082998Y0086499D01*
X0082998Y0086909D02*
X0111404Y0086909D01*
X0111404Y0086311D02*
X0110725Y0086311D01*
X0111193Y0085712D02*
X0111404Y0085712D01*
X0111404Y0085114D02*
X0111245Y0085114D01*
X0111245Y0084515D02*
X0111404Y0084515D01*
X0111404Y0083917D02*
X0111245Y0083917D01*
X0111245Y0083318D02*
X0111404Y0083318D01*
X0111404Y0082720D02*
X0111245Y0082720D01*
X0111245Y0082121D02*
X0111404Y0082121D01*
X0111404Y0081523D02*
X0111027Y0081523D01*
X0111404Y0080924D02*
X0089773Y0080924D01*
X0090372Y0080326D02*
X0111404Y0080326D01*
X0111404Y0079727D02*
X0090970Y0079727D01*
X0091569Y0079129D02*
X0111404Y0079129D01*
X0111404Y0078530D02*
X0099214Y0078530D01*
X0098858Y0078886D02*
X0091811Y0078886D01*
X0087423Y0083274D01*
X0087423Y0084817D01*
X0085964Y0086276D01*
X0083901Y0086276D01*
X0082442Y0084817D01*
X0082442Y0082753D01*
X0083901Y0081295D01*
X0085443Y0081295D01*
X0090214Y0076524D01*
X0086300Y0076524D01*
X0079549Y0083274D01*
X0079549Y0084817D01*
X0078090Y0086276D01*
X0076027Y0086276D01*
X0074568Y0084817D01*
X0074568Y0082753D01*
X0076027Y0081295D01*
X0077569Y0081295D01*
X0084608Y0074255D01*
X0083461Y0074255D01*
X0083461Y0071880D01*
X0089357Y0071880D01*
X0089357Y0071280D01*
X0089957Y0071280D01*
X0089957Y0071880D01*
X0093119Y0071880D01*
X0093119Y0073300D01*
X0093044Y0073580D01*
X0092961Y0073724D01*
X0093811Y0073724D01*
X0093639Y0073552D01*
X0093639Y0071893D01*
X0094466Y0071065D01*
X0094466Y0067943D01*
X0094419Y0067770D01*
X0094419Y0065975D01*
X0098569Y0065975D01*
X0098569Y0065375D01*
X0094419Y0065375D01*
X0094419Y0064119D01*
X0092919Y0064119D01*
X0092919Y0066441D01*
X0092392Y0066969D01*
X0086922Y0066969D01*
X0086409Y0066456D01*
X0085896Y0066969D01*
X0080426Y0066969D01*
X0079913Y0066456D01*
X0079400Y0066969D01*
X0073930Y0066969D01*
X0073402Y0066441D01*
X0073402Y0063716D01*
X0073102Y0063416D01*
X0073102Y0060433D01*
X0072603Y0060433D01*
X0072603Y0063406D01*
X0072650Y0063580D01*
X0072650Y0065375D01*
X0068500Y0065375D01*
X0068500Y0065975D01*
X0072650Y0065975D01*
X0072650Y0067664D01*
X0072729Y0067800D01*
X0072803Y0068080D01*
X0072803Y0069625D01*
X0072803Y0071170D01*
X0072729Y0071449D01*
X0072584Y0071700D01*
X0072379Y0071905D01*
X0072128Y0072050D01*
X0071848Y0072125D01*
X0071154Y0072125D01*
X0071154Y0069625D01*
X0072803Y0069625D01*
X0071154Y0069625D01*
X0071154Y0069625D01*
X0071153Y0069625D01*
X0071153Y0072125D01*
X0070584Y0072125D01*
X0070584Y0081663D01*
X0071675Y0082753D01*
X0071675Y0084817D01*
X0070216Y0086276D01*
X0068153Y0086276D01*
X0066694Y0084817D01*
X0066694Y0082753D01*
X0067784Y0081663D01*
X0067784Y0079291D01*
X0063801Y0083274D01*
X0063801Y0084817D01*
X0062342Y0086276D01*
X0060279Y0086276D01*
X0058820Y0084817D01*
X0058820Y0082753D01*
X0060279Y0081295D01*
X0061821Y0081295D01*
X0065816Y0077300D01*
X0065816Y0071925D01*
X0064324Y0071925D01*
X0063864Y0071465D01*
X0063675Y0071654D01*
X0062016Y0071654D01*
X0060843Y0070481D01*
X0060843Y0068822D01*
X0062016Y0067649D01*
X0063675Y0067649D01*
X0063750Y0067724D01*
X0063750Y0065975D01*
X0067900Y0065975D01*
X0067900Y0065375D01*
X0063750Y0065375D01*
X0063750Y0064513D01*
X0060478Y0064513D01*
X0060478Y0075103D01*
X0059951Y0075630D01*
X0057373Y0075630D01*
X0057373Y0082512D01*
X0057486Y0082625D01*
X0057486Y0086272D01*
X0058288Y0086272D01*
X0059979Y0086972D01*
X0061273Y0088266D01*
X0061973Y0089957D01*
X0061973Y0091787D01*
X0061273Y0093477D01*
X0059979Y0094771D01*
X0059454Y0094989D01*
X0059454Y0096755D01*
X0059979Y0096972D01*
X0061273Y0098266D01*
X0061973Y0099957D01*
X0061973Y0101787D01*
X0061862Y0102055D01*
X0062056Y0101861D01*
X0063714Y0101861D01*
X0064887Y0103034D01*
X0064887Y0104693D01*
X0064085Y0105496D01*
X0064085Y0115375D01*
X0068284Y0119574D01*
X0068284Y0116483D01*
X0068811Y0115956D01*
X0070356Y0115956D01*
X0072545Y0113766D01*
X0073293Y0113766D01*
X0073501Y0113559D01*
X0073501Y0111326D01*
X0073737Y0111089D01*
X0073725Y0111083D01*
X0073521Y0110878D01*
X0073376Y0110627D01*
X0073301Y0110347D01*
X0073301Y0109017D01*
X0075291Y0109017D01*
X0075291Y0108435D01*
X0075872Y0108435D01*
X0075872Y0106150D01*
X0076908Y0106150D01*
X0077188Y0106225D01*
X0077438Y0106369D01*
X0077643Y0106574D01*
X0077788Y0106825D01*
X0077863Y0107105D01*
X0077863Y0108435D01*
X0075873Y0108435D01*
X0075873Y0109017D01*
X0077863Y0109017D01*
X0077863Y0110347D01*
X0077788Y0110627D01*
X0077643Y0110878D01*
X0077438Y0111083D01*
X0077427Y0111089D01*
X0077663Y0111326D01*
X0077663Y0115024D01*
X0077171Y0115516D01*
X0077171Y0116048D01*
X0076644Y0116575D01*
X0076383Y0116575D01*
X0076383Y0117034D01*
X0077765Y0117034D01*
X0077732Y0116910D01*
X0077732Y0116265D01*
X0077732Y0115621D01*
X0077807Y0115341D01*
X0077932Y0115124D01*
X0077932Y0113424D01*
X0078459Y0112897D01*
X0081761Y0112897D01*
X0081761Y0109595D01*
X0081961Y0109395D01*
X0081961Y0105739D01*
X0074214Y0097992D01*
X0073079Y0097992D01*
X0071906Y0096819D01*
X0071906Y0095160D01*
X0073079Y0093987D01*
X0074738Y0093987D01*
X0075483Y0094733D01*
X0076229Y0093987D01*
X0077888Y0093987D01*
X0079061Y0095160D01*
X0079061Y0096295D01*
X0079895Y0097130D01*
X0079895Y0095896D01*
X0082270Y0095896D01*
X0082270Y0095296D01*
X0082870Y0095296D01*
X0082870Y0092134D01*
X0084290Y0092134D01*
X0084569Y0092209D01*
X0084820Y0092354D01*
X0085025Y0092559D01*
X0085170Y0092809D01*
X0085245Y0093089D01*
X0085245Y0095296D01*
X0082870Y0095296D01*
X0082870Y0095896D01*
X0085245Y0095896D01*
X0085245Y0098103D01*
X0085170Y0098383D01*
X0085025Y0098634D01*
X0084820Y0098839D01*
X0084569Y0098983D01*
X0084290Y0099058D01*
X0082870Y0099058D01*
X0082870Y0095896D01*
X0082270Y0095896D01*
X0082270Y0099058D01*
X0081824Y0099058D01*
X0086329Y0103564D01*
X0086329Y0103751D01*
X0088455Y0103751D01*
X0088771Y0104067D01*
X0088783Y0104055D01*
X0088783Y0098858D01*
X0087709Y0098858D01*
X0087182Y0098331D01*
X0087182Y0092861D01*
X0087709Y0092334D01*
X0090736Y0092334D01*
X0090663Y0092060D01*
X0090663Y0090581D01*
X0092703Y0090581D01*
X0092703Y0089981D01*
X0093303Y0089981D01*
X0093303Y0087547D01*
X0094388Y0087547D01*
X0094668Y0087622D01*
X0094919Y0087767D01*
X0095124Y0087972D01*
X0095268Y0088223D01*
X0095343Y0088502D01*
X0095343Y0089981D01*
X0093303Y0089981D01*
X0093303Y0090581D01*
X0092703Y0090581D01*
X0092703Y0093015D01*
X0092131Y0093015D01*
X0092131Y0093896D01*
X0094037Y0093896D01*
X0094339Y0093594D01*
X0095998Y0093594D01*
X0097171Y0094767D01*
X0097171Y0096426D01*
X0095998Y0097598D01*
X0094339Y0097598D01*
X0094037Y0097296D01*
X0092183Y0097296D01*
X0092183Y0103554D01*
X0092392Y0103554D01*
X0092678Y0103841D01*
X0092713Y0103779D01*
X0092918Y0103574D01*
X0093169Y0103429D01*
X0093449Y0103354D01*
X0094484Y0103354D01*
X0094484Y0105542D01*
X0095065Y0105542D01*
X0095065Y0103354D01*
X0096101Y0103354D01*
X0096380Y0103429D01*
X0096631Y0103574D01*
X0096836Y0103779D01*
X0096981Y0104030D01*
X0097056Y0104310D01*
X0097056Y0105542D01*
X0095065Y0105542D01*
X0095065Y0106123D01*
X0097056Y0106123D01*
X0097056Y0106609D01*
X0097158Y0106507D01*
X0098206Y0106507D01*
X0098206Y0105853D01*
X0098733Y0105326D01*
X0100555Y0105326D01*
X0100555Y0099877D01*
X0100253Y0099575D01*
X0100253Y0097916D01*
X0101426Y0096743D01*
X0103085Y0096743D01*
X0104257Y0097916D01*
X0104257Y0099575D01*
X0103955Y0099877D01*
X0103955Y0100011D01*
X0104203Y0100011D01*
X0104489Y0100297D01*
X0104525Y0100236D01*
X0104729Y0100031D01*
X0104980Y0099886D01*
X0105260Y0099811D01*
X0106295Y0099811D01*
X0106295Y0101998D01*
X0106876Y0101998D01*
X0106876Y0099811D01*
X0107912Y0099811D01*
X0108192Y0099886D01*
X0108442Y0100031D01*
X0108647Y0100236D01*
X0108792Y0100486D01*
X0108867Y0100766D01*
X0108867Y0101998D01*
X0106876Y0101998D01*
X0106876Y0102580D01*
X0106295Y0102580D01*
X0106295Y0104767D01*
X0105260Y0104767D01*
X0104980Y0104692D01*
X0104729Y0104547D01*
X0104525Y0104342D01*
X0104489Y0104281D01*
X0104203Y0104567D01*
X0103955Y0104567D01*
X0103955Y0105326D01*
X0104203Y0105326D01*
X0104428Y0105552D01*
X0104969Y0105011D01*
X0106628Y0105011D01*
X0107801Y0106184D01*
X0107801Y0107843D01*
X0107762Y0107882D01*
X0108657Y0107882D01*
X0108657Y0109872D01*
X0106470Y0109872D01*
X0106470Y0109016D01*
X0104969Y0109016D01*
X0104730Y0108777D01*
X0104730Y0109748D01*
X0104203Y0110276D01*
X0100973Y0110276D01*
X0100473Y0110776D01*
X0094403Y0110776D01*
X0094403Y0112697D01*
X0095832Y0112697D01*
X0097477Y0112697D01*
X0097756Y0112772D01*
X0098007Y0112917D01*
X0098206Y0113115D01*
X0098206Y0112940D01*
X0098733Y0112413D01*
X0104203Y0112413D01*
X0104730Y0112940D01*
X0104730Y0113912D01*
X0104969Y0113673D01*
X0106628Y0113673D01*
X0106670Y0113715D01*
X0106670Y0112546D01*
X0106956Y0112260D01*
X0106895Y0112224D01*
X0106690Y0112020D01*
X0106545Y0111769D01*
X0106470Y0111489D01*
X0106470Y0110454D01*
X0108657Y0110454D01*
X0108657Y0109872D01*
X0109239Y0109872D01*
X0109239Y0107882D01*
X0110471Y0107882D01*
X0110751Y0107957D01*
X0111001Y0108102D01*
X0111206Y0108307D01*
X0111351Y0108557D01*
X0111404Y0108755D01*
X0111404Y0075830D01*
X0108421Y0075830D01*
X0108421Y0071487D01*
X0107821Y0071487D01*
X0107821Y0075830D01*
X0104433Y0075830D01*
X0104153Y0075755D01*
X0103903Y0075610D01*
X0103698Y0075405D01*
X0103553Y0075155D01*
X0103478Y0074875D01*
X0103478Y0071487D01*
X0107821Y0071487D01*
X0107821Y0070887D01*
X0103478Y0070887D01*
X0103478Y0064636D01*
X0107821Y0064636D01*
X0107821Y0064036D01*
X0103478Y0064036D01*
X0103478Y0063937D01*
X0103319Y0063937D01*
X0103319Y0065375D01*
X0099169Y0065375D01*
X0099169Y0065975D01*
X0103319Y0065975D01*
X0103319Y0067664D01*
X0103398Y0067800D01*
X0103473Y0068080D01*
X0103473Y0069625D01*
X0103473Y0071170D01*
X0103398Y0071449D01*
X0103253Y0071700D01*
X0103048Y0071905D01*
X0102797Y0072050D01*
X0102518Y0072125D01*
X0101823Y0072125D01*
X0101823Y0069625D01*
X0103473Y0069625D01*
X0101823Y0069625D01*
X0101823Y0069625D01*
X0101823Y0069625D01*
X0101823Y0072125D01*
X0101254Y0072125D01*
X0101254Y0076491D01*
X0099678Y0078066D01*
X0098858Y0078886D01*
X0099813Y0077932D02*
X0111404Y0077932D01*
X0111404Y0077333D02*
X0100411Y0077333D01*
X0101010Y0076735D02*
X0111404Y0076735D01*
X0111310Y0076735D02*
X0107767Y0076735D01*
X0107767Y0077092D02*
X0111310Y0077092D01*
X0111310Y0069612D01*
X0103436Y0069612D01*
X0103436Y0072368D01*
X0107767Y0072368D01*
X0107767Y0077092D01*
X0107767Y0076136D02*
X0111310Y0076136D01*
X0111404Y0076136D02*
X0101254Y0076136D01*
X0101254Y0075538D02*
X0103830Y0075538D01*
X0103495Y0074939D02*
X0101254Y0074939D01*
X0101254Y0074341D02*
X0103478Y0074341D01*
X0103478Y0073742D02*
X0101254Y0073742D01*
X0101254Y0073144D02*
X0103478Y0073144D01*
X0103478Y0072545D02*
X0101254Y0072545D01*
X0101823Y0071947D02*
X0101823Y0071947D01*
X0101823Y0071348D02*
X0101823Y0071348D01*
X0101823Y0070750D02*
X0101823Y0070750D01*
X0101823Y0070151D02*
X0101823Y0070151D01*
X0103436Y0070151D02*
X0111310Y0070151D01*
X0111310Y0070750D02*
X0103436Y0070750D01*
X0103473Y0070750D02*
X0103478Y0070750D01*
X0103473Y0070151D02*
X0103478Y0070151D01*
X0103473Y0069552D02*
X0103478Y0069552D01*
X0103473Y0068954D02*
X0103478Y0068954D01*
X0103473Y0068355D02*
X0103478Y0068355D01*
X0103478Y0067757D02*
X0103373Y0067757D01*
X0103319Y0067158D02*
X0103478Y0067158D01*
X0103478Y0066560D02*
X0103319Y0066560D01*
X0103478Y0065961D02*
X0099169Y0065961D01*
X0098569Y0065961D02*
X0092919Y0065961D01*
X0092919Y0065363D02*
X0094419Y0065363D01*
X0094419Y0064764D02*
X0092919Y0064764D01*
X0092919Y0064166D02*
X0094419Y0064166D01*
X0095052Y0062919D02*
X0095146Y0062825D01*
X0096350Y0062825D01*
X0096350Y0060433D01*
X0095583Y0060433D01*
X0095056Y0059906D01*
X0095056Y0058588D01*
X0074302Y0058588D01*
X0074302Y0062919D01*
X0095052Y0062919D01*
X0096350Y0062370D02*
X0074302Y0062370D01*
X0074302Y0061772D02*
X0096350Y0061772D01*
X0096350Y0061173D02*
X0074302Y0061173D01*
X0074302Y0060575D02*
X0096350Y0060575D01*
X0095126Y0059976D02*
X0074302Y0059976D01*
X0074302Y0059378D02*
X0095056Y0059378D01*
X0095056Y0058779D02*
X0074302Y0058779D01*
X0073102Y0060575D02*
X0072603Y0060575D01*
X0072603Y0061173D02*
X0073102Y0061173D01*
X0073102Y0061772D02*
X0072603Y0061772D01*
X0072603Y0062370D02*
X0073102Y0062370D01*
X0073102Y0062969D02*
X0072603Y0062969D01*
X0072647Y0063567D02*
X0073254Y0063567D01*
X0073402Y0064166D02*
X0072650Y0064166D01*
X0072650Y0064764D02*
X0073402Y0064764D01*
X0073402Y0065363D02*
X0072650Y0065363D01*
X0073402Y0065961D02*
X0068500Y0065961D01*
X0068200Y0065675D02*
X0069106Y0064887D01*
X0067900Y0065961D02*
X0060478Y0065961D01*
X0060478Y0065363D02*
X0063750Y0065363D01*
X0063750Y0064764D02*
X0060478Y0064764D01*
X0060478Y0066560D02*
X0063750Y0066560D01*
X0063750Y0067158D02*
X0060478Y0067158D01*
X0060478Y0067757D02*
X0061908Y0067757D01*
X0061310Y0068355D02*
X0060478Y0068355D01*
X0060478Y0068954D02*
X0060843Y0068954D01*
X0060843Y0069552D02*
X0060478Y0069552D01*
X0060478Y0070151D02*
X0060843Y0070151D01*
X0061112Y0070750D02*
X0060478Y0070750D01*
X0060478Y0071348D02*
X0061711Y0071348D01*
X0060478Y0071947D02*
X0065816Y0071947D01*
X0065816Y0072545D02*
X0060478Y0072545D01*
X0060478Y0073144D02*
X0065816Y0073144D01*
X0065816Y0073742D02*
X0060478Y0073742D01*
X0060478Y0074341D02*
X0065816Y0074341D01*
X0065816Y0074939D02*
X0060478Y0074939D01*
X0060043Y0075538D02*
X0065816Y0075538D01*
X0065816Y0076136D02*
X0057373Y0076136D01*
X0057373Y0076735D02*
X0065816Y0076735D01*
X0065782Y0077333D02*
X0057373Y0077333D01*
X0057373Y0077932D02*
X0065184Y0077932D01*
X0064585Y0078530D02*
X0057373Y0078530D01*
X0057373Y0079129D02*
X0063987Y0079129D01*
X0063388Y0079727D02*
X0057373Y0079727D01*
X0057373Y0080326D02*
X0062790Y0080326D01*
X0062191Y0080924D02*
X0057373Y0080924D01*
X0057373Y0081523D02*
X0060050Y0081523D01*
X0059452Y0082121D02*
X0057373Y0082121D01*
X0057486Y0082720D02*
X0058853Y0082720D01*
X0058820Y0083318D02*
X0057486Y0083318D01*
X0057486Y0083917D02*
X0058820Y0083917D01*
X0058820Y0084515D02*
X0057486Y0084515D01*
X0057486Y0085114D02*
X0059117Y0085114D01*
X0059715Y0085712D02*
X0057486Y0085712D01*
X0058383Y0086311D02*
X0079181Y0086311D01*
X0078993Y0086909D02*
X0059828Y0086909D01*
X0060515Y0087508D02*
X0078993Y0087508D01*
X0078993Y0088106D02*
X0061113Y0088106D01*
X0061455Y0088705D02*
X0062709Y0088705D01*
X0062800Y0088614D02*
X0063051Y0088469D01*
X0063331Y0088394D01*
X0064554Y0088394D01*
X0064554Y0090769D01*
X0065154Y0090769D01*
X0065154Y0088394D01*
X0066376Y0088394D01*
X0066656Y0088469D01*
X0066907Y0088614D01*
X0067112Y0088818D01*
X0067257Y0089069D01*
X0067300Y0089231D01*
X0067300Y0089121D01*
X0067827Y0088594D01*
X0071329Y0088594D01*
X0071856Y0089121D01*
X0071856Y0089699D01*
X0071898Y0089657D01*
X0073557Y0089657D01*
X0074730Y0090830D01*
X0074730Y0092489D01*
X0073557Y0093661D01*
X0071898Y0093661D01*
X0071554Y0093318D01*
X0071329Y0093543D01*
X0067827Y0093543D01*
X0067300Y0093016D01*
X0067300Y0092906D01*
X0067257Y0093068D01*
X0067112Y0093319D01*
X0066907Y0093524D01*
X0066656Y0093668D01*
X0066494Y0093712D01*
X0066604Y0093712D01*
X0067131Y0094239D01*
X0067131Y0098134D01*
X0066604Y0098661D01*
X0063103Y0098661D01*
X0062576Y0098134D01*
X0062576Y0094239D01*
X0063103Y0093712D01*
X0063213Y0093712D01*
X0063051Y0093668D01*
X0062800Y0093524D01*
X0062595Y0093319D01*
X0062451Y0093068D01*
X0062376Y0092788D01*
X0062376Y0091369D01*
X0064553Y0091369D01*
X0064553Y0090769D01*
X0062376Y0090769D01*
X0062376Y0089349D01*
X0062451Y0089069D01*
X0062595Y0088818D01*
X0062800Y0088614D01*
X0062388Y0089303D02*
X0061703Y0089303D01*
X0061951Y0089902D02*
X0062376Y0089902D01*
X0062376Y0090500D02*
X0061973Y0090500D01*
X0061973Y0091099D02*
X0064553Y0091099D01*
X0064554Y0090500D02*
X0065154Y0090500D01*
X0065154Y0089902D02*
X0064554Y0089902D01*
X0064554Y0089303D02*
X0065154Y0089303D01*
X0065154Y0088705D02*
X0064554Y0088705D01*
X0066998Y0088705D02*
X0067716Y0088705D01*
X0069578Y0091069D02*
X0070169Y0091659D01*
X0072728Y0091659D01*
X0074324Y0092894D02*
X0079947Y0092894D01*
X0079970Y0092809D02*
X0080115Y0092559D01*
X0080320Y0092354D01*
X0080571Y0092209D01*
X0080850Y0092134D01*
X0082270Y0092134D01*
X0082270Y0095296D01*
X0079895Y0095296D01*
X0079895Y0093089D01*
X0079970Y0092809D01*
X0080420Y0092296D02*
X0074730Y0092296D01*
X0074730Y0091697D02*
X0090663Y0091697D01*
X0090663Y0091099D02*
X0086749Y0091099D01*
X0086549Y0091299D02*
X0084890Y0091299D01*
X0083717Y0090126D01*
X0083717Y0088468D01*
X0084890Y0087295D01*
X0086549Y0087295D01*
X0087722Y0088468D01*
X0087722Y0090126D01*
X0086549Y0091299D01*
X0087348Y0090500D02*
X0092703Y0090500D01*
X0092703Y0089981D02*
X0090663Y0089981D01*
X0090663Y0088502D01*
X0090738Y0088223D01*
X0090883Y0087972D01*
X0091088Y0087767D01*
X0091338Y0087622D01*
X0091618Y0087547D01*
X0092703Y0087547D01*
X0092703Y0089981D01*
X0092703Y0089902D02*
X0093303Y0089902D01*
X0093303Y0090500D02*
X0099918Y0090500D01*
X0099918Y0090724D02*
X0099918Y0088275D01*
X0100445Y0087747D01*
X0103671Y0087747D01*
X0104198Y0088275D01*
X0104198Y0092288D01*
X0103671Y0092815D01*
X0101487Y0092815D01*
X0101487Y0093334D01*
X0102289Y0094137D01*
X0102289Y0095796D01*
X0101116Y0096969D01*
X0099457Y0096969D01*
X0098284Y0095796D01*
X0098284Y0094137D01*
X0099087Y0093334D01*
X0099087Y0091556D01*
X0099790Y0090853D01*
X0099918Y0090724D01*
X0099543Y0091099D02*
X0095343Y0091099D01*
X0095343Y0090581D02*
X0095343Y0092060D01*
X0095268Y0092340D01*
X0095124Y0092590D01*
X0094919Y0092795D01*
X0094668Y0092940D01*
X0094388Y0093015D01*
X0093303Y0093015D01*
X0093303Y0090581D01*
X0095343Y0090581D01*
X0095343Y0089902D02*
X0099918Y0089902D01*
X0099918Y0089303D02*
X0095343Y0089303D01*
X0095343Y0088705D02*
X0099918Y0088705D01*
X0100086Y0088106D02*
X0095201Y0088106D01*
X0093838Y0086276D02*
X0091775Y0086276D01*
X0090316Y0084817D01*
X0090316Y0082753D01*
X0091775Y0081295D01*
X0093838Y0081295D01*
X0095297Y0082753D01*
X0095297Y0084817D01*
X0093838Y0086276D01*
X0094401Y0085712D02*
X0099085Y0085712D01*
X0099649Y0086276D02*
X0098190Y0084817D01*
X0098190Y0082753D01*
X0099649Y0081295D01*
X0101712Y0081295D01*
X0103171Y0082753D01*
X0103171Y0084817D01*
X0101712Y0086276D01*
X0099649Y0086276D01*
X0098487Y0085114D02*
X0095000Y0085114D01*
X0095297Y0084515D02*
X0098190Y0084515D01*
X0098190Y0083917D02*
X0095297Y0083917D01*
X0095297Y0083318D02*
X0098190Y0083318D01*
X0098223Y0082720D02*
X0095263Y0082720D01*
X0094665Y0082121D02*
X0098822Y0082121D01*
X0099421Y0081523D02*
X0094066Y0081523D01*
X0091547Y0081523D02*
X0089175Y0081523D01*
X0088576Y0082121D02*
X0090948Y0082121D01*
X0090349Y0082720D02*
X0087978Y0082720D01*
X0087423Y0083318D02*
X0090316Y0083318D01*
X0090316Y0083917D02*
X0087423Y0083917D01*
X0087423Y0084515D02*
X0090316Y0084515D01*
X0090613Y0085114D02*
X0087126Y0085114D01*
X0086527Y0085712D02*
X0091211Y0085712D01*
X0090805Y0088106D02*
X0087361Y0088106D01*
X0087722Y0088705D02*
X0090663Y0088705D01*
X0090663Y0089303D02*
X0087722Y0089303D01*
X0087722Y0089902D02*
X0090663Y0089902D01*
X0092703Y0089303D02*
X0093303Y0089303D01*
X0093303Y0088705D02*
X0092703Y0088705D01*
X0092703Y0088106D02*
X0093303Y0088106D01*
X0093303Y0091099D02*
X0092703Y0091099D01*
X0092703Y0091697D02*
X0093303Y0091697D01*
X0093303Y0092296D02*
X0092703Y0092296D01*
X0092703Y0092894D02*
X0093303Y0092894D01*
X0092131Y0093493D02*
X0098928Y0093493D01*
X0099087Y0092894D02*
X0094747Y0092894D01*
X0095280Y0092296D02*
X0099087Y0092296D01*
X0099087Y0091697D02*
X0095343Y0091697D01*
X0096496Y0094091D02*
X0098330Y0094091D01*
X0098284Y0094690D02*
X0097094Y0094690D01*
X0097171Y0095288D02*
X0098284Y0095288D01*
X0098376Y0095887D02*
X0097171Y0095887D01*
X0097111Y0096486D02*
X0098974Y0096486D01*
X0100487Y0097683D02*
X0092183Y0097683D01*
X0092183Y0098281D02*
X0100253Y0098281D01*
X0100253Y0098880D02*
X0092183Y0098880D01*
X0092183Y0099478D02*
X0100253Y0099478D01*
X0100555Y0100077D02*
X0092183Y0100077D01*
X0092183Y0100675D02*
X0100555Y0100675D01*
X0100555Y0101274D02*
X0092183Y0101274D01*
X0092183Y0101872D02*
X0100555Y0101872D01*
X0100555Y0102471D02*
X0092183Y0102471D01*
X0092183Y0103069D02*
X0100555Y0103069D01*
X0100555Y0103668D02*
X0096725Y0103668D01*
X0097044Y0104266D02*
X0100555Y0104266D01*
X0100555Y0104865D02*
X0097056Y0104865D01*
X0097056Y0105463D02*
X0098596Y0105463D01*
X0098206Y0106062D02*
X0095065Y0106062D01*
X0095065Y0105463D02*
X0094484Y0105463D01*
X0094484Y0104865D02*
X0095065Y0104865D01*
X0095065Y0104266D02*
X0094484Y0104266D01*
X0094484Y0103668D02*
X0095065Y0103668D01*
X0092825Y0103668D02*
X0092505Y0103668D01*
X0088783Y0103668D02*
X0086329Y0103668D01*
X0085835Y0103069D02*
X0088783Y0103069D01*
X0088783Y0102471D02*
X0085236Y0102471D01*
X0084638Y0101872D02*
X0088783Y0101872D01*
X0088783Y0101274D02*
X0084039Y0101274D01*
X0083441Y0100675D02*
X0088783Y0100675D01*
X0088783Y0100077D02*
X0082842Y0100077D01*
X0082244Y0099478D02*
X0088783Y0099478D01*
X0088783Y0098880D02*
X0084749Y0098880D01*
X0085197Y0098281D02*
X0087182Y0098281D01*
X0087182Y0097683D02*
X0085245Y0097683D01*
X0085245Y0097084D02*
X0087182Y0097084D01*
X0087182Y0096486D02*
X0085245Y0096486D01*
X0085245Y0095288D02*
X0087182Y0095288D01*
X0087182Y0094690D02*
X0085245Y0094690D01*
X0085245Y0094091D02*
X0087182Y0094091D01*
X0087182Y0093493D02*
X0085245Y0093493D01*
X0085193Y0092894D02*
X0087182Y0092894D01*
X0084720Y0092296D02*
X0090726Y0092296D01*
X0087182Y0095887D02*
X0082870Y0095887D01*
X0082870Y0096486D02*
X0082270Y0096486D01*
X0082270Y0097084D02*
X0082870Y0097084D01*
X0082870Y0097683D02*
X0082270Y0097683D01*
X0082270Y0098281D02*
X0082870Y0098281D01*
X0082870Y0098880D02*
X0082270Y0098880D01*
X0079895Y0097084D02*
X0079849Y0097084D01*
X0079895Y0096486D02*
X0079251Y0096486D01*
X0079061Y0095887D02*
X0082270Y0095887D01*
X0082270Y0095288D02*
X0082870Y0095288D01*
X0082870Y0094690D02*
X0082270Y0094690D01*
X0082270Y0094091D02*
X0082870Y0094091D01*
X0082870Y0093493D02*
X0082270Y0093493D01*
X0082270Y0092894D02*
X0082870Y0092894D01*
X0082870Y0092296D02*
X0082270Y0092296D01*
X0079895Y0093493D02*
X0073725Y0093493D01*
X0072975Y0094091D02*
X0071708Y0094091D01*
X0071856Y0094239D02*
X0071856Y0098134D01*
X0071335Y0098655D01*
X0071777Y0099097D01*
X0071777Y0100756D01*
X0071341Y0101192D01*
X0071919Y0101192D01*
X0072205Y0101478D01*
X0072241Y0101417D01*
X0072446Y0101212D01*
X0072697Y0101067D01*
X0072976Y0100992D01*
X0074012Y0100992D01*
X0074012Y0103180D01*
X0072446Y0103180D01*
X0072446Y0103761D01*
X0074012Y0103761D01*
X0074012Y0105948D01*
X0072976Y0105948D01*
X0072697Y0105873D01*
X0072446Y0105728D01*
X0072431Y0105714D01*
X0072431Y0111526D01*
X0071167Y0112791D01*
X0071167Y0115024D01*
X0070640Y0115551D01*
X0067532Y0115551D01*
X0067005Y0115024D01*
X0067005Y0111326D01*
X0067380Y0110950D01*
X0067005Y0110575D01*
X0067005Y0106877D01*
X0067532Y0106350D01*
X0070031Y0106350D01*
X0070031Y0105748D01*
X0068811Y0105748D01*
X0068284Y0105221D01*
X0068284Y0101719D01*
X0068375Y0101629D01*
X0068375Y0101359D01*
X0067772Y0100756D01*
X0067772Y0099097D01*
X0068208Y0098661D01*
X0067827Y0098661D01*
X0067300Y0098134D01*
X0067300Y0094239D01*
X0067827Y0093712D01*
X0071329Y0093712D01*
X0071856Y0094239D01*
X0071856Y0094690D02*
X0072377Y0094690D01*
X0071906Y0095288D02*
X0071856Y0095288D01*
X0071856Y0095887D02*
X0071906Y0095887D01*
X0071906Y0096486D02*
X0071856Y0096486D01*
X0071856Y0097084D02*
X0072171Y0097084D01*
X0071856Y0097683D02*
X0072770Y0097683D01*
X0071709Y0098281D02*
X0074503Y0098281D01*
X0075101Y0098880D02*
X0071559Y0098880D01*
X0071777Y0099478D02*
X0075700Y0099478D01*
X0076298Y0100077D02*
X0071777Y0100077D01*
X0071777Y0100675D02*
X0076897Y0100675D01*
X0077495Y0101274D02*
X0076220Y0101274D01*
X0076159Y0101212D02*
X0076364Y0101417D01*
X0076508Y0101668D01*
X0076583Y0101947D01*
X0076583Y0103180D01*
X0074593Y0103180D01*
X0074593Y0103761D01*
X0074012Y0103761D01*
X0074012Y0103180D01*
X0074593Y0103180D01*
X0074593Y0100992D01*
X0075628Y0100992D01*
X0075908Y0101067D01*
X0076159Y0101212D01*
X0076563Y0101872D02*
X0078094Y0101872D01*
X0078692Y0102471D02*
X0076583Y0102471D01*
X0076583Y0103069D02*
X0079291Y0103069D01*
X0079889Y0103668D02*
X0074593Y0103668D01*
X0074593Y0103761D02*
X0076583Y0103761D01*
X0076583Y0104993D01*
X0076508Y0105273D01*
X0076364Y0105523D01*
X0076159Y0105728D01*
X0075908Y0105873D01*
X0075628Y0105948D01*
X0074593Y0105948D01*
X0074593Y0103761D01*
X0074593Y0104266D02*
X0074012Y0104266D01*
X0074012Y0103668D02*
X0072446Y0103668D01*
X0072452Y0103470D02*
X0073869Y0103470D01*
X0074012Y0103069D02*
X0074593Y0103069D01*
X0074593Y0102471D02*
X0074012Y0102471D01*
X0074012Y0101872D02*
X0074593Y0101872D01*
X0074593Y0101274D02*
X0074012Y0101274D01*
X0072384Y0101274D02*
X0072001Y0101274D01*
X0072452Y0103470D02*
X0072452Y0107132D01*
X0072431Y0107259D02*
X0073301Y0107259D01*
X0073301Y0107105D02*
X0073301Y0108435D01*
X0075291Y0108435D01*
X0075291Y0106150D01*
X0074256Y0106150D01*
X0073976Y0106225D01*
X0073725Y0106369D01*
X0073521Y0106574D01*
X0073376Y0106825D01*
X0073301Y0107105D01*
X0073471Y0106660D02*
X0072431Y0106660D01*
X0072431Y0106062D02*
X0081961Y0106062D01*
X0081961Y0106660D02*
X0077693Y0106660D01*
X0077863Y0107259D02*
X0081961Y0107259D01*
X0081961Y0107857D02*
X0077863Y0107857D01*
X0077863Y0109054D02*
X0081961Y0109054D01*
X0081961Y0108456D02*
X0075873Y0108456D01*
X0075291Y0108456D02*
X0072431Y0108456D01*
X0072431Y0109054D02*
X0073301Y0109054D01*
X0073301Y0109653D02*
X0072431Y0109653D01*
X0072431Y0110251D02*
X0073301Y0110251D01*
X0073504Y0110850D02*
X0072431Y0110850D01*
X0072431Y0111448D02*
X0073501Y0111448D01*
X0073501Y0112047D02*
X0071911Y0112047D01*
X0071312Y0112645D02*
X0073501Y0112645D01*
X0073501Y0113244D02*
X0071167Y0113244D01*
X0071167Y0113842D02*
X0072469Y0113842D01*
X0071871Y0114441D02*
X0071167Y0114441D01*
X0071152Y0115039D02*
X0071272Y0115039D01*
X0070674Y0115638D02*
X0064348Y0115638D01*
X0064085Y0115039D02*
X0067020Y0115039D01*
X0067005Y0114441D02*
X0064085Y0114441D01*
X0064085Y0113842D02*
X0067005Y0113842D01*
X0067005Y0113244D02*
X0064085Y0113244D01*
X0064085Y0112645D02*
X0067005Y0112645D01*
X0067005Y0112047D02*
X0064085Y0112047D01*
X0064085Y0111448D02*
X0067005Y0111448D01*
X0067279Y0110850D02*
X0064085Y0110850D01*
X0064085Y0110251D02*
X0067005Y0110251D01*
X0067005Y0109653D02*
X0064085Y0109653D01*
X0064085Y0109054D02*
X0067005Y0109054D01*
X0067005Y0108456D02*
X0064085Y0108456D01*
X0064085Y0107857D02*
X0067005Y0107857D01*
X0067005Y0107259D02*
X0064085Y0107259D01*
X0064085Y0106660D02*
X0067221Y0106660D01*
X0068527Y0105463D02*
X0064117Y0105463D01*
X0064085Y0106062D02*
X0070031Y0106062D01*
X0068284Y0104865D02*
X0064716Y0104865D01*
X0064887Y0104266D02*
X0068284Y0104266D01*
X0068284Y0103668D02*
X0064887Y0103668D01*
X0064887Y0103069D02*
X0068284Y0103069D01*
X0068284Y0102471D02*
X0064324Y0102471D01*
X0063725Y0101872D02*
X0068284Y0101872D01*
X0068290Y0101274D02*
X0061973Y0101274D01*
X0061973Y0100675D02*
X0067772Y0100675D01*
X0067772Y0100077D02*
X0061973Y0100077D01*
X0061775Y0099478D02*
X0067772Y0099478D01*
X0067990Y0098880D02*
X0061527Y0098880D01*
X0061279Y0098281D02*
X0062722Y0098281D01*
X0062576Y0097683D02*
X0060689Y0097683D01*
X0060091Y0097084D02*
X0062576Y0097084D01*
X0062576Y0096486D02*
X0059454Y0096486D01*
X0059454Y0095887D02*
X0062576Y0095887D01*
X0062576Y0095288D02*
X0059454Y0095288D01*
X0060060Y0094690D02*
X0062576Y0094690D01*
X0062723Y0094091D02*
X0060659Y0094091D01*
X0061257Y0093493D02*
X0062770Y0093493D01*
X0062404Y0092894D02*
X0061514Y0092894D01*
X0061762Y0092296D02*
X0062376Y0092296D01*
X0062376Y0091697D02*
X0061973Y0091697D01*
X0066938Y0093493D02*
X0067777Y0093493D01*
X0067448Y0094091D02*
X0066984Y0094091D01*
X0067131Y0094690D02*
X0067300Y0094690D01*
X0067300Y0095288D02*
X0067131Y0095288D01*
X0067131Y0095887D02*
X0067300Y0095887D01*
X0067300Y0096486D02*
X0067131Y0096486D01*
X0067131Y0097084D02*
X0067300Y0097084D01*
X0067300Y0097683D02*
X0067131Y0097683D01*
X0066985Y0098281D02*
X0067447Y0098281D01*
X0070365Y0103470D02*
X0071231Y0103470D01*
X0071231Y0111029D01*
X0069086Y0113175D01*
X0068531Y0116236D02*
X0064947Y0116236D01*
X0065545Y0116835D02*
X0068284Y0116835D01*
X0068284Y0117433D02*
X0066144Y0117433D01*
X0066742Y0118032D02*
X0068284Y0118032D01*
X0068284Y0118630D02*
X0067341Y0118630D01*
X0067939Y0119229D02*
X0068284Y0119229D01*
X0070365Y0118234D02*
X0070365Y0117643D01*
X0073043Y0114966D01*
X0073791Y0114966D01*
X0075582Y0113175D01*
X0077171Y0115638D02*
X0077732Y0115638D01*
X0077732Y0116236D02*
X0076982Y0116236D01*
X0077732Y0116265D02*
X0080332Y0116265D01*
X0080332Y0116265D01*
X0088082Y0116265D01*
X0088082Y0119218D01*
X0083161Y0119218D01*
X0083161Y0128864D01*
X0083161Y0128805D02*
X0083161Y0128805D01*
X0083161Y0128207D02*
X0083161Y0128207D01*
X0083161Y0127608D02*
X0083161Y0127608D01*
X0083161Y0127010D02*
X0083161Y0127010D01*
X0083161Y0126968D02*
X0083161Y0129568D01*
X0083161Y0126968D01*
X0083161Y0126968D01*
X0083160Y0126968D02*
X0081561Y0126968D01*
X0081561Y0125539D01*
X0078459Y0125539D01*
X0078399Y0125480D01*
X0077368Y0126511D01*
X0077368Y0129040D01*
X0077081Y0129326D01*
X0077143Y0129362D01*
X0077348Y0129566D01*
X0077493Y0129817D01*
X0077568Y0130097D01*
X0077568Y0130523D01*
X0079418Y0130523D01*
X0080363Y0129578D01*
X0082022Y0129578D01*
X0082966Y0130523D01*
X0085115Y0130523D01*
X0085115Y0129574D01*
X0085121Y0129568D01*
X0084484Y0129568D01*
X0084205Y0129493D01*
X0084145Y0129459D01*
X0084085Y0129493D01*
X0083805Y0129568D01*
X0083161Y0129568D01*
X0082516Y0129568D01*
X0082236Y0129493D01*
X0081985Y0129348D01*
X0081780Y0129144D01*
X0081636Y0128893D01*
X0081561Y0128613D01*
X0081561Y0126968D01*
X0083160Y0126968D01*
X0083160Y0126968D01*
X0081561Y0127010D02*
X0077368Y0127010D01*
X0077368Y0127608D02*
X0081561Y0127608D01*
X0081561Y0128207D02*
X0077368Y0128207D01*
X0077368Y0128805D02*
X0081612Y0128805D01*
X0082081Y0129404D02*
X0077185Y0129404D01*
X0077542Y0130002D02*
X0079939Y0130002D01*
X0078830Y0130242D02*
X0078830Y0132092D01*
X0080365Y0133628D01*
X0085877Y0133628D01*
X0086226Y0133391D02*
X0087804Y0133391D01*
X0088475Y0133391D01*
X0086226Y0133391D01*
X0086226Y0133391D01*
X0088475Y0133391D02*
X0088475Y0133391D01*
X0088476Y0133391D02*
X0088476Y0133391D01*
X0090560Y0133391D01*
X0090560Y0132656D01*
X0090485Y0132376D01*
X0090340Y0132125D01*
X0090135Y0131921D01*
X0089884Y0131776D01*
X0089605Y0131701D01*
X0089080Y0131701D01*
X0089080Y0129574D01*
X0089075Y0129568D01*
X0089711Y0129568D01*
X0089991Y0129493D01*
X0090050Y0129459D01*
X0090110Y0129493D01*
X0090390Y0129568D01*
X0091035Y0129568D01*
X0091035Y0126968D01*
X0091035Y0125518D01*
X0091035Y0125518D01*
X0091035Y0126968D01*
X0091035Y0126968D01*
X0091035Y0126968D01*
X0091035Y0129568D01*
X0091679Y0129568D01*
X0091959Y0129493D01*
X0092176Y0129368D01*
X0093876Y0129368D01*
X0094361Y0128883D01*
X0099836Y0128883D01*
X0100638Y0129685D01*
X0102297Y0129685D01*
X0103470Y0128512D01*
X0103470Y0127165D01*
X0103872Y0127165D01*
X0105045Y0125992D01*
X0105045Y0124606D01*
X0105840Y0124606D01*
X0107013Y0123433D01*
X0107013Y0122087D01*
X0107809Y0122087D01*
X0108982Y0120914D01*
X0108982Y0119764D01*
X0110171Y0119764D01*
X0111344Y0118591D01*
X0111344Y0116932D01*
X0110742Y0116330D01*
X0110742Y0116138D01*
X0111226Y0115654D01*
X0111226Y0112546D01*
X0110940Y0112260D01*
X0111001Y0112224D01*
X0111206Y0112020D01*
X0111351Y0111769D01*
X0111404Y0111571D01*
X0111404Y0130523D01*
X0107207Y0130523D01*
X0107407Y0130323D01*
X0107407Y0128664D01*
X0106234Y0127491D01*
X0104575Y0127491D01*
X0103402Y0128664D01*
X0103402Y0130323D01*
X0103602Y0130523D01*
X0091843Y0130523D01*
X0091316Y0131050D01*
X0091316Y0134054D01*
X0090560Y0134054D01*
X0090560Y0133391D01*
X0088476Y0133391D01*
X0089922Y0131798D02*
X0091316Y0131798D01*
X0091316Y0132396D02*
X0090490Y0132396D01*
X0090560Y0132995D02*
X0091316Y0132995D01*
X0091316Y0133593D02*
X0090560Y0133593D01*
X0091316Y0131199D02*
X0089080Y0131199D01*
X0089066Y0131029D02*
X0089066Y0126968D01*
X0089066Y0120793D01*
X0092019Y0120793D01*
X0092694Y0119518D02*
X0092694Y0118918D01*
X0088382Y0118918D01*
X0088382Y0114606D01*
X0087782Y0114606D01*
X0087782Y0118918D01*
X0088382Y0118918D01*
X0088382Y0119518D01*
X0092694Y0119518D01*
X0092694Y0119229D02*
X0088382Y0119229D01*
X0088382Y0119518D02*
X0088382Y0123830D01*
X0087782Y0123830D01*
X0087782Y0119518D01*
X0083470Y0119518D01*
X0083470Y0118918D01*
X0087782Y0118918D01*
X0087782Y0119518D01*
X0088382Y0119518D01*
X0088382Y0119827D02*
X0087782Y0119827D01*
X0087782Y0119229D02*
X0083470Y0119229D01*
X0085129Y0119218D02*
X0088082Y0119218D01*
X0089066Y0119218D01*
X0089066Y0126968D01*
X0091035Y0127010D02*
X0091035Y0127010D01*
X0091035Y0127608D02*
X0091035Y0127608D01*
X0091035Y0128207D02*
X0091035Y0128207D01*
X0091035Y0128805D02*
X0091035Y0128805D01*
X0091035Y0129404D02*
X0091035Y0129404D01*
X0092114Y0129404D02*
X0100357Y0129404D01*
X0101468Y0127683D02*
X0093003Y0127683D01*
X0093003Y0126968D01*
X0091035Y0126411D02*
X0091035Y0126411D01*
X0091035Y0126265D02*
X0091035Y0119218D01*
X0088082Y0119218D01*
X0088082Y0114415D01*
X0095326Y0114415D01*
X0095832Y0114297D02*
X0095832Y0114297D01*
X0095832Y0112697D01*
X0095832Y0114297D01*
X0095832Y0113842D02*
X0095832Y0113842D01*
X0095832Y0113244D02*
X0095832Y0113244D01*
X0094403Y0112645D02*
X0098500Y0112645D01*
X0101468Y0114887D02*
X0099893Y0116265D01*
X0095832Y0116265D01*
X0095832Y0118234D02*
X0105405Y0118234D01*
X0105877Y0117761D01*
X0109342Y0117761D01*
X0110706Y0119229D02*
X0111404Y0119229D01*
X0111404Y0119827D02*
X0108982Y0119827D01*
X0108982Y0120426D02*
X0111404Y0120426D01*
X0111404Y0121024D02*
X0108871Y0121024D01*
X0108273Y0121623D02*
X0111404Y0121623D01*
X0111404Y0122221D02*
X0107013Y0122221D01*
X0107013Y0122820D02*
X0111404Y0122820D01*
X0111404Y0123419D02*
X0107013Y0123419D01*
X0106430Y0124017D02*
X0111404Y0124017D01*
X0111404Y0124616D02*
X0105045Y0124616D01*
X0105045Y0125214D02*
X0111404Y0125214D01*
X0111404Y0125813D02*
X0105045Y0125813D01*
X0104626Y0126411D02*
X0111404Y0126411D01*
X0111404Y0127010D02*
X0104028Y0127010D01*
X0104459Y0127608D02*
X0103470Y0127608D01*
X0103470Y0128207D02*
X0103860Y0128207D01*
X0103402Y0128805D02*
X0103177Y0128805D01*
X0103402Y0129404D02*
X0102579Y0129404D01*
X0103402Y0130002D02*
X0089080Y0130002D01*
X0089080Y0130601D02*
X0091765Y0130601D01*
X0090444Y0131029D02*
X0089066Y0131029D01*
X0085129Y0130517D02*
X0085129Y0126968D01*
X0085129Y0119218D01*
X0087782Y0118630D02*
X0088382Y0118630D01*
X0088382Y0118032D02*
X0087782Y0118032D01*
X0087782Y0117433D02*
X0088382Y0117433D01*
X0088382Y0116835D02*
X0087782Y0116835D01*
X0087782Y0116236D02*
X0088382Y0116236D01*
X0088382Y0115638D02*
X0087782Y0115638D01*
X0087782Y0115039D02*
X0088382Y0115039D01*
X0085129Y0111468D02*
X0085129Y0104061D01*
X0077058Y0095990D01*
X0075526Y0094690D02*
X0075441Y0094690D01*
X0074842Y0094091D02*
X0076125Y0094091D01*
X0077992Y0094091D02*
X0079895Y0094091D01*
X0079895Y0094690D02*
X0078590Y0094690D01*
X0079061Y0095288D02*
X0079895Y0095288D01*
X0084091Y0090500D02*
X0074401Y0090500D01*
X0074730Y0091099D02*
X0084690Y0091099D01*
X0083717Y0089902D02*
X0073802Y0089902D01*
X0071856Y0089303D02*
X0080138Y0089303D01*
X0079540Y0088705D02*
X0071440Y0088705D01*
X0070779Y0085712D02*
X0075463Y0085712D01*
X0074865Y0085114D02*
X0071378Y0085114D01*
X0071675Y0084515D02*
X0074568Y0084515D01*
X0074568Y0083917D02*
X0071675Y0083917D01*
X0071675Y0083318D02*
X0074568Y0083318D01*
X0074601Y0082720D02*
X0071641Y0082720D01*
X0071043Y0082121D02*
X0075200Y0082121D01*
X0075798Y0081523D02*
X0070584Y0081523D01*
X0070584Y0080924D02*
X0077939Y0080924D01*
X0078538Y0080326D02*
X0070584Y0080326D01*
X0070584Y0079727D02*
X0079136Y0079727D01*
X0079735Y0079129D02*
X0070584Y0079129D01*
X0070584Y0078530D02*
X0080333Y0078530D01*
X0080932Y0077932D02*
X0070584Y0077932D01*
X0070584Y0077333D02*
X0081530Y0077333D01*
X0082129Y0076735D02*
X0070584Y0076735D01*
X0070584Y0076136D02*
X0082727Y0076136D01*
X0083326Y0075538D02*
X0070584Y0075538D01*
X0070584Y0074939D02*
X0083924Y0074939D01*
X0084523Y0074341D02*
X0070584Y0074341D01*
X0070584Y0073742D02*
X0073371Y0073742D01*
X0073422Y0073831D02*
X0073277Y0073580D01*
X0073202Y0073300D01*
X0073202Y0071880D01*
X0076365Y0071880D01*
X0076365Y0071280D01*
X0076965Y0071280D01*
X0076965Y0071880D01*
X0082861Y0071880D01*
X0082861Y0071280D01*
X0083461Y0071280D01*
X0083461Y0071880D01*
X0082861Y0071880D01*
X0082861Y0074255D01*
X0080654Y0074255D01*
X0080374Y0074180D01*
X0080123Y0074035D01*
X0079918Y0073831D01*
X0079913Y0073821D01*
X0079907Y0073831D01*
X0079702Y0074035D01*
X0079451Y0074180D01*
X0079172Y0074255D01*
X0076965Y0074255D01*
X0076965Y0071880D01*
X0076365Y0071880D01*
X0076365Y0074255D01*
X0074158Y0074255D01*
X0073878Y0074180D01*
X0073627Y0074035D01*
X0073422Y0073831D01*
X0073202Y0073144D02*
X0070584Y0073144D01*
X0070584Y0072545D02*
X0073202Y0072545D01*
X0073202Y0071947D02*
X0072307Y0071947D01*
X0072756Y0071348D02*
X0076365Y0071348D01*
X0076365Y0071280D02*
X0073202Y0071280D01*
X0073202Y0069861D01*
X0073277Y0069581D01*
X0073422Y0069330D01*
X0073627Y0069125D01*
X0073878Y0068981D01*
X0074158Y0068906D01*
X0076365Y0068906D01*
X0076365Y0071280D01*
X0076365Y0070750D02*
X0076965Y0070750D01*
X0076965Y0071280D02*
X0076965Y0068906D01*
X0079172Y0068906D01*
X0079451Y0068981D01*
X0079702Y0069125D01*
X0079907Y0069330D01*
X0079913Y0069340D01*
X0079918Y0069330D01*
X0080123Y0069125D01*
X0080374Y0068981D01*
X0080654Y0068906D01*
X0082861Y0068906D01*
X0082861Y0071280D01*
X0079698Y0071280D01*
X0076965Y0071280D01*
X0076965Y0071348D02*
X0082861Y0071348D01*
X0082861Y0070750D02*
X0083461Y0070750D01*
X0083461Y0071280D02*
X0083461Y0068906D01*
X0085668Y0068906D01*
X0085947Y0068981D01*
X0086198Y0069125D01*
X0086403Y0069330D01*
X0086409Y0069340D01*
X0086414Y0069330D01*
X0086619Y0069125D01*
X0086870Y0068981D01*
X0087150Y0068906D01*
X0089357Y0068906D01*
X0089357Y0071280D01*
X0086623Y0071280D01*
X0083461Y0071280D01*
X0083461Y0071348D02*
X0089357Y0071348D01*
X0089357Y0070750D02*
X0089957Y0070750D01*
X0089957Y0071280D02*
X0089957Y0068906D01*
X0092164Y0068906D01*
X0092443Y0068981D01*
X0092694Y0069125D01*
X0092899Y0069330D01*
X0093044Y0069581D01*
X0093119Y0069861D01*
X0093119Y0071280D01*
X0089957Y0071280D01*
X0089957Y0071348D02*
X0094183Y0071348D01*
X0094466Y0070750D02*
X0093119Y0070750D01*
X0093119Y0070151D02*
X0094466Y0070151D01*
X0094466Y0069552D02*
X0093027Y0069552D01*
X0092344Y0068954D02*
X0094466Y0068954D01*
X0094466Y0068355D02*
X0072803Y0068355D01*
X0072803Y0068954D02*
X0073977Y0068954D01*
X0073294Y0069552D02*
X0072803Y0069552D01*
X0072803Y0070151D02*
X0073202Y0070151D01*
X0073202Y0070750D02*
X0072803Y0070750D01*
X0071154Y0070750D02*
X0071153Y0070750D01*
X0071153Y0071348D02*
X0071154Y0071348D01*
X0071153Y0071947D02*
X0071154Y0071947D01*
X0071153Y0070151D02*
X0071154Y0070151D01*
X0072704Y0067757D02*
X0094419Y0067757D01*
X0094419Y0067158D02*
X0072650Y0067158D01*
X0072650Y0066560D02*
X0073521Y0066560D01*
X0076365Y0068954D02*
X0076965Y0068954D01*
X0076965Y0069552D02*
X0076365Y0069552D01*
X0076365Y0070151D02*
X0076965Y0070151D01*
X0076965Y0071947D02*
X0076365Y0071947D01*
X0076365Y0072545D02*
X0076965Y0072545D01*
X0076965Y0073144D02*
X0076365Y0073144D01*
X0076365Y0073742D02*
X0076965Y0073742D01*
X0079352Y0068954D02*
X0080473Y0068954D01*
X0080017Y0066560D02*
X0079808Y0066560D01*
X0082861Y0068954D02*
X0083461Y0068954D01*
X0083461Y0069552D02*
X0082861Y0069552D01*
X0082861Y0070151D02*
X0083461Y0070151D01*
X0083461Y0071947D02*
X0082861Y0071947D01*
X0082861Y0072545D02*
X0083461Y0072545D01*
X0083461Y0073144D02*
X0082861Y0073144D01*
X0082861Y0073742D02*
X0083461Y0073742D01*
X0086089Y0076735D02*
X0090003Y0076735D01*
X0089404Y0077333D02*
X0085490Y0077333D01*
X0084892Y0077932D02*
X0088806Y0077932D01*
X0088207Y0078530D02*
X0084293Y0078530D01*
X0083695Y0079129D02*
X0087609Y0079129D01*
X0087010Y0079727D02*
X0083096Y0079727D01*
X0082498Y0080326D02*
X0086412Y0080326D01*
X0085813Y0080924D02*
X0081899Y0080924D01*
X0081301Y0081523D02*
X0083672Y0081523D01*
X0083074Y0082121D02*
X0080702Y0082121D01*
X0080104Y0082720D02*
X0082475Y0082720D01*
X0082442Y0083318D02*
X0079549Y0083318D01*
X0079549Y0083917D02*
X0082442Y0083917D01*
X0082442Y0084515D02*
X0079549Y0084515D01*
X0079252Y0085114D02*
X0082739Y0085114D01*
X0082211Y0085712D02*
X0083337Y0085712D01*
X0082998Y0087508D02*
X0084677Y0087508D01*
X0084078Y0088106D02*
X0082998Y0088106D01*
X0082451Y0088705D02*
X0083717Y0088705D01*
X0083717Y0089303D02*
X0081852Y0089303D01*
X0079780Y0085712D02*
X0078653Y0085712D01*
X0086762Y0087508D02*
X0111404Y0087508D01*
X0111404Y0088106D02*
X0104030Y0088106D01*
X0104198Y0088705D02*
X0111404Y0088705D01*
X0111404Y0089303D02*
X0104198Y0089303D01*
X0104198Y0089902D02*
X0111404Y0089902D01*
X0111404Y0090500D02*
X0104198Y0090500D01*
X0104198Y0091099D02*
X0111404Y0091099D01*
X0111404Y0091697D02*
X0104198Y0091697D01*
X0104190Y0092296D02*
X0111404Y0092296D01*
X0111404Y0092894D02*
X0101487Y0092894D01*
X0101645Y0093493D02*
X0111404Y0093493D01*
X0111404Y0094091D02*
X0102244Y0094091D01*
X0102289Y0094690D02*
X0111404Y0094690D01*
X0111404Y0095288D02*
X0102289Y0095288D01*
X0102198Y0095887D02*
X0111404Y0095887D01*
X0111404Y0096486D02*
X0101599Y0096486D01*
X0101085Y0097084D02*
X0096512Y0097084D01*
X0100287Y0094966D02*
X0100287Y0092053D01*
X0102058Y0090281D01*
X0102275Y0085712D02*
X0105915Y0085712D01*
X0105864Y0085114D02*
X0102874Y0085114D01*
X0103171Y0084515D02*
X0105864Y0084515D01*
X0105864Y0083917D02*
X0103171Y0083917D01*
X0103171Y0083318D02*
X0105864Y0083318D01*
X0105864Y0082720D02*
X0103137Y0082720D01*
X0102539Y0082121D02*
X0105864Y0082121D01*
X0106081Y0081523D02*
X0101940Y0081523D01*
X0108554Y0081523D02*
X0108554Y0081523D01*
X0108554Y0082121D02*
X0108554Y0082121D01*
X0108554Y0082720D02*
X0108554Y0082720D01*
X0108554Y0083318D02*
X0108554Y0083318D01*
X0108421Y0075538D02*
X0107821Y0075538D01*
X0107767Y0075538D02*
X0111310Y0075538D01*
X0111310Y0074939D02*
X0107767Y0074939D01*
X0107821Y0074939D02*
X0108421Y0074939D01*
X0108421Y0074341D02*
X0107821Y0074341D01*
X0107767Y0074341D02*
X0111310Y0074341D01*
X0111310Y0073742D02*
X0107767Y0073742D01*
X0107821Y0073742D02*
X0108421Y0073742D01*
X0108421Y0073144D02*
X0107821Y0073144D01*
X0107767Y0073144D02*
X0111310Y0073144D01*
X0111310Y0072545D02*
X0107767Y0072545D01*
X0107821Y0072545D02*
X0108421Y0072545D01*
X0108421Y0071947D02*
X0107821Y0071947D01*
X0107821Y0071348D02*
X0103425Y0071348D01*
X0103436Y0071348D02*
X0111310Y0071348D01*
X0111310Y0071947D02*
X0103436Y0071947D01*
X0103478Y0071947D02*
X0102976Y0071947D01*
X0107821Y0070887D02*
X0107821Y0064636D01*
X0108421Y0064636D01*
X0108421Y0068980D01*
X0108421Y0070887D01*
X0107821Y0070887D01*
X0107821Y0070750D02*
X0108421Y0070750D01*
X0108421Y0070151D02*
X0107821Y0070151D01*
X0107821Y0069552D02*
X0108421Y0069552D01*
X0108421Y0068954D02*
X0107821Y0068954D01*
X0107821Y0068355D02*
X0108421Y0068355D01*
X0108421Y0067757D02*
X0107821Y0067757D01*
X0107821Y0067158D02*
X0108421Y0067158D01*
X0108421Y0066560D02*
X0107821Y0066560D01*
X0107821Y0065961D02*
X0108421Y0065961D01*
X0108421Y0065363D02*
X0107821Y0065363D01*
X0107821Y0064764D02*
X0108421Y0064764D01*
X0107821Y0064166D02*
X0103319Y0064166D01*
X0103319Y0064764D02*
X0103478Y0064764D01*
X0103478Y0065363D02*
X0103319Y0065363D01*
X0094419Y0066560D02*
X0092800Y0066560D01*
X0089957Y0068954D02*
X0089357Y0068954D01*
X0089357Y0069552D02*
X0089957Y0069552D01*
X0089957Y0070151D02*
X0089357Y0070151D01*
X0086969Y0068954D02*
X0085848Y0068954D01*
X0086304Y0066560D02*
X0086513Y0066560D01*
X0093119Y0071947D02*
X0093639Y0071947D01*
X0093639Y0072545D02*
X0093119Y0072545D01*
X0093119Y0073144D02*
X0093639Y0073144D01*
X0073909Y0095990D02*
X0083161Y0105242D01*
X0083161Y0111468D01*
X0081761Y0111448D02*
X0077663Y0111448D01*
X0077659Y0110850D02*
X0081761Y0110850D01*
X0081761Y0110251D02*
X0077863Y0110251D01*
X0077863Y0109653D02*
X0081761Y0109653D01*
X0081761Y0112047D02*
X0077663Y0112047D01*
X0077663Y0112645D02*
X0081761Y0112645D01*
X0078112Y0113244D02*
X0077663Y0113244D01*
X0077663Y0113842D02*
X0077932Y0113842D01*
X0077932Y0114441D02*
X0077663Y0114441D01*
X0077648Y0115039D02*
X0077932Y0115039D01*
X0077732Y0116265D02*
X0080332Y0116265D01*
X0080332Y0118234D02*
X0074302Y0118234D01*
X0076383Y0116835D02*
X0077732Y0116835D01*
X0077649Y0120202D02*
X0075877Y0121974D01*
X0068987Y0121974D01*
X0062885Y0115872D01*
X0062885Y0103864D01*
X0062045Y0101872D02*
X0061938Y0101872D01*
X0072431Y0107857D02*
X0073301Y0107857D01*
X0075291Y0107857D02*
X0075872Y0107857D01*
X0075872Y0107259D02*
X0075291Y0107259D01*
X0075291Y0106660D02*
X0075872Y0106660D01*
X0076398Y0105463D02*
X0081685Y0105463D01*
X0081086Y0104865D02*
X0076583Y0104865D01*
X0076583Y0104266D02*
X0080488Y0104266D01*
X0074593Y0104865D02*
X0074012Y0104865D01*
X0074012Y0105463D02*
X0074593Y0105463D01*
X0071730Y0093493D02*
X0071379Y0093493D01*
X0067589Y0085712D02*
X0062905Y0085712D01*
X0063504Y0085114D02*
X0066991Y0085114D01*
X0066694Y0084515D02*
X0063801Y0084515D01*
X0063801Y0083917D02*
X0066694Y0083917D01*
X0066694Y0083318D02*
X0063801Y0083318D01*
X0064355Y0082720D02*
X0066727Y0082720D01*
X0067326Y0082121D02*
X0064954Y0082121D01*
X0065552Y0081523D02*
X0067784Y0081523D01*
X0067784Y0080924D02*
X0066151Y0080924D01*
X0066750Y0080326D02*
X0067784Y0080326D01*
X0067784Y0079727D02*
X0067348Y0079727D01*
X0063989Y0063313D02*
X0057373Y0063313D01*
X0057373Y0058982D01*
X0064347Y0058982D01*
X0064347Y0059906D01*
X0064874Y0060433D01*
X0065641Y0060433D01*
X0065641Y0062825D01*
X0064477Y0062825D01*
X0063989Y0063313D01*
X0064333Y0062969D02*
X0057373Y0062969D01*
X0057373Y0062370D02*
X0065641Y0062370D01*
X0065641Y0061772D02*
X0057373Y0061772D01*
X0057373Y0061173D02*
X0065641Y0061173D01*
X0065641Y0060575D02*
X0057373Y0060575D01*
X0057373Y0059976D02*
X0064418Y0059976D01*
X0064347Y0059378D02*
X0057373Y0059378D01*
X0103425Y0097084D02*
X0111404Y0097084D01*
X0111404Y0097683D02*
X0104024Y0097683D01*
X0104257Y0098281D02*
X0111404Y0098281D01*
X0111404Y0098880D02*
X0104257Y0098880D01*
X0104257Y0099478D02*
X0111404Y0099478D01*
X0111404Y0100077D02*
X0108488Y0100077D01*
X0108842Y0100675D02*
X0111404Y0100675D01*
X0111404Y0101274D02*
X0108867Y0101274D01*
X0108867Y0101872D02*
X0111404Y0101872D01*
X0111404Y0102471D02*
X0106876Y0102471D01*
X0106876Y0102580D02*
X0108867Y0102580D01*
X0108867Y0103812D01*
X0108792Y0104092D01*
X0108647Y0104342D01*
X0108442Y0104547D01*
X0108192Y0104692D01*
X0107912Y0104767D01*
X0106876Y0104767D01*
X0106876Y0102580D01*
X0106876Y0103069D02*
X0106295Y0103069D01*
X0106295Y0103668D02*
X0106876Y0103668D01*
X0106876Y0104266D02*
X0106295Y0104266D01*
X0107080Y0105463D02*
X0111404Y0105463D01*
X0111404Y0104865D02*
X0103955Y0104865D01*
X0104340Y0105463D02*
X0104517Y0105463D01*
X0107678Y0106062D02*
X0111404Y0106062D01*
X0111404Y0106660D02*
X0107801Y0106660D01*
X0107801Y0107259D02*
X0111404Y0107259D01*
X0111404Y0107857D02*
X0107786Y0107857D01*
X0108657Y0108456D02*
X0109239Y0108456D01*
X0109239Y0109054D02*
X0108657Y0109054D01*
X0108657Y0109653D02*
X0109239Y0109653D01*
X0108657Y0110251D02*
X0104227Y0110251D01*
X0104730Y0109653D02*
X0106470Y0109653D01*
X0106470Y0109054D02*
X0104730Y0109054D01*
X0106470Y0110850D02*
X0094403Y0110850D01*
X0094403Y0111448D02*
X0106470Y0111448D01*
X0106717Y0112047D02*
X0094403Y0112047D01*
X0095832Y0120202D02*
X0106861Y0120202D01*
X0106980Y0120084D01*
X0104578Y0122171D02*
X0105011Y0122604D01*
X0104578Y0122171D02*
X0095832Y0122171D01*
X0095832Y0124139D02*
X0096940Y0124139D01*
X0097137Y0124336D01*
X0099854Y0124336D01*
X0100680Y0125124D01*
X0103003Y0125124D01*
X0103013Y0125125D01*
X0103023Y0125129D01*
X0103031Y0125135D01*
X0103037Y0125144D01*
X0103041Y0125153D01*
X0103042Y0125163D01*
X0106351Y0127608D02*
X0111404Y0127608D01*
X0111404Y0128207D02*
X0106949Y0128207D01*
X0107407Y0128805D02*
X0111404Y0128805D01*
X0111404Y0129404D02*
X0107407Y0129404D01*
X0107407Y0130002D02*
X0111404Y0130002D01*
X0111305Y0118630D02*
X0111404Y0118630D01*
X0111404Y0118032D02*
X0111344Y0118032D01*
X0111344Y0117433D02*
X0111404Y0117433D01*
X0111404Y0116835D02*
X0111247Y0116835D01*
X0111404Y0116236D02*
X0110742Y0116236D01*
X0111226Y0115638D02*
X0111404Y0115638D01*
X0111404Y0115039D02*
X0111226Y0115039D01*
X0111226Y0114441D02*
X0111404Y0114441D01*
X0111404Y0113842D02*
X0111226Y0113842D01*
X0111226Y0113244D02*
X0111404Y0113244D01*
X0111404Y0112645D02*
X0111226Y0112645D01*
X0111179Y0112047D02*
X0111404Y0112047D01*
X0111404Y0108456D02*
X0111292Y0108456D01*
X0111404Y0104266D02*
X0108691Y0104266D01*
X0108867Y0103668D02*
X0111404Y0103668D01*
X0111404Y0103069D02*
X0108867Y0103069D01*
X0106876Y0101872D02*
X0106295Y0101872D01*
X0106295Y0101274D02*
X0106876Y0101274D01*
X0106876Y0100675D02*
X0106295Y0100675D01*
X0106295Y0100077D02*
X0106876Y0100077D01*
X0104684Y0100077D02*
X0104268Y0100077D01*
X0104435Y0112645D02*
X0106670Y0112645D01*
X0106670Y0113244D02*
X0104730Y0113244D01*
X0104730Y0113842D02*
X0104799Y0113842D01*
X0091035Y0125813D02*
X0091035Y0125813D01*
X0088382Y0123419D02*
X0087782Y0123419D01*
X0087782Y0122820D02*
X0088382Y0122820D01*
X0088382Y0122221D02*
X0087782Y0122221D01*
X0087782Y0121623D02*
X0088382Y0121623D01*
X0088382Y0121024D02*
X0087782Y0121024D01*
X0087782Y0120426D02*
X0088382Y0120426D01*
X0081561Y0125813D02*
X0078066Y0125813D01*
X0077468Y0126411D02*
X0081561Y0126411D01*
X0083161Y0129404D02*
X0083161Y0129404D01*
X0082446Y0130002D02*
X0085115Y0130002D01*
X0085129Y0130517D02*
X0083161Y0130517D01*
X0080332Y0124139D02*
X0078043Y0124139D01*
X0075287Y0126895D01*
X0075090Y0127486D01*
X0073098Y0129326D02*
X0072812Y0129040D01*
X0072812Y0126343D01*
X0072250Y0126905D01*
X0072250Y0129040D01*
X0071963Y0129326D01*
X0072025Y0129362D01*
X0072230Y0129566D01*
X0072375Y0129817D01*
X0072450Y0130097D01*
X0072450Y0131132D01*
X0070262Y0131132D01*
X0070262Y0131713D01*
X0072450Y0131713D01*
X0072450Y0132749D01*
X0072375Y0133029D01*
X0072230Y0133279D01*
X0072025Y0133484D01*
X0071774Y0133629D01*
X0071494Y0133704D01*
X0070262Y0133704D01*
X0070262Y0131714D01*
X0069681Y0131714D01*
X0069681Y0133704D01*
X0068449Y0133704D01*
X0068169Y0133629D01*
X0067918Y0133484D01*
X0067713Y0133279D01*
X0067569Y0133029D01*
X0067494Y0132749D01*
X0067494Y0131713D01*
X0069681Y0131713D01*
X0069681Y0131132D01*
X0067494Y0131132D01*
X0067494Y0130097D01*
X0067569Y0129817D01*
X0067713Y0129566D01*
X0067918Y0129362D01*
X0067980Y0129326D01*
X0067694Y0129040D01*
X0067694Y0128462D01*
X0067061Y0129095D01*
X0065402Y0129095D01*
X0064229Y0127922D01*
X0064229Y0126263D01*
X0065211Y0125281D01*
X0064898Y0124969D01*
X0064898Y0123310D01*
X0066071Y0122137D01*
X0066985Y0122137D01*
X0066985Y0121669D01*
X0061685Y0116369D01*
X0061685Y0112482D01*
X0061273Y0113477D01*
X0059979Y0114771D01*
X0059454Y0114989D01*
X0059454Y0116755D01*
X0059979Y0116972D01*
X0061273Y0118266D01*
X0061973Y0119957D01*
X0061973Y0121787D01*
X0061273Y0123477D01*
X0059979Y0124771D01*
X0058288Y0125472D01*
X0057486Y0125472D01*
X0057486Y0137816D01*
X0062491Y0137816D01*
X0062491Y0121187D01*
X0061973Y0121187D01*
X0061973Y0121787D01*
X0061273Y0123477D01*
X0059979Y0124771D01*
X0058288Y0125472D01*
X0057486Y0125472D01*
X0057486Y0130572D01*
X0057673Y0130572D01*
X0057673Y0131172D01*
X0057486Y0131172D01*
X0057486Y0137816D01*
X0073009Y0137816D01*
X0073009Y0133456D01*
X0072832Y0133279D01*
X0072687Y0133029D01*
X0072612Y0132749D01*
X0072612Y0131713D01*
X0073009Y0131713D01*
X0073009Y0131132D01*
X0072612Y0131132D01*
X0072612Y0130097D01*
X0072687Y0129817D01*
X0072832Y0129566D01*
X0073036Y0129362D01*
X0073098Y0129326D01*
X0072994Y0129404D02*
X0072067Y0129404D01*
X0072250Y0128805D02*
X0072812Y0128805D01*
X0072812Y0128207D02*
X0072250Y0128207D01*
X0072250Y0127608D02*
X0072812Y0127608D01*
X0072812Y0127010D02*
X0072250Y0127010D01*
X0072744Y0126411D02*
X0072812Y0126411D01*
X0073515Y0123943D02*
X0069972Y0127486D01*
X0069972Y0126974D01*
X0069735Y0126974D01*
X0067694Y0128805D02*
X0067350Y0128805D01*
X0067876Y0129404D02*
X0061943Y0129404D01*
X0062055Y0129748D02*
X0061822Y0129029D01*
X0061479Y0128356D01*
X0061034Y0127745D01*
X0060500Y0127210D01*
X0059889Y0126766D01*
X0059216Y0126423D01*
X0058497Y0126190D01*
X0057751Y0126072D01*
X0057673Y0126072D01*
X0057673Y0130572D01*
X0062173Y0130572D01*
X0062173Y0130494D01*
X0062055Y0129748D01*
X0062095Y0130002D02*
X0067519Y0130002D01*
X0067494Y0130601D02*
X0057673Y0130601D01*
X0057486Y0130601D02*
X0062491Y0130601D01*
X0062491Y0131199D02*
X0057486Y0131199D01*
X0057673Y0131199D01*
X0057673Y0131172D02*
X0057673Y0135672D01*
X0057751Y0135672D01*
X0058497Y0135554D01*
X0059216Y0135320D01*
X0059889Y0134977D01*
X0060500Y0134533D01*
X0061034Y0133999D01*
X0061479Y0133387D01*
X0061822Y0132714D01*
X0062055Y0131996D01*
X0062173Y0131249D01*
X0062173Y0131172D01*
X0057673Y0131172D01*
X0057673Y0131798D02*
X0057486Y0131798D01*
X0062491Y0131798D01*
X0062086Y0131798D02*
X0067494Y0131798D01*
X0067494Y0132396D02*
X0061925Y0132396D01*
X0062491Y0132396D02*
X0057486Y0132396D01*
X0057673Y0132396D01*
X0057673Y0132995D02*
X0057486Y0132995D01*
X0062491Y0132995D01*
X0062491Y0133593D02*
X0057486Y0133593D01*
X0057673Y0133593D01*
X0057673Y0134192D02*
X0057486Y0134192D01*
X0062491Y0134192D01*
X0062491Y0134790D02*
X0057486Y0134790D01*
X0057673Y0134790D01*
X0057673Y0135389D02*
X0057486Y0135389D01*
X0062491Y0135389D01*
X0062491Y0135987D02*
X0057486Y0135987D01*
X0073009Y0135987D01*
X0073009Y0135389D02*
X0059004Y0135389D01*
X0060146Y0134790D02*
X0073009Y0134790D01*
X0073009Y0134192D02*
X0060841Y0134192D01*
X0061329Y0133593D02*
X0068107Y0133593D01*
X0067560Y0132995D02*
X0061679Y0132995D01*
X0062173Y0131199D02*
X0069681Y0131199D01*
X0070262Y0131199D02*
X0073009Y0131199D01*
X0072612Y0130601D02*
X0072450Y0130601D01*
X0072424Y0130002D02*
X0072637Y0130002D01*
X0072612Y0131798D02*
X0072450Y0131798D01*
X0072450Y0132396D02*
X0072612Y0132396D01*
X0072678Y0132995D02*
X0072384Y0132995D01*
X0071836Y0133593D02*
X0073009Y0133593D01*
X0070262Y0133593D02*
X0069681Y0133593D01*
X0069681Y0132995D02*
X0070262Y0132995D01*
X0070262Y0132396D02*
X0069681Y0132396D01*
X0069681Y0131798D02*
X0070262Y0131798D01*
X0073009Y0136586D02*
X0057486Y0136586D01*
X0062491Y0136586D01*
X0062491Y0137184D02*
X0057486Y0137184D01*
X0073009Y0137184D01*
X0073009Y0137783D02*
X0057486Y0137783D01*
X0062491Y0137783D01*
X0062491Y0130002D02*
X0057486Y0130002D01*
X0057673Y0130002D01*
X0057673Y0129404D02*
X0057486Y0129404D01*
X0062491Y0129404D01*
X0062491Y0128805D02*
X0057486Y0128805D01*
X0057673Y0128805D01*
X0057673Y0128207D02*
X0057486Y0128207D01*
X0062491Y0128207D01*
X0062491Y0127608D02*
X0057486Y0127608D01*
X0057673Y0127608D01*
X0057673Y0127010D02*
X0057486Y0127010D01*
X0062491Y0127010D01*
X0062491Y0126411D02*
X0057486Y0126411D01*
X0057673Y0126411D01*
X0057486Y0125813D02*
X0062491Y0125813D01*
X0062491Y0125214D02*
X0058910Y0125214D01*
X0065144Y0125214D01*
X0064898Y0124616D02*
X0060135Y0124616D01*
X0062491Y0124616D01*
X0062491Y0124017D02*
X0060733Y0124017D01*
X0064898Y0124017D01*
X0064898Y0123419D02*
X0061297Y0123419D01*
X0062491Y0123419D01*
X0062491Y0122820D02*
X0061545Y0122820D01*
X0065388Y0122820D01*
X0065987Y0122221D02*
X0061793Y0122221D01*
X0062491Y0122221D01*
X0062491Y0121623D02*
X0061973Y0121623D01*
X0066939Y0121623D01*
X0066341Y0121024D02*
X0061973Y0121024D01*
X0061973Y0120426D02*
X0065742Y0120426D01*
X0065144Y0119827D02*
X0061920Y0119827D01*
X0061672Y0119229D02*
X0064545Y0119229D01*
X0063947Y0118630D02*
X0061424Y0118630D01*
X0061039Y0118032D02*
X0063348Y0118032D01*
X0062750Y0117433D02*
X0060440Y0117433D01*
X0059648Y0116835D02*
X0062151Y0116835D01*
X0061685Y0116236D02*
X0059454Y0116236D01*
X0059454Y0115638D02*
X0061685Y0115638D01*
X0061685Y0115039D02*
X0059454Y0115039D01*
X0060309Y0114441D02*
X0061685Y0114441D01*
X0061685Y0113842D02*
X0060908Y0113842D01*
X0061370Y0113244D02*
X0061685Y0113244D01*
X0061685Y0112645D02*
X0061618Y0112645D01*
X0064679Y0125813D02*
X0057486Y0125813D01*
X0059178Y0126411D02*
X0064229Y0126411D01*
X0064229Y0127010D02*
X0060224Y0127010D01*
X0060898Y0127608D02*
X0064229Y0127608D01*
X0064514Y0128207D02*
X0061370Y0128207D01*
X0061707Y0128805D02*
X0065113Y0128805D01*
X0073515Y0123943D02*
X0076113Y0123943D01*
X0077885Y0122171D01*
X0080332Y0122171D01*
X0080332Y0120202D02*
X0077649Y0120202D01*
D33*
X0084145Y0120793D03*
X0084145Y0116462D03*
X0088082Y0118824D03*
X0092019Y0120793D03*
X0092019Y0115281D03*
X0095602Y0111856D03*
X0095405Y0102013D03*
X0095169Y0095596D03*
X0098003Y0092486D03*
X0100287Y0094966D03*
X0102255Y0098746D03*
X0108554Y0098352D03*
X0110050Y0106502D03*
X0105798Y0107013D03*
X0105798Y0112840D03*
X0105798Y0115675D03*
X0109342Y0117761D03*
X0110129Y0120793D03*
X0106980Y0120084D03*
X0105011Y0122604D03*
X0103043Y0125163D03*
X0101468Y0127683D03*
X0105405Y0129494D03*
X0090444Y0131029D03*
X0081192Y0131580D03*
X0071940Y0136541D03*
X0066035Y0132210D03*
X0066231Y0127092D03*
X0066901Y0124139D03*
X0068987Y0121974D03*
X0063279Y0120006D03*
X0066035Y0115675D03*
X0062885Y0103864D03*
X0069775Y0099927D03*
X0073909Y0095990D03*
X0077058Y0095990D03*
X0072728Y0091659D03*
X0080995Y0087328D03*
X0085720Y0089297D03*
X0089263Y0084769D03*
X0087294Y0077683D03*
X0095641Y0072722D03*
X0093987Y0061344D03*
X0075247Y0059415D03*
X0062649Y0060084D03*
X0062846Y0069651D03*
X0087294Y0102289D03*
X0078633Y0103864D03*
X0079027Y0108588D03*
D34*
X0070365Y0103470D02*
X0069775Y0103470D01*
X0069775Y0099927D01*
X0069775Y0096384D01*
X0069578Y0096187D01*
X0069184Y0083785D02*
X0069184Y0083785D01*
X0069184Y0069625D01*
X0067216Y0069625D02*
X0067216Y0077880D01*
X0066822Y0078273D01*
X0061310Y0083785D01*
X0062846Y0069651D02*
X0065247Y0069651D01*
X0065247Y0069625D01*
X0069184Y0065675D02*
X0070405Y0065675D01*
X0071153Y0065675D01*
X0071153Y0069651D01*
X0069184Y0065675D02*
X0069184Y0061725D01*
X0067216Y0061725D02*
X0067216Y0057761D01*
X0066625Y0057761D01*
X0071153Y0057761D02*
X0071153Y0061725D01*
X0071153Y0057761D02*
X0071743Y0057761D01*
X0071743Y0050714D01*
X0075483Y0050714D01*
X0095916Y0069625D02*
X0095916Y0072722D01*
X0095641Y0072722D01*
X0097885Y0074335D02*
X0097096Y0075124D01*
X0085720Y0075124D01*
X0077058Y0083785D01*
X0084932Y0083785D02*
X0091231Y0077486D01*
X0098279Y0077486D01*
X0099854Y0075911D01*
X0099854Y0069625D01*
X0101822Y0069651D02*
X0101822Y0065675D01*
X0098869Y0065675D01*
X0099854Y0065675D01*
X0099854Y0061725D01*
X0101823Y0061725D02*
X0101823Y0057761D01*
X0102452Y0057761D01*
X0102452Y0050714D01*
X0106192Y0050714D01*
X0097885Y0057761D02*
X0097885Y0061725D01*
X0097885Y0057761D02*
X0097334Y0057761D01*
X0097885Y0069625D02*
X0097885Y0074335D01*
X0095916Y0069651D02*
X0095916Y0069625D01*
X0090838Y0105832D02*
X0091035Y0107013D01*
X0091035Y0111468D01*
X0093003Y0111468D02*
X0093003Y0109376D01*
X0099893Y0109376D01*
X0101468Y0107801D01*
X0100680Y0107801D01*
X0108948Y0114100D02*
X0109342Y0114100D01*
X0109342Y0117761D01*
X0078830Y0132092D02*
X0075090Y0132092D01*
X0075090Y0131423D01*
X0075090Y0132092D02*
X0070247Y0132092D01*
X0069735Y0126974D02*
X0066901Y0124139D01*
X0069086Y0113313D02*
X0069086Y0113175D01*
D35*
X0071586Y0078667D03*
X0071586Y0076305D03*
X0071586Y0073943D03*
X0078672Y0075911D03*
X0078672Y0078273D03*
X0070405Y0065675D03*
X0065995Y0065675D03*
X0062846Y0066777D03*
X0062649Y0062447D03*
X0062885Y0072801D03*
X0062885Y0075045D03*
X0075247Y0061659D03*
X0091940Y0067958D03*
X0101901Y0065675D03*
D36*
X0101468Y0065517D02*
X0108161Y0065517D01*
D37*
X0097334Y0057761D02*
X0091625Y0052053D01*
X0091625Y0050714D01*
X0066625Y0057761D02*
X0060917Y0052053D01*
X0060917Y0050714D01*
X0060129Y0061738D02*
X0058948Y0061974D01*
X0056035Y0064336D01*
X0089657Y0095596D02*
X0090483Y0095596D01*
X0090483Y0105478D01*
X0090838Y0105832D01*
X0090247Y0096187D02*
X0090247Y0095596D01*
X0095169Y0095596D01*
X0090247Y0096187D02*
X0089657Y0095596D01*
X0102255Y0098746D02*
X0102255Y0102289D01*
X0102649Y0102289D01*
X0102255Y0098746D02*
X0102255Y0107801D01*
X0101468Y0107801D01*
X0094184Y0134769D02*
X0094184Y0135754D01*
X0087098Y0135754D01*
D38*
X0087098Y0131029D02*
X0087098Y0126968D01*
D39*
X0065247Y0061725D02*
X0060142Y0061725D01*
X0060129Y0061738D01*
M02*
