G75*
%MOIN*%
%OFA0B0*%
%FSLAX25Y25*%
%IPPOS*%
%LPD*%
%AMOC8*
5,1,8,0,0,1.08239X$1,22.5*
%
%ADD10C,0.00000*%
%ADD11C,0.06000*%
%ADD12C,0.07906*%
%ADD13C,0.05937*%
%ADD14C,0.03181*%
%ADD15C,0.02205*%
%ADD16C,0.01000*%
%ADD17C,0.00600*%
D10*
X0051468Y0044415D02*
X0112491Y0044415D01*
X0112491Y0087722D01*
X0112491Y0079848D02*
X0112491Y0138903D01*
X0051468Y0138903D01*
X0051468Y0044415D01*
X0056625Y0047013D02*
X0056627Y0047061D01*
X0056633Y0047109D01*
X0056643Y0047156D01*
X0056656Y0047202D01*
X0056674Y0047247D01*
X0056694Y0047291D01*
X0056719Y0047333D01*
X0056747Y0047372D01*
X0056777Y0047409D01*
X0056811Y0047443D01*
X0056848Y0047475D01*
X0056886Y0047504D01*
X0056927Y0047529D01*
X0056970Y0047551D01*
X0057015Y0047569D01*
X0057061Y0047583D01*
X0057108Y0047594D01*
X0057156Y0047601D01*
X0057204Y0047604D01*
X0057252Y0047603D01*
X0057300Y0047598D01*
X0057348Y0047589D01*
X0057394Y0047577D01*
X0057439Y0047560D01*
X0057483Y0047540D01*
X0057525Y0047517D01*
X0057565Y0047490D01*
X0057603Y0047460D01*
X0057638Y0047427D01*
X0057670Y0047391D01*
X0057700Y0047353D01*
X0057726Y0047312D01*
X0057748Y0047269D01*
X0057768Y0047225D01*
X0057783Y0047180D01*
X0057795Y0047133D01*
X0057803Y0047085D01*
X0057807Y0047037D01*
X0057807Y0046989D01*
X0057803Y0046941D01*
X0057795Y0046893D01*
X0057783Y0046846D01*
X0057768Y0046801D01*
X0057748Y0046757D01*
X0057726Y0046714D01*
X0057700Y0046673D01*
X0057670Y0046635D01*
X0057638Y0046599D01*
X0057603Y0046566D01*
X0057565Y0046536D01*
X0057525Y0046509D01*
X0057483Y0046486D01*
X0057439Y0046466D01*
X0057394Y0046449D01*
X0057348Y0046437D01*
X0057300Y0046428D01*
X0057252Y0046423D01*
X0057204Y0046422D01*
X0057156Y0046425D01*
X0057108Y0046432D01*
X0057061Y0046443D01*
X0057015Y0046457D01*
X0056970Y0046475D01*
X0056927Y0046497D01*
X0056886Y0046522D01*
X0056848Y0046551D01*
X0056811Y0046583D01*
X0056777Y0046617D01*
X0056747Y0046654D01*
X0056719Y0046693D01*
X0056694Y0046735D01*
X0056674Y0046779D01*
X0056656Y0046824D01*
X0056643Y0046870D01*
X0056633Y0046917D01*
X0056627Y0046965D01*
X0056625Y0047013D01*
X0056625Y0054415D02*
X0056627Y0054463D01*
X0056633Y0054511D01*
X0056643Y0054558D01*
X0056656Y0054604D01*
X0056674Y0054649D01*
X0056694Y0054693D01*
X0056719Y0054735D01*
X0056747Y0054774D01*
X0056777Y0054811D01*
X0056811Y0054845D01*
X0056848Y0054877D01*
X0056886Y0054906D01*
X0056927Y0054931D01*
X0056970Y0054953D01*
X0057015Y0054971D01*
X0057061Y0054985D01*
X0057108Y0054996D01*
X0057156Y0055003D01*
X0057204Y0055006D01*
X0057252Y0055005D01*
X0057300Y0055000D01*
X0057348Y0054991D01*
X0057394Y0054979D01*
X0057439Y0054962D01*
X0057483Y0054942D01*
X0057525Y0054919D01*
X0057565Y0054892D01*
X0057603Y0054862D01*
X0057638Y0054829D01*
X0057670Y0054793D01*
X0057700Y0054755D01*
X0057726Y0054714D01*
X0057748Y0054671D01*
X0057768Y0054627D01*
X0057783Y0054582D01*
X0057795Y0054535D01*
X0057803Y0054487D01*
X0057807Y0054439D01*
X0057807Y0054391D01*
X0057803Y0054343D01*
X0057795Y0054295D01*
X0057783Y0054248D01*
X0057768Y0054203D01*
X0057748Y0054159D01*
X0057726Y0054116D01*
X0057700Y0054075D01*
X0057670Y0054037D01*
X0057638Y0054001D01*
X0057603Y0053968D01*
X0057565Y0053938D01*
X0057525Y0053911D01*
X0057483Y0053888D01*
X0057439Y0053868D01*
X0057394Y0053851D01*
X0057348Y0053839D01*
X0057300Y0053830D01*
X0057252Y0053825D01*
X0057204Y0053824D01*
X0057156Y0053827D01*
X0057108Y0053834D01*
X0057061Y0053845D01*
X0057015Y0053859D01*
X0056970Y0053877D01*
X0056927Y0053899D01*
X0056886Y0053924D01*
X0056848Y0053953D01*
X0056811Y0053985D01*
X0056777Y0054019D01*
X0056747Y0054056D01*
X0056719Y0054095D01*
X0056694Y0054137D01*
X0056674Y0054181D01*
X0056656Y0054226D01*
X0056643Y0054272D01*
X0056633Y0054319D01*
X0056627Y0054367D01*
X0056625Y0054415D01*
X0064026Y0054415D02*
X0064028Y0054463D01*
X0064034Y0054511D01*
X0064044Y0054558D01*
X0064057Y0054604D01*
X0064075Y0054649D01*
X0064095Y0054693D01*
X0064120Y0054735D01*
X0064148Y0054774D01*
X0064178Y0054811D01*
X0064212Y0054845D01*
X0064249Y0054877D01*
X0064287Y0054906D01*
X0064328Y0054931D01*
X0064371Y0054953D01*
X0064416Y0054971D01*
X0064462Y0054985D01*
X0064509Y0054996D01*
X0064557Y0055003D01*
X0064605Y0055006D01*
X0064653Y0055005D01*
X0064701Y0055000D01*
X0064749Y0054991D01*
X0064795Y0054979D01*
X0064840Y0054962D01*
X0064884Y0054942D01*
X0064926Y0054919D01*
X0064966Y0054892D01*
X0065004Y0054862D01*
X0065039Y0054829D01*
X0065071Y0054793D01*
X0065101Y0054755D01*
X0065127Y0054714D01*
X0065149Y0054671D01*
X0065169Y0054627D01*
X0065184Y0054582D01*
X0065196Y0054535D01*
X0065204Y0054487D01*
X0065208Y0054439D01*
X0065208Y0054391D01*
X0065204Y0054343D01*
X0065196Y0054295D01*
X0065184Y0054248D01*
X0065169Y0054203D01*
X0065149Y0054159D01*
X0065127Y0054116D01*
X0065101Y0054075D01*
X0065071Y0054037D01*
X0065039Y0054001D01*
X0065004Y0053968D01*
X0064966Y0053938D01*
X0064926Y0053911D01*
X0064884Y0053888D01*
X0064840Y0053868D01*
X0064795Y0053851D01*
X0064749Y0053839D01*
X0064701Y0053830D01*
X0064653Y0053825D01*
X0064605Y0053824D01*
X0064557Y0053827D01*
X0064509Y0053834D01*
X0064462Y0053845D01*
X0064416Y0053859D01*
X0064371Y0053877D01*
X0064328Y0053899D01*
X0064287Y0053924D01*
X0064249Y0053953D01*
X0064212Y0053985D01*
X0064178Y0054019D01*
X0064148Y0054056D01*
X0064120Y0054095D01*
X0064095Y0054137D01*
X0064075Y0054181D01*
X0064057Y0054226D01*
X0064044Y0054272D01*
X0064034Y0054319D01*
X0064028Y0054367D01*
X0064026Y0054415D01*
X0064026Y0047013D02*
X0064028Y0047061D01*
X0064034Y0047109D01*
X0064044Y0047156D01*
X0064057Y0047202D01*
X0064075Y0047247D01*
X0064095Y0047291D01*
X0064120Y0047333D01*
X0064148Y0047372D01*
X0064178Y0047409D01*
X0064212Y0047443D01*
X0064249Y0047475D01*
X0064287Y0047504D01*
X0064328Y0047529D01*
X0064371Y0047551D01*
X0064416Y0047569D01*
X0064462Y0047583D01*
X0064509Y0047594D01*
X0064557Y0047601D01*
X0064605Y0047604D01*
X0064653Y0047603D01*
X0064701Y0047598D01*
X0064749Y0047589D01*
X0064795Y0047577D01*
X0064840Y0047560D01*
X0064884Y0047540D01*
X0064926Y0047517D01*
X0064966Y0047490D01*
X0065004Y0047460D01*
X0065039Y0047427D01*
X0065071Y0047391D01*
X0065101Y0047353D01*
X0065127Y0047312D01*
X0065149Y0047269D01*
X0065169Y0047225D01*
X0065184Y0047180D01*
X0065196Y0047133D01*
X0065204Y0047085D01*
X0065208Y0047037D01*
X0065208Y0046989D01*
X0065204Y0046941D01*
X0065196Y0046893D01*
X0065184Y0046846D01*
X0065169Y0046801D01*
X0065149Y0046757D01*
X0065127Y0046714D01*
X0065101Y0046673D01*
X0065071Y0046635D01*
X0065039Y0046599D01*
X0065004Y0046566D01*
X0064966Y0046536D01*
X0064926Y0046509D01*
X0064884Y0046486D01*
X0064840Y0046466D01*
X0064795Y0046449D01*
X0064749Y0046437D01*
X0064701Y0046428D01*
X0064653Y0046423D01*
X0064605Y0046422D01*
X0064557Y0046425D01*
X0064509Y0046432D01*
X0064462Y0046443D01*
X0064416Y0046457D01*
X0064371Y0046475D01*
X0064328Y0046497D01*
X0064287Y0046522D01*
X0064249Y0046551D01*
X0064212Y0046583D01*
X0064178Y0046617D01*
X0064148Y0046654D01*
X0064120Y0046693D01*
X0064095Y0046735D01*
X0064075Y0046779D01*
X0064057Y0046824D01*
X0064044Y0046870D01*
X0064034Y0046917D01*
X0064028Y0046965D01*
X0064026Y0047013D01*
X0071192Y0047013D02*
X0071194Y0047061D01*
X0071200Y0047109D01*
X0071210Y0047156D01*
X0071223Y0047202D01*
X0071241Y0047247D01*
X0071261Y0047291D01*
X0071286Y0047333D01*
X0071314Y0047372D01*
X0071344Y0047409D01*
X0071378Y0047443D01*
X0071415Y0047475D01*
X0071453Y0047504D01*
X0071494Y0047529D01*
X0071537Y0047551D01*
X0071582Y0047569D01*
X0071628Y0047583D01*
X0071675Y0047594D01*
X0071723Y0047601D01*
X0071771Y0047604D01*
X0071819Y0047603D01*
X0071867Y0047598D01*
X0071915Y0047589D01*
X0071961Y0047577D01*
X0072006Y0047560D01*
X0072050Y0047540D01*
X0072092Y0047517D01*
X0072132Y0047490D01*
X0072170Y0047460D01*
X0072205Y0047427D01*
X0072237Y0047391D01*
X0072267Y0047353D01*
X0072293Y0047312D01*
X0072315Y0047269D01*
X0072335Y0047225D01*
X0072350Y0047180D01*
X0072362Y0047133D01*
X0072370Y0047085D01*
X0072374Y0047037D01*
X0072374Y0046989D01*
X0072370Y0046941D01*
X0072362Y0046893D01*
X0072350Y0046846D01*
X0072335Y0046801D01*
X0072315Y0046757D01*
X0072293Y0046714D01*
X0072267Y0046673D01*
X0072237Y0046635D01*
X0072205Y0046599D01*
X0072170Y0046566D01*
X0072132Y0046536D01*
X0072092Y0046509D01*
X0072050Y0046486D01*
X0072006Y0046466D01*
X0071961Y0046449D01*
X0071915Y0046437D01*
X0071867Y0046428D01*
X0071819Y0046423D01*
X0071771Y0046422D01*
X0071723Y0046425D01*
X0071675Y0046432D01*
X0071628Y0046443D01*
X0071582Y0046457D01*
X0071537Y0046475D01*
X0071494Y0046497D01*
X0071453Y0046522D01*
X0071415Y0046551D01*
X0071378Y0046583D01*
X0071344Y0046617D01*
X0071314Y0046654D01*
X0071286Y0046693D01*
X0071261Y0046735D01*
X0071241Y0046779D01*
X0071223Y0046824D01*
X0071210Y0046870D01*
X0071200Y0046917D01*
X0071194Y0046965D01*
X0071192Y0047013D01*
X0071192Y0054415D02*
X0071194Y0054463D01*
X0071200Y0054511D01*
X0071210Y0054558D01*
X0071223Y0054604D01*
X0071241Y0054649D01*
X0071261Y0054693D01*
X0071286Y0054735D01*
X0071314Y0054774D01*
X0071344Y0054811D01*
X0071378Y0054845D01*
X0071415Y0054877D01*
X0071453Y0054906D01*
X0071494Y0054931D01*
X0071537Y0054953D01*
X0071582Y0054971D01*
X0071628Y0054985D01*
X0071675Y0054996D01*
X0071723Y0055003D01*
X0071771Y0055006D01*
X0071819Y0055005D01*
X0071867Y0055000D01*
X0071915Y0054991D01*
X0071961Y0054979D01*
X0072006Y0054962D01*
X0072050Y0054942D01*
X0072092Y0054919D01*
X0072132Y0054892D01*
X0072170Y0054862D01*
X0072205Y0054829D01*
X0072237Y0054793D01*
X0072267Y0054755D01*
X0072293Y0054714D01*
X0072315Y0054671D01*
X0072335Y0054627D01*
X0072350Y0054582D01*
X0072362Y0054535D01*
X0072370Y0054487D01*
X0072374Y0054439D01*
X0072374Y0054391D01*
X0072370Y0054343D01*
X0072362Y0054295D01*
X0072350Y0054248D01*
X0072335Y0054203D01*
X0072315Y0054159D01*
X0072293Y0054116D01*
X0072267Y0054075D01*
X0072237Y0054037D01*
X0072205Y0054001D01*
X0072170Y0053968D01*
X0072132Y0053938D01*
X0072092Y0053911D01*
X0072050Y0053888D01*
X0072006Y0053868D01*
X0071961Y0053851D01*
X0071915Y0053839D01*
X0071867Y0053830D01*
X0071819Y0053825D01*
X0071771Y0053824D01*
X0071723Y0053827D01*
X0071675Y0053834D01*
X0071628Y0053845D01*
X0071582Y0053859D01*
X0071537Y0053877D01*
X0071494Y0053899D01*
X0071453Y0053924D01*
X0071415Y0053953D01*
X0071378Y0053985D01*
X0071344Y0054019D01*
X0071314Y0054056D01*
X0071286Y0054095D01*
X0071261Y0054137D01*
X0071241Y0054181D01*
X0071223Y0054226D01*
X0071210Y0054272D01*
X0071200Y0054319D01*
X0071194Y0054367D01*
X0071192Y0054415D01*
X0078593Y0054415D02*
X0078595Y0054463D01*
X0078601Y0054511D01*
X0078611Y0054558D01*
X0078624Y0054604D01*
X0078642Y0054649D01*
X0078662Y0054693D01*
X0078687Y0054735D01*
X0078715Y0054774D01*
X0078745Y0054811D01*
X0078779Y0054845D01*
X0078816Y0054877D01*
X0078854Y0054906D01*
X0078895Y0054931D01*
X0078938Y0054953D01*
X0078983Y0054971D01*
X0079029Y0054985D01*
X0079076Y0054996D01*
X0079124Y0055003D01*
X0079172Y0055006D01*
X0079220Y0055005D01*
X0079268Y0055000D01*
X0079316Y0054991D01*
X0079362Y0054979D01*
X0079407Y0054962D01*
X0079451Y0054942D01*
X0079493Y0054919D01*
X0079533Y0054892D01*
X0079571Y0054862D01*
X0079606Y0054829D01*
X0079638Y0054793D01*
X0079668Y0054755D01*
X0079694Y0054714D01*
X0079716Y0054671D01*
X0079736Y0054627D01*
X0079751Y0054582D01*
X0079763Y0054535D01*
X0079771Y0054487D01*
X0079775Y0054439D01*
X0079775Y0054391D01*
X0079771Y0054343D01*
X0079763Y0054295D01*
X0079751Y0054248D01*
X0079736Y0054203D01*
X0079716Y0054159D01*
X0079694Y0054116D01*
X0079668Y0054075D01*
X0079638Y0054037D01*
X0079606Y0054001D01*
X0079571Y0053968D01*
X0079533Y0053938D01*
X0079493Y0053911D01*
X0079451Y0053888D01*
X0079407Y0053868D01*
X0079362Y0053851D01*
X0079316Y0053839D01*
X0079268Y0053830D01*
X0079220Y0053825D01*
X0079172Y0053824D01*
X0079124Y0053827D01*
X0079076Y0053834D01*
X0079029Y0053845D01*
X0078983Y0053859D01*
X0078938Y0053877D01*
X0078895Y0053899D01*
X0078854Y0053924D01*
X0078816Y0053953D01*
X0078779Y0053985D01*
X0078745Y0054019D01*
X0078715Y0054056D01*
X0078687Y0054095D01*
X0078662Y0054137D01*
X0078642Y0054181D01*
X0078624Y0054226D01*
X0078611Y0054272D01*
X0078601Y0054319D01*
X0078595Y0054367D01*
X0078593Y0054415D01*
X0078593Y0047013D02*
X0078595Y0047061D01*
X0078601Y0047109D01*
X0078611Y0047156D01*
X0078624Y0047202D01*
X0078642Y0047247D01*
X0078662Y0047291D01*
X0078687Y0047333D01*
X0078715Y0047372D01*
X0078745Y0047409D01*
X0078779Y0047443D01*
X0078816Y0047475D01*
X0078854Y0047504D01*
X0078895Y0047529D01*
X0078938Y0047551D01*
X0078983Y0047569D01*
X0079029Y0047583D01*
X0079076Y0047594D01*
X0079124Y0047601D01*
X0079172Y0047604D01*
X0079220Y0047603D01*
X0079268Y0047598D01*
X0079316Y0047589D01*
X0079362Y0047577D01*
X0079407Y0047560D01*
X0079451Y0047540D01*
X0079493Y0047517D01*
X0079533Y0047490D01*
X0079571Y0047460D01*
X0079606Y0047427D01*
X0079638Y0047391D01*
X0079668Y0047353D01*
X0079694Y0047312D01*
X0079716Y0047269D01*
X0079736Y0047225D01*
X0079751Y0047180D01*
X0079763Y0047133D01*
X0079771Y0047085D01*
X0079775Y0047037D01*
X0079775Y0046989D01*
X0079771Y0046941D01*
X0079763Y0046893D01*
X0079751Y0046846D01*
X0079736Y0046801D01*
X0079716Y0046757D01*
X0079694Y0046714D01*
X0079668Y0046673D01*
X0079638Y0046635D01*
X0079606Y0046599D01*
X0079571Y0046566D01*
X0079533Y0046536D01*
X0079493Y0046509D01*
X0079451Y0046486D01*
X0079407Y0046466D01*
X0079362Y0046449D01*
X0079316Y0046437D01*
X0079268Y0046428D01*
X0079220Y0046423D01*
X0079172Y0046422D01*
X0079124Y0046425D01*
X0079076Y0046432D01*
X0079029Y0046443D01*
X0078983Y0046457D01*
X0078938Y0046475D01*
X0078895Y0046497D01*
X0078854Y0046522D01*
X0078816Y0046551D01*
X0078779Y0046583D01*
X0078745Y0046617D01*
X0078715Y0046654D01*
X0078687Y0046693D01*
X0078662Y0046735D01*
X0078642Y0046779D01*
X0078624Y0046824D01*
X0078611Y0046870D01*
X0078601Y0046917D01*
X0078595Y0046965D01*
X0078593Y0047013D01*
X0087333Y0047013D02*
X0087335Y0047061D01*
X0087341Y0047109D01*
X0087351Y0047156D01*
X0087364Y0047202D01*
X0087382Y0047247D01*
X0087402Y0047291D01*
X0087427Y0047333D01*
X0087455Y0047372D01*
X0087485Y0047409D01*
X0087519Y0047443D01*
X0087556Y0047475D01*
X0087594Y0047504D01*
X0087635Y0047529D01*
X0087678Y0047551D01*
X0087723Y0047569D01*
X0087769Y0047583D01*
X0087816Y0047594D01*
X0087864Y0047601D01*
X0087912Y0047604D01*
X0087960Y0047603D01*
X0088008Y0047598D01*
X0088056Y0047589D01*
X0088102Y0047577D01*
X0088147Y0047560D01*
X0088191Y0047540D01*
X0088233Y0047517D01*
X0088273Y0047490D01*
X0088311Y0047460D01*
X0088346Y0047427D01*
X0088378Y0047391D01*
X0088408Y0047353D01*
X0088434Y0047312D01*
X0088456Y0047269D01*
X0088476Y0047225D01*
X0088491Y0047180D01*
X0088503Y0047133D01*
X0088511Y0047085D01*
X0088515Y0047037D01*
X0088515Y0046989D01*
X0088511Y0046941D01*
X0088503Y0046893D01*
X0088491Y0046846D01*
X0088476Y0046801D01*
X0088456Y0046757D01*
X0088434Y0046714D01*
X0088408Y0046673D01*
X0088378Y0046635D01*
X0088346Y0046599D01*
X0088311Y0046566D01*
X0088273Y0046536D01*
X0088233Y0046509D01*
X0088191Y0046486D01*
X0088147Y0046466D01*
X0088102Y0046449D01*
X0088056Y0046437D01*
X0088008Y0046428D01*
X0087960Y0046423D01*
X0087912Y0046422D01*
X0087864Y0046425D01*
X0087816Y0046432D01*
X0087769Y0046443D01*
X0087723Y0046457D01*
X0087678Y0046475D01*
X0087635Y0046497D01*
X0087594Y0046522D01*
X0087556Y0046551D01*
X0087519Y0046583D01*
X0087485Y0046617D01*
X0087455Y0046654D01*
X0087427Y0046693D01*
X0087402Y0046735D01*
X0087382Y0046779D01*
X0087364Y0046824D01*
X0087351Y0046870D01*
X0087341Y0046917D01*
X0087335Y0046965D01*
X0087333Y0047013D01*
X0087333Y0054415D02*
X0087335Y0054463D01*
X0087341Y0054511D01*
X0087351Y0054558D01*
X0087364Y0054604D01*
X0087382Y0054649D01*
X0087402Y0054693D01*
X0087427Y0054735D01*
X0087455Y0054774D01*
X0087485Y0054811D01*
X0087519Y0054845D01*
X0087556Y0054877D01*
X0087594Y0054906D01*
X0087635Y0054931D01*
X0087678Y0054953D01*
X0087723Y0054971D01*
X0087769Y0054985D01*
X0087816Y0054996D01*
X0087864Y0055003D01*
X0087912Y0055006D01*
X0087960Y0055005D01*
X0088008Y0055000D01*
X0088056Y0054991D01*
X0088102Y0054979D01*
X0088147Y0054962D01*
X0088191Y0054942D01*
X0088233Y0054919D01*
X0088273Y0054892D01*
X0088311Y0054862D01*
X0088346Y0054829D01*
X0088378Y0054793D01*
X0088408Y0054755D01*
X0088434Y0054714D01*
X0088456Y0054671D01*
X0088476Y0054627D01*
X0088491Y0054582D01*
X0088503Y0054535D01*
X0088511Y0054487D01*
X0088515Y0054439D01*
X0088515Y0054391D01*
X0088511Y0054343D01*
X0088503Y0054295D01*
X0088491Y0054248D01*
X0088476Y0054203D01*
X0088456Y0054159D01*
X0088434Y0054116D01*
X0088408Y0054075D01*
X0088378Y0054037D01*
X0088346Y0054001D01*
X0088311Y0053968D01*
X0088273Y0053938D01*
X0088233Y0053911D01*
X0088191Y0053888D01*
X0088147Y0053868D01*
X0088102Y0053851D01*
X0088056Y0053839D01*
X0088008Y0053830D01*
X0087960Y0053825D01*
X0087912Y0053824D01*
X0087864Y0053827D01*
X0087816Y0053834D01*
X0087769Y0053845D01*
X0087723Y0053859D01*
X0087678Y0053877D01*
X0087635Y0053899D01*
X0087594Y0053924D01*
X0087556Y0053953D01*
X0087519Y0053985D01*
X0087485Y0054019D01*
X0087455Y0054056D01*
X0087427Y0054095D01*
X0087402Y0054137D01*
X0087382Y0054181D01*
X0087364Y0054226D01*
X0087351Y0054272D01*
X0087341Y0054319D01*
X0087335Y0054367D01*
X0087333Y0054415D01*
X0094735Y0054415D02*
X0094737Y0054463D01*
X0094743Y0054511D01*
X0094753Y0054558D01*
X0094766Y0054604D01*
X0094784Y0054649D01*
X0094804Y0054693D01*
X0094829Y0054735D01*
X0094857Y0054774D01*
X0094887Y0054811D01*
X0094921Y0054845D01*
X0094958Y0054877D01*
X0094996Y0054906D01*
X0095037Y0054931D01*
X0095080Y0054953D01*
X0095125Y0054971D01*
X0095171Y0054985D01*
X0095218Y0054996D01*
X0095266Y0055003D01*
X0095314Y0055006D01*
X0095362Y0055005D01*
X0095410Y0055000D01*
X0095458Y0054991D01*
X0095504Y0054979D01*
X0095549Y0054962D01*
X0095593Y0054942D01*
X0095635Y0054919D01*
X0095675Y0054892D01*
X0095713Y0054862D01*
X0095748Y0054829D01*
X0095780Y0054793D01*
X0095810Y0054755D01*
X0095836Y0054714D01*
X0095858Y0054671D01*
X0095878Y0054627D01*
X0095893Y0054582D01*
X0095905Y0054535D01*
X0095913Y0054487D01*
X0095917Y0054439D01*
X0095917Y0054391D01*
X0095913Y0054343D01*
X0095905Y0054295D01*
X0095893Y0054248D01*
X0095878Y0054203D01*
X0095858Y0054159D01*
X0095836Y0054116D01*
X0095810Y0054075D01*
X0095780Y0054037D01*
X0095748Y0054001D01*
X0095713Y0053968D01*
X0095675Y0053938D01*
X0095635Y0053911D01*
X0095593Y0053888D01*
X0095549Y0053868D01*
X0095504Y0053851D01*
X0095458Y0053839D01*
X0095410Y0053830D01*
X0095362Y0053825D01*
X0095314Y0053824D01*
X0095266Y0053827D01*
X0095218Y0053834D01*
X0095171Y0053845D01*
X0095125Y0053859D01*
X0095080Y0053877D01*
X0095037Y0053899D01*
X0094996Y0053924D01*
X0094958Y0053953D01*
X0094921Y0053985D01*
X0094887Y0054019D01*
X0094857Y0054056D01*
X0094829Y0054095D01*
X0094804Y0054137D01*
X0094784Y0054181D01*
X0094766Y0054226D01*
X0094753Y0054272D01*
X0094743Y0054319D01*
X0094737Y0054367D01*
X0094735Y0054415D01*
X0094735Y0047013D02*
X0094737Y0047061D01*
X0094743Y0047109D01*
X0094753Y0047156D01*
X0094766Y0047202D01*
X0094784Y0047247D01*
X0094804Y0047291D01*
X0094829Y0047333D01*
X0094857Y0047372D01*
X0094887Y0047409D01*
X0094921Y0047443D01*
X0094958Y0047475D01*
X0094996Y0047504D01*
X0095037Y0047529D01*
X0095080Y0047551D01*
X0095125Y0047569D01*
X0095171Y0047583D01*
X0095218Y0047594D01*
X0095266Y0047601D01*
X0095314Y0047604D01*
X0095362Y0047603D01*
X0095410Y0047598D01*
X0095458Y0047589D01*
X0095504Y0047577D01*
X0095549Y0047560D01*
X0095593Y0047540D01*
X0095635Y0047517D01*
X0095675Y0047490D01*
X0095713Y0047460D01*
X0095748Y0047427D01*
X0095780Y0047391D01*
X0095810Y0047353D01*
X0095836Y0047312D01*
X0095858Y0047269D01*
X0095878Y0047225D01*
X0095893Y0047180D01*
X0095905Y0047133D01*
X0095913Y0047085D01*
X0095917Y0047037D01*
X0095917Y0046989D01*
X0095913Y0046941D01*
X0095905Y0046893D01*
X0095893Y0046846D01*
X0095878Y0046801D01*
X0095858Y0046757D01*
X0095836Y0046714D01*
X0095810Y0046673D01*
X0095780Y0046635D01*
X0095748Y0046599D01*
X0095713Y0046566D01*
X0095675Y0046536D01*
X0095635Y0046509D01*
X0095593Y0046486D01*
X0095549Y0046466D01*
X0095504Y0046449D01*
X0095458Y0046437D01*
X0095410Y0046428D01*
X0095362Y0046423D01*
X0095314Y0046422D01*
X0095266Y0046425D01*
X0095218Y0046432D01*
X0095171Y0046443D01*
X0095125Y0046457D01*
X0095080Y0046475D01*
X0095037Y0046497D01*
X0094996Y0046522D01*
X0094958Y0046551D01*
X0094921Y0046583D01*
X0094887Y0046617D01*
X0094857Y0046654D01*
X0094829Y0046693D01*
X0094804Y0046735D01*
X0094784Y0046779D01*
X0094766Y0046824D01*
X0094753Y0046870D01*
X0094743Y0046917D01*
X0094737Y0046965D01*
X0094735Y0047013D01*
X0101900Y0047013D02*
X0101902Y0047061D01*
X0101908Y0047109D01*
X0101918Y0047156D01*
X0101931Y0047202D01*
X0101949Y0047247D01*
X0101969Y0047291D01*
X0101994Y0047333D01*
X0102022Y0047372D01*
X0102052Y0047409D01*
X0102086Y0047443D01*
X0102123Y0047475D01*
X0102161Y0047504D01*
X0102202Y0047529D01*
X0102245Y0047551D01*
X0102290Y0047569D01*
X0102336Y0047583D01*
X0102383Y0047594D01*
X0102431Y0047601D01*
X0102479Y0047604D01*
X0102527Y0047603D01*
X0102575Y0047598D01*
X0102623Y0047589D01*
X0102669Y0047577D01*
X0102714Y0047560D01*
X0102758Y0047540D01*
X0102800Y0047517D01*
X0102840Y0047490D01*
X0102878Y0047460D01*
X0102913Y0047427D01*
X0102945Y0047391D01*
X0102975Y0047353D01*
X0103001Y0047312D01*
X0103023Y0047269D01*
X0103043Y0047225D01*
X0103058Y0047180D01*
X0103070Y0047133D01*
X0103078Y0047085D01*
X0103082Y0047037D01*
X0103082Y0046989D01*
X0103078Y0046941D01*
X0103070Y0046893D01*
X0103058Y0046846D01*
X0103043Y0046801D01*
X0103023Y0046757D01*
X0103001Y0046714D01*
X0102975Y0046673D01*
X0102945Y0046635D01*
X0102913Y0046599D01*
X0102878Y0046566D01*
X0102840Y0046536D01*
X0102800Y0046509D01*
X0102758Y0046486D01*
X0102714Y0046466D01*
X0102669Y0046449D01*
X0102623Y0046437D01*
X0102575Y0046428D01*
X0102527Y0046423D01*
X0102479Y0046422D01*
X0102431Y0046425D01*
X0102383Y0046432D01*
X0102336Y0046443D01*
X0102290Y0046457D01*
X0102245Y0046475D01*
X0102202Y0046497D01*
X0102161Y0046522D01*
X0102123Y0046551D01*
X0102086Y0046583D01*
X0102052Y0046617D01*
X0102022Y0046654D01*
X0101994Y0046693D01*
X0101969Y0046735D01*
X0101949Y0046779D01*
X0101931Y0046824D01*
X0101918Y0046870D01*
X0101908Y0046917D01*
X0101902Y0046965D01*
X0101900Y0047013D01*
X0101900Y0054415D02*
X0101902Y0054463D01*
X0101908Y0054511D01*
X0101918Y0054558D01*
X0101931Y0054604D01*
X0101949Y0054649D01*
X0101969Y0054693D01*
X0101994Y0054735D01*
X0102022Y0054774D01*
X0102052Y0054811D01*
X0102086Y0054845D01*
X0102123Y0054877D01*
X0102161Y0054906D01*
X0102202Y0054931D01*
X0102245Y0054953D01*
X0102290Y0054971D01*
X0102336Y0054985D01*
X0102383Y0054996D01*
X0102431Y0055003D01*
X0102479Y0055006D01*
X0102527Y0055005D01*
X0102575Y0055000D01*
X0102623Y0054991D01*
X0102669Y0054979D01*
X0102714Y0054962D01*
X0102758Y0054942D01*
X0102800Y0054919D01*
X0102840Y0054892D01*
X0102878Y0054862D01*
X0102913Y0054829D01*
X0102945Y0054793D01*
X0102975Y0054755D01*
X0103001Y0054714D01*
X0103023Y0054671D01*
X0103043Y0054627D01*
X0103058Y0054582D01*
X0103070Y0054535D01*
X0103078Y0054487D01*
X0103082Y0054439D01*
X0103082Y0054391D01*
X0103078Y0054343D01*
X0103070Y0054295D01*
X0103058Y0054248D01*
X0103043Y0054203D01*
X0103023Y0054159D01*
X0103001Y0054116D01*
X0102975Y0054075D01*
X0102945Y0054037D01*
X0102913Y0054001D01*
X0102878Y0053968D01*
X0102840Y0053938D01*
X0102800Y0053911D01*
X0102758Y0053888D01*
X0102714Y0053868D01*
X0102669Y0053851D01*
X0102623Y0053839D01*
X0102575Y0053830D01*
X0102527Y0053825D01*
X0102479Y0053824D01*
X0102431Y0053827D01*
X0102383Y0053834D01*
X0102336Y0053845D01*
X0102290Y0053859D01*
X0102245Y0053877D01*
X0102202Y0053899D01*
X0102161Y0053924D01*
X0102123Y0053953D01*
X0102086Y0053985D01*
X0102052Y0054019D01*
X0102022Y0054056D01*
X0101994Y0054095D01*
X0101969Y0054137D01*
X0101949Y0054181D01*
X0101931Y0054226D01*
X0101918Y0054272D01*
X0101908Y0054319D01*
X0101902Y0054367D01*
X0101900Y0054415D01*
X0109302Y0054415D02*
X0109304Y0054463D01*
X0109310Y0054511D01*
X0109320Y0054558D01*
X0109333Y0054604D01*
X0109351Y0054649D01*
X0109371Y0054693D01*
X0109396Y0054735D01*
X0109424Y0054774D01*
X0109454Y0054811D01*
X0109488Y0054845D01*
X0109525Y0054877D01*
X0109563Y0054906D01*
X0109604Y0054931D01*
X0109647Y0054953D01*
X0109692Y0054971D01*
X0109738Y0054985D01*
X0109785Y0054996D01*
X0109833Y0055003D01*
X0109881Y0055006D01*
X0109929Y0055005D01*
X0109977Y0055000D01*
X0110025Y0054991D01*
X0110071Y0054979D01*
X0110116Y0054962D01*
X0110160Y0054942D01*
X0110202Y0054919D01*
X0110242Y0054892D01*
X0110280Y0054862D01*
X0110315Y0054829D01*
X0110347Y0054793D01*
X0110377Y0054755D01*
X0110403Y0054714D01*
X0110425Y0054671D01*
X0110445Y0054627D01*
X0110460Y0054582D01*
X0110472Y0054535D01*
X0110480Y0054487D01*
X0110484Y0054439D01*
X0110484Y0054391D01*
X0110480Y0054343D01*
X0110472Y0054295D01*
X0110460Y0054248D01*
X0110445Y0054203D01*
X0110425Y0054159D01*
X0110403Y0054116D01*
X0110377Y0054075D01*
X0110347Y0054037D01*
X0110315Y0054001D01*
X0110280Y0053968D01*
X0110242Y0053938D01*
X0110202Y0053911D01*
X0110160Y0053888D01*
X0110116Y0053868D01*
X0110071Y0053851D01*
X0110025Y0053839D01*
X0109977Y0053830D01*
X0109929Y0053825D01*
X0109881Y0053824D01*
X0109833Y0053827D01*
X0109785Y0053834D01*
X0109738Y0053845D01*
X0109692Y0053859D01*
X0109647Y0053877D01*
X0109604Y0053899D01*
X0109563Y0053924D01*
X0109525Y0053953D01*
X0109488Y0053985D01*
X0109454Y0054019D01*
X0109424Y0054056D01*
X0109396Y0054095D01*
X0109371Y0054137D01*
X0109351Y0054181D01*
X0109333Y0054226D01*
X0109320Y0054272D01*
X0109310Y0054319D01*
X0109304Y0054367D01*
X0109302Y0054415D01*
X0109302Y0047013D02*
X0109304Y0047061D01*
X0109310Y0047109D01*
X0109320Y0047156D01*
X0109333Y0047202D01*
X0109351Y0047247D01*
X0109371Y0047291D01*
X0109396Y0047333D01*
X0109424Y0047372D01*
X0109454Y0047409D01*
X0109488Y0047443D01*
X0109525Y0047475D01*
X0109563Y0047504D01*
X0109604Y0047529D01*
X0109647Y0047551D01*
X0109692Y0047569D01*
X0109738Y0047583D01*
X0109785Y0047594D01*
X0109833Y0047601D01*
X0109881Y0047604D01*
X0109929Y0047603D01*
X0109977Y0047598D01*
X0110025Y0047589D01*
X0110071Y0047577D01*
X0110116Y0047560D01*
X0110160Y0047540D01*
X0110202Y0047517D01*
X0110242Y0047490D01*
X0110280Y0047460D01*
X0110315Y0047427D01*
X0110347Y0047391D01*
X0110377Y0047353D01*
X0110403Y0047312D01*
X0110425Y0047269D01*
X0110445Y0047225D01*
X0110460Y0047180D01*
X0110472Y0047133D01*
X0110480Y0047085D01*
X0110484Y0047037D01*
X0110484Y0046989D01*
X0110480Y0046941D01*
X0110472Y0046893D01*
X0110460Y0046846D01*
X0110445Y0046801D01*
X0110425Y0046757D01*
X0110403Y0046714D01*
X0110377Y0046673D01*
X0110347Y0046635D01*
X0110315Y0046599D01*
X0110280Y0046566D01*
X0110242Y0046536D01*
X0110202Y0046509D01*
X0110160Y0046486D01*
X0110116Y0046466D01*
X0110071Y0046449D01*
X0110025Y0046437D01*
X0109977Y0046428D01*
X0109929Y0046423D01*
X0109881Y0046422D01*
X0109833Y0046425D01*
X0109785Y0046432D01*
X0109738Y0046443D01*
X0109692Y0046457D01*
X0109647Y0046475D01*
X0109604Y0046497D01*
X0109563Y0046522D01*
X0109525Y0046551D01*
X0109488Y0046583D01*
X0109454Y0046617D01*
X0109424Y0046654D01*
X0109396Y0046693D01*
X0109371Y0046735D01*
X0109351Y0046779D01*
X0109333Y0046824D01*
X0109320Y0046870D01*
X0109310Y0046917D01*
X0109304Y0046965D01*
X0109302Y0047013D01*
D11*
X0057373Y0090872D03*
X0057373Y0100872D03*
X0057373Y0110872D03*
X0057373Y0120872D03*
X0057373Y0130872D03*
D12*
X0060917Y0050714D03*
X0075483Y0050714D03*
X0091625Y0050714D03*
X0106192Y0050714D03*
D13*
X0108121Y0064336D03*
X0108121Y0071187D03*
X0056035Y0071187D03*
X0056035Y0064336D03*
D14*
X0061310Y0083785D03*
X0069184Y0083785D03*
X0077058Y0083785D03*
X0084932Y0083785D03*
X0092806Y0083785D03*
X0100680Y0083785D03*
X0108554Y0083785D03*
D15*
X0100287Y0094966D03*
X0098003Y0092486D03*
X0095169Y0095596D03*
X0095405Y0102013D03*
X0102255Y0098746D03*
X0108554Y0098352D03*
X0110050Y0106502D03*
X0105798Y0107013D03*
X0105798Y0112840D03*
X0105798Y0115675D03*
X0109342Y0117761D03*
X0110129Y0120793D03*
X0106980Y0120084D03*
X0105011Y0122604D03*
X0103043Y0125163D03*
X0101468Y0127683D03*
X0105405Y0129494D03*
X0092019Y0120793D03*
X0088082Y0118824D03*
X0084145Y0120793D03*
X0084145Y0116462D03*
X0092019Y0115281D03*
X0095602Y0111856D03*
X0087294Y0102289D03*
X0078633Y0103864D03*
X0079027Y0108588D03*
X0069775Y0099927D03*
X0073909Y0095990D03*
X0077058Y0095990D03*
X0072728Y0091659D03*
X0080995Y0087328D03*
X0085720Y0089297D03*
X0089263Y0084769D03*
X0087294Y0077683D03*
X0095641Y0072722D03*
X0091940Y0067958D03*
X0093987Y0061344D03*
X0101901Y0065675D03*
X0078672Y0075911D03*
X0078672Y0078273D03*
X0071586Y0078667D03*
X0071586Y0076305D03*
X0071586Y0073943D03*
X0070405Y0065675D03*
X0065995Y0065675D03*
X0062846Y0066777D03*
X0062846Y0069651D03*
X0062885Y0072801D03*
X0062885Y0075045D03*
X0062649Y0062447D03*
X0062649Y0060084D03*
X0075247Y0059415D03*
X0075247Y0061659D03*
X0062885Y0103864D03*
X0066035Y0115675D03*
X0063279Y0120006D03*
X0066901Y0124139D03*
X0068987Y0121974D03*
X0066231Y0127092D03*
X0066035Y0132210D03*
X0071940Y0136541D03*
X0081192Y0131580D03*
X0090444Y0131029D03*
D16*
X0083594Y0131103D02*
X0083229Y0130220D01*
X0082553Y0129544D01*
X0081670Y0129178D01*
X0080714Y0129178D01*
X0079831Y0129544D01*
X0079155Y0130220D01*
X0078790Y0131103D01*
X0078790Y0132058D01*
X0079155Y0132941D01*
X0079831Y0133617D01*
X0080714Y0133983D01*
X0081670Y0133983D01*
X0082553Y0133617D01*
X0083229Y0132941D01*
X0083594Y0132058D01*
X0083594Y0131103D01*
X0083594Y0131286D02*
X0103799Y0131286D01*
X0104044Y0131530D02*
X0103368Y0130855D01*
X0103002Y0129972D01*
X0103002Y0129546D01*
X0102829Y0129719D01*
X0101946Y0130085D01*
X0100990Y0130085D01*
X0100107Y0129719D01*
X0099431Y0129044D01*
X0099065Y0128161D01*
X0099065Y0127205D01*
X0099431Y0126322D01*
X0100107Y0125646D01*
X0100640Y0125425D01*
X0100640Y0124685D01*
X0101006Y0123802D01*
X0101682Y0123126D01*
X0102565Y0122761D01*
X0102609Y0122761D01*
X0102609Y0122126D01*
X0102974Y0121243D01*
X0103650Y0120567D01*
X0104533Y0120202D01*
X0104577Y0120202D01*
X0104577Y0119606D01*
X0104943Y0118723D01*
X0105589Y0118077D01*
X0105321Y0118077D01*
X0104438Y0117711D01*
X0104001Y0117275D01*
X0101252Y0117275D01*
X0100314Y0116338D01*
X0098529Y0114552D01*
X0098529Y0103345D01*
X0096317Y0101133D01*
X0090175Y0101133D01*
X0089238Y0100196D01*
X0079395Y0090353D01*
X0079395Y0089126D01*
X0078959Y0088689D01*
X0078593Y0087806D01*
X0078593Y0086851D01*
X0078955Y0085976D01*
X0078696Y0086236D01*
X0077633Y0086676D01*
X0076483Y0086676D01*
X0075421Y0086236D01*
X0074608Y0085422D01*
X0074168Y0084360D01*
X0074168Y0083210D01*
X0074608Y0082148D01*
X0075421Y0081335D01*
X0076483Y0080895D01*
X0077633Y0080895D01*
X0078696Y0081335D01*
X0079509Y0082148D01*
X0079949Y0083210D01*
X0079949Y0084360D01*
X0079512Y0085414D01*
X0079634Y0085292D01*
X0080517Y0084926D01*
X0081473Y0084926D01*
X0082356Y0085292D01*
X0082478Y0085414D01*
X0082042Y0084360D01*
X0082042Y0083210D01*
X0082482Y0082148D01*
X0083295Y0081335D01*
X0084357Y0080895D01*
X0085507Y0080895D01*
X0086570Y0081335D01*
X0087383Y0082148D01*
X0087823Y0083210D01*
X0087823Y0084360D01*
X0087383Y0085422D01*
X0086570Y0086236D01*
X0085507Y0086676D01*
X0084357Y0086676D01*
X0083295Y0086236D01*
X0083035Y0085976D01*
X0083398Y0086851D01*
X0083398Y0087806D01*
X0083032Y0088689D01*
X0082644Y0089077D01*
X0083317Y0089750D01*
X0083317Y0088819D01*
X0083683Y0087936D01*
X0084359Y0087260D01*
X0085242Y0086895D01*
X0086198Y0086895D01*
X0087081Y0087260D01*
X0087756Y0087936D01*
X0088122Y0088819D01*
X0088122Y0089775D01*
X0087756Y0090658D01*
X0087320Y0091094D01*
X0087320Y0091390D01*
X0092288Y0096358D01*
X0092884Y0096358D01*
X0092766Y0096074D01*
X0092766Y0095118D01*
X0093132Y0094235D01*
X0093808Y0093559D01*
X0094691Y0093194D01*
X0095646Y0093194D01*
X0096529Y0093559D01*
X0097205Y0094235D01*
X0097571Y0095118D01*
X0097571Y0096074D01*
X0097453Y0096358D01*
X0098281Y0096358D01*
X0098250Y0096327D01*
X0097884Y0095444D01*
X0097884Y0094488D01*
X0098250Y0093605D01*
X0098926Y0092930D01*
X0099809Y0092564D01*
X0100764Y0092564D01*
X0101647Y0092930D01*
X0102323Y0093605D01*
X0102689Y0094488D01*
X0102689Y0095444D01*
X0102323Y0096327D01*
X0102307Y0096343D01*
X0102733Y0096343D01*
X0103616Y0096709D01*
X0104292Y0097385D01*
X0104657Y0098268D01*
X0104657Y0099224D01*
X0104292Y0100107D01*
X0103616Y0100782D01*
X0103188Y0100959D01*
X0104886Y0102658D01*
X0105824Y0103595D01*
X0105824Y0104611D01*
X0106276Y0104611D01*
X0107159Y0104977D01*
X0107835Y0105653D01*
X0108201Y0106536D01*
X0108201Y0107491D01*
X0107835Y0108374D01*
X0107159Y0109050D01*
X0106276Y0109416D01*
X0105321Y0109416D01*
X0104438Y0109050D01*
X0103762Y0108374D01*
X0103396Y0107491D01*
X0103396Y0106874D01*
X0102624Y0106101D01*
X0102624Y0104920D01*
X0101729Y0104026D01*
X0101729Y0113227D01*
X0102577Y0114075D01*
X0104001Y0114075D01*
X0104438Y0113638D01*
X0105321Y0113273D01*
X0106276Y0113273D01*
X0107159Y0113638D01*
X0107835Y0114314D01*
X0108201Y0115197D01*
X0108201Y0115634D01*
X0108864Y0115359D01*
X0109820Y0115359D01*
X0110703Y0115725D01*
X0111191Y0116214D01*
X0111191Y0055832D01*
X0111149Y0055832D01*
X0110676Y0056306D01*
X0109110Y0056306D01*
X0108637Y0055832D01*
X0107562Y0055832D01*
X0107237Y0055967D01*
X0105147Y0055967D01*
X0104822Y0055832D01*
X0103748Y0055832D01*
X0103274Y0056306D01*
X0101708Y0056306D01*
X0101235Y0055832D01*
X0096582Y0055832D01*
X0096109Y0056306D01*
X0094543Y0056306D01*
X0094070Y0055832D01*
X0092995Y0055832D01*
X0092670Y0055967D01*
X0090580Y0055967D01*
X0090255Y0055832D01*
X0089181Y0055832D01*
X0088707Y0056306D01*
X0087141Y0056306D01*
X0086668Y0055832D01*
X0080441Y0055832D01*
X0079967Y0056306D01*
X0078401Y0056306D01*
X0077928Y0055832D01*
X0076853Y0055832D01*
X0076528Y0055967D01*
X0074439Y0055967D01*
X0074114Y0055832D01*
X0073039Y0055832D01*
X0072566Y0056306D01*
X0071000Y0056306D01*
X0070526Y0055832D01*
X0065874Y0055832D01*
X0065400Y0056306D01*
X0063834Y0056306D01*
X0063361Y0055832D01*
X0062286Y0055832D01*
X0061961Y0055967D01*
X0059872Y0055967D01*
X0059547Y0055832D01*
X0058472Y0055832D01*
X0057999Y0056306D01*
X0057373Y0056306D01*
X0057373Y0060271D01*
X0058453Y0060718D01*
X0059653Y0061918D01*
X0060303Y0063487D01*
X0060303Y0065185D01*
X0059653Y0066754D01*
X0058646Y0067761D01*
X0059653Y0068769D01*
X0060303Y0070338D01*
X0060303Y0072036D01*
X0059653Y0073605D01*
X0058453Y0074805D01*
X0057373Y0075252D01*
X0057373Y0086572D01*
X0058229Y0086572D01*
X0059809Y0087226D01*
X0061019Y0088436D01*
X0061673Y0090016D01*
X0061673Y0091727D01*
X0061019Y0093307D01*
X0059809Y0094517D01*
X0058229Y0095172D01*
X0057373Y0095172D01*
X0057373Y0096572D01*
X0058229Y0096572D01*
X0059809Y0097226D01*
X0061019Y0098436D01*
X0061673Y0100016D01*
X0061673Y0101727D01*
X0061654Y0101773D01*
X0062407Y0101461D01*
X0063363Y0101461D01*
X0064246Y0101827D01*
X0064922Y0102503D01*
X0065287Y0103386D01*
X0065287Y0104342D01*
X0064922Y0105225D01*
X0064246Y0105900D01*
X0063363Y0106266D01*
X0062407Y0106266D01*
X0061524Y0105900D01*
X0060848Y0105225D01*
X0060483Y0104342D01*
X0060483Y0103843D01*
X0059809Y0104517D01*
X0058229Y0105172D01*
X0057373Y0105172D01*
X0057373Y0106572D01*
X0058229Y0106572D01*
X0059809Y0107226D01*
X0061019Y0108436D01*
X0061673Y0110016D01*
X0061673Y0111727D01*
X0061019Y0113307D01*
X0059809Y0114517D01*
X0058229Y0115172D01*
X0057373Y0115172D01*
X0057373Y0116572D01*
X0058229Y0116572D01*
X0059809Y0117226D01*
X0061019Y0118436D01*
X0061673Y0120016D01*
X0061673Y0121727D01*
X0061019Y0123307D01*
X0059809Y0124517D01*
X0058229Y0125172D01*
X0057373Y0125172D01*
X0057373Y0137603D01*
X0111191Y0137603D01*
X0111191Y0119309D01*
X0110703Y0119798D01*
X0109820Y0120164D01*
X0109382Y0120164D01*
X0109382Y0120562D01*
X0109016Y0121445D01*
X0108340Y0122121D01*
X0107457Y0122487D01*
X0107413Y0122487D01*
X0107413Y0123082D01*
X0107048Y0123965D01*
X0106372Y0124641D01*
X0105489Y0125006D01*
X0105445Y0125006D01*
X0105445Y0125641D01*
X0105079Y0126524D01*
X0104403Y0127200D01*
X0103870Y0127421D01*
X0103870Y0127631D01*
X0104044Y0127457D01*
X0104927Y0127091D01*
X0105883Y0127091D01*
X0106766Y0127457D01*
X0107441Y0128133D01*
X0107807Y0129016D01*
X0107807Y0129972D01*
X0107441Y0130855D01*
X0106766Y0131530D01*
X0105883Y0131896D01*
X0104927Y0131896D01*
X0104044Y0131530D01*
X0103133Y0130287D02*
X0083257Y0130287D01*
X0081937Y0129288D02*
X0099676Y0129288D01*
X0099119Y0128290D02*
X0068336Y0128290D01*
X0068268Y0128453D02*
X0067592Y0129129D01*
X0066709Y0129495D01*
X0065754Y0129495D01*
X0064871Y0129129D01*
X0064195Y0128453D01*
X0063829Y0127570D01*
X0063829Y0126614D01*
X0064195Y0125731D01*
X0064736Y0125190D01*
X0064498Y0124617D01*
X0064498Y0123662D01*
X0064864Y0122779D01*
X0065540Y0122103D01*
X0066423Y0121737D01*
X0066585Y0121737D01*
X0066585Y0121496D01*
X0066951Y0120613D01*
X0067627Y0119937D01*
X0068510Y0119572D01*
X0069465Y0119572D01*
X0070348Y0119937D01*
X0071024Y0120613D01*
X0071390Y0121496D01*
X0071390Y0122452D01*
X0071024Y0123335D01*
X0070348Y0124011D01*
X0069465Y0124376D01*
X0069303Y0124376D01*
X0069303Y0124617D01*
X0068937Y0125500D01*
X0068396Y0126041D01*
X0068634Y0126614D01*
X0068634Y0127570D01*
X0068268Y0128453D01*
X0068634Y0127291D02*
X0099065Y0127291D01*
X0099460Y0126293D02*
X0068501Y0126293D01*
X0069023Y0125294D02*
X0100640Y0125294D01*
X0100801Y0124296D02*
X0069660Y0124296D01*
X0071040Y0123297D02*
X0101511Y0123297D01*
X0102609Y0122299D02*
X0071390Y0122299D01*
X0071309Y0121300D02*
X0102951Y0121300D01*
X0104291Y0120302D02*
X0070713Y0120302D01*
X0067262Y0120302D02*
X0061673Y0120302D01*
X0061673Y0121300D02*
X0066666Y0121300D01*
X0065344Y0122299D02*
X0061436Y0122299D01*
X0061023Y0123297D02*
X0064649Y0123297D01*
X0064498Y0124296D02*
X0060030Y0124296D01*
X0057373Y0125294D02*
X0064632Y0125294D01*
X0063962Y0126293D02*
X0057373Y0126293D01*
X0057373Y0127291D02*
X0063829Y0127291D01*
X0064127Y0128290D02*
X0057373Y0128290D01*
X0057373Y0129288D02*
X0065256Y0129288D01*
X0067207Y0129288D02*
X0080448Y0129288D01*
X0079128Y0130287D02*
X0057373Y0130287D01*
X0057373Y0131286D02*
X0078790Y0131286D01*
X0078883Y0132284D02*
X0057373Y0132284D01*
X0057373Y0133283D02*
X0079497Y0133283D01*
X0082887Y0133283D02*
X0111191Y0133283D01*
X0111191Y0134281D02*
X0057373Y0134281D01*
X0057373Y0135280D02*
X0111191Y0135280D01*
X0111191Y0136278D02*
X0057373Y0136278D01*
X0057373Y0137277D02*
X0111191Y0137277D01*
X0111191Y0132284D02*
X0083501Y0132284D01*
X0099286Y0115309D02*
X0057373Y0115309D01*
X0057373Y0116308D02*
X0100285Y0116308D01*
X0098529Y0114311D02*
X0060015Y0114311D01*
X0061014Y0113312D02*
X0098529Y0113312D01*
X0098529Y0112314D02*
X0061430Y0112314D01*
X0061673Y0111315D02*
X0098529Y0111315D01*
X0098529Y0110317D02*
X0061673Y0110317D01*
X0061384Y0109318D02*
X0098529Y0109318D01*
X0098529Y0108320D02*
X0060902Y0108320D01*
X0059904Y0107321D02*
X0098529Y0107321D01*
X0098529Y0106323D02*
X0057373Y0106323D01*
X0057373Y0105324D02*
X0060948Y0105324D01*
X0060483Y0104326D02*
X0060000Y0104326D01*
X0061673Y0101330D02*
X0067781Y0101330D01*
X0067738Y0101288D02*
X0067372Y0100405D01*
X0067372Y0099449D01*
X0067738Y0098566D01*
X0068414Y0097890D01*
X0069297Y0097524D01*
X0070253Y0097524D01*
X0071136Y0097890D01*
X0071811Y0098566D01*
X0072177Y0099449D01*
X0072177Y0100405D01*
X0071811Y0101288D01*
X0071136Y0101963D01*
X0070253Y0102329D01*
X0069297Y0102329D01*
X0068414Y0101963D01*
X0067738Y0101288D01*
X0067372Y0100332D02*
X0061673Y0100332D01*
X0061390Y0099333D02*
X0067420Y0099333D01*
X0067970Y0098335D02*
X0060917Y0098335D01*
X0059919Y0097336D02*
X0071866Y0097336D01*
X0071872Y0097351D02*
X0071506Y0096468D01*
X0071506Y0095512D01*
X0071872Y0094629D01*
X0072440Y0094061D01*
X0072250Y0094061D01*
X0071367Y0093696D01*
X0070691Y0093020D01*
X0070325Y0092137D01*
X0070325Y0091181D01*
X0070691Y0090298D01*
X0071367Y0089622D01*
X0072250Y0089257D01*
X0073205Y0089257D01*
X0074088Y0089622D01*
X0074764Y0090298D01*
X0075130Y0091181D01*
X0075130Y0092137D01*
X0074764Y0093020D01*
X0074197Y0093587D01*
X0074387Y0093587D01*
X0075269Y0093953D01*
X0075483Y0094167D01*
X0075697Y0093953D01*
X0076580Y0093587D01*
X0077536Y0093587D01*
X0078419Y0093953D01*
X0079095Y0094629D01*
X0079461Y0095512D01*
X0079461Y0096468D01*
X0079095Y0097351D01*
X0078419Y0098026D01*
X0077536Y0098392D01*
X0076580Y0098392D01*
X0075697Y0098026D01*
X0075483Y0097812D01*
X0075269Y0098026D01*
X0074387Y0098392D01*
X0073431Y0098392D01*
X0072548Y0098026D01*
X0071872Y0097351D01*
X0071580Y0098335D02*
X0073292Y0098335D01*
X0074525Y0098335D02*
X0076441Y0098335D01*
X0077675Y0098335D02*
X0087377Y0098335D01*
X0088375Y0099333D02*
X0072129Y0099333D01*
X0072177Y0100332D02*
X0089374Y0100332D01*
X0086378Y0097336D02*
X0079101Y0097336D01*
X0079461Y0096338D02*
X0085380Y0096338D01*
X0084381Y0095339D02*
X0079389Y0095339D01*
X0078806Y0094341D02*
X0083383Y0094341D01*
X0082384Y0093342D02*
X0074442Y0093342D01*
X0075044Y0092344D02*
X0081385Y0092344D01*
X0080387Y0091345D02*
X0075130Y0091345D01*
X0074784Y0090347D02*
X0079395Y0090347D01*
X0079395Y0089348D02*
X0073426Y0089348D01*
X0072029Y0089348D02*
X0061396Y0089348D01*
X0061673Y0090347D02*
X0070671Y0090347D01*
X0070325Y0091345D02*
X0061673Y0091345D01*
X0061418Y0092344D02*
X0070411Y0092344D01*
X0071013Y0093342D02*
X0060984Y0093342D01*
X0059985Y0094341D02*
X0072160Y0094341D01*
X0071578Y0095339D02*
X0057373Y0095339D01*
X0057373Y0096338D02*
X0071506Y0096338D01*
X0071769Y0101330D02*
X0096514Y0101330D01*
X0097512Y0102329D02*
X0070254Y0102329D01*
X0069296Y0102329D02*
X0064747Y0102329D01*
X0065263Y0103327D02*
X0098511Y0103327D01*
X0098529Y0104326D02*
X0065287Y0104326D01*
X0064822Y0105324D02*
X0098529Y0105324D01*
X0101729Y0105324D02*
X0102624Y0105324D01*
X0102845Y0106323D02*
X0101729Y0106323D01*
X0101729Y0107321D02*
X0103396Y0107321D01*
X0103739Y0108320D02*
X0101729Y0108320D01*
X0101729Y0109318D02*
X0105085Y0109318D01*
X0106512Y0109318D02*
X0111191Y0109318D01*
X0111191Y0108320D02*
X0107858Y0108320D01*
X0108201Y0107321D02*
X0111191Y0107321D01*
X0111191Y0106323D02*
X0108113Y0106323D01*
X0107507Y0105324D02*
X0111191Y0105324D01*
X0111191Y0104326D02*
X0105824Y0104326D01*
X0105556Y0103327D02*
X0111191Y0103327D01*
X0111191Y0102329D02*
X0104557Y0102329D01*
X0103559Y0101330D02*
X0111191Y0101330D01*
X0111191Y0100332D02*
X0104067Y0100332D01*
X0104612Y0099333D02*
X0111191Y0099333D01*
X0111191Y0098335D02*
X0104657Y0098335D01*
X0104243Y0097336D02*
X0111191Y0097336D01*
X0111191Y0096338D02*
X0102313Y0096338D01*
X0102689Y0095339D02*
X0111191Y0095339D01*
X0111191Y0094341D02*
X0102628Y0094341D01*
X0102060Y0093342D02*
X0111191Y0093342D01*
X0111191Y0092344D02*
X0088273Y0092344D01*
X0087320Y0091345D02*
X0111191Y0091345D01*
X0111191Y0090347D02*
X0087885Y0090347D01*
X0088122Y0089348D02*
X0111191Y0089348D01*
X0111191Y0088350D02*
X0087928Y0088350D01*
X0087171Y0087351D02*
X0111191Y0087351D01*
X0111191Y0086352D02*
X0102035Y0086352D01*
X0102318Y0086236D02*
X0101255Y0086676D01*
X0100105Y0086676D01*
X0099043Y0086236D01*
X0098230Y0085422D01*
X0097790Y0084360D01*
X0097790Y0083210D01*
X0098230Y0082148D01*
X0099043Y0081335D01*
X0100105Y0080895D01*
X0101255Y0080895D01*
X0102318Y0081335D01*
X0103131Y0082148D01*
X0103571Y0083210D01*
X0103571Y0084360D01*
X0103131Y0085422D01*
X0102318Y0086236D01*
X0103159Y0085354D02*
X0111191Y0085354D01*
X0111191Y0084355D02*
X0103571Y0084355D01*
X0103571Y0083357D02*
X0111191Y0083357D01*
X0111191Y0082358D02*
X0103218Y0082358D01*
X0102343Y0081360D02*
X0111191Y0081360D01*
X0111191Y0080361D02*
X0057373Y0080361D01*
X0057373Y0079363D02*
X0111191Y0079363D01*
X0111191Y0078364D02*
X0057373Y0078364D01*
X0057373Y0077366D02*
X0111191Y0077366D01*
X0111191Y0076367D02*
X0057373Y0076367D01*
X0057373Y0075369D02*
X0111191Y0075369D01*
X0111191Y0074370D02*
X0097390Y0074370D01*
X0097678Y0074083D02*
X0097002Y0074759D01*
X0096119Y0075124D01*
X0095163Y0075124D01*
X0094280Y0074759D01*
X0093604Y0074083D01*
X0093239Y0073200D01*
X0093239Y0072244D01*
X0093604Y0071361D01*
X0094280Y0070685D01*
X0095163Y0070320D01*
X0096119Y0070320D01*
X0097002Y0070685D01*
X0097678Y0071361D01*
X0098043Y0072244D01*
X0098043Y0073200D01*
X0097678Y0074083D01*
X0097972Y0073372D02*
X0111191Y0073372D01*
X0111191Y0072373D02*
X0098043Y0072373D01*
X0097683Y0071375D02*
X0111191Y0071375D01*
X0111191Y0070376D02*
X0096255Y0070376D01*
X0095027Y0070376D02*
X0065146Y0070376D01*
X0065248Y0070129D02*
X0064882Y0071012D01*
X0064206Y0071688D01*
X0063324Y0072054D01*
X0062368Y0072054D01*
X0061485Y0071688D01*
X0060809Y0071012D01*
X0060443Y0070129D01*
X0060443Y0069173D01*
X0060809Y0068290D01*
X0061485Y0067615D01*
X0062368Y0067249D01*
X0063324Y0067249D01*
X0064206Y0067615D01*
X0064882Y0068290D01*
X0065248Y0069173D01*
X0065248Y0070129D01*
X0065248Y0069378D02*
X0111191Y0069378D01*
X0111191Y0068379D02*
X0064919Y0068379D01*
X0063642Y0067381D02*
X0111191Y0067381D01*
X0111191Y0066382D02*
X0059807Y0066382D01*
X0060221Y0065384D02*
X0111191Y0065384D01*
X0111191Y0064385D02*
X0064108Y0064385D01*
X0064010Y0064483D02*
X0063127Y0064849D01*
X0062171Y0064849D01*
X0061288Y0064483D01*
X0060612Y0063807D01*
X0060246Y0062924D01*
X0060246Y0061969D01*
X0060538Y0061265D01*
X0060246Y0060562D01*
X0060246Y0059606D01*
X0060612Y0058723D01*
X0061288Y0058048D01*
X0062171Y0057682D01*
X0063127Y0057682D01*
X0064010Y0058048D01*
X0064685Y0058723D01*
X0065051Y0059606D01*
X0065051Y0060562D01*
X0064760Y0061265D01*
X0065051Y0061969D01*
X0065051Y0062924D01*
X0064685Y0063807D01*
X0064010Y0064483D01*
X0064860Y0063387D02*
X0073577Y0063387D01*
X0073886Y0063696D02*
X0073211Y0063020D01*
X0072845Y0062137D01*
X0072845Y0061181D01*
X0073112Y0060537D01*
X0072845Y0059893D01*
X0072845Y0058937D01*
X0073211Y0058054D01*
X0073886Y0057378D01*
X0074769Y0057013D01*
X0075725Y0057013D01*
X0076608Y0057378D01*
X0077284Y0058054D01*
X0077650Y0058937D01*
X0077650Y0059893D01*
X0077383Y0060537D01*
X0077650Y0061181D01*
X0077650Y0062137D01*
X0077284Y0063020D01*
X0076608Y0063696D01*
X0075725Y0064061D01*
X0074769Y0064061D01*
X0073886Y0063696D01*
X0072949Y0062388D02*
X0065051Y0062388D01*
X0064811Y0061390D02*
X0072845Y0061390D01*
X0073051Y0060391D02*
X0065051Y0060391D01*
X0064963Y0059393D02*
X0072845Y0059393D01*
X0073070Y0058394D02*
X0064356Y0058394D01*
X0060941Y0058394D02*
X0057373Y0058394D01*
X0057373Y0057396D02*
X0073869Y0057396D01*
X0076625Y0057396D02*
X0111191Y0057396D01*
X0111191Y0058394D02*
X0077425Y0058394D01*
X0077650Y0059393D02*
X0092541Y0059393D01*
X0092627Y0059308D02*
X0093510Y0058942D01*
X0094465Y0058942D01*
X0095348Y0059308D01*
X0096024Y0059983D01*
X0096390Y0060866D01*
X0096390Y0061822D01*
X0096024Y0062705D01*
X0095348Y0063381D01*
X0094465Y0063747D01*
X0093510Y0063747D01*
X0092627Y0063381D01*
X0091951Y0062705D01*
X0091585Y0061822D01*
X0091585Y0060866D01*
X0091951Y0059983D01*
X0092627Y0059308D01*
X0091782Y0060391D02*
X0077443Y0060391D01*
X0077650Y0061390D02*
X0091585Y0061390D01*
X0091820Y0062388D02*
X0077546Y0062388D01*
X0076917Y0063387D02*
X0092641Y0063387D01*
X0095334Y0063387D02*
X0111191Y0063387D01*
X0111191Y0062388D02*
X0096155Y0062388D01*
X0096390Y0061390D02*
X0111191Y0061390D01*
X0111191Y0060391D02*
X0096193Y0060391D01*
X0095433Y0059393D02*
X0111191Y0059393D01*
X0111191Y0056397D02*
X0057373Y0056397D01*
X0057373Y0059393D02*
X0060335Y0059393D01*
X0060246Y0060391D02*
X0057665Y0060391D01*
X0059125Y0061390D02*
X0060486Y0061390D01*
X0060246Y0062388D02*
X0059848Y0062388D01*
X0060262Y0063387D02*
X0060438Y0063387D01*
X0060303Y0064385D02*
X0061190Y0064385D01*
X0062049Y0067381D02*
X0059027Y0067381D01*
X0059264Y0068379D02*
X0060772Y0068379D01*
X0060443Y0069378D02*
X0059906Y0069378D01*
X0060303Y0070376D02*
X0060546Y0070376D01*
X0060303Y0071375D02*
X0061172Y0071375D01*
X0060163Y0072373D02*
X0093239Y0072373D01*
X0093310Y0073372D02*
X0059750Y0073372D01*
X0058888Y0074370D02*
X0093892Y0074370D01*
X0093599Y0071375D02*
X0064520Y0071375D01*
X0061885Y0080895D02*
X0060735Y0080895D01*
X0059673Y0081335D01*
X0058860Y0082148D01*
X0058420Y0083210D01*
X0058420Y0084360D01*
X0058860Y0085422D01*
X0059673Y0086236D01*
X0060735Y0086676D01*
X0061885Y0086676D01*
X0062948Y0086236D01*
X0063761Y0085422D01*
X0064201Y0084360D01*
X0064201Y0083210D01*
X0063761Y0082148D01*
X0062948Y0081335D01*
X0061885Y0080895D01*
X0062973Y0081360D02*
X0067522Y0081360D01*
X0067547Y0081335D02*
X0068609Y0080895D01*
X0069759Y0080895D01*
X0070822Y0081335D01*
X0071635Y0082148D01*
X0072075Y0083210D01*
X0072075Y0084360D01*
X0071635Y0085422D01*
X0070822Y0086236D01*
X0069759Y0086676D01*
X0068609Y0086676D01*
X0067547Y0086236D01*
X0066734Y0085422D01*
X0066294Y0084360D01*
X0066294Y0083210D01*
X0066734Y0082148D01*
X0067547Y0081335D01*
X0066646Y0082358D02*
X0063848Y0082358D01*
X0064201Y0083357D02*
X0066294Y0083357D01*
X0066294Y0084355D02*
X0064201Y0084355D01*
X0063789Y0085354D02*
X0066705Y0085354D01*
X0067829Y0086352D02*
X0062665Y0086352D01*
X0060932Y0088350D02*
X0078818Y0088350D01*
X0078593Y0087351D02*
X0059934Y0087351D01*
X0059955Y0086352D02*
X0057373Y0086352D01*
X0057373Y0085354D02*
X0058831Y0085354D01*
X0058420Y0084355D02*
X0057373Y0084355D01*
X0057373Y0083357D02*
X0058420Y0083357D01*
X0058772Y0082358D02*
X0057373Y0082358D01*
X0057373Y0081360D02*
X0059648Y0081360D01*
X0070847Y0081360D02*
X0075396Y0081360D01*
X0074520Y0082358D02*
X0071722Y0082358D01*
X0072075Y0083357D02*
X0074168Y0083357D01*
X0074168Y0084355D02*
X0072075Y0084355D01*
X0071663Y0085354D02*
X0074579Y0085354D01*
X0075703Y0086352D02*
X0070539Y0086352D01*
X0078413Y0086352D02*
X0078799Y0086352D01*
X0079537Y0085354D02*
X0079572Y0085354D01*
X0079949Y0084355D02*
X0082042Y0084355D01*
X0082042Y0083357D02*
X0079949Y0083357D01*
X0079596Y0082358D02*
X0082395Y0082358D01*
X0083270Y0081360D02*
X0078721Y0081360D01*
X0082418Y0085354D02*
X0082453Y0085354D01*
X0083191Y0086352D02*
X0083577Y0086352D01*
X0083398Y0087351D02*
X0084268Y0087351D01*
X0083512Y0088350D02*
X0083173Y0088350D01*
X0083317Y0089348D02*
X0082915Y0089348D01*
X0086287Y0086352D02*
X0091451Y0086352D01*
X0091169Y0086236D02*
X0090356Y0085422D01*
X0089916Y0084360D01*
X0089916Y0083210D01*
X0090356Y0082148D01*
X0091169Y0081335D01*
X0092231Y0080895D01*
X0093381Y0080895D01*
X0094444Y0081335D01*
X0095257Y0082148D01*
X0095697Y0083210D01*
X0095697Y0084360D01*
X0095257Y0085422D01*
X0094444Y0086236D01*
X0093381Y0086676D01*
X0092231Y0086676D01*
X0091169Y0086236D01*
X0090327Y0085354D02*
X0087411Y0085354D01*
X0087823Y0084355D02*
X0089916Y0084355D01*
X0089916Y0083357D02*
X0087823Y0083357D01*
X0087470Y0082358D02*
X0090269Y0082358D01*
X0091144Y0081360D02*
X0086595Y0081360D01*
X0094469Y0081360D02*
X0099018Y0081360D01*
X0098143Y0082358D02*
X0095344Y0082358D01*
X0095697Y0083357D02*
X0097790Y0083357D01*
X0097790Y0084355D02*
X0095697Y0084355D01*
X0095285Y0085354D02*
X0098201Y0085354D01*
X0099325Y0086352D02*
X0094161Y0086352D01*
X0094333Y0093342D02*
X0089272Y0093342D01*
X0090270Y0094341D02*
X0093088Y0094341D01*
X0092766Y0095339D02*
X0091269Y0095339D01*
X0092267Y0096338D02*
X0092875Y0096338D01*
X0096004Y0093342D02*
X0098513Y0093342D01*
X0097945Y0094341D02*
X0097249Y0094341D01*
X0097571Y0095339D02*
X0097884Y0095339D01*
X0098261Y0096338D02*
X0097462Y0096338D01*
X0101729Y0104326D02*
X0102029Y0104326D01*
X0101729Y0110317D02*
X0111191Y0110317D01*
X0111191Y0111315D02*
X0101729Y0111315D01*
X0101729Y0112314D02*
X0111191Y0112314D01*
X0111191Y0113312D02*
X0106372Y0113312D01*
X0105224Y0113312D02*
X0101814Y0113312D01*
X0104032Y0117306D02*
X0059889Y0117306D01*
X0060887Y0118305D02*
X0105362Y0118305D01*
X0104703Y0119303D02*
X0061378Y0119303D01*
X0104182Y0127291D02*
X0104444Y0127291D01*
X0105175Y0126293D02*
X0111191Y0126293D01*
X0111191Y0127291D02*
X0106366Y0127291D01*
X0107506Y0128290D02*
X0111191Y0128290D01*
X0111191Y0129288D02*
X0107807Y0129288D01*
X0107676Y0130287D02*
X0111191Y0130287D01*
X0111191Y0131286D02*
X0107010Y0131286D01*
X0105445Y0125294D02*
X0111191Y0125294D01*
X0111191Y0124296D02*
X0106717Y0124296D01*
X0107324Y0123297D02*
X0111191Y0123297D01*
X0111191Y0122299D02*
X0107911Y0122299D01*
X0109076Y0121300D02*
X0111191Y0121300D01*
X0111191Y0120302D02*
X0109382Y0120302D01*
X0108201Y0115309D02*
X0111191Y0115309D01*
X0111191Y0114311D02*
X0107832Y0114311D01*
D17*
X0105798Y0115675D02*
X0101914Y0115675D01*
X0100129Y0113890D01*
X0100129Y0102683D01*
X0096980Y0099533D01*
X0090838Y0099533D01*
X0080995Y0089691D01*
X0080995Y0087328D01*
X0085720Y0089297D02*
X0085720Y0092053D01*
X0091625Y0097958D01*
X0097924Y0097958D01*
X0104224Y0104258D01*
X0104224Y0105439D01*
X0105798Y0107013D01*
M02*
