G75*
%MOIN*%
%OFA0B0*%
%FSLAX25Y25*%
%IPPOS*%
%LPD*%
%AMOC8*
5,1,8,0,0,1.08239X$1,22.5*
%
%ADD10C,0.00000*%
%ADD11C,0.00443*%
%ADD12R,0.21654X0.21654*%
%ADD13R,0.02756X0.03150*%
%ADD14R,0.04331X0.07087*%
%ADD15R,0.03150X0.02756*%
%ADD16C,0.07794*%
%ADD17R,0.03150X0.03937*%
%ADD18R,0.11024X0.11024*%
%ADD19C,0.01575*%
%ADD20R,0.07480X0.07480*%
%ADD21R,0.06102X0.02717*%
%ADD22R,0.05118X0.03543*%
%ADD23R,0.04331X0.04331*%
D10*
X0051468Y0044415D02*
X0112491Y0044415D01*
X0112491Y0083785D01*
X0112491Y0079848D02*
X0112491Y0134966D01*
X0051468Y0134966D01*
X0051468Y0044415D01*
X0056625Y0047013D02*
X0056627Y0047061D01*
X0056633Y0047109D01*
X0056643Y0047156D01*
X0056656Y0047202D01*
X0056674Y0047247D01*
X0056694Y0047291D01*
X0056719Y0047333D01*
X0056747Y0047372D01*
X0056777Y0047409D01*
X0056811Y0047443D01*
X0056848Y0047475D01*
X0056886Y0047504D01*
X0056927Y0047529D01*
X0056970Y0047551D01*
X0057015Y0047569D01*
X0057061Y0047583D01*
X0057108Y0047594D01*
X0057156Y0047601D01*
X0057204Y0047604D01*
X0057252Y0047603D01*
X0057300Y0047598D01*
X0057348Y0047589D01*
X0057394Y0047577D01*
X0057439Y0047560D01*
X0057483Y0047540D01*
X0057525Y0047517D01*
X0057565Y0047490D01*
X0057603Y0047460D01*
X0057638Y0047427D01*
X0057670Y0047391D01*
X0057700Y0047353D01*
X0057726Y0047312D01*
X0057748Y0047269D01*
X0057768Y0047225D01*
X0057783Y0047180D01*
X0057795Y0047133D01*
X0057803Y0047085D01*
X0057807Y0047037D01*
X0057807Y0046989D01*
X0057803Y0046941D01*
X0057795Y0046893D01*
X0057783Y0046846D01*
X0057768Y0046801D01*
X0057748Y0046757D01*
X0057726Y0046714D01*
X0057700Y0046673D01*
X0057670Y0046635D01*
X0057638Y0046599D01*
X0057603Y0046566D01*
X0057565Y0046536D01*
X0057525Y0046509D01*
X0057483Y0046486D01*
X0057439Y0046466D01*
X0057394Y0046449D01*
X0057348Y0046437D01*
X0057300Y0046428D01*
X0057252Y0046423D01*
X0057204Y0046422D01*
X0057156Y0046425D01*
X0057108Y0046432D01*
X0057061Y0046443D01*
X0057015Y0046457D01*
X0056970Y0046475D01*
X0056927Y0046497D01*
X0056886Y0046522D01*
X0056848Y0046551D01*
X0056811Y0046583D01*
X0056777Y0046617D01*
X0056747Y0046654D01*
X0056719Y0046693D01*
X0056694Y0046735D01*
X0056674Y0046779D01*
X0056656Y0046824D01*
X0056643Y0046870D01*
X0056633Y0046917D01*
X0056627Y0046965D01*
X0056625Y0047013D01*
X0056625Y0054415D02*
X0056627Y0054463D01*
X0056633Y0054511D01*
X0056643Y0054558D01*
X0056656Y0054604D01*
X0056674Y0054649D01*
X0056694Y0054693D01*
X0056719Y0054735D01*
X0056747Y0054774D01*
X0056777Y0054811D01*
X0056811Y0054845D01*
X0056848Y0054877D01*
X0056886Y0054906D01*
X0056927Y0054931D01*
X0056970Y0054953D01*
X0057015Y0054971D01*
X0057061Y0054985D01*
X0057108Y0054996D01*
X0057156Y0055003D01*
X0057204Y0055006D01*
X0057252Y0055005D01*
X0057300Y0055000D01*
X0057348Y0054991D01*
X0057394Y0054979D01*
X0057439Y0054962D01*
X0057483Y0054942D01*
X0057525Y0054919D01*
X0057565Y0054892D01*
X0057603Y0054862D01*
X0057638Y0054829D01*
X0057670Y0054793D01*
X0057700Y0054755D01*
X0057726Y0054714D01*
X0057748Y0054671D01*
X0057768Y0054627D01*
X0057783Y0054582D01*
X0057795Y0054535D01*
X0057803Y0054487D01*
X0057807Y0054439D01*
X0057807Y0054391D01*
X0057803Y0054343D01*
X0057795Y0054295D01*
X0057783Y0054248D01*
X0057768Y0054203D01*
X0057748Y0054159D01*
X0057726Y0054116D01*
X0057700Y0054075D01*
X0057670Y0054037D01*
X0057638Y0054001D01*
X0057603Y0053968D01*
X0057565Y0053938D01*
X0057525Y0053911D01*
X0057483Y0053888D01*
X0057439Y0053868D01*
X0057394Y0053851D01*
X0057348Y0053839D01*
X0057300Y0053830D01*
X0057252Y0053825D01*
X0057204Y0053824D01*
X0057156Y0053827D01*
X0057108Y0053834D01*
X0057061Y0053845D01*
X0057015Y0053859D01*
X0056970Y0053877D01*
X0056927Y0053899D01*
X0056886Y0053924D01*
X0056848Y0053953D01*
X0056811Y0053985D01*
X0056777Y0054019D01*
X0056747Y0054056D01*
X0056719Y0054095D01*
X0056694Y0054137D01*
X0056674Y0054181D01*
X0056656Y0054226D01*
X0056643Y0054272D01*
X0056633Y0054319D01*
X0056627Y0054367D01*
X0056625Y0054415D01*
X0064026Y0054415D02*
X0064028Y0054463D01*
X0064034Y0054511D01*
X0064044Y0054558D01*
X0064057Y0054604D01*
X0064075Y0054649D01*
X0064095Y0054693D01*
X0064120Y0054735D01*
X0064148Y0054774D01*
X0064178Y0054811D01*
X0064212Y0054845D01*
X0064249Y0054877D01*
X0064287Y0054906D01*
X0064328Y0054931D01*
X0064371Y0054953D01*
X0064416Y0054971D01*
X0064462Y0054985D01*
X0064509Y0054996D01*
X0064557Y0055003D01*
X0064605Y0055006D01*
X0064653Y0055005D01*
X0064701Y0055000D01*
X0064749Y0054991D01*
X0064795Y0054979D01*
X0064840Y0054962D01*
X0064884Y0054942D01*
X0064926Y0054919D01*
X0064966Y0054892D01*
X0065004Y0054862D01*
X0065039Y0054829D01*
X0065071Y0054793D01*
X0065101Y0054755D01*
X0065127Y0054714D01*
X0065149Y0054671D01*
X0065169Y0054627D01*
X0065184Y0054582D01*
X0065196Y0054535D01*
X0065204Y0054487D01*
X0065208Y0054439D01*
X0065208Y0054391D01*
X0065204Y0054343D01*
X0065196Y0054295D01*
X0065184Y0054248D01*
X0065169Y0054203D01*
X0065149Y0054159D01*
X0065127Y0054116D01*
X0065101Y0054075D01*
X0065071Y0054037D01*
X0065039Y0054001D01*
X0065004Y0053968D01*
X0064966Y0053938D01*
X0064926Y0053911D01*
X0064884Y0053888D01*
X0064840Y0053868D01*
X0064795Y0053851D01*
X0064749Y0053839D01*
X0064701Y0053830D01*
X0064653Y0053825D01*
X0064605Y0053824D01*
X0064557Y0053827D01*
X0064509Y0053834D01*
X0064462Y0053845D01*
X0064416Y0053859D01*
X0064371Y0053877D01*
X0064328Y0053899D01*
X0064287Y0053924D01*
X0064249Y0053953D01*
X0064212Y0053985D01*
X0064178Y0054019D01*
X0064148Y0054056D01*
X0064120Y0054095D01*
X0064095Y0054137D01*
X0064075Y0054181D01*
X0064057Y0054226D01*
X0064044Y0054272D01*
X0064034Y0054319D01*
X0064028Y0054367D01*
X0064026Y0054415D01*
X0064026Y0047013D02*
X0064028Y0047061D01*
X0064034Y0047109D01*
X0064044Y0047156D01*
X0064057Y0047202D01*
X0064075Y0047247D01*
X0064095Y0047291D01*
X0064120Y0047333D01*
X0064148Y0047372D01*
X0064178Y0047409D01*
X0064212Y0047443D01*
X0064249Y0047475D01*
X0064287Y0047504D01*
X0064328Y0047529D01*
X0064371Y0047551D01*
X0064416Y0047569D01*
X0064462Y0047583D01*
X0064509Y0047594D01*
X0064557Y0047601D01*
X0064605Y0047604D01*
X0064653Y0047603D01*
X0064701Y0047598D01*
X0064749Y0047589D01*
X0064795Y0047577D01*
X0064840Y0047560D01*
X0064884Y0047540D01*
X0064926Y0047517D01*
X0064966Y0047490D01*
X0065004Y0047460D01*
X0065039Y0047427D01*
X0065071Y0047391D01*
X0065101Y0047353D01*
X0065127Y0047312D01*
X0065149Y0047269D01*
X0065169Y0047225D01*
X0065184Y0047180D01*
X0065196Y0047133D01*
X0065204Y0047085D01*
X0065208Y0047037D01*
X0065208Y0046989D01*
X0065204Y0046941D01*
X0065196Y0046893D01*
X0065184Y0046846D01*
X0065169Y0046801D01*
X0065149Y0046757D01*
X0065127Y0046714D01*
X0065101Y0046673D01*
X0065071Y0046635D01*
X0065039Y0046599D01*
X0065004Y0046566D01*
X0064966Y0046536D01*
X0064926Y0046509D01*
X0064884Y0046486D01*
X0064840Y0046466D01*
X0064795Y0046449D01*
X0064749Y0046437D01*
X0064701Y0046428D01*
X0064653Y0046423D01*
X0064605Y0046422D01*
X0064557Y0046425D01*
X0064509Y0046432D01*
X0064462Y0046443D01*
X0064416Y0046457D01*
X0064371Y0046475D01*
X0064328Y0046497D01*
X0064287Y0046522D01*
X0064249Y0046551D01*
X0064212Y0046583D01*
X0064178Y0046617D01*
X0064148Y0046654D01*
X0064120Y0046693D01*
X0064095Y0046735D01*
X0064075Y0046779D01*
X0064057Y0046824D01*
X0064044Y0046870D01*
X0064034Y0046917D01*
X0064028Y0046965D01*
X0064026Y0047013D01*
X0071192Y0047013D02*
X0071194Y0047061D01*
X0071200Y0047109D01*
X0071210Y0047156D01*
X0071223Y0047202D01*
X0071241Y0047247D01*
X0071261Y0047291D01*
X0071286Y0047333D01*
X0071314Y0047372D01*
X0071344Y0047409D01*
X0071378Y0047443D01*
X0071415Y0047475D01*
X0071453Y0047504D01*
X0071494Y0047529D01*
X0071537Y0047551D01*
X0071582Y0047569D01*
X0071628Y0047583D01*
X0071675Y0047594D01*
X0071723Y0047601D01*
X0071771Y0047604D01*
X0071819Y0047603D01*
X0071867Y0047598D01*
X0071915Y0047589D01*
X0071961Y0047577D01*
X0072006Y0047560D01*
X0072050Y0047540D01*
X0072092Y0047517D01*
X0072132Y0047490D01*
X0072170Y0047460D01*
X0072205Y0047427D01*
X0072237Y0047391D01*
X0072267Y0047353D01*
X0072293Y0047312D01*
X0072315Y0047269D01*
X0072335Y0047225D01*
X0072350Y0047180D01*
X0072362Y0047133D01*
X0072370Y0047085D01*
X0072374Y0047037D01*
X0072374Y0046989D01*
X0072370Y0046941D01*
X0072362Y0046893D01*
X0072350Y0046846D01*
X0072335Y0046801D01*
X0072315Y0046757D01*
X0072293Y0046714D01*
X0072267Y0046673D01*
X0072237Y0046635D01*
X0072205Y0046599D01*
X0072170Y0046566D01*
X0072132Y0046536D01*
X0072092Y0046509D01*
X0072050Y0046486D01*
X0072006Y0046466D01*
X0071961Y0046449D01*
X0071915Y0046437D01*
X0071867Y0046428D01*
X0071819Y0046423D01*
X0071771Y0046422D01*
X0071723Y0046425D01*
X0071675Y0046432D01*
X0071628Y0046443D01*
X0071582Y0046457D01*
X0071537Y0046475D01*
X0071494Y0046497D01*
X0071453Y0046522D01*
X0071415Y0046551D01*
X0071378Y0046583D01*
X0071344Y0046617D01*
X0071314Y0046654D01*
X0071286Y0046693D01*
X0071261Y0046735D01*
X0071241Y0046779D01*
X0071223Y0046824D01*
X0071210Y0046870D01*
X0071200Y0046917D01*
X0071194Y0046965D01*
X0071192Y0047013D01*
X0071192Y0054415D02*
X0071194Y0054463D01*
X0071200Y0054511D01*
X0071210Y0054558D01*
X0071223Y0054604D01*
X0071241Y0054649D01*
X0071261Y0054693D01*
X0071286Y0054735D01*
X0071314Y0054774D01*
X0071344Y0054811D01*
X0071378Y0054845D01*
X0071415Y0054877D01*
X0071453Y0054906D01*
X0071494Y0054931D01*
X0071537Y0054953D01*
X0071582Y0054971D01*
X0071628Y0054985D01*
X0071675Y0054996D01*
X0071723Y0055003D01*
X0071771Y0055006D01*
X0071819Y0055005D01*
X0071867Y0055000D01*
X0071915Y0054991D01*
X0071961Y0054979D01*
X0072006Y0054962D01*
X0072050Y0054942D01*
X0072092Y0054919D01*
X0072132Y0054892D01*
X0072170Y0054862D01*
X0072205Y0054829D01*
X0072237Y0054793D01*
X0072267Y0054755D01*
X0072293Y0054714D01*
X0072315Y0054671D01*
X0072335Y0054627D01*
X0072350Y0054582D01*
X0072362Y0054535D01*
X0072370Y0054487D01*
X0072374Y0054439D01*
X0072374Y0054391D01*
X0072370Y0054343D01*
X0072362Y0054295D01*
X0072350Y0054248D01*
X0072335Y0054203D01*
X0072315Y0054159D01*
X0072293Y0054116D01*
X0072267Y0054075D01*
X0072237Y0054037D01*
X0072205Y0054001D01*
X0072170Y0053968D01*
X0072132Y0053938D01*
X0072092Y0053911D01*
X0072050Y0053888D01*
X0072006Y0053868D01*
X0071961Y0053851D01*
X0071915Y0053839D01*
X0071867Y0053830D01*
X0071819Y0053825D01*
X0071771Y0053824D01*
X0071723Y0053827D01*
X0071675Y0053834D01*
X0071628Y0053845D01*
X0071582Y0053859D01*
X0071537Y0053877D01*
X0071494Y0053899D01*
X0071453Y0053924D01*
X0071415Y0053953D01*
X0071378Y0053985D01*
X0071344Y0054019D01*
X0071314Y0054056D01*
X0071286Y0054095D01*
X0071261Y0054137D01*
X0071241Y0054181D01*
X0071223Y0054226D01*
X0071210Y0054272D01*
X0071200Y0054319D01*
X0071194Y0054367D01*
X0071192Y0054415D01*
X0078593Y0054415D02*
X0078595Y0054463D01*
X0078601Y0054511D01*
X0078611Y0054558D01*
X0078624Y0054604D01*
X0078642Y0054649D01*
X0078662Y0054693D01*
X0078687Y0054735D01*
X0078715Y0054774D01*
X0078745Y0054811D01*
X0078779Y0054845D01*
X0078816Y0054877D01*
X0078854Y0054906D01*
X0078895Y0054931D01*
X0078938Y0054953D01*
X0078983Y0054971D01*
X0079029Y0054985D01*
X0079076Y0054996D01*
X0079124Y0055003D01*
X0079172Y0055006D01*
X0079220Y0055005D01*
X0079268Y0055000D01*
X0079316Y0054991D01*
X0079362Y0054979D01*
X0079407Y0054962D01*
X0079451Y0054942D01*
X0079493Y0054919D01*
X0079533Y0054892D01*
X0079571Y0054862D01*
X0079606Y0054829D01*
X0079638Y0054793D01*
X0079668Y0054755D01*
X0079694Y0054714D01*
X0079716Y0054671D01*
X0079736Y0054627D01*
X0079751Y0054582D01*
X0079763Y0054535D01*
X0079771Y0054487D01*
X0079775Y0054439D01*
X0079775Y0054391D01*
X0079771Y0054343D01*
X0079763Y0054295D01*
X0079751Y0054248D01*
X0079736Y0054203D01*
X0079716Y0054159D01*
X0079694Y0054116D01*
X0079668Y0054075D01*
X0079638Y0054037D01*
X0079606Y0054001D01*
X0079571Y0053968D01*
X0079533Y0053938D01*
X0079493Y0053911D01*
X0079451Y0053888D01*
X0079407Y0053868D01*
X0079362Y0053851D01*
X0079316Y0053839D01*
X0079268Y0053830D01*
X0079220Y0053825D01*
X0079172Y0053824D01*
X0079124Y0053827D01*
X0079076Y0053834D01*
X0079029Y0053845D01*
X0078983Y0053859D01*
X0078938Y0053877D01*
X0078895Y0053899D01*
X0078854Y0053924D01*
X0078816Y0053953D01*
X0078779Y0053985D01*
X0078745Y0054019D01*
X0078715Y0054056D01*
X0078687Y0054095D01*
X0078662Y0054137D01*
X0078642Y0054181D01*
X0078624Y0054226D01*
X0078611Y0054272D01*
X0078601Y0054319D01*
X0078595Y0054367D01*
X0078593Y0054415D01*
X0078593Y0047013D02*
X0078595Y0047061D01*
X0078601Y0047109D01*
X0078611Y0047156D01*
X0078624Y0047202D01*
X0078642Y0047247D01*
X0078662Y0047291D01*
X0078687Y0047333D01*
X0078715Y0047372D01*
X0078745Y0047409D01*
X0078779Y0047443D01*
X0078816Y0047475D01*
X0078854Y0047504D01*
X0078895Y0047529D01*
X0078938Y0047551D01*
X0078983Y0047569D01*
X0079029Y0047583D01*
X0079076Y0047594D01*
X0079124Y0047601D01*
X0079172Y0047604D01*
X0079220Y0047603D01*
X0079268Y0047598D01*
X0079316Y0047589D01*
X0079362Y0047577D01*
X0079407Y0047560D01*
X0079451Y0047540D01*
X0079493Y0047517D01*
X0079533Y0047490D01*
X0079571Y0047460D01*
X0079606Y0047427D01*
X0079638Y0047391D01*
X0079668Y0047353D01*
X0079694Y0047312D01*
X0079716Y0047269D01*
X0079736Y0047225D01*
X0079751Y0047180D01*
X0079763Y0047133D01*
X0079771Y0047085D01*
X0079775Y0047037D01*
X0079775Y0046989D01*
X0079771Y0046941D01*
X0079763Y0046893D01*
X0079751Y0046846D01*
X0079736Y0046801D01*
X0079716Y0046757D01*
X0079694Y0046714D01*
X0079668Y0046673D01*
X0079638Y0046635D01*
X0079606Y0046599D01*
X0079571Y0046566D01*
X0079533Y0046536D01*
X0079493Y0046509D01*
X0079451Y0046486D01*
X0079407Y0046466D01*
X0079362Y0046449D01*
X0079316Y0046437D01*
X0079268Y0046428D01*
X0079220Y0046423D01*
X0079172Y0046422D01*
X0079124Y0046425D01*
X0079076Y0046432D01*
X0079029Y0046443D01*
X0078983Y0046457D01*
X0078938Y0046475D01*
X0078895Y0046497D01*
X0078854Y0046522D01*
X0078816Y0046551D01*
X0078779Y0046583D01*
X0078745Y0046617D01*
X0078715Y0046654D01*
X0078687Y0046693D01*
X0078662Y0046735D01*
X0078642Y0046779D01*
X0078624Y0046824D01*
X0078611Y0046870D01*
X0078601Y0046917D01*
X0078595Y0046965D01*
X0078593Y0047013D01*
X0087333Y0047013D02*
X0087335Y0047061D01*
X0087341Y0047109D01*
X0087351Y0047156D01*
X0087364Y0047202D01*
X0087382Y0047247D01*
X0087402Y0047291D01*
X0087427Y0047333D01*
X0087455Y0047372D01*
X0087485Y0047409D01*
X0087519Y0047443D01*
X0087556Y0047475D01*
X0087594Y0047504D01*
X0087635Y0047529D01*
X0087678Y0047551D01*
X0087723Y0047569D01*
X0087769Y0047583D01*
X0087816Y0047594D01*
X0087864Y0047601D01*
X0087912Y0047604D01*
X0087960Y0047603D01*
X0088008Y0047598D01*
X0088056Y0047589D01*
X0088102Y0047577D01*
X0088147Y0047560D01*
X0088191Y0047540D01*
X0088233Y0047517D01*
X0088273Y0047490D01*
X0088311Y0047460D01*
X0088346Y0047427D01*
X0088378Y0047391D01*
X0088408Y0047353D01*
X0088434Y0047312D01*
X0088456Y0047269D01*
X0088476Y0047225D01*
X0088491Y0047180D01*
X0088503Y0047133D01*
X0088511Y0047085D01*
X0088515Y0047037D01*
X0088515Y0046989D01*
X0088511Y0046941D01*
X0088503Y0046893D01*
X0088491Y0046846D01*
X0088476Y0046801D01*
X0088456Y0046757D01*
X0088434Y0046714D01*
X0088408Y0046673D01*
X0088378Y0046635D01*
X0088346Y0046599D01*
X0088311Y0046566D01*
X0088273Y0046536D01*
X0088233Y0046509D01*
X0088191Y0046486D01*
X0088147Y0046466D01*
X0088102Y0046449D01*
X0088056Y0046437D01*
X0088008Y0046428D01*
X0087960Y0046423D01*
X0087912Y0046422D01*
X0087864Y0046425D01*
X0087816Y0046432D01*
X0087769Y0046443D01*
X0087723Y0046457D01*
X0087678Y0046475D01*
X0087635Y0046497D01*
X0087594Y0046522D01*
X0087556Y0046551D01*
X0087519Y0046583D01*
X0087485Y0046617D01*
X0087455Y0046654D01*
X0087427Y0046693D01*
X0087402Y0046735D01*
X0087382Y0046779D01*
X0087364Y0046824D01*
X0087351Y0046870D01*
X0087341Y0046917D01*
X0087335Y0046965D01*
X0087333Y0047013D01*
X0087333Y0054415D02*
X0087335Y0054463D01*
X0087341Y0054511D01*
X0087351Y0054558D01*
X0087364Y0054604D01*
X0087382Y0054649D01*
X0087402Y0054693D01*
X0087427Y0054735D01*
X0087455Y0054774D01*
X0087485Y0054811D01*
X0087519Y0054845D01*
X0087556Y0054877D01*
X0087594Y0054906D01*
X0087635Y0054931D01*
X0087678Y0054953D01*
X0087723Y0054971D01*
X0087769Y0054985D01*
X0087816Y0054996D01*
X0087864Y0055003D01*
X0087912Y0055006D01*
X0087960Y0055005D01*
X0088008Y0055000D01*
X0088056Y0054991D01*
X0088102Y0054979D01*
X0088147Y0054962D01*
X0088191Y0054942D01*
X0088233Y0054919D01*
X0088273Y0054892D01*
X0088311Y0054862D01*
X0088346Y0054829D01*
X0088378Y0054793D01*
X0088408Y0054755D01*
X0088434Y0054714D01*
X0088456Y0054671D01*
X0088476Y0054627D01*
X0088491Y0054582D01*
X0088503Y0054535D01*
X0088511Y0054487D01*
X0088515Y0054439D01*
X0088515Y0054391D01*
X0088511Y0054343D01*
X0088503Y0054295D01*
X0088491Y0054248D01*
X0088476Y0054203D01*
X0088456Y0054159D01*
X0088434Y0054116D01*
X0088408Y0054075D01*
X0088378Y0054037D01*
X0088346Y0054001D01*
X0088311Y0053968D01*
X0088273Y0053938D01*
X0088233Y0053911D01*
X0088191Y0053888D01*
X0088147Y0053868D01*
X0088102Y0053851D01*
X0088056Y0053839D01*
X0088008Y0053830D01*
X0087960Y0053825D01*
X0087912Y0053824D01*
X0087864Y0053827D01*
X0087816Y0053834D01*
X0087769Y0053845D01*
X0087723Y0053859D01*
X0087678Y0053877D01*
X0087635Y0053899D01*
X0087594Y0053924D01*
X0087556Y0053953D01*
X0087519Y0053985D01*
X0087485Y0054019D01*
X0087455Y0054056D01*
X0087427Y0054095D01*
X0087402Y0054137D01*
X0087382Y0054181D01*
X0087364Y0054226D01*
X0087351Y0054272D01*
X0087341Y0054319D01*
X0087335Y0054367D01*
X0087333Y0054415D01*
X0094735Y0054415D02*
X0094737Y0054463D01*
X0094743Y0054511D01*
X0094753Y0054558D01*
X0094766Y0054604D01*
X0094784Y0054649D01*
X0094804Y0054693D01*
X0094829Y0054735D01*
X0094857Y0054774D01*
X0094887Y0054811D01*
X0094921Y0054845D01*
X0094958Y0054877D01*
X0094996Y0054906D01*
X0095037Y0054931D01*
X0095080Y0054953D01*
X0095125Y0054971D01*
X0095171Y0054985D01*
X0095218Y0054996D01*
X0095266Y0055003D01*
X0095314Y0055006D01*
X0095362Y0055005D01*
X0095410Y0055000D01*
X0095458Y0054991D01*
X0095504Y0054979D01*
X0095549Y0054962D01*
X0095593Y0054942D01*
X0095635Y0054919D01*
X0095675Y0054892D01*
X0095713Y0054862D01*
X0095748Y0054829D01*
X0095780Y0054793D01*
X0095810Y0054755D01*
X0095836Y0054714D01*
X0095858Y0054671D01*
X0095878Y0054627D01*
X0095893Y0054582D01*
X0095905Y0054535D01*
X0095913Y0054487D01*
X0095917Y0054439D01*
X0095917Y0054391D01*
X0095913Y0054343D01*
X0095905Y0054295D01*
X0095893Y0054248D01*
X0095878Y0054203D01*
X0095858Y0054159D01*
X0095836Y0054116D01*
X0095810Y0054075D01*
X0095780Y0054037D01*
X0095748Y0054001D01*
X0095713Y0053968D01*
X0095675Y0053938D01*
X0095635Y0053911D01*
X0095593Y0053888D01*
X0095549Y0053868D01*
X0095504Y0053851D01*
X0095458Y0053839D01*
X0095410Y0053830D01*
X0095362Y0053825D01*
X0095314Y0053824D01*
X0095266Y0053827D01*
X0095218Y0053834D01*
X0095171Y0053845D01*
X0095125Y0053859D01*
X0095080Y0053877D01*
X0095037Y0053899D01*
X0094996Y0053924D01*
X0094958Y0053953D01*
X0094921Y0053985D01*
X0094887Y0054019D01*
X0094857Y0054056D01*
X0094829Y0054095D01*
X0094804Y0054137D01*
X0094784Y0054181D01*
X0094766Y0054226D01*
X0094753Y0054272D01*
X0094743Y0054319D01*
X0094737Y0054367D01*
X0094735Y0054415D01*
X0094735Y0047013D02*
X0094737Y0047061D01*
X0094743Y0047109D01*
X0094753Y0047156D01*
X0094766Y0047202D01*
X0094784Y0047247D01*
X0094804Y0047291D01*
X0094829Y0047333D01*
X0094857Y0047372D01*
X0094887Y0047409D01*
X0094921Y0047443D01*
X0094958Y0047475D01*
X0094996Y0047504D01*
X0095037Y0047529D01*
X0095080Y0047551D01*
X0095125Y0047569D01*
X0095171Y0047583D01*
X0095218Y0047594D01*
X0095266Y0047601D01*
X0095314Y0047604D01*
X0095362Y0047603D01*
X0095410Y0047598D01*
X0095458Y0047589D01*
X0095504Y0047577D01*
X0095549Y0047560D01*
X0095593Y0047540D01*
X0095635Y0047517D01*
X0095675Y0047490D01*
X0095713Y0047460D01*
X0095748Y0047427D01*
X0095780Y0047391D01*
X0095810Y0047353D01*
X0095836Y0047312D01*
X0095858Y0047269D01*
X0095878Y0047225D01*
X0095893Y0047180D01*
X0095905Y0047133D01*
X0095913Y0047085D01*
X0095917Y0047037D01*
X0095917Y0046989D01*
X0095913Y0046941D01*
X0095905Y0046893D01*
X0095893Y0046846D01*
X0095878Y0046801D01*
X0095858Y0046757D01*
X0095836Y0046714D01*
X0095810Y0046673D01*
X0095780Y0046635D01*
X0095748Y0046599D01*
X0095713Y0046566D01*
X0095675Y0046536D01*
X0095635Y0046509D01*
X0095593Y0046486D01*
X0095549Y0046466D01*
X0095504Y0046449D01*
X0095458Y0046437D01*
X0095410Y0046428D01*
X0095362Y0046423D01*
X0095314Y0046422D01*
X0095266Y0046425D01*
X0095218Y0046432D01*
X0095171Y0046443D01*
X0095125Y0046457D01*
X0095080Y0046475D01*
X0095037Y0046497D01*
X0094996Y0046522D01*
X0094958Y0046551D01*
X0094921Y0046583D01*
X0094887Y0046617D01*
X0094857Y0046654D01*
X0094829Y0046693D01*
X0094804Y0046735D01*
X0094784Y0046779D01*
X0094766Y0046824D01*
X0094753Y0046870D01*
X0094743Y0046917D01*
X0094737Y0046965D01*
X0094735Y0047013D01*
X0101900Y0047013D02*
X0101902Y0047061D01*
X0101908Y0047109D01*
X0101918Y0047156D01*
X0101931Y0047202D01*
X0101949Y0047247D01*
X0101969Y0047291D01*
X0101994Y0047333D01*
X0102022Y0047372D01*
X0102052Y0047409D01*
X0102086Y0047443D01*
X0102123Y0047475D01*
X0102161Y0047504D01*
X0102202Y0047529D01*
X0102245Y0047551D01*
X0102290Y0047569D01*
X0102336Y0047583D01*
X0102383Y0047594D01*
X0102431Y0047601D01*
X0102479Y0047604D01*
X0102527Y0047603D01*
X0102575Y0047598D01*
X0102623Y0047589D01*
X0102669Y0047577D01*
X0102714Y0047560D01*
X0102758Y0047540D01*
X0102800Y0047517D01*
X0102840Y0047490D01*
X0102878Y0047460D01*
X0102913Y0047427D01*
X0102945Y0047391D01*
X0102975Y0047353D01*
X0103001Y0047312D01*
X0103023Y0047269D01*
X0103043Y0047225D01*
X0103058Y0047180D01*
X0103070Y0047133D01*
X0103078Y0047085D01*
X0103082Y0047037D01*
X0103082Y0046989D01*
X0103078Y0046941D01*
X0103070Y0046893D01*
X0103058Y0046846D01*
X0103043Y0046801D01*
X0103023Y0046757D01*
X0103001Y0046714D01*
X0102975Y0046673D01*
X0102945Y0046635D01*
X0102913Y0046599D01*
X0102878Y0046566D01*
X0102840Y0046536D01*
X0102800Y0046509D01*
X0102758Y0046486D01*
X0102714Y0046466D01*
X0102669Y0046449D01*
X0102623Y0046437D01*
X0102575Y0046428D01*
X0102527Y0046423D01*
X0102479Y0046422D01*
X0102431Y0046425D01*
X0102383Y0046432D01*
X0102336Y0046443D01*
X0102290Y0046457D01*
X0102245Y0046475D01*
X0102202Y0046497D01*
X0102161Y0046522D01*
X0102123Y0046551D01*
X0102086Y0046583D01*
X0102052Y0046617D01*
X0102022Y0046654D01*
X0101994Y0046693D01*
X0101969Y0046735D01*
X0101949Y0046779D01*
X0101931Y0046824D01*
X0101918Y0046870D01*
X0101908Y0046917D01*
X0101902Y0046965D01*
X0101900Y0047013D01*
X0101900Y0054415D02*
X0101902Y0054463D01*
X0101908Y0054511D01*
X0101918Y0054558D01*
X0101931Y0054604D01*
X0101949Y0054649D01*
X0101969Y0054693D01*
X0101994Y0054735D01*
X0102022Y0054774D01*
X0102052Y0054811D01*
X0102086Y0054845D01*
X0102123Y0054877D01*
X0102161Y0054906D01*
X0102202Y0054931D01*
X0102245Y0054953D01*
X0102290Y0054971D01*
X0102336Y0054985D01*
X0102383Y0054996D01*
X0102431Y0055003D01*
X0102479Y0055006D01*
X0102527Y0055005D01*
X0102575Y0055000D01*
X0102623Y0054991D01*
X0102669Y0054979D01*
X0102714Y0054962D01*
X0102758Y0054942D01*
X0102800Y0054919D01*
X0102840Y0054892D01*
X0102878Y0054862D01*
X0102913Y0054829D01*
X0102945Y0054793D01*
X0102975Y0054755D01*
X0103001Y0054714D01*
X0103023Y0054671D01*
X0103043Y0054627D01*
X0103058Y0054582D01*
X0103070Y0054535D01*
X0103078Y0054487D01*
X0103082Y0054439D01*
X0103082Y0054391D01*
X0103078Y0054343D01*
X0103070Y0054295D01*
X0103058Y0054248D01*
X0103043Y0054203D01*
X0103023Y0054159D01*
X0103001Y0054116D01*
X0102975Y0054075D01*
X0102945Y0054037D01*
X0102913Y0054001D01*
X0102878Y0053968D01*
X0102840Y0053938D01*
X0102800Y0053911D01*
X0102758Y0053888D01*
X0102714Y0053868D01*
X0102669Y0053851D01*
X0102623Y0053839D01*
X0102575Y0053830D01*
X0102527Y0053825D01*
X0102479Y0053824D01*
X0102431Y0053827D01*
X0102383Y0053834D01*
X0102336Y0053845D01*
X0102290Y0053859D01*
X0102245Y0053877D01*
X0102202Y0053899D01*
X0102161Y0053924D01*
X0102123Y0053953D01*
X0102086Y0053985D01*
X0102052Y0054019D01*
X0102022Y0054056D01*
X0101994Y0054095D01*
X0101969Y0054137D01*
X0101949Y0054181D01*
X0101931Y0054226D01*
X0101918Y0054272D01*
X0101908Y0054319D01*
X0101902Y0054367D01*
X0101900Y0054415D01*
X0109302Y0054415D02*
X0109304Y0054463D01*
X0109310Y0054511D01*
X0109320Y0054558D01*
X0109333Y0054604D01*
X0109351Y0054649D01*
X0109371Y0054693D01*
X0109396Y0054735D01*
X0109424Y0054774D01*
X0109454Y0054811D01*
X0109488Y0054845D01*
X0109525Y0054877D01*
X0109563Y0054906D01*
X0109604Y0054931D01*
X0109647Y0054953D01*
X0109692Y0054971D01*
X0109738Y0054985D01*
X0109785Y0054996D01*
X0109833Y0055003D01*
X0109881Y0055006D01*
X0109929Y0055005D01*
X0109977Y0055000D01*
X0110025Y0054991D01*
X0110071Y0054979D01*
X0110116Y0054962D01*
X0110160Y0054942D01*
X0110202Y0054919D01*
X0110242Y0054892D01*
X0110280Y0054862D01*
X0110315Y0054829D01*
X0110347Y0054793D01*
X0110377Y0054755D01*
X0110403Y0054714D01*
X0110425Y0054671D01*
X0110445Y0054627D01*
X0110460Y0054582D01*
X0110472Y0054535D01*
X0110480Y0054487D01*
X0110484Y0054439D01*
X0110484Y0054391D01*
X0110480Y0054343D01*
X0110472Y0054295D01*
X0110460Y0054248D01*
X0110445Y0054203D01*
X0110425Y0054159D01*
X0110403Y0054116D01*
X0110377Y0054075D01*
X0110347Y0054037D01*
X0110315Y0054001D01*
X0110280Y0053968D01*
X0110242Y0053938D01*
X0110202Y0053911D01*
X0110160Y0053888D01*
X0110116Y0053868D01*
X0110071Y0053851D01*
X0110025Y0053839D01*
X0109977Y0053830D01*
X0109929Y0053825D01*
X0109881Y0053824D01*
X0109833Y0053827D01*
X0109785Y0053834D01*
X0109738Y0053845D01*
X0109692Y0053859D01*
X0109647Y0053877D01*
X0109604Y0053899D01*
X0109563Y0053924D01*
X0109525Y0053953D01*
X0109488Y0053985D01*
X0109454Y0054019D01*
X0109424Y0054056D01*
X0109396Y0054095D01*
X0109371Y0054137D01*
X0109351Y0054181D01*
X0109333Y0054226D01*
X0109320Y0054272D01*
X0109310Y0054319D01*
X0109304Y0054367D01*
X0109302Y0054415D01*
X0109302Y0047013D02*
X0109304Y0047061D01*
X0109310Y0047109D01*
X0109320Y0047156D01*
X0109333Y0047202D01*
X0109351Y0047247D01*
X0109371Y0047291D01*
X0109396Y0047333D01*
X0109424Y0047372D01*
X0109454Y0047409D01*
X0109488Y0047443D01*
X0109525Y0047475D01*
X0109563Y0047504D01*
X0109604Y0047529D01*
X0109647Y0047551D01*
X0109692Y0047569D01*
X0109738Y0047583D01*
X0109785Y0047594D01*
X0109833Y0047601D01*
X0109881Y0047604D01*
X0109929Y0047603D01*
X0109977Y0047598D01*
X0110025Y0047589D01*
X0110071Y0047577D01*
X0110116Y0047560D01*
X0110160Y0047540D01*
X0110202Y0047517D01*
X0110242Y0047490D01*
X0110280Y0047460D01*
X0110315Y0047427D01*
X0110347Y0047391D01*
X0110377Y0047353D01*
X0110403Y0047312D01*
X0110425Y0047269D01*
X0110445Y0047225D01*
X0110460Y0047180D01*
X0110472Y0047133D01*
X0110480Y0047085D01*
X0110484Y0047037D01*
X0110484Y0046989D01*
X0110480Y0046941D01*
X0110472Y0046893D01*
X0110460Y0046846D01*
X0110445Y0046801D01*
X0110425Y0046757D01*
X0110403Y0046714D01*
X0110377Y0046673D01*
X0110347Y0046635D01*
X0110315Y0046599D01*
X0110280Y0046566D01*
X0110242Y0046536D01*
X0110202Y0046509D01*
X0110160Y0046486D01*
X0110116Y0046466D01*
X0110071Y0046449D01*
X0110025Y0046437D01*
X0109977Y0046428D01*
X0109929Y0046423D01*
X0109881Y0046422D01*
X0109833Y0046425D01*
X0109785Y0046432D01*
X0109738Y0046443D01*
X0109692Y0046457D01*
X0109647Y0046475D01*
X0109604Y0046497D01*
X0109563Y0046522D01*
X0109525Y0046551D01*
X0109488Y0046583D01*
X0109454Y0046617D01*
X0109424Y0046654D01*
X0109396Y0046693D01*
X0109371Y0046735D01*
X0109351Y0046779D01*
X0109333Y0046824D01*
X0109320Y0046870D01*
X0109310Y0046917D01*
X0109304Y0046965D01*
X0109302Y0047013D01*
D11*
X0096275Y0093692D02*
X0096275Y0095414D01*
X0097605Y0095414D01*
X0097605Y0093692D01*
X0096275Y0093692D01*
X0096275Y0094134D02*
X0097605Y0094134D01*
X0097605Y0094576D02*
X0096275Y0094576D01*
X0096275Y0095018D02*
X0097605Y0095018D01*
X0098107Y0095915D02*
X0099829Y0095915D01*
X0098107Y0095915D02*
X0098107Y0097245D01*
X0099829Y0097245D01*
X0099829Y0095915D01*
X0099829Y0096357D02*
X0098107Y0096357D01*
X0098107Y0096799D02*
X0099829Y0096799D01*
X0099829Y0097241D02*
X0098107Y0097241D01*
X0098107Y0097884D02*
X0099829Y0097884D01*
X0098107Y0097884D02*
X0098107Y0099214D01*
X0099829Y0099214D01*
X0099829Y0097884D01*
X0099829Y0098326D02*
X0098107Y0098326D01*
X0098107Y0098768D02*
X0099829Y0098768D01*
X0099829Y0099210D02*
X0098107Y0099210D01*
X0098107Y0099852D02*
X0099829Y0099852D01*
X0098107Y0099852D02*
X0098107Y0101182D01*
X0099829Y0101182D01*
X0099829Y0099852D01*
X0099829Y0100294D02*
X0098107Y0100294D01*
X0098107Y0100736D02*
X0099829Y0100736D01*
X0099829Y0101178D02*
X0098107Y0101178D01*
X0098107Y0101821D02*
X0099829Y0101821D01*
X0098107Y0101821D02*
X0098107Y0103151D01*
X0099829Y0103151D01*
X0099829Y0101821D01*
X0099829Y0102263D02*
X0098107Y0102263D01*
X0098107Y0102705D02*
X0099829Y0102705D01*
X0099829Y0103147D02*
X0098107Y0103147D01*
X0098107Y0103789D02*
X0099829Y0103789D01*
X0098107Y0103789D02*
X0098107Y0105119D01*
X0099829Y0105119D01*
X0099829Y0103789D01*
X0099829Y0104231D02*
X0098107Y0104231D01*
X0098107Y0104673D02*
X0099829Y0104673D01*
X0099829Y0105115D02*
X0098107Y0105115D01*
X0098107Y0105758D02*
X0099829Y0105758D01*
X0098107Y0105758D02*
X0098107Y0107088D01*
X0099829Y0107088D01*
X0099829Y0105758D01*
X0099829Y0106200D02*
X0098107Y0106200D01*
X0098107Y0106642D02*
X0099829Y0106642D01*
X0099829Y0107084D02*
X0098107Y0107084D01*
X0098107Y0107726D02*
X0099829Y0107726D01*
X0098107Y0107726D02*
X0098107Y0109056D01*
X0099829Y0109056D01*
X0099829Y0107726D01*
X0099829Y0108168D02*
X0098107Y0108168D01*
X0098107Y0108610D02*
X0099829Y0108610D01*
X0099829Y0109052D02*
X0098107Y0109052D01*
X0098107Y0109695D02*
X0099829Y0109695D01*
X0098107Y0109695D02*
X0098107Y0111025D01*
X0099829Y0111025D01*
X0099829Y0109695D01*
X0099829Y0110137D02*
X0098107Y0110137D01*
X0098107Y0110579D02*
X0099829Y0110579D01*
X0099829Y0111021D02*
X0098107Y0111021D01*
X0098107Y0111663D02*
X0099829Y0111663D01*
X0098107Y0111663D02*
X0098107Y0112993D01*
X0099829Y0112993D01*
X0099829Y0111663D01*
X0099829Y0112105D02*
X0098107Y0112105D01*
X0098107Y0112547D02*
X0099829Y0112547D01*
X0099829Y0112989D02*
X0098107Y0112989D01*
X0098107Y0113632D02*
X0099829Y0113632D01*
X0098107Y0113632D02*
X0098107Y0114962D01*
X0099829Y0114962D01*
X0099829Y0113632D01*
X0099829Y0114074D02*
X0098107Y0114074D01*
X0098107Y0114516D02*
X0099829Y0114516D01*
X0099829Y0114958D02*
X0098107Y0114958D01*
X0098107Y0115600D02*
X0099829Y0115600D01*
X0098107Y0115600D02*
X0098107Y0116930D01*
X0099829Y0116930D01*
X0099829Y0115600D01*
X0099829Y0116042D02*
X0098107Y0116042D01*
X0098107Y0116484D02*
X0099829Y0116484D01*
X0099829Y0116926D02*
X0098107Y0116926D01*
X0098107Y0117569D02*
X0099829Y0117569D01*
X0098107Y0117569D02*
X0098107Y0118899D01*
X0099829Y0118899D01*
X0099829Y0117569D01*
X0099829Y0118011D02*
X0098107Y0118011D01*
X0098107Y0118453D02*
X0099829Y0118453D01*
X0099829Y0118895D02*
X0098107Y0118895D01*
X0097605Y0119400D02*
X0097605Y0121122D01*
X0097605Y0119400D02*
X0096275Y0119400D01*
X0096275Y0121122D01*
X0097605Y0121122D01*
X0097605Y0119842D02*
X0096275Y0119842D01*
X0096275Y0120284D02*
X0097605Y0120284D01*
X0097605Y0120726D02*
X0096275Y0120726D01*
X0095637Y0121122D02*
X0095637Y0119400D01*
X0094307Y0119400D01*
X0094307Y0121122D01*
X0095637Y0121122D01*
X0095637Y0119842D02*
X0094307Y0119842D01*
X0094307Y0120284D02*
X0095637Y0120284D01*
X0095637Y0120726D02*
X0094307Y0120726D01*
X0093668Y0121122D02*
X0093668Y0119400D01*
X0092338Y0119400D01*
X0092338Y0121122D01*
X0093668Y0121122D01*
X0093668Y0119842D02*
X0092338Y0119842D01*
X0092338Y0120284D02*
X0093668Y0120284D01*
X0093668Y0120726D02*
X0092338Y0120726D01*
X0091700Y0121122D02*
X0091700Y0119400D01*
X0090370Y0119400D01*
X0090370Y0121122D01*
X0091700Y0121122D01*
X0091700Y0119842D02*
X0090370Y0119842D01*
X0090370Y0120284D02*
X0091700Y0120284D01*
X0091700Y0120726D02*
X0090370Y0120726D01*
X0089731Y0121122D02*
X0089731Y0119400D01*
X0088401Y0119400D01*
X0088401Y0121122D01*
X0089731Y0121122D01*
X0089731Y0119842D02*
X0088401Y0119842D01*
X0088401Y0120284D02*
X0089731Y0120284D01*
X0089731Y0120726D02*
X0088401Y0120726D01*
X0087763Y0121122D02*
X0087763Y0119400D01*
X0086433Y0119400D01*
X0086433Y0121122D01*
X0087763Y0121122D01*
X0087763Y0119842D02*
X0086433Y0119842D01*
X0086433Y0120284D02*
X0087763Y0120284D01*
X0087763Y0120726D02*
X0086433Y0120726D01*
X0085794Y0121122D02*
X0085794Y0119400D01*
X0084464Y0119400D01*
X0084464Y0121122D01*
X0085794Y0121122D01*
X0085794Y0119842D02*
X0084464Y0119842D01*
X0084464Y0120284D02*
X0085794Y0120284D01*
X0085794Y0120726D02*
X0084464Y0120726D01*
X0083826Y0121122D02*
X0083826Y0119400D01*
X0082496Y0119400D01*
X0082496Y0121122D01*
X0083826Y0121122D01*
X0083826Y0119842D02*
X0082496Y0119842D01*
X0082496Y0120284D02*
X0083826Y0120284D01*
X0083826Y0120726D02*
X0082496Y0120726D01*
X0081857Y0121122D02*
X0081857Y0119400D01*
X0080527Y0119400D01*
X0080527Y0121122D01*
X0081857Y0121122D01*
X0081857Y0119842D02*
X0080527Y0119842D01*
X0080527Y0120284D02*
X0081857Y0120284D01*
X0081857Y0120726D02*
X0080527Y0120726D01*
X0079889Y0121122D02*
X0079889Y0119400D01*
X0078559Y0119400D01*
X0078559Y0121122D01*
X0079889Y0121122D01*
X0079889Y0119842D02*
X0078559Y0119842D01*
X0078559Y0120284D02*
X0079889Y0120284D01*
X0079889Y0120726D02*
X0078559Y0120726D01*
X0077920Y0121122D02*
X0077920Y0119400D01*
X0076590Y0119400D01*
X0076590Y0121122D01*
X0077920Y0121122D01*
X0077920Y0119842D02*
X0076590Y0119842D01*
X0076590Y0120284D02*
X0077920Y0120284D01*
X0077920Y0120726D02*
X0076590Y0120726D01*
X0075952Y0121122D02*
X0075952Y0119400D01*
X0074622Y0119400D01*
X0074622Y0121122D01*
X0075952Y0121122D01*
X0075952Y0119842D02*
X0074622Y0119842D01*
X0074622Y0120284D02*
X0075952Y0120284D01*
X0075952Y0120726D02*
X0074622Y0120726D01*
X0074120Y0118899D02*
X0072398Y0118899D01*
X0074120Y0118899D02*
X0074120Y0117569D01*
X0072398Y0117569D01*
X0072398Y0118899D01*
X0072398Y0118011D02*
X0074120Y0118011D01*
X0074120Y0118453D02*
X0072398Y0118453D01*
X0072398Y0118895D02*
X0074120Y0118895D01*
X0074120Y0116930D02*
X0072398Y0116930D01*
X0074120Y0116930D02*
X0074120Y0115600D01*
X0072398Y0115600D01*
X0072398Y0116930D01*
X0072398Y0116042D02*
X0074120Y0116042D01*
X0074120Y0116484D02*
X0072398Y0116484D01*
X0072398Y0116926D02*
X0074120Y0116926D01*
X0074120Y0114962D02*
X0072398Y0114962D01*
X0074120Y0114962D02*
X0074120Y0113632D01*
X0072398Y0113632D01*
X0072398Y0114962D01*
X0072398Y0114074D02*
X0074120Y0114074D01*
X0074120Y0114516D02*
X0072398Y0114516D01*
X0072398Y0114958D02*
X0074120Y0114958D01*
X0074120Y0112993D02*
X0072398Y0112993D01*
X0074120Y0112993D02*
X0074120Y0111663D01*
X0072398Y0111663D01*
X0072398Y0112993D01*
X0072398Y0112105D02*
X0074120Y0112105D01*
X0074120Y0112547D02*
X0072398Y0112547D01*
X0072398Y0112989D02*
X0074120Y0112989D01*
X0074120Y0111025D02*
X0072398Y0111025D01*
X0074120Y0111025D02*
X0074120Y0109695D01*
X0072398Y0109695D01*
X0072398Y0111025D01*
X0072398Y0110137D02*
X0074120Y0110137D01*
X0074120Y0110579D02*
X0072398Y0110579D01*
X0072398Y0111021D02*
X0074120Y0111021D01*
X0074120Y0109056D02*
X0072398Y0109056D01*
X0074120Y0109056D02*
X0074120Y0107726D01*
X0072398Y0107726D01*
X0072398Y0109056D01*
X0072398Y0108168D02*
X0074120Y0108168D01*
X0074120Y0108610D02*
X0072398Y0108610D01*
X0072398Y0109052D02*
X0074120Y0109052D01*
X0074120Y0107088D02*
X0072398Y0107088D01*
X0074120Y0107088D02*
X0074120Y0105758D01*
X0072398Y0105758D01*
X0072398Y0107088D01*
X0072398Y0106200D02*
X0074120Y0106200D01*
X0074120Y0106642D02*
X0072398Y0106642D01*
X0072398Y0107084D02*
X0074120Y0107084D01*
X0074120Y0105119D02*
X0072398Y0105119D01*
X0074120Y0105119D02*
X0074120Y0103789D01*
X0072398Y0103789D01*
X0072398Y0105119D01*
X0072398Y0104231D02*
X0074120Y0104231D01*
X0074120Y0104673D02*
X0072398Y0104673D01*
X0072398Y0105115D02*
X0074120Y0105115D01*
X0074120Y0103151D02*
X0072398Y0103151D01*
X0074120Y0103151D02*
X0074120Y0101821D01*
X0072398Y0101821D01*
X0072398Y0103151D01*
X0072398Y0102263D02*
X0074120Y0102263D01*
X0074120Y0102705D02*
X0072398Y0102705D01*
X0072398Y0103147D02*
X0074120Y0103147D01*
X0074120Y0101182D02*
X0072398Y0101182D01*
X0074120Y0101182D02*
X0074120Y0099852D01*
X0072398Y0099852D01*
X0072398Y0101182D01*
X0072398Y0100294D02*
X0074120Y0100294D01*
X0074120Y0100736D02*
X0072398Y0100736D01*
X0072398Y0101178D02*
X0074120Y0101178D01*
X0074120Y0099214D02*
X0072398Y0099214D01*
X0074120Y0099214D02*
X0074120Y0097884D01*
X0072398Y0097884D01*
X0072398Y0099214D01*
X0072398Y0098326D02*
X0074120Y0098326D01*
X0074120Y0098768D02*
X0072398Y0098768D01*
X0072398Y0099210D02*
X0074120Y0099210D01*
X0074120Y0097245D02*
X0072398Y0097245D01*
X0074120Y0097245D02*
X0074120Y0095915D01*
X0072398Y0095915D01*
X0072398Y0097245D01*
X0072398Y0096357D02*
X0074120Y0096357D01*
X0074120Y0096799D02*
X0072398Y0096799D01*
X0072398Y0097241D02*
X0074120Y0097241D01*
X0074622Y0095414D02*
X0074622Y0093692D01*
X0074622Y0095414D02*
X0075952Y0095414D01*
X0075952Y0093692D01*
X0074622Y0093692D01*
X0074622Y0094134D02*
X0075952Y0094134D01*
X0075952Y0094576D02*
X0074622Y0094576D01*
X0074622Y0095018D02*
X0075952Y0095018D01*
X0076590Y0095414D02*
X0076590Y0093692D01*
X0076590Y0095414D02*
X0077920Y0095414D01*
X0077920Y0093692D01*
X0076590Y0093692D01*
X0076590Y0094134D02*
X0077920Y0094134D01*
X0077920Y0094576D02*
X0076590Y0094576D01*
X0076590Y0095018D02*
X0077920Y0095018D01*
X0078559Y0095414D02*
X0078559Y0093692D01*
X0078559Y0095414D02*
X0079889Y0095414D01*
X0079889Y0093692D01*
X0078559Y0093692D01*
X0078559Y0094134D02*
X0079889Y0094134D01*
X0079889Y0094576D02*
X0078559Y0094576D01*
X0078559Y0095018D02*
X0079889Y0095018D01*
X0080527Y0095414D02*
X0080527Y0093692D01*
X0080527Y0095414D02*
X0081857Y0095414D01*
X0081857Y0093692D01*
X0080527Y0093692D01*
X0080527Y0094134D02*
X0081857Y0094134D01*
X0081857Y0094576D02*
X0080527Y0094576D01*
X0080527Y0095018D02*
X0081857Y0095018D01*
X0082496Y0095414D02*
X0082496Y0093692D01*
X0082496Y0095414D02*
X0083826Y0095414D01*
X0083826Y0093692D01*
X0082496Y0093692D01*
X0082496Y0094134D02*
X0083826Y0094134D01*
X0083826Y0094576D02*
X0082496Y0094576D01*
X0082496Y0095018D02*
X0083826Y0095018D01*
X0084464Y0095414D02*
X0084464Y0093692D01*
X0084464Y0095414D02*
X0085794Y0095414D01*
X0085794Y0093692D01*
X0084464Y0093692D01*
X0084464Y0094134D02*
X0085794Y0094134D01*
X0085794Y0094576D02*
X0084464Y0094576D01*
X0084464Y0095018D02*
X0085794Y0095018D01*
X0086433Y0095414D02*
X0086433Y0093692D01*
X0086433Y0095414D02*
X0087763Y0095414D01*
X0087763Y0093692D01*
X0086433Y0093692D01*
X0086433Y0094134D02*
X0087763Y0094134D01*
X0087763Y0094576D02*
X0086433Y0094576D01*
X0086433Y0095018D02*
X0087763Y0095018D01*
X0088401Y0095414D02*
X0088401Y0093692D01*
X0088401Y0095414D02*
X0089731Y0095414D01*
X0089731Y0093692D01*
X0088401Y0093692D01*
X0088401Y0094134D02*
X0089731Y0094134D01*
X0089731Y0094576D02*
X0088401Y0094576D01*
X0088401Y0095018D02*
X0089731Y0095018D01*
X0090370Y0095414D02*
X0090370Y0093692D01*
X0090370Y0095414D02*
X0091700Y0095414D01*
X0091700Y0093692D01*
X0090370Y0093692D01*
X0090370Y0094134D02*
X0091700Y0094134D01*
X0091700Y0094576D02*
X0090370Y0094576D01*
X0090370Y0095018D02*
X0091700Y0095018D01*
X0092338Y0095414D02*
X0092338Y0093692D01*
X0092338Y0095414D02*
X0093668Y0095414D01*
X0093668Y0093692D01*
X0092338Y0093692D01*
X0092338Y0094134D02*
X0093668Y0094134D01*
X0093668Y0094576D02*
X0092338Y0094576D01*
X0092338Y0095018D02*
X0093668Y0095018D01*
X0094307Y0095414D02*
X0094307Y0093692D01*
X0094307Y0095414D02*
X0095637Y0095414D01*
X0095637Y0093692D01*
X0094307Y0093692D01*
X0094307Y0094134D02*
X0095637Y0094134D01*
X0095637Y0094576D02*
X0094307Y0094576D01*
X0094307Y0095018D02*
X0095637Y0095018D01*
D12*
X0086113Y0107407D03*
D13*
X0084539Y0123943D03*
X0080602Y0123943D03*
X0072728Y0132604D03*
X0068791Y0132604D03*
X0070365Y0113706D03*
X0066428Y0113706D03*
X0088909Y0085754D03*
X0092846Y0085754D03*
X0096743Y0085754D03*
X0100680Y0085754D03*
X0104420Y0087368D03*
X0108357Y0087368D03*
X0108357Y0091856D03*
X0104420Y0091856D03*
X0097531Y0089691D03*
X0093594Y0089691D03*
X0093987Y0125911D03*
X0097924Y0125911D03*
D14*
X0086704Y0130832D03*
X0076861Y0130832D03*
D15*
X0071940Y0127880D03*
X0071940Y0123943D03*
X0069972Y0095596D03*
X0069972Y0091659D03*
X0073121Y0079061D03*
X0073121Y0075124D03*
X0102570Y0106147D03*
X0102570Y0110084D03*
X0109735Y0121187D03*
X0109735Y0125124D03*
D16*
X0057373Y0126935D03*
X0057373Y0116935D03*
X0057373Y0106935D03*
X0057373Y0096935D03*
X0057373Y0086935D03*
D17*
X0102452Y0098549D03*
X0107570Y0098549D03*
D18*
X0106192Y0050714D03*
X0091625Y0050714D03*
X0075483Y0050714D03*
X0060917Y0050714D03*
D19*
X0064617Y0054415D03*
X0057216Y0054415D03*
X0057216Y0047013D03*
X0064617Y0047013D03*
X0071783Y0047013D03*
X0079184Y0047013D03*
X0079184Y0054415D03*
X0071783Y0054415D03*
X0087924Y0054415D03*
X0087924Y0047013D03*
X0095326Y0047013D03*
X0102491Y0047013D03*
X0109893Y0047013D03*
X0109893Y0054415D03*
X0102491Y0054415D03*
X0095326Y0054415D03*
D20*
X0108121Y0064336D03*
X0108121Y0071187D03*
X0056035Y0071187D03*
X0056035Y0064336D03*
D21*
X0078417Y0071384D03*
X0078417Y0075124D03*
X0078417Y0078864D03*
X0087511Y0078864D03*
X0087511Y0075124D03*
X0087511Y0071384D03*
D22*
X0068397Y0070399D03*
X0068397Y0077486D03*
D23*
X0100680Y0079848D03*
M02*
