G75*
%MOIN*%
%OFA0B0*%
%FSLAX25Y25*%
%IPPOS*%
%LPD*%
%AMOC8*
5,1,8,0,0,1.08239X$1,22.5*
%
%ADD10C,0.00000*%
%ADD11R,0.07520X0.07520*%
%ADD12C,0.00344*%
%ADD13R,0.02362X0.02756*%
%ADD14R,0.03937X0.06693*%
%ADD15R,0.02756X0.02362*%
%ADD16R,0.02756X0.03543*%
%ADD17R,0.03150X0.04724*%
%ADD18R,0.02283X0.04724*%
%ADD19R,0.07874X0.07874*%
D10*
X0051468Y0044415D02*
X0112491Y0044415D01*
X0112491Y0087722D01*
X0112491Y0079848D02*
X0112491Y0138903D01*
X0051468Y0138903D01*
X0051468Y0044415D01*
X0056625Y0047013D02*
X0056627Y0047061D01*
X0056633Y0047109D01*
X0056643Y0047156D01*
X0056656Y0047202D01*
X0056674Y0047247D01*
X0056694Y0047291D01*
X0056719Y0047333D01*
X0056747Y0047372D01*
X0056777Y0047409D01*
X0056811Y0047443D01*
X0056848Y0047475D01*
X0056886Y0047504D01*
X0056927Y0047529D01*
X0056970Y0047551D01*
X0057015Y0047569D01*
X0057061Y0047583D01*
X0057108Y0047594D01*
X0057156Y0047601D01*
X0057204Y0047604D01*
X0057252Y0047603D01*
X0057300Y0047598D01*
X0057348Y0047589D01*
X0057394Y0047577D01*
X0057439Y0047560D01*
X0057483Y0047540D01*
X0057525Y0047517D01*
X0057565Y0047490D01*
X0057603Y0047460D01*
X0057638Y0047427D01*
X0057670Y0047391D01*
X0057700Y0047353D01*
X0057726Y0047312D01*
X0057748Y0047269D01*
X0057768Y0047225D01*
X0057783Y0047180D01*
X0057795Y0047133D01*
X0057803Y0047085D01*
X0057807Y0047037D01*
X0057807Y0046989D01*
X0057803Y0046941D01*
X0057795Y0046893D01*
X0057783Y0046846D01*
X0057768Y0046801D01*
X0057748Y0046757D01*
X0057726Y0046714D01*
X0057700Y0046673D01*
X0057670Y0046635D01*
X0057638Y0046599D01*
X0057603Y0046566D01*
X0057565Y0046536D01*
X0057525Y0046509D01*
X0057483Y0046486D01*
X0057439Y0046466D01*
X0057394Y0046449D01*
X0057348Y0046437D01*
X0057300Y0046428D01*
X0057252Y0046423D01*
X0057204Y0046422D01*
X0057156Y0046425D01*
X0057108Y0046432D01*
X0057061Y0046443D01*
X0057015Y0046457D01*
X0056970Y0046475D01*
X0056927Y0046497D01*
X0056886Y0046522D01*
X0056848Y0046551D01*
X0056811Y0046583D01*
X0056777Y0046617D01*
X0056747Y0046654D01*
X0056719Y0046693D01*
X0056694Y0046735D01*
X0056674Y0046779D01*
X0056656Y0046824D01*
X0056643Y0046870D01*
X0056633Y0046917D01*
X0056627Y0046965D01*
X0056625Y0047013D01*
X0056625Y0054415D02*
X0056627Y0054463D01*
X0056633Y0054511D01*
X0056643Y0054558D01*
X0056656Y0054604D01*
X0056674Y0054649D01*
X0056694Y0054693D01*
X0056719Y0054735D01*
X0056747Y0054774D01*
X0056777Y0054811D01*
X0056811Y0054845D01*
X0056848Y0054877D01*
X0056886Y0054906D01*
X0056927Y0054931D01*
X0056970Y0054953D01*
X0057015Y0054971D01*
X0057061Y0054985D01*
X0057108Y0054996D01*
X0057156Y0055003D01*
X0057204Y0055006D01*
X0057252Y0055005D01*
X0057300Y0055000D01*
X0057348Y0054991D01*
X0057394Y0054979D01*
X0057439Y0054962D01*
X0057483Y0054942D01*
X0057525Y0054919D01*
X0057565Y0054892D01*
X0057603Y0054862D01*
X0057638Y0054829D01*
X0057670Y0054793D01*
X0057700Y0054755D01*
X0057726Y0054714D01*
X0057748Y0054671D01*
X0057768Y0054627D01*
X0057783Y0054582D01*
X0057795Y0054535D01*
X0057803Y0054487D01*
X0057807Y0054439D01*
X0057807Y0054391D01*
X0057803Y0054343D01*
X0057795Y0054295D01*
X0057783Y0054248D01*
X0057768Y0054203D01*
X0057748Y0054159D01*
X0057726Y0054116D01*
X0057700Y0054075D01*
X0057670Y0054037D01*
X0057638Y0054001D01*
X0057603Y0053968D01*
X0057565Y0053938D01*
X0057525Y0053911D01*
X0057483Y0053888D01*
X0057439Y0053868D01*
X0057394Y0053851D01*
X0057348Y0053839D01*
X0057300Y0053830D01*
X0057252Y0053825D01*
X0057204Y0053824D01*
X0057156Y0053827D01*
X0057108Y0053834D01*
X0057061Y0053845D01*
X0057015Y0053859D01*
X0056970Y0053877D01*
X0056927Y0053899D01*
X0056886Y0053924D01*
X0056848Y0053953D01*
X0056811Y0053985D01*
X0056777Y0054019D01*
X0056747Y0054056D01*
X0056719Y0054095D01*
X0056694Y0054137D01*
X0056674Y0054181D01*
X0056656Y0054226D01*
X0056643Y0054272D01*
X0056633Y0054319D01*
X0056627Y0054367D01*
X0056625Y0054415D01*
X0064026Y0054415D02*
X0064028Y0054463D01*
X0064034Y0054511D01*
X0064044Y0054558D01*
X0064057Y0054604D01*
X0064075Y0054649D01*
X0064095Y0054693D01*
X0064120Y0054735D01*
X0064148Y0054774D01*
X0064178Y0054811D01*
X0064212Y0054845D01*
X0064249Y0054877D01*
X0064287Y0054906D01*
X0064328Y0054931D01*
X0064371Y0054953D01*
X0064416Y0054971D01*
X0064462Y0054985D01*
X0064509Y0054996D01*
X0064557Y0055003D01*
X0064605Y0055006D01*
X0064653Y0055005D01*
X0064701Y0055000D01*
X0064749Y0054991D01*
X0064795Y0054979D01*
X0064840Y0054962D01*
X0064884Y0054942D01*
X0064926Y0054919D01*
X0064966Y0054892D01*
X0065004Y0054862D01*
X0065039Y0054829D01*
X0065071Y0054793D01*
X0065101Y0054755D01*
X0065127Y0054714D01*
X0065149Y0054671D01*
X0065169Y0054627D01*
X0065184Y0054582D01*
X0065196Y0054535D01*
X0065204Y0054487D01*
X0065208Y0054439D01*
X0065208Y0054391D01*
X0065204Y0054343D01*
X0065196Y0054295D01*
X0065184Y0054248D01*
X0065169Y0054203D01*
X0065149Y0054159D01*
X0065127Y0054116D01*
X0065101Y0054075D01*
X0065071Y0054037D01*
X0065039Y0054001D01*
X0065004Y0053968D01*
X0064966Y0053938D01*
X0064926Y0053911D01*
X0064884Y0053888D01*
X0064840Y0053868D01*
X0064795Y0053851D01*
X0064749Y0053839D01*
X0064701Y0053830D01*
X0064653Y0053825D01*
X0064605Y0053824D01*
X0064557Y0053827D01*
X0064509Y0053834D01*
X0064462Y0053845D01*
X0064416Y0053859D01*
X0064371Y0053877D01*
X0064328Y0053899D01*
X0064287Y0053924D01*
X0064249Y0053953D01*
X0064212Y0053985D01*
X0064178Y0054019D01*
X0064148Y0054056D01*
X0064120Y0054095D01*
X0064095Y0054137D01*
X0064075Y0054181D01*
X0064057Y0054226D01*
X0064044Y0054272D01*
X0064034Y0054319D01*
X0064028Y0054367D01*
X0064026Y0054415D01*
X0064026Y0047013D02*
X0064028Y0047061D01*
X0064034Y0047109D01*
X0064044Y0047156D01*
X0064057Y0047202D01*
X0064075Y0047247D01*
X0064095Y0047291D01*
X0064120Y0047333D01*
X0064148Y0047372D01*
X0064178Y0047409D01*
X0064212Y0047443D01*
X0064249Y0047475D01*
X0064287Y0047504D01*
X0064328Y0047529D01*
X0064371Y0047551D01*
X0064416Y0047569D01*
X0064462Y0047583D01*
X0064509Y0047594D01*
X0064557Y0047601D01*
X0064605Y0047604D01*
X0064653Y0047603D01*
X0064701Y0047598D01*
X0064749Y0047589D01*
X0064795Y0047577D01*
X0064840Y0047560D01*
X0064884Y0047540D01*
X0064926Y0047517D01*
X0064966Y0047490D01*
X0065004Y0047460D01*
X0065039Y0047427D01*
X0065071Y0047391D01*
X0065101Y0047353D01*
X0065127Y0047312D01*
X0065149Y0047269D01*
X0065169Y0047225D01*
X0065184Y0047180D01*
X0065196Y0047133D01*
X0065204Y0047085D01*
X0065208Y0047037D01*
X0065208Y0046989D01*
X0065204Y0046941D01*
X0065196Y0046893D01*
X0065184Y0046846D01*
X0065169Y0046801D01*
X0065149Y0046757D01*
X0065127Y0046714D01*
X0065101Y0046673D01*
X0065071Y0046635D01*
X0065039Y0046599D01*
X0065004Y0046566D01*
X0064966Y0046536D01*
X0064926Y0046509D01*
X0064884Y0046486D01*
X0064840Y0046466D01*
X0064795Y0046449D01*
X0064749Y0046437D01*
X0064701Y0046428D01*
X0064653Y0046423D01*
X0064605Y0046422D01*
X0064557Y0046425D01*
X0064509Y0046432D01*
X0064462Y0046443D01*
X0064416Y0046457D01*
X0064371Y0046475D01*
X0064328Y0046497D01*
X0064287Y0046522D01*
X0064249Y0046551D01*
X0064212Y0046583D01*
X0064178Y0046617D01*
X0064148Y0046654D01*
X0064120Y0046693D01*
X0064095Y0046735D01*
X0064075Y0046779D01*
X0064057Y0046824D01*
X0064044Y0046870D01*
X0064034Y0046917D01*
X0064028Y0046965D01*
X0064026Y0047013D01*
X0071192Y0047013D02*
X0071194Y0047061D01*
X0071200Y0047109D01*
X0071210Y0047156D01*
X0071223Y0047202D01*
X0071241Y0047247D01*
X0071261Y0047291D01*
X0071286Y0047333D01*
X0071314Y0047372D01*
X0071344Y0047409D01*
X0071378Y0047443D01*
X0071415Y0047475D01*
X0071453Y0047504D01*
X0071494Y0047529D01*
X0071537Y0047551D01*
X0071582Y0047569D01*
X0071628Y0047583D01*
X0071675Y0047594D01*
X0071723Y0047601D01*
X0071771Y0047604D01*
X0071819Y0047603D01*
X0071867Y0047598D01*
X0071915Y0047589D01*
X0071961Y0047577D01*
X0072006Y0047560D01*
X0072050Y0047540D01*
X0072092Y0047517D01*
X0072132Y0047490D01*
X0072170Y0047460D01*
X0072205Y0047427D01*
X0072237Y0047391D01*
X0072267Y0047353D01*
X0072293Y0047312D01*
X0072315Y0047269D01*
X0072335Y0047225D01*
X0072350Y0047180D01*
X0072362Y0047133D01*
X0072370Y0047085D01*
X0072374Y0047037D01*
X0072374Y0046989D01*
X0072370Y0046941D01*
X0072362Y0046893D01*
X0072350Y0046846D01*
X0072335Y0046801D01*
X0072315Y0046757D01*
X0072293Y0046714D01*
X0072267Y0046673D01*
X0072237Y0046635D01*
X0072205Y0046599D01*
X0072170Y0046566D01*
X0072132Y0046536D01*
X0072092Y0046509D01*
X0072050Y0046486D01*
X0072006Y0046466D01*
X0071961Y0046449D01*
X0071915Y0046437D01*
X0071867Y0046428D01*
X0071819Y0046423D01*
X0071771Y0046422D01*
X0071723Y0046425D01*
X0071675Y0046432D01*
X0071628Y0046443D01*
X0071582Y0046457D01*
X0071537Y0046475D01*
X0071494Y0046497D01*
X0071453Y0046522D01*
X0071415Y0046551D01*
X0071378Y0046583D01*
X0071344Y0046617D01*
X0071314Y0046654D01*
X0071286Y0046693D01*
X0071261Y0046735D01*
X0071241Y0046779D01*
X0071223Y0046824D01*
X0071210Y0046870D01*
X0071200Y0046917D01*
X0071194Y0046965D01*
X0071192Y0047013D01*
X0071192Y0054415D02*
X0071194Y0054463D01*
X0071200Y0054511D01*
X0071210Y0054558D01*
X0071223Y0054604D01*
X0071241Y0054649D01*
X0071261Y0054693D01*
X0071286Y0054735D01*
X0071314Y0054774D01*
X0071344Y0054811D01*
X0071378Y0054845D01*
X0071415Y0054877D01*
X0071453Y0054906D01*
X0071494Y0054931D01*
X0071537Y0054953D01*
X0071582Y0054971D01*
X0071628Y0054985D01*
X0071675Y0054996D01*
X0071723Y0055003D01*
X0071771Y0055006D01*
X0071819Y0055005D01*
X0071867Y0055000D01*
X0071915Y0054991D01*
X0071961Y0054979D01*
X0072006Y0054962D01*
X0072050Y0054942D01*
X0072092Y0054919D01*
X0072132Y0054892D01*
X0072170Y0054862D01*
X0072205Y0054829D01*
X0072237Y0054793D01*
X0072267Y0054755D01*
X0072293Y0054714D01*
X0072315Y0054671D01*
X0072335Y0054627D01*
X0072350Y0054582D01*
X0072362Y0054535D01*
X0072370Y0054487D01*
X0072374Y0054439D01*
X0072374Y0054391D01*
X0072370Y0054343D01*
X0072362Y0054295D01*
X0072350Y0054248D01*
X0072335Y0054203D01*
X0072315Y0054159D01*
X0072293Y0054116D01*
X0072267Y0054075D01*
X0072237Y0054037D01*
X0072205Y0054001D01*
X0072170Y0053968D01*
X0072132Y0053938D01*
X0072092Y0053911D01*
X0072050Y0053888D01*
X0072006Y0053868D01*
X0071961Y0053851D01*
X0071915Y0053839D01*
X0071867Y0053830D01*
X0071819Y0053825D01*
X0071771Y0053824D01*
X0071723Y0053827D01*
X0071675Y0053834D01*
X0071628Y0053845D01*
X0071582Y0053859D01*
X0071537Y0053877D01*
X0071494Y0053899D01*
X0071453Y0053924D01*
X0071415Y0053953D01*
X0071378Y0053985D01*
X0071344Y0054019D01*
X0071314Y0054056D01*
X0071286Y0054095D01*
X0071261Y0054137D01*
X0071241Y0054181D01*
X0071223Y0054226D01*
X0071210Y0054272D01*
X0071200Y0054319D01*
X0071194Y0054367D01*
X0071192Y0054415D01*
X0078593Y0054415D02*
X0078595Y0054463D01*
X0078601Y0054511D01*
X0078611Y0054558D01*
X0078624Y0054604D01*
X0078642Y0054649D01*
X0078662Y0054693D01*
X0078687Y0054735D01*
X0078715Y0054774D01*
X0078745Y0054811D01*
X0078779Y0054845D01*
X0078816Y0054877D01*
X0078854Y0054906D01*
X0078895Y0054931D01*
X0078938Y0054953D01*
X0078983Y0054971D01*
X0079029Y0054985D01*
X0079076Y0054996D01*
X0079124Y0055003D01*
X0079172Y0055006D01*
X0079220Y0055005D01*
X0079268Y0055000D01*
X0079316Y0054991D01*
X0079362Y0054979D01*
X0079407Y0054962D01*
X0079451Y0054942D01*
X0079493Y0054919D01*
X0079533Y0054892D01*
X0079571Y0054862D01*
X0079606Y0054829D01*
X0079638Y0054793D01*
X0079668Y0054755D01*
X0079694Y0054714D01*
X0079716Y0054671D01*
X0079736Y0054627D01*
X0079751Y0054582D01*
X0079763Y0054535D01*
X0079771Y0054487D01*
X0079775Y0054439D01*
X0079775Y0054391D01*
X0079771Y0054343D01*
X0079763Y0054295D01*
X0079751Y0054248D01*
X0079736Y0054203D01*
X0079716Y0054159D01*
X0079694Y0054116D01*
X0079668Y0054075D01*
X0079638Y0054037D01*
X0079606Y0054001D01*
X0079571Y0053968D01*
X0079533Y0053938D01*
X0079493Y0053911D01*
X0079451Y0053888D01*
X0079407Y0053868D01*
X0079362Y0053851D01*
X0079316Y0053839D01*
X0079268Y0053830D01*
X0079220Y0053825D01*
X0079172Y0053824D01*
X0079124Y0053827D01*
X0079076Y0053834D01*
X0079029Y0053845D01*
X0078983Y0053859D01*
X0078938Y0053877D01*
X0078895Y0053899D01*
X0078854Y0053924D01*
X0078816Y0053953D01*
X0078779Y0053985D01*
X0078745Y0054019D01*
X0078715Y0054056D01*
X0078687Y0054095D01*
X0078662Y0054137D01*
X0078642Y0054181D01*
X0078624Y0054226D01*
X0078611Y0054272D01*
X0078601Y0054319D01*
X0078595Y0054367D01*
X0078593Y0054415D01*
X0078593Y0047013D02*
X0078595Y0047061D01*
X0078601Y0047109D01*
X0078611Y0047156D01*
X0078624Y0047202D01*
X0078642Y0047247D01*
X0078662Y0047291D01*
X0078687Y0047333D01*
X0078715Y0047372D01*
X0078745Y0047409D01*
X0078779Y0047443D01*
X0078816Y0047475D01*
X0078854Y0047504D01*
X0078895Y0047529D01*
X0078938Y0047551D01*
X0078983Y0047569D01*
X0079029Y0047583D01*
X0079076Y0047594D01*
X0079124Y0047601D01*
X0079172Y0047604D01*
X0079220Y0047603D01*
X0079268Y0047598D01*
X0079316Y0047589D01*
X0079362Y0047577D01*
X0079407Y0047560D01*
X0079451Y0047540D01*
X0079493Y0047517D01*
X0079533Y0047490D01*
X0079571Y0047460D01*
X0079606Y0047427D01*
X0079638Y0047391D01*
X0079668Y0047353D01*
X0079694Y0047312D01*
X0079716Y0047269D01*
X0079736Y0047225D01*
X0079751Y0047180D01*
X0079763Y0047133D01*
X0079771Y0047085D01*
X0079775Y0047037D01*
X0079775Y0046989D01*
X0079771Y0046941D01*
X0079763Y0046893D01*
X0079751Y0046846D01*
X0079736Y0046801D01*
X0079716Y0046757D01*
X0079694Y0046714D01*
X0079668Y0046673D01*
X0079638Y0046635D01*
X0079606Y0046599D01*
X0079571Y0046566D01*
X0079533Y0046536D01*
X0079493Y0046509D01*
X0079451Y0046486D01*
X0079407Y0046466D01*
X0079362Y0046449D01*
X0079316Y0046437D01*
X0079268Y0046428D01*
X0079220Y0046423D01*
X0079172Y0046422D01*
X0079124Y0046425D01*
X0079076Y0046432D01*
X0079029Y0046443D01*
X0078983Y0046457D01*
X0078938Y0046475D01*
X0078895Y0046497D01*
X0078854Y0046522D01*
X0078816Y0046551D01*
X0078779Y0046583D01*
X0078745Y0046617D01*
X0078715Y0046654D01*
X0078687Y0046693D01*
X0078662Y0046735D01*
X0078642Y0046779D01*
X0078624Y0046824D01*
X0078611Y0046870D01*
X0078601Y0046917D01*
X0078595Y0046965D01*
X0078593Y0047013D01*
X0087333Y0047013D02*
X0087335Y0047061D01*
X0087341Y0047109D01*
X0087351Y0047156D01*
X0087364Y0047202D01*
X0087382Y0047247D01*
X0087402Y0047291D01*
X0087427Y0047333D01*
X0087455Y0047372D01*
X0087485Y0047409D01*
X0087519Y0047443D01*
X0087556Y0047475D01*
X0087594Y0047504D01*
X0087635Y0047529D01*
X0087678Y0047551D01*
X0087723Y0047569D01*
X0087769Y0047583D01*
X0087816Y0047594D01*
X0087864Y0047601D01*
X0087912Y0047604D01*
X0087960Y0047603D01*
X0088008Y0047598D01*
X0088056Y0047589D01*
X0088102Y0047577D01*
X0088147Y0047560D01*
X0088191Y0047540D01*
X0088233Y0047517D01*
X0088273Y0047490D01*
X0088311Y0047460D01*
X0088346Y0047427D01*
X0088378Y0047391D01*
X0088408Y0047353D01*
X0088434Y0047312D01*
X0088456Y0047269D01*
X0088476Y0047225D01*
X0088491Y0047180D01*
X0088503Y0047133D01*
X0088511Y0047085D01*
X0088515Y0047037D01*
X0088515Y0046989D01*
X0088511Y0046941D01*
X0088503Y0046893D01*
X0088491Y0046846D01*
X0088476Y0046801D01*
X0088456Y0046757D01*
X0088434Y0046714D01*
X0088408Y0046673D01*
X0088378Y0046635D01*
X0088346Y0046599D01*
X0088311Y0046566D01*
X0088273Y0046536D01*
X0088233Y0046509D01*
X0088191Y0046486D01*
X0088147Y0046466D01*
X0088102Y0046449D01*
X0088056Y0046437D01*
X0088008Y0046428D01*
X0087960Y0046423D01*
X0087912Y0046422D01*
X0087864Y0046425D01*
X0087816Y0046432D01*
X0087769Y0046443D01*
X0087723Y0046457D01*
X0087678Y0046475D01*
X0087635Y0046497D01*
X0087594Y0046522D01*
X0087556Y0046551D01*
X0087519Y0046583D01*
X0087485Y0046617D01*
X0087455Y0046654D01*
X0087427Y0046693D01*
X0087402Y0046735D01*
X0087382Y0046779D01*
X0087364Y0046824D01*
X0087351Y0046870D01*
X0087341Y0046917D01*
X0087335Y0046965D01*
X0087333Y0047013D01*
X0087333Y0054415D02*
X0087335Y0054463D01*
X0087341Y0054511D01*
X0087351Y0054558D01*
X0087364Y0054604D01*
X0087382Y0054649D01*
X0087402Y0054693D01*
X0087427Y0054735D01*
X0087455Y0054774D01*
X0087485Y0054811D01*
X0087519Y0054845D01*
X0087556Y0054877D01*
X0087594Y0054906D01*
X0087635Y0054931D01*
X0087678Y0054953D01*
X0087723Y0054971D01*
X0087769Y0054985D01*
X0087816Y0054996D01*
X0087864Y0055003D01*
X0087912Y0055006D01*
X0087960Y0055005D01*
X0088008Y0055000D01*
X0088056Y0054991D01*
X0088102Y0054979D01*
X0088147Y0054962D01*
X0088191Y0054942D01*
X0088233Y0054919D01*
X0088273Y0054892D01*
X0088311Y0054862D01*
X0088346Y0054829D01*
X0088378Y0054793D01*
X0088408Y0054755D01*
X0088434Y0054714D01*
X0088456Y0054671D01*
X0088476Y0054627D01*
X0088491Y0054582D01*
X0088503Y0054535D01*
X0088511Y0054487D01*
X0088515Y0054439D01*
X0088515Y0054391D01*
X0088511Y0054343D01*
X0088503Y0054295D01*
X0088491Y0054248D01*
X0088476Y0054203D01*
X0088456Y0054159D01*
X0088434Y0054116D01*
X0088408Y0054075D01*
X0088378Y0054037D01*
X0088346Y0054001D01*
X0088311Y0053968D01*
X0088273Y0053938D01*
X0088233Y0053911D01*
X0088191Y0053888D01*
X0088147Y0053868D01*
X0088102Y0053851D01*
X0088056Y0053839D01*
X0088008Y0053830D01*
X0087960Y0053825D01*
X0087912Y0053824D01*
X0087864Y0053827D01*
X0087816Y0053834D01*
X0087769Y0053845D01*
X0087723Y0053859D01*
X0087678Y0053877D01*
X0087635Y0053899D01*
X0087594Y0053924D01*
X0087556Y0053953D01*
X0087519Y0053985D01*
X0087485Y0054019D01*
X0087455Y0054056D01*
X0087427Y0054095D01*
X0087402Y0054137D01*
X0087382Y0054181D01*
X0087364Y0054226D01*
X0087351Y0054272D01*
X0087341Y0054319D01*
X0087335Y0054367D01*
X0087333Y0054415D01*
X0094735Y0054415D02*
X0094737Y0054463D01*
X0094743Y0054511D01*
X0094753Y0054558D01*
X0094766Y0054604D01*
X0094784Y0054649D01*
X0094804Y0054693D01*
X0094829Y0054735D01*
X0094857Y0054774D01*
X0094887Y0054811D01*
X0094921Y0054845D01*
X0094958Y0054877D01*
X0094996Y0054906D01*
X0095037Y0054931D01*
X0095080Y0054953D01*
X0095125Y0054971D01*
X0095171Y0054985D01*
X0095218Y0054996D01*
X0095266Y0055003D01*
X0095314Y0055006D01*
X0095362Y0055005D01*
X0095410Y0055000D01*
X0095458Y0054991D01*
X0095504Y0054979D01*
X0095549Y0054962D01*
X0095593Y0054942D01*
X0095635Y0054919D01*
X0095675Y0054892D01*
X0095713Y0054862D01*
X0095748Y0054829D01*
X0095780Y0054793D01*
X0095810Y0054755D01*
X0095836Y0054714D01*
X0095858Y0054671D01*
X0095878Y0054627D01*
X0095893Y0054582D01*
X0095905Y0054535D01*
X0095913Y0054487D01*
X0095917Y0054439D01*
X0095917Y0054391D01*
X0095913Y0054343D01*
X0095905Y0054295D01*
X0095893Y0054248D01*
X0095878Y0054203D01*
X0095858Y0054159D01*
X0095836Y0054116D01*
X0095810Y0054075D01*
X0095780Y0054037D01*
X0095748Y0054001D01*
X0095713Y0053968D01*
X0095675Y0053938D01*
X0095635Y0053911D01*
X0095593Y0053888D01*
X0095549Y0053868D01*
X0095504Y0053851D01*
X0095458Y0053839D01*
X0095410Y0053830D01*
X0095362Y0053825D01*
X0095314Y0053824D01*
X0095266Y0053827D01*
X0095218Y0053834D01*
X0095171Y0053845D01*
X0095125Y0053859D01*
X0095080Y0053877D01*
X0095037Y0053899D01*
X0094996Y0053924D01*
X0094958Y0053953D01*
X0094921Y0053985D01*
X0094887Y0054019D01*
X0094857Y0054056D01*
X0094829Y0054095D01*
X0094804Y0054137D01*
X0094784Y0054181D01*
X0094766Y0054226D01*
X0094753Y0054272D01*
X0094743Y0054319D01*
X0094737Y0054367D01*
X0094735Y0054415D01*
X0094735Y0047013D02*
X0094737Y0047061D01*
X0094743Y0047109D01*
X0094753Y0047156D01*
X0094766Y0047202D01*
X0094784Y0047247D01*
X0094804Y0047291D01*
X0094829Y0047333D01*
X0094857Y0047372D01*
X0094887Y0047409D01*
X0094921Y0047443D01*
X0094958Y0047475D01*
X0094996Y0047504D01*
X0095037Y0047529D01*
X0095080Y0047551D01*
X0095125Y0047569D01*
X0095171Y0047583D01*
X0095218Y0047594D01*
X0095266Y0047601D01*
X0095314Y0047604D01*
X0095362Y0047603D01*
X0095410Y0047598D01*
X0095458Y0047589D01*
X0095504Y0047577D01*
X0095549Y0047560D01*
X0095593Y0047540D01*
X0095635Y0047517D01*
X0095675Y0047490D01*
X0095713Y0047460D01*
X0095748Y0047427D01*
X0095780Y0047391D01*
X0095810Y0047353D01*
X0095836Y0047312D01*
X0095858Y0047269D01*
X0095878Y0047225D01*
X0095893Y0047180D01*
X0095905Y0047133D01*
X0095913Y0047085D01*
X0095917Y0047037D01*
X0095917Y0046989D01*
X0095913Y0046941D01*
X0095905Y0046893D01*
X0095893Y0046846D01*
X0095878Y0046801D01*
X0095858Y0046757D01*
X0095836Y0046714D01*
X0095810Y0046673D01*
X0095780Y0046635D01*
X0095748Y0046599D01*
X0095713Y0046566D01*
X0095675Y0046536D01*
X0095635Y0046509D01*
X0095593Y0046486D01*
X0095549Y0046466D01*
X0095504Y0046449D01*
X0095458Y0046437D01*
X0095410Y0046428D01*
X0095362Y0046423D01*
X0095314Y0046422D01*
X0095266Y0046425D01*
X0095218Y0046432D01*
X0095171Y0046443D01*
X0095125Y0046457D01*
X0095080Y0046475D01*
X0095037Y0046497D01*
X0094996Y0046522D01*
X0094958Y0046551D01*
X0094921Y0046583D01*
X0094887Y0046617D01*
X0094857Y0046654D01*
X0094829Y0046693D01*
X0094804Y0046735D01*
X0094784Y0046779D01*
X0094766Y0046824D01*
X0094753Y0046870D01*
X0094743Y0046917D01*
X0094737Y0046965D01*
X0094735Y0047013D01*
X0101900Y0047013D02*
X0101902Y0047061D01*
X0101908Y0047109D01*
X0101918Y0047156D01*
X0101931Y0047202D01*
X0101949Y0047247D01*
X0101969Y0047291D01*
X0101994Y0047333D01*
X0102022Y0047372D01*
X0102052Y0047409D01*
X0102086Y0047443D01*
X0102123Y0047475D01*
X0102161Y0047504D01*
X0102202Y0047529D01*
X0102245Y0047551D01*
X0102290Y0047569D01*
X0102336Y0047583D01*
X0102383Y0047594D01*
X0102431Y0047601D01*
X0102479Y0047604D01*
X0102527Y0047603D01*
X0102575Y0047598D01*
X0102623Y0047589D01*
X0102669Y0047577D01*
X0102714Y0047560D01*
X0102758Y0047540D01*
X0102800Y0047517D01*
X0102840Y0047490D01*
X0102878Y0047460D01*
X0102913Y0047427D01*
X0102945Y0047391D01*
X0102975Y0047353D01*
X0103001Y0047312D01*
X0103023Y0047269D01*
X0103043Y0047225D01*
X0103058Y0047180D01*
X0103070Y0047133D01*
X0103078Y0047085D01*
X0103082Y0047037D01*
X0103082Y0046989D01*
X0103078Y0046941D01*
X0103070Y0046893D01*
X0103058Y0046846D01*
X0103043Y0046801D01*
X0103023Y0046757D01*
X0103001Y0046714D01*
X0102975Y0046673D01*
X0102945Y0046635D01*
X0102913Y0046599D01*
X0102878Y0046566D01*
X0102840Y0046536D01*
X0102800Y0046509D01*
X0102758Y0046486D01*
X0102714Y0046466D01*
X0102669Y0046449D01*
X0102623Y0046437D01*
X0102575Y0046428D01*
X0102527Y0046423D01*
X0102479Y0046422D01*
X0102431Y0046425D01*
X0102383Y0046432D01*
X0102336Y0046443D01*
X0102290Y0046457D01*
X0102245Y0046475D01*
X0102202Y0046497D01*
X0102161Y0046522D01*
X0102123Y0046551D01*
X0102086Y0046583D01*
X0102052Y0046617D01*
X0102022Y0046654D01*
X0101994Y0046693D01*
X0101969Y0046735D01*
X0101949Y0046779D01*
X0101931Y0046824D01*
X0101918Y0046870D01*
X0101908Y0046917D01*
X0101902Y0046965D01*
X0101900Y0047013D01*
X0101900Y0054415D02*
X0101902Y0054463D01*
X0101908Y0054511D01*
X0101918Y0054558D01*
X0101931Y0054604D01*
X0101949Y0054649D01*
X0101969Y0054693D01*
X0101994Y0054735D01*
X0102022Y0054774D01*
X0102052Y0054811D01*
X0102086Y0054845D01*
X0102123Y0054877D01*
X0102161Y0054906D01*
X0102202Y0054931D01*
X0102245Y0054953D01*
X0102290Y0054971D01*
X0102336Y0054985D01*
X0102383Y0054996D01*
X0102431Y0055003D01*
X0102479Y0055006D01*
X0102527Y0055005D01*
X0102575Y0055000D01*
X0102623Y0054991D01*
X0102669Y0054979D01*
X0102714Y0054962D01*
X0102758Y0054942D01*
X0102800Y0054919D01*
X0102840Y0054892D01*
X0102878Y0054862D01*
X0102913Y0054829D01*
X0102945Y0054793D01*
X0102975Y0054755D01*
X0103001Y0054714D01*
X0103023Y0054671D01*
X0103043Y0054627D01*
X0103058Y0054582D01*
X0103070Y0054535D01*
X0103078Y0054487D01*
X0103082Y0054439D01*
X0103082Y0054391D01*
X0103078Y0054343D01*
X0103070Y0054295D01*
X0103058Y0054248D01*
X0103043Y0054203D01*
X0103023Y0054159D01*
X0103001Y0054116D01*
X0102975Y0054075D01*
X0102945Y0054037D01*
X0102913Y0054001D01*
X0102878Y0053968D01*
X0102840Y0053938D01*
X0102800Y0053911D01*
X0102758Y0053888D01*
X0102714Y0053868D01*
X0102669Y0053851D01*
X0102623Y0053839D01*
X0102575Y0053830D01*
X0102527Y0053825D01*
X0102479Y0053824D01*
X0102431Y0053827D01*
X0102383Y0053834D01*
X0102336Y0053845D01*
X0102290Y0053859D01*
X0102245Y0053877D01*
X0102202Y0053899D01*
X0102161Y0053924D01*
X0102123Y0053953D01*
X0102086Y0053985D01*
X0102052Y0054019D01*
X0102022Y0054056D01*
X0101994Y0054095D01*
X0101969Y0054137D01*
X0101949Y0054181D01*
X0101931Y0054226D01*
X0101918Y0054272D01*
X0101908Y0054319D01*
X0101902Y0054367D01*
X0101900Y0054415D01*
X0109302Y0054415D02*
X0109304Y0054463D01*
X0109310Y0054511D01*
X0109320Y0054558D01*
X0109333Y0054604D01*
X0109351Y0054649D01*
X0109371Y0054693D01*
X0109396Y0054735D01*
X0109424Y0054774D01*
X0109454Y0054811D01*
X0109488Y0054845D01*
X0109525Y0054877D01*
X0109563Y0054906D01*
X0109604Y0054931D01*
X0109647Y0054953D01*
X0109692Y0054971D01*
X0109738Y0054985D01*
X0109785Y0054996D01*
X0109833Y0055003D01*
X0109881Y0055006D01*
X0109929Y0055005D01*
X0109977Y0055000D01*
X0110025Y0054991D01*
X0110071Y0054979D01*
X0110116Y0054962D01*
X0110160Y0054942D01*
X0110202Y0054919D01*
X0110242Y0054892D01*
X0110280Y0054862D01*
X0110315Y0054829D01*
X0110347Y0054793D01*
X0110377Y0054755D01*
X0110403Y0054714D01*
X0110425Y0054671D01*
X0110445Y0054627D01*
X0110460Y0054582D01*
X0110472Y0054535D01*
X0110480Y0054487D01*
X0110484Y0054439D01*
X0110484Y0054391D01*
X0110480Y0054343D01*
X0110472Y0054295D01*
X0110460Y0054248D01*
X0110445Y0054203D01*
X0110425Y0054159D01*
X0110403Y0054116D01*
X0110377Y0054075D01*
X0110347Y0054037D01*
X0110315Y0054001D01*
X0110280Y0053968D01*
X0110242Y0053938D01*
X0110202Y0053911D01*
X0110160Y0053888D01*
X0110116Y0053868D01*
X0110071Y0053851D01*
X0110025Y0053839D01*
X0109977Y0053830D01*
X0109929Y0053825D01*
X0109881Y0053824D01*
X0109833Y0053827D01*
X0109785Y0053834D01*
X0109738Y0053845D01*
X0109692Y0053859D01*
X0109647Y0053877D01*
X0109604Y0053899D01*
X0109563Y0053924D01*
X0109525Y0053953D01*
X0109488Y0053985D01*
X0109454Y0054019D01*
X0109424Y0054056D01*
X0109396Y0054095D01*
X0109371Y0054137D01*
X0109351Y0054181D01*
X0109333Y0054226D01*
X0109320Y0054272D01*
X0109310Y0054319D01*
X0109304Y0054367D01*
X0109302Y0054415D01*
X0109302Y0047013D02*
X0109304Y0047061D01*
X0109310Y0047109D01*
X0109320Y0047156D01*
X0109333Y0047202D01*
X0109351Y0047247D01*
X0109371Y0047291D01*
X0109396Y0047333D01*
X0109424Y0047372D01*
X0109454Y0047409D01*
X0109488Y0047443D01*
X0109525Y0047475D01*
X0109563Y0047504D01*
X0109604Y0047529D01*
X0109647Y0047551D01*
X0109692Y0047569D01*
X0109738Y0047583D01*
X0109785Y0047594D01*
X0109833Y0047601D01*
X0109881Y0047604D01*
X0109929Y0047603D01*
X0109977Y0047598D01*
X0110025Y0047589D01*
X0110071Y0047577D01*
X0110116Y0047560D01*
X0110160Y0047540D01*
X0110202Y0047517D01*
X0110242Y0047490D01*
X0110280Y0047460D01*
X0110315Y0047427D01*
X0110347Y0047391D01*
X0110377Y0047353D01*
X0110403Y0047312D01*
X0110425Y0047269D01*
X0110445Y0047225D01*
X0110460Y0047180D01*
X0110472Y0047133D01*
X0110480Y0047085D01*
X0110484Y0047037D01*
X0110484Y0046989D01*
X0110480Y0046941D01*
X0110472Y0046893D01*
X0110460Y0046846D01*
X0110445Y0046801D01*
X0110425Y0046757D01*
X0110403Y0046714D01*
X0110377Y0046673D01*
X0110347Y0046635D01*
X0110315Y0046599D01*
X0110280Y0046566D01*
X0110242Y0046536D01*
X0110202Y0046509D01*
X0110160Y0046486D01*
X0110116Y0046466D01*
X0110071Y0046449D01*
X0110025Y0046437D01*
X0109977Y0046428D01*
X0109929Y0046423D01*
X0109881Y0046422D01*
X0109833Y0046425D01*
X0109785Y0046432D01*
X0109738Y0046443D01*
X0109692Y0046457D01*
X0109647Y0046475D01*
X0109604Y0046497D01*
X0109563Y0046522D01*
X0109525Y0046551D01*
X0109488Y0046583D01*
X0109454Y0046617D01*
X0109424Y0046654D01*
X0109396Y0046693D01*
X0109371Y0046735D01*
X0109351Y0046779D01*
X0109333Y0046824D01*
X0109320Y0046870D01*
X0109310Y0046917D01*
X0109304Y0046965D01*
X0109302Y0047013D01*
D11*
X0091428Y0106029D03*
X0091428Y0116659D03*
X0080798Y0116659D03*
X0080798Y0106029D03*
D12*
X0073973Y0106940D02*
X0072545Y0106940D01*
X0073973Y0106940D02*
X0073973Y0105906D01*
X0072545Y0105906D01*
X0072545Y0106940D01*
X0072545Y0106249D02*
X0073973Y0106249D01*
X0073973Y0106592D02*
X0072545Y0106592D01*
X0072545Y0106935D02*
X0073973Y0106935D01*
X0073973Y0108908D02*
X0072545Y0108908D01*
X0073973Y0108908D02*
X0073973Y0107874D01*
X0072545Y0107874D01*
X0072545Y0108908D01*
X0072545Y0108217D02*
X0073973Y0108217D01*
X0073973Y0108560D02*
X0072545Y0108560D01*
X0072545Y0108903D02*
X0073973Y0108903D01*
X0073973Y0110877D02*
X0072545Y0110877D01*
X0073973Y0110877D02*
X0073973Y0109843D01*
X0072545Y0109843D01*
X0072545Y0110877D01*
X0072545Y0110186D02*
X0073973Y0110186D01*
X0073973Y0110529D02*
X0072545Y0110529D01*
X0072545Y0110872D02*
X0073973Y0110872D01*
X0073973Y0112845D02*
X0072545Y0112845D01*
X0073973Y0112845D02*
X0073973Y0111811D01*
X0072545Y0111811D01*
X0072545Y0112845D01*
X0072545Y0112154D02*
X0073973Y0112154D01*
X0073973Y0112497D02*
X0072545Y0112497D01*
X0072545Y0112840D02*
X0073973Y0112840D01*
X0073973Y0114814D02*
X0072545Y0114814D01*
X0073973Y0114814D02*
X0073973Y0113780D01*
X0072545Y0113780D01*
X0072545Y0114814D01*
X0072545Y0114123D02*
X0073973Y0114123D01*
X0073973Y0114466D02*
X0072545Y0114466D01*
X0072545Y0114809D02*
X0073973Y0114809D01*
X0073973Y0116782D02*
X0072545Y0116782D01*
X0073973Y0116782D02*
X0073973Y0115748D01*
X0072545Y0115748D01*
X0072545Y0116782D01*
X0072545Y0116091D02*
X0073973Y0116091D01*
X0073973Y0116434D02*
X0072545Y0116434D01*
X0072545Y0116777D02*
X0073973Y0116777D01*
X0073973Y0118751D02*
X0072545Y0118751D01*
X0073973Y0118751D02*
X0073973Y0117717D01*
X0072545Y0117717D01*
X0072545Y0118751D01*
X0072545Y0118060D02*
X0073973Y0118060D01*
X0073973Y0118403D02*
X0072545Y0118403D01*
X0072545Y0118746D02*
X0073973Y0118746D01*
X0073973Y0120719D02*
X0072545Y0120719D01*
X0073973Y0120719D02*
X0073973Y0119685D01*
X0072545Y0119685D01*
X0072545Y0120719D01*
X0072545Y0120028D02*
X0073973Y0120028D01*
X0073973Y0120371D02*
X0072545Y0120371D01*
X0072545Y0120714D02*
X0073973Y0120714D01*
X0073973Y0122688D02*
X0072545Y0122688D01*
X0073973Y0122688D02*
X0073973Y0121654D01*
X0072545Y0121654D01*
X0072545Y0122688D01*
X0072545Y0121997D02*
X0073973Y0121997D01*
X0073973Y0122340D02*
X0072545Y0122340D01*
X0072545Y0122683D02*
X0073973Y0122683D01*
X0075804Y0123484D02*
X0075804Y0124912D01*
X0075804Y0123484D02*
X0074770Y0123484D01*
X0074770Y0124912D01*
X0075804Y0124912D01*
X0075804Y0123827D02*
X0074770Y0123827D01*
X0074770Y0124170D02*
X0075804Y0124170D01*
X0075804Y0124513D02*
X0074770Y0124513D01*
X0074770Y0124856D02*
X0075804Y0124856D01*
X0077772Y0124912D02*
X0077772Y0123484D01*
X0076738Y0123484D01*
X0076738Y0124912D01*
X0077772Y0124912D01*
X0077772Y0123827D02*
X0076738Y0123827D01*
X0076738Y0124170D02*
X0077772Y0124170D01*
X0077772Y0124513D02*
X0076738Y0124513D01*
X0076738Y0124856D02*
X0077772Y0124856D01*
X0079741Y0124912D02*
X0079741Y0123484D01*
X0078707Y0123484D01*
X0078707Y0124912D01*
X0079741Y0124912D01*
X0079741Y0123827D02*
X0078707Y0123827D01*
X0078707Y0124170D02*
X0079741Y0124170D01*
X0079741Y0124513D02*
X0078707Y0124513D01*
X0078707Y0124856D02*
X0079741Y0124856D01*
X0081709Y0124912D02*
X0081709Y0123484D01*
X0080675Y0123484D01*
X0080675Y0124912D01*
X0081709Y0124912D01*
X0081709Y0123827D02*
X0080675Y0123827D01*
X0080675Y0124170D02*
X0081709Y0124170D01*
X0081709Y0124513D02*
X0080675Y0124513D01*
X0080675Y0124856D02*
X0081709Y0124856D01*
X0083678Y0124912D02*
X0083678Y0123484D01*
X0082644Y0123484D01*
X0082644Y0124912D01*
X0083678Y0124912D01*
X0083678Y0123827D02*
X0082644Y0123827D01*
X0082644Y0124170D02*
X0083678Y0124170D01*
X0083678Y0124513D02*
X0082644Y0124513D01*
X0082644Y0124856D02*
X0083678Y0124856D01*
X0085646Y0124912D02*
X0085646Y0123484D01*
X0084612Y0123484D01*
X0084612Y0124912D01*
X0085646Y0124912D01*
X0085646Y0123827D02*
X0084612Y0123827D01*
X0084612Y0124170D02*
X0085646Y0124170D01*
X0085646Y0124513D02*
X0084612Y0124513D01*
X0084612Y0124856D02*
X0085646Y0124856D01*
X0087615Y0124912D02*
X0087615Y0123484D01*
X0086581Y0123484D01*
X0086581Y0124912D01*
X0087615Y0124912D01*
X0087615Y0123827D02*
X0086581Y0123827D01*
X0086581Y0124170D02*
X0087615Y0124170D01*
X0087615Y0124513D02*
X0086581Y0124513D01*
X0086581Y0124856D02*
X0087615Y0124856D01*
X0089583Y0124912D02*
X0089583Y0123484D01*
X0088549Y0123484D01*
X0088549Y0124912D01*
X0089583Y0124912D01*
X0089583Y0123827D02*
X0088549Y0123827D01*
X0088549Y0124170D02*
X0089583Y0124170D01*
X0089583Y0124513D02*
X0088549Y0124513D01*
X0088549Y0124856D02*
X0089583Y0124856D01*
X0091552Y0124912D02*
X0091552Y0123484D01*
X0090518Y0123484D01*
X0090518Y0124912D01*
X0091552Y0124912D01*
X0091552Y0123827D02*
X0090518Y0123827D01*
X0090518Y0124170D02*
X0091552Y0124170D01*
X0091552Y0124513D02*
X0090518Y0124513D01*
X0090518Y0124856D02*
X0091552Y0124856D01*
X0093520Y0124912D02*
X0093520Y0123484D01*
X0092486Y0123484D01*
X0092486Y0124912D01*
X0093520Y0124912D01*
X0093520Y0123827D02*
X0092486Y0123827D01*
X0092486Y0124170D02*
X0093520Y0124170D01*
X0093520Y0124513D02*
X0092486Y0124513D01*
X0092486Y0124856D02*
X0093520Y0124856D01*
X0095489Y0124912D02*
X0095489Y0123484D01*
X0094455Y0123484D01*
X0094455Y0124912D01*
X0095489Y0124912D01*
X0095489Y0123827D02*
X0094455Y0123827D01*
X0094455Y0124170D02*
X0095489Y0124170D01*
X0095489Y0124513D02*
X0094455Y0124513D01*
X0094455Y0124856D02*
X0095489Y0124856D01*
X0097457Y0124912D02*
X0097457Y0123484D01*
X0096423Y0123484D01*
X0096423Y0124912D01*
X0097457Y0124912D01*
X0097457Y0123827D02*
X0096423Y0123827D01*
X0096423Y0124170D02*
X0097457Y0124170D01*
X0097457Y0124513D02*
X0096423Y0124513D01*
X0096423Y0124856D02*
X0097457Y0124856D01*
X0098254Y0121654D02*
X0099682Y0121654D01*
X0098254Y0121654D02*
X0098254Y0122688D01*
X0099682Y0122688D01*
X0099682Y0121654D01*
X0099682Y0121997D02*
X0098254Y0121997D01*
X0098254Y0122340D02*
X0099682Y0122340D01*
X0099682Y0122683D02*
X0098254Y0122683D01*
X0098254Y0119685D02*
X0099682Y0119685D01*
X0098254Y0119685D02*
X0098254Y0120719D01*
X0099682Y0120719D01*
X0099682Y0119685D01*
X0099682Y0120028D02*
X0098254Y0120028D01*
X0098254Y0120371D02*
X0099682Y0120371D01*
X0099682Y0120714D02*
X0098254Y0120714D01*
X0098254Y0117717D02*
X0099682Y0117717D01*
X0098254Y0117717D02*
X0098254Y0118751D01*
X0099682Y0118751D01*
X0099682Y0117717D01*
X0099682Y0118060D02*
X0098254Y0118060D01*
X0098254Y0118403D02*
X0099682Y0118403D01*
X0099682Y0118746D02*
X0098254Y0118746D01*
X0098254Y0115748D02*
X0099682Y0115748D01*
X0098254Y0115748D02*
X0098254Y0116782D01*
X0099682Y0116782D01*
X0099682Y0115748D01*
X0099682Y0116091D02*
X0098254Y0116091D01*
X0098254Y0116434D02*
X0099682Y0116434D01*
X0099682Y0116777D02*
X0098254Y0116777D01*
X0098254Y0113780D02*
X0099682Y0113780D01*
X0098254Y0113780D02*
X0098254Y0114814D01*
X0099682Y0114814D01*
X0099682Y0113780D01*
X0099682Y0114123D02*
X0098254Y0114123D01*
X0098254Y0114466D02*
X0099682Y0114466D01*
X0099682Y0114809D02*
X0098254Y0114809D01*
X0098254Y0111811D02*
X0099682Y0111811D01*
X0098254Y0111811D02*
X0098254Y0112845D01*
X0099682Y0112845D01*
X0099682Y0111811D01*
X0099682Y0112154D02*
X0098254Y0112154D01*
X0098254Y0112497D02*
X0099682Y0112497D01*
X0099682Y0112840D02*
X0098254Y0112840D01*
X0098254Y0109843D02*
X0099682Y0109843D01*
X0098254Y0109843D02*
X0098254Y0110877D01*
X0099682Y0110877D01*
X0099682Y0109843D01*
X0099682Y0110186D02*
X0098254Y0110186D01*
X0098254Y0110529D02*
X0099682Y0110529D01*
X0099682Y0110872D02*
X0098254Y0110872D01*
X0098254Y0107874D02*
X0099682Y0107874D01*
X0098254Y0107874D02*
X0098254Y0108908D01*
X0099682Y0108908D01*
X0099682Y0107874D01*
X0099682Y0108217D02*
X0098254Y0108217D01*
X0098254Y0108560D02*
X0099682Y0108560D01*
X0099682Y0108903D02*
X0098254Y0108903D01*
X0098254Y0105906D02*
X0099682Y0105906D01*
X0098254Y0105906D02*
X0098254Y0106940D01*
X0099682Y0106940D01*
X0099682Y0105906D01*
X0099682Y0106249D02*
X0098254Y0106249D01*
X0098254Y0106592D02*
X0099682Y0106592D01*
X0099682Y0106935D02*
X0098254Y0106935D01*
X0098254Y0103937D02*
X0099682Y0103937D01*
X0098254Y0103937D02*
X0098254Y0104971D01*
X0099682Y0104971D01*
X0099682Y0103937D01*
X0099682Y0104280D02*
X0098254Y0104280D01*
X0098254Y0104623D02*
X0099682Y0104623D01*
X0099682Y0104966D02*
X0098254Y0104966D01*
X0098254Y0101969D02*
X0099682Y0101969D01*
X0098254Y0101969D02*
X0098254Y0103003D01*
X0099682Y0103003D01*
X0099682Y0101969D01*
X0099682Y0102312D02*
X0098254Y0102312D01*
X0098254Y0102655D02*
X0099682Y0102655D01*
X0099682Y0102998D02*
X0098254Y0102998D01*
X0098254Y0100000D02*
X0099682Y0100000D01*
X0098254Y0100000D02*
X0098254Y0101034D01*
X0099682Y0101034D01*
X0099682Y0100000D01*
X0099682Y0100343D02*
X0098254Y0100343D01*
X0098254Y0100686D02*
X0099682Y0100686D01*
X0099682Y0101029D02*
X0098254Y0101029D01*
X0096423Y0099204D02*
X0096423Y0097776D01*
X0096423Y0099204D02*
X0097457Y0099204D01*
X0097457Y0097776D01*
X0096423Y0097776D01*
X0096423Y0098119D02*
X0097457Y0098119D01*
X0097457Y0098462D02*
X0096423Y0098462D01*
X0096423Y0098805D02*
X0097457Y0098805D01*
X0097457Y0099148D02*
X0096423Y0099148D01*
X0094455Y0099204D02*
X0094455Y0097776D01*
X0094455Y0099204D02*
X0095489Y0099204D01*
X0095489Y0097776D01*
X0094455Y0097776D01*
X0094455Y0098119D02*
X0095489Y0098119D01*
X0095489Y0098462D02*
X0094455Y0098462D01*
X0094455Y0098805D02*
X0095489Y0098805D01*
X0095489Y0099148D02*
X0094455Y0099148D01*
X0092486Y0099204D02*
X0092486Y0097776D01*
X0092486Y0099204D02*
X0093520Y0099204D01*
X0093520Y0097776D01*
X0092486Y0097776D01*
X0092486Y0098119D02*
X0093520Y0098119D01*
X0093520Y0098462D02*
X0092486Y0098462D01*
X0092486Y0098805D02*
X0093520Y0098805D01*
X0093520Y0099148D02*
X0092486Y0099148D01*
X0090518Y0099204D02*
X0090518Y0097776D01*
X0090518Y0099204D02*
X0091552Y0099204D01*
X0091552Y0097776D01*
X0090518Y0097776D01*
X0090518Y0098119D02*
X0091552Y0098119D01*
X0091552Y0098462D02*
X0090518Y0098462D01*
X0090518Y0098805D02*
X0091552Y0098805D01*
X0091552Y0099148D02*
X0090518Y0099148D01*
X0088549Y0099204D02*
X0088549Y0097776D01*
X0088549Y0099204D02*
X0089583Y0099204D01*
X0089583Y0097776D01*
X0088549Y0097776D01*
X0088549Y0098119D02*
X0089583Y0098119D01*
X0089583Y0098462D02*
X0088549Y0098462D01*
X0088549Y0098805D02*
X0089583Y0098805D01*
X0089583Y0099148D02*
X0088549Y0099148D01*
X0086581Y0099204D02*
X0086581Y0097776D01*
X0086581Y0099204D02*
X0087615Y0099204D01*
X0087615Y0097776D01*
X0086581Y0097776D01*
X0086581Y0098119D02*
X0087615Y0098119D01*
X0087615Y0098462D02*
X0086581Y0098462D01*
X0086581Y0098805D02*
X0087615Y0098805D01*
X0087615Y0099148D02*
X0086581Y0099148D01*
X0084612Y0099204D02*
X0084612Y0097776D01*
X0084612Y0099204D02*
X0085646Y0099204D01*
X0085646Y0097776D01*
X0084612Y0097776D01*
X0084612Y0098119D02*
X0085646Y0098119D01*
X0085646Y0098462D02*
X0084612Y0098462D01*
X0084612Y0098805D02*
X0085646Y0098805D01*
X0085646Y0099148D02*
X0084612Y0099148D01*
X0082644Y0099204D02*
X0082644Y0097776D01*
X0082644Y0099204D02*
X0083678Y0099204D01*
X0083678Y0097776D01*
X0082644Y0097776D01*
X0082644Y0098119D02*
X0083678Y0098119D01*
X0083678Y0098462D02*
X0082644Y0098462D01*
X0082644Y0098805D02*
X0083678Y0098805D01*
X0083678Y0099148D02*
X0082644Y0099148D01*
X0080675Y0099204D02*
X0080675Y0097776D01*
X0080675Y0099204D02*
X0081709Y0099204D01*
X0081709Y0097776D01*
X0080675Y0097776D01*
X0080675Y0098119D02*
X0081709Y0098119D01*
X0081709Y0098462D02*
X0080675Y0098462D01*
X0080675Y0098805D02*
X0081709Y0098805D01*
X0081709Y0099148D02*
X0080675Y0099148D01*
X0078707Y0099204D02*
X0078707Y0097776D01*
X0078707Y0099204D02*
X0079741Y0099204D01*
X0079741Y0097776D01*
X0078707Y0097776D01*
X0078707Y0098119D02*
X0079741Y0098119D01*
X0079741Y0098462D02*
X0078707Y0098462D01*
X0078707Y0098805D02*
X0079741Y0098805D01*
X0079741Y0099148D02*
X0078707Y0099148D01*
X0076738Y0099204D02*
X0076738Y0097776D01*
X0076738Y0099204D02*
X0077772Y0099204D01*
X0077772Y0097776D01*
X0076738Y0097776D01*
X0076738Y0098119D02*
X0077772Y0098119D01*
X0077772Y0098462D02*
X0076738Y0098462D01*
X0076738Y0098805D02*
X0077772Y0098805D01*
X0077772Y0099148D02*
X0076738Y0099148D01*
X0074770Y0099204D02*
X0074770Y0097776D01*
X0074770Y0099204D02*
X0075804Y0099204D01*
X0075804Y0097776D01*
X0074770Y0097776D01*
X0074770Y0098119D02*
X0075804Y0098119D01*
X0075804Y0098462D02*
X0074770Y0098462D01*
X0074770Y0098805D02*
X0075804Y0098805D01*
X0075804Y0099148D02*
X0074770Y0099148D01*
X0073973Y0101034D02*
X0072545Y0101034D01*
X0073973Y0101034D02*
X0073973Y0100000D01*
X0072545Y0100000D01*
X0072545Y0101034D01*
X0072545Y0100343D02*
X0073973Y0100343D01*
X0073973Y0100686D02*
X0072545Y0100686D01*
X0072545Y0101029D02*
X0073973Y0101029D01*
X0073973Y0103003D02*
X0072545Y0103003D01*
X0073973Y0103003D02*
X0073973Y0101969D01*
X0072545Y0101969D01*
X0072545Y0103003D01*
X0072545Y0102312D02*
X0073973Y0102312D01*
X0073973Y0102655D02*
X0072545Y0102655D01*
X0072545Y0102998D02*
X0073973Y0102998D01*
X0073973Y0104971D02*
X0072545Y0104971D01*
X0073973Y0104971D02*
X0073973Y0103937D01*
X0072545Y0103937D01*
X0072545Y0104971D01*
X0072545Y0104280D02*
X0073973Y0104280D01*
X0073973Y0104623D02*
X0072545Y0104623D01*
X0072545Y0104966D02*
X0073973Y0104966D01*
D13*
X0093987Y0089297D03*
X0097924Y0089297D03*
X0104420Y0089730D03*
X0108357Y0089730D03*
X0108357Y0094218D03*
X0104420Y0094218D03*
X0084539Y0127880D03*
X0080602Y0127880D03*
X0093987Y0129848D03*
X0097924Y0129848D03*
D14*
X0086704Y0134769D03*
X0076861Y0134769D03*
D15*
X0071940Y0131817D03*
X0071940Y0127880D03*
X0102570Y0114021D03*
X0102570Y0110084D03*
X0109735Y0125124D03*
X0109735Y0129061D03*
D16*
X0107570Y0102486D03*
X0102452Y0102486D03*
X0098121Y0079454D03*
X0093003Y0079454D03*
D17*
X0102728Y0078273D03*
X0109814Y0078273D03*
X0066428Y0079061D03*
X0059342Y0079061D03*
D18*
X0079027Y0062919D03*
X0084932Y0062919D03*
X0090838Y0062919D03*
D19*
X0084932Y0075124D03*
M02*
