G75*
%MOIN*%
%OFA0B0*%
%FSLAX25Y25*%
%IPPOS*%
%LPD*%
%AMOC8*
5,1,8,0,0,1.08239X$1,22.5*
%
%ADD10C,0.00000*%
%ADD11C,0.06000*%
%ADD12C,0.07906*%
%ADD13C,0.05937*%
%ADD14C,0.02205*%
%ADD15C,0.01000*%
%ADD16C,0.00600*%
D10*
X0051468Y0044415D02*
X0112491Y0044415D01*
X0112491Y0083785D01*
X0112491Y0079848D02*
X0112491Y0134966D01*
X0051468Y0134966D01*
X0051468Y0044415D01*
X0056625Y0047013D02*
X0056627Y0047061D01*
X0056633Y0047109D01*
X0056643Y0047156D01*
X0056656Y0047202D01*
X0056674Y0047247D01*
X0056694Y0047291D01*
X0056719Y0047333D01*
X0056747Y0047372D01*
X0056777Y0047409D01*
X0056811Y0047443D01*
X0056848Y0047475D01*
X0056886Y0047504D01*
X0056927Y0047529D01*
X0056970Y0047551D01*
X0057015Y0047569D01*
X0057061Y0047583D01*
X0057108Y0047594D01*
X0057156Y0047601D01*
X0057204Y0047604D01*
X0057252Y0047603D01*
X0057300Y0047598D01*
X0057348Y0047589D01*
X0057394Y0047577D01*
X0057439Y0047560D01*
X0057483Y0047540D01*
X0057525Y0047517D01*
X0057565Y0047490D01*
X0057603Y0047460D01*
X0057638Y0047427D01*
X0057670Y0047391D01*
X0057700Y0047353D01*
X0057726Y0047312D01*
X0057748Y0047269D01*
X0057768Y0047225D01*
X0057783Y0047180D01*
X0057795Y0047133D01*
X0057803Y0047085D01*
X0057807Y0047037D01*
X0057807Y0046989D01*
X0057803Y0046941D01*
X0057795Y0046893D01*
X0057783Y0046846D01*
X0057768Y0046801D01*
X0057748Y0046757D01*
X0057726Y0046714D01*
X0057700Y0046673D01*
X0057670Y0046635D01*
X0057638Y0046599D01*
X0057603Y0046566D01*
X0057565Y0046536D01*
X0057525Y0046509D01*
X0057483Y0046486D01*
X0057439Y0046466D01*
X0057394Y0046449D01*
X0057348Y0046437D01*
X0057300Y0046428D01*
X0057252Y0046423D01*
X0057204Y0046422D01*
X0057156Y0046425D01*
X0057108Y0046432D01*
X0057061Y0046443D01*
X0057015Y0046457D01*
X0056970Y0046475D01*
X0056927Y0046497D01*
X0056886Y0046522D01*
X0056848Y0046551D01*
X0056811Y0046583D01*
X0056777Y0046617D01*
X0056747Y0046654D01*
X0056719Y0046693D01*
X0056694Y0046735D01*
X0056674Y0046779D01*
X0056656Y0046824D01*
X0056643Y0046870D01*
X0056633Y0046917D01*
X0056627Y0046965D01*
X0056625Y0047013D01*
X0056625Y0054415D02*
X0056627Y0054463D01*
X0056633Y0054511D01*
X0056643Y0054558D01*
X0056656Y0054604D01*
X0056674Y0054649D01*
X0056694Y0054693D01*
X0056719Y0054735D01*
X0056747Y0054774D01*
X0056777Y0054811D01*
X0056811Y0054845D01*
X0056848Y0054877D01*
X0056886Y0054906D01*
X0056927Y0054931D01*
X0056970Y0054953D01*
X0057015Y0054971D01*
X0057061Y0054985D01*
X0057108Y0054996D01*
X0057156Y0055003D01*
X0057204Y0055006D01*
X0057252Y0055005D01*
X0057300Y0055000D01*
X0057348Y0054991D01*
X0057394Y0054979D01*
X0057439Y0054962D01*
X0057483Y0054942D01*
X0057525Y0054919D01*
X0057565Y0054892D01*
X0057603Y0054862D01*
X0057638Y0054829D01*
X0057670Y0054793D01*
X0057700Y0054755D01*
X0057726Y0054714D01*
X0057748Y0054671D01*
X0057768Y0054627D01*
X0057783Y0054582D01*
X0057795Y0054535D01*
X0057803Y0054487D01*
X0057807Y0054439D01*
X0057807Y0054391D01*
X0057803Y0054343D01*
X0057795Y0054295D01*
X0057783Y0054248D01*
X0057768Y0054203D01*
X0057748Y0054159D01*
X0057726Y0054116D01*
X0057700Y0054075D01*
X0057670Y0054037D01*
X0057638Y0054001D01*
X0057603Y0053968D01*
X0057565Y0053938D01*
X0057525Y0053911D01*
X0057483Y0053888D01*
X0057439Y0053868D01*
X0057394Y0053851D01*
X0057348Y0053839D01*
X0057300Y0053830D01*
X0057252Y0053825D01*
X0057204Y0053824D01*
X0057156Y0053827D01*
X0057108Y0053834D01*
X0057061Y0053845D01*
X0057015Y0053859D01*
X0056970Y0053877D01*
X0056927Y0053899D01*
X0056886Y0053924D01*
X0056848Y0053953D01*
X0056811Y0053985D01*
X0056777Y0054019D01*
X0056747Y0054056D01*
X0056719Y0054095D01*
X0056694Y0054137D01*
X0056674Y0054181D01*
X0056656Y0054226D01*
X0056643Y0054272D01*
X0056633Y0054319D01*
X0056627Y0054367D01*
X0056625Y0054415D01*
X0064026Y0054415D02*
X0064028Y0054463D01*
X0064034Y0054511D01*
X0064044Y0054558D01*
X0064057Y0054604D01*
X0064075Y0054649D01*
X0064095Y0054693D01*
X0064120Y0054735D01*
X0064148Y0054774D01*
X0064178Y0054811D01*
X0064212Y0054845D01*
X0064249Y0054877D01*
X0064287Y0054906D01*
X0064328Y0054931D01*
X0064371Y0054953D01*
X0064416Y0054971D01*
X0064462Y0054985D01*
X0064509Y0054996D01*
X0064557Y0055003D01*
X0064605Y0055006D01*
X0064653Y0055005D01*
X0064701Y0055000D01*
X0064749Y0054991D01*
X0064795Y0054979D01*
X0064840Y0054962D01*
X0064884Y0054942D01*
X0064926Y0054919D01*
X0064966Y0054892D01*
X0065004Y0054862D01*
X0065039Y0054829D01*
X0065071Y0054793D01*
X0065101Y0054755D01*
X0065127Y0054714D01*
X0065149Y0054671D01*
X0065169Y0054627D01*
X0065184Y0054582D01*
X0065196Y0054535D01*
X0065204Y0054487D01*
X0065208Y0054439D01*
X0065208Y0054391D01*
X0065204Y0054343D01*
X0065196Y0054295D01*
X0065184Y0054248D01*
X0065169Y0054203D01*
X0065149Y0054159D01*
X0065127Y0054116D01*
X0065101Y0054075D01*
X0065071Y0054037D01*
X0065039Y0054001D01*
X0065004Y0053968D01*
X0064966Y0053938D01*
X0064926Y0053911D01*
X0064884Y0053888D01*
X0064840Y0053868D01*
X0064795Y0053851D01*
X0064749Y0053839D01*
X0064701Y0053830D01*
X0064653Y0053825D01*
X0064605Y0053824D01*
X0064557Y0053827D01*
X0064509Y0053834D01*
X0064462Y0053845D01*
X0064416Y0053859D01*
X0064371Y0053877D01*
X0064328Y0053899D01*
X0064287Y0053924D01*
X0064249Y0053953D01*
X0064212Y0053985D01*
X0064178Y0054019D01*
X0064148Y0054056D01*
X0064120Y0054095D01*
X0064095Y0054137D01*
X0064075Y0054181D01*
X0064057Y0054226D01*
X0064044Y0054272D01*
X0064034Y0054319D01*
X0064028Y0054367D01*
X0064026Y0054415D01*
X0064026Y0047013D02*
X0064028Y0047061D01*
X0064034Y0047109D01*
X0064044Y0047156D01*
X0064057Y0047202D01*
X0064075Y0047247D01*
X0064095Y0047291D01*
X0064120Y0047333D01*
X0064148Y0047372D01*
X0064178Y0047409D01*
X0064212Y0047443D01*
X0064249Y0047475D01*
X0064287Y0047504D01*
X0064328Y0047529D01*
X0064371Y0047551D01*
X0064416Y0047569D01*
X0064462Y0047583D01*
X0064509Y0047594D01*
X0064557Y0047601D01*
X0064605Y0047604D01*
X0064653Y0047603D01*
X0064701Y0047598D01*
X0064749Y0047589D01*
X0064795Y0047577D01*
X0064840Y0047560D01*
X0064884Y0047540D01*
X0064926Y0047517D01*
X0064966Y0047490D01*
X0065004Y0047460D01*
X0065039Y0047427D01*
X0065071Y0047391D01*
X0065101Y0047353D01*
X0065127Y0047312D01*
X0065149Y0047269D01*
X0065169Y0047225D01*
X0065184Y0047180D01*
X0065196Y0047133D01*
X0065204Y0047085D01*
X0065208Y0047037D01*
X0065208Y0046989D01*
X0065204Y0046941D01*
X0065196Y0046893D01*
X0065184Y0046846D01*
X0065169Y0046801D01*
X0065149Y0046757D01*
X0065127Y0046714D01*
X0065101Y0046673D01*
X0065071Y0046635D01*
X0065039Y0046599D01*
X0065004Y0046566D01*
X0064966Y0046536D01*
X0064926Y0046509D01*
X0064884Y0046486D01*
X0064840Y0046466D01*
X0064795Y0046449D01*
X0064749Y0046437D01*
X0064701Y0046428D01*
X0064653Y0046423D01*
X0064605Y0046422D01*
X0064557Y0046425D01*
X0064509Y0046432D01*
X0064462Y0046443D01*
X0064416Y0046457D01*
X0064371Y0046475D01*
X0064328Y0046497D01*
X0064287Y0046522D01*
X0064249Y0046551D01*
X0064212Y0046583D01*
X0064178Y0046617D01*
X0064148Y0046654D01*
X0064120Y0046693D01*
X0064095Y0046735D01*
X0064075Y0046779D01*
X0064057Y0046824D01*
X0064044Y0046870D01*
X0064034Y0046917D01*
X0064028Y0046965D01*
X0064026Y0047013D01*
X0071192Y0047013D02*
X0071194Y0047061D01*
X0071200Y0047109D01*
X0071210Y0047156D01*
X0071223Y0047202D01*
X0071241Y0047247D01*
X0071261Y0047291D01*
X0071286Y0047333D01*
X0071314Y0047372D01*
X0071344Y0047409D01*
X0071378Y0047443D01*
X0071415Y0047475D01*
X0071453Y0047504D01*
X0071494Y0047529D01*
X0071537Y0047551D01*
X0071582Y0047569D01*
X0071628Y0047583D01*
X0071675Y0047594D01*
X0071723Y0047601D01*
X0071771Y0047604D01*
X0071819Y0047603D01*
X0071867Y0047598D01*
X0071915Y0047589D01*
X0071961Y0047577D01*
X0072006Y0047560D01*
X0072050Y0047540D01*
X0072092Y0047517D01*
X0072132Y0047490D01*
X0072170Y0047460D01*
X0072205Y0047427D01*
X0072237Y0047391D01*
X0072267Y0047353D01*
X0072293Y0047312D01*
X0072315Y0047269D01*
X0072335Y0047225D01*
X0072350Y0047180D01*
X0072362Y0047133D01*
X0072370Y0047085D01*
X0072374Y0047037D01*
X0072374Y0046989D01*
X0072370Y0046941D01*
X0072362Y0046893D01*
X0072350Y0046846D01*
X0072335Y0046801D01*
X0072315Y0046757D01*
X0072293Y0046714D01*
X0072267Y0046673D01*
X0072237Y0046635D01*
X0072205Y0046599D01*
X0072170Y0046566D01*
X0072132Y0046536D01*
X0072092Y0046509D01*
X0072050Y0046486D01*
X0072006Y0046466D01*
X0071961Y0046449D01*
X0071915Y0046437D01*
X0071867Y0046428D01*
X0071819Y0046423D01*
X0071771Y0046422D01*
X0071723Y0046425D01*
X0071675Y0046432D01*
X0071628Y0046443D01*
X0071582Y0046457D01*
X0071537Y0046475D01*
X0071494Y0046497D01*
X0071453Y0046522D01*
X0071415Y0046551D01*
X0071378Y0046583D01*
X0071344Y0046617D01*
X0071314Y0046654D01*
X0071286Y0046693D01*
X0071261Y0046735D01*
X0071241Y0046779D01*
X0071223Y0046824D01*
X0071210Y0046870D01*
X0071200Y0046917D01*
X0071194Y0046965D01*
X0071192Y0047013D01*
X0071192Y0054415D02*
X0071194Y0054463D01*
X0071200Y0054511D01*
X0071210Y0054558D01*
X0071223Y0054604D01*
X0071241Y0054649D01*
X0071261Y0054693D01*
X0071286Y0054735D01*
X0071314Y0054774D01*
X0071344Y0054811D01*
X0071378Y0054845D01*
X0071415Y0054877D01*
X0071453Y0054906D01*
X0071494Y0054931D01*
X0071537Y0054953D01*
X0071582Y0054971D01*
X0071628Y0054985D01*
X0071675Y0054996D01*
X0071723Y0055003D01*
X0071771Y0055006D01*
X0071819Y0055005D01*
X0071867Y0055000D01*
X0071915Y0054991D01*
X0071961Y0054979D01*
X0072006Y0054962D01*
X0072050Y0054942D01*
X0072092Y0054919D01*
X0072132Y0054892D01*
X0072170Y0054862D01*
X0072205Y0054829D01*
X0072237Y0054793D01*
X0072267Y0054755D01*
X0072293Y0054714D01*
X0072315Y0054671D01*
X0072335Y0054627D01*
X0072350Y0054582D01*
X0072362Y0054535D01*
X0072370Y0054487D01*
X0072374Y0054439D01*
X0072374Y0054391D01*
X0072370Y0054343D01*
X0072362Y0054295D01*
X0072350Y0054248D01*
X0072335Y0054203D01*
X0072315Y0054159D01*
X0072293Y0054116D01*
X0072267Y0054075D01*
X0072237Y0054037D01*
X0072205Y0054001D01*
X0072170Y0053968D01*
X0072132Y0053938D01*
X0072092Y0053911D01*
X0072050Y0053888D01*
X0072006Y0053868D01*
X0071961Y0053851D01*
X0071915Y0053839D01*
X0071867Y0053830D01*
X0071819Y0053825D01*
X0071771Y0053824D01*
X0071723Y0053827D01*
X0071675Y0053834D01*
X0071628Y0053845D01*
X0071582Y0053859D01*
X0071537Y0053877D01*
X0071494Y0053899D01*
X0071453Y0053924D01*
X0071415Y0053953D01*
X0071378Y0053985D01*
X0071344Y0054019D01*
X0071314Y0054056D01*
X0071286Y0054095D01*
X0071261Y0054137D01*
X0071241Y0054181D01*
X0071223Y0054226D01*
X0071210Y0054272D01*
X0071200Y0054319D01*
X0071194Y0054367D01*
X0071192Y0054415D01*
X0078593Y0054415D02*
X0078595Y0054463D01*
X0078601Y0054511D01*
X0078611Y0054558D01*
X0078624Y0054604D01*
X0078642Y0054649D01*
X0078662Y0054693D01*
X0078687Y0054735D01*
X0078715Y0054774D01*
X0078745Y0054811D01*
X0078779Y0054845D01*
X0078816Y0054877D01*
X0078854Y0054906D01*
X0078895Y0054931D01*
X0078938Y0054953D01*
X0078983Y0054971D01*
X0079029Y0054985D01*
X0079076Y0054996D01*
X0079124Y0055003D01*
X0079172Y0055006D01*
X0079220Y0055005D01*
X0079268Y0055000D01*
X0079316Y0054991D01*
X0079362Y0054979D01*
X0079407Y0054962D01*
X0079451Y0054942D01*
X0079493Y0054919D01*
X0079533Y0054892D01*
X0079571Y0054862D01*
X0079606Y0054829D01*
X0079638Y0054793D01*
X0079668Y0054755D01*
X0079694Y0054714D01*
X0079716Y0054671D01*
X0079736Y0054627D01*
X0079751Y0054582D01*
X0079763Y0054535D01*
X0079771Y0054487D01*
X0079775Y0054439D01*
X0079775Y0054391D01*
X0079771Y0054343D01*
X0079763Y0054295D01*
X0079751Y0054248D01*
X0079736Y0054203D01*
X0079716Y0054159D01*
X0079694Y0054116D01*
X0079668Y0054075D01*
X0079638Y0054037D01*
X0079606Y0054001D01*
X0079571Y0053968D01*
X0079533Y0053938D01*
X0079493Y0053911D01*
X0079451Y0053888D01*
X0079407Y0053868D01*
X0079362Y0053851D01*
X0079316Y0053839D01*
X0079268Y0053830D01*
X0079220Y0053825D01*
X0079172Y0053824D01*
X0079124Y0053827D01*
X0079076Y0053834D01*
X0079029Y0053845D01*
X0078983Y0053859D01*
X0078938Y0053877D01*
X0078895Y0053899D01*
X0078854Y0053924D01*
X0078816Y0053953D01*
X0078779Y0053985D01*
X0078745Y0054019D01*
X0078715Y0054056D01*
X0078687Y0054095D01*
X0078662Y0054137D01*
X0078642Y0054181D01*
X0078624Y0054226D01*
X0078611Y0054272D01*
X0078601Y0054319D01*
X0078595Y0054367D01*
X0078593Y0054415D01*
X0078593Y0047013D02*
X0078595Y0047061D01*
X0078601Y0047109D01*
X0078611Y0047156D01*
X0078624Y0047202D01*
X0078642Y0047247D01*
X0078662Y0047291D01*
X0078687Y0047333D01*
X0078715Y0047372D01*
X0078745Y0047409D01*
X0078779Y0047443D01*
X0078816Y0047475D01*
X0078854Y0047504D01*
X0078895Y0047529D01*
X0078938Y0047551D01*
X0078983Y0047569D01*
X0079029Y0047583D01*
X0079076Y0047594D01*
X0079124Y0047601D01*
X0079172Y0047604D01*
X0079220Y0047603D01*
X0079268Y0047598D01*
X0079316Y0047589D01*
X0079362Y0047577D01*
X0079407Y0047560D01*
X0079451Y0047540D01*
X0079493Y0047517D01*
X0079533Y0047490D01*
X0079571Y0047460D01*
X0079606Y0047427D01*
X0079638Y0047391D01*
X0079668Y0047353D01*
X0079694Y0047312D01*
X0079716Y0047269D01*
X0079736Y0047225D01*
X0079751Y0047180D01*
X0079763Y0047133D01*
X0079771Y0047085D01*
X0079775Y0047037D01*
X0079775Y0046989D01*
X0079771Y0046941D01*
X0079763Y0046893D01*
X0079751Y0046846D01*
X0079736Y0046801D01*
X0079716Y0046757D01*
X0079694Y0046714D01*
X0079668Y0046673D01*
X0079638Y0046635D01*
X0079606Y0046599D01*
X0079571Y0046566D01*
X0079533Y0046536D01*
X0079493Y0046509D01*
X0079451Y0046486D01*
X0079407Y0046466D01*
X0079362Y0046449D01*
X0079316Y0046437D01*
X0079268Y0046428D01*
X0079220Y0046423D01*
X0079172Y0046422D01*
X0079124Y0046425D01*
X0079076Y0046432D01*
X0079029Y0046443D01*
X0078983Y0046457D01*
X0078938Y0046475D01*
X0078895Y0046497D01*
X0078854Y0046522D01*
X0078816Y0046551D01*
X0078779Y0046583D01*
X0078745Y0046617D01*
X0078715Y0046654D01*
X0078687Y0046693D01*
X0078662Y0046735D01*
X0078642Y0046779D01*
X0078624Y0046824D01*
X0078611Y0046870D01*
X0078601Y0046917D01*
X0078595Y0046965D01*
X0078593Y0047013D01*
X0087333Y0047013D02*
X0087335Y0047061D01*
X0087341Y0047109D01*
X0087351Y0047156D01*
X0087364Y0047202D01*
X0087382Y0047247D01*
X0087402Y0047291D01*
X0087427Y0047333D01*
X0087455Y0047372D01*
X0087485Y0047409D01*
X0087519Y0047443D01*
X0087556Y0047475D01*
X0087594Y0047504D01*
X0087635Y0047529D01*
X0087678Y0047551D01*
X0087723Y0047569D01*
X0087769Y0047583D01*
X0087816Y0047594D01*
X0087864Y0047601D01*
X0087912Y0047604D01*
X0087960Y0047603D01*
X0088008Y0047598D01*
X0088056Y0047589D01*
X0088102Y0047577D01*
X0088147Y0047560D01*
X0088191Y0047540D01*
X0088233Y0047517D01*
X0088273Y0047490D01*
X0088311Y0047460D01*
X0088346Y0047427D01*
X0088378Y0047391D01*
X0088408Y0047353D01*
X0088434Y0047312D01*
X0088456Y0047269D01*
X0088476Y0047225D01*
X0088491Y0047180D01*
X0088503Y0047133D01*
X0088511Y0047085D01*
X0088515Y0047037D01*
X0088515Y0046989D01*
X0088511Y0046941D01*
X0088503Y0046893D01*
X0088491Y0046846D01*
X0088476Y0046801D01*
X0088456Y0046757D01*
X0088434Y0046714D01*
X0088408Y0046673D01*
X0088378Y0046635D01*
X0088346Y0046599D01*
X0088311Y0046566D01*
X0088273Y0046536D01*
X0088233Y0046509D01*
X0088191Y0046486D01*
X0088147Y0046466D01*
X0088102Y0046449D01*
X0088056Y0046437D01*
X0088008Y0046428D01*
X0087960Y0046423D01*
X0087912Y0046422D01*
X0087864Y0046425D01*
X0087816Y0046432D01*
X0087769Y0046443D01*
X0087723Y0046457D01*
X0087678Y0046475D01*
X0087635Y0046497D01*
X0087594Y0046522D01*
X0087556Y0046551D01*
X0087519Y0046583D01*
X0087485Y0046617D01*
X0087455Y0046654D01*
X0087427Y0046693D01*
X0087402Y0046735D01*
X0087382Y0046779D01*
X0087364Y0046824D01*
X0087351Y0046870D01*
X0087341Y0046917D01*
X0087335Y0046965D01*
X0087333Y0047013D01*
X0087333Y0054415D02*
X0087335Y0054463D01*
X0087341Y0054511D01*
X0087351Y0054558D01*
X0087364Y0054604D01*
X0087382Y0054649D01*
X0087402Y0054693D01*
X0087427Y0054735D01*
X0087455Y0054774D01*
X0087485Y0054811D01*
X0087519Y0054845D01*
X0087556Y0054877D01*
X0087594Y0054906D01*
X0087635Y0054931D01*
X0087678Y0054953D01*
X0087723Y0054971D01*
X0087769Y0054985D01*
X0087816Y0054996D01*
X0087864Y0055003D01*
X0087912Y0055006D01*
X0087960Y0055005D01*
X0088008Y0055000D01*
X0088056Y0054991D01*
X0088102Y0054979D01*
X0088147Y0054962D01*
X0088191Y0054942D01*
X0088233Y0054919D01*
X0088273Y0054892D01*
X0088311Y0054862D01*
X0088346Y0054829D01*
X0088378Y0054793D01*
X0088408Y0054755D01*
X0088434Y0054714D01*
X0088456Y0054671D01*
X0088476Y0054627D01*
X0088491Y0054582D01*
X0088503Y0054535D01*
X0088511Y0054487D01*
X0088515Y0054439D01*
X0088515Y0054391D01*
X0088511Y0054343D01*
X0088503Y0054295D01*
X0088491Y0054248D01*
X0088476Y0054203D01*
X0088456Y0054159D01*
X0088434Y0054116D01*
X0088408Y0054075D01*
X0088378Y0054037D01*
X0088346Y0054001D01*
X0088311Y0053968D01*
X0088273Y0053938D01*
X0088233Y0053911D01*
X0088191Y0053888D01*
X0088147Y0053868D01*
X0088102Y0053851D01*
X0088056Y0053839D01*
X0088008Y0053830D01*
X0087960Y0053825D01*
X0087912Y0053824D01*
X0087864Y0053827D01*
X0087816Y0053834D01*
X0087769Y0053845D01*
X0087723Y0053859D01*
X0087678Y0053877D01*
X0087635Y0053899D01*
X0087594Y0053924D01*
X0087556Y0053953D01*
X0087519Y0053985D01*
X0087485Y0054019D01*
X0087455Y0054056D01*
X0087427Y0054095D01*
X0087402Y0054137D01*
X0087382Y0054181D01*
X0087364Y0054226D01*
X0087351Y0054272D01*
X0087341Y0054319D01*
X0087335Y0054367D01*
X0087333Y0054415D01*
X0094735Y0054415D02*
X0094737Y0054463D01*
X0094743Y0054511D01*
X0094753Y0054558D01*
X0094766Y0054604D01*
X0094784Y0054649D01*
X0094804Y0054693D01*
X0094829Y0054735D01*
X0094857Y0054774D01*
X0094887Y0054811D01*
X0094921Y0054845D01*
X0094958Y0054877D01*
X0094996Y0054906D01*
X0095037Y0054931D01*
X0095080Y0054953D01*
X0095125Y0054971D01*
X0095171Y0054985D01*
X0095218Y0054996D01*
X0095266Y0055003D01*
X0095314Y0055006D01*
X0095362Y0055005D01*
X0095410Y0055000D01*
X0095458Y0054991D01*
X0095504Y0054979D01*
X0095549Y0054962D01*
X0095593Y0054942D01*
X0095635Y0054919D01*
X0095675Y0054892D01*
X0095713Y0054862D01*
X0095748Y0054829D01*
X0095780Y0054793D01*
X0095810Y0054755D01*
X0095836Y0054714D01*
X0095858Y0054671D01*
X0095878Y0054627D01*
X0095893Y0054582D01*
X0095905Y0054535D01*
X0095913Y0054487D01*
X0095917Y0054439D01*
X0095917Y0054391D01*
X0095913Y0054343D01*
X0095905Y0054295D01*
X0095893Y0054248D01*
X0095878Y0054203D01*
X0095858Y0054159D01*
X0095836Y0054116D01*
X0095810Y0054075D01*
X0095780Y0054037D01*
X0095748Y0054001D01*
X0095713Y0053968D01*
X0095675Y0053938D01*
X0095635Y0053911D01*
X0095593Y0053888D01*
X0095549Y0053868D01*
X0095504Y0053851D01*
X0095458Y0053839D01*
X0095410Y0053830D01*
X0095362Y0053825D01*
X0095314Y0053824D01*
X0095266Y0053827D01*
X0095218Y0053834D01*
X0095171Y0053845D01*
X0095125Y0053859D01*
X0095080Y0053877D01*
X0095037Y0053899D01*
X0094996Y0053924D01*
X0094958Y0053953D01*
X0094921Y0053985D01*
X0094887Y0054019D01*
X0094857Y0054056D01*
X0094829Y0054095D01*
X0094804Y0054137D01*
X0094784Y0054181D01*
X0094766Y0054226D01*
X0094753Y0054272D01*
X0094743Y0054319D01*
X0094737Y0054367D01*
X0094735Y0054415D01*
X0094735Y0047013D02*
X0094737Y0047061D01*
X0094743Y0047109D01*
X0094753Y0047156D01*
X0094766Y0047202D01*
X0094784Y0047247D01*
X0094804Y0047291D01*
X0094829Y0047333D01*
X0094857Y0047372D01*
X0094887Y0047409D01*
X0094921Y0047443D01*
X0094958Y0047475D01*
X0094996Y0047504D01*
X0095037Y0047529D01*
X0095080Y0047551D01*
X0095125Y0047569D01*
X0095171Y0047583D01*
X0095218Y0047594D01*
X0095266Y0047601D01*
X0095314Y0047604D01*
X0095362Y0047603D01*
X0095410Y0047598D01*
X0095458Y0047589D01*
X0095504Y0047577D01*
X0095549Y0047560D01*
X0095593Y0047540D01*
X0095635Y0047517D01*
X0095675Y0047490D01*
X0095713Y0047460D01*
X0095748Y0047427D01*
X0095780Y0047391D01*
X0095810Y0047353D01*
X0095836Y0047312D01*
X0095858Y0047269D01*
X0095878Y0047225D01*
X0095893Y0047180D01*
X0095905Y0047133D01*
X0095913Y0047085D01*
X0095917Y0047037D01*
X0095917Y0046989D01*
X0095913Y0046941D01*
X0095905Y0046893D01*
X0095893Y0046846D01*
X0095878Y0046801D01*
X0095858Y0046757D01*
X0095836Y0046714D01*
X0095810Y0046673D01*
X0095780Y0046635D01*
X0095748Y0046599D01*
X0095713Y0046566D01*
X0095675Y0046536D01*
X0095635Y0046509D01*
X0095593Y0046486D01*
X0095549Y0046466D01*
X0095504Y0046449D01*
X0095458Y0046437D01*
X0095410Y0046428D01*
X0095362Y0046423D01*
X0095314Y0046422D01*
X0095266Y0046425D01*
X0095218Y0046432D01*
X0095171Y0046443D01*
X0095125Y0046457D01*
X0095080Y0046475D01*
X0095037Y0046497D01*
X0094996Y0046522D01*
X0094958Y0046551D01*
X0094921Y0046583D01*
X0094887Y0046617D01*
X0094857Y0046654D01*
X0094829Y0046693D01*
X0094804Y0046735D01*
X0094784Y0046779D01*
X0094766Y0046824D01*
X0094753Y0046870D01*
X0094743Y0046917D01*
X0094737Y0046965D01*
X0094735Y0047013D01*
X0101900Y0047013D02*
X0101902Y0047061D01*
X0101908Y0047109D01*
X0101918Y0047156D01*
X0101931Y0047202D01*
X0101949Y0047247D01*
X0101969Y0047291D01*
X0101994Y0047333D01*
X0102022Y0047372D01*
X0102052Y0047409D01*
X0102086Y0047443D01*
X0102123Y0047475D01*
X0102161Y0047504D01*
X0102202Y0047529D01*
X0102245Y0047551D01*
X0102290Y0047569D01*
X0102336Y0047583D01*
X0102383Y0047594D01*
X0102431Y0047601D01*
X0102479Y0047604D01*
X0102527Y0047603D01*
X0102575Y0047598D01*
X0102623Y0047589D01*
X0102669Y0047577D01*
X0102714Y0047560D01*
X0102758Y0047540D01*
X0102800Y0047517D01*
X0102840Y0047490D01*
X0102878Y0047460D01*
X0102913Y0047427D01*
X0102945Y0047391D01*
X0102975Y0047353D01*
X0103001Y0047312D01*
X0103023Y0047269D01*
X0103043Y0047225D01*
X0103058Y0047180D01*
X0103070Y0047133D01*
X0103078Y0047085D01*
X0103082Y0047037D01*
X0103082Y0046989D01*
X0103078Y0046941D01*
X0103070Y0046893D01*
X0103058Y0046846D01*
X0103043Y0046801D01*
X0103023Y0046757D01*
X0103001Y0046714D01*
X0102975Y0046673D01*
X0102945Y0046635D01*
X0102913Y0046599D01*
X0102878Y0046566D01*
X0102840Y0046536D01*
X0102800Y0046509D01*
X0102758Y0046486D01*
X0102714Y0046466D01*
X0102669Y0046449D01*
X0102623Y0046437D01*
X0102575Y0046428D01*
X0102527Y0046423D01*
X0102479Y0046422D01*
X0102431Y0046425D01*
X0102383Y0046432D01*
X0102336Y0046443D01*
X0102290Y0046457D01*
X0102245Y0046475D01*
X0102202Y0046497D01*
X0102161Y0046522D01*
X0102123Y0046551D01*
X0102086Y0046583D01*
X0102052Y0046617D01*
X0102022Y0046654D01*
X0101994Y0046693D01*
X0101969Y0046735D01*
X0101949Y0046779D01*
X0101931Y0046824D01*
X0101918Y0046870D01*
X0101908Y0046917D01*
X0101902Y0046965D01*
X0101900Y0047013D01*
X0101900Y0054415D02*
X0101902Y0054463D01*
X0101908Y0054511D01*
X0101918Y0054558D01*
X0101931Y0054604D01*
X0101949Y0054649D01*
X0101969Y0054693D01*
X0101994Y0054735D01*
X0102022Y0054774D01*
X0102052Y0054811D01*
X0102086Y0054845D01*
X0102123Y0054877D01*
X0102161Y0054906D01*
X0102202Y0054931D01*
X0102245Y0054953D01*
X0102290Y0054971D01*
X0102336Y0054985D01*
X0102383Y0054996D01*
X0102431Y0055003D01*
X0102479Y0055006D01*
X0102527Y0055005D01*
X0102575Y0055000D01*
X0102623Y0054991D01*
X0102669Y0054979D01*
X0102714Y0054962D01*
X0102758Y0054942D01*
X0102800Y0054919D01*
X0102840Y0054892D01*
X0102878Y0054862D01*
X0102913Y0054829D01*
X0102945Y0054793D01*
X0102975Y0054755D01*
X0103001Y0054714D01*
X0103023Y0054671D01*
X0103043Y0054627D01*
X0103058Y0054582D01*
X0103070Y0054535D01*
X0103078Y0054487D01*
X0103082Y0054439D01*
X0103082Y0054391D01*
X0103078Y0054343D01*
X0103070Y0054295D01*
X0103058Y0054248D01*
X0103043Y0054203D01*
X0103023Y0054159D01*
X0103001Y0054116D01*
X0102975Y0054075D01*
X0102945Y0054037D01*
X0102913Y0054001D01*
X0102878Y0053968D01*
X0102840Y0053938D01*
X0102800Y0053911D01*
X0102758Y0053888D01*
X0102714Y0053868D01*
X0102669Y0053851D01*
X0102623Y0053839D01*
X0102575Y0053830D01*
X0102527Y0053825D01*
X0102479Y0053824D01*
X0102431Y0053827D01*
X0102383Y0053834D01*
X0102336Y0053845D01*
X0102290Y0053859D01*
X0102245Y0053877D01*
X0102202Y0053899D01*
X0102161Y0053924D01*
X0102123Y0053953D01*
X0102086Y0053985D01*
X0102052Y0054019D01*
X0102022Y0054056D01*
X0101994Y0054095D01*
X0101969Y0054137D01*
X0101949Y0054181D01*
X0101931Y0054226D01*
X0101918Y0054272D01*
X0101908Y0054319D01*
X0101902Y0054367D01*
X0101900Y0054415D01*
X0109302Y0054415D02*
X0109304Y0054463D01*
X0109310Y0054511D01*
X0109320Y0054558D01*
X0109333Y0054604D01*
X0109351Y0054649D01*
X0109371Y0054693D01*
X0109396Y0054735D01*
X0109424Y0054774D01*
X0109454Y0054811D01*
X0109488Y0054845D01*
X0109525Y0054877D01*
X0109563Y0054906D01*
X0109604Y0054931D01*
X0109647Y0054953D01*
X0109692Y0054971D01*
X0109738Y0054985D01*
X0109785Y0054996D01*
X0109833Y0055003D01*
X0109881Y0055006D01*
X0109929Y0055005D01*
X0109977Y0055000D01*
X0110025Y0054991D01*
X0110071Y0054979D01*
X0110116Y0054962D01*
X0110160Y0054942D01*
X0110202Y0054919D01*
X0110242Y0054892D01*
X0110280Y0054862D01*
X0110315Y0054829D01*
X0110347Y0054793D01*
X0110377Y0054755D01*
X0110403Y0054714D01*
X0110425Y0054671D01*
X0110445Y0054627D01*
X0110460Y0054582D01*
X0110472Y0054535D01*
X0110480Y0054487D01*
X0110484Y0054439D01*
X0110484Y0054391D01*
X0110480Y0054343D01*
X0110472Y0054295D01*
X0110460Y0054248D01*
X0110445Y0054203D01*
X0110425Y0054159D01*
X0110403Y0054116D01*
X0110377Y0054075D01*
X0110347Y0054037D01*
X0110315Y0054001D01*
X0110280Y0053968D01*
X0110242Y0053938D01*
X0110202Y0053911D01*
X0110160Y0053888D01*
X0110116Y0053868D01*
X0110071Y0053851D01*
X0110025Y0053839D01*
X0109977Y0053830D01*
X0109929Y0053825D01*
X0109881Y0053824D01*
X0109833Y0053827D01*
X0109785Y0053834D01*
X0109738Y0053845D01*
X0109692Y0053859D01*
X0109647Y0053877D01*
X0109604Y0053899D01*
X0109563Y0053924D01*
X0109525Y0053953D01*
X0109488Y0053985D01*
X0109454Y0054019D01*
X0109424Y0054056D01*
X0109396Y0054095D01*
X0109371Y0054137D01*
X0109351Y0054181D01*
X0109333Y0054226D01*
X0109320Y0054272D01*
X0109310Y0054319D01*
X0109304Y0054367D01*
X0109302Y0054415D01*
X0109302Y0047013D02*
X0109304Y0047061D01*
X0109310Y0047109D01*
X0109320Y0047156D01*
X0109333Y0047202D01*
X0109351Y0047247D01*
X0109371Y0047291D01*
X0109396Y0047333D01*
X0109424Y0047372D01*
X0109454Y0047409D01*
X0109488Y0047443D01*
X0109525Y0047475D01*
X0109563Y0047504D01*
X0109604Y0047529D01*
X0109647Y0047551D01*
X0109692Y0047569D01*
X0109738Y0047583D01*
X0109785Y0047594D01*
X0109833Y0047601D01*
X0109881Y0047604D01*
X0109929Y0047603D01*
X0109977Y0047598D01*
X0110025Y0047589D01*
X0110071Y0047577D01*
X0110116Y0047560D01*
X0110160Y0047540D01*
X0110202Y0047517D01*
X0110242Y0047490D01*
X0110280Y0047460D01*
X0110315Y0047427D01*
X0110347Y0047391D01*
X0110377Y0047353D01*
X0110403Y0047312D01*
X0110425Y0047269D01*
X0110445Y0047225D01*
X0110460Y0047180D01*
X0110472Y0047133D01*
X0110480Y0047085D01*
X0110484Y0047037D01*
X0110484Y0046989D01*
X0110480Y0046941D01*
X0110472Y0046893D01*
X0110460Y0046846D01*
X0110445Y0046801D01*
X0110425Y0046757D01*
X0110403Y0046714D01*
X0110377Y0046673D01*
X0110347Y0046635D01*
X0110315Y0046599D01*
X0110280Y0046566D01*
X0110242Y0046536D01*
X0110202Y0046509D01*
X0110160Y0046486D01*
X0110116Y0046466D01*
X0110071Y0046449D01*
X0110025Y0046437D01*
X0109977Y0046428D01*
X0109929Y0046423D01*
X0109881Y0046422D01*
X0109833Y0046425D01*
X0109785Y0046432D01*
X0109738Y0046443D01*
X0109692Y0046457D01*
X0109647Y0046475D01*
X0109604Y0046497D01*
X0109563Y0046522D01*
X0109525Y0046551D01*
X0109488Y0046583D01*
X0109454Y0046617D01*
X0109424Y0046654D01*
X0109396Y0046693D01*
X0109371Y0046735D01*
X0109351Y0046779D01*
X0109333Y0046824D01*
X0109320Y0046870D01*
X0109310Y0046917D01*
X0109304Y0046965D01*
X0109302Y0047013D01*
D11*
X0057373Y0086935D03*
X0057373Y0096935D03*
X0057373Y0106935D03*
X0057373Y0116935D03*
X0057373Y0126935D03*
D12*
X0060917Y0050714D03*
X0075483Y0050714D03*
X0091625Y0050714D03*
X0106192Y0050714D03*
D13*
X0108121Y0064336D03*
X0108121Y0071187D03*
X0056035Y0071187D03*
X0056035Y0064336D03*
D14*
X0062452Y0065990D03*
X0065995Y0065675D03*
X0062649Y0062447D03*
X0062649Y0060084D03*
X0070405Y0065675D03*
X0075247Y0061659D03*
X0075247Y0059415D03*
X0062846Y0069612D03*
X0062885Y0073195D03*
X0067964Y0080793D03*
X0068003Y0083785D03*
X0073909Y0083391D03*
X0077058Y0082998D03*
X0079972Y0081856D03*
X0081783Y0084179D03*
X0085720Y0085360D03*
X0090444Y0089100D03*
X0094775Y0082604D03*
X0092413Y0079848D03*
X0095641Y0072722D03*
X0091940Y0067958D03*
X0093751Y0061725D03*
X0101901Y0065675D03*
X0110050Y0083667D03*
X0100680Y0089691D03*
X0102255Y0094809D03*
X0095405Y0098076D03*
X0087294Y0098352D03*
X0095602Y0107919D03*
X0092019Y0111344D03*
X0088082Y0114887D03*
X0084145Y0116856D03*
X0084145Y0112525D03*
X0092019Y0116856D03*
X0090444Y0127092D03*
X0081192Y0127643D03*
X0068987Y0118037D03*
X0066901Y0120202D03*
X0066231Y0123155D03*
X0066035Y0128273D03*
X0065247Y0132604D03*
X0066153Y0110360D03*
X0066625Y0097171D03*
X0073909Y0092053D03*
X0075483Y0089612D03*
X0077058Y0092053D03*
X0078633Y0099927D03*
X0079027Y0104651D03*
X0101468Y0123746D03*
X0103043Y0121226D03*
X0105011Y0118667D03*
X0106980Y0116147D03*
X0110602Y0115163D03*
X0110562Y0118037D03*
X0105798Y0111738D03*
X0105798Y0108903D03*
X0105798Y0103076D03*
X0110523Y0105045D03*
X0110523Y0095202D03*
X0105405Y0125557D03*
D15*
X0103002Y0125609D02*
X0102829Y0125782D01*
X0101946Y0126148D01*
X0100990Y0126148D01*
X0100107Y0125782D01*
X0099431Y0125107D01*
X0099065Y0124224D01*
X0099065Y0123268D01*
X0099431Y0122385D01*
X0100107Y0121709D01*
X0100640Y0121488D01*
X0100640Y0120748D01*
X0101006Y0119865D01*
X0101682Y0119189D01*
X0102565Y0118824D01*
X0102609Y0118824D01*
X0102609Y0118189D01*
X0102974Y0117306D01*
X0103650Y0116630D01*
X0104533Y0116265D01*
X0104577Y0116265D01*
X0104577Y0115669D01*
X0104943Y0114786D01*
X0105589Y0114140D01*
X0105321Y0114140D01*
X0104438Y0113774D01*
X0104001Y0113338D01*
X0101252Y0113338D01*
X0100314Y0112401D01*
X0098529Y0110615D01*
X0098529Y0099408D01*
X0096317Y0097196D01*
X0090175Y0097196D01*
X0089238Y0096259D01*
X0080183Y0087204D01*
X0080183Y0085976D01*
X0079746Y0085540D01*
X0079380Y0084657D01*
X0079380Y0083701D01*
X0079746Y0082818D01*
X0080422Y0082142D01*
X0081305Y0081776D01*
X0082261Y0081776D01*
X0083144Y0082142D01*
X0083819Y0082818D01*
X0084125Y0083557D01*
X0084359Y0083323D01*
X0085242Y0082958D01*
X0086198Y0082958D01*
X0087081Y0083323D01*
X0087756Y0083999D01*
X0088122Y0084882D01*
X0088122Y0085838D01*
X0087756Y0086721D01*
X0087320Y0087157D01*
X0087320Y0087453D01*
X0088173Y0088306D01*
X0088407Y0087739D01*
X0089083Y0087063D01*
X0089966Y0086698D01*
X0090922Y0086698D01*
X0091805Y0087063D01*
X0092481Y0087739D01*
X0092846Y0088622D01*
X0092846Y0089578D01*
X0092481Y0090461D01*
X0091805Y0091137D01*
X0091238Y0091371D01*
X0092288Y0092421D01*
X0098587Y0092421D01*
X0100041Y0093876D01*
X0100218Y0093448D01*
X0100894Y0092772D01*
X0101777Y0092406D01*
X0102733Y0092406D01*
X0103616Y0092772D01*
X0104292Y0093448D01*
X0104657Y0094331D01*
X0104657Y0095287D01*
X0104292Y0096170D01*
X0103616Y0096845D01*
X0103188Y0097022D01*
X0104886Y0098721D01*
X0105824Y0099658D01*
X0105824Y0100674D01*
X0106276Y0100674D01*
X0107159Y0101040D01*
X0107835Y0101716D01*
X0108201Y0102599D01*
X0108201Y0103554D01*
X0107835Y0104437D01*
X0107159Y0105113D01*
X0106276Y0105479D01*
X0105321Y0105479D01*
X0104438Y0105113D01*
X0103762Y0104437D01*
X0103396Y0103554D01*
X0103396Y0102937D01*
X0102624Y0102164D01*
X0102624Y0100983D01*
X0101729Y0100089D01*
X0101729Y0109290D01*
X0102577Y0110138D01*
X0104001Y0110138D01*
X0104438Y0109701D01*
X0105321Y0109335D01*
X0106276Y0109335D01*
X0107159Y0109701D01*
X0107835Y0110377D01*
X0108201Y0111260D01*
X0108201Y0112216D01*
X0107835Y0113099D01*
X0107189Y0113745D01*
X0107457Y0113745D01*
X0108340Y0114111D01*
X0108409Y0114179D01*
X0108565Y0113802D01*
X0109241Y0113126D01*
X0110124Y0112761D01*
X0111079Y0112761D01*
X0111191Y0112807D01*
X0111191Y0055832D01*
X0111149Y0055832D01*
X0110676Y0056306D01*
X0109110Y0056306D01*
X0108637Y0055832D01*
X0107562Y0055832D01*
X0107237Y0055967D01*
X0105147Y0055967D01*
X0104822Y0055832D01*
X0103748Y0055832D01*
X0103274Y0056306D01*
X0101708Y0056306D01*
X0101235Y0055832D01*
X0096582Y0055832D01*
X0096109Y0056306D01*
X0094543Y0056306D01*
X0094070Y0055832D01*
X0092995Y0055832D01*
X0092670Y0055967D01*
X0090580Y0055967D01*
X0090255Y0055832D01*
X0089181Y0055832D01*
X0088707Y0056306D01*
X0087141Y0056306D01*
X0086668Y0055832D01*
X0080441Y0055832D01*
X0079967Y0056306D01*
X0078401Y0056306D01*
X0077928Y0055832D01*
X0076853Y0055832D01*
X0076528Y0055967D01*
X0074439Y0055967D01*
X0074114Y0055832D01*
X0073039Y0055832D01*
X0072566Y0056306D01*
X0071000Y0056306D01*
X0070526Y0055832D01*
X0065874Y0055832D01*
X0065400Y0056306D01*
X0063834Y0056306D01*
X0063361Y0055832D01*
X0062286Y0055832D01*
X0061961Y0055967D01*
X0059872Y0055967D01*
X0059547Y0055832D01*
X0058472Y0055832D01*
X0057999Y0056306D01*
X0057373Y0056306D01*
X0057373Y0060271D01*
X0058453Y0060718D01*
X0059653Y0061918D01*
X0060303Y0063487D01*
X0060303Y0065185D01*
X0059653Y0066754D01*
X0058646Y0067761D01*
X0059653Y0068769D01*
X0060303Y0070338D01*
X0060303Y0072036D01*
X0059653Y0073605D01*
X0058453Y0074805D01*
X0057373Y0075252D01*
X0057373Y0082635D01*
X0058229Y0082635D01*
X0059809Y0083289D01*
X0061019Y0084499D01*
X0061673Y0086079D01*
X0061673Y0087790D01*
X0061019Y0089370D01*
X0059809Y0090580D01*
X0058229Y0091235D01*
X0057373Y0091235D01*
X0057373Y0092635D01*
X0058229Y0092635D01*
X0059809Y0093289D01*
X0061019Y0094499D01*
X0061673Y0096079D01*
X0061673Y0097790D01*
X0061019Y0099370D01*
X0059809Y0100580D01*
X0058229Y0101235D01*
X0057373Y0101235D01*
X0057373Y0102635D01*
X0058229Y0102635D01*
X0059809Y0103289D01*
X0061019Y0104499D01*
X0061673Y0106079D01*
X0061673Y0107790D01*
X0061019Y0109370D01*
X0059809Y0110580D01*
X0058229Y0111235D01*
X0057373Y0111235D01*
X0057373Y0112635D01*
X0058229Y0112635D01*
X0059809Y0113289D01*
X0061019Y0114499D01*
X0061673Y0116079D01*
X0061673Y0117790D01*
X0061019Y0119370D01*
X0059809Y0120580D01*
X0058229Y0121235D01*
X0057373Y0121235D01*
X0057373Y0133666D01*
X0072334Y0133666D01*
X0072334Y0127092D01*
X0078820Y0127092D01*
X0079155Y0126283D01*
X0079831Y0125607D01*
X0080714Y0125241D01*
X0081670Y0125241D01*
X0082553Y0125607D01*
X0083229Y0126283D01*
X0083564Y0127092D01*
X0103543Y0127092D01*
X0103368Y0126918D01*
X0103002Y0126035D01*
X0103002Y0125609D01*
X0103109Y0126293D02*
X0083233Y0126293D01*
X0081799Y0125294D02*
X0099619Y0125294D01*
X0099095Y0124296D02*
X0068359Y0124296D01*
X0068268Y0124516D02*
X0067592Y0125192D01*
X0066709Y0125558D01*
X0065754Y0125558D01*
X0064871Y0125192D01*
X0064195Y0124516D01*
X0063829Y0123633D01*
X0063829Y0122677D01*
X0064195Y0121794D01*
X0064736Y0121253D01*
X0064498Y0120680D01*
X0064498Y0119725D01*
X0064864Y0118842D01*
X0065540Y0118166D01*
X0066423Y0117800D01*
X0066585Y0117800D01*
X0066585Y0117559D01*
X0066951Y0116676D01*
X0067627Y0116000D01*
X0068510Y0115635D01*
X0069465Y0115635D01*
X0070348Y0116000D01*
X0071024Y0116676D01*
X0071390Y0117559D01*
X0071390Y0118515D01*
X0071024Y0119398D01*
X0070348Y0120074D01*
X0069465Y0120439D01*
X0069303Y0120439D01*
X0069303Y0120680D01*
X0068937Y0121563D01*
X0068396Y0122104D01*
X0068634Y0122677D01*
X0068634Y0123633D01*
X0068268Y0124516D01*
X0067345Y0125294D02*
X0080585Y0125294D01*
X0079151Y0126293D02*
X0057373Y0126293D01*
X0057373Y0127291D02*
X0072334Y0127291D01*
X0072334Y0128290D02*
X0057373Y0128290D01*
X0057373Y0129288D02*
X0072334Y0129288D01*
X0072334Y0130287D02*
X0057373Y0130287D01*
X0057373Y0131286D02*
X0072334Y0131286D01*
X0072334Y0132284D02*
X0057373Y0132284D01*
X0057373Y0133283D02*
X0072334Y0133283D01*
X0065118Y0125294D02*
X0057373Y0125294D01*
X0057373Y0124296D02*
X0064104Y0124296D01*
X0063829Y0123297D02*
X0057373Y0123297D01*
X0057373Y0122299D02*
X0063986Y0122299D01*
X0064689Y0121300D02*
X0057373Y0121300D01*
X0060087Y0120302D02*
X0064498Y0120302D01*
X0064673Y0119303D02*
X0061046Y0119303D01*
X0061460Y0118305D02*
X0065401Y0118305D01*
X0066690Y0117306D02*
X0061673Y0117306D01*
X0061673Y0116308D02*
X0067319Y0116308D01*
X0070656Y0116308D02*
X0104429Y0116308D01*
X0104726Y0115309D02*
X0061354Y0115309D01*
X0060830Y0114311D02*
X0105419Y0114311D01*
X0107621Y0113312D02*
X0109055Y0113312D01*
X0108160Y0112314D02*
X0111191Y0112314D01*
X0111191Y0111315D02*
X0108201Y0111315D01*
X0107775Y0110317D02*
X0111191Y0110317D01*
X0111191Y0109318D02*
X0101757Y0109318D01*
X0101729Y0108320D02*
X0111191Y0108320D01*
X0111191Y0107321D02*
X0101729Y0107321D01*
X0101729Y0106323D02*
X0111191Y0106323D01*
X0111191Y0105324D02*
X0106649Y0105324D01*
X0107881Y0104326D02*
X0111191Y0104326D01*
X0111191Y0103327D02*
X0108201Y0103327D01*
X0108089Y0102329D02*
X0111191Y0102329D01*
X0111191Y0101330D02*
X0107450Y0101330D01*
X0105824Y0100332D02*
X0111191Y0100332D01*
X0111191Y0099333D02*
X0105499Y0099333D01*
X0104500Y0098335D02*
X0111191Y0098335D01*
X0111191Y0097336D02*
X0103502Y0097336D01*
X0104124Y0096338D02*
X0111191Y0096338D01*
X0111191Y0095339D02*
X0104636Y0095339D01*
X0104657Y0094341D02*
X0111191Y0094341D01*
X0111191Y0093342D02*
X0104186Y0093342D01*
X0100324Y0093342D02*
X0099508Y0093342D01*
X0096457Y0097336D02*
X0069028Y0097336D01*
X0069028Y0097649D02*
X0068662Y0098532D01*
X0067986Y0099208D01*
X0067103Y0099573D01*
X0066147Y0099573D01*
X0065264Y0099208D01*
X0064589Y0098532D01*
X0064223Y0097649D01*
X0064223Y0096693D01*
X0064589Y0095810D01*
X0065264Y0095134D01*
X0066147Y0094769D01*
X0067103Y0094769D01*
X0067986Y0095134D01*
X0068662Y0095810D01*
X0069028Y0096693D01*
X0069028Y0097649D01*
X0068743Y0098335D02*
X0097455Y0098335D01*
X0098454Y0099333D02*
X0067683Y0099333D01*
X0065568Y0099333D02*
X0061034Y0099333D01*
X0061448Y0098335D02*
X0064507Y0098335D01*
X0064223Y0097336D02*
X0061673Y0097336D01*
X0061673Y0096338D02*
X0064370Y0096338D01*
X0065060Y0095339D02*
X0061367Y0095339D01*
X0060860Y0094341D02*
X0073154Y0094341D01*
X0073431Y0094455D02*
X0072548Y0094089D01*
X0071872Y0093414D01*
X0071506Y0092531D01*
X0071506Y0091575D01*
X0071872Y0090692D01*
X0072548Y0090016D01*
X0073431Y0089650D01*
X0074387Y0089650D01*
X0075269Y0090016D01*
X0075483Y0090230D01*
X0075697Y0090016D01*
X0076580Y0089650D01*
X0077536Y0089650D01*
X0078419Y0090016D01*
X0079095Y0090692D01*
X0079461Y0091575D01*
X0079461Y0092531D01*
X0079095Y0093414D01*
X0078419Y0094089D01*
X0077536Y0094455D01*
X0076580Y0094455D01*
X0075697Y0094089D01*
X0075483Y0093875D01*
X0075269Y0094089D01*
X0074387Y0094455D01*
X0073431Y0094455D01*
X0074663Y0094341D02*
X0076304Y0094341D01*
X0077813Y0094341D02*
X0087320Y0094341D01*
X0088318Y0095339D02*
X0068191Y0095339D01*
X0068880Y0096338D02*
X0089317Y0096338D01*
X0086321Y0093342D02*
X0079125Y0093342D01*
X0079461Y0092344D02*
X0085323Y0092344D01*
X0084324Y0091345D02*
X0079365Y0091345D01*
X0078749Y0090347D02*
X0083325Y0090347D01*
X0082327Y0089348D02*
X0061028Y0089348D01*
X0061441Y0088350D02*
X0081328Y0088350D01*
X0080330Y0087351D02*
X0061673Y0087351D01*
X0061673Y0086352D02*
X0080183Y0086352D01*
X0079669Y0085354D02*
X0077647Y0085354D01*
X0077536Y0085400D02*
X0076580Y0085400D01*
X0075697Y0085034D01*
X0075680Y0085017D01*
X0075269Y0085428D01*
X0074387Y0085794D01*
X0073431Y0085794D01*
X0072548Y0085428D01*
X0071872Y0084752D01*
X0071506Y0083869D01*
X0071506Y0082914D01*
X0071872Y0082031D01*
X0072548Y0081355D01*
X0073431Y0080989D01*
X0074387Y0080989D01*
X0075269Y0081355D01*
X0075287Y0081372D01*
X0075697Y0080961D01*
X0076580Y0080595D01*
X0077536Y0080595D01*
X0078419Y0080961D01*
X0079095Y0081637D01*
X0079461Y0082520D01*
X0079461Y0083476D01*
X0079095Y0084359D01*
X0078419Y0085034D01*
X0077536Y0085400D01*
X0076469Y0085354D02*
X0075344Y0085354D01*
X0072474Y0085354D02*
X0069832Y0085354D01*
X0070040Y0085146D02*
X0069364Y0085822D01*
X0068481Y0086187D01*
X0067525Y0086187D01*
X0066642Y0085822D01*
X0065967Y0085146D01*
X0065601Y0084263D01*
X0065601Y0083307D01*
X0065967Y0082424D01*
X0066642Y0081748D01*
X0067525Y0081383D01*
X0068481Y0081383D01*
X0069364Y0081748D01*
X0070040Y0082424D01*
X0070405Y0083307D01*
X0070405Y0084263D01*
X0070040Y0085146D01*
X0070367Y0084355D02*
X0071708Y0084355D01*
X0071506Y0083357D02*
X0070405Y0083357D01*
X0069974Y0082358D02*
X0071736Y0082358D01*
X0072543Y0081360D02*
X0057373Y0081360D01*
X0057373Y0082358D02*
X0066032Y0082358D01*
X0065601Y0083357D02*
X0059877Y0083357D01*
X0060875Y0084355D02*
X0065639Y0084355D01*
X0066175Y0085354D02*
X0061373Y0085354D01*
X0060042Y0090347D02*
X0072217Y0090347D01*
X0071602Y0091345D02*
X0057373Y0091345D01*
X0057373Y0092344D02*
X0071506Y0092344D01*
X0071842Y0093342D02*
X0059862Y0093342D01*
X0060057Y0100332D02*
X0098529Y0100332D01*
X0098529Y0101330D02*
X0057373Y0101330D01*
X0057373Y0102329D02*
X0098529Y0102329D01*
X0098529Y0103327D02*
X0059847Y0103327D01*
X0060845Y0104326D02*
X0098529Y0104326D01*
X0098529Y0105324D02*
X0061360Y0105324D01*
X0061673Y0106323D02*
X0098529Y0106323D01*
X0098529Y0107321D02*
X0061673Y0107321D01*
X0061454Y0108320D02*
X0098529Y0108320D01*
X0098529Y0109318D02*
X0061040Y0109318D01*
X0060072Y0110317D02*
X0098529Y0110317D01*
X0099229Y0111315D02*
X0057373Y0111315D01*
X0057373Y0112314D02*
X0100227Y0112314D01*
X0101226Y0113312D02*
X0059832Y0113312D01*
X0069046Y0121300D02*
X0100640Y0121300D01*
X0100825Y0120302D02*
X0069797Y0120302D01*
X0071063Y0119303D02*
X0101568Y0119303D01*
X0102609Y0118305D02*
X0071390Y0118305D01*
X0071285Y0117306D02*
X0102974Y0117306D01*
X0105445Y0121069D02*
X0105445Y0121704D01*
X0105079Y0122587D01*
X0104403Y0123263D01*
X0103870Y0123484D01*
X0103870Y0123694D01*
X0104044Y0123520D01*
X0104927Y0123154D01*
X0105883Y0123154D01*
X0106766Y0123520D01*
X0107441Y0124196D01*
X0107807Y0125079D01*
X0107807Y0126035D01*
X0107441Y0126918D01*
X0107267Y0127092D01*
X0108554Y0127092D01*
X0111191Y0124455D01*
X0111191Y0117519D01*
X0111079Y0117565D01*
X0110124Y0117565D01*
X0109241Y0117200D01*
X0109172Y0117131D01*
X0109016Y0117508D01*
X0108340Y0118184D01*
X0107457Y0118550D01*
X0107413Y0118550D01*
X0107413Y0119145D01*
X0107048Y0120028D01*
X0106372Y0120704D01*
X0105489Y0121069D01*
X0105445Y0121069D01*
X0105445Y0121300D02*
X0111191Y0121300D01*
X0111191Y0120302D02*
X0106774Y0120302D01*
X0107348Y0119303D02*
X0111191Y0119303D01*
X0111191Y0118305D02*
X0108048Y0118305D01*
X0109100Y0117306D02*
X0109498Y0117306D01*
X0111191Y0122299D02*
X0105198Y0122299D01*
X0104582Y0123297D02*
X0104319Y0123297D01*
X0102649Y0126305D02*
X0102649Y0126854D01*
X0104068Y0128273D01*
X0106586Y0128273D01*
X0108554Y0126305D01*
X0109354Y0126293D02*
X0107700Y0126293D01*
X0107807Y0125294D02*
X0110352Y0125294D01*
X0111191Y0124296D02*
X0107483Y0124296D01*
X0106228Y0123297D02*
X0111191Y0123297D01*
X0099517Y0122299D02*
X0068477Y0122299D01*
X0068634Y0123297D02*
X0099065Y0123297D01*
X0101729Y0105324D02*
X0104947Y0105324D01*
X0103716Y0104326D02*
X0101729Y0104326D01*
X0101729Y0103327D02*
X0103396Y0103327D01*
X0102788Y0102329D02*
X0101729Y0102329D01*
X0101729Y0101330D02*
X0102624Y0101330D01*
X0101972Y0100332D02*
X0101729Y0100332D01*
X0111191Y0092344D02*
X0092210Y0092344D01*
X0091302Y0091345D02*
X0111191Y0091345D01*
X0111191Y0090347D02*
X0092528Y0090347D01*
X0092846Y0089348D02*
X0111191Y0089348D01*
X0111191Y0088350D02*
X0092733Y0088350D01*
X0092092Y0087351D02*
X0111191Y0087351D01*
X0111191Y0086352D02*
X0087909Y0086352D01*
X0088122Y0085354D02*
X0111191Y0085354D01*
X0111191Y0084355D02*
X0087904Y0084355D01*
X0087114Y0083357D02*
X0111191Y0083357D01*
X0111191Y0082358D02*
X0083360Y0082358D01*
X0084043Y0083357D02*
X0084325Y0083357D01*
X0087320Y0087351D02*
X0088796Y0087351D01*
X0091052Y0081885D02*
X0090376Y0081209D01*
X0090010Y0080326D01*
X0090010Y0079370D01*
X0090376Y0078487D01*
X0091052Y0077811D01*
X0091935Y0077446D01*
X0092890Y0077446D01*
X0093773Y0077811D01*
X0094449Y0078487D01*
X0094815Y0079370D01*
X0094815Y0080326D01*
X0094449Y0081209D01*
X0093773Y0081885D01*
X0092890Y0082250D01*
X0091935Y0082250D01*
X0091052Y0081885D01*
X0090527Y0081360D02*
X0078818Y0081360D01*
X0079394Y0082358D02*
X0080206Y0082358D01*
X0079523Y0083357D02*
X0079461Y0083357D01*
X0079380Y0084355D02*
X0079096Y0084355D01*
X0075299Y0081360D02*
X0075275Y0081360D01*
X0064882Y0070973D02*
X0065248Y0070090D01*
X0065248Y0069134D01*
X0064882Y0068251D01*
X0064206Y0067575D01*
X0063324Y0067210D01*
X0062368Y0067210D01*
X0061485Y0067575D01*
X0060809Y0068251D01*
X0060443Y0069134D01*
X0060443Y0070090D01*
X0060809Y0070973D01*
X0061485Y0071648D01*
X0062368Y0072014D01*
X0063324Y0072014D01*
X0064206Y0071648D01*
X0064882Y0070973D01*
X0064480Y0071375D02*
X0093599Y0071375D01*
X0093604Y0071361D02*
X0094280Y0070685D01*
X0095163Y0070320D01*
X0096119Y0070320D01*
X0097002Y0070685D01*
X0097678Y0071361D01*
X0098043Y0072244D01*
X0098043Y0073200D01*
X0097678Y0074083D01*
X0097002Y0074759D01*
X0096119Y0075124D01*
X0095163Y0075124D01*
X0094280Y0074759D01*
X0093604Y0074083D01*
X0093239Y0073200D01*
X0093239Y0072244D01*
X0093604Y0071361D01*
X0093239Y0072373D02*
X0060163Y0072373D01*
X0060303Y0071375D02*
X0061211Y0071375D01*
X0060562Y0070376D02*
X0060303Y0070376D01*
X0060443Y0069378D02*
X0059906Y0069378D01*
X0059264Y0068379D02*
X0060756Y0068379D01*
X0061954Y0067381D02*
X0059027Y0067381D01*
X0059807Y0066382D02*
X0111191Y0066382D01*
X0111191Y0065384D02*
X0060221Y0065384D01*
X0060303Y0064385D02*
X0061190Y0064385D01*
X0061288Y0064483D02*
X0060612Y0063807D01*
X0060246Y0062924D01*
X0060246Y0061969D01*
X0060538Y0061265D01*
X0060246Y0060562D01*
X0060246Y0059606D01*
X0060612Y0058723D01*
X0061288Y0058048D01*
X0062171Y0057682D01*
X0063127Y0057682D01*
X0064010Y0058048D01*
X0064685Y0058723D01*
X0065051Y0059606D01*
X0065051Y0060562D01*
X0064760Y0061265D01*
X0065051Y0061969D01*
X0065051Y0062924D01*
X0064685Y0063807D01*
X0064010Y0064483D01*
X0063127Y0064849D01*
X0062171Y0064849D01*
X0061288Y0064483D01*
X0060438Y0063387D02*
X0060262Y0063387D01*
X0060246Y0062388D02*
X0059848Y0062388D01*
X0060486Y0061390D02*
X0059125Y0061390D01*
X0060246Y0060391D02*
X0057665Y0060391D01*
X0057373Y0059393D02*
X0060335Y0059393D01*
X0060941Y0058394D02*
X0057373Y0058394D01*
X0057373Y0057396D02*
X0073869Y0057396D01*
X0073886Y0057378D02*
X0074769Y0057013D01*
X0075725Y0057013D01*
X0076608Y0057378D01*
X0077284Y0058054D01*
X0077650Y0058937D01*
X0077650Y0059893D01*
X0077383Y0060537D01*
X0077650Y0061181D01*
X0077650Y0062137D01*
X0077284Y0063020D01*
X0076608Y0063696D01*
X0075725Y0064061D01*
X0074769Y0064061D01*
X0073886Y0063696D01*
X0073211Y0063020D01*
X0072845Y0062137D01*
X0072845Y0061181D01*
X0073112Y0060537D01*
X0072845Y0059893D01*
X0072845Y0058937D01*
X0073211Y0058054D01*
X0073886Y0057378D01*
X0073070Y0058394D02*
X0064356Y0058394D01*
X0064963Y0059393D02*
X0072845Y0059393D01*
X0073051Y0060391D02*
X0065051Y0060391D01*
X0064811Y0061390D02*
X0072845Y0061390D01*
X0072949Y0062388D02*
X0065051Y0062388D01*
X0064860Y0063387D02*
X0073577Y0063387D01*
X0076917Y0063387D02*
X0092016Y0063387D01*
X0091715Y0063086D02*
X0092390Y0063761D01*
X0093273Y0064127D01*
X0094229Y0064127D01*
X0095112Y0063761D01*
X0095788Y0063086D01*
X0096154Y0062203D01*
X0096154Y0061247D01*
X0095788Y0060364D01*
X0095112Y0059688D01*
X0094229Y0059323D01*
X0093273Y0059323D01*
X0092390Y0059688D01*
X0091715Y0060364D01*
X0091349Y0061247D01*
X0091349Y0062203D01*
X0091715Y0063086D01*
X0091426Y0062388D02*
X0077546Y0062388D01*
X0077650Y0061390D02*
X0091349Y0061390D01*
X0091703Y0060391D02*
X0077443Y0060391D01*
X0077650Y0059393D02*
X0093104Y0059393D01*
X0094398Y0059393D02*
X0111191Y0059393D01*
X0111191Y0060391D02*
X0095799Y0060391D01*
X0096154Y0061390D02*
X0111191Y0061390D01*
X0111191Y0062388D02*
X0096077Y0062388D01*
X0095487Y0063387D02*
X0111191Y0063387D01*
X0111191Y0064385D02*
X0064108Y0064385D01*
X0063737Y0067381D02*
X0111191Y0067381D01*
X0111191Y0068379D02*
X0064935Y0068379D01*
X0065248Y0069378D02*
X0111191Y0069378D01*
X0111191Y0070376D02*
X0096255Y0070376D01*
X0095027Y0070376D02*
X0065129Y0070376D01*
X0059750Y0073372D02*
X0093310Y0073372D01*
X0093892Y0074370D02*
X0058888Y0074370D01*
X0057373Y0075369D02*
X0111191Y0075369D01*
X0111191Y0076367D02*
X0057373Y0076367D01*
X0057373Y0077366D02*
X0111191Y0077366D01*
X0111191Y0078364D02*
X0094326Y0078364D01*
X0094812Y0079363D02*
X0111191Y0079363D01*
X0111191Y0080361D02*
X0094800Y0080361D01*
X0094298Y0081360D02*
X0111191Y0081360D01*
X0111191Y0074370D02*
X0097390Y0074370D01*
X0097972Y0073372D02*
X0111191Y0073372D01*
X0111191Y0072373D02*
X0098043Y0072373D01*
X0097683Y0071375D02*
X0111191Y0071375D01*
X0111191Y0058394D02*
X0077425Y0058394D01*
X0076625Y0057396D02*
X0111191Y0057396D01*
X0111191Y0056397D02*
X0057373Y0056397D01*
X0057373Y0078364D02*
X0090499Y0078364D01*
X0090013Y0079363D02*
X0057373Y0079363D01*
X0057373Y0080361D02*
X0090025Y0080361D01*
D16*
X0085720Y0085360D02*
X0085720Y0088116D01*
X0091625Y0094021D01*
X0097924Y0094021D01*
X0104224Y0100321D01*
X0104224Y0101502D01*
X0105798Y0103076D01*
X0100129Y0098746D02*
X0100129Y0109953D01*
X0101914Y0111738D01*
X0105798Y0111738D01*
X0100129Y0098746D02*
X0096980Y0095596D01*
X0090838Y0095596D01*
X0081783Y0086541D01*
X0081783Y0084179D01*
M02*
