G75*
%MOIN*%
%OFA0B0*%
%FSLAX25Y25*%
%IPPOS*%
%LPD*%
%AMOC8*
5,1,8,0,0,1.08239X$1,22.5*
%
%ADD10C,0.00000*%
%ADD11C,0.00300*%
%ADD12C,0.01200*%
%ADD13C,0.00800*%
%ADD14C,0.00500*%
%ADD15R,0.01800X0.03000*%
%ADD16R,0.03000X0.01800*%
D10*
X0001400Y0001400D02*
X0001400Y0395101D01*
X0198250Y0395101D01*
X0198250Y0001400D01*
X0001400Y0001400D01*
X0007305Y0013211D02*
X0007307Y0013364D01*
X0007313Y0013518D01*
X0007323Y0013671D01*
X0007337Y0013823D01*
X0007355Y0013976D01*
X0007377Y0014127D01*
X0007402Y0014278D01*
X0007432Y0014429D01*
X0007466Y0014579D01*
X0007503Y0014727D01*
X0007544Y0014875D01*
X0007589Y0015021D01*
X0007638Y0015167D01*
X0007691Y0015311D01*
X0007747Y0015453D01*
X0007807Y0015594D01*
X0007871Y0015734D01*
X0007938Y0015872D01*
X0008009Y0016008D01*
X0008084Y0016142D01*
X0008161Y0016274D01*
X0008243Y0016404D01*
X0008327Y0016532D01*
X0008415Y0016658D01*
X0008506Y0016781D01*
X0008600Y0016902D01*
X0008698Y0017020D01*
X0008798Y0017136D01*
X0008902Y0017249D01*
X0009008Y0017360D01*
X0009117Y0017468D01*
X0009229Y0017573D01*
X0009343Y0017674D01*
X0009461Y0017773D01*
X0009580Y0017869D01*
X0009702Y0017962D01*
X0009827Y0018051D01*
X0009954Y0018138D01*
X0010083Y0018220D01*
X0010214Y0018300D01*
X0010347Y0018376D01*
X0010482Y0018449D01*
X0010619Y0018518D01*
X0010758Y0018583D01*
X0010898Y0018645D01*
X0011040Y0018703D01*
X0011183Y0018758D01*
X0011328Y0018809D01*
X0011474Y0018856D01*
X0011621Y0018899D01*
X0011769Y0018938D01*
X0011918Y0018974D01*
X0012068Y0019005D01*
X0012219Y0019033D01*
X0012370Y0019057D01*
X0012523Y0019077D01*
X0012675Y0019093D01*
X0012828Y0019105D01*
X0012981Y0019113D01*
X0013134Y0019117D01*
X0013288Y0019117D01*
X0013441Y0019113D01*
X0013594Y0019105D01*
X0013747Y0019093D01*
X0013899Y0019077D01*
X0014052Y0019057D01*
X0014203Y0019033D01*
X0014354Y0019005D01*
X0014504Y0018974D01*
X0014653Y0018938D01*
X0014801Y0018899D01*
X0014948Y0018856D01*
X0015094Y0018809D01*
X0015239Y0018758D01*
X0015382Y0018703D01*
X0015524Y0018645D01*
X0015664Y0018583D01*
X0015803Y0018518D01*
X0015940Y0018449D01*
X0016075Y0018376D01*
X0016208Y0018300D01*
X0016339Y0018220D01*
X0016468Y0018138D01*
X0016595Y0018051D01*
X0016720Y0017962D01*
X0016842Y0017869D01*
X0016961Y0017773D01*
X0017079Y0017674D01*
X0017193Y0017573D01*
X0017305Y0017468D01*
X0017414Y0017360D01*
X0017520Y0017249D01*
X0017624Y0017136D01*
X0017724Y0017020D01*
X0017822Y0016902D01*
X0017916Y0016781D01*
X0018007Y0016658D01*
X0018095Y0016532D01*
X0018179Y0016404D01*
X0018261Y0016274D01*
X0018338Y0016142D01*
X0018413Y0016008D01*
X0018484Y0015872D01*
X0018551Y0015734D01*
X0018615Y0015594D01*
X0018675Y0015453D01*
X0018731Y0015311D01*
X0018784Y0015167D01*
X0018833Y0015021D01*
X0018878Y0014875D01*
X0018919Y0014727D01*
X0018956Y0014579D01*
X0018990Y0014429D01*
X0019020Y0014278D01*
X0019045Y0014127D01*
X0019067Y0013976D01*
X0019085Y0013823D01*
X0019099Y0013671D01*
X0019109Y0013518D01*
X0019115Y0013364D01*
X0019117Y0013211D01*
X0019115Y0013058D01*
X0019109Y0012904D01*
X0019099Y0012751D01*
X0019085Y0012599D01*
X0019067Y0012446D01*
X0019045Y0012295D01*
X0019020Y0012144D01*
X0018990Y0011993D01*
X0018956Y0011843D01*
X0018919Y0011695D01*
X0018878Y0011547D01*
X0018833Y0011401D01*
X0018784Y0011255D01*
X0018731Y0011111D01*
X0018675Y0010969D01*
X0018615Y0010828D01*
X0018551Y0010688D01*
X0018484Y0010550D01*
X0018413Y0010414D01*
X0018338Y0010280D01*
X0018261Y0010148D01*
X0018179Y0010018D01*
X0018095Y0009890D01*
X0018007Y0009764D01*
X0017916Y0009641D01*
X0017822Y0009520D01*
X0017724Y0009402D01*
X0017624Y0009286D01*
X0017520Y0009173D01*
X0017414Y0009062D01*
X0017305Y0008954D01*
X0017193Y0008849D01*
X0017079Y0008748D01*
X0016961Y0008649D01*
X0016842Y0008553D01*
X0016720Y0008460D01*
X0016595Y0008371D01*
X0016468Y0008284D01*
X0016339Y0008202D01*
X0016208Y0008122D01*
X0016075Y0008046D01*
X0015940Y0007973D01*
X0015803Y0007904D01*
X0015664Y0007839D01*
X0015524Y0007777D01*
X0015382Y0007719D01*
X0015239Y0007664D01*
X0015094Y0007613D01*
X0014948Y0007566D01*
X0014801Y0007523D01*
X0014653Y0007484D01*
X0014504Y0007448D01*
X0014354Y0007417D01*
X0014203Y0007389D01*
X0014052Y0007365D01*
X0013899Y0007345D01*
X0013747Y0007329D01*
X0013594Y0007317D01*
X0013441Y0007309D01*
X0013288Y0007305D01*
X0013134Y0007305D01*
X0012981Y0007309D01*
X0012828Y0007317D01*
X0012675Y0007329D01*
X0012523Y0007345D01*
X0012370Y0007365D01*
X0012219Y0007389D01*
X0012068Y0007417D01*
X0011918Y0007448D01*
X0011769Y0007484D01*
X0011621Y0007523D01*
X0011474Y0007566D01*
X0011328Y0007613D01*
X0011183Y0007664D01*
X0011040Y0007719D01*
X0010898Y0007777D01*
X0010758Y0007839D01*
X0010619Y0007904D01*
X0010482Y0007973D01*
X0010347Y0008046D01*
X0010214Y0008122D01*
X0010083Y0008202D01*
X0009954Y0008284D01*
X0009827Y0008371D01*
X0009702Y0008460D01*
X0009580Y0008553D01*
X0009461Y0008649D01*
X0009343Y0008748D01*
X0009229Y0008849D01*
X0009117Y0008954D01*
X0009008Y0009062D01*
X0008902Y0009173D01*
X0008798Y0009286D01*
X0008698Y0009402D01*
X0008600Y0009520D01*
X0008506Y0009641D01*
X0008415Y0009764D01*
X0008327Y0009890D01*
X0008243Y0010018D01*
X0008161Y0010148D01*
X0008084Y0010280D01*
X0008009Y0010414D01*
X0007938Y0010550D01*
X0007871Y0010688D01*
X0007807Y0010828D01*
X0007747Y0010969D01*
X0007691Y0011111D01*
X0007638Y0011255D01*
X0007589Y0011401D01*
X0007544Y0011547D01*
X0007503Y0011695D01*
X0007466Y0011843D01*
X0007432Y0011993D01*
X0007402Y0012144D01*
X0007377Y0012295D01*
X0007355Y0012446D01*
X0007337Y0012599D01*
X0007323Y0012751D01*
X0007313Y0012904D01*
X0007307Y0013058D01*
X0007305Y0013211D01*
X0007305Y0198250D02*
X0007307Y0198403D01*
X0007313Y0198557D01*
X0007323Y0198710D01*
X0007337Y0198862D01*
X0007355Y0199015D01*
X0007377Y0199166D01*
X0007402Y0199317D01*
X0007432Y0199468D01*
X0007466Y0199618D01*
X0007503Y0199766D01*
X0007544Y0199914D01*
X0007589Y0200060D01*
X0007638Y0200206D01*
X0007691Y0200350D01*
X0007747Y0200492D01*
X0007807Y0200633D01*
X0007871Y0200773D01*
X0007938Y0200911D01*
X0008009Y0201047D01*
X0008084Y0201181D01*
X0008161Y0201313D01*
X0008243Y0201443D01*
X0008327Y0201571D01*
X0008415Y0201697D01*
X0008506Y0201820D01*
X0008600Y0201941D01*
X0008698Y0202059D01*
X0008798Y0202175D01*
X0008902Y0202288D01*
X0009008Y0202399D01*
X0009117Y0202507D01*
X0009229Y0202612D01*
X0009343Y0202713D01*
X0009461Y0202812D01*
X0009580Y0202908D01*
X0009702Y0203001D01*
X0009827Y0203090D01*
X0009954Y0203177D01*
X0010083Y0203259D01*
X0010214Y0203339D01*
X0010347Y0203415D01*
X0010482Y0203488D01*
X0010619Y0203557D01*
X0010758Y0203622D01*
X0010898Y0203684D01*
X0011040Y0203742D01*
X0011183Y0203797D01*
X0011328Y0203848D01*
X0011474Y0203895D01*
X0011621Y0203938D01*
X0011769Y0203977D01*
X0011918Y0204013D01*
X0012068Y0204044D01*
X0012219Y0204072D01*
X0012370Y0204096D01*
X0012523Y0204116D01*
X0012675Y0204132D01*
X0012828Y0204144D01*
X0012981Y0204152D01*
X0013134Y0204156D01*
X0013288Y0204156D01*
X0013441Y0204152D01*
X0013594Y0204144D01*
X0013747Y0204132D01*
X0013899Y0204116D01*
X0014052Y0204096D01*
X0014203Y0204072D01*
X0014354Y0204044D01*
X0014504Y0204013D01*
X0014653Y0203977D01*
X0014801Y0203938D01*
X0014948Y0203895D01*
X0015094Y0203848D01*
X0015239Y0203797D01*
X0015382Y0203742D01*
X0015524Y0203684D01*
X0015664Y0203622D01*
X0015803Y0203557D01*
X0015940Y0203488D01*
X0016075Y0203415D01*
X0016208Y0203339D01*
X0016339Y0203259D01*
X0016468Y0203177D01*
X0016595Y0203090D01*
X0016720Y0203001D01*
X0016842Y0202908D01*
X0016961Y0202812D01*
X0017079Y0202713D01*
X0017193Y0202612D01*
X0017305Y0202507D01*
X0017414Y0202399D01*
X0017520Y0202288D01*
X0017624Y0202175D01*
X0017724Y0202059D01*
X0017822Y0201941D01*
X0017916Y0201820D01*
X0018007Y0201697D01*
X0018095Y0201571D01*
X0018179Y0201443D01*
X0018261Y0201313D01*
X0018338Y0201181D01*
X0018413Y0201047D01*
X0018484Y0200911D01*
X0018551Y0200773D01*
X0018615Y0200633D01*
X0018675Y0200492D01*
X0018731Y0200350D01*
X0018784Y0200206D01*
X0018833Y0200060D01*
X0018878Y0199914D01*
X0018919Y0199766D01*
X0018956Y0199618D01*
X0018990Y0199468D01*
X0019020Y0199317D01*
X0019045Y0199166D01*
X0019067Y0199015D01*
X0019085Y0198862D01*
X0019099Y0198710D01*
X0019109Y0198557D01*
X0019115Y0198403D01*
X0019117Y0198250D01*
X0019115Y0198097D01*
X0019109Y0197943D01*
X0019099Y0197790D01*
X0019085Y0197638D01*
X0019067Y0197485D01*
X0019045Y0197334D01*
X0019020Y0197183D01*
X0018990Y0197032D01*
X0018956Y0196882D01*
X0018919Y0196734D01*
X0018878Y0196586D01*
X0018833Y0196440D01*
X0018784Y0196294D01*
X0018731Y0196150D01*
X0018675Y0196008D01*
X0018615Y0195867D01*
X0018551Y0195727D01*
X0018484Y0195589D01*
X0018413Y0195453D01*
X0018338Y0195319D01*
X0018261Y0195187D01*
X0018179Y0195057D01*
X0018095Y0194929D01*
X0018007Y0194803D01*
X0017916Y0194680D01*
X0017822Y0194559D01*
X0017724Y0194441D01*
X0017624Y0194325D01*
X0017520Y0194212D01*
X0017414Y0194101D01*
X0017305Y0193993D01*
X0017193Y0193888D01*
X0017079Y0193787D01*
X0016961Y0193688D01*
X0016842Y0193592D01*
X0016720Y0193499D01*
X0016595Y0193410D01*
X0016468Y0193323D01*
X0016339Y0193241D01*
X0016208Y0193161D01*
X0016075Y0193085D01*
X0015940Y0193012D01*
X0015803Y0192943D01*
X0015664Y0192878D01*
X0015524Y0192816D01*
X0015382Y0192758D01*
X0015239Y0192703D01*
X0015094Y0192652D01*
X0014948Y0192605D01*
X0014801Y0192562D01*
X0014653Y0192523D01*
X0014504Y0192487D01*
X0014354Y0192456D01*
X0014203Y0192428D01*
X0014052Y0192404D01*
X0013899Y0192384D01*
X0013747Y0192368D01*
X0013594Y0192356D01*
X0013441Y0192348D01*
X0013288Y0192344D01*
X0013134Y0192344D01*
X0012981Y0192348D01*
X0012828Y0192356D01*
X0012675Y0192368D01*
X0012523Y0192384D01*
X0012370Y0192404D01*
X0012219Y0192428D01*
X0012068Y0192456D01*
X0011918Y0192487D01*
X0011769Y0192523D01*
X0011621Y0192562D01*
X0011474Y0192605D01*
X0011328Y0192652D01*
X0011183Y0192703D01*
X0011040Y0192758D01*
X0010898Y0192816D01*
X0010758Y0192878D01*
X0010619Y0192943D01*
X0010482Y0193012D01*
X0010347Y0193085D01*
X0010214Y0193161D01*
X0010083Y0193241D01*
X0009954Y0193323D01*
X0009827Y0193410D01*
X0009702Y0193499D01*
X0009580Y0193592D01*
X0009461Y0193688D01*
X0009343Y0193787D01*
X0009229Y0193888D01*
X0009117Y0193993D01*
X0009008Y0194101D01*
X0008902Y0194212D01*
X0008798Y0194325D01*
X0008698Y0194441D01*
X0008600Y0194559D01*
X0008506Y0194680D01*
X0008415Y0194803D01*
X0008327Y0194929D01*
X0008243Y0195057D01*
X0008161Y0195187D01*
X0008084Y0195319D01*
X0008009Y0195453D01*
X0007938Y0195589D01*
X0007871Y0195727D01*
X0007807Y0195867D01*
X0007747Y0196008D01*
X0007691Y0196150D01*
X0007638Y0196294D01*
X0007589Y0196440D01*
X0007544Y0196586D01*
X0007503Y0196734D01*
X0007466Y0196882D01*
X0007432Y0197032D01*
X0007402Y0197183D01*
X0007377Y0197334D01*
X0007355Y0197485D01*
X0007337Y0197638D01*
X0007323Y0197790D01*
X0007313Y0197943D01*
X0007307Y0198097D01*
X0007305Y0198250D01*
X0007305Y0383290D02*
X0007307Y0383443D01*
X0007313Y0383597D01*
X0007323Y0383750D01*
X0007337Y0383902D01*
X0007355Y0384055D01*
X0007377Y0384206D01*
X0007402Y0384357D01*
X0007432Y0384508D01*
X0007466Y0384658D01*
X0007503Y0384806D01*
X0007544Y0384954D01*
X0007589Y0385100D01*
X0007638Y0385246D01*
X0007691Y0385390D01*
X0007747Y0385532D01*
X0007807Y0385673D01*
X0007871Y0385813D01*
X0007938Y0385951D01*
X0008009Y0386087D01*
X0008084Y0386221D01*
X0008161Y0386353D01*
X0008243Y0386483D01*
X0008327Y0386611D01*
X0008415Y0386737D01*
X0008506Y0386860D01*
X0008600Y0386981D01*
X0008698Y0387099D01*
X0008798Y0387215D01*
X0008902Y0387328D01*
X0009008Y0387439D01*
X0009117Y0387547D01*
X0009229Y0387652D01*
X0009343Y0387753D01*
X0009461Y0387852D01*
X0009580Y0387948D01*
X0009702Y0388041D01*
X0009827Y0388130D01*
X0009954Y0388217D01*
X0010083Y0388299D01*
X0010214Y0388379D01*
X0010347Y0388455D01*
X0010482Y0388528D01*
X0010619Y0388597D01*
X0010758Y0388662D01*
X0010898Y0388724D01*
X0011040Y0388782D01*
X0011183Y0388837D01*
X0011328Y0388888D01*
X0011474Y0388935D01*
X0011621Y0388978D01*
X0011769Y0389017D01*
X0011918Y0389053D01*
X0012068Y0389084D01*
X0012219Y0389112D01*
X0012370Y0389136D01*
X0012523Y0389156D01*
X0012675Y0389172D01*
X0012828Y0389184D01*
X0012981Y0389192D01*
X0013134Y0389196D01*
X0013288Y0389196D01*
X0013441Y0389192D01*
X0013594Y0389184D01*
X0013747Y0389172D01*
X0013899Y0389156D01*
X0014052Y0389136D01*
X0014203Y0389112D01*
X0014354Y0389084D01*
X0014504Y0389053D01*
X0014653Y0389017D01*
X0014801Y0388978D01*
X0014948Y0388935D01*
X0015094Y0388888D01*
X0015239Y0388837D01*
X0015382Y0388782D01*
X0015524Y0388724D01*
X0015664Y0388662D01*
X0015803Y0388597D01*
X0015940Y0388528D01*
X0016075Y0388455D01*
X0016208Y0388379D01*
X0016339Y0388299D01*
X0016468Y0388217D01*
X0016595Y0388130D01*
X0016720Y0388041D01*
X0016842Y0387948D01*
X0016961Y0387852D01*
X0017079Y0387753D01*
X0017193Y0387652D01*
X0017305Y0387547D01*
X0017414Y0387439D01*
X0017520Y0387328D01*
X0017624Y0387215D01*
X0017724Y0387099D01*
X0017822Y0386981D01*
X0017916Y0386860D01*
X0018007Y0386737D01*
X0018095Y0386611D01*
X0018179Y0386483D01*
X0018261Y0386353D01*
X0018338Y0386221D01*
X0018413Y0386087D01*
X0018484Y0385951D01*
X0018551Y0385813D01*
X0018615Y0385673D01*
X0018675Y0385532D01*
X0018731Y0385390D01*
X0018784Y0385246D01*
X0018833Y0385100D01*
X0018878Y0384954D01*
X0018919Y0384806D01*
X0018956Y0384658D01*
X0018990Y0384508D01*
X0019020Y0384357D01*
X0019045Y0384206D01*
X0019067Y0384055D01*
X0019085Y0383902D01*
X0019099Y0383750D01*
X0019109Y0383597D01*
X0019115Y0383443D01*
X0019117Y0383290D01*
X0019115Y0383137D01*
X0019109Y0382983D01*
X0019099Y0382830D01*
X0019085Y0382678D01*
X0019067Y0382525D01*
X0019045Y0382374D01*
X0019020Y0382223D01*
X0018990Y0382072D01*
X0018956Y0381922D01*
X0018919Y0381774D01*
X0018878Y0381626D01*
X0018833Y0381480D01*
X0018784Y0381334D01*
X0018731Y0381190D01*
X0018675Y0381048D01*
X0018615Y0380907D01*
X0018551Y0380767D01*
X0018484Y0380629D01*
X0018413Y0380493D01*
X0018338Y0380359D01*
X0018261Y0380227D01*
X0018179Y0380097D01*
X0018095Y0379969D01*
X0018007Y0379843D01*
X0017916Y0379720D01*
X0017822Y0379599D01*
X0017724Y0379481D01*
X0017624Y0379365D01*
X0017520Y0379252D01*
X0017414Y0379141D01*
X0017305Y0379033D01*
X0017193Y0378928D01*
X0017079Y0378827D01*
X0016961Y0378728D01*
X0016842Y0378632D01*
X0016720Y0378539D01*
X0016595Y0378450D01*
X0016468Y0378363D01*
X0016339Y0378281D01*
X0016208Y0378201D01*
X0016075Y0378125D01*
X0015940Y0378052D01*
X0015803Y0377983D01*
X0015664Y0377918D01*
X0015524Y0377856D01*
X0015382Y0377798D01*
X0015239Y0377743D01*
X0015094Y0377692D01*
X0014948Y0377645D01*
X0014801Y0377602D01*
X0014653Y0377563D01*
X0014504Y0377527D01*
X0014354Y0377496D01*
X0014203Y0377468D01*
X0014052Y0377444D01*
X0013899Y0377424D01*
X0013747Y0377408D01*
X0013594Y0377396D01*
X0013441Y0377388D01*
X0013288Y0377384D01*
X0013134Y0377384D01*
X0012981Y0377388D01*
X0012828Y0377396D01*
X0012675Y0377408D01*
X0012523Y0377424D01*
X0012370Y0377444D01*
X0012219Y0377468D01*
X0012068Y0377496D01*
X0011918Y0377527D01*
X0011769Y0377563D01*
X0011621Y0377602D01*
X0011474Y0377645D01*
X0011328Y0377692D01*
X0011183Y0377743D01*
X0011040Y0377798D01*
X0010898Y0377856D01*
X0010758Y0377918D01*
X0010619Y0377983D01*
X0010482Y0378052D01*
X0010347Y0378125D01*
X0010214Y0378201D01*
X0010083Y0378281D01*
X0009954Y0378363D01*
X0009827Y0378450D01*
X0009702Y0378539D01*
X0009580Y0378632D01*
X0009461Y0378728D01*
X0009343Y0378827D01*
X0009229Y0378928D01*
X0009117Y0379033D01*
X0009008Y0379141D01*
X0008902Y0379252D01*
X0008798Y0379365D01*
X0008698Y0379481D01*
X0008600Y0379599D01*
X0008506Y0379720D01*
X0008415Y0379843D01*
X0008327Y0379969D01*
X0008243Y0380097D01*
X0008161Y0380227D01*
X0008084Y0380359D01*
X0008009Y0380493D01*
X0007938Y0380629D01*
X0007871Y0380767D01*
X0007807Y0380907D01*
X0007747Y0381048D01*
X0007691Y0381190D01*
X0007638Y0381334D01*
X0007589Y0381480D01*
X0007544Y0381626D01*
X0007503Y0381774D01*
X0007466Y0381922D01*
X0007432Y0382072D01*
X0007402Y0382223D01*
X0007377Y0382374D01*
X0007355Y0382525D01*
X0007337Y0382678D01*
X0007323Y0382830D01*
X0007313Y0382983D01*
X0007307Y0383137D01*
X0007305Y0383290D01*
X0180533Y0383290D02*
X0180535Y0383443D01*
X0180541Y0383597D01*
X0180551Y0383750D01*
X0180565Y0383902D01*
X0180583Y0384055D01*
X0180605Y0384206D01*
X0180630Y0384357D01*
X0180660Y0384508D01*
X0180694Y0384658D01*
X0180731Y0384806D01*
X0180772Y0384954D01*
X0180817Y0385100D01*
X0180866Y0385246D01*
X0180919Y0385390D01*
X0180975Y0385532D01*
X0181035Y0385673D01*
X0181099Y0385813D01*
X0181166Y0385951D01*
X0181237Y0386087D01*
X0181312Y0386221D01*
X0181389Y0386353D01*
X0181471Y0386483D01*
X0181555Y0386611D01*
X0181643Y0386737D01*
X0181734Y0386860D01*
X0181828Y0386981D01*
X0181926Y0387099D01*
X0182026Y0387215D01*
X0182130Y0387328D01*
X0182236Y0387439D01*
X0182345Y0387547D01*
X0182457Y0387652D01*
X0182571Y0387753D01*
X0182689Y0387852D01*
X0182808Y0387948D01*
X0182930Y0388041D01*
X0183055Y0388130D01*
X0183182Y0388217D01*
X0183311Y0388299D01*
X0183442Y0388379D01*
X0183575Y0388455D01*
X0183710Y0388528D01*
X0183847Y0388597D01*
X0183986Y0388662D01*
X0184126Y0388724D01*
X0184268Y0388782D01*
X0184411Y0388837D01*
X0184556Y0388888D01*
X0184702Y0388935D01*
X0184849Y0388978D01*
X0184997Y0389017D01*
X0185146Y0389053D01*
X0185296Y0389084D01*
X0185447Y0389112D01*
X0185598Y0389136D01*
X0185751Y0389156D01*
X0185903Y0389172D01*
X0186056Y0389184D01*
X0186209Y0389192D01*
X0186362Y0389196D01*
X0186516Y0389196D01*
X0186669Y0389192D01*
X0186822Y0389184D01*
X0186975Y0389172D01*
X0187127Y0389156D01*
X0187280Y0389136D01*
X0187431Y0389112D01*
X0187582Y0389084D01*
X0187732Y0389053D01*
X0187881Y0389017D01*
X0188029Y0388978D01*
X0188176Y0388935D01*
X0188322Y0388888D01*
X0188467Y0388837D01*
X0188610Y0388782D01*
X0188752Y0388724D01*
X0188892Y0388662D01*
X0189031Y0388597D01*
X0189168Y0388528D01*
X0189303Y0388455D01*
X0189436Y0388379D01*
X0189567Y0388299D01*
X0189696Y0388217D01*
X0189823Y0388130D01*
X0189948Y0388041D01*
X0190070Y0387948D01*
X0190189Y0387852D01*
X0190307Y0387753D01*
X0190421Y0387652D01*
X0190533Y0387547D01*
X0190642Y0387439D01*
X0190748Y0387328D01*
X0190852Y0387215D01*
X0190952Y0387099D01*
X0191050Y0386981D01*
X0191144Y0386860D01*
X0191235Y0386737D01*
X0191323Y0386611D01*
X0191407Y0386483D01*
X0191489Y0386353D01*
X0191566Y0386221D01*
X0191641Y0386087D01*
X0191712Y0385951D01*
X0191779Y0385813D01*
X0191843Y0385673D01*
X0191903Y0385532D01*
X0191959Y0385390D01*
X0192012Y0385246D01*
X0192061Y0385100D01*
X0192106Y0384954D01*
X0192147Y0384806D01*
X0192184Y0384658D01*
X0192218Y0384508D01*
X0192248Y0384357D01*
X0192273Y0384206D01*
X0192295Y0384055D01*
X0192313Y0383902D01*
X0192327Y0383750D01*
X0192337Y0383597D01*
X0192343Y0383443D01*
X0192345Y0383290D01*
X0192343Y0383137D01*
X0192337Y0382983D01*
X0192327Y0382830D01*
X0192313Y0382678D01*
X0192295Y0382525D01*
X0192273Y0382374D01*
X0192248Y0382223D01*
X0192218Y0382072D01*
X0192184Y0381922D01*
X0192147Y0381774D01*
X0192106Y0381626D01*
X0192061Y0381480D01*
X0192012Y0381334D01*
X0191959Y0381190D01*
X0191903Y0381048D01*
X0191843Y0380907D01*
X0191779Y0380767D01*
X0191712Y0380629D01*
X0191641Y0380493D01*
X0191566Y0380359D01*
X0191489Y0380227D01*
X0191407Y0380097D01*
X0191323Y0379969D01*
X0191235Y0379843D01*
X0191144Y0379720D01*
X0191050Y0379599D01*
X0190952Y0379481D01*
X0190852Y0379365D01*
X0190748Y0379252D01*
X0190642Y0379141D01*
X0190533Y0379033D01*
X0190421Y0378928D01*
X0190307Y0378827D01*
X0190189Y0378728D01*
X0190070Y0378632D01*
X0189948Y0378539D01*
X0189823Y0378450D01*
X0189696Y0378363D01*
X0189567Y0378281D01*
X0189436Y0378201D01*
X0189303Y0378125D01*
X0189168Y0378052D01*
X0189031Y0377983D01*
X0188892Y0377918D01*
X0188752Y0377856D01*
X0188610Y0377798D01*
X0188467Y0377743D01*
X0188322Y0377692D01*
X0188176Y0377645D01*
X0188029Y0377602D01*
X0187881Y0377563D01*
X0187732Y0377527D01*
X0187582Y0377496D01*
X0187431Y0377468D01*
X0187280Y0377444D01*
X0187127Y0377424D01*
X0186975Y0377408D01*
X0186822Y0377396D01*
X0186669Y0377388D01*
X0186516Y0377384D01*
X0186362Y0377384D01*
X0186209Y0377388D01*
X0186056Y0377396D01*
X0185903Y0377408D01*
X0185751Y0377424D01*
X0185598Y0377444D01*
X0185447Y0377468D01*
X0185296Y0377496D01*
X0185146Y0377527D01*
X0184997Y0377563D01*
X0184849Y0377602D01*
X0184702Y0377645D01*
X0184556Y0377692D01*
X0184411Y0377743D01*
X0184268Y0377798D01*
X0184126Y0377856D01*
X0183986Y0377918D01*
X0183847Y0377983D01*
X0183710Y0378052D01*
X0183575Y0378125D01*
X0183442Y0378201D01*
X0183311Y0378281D01*
X0183182Y0378363D01*
X0183055Y0378450D01*
X0182930Y0378539D01*
X0182808Y0378632D01*
X0182689Y0378728D01*
X0182571Y0378827D01*
X0182457Y0378928D01*
X0182345Y0379033D01*
X0182236Y0379141D01*
X0182130Y0379252D01*
X0182026Y0379365D01*
X0181926Y0379481D01*
X0181828Y0379599D01*
X0181734Y0379720D01*
X0181643Y0379843D01*
X0181555Y0379969D01*
X0181471Y0380097D01*
X0181389Y0380227D01*
X0181312Y0380359D01*
X0181237Y0380493D01*
X0181166Y0380629D01*
X0181099Y0380767D01*
X0181035Y0380907D01*
X0180975Y0381048D01*
X0180919Y0381190D01*
X0180866Y0381334D01*
X0180817Y0381480D01*
X0180772Y0381626D01*
X0180731Y0381774D01*
X0180694Y0381922D01*
X0180660Y0382072D01*
X0180630Y0382223D01*
X0180605Y0382374D01*
X0180583Y0382525D01*
X0180565Y0382678D01*
X0180551Y0382830D01*
X0180541Y0382983D01*
X0180535Y0383137D01*
X0180533Y0383290D01*
X0180533Y0198250D02*
X0180535Y0198403D01*
X0180541Y0198557D01*
X0180551Y0198710D01*
X0180565Y0198862D01*
X0180583Y0199015D01*
X0180605Y0199166D01*
X0180630Y0199317D01*
X0180660Y0199468D01*
X0180694Y0199618D01*
X0180731Y0199766D01*
X0180772Y0199914D01*
X0180817Y0200060D01*
X0180866Y0200206D01*
X0180919Y0200350D01*
X0180975Y0200492D01*
X0181035Y0200633D01*
X0181099Y0200773D01*
X0181166Y0200911D01*
X0181237Y0201047D01*
X0181312Y0201181D01*
X0181389Y0201313D01*
X0181471Y0201443D01*
X0181555Y0201571D01*
X0181643Y0201697D01*
X0181734Y0201820D01*
X0181828Y0201941D01*
X0181926Y0202059D01*
X0182026Y0202175D01*
X0182130Y0202288D01*
X0182236Y0202399D01*
X0182345Y0202507D01*
X0182457Y0202612D01*
X0182571Y0202713D01*
X0182689Y0202812D01*
X0182808Y0202908D01*
X0182930Y0203001D01*
X0183055Y0203090D01*
X0183182Y0203177D01*
X0183311Y0203259D01*
X0183442Y0203339D01*
X0183575Y0203415D01*
X0183710Y0203488D01*
X0183847Y0203557D01*
X0183986Y0203622D01*
X0184126Y0203684D01*
X0184268Y0203742D01*
X0184411Y0203797D01*
X0184556Y0203848D01*
X0184702Y0203895D01*
X0184849Y0203938D01*
X0184997Y0203977D01*
X0185146Y0204013D01*
X0185296Y0204044D01*
X0185447Y0204072D01*
X0185598Y0204096D01*
X0185751Y0204116D01*
X0185903Y0204132D01*
X0186056Y0204144D01*
X0186209Y0204152D01*
X0186362Y0204156D01*
X0186516Y0204156D01*
X0186669Y0204152D01*
X0186822Y0204144D01*
X0186975Y0204132D01*
X0187127Y0204116D01*
X0187280Y0204096D01*
X0187431Y0204072D01*
X0187582Y0204044D01*
X0187732Y0204013D01*
X0187881Y0203977D01*
X0188029Y0203938D01*
X0188176Y0203895D01*
X0188322Y0203848D01*
X0188467Y0203797D01*
X0188610Y0203742D01*
X0188752Y0203684D01*
X0188892Y0203622D01*
X0189031Y0203557D01*
X0189168Y0203488D01*
X0189303Y0203415D01*
X0189436Y0203339D01*
X0189567Y0203259D01*
X0189696Y0203177D01*
X0189823Y0203090D01*
X0189948Y0203001D01*
X0190070Y0202908D01*
X0190189Y0202812D01*
X0190307Y0202713D01*
X0190421Y0202612D01*
X0190533Y0202507D01*
X0190642Y0202399D01*
X0190748Y0202288D01*
X0190852Y0202175D01*
X0190952Y0202059D01*
X0191050Y0201941D01*
X0191144Y0201820D01*
X0191235Y0201697D01*
X0191323Y0201571D01*
X0191407Y0201443D01*
X0191489Y0201313D01*
X0191566Y0201181D01*
X0191641Y0201047D01*
X0191712Y0200911D01*
X0191779Y0200773D01*
X0191843Y0200633D01*
X0191903Y0200492D01*
X0191959Y0200350D01*
X0192012Y0200206D01*
X0192061Y0200060D01*
X0192106Y0199914D01*
X0192147Y0199766D01*
X0192184Y0199618D01*
X0192218Y0199468D01*
X0192248Y0199317D01*
X0192273Y0199166D01*
X0192295Y0199015D01*
X0192313Y0198862D01*
X0192327Y0198710D01*
X0192337Y0198557D01*
X0192343Y0198403D01*
X0192345Y0198250D01*
X0192343Y0198097D01*
X0192337Y0197943D01*
X0192327Y0197790D01*
X0192313Y0197638D01*
X0192295Y0197485D01*
X0192273Y0197334D01*
X0192248Y0197183D01*
X0192218Y0197032D01*
X0192184Y0196882D01*
X0192147Y0196734D01*
X0192106Y0196586D01*
X0192061Y0196440D01*
X0192012Y0196294D01*
X0191959Y0196150D01*
X0191903Y0196008D01*
X0191843Y0195867D01*
X0191779Y0195727D01*
X0191712Y0195589D01*
X0191641Y0195453D01*
X0191566Y0195319D01*
X0191489Y0195187D01*
X0191407Y0195057D01*
X0191323Y0194929D01*
X0191235Y0194803D01*
X0191144Y0194680D01*
X0191050Y0194559D01*
X0190952Y0194441D01*
X0190852Y0194325D01*
X0190748Y0194212D01*
X0190642Y0194101D01*
X0190533Y0193993D01*
X0190421Y0193888D01*
X0190307Y0193787D01*
X0190189Y0193688D01*
X0190070Y0193592D01*
X0189948Y0193499D01*
X0189823Y0193410D01*
X0189696Y0193323D01*
X0189567Y0193241D01*
X0189436Y0193161D01*
X0189303Y0193085D01*
X0189168Y0193012D01*
X0189031Y0192943D01*
X0188892Y0192878D01*
X0188752Y0192816D01*
X0188610Y0192758D01*
X0188467Y0192703D01*
X0188322Y0192652D01*
X0188176Y0192605D01*
X0188029Y0192562D01*
X0187881Y0192523D01*
X0187732Y0192487D01*
X0187582Y0192456D01*
X0187431Y0192428D01*
X0187280Y0192404D01*
X0187127Y0192384D01*
X0186975Y0192368D01*
X0186822Y0192356D01*
X0186669Y0192348D01*
X0186516Y0192344D01*
X0186362Y0192344D01*
X0186209Y0192348D01*
X0186056Y0192356D01*
X0185903Y0192368D01*
X0185751Y0192384D01*
X0185598Y0192404D01*
X0185447Y0192428D01*
X0185296Y0192456D01*
X0185146Y0192487D01*
X0184997Y0192523D01*
X0184849Y0192562D01*
X0184702Y0192605D01*
X0184556Y0192652D01*
X0184411Y0192703D01*
X0184268Y0192758D01*
X0184126Y0192816D01*
X0183986Y0192878D01*
X0183847Y0192943D01*
X0183710Y0193012D01*
X0183575Y0193085D01*
X0183442Y0193161D01*
X0183311Y0193241D01*
X0183182Y0193323D01*
X0183055Y0193410D01*
X0182930Y0193499D01*
X0182808Y0193592D01*
X0182689Y0193688D01*
X0182571Y0193787D01*
X0182457Y0193888D01*
X0182345Y0193993D01*
X0182236Y0194101D01*
X0182130Y0194212D01*
X0182026Y0194325D01*
X0181926Y0194441D01*
X0181828Y0194559D01*
X0181734Y0194680D01*
X0181643Y0194803D01*
X0181555Y0194929D01*
X0181471Y0195057D01*
X0181389Y0195187D01*
X0181312Y0195319D01*
X0181237Y0195453D01*
X0181166Y0195589D01*
X0181099Y0195727D01*
X0181035Y0195867D01*
X0180975Y0196008D01*
X0180919Y0196150D01*
X0180866Y0196294D01*
X0180817Y0196440D01*
X0180772Y0196586D01*
X0180731Y0196734D01*
X0180694Y0196882D01*
X0180660Y0197032D01*
X0180630Y0197183D01*
X0180605Y0197334D01*
X0180583Y0197485D01*
X0180565Y0197638D01*
X0180551Y0197790D01*
X0180541Y0197943D01*
X0180535Y0198097D01*
X0180533Y0198250D01*
X0180533Y0013211D02*
X0180535Y0013364D01*
X0180541Y0013518D01*
X0180551Y0013671D01*
X0180565Y0013823D01*
X0180583Y0013976D01*
X0180605Y0014127D01*
X0180630Y0014278D01*
X0180660Y0014429D01*
X0180694Y0014579D01*
X0180731Y0014727D01*
X0180772Y0014875D01*
X0180817Y0015021D01*
X0180866Y0015167D01*
X0180919Y0015311D01*
X0180975Y0015453D01*
X0181035Y0015594D01*
X0181099Y0015734D01*
X0181166Y0015872D01*
X0181237Y0016008D01*
X0181312Y0016142D01*
X0181389Y0016274D01*
X0181471Y0016404D01*
X0181555Y0016532D01*
X0181643Y0016658D01*
X0181734Y0016781D01*
X0181828Y0016902D01*
X0181926Y0017020D01*
X0182026Y0017136D01*
X0182130Y0017249D01*
X0182236Y0017360D01*
X0182345Y0017468D01*
X0182457Y0017573D01*
X0182571Y0017674D01*
X0182689Y0017773D01*
X0182808Y0017869D01*
X0182930Y0017962D01*
X0183055Y0018051D01*
X0183182Y0018138D01*
X0183311Y0018220D01*
X0183442Y0018300D01*
X0183575Y0018376D01*
X0183710Y0018449D01*
X0183847Y0018518D01*
X0183986Y0018583D01*
X0184126Y0018645D01*
X0184268Y0018703D01*
X0184411Y0018758D01*
X0184556Y0018809D01*
X0184702Y0018856D01*
X0184849Y0018899D01*
X0184997Y0018938D01*
X0185146Y0018974D01*
X0185296Y0019005D01*
X0185447Y0019033D01*
X0185598Y0019057D01*
X0185751Y0019077D01*
X0185903Y0019093D01*
X0186056Y0019105D01*
X0186209Y0019113D01*
X0186362Y0019117D01*
X0186516Y0019117D01*
X0186669Y0019113D01*
X0186822Y0019105D01*
X0186975Y0019093D01*
X0187127Y0019077D01*
X0187280Y0019057D01*
X0187431Y0019033D01*
X0187582Y0019005D01*
X0187732Y0018974D01*
X0187881Y0018938D01*
X0188029Y0018899D01*
X0188176Y0018856D01*
X0188322Y0018809D01*
X0188467Y0018758D01*
X0188610Y0018703D01*
X0188752Y0018645D01*
X0188892Y0018583D01*
X0189031Y0018518D01*
X0189168Y0018449D01*
X0189303Y0018376D01*
X0189436Y0018300D01*
X0189567Y0018220D01*
X0189696Y0018138D01*
X0189823Y0018051D01*
X0189948Y0017962D01*
X0190070Y0017869D01*
X0190189Y0017773D01*
X0190307Y0017674D01*
X0190421Y0017573D01*
X0190533Y0017468D01*
X0190642Y0017360D01*
X0190748Y0017249D01*
X0190852Y0017136D01*
X0190952Y0017020D01*
X0191050Y0016902D01*
X0191144Y0016781D01*
X0191235Y0016658D01*
X0191323Y0016532D01*
X0191407Y0016404D01*
X0191489Y0016274D01*
X0191566Y0016142D01*
X0191641Y0016008D01*
X0191712Y0015872D01*
X0191779Y0015734D01*
X0191843Y0015594D01*
X0191903Y0015453D01*
X0191959Y0015311D01*
X0192012Y0015167D01*
X0192061Y0015021D01*
X0192106Y0014875D01*
X0192147Y0014727D01*
X0192184Y0014579D01*
X0192218Y0014429D01*
X0192248Y0014278D01*
X0192273Y0014127D01*
X0192295Y0013976D01*
X0192313Y0013823D01*
X0192327Y0013671D01*
X0192337Y0013518D01*
X0192343Y0013364D01*
X0192345Y0013211D01*
X0192343Y0013058D01*
X0192337Y0012904D01*
X0192327Y0012751D01*
X0192313Y0012599D01*
X0192295Y0012446D01*
X0192273Y0012295D01*
X0192248Y0012144D01*
X0192218Y0011993D01*
X0192184Y0011843D01*
X0192147Y0011695D01*
X0192106Y0011547D01*
X0192061Y0011401D01*
X0192012Y0011255D01*
X0191959Y0011111D01*
X0191903Y0010969D01*
X0191843Y0010828D01*
X0191779Y0010688D01*
X0191712Y0010550D01*
X0191641Y0010414D01*
X0191566Y0010280D01*
X0191489Y0010148D01*
X0191407Y0010018D01*
X0191323Y0009890D01*
X0191235Y0009764D01*
X0191144Y0009641D01*
X0191050Y0009520D01*
X0190952Y0009402D01*
X0190852Y0009286D01*
X0190748Y0009173D01*
X0190642Y0009062D01*
X0190533Y0008954D01*
X0190421Y0008849D01*
X0190307Y0008748D01*
X0190189Y0008649D01*
X0190070Y0008553D01*
X0189948Y0008460D01*
X0189823Y0008371D01*
X0189696Y0008284D01*
X0189567Y0008202D01*
X0189436Y0008122D01*
X0189303Y0008046D01*
X0189168Y0007973D01*
X0189031Y0007904D01*
X0188892Y0007839D01*
X0188752Y0007777D01*
X0188610Y0007719D01*
X0188467Y0007664D01*
X0188322Y0007613D01*
X0188176Y0007566D01*
X0188029Y0007523D01*
X0187881Y0007484D01*
X0187732Y0007448D01*
X0187582Y0007417D01*
X0187431Y0007389D01*
X0187280Y0007365D01*
X0187127Y0007345D01*
X0186975Y0007329D01*
X0186822Y0007317D01*
X0186669Y0007309D01*
X0186516Y0007305D01*
X0186362Y0007305D01*
X0186209Y0007309D01*
X0186056Y0007317D01*
X0185903Y0007329D01*
X0185751Y0007345D01*
X0185598Y0007365D01*
X0185447Y0007389D01*
X0185296Y0007417D01*
X0185146Y0007448D01*
X0184997Y0007484D01*
X0184849Y0007523D01*
X0184702Y0007566D01*
X0184556Y0007613D01*
X0184411Y0007664D01*
X0184268Y0007719D01*
X0184126Y0007777D01*
X0183986Y0007839D01*
X0183847Y0007904D01*
X0183710Y0007973D01*
X0183575Y0008046D01*
X0183442Y0008122D01*
X0183311Y0008202D01*
X0183182Y0008284D01*
X0183055Y0008371D01*
X0182930Y0008460D01*
X0182808Y0008553D01*
X0182689Y0008649D01*
X0182571Y0008748D01*
X0182457Y0008849D01*
X0182345Y0008954D01*
X0182236Y0009062D01*
X0182130Y0009173D01*
X0182026Y0009286D01*
X0181926Y0009402D01*
X0181828Y0009520D01*
X0181734Y0009641D01*
X0181643Y0009764D01*
X0181555Y0009890D01*
X0181471Y0010018D01*
X0181389Y0010148D01*
X0181312Y0010280D01*
X0181237Y0010414D01*
X0181166Y0010550D01*
X0181099Y0010688D01*
X0181035Y0010828D01*
X0180975Y0010969D01*
X0180919Y0011111D01*
X0180866Y0011255D01*
X0180817Y0011401D01*
X0180772Y0011547D01*
X0180731Y0011695D01*
X0180694Y0011843D01*
X0180660Y0011993D01*
X0180630Y0012144D01*
X0180605Y0012295D01*
X0180583Y0012446D01*
X0180565Y0012599D01*
X0180551Y0012751D01*
X0180541Y0012904D01*
X0180535Y0013058D01*
X0180533Y0013211D01*
D11*
X0164423Y0076353D02*
X0165030Y0076960D01*
X0165030Y0078173D01*
X0164423Y0078780D01*
X0163816Y0078780D01*
X0163209Y0078173D01*
X0163209Y0077567D01*
X0163209Y0078173D02*
X0162603Y0078780D01*
X0161996Y0078780D01*
X0161389Y0078173D01*
X0161389Y0076960D01*
X0161996Y0076353D01*
X0161389Y0079978D02*
X0163816Y0079978D01*
X0165030Y0081192D01*
X0163816Y0082405D01*
X0161389Y0082405D01*
X0161996Y0083603D02*
X0161389Y0084210D01*
X0161389Y0085423D01*
X0161996Y0086030D01*
X0162603Y0086030D01*
X0163209Y0085423D01*
X0163816Y0086030D01*
X0164423Y0086030D01*
X0165030Y0085423D01*
X0165030Y0084210D01*
X0164423Y0083603D01*
X0163209Y0084817D02*
X0163209Y0085423D01*
X0144951Y0087229D02*
X0144951Y0089049D01*
X0144344Y0089655D01*
X0143737Y0089655D01*
X0143131Y0089049D01*
X0143131Y0087229D01*
X0143131Y0089049D02*
X0142524Y0089655D01*
X0141917Y0089655D01*
X0141311Y0089049D01*
X0141311Y0087229D01*
X0144951Y0087229D01*
X0144951Y0090854D02*
X0142524Y0090854D01*
X0141311Y0092067D01*
X0142524Y0093280D01*
X0144951Y0093280D01*
X0143131Y0093280D02*
X0143131Y0090854D01*
X0141311Y0094479D02*
X0141311Y0096906D01*
X0141311Y0095692D02*
X0144951Y0095692D01*
X0141311Y0086030D02*
X0144951Y0083603D01*
X0144344Y0082405D02*
X0144951Y0081798D01*
X0144951Y0080585D01*
X0144344Y0079978D01*
X0141917Y0079978D01*
X0141311Y0080585D01*
X0141311Y0081798D01*
X0141917Y0082405D01*
X0141917Y0078780D02*
X0141311Y0078173D01*
X0141311Y0076353D01*
X0144951Y0076353D01*
X0144951Y0078173D01*
X0144344Y0078780D01*
X0141917Y0078780D01*
X0116296Y0015033D02*
X0115082Y0015033D01*
X0114476Y0014426D01*
X0114476Y0011999D01*
X0115082Y0011393D01*
X0116296Y0011393D01*
X0116902Y0011999D01*
X0116902Y0013213D01*
X0115689Y0013213D01*
X0116902Y0014426D02*
X0116296Y0015033D01*
X0113277Y0014426D02*
X0112671Y0015033D01*
X0111457Y0015033D01*
X0110851Y0014426D01*
X0110851Y0011999D01*
X0111457Y0011393D01*
X0112671Y0011393D01*
X0113277Y0011999D01*
X0113277Y0014426D01*
X0113876Y0009127D02*
X0115090Y0007914D01*
X0115090Y0005487D01*
X0115090Y0007307D02*
X0112663Y0007307D01*
X0112663Y0007914D02*
X0113876Y0009127D01*
X0112663Y0007914D02*
X0112663Y0005487D01*
X0111465Y0006094D02*
X0110858Y0005487D01*
X0109645Y0005487D01*
X0109038Y0006094D01*
X0107840Y0006094D02*
X0107840Y0008520D01*
X0105413Y0006094D01*
X0106020Y0005487D01*
X0107233Y0005487D01*
X0107840Y0006094D01*
X0109038Y0007307D02*
X0109038Y0009127D01*
X0111465Y0009127D01*
X0110858Y0007914D02*
X0110251Y0007914D01*
X0109038Y0007307D01*
X0107840Y0008520D02*
X0107233Y0009127D01*
X0106020Y0009127D01*
X0105413Y0008520D01*
X0105413Y0006094D01*
X0104214Y0006094D02*
X0104214Y0008520D01*
X0103608Y0009127D01*
X0102394Y0009127D01*
X0101788Y0008520D01*
X0101788Y0007914D01*
X0102394Y0007307D01*
X0104214Y0007307D01*
X0104214Y0006094D02*
X0103608Y0005487D01*
X0102394Y0005487D01*
X0101788Y0006094D01*
X0100589Y0006094D02*
X0100589Y0008520D01*
X0098163Y0006094D01*
X0098769Y0005487D01*
X0099983Y0005487D01*
X0100589Y0006094D01*
X0098163Y0006094D02*
X0098163Y0008520D01*
X0098769Y0009127D01*
X0099983Y0009127D01*
X0100589Y0008520D01*
X0098777Y0011393D02*
X0098777Y0015033D01*
X0099975Y0013213D02*
X0102402Y0013213D01*
X0103600Y0012606D02*
X0105420Y0012606D01*
X0106027Y0013213D01*
X0106027Y0014426D01*
X0105420Y0015033D01*
X0103600Y0015033D01*
X0103600Y0011393D01*
X0107225Y0011393D02*
X0107225Y0015033D01*
X0109045Y0015033D01*
X0109652Y0014426D01*
X0109652Y0013213D01*
X0109045Y0012606D01*
X0107225Y0012606D01*
X0108439Y0012606D02*
X0109652Y0011393D01*
X0110858Y0007914D02*
X0111465Y0007307D01*
X0111465Y0006094D01*
X0098777Y0011393D02*
X0097563Y0012606D01*
X0096350Y0011393D01*
X0096350Y0015033D01*
X0095152Y0015033D02*
X0092725Y0015033D01*
X0092725Y0011393D01*
X0095152Y0011393D01*
X0093938Y0013213D02*
X0092725Y0013213D01*
X0091526Y0013213D02*
X0090920Y0012606D01*
X0089100Y0012606D01*
X0090313Y0012606D02*
X0091526Y0011393D01*
X0091526Y0013213D02*
X0091526Y0014426D01*
X0090920Y0015033D01*
X0089100Y0015033D01*
X0089100Y0011393D01*
X0087901Y0011393D02*
X0087901Y0015033D01*
X0087901Y0013213D02*
X0085475Y0013213D01*
X0084276Y0012606D02*
X0084276Y0011999D01*
X0083670Y0011393D01*
X0082456Y0011393D01*
X0081849Y0011999D01*
X0082456Y0013213D02*
X0083670Y0013213D01*
X0084276Y0012606D01*
X0085475Y0011393D02*
X0085475Y0015033D01*
X0084276Y0014426D02*
X0083670Y0015033D01*
X0082456Y0015033D01*
X0081849Y0014426D01*
X0081849Y0013819D01*
X0082456Y0013213D01*
X0084269Y0009127D02*
X0083662Y0008520D01*
X0084269Y0009127D02*
X0085482Y0009127D01*
X0086089Y0008520D01*
X0086089Y0007914D01*
X0083662Y0005487D01*
X0086089Y0005487D01*
X0087287Y0006094D02*
X0087287Y0008520D01*
X0087894Y0009127D01*
X0089107Y0009127D01*
X0089714Y0008520D01*
X0087287Y0006094D01*
X0087894Y0005487D01*
X0089107Y0005487D01*
X0089714Y0006094D01*
X0089714Y0008520D01*
X0090912Y0008520D02*
X0091519Y0009127D01*
X0092732Y0009127D01*
X0093339Y0008520D01*
X0093339Y0007914D01*
X0090912Y0005487D01*
X0093339Y0005487D01*
X0094537Y0007307D02*
X0096964Y0007307D01*
X0096358Y0005487D02*
X0096358Y0009127D01*
X0094537Y0007307D01*
X0080573Y0082259D02*
X0078146Y0082259D01*
X0078146Y0085899D01*
X0080573Y0085899D01*
X0079360Y0084079D02*
X0078146Y0084079D01*
X0076948Y0085899D02*
X0074521Y0085899D01*
X0073318Y0085899D02*
X0072104Y0085899D01*
X0072711Y0085899D02*
X0072711Y0082259D01*
X0072104Y0082259D02*
X0073318Y0082259D01*
X0070906Y0082259D02*
X0068479Y0082259D01*
X0068479Y0085899D01*
X0075734Y0085899D02*
X0075734Y0082259D01*
X0076336Y0207849D02*
X0077549Y0207849D01*
X0078156Y0208456D01*
X0078156Y0210883D01*
X0077549Y0211489D01*
X0076336Y0211489D01*
X0075729Y0210883D01*
X0075729Y0208456D01*
X0076336Y0207849D01*
X0074531Y0207849D02*
X0073318Y0209063D01*
X0073924Y0209063D02*
X0072104Y0209063D01*
X0072104Y0207849D02*
X0072104Y0211489D01*
X0073924Y0211489D01*
X0074531Y0210883D01*
X0074531Y0209669D01*
X0073924Y0209063D01*
X0070906Y0209669D02*
X0070906Y0210883D01*
X0070299Y0211489D01*
X0068479Y0211489D01*
X0068479Y0207849D01*
X0068479Y0209063D02*
X0070299Y0209063D01*
X0070906Y0209669D01*
X0070906Y0290920D02*
X0068479Y0290920D01*
X0068479Y0291527D01*
X0070906Y0293954D01*
X0070906Y0294560D01*
X0068479Y0294560D01*
X0072104Y0294560D02*
X0072104Y0290920D01*
X0074531Y0290920D01*
X0075729Y0290920D02*
X0075729Y0294560D01*
X0077549Y0294560D01*
X0078156Y0293954D01*
X0078156Y0292740D01*
X0077549Y0292133D01*
X0075729Y0292133D01*
X0076943Y0292133D02*
X0078156Y0290920D01*
X0079355Y0291527D02*
X0079355Y0293954D01*
X0079961Y0294560D01*
X0081175Y0294560D01*
X0081781Y0293954D01*
X0081781Y0291527D01*
X0081175Y0290920D01*
X0079961Y0290920D01*
X0079355Y0291527D01*
X0074531Y0294560D02*
X0072104Y0294560D01*
X0072104Y0292740D02*
X0073318Y0292740D01*
X0073413Y0362722D02*
X0075840Y0362722D01*
X0076447Y0363328D01*
X0076447Y0364542D01*
X0075840Y0365149D01*
X0074627Y0365149D01*
X0074627Y0363935D01*
X0073413Y0362722D02*
X0072807Y0363328D01*
X0072807Y0364542D01*
X0073413Y0365149D01*
X0072807Y0366347D02*
X0076447Y0368774D01*
X0072807Y0368774D01*
X0072807Y0369972D02*
X0072807Y0371792D01*
X0073413Y0372399D01*
X0075840Y0372399D01*
X0076447Y0371792D01*
X0076447Y0369972D01*
X0072807Y0369972D01*
X0072807Y0366347D02*
X0076447Y0366347D01*
X0092885Y0367144D02*
X0095312Y0367144D01*
X0096526Y0365931D01*
X0095312Y0364718D01*
X0092885Y0364718D01*
X0092885Y0368343D02*
X0092885Y0369556D01*
X0092885Y0368949D02*
X0096526Y0368949D01*
X0096526Y0368343D02*
X0096526Y0369556D01*
X0096526Y0370759D02*
X0092885Y0370759D01*
X0096526Y0373186D01*
X0092885Y0373186D01*
D12*
X0102975Y0373841D02*
X0104943Y0370691D01*
X0106912Y0373841D01*
X0102975Y0373841D01*
X0112817Y0370691D02*
X0116754Y0370691D01*
X0114786Y0373841D01*
X0112817Y0370691D01*
D13*
X0129825Y0380790D02*
X0129825Y0385790D01*
X0069825Y0385790D02*
X0069825Y0380790D01*
X0057502Y0380928D02*
X0057502Y0356518D01*
X0029943Y0356518D01*
X0029943Y0380928D01*
X0057502Y0380928D01*
X0057502Y0356518D02*
X0057502Y0353369D01*
X0029943Y0353369D01*
X0029943Y0356518D01*
X0140632Y0073329D02*
X0138132Y0070829D01*
X0138132Y0065829D01*
X0140632Y0063329D01*
X0145632Y0063329D01*
X0148132Y0065829D01*
X0150632Y0063329D01*
X0155632Y0063329D01*
X0158132Y0065829D01*
X0160632Y0063329D01*
X0165632Y0063329D01*
X0168132Y0065829D01*
X0168132Y0070829D01*
X0165632Y0073329D01*
X0160632Y0073329D01*
X0158132Y0070829D01*
X0155632Y0073329D01*
X0150632Y0073329D01*
X0148132Y0070829D01*
X0145632Y0073329D01*
X0140632Y0073329D01*
X0140632Y0057581D02*
X0138132Y0055081D01*
X0138132Y0050081D01*
X0140632Y0047581D01*
X0145632Y0047581D01*
X0148132Y0050081D01*
X0150632Y0047581D01*
X0155632Y0047581D01*
X0158132Y0050081D01*
X0160632Y0047581D01*
X0165632Y0047581D01*
X0168132Y0050081D01*
X0168132Y0055081D01*
X0165632Y0057581D01*
X0160632Y0057581D01*
X0158132Y0055081D01*
X0155632Y0057581D01*
X0150632Y0057581D01*
X0148132Y0055081D01*
X0145632Y0057581D01*
X0140632Y0057581D01*
X0143132Y0017148D02*
X0137620Y0017148D01*
X0137620Y0009274D01*
X0143132Y0009274D01*
X0145888Y0010455D02*
X0145888Y0013211D01*
X0148250Y0015573D01*
X0148250Y0010849D01*
X0145888Y0013211D01*
X0145888Y0015967D01*
X0151006Y0017148D02*
X0156518Y0017148D01*
X0156518Y0009274D01*
X0151006Y0009274D01*
X0116636Y0035396D02*
X0116636Y0040396D01*
X0098841Y0032896D02*
X0098845Y0033210D01*
X0098856Y0033524D01*
X0098876Y0033837D01*
X0098903Y0034150D01*
X0098937Y0034462D01*
X0098979Y0034773D01*
X0099029Y0035083D01*
X0099087Y0035392D01*
X0099152Y0035699D01*
X0099224Y0036005D01*
X0099304Y0036309D01*
X0099392Y0036610D01*
X0099487Y0036910D01*
X0099589Y0037207D01*
X0099698Y0037501D01*
X0099815Y0037792D01*
X0099939Y0038081D01*
X0100069Y0038367D01*
X0100207Y0038649D01*
X0100352Y0038928D01*
X0100503Y0039203D01*
X0100661Y0039474D01*
X0100826Y0039741D01*
X0100997Y0040005D01*
X0101175Y0040263D01*
X0101359Y0040518D01*
X0101549Y0040768D01*
X0101745Y0041013D01*
X0101948Y0041253D01*
X0102156Y0041489D01*
X0102369Y0041719D01*
X0102589Y0041943D01*
X0102813Y0042163D01*
X0103043Y0042376D01*
X0103279Y0042584D01*
X0103519Y0042787D01*
X0103764Y0042983D01*
X0104014Y0043173D01*
X0104269Y0043357D01*
X0104527Y0043535D01*
X0104791Y0043706D01*
X0105058Y0043871D01*
X0105329Y0044029D01*
X0105604Y0044180D01*
X0105883Y0044325D01*
X0106165Y0044463D01*
X0106451Y0044593D01*
X0106740Y0044717D01*
X0107031Y0044834D01*
X0107325Y0044943D01*
X0107622Y0045045D01*
X0107922Y0045140D01*
X0108223Y0045228D01*
X0108527Y0045308D01*
X0108833Y0045380D01*
X0109140Y0045445D01*
X0109449Y0045503D01*
X0109759Y0045553D01*
X0110070Y0045595D01*
X0110382Y0045629D01*
X0110695Y0045656D01*
X0111008Y0045676D01*
X0111322Y0045687D01*
X0111636Y0045691D01*
X0111950Y0045687D01*
X0112264Y0045676D01*
X0112577Y0045656D01*
X0112890Y0045629D01*
X0113202Y0045595D01*
X0113513Y0045553D01*
X0113823Y0045503D01*
X0114132Y0045445D01*
X0114439Y0045380D01*
X0114745Y0045308D01*
X0115049Y0045228D01*
X0115350Y0045140D01*
X0115650Y0045045D01*
X0115947Y0044943D01*
X0116241Y0044834D01*
X0116532Y0044717D01*
X0116821Y0044593D01*
X0117107Y0044463D01*
X0117389Y0044325D01*
X0117668Y0044180D01*
X0117943Y0044029D01*
X0118214Y0043871D01*
X0118481Y0043706D01*
X0118745Y0043535D01*
X0119003Y0043357D01*
X0119258Y0043173D01*
X0119508Y0042983D01*
X0119753Y0042787D01*
X0119993Y0042584D01*
X0120229Y0042376D01*
X0120459Y0042163D01*
X0120683Y0041943D01*
X0120903Y0041719D01*
X0121116Y0041489D01*
X0121324Y0041253D01*
X0121527Y0041013D01*
X0121723Y0040768D01*
X0121913Y0040518D01*
X0122097Y0040263D01*
X0122275Y0040005D01*
X0122446Y0039741D01*
X0122611Y0039474D01*
X0122769Y0039203D01*
X0122920Y0038928D01*
X0123065Y0038649D01*
X0123203Y0038367D01*
X0123333Y0038081D01*
X0123457Y0037792D01*
X0123574Y0037501D01*
X0123683Y0037207D01*
X0123785Y0036910D01*
X0123880Y0036610D01*
X0123968Y0036309D01*
X0124048Y0036005D01*
X0124120Y0035699D01*
X0124185Y0035392D01*
X0124243Y0035083D01*
X0124293Y0034773D01*
X0124335Y0034462D01*
X0124369Y0034150D01*
X0124396Y0033837D01*
X0124416Y0033524D01*
X0124427Y0033210D01*
X0124431Y0032896D01*
X0124427Y0032582D01*
X0124416Y0032268D01*
X0124396Y0031955D01*
X0124369Y0031642D01*
X0124335Y0031330D01*
X0124293Y0031019D01*
X0124243Y0030709D01*
X0124185Y0030400D01*
X0124120Y0030093D01*
X0124048Y0029787D01*
X0123968Y0029483D01*
X0123880Y0029182D01*
X0123785Y0028882D01*
X0123683Y0028585D01*
X0123574Y0028291D01*
X0123457Y0028000D01*
X0123333Y0027711D01*
X0123203Y0027425D01*
X0123065Y0027143D01*
X0122920Y0026864D01*
X0122769Y0026589D01*
X0122611Y0026318D01*
X0122446Y0026051D01*
X0122275Y0025787D01*
X0122097Y0025529D01*
X0121913Y0025274D01*
X0121723Y0025024D01*
X0121527Y0024779D01*
X0121324Y0024539D01*
X0121116Y0024303D01*
X0120903Y0024073D01*
X0120683Y0023849D01*
X0120459Y0023629D01*
X0120229Y0023416D01*
X0119993Y0023208D01*
X0119753Y0023005D01*
X0119508Y0022809D01*
X0119258Y0022619D01*
X0119003Y0022435D01*
X0118745Y0022257D01*
X0118481Y0022086D01*
X0118214Y0021921D01*
X0117943Y0021763D01*
X0117668Y0021612D01*
X0117389Y0021467D01*
X0117107Y0021329D01*
X0116821Y0021199D01*
X0116532Y0021075D01*
X0116241Y0020958D01*
X0115947Y0020849D01*
X0115650Y0020747D01*
X0115350Y0020652D01*
X0115049Y0020564D01*
X0114745Y0020484D01*
X0114439Y0020412D01*
X0114132Y0020347D01*
X0113823Y0020289D01*
X0113513Y0020239D01*
X0113202Y0020197D01*
X0112890Y0020163D01*
X0112577Y0020136D01*
X0112264Y0020116D01*
X0111950Y0020105D01*
X0111636Y0020101D01*
X0111322Y0020105D01*
X0111008Y0020116D01*
X0110695Y0020136D01*
X0110382Y0020163D01*
X0110070Y0020197D01*
X0109759Y0020239D01*
X0109449Y0020289D01*
X0109140Y0020347D01*
X0108833Y0020412D01*
X0108527Y0020484D01*
X0108223Y0020564D01*
X0107922Y0020652D01*
X0107622Y0020747D01*
X0107325Y0020849D01*
X0107031Y0020958D01*
X0106740Y0021075D01*
X0106451Y0021199D01*
X0106165Y0021329D01*
X0105883Y0021467D01*
X0105604Y0021612D01*
X0105329Y0021763D01*
X0105058Y0021921D01*
X0104791Y0022086D01*
X0104527Y0022257D01*
X0104269Y0022435D01*
X0104014Y0022619D01*
X0103764Y0022809D01*
X0103519Y0023005D01*
X0103279Y0023208D01*
X0103043Y0023416D01*
X0102813Y0023629D01*
X0102589Y0023849D01*
X0102369Y0024073D01*
X0102156Y0024303D01*
X0101948Y0024539D01*
X0101745Y0024779D01*
X0101549Y0025024D01*
X0101359Y0025274D01*
X0101175Y0025529D01*
X0100997Y0025787D01*
X0100826Y0026051D01*
X0100661Y0026318D01*
X0100503Y0026589D01*
X0100352Y0026864D01*
X0100207Y0027143D01*
X0100069Y0027425D01*
X0099939Y0027711D01*
X0099815Y0028000D01*
X0099698Y0028291D01*
X0099589Y0028585D01*
X0099487Y0028882D01*
X0099392Y0029182D01*
X0099304Y0029483D01*
X0099224Y0029787D01*
X0099152Y0030093D01*
X0099087Y0030400D01*
X0099029Y0030709D01*
X0098979Y0031019D01*
X0098937Y0031330D01*
X0098903Y0031642D01*
X0098876Y0031955D01*
X0098856Y0032268D01*
X0098845Y0032582D01*
X0098841Y0032896D01*
X0085140Y0035396D02*
X0085140Y0040396D01*
X0067345Y0032896D02*
X0067349Y0033210D01*
X0067360Y0033524D01*
X0067380Y0033837D01*
X0067407Y0034150D01*
X0067441Y0034462D01*
X0067483Y0034773D01*
X0067533Y0035083D01*
X0067591Y0035392D01*
X0067656Y0035699D01*
X0067728Y0036005D01*
X0067808Y0036309D01*
X0067896Y0036610D01*
X0067991Y0036910D01*
X0068093Y0037207D01*
X0068202Y0037501D01*
X0068319Y0037792D01*
X0068443Y0038081D01*
X0068573Y0038367D01*
X0068711Y0038649D01*
X0068856Y0038928D01*
X0069007Y0039203D01*
X0069165Y0039474D01*
X0069330Y0039741D01*
X0069501Y0040005D01*
X0069679Y0040263D01*
X0069863Y0040518D01*
X0070053Y0040768D01*
X0070249Y0041013D01*
X0070452Y0041253D01*
X0070660Y0041489D01*
X0070873Y0041719D01*
X0071093Y0041943D01*
X0071317Y0042163D01*
X0071547Y0042376D01*
X0071783Y0042584D01*
X0072023Y0042787D01*
X0072268Y0042983D01*
X0072518Y0043173D01*
X0072773Y0043357D01*
X0073031Y0043535D01*
X0073295Y0043706D01*
X0073562Y0043871D01*
X0073833Y0044029D01*
X0074108Y0044180D01*
X0074387Y0044325D01*
X0074669Y0044463D01*
X0074955Y0044593D01*
X0075244Y0044717D01*
X0075535Y0044834D01*
X0075829Y0044943D01*
X0076126Y0045045D01*
X0076426Y0045140D01*
X0076727Y0045228D01*
X0077031Y0045308D01*
X0077337Y0045380D01*
X0077644Y0045445D01*
X0077953Y0045503D01*
X0078263Y0045553D01*
X0078574Y0045595D01*
X0078886Y0045629D01*
X0079199Y0045656D01*
X0079512Y0045676D01*
X0079826Y0045687D01*
X0080140Y0045691D01*
X0080454Y0045687D01*
X0080768Y0045676D01*
X0081081Y0045656D01*
X0081394Y0045629D01*
X0081706Y0045595D01*
X0082017Y0045553D01*
X0082327Y0045503D01*
X0082636Y0045445D01*
X0082943Y0045380D01*
X0083249Y0045308D01*
X0083553Y0045228D01*
X0083854Y0045140D01*
X0084154Y0045045D01*
X0084451Y0044943D01*
X0084745Y0044834D01*
X0085036Y0044717D01*
X0085325Y0044593D01*
X0085611Y0044463D01*
X0085893Y0044325D01*
X0086172Y0044180D01*
X0086447Y0044029D01*
X0086718Y0043871D01*
X0086985Y0043706D01*
X0087249Y0043535D01*
X0087507Y0043357D01*
X0087762Y0043173D01*
X0088012Y0042983D01*
X0088257Y0042787D01*
X0088497Y0042584D01*
X0088733Y0042376D01*
X0088963Y0042163D01*
X0089187Y0041943D01*
X0089407Y0041719D01*
X0089620Y0041489D01*
X0089828Y0041253D01*
X0090031Y0041013D01*
X0090227Y0040768D01*
X0090417Y0040518D01*
X0090601Y0040263D01*
X0090779Y0040005D01*
X0090950Y0039741D01*
X0091115Y0039474D01*
X0091273Y0039203D01*
X0091424Y0038928D01*
X0091569Y0038649D01*
X0091707Y0038367D01*
X0091837Y0038081D01*
X0091961Y0037792D01*
X0092078Y0037501D01*
X0092187Y0037207D01*
X0092289Y0036910D01*
X0092384Y0036610D01*
X0092472Y0036309D01*
X0092552Y0036005D01*
X0092624Y0035699D01*
X0092689Y0035392D01*
X0092747Y0035083D01*
X0092797Y0034773D01*
X0092839Y0034462D01*
X0092873Y0034150D01*
X0092900Y0033837D01*
X0092920Y0033524D01*
X0092931Y0033210D01*
X0092935Y0032896D01*
X0092931Y0032582D01*
X0092920Y0032268D01*
X0092900Y0031955D01*
X0092873Y0031642D01*
X0092839Y0031330D01*
X0092797Y0031019D01*
X0092747Y0030709D01*
X0092689Y0030400D01*
X0092624Y0030093D01*
X0092552Y0029787D01*
X0092472Y0029483D01*
X0092384Y0029182D01*
X0092289Y0028882D01*
X0092187Y0028585D01*
X0092078Y0028291D01*
X0091961Y0028000D01*
X0091837Y0027711D01*
X0091707Y0027425D01*
X0091569Y0027143D01*
X0091424Y0026864D01*
X0091273Y0026589D01*
X0091115Y0026318D01*
X0090950Y0026051D01*
X0090779Y0025787D01*
X0090601Y0025529D01*
X0090417Y0025274D01*
X0090227Y0025024D01*
X0090031Y0024779D01*
X0089828Y0024539D01*
X0089620Y0024303D01*
X0089407Y0024073D01*
X0089187Y0023849D01*
X0088963Y0023629D01*
X0088733Y0023416D01*
X0088497Y0023208D01*
X0088257Y0023005D01*
X0088012Y0022809D01*
X0087762Y0022619D01*
X0087507Y0022435D01*
X0087249Y0022257D01*
X0086985Y0022086D01*
X0086718Y0021921D01*
X0086447Y0021763D01*
X0086172Y0021612D01*
X0085893Y0021467D01*
X0085611Y0021329D01*
X0085325Y0021199D01*
X0085036Y0021075D01*
X0084745Y0020958D01*
X0084451Y0020849D01*
X0084154Y0020747D01*
X0083854Y0020652D01*
X0083553Y0020564D01*
X0083249Y0020484D01*
X0082943Y0020412D01*
X0082636Y0020347D01*
X0082327Y0020289D01*
X0082017Y0020239D01*
X0081706Y0020197D01*
X0081394Y0020163D01*
X0081081Y0020136D01*
X0080768Y0020116D01*
X0080454Y0020105D01*
X0080140Y0020101D01*
X0079826Y0020105D01*
X0079512Y0020116D01*
X0079199Y0020136D01*
X0078886Y0020163D01*
X0078574Y0020197D01*
X0078263Y0020239D01*
X0077953Y0020289D01*
X0077644Y0020347D01*
X0077337Y0020412D01*
X0077031Y0020484D01*
X0076727Y0020564D01*
X0076426Y0020652D01*
X0076126Y0020747D01*
X0075829Y0020849D01*
X0075535Y0020958D01*
X0075244Y0021075D01*
X0074955Y0021199D01*
X0074669Y0021329D01*
X0074387Y0021467D01*
X0074108Y0021612D01*
X0073833Y0021763D01*
X0073562Y0021921D01*
X0073295Y0022086D01*
X0073031Y0022257D01*
X0072773Y0022435D01*
X0072518Y0022619D01*
X0072268Y0022809D01*
X0072023Y0023005D01*
X0071783Y0023208D01*
X0071547Y0023416D01*
X0071317Y0023629D01*
X0071093Y0023849D01*
X0070873Y0024073D01*
X0070660Y0024303D01*
X0070452Y0024539D01*
X0070249Y0024779D01*
X0070053Y0025024D01*
X0069863Y0025274D01*
X0069679Y0025529D01*
X0069501Y0025787D01*
X0069330Y0026051D01*
X0069165Y0026318D01*
X0069007Y0026589D01*
X0068856Y0026864D01*
X0068711Y0027143D01*
X0068573Y0027425D01*
X0068443Y0027711D01*
X0068319Y0028000D01*
X0068202Y0028291D01*
X0068093Y0028585D01*
X0067991Y0028882D01*
X0067896Y0029182D01*
X0067808Y0029483D01*
X0067728Y0029787D01*
X0067656Y0030093D01*
X0067591Y0030400D01*
X0067533Y0030709D01*
X0067483Y0031019D01*
X0067441Y0031330D01*
X0067407Y0031642D01*
X0067380Y0031955D01*
X0067360Y0032268D01*
X0067349Y0032582D01*
X0067345Y0032896D01*
X0053644Y0035396D02*
X0053644Y0040396D01*
X0035849Y0032896D02*
X0035853Y0033210D01*
X0035864Y0033524D01*
X0035884Y0033837D01*
X0035911Y0034150D01*
X0035945Y0034462D01*
X0035987Y0034773D01*
X0036037Y0035083D01*
X0036095Y0035392D01*
X0036160Y0035699D01*
X0036232Y0036005D01*
X0036312Y0036309D01*
X0036400Y0036610D01*
X0036495Y0036910D01*
X0036597Y0037207D01*
X0036706Y0037501D01*
X0036823Y0037792D01*
X0036947Y0038081D01*
X0037077Y0038367D01*
X0037215Y0038649D01*
X0037360Y0038928D01*
X0037511Y0039203D01*
X0037669Y0039474D01*
X0037834Y0039741D01*
X0038005Y0040005D01*
X0038183Y0040263D01*
X0038367Y0040518D01*
X0038557Y0040768D01*
X0038753Y0041013D01*
X0038956Y0041253D01*
X0039164Y0041489D01*
X0039377Y0041719D01*
X0039597Y0041943D01*
X0039821Y0042163D01*
X0040051Y0042376D01*
X0040287Y0042584D01*
X0040527Y0042787D01*
X0040772Y0042983D01*
X0041022Y0043173D01*
X0041277Y0043357D01*
X0041535Y0043535D01*
X0041799Y0043706D01*
X0042066Y0043871D01*
X0042337Y0044029D01*
X0042612Y0044180D01*
X0042891Y0044325D01*
X0043173Y0044463D01*
X0043459Y0044593D01*
X0043748Y0044717D01*
X0044039Y0044834D01*
X0044333Y0044943D01*
X0044630Y0045045D01*
X0044930Y0045140D01*
X0045231Y0045228D01*
X0045535Y0045308D01*
X0045841Y0045380D01*
X0046148Y0045445D01*
X0046457Y0045503D01*
X0046767Y0045553D01*
X0047078Y0045595D01*
X0047390Y0045629D01*
X0047703Y0045656D01*
X0048016Y0045676D01*
X0048330Y0045687D01*
X0048644Y0045691D01*
X0048958Y0045687D01*
X0049272Y0045676D01*
X0049585Y0045656D01*
X0049898Y0045629D01*
X0050210Y0045595D01*
X0050521Y0045553D01*
X0050831Y0045503D01*
X0051140Y0045445D01*
X0051447Y0045380D01*
X0051753Y0045308D01*
X0052057Y0045228D01*
X0052358Y0045140D01*
X0052658Y0045045D01*
X0052955Y0044943D01*
X0053249Y0044834D01*
X0053540Y0044717D01*
X0053829Y0044593D01*
X0054115Y0044463D01*
X0054397Y0044325D01*
X0054676Y0044180D01*
X0054951Y0044029D01*
X0055222Y0043871D01*
X0055489Y0043706D01*
X0055753Y0043535D01*
X0056011Y0043357D01*
X0056266Y0043173D01*
X0056516Y0042983D01*
X0056761Y0042787D01*
X0057001Y0042584D01*
X0057237Y0042376D01*
X0057467Y0042163D01*
X0057691Y0041943D01*
X0057911Y0041719D01*
X0058124Y0041489D01*
X0058332Y0041253D01*
X0058535Y0041013D01*
X0058731Y0040768D01*
X0058921Y0040518D01*
X0059105Y0040263D01*
X0059283Y0040005D01*
X0059454Y0039741D01*
X0059619Y0039474D01*
X0059777Y0039203D01*
X0059928Y0038928D01*
X0060073Y0038649D01*
X0060211Y0038367D01*
X0060341Y0038081D01*
X0060465Y0037792D01*
X0060582Y0037501D01*
X0060691Y0037207D01*
X0060793Y0036910D01*
X0060888Y0036610D01*
X0060976Y0036309D01*
X0061056Y0036005D01*
X0061128Y0035699D01*
X0061193Y0035392D01*
X0061251Y0035083D01*
X0061301Y0034773D01*
X0061343Y0034462D01*
X0061377Y0034150D01*
X0061404Y0033837D01*
X0061424Y0033524D01*
X0061435Y0033210D01*
X0061439Y0032896D01*
X0061435Y0032582D01*
X0061424Y0032268D01*
X0061404Y0031955D01*
X0061377Y0031642D01*
X0061343Y0031330D01*
X0061301Y0031019D01*
X0061251Y0030709D01*
X0061193Y0030400D01*
X0061128Y0030093D01*
X0061056Y0029787D01*
X0060976Y0029483D01*
X0060888Y0029182D01*
X0060793Y0028882D01*
X0060691Y0028585D01*
X0060582Y0028291D01*
X0060465Y0028000D01*
X0060341Y0027711D01*
X0060211Y0027425D01*
X0060073Y0027143D01*
X0059928Y0026864D01*
X0059777Y0026589D01*
X0059619Y0026318D01*
X0059454Y0026051D01*
X0059283Y0025787D01*
X0059105Y0025529D01*
X0058921Y0025274D01*
X0058731Y0025024D01*
X0058535Y0024779D01*
X0058332Y0024539D01*
X0058124Y0024303D01*
X0057911Y0024073D01*
X0057691Y0023849D01*
X0057467Y0023629D01*
X0057237Y0023416D01*
X0057001Y0023208D01*
X0056761Y0023005D01*
X0056516Y0022809D01*
X0056266Y0022619D01*
X0056011Y0022435D01*
X0055753Y0022257D01*
X0055489Y0022086D01*
X0055222Y0021921D01*
X0054951Y0021763D01*
X0054676Y0021612D01*
X0054397Y0021467D01*
X0054115Y0021329D01*
X0053829Y0021199D01*
X0053540Y0021075D01*
X0053249Y0020958D01*
X0052955Y0020849D01*
X0052658Y0020747D01*
X0052358Y0020652D01*
X0052057Y0020564D01*
X0051753Y0020484D01*
X0051447Y0020412D01*
X0051140Y0020347D01*
X0050831Y0020289D01*
X0050521Y0020239D01*
X0050210Y0020197D01*
X0049898Y0020163D01*
X0049585Y0020136D01*
X0049272Y0020116D01*
X0048958Y0020105D01*
X0048644Y0020101D01*
X0048330Y0020105D01*
X0048016Y0020116D01*
X0047703Y0020136D01*
X0047390Y0020163D01*
X0047078Y0020197D01*
X0046767Y0020239D01*
X0046457Y0020289D01*
X0046148Y0020347D01*
X0045841Y0020412D01*
X0045535Y0020484D01*
X0045231Y0020564D01*
X0044930Y0020652D01*
X0044630Y0020747D01*
X0044333Y0020849D01*
X0044039Y0020958D01*
X0043748Y0021075D01*
X0043459Y0021199D01*
X0043173Y0021329D01*
X0042891Y0021467D01*
X0042612Y0021612D01*
X0042337Y0021763D01*
X0042066Y0021921D01*
X0041799Y0022086D01*
X0041535Y0022257D01*
X0041277Y0022435D01*
X0041022Y0022619D01*
X0040772Y0022809D01*
X0040527Y0023005D01*
X0040287Y0023208D01*
X0040051Y0023416D01*
X0039821Y0023629D01*
X0039597Y0023849D01*
X0039377Y0024073D01*
X0039164Y0024303D01*
X0038956Y0024539D01*
X0038753Y0024779D01*
X0038557Y0025024D01*
X0038367Y0025274D01*
X0038183Y0025529D01*
X0038005Y0025787D01*
X0037834Y0026051D01*
X0037669Y0026318D01*
X0037511Y0026589D01*
X0037360Y0026864D01*
X0037215Y0027143D01*
X0037077Y0027425D01*
X0036947Y0027711D01*
X0036823Y0028000D01*
X0036706Y0028291D01*
X0036597Y0028585D01*
X0036495Y0028882D01*
X0036400Y0029182D01*
X0036312Y0029483D01*
X0036232Y0029787D01*
X0036160Y0030093D01*
X0036095Y0030400D01*
X0036037Y0030709D01*
X0035987Y0031019D01*
X0035945Y0031330D01*
X0035911Y0031642D01*
X0035884Y0031955D01*
X0035864Y0032268D01*
X0035853Y0032582D01*
X0035849Y0032896D01*
X0181439Y0106026D02*
X0181439Y0111026D01*
X0183939Y0113526D01*
X0181439Y0116026D01*
X0181439Y0121026D01*
X0183939Y0123526D01*
X0188939Y0123526D01*
X0191439Y0121026D01*
X0191439Y0116026D01*
X0188939Y0113526D01*
X0191439Y0111026D01*
X0191439Y0106026D01*
X0188939Y0103526D01*
X0183939Y0103526D01*
X0181439Y0106026D01*
D14*
X0174628Y0044707D02*
X0174628Y0021085D01*
X0135258Y0021085D01*
X0135258Y0044707D01*
X0174628Y0044707D01*
X0125416Y0064392D02*
X0064392Y0064392D01*
X0064392Y0154943D01*
X0125416Y0154943D01*
X0125416Y0064392D01*
X0135258Y0158880D02*
X0064392Y0158880D01*
X0064392Y0265180D01*
X0135258Y0265180D01*
X0135258Y0158880D01*
X0135258Y0273054D02*
X0064392Y0273054D01*
X0064392Y0351794D01*
X0135258Y0351794D01*
X0135258Y0273054D01*
D15*
X0127384Y0013211D03*
D16*
X0114825Y0359668D03*
X0104825Y0359668D03*
M02*
