G75*
%MOIN*%
%OFA0B0*%
%FSLAX25Y25*%
%IPPOS*%
%LPD*%
%AMOC8*
5,1,8,0,0,1.08239X$1,22.5*
%
%ADD10C,0.00000*%
D10*
X0001400Y0001400D02*
X0001400Y0198250D01*
X0198250Y0198250D01*
X0198250Y0001400D01*
X0001400Y0001400D01*
X0007305Y0013211D02*
X0007307Y0013364D01*
X0007313Y0013518D01*
X0007323Y0013671D01*
X0007337Y0013823D01*
X0007355Y0013976D01*
X0007377Y0014127D01*
X0007402Y0014278D01*
X0007432Y0014429D01*
X0007466Y0014579D01*
X0007503Y0014727D01*
X0007544Y0014875D01*
X0007589Y0015021D01*
X0007638Y0015167D01*
X0007691Y0015311D01*
X0007747Y0015453D01*
X0007807Y0015594D01*
X0007871Y0015734D01*
X0007938Y0015872D01*
X0008009Y0016008D01*
X0008084Y0016142D01*
X0008161Y0016274D01*
X0008243Y0016404D01*
X0008327Y0016532D01*
X0008415Y0016658D01*
X0008506Y0016781D01*
X0008600Y0016902D01*
X0008698Y0017020D01*
X0008798Y0017136D01*
X0008902Y0017249D01*
X0009008Y0017360D01*
X0009117Y0017468D01*
X0009229Y0017573D01*
X0009343Y0017674D01*
X0009461Y0017773D01*
X0009580Y0017869D01*
X0009702Y0017962D01*
X0009827Y0018051D01*
X0009954Y0018138D01*
X0010083Y0018220D01*
X0010214Y0018300D01*
X0010347Y0018376D01*
X0010482Y0018449D01*
X0010619Y0018518D01*
X0010758Y0018583D01*
X0010898Y0018645D01*
X0011040Y0018703D01*
X0011183Y0018758D01*
X0011328Y0018809D01*
X0011474Y0018856D01*
X0011621Y0018899D01*
X0011769Y0018938D01*
X0011918Y0018974D01*
X0012068Y0019005D01*
X0012219Y0019033D01*
X0012370Y0019057D01*
X0012523Y0019077D01*
X0012675Y0019093D01*
X0012828Y0019105D01*
X0012981Y0019113D01*
X0013134Y0019117D01*
X0013288Y0019117D01*
X0013441Y0019113D01*
X0013594Y0019105D01*
X0013747Y0019093D01*
X0013899Y0019077D01*
X0014052Y0019057D01*
X0014203Y0019033D01*
X0014354Y0019005D01*
X0014504Y0018974D01*
X0014653Y0018938D01*
X0014801Y0018899D01*
X0014948Y0018856D01*
X0015094Y0018809D01*
X0015239Y0018758D01*
X0015382Y0018703D01*
X0015524Y0018645D01*
X0015664Y0018583D01*
X0015803Y0018518D01*
X0015940Y0018449D01*
X0016075Y0018376D01*
X0016208Y0018300D01*
X0016339Y0018220D01*
X0016468Y0018138D01*
X0016595Y0018051D01*
X0016720Y0017962D01*
X0016842Y0017869D01*
X0016961Y0017773D01*
X0017079Y0017674D01*
X0017193Y0017573D01*
X0017305Y0017468D01*
X0017414Y0017360D01*
X0017520Y0017249D01*
X0017624Y0017136D01*
X0017724Y0017020D01*
X0017822Y0016902D01*
X0017916Y0016781D01*
X0018007Y0016658D01*
X0018095Y0016532D01*
X0018179Y0016404D01*
X0018261Y0016274D01*
X0018338Y0016142D01*
X0018413Y0016008D01*
X0018484Y0015872D01*
X0018551Y0015734D01*
X0018615Y0015594D01*
X0018675Y0015453D01*
X0018731Y0015311D01*
X0018784Y0015167D01*
X0018833Y0015021D01*
X0018878Y0014875D01*
X0018919Y0014727D01*
X0018956Y0014579D01*
X0018990Y0014429D01*
X0019020Y0014278D01*
X0019045Y0014127D01*
X0019067Y0013976D01*
X0019085Y0013823D01*
X0019099Y0013671D01*
X0019109Y0013518D01*
X0019115Y0013364D01*
X0019117Y0013211D01*
X0019115Y0013058D01*
X0019109Y0012904D01*
X0019099Y0012751D01*
X0019085Y0012599D01*
X0019067Y0012446D01*
X0019045Y0012295D01*
X0019020Y0012144D01*
X0018990Y0011993D01*
X0018956Y0011843D01*
X0018919Y0011695D01*
X0018878Y0011547D01*
X0018833Y0011401D01*
X0018784Y0011255D01*
X0018731Y0011111D01*
X0018675Y0010969D01*
X0018615Y0010828D01*
X0018551Y0010688D01*
X0018484Y0010550D01*
X0018413Y0010414D01*
X0018338Y0010280D01*
X0018261Y0010148D01*
X0018179Y0010018D01*
X0018095Y0009890D01*
X0018007Y0009764D01*
X0017916Y0009641D01*
X0017822Y0009520D01*
X0017724Y0009402D01*
X0017624Y0009286D01*
X0017520Y0009173D01*
X0017414Y0009062D01*
X0017305Y0008954D01*
X0017193Y0008849D01*
X0017079Y0008748D01*
X0016961Y0008649D01*
X0016842Y0008553D01*
X0016720Y0008460D01*
X0016595Y0008371D01*
X0016468Y0008284D01*
X0016339Y0008202D01*
X0016208Y0008122D01*
X0016075Y0008046D01*
X0015940Y0007973D01*
X0015803Y0007904D01*
X0015664Y0007839D01*
X0015524Y0007777D01*
X0015382Y0007719D01*
X0015239Y0007664D01*
X0015094Y0007613D01*
X0014948Y0007566D01*
X0014801Y0007523D01*
X0014653Y0007484D01*
X0014504Y0007448D01*
X0014354Y0007417D01*
X0014203Y0007389D01*
X0014052Y0007365D01*
X0013899Y0007345D01*
X0013747Y0007329D01*
X0013594Y0007317D01*
X0013441Y0007309D01*
X0013288Y0007305D01*
X0013134Y0007305D01*
X0012981Y0007309D01*
X0012828Y0007317D01*
X0012675Y0007329D01*
X0012523Y0007345D01*
X0012370Y0007365D01*
X0012219Y0007389D01*
X0012068Y0007417D01*
X0011918Y0007448D01*
X0011769Y0007484D01*
X0011621Y0007523D01*
X0011474Y0007566D01*
X0011328Y0007613D01*
X0011183Y0007664D01*
X0011040Y0007719D01*
X0010898Y0007777D01*
X0010758Y0007839D01*
X0010619Y0007904D01*
X0010482Y0007973D01*
X0010347Y0008046D01*
X0010214Y0008122D01*
X0010083Y0008202D01*
X0009954Y0008284D01*
X0009827Y0008371D01*
X0009702Y0008460D01*
X0009580Y0008553D01*
X0009461Y0008649D01*
X0009343Y0008748D01*
X0009229Y0008849D01*
X0009117Y0008954D01*
X0009008Y0009062D01*
X0008902Y0009173D01*
X0008798Y0009286D01*
X0008698Y0009402D01*
X0008600Y0009520D01*
X0008506Y0009641D01*
X0008415Y0009764D01*
X0008327Y0009890D01*
X0008243Y0010018D01*
X0008161Y0010148D01*
X0008084Y0010280D01*
X0008009Y0010414D01*
X0007938Y0010550D01*
X0007871Y0010688D01*
X0007807Y0010828D01*
X0007747Y0010969D01*
X0007691Y0011111D01*
X0007638Y0011255D01*
X0007589Y0011401D01*
X0007544Y0011547D01*
X0007503Y0011695D01*
X0007466Y0011843D01*
X0007432Y0011993D01*
X0007402Y0012144D01*
X0007377Y0012295D01*
X0007355Y0012446D01*
X0007337Y0012599D01*
X0007323Y0012751D01*
X0007313Y0012904D01*
X0007307Y0013058D01*
X0007305Y0013211D01*
X0007305Y0186439D02*
X0007307Y0186592D01*
X0007313Y0186746D01*
X0007323Y0186899D01*
X0007337Y0187051D01*
X0007355Y0187204D01*
X0007377Y0187355D01*
X0007402Y0187506D01*
X0007432Y0187657D01*
X0007466Y0187807D01*
X0007503Y0187955D01*
X0007544Y0188103D01*
X0007589Y0188249D01*
X0007638Y0188395D01*
X0007691Y0188539D01*
X0007747Y0188681D01*
X0007807Y0188822D01*
X0007871Y0188962D01*
X0007938Y0189100D01*
X0008009Y0189236D01*
X0008084Y0189370D01*
X0008161Y0189502D01*
X0008243Y0189632D01*
X0008327Y0189760D01*
X0008415Y0189886D01*
X0008506Y0190009D01*
X0008600Y0190130D01*
X0008698Y0190248D01*
X0008798Y0190364D01*
X0008902Y0190477D01*
X0009008Y0190588D01*
X0009117Y0190696D01*
X0009229Y0190801D01*
X0009343Y0190902D01*
X0009461Y0191001D01*
X0009580Y0191097D01*
X0009702Y0191190D01*
X0009827Y0191279D01*
X0009954Y0191366D01*
X0010083Y0191448D01*
X0010214Y0191528D01*
X0010347Y0191604D01*
X0010482Y0191677D01*
X0010619Y0191746D01*
X0010758Y0191811D01*
X0010898Y0191873D01*
X0011040Y0191931D01*
X0011183Y0191986D01*
X0011328Y0192037D01*
X0011474Y0192084D01*
X0011621Y0192127D01*
X0011769Y0192166D01*
X0011918Y0192202D01*
X0012068Y0192233D01*
X0012219Y0192261D01*
X0012370Y0192285D01*
X0012523Y0192305D01*
X0012675Y0192321D01*
X0012828Y0192333D01*
X0012981Y0192341D01*
X0013134Y0192345D01*
X0013288Y0192345D01*
X0013441Y0192341D01*
X0013594Y0192333D01*
X0013747Y0192321D01*
X0013899Y0192305D01*
X0014052Y0192285D01*
X0014203Y0192261D01*
X0014354Y0192233D01*
X0014504Y0192202D01*
X0014653Y0192166D01*
X0014801Y0192127D01*
X0014948Y0192084D01*
X0015094Y0192037D01*
X0015239Y0191986D01*
X0015382Y0191931D01*
X0015524Y0191873D01*
X0015664Y0191811D01*
X0015803Y0191746D01*
X0015940Y0191677D01*
X0016075Y0191604D01*
X0016208Y0191528D01*
X0016339Y0191448D01*
X0016468Y0191366D01*
X0016595Y0191279D01*
X0016720Y0191190D01*
X0016842Y0191097D01*
X0016961Y0191001D01*
X0017079Y0190902D01*
X0017193Y0190801D01*
X0017305Y0190696D01*
X0017414Y0190588D01*
X0017520Y0190477D01*
X0017624Y0190364D01*
X0017724Y0190248D01*
X0017822Y0190130D01*
X0017916Y0190009D01*
X0018007Y0189886D01*
X0018095Y0189760D01*
X0018179Y0189632D01*
X0018261Y0189502D01*
X0018338Y0189370D01*
X0018413Y0189236D01*
X0018484Y0189100D01*
X0018551Y0188962D01*
X0018615Y0188822D01*
X0018675Y0188681D01*
X0018731Y0188539D01*
X0018784Y0188395D01*
X0018833Y0188249D01*
X0018878Y0188103D01*
X0018919Y0187955D01*
X0018956Y0187807D01*
X0018990Y0187657D01*
X0019020Y0187506D01*
X0019045Y0187355D01*
X0019067Y0187204D01*
X0019085Y0187051D01*
X0019099Y0186899D01*
X0019109Y0186746D01*
X0019115Y0186592D01*
X0019117Y0186439D01*
X0019115Y0186286D01*
X0019109Y0186132D01*
X0019099Y0185979D01*
X0019085Y0185827D01*
X0019067Y0185674D01*
X0019045Y0185523D01*
X0019020Y0185372D01*
X0018990Y0185221D01*
X0018956Y0185071D01*
X0018919Y0184923D01*
X0018878Y0184775D01*
X0018833Y0184629D01*
X0018784Y0184483D01*
X0018731Y0184339D01*
X0018675Y0184197D01*
X0018615Y0184056D01*
X0018551Y0183916D01*
X0018484Y0183778D01*
X0018413Y0183642D01*
X0018338Y0183508D01*
X0018261Y0183376D01*
X0018179Y0183246D01*
X0018095Y0183118D01*
X0018007Y0182992D01*
X0017916Y0182869D01*
X0017822Y0182748D01*
X0017724Y0182630D01*
X0017624Y0182514D01*
X0017520Y0182401D01*
X0017414Y0182290D01*
X0017305Y0182182D01*
X0017193Y0182077D01*
X0017079Y0181976D01*
X0016961Y0181877D01*
X0016842Y0181781D01*
X0016720Y0181688D01*
X0016595Y0181599D01*
X0016468Y0181512D01*
X0016339Y0181430D01*
X0016208Y0181350D01*
X0016075Y0181274D01*
X0015940Y0181201D01*
X0015803Y0181132D01*
X0015664Y0181067D01*
X0015524Y0181005D01*
X0015382Y0180947D01*
X0015239Y0180892D01*
X0015094Y0180841D01*
X0014948Y0180794D01*
X0014801Y0180751D01*
X0014653Y0180712D01*
X0014504Y0180676D01*
X0014354Y0180645D01*
X0014203Y0180617D01*
X0014052Y0180593D01*
X0013899Y0180573D01*
X0013747Y0180557D01*
X0013594Y0180545D01*
X0013441Y0180537D01*
X0013288Y0180533D01*
X0013134Y0180533D01*
X0012981Y0180537D01*
X0012828Y0180545D01*
X0012675Y0180557D01*
X0012523Y0180573D01*
X0012370Y0180593D01*
X0012219Y0180617D01*
X0012068Y0180645D01*
X0011918Y0180676D01*
X0011769Y0180712D01*
X0011621Y0180751D01*
X0011474Y0180794D01*
X0011328Y0180841D01*
X0011183Y0180892D01*
X0011040Y0180947D01*
X0010898Y0181005D01*
X0010758Y0181067D01*
X0010619Y0181132D01*
X0010482Y0181201D01*
X0010347Y0181274D01*
X0010214Y0181350D01*
X0010083Y0181430D01*
X0009954Y0181512D01*
X0009827Y0181599D01*
X0009702Y0181688D01*
X0009580Y0181781D01*
X0009461Y0181877D01*
X0009343Y0181976D01*
X0009229Y0182077D01*
X0009117Y0182182D01*
X0009008Y0182290D01*
X0008902Y0182401D01*
X0008798Y0182514D01*
X0008698Y0182630D01*
X0008600Y0182748D01*
X0008506Y0182869D01*
X0008415Y0182992D01*
X0008327Y0183118D01*
X0008243Y0183246D01*
X0008161Y0183376D01*
X0008084Y0183508D01*
X0008009Y0183642D01*
X0007938Y0183778D01*
X0007871Y0183916D01*
X0007807Y0184056D01*
X0007747Y0184197D01*
X0007691Y0184339D01*
X0007638Y0184483D01*
X0007589Y0184629D01*
X0007544Y0184775D01*
X0007503Y0184923D01*
X0007466Y0185071D01*
X0007432Y0185221D01*
X0007402Y0185372D01*
X0007377Y0185523D01*
X0007355Y0185674D01*
X0007337Y0185827D01*
X0007323Y0185979D01*
X0007313Y0186132D01*
X0007307Y0186286D01*
X0007305Y0186439D01*
X0180533Y0186439D02*
X0180535Y0186592D01*
X0180541Y0186746D01*
X0180551Y0186899D01*
X0180565Y0187051D01*
X0180583Y0187204D01*
X0180605Y0187355D01*
X0180630Y0187506D01*
X0180660Y0187657D01*
X0180694Y0187807D01*
X0180731Y0187955D01*
X0180772Y0188103D01*
X0180817Y0188249D01*
X0180866Y0188395D01*
X0180919Y0188539D01*
X0180975Y0188681D01*
X0181035Y0188822D01*
X0181099Y0188962D01*
X0181166Y0189100D01*
X0181237Y0189236D01*
X0181312Y0189370D01*
X0181389Y0189502D01*
X0181471Y0189632D01*
X0181555Y0189760D01*
X0181643Y0189886D01*
X0181734Y0190009D01*
X0181828Y0190130D01*
X0181926Y0190248D01*
X0182026Y0190364D01*
X0182130Y0190477D01*
X0182236Y0190588D01*
X0182345Y0190696D01*
X0182457Y0190801D01*
X0182571Y0190902D01*
X0182689Y0191001D01*
X0182808Y0191097D01*
X0182930Y0191190D01*
X0183055Y0191279D01*
X0183182Y0191366D01*
X0183311Y0191448D01*
X0183442Y0191528D01*
X0183575Y0191604D01*
X0183710Y0191677D01*
X0183847Y0191746D01*
X0183986Y0191811D01*
X0184126Y0191873D01*
X0184268Y0191931D01*
X0184411Y0191986D01*
X0184556Y0192037D01*
X0184702Y0192084D01*
X0184849Y0192127D01*
X0184997Y0192166D01*
X0185146Y0192202D01*
X0185296Y0192233D01*
X0185447Y0192261D01*
X0185598Y0192285D01*
X0185751Y0192305D01*
X0185903Y0192321D01*
X0186056Y0192333D01*
X0186209Y0192341D01*
X0186362Y0192345D01*
X0186516Y0192345D01*
X0186669Y0192341D01*
X0186822Y0192333D01*
X0186975Y0192321D01*
X0187127Y0192305D01*
X0187280Y0192285D01*
X0187431Y0192261D01*
X0187582Y0192233D01*
X0187732Y0192202D01*
X0187881Y0192166D01*
X0188029Y0192127D01*
X0188176Y0192084D01*
X0188322Y0192037D01*
X0188467Y0191986D01*
X0188610Y0191931D01*
X0188752Y0191873D01*
X0188892Y0191811D01*
X0189031Y0191746D01*
X0189168Y0191677D01*
X0189303Y0191604D01*
X0189436Y0191528D01*
X0189567Y0191448D01*
X0189696Y0191366D01*
X0189823Y0191279D01*
X0189948Y0191190D01*
X0190070Y0191097D01*
X0190189Y0191001D01*
X0190307Y0190902D01*
X0190421Y0190801D01*
X0190533Y0190696D01*
X0190642Y0190588D01*
X0190748Y0190477D01*
X0190852Y0190364D01*
X0190952Y0190248D01*
X0191050Y0190130D01*
X0191144Y0190009D01*
X0191235Y0189886D01*
X0191323Y0189760D01*
X0191407Y0189632D01*
X0191489Y0189502D01*
X0191566Y0189370D01*
X0191641Y0189236D01*
X0191712Y0189100D01*
X0191779Y0188962D01*
X0191843Y0188822D01*
X0191903Y0188681D01*
X0191959Y0188539D01*
X0192012Y0188395D01*
X0192061Y0188249D01*
X0192106Y0188103D01*
X0192147Y0187955D01*
X0192184Y0187807D01*
X0192218Y0187657D01*
X0192248Y0187506D01*
X0192273Y0187355D01*
X0192295Y0187204D01*
X0192313Y0187051D01*
X0192327Y0186899D01*
X0192337Y0186746D01*
X0192343Y0186592D01*
X0192345Y0186439D01*
X0192343Y0186286D01*
X0192337Y0186132D01*
X0192327Y0185979D01*
X0192313Y0185827D01*
X0192295Y0185674D01*
X0192273Y0185523D01*
X0192248Y0185372D01*
X0192218Y0185221D01*
X0192184Y0185071D01*
X0192147Y0184923D01*
X0192106Y0184775D01*
X0192061Y0184629D01*
X0192012Y0184483D01*
X0191959Y0184339D01*
X0191903Y0184197D01*
X0191843Y0184056D01*
X0191779Y0183916D01*
X0191712Y0183778D01*
X0191641Y0183642D01*
X0191566Y0183508D01*
X0191489Y0183376D01*
X0191407Y0183246D01*
X0191323Y0183118D01*
X0191235Y0182992D01*
X0191144Y0182869D01*
X0191050Y0182748D01*
X0190952Y0182630D01*
X0190852Y0182514D01*
X0190748Y0182401D01*
X0190642Y0182290D01*
X0190533Y0182182D01*
X0190421Y0182077D01*
X0190307Y0181976D01*
X0190189Y0181877D01*
X0190070Y0181781D01*
X0189948Y0181688D01*
X0189823Y0181599D01*
X0189696Y0181512D01*
X0189567Y0181430D01*
X0189436Y0181350D01*
X0189303Y0181274D01*
X0189168Y0181201D01*
X0189031Y0181132D01*
X0188892Y0181067D01*
X0188752Y0181005D01*
X0188610Y0180947D01*
X0188467Y0180892D01*
X0188322Y0180841D01*
X0188176Y0180794D01*
X0188029Y0180751D01*
X0187881Y0180712D01*
X0187732Y0180676D01*
X0187582Y0180645D01*
X0187431Y0180617D01*
X0187280Y0180593D01*
X0187127Y0180573D01*
X0186975Y0180557D01*
X0186822Y0180545D01*
X0186669Y0180537D01*
X0186516Y0180533D01*
X0186362Y0180533D01*
X0186209Y0180537D01*
X0186056Y0180545D01*
X0185903Y0180557D01*
X0185751Y0180573D01*
X0185598Y0180593D01*
X0185447Y0180617D01*
X0185296Y0180645D01*
X0185146Y0180676D01*
X0184997Y0180712D01*
X0184849Y0180751D01*
X0184702Y0180794D01*
X0184556Y0180841D01*
X0184411Y0180892D01*
X0184268Y0180947D01*
X0184126Y0181005D01*
X0183986Y0181067D01*
X0183847Y0181132D01*
X0183710Y0181201D01*
X0183575Y0181274D01*
X0183442Y0181350D01*
X0183311Y0181430D01*
X0183182Y0181512D01*
X0183055Y0181599D01*
X0182930Y0181688D01*
X0182808Y0181781D01*
X0182689Y0181877D01*
X0182571Y0181976D01*
X0182457Y0182077D01*
X0182345Y0182182D01*
X0182236Y0182290D01*
X0182130Y0182401D01*
X0182026Y0182514D01*
X0181926Y0182630D01*
X0181828Y0182748D01*
X0181734Y0182869D01*
X0181643Y0182992D01*
X0181555Y0183118D01*
X0181471Y0183246D01*
X0181389Y0183376D01*
X0181312Y0183508D01*
X0181237Y0183642D01*
X0181166Y0183778D01*
X0181099Y0183916D01*
X0181035Y0184056D01*
X0180975Y0184197D01*
X0180919Y0184339D01*
X0180866Y0184483D01*
X0180817Y0184629D01*
X0180772Y0184775D01*
X0180731Y0184923D01*
X0180694Y0185071D01*
X0180660Y0185221D01*
X0180630Y0185372D01*
X0180605Y0185523D01*
X0180583Y0185674D01*
X0180565Y0185827D01*
X0180551Y0185979D01*
X0180541Y0186132D01*
X0180535Y0186286D01*
X0180533Y0186439D01*
X0180533Y0013211D02*
X0180535Y0013364D01*
X0180541Y0013518D01*
X0180551Y0013671D01*
X0180565Y0013823D01*
X0180583Y0013976D01*
X0180605Y0014127D01*
X0180630Y0014278D01*
X0180660Y0014429D01*
X0180694Y0014579D01*
X0180731Y0014727D01*
X0180772Y0014875D01*
X0180817Y0015021D01*
X0180866Y0015167D01*
X0180919Y0015311D01*
X0180975Y0015453D01*
X0181035Y0015594D01*
X0181099Y0015734D01*
X0181166Y0015872D01*
X0181237Y0016008D01*
X0181312Y0016142D01*
X0181389Y0016274D01*
X0181471Y0016404D01*
X0181555Y0016532D01*
X0181643Y0016658D01*
X0181734Y0016781D01*
X0181828Y0016902D01*
X0181926Y0017020D01*
X0182026Y0017136D01*
X0182130Y0017249D01*
X0182236Y0017360D01*
X0182345Y0017468D01*
X0182457Y0017573D01*
X0182571Y0017674D01*
X0182689Y0017773D01*
X0182808Y0017869D01*
X0182930Y0017962D01*
X0183055Y0018051D01*
X0183182Y0018138D01*
X0183311Y0018220D01*
X0183442Y0018300D01*
X0183575Y0018376D01*
X0183710Y0018449D01*
X0183847Y0018518D01*
X0183986Y0018583D01*
X0184126Y0018645D01*
X0184268Y0018703D01*
X0184411Y0018758D01*
X0184556Y0018809D01*
X0184702Y0018856D01*
X0184849Y0018899D01*
X0184997Y0018938D01*
X0185146Y0018974D01*
X0185296Y0019005D01*
X0185447Y0019033D01*
X0185598Y0019057D01*
X0185751Y0019077D01*
X0185903Y0019093D01*
X0186056Y0019105D01*
X0186209Y0019113D01*
X0186362Y0019117D01*
X0186516Y0019117D01*
X0186669Y0019113D01*
X0186822Y0019105D01*
X0186975Y0019093D01*
X0187127Y0019077D01*
X0187280Y0019057D01*
X0187431Y0019033D01*
X0187582Y0019005D01*
X0187732Y0018974D01*
X0187881Y0018938D01*
X0188029Y0018899D01*
X0188176Y0018856D01*
X0188322Y0018809D01*
X0188467Y0018758D01*
X0188610Y0018703D01*
X0188752Y0018645D01*
X0188892Y0018583D01*
X0189031Y0018518D01*
X0189168Y0018449D01*
X0189303Y0018376D01*
X0189436Y0018300D01*
X0189567Y0018220D01*
X0189696Y0018138D01*
X0189823Y0018051D01*
X0189948Y0017962D01*
X0190070Y0017869D01*
X0190189Y0017773D01*
X0190307Y0017674D01*
X0190421Y0017573D01*
X0190533Y0017468D01*
X0190642Y0017360D01*
X0190748Y0017249D01*
X0190852Y0017136D01*
X0190952Y0017020D01*
X0191050Y0016902D01*
X0191144Y0016781D01*
X0191235Y0016658D01*
X0191323Y0016532D01*
X0191407Y0016404D01*
X0191489Y0016274D01*
X0191566Y0016142D01*
X0191641Y0016008D01*
X0191712Y0015872D01*
X0191779Y0015734D01*
X0191843Y0015594D01*
X0191903Y0015453D01*
X0191959Y0015311D01*
X0192012Y0015167D01*
X0192061Y0015021D01*
X0192106Y0014875D01*
X0192147Y0014727D01*
X0192184Y0014579D01*
X0192218Y0014429D01*
X0192248Y0014278D01*
X0192273Y0014127D01*
X0192295Y0013976D01*
X0192313Y0013823D01*
X0192327Y0013671D01*
X0192337Y0013518D01*
X0192343Y0013364D01*
X0192345Y0013211D01*
X0192343Y0013058D01*
X0192337Y0012904D01*
X0192327Y0012751D01*
X0192313Y0012599D01*
X0192295Y0012446D01*
X0192273Y0012295D01*
X0192248Y0012144D01*
X0192218Y0011993D01*
X0192184Y0011843D01*
X0192147Y0011695D01*
X0192106Y0011547D01*
X0192061Y0011401D01*
X0192012Y0011255D01*
X0191959Y0011111D01*
X0191903Y0010969D01*
X0191843Y0010828D01*
X0191779Y0010688D01*
X0191712Y0010550D01*
X0191641Y0010414D01*
X0191566Y0010280D01*
X0191489Y0010148D01*
X0191407Y0010018D01*
X0191323Y0009890D01*
X0191235Y0009764D01*
X0191144Y0009641D01*
X0191050Y0009520D01*
X0190952Y0009402D01*
X0190852Y0009286D01*
X0190748Y0009173D01*
X0190642Y0009062D01*
X0190533Y0008954D01*
X0190421Y0008849D01*
X0190307Y0008748D01*
X0190189Y0008649D01*
X0190070Y0008553D01*
X0189948Y0008460D01*
X0189823Y0008371D01*
X0189696Y0008284D01*
X0189567Y0008202D01*
X0189436Y0008122D01*
X0189303Y0008046D01*
X0189168Y0007973D01*
X0189031Y0007904D01*
X0188892Y0007839D01*
X0188752Y0007777D01*
X0188610Y0007719D01*
X0188467Y0007664D01*
X0188322Y0007613D01*
X0188176Y0007566D01*
X0188029Y0007523D01*
X0187881Y0007484D01*
X0187732Y0007448D01*
X0187582Y0007417D01*
X0187431Y0007389D01*
X0187280Y0007365D01*
X0187127Y0007345D01*
X0186975Y0007329D01*
X0186822Y0007317D01*
X0186669Y0007309D01*
X0186516Y0007305D01*
X0186362Y0007305D01*
X0186209Y0007309D01*
X0186056Y0007317D01*
X0185903Y0007329D01*
X0185751Y0007345D01*
X0185598Y0007365D01*
X0185447Y0007389D01*
X0185296Y0007417D01*
X0185146Y0007448D01*
X0184997Y0007484D01*
X0184849Y0007523D01*
X0184702Y0007566D01*
X0184556Y0007613D01*
X0184411Y0007664D01*
X0184268Y0007719D01*
X0184126Y0007777D01*
X0183986Y0007839D01*
X0183847Y0007904D01*
X0183710Y0007973D01*
X0183575Y0008046D01*
X0183442Y0008122D01*
X0183311Y0008202D01*
X0183182Y0008284D01*
X0183055Y0008371D01*
X0182930Y0008460D01*
X0182808Y0008553D01*
X0182689Y0008649D01*
X0182571Y0008748D01*
X0182457Y0008849D01*
X0182345Y0008954D01*
X0182236Y0009062D01*
X0182130Y0009173D01*
X0182026Y0009286D01*
X0181926Y0009402D01*
X0181828Y0009520D01*
X0181734Y0009641D01*
X0181643Y0009764D01*
X0181555Y0009890D01*
X0181471Y0010018D01*
X0181389Y0010148D01*
X0181312Y0010280D01*
X0181237Y0010414D01*
X0181166Y0010550D01*
X0181099Y0010688D01*
X0181035Y0010828D01*
X0180975Y0010969D01*
X0180919Y0011111D01*
X0180866Y0011255D01*
X0180817Y0011401D01*
X0180772Y0011547D01*
X0180731Y0011695D01*
X0180694Y0011843D01*
X0180660Y0011993D01*
X0180630Y0012144D01*
X0180605Y0012295D01*
X0180583Y0012446D01*
X0180565Y0012599D01*
X0180551Y0012751D01*
X0180541Y0012904D01*
X0180535Y0013058D01*
X0180533Y0013211D01*
M02*
