G75*
%MOIN*%
%OFA0B0*%
%FSLAX25Y25*%
%IPPOS*%
%LPD*%
%AMOC8*
5,1,8,0,0,1.08239X$1,22.5*
%
%ADD10C,0.00000*%
%ADD11C,0.00300*%
%ADD12C,0.01200*%
%ADD13C,0.00500*%
%ADD14C,0.00800*%
%ADD15C,0.00100*%
%ADD16C,0.00600*%
%ADD17R,0.03000X0.01800*%
D10*
X0001400Y0001400D02*
X0001400Y0198250D01*
X0198250Y0198250D01*
X0198250Y0001400D01*
X0001400Y0001400D01*
X0007305Y0013211D02*
X0007307Y0013364D01*
X0007313Y0013518D01*
X0007323Y0013671D01*
X0007337Y0013823D01*
X0007355Y0013976D01*
X0007377Y0014127D01*
X0007402Y0014278D01*
X0007432Y0014429D01*
X0007466Y0014579D01*
X0007503Y0014727D01*
X0007544Y0014875D01*
X0007589Y0015021D01*
X0007638Y0015167D01*
X0007691Y0015311D01*
X0007747Y0015453D01*
X0007807Y0015594D01*
X0007871Y0015734D01*
X0007938Y0015872D01*
X0008009Y0016008D01*
X0008084Y0016142D01*
X0008161Y0016274D01*
X0008243Y0016404D01*
X0008327Y0016532D01*
X0008415Y0016658D01*
X0008506Y0016781D01*
X0008600Y0016902D01*
X0008698Y0017020D01*
X0008798Y0017136D01*
X0008902Y0017249D01*
X0009008Y0017360D01*
X0009117Y0017468D01*
X0009229Y0017573D01*
X0009343Y0017674D01*
X0009461Y0017773D01*
X0009580Y0017869D01*
X0009702Y0017962D01*
X0009827Y0018051D01*
X0009954Y0018138D01*
X0010083Y0018220D01*
X0010214Y0018300D01*
X0010347Y0018376D01*
X0010482Y0018449D01*
X0010619Y0018518D01*
X0010758Y0018583D01*
X0010898Y0018645D01*
X0011040Y0018703D01*
X0011183Y0018758D01*
X0011328Y0018809D01*
X0011474Y0018856D01*
X0011621Y0018899D01*
X0011769Y0018938D01*
X0011918Y0018974D01*
X0012068Y0019005D01*
X0012219Y0019033D01*
X0012370Y0019057D01*
X0012523Y0019077D01*
X0012675Y0019093D01*
X0012828Y0019105D01*
X0012981Y0019113D01*
X0013134Y0019117D01*
X0013288Y0019117D01*
X0013441Y0019113D01*
X0013594Y0019105D01*
X0013747Y0019093D01*
X0013899Y0019077D01*
X0014052Y0019057D01*
X0014203Y0019033D01*
X0014354Y0019005D01*
X0014504Y0018974D01*
X0014653Y0018938D01*
X0014801Y0018899D01*
X0014948Y0018856D01*
X0015094Y0018809D01*
X0015239Y0018758D01*
X0015382Y0018703D01*
X0015524Y0018645D01*
X0015664Y0018583D01*
X0015803Y0018518D01*
X0015940Y0018449D01*
X0016075Y0018376D01*
X0016208Y0018300D01*
X0016339Y0018220D01*
X0016468Y0018138D01*
X0016595Y0018051D01*
X0016720Y0017962D01*
X0016842Y0017869D01*
X0016961Y0017773D01*
X0017079Y0017674D01*
X0017193Y0017573D01*
X0017305Y0017468D01*
X0017414Y0017360D01*
X0017520Y0017249D01*
X0017624Y0017136D01*
X0017724Y0017020D01*
X0017822Y0016902D01*
X0017916Y0016781D01*
X0018007Y0016658D01*
X0018095Y0016532D01*
X0018179Y0016404D01*
X0018261Y0016274D01*
X0018338Y0016142D01*
X0018413Y0016008D01*
X0018484Y0015872D01*
X0018551Y0015734D01*
X0018615Y0015594D01*
X0018675Y0015453D01*
X0018731Y0015311D01*
X0018784Y0015167D01*
X0018833Y0015021D01*
X0018878Y0014875D01*
X0018919Y0014727D01*
X0018956Y0014579D01*
X0018990Y0014429D01*
X0019020Y0014278D01*
X0019045Y0014127D01*
X0019067Y0013976D01*
X0019085Y0013823D01*
X0019099Y0013671D01*
X0019109Y0013518D01*
X0019115Y0013364D01*
X0019117Y0013211D01*
X0019115Y0013058D01*
X0019109Y0012904D01*
X0019099Y0012751D01*
X0019085Y0012599D01*
X0019067Y0012446D01*
X0019045Y0012295D01*
X0019020Y0012144D01*
X0018990Y0011993D01*
X0018956Y0011843D01*
X0018919Y0011695D01*
X0018878Y0011547D01*
X0018833Y0011401D01*
X0018784Y0011255D01*
X0018731Y0011111D01*
X0018675Y0010969D01*
X0018615Y0010828D01*
X0018551Y0010688D01*
X0018484Y0010550D01*
X0018413Y0010414D01*
X0018338Y0010280D01*
X0018261Y0010148D01*
X0018179Y0010018D01*
X0018095Y0009890D01*
X0018007Y0009764D01*
X0017916Y0009641D01*
X0017822Y0009520D01*
X0017724Y0009402D01*
X0017624Y0009286D01*
X0017520Y0009173D01*
X0017414Y0009062D01*
X0017305Y0008954D01*
X0017193Y0008849D01*
X0017079Y0008748D01*
X0016961Y0008649D01*
X0016842Y0008553D01*
X0016720Y0008460D01*
X0016595Y0008371D01*
X0016468Y0008284D01*
X0016339Y0008202D01*
X0016208Y0008122D01*
X0016075Y0008046D01*
X0015940Y0007973D01*
X0015803Y0007904D01*
X0015664Y0007839D01*
X0015524Y0007777D01*
X0015382Y0007719D01*
X0015239Y0007664D01*
X0015094Y0007613D01*
X0014948Y0007566D01*
X0014801Y0007523D01*
X0014653Y0007484D01*
X0014504Y0007448D01*
X0014354Y0007417D01*
X0014203Y0007389D01*
X0014052Y0007365D01*
X0013899Y0007345D01*
X0013747Y0007329D01*
X0013594Y0007317D01*
X0013441Y0007309D01*
X0013288Y0007305D01*
X0013134Y0007305D01*
X0012981Y0007309D01*
X0012828Y0007317D01*
X0012675Y0007329D01*
X0012523Y0007345D01*
X0012370Y0007365D01*
X0012219Y0007389D01*
X0012068Y0007417D01*
X0011918Y0007448D01*
X0011769Y0007484D01*
X0011621Y0007523D01*
X0011474Y0007566D01*
X0011328Y0007613D01*
X0011183Y0007664D01*
X0011040Y0007719D01*
X0010898Y0007777D01*
X0010758Y0007839D01*
X0010619Y0007904D01*
X0010482Y0007973D01*
X0010347Y0008046D01*
X0010214Y0008122D01*
X0010083Y0008202D01*
X0009954Y0008284D01*
X0009827Y0008371D01*
X0009702Y0008460D01*
X0009580Y0008553D01*
X0009461Y0008649D01*
X0009343Y0008748D01*
X0009229Y0008849D01*
X0009117Y0008954D01*
X0009008Y0009062D01*
X0008902Y0009173D01*
X0008798Y0009286D01*
X0008698Y0009402D01*
X0008600Y0009520D01*
X0008506Y0009641D01*
X0008415Y0009764D01*
X0008327Y0009890D01*
X0008243Y0010018D01*
X0008161Y0010148D01*
X0008084Y0010280D01*
X0008009Y0010414D01*
X0007938Y0010550D01*
X0007871Y0010688D01*
X0007807Y0010828D01*
X0007747Y0010969D01*
X0007691Y0011111D01*
X0007638Y0011255D01*
X0007589Y0011401D01*
X0007544Y0011547D01*
X0007503Y0011695D01*
X0007466Y0011843D01*
X0007432Y0011993D01*
X0007402Y0012144D01*
X0007377Y0012295D01*
X0007355Y0012446D01*
X0007337Y0012599D01*
X0007323Y0012751D01*
X0007313Y0012904D01*
X0007307Y0013058D01*
X0007305Y0013211D01*
X0007305Y0186439D02*
X0007307Y0186592D01*
X0007313Y0186746D01*
X0007323Y0186899D01*
X0007337Y0187051D01*
X0007355Y0187204D01*
X0007377Y0187355D01*
X0007402Y0187506D01*
X0007432Y0187657D01*
X0007466Y0187807D01*
X0007503Y0187955D01*
X0007544Y0188103D01*
X0007589Y0188249D01*
X0007638Y0188395D01*
X0007691Y0188539D01*
X0007747Y0188681D01*
X0007807Y0188822D01*
X0007871Y0188962D01*
X0007938Y0189100D01*
X0008009Y0189236D01*
X0008084Y0189370D01*
X0008161Y0189502D01*
X0008243Y0189632D01*
X0008327Y0189760D01*
X0008415Y0189886D01*
X0008506Y0190009D01*
X0008600Y0190130D01*
X0008698Y0190248D01*
X0008798Y0190364D01*
X0008902Y0190477D01*
X0009008Y0190588D01*
X0009117Y0190696D01*
X0009229Y0190801D01*
X0009343Y0190902D01*
X0009461Y0191001D01*
X0009580Y0191097D01*
X0009702Y0191190D01*
X0009827Y0191279D01*
X0009954Y0191366D01*
X0010083Y0191448D01*
X0010214Y0191528D01*
X0010347Y0191604D01*
X0010482Y0191677D01*
X0010619Y0191746D01*
X0010758Y0191811D01*
X0010898Y0191873D01*
X0011040Y0191931D01*
X0011183Y0191986D01*
X0011328Y0192037D01*
X0011474Y0192084D01*
X0011621Y0192127D01*
X0011769Y0192166D01*
X0011918Y0192202D01*
X0012068Y0192233D01*
X0012219Y0192261D01*
X0012370Y0192285D01*
X0012523Y0192305D01*
X0012675Y0192321D01*
X0012828Y0192333D01*
X0012981Y0192341D01*
X0013134Y0192345D01*
X0013288Y0192345D01*
X0013441Y0192341D01*
X0013594Y0192333D01*
X0013747Y0192321D01*
X0013899Y0192305D01*
X0014052Y0192285D01*
X0014203Y0192261D01*
X0014354Y0192233D01*
X0014504Y0192202D01*
X0014653Y0192166D01*
X0014801Y0192127D01*
X0014948Y0192084D01*
X0015094Y0192037D01*
X0015239Y0191986D01*
X0015382Y0191931D01*
X0015524Y0191873D01*
X0015664Y0191811D01*
X0015803Y0191746D01*
X0015940Y0191677D01*
X0016075Y0191604D01*
X0016208Y0191528D01*
X0016339Y0191448D01*
X0016468Y0191366D01*
X0016595Y0191279D01*
X0016720Y0191190D01*
X0016842Y0191097D01*
X0016961Y0191001D01*
X0017079Y0190902D01*
X0017193Y0190801D01*
X0017305Y0190696D01*
X0017414Y0190588D01*
X0017520Y0190477D01*
X0017624Y0190364D01*
X0017724Y0190248D01*
X0017822Y0190130D01*
X0017916Y0190009D01*
X0018007Y0189886D01*
X0018095Y0189760D01*
X0018179Y0189632D01*
X0018261Y0189502D01*
X0018338Y0189370D01*
X0018413Y0189236D01*
X0018484Y0189100D01*
X0018551Y0188962D01*
X0018615Y0188822D01*
X0018675Y0188681D01*
X0018731Y0188539D01*
X0018784Y0188395D01*
X0018833Y0188249D01*
X0018878Y0188103D01*
X0018919Y0187955D01*
X0018956Y0187807D01*
X0018990Y0187657D01*
X0019020Y0187506D01*
X0019045Y0187355D01*
X0019067Y0187204D01*
X0019085Y0187051D01*
X0019099Y0186899D01*
X0019109Y0186746D01*
X0019115Y0186592D01*
X0019117Y0186439D01*
X0019115Y0186286D01*
X0019109Y0186132D01*
X0019099Y0185979D01*
X0019085Y0185827D01*
X0019067Y0185674D01*
X0019045Y0185523D01*
X0019020Y0185372D01*
X0018990Y0185221D01*
X0018956Y0185071D01*
X0018919Y0184923D01*
X0018878Y0184775D01*
X0018833Y0184629D01*
X0018784Y0184483D01*
X0018731Y0184339D01*
X0018675Y0184197D01*
X0018615Y0184056D01*
X0018551Y0183916D01*
X0018484Y0183778D01*
X0018413Y0183642D01*
X0018338Y0183508D01*
X0018261Y0183376D01*
X0018179Y0183246D01*
X0018095Y0183118D01*
X0018007Y0182992D01*
X0017916Y0182869D01*
X0017822Y0182748D01*
X0017724Y0182630D01*
X0017624Y0182514D01*
X0017520Y0182401D01*
X0017414Y0182290D01*
X0017305Y0182182D01*
X0017193Y0182077D01*
X0017079Y0181976D01*
X0016961Y0181877D01*
X0016842Y0181781D01*
X0016720Y0181688D01*
X0016595Y0181599D01*
X0016468Y0181512D01*
X0016339Y0181430D01*
X0016208Y0181350D01*
X0016075Y0181274D01*
X0015940Y0181201D01*
X0015803Y0181132D01*
X0015664Y0181067D01*
X0015524Y0181005D01*
X0015382Y0180947D01*
X0015239Y0180892D01*
X0015094Y0180841D01*
X0014948Y0180794D01*
X0014801Y0180751D01*
X0014653Y0180712D01*
X0014504Y0180676D01*
X0014354Y0180645D01*
X0014203Y0180617D01*
X0014052Y0180593D01*
X0013899Y0180573D01*
X0013747Y0180557D01*
X0013594Y0180545D01*
X0013441Y0180537D01*
X0013288Y0180533D01*
X0013134Y0180533D01*
X0012981Y0180537D01*
X0012828Y0180545D01*
X0012675Y0180557D01*
X0012523Y0180573D01*
X0012370Y0180593D01*
X0012219Y0180617D01*
X0012068Y0180645D01*
X0011918Y0180676D01*
X0011769Y0180712D01*
X0011621Y0180751D01*
X0011474Y0180794D01*
X0011328Y0180841D01*
X0011183Y0180892D01*
X0011040Y0180947D01*
X0010898Y0181005D01*
X0010758Y0181067D01*
X0010619Y0181132D01*
X0010482Y0181201D01*
X0010347Y0181274D01*
X0010214Y0181350D01*
X0010083Y0181430D01*
X0009954Y0181512D01*
X0009827Y0181599D01*
X0009702Y0181688D01*
X0009580Y0181781D01*
X0009461Y0181877D01*
X0009343Y0181976D01*
X0009229Y0182077D01*
X0009117Y0182182D01*
X0009008Y0182290D01*
X0008902Y0182401D01*
X0008798Y0182514D01*
X0008698Y0182630D01*
X0008600Y0182748D01*
X0008506Y0182869D01*
X0008415Y0182992D01*
X0008327Y0183118D01*
X0008243Y0183246D01*
X0008161Y0183376D01*
X0008084Y0183508D01*
X0008009Y0183642D01*
X0007938Y0183778D01*
X0007871Y0183916D01*
X0007807Y0184056D01*
X0007747Y0184197D01*
X0007691Y0184339D01*
X0007638Y0184483D01*
X0007589Y0184629D01*
X0007544Y0184775D01*
X0007503Y0184923D01*
X0007466Y0185071D01*
X0007432Y0185221D01*
X0007402Y0185372D01*
X0007377Y0185523D01*
X0007355Y0185674D01*
X0007337Y0185827D01*
X0007323Y0185979D01*
X0007313Y0186132D01*
X0007307Y0186286D01*
X0007305Y0186439D01*
X0180533Y0186439D02*
X0180535Y0186592D01*
X0180541Y0186746D01*
X0180551Y0186899D01*
X0180565Y0187051D01*
X0180583Y0187204D01*
X0180605Y0187355D01*
X0180630Y0187506D01*
X0180660Y0187657D01*
X0180694Y0187807D01*
X0180731Y0187955D01*
X0180772Y0188103D01*
X0180817Y0188249D01*
X0180866Y0188395D01*
X0180919Y0188539D01*
X0180975Y0188681D01*
X0181035Y0188822D01*
X0181099Y0188962D01*
X0181166Y0189100D01*
X0181237Y0189236D01*
X0181312Y0189370D01*
X0181389Y0189502D01*
X0181471Y0189632D01*
X0181555Y0189760D01*
X0181643Y0189886D01*
X0181734Y0190009D01*
X0181828Y0190130D01*
X0181926Y0190248D01*
X0182026Y0190364D01*
X0182130Y0190477D01*
X0182236Y0190588D01*
X0182345Y0190696D01*
X0182457Y0190801D01*
X0182571Y0190902D01*
X0182689Y0191001D01*
X0182808Y0191097D01*
X0182930Y0191190D01*
X0183055Y0191279D01*
X0183182Y0191366D01*
X0183311Y0191448D01*
X0183442Y0191528D01*
X0183575Y0191604D01*
X0183710Y0191677D01*
X0183847Y0191746D01*
X0183986Y0191811D01*
X0184126Y0191873D01*
X0184268Y0191931D01*
X0184411Y0191986D01*
X0184556Y0192037D01*
X0184702Y0192084D01*
X0184849Y0192127D01*
X0184997Y0192166D01*
X0185146Y0192202D01*
X0185296Y0192233D01*
X0185447Y0192261D01*
X0185598Y0192285D01*
X0185751Y0192305D01*
X0185903Y0192321D01*
X0186056Y0192333D01*
X0186209Y0192341D01*
X0186362Y0192345D01*
X0186516Y0192345D01*
X0186669Y0192341D01*
X0186822Y0192333D01*
X0186975Y0192321D01*
X0187127Y0192305D01*
X0187280Y0192285D01*
X0187431Y0192261D01*
X0187582Y0192233D01*
X0187732Y0192202D01*
X0187881Y0192166D01*
X0188029Y0192127D01*
X0188176Y0192084D01*
X0188322Y0192037D01*
X0188467Y0191986D01*
X0188610Y0191931D01*
X0188752Y0191873D01*
X0188892Y0191811D01*
X0189031Y0191746D01*
X0189168Y0191677D01*
X0189303Y0191604D01*
X0189436Y0191528D01*
X0189567Y0191448D01*
X0189696Y0191366D01*
X0189823Y0191279D01*
X0189948Y0191190D01*
X0190070Y0191097D01*
X0190189Y0191001D01*
X0190307Y0190902D01*
X0190421Y0190801D01*
X0190533Y0190696D01*
X0190642Y0190588D01*
X0190748Y0190477D01*
X0190852Y0190364D01*
X0190952Y0190248D01*
X0191050Y0190130D01*
X0191144Y0190009D01*
X0191235Y0189886D01*
X0191323Y0189760D01*
X0191407Y0189632D01*
X0191489Y0189502D01*
X0191566Y0189370D01*
X0191641Y0189236D01*
X0191712Y0189100D01*
X0191779Y0188962D01*
X0191843Y0188822D01*
X0191903Y0188681D01*
X0191959Y0188539D01*
X0192012Y0188395D01*
X0192061Y0188249D01*
X0192106Y0188103D01*
X0192147Y0187955D01*
X0192184Y0187807D01*
X0192218Y0187657D01*
X0192248Y0187506D01*
X0192273Y0187355D01*
X0192295Y0187204D01*
X0192313Y0187051D01*
X0192327Y0186899D01*
X0192337Y0186746D01*
X0192343Y0186592D01*
X0192345Y0186439D01*
X0192343Y0186286D01*
X0192337Y0186132D01*
X0192327Y0185979D01*
X0192313Y0185827D01*
X0192295Y0185674D01*
X0192273Y0185523D01*
X0192248Y0185372D01*
X0192218Y0185221D01*
X0192184Y0185071D01*
X0192147Y0184923D01*
X0192106Y0184775D01*
X0192061Y0184629D01*
X0192012Y0184483D01*
X0191959Y0184339D01*
X0191903Y0184197D01*
X0191843Y0184056D01*
X0191779Y0183916D01*
X0191712Y0183778D01*
X0191641Y0183642D01*
X0191566Y0183508D01*
X0191489Y0183376D01*
X0191407Y0183246D01*
X0191323Y0183118D01*
X0191235Y0182992D01*
X0191144Y0182869D01*
X0191050Y0182748D01*
X0190952Y0182630D01*
X0190852Y0182514D01*
X0190748Y0182401D01*
X0190642Y0182290D01*
X0190533Y0182182D01*
X0190421Y0182077D01*
X0190307Y0181976D01*
X0190189Y0181877D01*
X0190070Y0181781D01*
X0189948Y0181688D01*
X0189823Y0181599D01*
X0189696Y0181512D01*
X0189567Y0181430D01*
X0189436Y0181350D01*
X0189303Y0181274D01*
X0189168Y0181201D01*
X0189031Y0181132D01*
X0188892Y0181067D01*
X0188752Y0181005D01*
X0188610Y0180947D01*
X0188467Y0180892D01*
X0188322Y0180841D01*
X0188176Y0180794D01*
X0188029Y0180751D01*
X0187881Y0180712D01*
X0187732Y0180676D01*
X0187582Y0180645D01*
X0187431Y0180617D01*
X0187280Y0180593D01*
X0187127Y0180573D01*
X0186975Y0180557D01*
X0186822Y0180545D01*
X0186669Y0180537D01*
X0186516Y0180533D01*
X0186362Y0180533D01*
X0186209Y0180537D01*
X0186056Y0180545D01*
X0185903Y0180557D01*
X0185751Y0180573D01*
X0185598Y0180593D01*
X0185447Y0180617D01*
X0185296Y0180645D01*
X0185146Y0180676D01*
X0184997Y0180712D01*
X0184849Y0180751D01*
X0184702Y0180794D01*
X0184556Y0180841D01*
X0184411Y0180892D01*
X0184268Y0180947D01*
X0184126Y0181005D01*
X0183986Y0181067D01*
X0183847Y0181132D01*
X0183710Y0181201D01*
X0183575Y0181274D01*
X0183442Y0181350D01*
X0183311Y0181430D01*
X0183182Y0181512D01*
X0183055Y0181599D01*
X0182930Y0181688D01*
X0182808Y0181781D01*
X0182689Y0181877D01*
X0182571Y0181976D01*
X0182457Y0182077D01*
X0182345Y0182182D01*
X0182236Y0182290D01*
X0182130Y0182401D01*
X0182026Y0182514D01*
X0181926Y0182630D01*
X0181828Y0182748D01*
X0181734Y0182869D01*
X0181643Y0182992D01*
X0181555Y0183118D01*
X0181471Y0183246D01*
X0181389Y0183376D01*
X0181312Y0183508D01*
X0181237Y0183642D01*
X0181166Y0183778D01*
X0181099Y0183916D01*
X0181035Y0184056D01*
X0180975Y0184197D01*
X0180919Y0184339D01*
X0180866Y0184483D01*
X0180817Y0184629D01*
X0180772Y0184775D01*
X0180731Y0184923D01*
X0180694Y0185071D01*
X0180660Y0185221D01*
X0180630Y0185372D01*
X0180605Y0185523D01*
X0180583Y0185674D01*
X0180565Y0185827D01*
X0180551Y0185979D01*
X0180541Y0186132D01*
X0180535Y0186286D01*
X0180533Y0186439D01*
X0180533Y0013211D02*
X0180535Y0013364D01*
X0180541Y0013518D01*
X0180551Y0013671D01*
X0180565Y0013823D01*
X0180583Y0013976D01*
X0180605Y0014127D01*
X0180630Y0014278D01*
X0180660Y0014429D01*
X0180694Y0014579D01*
X0180731Y0014727D01*
X0180772Y0014875D01*
X0180817Y0015021D01*
X0180866Y0015167D01*
X0180919Y0015311D01*
X0180975Y0015453D01*
X0181035Y0015594D01*
X0181099Y0015734D01*
X0181166Y0015872D01*
X0181237Y0016008D01*
X0181312Y0016142D01*
X0181389Y0016274D01*
X0181471Y0016404D01*
X0181555Y0016532D01*
X0181643Y0016658D01*
X0181734Y0016781D01*
X0181828Y0016902D01*
X0181926Y0017020D01*
X0182026Y0017136D01*
X0182130Y0017249D01*
X0182236Y0017360D01*
X0182345Y0017468D01*
X0182457Y0017573D01*
X0182571Y0017674D01*
X0182689Y0017773D01*
X0182808Y0017869D01*
X0182930Y0017962D01*
X0183055Y0018051D01*
X0183182Y0018138D01*
X0183311Y0018220D01*
X0183442Y0018300D01*
X0183575Y0018376D01*
X0183710Y0018449D01*
X0183847Y0018518D01*
X0183986Y0018583D01*
X0184126Y0018645D01*
X0184268Y0018703D01*
X0184411Y0018758D01*
X0184556Y0018809D01*
X0184702Y0018856D01*
X0184849Y0018899D01*
X0184997Y0018938D01*
X0185146Y0018974D01*
X0185296Y0019005D01*
X0185447Y0019033D01*
X0185598Y0019057D01*
X0185751Y0019077D01*
X0185903Y0019093D01*
X0186056Y0019105D01*
X0186209Y0019113D01*
X0186362Y0019117D01*
X0186516Y0019117D01*
X0186669Y0019113D01*
X0186822Y0019105D01*
X0186975Y0019093D01*
X0187127Y0019077D01*
X0187280Y0019057D01*
X0187431Y0019033D01*
X0187582Y0019005D01*
X0187732Y0018974D01*
X0187881Y0018938D01*
X0188029Y0018899D01*
X0188176Y0018856D01*
X0188322Y0018809D01*
X0188467Y0018758D01*
X0188610Y0018703D01*
X0188752Y0018645D01*
X0188892Y0018583D01*
X0189031Y0018518D01*
X0189168Y0018449D01*
X0189303Y0018376D01*
X0189436Y0018300D01*
X0189567Y0018220D01*
X0189696Y0018138D01*
X0189823Y0018051D01*
X0189948Y0017962D01*
X0190070Y0017869D01*
X0190189Y0017773D01*
X0190307Y0017674D01*
X0190421Y0017573D01*
X0190533Y0017468D01*
X0190642Y0017360D01*
X0190748Y0017249D01*
X0190852Y0017136D01*
X0190952Y0017020D01*
X0191050Y0016902D01*
X0191144Y0016781D01*
X0191235Y0016658D01*
X0191323Y0016532D01*
X0191407Y0016404D01*
X0191489Y0016274D01*
X0191566Y0016142D01*
X0191641Y0016008D01*
X0191712Y0015872D01*
X0191779Y0015734D01*
X0191843Y0015594D01*
X0191903Y0015453D01*
X0191959Y0015311D01*
X0192012Y0015167D01*
X0192061Y0015021D01*
X0192106Y0014875D01*
X0192147Y0014727D01*
X0192184Y0014579D01*
X0192218Y0014429D01*
X0192248Y0014278D01*
X0192273Y0014127D01*
X0192295Y0013976D01*
X0192313Y0013823D01*
X0192327Y0013671D01*
X0192337Y0013518D01*
X0192343Y0013364D01*
X0192345Y0013211D01*
X0192343Y0013058D01*
X0192337Y0012904D01*
X0192327Y0012751D01*
X0192313Y0012599D01*
X0192295Y0012446D01*
X0192273Y0012295D01*
X0192248Y0012144D01*
X0192218Y0011993D01*
X0192184Y0011843D01*
X0192147Y0011695D01*
X0192106Y0011547D01*
X0192061Y0011401D01*
X0192012Y0011255D01*
X0191959Y0011111D01*
X0191903Y0010969D01*
X0191843Y0010828D01*
X0191779Y0010688D01*
X0191712Y0010550D01*
X0191641Y0010414D01*
X0191566Y0010280D01*
X0191489Y0010148D01*
X0191407Y0010018D01*
X0191323Y0009890D01*
X0191235Y0009764D01*
X0191144Y0009641D01*
X0191050Y0009520D01*
X0190952Y0009402D01*
X0190852Y0009286D01*
X0190748Y0009173D01*
X0190642Y0009062D01*
X0190533Y0008954D01*
X0190421Y0008849D01*
X0190307Y0008748D01*
X0190189Y0008649D01*
X0190070Y0008553D01*
X0189948Y0008460D01*
X0189823Y0008371D01*
X0189696Y0008284D01*
X0189567Y0008202D01*
X0189436Y0008122D01*
X0189303Y0008046D01*
X0189168Y0007973D01*
X0189031Y0007904D01*
X0188892Y0007839D01*
X0188752Y0007777D01*
X0188610Y0007719D01*
X0188467Y0007664D01*
X0188322Y0007613D01*
X0188176Y0007566D01*
X0188029Y0007523D01*
X0187881Y0007484D01*
X0187732Y0007448D01*
X0187582Y0007417D01*
X0187431Y0007389D01*
X0187280Y0007365D01*
X0187127Y0007345D01*
X0186975Y0007329D01*
X0186822Y0007317D01*
X0186669Y0007309D01*
X0186516Y0007305D01*
X0186362Y0007305D01*
X0186209Y0007309D01*
X0186056Y0007317D01*
X0185903Y0007329D01*
X0185751Y0007345D01*
X0185598Y0007365D01*
X0185447Y0007389D01*
X0185296Y0007417D01*
X0185146Y0007448D01*
X0184997Y0007484D01*
X0184849Y0007523D01*
X0184702Y0007566D01*
X0184556Y0007613D01*
X0184411Y0007664D01*
X0184268Y0007719D01*
X0184126Y0007777D01*
X0183986Y0007839D01*
X0183847Y0007904D01*
X0183710Y0007973D01*
X0183575Y0008046D01*
X0183442Y0008122D01*
X0183311Y0008202D01*
X0183182Y0008284D01*
X0183055Y0008371D01*
X0182930Y0008460D01*
X0182808Y0008553D01*
X0182689Y0008649D01*
X0182571Y0008748D01*
X0182457Y0008849D01*
X0182345Y0008954D01*
X0182236Y0009062D01*
X0182130Y0009173D01*
X0182026Y0009286D01*
X0181926Y0009402D01*
X0181828Y0009520D01*
X0181734Y0009641D01*
X0181643Y0009764D01*
X0181555Y0009890D01*
X0181471Y0010018D01*
X0181389Y0010148D01*
X0181312Y0010280D01*
X0181237Y0010414D01*
X0181166Y0010550D01*
X0181099Y0010688D01*
X0181035Y0010828D01*
X0180975Y0010969D01*
X0180919Y0011111D01*
X0180866Y0011255D01*
X0180817Y0011401D01*
X0180772Y0011547D01*
X0180731Y0011695D01*
X0180694Y0011843D01*
X0180660Y0011993D01*
X0180630Y0012144D01*
X0180605Y0012295D01*
X0180583Y0012446D01*
X0180565Y0012599D01*
X0180551Y0012751D01*
X0180541Y0012904D01*
X0180535Y0013058D01*
X0180533Y0013211D01*
D11*
X0116902Y0013213D02*
X0115689Y0013213D01*
X0116902Y0013213D02*
X0116902Y0011999D01*
X0116296Y0011393D01*
X0115082Y0011393D01*
X0114476Y0011999D01*
X0114476Y0014426D01*
X0115082Y0015033D01*
X0116296Y0015033D01*
X0116902Y0014426D01*
X0113277Y0014426D02*
X0113277Y0011999D01*
X0112671Y0011393D01*
X0111457Y0011393D01*
X0110851Y0011999D01*
X0110851Y0014426D01*
X0111457Y0015033D01*
X0112671Y0015033D01*
X0113277Y0014426D01*
X0109652Y0014426D02*
X0109652Y0013213D01*
X0109045Y0012606D01*
X0107225Y0012606D01*
X0107225Y0011393D02*
X0107225Y0015033D01*
X0109045Y0015033D01*
X0109652Y0014426D01*
X0108439Y0012606D02*
X0109652Y0011393D01*
X0109645Y0009127D02*
X0109038Y0008520D01*
X0109038Y0007914D01*
X0109645Y0007307D01*
X0111465Y0007307D01*
X0112663Y0007307D02*
X0115090Y0007307D01*
X0115090Y0007914D02*
X0115090Y0005487D01*
X0115090Y0007914D02*
X0113876Y0009127D01*
X0112663Y0007914D01*
X0112663Y0005487D01*
X0111465Y0006094D02*
X0111465Y0008520D01*
X0110858Y0009127D01*
X0109645Y0009127D01*
X0107840Y0008520D02*
X0105413Y0006094D01*
X0106020Y0005487D01*
X0107233Y0005487D01*
X0107840Y0006094D01*
X0107840Y0008520D01*
X0107233Y0009127D01*
X0106020Y0009127D01*
X0105413Y0008520D01*
X0105413Y0006094D01*
X0104214Y0006094D02*
X0103608Y0005487D01*
X0102394Y0005487D01*
X0101788Y0006094D01*
X0101788Y0006700D01*
X0102394Y0007307D01*
X0103608Y0007307D01*
X0104214Y0006700D01*
X0104214Y0006094D01*
X0103608Y0007307D02*
X0104214Y0007914D01*
X0104214Y0008520D01*
X0103608Y0009127D01*
X0102394Y0009127D01*
X0101788Y0008520D01*
X0101788Y0007914D01*
X0102394Y0007307D01*
X0100589Y0006094D02*
X0099983Y0005487D01*
X0098769Y0005487D01*
X0098163Y0006094D01*
X0100589Y0008520D01*
X0100589Y0006094D01*
X0098163Y0006094D02*
X0098163Y0008520D01*
X0098769Y0009127D01*
X0099983Y0009127D01*
X0100589Y0008520D01*
X0098777Y0011393D02*
X0098777Y0015033D01*
X0099975Y0013213D02*
X0102402Y0013213D01*
X0103600Y0012606D02*
X0105420Y0012606D01*
X0106027Y0013213D01*
X0106027Y0014426D01*
X0105420Y0015033D01*
X0103600Y0015033D01*
X0103600Y0011393D01*
X0098777Y0011393D02*
X0097563Y0012606D01*
X0096350Y0011393D01*
X0096350Y0015033D01*
X0095152Y0015033D02*
X0092725Y0015033D01*
X0092725Y0011393D01*
X0095152Y0011393D01*
X0093938Y0013213D02*
X0092725Y0013213D01*
X0091526Y0013213D02*
X0091526Y0014426D01*
X0090920Y0015033D01*
X0089100Y0015033D01*
X0089100Y0011393D01*
X0087901Y0011393D02*
X0087901Y0015033D01*
X0087901Y0013213D02*
X0085475Y0013213D01*
X0084276Y0012606D02*
X0084276Y0011999D01*
X0083670Y0011393D01*
X0082456Y0011393D01*
X0081849Y0011999D01*
X0082456Y0013213D02*
X0081849Y0013819D01*
X0081849Y0014426D01*
X0082456Y0015033D01*
X0083670Y0015033D01*
X0084276Y0014426D01*
X0085475Y0015033D02*
X0085475Y0011393D01*
X0084276Y0012606D02*
X0083670Y0013213D01*
X0082456Y0013213D01*
X0084269Y0009127D02*
X0083662Y0008520D01*
X0084269Y0009127D02*
X0085482Y0009127D01*
X0086089Y0008520D01*
X0086089Y0007914D01*
X0083662Y0005487D01*
X0086089Y0005487D01*
X0087287Y0006094D02*
X0089714Y0008520D01*
X0089714Y0006094D01*
X0089107Y0005487D01*
X0087894Y0005487D01*
X0087287Y0006094D01*
X0087287Y0008520D01*
X0087894Y0009127D01*
X0089107Y0009127D01*
X0089714Y0008520D01*
X0090912Y0008520D02*
X0091519Y0009127D01*
X0092732Y0009127D01*
X0093339Y0008520D01*
X0093339Y0007914D01*
X0090912Y0005487D01*
X0093339Y0005487D01*
X0094537Y0007307D02*
X0096964Y0007307D01*
X0096358Y0005487D02*
X0096358Y0009127D01*
X0094537Y0007307D01*
X0091526Y0011393D02*
X0090313Y0012606D01*
X0090920Y0012606D02*
X0089100Y0012606D01*
X0090920Y0012606D02*
X0091526Y0013213D01*
X0109038Y0006094D02*
X0109645Y0005487D01*
X0110858Y0005487D01*
X0111465Y0006094D01*
X0094706Y0163034D02*
X0094706Y0165460D01*
X0095919Y0166659D02*
X0096526Y0167265D01*
X0096526Y0168479D01*
X0095919Y0169086D01*
X0095312Y0169086D01*
X0094706Y0168479D01*
X0094706Y0167872D01*
X0094706Y0168479D02*
X0094099Y0169086D01*
X0093492Y0169086D01*
X0092885Y0168479D01*
X0092885Y0167265D01*
X0093492Y0166659D01*
X0093492Y0164247D02*
X0095919Y0164247D01*
X0095312Y0170284D02*
X0092885Y0170284D01*
X0092885Y0172711D02*
X0095312Y0172711D01*
X0096526Y0171497D01*
X0095312Y0170284D01*
X0095919Y0173909D02*
X0096526Y0174516D01*
X0096526Y0175729D01*
X0095919Y0176336D01*
X0095312Y0176336D01*
X0094706Y0175729D01*
X0094706Y0175122D01*
X0094706Y0175729D02*
X0094099Y0176336D01*
X0093492Y0176336D01*
X0092885Y0175729D01*
X0092885Y0174516D01*
X0093492Y0173909D01*
X0076447Y0173122D02*
X0076447Y0174942D01*
X0075840Y0175548D01*
X0073413Y0175548D01*
X0072807Y0174942D01*
X0072807Y0173122D01*
X0076447Y0173122D01*
X0076447Y0171923D02*
X0072807Y0171923D01*
X0072807Y0169497D02*
X0076447Y0171923D01*
X0076447Y0169497D02*
X0072807Y0169497D01*
X0073413Y0168298D02*
X0072807Y0167691D01*
X0072807Y0166478D01*
X0073413Y0165871D01*
X0075840Y0165871D01*
X0076447Y0166478D01*
X0076447Y0167691D01*
X0075840Y0168298D01*
X0074627Y0168298D01*
X0074627Y0167085D01*
D12*
X0102975Y0176991D02*
X0104943Y0173841D01*
X0106912Y0176991D01*
X0102975Y0176991D01*
X0112817Y0173841D02*
X0116754Y0173841D01*
X0114786Y0176991D01*
X0112817Y0173841D01*
D13*
X0117148Y0167935D02*
X0188014Y0167935D01*
X0188014Y0061636D01*
X0117148Y0061636D01*
X0117148Y0167935D01*
X0083683Y0156124D02*
X0083683Y0061636D01*
X0022660Y0061636D01*
X0022660Y0156124D01*
X0083683Y0156124D01*
X0080140Y0052581D02*
X0119510Y0052581D01*
X0119510Y0028959D01*
X0080140Y0028959D01*
X0080140Y0052581D01*
D14*
X0060081Y0030770D02*
X0045081Y0030770D01*
X0102325Y0086951D02*
X0107325Y0086951D01*
X0087030Y0091951D02*
X0087034Y0092265D01*
X0087045Y0092579D01*
X0087065Y0092892D01*
X0087092Y0093205D01*
X0087126Y0093517D01*
X0087168Y0093828D01*
X0087218Y0094138D01*
X0087276Y0094447D01*
X0087341Y0094754D01*
X0087413Y0095060D01*
X0087493Y0095364D01*
X0087581Y0095665D01*
X0087676Y0095965D01*
X0087778Y0096262D01*
X0087887Y0096556D01*
X0088004Y0096847D01*
X0088128Y0097136D01*
X0088258Y0097422D01*
X0088396Y0097704D01*
X0088541Y0097983D01*
X0088692Y0098258D01*
X0088850Y0098529D01*
X0089015Y0098796D01*
X0089186Y0099060D01*
X0089364Y0099318D01*
X0089548Y0099573D01*
X0089738Y0099823D01*
X0089934Y0100068D01*
X0090137Y0100308D01*
X0090345Y0100544D01*
X0090558Y0100774D01*
X0090778Y0100998D01*
X0091002Y0101218D01*
X0091232Y0101431D01*
X0091468Y0101639D01*
X0091708Y0101842D01*
X0091953Y0102038D01*
X0092203Y0102228D01*
X0092458Y0102412D01*
X0092716Y0102590D01*
X0092980Y0102761D01*
X0093247Y0102926D01*
X0093518Y0103084D01*
X0093793Y0103235D01*
X0094072Y0103380D01*
X0094354Y0103518D01*
X0094640Y0103648D01*
X0094929Y0103772D01*
X0095220Y0103889D01*
X0095514Y0103998D01*
X0095811Y0104100D01*
X0096111Y0104195D01*
X0096412Y0104283D01*
X0096716Y0104363D01*
X0097022Y0104435D01*
X0097329Y0104500D01*
X0097638Y0104558D01*
X0097948Y0104608D01*
X0098259Y0104650D01*
X0098571Y0104684D01*
X0098884Y0104711D01*
X0099197Y0104731D01*
X0099511Y0104742D01*
X0099825Y0104746D01*
X0100139Y0104742D01*
X0100453Y0104731D01*
X0100766Y0104711D01*
X0101079Y0104684D01*
X0101391Y0104650D01*
X0101702Y0104608D01*
X0102012Y0104558D01*
X0102321Y0104500D01*
X0102628Y0104435D01*
X0102934Y0104363D01*
X0103238Y0104283D01*
X0103539Y0104195D01*
X0103839Y0104100D01*
X0104136Y0103998D01*
X0104430Y0103889D01*
X0104721Y0103772D01*
X0105010Y0103648D01*
X0105296Y0103518D01*
X0105578Y0103380D01*
X0105857Y0103235D01*
X0106132Y0103084D01*
X0106403Y0102926D01*
X0106670Y0102761D01*
X0106934Y0102590D01*
X0107192Y0102412D01*
X0107447Y0102228D01*
X0107697Y0102038D01*
X0107942Y0101842D01*
X0108182Y0101639D01*
X0108418Y0101431D01*
X0108648Y0101218D01*
X0108872Y0100998D01*
X0109092Y0100774D01*
X0109305Y0100544D01*
X0109513Y0100308D01*
X0109716Y0100068D01*
X0109912Y0099823D01*
X0110102Y0099573D01*
X0110286Y0099318D01*
X0110464Y0099060D01*
X0110635Y0098796D01*
X0110800Y0098529D01*
X0110958Y0098258D01*
X0111109Y0097983D01*
X0111254Y0097704D01*
X0111392Y0097422D01*
X0111522Y0097136D01*
X0111646Y0096847D01*
X0111763Y0096556D01*
X0111872Y0096262D01*
X0111974Y0095965D01*
X0112069Y0095665D01*
X0112157Y0095364D01*
X0112237Y0095060D01*
X0112309Y0094754D01*
X0112374Y0094447D01*
X0112432Y0094138D01*
X0112482Y0093828D01*
X0112524Y0093517D01*
X0112558Y0093205D01*
X0112585Y0092892D01*
X0112605Y0092579D01*
X0112616Y0092265D01*
X0112620Y0091951D01*
X0112616Y0091637D01*
X0112605Y0091323D01*
X0112585Y0091010D01*
X0112558Y0090697D01*
X0112524Y0090385D01*
X0112482Y0090074D01*
X0112432Y0089764D01*
X0112374Y0089455D01*
X0112309Y0089148D01*
X0112237Y0088842D01*
X0112157Y0088538D01*
X0112069Y0088237D01*
X0111974Y0087937D01*
X0111872Y0087640D01*
X0111763Y0087346D01*
X0111646Y0087055D01*
X0111522Y0086766D01*
X0111392Y0086480D01*
X0111254Y0086198D01*
X0111109Y0085919D01*
X0110958Y0085644D01*
X0110800Y0085373D01*
X0110635Y0085106D01*
X0110464Y0084842D01*
X0110286Y0084584D01*
X0110102Y0084329D01*
X0109912Y0084079D01*
X0109716Y0083834D01*
X0109513Y0083594D01*
X0109305Y0083358D01*
X0109092Y0083128D01*
X0108872Y0082904D01*
X0108648Y0082684D01*
X0108418Y0082471D01*
X0108182Y0082263D01*
X0107942Y0082060D01*
X0107697Y0081864D01*
X0107447Y0081674D01*
X0107192Y0081490D01*
X0106934Y0081312D01*
X0106670Y0081141D01*
X0106403Y0080976D01*
X0106132Y0080818D01*
X0105857Y0080667D01*
X0105578Y0080522D01*
X0105296Y0080384D01*
X0105010Y0080254D01*
X0104721Y0080130D01*
X0104430Y0080013D01*
X0104136Y0079904D01*
X0103839Y0079802D01*
X0103539Y0079707D01*
X0103238Y0079619D01*
X0102934Y0079539D01*
X0102628Y0079467D01*
X0102321Y0079402D01*
X0102012Y0079344D01*
X0101702Y0079294D01*
X0101391Y0079252D01*
X0101079Y0079218D01*
X0100766Y0079191D01*
X0100453Y0079171D01*
X0100139Y0079160D01*
X0099825Y0079156D01*
X0099511Y0079160D01*
X0099197Y0079171D01*
X0098884Y0079191D01*
X0098571Y0079218D01*
X0098259Y0079252D01*
X0097948Y0079294D01*
X0097638Y0079344D01*
X0097329Y0079402D01*
X0097022Y0079467D01*
X0096716Y0079539D01*
X0096412Y0079619D01*
X0096111Y0079707D01*
X0095811Y0079802D01*
X0095514Y0079904D01*
X0095220Y0080013D01*
X0094929Y0080130D01*
X0094640Y0080254D01*
X0094354Y0080384D01*
X0094072Y0080522D01*
X0093793Y0080667D01*
X0093518Y0080818D01*
X0093247Y0080976D01*
X0092980Y0081141D01*
X0092716Y0081312D01*
X0092458Y0081490D01*
X0092203Y0081674D01*
X0091953Y0081864D01*
X0091708Y0082060D01*
X0091468Y0082263D01*
X0091232Y0082471D01*
X0091002Y0082684D01*
X0090778Y0082904D01*
X0090558Y0083128D01*
X0090345Y0083358D01*
X0090137Y0083594D01*
X0089934Y0083834D01*
X0089738Y0084079D01*
X0089548Y0084329D01*
X0089364Y0084584D01*
X0089186Y0084842D01*
X0089015Y0085106D01*
X0088850Y0085373D01*
X0088692Y0085644D01*
X0088541Y0085919D01*
X0088396Y0086198D01*
X0088258Y0086480D01*
X0088128Y0086766D01*
X0088004Y0087055D01*
X0087887Y0087346D01*
X0087778Y0087640D01*
X0087676Y0087937D01*
X0087581Y0088237D01*
X0087493Y0088538D01*
X0087413Y0088842D01*
X0087341Y0089148D01*
X0087276Y0089455D01*
X0087218Y0089764D01*
X0087168Y0090074D01*
X0087126Y0090385D01*
X0087092Y0090697D01*
X0087065Y0091010D01*
X0087045Y0091323D01*
X0087034Y0091637D01*
X0087030Y0091951D01*
X0102325Y0114510D02*
X0107325Y0114510D01*
X0087030Y0119510D02*
X0087034Y0119824D01*
X0087045Y0120138D01*
X0087065Y0120451D01*
X0087092Y0120764D01*
X0087126Y0121076D01*
X0087168Y0121387D01*
X0087218Y0121697D01*
X0087276Y0122006D01*
X0087341Y0122313D01*
X0087413Y0122619D01*
X0087493Y0122923D01*
X0087581Y0123224D01*
X0087676Y0123524D01*
X0087778Y0123821D01*
X0087887Y0124115D01*
X0088004Y0124406D01*
X0088128Y0124695D01*
X0088258Y0124981D01*
X0088396Y0125263D01*
X0088541Y0125542D01*
X0088692Y0125817D01*
X0088850Y0126088D01*
X0089015Y0126355D01*
X0089186Y0126619D01*
X0089364Y0126877D01*
X0089548Y0127132D01*
X0089738Y0127382D01*
X0089934Y0127627D01*
X0090137Y0127867D01*
X0090345Y0128103D01*
X0090558Y0128333D01*
X0090778Y0128557D01*
X0091002Y0128777D01*
X0091232Y0128990D01*
X0091468Y0129198D01*
X0091708Y0129401D01*
X0091953Y0129597D01*
X0092203Y0129787D01*
X0092458Y0129971D01*
X0092716Y0130149D01*
X0092980Y0130320D01*
X0093247Y0130485D01*
X0093518Y0130643D01*
X0093793Y0130794D01*
X0094072Y0130939D01*
X0094354Y0131077D01*
X0094640Y0131207D01*
X0094929Y0131331D01*
X0095220Y0131448D01*
X0095514Y0131557D01*
X0095811Y0131659D01*
X0096111Y0131754D01*
X0096412Y0131842D01*
X0096716Y0131922D01*
X0097022Y0131994D01*
X0097329Y0132059D01*
X0097638Y0132117D01*
X0097948Y0132167D01*
X0098259Y0132209D01*
X0098571Y0132243D01*
X0098884Y0132270D01*
X0099197Y0132290D01*
X0099511Y0132301D01*
X0099825Y0132305D01*
X0100139Y0132301D01*
X0100453Y0132290D01*
X0100766Y0132270D01*
X0101079Y0132243D01*
X0101391Y0132209D01*
X0101702Y0132167D01*
X0102012Y0132117D01*
X0102321Y0132059D01*
X0102628Y0131994D01*
X0102934Y0131922D01*
X0103238Y0131842D01*
X0103539Y0131754D01*
X0103839Y0131659D01*
X0104136Y0131557D01*
X0104430Y0131448D01*
X0104721Y0131331D01*
X0105010Y0131207D01*
X0105296Y0131077D01*
X0105578Y0130939D01*
X0105857Y0130794D01*
X0106132Y0130643D01*
X0106403Y0130485D01*
X0106670Y0130320D01*
X0106934Y0130149D01*
X0107192Y0129971D01*
X0107447Y0129787D01*
X0107697Y0129597D01*
X0107942Y0129401D01*
X0108182Y0129198D01*
X0108418Y0128990D01*
X0108648Y0128777D01*
X0108872Y0128557D01*
X0109092Y0128333D01*
X0109305Y0128103D01*
X0109513Y0127867D01*
X0109716Y0127627D01*
X0109912Y0127382D01*
X0110102Y0127132D01*
X0110286Y0126877D01*
X0110464Y0126619D01*
X0110635Y0126355D01*
X0110800Y0126088D01*
X0110958Y0125817D01*
X0111109Y0125542D01*
X0111254Y0125263D01*
X0111392Y0124981D01*
X0111522Y0124695D01*
X0111646Y0124406D01*
X0111763Y0124115D01*
X0111872Y0123821D01*
X0111974Y0123524D01*
X0112069Y0123224D01*
X0112157Y0122923D01*
X0112237Y0122619D01*
X0112309Y0122313D01*
X0112374Y0122006D01*
X0112432Y0121697D01*
X0112482Y0121387D01*
X0112524Y0121076D01*
X0112558Y0120764D01*
X0112585Y0120451D01*
X0112605Y0120138D01*
X0112616Y0119824D01*
X0112620Y0119510D01*
X0112616Y0119196D01*
X0112605Y0118882D01*
X0112585Y0118569D01*
X0112558Y0118256D01*
X0112524Y0117944D01*
X0112482Y0117633D01*
X0112432Y0117323D01*
X0112374Y0117014D01*
X0112309Y0116707D01*
X0112237Y0116401D01*
X0112157Y0116097D01*
X0112069Y0115796D01*
X0111974Y0115496D01*
X0111872Y0115199D01*
X0111763Y0114905D01*
X0111646Y0114614D01*
X0111522Y0114325D01*
X0111392Y0114039D01*
X0111254Y0113757D01*
X0111109Y0113478D01*
X0110958Y0113203D01*
X0110800Y0112932D01*
X0110635Y0112665D01*
X0110464Y0112401D01*
X0110286Y0112143D01*
X0110102Y0111888D01*
X0109912Y0111638D01*
X0109716Y0111393D01*
X0109513Y0111153D01*
X0109305Y0110917D01*
X0109092Y0110687D01*
X0108872Y0110463D01*
X0108648Y0110243D01*
X0108418Y0110030D01*
X0108182Y0109822D01*
X0107942Y0109619D01*
X0107697Y0109423D01*
X0107447Y0109233D01*
X0107192Y0109049D01*
X0106934Y0108871D01*
X0106670Y0108700D01*
X0106403Y0108535D01*
X0106132Y0108377D01*
X0105857Y0108226D01*
X0105578Y0108081D01*
X0105296Y0107943D01*
X0105010Y0107813D01*
X0104721Y0107689D01*
X0104430Y0107572D01*
X0104136Y0107463D01*
X0103839Y0107361D01*
X0103539Y0107266D01*
X0103238Y0107178D01*
X0102934Y0107098D01*
X0102628Y0107026D01*
X0102321Y0106961D01*
X0102012Y0106903D01*
X0101702Y0106853D01*
X0101391Y0106811D01*
X0101079Y0106777D01*
X0100766Y0106750D01*
X0100453Y0106730D01*
X0100139Y0106719D01*
X0099825Y0106715D01*
X0099511Y0106719D01*
X0099197Y0106730D01*
X0098884Y0106750D01*
X0098571Y0106777D01*
X0098259Y0106811D01*
X0097948Y0106853D01*
X0097638Y0106903D01*
X0097329Y0106961D01*
X0097022Y0107026D01*
X0096716Y0107098D01*
X0096412Y0107178D01*
X0096111Y0107266D01*
X0095811Y0107361D01*
X0095514Y0107463D01*
X0095220Y0107572D01*
X0094929Y0107689D01*
X0094640Y0107813D01*
X0094354Y0107943D01*
X0094072Y0108081D01*
X0093793Y0108226D01*
X0093518Y0108377D01*
X0093247Y0108535D01*
X0092980Y0108700D01*
X0092716Y0108871D01*
X0092458Y0109049D01*
X0092203Y0109233D01*
X0091953Y0109423D01*
X0091708Y0109619D01*
X0091468Y0109822D01*
X0091232Y0110030D01*
X0091002Y0110243D01*
X0090778Y0110463D01*
X0090558Y0110687D01*
X0090345Y0110917D01*
X0090137Y0111153D01*
X0089934Y0111393D01*
X0089738Y0111638D01*
X0089548Y0111888D01*
X0089364Y0112143D01*
X0089186Y0112401D01*
X0089015Y0112665D01*
X0088850Y0112932D01*
X0088692Y0113203D01*
X0088541Y0113478D01*
X0088396Y0113757D01*
X0088258Y0114039D01*
X0088128Y0114325D01*
X0088004Y0114614D01*
X0087887Y0114905D01*
X0087778Y0115199D01*
X0087676Y0115496D01*
X0087581Y0115796D01*
X0087493Y0116097D01*
X0087413Y0116401D01*
X0087341Y0116707D01*
X0087276Y0117014D01*
X0087218Y0117323D01*
X0087168Y0117633D01*
X0087126Y0117944D01*
X0087092Y0118256D01*
X0087065Y0118569D01*
X0087045Y0118882D01*
X0087034Y0119196D01*
X0087030Y0119510D01*
X0102325Y0142069D02*
X0107325Y0142069D01*
X0087030Y0147069D02*
X0087034Y0147383D01*
X0087045Y0147697D01*
X0087065Y0148010D01*
X0087092Y0148323D01*
X0087126Y0148635D01*
X0087168Y0148946D01*
X0087218Y0149256D01*
X0087276Y0149565D01*
X0087341Y0149872D01*
X0087413Y0150178D01*
X0087493Y0150482D01*
X0087581Y0150783D01*
X0087676Y0151083D01*
X0087778Y0151380D01*
X0087887Y0151674D01*
X0088004Y0151965D01*
X0088128Y0152254D01*
X0088258Y0152540D01*
X0088396Y0152822D01*
X0088541Y0153101D01*
X0088692Y0153376D01*
X0088850Y0153647D01*
X0089015Y0153914D01*
X0089186Y0154178D01*
X0089364Y0154436D01*
X0089548Y0154691D01*
X0089738Y0154941D01*
X0089934Y0155186D01*
X0090137Y0155426D01*
X0090345Y0155662D01*
X0090558Y0155892D01*
X0090778Y0156116D01*
X0091002Y0156336D01*
X0091232Y0156549D01*
X0091468Y0156757D01*
X0091708Y0156960D01*
X0091953Y0157156D01*
X0092203Y0157346D01*
X0092458Y0157530D01*
X0092716Y0157708D01*
X0092980Y0157879D01*
X0093247Y0158044D01*
X0093518Y0158202D01*
X0093793Y0158353D01*
X0094072Y0158498D01*
X0094354Y0158636D01*
X0094640Y0158766D01*
X0094929Y0158890D01*
X0095220Y0159007D01*
X0095514Y0159116D01*
X0095811Y0159218D01*
X0096111Y0159313D01*
X0096412Y0159401D01*
X0096716Y0159481D01*
X0097022Y0159553D01*
X0097329Y0159618D01*
X0097638Y0159676D01*
X0097948Y0159726D01*
X0098259Y0159768D01*
X0098571Y0159802D01*
X0098884Y0159829D01*
X0099197Y0159849D01*
X0099511Y0159860D01*
X0099825Y0159864D01*
X0100139Y0159860D01*
X0100453Y0159849D01*
X0100766Y0159829D01*
X0101079Y0159802D01*
X0101391Y0159768D01*
X0101702Y0159726D01*
X0102012Y0159676D01*
X0102321Y0159618D01*
X0102628Y0159553D01*
X0102934Y0159481D01*
X0103238Y0159401D01*
X0103539Y0159313D01*
X0103839Y0159218D01*
X0104136Y0159116D01*
X0104430Y0159007D01*
X0104721Y0158890D01*
X0105010Y0158766D01*
X0105296Y0158636D01*
X0105578Y0158498D01*
X0105857Y0158353D01*
X0106132Y0158202D01*
X0106403Y0158044D01*
X0106670Y0157879D01*
X0106934Y0157708D01*
X0107192Y0157530D01*
X0107447Y0157346D01*
X0107697Y0157156D01*
X0107942Y0156960D01*
X0108182Y0156757D01*
X0108418Y0156549D01*
X0108648Y0156336D01*
X0108872Y0156116D01*
X0109092Y0155892D01*
X0109305Y0155662D01*
X0109513Y0155426D01*
X0109716Y0155186D01*
X0109912Y0154941D01*
X0110102Y0154691D01*
X0110286Y0154436D01*
X0110464Y0154178D01*
X0110635Y0153914D01*
X0110800Y0153647D01*
X0110958Y0153376D01*
X0111109Y0153101D01*
X0111254Y0152822D01*
X0111392Y0152540D01*
X0111522Y0152254D01*
X0111646Y0151965D01*
X0111763Y0151674D01*
X0111872Y0151380D01*
X0111974Y0151083D01*
X0112069Y0150783D01*
X0112157Y0150482D01*
X0112237Y0150178D01*
X0112309Y0149872D01*
X0112374Y0149565D01*
X0112432Y0149256D01*
X0112482Y0148946D01*
X0112524Y0148635D01*
X0112558Y0148323D01*
X0112585Y0148010D01*
X0112605Y0147697D01*
X0112616Y0147383D01*
X0112620Y0147069D01*
X0112616Y0146755D01*
X0112605Y0146441D01*
X0112585Y0146128D01*
X0112558Y0145815D01*
X0112524Y0145503D01*
X0112482Y0145192D01*
X0112432Y0144882D01*
X0112374Y0144573D01*
X0112309Y0144266D01*
X0112237Y0143960D01*
X0112157Y0143656D01*
X0112069Y0143355D01*
X0111974Y0143055D01*
X0111872Y0142758D01*
X0111763Y0142464D01*
X0111646Y0142173D01*
X0111522Y0141884D01*
X0111392Y0141598D01*
X0111254Y0141316D01*
X0111109Y0141037D01*
X0110958Y0140762D01*
X0110800Y0140491D01*
X0110635Y0140224D01*
X0110464Y0139960D01*
X0110286Y0139702D01*
X0110102Y0139447D01*
X0109912Y0139197D01*
X0109716Y0138952D01*
X0109513Y0138712D01*
X0109305Y0138476D01*
X0109092Y0138246D01*
X0108872Y0138022D01*
X0108648Y0137802D01*
X0108418Y0137589D01*
X0108182Y0137381D01*
X0107942Y0137178D01*
X0107697Y0136982D01*
X0107447Y0136792D01*
X0107192Y0136608D01*
X0106934Y0136430D01*
X0106670Y0136259D01*
X0106403Y0136094D01*
X0106132Y0135936D01*
X0105857Y0135785D01*
X0105578Y0135640D01*
X0105296Y0135502D01*
X0105010Y0135372D01*
X0104721Y0135248D01*
X0104430Y0135131D01*
X0104136Y0135022D01*
X0103839Y0134920D01*
X0103539Y0134825D01*
X0103238Y0134737D01*
X0102934Y0134657D01*
X0102628Y0134585D01*
X0102321Y0134520D01*
X0102012Y0134462D01*
X0101702Y0134412D01*
X0101391Y0134370D01*
X0101079Y0134336D01*
X0100766Y0134309D01*
X0100453Y0134289D01*
X0100139Y0134278D01*
X0099825Y0134274D01*
X0099511Y0134278D01*
X0099197Y0134289D01*
X0098884Y0134309D01*
X0098571Y0134336D01*
X0098259Y0134370D01*
X0097948Y0134412D01*
X0097638Y0134462D01*
X0097329Y0134520D01*
X0097022Y0134585D01*
X0096716Y0134657D01*
X0096412Y0134737D01*
X0096111Y0134825D01*
X0095811Y0134920D01*
X0095514Y0135022D01*
X0095220Y0135131D01*
X0094929Y0135248D01*
X0094640Y0135372D01*
X0094354Y0135502D01*
X0094072Y0135640D01*
X0093793Y0135785D01*
X0093518Y0135936D01*
X0093247Y0136094D01*
X0092980Y0136259D01*
X0092716Y0136430D01*
X0092458Y0136608D01*
X0092203Y0136792D01*
X0091953Y0136982D01*
X0091708Y0137178D01*
X0091468Y0137381D01*
X0091232Y0137589D01*
X0091002Y0137802D01*
X0090778Y0138022D01*
X0090558Y0138246D01*
X0090345Y0138476D01*
X0090137Y0138712D01*
X0089934Y0138952D01*
X0089738Y0139197D01*
X0089548Y0139447D01*
X0089364Y0139702D01*
X0089186Y0139960D01*
X0089015Y0140224D01*
X0088850Y0140491D01*
X0088692Y0140762D01*
X0088541Y0141037D01*
X0088396Y0141316D01*
X0088258Y0141598D01*
X0088128Y0141884D01*
X0088004Y0142173D01*
X0087887Y0142464D01*
X0087778Y0142758D01*
X0087676Y0143055D01*
X0087581Y0143355D01*
X0087493Y0143656D01*
X0087413Y0143960D01*
X0087341Y0144266D01*
X0087276Y0144573D01*
X0087218Y0144882D01*
X0087168Y0145192D01*
X0087126Y0145503D01*
X0087092Y0145815D01*
X0087065Y0146128D01*
X0087045Y0146441D01*
X0087034Y0146755D01*
X0087030Y0147069D01*
X0069825Y0183939D02*
X0069825Y0188939D01*
X0129825Y0188939D02*
X0129825Y0183939D01*
X0146006Y0181065D02*
X0146006Y0176065D01*
X0148506Y0173565D01*
X0153506Y0173565D01*
X0156006Y0176065D01*
X0158506Y0173565D01*
X0163506Y0173565D01*
X0166006Y0176065D01*
X0166006Y0181065D01*
X0163506Y0183565D01*
X0158506Y0183565D01*
X0156006Y0181065D01*
X0153506Y0183565D01*
X0148506Y0183565D01*
X0146006Y0181065D01*
D15*
X0060390Y0030441D02*
X0059850Y0031161D01*
X0059851Y0031160D02*
X0060084Y0031341D01*
X0060312Y0031527D01*
X0060536Y0031719D01*
X0060755Y0031916D01*
X0060969Y0032118D01*
X0061178Y0032326D01*
X0061381Y0032539D01*
X0061580Y0032756D01*
X0061773Y0032979D01*
X0061961Y0033206D01*
X0062143Y0033437D01*
X0062320Y0033673D01*
X0062490Y0033914D01*
X0062655Y0034158D01*
X0062813Y0034406D01*
X0062966Y0034658D01*
X0063112Y0034914D01*
X0063252Y0035173D01*
X0063386Y0035436D01*
X0063513Y0035701D01*
X0063634Y0035970D01*
X0063748Y0036242D01*
X0063855Y0036516D01*
X0063956Y0036793D01*
X0064050Y0037072D01*
X0064137Y0037354D01*
X0064217Y0037637D01*
X0064290Y0037923D01*
X0064356Y0038210D01*
X0064415Y0038499D01*
X0064467Y0038789D01*
X0064512Y0039080D01*
X0064550Y0039372D01*
X0064580Y0039665D01*
X0064604Y0039959D01*
X0064620Y0040253D01*
X0064629Y0040547D01*
X0064631Y0040842D01*
X0064625Y0041137D01*
X0064613Y0041431D01*
X0064593Y0041725D01*
X0064566Y0042018D01*
X0064532Y0042311D01*
X0064491Y0042603D01*
X0064442Y0042893D01*
X0064387Y0043183D01*
X0064325Y0043470D01*
X0064255Y0043757D01*
X0064178Y0044041D01*
X0064095Y0044324D01*
X0064005Y0044604D01*
X0063908Y0044882D01*
X0063804Y0045158D01*
X0063693Y0045431D01*
X0063576Y0045701D01*
X0063452Y0045969D01*
X0063322Y0046233D01*
X0063185Y0046494D01*
X0063042Y0046751D01*
X0062892Y0047005D01*
X0062737Y0047256D01*
X0062575Y0047502D01*
X0062408Y0047744D01*
X0062234Y0047982D01*
X0062055Y0048216D01*
X0061870Y0048446D01*
X0061680Y0048670D01*
X0061484Y0048891D01*
X0061283Y0049106D01*
X0061076Y0049316D01*
X0060865Y0049521D01*
X0060648Y0049721D01*
X0060427Y0049916D01*
X0060201Y0050105D01*
X0059971Y0050288D01*
X0059736Y0050466D01*
X0059496Y0050638D01*
X0059253Y0050804D01*
X0059006Y0050964D01*
X0058755Y0051118D01*
X0058500Y0051266D01*
X0058241Y0051408D01*
X0057980Y0051543D01*
X0057715Y0051672D01*
X0057447Y0051794D01*
X0057176Y0051910D01*
X0056902Y0052019D01*
X0056626Y0052121D01*
X0056347Y0052216D01*
X0056066Y0052305D01*
X0055783Y0052387D01*
X0055498Y0052462D01*
X0055211Y0052529D01*
X0054923Y0052590D01*
X0054633Y0052644D01*
X0054342Y0052691D01*
X0054050Y0052730D01*
X0053758Y0052762D01*
X0053464Y0052788D01*
X0053170Y0052806D01*
X0052876Y0052816D01*
X0052581Y0052820D01*
X0052286Y0052816D01*
X0051992Y0052806D01*
X0051698Y0052788D01*
X0051404Y0052762D01*
X0051112Y0052730D01*
X0050820Y0052691D01*
X0050529Y0052644D01*
X0050239Y0052590D01*
X0049951Y0052529D01*
X0049664Y0052462D01*
X0049379Y0052387D01*
X0049096Y0052305D01*
X0048815Y0052216D01*
X0048536Y0052121D01*
X0048260Y0052019D01*
X0047986Y0051910D01*
X0047715Y0051794D01*
X0047447Y0051672D01*
X0047182Y0051543D01*
X0046921Y0051408D01*
X0046662Y0051266D01*
X0046407Y0051118D01*
X0046156Y0050964D01*
X0045909Y0050804D01*
X0045666Y0050638D01*
X0045426Y0050466D01*
X0045191Y0050288D01*
X0044961Y0050105D01*
X0044735Y0049916D01*
X0044514Y0049721D01*
X0044297Y0049521D01*
X0044086Y0049316D01*
X0043879Y0049106D01*
X0043678Y0048891D01*
X0043482Y0048670D01*
X0043292Y0048446D01*
X0043107Y0048216D01*
X0042928Y0047982D01*
X0042754Y0047744D01*
X0042587Y0047502D01*
X0042425Y0047256D01*
X0042270Y0047005D01*
X0042120Y0046751D01*
X0041977Y0046494D01*
X0041840Y0046233D01*
X0041710Y0045969D01*
X0041586Y0045701D01*
X0041469Y0045431D01*
X0041358Y0045158D01*
X0041254Y0044882D01*
X0041157Y0044604D01*
X0041067Y0044324D01*
X0040984Y0044041D01*
X0040907Y0043757D01*
X0040837Y0043470D01*
X0040775Y0043183D01*
X0040720Y0042893D01*
X0040671Y0042603D01*
X0040630Y0042311D01*
X0040596Y0042018D01*
X0040569Y0041725D01*
X0040549Y0041431D01*
X0040537Y0041137D01*
X0040531Y0040842D01*
X0040533Y0040547D01*
X0040542Y0040253D01*
X0040558Y0039959D01*
X0040582Y0039665D01*
X0040612Y0039372D01*
X0040650Y0039080D01*
X0040695Y0038789D01*
X0040747Y0038499D01*
X0040806Y0038210D01*
X0040872Y0037923D01*
X0040945Y0037637D01*
X0041025Y0037354D01*
X0041112Y0037072D01*
X0041206Y0036793D01*
X0041307Y0036516D01*
X0041414Y0036242D01*
X0041528Y0035970D01*
X0041649Y0035701D01*
X0041776Y0035436D01*
X0041910Y0035173D01*
X0042050Y0034914D01*
X0042196Y0034658D01*
X0042349Y0034406D01*
X0042507Y0034158D01*
X0042672Y0033914D01*
X0042842Y0033673D01*
X0043019Y0033437D01*
X0043201Y0033206D01*
X0043389Y0032979D01*
X0043582Y0032756D01*
X0043781Y0032539D01*
X0043984Y0032326D01*
X0044193Y0032118D01*
X0044407Y0031916D01*
X0044626Y0031719D01*
X0044850Y0031527D01*
X0045078Y0031341D01*
X0045311Y0031160D01*
X0044772Y0030441D01*
X0044771Y0030440D01*
X0044521Y0030634D01*
X0044275Y0030834D01*
X0044035Y0031040D01*
X0043800Y0031252D01*
X0043570Y0031470D01*
X0043345Y0031693D01*
X0043126Y0031921D01*
X0042912Y0032155D01*
X0042704Y0032394D01*
X0042502Y0032638D01*
X0042307Y0032887D01*
X0042117Y0033141D01*
X0041934Y0033399D01*
X0041757Y0033661D01*
X0041586Y0033928D01*
X0041422Y0034199D01*
X0041265Y0034474D01*
X0041114Y0034752D01*
X0040970Y0035035D01*
X0040834Y0035320D01*
X0040704Y0035609D01*
X0040581Y0035901D01*
X0040466Y0036196D01*
X0040358Y0036493D01*
X0040257Y0036794D01*
X0040163Y0037096D01*
X0040077Y0037401D01*
X0039998Y0037708D01*
X0039927Y0038016D01*
X0039864Y0038326D01*
X0039808Y0038638D01*
X0039759Y0038951D01*
X0039719Y0039265D01*
X0039686Y0039580D01*
X0039661Y0039896D01*
X0039643Y0040212D01*
X0039633Y0040528D01*
X0039631Y0040845D01*
X0039637Y0041162D01*
X0039650Y0041478D01*
X0039672Y0041794D01*
X0039700Y0042109D01*
X0039737Y0042424D01*
X0039781Y0042737D01*
X0039833Y0043050D01*
X0039893Y0043361D01*
X0039960Y0043670D01*
X0040035Y0043978D01*
X0040117Y0044284D01*
X0040206Y0044587D01*
X0040303Y0044889D01*
X0040408Y0045188D01*
X0040520Y0045484D01*
X0040638Y0045778D01*
X0040764Y0046068D01*
X0040897Y0046355D01*
X0041038Y0046640D01*
X0041185Y0046920D01*
X0041338Y0047197D01*
X0041499Y0047470D01*
X0041666Y0047739D01*
X0041840Y0048004D01*
X0042020Y0048264D01*
X0042206Y0048520D01*
X0042399Y0048771D01*
X0042597Y0049018D01*
X0042802Y0049260D01*
X0043012Y0049496D01*
X0043229Y0049728D01*
X0043451Y0049953D01*
X0043678Y0050174D01*
X0043910Y0050389D01*
X0044148Y0050598D01*
X0044391Y0050801D01*
X0044639Y0050999D01*
X0044891Y0051190D01*
X0045148Y0051375D01*
X0045410Y0051553D01*
X0045676Y0051725D01*
X0045945Y0051891D01*
X0046219Y0052050D01*
X0046497Y0052202D01*
X0046778Y0052347D01*
X0047063Y0052486D01*
X0047351Y0052617D01*
X0047643Y0052741D01*
X0047937Y0052859D01*
X0048234Y0052969D01*
X0048533Y0053071D01*
X0048835Y0053166D01*
X0049139Y0053254D01*
X0049446Y0053335D01*
X0049754Y0053408D01*
X0050064Y0053473D01*
X0050375Y0053531D01*
X0050688Y0053581D01*
X0051002Y0053623D01*
X0051316Y0053658D01*
X0051632Y0053685D01*
X0051948Y0053705D01*
X0052264Y0053716D01*
X0052581Y0053720D01*
X0052898Y0053716D01*
X0053214Y0053705D01*
X0053530Y0053685D01*
X0053846Y0053658D01*
X0054160Y0053623D01*
X0054474Y0053581D01*
X0054787Y0053531D01*
X0055098Y0053473D01*
X0055408Y0053408D01*
X0055716Y0053335D01*
X0056023Y0053254D01*
X0056327Y0053166D01*
X0056629Y0053071D01*
X0056928Y0052969D01*
X0057225Y0052859D01*
X0057519Y0052741D01*
X0057811Y0052617D01*
X0058099Y0052486D01*
X0058384Y0052347D01*
X0058665Y0052202D01*
X0058943Y0052050D01*
X0059217Y0051891D01*
X0059486Y0051725D01*
X0059752Y0051553D01*
X0060014Y0051375D01*
X0060271Y0051190D01*
X0060523Y0050999D01*
X0060771Y0050801D01*
X0061014Y0050598D01*
X0061252Y0050389D01*
X0061484Y0050174D01*
X0061711Y0049953D01*
X0061933Y0049728D01*
X0062150Y0049496D01*
X0062360Y0049260D01*
X0062565Y0049018D01*
X0062763Y0048771D01*
X0062956Y0048520D01*
X0063142Y0048264D01*
X0063322Y0048004D01*
X0063496Y0047739D01*
X0063663Y0047470D01*
X0063824Y0047197D01*
X0063977Y0046920D01*
X0064124Y0046640D01*
X0064265Y0046355D01*
X0064398Y0046068D01*
X0064524Y0045778D01*
X0064642Y0045484D01*
X0064754Y0045188D01*
X0064859Y0044889D01*
X0064956Y0044587D01*
X0065045Y0044284D01*
X0065127Y0043978D01*
X0065202Y0043670D01*
X0065269Y0043361D01*
X0065329Y0043050D01*
X0065381Y0042737D01*
X0065425Y0042424D01*
X0065462Y0042109D01*
X0065490Y0041794D01*
X0065512Y0041478D01*
X0065525Y0041162D01*
X0065531Y0040845D01*
X0065529Y0040528D01*
X0065519Y0040212D01*
X0065501Y0039896D01*
X0065476Y0039580D01*
X0065443Y0039265D01*
X0065403Y0038951D01*
X0065354Y0038638D01*
X0065298Y0038326D01*
X0065235Y0038016D01*
X0065164Y0037708D01*
X0065085Y0037401D01*
X0064999Y0037096D01*
X0064905Y0036794D01*
X0064804Y0036493D01*
X0064696Y0036196D01*
X0064581Y0035901D01*
X0064458Y0035609D01*
X0064328Y0035320D01*
X0064192Y0035035D01*
X0064048Y0034752D01*
X0063897Y0034474D01*
X0063740Y0034199D01*
X0063576Y0033928D01*
X0063405Y0033661D01*
X0063228Y0033399D01*
X0063045Y0033141D01*
X0062855Y0032887D01*
X0062660Y0032638D01*
X0062458Y0032394D01*
X0062250Y0032155D01*
X0062036Y0031921D01*
X0061817Y0031693D01*
X0061592Y0031470D01*
X0061362Y0031252D01*
X0061127Y0031040D01*
X0060887Y0030834D01*
X0060641Y0030634D01*
X0060391Y0030440D01*
X0060335Y0030515D01*
X0060583Y0030708D01*
X0060827Y0030907D01*
X0061065Y0031111D01*
X0061299Y0031321D01*
X0061527Y0031537D01*
X0061750Y0031759D01*
X0061968Y0031986D01*
X0062180Y0032218D01*
X0062386Y0032455D01*
X0062587Y0032697D01*
X0062781Y0032945D01*
X0062969Y0033196D01*
X0063151Y0033453D01*
X0063327Y0033713D01*
X0063496Y0033978D01*
X0063659Y0034247D01*
X0063815Y0034520D01*
X0063965Y0034796D01*
X0064107Y0035076D01*
X0064243Y0035360D01*
X0064372Y0035647D01*
X0064494Y0035937D01*
X0064608Y0036229D01*
X0064716Y0036525D01*
X0064816Y0036823D01*
X0064909Y0037123D01*
X0064994Y0037426D01*
X0065072Y0037730D01*
X0065143Y0038036D01*
X0065206Y0038344D01*
X0065262Y0038654D01*
X0065310Y0038964D01*
X0065350Y0039276D01*
X0065383Y0039589D01*
X0065408Y0039902D01*
X0065425Y0040216D01*
X0065435Y0040530D01*
X0065437Y0040845D01*
X0065431Y0041159D01*
X0065418Y0041473D01*
X0065397Y0041787D01*
X0065368Y0042100D01*
X0065332Y0042412D01*
X0065288Y0042723D01*
X0065236Y0043033D01*
X0065177Y0043342D01*
X0065110Y0043649D01*
X0065036Y0043955D01*
X0064955Y0044258D01*
X0064866Y0044560D01*
X0064769Y0044859D01*
X0064666Y0045156D01*
X0064555Y0045450D01*
X0064437Y0045741D01*
X0064312Y0046030D01*
X0064180Y0046315D01*
X0064041Y0046597D01*
X0063895Y0046875D01*
X0063742Y0047150D01*
X0063583Y0047421D01*
X0063417Y0047688D01*
X0063244Y0047951D01*
X0063066Y0048210D01*
X0062881Y0048464D01*
X0062689Y0048713D01*
X0062492Y0048958D01*
X0062289Y0049198D01*
X0062080Y0049433D01*
X0061865Y0049663D01*
X0061645Y0049887D01*
X0061420Y0050106D01*
X0061189Y0050319D01*
X0060953Y0050527D01*
X0060711Y0050729D01*
X0060466Y0050924D01*
X0060215Y0051114D01*
X0059960Y0051298D01*
X0059700Y0051475D01*
X0059436Y0051646D01*
X0059168Y0051810D01*
X0058896Y0051968D01*
X0058621Y0052119D01*
X0058341Y0052263D01*
X0058059Y0052401D01*
X0057773Y0052531D01*
X0057484Y0052655D01*
X0057191Y0052771D01*
X0056897Y0052880D01*
X0056599Y0052982D01*
X0056300Y0053076D01*
X0055997Y0053164D01*
X0055693Y0053244D01*
X0055388Y0053316D01*
X0055080Y0053381D01*
X0054771Y0053438D01*
X0054460Y0053488D01*
X0054149Y0053530D01*
X0053836Y0053565D01*
X0053523Y0053591D01*
X0053209Y0053611D01*
X0052895Y0053622D01*
X0052581Y0053626D01*
X0052267Y0053622D01*
X0051953Y0053611D01*
X0051639Y0053591D01*
X0051326Y0053565D01*
X0051013Y0053530D01*
X0050702Y0053488D01*
X0050391Y0053438D01*
X0050082Y0053381D01*
X0049774Y0053316D01*
X0049469Y0053244D01*
X0049165Y0053164D01*
X0048862Y0053076D01*
X0048563Y0052982D01*
X0048265Y0052880D01*
X0047971Y0052771D01*
X0047678Y0052655D01*
X0047389Y0052531D01*
X0047103Y0052401D01*
X0046821Y0052263D01*
X0046541Y0052119D01*
X0046266Y0051968D01*
X0045994Y0051810D01*
X0045726Y0051646D01*
X0045462Y0051475D01*
X0045202Y0051298D01*
X0044947Y0051114D01*
X0044696Y0050924D01*
X0044451Y0050729D01*
X0044209Y0050527D01*
X0043973Y0050319D01*
X0043742Y0050106D01*
X0043517Y0049887D01*
X0043297Y0049663D01*
X0043082Y0049433D01*
X0042873Y0049198D01*
X0042670Y0048958D01*
X0042473Y0048713D01*
X0042281Y0048464D01*
X0042096Y0048210D01*
X0041918Y0047951D01*
X0041745Y0047688D01*
X0041579Y0047421D01*
X0041420Y0047150D01*
X0041267Y0046875D01*
X0041121Y0046597D01*
X0040982Y0046315D01*
X0040850Y0046030D01*
X0040725Y0045741D01*
X0040607Y0045450D01*
X0040496Y0045156D01*
X0040393Y0044859D01*
X0040296Y0044560D01*
X0040207Y0044258D01*
X0040126Y0043955D01*
X0040052Y0043649D01*
X0039985Y0043342D01*
X0039926Y0043033D01*
X0039874Y0042723D01*
X0039830Y0042412D01*
X0039794Y0042100D01*
X0039765Y0041787D01*
X0039744Y0041473D01*
X0039731Y0041159D01*
X0039725Y0040845D01*
X0039727Y0040530D01*
X0039737Y0040216D01*
X0039754Y0039902D01*
X0039779Y0039589D01*
X0039812Y0039276D01*
X0039852Y0038964D01*
X0039900Y0038654D01*
X0039956Y0038344D01*
X0040019Y0038036D01*
X0040090Y0037730D01*
X0040168Y0037426D01*
X0040253Y0037123D01*
X0040346Y0036823D01*
X0040446Y0036525D01*
X0040554Y0036229D01*
X0040668Y0035937D01*
X0040790Y0035647D01*
X0040919Y0035360D01*
X0041055Y0035076D01*
X0041197Y0034796D01*
X0041347Y0034520D01*
X0041503Y0034247D01*
X0041666Y0033978D01*
X0041835Y0033713D01*
X0042011Y0033453D01*
X0042193Y0033196D01*
X0042381Y0032945D01*
X0042575Y0032697D01*
X0042776Y0032455D01*
X0042982Y0032218D01*
X0043194Y0031986D01*
X0043412Y0031759D01*
X0043635Y0031537D01*
X0043863Y0031321D01*
X0044097Y0031111D01*
X0044335Y0030907D01*
X0044579Y0030708D01*
X0044827Y0030515D01*
X0044884Y0030590D01*
X0044637Y0030782D01*
X0044395Y0030979D01*
X0044158Y0031182D01*
X0043927Y0031391D01*
X0043700Y0031605D01*
X0043478Y0031825D01*
X0043262Y0032050D01*
X0043052Y0032281D01*
X0042847Y0032516D01*
X0042648Y0032757D01*
X0042455Y0033002D01*
X0042269Y0033252D01*
X0042088Y0033506D01*
X0041913Y0033765D01*
X0041745Y0034028D01*
X0041584Y0034295D01*
X0041429Y0034566D01*
X0041280Y0034840D01*
X0041139Y0035118D01*
X0041004Y0035400D01*
X0040876Y0035684D01*
X0040755Y0035972D01*
X0040641Y0036263D01*
X0040535Y0036556D01*
X0040435Y0036852D01*
X0040343Y0037150D01*
X0040258Y0037450D01*
X0040181Y0037753D01*
X0040111Y0038057D01*
X0040048Y0038362D01*
X0039993Y0038669D01*
X0039945Y0038978D01*
X0039905Y0039287D01*
X0039873Y0039598D01*
X0039848Y0039909D01*
X0039831Y0040220D01*
X0039821Y0040532D01*
X0039819Y0040844D01*
X0039825Y0041156D01*
X0039838Y0041468D01*
X0039859Y0041779D01*
X0039887Y0042090D01*
X0039924Y0042400D01*
X0039967Y0042709D01*
X0040018Y0043017D01*
X0040077Y0043324D01*
X0040143Y0043628D01*
X0040217Y0043932D01*
X0040298Y0044233D01*
X0040386Y0044532D01*
X0040482Y0044829D01*
X0040585Y0045124D01*
X0040695Y0045416D01*
X0040812Y0045705D01*
X0040936Y0045992D01*
X0041067Y0046275D01*
X0041205Y0046555D01*
X0041350Y0046831D01*
X0041502Y0047104D01*
X0041660Y0047373D01*
X0041825Y0047638D01*
X0041996Y0047899D01*
X0042173Y0048155D01*
X0042357Y0048408D01*
X0042547Y0048655D01*
X0042742Y0048898D01*
X0042944Y0049137D01*
X0043152Y0049370D01*
X0043365Y0049598D01*
X0043583Y0049820D01*
X0043807Y0050038D01*
X0044036Y0050249D01*
X0044271Y0050455D01*
X0044510Y0050656D01*
X0044754Y0050850D01*
X0045003Y0051038D01*
X0045256Y0051221D01*
X0045514Y0051397D01*
X0045776Y0051566D01*
X0046042Y0051729D01*
X0046312Y0051886D01*
X0046586Y0052036D01*
X0046863Y0052179D01*
X0047143Y0052316D01*
X0047427Y0052445D01*
X0047714Y0052568D01*
X0048004Y0052683D01*
X0048297Y0052791D01*
X0048592Y0052893D01*
X0048890Y0052987D01*
X0049190Y0053073D01*
X0049491Y0053152D01*
X0049795Y0053224D01*
X0050100Y0053289D01*
X0050407Y0053346D01*
X0050715Y0053395D01*
X0051025Y0053437D01*
X0051335Y0053471D01*
X0051646Y0053498D01*
X0051957Y0053517D01*
X0052269Y0053528D01*
X0052581Y0053532D01*
X0052893Y0053528D01*
X0053205Y0053517D01*
X0053516Y0053498D01*
X0053827Y0053471D01*
X0054137Y0053437D01*
X0054447Y0053395D01*
X0054755Y0053346D01*
X0055062Y0053289D01*
X0055367Y0053224D01*
X0055671Y0053152D01*
X0055972Y0053073D01*
X0056272Y0052987D01*
X0056570Y0052893D01*
X0056865Y0052791D01*
X0057158Y0052683D01*
X0057448Y0052568D01*
X0057735Y0052445D01*
X0058019Y0052316D01*
X0058299Y0052179D01*
X0058576Y0052036D01*
X0058850Y0051886D01*
X0059120Y0051729D01*
X0059386Y0051566D01*
X0059648Y0051397D01*
X0059906Y0051221D01*
X0060159Y0051038D01*
X0060408Y0050850D01*
X0060652Y0050656D01*
X0060891Y0050455D01*
X0061126Y0050249D01*
X0061355Y0050038D01*
X0061579Y0049820D01*
X0061797Y0049598D01*
X0062010Y0049370D01*
X0062218Y0049137D01*
X0062420Y0048898D01*
X0062615Y0048655D01*
X0062805Y0048408D01*
X0062989Y0048155D01*
X0063166Y0047899D01*
X0063337Y0047638D01*
X0063502Y0047373D01*
X0063660Y0047104D01*
X0063812Y0046831D01*
X0063957Y0046555D01*
X0064095Y0046275D01*
X0064226Y0045992D01*
X0064350Y0045705D01*
X0064467Y0045416D01*
X0064577Y0045124D01*
X0064680Y0044829D01*
X0064776Y0044532D01*
X0064864Y0044233D01*
X0064945Y0043932D01*
X0065019Y0043628D01*
X0065085Y0043324D01*
X0065144Y0043017D01*
X0065195Y0042709D01*
X0065238Y0042400D01*
X0065275Y0042090D01*
X0065303Y0041779D01*
X0065324Y0041468D01*
X0065337Y0041156D01*
X0065343Y0040844D01*
X0065341Y0040532D01*
X0065331Y0040220D01*
X0065314Y0039909D01*
X0065289Y0039598D01*
X0065257Y0039287D01*
X0065217Y0038978D01*
X0065169Y0038669D01*
X0065114Y0038362D01*
X0065051Y0038057D01*
X0064981Y0037753D01*
X0064904Y0037450D01*
X0064819Y0037150D01*
X0064727Y0036852D01*
X0064627Y0036556D01*
X0064521Y0036263D01*
X0064407Y0035972D01*
X0064286Y0035684D01*
X0064158Y0035400D01*
X0064023Y0035118D01*
X0063882Y0034840D01*
X0063733Y0034566D01*
X0063578Y0034295D01*
X0063417Y0034028D01*
X0063249Y0033765D01*
X0063074Y0033506D01*
X0062893Y0033252D01*
X0062707Y0033002D01*
X0062514Y0032757D01*
X0062315Y0032516D01*
X0062110Y0032281D01*
X0061900Y0032050D01*
X0061684Y0031825D01*
X0061462Y0031605D01*
X0061235Y0031391D01*
X0061004Y0031182D01*
X0060767Y0030979D01*
X0060525Y0030782D01*
X0060278Y0030590D01*
X0060222Y0030666D01*
X0060467Y0030856D01*
X0060707Y0031051D01*
X0060942Y0031253D01*
X0061172Y0031460D01*
X0061397Y0031673D01*
X0061617Y0031891D01*
X0061831Y0032115D01*
X0062040Y0032344D01*
X0062243Y0032577D01*
X0062441Y0032816D01*
X0062632Y0033059D01*
X0062818Y0033308D01*
X0062997Y0033560D01*
X0063170Y0033817D01*
X0063337Y0034078D01*
X0063498Y0034343D01*
X0063651Y0034612D01*
X0063799Y0034884D01*
X0063939Y0035160D01*
X0064073Y0035440D01*
X0064200Y0035722D01*
X0064320Y0036008D01*
X0064433Y0036296D01*
X0064539Y0036587D01*
X0064637Y0036881D01*
X0064729Y0037177D01*
X0064813Y0037475D01*
X0064890Y0037775D01*
X0064959Y0038077D01*
X0065022Y0038380D01*
X0065076Y0038685D01*
X0065124Y0038991D01*
X0065163Y0039299D01*
X0065195Y0039607D01*
X0065220Y0039915D01*
X0065237Y0040225D01*
X0065247Y0040534D01*
X0065249Y0040844D01*
X0065243Y0041154D01*
X0065230Y0041463D01*
X0065209Y0041772D01*
X0065181Y0042081D01*
X0065145Y0042388D01*
X0065102Y0042695D01*
X0065051Y0043001D01*
X0064993Y0043305D01*
X0064927Y0043608D01*
X0064854Y0043909D01*
X0064774Y0044208D01*
X0064686Y0044505D01*
X0064591Y0044800D01*
X0064489Y0045092D01*
X0064380Y0045382D01*
X0064263Y0045669D01*
X0064140Y0045953D01*
X0064010Y0046234D01*
X0063873Y0046512D01*
X0063729Y0046786D01*
X0063579Y0047057D01*
X0063422Y0047324D01*
X0063258Y0047587D01*
X0063088Y0047846D01*
X0062912Y0048101D01*
X0062730Y0048352D01*
X0062541Y0048597D01*
X0062347Y0048839D01*
X0062147Y0049075D01*
X0061941Y0049306D01*
X0061729Y0049533D01*
X0061512Y0049754D01*
X0061290Y0049969D01*
X0061063Y0050180D01*
X0060830Y0050384D01*
X0060592Y0050583D01*
X0060350Y0050776D01*
X0060103Y0050963D01*
X0059852Y0051144D01*
X0059596Y0051318D01*
X0059336Y0051487D01*
X0059072Y0051649D01*
X0058804Y0051804D01*
X0058532Y0051953D01*
X0058257Y0052095D01*
X0057978Y0052231D01*
X0057697Y0052359D01*
X0057412Y0052481D01*
X0057124Y0052595D01*
X0056833Y0052703D01*
X0056540Y0052803D01*
X0056245Y0052897D01*
X0055947Y0052983D01*
X0055648Y0053061D01*
X0055346Y0053132D01*
X0055043Y0053196D01*
X0054739Y0053253D01*
X0054433Y0053302D01*
X0054126Y0053343D01*
X0053818Y0053377D01*
X0053509Y0053404D01*
X0053200Y0053423D01*
X0052891Y0053434D01*
X0052581Y0053438D01*
X0052271Y0053434D01*
X0051962Y0053423D01*
X0051653Y0053404D01*
X0051344Y0053377D01*
X0051036Y0053343D01*
X0050729Y0053302D01*
X0050423Y0053253D01*
X0050119Y0053196D01*
X0049816Y0053132D01*
X0049514Y0053061D01*
X0049215Y0052983D01*
X0048917Y0052897D01*
X0048622Y0052803D01*
X0048329Y0052703D01*
X0048038Y0052595D01*
X0047750Y0052481D01*
X0047465Y0052359D01*
X0047184Y0052231D01*
X0046905Y0052095D01*
X0046630Y0051953D01*
X0046358Y0051804D01*
X0046090Y0051649D01*
X0045826Y0051487D01*
X0045566Y0051318D01*
X0045310Y0051144D01*
X0045059Y0050963D01*
X0044812Y0050776D01*
X0044570Y0050583D01*
X0044332Y0050384D01*
X0044099Y0050180D01*
X0043872Y0049969D01*
X0043650Y0049754D01*
X0043433Y0049533D01*
X0043221Y0049306D01*
X0043015Y0049075D01*
X0042815Y0048839D01*
X0042621Y0048597D01*
X0042432Y0048352D01*
X0042250Y0048101D01*
X0042074Y0047846D01*
X0041904Y0047587D01*
X0041740Y0047324D01*
X0041583Y0047057D01*
X0041433Y0046786D01*
X0041289Y0046512D01*
X0041152Y0046234D01*
X0041022Y0045953D01*
X0040899Y0045669D01*
X0040782Y0045382D01*
X0040673Y0045092D01*
X0040571Y0044800D01*
X0040476Y0044505D01*
X0040388Y0044208D01*
X0040308Y0043909D01*
X0040235Y0043608D01*
X0040169Y0043305D01*
X0040111Y0043001D01*
X0040060Y0042695D01*
X0040017Y0042388D01*
X0039981Y0042081D01*
X0039953Y0041772D01*
X0039932Y0041463D01*
X0039919Y0041154D01*
X0039913Y0040844D01*
X0039915Y0040534D01*
X0039925Y0040225D01*
X0039942Y0039915D01*
X0039967Y0039607D01*
X0039999Y0039299D01*
X0040038Y0038991D01*
X0040086Y0038685D01*
X0040140Y0038380D01*
X0040203Y0038077D01*
X0040272Y0037775D01*
X0040349Y0037475D01*
X0040433Y0037177D01*
X0040525Y0036881D01*
X0040623Y0036587D01*
X0040729Y0036296D01*
X0040842Y0036008D01*
X0040962Y0035722D01*
X0041089Y0035440D01*
X0041223Y0035160D01*
X0041363Y0034884D01*
X0041511Y0034612D01*
X0041664Y0034343D01*
X0041825Y0034078D01*
X0041992Y0033817D01*
X0042165Y0033560D01*
X0042344Y0033308D01*
X0042530Y0033059D01*
X0042721Y0032816D01*
X0042919Y0032577D01*
X0043122Y0032344D01*
X0043331Y0032115D01*
X0043545Y0031891D01*
X0043765Y0031673D01*
X0043990Y0031460D01*
X0044220Y0031253D01*
X0044455Y0031051D01*
X0044695Y0030856D01*
X0044940Y0030666D01*
X0044997Y0030741D01*
X0044754Y0030929D01*
X0044515Y0031124D01*
X0044282Y0031324D01*
X0044054Y0031529D01*
X0043830Y0031741D01*
X0043612Y0031957D01*
X0043399Y0032179D01*
X0043192Y0032406D01*
X0042990Y0032638D01*
X0042794Y0032875D01*
X0042604Y0033117D01*
X0042420Y0033363D01*
X0042242Y0033614D01*
X0042070Y0033869D01*
X0041905Y0034128D01*
X0041745Y0034391D01*
X0041593Y0034658D01*
X0041446Y0034928D01*
X0041307Y0035202D01*
X0041174Y0035479D01*
X0041048Y0035760D01*
X0040929Y0036043D01*
X0040817Y0036330D01*
X0040712Y0036619D01*
X0040614Y0036910D01*
X0040523Y0037204D01*
X0040440Y0037500D01*
X0040363Y0037797D01*
X0040294Y0038097D01*
X0040233Y0038398D01*
X0040178Y0038701D01*
X0040132Y0039005D01*
X0040092Y0039310D01*
X0040060Y0039615D01*
X0040036Y0039922D01*
X0040019Y0040229D01*
X0040009Y0040536D01*
X0040007Y0040844D01*
X0040013Y0041151D01*
X0040026Y0041458D01*
X0040046Y0041765D01*
X0040075Y0042071D01*
X0040110Y0042377D01*
X0040153Y0042681D01*
X0040204Y0042984D01*
X0040261Y0043286D01*
X0040327Y0043587D01*
X0040399Y0043886D01*
X0040479Y0044182D01*
X0040566Y0044477D01*
X0040660Y0044770D01*
X0040762Y0045060D01*
X0040870Y0045348D01*
X0040985Y0045633D01*
X0041108Y0045915D01*
X0041237Y0046194D01*
X0041373Y0046470D01*
X0041516Y0046742D01*
X0041665Y0047011D01*
X0041821Y0047276D01*
X0041983Y0047537D01*
X0042152Y0047794D01*
X0042327Y0048047D01*
X0042508Y0048295D01*
X0042695Y0048539D01*
X0042888Y0048779D01*
X0043086Y0049013D01*
X0043291Y0049243D01*
X0043501Y0049468D01*
X0043716Y0049687D01*
X0043937Y0049901D01*
X0044162Y0050110D01*
X0044393Y0050313D01*
X0044629Y0050510D01*
X0044870Y0050702D01*
X0045115Y0050887D01*
X0045364Y0051067D01*
X0045618Y0051240D01*
X0045876Y0051407D01*
X0046138Y0051568D01*
X0046404Y0051722D01*
X0046674Y0051870D01*
X0046947Y0052011D01*
X0047224Y0052146D01*
X0047503Y0052273D01*
X0047786Y0052394D01*
X0048072Y0052508D01*
X0048360Y0052614D01*
X0048651Y0052714D01*
X0048944Y0052807D01*
X0049240Y0052892D01*
X0049537Y0052970D01*
X0049836Y0053041D01*
X0050137Y0053104D01*
X0050439Y0053160D01*
X0050743Y0053209D01*
X0051048Y0053250D01*
X0051353Y0053284D01*
X0051659Y0053310D01*
X0051966Y0053329D01*
X0052274Y0053340D01*
X0052581Y0053344D01*
X0052888Y0053340D01*
X0053196Y0053329D01*
X0053503Y0053310D01*
X0053809Y0053284D01*
X0054114Y0053250D01*
X0054419Y0053209D01*
X0054723Y0053160D01*
X0055025Y0053104D01*
X0055326Y0053041D01*
X0055625Y0052970D01*
X0055922Y0052892D01*
X0056218Y0052807D01*
X0056511Y0052714D01*
X0056802Y0052614D01*
X0057090Y0052508D01*
X0057376Y0052394D01*
X0057659Y0052273D01*
X0057938Y0052146D01*
X0058215Y0052011D01*
X0058488Y0051870D01*
X0058758Y0051722D01*
X0059024Y0051568D01*
X0059286Y0051407D01*
X0059544Y0051240D01*
X0059798Y0051067D01*
X0060047Y0050887D01*
X0060292Y0050702D01*
X0060533Y0050510D01*
X0060769Y0050313D01*
X0061000Y0050110D01*
X0061225Y0049901D01*
X0061446Y0049687D01*
X0061661Y0049468D01*
X0061871Y0049243D01*
X0062076Y0049013D01*
X0062274Y0048779D01*
X0062467Y0048539D01*
X0062654Y0048295D01*
X0062835Y0048047D01*
X0063010Y0047794D01*
X0063179Y0047537D01*
X0063341Y0047276D01*
X0063497Y0047011D01*
X0063646Y0046742D01*
X0063789Y0046470D01*
X0063925Y0046194D01*
X0064054Y0045915D01*
X0064177Y0045633D01*
X0064292Y0045348D01*
X0064400Y0045060D01*
X0064502Y0044770D01*
X0064596Y0044477D01*
X0064683Y0044182D01*
X0064763Y0043886D01*
X0064835Y0043587D01*
X0064901Y0043286D01*
X0064958Y0042984D01*
X0065009Y0042681D01*
X0065052Y0042377D01*
X0065087Y0042071D01*
X0065116Y0041765D01*
X0065136Y0041458D01*
X0065149Y0041151D01*
X0065155Y0040844D01*
X0065153Y0040536D01*
X0065143Y0040229D01*
X0065126Y0039922D01*
X0065102Y0039615D01*
X0065070Y0039310D01*
X0065030Y0039005D01*
X0064984Y0038701D01*
X0064929Y0038398D01*
X0064868Y0038097D01*
X0064799Y0037797D01*
X0064722Y0037500D01*
X0064639Y0037204D01*
X0064548Y0036910D01*
X0064450Y0036619D01*
X0064345Y0036330D01*
X0064233Y0036043D01*
X0064114Y0035760D01*
X0063988Y0035479D01*
X0063855Y0035202D01*
X0063716Y0034928D01*
X0063569Y0034658D01*
X0063417Y0034391D01*
X0063257Y0034128D01*
X0063092Y0033869D01*
X0062920Y0033614D01*
X0062742Y0033363D01*
X0062558Y0033117D01*
X0062368Y0032875D01*
X0062172Y0032638D01*
X0061970Y0032406D01*
X0061763Y0032179D01*
X0061550Y0031957D01*
X0061332Y0031741D01*
X0061108Y0031529D01*
X0060880Y0031324D01*
X0060647Y0031124D01*
X0060408Y0030929D01*
X0060165Y0030741D01*
X0060109Y0030816D01*
X0060350Y0031003D01*
X0060587Y0031196D01*
X0060818Y0031395D01*
X0061045Y0031599D01*
X0061267Y0031808D01*
X0061483Y0032023D01*
X0061694Y0032244D01*
X0061900Y0032469D01*
X0062100Y0032699D01*
X0062295Y0032935D01*
X0062483Y0033174D01*
X0062666Y0033419D01*
X0062843Y0033668D01*
X0063013Y0033921D01*
X0063178Y0034178D01*
X0063336Y0034439D01*
X0063487Y0034704D01*
X0063632Y0034972D01*
X0063771Y0035244D01*
X0063903Y0035519D01*
X0064028Y0035798D01*
X0064146Y0036079D01*
X0064257Y0036363D01*
X0064361Y0036650D01*
X0064459Y0036939D01*
X0064549Y0037231D01*
X0064632Y0037524D01*
X0064707Y0037820D01*
X0064776Y0038117D01*
X0064837Y0038416D01*
X0064891Y0038717D01*
X0064937Y0039018D01*
X0064977Y0039321D01*
X0065008Y0039624D01*
X0065033Y0039929D01*
X0065049Y0040233D01*
X0065059Y0040538D01*
X0065061Y0040843D01*
X0065055Y0041148D01*
X0065042Y0041453D01*
X0065022Y0041758D01*
X0064994Y0042062D01*
X0064959Y0042365D01*
X0064916Y0042667D01*
X0064866Y0042968D01*
X0064809Y0043268D01*
X0064744Y0043566D01*
X0064672Y0043862D01*
X0064593Y0044157D01*
X0064506Y0044450D01*
X0064413Y0044740D01*
X0064312Y0045028D01*
X0064204Y0045314D01*
X0064090Y0045597D01*
X0063968Y0045877D01*
X0063840Y0046154D01*
X0063705Y0046427D01*
X0063564Y0046697D01*
X0063415Y0046964D01*
X0063261Y0047227D01*
X0063100Y0047486D01*
X0062932Y0047742D01*
X0062759Y0047993D01*
X0062579Y0048239D01*
X0062393Y0048481D01*
X0062202Y0048719D01*
X0062005Y0048952D01*
X0061802Y0049180D01*
X0061593Y0049403D01*
X0061380Y0049621D01*
X0061161Y0049833D01*
X0060937Y0050040D01*
X0060707Y0050242D01*
X0060473Y0050438D01*
X0060235Y0050628D01*
X0059991Y0050812D01*
X0059744Y0050990D01*
X0059492Y0051162D01*
X0059235Y0051328D01*
X0058975Y0051487D01*
X0058711Y0051641D01*
X0058444Y0051787D01*
X0058173Y0051927D01*
X0057898Y0052061D01*
X0057621Y0052187D01*
X0057340Y0052307D01*
X0057056Y0052420D01*
X0056770Y0052526D01*
X0056482Y0052625D01*
X0056191Y0052717D01*
X0055897Y0052801D01*
X0055602Y0052879D01*
X0055305Y0052949D01*
X0055007Y0053012D01*
X0054707Y0053068D01*
X0054405Y0053116D01*
X0054103Y0053157D01*
X0053800Y0053190D01*
X0053496Y0053216D01*
X0053191Y0053235D01*
X0052886Y0053246D01*
X0052581Y0053250D01*
X0052276Y0053246D01*
X0051971Y0053235D01*
X0051666Y0053216D01*
X0051362Y0053190D01*
X0051059Y0053157D01*
X0050757Y0053116D01*
X0050455Y0053068D01*
X0050155Y0053012D01*
X0049857Y0052949D01*
X0049560Y0052879D01*
X0049265Y0052801D01*
X0048971Y0052717D01*
X0048680Y0052625D01*
X0048392Y0052526D01*
X0048106Y0052420D01*
X0047822Y0052307D01*
X0047541Y0052187D01*
X0047264Y0052061D01*
X0046989Y0051927D01*
X0046718Y0051787D01*
X0046451Y0051641D01*
X0046187Y0051487D01*
X0045927Y0051328D01*
X0045670Y0051162D01*
X0045418Y0050990D01*
X0045171Y0050812D01*
X0044927Y0050628D01*
X0044689Y0050438D01*
X0044455Y0050242D01*
X0044225Y0050040D01*
X0044001Y0049833D01*
X0043782Y0049621D01*
X0043569Y0049403D01*
X0043360Y0049180D01*
X0043157Y0048952D01*
X0042960Y0048719D01*
X0042769Y0048481D01*
X0042583Y0048239D01*
X0042403Y0047993D01*
X0042230Y0047742D01*
X0042062Y0047486D01*
X0041901Y0047227D01*
X0041747Y0046964D01*
X0041598Y0046697D01*
X0041457Y0046427D01*
X0041322Y0046154D01*
X0041194Y0045877D01*
X0041072Y0045597D01*
X0040958Y0045314D01*
X0040850Y0045028D01*
X0040749Y0044740D01*
X0040656Y0044450D01*
X0040569Y0044157D01*
X0040490Y0043862D01*
X0040418Y0043566D01*
X0040353Y0043268D01*
X0040296Y0042968D01*
X0040246Y0042667D01*
X0040203Y0042365D01*
X0040168Y0042062D01*
X0040140Y0041758D01*
X0040120Y0041453D01*
X0040107Y0041148D01*
X0040101Y0040843D01*
X0040103Y0040538D01*
X0040113Y0040233D01*
X0040129Y0039929D01*
X0040154Y0039624D01*
X0040185Y0039321D01*
X0040225Y0039018D01*
X0040271Y0038717D01*
X0040325Y0038416D01*
X0040386Y0038117D01*
X0040455Y0037820D01*
X0040530Y0037524D01*
X0040613Y0037231D01*
X0040703Y0036939D01*
X0040801Y0036650D01*
X0040905Y0036363D01*
X0041016Y0036079D01*
X0041134Y0035798D01*
X0041259Y0035519D01*
X0041391Y0035244D01*
X0041530Y0034972D01*
X0041675Y0034704D01*
X0041826Y0034439D01*
X0041984Y0034178D01*
X0042149Y0033921D01*
X0042319Y0033668D01*
X0042496Y0033419D01*
X0042679Y0033174D01*
X0042867Y0032935D01*
X0043062Y0032699D01*
X0043262Y0032469D01*
X0043468Y0032244D01*
X0043679Y0032023D01*
X0043895Y0031808D01*
X0044117Y0031599D01*
X0044344Y0031395D01*
X0044575Y0031196D01*
X0044812Y0031003D01*
X0045053Y0030816D01*
X0045109Y0030891D01*
X0044870Y0031077D01*
X0044635Y0031268D01*
X0044406Y0031465D01*
X0044181Y0031668D01*
X0043960Y0031876D01*
X0043746Y0032090D01*
X0043536Y0032308D01*
X0043332Y0032532D01*
X0043133Y0032760D01*
X0042940Y0032994D01*
X0042753Y0033232D01*
X0042572Y0033474D01*
X0042396Y0033721D01*
X0042227Y0033972D01*
X0042064Y0034228D01*
X0041907Y0034487D01*
X0041757Y0034750D01*
X0041613Y0035016D01*
X0041475Y0035286D01*
X0041344Y0035559D01*
X0041220Y0035835D01*
X0041103Y0036115D01*
X0040993Y0036397D01*
X0040889Y0036681D01*
X0040793Y0036968D01*
X0040703Y0037258D01*
X0040621Y0037549D01*
X0040546Y0037842D01*
X0040478Y0038138D01*
X0040417Y0038434D01*
X0040364Y0038732D01*
X0040318Y0039032D01*
X0040279Y0039332D01*
X0040247Y0039633D01*
X0040223Y0039935D01*
X0040206Y0040238D01*
X0040197Y0040540D01*
X0040195Y0040843D01*
X0040201Y0041146D01*
X0040214Y0041448D01*
X0040234Y0041751D01*
X0040262Y0042052D01*
X0040297Y0042353D01*
X0040339Y0042653D01*
X0040389Y0042952D01*
X0040446Y0043249D01*
X0040510Y0043545D01*
X0040581Y0043839D01*
X0040660Y0044132D01*
X0040746Y0044422D01*
X0040839Y0044711D01*
X0040938Y0044996D01*
X0041045Y0045280D01*
X0041159Y0045560D01*
X0041279Y0045838D01*
X0041407Y0046113D01*
X0041541Y0046385D01*
X0041681Y0046653D01*
X0041828Y0046918D01*
X0041982Y0047179D01*
X0042142Y0047436D01*
X0042308Y0047689D01*
X0042480Y0047938D01*
X0042658Y0048183D01*
X0042843Y0048424D01*
X0043033Y0048659D01*
X0043228Y0048890D01*
X0043430Y0049117D01*
X0043636Y0049338D01*
X0043849Y0049554D01*
X0044066Y0049765D01*
X0044288Y0049970D01*
X0044516Y0050170D01*
X0044748Y0050365D01*
X0044985Y0050553D01*
X0045227Y0050736D01*
X0045472Y0050913D01*
X0045723Y0051084D01*
X0045977Y0051248D01*
X0046235Y0051407D01*
X0046497Y0051559D01*
X0046762Y0051704D01*
X0047031Y0051843D01*
X0047304Y0051976D01*
X0047579Y0052101D01*
X0047858Y0052220D01*
X0048139Y0052332D01*
X0048423Y0052437D01*
X0048710Y0052536D01*
X0048999Y0052627D01*
X0049290Y0052711D01*
X0049583Y0052788D01*
X0049877Y0052857D01*
X0050174Y0052920D01*
X0050471Y0052975D01*
X0050770Y0053023D01*
X0051070Y0053064D01*
X0051372Y0053097D01*
X0051673Y0053123D01*
X0051976Y0053141D01*
X0052278Y0053152D01*
X0052581Y0053156D01*
X0052884Y0053152D01*
X0053186Y0053141D01*
X0053489Y0053123D01*
X0053790Y0053097D01*
X0054092Y0053064D01*
X0054392Y0053023D01*
X0054691Y0052975D01*
X0054988Y0052920D01*
X0055285Y0052857D01*
X0055579Y0052788D01*
X0055872Y0052711D01*
X0056163Y0052627D01*
X0056452Y0052536D01*
X0056739Y0052437D01*
X0057023Y0052332D01*
X0057304Y0052220D01*
X0057583Y0052101D01*
X0057858Y0051976D01*
X0058131Y0051843D01*
X0058400Y0051704D01*
X0058665Y0051559D01*
X0058927Y0051407D01*
X0059185Y0051248D01*
X0059439Y0051084D01*
X0059690Y0050913D01*
X0059935Y0050736D01*
X0060177Y0050553D01*
X0060414Y0050365D01*
X0060646Y0050170D01*
X0060874Y0049970D01*
X0061096Y0049765D01*
X0061313Y0049554D01*
X0061526Y0049338D01*
X0061732Y0049117D01*
X0061934Y0048890D01*
X0062129Y0048659D01*
X0062319Y0048424D01*
X0062504Y0048183D01*
X0062682Y0047938D01*
X0062854Y0047689D01*
X0063020Y0047436D01*
X0063180Y0047179D01*
X0063334Y0046918D01*
X0063481Y0046653D01*
X0063621Y0046385D01*
X0063755Y0046113D01*
X0063883Y0045838D01*
X0064003Y0045560D01*
X0064117Y0045280D01*
X0064224Y0044996D01*
X0064323Y0044711D01*
X0064416Y0044422D01*
X0064502Y0044132D01*
X0064581Y0043839D01*
X0064652Y0043545D01*
X0064716Y0043249D01*
X0064773Y0042952D01*
X0064823Y0042653D01*
X0064865Y0042353D01*
X0064900Y0042052D01*
X0064928Y0041751D01*
X0064948Y0041448D01*
X0064961Y0041146D01*
X0064967Y0040843D01*
X0064965Y0040540D01*
X0064956Y0040238D01*
X0064939Y0039935D01*
X0064915Y0039633D01*
X0064883Y0039332D01*
X0064844Y0039032D01*
X0064798Y0038732D01*
X0064745Y0038434D01*
X0064684Y0038138D01*
X0064616Y0037842D01*
X0064541Y0037549D01*
X0064459Y0037258D01*
X0064369Y0036968D01*
X0064273Y0036681D01*
X0064169Y0036397D01*
X0064059Y0036115D01*
X0063942Y0035835D01*
X0063818Y0035559D01*
X0063687Y0035286D01*
X0063549Y0035016D01*
X0063405Y0034750D01*
X0063255Y0034487D01*
X0063098Y0034228D01*
X0062935Y0033972D01*
X0062766Y0033721D01*
X0062590Y0033474D01*
X0062409Y0033232D01*
X0062222Y0032994D01*
X0062029Y0032760D01*
X0061830Y0032532D01*
X0061626Y0032308D01*
X0061416Y0032090D01*
X0061202Y0031876D01*
X0060981Y0031668D01*
X0060756Y0031465D01*
X0060527Y0031268D01*
X0060292Y0031077D01*
X0060053Y0030891D01*
X0059996Y0030966D01*
X0060234Y0031151D01*
X0060466Y0031341D01*
X0060695Y0031536D01*
X0060918Y0031737D01*
X0061136Y0031944D01*
X0061350Y0032156D01*
X0061558Y0032373D01*
X0061760Y0032595D01*
X0061957Y0032822D01*
X0062149Y0033053D01*
X0062335Y0033289D01*
X0062515Y0033530D01*
X0062689Y0033775D01*
X0062857Y0034024D01*
X0063019Y0034278D01*
X0063174Y0034535D01*
X0063323Y0034796D01*
X0063466Y0035060D01*
X0063603Y0035328D01*
X0063732Y0035599D01*
X0063855Y0035873D01*
X0063972Y0036150D01*
X0064081Y0036430D01*
X0064184Y0036713D01*
X0064280Y0036997D01*
X0064368Y0037285D01*
X0064450Y0037574D01*
X0064525Y0037865D01*
X0064592Y0038158D01*
X0064653Y0038452D01*
X0064706Y0038748D01*
X0064751Y0039045D01*
X0064790Y0039343D01*
X0064821Y0039642D01*
X0064845Y0039942D01*
X0064862Y0040242D01*
X0064871Y0040542D01*
X0064873Y0040843D01*
X0064867Y0041143D01*
X0064855Y0041444D01*
X0064834Y0041743D01*
X0064807Y0042043D01*
X0064772Y0042341D01*
X0064730Y0042639D01*
X0064681Y0042935D01*
X0064624Y0043230D01*
X0064560Y0043524D01*
X0064490Y0043816D01*
X0064412Y0044106D01*
X0064326Y0044395D01*
X0064234Y0044681D01*
X0064135Y0044965D01*
X0064029Y0045246D01*
X0063916Y0045524D01*
X0063797Y0045800D01*
X0063670Y0046073D01*
X0063537Y0046342D01*
X0063398Y0046608D01*
X0063252Y0046871D01*
X0063100Y0047130D01*
X0062941Y0047386D01*
X0062776Y0047637D01*
X0062605Y0047884D01*
X0062428Y0048127D01*
X0062245Y0048366D01*
X0062057Y0048600D01*
X0061863Y0048829D01*
X0061663Y0049053D01*
X0061458Y0049273D01*
X0061247Y0049487D01*
X0061031Y0049697D01*
X0060811Y0049901D01*
X0060585Y0050099D01*
X0060354Y0050292D01*
X0060119Y0050479D01*
X0059880Y0050661D01*
X0059636Y0050836D01*
X0059387Y0051006D01*
X0059135Y0051169D01*
X0058879Y0051326D01*
X0058619Y0051477D01*
X0058355Y0051621D01*
X0058088Y0051759D01*
X0057818Y0051891D01*
X0057545Y0052015D01*
X0057268Y0052133D01*
X0056989Y0052244D01*
X0056707Y0052349D01*
X0056423Y0052446D01*
X0056136Y0052537D01*
X0055847Y0052620D01*
X0055557Y0052696D01*
X0055264Y0052766D01*
X0054970Y0052828D01*
X0054675Y0052882D01*
X0054378Y0052930D01*
X0054080Y0052970D01*
X0053781Y0053003D01*
X0053482Y0053029D01*
X0053182Y0053047D01*
X0052882Y0053058D01*
X0052581Y0053062D01*
X0052280Y0053058D01*
X0051980Y0053047D01*
X0051680Y0053029D01*
X0051381Y0053003D01*
X0051082Y0052970D01*
X0050784Y0052930D01*
X0050487Y0052882D01*
X0050192Y0052828D01*
X0049898Y0052766D01*
X0049605Y0052696D01*
X0049315Y0052620D01*
X0049026Y0052537D01*
X0048739Y0052446D01*
X0048455Y0052349D01*
X0048173Y0052244D01*
X0047894Y0052133D01*
X0047617Y0052015D01*
X0047344Y0051891D01*
X0047074Y0051759D01*
X0046807Y0051621D01*
X0046543Y0051477D01*
X0046283Y0051326D01*
X0046027Y0051169D01*
X0045775Y0051006D01*
X0045526Y0050836D01*
X0045282Y0050661D01*
X0045043Y0050479D01*
X0044808Y0050292D01*
X0044577Y0050099D01*
X0044351Y0049901D01*
X0044131Y0049697D01*
X0043915Y0049487D01*
X0043704Y0049273D01*
X0043499Y0049053D01*
X0043299Y0048829D01*
X0043105Y0048600D01*
X0042917Y0048366D01*
X0042734Y0048127D01*
X0042557Y0047884D01*
X0042386Y0047637D01*
X0042221Y0047386D01*
X0042062Y0047130D01*
X0041910Y0046871D01*
X0041764Y0046608D01*
X0041625Y0046342D01*
X0041492Y0046073D01*
X0041365Y0045800D01*
X0041246Y0045524D01*
X0041133Y0045246D01*
X0041027Y0044965D01*
X0040928Y0044681D01*
X0040836Y0044395D01*
X0040750Y0044106D01*
X0040672Y0043816D01*
X0040602Y0043524D01*
X0040538Y0043230D01*
X0040481Y0042935D01*
X0040432Y0042639D01*
X0040390Y0042341D01*
X0040355Y0042043D01*
X0040328Y0041743D01*
X0040307Y0041444D01*
X0040295Y0041143D01*
X0040289Y0040843D01*
X0040291Y0040542D01*
X0040300Y0040242D01*
X0040317Y0039942D01*
X0040341Y0039642D01*
X0040372Y0039343D01*
X0040411Y0039045D01*
X0040456Y0038748D01*
X0040509Y0038452D01*
X0040570Y0038158D01*
X0040637Y0037865D01*
X0040712Y0037574D01*
X0040794Y0037285D01*
X0040882Y0036997D01*
X0040978Y0036713D01*
X0041081Y0036430D01*
X0041190Y0036150D01*
X0041307Y0035873D01*
X0041430Y0035599D01*
X0041559Y0035328D01*
X0041696Y0035060D01*
X0041839Y0034796D01*
X0041988Y0034535D01*
X0042143Y0034278D01*
X0042305Y0034024D01*
X0042473Y0033775D01*
X0042647Y0033530D01*
X0042827Y0033289D01*
X0043013Y0033053D01*
X0043205Y0032822D01*
X0043402Y0032595D01*
X0043604Y0032373D01*
X0043812Y0032156D01*
X0044026Y0031944D01*
X0044244Y0031737D01*
X0044467Y0031536D01*
X0044696Y0031341D01*
X0044928Y0031151D01*
X0045166Y0030966D01*
X0045222Y0031042D01*
X0044987Y0031224D01*
X0044756Y0031413D01*
X0044529Y0031607D01*
X0044307Y0031807D01*
X0044091Y0032012D01*
X0043879Y0032222D01*
X0043673Y0032437D01*
X0043472Y0032657D01*
X0043276Y0032883D01*
X0043086Y0033112D01*
X0042902Y0033347D01*
X0042723Y0033586D01*
X0042550Y0033829D01*
X0042384Y0034076D01*
X0042223Y0034328D01*
X0042069Y0034583D01*
X0041921Y0034842D01*
X0041779Y0035104D01*
X0041644Y0035370D01*
X0041515Y0035639D01*
X0041393Y0035911D01*
X0041277Y0036186D01*
X0041168Y0036464D01*
X0041067Y0036744D01*
X0040972Y0037027D01*
X0040884Y0037312D01*
X0040803Y0037599D01*
X0040728Y0037887D01*
X0040662Y0038178D01*
X0040602Y0038470D01*
X0040549Y0038764D01*
X0040504Y0039059D01*
X0040465Y0039354D01*
X0040434Y0039651D01*
X0040411Y0039948D01*
X0040394Y0040246D01*
X0040385Y0040544D01*
X0040383Y0040842D01*
X0040389Y0041141D01*
X0040401Y0041439D01*
X0040421Y0041736D01*
X0040449Y0042033D01*
X0040483Y0042329D01*
X0040525Y0042625D01*
X0040574Y0042919D01*
X0040630Y0043212D01*
X0040693Y0043503D01*
X0040764Y0043793D01*
X0040841Y0044081D01*
X0040925Y0044367D01*
X0041017Y0044651D01*
X0041115Y0044933D01*
X0041220Y0045212D01*
X0041332Y0045488D01*
X0041451Y0045762D01*
X0041576Y0046032D01*
X0041708Y0046300D01*
X0041847Y0046564D01*
X0041992Y0046825D01*
X0042143Y0047082D01*
X0042300Y0047335D01*
X0042464Y0047584D01*
X0042634Y0047830D01*
X0042809Y0048071D01*
X0042991Y0048308D01*
X0043178Y0048540D01*
X0043370Y0048767D01*
X0043569Y0048990D01*
X0043772Y0049208D01*
X0043981Y0049421D01*
X0044195Y0049629D01*
X0044415Y0049831D01*
X0044638Y0050028D01*
X0044867Y0050219D01*
X0045101Y0050405D01*
X0045338Y0050585D01*
X0045580Y0050759D01*
X0045827Y0050927D01*
X0046077Y0051089D01*
X0046331Y0051245D01*
X0046589Y0051395D01*
X0046851Y0051538D01*
X0047116Y0051675D01*
X0047384Y0051806D01*
X0047655Y0051929D01*
X0047930Y0052046D01*
X0048207Y0052157D01*
X0048487Y0052260D01*
X0048769Y0052357D01*
X0049053Y0052447D01*
X0049340Y0052529D01*
X0049628Y0052605D01*
X0049918Y0052674D01*
X0050210Y0052735D01*
X0050503Y0052790D01*
X0050798Y0052837D01*
X0051093Y0052877D01*
X0051390Y0052910D01*
X0051687Y0052935D01*
X0051985Y0052953D01*
X0052283Y0052964D01*
X0052581Y0052968D01*
X0052879Y0052964D01*
X0053177Y0052953D01*
X0053475Y0052935D01*
X0053772Y0052910D01*
X0054069Y0052877D01*
X0054364Y0052837D01*
X0054659Y0052790D01*
X0054952Y0052735D01*
X0055244Y0052674D01*
X0055534Y0052605D01*
X0055822Y0052529D01*
X0056109Y0052447D01*
X0056393Y0052357D01*
X0056675Y0052260D01*
X0056955Y0052157D01*
X0057232Y0052046D01*
X0057507Y0051929D01*
X0057778Y0051806D01*
X0058046Y0051675D01*
X0058311Y0051538D01*
X0058573Y0051395D01*
X0058831Y0051245D01*
X0059085Y0051089D01*
X0059335Y0050927D01*
X0059582Y0050759D01*
X0059824Y0050585D01*
X0060061Y0050405D01*
X0060295Y0050219D01*
X0060524Y0050028D01*
X0060747Y0049831D01*
X0060967Y0049629D01*
X0061181Y0049421D01*
X0061390Y0049208D01*
X0061593Y0048990D01*
X0061792Y0048767D01*
X0061984Y0048540D01*
X0062171Y0048308D01*
X0062353Y0048071D01*
X0062528Y0047830D01*
X0062698Y0047584D01*
X0062862Y0047335D01*
X0063019Y0047082D01*
X0063170Y0046825D01*
X0063315Y0046564D01*
X0063454Y0046300D01*
X0063586Y0046032D01*
X0063711Y0045762D01*
X0063830Y0045488D01*
X0063942Y0045212D01*
X0064047Y0044933D01*
X0064145Y0044651D01*
X0064237Y0044367D01*
X0064321Y0044081D01*
X0064398Y0043793D01*
X0064469Y0043503D01*
X0064532Y0043212D01*
X0064588Y0042919D01*
X0064637Y0042625D01*
X0064679Y0042329D01*
X0064713Y0042033D01*
X0064741Y0041736D01*
X0064761Y0041439D01*
X0064773Y0041141D01*
X0064779Y0040842D01*
X0064777Y0040544D01*
X0064768Y0040246D01*
X0064751Y0039948D01*
X0064728Y0039651D01*
X0064697Y0039354D01*
X0064658Y0039059D01*
X0064613Y0038764D01*
X0064560Y0038470D01*
X0064500Y0038178D01*
X0064434Y0037887D01*
X0064359Y0037599D01*
X0064278Y0037312D01*
X0064190Y0037027D01*
X0064095Y0036744D01*
X0063994Y0036464D01*
X0063885Y0036186D01*
X0063769Y0035911D01*
X0063647Y0035639D01*
X0063518Y0035370D01*
X0063383Y0035104D01*
X0063241Y0034842D01*
X0063093Y0034583D01*
X0062939Y0034328D01*
X0062778Y0034076D01*
X0062612Y0033829D01*
X0062439Y0033586D01*
X0062260Y0033347D01*
X0062076Y0033112D01*
X0061886Y0032883D01*
X0061690Y0032657D01*
X0061489Y0032437D01*
X0061283Y0032222D01*
X0061071Y0032012D01*
X0060855Y0031807D01*
X0060633Y0031607D01*
X0060406Y0031413D01*
X0060175Y0031224D01*
X0059940Y0031042D01*
X0059883Y0031117D01*
X0060117Y0031298D01*
X0060346Y0031485D01*
X0060571Y0031678D01*
X0060791Y0031876D01*
X0061006Y0032079D01*
X0061216Y0032288D01*
X0061421Y0032502D01*
X0061620Y0032720D01*
X0061814Y0032944D01*
X0062003Y0033172D01*
X0062186Y0033404D01*
X0062363Y0033641D01*
X0062534Y0033883D01*
X0062700Y0034128D01*
X0062859Y0034377D01*
X0063012Y0034631D01*
X0063159Y0034887D01*
X0063300Y0035148D01*
X0063434Y0035412D01*
X0063562Y0035679D01*
X0063683Y0035949D01*
X0063798Y0036221D01*
X0063906Y0036497D01*
X0064007Y0036775D01*
X0064101Y0037056D01*
X0064188Y0037338D01*
X0064269Y0037623D01*
X0064342Y0037910D01*
X0064409Y0038198D01*
X0064468Y0038488D01*
X0064520Y0038780D01*
X0064565Y0039072D01*
X0064603Y0039366D01*
X0064634Y0039660D01*
X0064658Y0039955D01*
X0064674Y0040250D01*
X0064683Y0040546D01*
X0064685Y0040842D01*
X0064679Y0041138D01*
X0064667Y0041434D01*
X0064647Y0041729D01*
X0064620Y0042024D01*
X0064586Y0042318D01*
X0064544Y0042611D01*
X0064496Y0042903D01*
X0064440Y0043193D01*
X0064377Y0043482D01*
X0064307Y0043770D01*
X0064230Y0044056D01*
X0064147Y0044340D01*
X0064056Y0044621D01*
X0063958Y0044901D01*
X0063854Y0045178D01*
X0063743Y0045452D01*
X0063625Y0045723D01*
X0063501Y0045992D01*
X0063370Y0046257D01*
X0063232Y0046519D01*
X0063089Y0046778D01*
X0062939Y0047033D01*
X0062782Y0047285D01*
X0062620Y0047532D01*
X0062452Y0047775D01*
X0062277Y0048015D01*
X0062097Y0048250D01*
X0061912Y0048480D01*
X0061720Y0048706D01*
X0061524Y0048927D01*
X0061322Y0049143D01*
X0061114Y0049354D01*
X0060902Y0049560D01*
X0060684Y0049761D01*
X0060462Y0049957D01*
X0060235Y0050147D01*
X0060004Y0050331D01*
X0059768Y0050509D01*
X0059528Y0050682D01*
X0059283Y0050849D01*
X0059035Y0051010D01*
X0058782Y0051165D01*
X0058526Y0051313D01*
X0058267Y0051455D01*
X0058004Y0051591D01*
X0057738Y0051721D01*
X0057469Y0051843D01*
X0057196Y0051960D01*
X0056921Y0052069D01*
X0056644Y0052172D01*
X0056364Y0052268D01*
X0056082Y0052357D01*
X0055797Y0052439D01*
X0055511Y0052514D01*
X0055223Y0052582D01*
X0054934Y0052643D01*
X0054643Y0052697D01*
X0054350Y0052744D01*
X0054057Y0052784D01*
X0053763Y0052816D01*
X0053468Y0052841D01*
X0053173Y0052860D01*
X0052877Y0052870D01*
X0052581Y0052874D01*
X0052285Y0052870D01*
X0051989Y0052860D01*
X0051694Y0052841D01*
X0051399Y0052816D01*
X0051105Y0052784D01*
X0050812Y0052744D01*
X0050519Y0052697D01*
X0050228Y0052643D01*
X0049939Y0052582D01*
X0049651Y0052514D01*
X0049365Y0052439D01*
X0049080Y0052357D01*
X0048798Y0052268D01*
X0048518Y0052172D01*
X0048241Y0052069D01*
X0047966Y0051960D01*
X0047693Y0051843D01*
X0047424Y0051721D01*
X0047158Y0051591D01*
X0046895Y0051455D01*
X0046636Y0051313D01*
X0046380Y0051165D01*
X0046127Y0051010D01*
X0045879Y0050849D01*
X0045634Y0050682D01*
X0045394Y0050509D01*
X0045158Y0050331D01*
X0044927Y0050147D01*
X0044700Y0049957D01*
X0044478Y0049761D01*
X0044260Y0049560D01*
X0044048Y0049354D01*
X0043840Y0049143D01*
X0043638Y0048927D01*
X0043442Y0048706D01*
X0043250Y0048480D01*
X0043065Y0048250D01*
X0042885Y0048015D01*
X0042710Y0047775D01*
X0042542Y0047532D01*
X0042380Y0047285D01*
X0042223Y0047033D01*
X0042073Y0046778D01*
X0041930Y0046519D01*
X0041792Y0046257D01*
X0041661Y0045992D01*
X0041537Y0045723D01*
X0041419Y0045452D01*
X0041308Y0045178D01*
X0041204Y0044901D01*
X0041106Y0044621D01*
X0041015Y0044340D01*
X0040932Y0044056D01*
X0040855Y0043770D01*
X0040785Y0043482D01*
X0040722Y0043193D01*
X0040666Y0042903D01*
X0040618Y0042611D01*
X0040576Y0042318D01*
X0040542Y0042024D01*
X0040515Y0041729D01*
X0040495Y0041434D01*
X0040483Y0041138D01*
X0040477Y0040842D01*
X0040479Y0040546D01*
X0040488Y0040250D01*
X0040504Y0039955D01*
X0040528Y0039660D01*
X0040559Y0039366D01*
X0040597Y0039072D01*
X0040642Y0038780D01*
X0040694Y0038488D01*
X0040753Y0038198D01*
X0040820Y0037910D01*
X0040893Y0037623D01*
X0040974Y0037338D01*
X0041061Y0037056D01*
X0041155Y0036775D01*
X0041256Y0036497D01*
X0041364Y0036221D01*
X0041479Y0035949D01*
X0041600Y0035679D01*
X0041728Y0035412D01*
X0041862Y0035148D01*
X0042003Y0034887D01*
X0042150Y0034631D01*
X0042303Y0034377D01*
X0042462Y0034128D01*
X0042628Y0033883D01*
X0042799Y0033641D01*
X0042976Y0033404D01*
X0043159Y0033172D01*
X0043348Y0032944D01*
X0043542Y0032720D01*
X0043741Y0032502D01*
X0043946Y0032288D01*
X0044156Y0032079D01*
X0044371Y0031876D01*
X0044591Y0031678D01*
X0044816Y0031485D01*
X0045045Y0031298D01*
X0045279Y0031117D01*
D16*
X0042581Y0040770D02*
X0042584Y0041015D01*
X0042593Y0041261D01*
X0042608Y0041506D01*
X0042629Y0041750D01*
X0042656Y0041994D01*
X0042689Y0042237D01*
X0042728Y0042480D01*
X0042773Y0042721D01*
X0042824Y0042961D01*
X0042881Y0043200D01*
X0042943Y0043437D01*
X0043012Y0043673D01*
X0043086Y0043907D01*
X0043166Y0044139D01*
X0043251Y0044369D01*
X0043342Y0044597D01*
X0043439Y0044822D01*
X0043541Y0045046D01*
X0043649Y0045266D01*
X0043762Y0045484D01*
X0043880Y0045699D01*
X0044004Y0045911D01*
X0044132Y0046120D01*
X0044266Y0046326D01*
X0044405Y0046528D01*
X0044549Y0046727D01*
X0044698Y0046922D01*
X0044851Y0047114D01*
X0045009Y0047302D01*
X0045171Y0047486D01*
X0045339Y0047665D01*
X0045510Y0047841D01*
X0045686Y0048012D01*
X0045865Y0048180D01*
X0046049Y0048342D01*
X0046237Y0048500D01*
X0046429Y0048653D01*
X0046624Y0048802D01*
X0046823Y0048946D01*
X0047025Y0049085D01*
X0047231Y0049219D01*
X0047440Y0049347D01*
X0047652Y0049471D01*
X0047867Y0049589D01*
X0048085Y0049702D01*
X0048305Y0049810D01*
X0048529Y0049912D01*
X0048754Y0050009D01*
X0048982Y0050100D01*
X0049212Y0050185D01*
X0049444Y0050265D01*
X0049678Y0050339D01*
X0049914Y0050408D01*
X0050151Y0050470D01*
X0050390Y0050527D01*
X0050630Y0050578D01*
X0050871Y0050623D01*
X0051114Y0050662D01*
X0051357Y0050695D01*
X0051601Y0050722D01*
X0051845Y0050743D01*
X0052090Y0050758D01*
X0052336Y0050767D01*
X0052581Y0050770D01*
X0052826Y0050767D01*
X0053072Y0050758D01*
X0053317Y0050743D01*
X0053561Y0050722D01*
X0053805Y0050695D01*
X0054048Y0050662D01*
X0054291Y0050623D01*
X0054532Y0050578D01*
X0054772Y0050527D01*
X0055011Y0050470D01*
X0055248Y0050408D01*
X0055484Y0050339D01*
X0055718Y0050265D01*
X0055950Y0050185D01*
X0056180Y0050100D01*
X0056408Y0050009D01*
X0056633Y0049912D01*
X0056857Y0049810D01*
X0057077Y0049702D01*
X0057295Y0049589D01*
X0057510Y0049471D01*
X0057722Y0049347D01*
X0057931Y0049219D01*
X0058137Y0049085D01*
X0058339Y0048946D01*
X0058538Y0048802D01*
X0058733Y0048653D01*
X0058925Y0048500D01*
X0059113Y0048342D01*
X0059297Y0048180D01*
X0059476Y0048012D01*
X0059652Y0047841D01*
X0059823Y0047665D01*
X0059991Y0047486D01*
X0060153Y0047302D01*
X0060311Y0047114D01*
X0060464Y0046922D01*
X0060613Y0046727D01*
X0060757Y0046528D01*
X0060896Y0046326D01*
X0061030Y0046120D01*
X0061158Y0045911D01*
X0061282Y0045699D01*
X0061400Y0045484D01*
X0061513Y0045266D01*
X0061621Y0045046D01*
X0061723Y0044822D01*
X0061820Y0044597D01*
X0061911Y0044369D01*
X0061996Y0044139D01*
X0062076Y0043907D01*
X0062150Y0043673D01*
X0062219Y0043437D01*
X0062281Y0043200D01*
X0062338Y0042961D01*
X0062389Y0042721D01*
X0062434Y0042480D01*
X0062473Y0042237D01*
X0062506Y0041994D01*
X0062533Y0041750D01*
X0062554Y0041506D01*
X0062569Y0041261D01*
X0062578Y0041015D01*
X0062581Y0040770D01*
X0062578Y0040525D01*
X0062569Y0040279D01*
X0062554Y0040034D01*
X0062533Y0039790D01*
X0062506Y0039546D01*
X0062473Y0039303D01*
X0062434Y0039060D01*
X0062389Y0038819D01*
X0062338Y0038579D01*
X0062281Y0038340D01*
X0062219Y0038103D01*
X0062150Y0037867D01*
X0062076Y0037633D01*
X0061996Y0037401D01*
X0061911Y0037171D01*
X0061820Y0036943D01*
X0061723Y0036718D01*
X0061621Y0036494D01*
X0061513Y0036274D01*
X0061400Y0036056D01*
X0061282Y0035841D01*
X0061158Y0035629D01*
X0061030Y0035420D01*
X0060896Y0035214D01*
X0060757Y0035012D01*
X0060613Y0034813D01*
X0060464Y0034618D01*
X0060311Y0034426D01*
X0060153Y0034238D01*
X0059991Y0034054D01*
X0059823Y0033875D01*
X0059652Y0033699D01*
X0059476Y0033528D01*
X0059297Y0033360D01*
X0059113Y0033198D01*
X0058925Y0033040D01*
X0058733Y0032887D01*
X0058538Y0032738D01*
X0058339Y0032594D01*
X0058137Y0032455D01*
X0057931Y0032321D01*
X0057722Y0032193D01*
X0057510Y0032069D01*
X0057295Y0031951D01*
X0057077Y0031838D01*
X0056857Y0031730D01*
X0056633Y0031628D01*
X0056408Y0031531D01*
X0056180Y0031440D01*
X0055950Y0031355D01*
X0055718Y0031275D01*
X0055484Y0031201D01*
X0055248Y0031132D01*
X0055011Y0031070D01*
X0054772Y0031013D01*
X0054532Y0030962D01*
X0054291Y0030917D01*
X0054048Y0030878D01*
X0053805Y0030845D01*
X0053561Y0030818D01*
X0053317Y0030797D01*
X0053072Y0030782D01*
X0052826Y0030773D01*
X0052581Y0030770D01*
X0052336Y0030773D01*
X0052090Y0030782D01*
X0051845Y0030797D01*
X0051601Y0030818D01*
X0051357Y0030845D01*
X0051114Y0030878D01*
X0050871Y0030917D01*
X0050630Y0030962D01*
X0050390Y0031013D01*
X0050151Y0031070D01*
X0049914Y0031132D01*
X0049678Y0031201D01*
X0049444Y0031275D01*
X0049212Y0031355D01*
X0048982Y0031440D01*
X0048754Y0031531D01*
X0048529Y0031628D01*
X0048305Y0031730D01*
X0048085Y0031838D01*
X0047867Y0031951D01*
X0047652Y0032069D01*
X0047440Y0032193D01*
X0047231Y0032321D01*
X0047025Y0032455D01*
X0046823Y0032594D01*
X0046624Y0032738D01*
X0046429Y0032887D01*
X0046237Y0033040D01*
X0046049Y0033198D01*
X0045865Y0033360D01*
X0045686Y0033528D01*
X0045510Y0033699D01*
X0045339Y0033875D01*
X0045171Y0034054D01*
X0045009Y0034238D01*
X0044851Y0034426D01*
X0044698Y0034618D01*
X0044549Y0034813D01*
X0044405Y0035012D01*
X0044266Y0035214D01*
X0044132Y0035420D01*
X0044004Y0035629D01*
X0043880Y0035841D01*
X0043762Y0036056D01*
X0043649Y0036274D01*
X0043541Y0036494D01*
X0043439Y0036718D01*
X0043342Y0036943D01*
X0043251Y0037171D01*
X0043166Y0037401D01*
X0043086Y0037633D01*
X0043012Y0037867D01*
X0042943Y0038103D01*
X0042881Y0038340D01*
X0042824Y0038579D01*
X0042773Y0038819D01*
X0042728Y0039060D01*
X0042689Y0039303D01*
X0042656Y0039546D01*
X0042629Y0039790D01*
X0042608Y0040034D01*
X0042593Y0040279D01*
X0042584Y0040525D01*
X0042581Y0040770D01*
D17*
X0052581Y0021085D03*
M02*
