G75*
%MOIN*%
%OFA0B0*%
%FSLAX25Y25*%
%IPPOS*%
%LPD*%
%AMOC8*
5,1,8,0,0,1.08239X$1,22.5*
%
%ADD10C,0.00000*%
%ADD11R,0.04724X0.05512*%
%ADD12R,0.04331X0.03937*%
%ADD13R,0.03937X0.04331*%
D10*
X0001400Y0001400D02*
X0001400Y0395101D01*
X0198250Y0395101D01*
X0198250Y0001400D01*
X0001400Y0001400D01*
X0007305Y0013211D02*
X0007307Y0013364D01*
X0007313Y0013518D01*
X0007323Y0013671D01*
X0007337Y0013823D01*
X0007355Y0013976D01*
X0007377Y0014127D01*
X0007402Y0014278D01*
X0007432Y0014429D01*
X0007466Y0014579D01*
X0007503Y0014727D01*
X0007544Y0014875D01*
X0007589Y0015021D01*
X0007638Y0015167D01*
X0007691Y0015311D01*
X0007747Y0015453D01*
X0007807Y0015594D01*
X0007871Y0015734D01*
X0007938Y0015872D01*
X0008009Y0016008D01*
X0008084Y0016142D01*
X0008161Y0016274D01*
X0008243Y0016404D01*
X0008327Y0016532D01*
X0008415Y0016658D01*
X0008506Y0016781D01*
X0008600Y0016902D01*
X0008698Y0017020D01*
X0008798Y0017136D01*
X0008902Y0017249D01*
X0009008Y0017360D01*
X0009117Y0017468D01*
X0009229Y0017573D01*
X0009343Y0017674D01*
X0009461Y0017773D01*
X0009580Y0017869D01*
X0009702Y0017962D01*
X0009827Y0018051D01*
X0009954Y0018138D01*
X0010083Y0018220D01*
X0010214Y0018300D01*
X0010347Y0018376D01*
X0010482Y0018449D01*
X0010619Y0018518D01*
X0010758Y0018583D01*
X0010898Y0018645D01*
X0011040Y0018703D01*
X0011183Y0018758D01*
X0011328Y0018809D01*
X0011474Y0018856D01*
X0011621Y0018899D01*
X0011769Y0018938D01*
X0011918Y0018974D01*
X0012068Y0019005D01*
X0012219Y0019033D01*
X0012370Y0019057D01*
X0012523Y0019077D01*
X0012675Y0019093D01*
X0012828Y0019105D01*
X0012981Y0019113D01*
X0013134Y0019117D01*
X0013288Y0019117D01*
X0013441Y0019113D01*
X0013594Y0019105D01*
X0013747Y0019093D01*
X0013899Y0019077D01*
X0014052Y0019057D01*
X0014203Y0019033D01*
X0014354Y0019005D01*
X0014504Y0018974D01*
X0014653Y0018938D01*
X0014801Y0018899D01*
X0014948Y0018856D01*
X0015094Y0018809D01*
X0015239Y0018758D01*
X0015382Y0018703D01*
X0015524Y0018645D01*
X0015664Y0018583D01*
X0015803Y0018518D01*
X0015940Y0018449D01*
X0016075Y0018376D01*
X0016208Y0018300D01*
X0016339Y0018220D01*
X0016468Y0018138D01*
X0016595Y0018051D01*
X0016720Y0017962D01*
X0016842Y0017869D01*
X0016961Y0017773D01*
X0017079Y0017674D01*
X0017193Y0017573D01*
X0017305Y0017468D01*
X0017414Y0017360D01*
X0017520Y0017249D01*
X0017624Y0017136D01*
X0017724Y0017020D01*
X0017822Y0016902D01*
X0017916Y0016781D01*
X0018007Y0016658D01*
X0018095Y0016532D01*
X0018179Y0016404D01*
X0018261Y0016274D01*
X0018338Y0016142D01*
X0018413Y0016008D01*
X0018484Y0015872D01*
X0018551Y0015734D01*
X0018615Y0015594D01*
X0018675Y0015453D01*
X0018731Y0015311D01*
X0018784Y0015167D01*
X0018833Y0015021D01*
X0018878Y0014875D01*
X0018919Y0014727D01*
X0018956Y0014579D01*
X0018990Y0014429D01*
X0019020Y0014278D01*
X0019045Y0014127D01*
X0019067Y0013976D01*
X0019085Y0013823D01*
X0019099Y0013671D01*
X0019109Y0013518D01*
X0019115Y0013364D01*
X0019117Y0013211D01*
X0019115Y0013058D01*
X0019109Y0012904D01*
X0019099Y0012751D01*
X0019085Y0012599D01*
X0019067Y0012446D01*
X0019045Y0012295D01*
X0019020Y0012144D01*
X0018990Y0011993D01*
X0018956Y0011843D01*
X0018919Y0011695D01*
X0018878Y0011547D01*
X0018833Y0011401D01*
X0018784Y0011255D01*
X0018731Y0011111D01*
X0018675Y0010969D01*
X0018615Y0010828D01*
X0018551Y0010688D01*
X0018484Y0010550D01*
X0018413Y0010414D01*
X0018338Y0010280D01*
X0018261Y0010148D01*
X0018179Y0010018D01*
X0018095Y0009890D01*
X0018007Y0009764D01*
X0017916Y0009641D01*
X0017822Y0009520D01*
X0017724Y0009402D01*
X0017624Y0009286D01*
X0017520Y0009173D01*
X0017414Y0009062D01*
X0017305Y0008954D01*
X0017193Y0008849D01*
X0017079Y0008748D01*
X0016961Y0008649D01*
X0016842Y0008553D01*
X0016720Y0008460D01*
X0016595Y0008371D01*
X0016468Y0008284D01*
X0016339Y0008202D01*
X0016208Y0008122D01*
X0016075Y0008046D01*
X0015940Y0007973D01*
X0015803Y0007904D01*
X0015664Y0007839D01*
X0015524Y0007777D01*
X0015382Y0007719D01*
X0015239Y0007664D01*
X0015094Y0007613D01*
X0014948Y0007566D01*
X0014801Y0007523D01*
X0014653Y0007484D01*
X0014504Y0007448D01*
X0014354Y0007417D01*
X0014203Y0007389D01*
X0014052Y0007365D01*
X0013899Y0007345D01*
X0013747Y0007329D01*
X0013594Y0007317D01*
X0013441Y0007309D01*
X0013288Y0007305D01*
X0013134Y0007305D01*
X0012981Y0007309D01*
X0012828Y0007317D01*
X0012675Y0007329D01*
X0012523Y0007345D01*
X0012370Y0007365D01*
X0012219Y0007389D01*
X0012068Y0007417D01*
X0011918Y0007448D01*
X0011769Y0007484D01*
X0011621Y0007523D01*
X0011474Y0007566D01*
X0011328Y0007613D01*
X0011183Y0007664D01*
X0011040Y0007719D01*
X0010898Y0007777D01*
X0010758Y0007839D01*
X0010619Y0007904D01*
X0010482Y0007973D01*
X0010347Y0008046D01*
X0010214Y0008122D01*
X0010083Y0008202D01*
X0009954Y0008284D01*
X0009827Y0008371D01*
X0009702Y0008460D01*
X0009580Y0008553D01*
X0009461Y0008649D01*
X0009343Y0008748D01*
X0009229Y0008849D01*
X0009117Y0008954D01*
X0009008Y0009062D01*
X0008902Y0009173D01*
X0008798Y0009286D01*
X0008698Y0009402D01*
X0008600Y0009520D01*
X0008506Y0009641D01*
X0008415Y0009764D01*
X0008327Y0009890D01*
X0008243Y0010018D01*
X0008161Y0010148D01*
X0008084Y0010280D01*
X0008009Y0010414D01*
X0007938Y0010550D01*
X0007871Y0010688D01*
X0007807Y0010828D01*
X0007747Y0010969D01*
X0007691Y0011111D01*
X0007638Y0011255D01*
X0007589Y0011401D01*
X0007544Y0011547D01*
X0007503Y0011695D01*
X0007466Y0011843D01*
X0007432Y0011993D01*
X0007402Y0012144D01*
X0007377Y0012295D01*
X0007355Y0012446D01*
X0007337Y0012599D01*
X0007323Y0012751D01*
X0007313Y0012904D01*
X0007307Y0013058D01*
X0007305Y0013211D01*
X0007305Y0198250D02*
X0007307Y0198403D01*
X0007313Y0198557D01*
X0007323Y0198710D01*
X0007337Y0198862D01*
X0007355Y0199015D01*
X0007377Y0199166D01*
X0007402Y0199317D01*
X0007432Y0199468D01*
X0007466Y0199618D01*
X0007503Y0199766D01*
X0007544Y0199914D01*
X0007589Y0200060D01*
X0007638Y0200206D01*
X0007691Y0200350D01*
X0007747Y0200492D01*
X0007807Y0200633D01*
X0007871Y0200773D01*
X0007938Y0200911D01*
X0008009Y0201047D01*
X0008084Y0201181D01*
X0008161Y0201313D01*
X0008243Y0201443D01*
X0008327Y0201571D01*
X0008415Y0201697D01*
X0008506Y0201820D01*
X0008600Y0201941D01*
X0008698Y0202059D01*
X0008798Y0202175D01*
X0008902Y0202288D01*
X0009008Y0202399D01*
X0009117Y0202507D01*
X0009229Y0202612D01*
X0009343Y0202713D01*
X0009461Y0202812D01*
X0009580Y0202908D01*
X0009702Y0203001D01*
X0009827Y0203090D01*
X0009954Y0203177D01*
X0010083Y0203259D01*
X0010214Y0203339D01*
X0010347Y0203415D01*
X0010482Y0203488D01*
X0010619Y0203557D01*
X0010758Y0203622D01*
X0010898Y0203684D01*
X0011040Y0203742D01*
X0011183Y0203797D01*
X0011328Y0203848D01*
X0011474Y0203895D01*
X0011621Y0203938D01*
X0011769Y0203977D01*
X0011918Y0204013D01*
X0012068Y0204044D01*
X0012219Y0204072D01*
X0012370Y0204096D01*
X0012523Y0204116D01*
X0012675Y0204132D01*
X0012828Y0204144D01*
X0012981Y0204152D01*
X0013134Y0204156D01*
X0013288Y0204156D01*
X0013441Y0204152D01*
X0013594Y0204144D01*
X0013747Y0204132D01*
X0013899Y0204116D01*
X0014052Y0204096D01*
X0014203Y0204072D01*
X0014354Y0204044D01*
X0014504Y0204013D01*
X0014653Y0203977D01*
X0014801Y0203938D01*
X0014948Y0203895D01*
X0015094Y0203848D01*
X0015239Y0203797D01*
X0015382Y0203742D01*
X0015524Y0203684D01*
X0015664Y0203622D01*
X0015803Y0203557D01*
X0015940Y0203488D01*
X0016075Y0203415D01*
X0016208Y0203339D01*
X0016339Y0203259D01*
X0016468Y0203177D01*
X0016595Y0203090D01*
X0016720Y0203001D01*
X0016842Y0202908D01*
X0016961Y0202812D01*
X0017079Y0202713D01*
X0017193Y0202612D01*
X0017305Y0202507D01*
X0017414Y0202399D01*
X0017520Y0202288D01*
X0017624Y0202175D01*
X0017724Y0202059D01*
X0017822Y0201941D01*
X0017916Y0201820D01*
X0018007Y0201697D01*
X0018095Y0201571D01*
X0018179Y0201443D01*
X0018261Y0201313D01*
X0018338Y0201181D01*
X0018413Y0201047D01*
X0018484Y0200911D01*
X0018551Y0200773D01*
X0018615Y0200633D01*
X0018675Y0200492D01*
X0018731Y0200350D01*
X0018784Y0200206D01*
X0018833Y0200060D01*
X0018878Y0199914D01*
X0018919Y0199766D01*
X0018956Y0199618D01*
X0018990Y0199468D01*
X0019020Y0199317D01*
X0019045Y0199166D01*
X0019067Y0199015D01*
X0019085Y0198862D01*
X0019099Y0198710D01*
X0019109Y0198557D01*
X0019115Y0198403D01*
X0019117Y0198250D01*
X0019115Y0198097D01*
X0019109Y0197943D01*
X0019099Y0197790D01*
X0019085Y0197638D01*
X0019067Y0197485D01*
X0019045Y0197334D01*
X0019020Y0197183D01*
X0018990Y0197032D01*
X0018956Y0196882D01*
X0018919Y0196734D01*
X0018878Y0196586D01*
X0018833Y0196440D01*
X0018784Y0196294D01*
X0018731Y0196150D01*
X0018675Y0196008D01*
X0018615Y0195867D01*
X0018551Y0195727D01*
X0018484Y0195589D01*
X0018413Y0195453D01*
X0018338Y0195319D01*
X0018261Y0195187D01*
X0018179Y0195057D01*
X0018095Y0194929D01*
X0018007Y0194803D01*
X0017916Y0194680D01*
X0017822Y0194559D01*
X0017724Y0194441D01*
X0017624Y0194325D01*
X0017520Y0194212D01*
X0017414Y0194101D01*
X0017305Y0193993D01*
X0017193Y0193888D01*
X0017079Y0193787D01*
X0016961Y0193688D01*
X0016842Y0193592D01*
X0016720Y0193499D01*
X0016595Y0193410D01*
X0016468Y0193323D01*
X0016339Y0193241D01*
X0016208Y0193161D01*
X0016075Y0193085D01*
X0015940Y0193012D01*
X0015803Y0192943D01*
X0015664Y0192878D01*
X0015524Y0192816D01*
X0015382Y0192758D01*
X0015239Y0192703D01*
X0015094Y0192652D01*
X0014948Y0192605D01*
X0014801Y0192562D01*
X0014653Y0192523D01*
X0014504Y0192487D01*
X0014354Y0192456D01*
X0014203Y0192428D01*
X0014052Y0192404D01*
X0013899Y0192384D01*
X0013747Y0192368D01*
X0013594Y0192356D01*
X0013441Y0192348D01*
X0013288Y0192344D01*
X0013134Y0192344D01*
X0012981Y0192348D01*
X0012828Y0192356D01*
X0012675Y0192368D01*
X0012523Y0192384D01*
X0012370Y0192404D01*
X0012219Y0192428D01*
X0012068Y0192456D01*
X0011918Y0192487D01*
X0011769Y0192523D01*
X0011621Y0192562D01*
X0011474Y0192605D01*
X0011328Y0192652D01*
X0011183Y0192703D01*
X0011040Y0192758D01*
X0010898Y0192816D01*
X0010758Y0192878D01*
X0010619Y0192943D01*
X0010482Y0193012D01*
X0010347Y0193085D01*
X0010214Y0193161D01*
X0010083Y0193241D01*
X0009954Y0193323D01*
X0009827Y0193410D01*
X0009702Y0193499D01*
X0009580Y0193592D01*
X0009461Y0193688D01*
X0009343Y0193787D01*
X0009229Y0193888D01*
X0009117Y0193993D01*
X0009008Y0194101D01*
X0008902Y0194212D01*
X0008798Y0194325D01*
X0008698Y0194441D01*
X0008600Y0194559D01*
X0008506Y0194680D01*
X0008415Y0194803D01*
X0008327Y0194929D01*
X0008243Y0195057D01*
X0008161Y0195187D01*
X0008084Y0195319D01*
X0008009Y0195453D01*
X0007938Y0195589D01*
X0007871Y0195727D01*
X0007807Y0195867D01*
X0007747Y0196008D01*
X0007691Y0196150D01*
X0007638Y0196294D01*
X0007589Y0196440D01*
X0007544Y0196586D01*
X0007503Y0196734D01*
X0007466Y0196882D01*
X0007432Y0197032D01*
X0007402Y0197183D01*
X0007377Y0197334D01*
X0007355Y0197485D01*
X0007337Y0197638D01*
X0007323Y0197790D01*
X0007313Y0197943D01*
X0007307Y0198097D01*
X0007305Y0198250D01*
X0007305Y0383290D02*
X0007307Y0383443D01*
X0007313Y0383597D01*
X0007323Y0383750D01*
X0007337Y0383902D01*
X0007355Y0384055D01*
X0007377Y0384206D01*
X0007402Y0384357D01*
X0007432Y0384508D01*
X0007466Y0384658D01*
X0007503Y0384806D01*
X0007544Y0384954D01*
X0007589Y0385100D01*
X0007638Y0385246D01*
X0007691Y0385390D01*
X0007747Y0385532D01*
X0007807Y0385673D01*
X0007871Y0385813D01*
X0007938Y0385951D01*
X0008009Y0386087D01*
X0008084Y0386221D01*
X0008161Y0386353D01*
X0008243Y0386483D01*
X0008327Y0386611D01*
X0008415Y0386737D01*
X0008506Y0386860D01*
X0008600Y0386981D01*
X0008698Y0387099D01*
X0008798Y0387215D01*
X0008902Y0387328D01*
X0009008Y0387439D01*
X0009117Y0387547D01*
X0009229Y0387652D01*
X0009343Y0387753D01*
X0009461Y0387852D01*
X0009580Y0387948D01*
X0009702Y0388041D01*
X0009827Y0388130D01*
X0009954Y0388217D01*
X0010083Y0388299D01*
X0010214Y0388379D01*
X0010347Y0388455D01*
X0010482Y0388528D01*
X0010619Y0388597D01*
X0010758Y0388662D01*
X0010898Y0388724D01*
X0011040Y0388782D01*
X0011183Y0388837D01*
X0011328Y0388888D01*
X0011474Y0388935D01*
X0011621Y0388978D01*
X0011769Y0389017D01*
X0011918Y0389053D01*
X0012068Y0389084D01*
X0012219Y0389112D01*
X0012370Y0389136D01*
X0012523Y0389156D01*
X0012675Y0389172D01*
X0012828Y0389184D01*
X0012981Y0389192D01*
X0013134Y0389196D01*
X0013288Y0389196D01*
X0013441Y0389192D01*
X0013594Y0389184D01*
X0013747Y0389172D01*
X0013899Y0389156D01*
X0014052Y0389136D01*
X0014203Y0389112D01*
X0014354Y0389084D01*
X0014504Y0389053D01*
X0014653Y0389017D01*
X0014801Y0388978D01*
X0014948Y0388935D01*
X0015094Y0388888D01*
X0015239Y0388837D01*
X0015382Y0388782D01*
X0015524Y0388724D01*
X0015664Y0388662D01*
X0015803Y0388597D01*
X0015940Y0388528D01*
X0016075Y0388455D01*
X0016208Y0388379D01*
X0016339Y0388299D01*
X0016468Y0388217D01*
X0016595Y0388130D01*
X0016720Y0388041D01*
X0016842Y0387948D01*
X0016961Y0387852D01*
X0017079Y0387753D01*
X0017193Y0387652D01*
X0017305Y0387547D01*
X0017414Y0387439D01*
X0017520Y0387328D01*
X0017624Y0387215D01*
X0017724Y0387099D01*
X0017822Y0386981D01*
X0017916Y0386860D01*
X0018007Y0386737D01*
X0018095Y0386611D01*
X0018179Y0386483D01*
X0018261Y0386353D01*
X0018338Y0386221D01*
X0018413Y0386087D01*
X0018484Y0385951D01*
X0018551Y0385813D01*
X0018615Y0385673D01*
X0018675Y0385532D01*
X0018731Y0385390D01*
X0018784Y0385246D01*
X0018833Y0385100D01*
X0018878Y0384954D01*
X0018919Y0384806D01*
X0018956Y0384658D01*
X0018990Y0384508D01*
X0019020Y0384357D01*
X0019045Y0384206D01*
X0019067Y0384055D01*
X0019085Y0383902D01*
X0019099Y0383750D01*
X0019109Y0383597D01*
X0019115Y0383443D01*
X0019117Y0383290D01*
X0019115Y0383137D01*
X0019109Y0382983D01*
X0019099Y0382830D01*
X0019085Y0382678D01*
X0019067Y0382525D01*
X0019045Y0382374D01*
X0019020Y0382223D01*
X0018990Y0382072D01*
X0018956Y0381922D01*
X0018919Y0381774D01*
X0018878Y0381626D01*
X0018833Y0381480D01*
X0018784Y0381334D01*
X0018731Y0381190D01*
X0018675Y0381048D01*
X0018615Y0380907D01*
X0018551Y0380767D01*
X0018484Y0380629D01*
X0018413Y0380493D01*
X0018338Y0380359D01*
X0018261Y0380227D01*
X0018179Y0380097D01*
X0018095Y0379969D01*
X0018007Y0379843D01*
X0017916Y0379720D01*
X0017822Y0379599D01*
X0017724Y0379481D01*
X0017624Y0379365D01*
X0017520Y0379252D01*
X0017414Y0379141D01*
X0017305Y0379033D01*
X0017193Y0378928D01*
X0017079Y0378827D01*
X0016961Y0378728D01*
X0016842Y0378632D01*
X0016720Y0378539D01*
X0016595Y0378450D01*
X0016468Y0378363D01*
X0016339Y0378281D01*
X0016208Y0378201D01*
X0016075Y0378125D01*
X0015940Y0378052D01*
X0015803Y0377983D01*
X0015664Y0377918D01*
X0015524Y0377856D01*
X0015382Y0377798D01*
X0015239Y0377743D01*
X0015094Y0377692D01*
X0014948Y0377645D01*
X0014801Y0377602D01*
X0014653Y0377563D01*
X0014504Y0377527D01*
X0014354Y0377496D01*
X0014203Y0377468D01*
X0014052Y0377444D01*
X0013899Y0377424D01*
X0013747Y0377408D01*
X0013594Y0377396D01*
X0013441Y0377388D01*
X0013288Y0377384D01*
X0013134Y0377384D01*
X0012981Y0377388D01*
X0012828Y0377396D01*
X0012675Y0377408D01*
X0012523Y0377424D01*
X0012370Y0377444D01*
X0012219Y0377468D01*
X0012068Y0377496D01*
X0011918Y0377527D01*
X0011769Y0377563D01*
X0011621Y0377602D01*
X0011474Y0377645D01*
X0011328Y0377692D01*
X0011183Y0377743D01*
X0011040Y0377798D01*
X0010898Y0377856D01*
X0010758Y0377918D01*
X0010619Y0377983D01*
X0010482Y0378052D01*
X0010347Y0378125D01*
X0010214Y0378201D01*
X0010083Y0378281D01*
X0009954Y0378363D01*
X0009827Y0378450D01*
X0009702Y0378539D01*
X0009580Y0378632D01*
X0009461Y0378728D01*
X0009343Y0378827D01*
X0009229Y0378928D01*
X0009117Y0379033D01*
X0009008Y0379141D01*
X0008902Y0379252D01*
X0008798Y0379365D01*
X0008698Y0379481D01*
X0008600Y0379599D01*
X0008506Y0379720D01*
X0008415Y0379843D01*
X0008327Y0379969D01*
X0008243Y0380097D01*
X0008161Y0380227D01*
X0008084Y0380359D01*
X0008009Y0380493D01*
X0007938Y0380629D01*
X0007871Y0380767D01*
X0007807Y0380907D01*
X0007747Y0381048D01*
X0007691Y0381190D01*
X0007638Y0381334D01*
X0007589Y0381480D01*
X0007544Y0381626D01*
X0007503Y0381774D01*
X0007466Y0381922D01*
X0007432Y0382072D01*
X0007402Y0382223D01*
X0007377Y0382374D01*
X0007355Y0382525D01*
X0007337Y0382678D01*
X0007323Y0382830D01*
X0007313Y0382983D01*
X0007307Y0383137D01*
X0007305Y0383290D01*
X0180533Y0383290D02*
X0180535Y0383443D01*
X0180541Y0383597D01*
X0180551Y0383750D01*
X0180565Y0383902D01*
X0180583Y0384055D01*
X0180605Y0384206D01*
X0180630Y0384357D01*
X0180660Y0384508D01*
X0180694Y0384658D01*
X0180731Y0384806D01*
X0180772Y0384954D01*
X0180817Y0385100D01*
X0180866Y0385246D01*
X0180919Y0385390D01*
X0180975Y0385532D01*
X0181035Y0385673D01*
X0181099Y0385813D01*
X0181166Y0385951D01*
X0181237Y0386087D01*
X0181312Y0386221D01*
X0181389Y0386353D01*
X0181471Y0386483D01*
X0181555Y0386611D01*
X0181643Y0386737D01*
X0181734Y0386860D01*
X0181828Y0386981D01*
X0181926Y0387099D01*
X0182026Y0387215D01*
X0182130Y0387328D01*
X0182236Y0387439D01*
X0182345Y0387547D01*
X0182457Y0387652D01*
X0182571Y0387753D01*
X0182689Y0387852D01*
X0182808Y0387948D01*
X0182930Y0388041D01*
X0183055Y0388130D01*
X0183182Y0388217D01*
X0183311Y0388299D01*
X0183442Y0388379D01*
X0183575Y0388455D01*
X0183710Y0388528D01*
X0183847Y0388597D01*
X0183986Y0388662D01*
X0184126Y0388724D01*
X0184268Y0388782D01*
X0184411Y0388837D01*
X0184556Y0388888D01*
X0184702Y0388935D01*
X0184849Y0388978D01*
X0184997Y0389017D01*
X0185146Y0389053D01*
X0185296Y0389084D01*
X0185447Y0389112D01*
X0185598Y0389136D01*
X0185751Y0389156D01*
X0185903Y0389172D01*
X0186056Y0389184D01*
X0186209Y0389192D01*
X0186362Y0389196D01*
X0186516Y0389196D01*
X0186669Y0389192D01*
X0186822Y0389184D01*
X0186975Y0389172D01*
X0187127Y0389156D01*
X0187280Y0389136D01*
X0187431Y0389112D01*
X0187582Y0389084D01*
X0187732Y0389053D01*
X0187881Y0389017D01*
X0188029Y0388978D01*
X0188176Y0388935D01*
X0188322Y0388888D01*
X0188467Y0388837D01*
X0188610Y0388782D01*
X0188752Y0388724D01*
X0188892Y0388662D01*
X0189031Y0388597D01*
X0189168Y0388528D01*
X0189303Y0388455D01*
X0189436Y0388379D01*
X0189567Y0388299D01*
X0189696Y0388217D01*
X0189823Y0388130D01*
X0189948Y0388041D01*
X0190070Y0387948D01*
X0190189Y0387852D01*
X0190307Y0387753D01*
X0190421Y0387652D01*
X0190533Y0387547D01*
X0190642Y0387439D01*
X0190748Y0387328D01*
X0190852Y0387215D01*
X0190952Y0387099D01*
X0191050Y0386981D01*
X0191144Y0386860D01*
X0191235Y0386737D01*
X0191323Y0386611D01*
X0191407Y0386483D01*
X0191489Y0386353D01*
X0191566Y0386221D01*
X0191641Y0386087D01*
X0191712Y0385951D01*
X0191779Y0385813D01*
X0191843Y0385673D01*
X0191903Y0385532D01*
X0191959Y0385390D01*
X0192012Y0385246D01*
X0192061Y0385100D01*
X0192106Y0384954D01*
X0192147Y0384806D01*
X0192184Y0384658D01*
X0192218Y0384508D01*
X0192248Y0384357D01*
X0192273Y0384206D01*
X0192295Y0384055D01*
X0192313Y0383902D01*
X0192327Y0383750D01*
X0192337Y0383597D01*
X0192343Y0383443D01*
X0192345Y0383290D01*
X0192343Y0383137D01*
X0192337Y0382983D01*
X0192327Y0382830D01*
X0192313Y0382678D01*
X0192295Y0382525D01*
X0192273Y0382374D01*
X0192248Y0382223D01*
X0192218Y0382072D01*
X0192184Y0381922D01*
X0192147Y0381774D01*
X0192106Y0381626D01*
X0192061Y0381480D01*
X0192012Y0381334D01*
X0191959Y0381190D01*
X0191903Y0381048D01*
X0191843Y0380907D01*
X0191779Y0380767D01*
X0191712Y0380629D01*
X0191641Y0380493D01*
X0191566Y0380359D01*
X0191489Y0380227D01*
X0191407Y0380097D01*
X0191323Y0379969D01*
X0191235Y0379843D01*
X0191144Y0379720D01*
X0191050Y0379599D01*
X0190952Y0379481D01*
X0190852Y0379365D01*
X0190748Y0379252D01*
X0190642Y0379141D01*
X0190533Y0379033D01*
X0190421Y0378928D01*
X0190307Y0378827D01*
X0190189Y0378728D01*
X0190070Y0378632D01*
X0189948Y0378539D01*
X0189823Y0378450D01*
X0189696Y0378363D01*
X0189567Y0378281D01*
X0189436Y0378201D01*
X0189303Y0378125D01*
X0189168Y0378052D01*
X0189031Y0377983D01*
X0188892Y0377918D01*
X0188752Y0377856D01*
X0188610Y0377798D01*
X0188467Y0377743D01*
X0188322Y0377692D01*
X0188176Y0377645D01*
X0188029Y0377602D01*
X0187881Y0377563D01*
X0187732Y0377527D01*
X0187582Y0377496D01*
X0187431Y0377468D01*
X0187280Y0377444D01*
X0187127Y0377424D01*
X0186975Y0377408D01*
X0186822Y0377396D01*
X0186669Y0377388D01*
X0186516Y0377384D01*
X0186362Y0377384D01*
X0186209Y0377388D01*
X0186056Y0377396D01*
X0185903Y0377408D01*
X0185751Y0377424D01*
X0185598Y0377444D01*
X0185447Y0377468D01*
X0185296Y0377496D01*
X0185146Y0377527D01*
X0184997Y0377563D01*
X0184849Y0377602D01*
X0184702Y0377645D01*
X0184556Y0377692D01*
X0184411Y0377743D01*
X0184268Y0377798D01*
X0184126Y0377856D01*
X0183986Y0377918D01*
X0183847Y0377983D01*
X0183710Y0378052D01*
X0183575Y0378125D01*
X0183442Y0378201D01*
X0183311Y0378281D01*
X0183182Y0378363D01*
X0183055Y0378450D01*
X0182930Y0378539D01*
X0182808Y0378632D01*
X0182689Y0378728D01*
X0182571Y0378827D01*
X0182457Y0378928D01*
X0182345Y0379033D01*
X0182236Y0379141D01*
X0182130Y0379252D01*
X0182026Y0379365D01*
X0181926Y0379481D01*
X0181828Y0379599D01*
X0181734Y0379720D01*
X0181643Y0379843D01*
X0181555Y0379969D01*
X0181471Y0380097D01*
X0181389Y0380227D01*
X0181312Y0380359D01*
X0181237Y0380493D01*
X0181166Y0380629D01*
X0181099Y0380767D01*
X0181035Y0380907D01*
X0180975Y0381048D01*
X0180919Y0381190D01*
X0180866Y0381334D01*
X0180817Y0381480D01*
X0180772Y0381626D01*
X0180731Y0381774D01*
X0180694Y0381922D01*
X0180660Y0382072D01*
X0180630Y0382223D01*
X0180605Y0382374D01*
X0180583Y0382525D01*
X0180565Y0382678D01*
X0180551Y0382830D01*
X0180541Y0382983D01*
X0180535Y0383137D01*
X0180533Y0383290D01*
X0180533Y0198250D02*
X0180535Y0198403D01*
X0180541Y0198557D01*
X0180551Y0198710D01*
X0180565Y0198862D01*
X0180583Y0199015D01*
X0180605Y0199166D01*
X0180630Y0199317D01*
X0180660Y0199468D01*
X0180694Y0199618D01*
X0180731Y0199766D01*
X0180772Y0199914D01*
X0180817Y0200060D01*
X0180866Y0200206D01*
X0180919Y0200350D01*
X0180975Y0200492D01*
X0181035Y0200633D01*
X0181099Y0200773D01*
X0181166Y0200911D01*
X0181237Y0201047D01*
X0181312Y0201181D01*
X0181389Y0201313D01*
X0181471Y0201443D01*
X0181555Y0201571D01*
X0181643Y0201697D01*
X0181734Y0201820D01*
X0181828Y0201941D01*
X0181926Y0202059D01*
X0182026Y0202175D01*
X0182130Y0202288D01*
X0182236Y0202399D01*
X0182345Y0202507D01*
X0182457Y0202612D01*
X0182571Y0202713D01*
X0182689Y0202812D01*
X0182808Y0202908D01*
X0182930Y0203001D01*
X0183055Y0203090D01*
X0183182Y0203177D01*
X0183311Y0203259D01*
X0183442Y0203339D01*
X0183575Y0203415D01*
X0183710Y0203488D01*
X0183847Y0203557D01*
X0183986Y0203622D01*
X0184126Y0203684D01*
X0184268Y0203742D01*
X0184411Y0203797D01*
X0184556Y0203848D01*
X0184702Y0203895D01*
X0184849Y0203938D01*
X0184997Y0203977D01*
X0185146Y0204013D01*
X0185296Y0204044D01*
X0185447Y0204072D01*
X0185598Y0204096D01*
X0185751Y0204116D01*
X0185903Y0204132D01*
X0186056Y0204144D01*
X0186209Y0204152D01*
X0186362Y0204156D01*
X0186516Y0204156D01*
X0186669Y0204152D01*
X0186822Y0204144D01*
X0186975Y0204132D01*
X0187127Y0204116D01*
X0187280Y0204096D01*
X0187431Y0204072D01*
X0187582Y0204044D01*
X0187732Y0204013D01*
X0187881Y0203977D01*
X0188029Y0203938D01*
X0188176Y0203895D01*
X0188322Y0203848D01*
X0188467Y0203797D01*
X0188610Y0203742D01*
X0188752Y0203684D01*
X0188892Y0203622D01*
X0189031Y0203557D01*
X0189168Y0203488D01*
X0189303Y0203415D01*
X0189436Y0203339D01*
X0189567Y0203259D01*
X0189696Y0203177D01*
X0189823Y0203090D01*
X0189948Y0203001D01*
X0190070Y0202908D01*
X0190189Y0202812D01*
X0190307Y0202713D01*
X0190421Y0202612D01*
X0190533Y0202507D01*
X0190642Y0202399D01*
X0190748Y0202288D01*
X0190852Y0202175D01*
X0190952Y0202059D01*
X0191050Y0201941D01*
X0191144Y0201820D01*
X0191235Y0201697D01*
X0191323Y0201571D01*
X0191407Y0201443D01*
X0191489Y0201313D01*
X0191566Y0201181D01*
X0191641Y0201047D01*
X0191712Y0200911D01*
X0191779Y0200773D01*
X0191843Y0200633D01*
X0191903Y0200492D01*
X0191959Y0200350D01*
X0192012Y0200206D01*
X0192061Y0200060D01*
X0192106Y0199914D01*
X0192147Y0199766D01*
X0192184Y0199618D01*
X0192218Y0199468D01*
X0192248Y0199317D01*
X0192273Y0199166D01*
X0192295Y0199015D01*
X0192313Y0198862D01*
X0192327Y0198710D01*
X0192337Y0198557D01*
X0192343Y0198403D01*
X0192345Y0198250D01*
X0192343Y0198097D01*
X0192337Y0197943D01*
X0192327Y0197790D01*
X0192313Y0197638D01*
X0192295Y0197485D01*
X0192273Y0197334D01*
X0192248Y0197183D01*
X0192218Y0197032D01*
X0192184Y0196882D01*
X0192147Y0196734D01*
X0192106Y0196586D01*
X0192061Y0196440D01*
X0192012Y0196294D01*
X0191959Y0196150D01*
X0191903Y0196008D01*
X0191843Y0195867D01*
X0191779Y0195727D01*
X0191712Y0195589D01*
X0191641Y0195453D01*
X0191566Y0195319D01*
X0191489Y0195187D01*
X0191407Y0195057D01*
X0191323Y0194929D01*
X0191235Y0194803D01*
X0191144Y0194680D01*
X0191050Y0194559D01*
X0190952Y0194441D01*
X0190852Y0194325D01*
X0190748Y0194212D01*
X0190642Y0194101D01*
X0190533Y0193993D01*
X0190421Y0193888D01*
X0190307Y0193787D01*
X0190189Y0193688D01*
X0190070Y0193592D01*
X0189948Y0193499D01*
X0189823Y0193410D01*
X0189696Y0193323D01*
X0189567Y0193241D01*
X0189436Y0193161D01*
X0189303Y0193085D01*
X0189168Y0193012D01*
X0189031Y0192943D01*
X0188892Y0192878D01*
X0188752Y0192816D01*
X0188610Y0192758D01*
X0188467Y0192703D01*
X0188322Y0192652D01*
X0188176Y0192605D01*
X0188029Y0192562D01*
X0187881Y0192523D01*
X0187732Y0192487D01*
X0187582Y0192456D01*
X0187431Y0192428D01*
X0187280Y0192404D01*
X0187127Y0192384D01*
X0186975Y0192368D01*
X0186822Y0192356D01*
X0186669Y0192348D01*
X0186516Y0192344D01*
X0186362Y0192344D01*
X0186209Y0192348D01*
X0186056Y0192356D01*
X0185903Y0192368D01*
X0185751Y0192384D01*
X0185598Y0192404D01*
X0185447Y0192428D01*
X0185296Y0192456D01*
X0185146Y0192487D01*
X0184997Y0192523D01*
X0184849Y0192562D01*
X0184702Y0192605D01*
X0184556Y0192652D01*
X0184411Y0192703D01*
X0184268Y0192758D01*
X0184126Y0192816D01*
X0183986Y0192878D01*
X0183847Y0192943D01*
X0183710Y0193012D01*
X0183575Y0193085D01*
X0183442Y0193161D01*
X0183311Y0193241D01*
X0183182Y0193323D01*
X0183055Y0193410D01*
X0182930Y0193499D01*
X0182808Y0193592D01*
X0182689Y0193688D01*
X0182571Y0193787D01*
X0182457Y0193888D01*
X0182345Y0193993D01*
X0182236Y0194101D01*
X0182130Y0194212D01*
X0182026Y0194325D01*
X0181926Y0194441D01*
X0181828Y0194559D01*
X0181734Y0194680D01*
X0181643Y0194803D01*
X0181555Y0194929D01*
X0181471Y0195057D01*
X0181389Y0195187D01*
X0181312Y0195319D01*
X0181237Y0195453D01*
X0181166Y0195589D01*
X0181099Y0195727D01*
X0181035Y0195867D01*
X0180975Y0196008D01*
X0180919Y0196150D01*
X0180866Y0196294D01*
X0180817Y0196440D01*
X0180772Y0196586D01*
X0180731Y0196734D01*
X0180694Y0196882D01*
X0180660Y0197032D01*
X0180630Y0197183D01*
X0180605Y0197334D01*
X0180583Y0197485D01*
X0180565Y0197638D01*
X0180551Y0197790D01*
X0180541Y0197943D01*
X0180535Y0198097D01*
X0180533Y0198250D01*
X0180533Y0013211D02*
X0180535Y0013364D01*
X0180541Y0013518D01*
X0180551Y0013671D01*
X0180565Y0013823D01*
X0180583Y0013976D01*
X0180605Y0014127D01*
X0180630Y0014278D01*
X0180660Y0014429D01*
X0180694Y0014579D01*
X0180731Y0014727D01*
X0180772Y0014875D01*
X0180817Y0015021D01*
X0180866Y0015167D01*
X0180919Y0015311D01*
X0180975Y0015453D01*
X0181035Y0015594D01*
X0181099Y0015734D01*
X0181166Y0015872D01*
X0181237Y0016008D01*
X0181312Y0016142D01*
X0181389Y0016274D01*
X0181471Y0016404D01*
X0181555Y0016532D01*
X0181643Y0016658D01*
X0181734Y0016781D01*
X0181828Y0016902D01*
X0181926Y0017020D01*
X0182026Y0017136D01*
X0182130Y0017249D01*
X0182236Y0017360D01*
X0182345Y0017468D01*
X0182457Y0017573D01*
X0182571Y0017674D01*
X0182689Y0017773D01*
X0182808Y0017869D01*
X0182930Y0017962D01*
X0183055Y0018051D01*
X0183182Y0018138D01*
X0183311Y0018220D01*
X0183442Y0018300D01*
X0183575Y0018376D01*
X0183710Y0018449D01*
X0183847Y0018518D01*
X0183986Y0018583D01*
X0184126Y0018645D01*
X0184268Y0018703D01*
X0184411Y0018758D01*
X0184556Y0018809D01*
X0184702Y0018856D01*
X0184849Y0018899D01*
X0184997Y0018938D01*
X0185146Y0018974D01*
X0185296Y0019005D01*
X0185447Y0019033D01*
X0185598Y0019057D01*
X0185751Y0019077D01*
X0185903Y0019093D01*
X0186056Y0019105D01*
X0186209Y0019113D01*
X0186362Y0019117D01*
X0186516Y0019117D01*
X0186669Y0019113D01*
X0186822Y0019105D01*
X0186975Y0019093D01*
X0187127Y0019077D01*
X0187280Y0019057D01*
X0187431Y0019033D01*
X0187582Y0019005D01*
X0187732Y0018974D01*
X0187881Y0018938D01*
X0188029Y0018899D01*
X0188176Y0018856D01*
X0188322Y0018809D01*
X0188467Y0018758D01*
X0188610Y0018703D01*
X0188752Y0018645D01*
X0188892Y0018583D01*
X0189031Y0018518D01*
X0189168Y0018449D01*
X0189303Y0018376D01*
X0189436Y0018300D01*
X0189567Y0018220D01*
X0189696Y0018138D01*
X0189823Y0018051D01*
X0189948Y0017962D01*
X0190070Y0017869D01*
X0190189Y0017773D01*
X0190307Y0017674D01*
X0190421Y0017573D01*
X0190533Y0017468D01*
X0190642Y0017360D01*
X0190748Y0017249D01*
X0190852Y0017136D01*
X0190952Y0017020D01*
X0191050Y0016902D01*
X0191144Y0016781D01*
X0191235Y0016658D01*
X0191323Y0016532D01*
X0191407Y0016404D01*
X0191489Y0016274D01*
X0191566Y0016142D01*
X0191641Y0016008D01*
X0191712Y0015872D01*
X0191779Y0015734D01*
X0191843Y0015594D01*
X0191903Y0015453D01*
X0191959Y0015311D01*
X0192012Y0015167D01*
X0192061Y0015021D01*
X0192106Y0014875D01*
X0192147Y0014727D01*
X0192184Y0014579D01*
X0192218Y0014429D01*
X0192248Y0014278D01*
X0192273Y0014127D01*
X0192295Y0013976D01*
X0192313Y0013823D01*
X0192327Y0013671D01*
X0192337Y0013518D01*
X0192343Y0013364D01*
X0192345Y0013211D01*
X0192343Y0013058D01*
X0192337Y0012904D01*
X0192327Y0012751D01*
X0192313Y0012599D01*
X0192295Y0012446D01*
X0192273Y0012295D01*
X0192248Y0012144D01*
X0192218Y0011993D01*
X0192184Y0011843D01*
X0192147Y0011695D01*
X0192106Y0011547D01*
X0192061Y0011401D01*
X0192012Y0011255D01*
X0191959Y0011111D01*
X0191903Y0010969D01*
X0191843Y0010828D01*
X0191779Y0010688D01*
X0191712Y0010550D01*
X0191641Y0010414D01*
X0191566Y0010280D01*
X0191489Y0010148D01*
X0191407Y0010018D01*
X0191323Y0009890D01*
X0191235Y0009764D01*
X0191144Y0009641D01*
X0191050Y0009520D01*
X0190952Y0009402D01*
X0190852Y0009286D01*
X0190748Y0009173D01*
X0190642Y0009062D01*
X0190533Y0008954D01*
X0190421Y0008849D01*
X0190307Y0008748D01*
X0190189Y0008649D01*
X0190070Y0008553D01*
X0189948Y0008460D01*
X0189823Y0008371D01*
X0189696Y0008284D01*
X0189567Y0008202D01*
X0189436Y0008122D01*
X0189303Y0008046D01*
X0189168Y0007973D01*
X0189031Y0007904D01*
X0188892Y0007839D01*
X0188752Y0007777D01*
X0188610Y0007719D01*
X0188467Y0007664D01*
X0188322Y0007613D01*
X0188176Y0007566D01*
X0188029Y0007523D01*
X0187881Y0007484D01*
X0187732Y0007448D01*
X0187582Y0007417D01*
X0187431Y0007389D01*
X0187280Y0007365D01*
X0187127Y0007345D01*
X0186975Y0007329D01*
X0186822Y0007317D01*
X0186669Y0007309D01*
X0186516Y0007305D01*
X0186362Y0007305D01*
X0186209Y0007309D01*
X0186056Y0007317D01*
X0185903Y0007329D01*
X0185751Y0007345D01*
X0185598Y0007365D01*
X0185447Y0007389D01*
X0185296Y0007417D01*
X0185146Y0007448D01*
X0184997Y0007484D01*
X0184849Y0007523D01*
X0184702Y0007566D01*
X0184556Y0007613D01*
X0184411Y0007664D01*
X0184268Y0007719D01*
X0184126Y0007777D01*
X0183986Y0007839D01*
X0183847Y0007904D01*
X0183710Y0007973D01*
X0183575Y0008046D01*
X0183442Y0008122D01*
X0183311Y0008202D01*
X0183182Y0008284D01*
X0183055Y0008371D01*
X0182930Y0008460D01*
X0182808Y0008553D01*
X0182689Y0008649D01*
X0182571Y0008748D01*
X0182457Y0008849D01*
X0182345Y0008954D01*
X0182236Y0009062D01*
X0182130Y0009173D01*
X0182026Y0009286D01*
X0181926Y0009402D01*
X0181828Y0009520D01*
X0181734Y0009641D01*
X0181643Y0009764D01*
X0181555Y0009890D01*
X0181471Y0010018D01*
X0181389Y0010148D01*
X0181312Y0010280D01*
X0181237Y0010414D01*
X0181166Y0010550D01*
X0181099Y0010688D01*
X0181035Y0010828D01*
X0180975Y0010969D01*
X0180919Y0011111D01*
X0180866Y0011255D01*
X0180817Y0011401D01*
X0180772Y0011547D01*
X0180731Y0011695D01*
X0180694Y0011843D01*
X0180660Y0011993D01*
X0180630Y0012144D01*
X0180605Y0012295D01*
X0180583Y0012446D01*
X0180565Y0012599D01*
X0180551Y0012751D01*
X0180541Y0012904D01*
X0180535Y0013058D01*
X0180533Y0013211D01*
D11*
X0152975Y0013211D03*
X0141164Y0013211D03*
D12*
X0130731Y0013211D03*
X0124038Y0013211D03*
D13*
X0114825Y0356321D03*
X0114825Y0363014D03*
X0104825Y0363014D03*
X0104825Y0356321D03*
M02*
