G75*
%MOIN*%
%OFA0B0*%
%FSLAX25Y25*%
%IPPOS*%
%LPD*%
%AMOC8*
5,1,8,0,0,1.08239X$1,22.5*
%
%ADD10C,0.00000*%
%ADD11C,0.07400*%
%ADD12OC8,0.07087*%
%ADD13R,0.07087X0.07087*%
%ADD14C,0.07087*%
%ADD15C,0.07200*%
%ADD16R,0.07400X0.07400*%
%ADD17C,0.07400*%
%ADD18R,0.08504X0.08504*%
%ADD19C,0.08504*%
%ADD20C,0.00800*%
%ADD21OC8,0.01781*%
%ADD22C,0.03200*%
%ADD23C,0.01600*%
%ADD24OC8,0.08600*%
D10*
X0001400Y0001400D02*
X0001400Y0395101D01*
X0198250Y0395101D01*
X0198250Y0001400D01*
X0001400Y0001400D01*
X0007305Y0013211D02*
X0007307Y0013364D01*
X0007313Y0013518D01*
X0007323Y0013671D01*
X0007337Y0013823D01*
X0007355Y0013976D01*
X0007377Y0014127D01*
X0007402Y0014278D01*
X0007432Y0014429D01*
X0007466Y0014579D01*
X0007503Y0014727D01*
X0007544Y0014875D01*
X0007589Y0015021D01*
X0007638Y0015167D01*
X0007691Y0015311D01*
X0007747Y0015453D01*
X0007807Y0015594D01*
X0007871Y0015734D01*
X0007938Y0015872D01*
X0008009Y0016008D01*
X0008084Y0016142D01*
X0008161Y0016274D01*
X0008243Y0016404D01*
X0008327Y0016532D01*
X0008415Y0016658D01*
X0008506Y0016781D01*
X0008600Y0016902D01*
X0008698Y0017020D01*
X0008798Y0017136D01*
X0008902Y0017249D01*
X0009008Y0017360D01*
X0009117Y0017468D01*
X0009229Y0017573D01*
X0009343Y0017674D01*
X0009461Y0017773D01*
X0009580Y0017869D01*
X0009702Y0017962D01*
X0009827Y0018051D01*
X0009954Y0018138D01*
X0010083Y0018220D01*
X0010214Y0018300D01*
X0010347Y0018376D01*
X0010482Y0018449D01*
X0010619Y0018518D01*
X0010758Y0018583D01*
X0010898Y0018645D01*
X0011040Y0018703D01*
X0011183Y0018758D01*
X0011328Y0018809D01*
X0011474Y0018856D01*
X0011621Y0018899D01*
X0011769Y0018938D01*
X0011918Y0018974D01*
X0012068Y0019005D01*
X0012219Y0019033D01*
X0012370Y0019057D01*
X0012523Y0019077D01*
X0012675Y0019093D01*
X0012828Y0019105D01*
X0012981Y0019113D01*
X0013134Y0019117D01*
X0013288Y0019117D01*
X0013441Y0019113D01*
X0013594Y0019105D01*
X0013747Y0019093D01*
X0013899Y0019077D01*
X0014052Y0019057D01*
X0014203Y0019033D01*
X0014354Y0019005D01*
X0014504Y0018974D01*
X0014653Y0018938D01*
X0014801Y0018899D01*
X0014948Y0018856D01*
X0015094Y0018809D01*
X0015239Y0018758D01*
X0015382Y0018703D01*
X0015524Y0018645D01*
X0015664Y0018583D01*
X0015803Y0018518D01*
X0015940Y0018449D01*
X0016075Y0018376D01*
X0016208Y0018300D01*
X0016339Y0018220D01*
X0016468Y0018138D01*
X0016595Y0018051D01*
X0016720Y0017962D01*
X0016842Y0017869D01*
X0016961Y0017773D01*
X0017079Y0017674D01*
X0017193Y0017573D01*
X0017305Y0017468D01*
X0017414Y0017360D01*
X0017520Y0017249D01*
X0017624Y0017136D01*
X0017724Y0017020D01*
X0017822Y0016902D01*
X0017916Y0016781D01*
X0018007Y0016658D01*
X0018095Y0016532D01*
X0018179Y0016404D01*
X0018261Y0016274D01*
X0018338Y0016142D01*
X0018413Y0016008D01*
X0018484Y0015872D01*
X0018551Y0015734D01*
X0018615Y0015594D01*
X0018675Y0015453D01*
X0018731Y0015311D01*
X0018784Y0015167D01*
X0018833Y0015021D01*
X0018878Y0014875D01*
X0018919Y0014727D01*
X0018956Y0014579D01*
X0018990Y0014429D01*
X0019020Y0014278D01*
X0019045Y0014127D01*
X0019067Y0013976D01*
X0019085Y0013823D01*
X0019099Y0013671D01*
X0019109Y0013518D01*
X0019115Y0013364D01*
X0019117Y0013211D01*
X0019115Y0013058D01*
X0019109Y0012904D01*
X0019099Y0012751D01*
X0019085Y0012599D01*
X0019067Y0012446D01*
X0019045Y0012295D01*
X0019020Y0012144D01*
X0018990Y0011993D01*
X0018956Y0011843D01*
X0018919Y0011695D01*
X0018878Y0011547D01*
X0018833Y0011401D01*
X0018784Y0011255D01*
X0018731Y0011111D01*
X0018675Y0010969D01*
X0018615Y0010828D01*
X0018551Y0010688D01*
X0018484Y0010550D01*
X0018413Y0010414D01*
X0018338Y0010280D01*
X0018261Y0010148D01*
X0018179Y0010018D01*
X0018095Y0009890D01*
X0018007Y0009764D01*
X0017916Y0009641D01*
X0017822Y0009520D01*
X0017724Y0009402D01*
X0017624Y0009286D01*
X0017520Y0009173D01*
X0017414Y0009062D01*
X0017305Y0008954D01*
X0017193Y0008849D01*
X0017079Y0008748D01*
X0016961Y0008649D01*
X0016842Y0008553D01*
X0016720Y0008460D01*
X0016595Y0008371D01*
X0016468Y0008284D01*
X0016339Y0008202D01*
X0016208Y0008122D01*
X0016075Y0008046D01*
X0015940Y0007973D01*
X0015803Y0007904D01*
X0015664Y0007839D01*
X0015524Y0007777D01*
X0015382Y0007719D01*
X0015239Y0007664D01*
X0015094Y0007613D01*
X0014948Y0007566D01*
X0014801Y0007523D01*
X0014653Y0007484D01*
X0014504Y0007448D01*
X0014354Y0007417D01*
X0014203Y0007389D01*
X0014052Y0007365D01*
X0013899Y0007345D01*
X0013747Y0007329D01*
X0013594Y0007317D01*
X0013441Y0007309D01*
X0013288Y0007305D01*
X0013134Y0007305D01*
X0012981Y0007309D01*
X0012828Y0007317D01*
X0012675Y0007329D01*
X0012523Y0007345D01*
X0012370Y0007365D01*
X0012219Y0007389D01*
X0012068Y0007417D01*
X0011918Y0007448D01*
X0011769Y0007484D01*
X0011621Y0007523D01*
X0011474Y0007566D01*
X0011328Y0007613D01*
X0011183Y0007664D01*
X0011040Y0007719D01*
X0010898Y0007777D01*
X0010758Y0007839D01*
X0010619Y0007904D01*
X0010482Y0007973D01*
X0010347Y0008046D01*
X0010214Y0008122D01*
X0010083Y0008202D01*
X0009954Y0008284D01*
X0009827Y0008371D01*
X0009702Y0008460D01*
X0009580Y0008553D01*
X0009461Y0008649D01*
X0009343Y0008748D01*
X0009229Y0008849D01*
X0009117Y0008954D01*
X0009008Y0009062D01*
X0008902Y0009173D01*
X0008798Y0009286D01*
X0008698Y0009402D01*
X0008600Y0009520D01*
X0008506Y0009641D01*
X0008415Y0009764D01*
X0008327Y0009890D01*
X0008243Y0010018D01*
X0008161Y0010148D01*
X0008084Y0010280D01*
X0008009Y0010414D01*
X0007938Y0010550D01*
X0007871Y0010688D01*
X0007807Y0010828D01*
X0007747Y0010969D01*
X0007691Y0011111D01*
X0007638Y0011255D01*
X0007589Y0011401D01*
X0007544Y0011547D01*
X0007503Y0011695D01*
X0007466Y0011843D01*
X0007432Y0011993D01*
X0007402Y0012144D01*
X0007377Y0012295D01*
X0007355Y0012446D01*
X0007337Y0012599D01*
X0007323Y0012751D01*
X0007313Y0012904D01*
X0007307Y0013058D01*
X0007305Y0013211D01*
X0007305Y0198250D02*
X0007307Y0198403D01*
X0007313Y0198557D01*
X0007323Y0198710D01*
X0007337Y0198862D01*
X0007355Y0199015D01*
X0007377Y0199166D01*
X0007402Y0199317D01*
X0007432Y0199468D01*
X0007466Y0199618D01*
X0007503Y0199766D01*
X0007544Y0199914D01*
X0007589Y0200060D01*
X0007638Y0200206D01*
X0007691Y0200350D01*
X0007747Y0200492D01*
X0007807Y0200633D01*
X0007871Y0200773D01*
X0007938Y0200911D01*
X0008009Y0201047D01*
X0008084Y0201181D01*
X0008161Y0201313D01*
X0008243Y0201443D01*
X0008327Y0201571D01*
X0008415Y0201697D01*
X0008506Y0201820D01*
X0008600Y0201941D01*
X0008698Y0202059D01*
X0008798Y0202175D01*
X0008902Y0202288D01*
X0009008Y0202399D01*
X0009117Y0202507D01*
X0009229Y0202612D01*
X0009343Y0202713D01*
X0009461Y0202812D01*
X0009580Y0202908D01*
X0009702Y0203001D01*
X0009827Y0203090D01*
X0009954Y0203177D01*
X0010083Y0203259D01*
X0010214Y0203339D01*
X0010347Y0203415D01*
X0010482Y0203488D01*
X0010619Y0203557D01*
X0010758Y0203622D01*
X0010898Y0203684D01*
X0011040Y0203742D01*
X0011183Y0203797D01*
X0011328Y0203848D01*
X0011474Y0203895D01*
X0011621Y0203938D01*
X0011769Y0203977D01*
X0011918Y0204013D01*
X0012068Y0204044D01*
X0012219Y0204072D01*
X0012370Y0204096D01*
X0012523Y0204116D01*
X0012675Y0204132D01*
X0012828Y0204144D01*
X0012981Y0204152D01*
X0013134Y0204156D01*
X0013288Y0204156D01*
X0013441Y0204152D01*
X0013594Y0204144D01*
X0013747Y0204132D01*
X0013899Y0204116D01*
X0014052Y0204096D01*
X0014203Y0204072D01*
X0014354Y0204044D01*
X0014504Y0204013D01*
X0014653Y0203977D01*
X0014801Y0203938D01*
X0014948Y0203895D01*
X0015094Y0203848D01*
X0015239Y0203797D01*
X0015382Y0203742D01*
X0015524Y0203684D01*
X0015664Y0203622D01*
X0015803Y0203557D01*
X0015940Y0203488D01*
X0016075Y0203415D01*
X0016208Y0203339D01*
X0016339Y0203259D01*
X0016468Y0203177D01*
X0016595Y0203090D01*
X0016720Y0203001D01*
X0016842Y0202908D01*
X0016961Y0202812D01*
X0017079Y0202713D01*
X0017193Y0202612D01*
X0017305Y0202507D01*
X0017414Y0202399D01*
X0017520Y0202288D01*
X0017624Y0202175D01*
X0017724Y0202059D01*
X0017822Y0201941D01*
X0017916Y0201820D01*
X0018007Y0201697D01*
X0018095Y0201571D01*
X0018179Y0201443D01*
X0018261Y0201313D01*
X0018338Y0201181D01*
X0018413Y0201047D01*
X0018484Y0200911D01*
X0018551Y0200773D01*
X0018615Y0200633D01*
X0018675Y0200492D01*
X0018731Y0200350D01*
X0018784Y0200206D01*
X0018833Y0200060D01*
X0018878Y0199914D01*
X0018919Y0199766D01*
X0018956Y0199618D01*
X0018990Y0199468D01*
X0019020Y0199317D01*
X0019045Y0199166D01*
X0019067Y0199015D01*
X0019085Y0198862D01*
X0019099Y0198710D01*
X0019109Y0198557D01*
X0019115Y0198403D01*
X0019117Y0198250D01*
X0019115Y0198097D01*
X0019109Y0197943D01*
X0019099Y0197790D01*
X0019085Y0197638D01*
X0019067Y0197485D01*
X0019045Y0197334D01*
X0019020Y0197183D01*
X0018990Y0197032D01*
X0018956Y0196882D01*
X0018919Y0196734D01*
X0018878Y0196586D01*
X0018833Y0196440D01*
X0018784Y0196294D01*
X0018731Y0196150D01*
X0018675Y0196008D01*
X0018615Y0195867D01*
X0018551Y0195727D01*
X0018484Y0195589D01*
X0018413Y0195453D01*
X0018338Y0195319D01*
X0018261Y0195187D01*
X0018179Y0195057D01*
X0018095Y0194929D01*
X0018007Y0194803D01*
X0017916Y0194680D01*
X0017822Y0194559D01*
X0017724Y0194441D01*
X0017624Y0194325D01*
X0017520Y0194212D01*
X0017414Y0194101D01*
X0017305Y0193993D01*
X0017193Y0193888D01*
X0017079Y0193787D01*
X0016961Y0193688D01*
X0016842Y0193592D01*
X0016720Y0193499D01*
X0016595Y0193410D01*
X0016468Y0193323D01*
X0016339Y0193241D01*
X0016208Y0193161D01*
X0016075Y0193085D01*
X0015940Y0193012D01*
X0015803Y0192943D01*
X0015664Y0192878D01*
X0015524Y0192816D01*
X0015382Y0192758D01*
X0015239Y0192703D01*
X0015094Y0192652D01*
X0014948Y0192605D01*
X0014801Y0192562D01*
X0014653Y0192523D01*
X0014504Y0192487D01*
X0014354Y0192456D01*
X0014203Y0192428D01*
X0014052Y0192404D01*
X0013899Y0192384D01*
X0013747Y0192368D01*
X0013594Y0192356D01*
X0013441Y0192348D01*
X0013288Y0192344D01*
X0013134Y0192344D01*
X0012981Y0192348D01*
X0012828Y0192356D01*
X0012675Y0192368D01*
X0012523Y0192384D01*
X0012370Y0192404D01*
X0012219Y0192428D01*
X0012068Y0192456D01*
X0011918Y0192487D01*
X0011769Y0192523D01*
X0011621Y0192562D01*
X0011474Y0192605D01*
X0011328Y0192652D01*
X0011183Y0192703D01*
X0011040Y0192758D01*
X0010898Y0192816D01*
X0010758Y0192878D01*
X0010619Y0192943D01*
X0010482Y0193012D01*
X0010347Y0193085D01*
X0010214Y0193161D01*
X0010083Y0193241D01*
X0009954Y0193323D01*
X0009827Y0193410D01*
X0009702Y0193499D01*
X0009580Y0193592D01*
X0009461Y0193688D01*
X0009343Y0193787D01*
X0009229Y0193888D01*
X0009117Y0193993D01*
X0009008Y0194101D01*
X0008902Y0194212D01*
X0008798Y0194325D01*
X0008698Y0194441D01*
X0008600Y0194559D01*
X0008506Y0194680D01*
X0008415Y0194803D01*
X0008327Y0194929D01*
X0008243Y0195057D01*
X0008161Y0195187D01*
X0008084Y0195319D01*
X0008009Y0195453D01*
X0007938Y0195589D01*
X0007871Y0195727D01*
X0007807Y0195867D01*
X0007747Y0196008D01*
X0007691Y0196150D01*
X0007638Y0196294D01*
X0007589Y0196440D01*
X0007544Y0196586D01*
X0007503Y0196734D01*
X0007466Y0196882D01*
X0007432Y0197032D01*
X0007402Y0197183D01*
X0007377Y0197334D01*
X0007355Y0197485D01*
X0007337Y0197638D01*
X0007323Y0197790D01*
X0007313Y0197943D01*
X0007307Y0198097D01*
X0007305Y0198250D01*
X0007305Y0383290D02*
X0007307Y0383443D01*
X0007313Y0383597D01*
X0007323Y0383750D01*
X0007337Y0383902D01*
X0007355Y0384055D01*
X0007377Y0384206D01*
X0007402Y0384357D01*
X0007432Y0384508D01*
X0007466Y0384658D01*
X0007503Y0384806D01*
X0007544Y0384954D01*
X0007589Y0385100D01*
X0007638Y0385246D01*
X0007691Y0385390D01*
X0007747Y0385532D01*
X0007807Y0385673D01*
X0007871Y0385813D01*
X0007938Y0385951D01*
X0008009Y0386087D01*
X0008084Y0386221D01*
X0008161Y0386353D01*
X0008243Y0386483D01*
X0008327Y0386611D01*
X0008415Y0386737D01*
X0008506Y0386860D01*
X0008600Y0386981D01*
X0008698Y0387099D01*
X0008798Y0387215D01*
X0008902Y0387328D01*
X0009008Y0387439D01*
X0009117Y0387547D01*
X0009229Y0387652D01*
X0009343Y0387753D01*
X0009461Y0387852D01*
X0009580Y0387948D01*
X0009702Y0388041D01*
X0009827Y0388130D01*
X0009954Y0388217D01*
X0010083Y0388299D01*
X0010214Y0388379D01*
X0010347Y0388455D01*
X0010482Y0388528D01*
X0010619Y0388597D01*
X0010758Y0388662D01*
X0010898Y0388724D01*
X0011040Y0388782D01*
X0011183Y0388837D01*
X0011328Y0388888D01*
X0011474Y0388935D01*
X0011621Y0388978D01*
X0011769Y0389017D01*
X0011918Y0389053D01*
X0012068Y0389084D01*
X0012219Y0389112D01*
X0012370Y0389136D01*
X0012523Y0389156D01*
X0012675Y0389172D01*
X0012828Y0389184D01*
X0012981Y0389192D01*
X0013134Y0389196D01*
X0013288Y0389196D01*
X0013441Y0389192D01*
X0013594Y0389184D01*
X0013747Y0389172D01*
X0013899Y0389156D01*
X0014052Y0389136D01*
X0014203Y0389112D01*
X0014354Y0389084D01*
X0014504Y0389053D01*
X0014653Y0389017D01*
X0014801Y0388978D01*
X0014948Y0388935D01*
X0015094Y0388888D01*
X0015239Y0388837D01*
X0015382Y0388782D01*
X0015524Y0388724D01*
X0015664Y0388662D01*
X0015803Y0388597D01*
X0015940Y0388528D01*
X0016075Y0388455D01*
X0016208Y0388379D01*
X0016339Y0388299D01*
X0016468Y0388217D01*
X0016595Y0388130D01*
X0016720Y0388041D01*
X0016842Y0387948D01*
X0016961Y0387852D01*
X0017079Y0387753D01*
X0017193Y0387652D01*
X0017305Y0387547D01*
X0017414Y0387439D01*
X0017520Y0387328D01*
X0017624Y0387215D01*
X0017724Y0387099D01*
X0017822Y0386981D01*
X0017916Y0386860D01*
X0018007Y0386737D01*
X0018095Y0386611D01*
X0018179Y0386483D01*
X0018261Y0386353D01*
X0018338Y0386221D01*
X0018413Y0386087D01*
X0018484Y0385951D01*
X0018551Y0385813D01*
X0018615Y0385673D01*
X0018675Y0385532D01*
X0018731Y0385390D01*
X0018784Y0385246D01*
X0018833Y0385100D01*
X0018878Y0384954D01*
X0018919Y0384806D01*
X0018956Y0384658D01*
X0018990Y0384508D01*
X0019020Y0384357D01*
X0019045Y0384206D01*
X0019067Y0384055D01*
X0019085Y0383902D01*
X0019099Y0383750D01*
X0019109Y0383597D01*
X0019115Y0383443D01*
X0019117Y0383290D01*
X0019115Y0383137D01*
X0019109Y0382983D01*
X0019099Y0382830D01*
X0019085Y0382678D01*
X0019067Y0382525D01*
X0019045Y0382374D01*
X0019020Y0382223D01*
X0018990Y0382072D01*
X0018956Y0381922D01*
X0018919Y0381774D01*
X0018878Y0381626D01*
X0018833Y0381480D01*
X0018784Y0381334D01*
X0018731Y0381190D01*
X0018675Y0381048D01*
X0018615Y0380907D01*
X0018551Y0380767D01*
X0018484Y0380629D01*
X0018413Y0380493D01*
X0018338Y0380359D01*
X0018261Y0380227D01*
X0018179Y0380097D01*
X0018095Y0379969D01*
X0018007Y0379843D01*
X0017916Y0379720D01*
X0017822Y0379599D01*
X0017724Y0379481D01*
X0017624Y0379365D01*
X0017520Y0379252D01*
X0017414Y0379141D01*
X0017305Y0379033D01*
X0017193Y0378928D01*
X0017079Y0378827D01*
X0016961Y0378728D01*
X0016842Y0378632D01*
X0016720Y0378539D01*
X0016595Y0378450D01*
X0016468Y0378363D01*
X0016339Y0378281D01*
X0016208Y0378201D01*
X0016075Y0378125D01*
X0015940Y0378052D01*
X0015803Y0377983D01*
X0015664Y0377918D01*
X0015524Y0377856D01*
X0015382Y0377798D01*
X0015239Y0377743D01*
X0015094Y0377692D01*
X0014948Y0377645D01*
X0014801Y0377602D01*
X0014653Y0377563D01*
X0014504Y0377527D01*
X0014354Y0377496D01*
X0014203Y0377468D01*
X0014052Y0377444D01*
X0013899Y0377424D01*
X0013747Y0377408D01*
X0013594Y0377396D01*
X0013441Y0377388D01*
X0013288Y0377384D01*
X0013134Y0377384D01*
X0012981Y0377388D01*
X0012828Y0377396D01*
X0012675Y0377408D01*
X0012523Y0377424D01*
X0012370Y0377444D01*
X0012219Y0377468D01*
X0012068Y0377496D01*
X0011918Y0377527D01*
X0011769Y0377563D01*
X0011621Y0377602D01*
X0011474Y0377645D01*
X0011328Y0377692D01*
X0011183Y0377743D01*
X0011040Y0377798D01*
X0010898Y0377856D01*
X0010758Y0377918D01*
X0010619Y0377983D01*
X0010482Y0378052D01*
X0010347Y0378125D01*
X0010214Y0378201D01*
X0010083Y0378281D01*
X0009954Y0378363D01*
X0009827Y0378450D01*
X0009702Y0378539D01*
X0009580Y0378632D01*
X0009461Y0378728D01*
X0009343Y0378827D01*
X0009229Y0378928D01*
X0009117Y0379033D01*
X0009008Y0379141D01*
X0008902Y0379252D01*
X0008798Y0379365D01*
X0008698Y0379481D01*
X0008600Y0379599D01*
X0008506Y0379720D01*
X0008415Y0379843D01*
X0008327Y0379969D01*
X0008243Y0380097D01*
X0008161Y0380227D01*
X0008084Y0380359D01*
X0008009Y0380493D01*
X0007938Y0380629D01*
X0007871Y0380767D01*
X0007807Y0380907D01*
X0007747Y0381048D01*
X0007691Y0381190D01*
X0007638Y0381334D01*
X0007589Y0381480D01*
X0007544Y0381626D01*
X0007503Y0381774D01*
X0007466Y0381922D01*
X0007432Y0382072D01*
X0007402Y0382223D01*
X0007377Y0382374D01*
X0007355Y0382525D01*
X0007337Y0382678D01*
X0007323Y0382830D01*
X0007313Y0382983D01*
X0007307Y0383137D01*
X0007305Y0383290D01*
X0180533Y0383290D02*
X0180535Y0383443D01*
X0180541Y0383597D01*
X0180551Y0383750D01*
X0180565Y0383902D01*
X0180583Y0384055D01*
X0180605Y0384206D01*
X0180630Y0384357D01*
X0180660Y0384508D01*
X0180694Y0384658D01*
X0180731Y0384806D01*
X0180772Y0384954D01*
X0180817Y0385100D01*
X0180866Y0385246D01*
X0180919Y0385390D01*
X0180975Y0385532D01*
X0181035Y0385673D01*
X0181099Y0385813D01*
X0181166Y0385951D01*
X0181237Y0386087D01*
X0181312Y0386221D01*
X0181389Y0386353D01*
X0181471Y0386483D01*
X0181555Y0386611D01*
X0181643Y0386737D01*
X0181734Y0386860D01*
X0181828Y0386981D01*
X0181926Y0387099D01*
X0182026Y0387215D01*
X0182130Y0387328D01*
X0182236Y0387439D01*
X0182345Y0387547D01*
X0182457Y0387652D01*
X0182571Y0387753D01*
X0182689Y0387852D01*
X0182808Y0387948D01*
X0182930Y0388041D01*
X0183055Y0388130D01*
X0183182Y0388217D01*
X0183311Y0388299D01*
X0183442Y0388379D01*
X0183575Y0388455D01*
X0183710Y0388528D01*
X0183847Y0388597D01*
X0183986Y0388662D01*
X0184126Y0388724D01*
X0184268Y0388782D01*
X0184411Y0388837D01*
X0184556Y0388888D01*
X0184702Y0388935D01*
X0184849Y0388978D01*
X0184997Y0389017D01*
X0185146Y0389053D01*
X0185296Y0389084D01*
X0185447Y0389112D01*
X0185598Y0389136D01*
X0185751Y0389156D01*
X0185903Y0389172D01*
X0186056Y0389184D01*
X0186209Y0389192D01*
X0186362Y0389196D01*
X0186516Y0389196D01*
X0186669Y0389192D01*
X0186822Y0389184D01*
X0186975Y0389172D01*
X0187127Y0389156D01*
X0187280Y0389136D01*
X0187431Y0389112D01*
X0187582Y0389084D01*
X0187732Y0389053D01*
X0187881Y0389017D01*
X0188029Y0388978D01*
X0188176Y0388935D01*
X0188322Y0388888D01*
X0188467Y0388837D01*
X0188610Y0388782D01*
X0188752Y0388724D01*
X0188892Y0388662D01*
X0189031Y0388597D01*
X0189168Y0388528D01*
X0189303Y0388455D01*
X0189436Y0388379D01*
X0189567Y0388299D01*
X0189696Y0388217D01*
X0189823Y0388130D01*
X0189948Y0388041D01*
X0190070Y0387948D01*
X0190189Y0387852D01*
X0190307Y0387753D01*
X0190421Y0387652D01*
X0190533Y0387547D01*
X0190642Y0387439D01*
X0190748Y0387328D01*
X0190852Y0387215D01*
X0190952Y0387099D01*
X0191050Y0386981D01*
X0191144Y0386860D01*
X0191235Y0386737D01*
X0191323Y0386611D01*
X0191407Y0386483D01*
X0191489Y0386353D01*
X0191566Y0386221D01*
X0191641Y0386087D01*
X0191712Y0385951D01*
X0191779Y0385813D01*
X0191843Y0385673D01*
X0191903Y0385532D01*
X0191959Y0385390D01*
X0192012Y0385246D01*
X0192061Y0385100D01*
X0192106Y0384954D01*
X0192147Y0384806D01*
X0192184Y0384658D01*
X0192218Y0384508D01*
X0192248Y0384357D01*
X0192273Y0384206D01*
X0192295Y0384055D01*
X0192313Y0383902D01*
X0192327Y0383750D01*
X0192337Y0383597D01*
X0192343Y0383443D01*
X0192345Y0383290D01*
X0192343Y0383137D01*
X0192337Y0382983D01*
X0192327Y0382830D01*
X0192313Y0382678D01*
X0192295Y0382525D01*
X0192273Y0382374D01*
X0192248Y0382223D01*
X0192218Y0382072D01*
X0192184Y0381922D01*
X0192147Y0381774D01*
X0192106Y0381626D01*
X0192061Y0381480D01*
X0192012Y0381334D01*
X0191959Y0381190D01*
X0191903Y0381048D01*
X0191843Y0380907D01*
X0191779Y0380767D01*
X0191712Y0380629D01*
X0191641Y0380493D01*
X0191566Y0380359D01*
X0191489Y0380227D01*
X0191407Y0380097D01*
X0191323Y0379969D01*
X0191235Y0379843D01*
X0191144Y0379720D01*
X0191050Y0379599D01*
X0190952Y0379481D01*
X0190852Y0379365D01*
X0190748Y0379252D01*
X0190642Y0379141D01*
X0190533Y0379033D01*
X0190421Y0378928D01*
X0190307Y0378827D01*
X0190189Y0378728D01*
X0190070Y0378632D01*
X0189948Y0378539D01*
X0189823Y0378450D01*
X0189696Y0378363D01*
X0189567Y0378281D01*
X0189436Y0378201D01*
X0189303Y0378125D01*
X0189168Y0378052D01*
X0189031Y0377983D01*
X0188892Y0377918D01*
X0188752Y0377856D01*
X0188610Y0377798D01*
X0188467Y0377743D01*
X0188322Y0377692D01*
X0188176Y0377645D01*
X0188029Y0377602D01*
X0187881Y0377563D01*
X0187732Y0377527D01*
X0187582Y0377496D01*
X0187431Y0377468D01*
X0187280Y0377444D01*
X0187127Y0377424D01*
X0186975Y0377408D01*
X0186822Y0377396D01*
X0186669Y0377388D01*
X0186516Y0377384D01*
X0186362Y0377384D01*
X0186209Y0377388D01*
X0186056Y0377396D01*
X0185903Y0377408D01*
X0185751Y0377424D01*
X0185598Y0377444D01*
X0185447Y0377468D01*
X0185296Y0377496D01*
X0185146Y0377527D01*
X0184997Y0377563D01*
X0184849Y0377602D01*
X0184702Y0377645D01*
X0184556Y0377692D01*
X0184411Y0377743D01*
X0184268Y0377798D01*
X0184126Y0377856D01*
X0183986Y0377918D01*
X0183847Y0377983D01*
X0183710Y0378052D01*
X0183575Y0378125D01*
X0183442Y0378201D01*
X0183311Y0378281D01*
X0183182Y0378363D01*
X0183055Y0378450D01*
X0182930Y0378539D01*
X0182808Y0378632D01*
X0182689Y0378728D01*
X0182571Y0378827D01*
X0182457Y0378928D01*
X0182345Y0379033D01*
X0182236Y0379141D01*
X0182130Y0379252D01*
X0182026Y0379365D01*
X0181926Y0379481D01*
X0181828Y0379599D01*
X0181734Y0379720D01*
X0181643Y0379843D01*
X0181555Y0379969D01*
X0181471Y0380097D01*
X0181389Y0380227D01*
X0181312Y0380359D01*
X0181237Y0380493D01*
X0181166Y0380629D01*
X0181099Y0380767D01*
X0181035Y0380907D01*
X0180975Y0381048D01*
X0180919Y0381190D01*
X0180866Y0381334D01*
X0180817Y0381480D01*
X0180772Y0381626D01*
X0180731Y0381774D01*
X0180694Y0381922D01*
X0180660Y0382072D01*
X0180630Y0382223D01*
X0180605Y0382374D01*
X0180583Y0382525D01*
X0180565Y0382678D01*
X0180551Y0382830D01*
X0180541Y0382983D01*
X0180535Y0383137D01*
X0180533Y0383290D01*
X0180533Y0198250D02*
X0180535Y0198403D01*
X0180541Y0198557D01*
X0180551Y0198710D01*
X0180565Y0198862D01*
X0180583Y0199015D01*
X0180605Y0199166D01*
X0180630Y0199317D01*
X0180660Y0199468D01*
X0180694Y0199618D01*
X0180731Y0199766D01*
X0180772Y0199914D01*
X0180817Y0200060D01*
X0180866Y0200206D01*
X0180919Y0200350D01*
X0180975Y0200492D01*
X0181035Y0200633D01*
X0181099Y0200773D01*
X0181166Y0200911D01*
X0181237Y0201047D01*
X0181312Y0201181D01*
X0181389Y0201313D01*
X0181471Y0201443D01*
X0181555Y0201571D01*
X0181643Y0201697D01*
X0181734Y0201820D01*
X0181828Y0201941D01*
X0181926Y0202059D01*
X0182026Y0202175D01*
X0182130Y0202288D01*
X0182236Y0202399D01*
X0182345Y0202507D01*
X0182457Y0202612D01*
X0182571Y0202713D01*
X0182689Y0202812D01*
X0182808Y0202908D01*
X0182930Y0203001D01*
X0183055Y0203090D01*
X0183182Y0203177D01*
X0183311Y0203259D01*
X0183442Y0203339D01*
X0183575Y0203415D01*
X0183710Y0203488D01*
X0183847Y0203557D01*
X0183986Y0203622D01*
X0184126Y0203684D01*
X0184268Y0203742D01*
X0184411Y0203797D01*
X0184556Y0203848D01*
X0184702Y0203895D01*
X0184849Y0203938D01*
X0184997Y0203977D01*
X0185146Y0204013D01*
X0185296Y0204044D01*
X0185447Y0204072D01*
X0185598Y0204096D01*
X0185751Y0204116D01*
X0185903Y0204132D01*
X0186056Y0204144D01*
X0186209Y0204152D01*
X0186362Y0204156D01*
X0186516Y0204156D01*
X0186669Y0204152D01*
X0186822Y0204144D01*
X0186975Y0204132D01*
X0187127Y0204116D01*
X0187280Y0204096D01*
X0187431Y0204072D01*
X0187582Y0204044D01*
X0187732Y0204013D01*
X0187881Y0203977D01*
X0188029Y0203938D01*
X0188176Y0203895D01*
X0188322Y0203848D01*
X0188467Y0203797D01*
X0188610Y0203742D01*
X0188752Y0203684D01*
X0188892Y0203622D01*
X0189031Y0203557D01*
X0189168Y0203488D01*
X0189303Y0203415D01*
X0189436Y0203339D01*
X0189567Y0203259D01*
X0189696Y0203177D01*
X0189823Y0203090D01*
X0189948Y0203001D01*
X0190070Y0202908D01*
X0190189Y0202812D01*
X0190307Y0202713D01*
X0190421Y0202612D01*
X0190533Y0202507D01*
X0190642Y0202399D01*
X0190748Y0202288D01*
X0190852Y0202175D01*
X0190952Y0202059D01*
X0191050Y0201941D01*
X0191144Y0201820D01*
X0191235Y0201697D01*
X0191323Y0201571D01*
X0191407Y0201443D01*
X0191489Y0201313D01*
X0191566Y0201181D01*
X0191641Y0201047D01*
X0191712Y0200911D01*
X0191779Y0200773D01*
X0191843Y0200633D01*
X0191903Y0200492D01*
X0191959Y0200350D01*
X0192012Y0200206D01*
X0192061Y0200060D01*
X0192106Y0199914D01*
X0192147Y0199766D01*
X0192184Y0199618D01*
X0192218Y0199468D01*
X0192248Y0199317D01*
X0192273Y0199166D01*
X0192295Y0199015D01*
X0192313Y0198862D01*
X0192327Y0198710D01*
X0192337Y0198557D01*
X0192343Y0198403D01*
X0192345Y0198250D01*
X0192343Y0198097D01*
X0192337Y0197943D01*
X0192327Y0197790D01*
X0192313Y0197638D01*
X0192295Y0197485D01*
X0192273Y0197334D01*
X0192248Y0197183D01*
X0192218Y0197032D01*
X0192184Y0196882D01*
X0192147Y0196734D01*
X0192106Y0196586D01*
X0192061Y0196440D01*
X0192012Y0196294D01*
X0191959Y0196150D01*
X0191903Y0196008D01*
X0191843Y0195867D01*
X0191779Y0195727D01*
X0191712Y0195589D01*
X0191641Y0195453D01*
X0191566Y0195319D01*
X0191489Y0195187D01*
X0191407Y0195057D01*
X0191323Y0194929D01*
X0191235Y0194803D01*
X0191144Y0194680D01*
X0191050Y0194559D01*
X0190952Y0194441D01*
X0190852Y0194325D01*
X0190748Y0194212D01*
X0190642Y0194101D01*
X0190533Y0193993D01*
X0190421Y0193888D01*
X0190307Y0193787D01*
X0190189Y0193688D01*
X0190070Y0193592D01*
X0189948Y0193499D01*
X0189823Y0193410D01*
X0189696Y0193323D01*
X0189567Y0193241D01*
X0189436Y0193161D01*
X0189303Y0193085D01*
X0189168Y0193012D01*
X0189031Y0192943D01*
X0188892Y0192878D01*
X0188752Y0192816D01*
X0188610Y0192758D01*
X0188467Y0192703D01*
X0188322Y0192652D01*
X0188176Y0192605D01*
X0188029Y0192562D01*
X0187881Y0192523D01*
X0187732Y0192487D01*
X0187582Y0192456D01*
X0187431Y0192428D01*
X0187280Y0192404D01*
X0187127Y0192384D01*
X0186975Y0192368D01*
X0186822Y0192356D01*
X0186669Y0192348D01*
X0186516Y0192344D01*
X0186362Y0192344D01*
X0186209Y0192348D01*
X0186056Y0192356D01*
X0185903Y0192368D01*
X0185751Y0192384D01*
X0185598Y0192404D01*
X0185447Y0192428D01*
X0185296Y0192456D01*
X0185146Y0192487D01*
X0184997Y0192523D01*
X0184849Y0192562D01*
X0184702Y0192605D01*
X0184556Y0192652D01*
X0184411Y0192703D01*
X0184268Y0192758D01*
X0184126Y0192816D01*
X0183986Y0192878D01*
X0183847Y0192943D01*
X0183710Y0193012D01*
X0183575Y0193085D01*
X0183442Y0193161D01*
X0183311Y0193241D01*
X0183182Y0193323D01*
X0183055Y0193410D01*
X0182930Y0193499D01*
X0182808Y0193592D01*
X0182689Y0193688D01*
X0182571Y0193787D01*
X0182457Y0193888D01*
X0182345Y0193993D01*
X0182236Y0194101D01*
X0182130Y0194212D01*
X0182026Y0194325D01*
X0181926Y0194441D01*
X0181828Y0194559D01*
X0181734Y0194680D01*
X0181643Y0194803D01*
X0181555Y0194929D01*
X0181471Y0195057D01*
X0181389Y0195187D01*
X0181312Y0195319D01*
X0181237Y0195453D01*
X0181166Y0195589D01*
X0181099Y0195727D01*
X0181035Y0195867D01*
X0180975Y0196008D01*
X0180919Y0196150D01*
X0180866Y0196294D01*
X0180817Y0196440D01*
X0180772Y0196586D01*
X0180731Y0196734D01*
X0180694Y0196882D01*
X0180660Y0197032D01*
X0180630Y0197183D01*
X0180605Y0197334D01*
X0180583Y0197485D01*
X0180565Y0197638D01*
X0180551Y0197790D01*
X0180541Y0197943D01*
X0180535Y0198097D01*
X0180533Y0198250D01*
X0180533Y0013211D02*
X0180535Y0013364D01*
X0180541Y0013518D01*
X0180551Y0013671D01*
X0180565Y0013823D01*
X0180583Y0013976D01*
X0180605Y0014127D01*
X0180630Y0014278D01*
X0180660Y0014429D01*
X0180694Y0014579D01*
X0180731Y0014727D01*
X0180772Y0014875D01*
X0180817Y0015021D01*
X0180866Y0015167D01*
X0180919Y0015311D01*
X0180975Y0015453D01*
X0181035Y0015594D01*
X0181099Y0015734D01*
X0181166Y0015872D01*
X0181237Y0016008D01*
X0181312Y0016142D01*
X0181389Y0016274D01*
X0181471Y0016404D01*
X0181555Y0016532D01*
X0181643Y0016658D01*
X0181734Y0016781D01*
X0181828Y0016902D01*
X0181926Y0017020D01*
X0182026Y0017136D01*
X0182130Y0017249D01*
X0182236Y0017360D01*
X0182345Y0017468D01*
X0182457Y0017573D01*
X0182571Y0017674D01*
X0182689Y0017773D01*
X0182808Y0017869D01*
X0182930Y0017962D01*
X0183055Y0018051D01*
X0183182Y0018138D01*
X0183311Y0018220D01*
X0183442Y0018300D01*
X0183575Y0018376D01*
X0183710Y0018449D01*
X0183847Y0018518D01*
X0183986Y0018583D01*
X0184126Y0018645D01*
X0184268Y0018703D01*
X0184411Y0018758D01*
X0184556Y0018809D01*
X0184702Y0018856D01*
X0184849Y0018899D01*
X0184997Y0018938D01*
X0185146Y0018974D01*
X0185296Y0019005D01*
X0185447Y0019033D01*
X0185598Y0019057D01*
X0185751Y0019077D01*
X0185903Y0019093D01*
X0186056Y0019105D01*
X0186209Y0019113D01*
X0186362Y0019117D01*
X0186516Y0019117D01*
X0186669Y0019113D01*
X0186822Y0019105D01*
X0186975Y0019093D01*
X0187127Y0019077D01*
X0187280Y0019057D01*
X0187431Y0019033D01*
X0187582Y0019005D01*
X0187732Y0018974D01*
X0187881Y0018938D01*
X0188029Y0018899D01*
X0188176Y0018856D01*
X0188322Y0018809D01*
X0188467Y0018758D01*
X0188610Y0018703D01*
X0188752Y0018645D01*
X0188892Y0018583D01*
X0189031Y0018518D01*
X0189168Y0018449D01*
X0189303Y0018376D01*
X0189436Y0018300D01*
X0189567Y0018220D01*
X0189696Y0018138D01*
X0189823Y0018051D01*
X0189948Y0017962D01*
X0190070Y0017869D01*
X0190189Y0017773D01*
X0190307Y0017674D01*
X0190421Y0017573D01*
X0190533Y0017468D01*
X0190642Y0017360D01*
X0190748Y0017249D01*
X0190852Y0017136D01*
X0190952Y0017020D01*
X0191050Y0016902D01*
X0191144Y0016781D01*
X0191235Y0016658D01*
X0191323Y0016532D01*
X0191407Y0016404D01*
X0191489Y0016274D01*
X0191566Y0016142D01*
X0191641Y0016008D01*
X0191712Y0015872D01*
X0191779Y0015734D01*
X0191843Y0015594D01*
X0191903Y0015453D01*
X0191959Y0015311D01*
X0192012Y0015167D01*
X0192061Y0015021D01*
X0192106Y0014875D01*
X0192147Y0014727D01*
X0192184Y0014579D01*
X0192218Y0014429D01*
X0192248Y0014278D01*
X0192273Y0014127D01*
X0192295Y0013976D01*
X0192313Y0013823D01*
X0192327Y0013671D01*
X0192337Y0013518D01*
X0192343Y0013364D01*
X0192345Y0013211D01*
X0192343Y0013058D01*
X0192337Y0012904D01*
X0192327Y0012751D01*
X0192313Y0012599D01*
X0192295Y0012446D01*
X0192273Y0012295D01*
X0192248Y0012144D01*
X0192218Y0011993D01*
X0192184Y0011843D01*
X0192147Y0011695D01*
X0192106Y0011547D01*
X0192061Y0011401D01*
X0192012Y0011255D01*
X0191959Y0011111D01*
X0191903Y0010969D01*
X0191843Y0010828D01*
X0191779Y0010688D01*
X0191712Y0010550D01*
X0191641Y0010414D01*
X0191566Y0010280D01*
X0191489Y0010148D01*
X0191407Y0010018D01*
X0191323Y0009890D01*
X0191235Y0009764D01*
X0191144Y0009641D01*
X0191050Y0009520D01*
X0190952Y0009402D01*
X0190852Y0009286D01*
X0190748Y0009173D01*
X0190642Y0009062D01*
X0190533Y0008954D01*
X0190421Y0008849D01*
X0190307Y0008748D01*
X0190189Y0008649D01*
X0190070Y0008553D01*
X0189948Y0008460D01*
X0189823Y0008371D01*
X0189696Y0008284D01*
X0189567Y0008202D01*
X0189436Y0008122D01*
X0189303Y0008046D01*
X0189168Y0007973D01*
X0189031Y0007904D01*
X0188892Y0007839D01*
X0188752Y0007777D01*
X0188610Y0007719D01*
X0188467Y0007664D01*
X0188322Y0007613D01*
X0188176Y0007566D01*
X0188029Y0007523D01*
X0187881Y0007484D01*
X0187732Y0007448D01*
X0187582Y0007417D01*
X0187431Y0007389D01*
X0187280Y0007365D01*
X0187127Y0007345D01*
X0186975Y0007329D01*
X0186822Y0007317D01*
X0186669Y0007309D01*
X0186516Y0007305D01*
X0186362Y0007305D01*
X0186209Y0007309D01*
X0186056Y0007317D01*
X0185903Y0007329D01*
X0185751Y0007345D01*
X0185598Y0007365D01*
X0185447Y0007389D01*
X0185296Y0007417D01*
X0185146Y0007448D01*
X0184997Y0007484D01*
X0184849Y0007523D01*
X0184702Y0007566D01*
X0184556Y0007613D01*
X0184411Y0007664D01*
X0184268Y0007719D01*
X0184126Y0007777D01*
X0183986Y0007839D01*
X0183847Y0007904D01*
X0183710Y0007973D01*
X0183575Y0008046D01*
X0183442Y0008122D01*
X0183311Y0008202D01*
X0183182Y0008284D01*
X0183055Y0008371D01*
X0182930Y0008460D01*
X0182808Y0008553D01*
X0182689Y0008649D01*
X0182571Y0008748D01*
X0182457Y0008849D01*
X0182345Y0008954D01*
X0182236Y0009062D01*
X0182130Y0009173D01*
X0182026Y0009286D01*
X0181926Y0009402D01*
X0181828Y0009520D01*
X0181734Y0009641D01*
X0181643Y0009764D01*
X0181555Y0009890D01*
X0181471Y0010018D01*
X0181389Y0010148D01*
X0181312Y0010280D01*
X0181237Y0010414D01*
X0181166Y0010550D01*
X0181099Y0010688D01*
X0181035Y0010828D01*
X0180975Y0010969D01*
X0180919Y0011111D01*
X0180866Y0011255D01*
X0180817Y0011401D01*
X0180772Y0011547D01*
X0180731Y0011695D01*
X0180694Y0011843D01*
X0180660Y0011993D01*
X0180630Y0012144D01*
X0180605Y0012295D01*
X0180583Y0012446D01*
X0180565Y0012599D01*
X0180551Y0012751D01*
X0180541Y0012904D01*
X0180535Y0013058D01*
X0180533Y0013211D01*
D11*
X0124825Y0379590D02*
X0124825Y0386990D01*
X0114825Y0386990D02*
X0114825Y0379590D01*
X0104825Y0379590D02*
X0104825Y0386990D01*
X0094825Y0386990D02*
X0094825Y0379590D01*
X0084825Y0379590D02*
X0084825Y0386990D01*
X0074825Y0386990D02*
X0074825Y0379590D01*
D12*
X0144943Y0032896D03*
X0154943Y0032896D03*
X0164943Y0032896D03*
D13*
X0174943Y0032896D03*
X0134912Y0032896D03*
X0111636Y0027896D03*
X0080140Y0027896D03*
X0048644Y0027896D03*
D14*
X0048644Y0037896D03*
X0080140Y0037896D03*
X0111636Y0037896D03*
D15*
X0117446Y0084313D02*
X0124646Y0084313D01*
X0117205Y0099825D02*
X0110005Y0099825D01*
X0111580Y0118526D02*
X0118780Y0118526D01*
X0125359Y0194313D02*
X0132559Y0194313D01*
X0124803Y0208487D02*
X0117603Y0208487D01*
X0116698Y0228762D02*
X0123898Y0228762D01*
X0123784Y0273054D02*
X0130984Y0273054D01*
X0130984Y0280928D02*
X0123784Y0280928D01*
X0123898Y0315376D02*
X0116698Y0315376D01*
X0075866Y0280928D02*
X0068666Y0280928D01*
X0068666Y0273054D02*
X0075866Y0273054D01*
X0073898Y0257148D02*
X0066698Y0257148D01*
X0066698Y0247148D02*
X0073898Y0247148D01*
X0073898Y0237148D02*
X0066698Y0237148D01*
X0066698Y0227148D02*
X0073898Y0227148D01*
X0073898Y0217148D02*
X0066698Y0217148D01*
X0067091Y0202187D02*
X0074291Y0202187D01*
X0074291Y0194313D02*
X0067091Y0194313D01*
X0066698Y0146912D02*
X0073898Y0146912D01*
X0073898Y0136912D02*
X0066698Y0136912D01*
X0066698Y0126912D02*
X0073898Y0126912D01*
X0073898Y0116912D02*
X0066698Y0116912D01*
X0066698Y0106912D02*
X0073898Y0106912D01*
X0072559Y0091164D02*
X0065359Y0091164D01*
X0066698Y0303762D02*
X0073898Y0303762D01*
X0073898Y0313762D02*
X0066698Y0313762D01*
X0066698Y0323762D02*
X0073898Y0323762D01*
X0073898Y0333762D02*
X0066698Y0333762D01*
X0066698Y0343762D02*
X0073898Y0343762D01*
D16*
X0143132Y0068329D03*
X0143132Y0052581D03*
D17*
X0153132Y0052581D03*
X0153132Y0068329D03*
X0163132Y0068329D03*
X0163132Y0052581D03*
X0186439Y0108526D03*
X0186439Y0118526D03*
D18*
X0036833Y0367542D03*
D19*
X0050613Y0367542D03*
D20*
X0052387Y0372708D02*
X0092025Y0372708D01*
X0092025Y0373506D02*
X0021828Y0373506D01*
X0021200Y0372878D02*
X0023622Y0375301D01*
X0025335Y0378268D01*
X0026222Y0381577D01*
X0026222Y0385003D01*
X0025335Y0388312D01*
X0023622Y0391279D01*
X0021200Y0393701D01*
X0020854Y0393901D01*
X0029823Y0393901D01*
X0027396Y0391473D01*
X0027396Y0386917D01*
X0030618Y0383695D01*
X0035174Y0383695D01*
X0038396Y0386917D01*
X0038396Y0391473D01*
X0035969Y0393901D01*
X0051871Y0393901D01*
X0049443Y0391473D01*
X0049443Y0386917D01*
X0052665Y0383695D01*
X0057221Y0383695D01*
X0060443Y0386917D01*
X0060443Y0391473D01*
X0058016Y0393901D01*
X0178796Y0393901D01*
X0178450Y0393701D01*
X0176028Y0391279D01*
X0174315Y0388312D01*
X0173428Y0385003D01*
X0173428Y0381577D01*
X0174315Y0378268D01*
X0176028Y0375301D01*
X0178450Y0372878D01*
X0181417Y0371165D01*
X0184726Y0370279D01*
X0188152Y0370279D01*
X0191461Y0371165D01*
X0194428Y0372878D01*
X0196851Y0375301D01*
X0197050Y0375647D01*
X0197050Y0205894D01*
X0196851Y0206239D01*
X0194428Y0208662D01*
X0191461Y0210375D01*
X0188152Y0211261D01*
X0184726Y0211261D01*
X0181417Y0210375D01*
X0178450Y0208662D01*
X0176028Y0206239D01*
X0174315Y0203272D01*
X0173428Y0199963D01*
X0173428Y0196537D01*
X0174315Y0193228D01*
X0176028Y0190261D01*
X0178450Y0187839D01*
X0181417Y0186126D01*
X0184726Y0185239D01*
X0188152Y0185239D01*
X0191461Y0186126D01*
X0194428Y0187839D01*
X0196851Y0190261D01*
X0197050Y0190607D01*
X0197050Y0020854D01*
X0196851Y0021200D01*
X0194428Y0023622D01*
X0191461Y0025335D01*
X0188152Y0026222D01*
X0184726Y0026222D01*
X0181417Y0025335D01*
X0178450Y0023622D01*
X0176028Y0021200D01*
X0174315Y0018233D01*
X0173428Y0014924D01*
X0173428Y0011498D01*
X0174315Y0008189D01*
X0176028Y0005222D01*
X0178450Y0002800D01*
X0178796Y0002600D01*
X0020854Y0002600D01*
X0021200Y0002800D01*
X0023622Y0005222D01*
X0025335Y0008189D01*
X0026222Y0011498D01*
X0026222Y0014924D01*
X0025335Y0018233D01*
X0023622Y0021200D01*
X0021200Y0023622D01*
X0018233Y0025335D01*
X0014924Y0026222D01*
X0011498Y0026222D01*
X0008189Y0025335D01*
X0005222Y0023622D01*
X0002800Y0021200D01*
X0002600Y0020854D01*
X0002600Y0190607D01*
X0002800Y0190261D01*
X0005222Y0187839D01*
X0008189Y0186126D01*
X0011498Y0185239D01*
X0014924Y0185239D01*
X0018233Y0186126D01*
X0021200Y0187839D01*
X0023622Y0190261D01*
X0025335Y0193228D01*
X0026222Y0196537D01*
X0026222Y0199963D01*
X0025335Y0203272D01*
X0023622Y0206239D01*
X0021200Y0208662D01*
X0018233Y0210375D01*
X0014924Y0211261D01*
X0011498Y0211261D01*
X0008189Y0210375D01*
X0005222Y0208662D01*
X0002800Y0206239D01*
X0002600Y0205894D01*
X0002600Y0375647D01*
X0002800Y0375301D01*
X0005222Y0372878D01*
X0008189Y0371165D01*
X0011498Y0370279D01*
X0014924Y0370279D01*
X0018233Y0371165D01*
X0021200Y0372878D01*
X0020905Y0372708D02*
X0031515Y0372708D01*
X0031461Y0372653D02*
X0031277Y0372334D01*
X0031181Y0371978D01*
X0031181Y0367942D01*
X0036433Y0367942D01*
X0036433Y0373194D01*
X0032397Y0373194D01*
X0032041Y0373098D01*
X0031721Y0372914D01*
X0031461Y0372653D01*
X0031181Y0371909D02*
X0019521Y0371909D01*
X0018029Y0371111D02*
X0031181Y0371111D01*
X0031181Y0370312D02*
X0015049Y0370312D01*
X0011373Y0370312D02*
X0002600Y0370312D01*
X0002600Y0369514D02*
X0031181Y0369514D01*
X0031181Y0368715D02*
X0002600Y0368715D01*
X0002600Y0367917D02*
X0036433Y0367917D01*
X0036433Y0367942D02*
X0036433Y0367142D01*
X0031181Y0367142D01*
X0031181Y0363105D01*
X0031277Y0362749D01*
X0031461Y0362430D01*
X0031721Y0362169D01*
X0032041Y0361985D01*
X0032397Y0361890D01*
X0036433Y0361890D01*
X0036433Y0367142D01*
X0037233Y0367142D01*
X0037233Y0367942D01*
X0036433Y0367942D01*
X0036433Y0368715D02*
X0037233Y0368715D01*
X0037233Y0367942D02*
X0037233Y0373194D01*
X0041269Y0373194D01*
X0041625Y0373098D01*
X0041945Y0372914D01*
X0042205Y0372653D01*
X0042390Y0372334D01*
X0042485Y0371978D01*
X0042485Y0367942D01*
X0037233Y0367942D01*
X0037233Y0367917D02*
X0045161Y0367917D01*
X0045161Y0368626D02*
X0045161Y0366457D01*
X0045991Y0364453D01*
X0047524Y0362920D01*
X0049528Y0362090D01*
X0051697Y0362090D01*
X0051985Y0362209D01*
X0064775Y0349420D01*
X0065804Y0348994D01*
X0138035Y0348994D01*
X0152143Y0334886D01*
X0152143Y0099268D01*
X0152570Y0098239D01*
X0153357Y0097451D01*
X0171828Y0078980D01*
X0171828Y0059898D01*
X0172255Y0058869D01*
X0173042Y0058081D01*
X0174071Y0057655D01*
X0175185Y0057655D01*
X0176214Y0058081D01*
X0177002Y0058869D01*
X0177428Y0059898D01*
X0177428Y0080697D01*
X0177002Y0081726D01*
X0157743Y0100985D01*
X0157743Y0336603D01*
X0157317Y0337632D01*
X0141569Y0353380D01*
X0140781Y0354167D01*
X0139752Y0354594D01*
X0067520Y0354594D01*
X0055945Y0366169D01*
X0056065Y0366457D01*
X0056065Y0368626D01*
X0055235Y0370630D01*
X0053701Y0372164D01*
X0051697Y0372994D01*
X0049528Y0372994D01*
X0047524Y0372164D01*
X0045991Y0370630D01*
X0045161Y0368626D01*
X0045198Y0368715D02*
X0042485Y0368715D01*
X0042485Y0369514D02*
X0045528Y0369514D01*
X0045859Y0370312D02*
X0042485Y0370312D01*
X0042485Y0371111D02*
X0046471Y0371111D01*
X0047270Y0371909D02*
X0042485Y0371909D01*
X0042151Y0372708D02*
X0048838Y0372708D01*
X0053955Y0371909D02*
X0092025Y0371909D01*
X0092025Y0371111D02*
X0054754Y0371111D01*
X0055366Y0370312D02*
X0092025Y0370312D01*
X0092025Y0369514D02*
X0055697Y0369514D01*
X0056028Y0368715D02*
X0092025Y0368715D01*
X0092025Y0367917D02*
X0056065Y0367917D01*
X0056065Y0367118D02*
X0092025Y0367118D01*
X0092025Y0366320D02*
X0056008Y0366320D01*
X0056593Y0365521D02*
X0092025Y0365521D01*
X0092025Y0364723D02*
X0057391Y0364723D01*
X0058190Y0363924D02*
X0092102Y0363924D01*
X0092025Y0364111D02*
X0092451Y0363082D01*
X0093239Y0362294D01*
X0098239Y0357294D01*
X0099268Y0356868D01*
X0141972Y0356868D01*
X0160017Y0338823D01*
X0160017Y0107142D01*
X0160444Y0106113D01*
X0161231Y0105325D01*
X0183639Y0082917D01*
X0183639Y0061615D01*
X0177406Y0055381D01*
X0167262Y0055381D01*
X0165908Y0056735D01*
X0164107Y0057481D01*
X0162158Y0057481D01*
X0160357Y0056735D01*
X0158978Y0055357D01*
X0158232Y0053556D01*
X0158232Y0051606D01*
X0158978Y0049805D01*
X0160357Y0048427D01*
X0162158Y0047681D01*
X0164107Y0047681D01*
X0165908Y0048427D01*
X0167262Y0049781D01*
X0179122Y0049781D01*
X0180151Y0050207D01*
X0188025Y0058081D01*
X0188813Y0058869D01*
X0189239Y0059898D01*
X0189239Y0084634D01*
X0188813Y0085663D01*
X0165617Y0108859D01*
X0165617Y0340540D01*
X0165191Y0341569D01*
X0145506Y0361254D01*
X0144718Y0362041D01*
X0143689Y0362468D01*
X0100985Y0362468D01*
X0097625Y0365828D01*
X0097625Y0375460D01*
X0098979Y0376814D01*
X0099725Y0378615D01*
X0099725Y0387964D01*
X0098979Y0389765D01*
X0097601Y0391144D01*
X0095800Y0391890D01*
X0093851Y0391890D01*
X0092050Y0391144D01*
X0090671Y0389765D01*
X0089925Y0387964D01*
X0089925Y0378615D01*
X0090671Y0376814D01*
X0092025Y0375460D01*
X0092025Y0364111D01*
X0092433Y0363126D02*
X0058988Y0363126D01*
X0059787Y0362327D02*
X0093206Y0362327D01*
X0094005Y0361529D02*
X0060586Y0361529D01*
X0061384Y0360730D02*
X0094803Y0360730D01*
X0095602Y0359932D02*
X0062183Y0359932D01*
X0062981Y0359133D02*
X0096400Y0359133D01*
X0097199Y0358335D02*
X0063780Y0358335D01*
X0064578Y0357536D02*
X0097997Y0357536D01*
X0100327Y0363126D02*
X0197050Y0363126D01*
X0197050Y0363924D02*
X0099529Y0363924D01*
X0098730Y0364723D02*
X0197050Y0364723D01*
X0197050Y0365521D02*
X0097932Y0365521D01*
X0097625Y0366320D02*
X0197050Y0366320D01*
X0197050Y0367118D02*
X0097625Y0367118D01*
X0097625Y0367917D02*
X0197050Y0367917D01*
X0197050Y0368715D02*
X0097625Y0368715D01*
X0097625Y0369514D02*
X0197050Y0369514D01*
X0197050Y0370312D02*
X0188277Y0370312D01*
X0191257Y0371111D02*
X0197050Y0371111D01*
X0197050Y0371909D02*
X0192750Y0371909D01*
X0194133Y0372708D02*
X0197050Y0372708D01*
X0197050Y0373506D02*
X0195056Y0373506D01*
X0195855Y0374305D02*
X0197050Y0374305D01*
X0197050Y0375103D02*
X0196653Y0375103D01*
X0197050Y0362327D02*
X0144029Y0362327D01*
X0145231Y0361529D02*
X0197050Y0361529D01*
X0197050Y0360730D02*
X0146030Y0360730D01*
X0146828Y0359932D02*
X0197050Y0359932D01*
X0197050Y0359133D02*
X0147627Y0359133D01*
X0148425Y0358335D02*
X0197050Y0358335D01*
X0197050Y0357536D02*
X0149224Y0357536D01*
X0150022Y0356738D02*
X0197050Y0356738D01*
X0197050Y0355939D02*
X0150821Y0355939D01*
X0151619Y0355141D02*
X0197050Y0355141D01*
X0197050Y0354342D02*
X0152418Y0354342D01*
X0153216Y0353543D02*
X0197050Y0353543D01*
X0197050Y0352745D02*
X0154015Y0352745D01*
X0154813Y0351946D02*
X0197050Y0351946D01*
X0197050Y0351148D02*
X0155612Y0351148D01*
X0156410Y0350349D02*
X0197050Y0350349D01*
X0197050Y0349551D02*
X0157209Y0349551D01*
X0158007Y0348752D02*
X0197050Y0348752D01*
X0197050Y0347954D02*
X0158806Y0347954D01*
X0159604Y0347155D02*
X0197050Y0347155D01*
X0197050Y0346357D02*
X0160403Y0346357D01*
X0161201Y0345558D02*
X0197050Y0345558D01*
X0197050Y0344760D02*
X0162000Y0344760D01*
X0162798Y0343961D02*
X0197050Y0343961D01*
X0197050Y0343163D02*
X0163597Y0343163D01*
X0164395Y0342364D02*
X0197050Y0342364D01*
X0197050Y0341566D02*
X0165192Y0341566D01*
X0165523Y0340767D02*
X0197050Y0340767D01*
X0197050Y0339969D02*
X0165617Y0339969D01*
X0165617Y0339170D02*
X0197050Y0339170D01*
X0197050Y0338372D02*
X0165617Y0338372D01*
X0165617Y0337573D02*
X0197050Y0337573D01*
X0197050Y0336775D02*
X0165617Y0336775D01*
X0165617Y0335976D02*
X0197050Y0335976D01*
X0197050Y0335178D02*
X0165617Y0335178D01*
X0165617Y0334379D02*
X0197050Y0334379D01*
X0197050Y0333581D02*
X0165617Y0333581D01*
X0165617Y0332782D02*
X0197050Y0332782D01*
X0197050Y0331984D02*
X0165617Y0331984D01*
X0165617Y0331185D02*
X0197050Y0331185D01*
X0197050Y0330387D02*
X0165617Y0330387D01*
X0165617Y0329588D02*
X0197050Y0329588D01*
X0197050Y0328790D02*
X0165617Y0328790D01*
X0165617Y0327991D02*
X0197050Y0327991D01*
X0197050Y0327193D02*
X0165617Y0327193D01*
X0165617Y0326394D02*
X0197050Y0326394D01*
X0197050Y0325596D02*
X0165617Y0325596D01*
X0165617Y0324797D02*
X0197050Y0324797D01*
X0197050Y0323999D02*
X0165617Y0323999D01*
X0165617Y0323200D02*
X0197050Y0323200D01*
X0197050Y0322402D02*
X0165617Y0322402D01*
X0165617Y0321603D02*
X0197050Y0321603D01*
X0197050Y0320805D02*
X0165617Y0320805D01*
X0165617Y0320006D02*
X0197050Y0320006D01*
X0197050Y0319208D02*
X0165617Y0319208D01*
X0165617Y0318409D02*
X0197050Y0318409D01*
X0197050Y0317610D02*
X0165617Y0317610D01*
X0165617Y0316812D02*
X0197050Y0316812D01*
X0197050Y0316013D02*
X0165617Y0316013D01*
X0165617Y0315215D02*
X0197050Y0315215D01*
X0197050Y0314416D02*
X0165617Y0314416D01*
X0165617Y0313618D02*
X0197050Y0313618D01*
X0197050Y0312819D02*
X0165617Y0312819D01*
X0165617Y0312021D02*
X0197050Y0312021D01*
X0197050Y0311222D02*
X0165617Y0311222D01*
X0165617Y0310424D02*
X0197050Y0310424D01*
X0197050Y0309625D02*
X0165617Y0309625D01*
X0165617Y0308827D02*
X0197050Y0308827D01*
X0197050Y0308028D02*
X0165617Y0308028D01*
X0165617Y0307230D02*
X0197050Y0307230D01*
X0197050Y0306431D02*
X0165617Y0306431D01*
X0165617Y0305633D02*
X0197050Y0305633D01*
X0197050Y0304834D02*
X0165617Y0304834D01*
X0165617Y0304036D02*
X0197050Y0304036D01*
X0197050Y0303237D02*
X0165617Y0303237D01*
X0165617Y0302439D02*
X0197050Y0302439D01*
X0197050Y0301640D02*
X0165617Y0301640D01*
X0165617Y0300842D02*
X0197050Y0300842D01*
X0197050Y0300043D02*
X0165617Y0300043D01*
X0165617Y0299245D02*
X0197050Y0299245D01*
X0197050Y0298446D02*
X0165617Y0298446D01*
X0165617Y0297648D02*
X0197050Y0297648D01*
X0197050Y0296849D02*
X0165617Y0296849D01*
X0165617Y0296051D02*
X0197050Y0296051D01*
X0197050Y0295252D02*
X0165617Y0295252D01*
X0165617Y0294454D02*
X0197050Y0294454D01*
X0197050Y0293655D02*
X0165617Y0293655D01*
X0165617Y0292857D02*
X0197050Y0292857D01*
X0197050Y0292058D02*
X0165617Y0292058D01*
X0165617Y0291260D02*
X0197050Y0291260D01*
X0197050Y0290461D02*
X0165617Y0290461D01*
X0165617Y0289663D02*
X0197050Y0289663D01*
X0197050Y0288864D02*
X0165617Y0288864D01*
X0165617Y0288066D02*
X0197050Y0288066D01*
X0197050Y0287267D02*
X0165617Y0287267D01*
X0165617Y0286469D02*
X0197050Y0286469D01*
X0197050Y0285670D02*
X0165617Y0285670D01*
X0165617Y0284872D02*
X0197050Y0284872D01*
X0197050Y0284073D02*
X0165617Y0284073D01*
X0165617Y0283274D02*
X0197050Y0283274D01*
X0197050Y0282476D02*
X0165617Y0282476D01*
X0165617Y0281677D02*
X0197050Y0281677D01*
X0197050Y0280879D02*
X0165617Y0280879D01*
X0165617Y0280080D02*
X0197050Y0280080D01*
X0197050Y0279282D02*
X0165617Y0279282D01*
X0165617Y0278483D02*
X0197050Y0278483D01*
X0197050Y0277685D02*
X0165617Y0277685D01*
X0165617Y0276886D02*
X0197050Y0276886D01*
X0197050Y0276088D02*
X0165617Y0276088D01*
X0165617Y0275289D02*
X0197050Y0275289D01*
X0197050Y0274491D02*
X0165617Y0274491D01*
X0165617Y0273692D02*
X0197050Y0273692D01*
X0197050Y0272894D02*
X0165617Y0272894D01*
X0165617Y0272095D02*
X0197050Y0272095D01*
X0197050Y0271297D02*
X0165617Y0271297D01*
X0165617Y0270498D02*
X0197050Y0270498D01*
X0197050Y0269700D02*
X0165617Y0269700D01*
X0165617Y0268901D02*
X0197050Y0268901D01*
X0197050Y0268103D02*
X0165617Y0268103D01*
X0165617Y0267304D02*
X0197050Y0267304D01*
X0197050Y0266506D02*
X0165617Y0266506D01*
X0165617Y0265707D02*
X0197050Y0265707D01*
X0197050Y0264909D02*
X0165617Y0264909D01*
X0165617Y0264110D02*
X0197050Y0264110D01*
X0197050Y0263312D02*
X0165617Y0263312D01*
X0165617Y0262513D02*
X0197050Y0262513D01*
X0197050Y0261715D02*
X0165617Y0261715D01*
X0165617Y0260916D02*
X0197050Y0260916D01*
X0197050Y0260118D02*
X0165617Y0260118D01*
X0165617Y0259319D02*
X0197050Y0259319D01*
X0197050Y0258521D02*
X0165617Y0258521D01*
X0165617Y0257722D02*
X0197050Y0257722D01*
X0197050Y0256924D02*
X0165617Y0256924D01*
X0165617Y0256125D02*
X0197050Y0256125D01*
X0197050Y0255327D02*
X0165617Y0255327D01*
X0165617Y0254528D02*
X0197050Y0254528D01*
X0197050Y0253730D02*
X0165617Y0253730D01*
X0165617Y0252931D02*
X0197050Y0252931D01*
X0197050Y0252133D02*
X0165617Y0252133D01*
X0165617Y0251334D02*
X0197050Y0251334D01*
X0197050Y0250536D02*
X0165617Y0250536D01*
X0165617Y0249737D02*
X0197050Y0249737D01*
X0197050Y0248939D02*
X0165617Y0248939D01*
X0165617Y0248140D02*
X0197050Y0248140D01*
X0197050Y0247341D02*
X0165617Y0247341D01*
X0165617Y0246543D02*
X0197050Y0246543D01*
X0197050Y0245744D02*
X0165617Y0245744D01*
X0165617Y0244946D02*
X0197050Y0244946D01*
X0197050Y0244147D02*
X0165617Y0244147D01*
X0165617Y0243349D02*
X0197050Y0243349D01*
X0197050Y0242550D02*
X0165617Y0242550D01*
X0165617Y0241752D02*
X0197050Y0241752D01*
X0197050Y0240953D02*
X0165617Y0240953D01*
X0165617Y0240155D02*
X0197050Y0240155D01*
X0197050Y0239356D02*
X0165617Y0239356D01*
X0165617Y0238558D02*
X0197050Y0238558D01*
X0197050Y0237759D02*
X0165617Y0237759D01*
X0165617Y0236961D02*
X0197050Y0236961D01*
X0197050Y0236162D02*
X0165617Y0236162D01*
X0165617Y0235364D02*
X0197050Y0235364D01*
X0197050Y0234565D02*
X0165617Y0234565D01*
X0165617Y0233767D02*
X0197050Y0233767D01*
X0197050Y0232968D02*
X0165617Y0232968D01*
X0165617Y0232170D02*
X0197050Y0232170D01*
X0197050Y0231371D02*
X0165617Y0231371D01*
X0165617Y0230573D02*
X0197050Y0230573D01*
X0197050Y0229774D02*
X0165617Y0229774D01*
X0165617Y0228976D02*
X0197050Y0228976D01*
X0197050Y0228177D02*
X0165617Y0228177D01*
X0165617Y0227379D02*
X0197050Y0227379D01*
X0197050Y0226580D02*
X0165617Y0226580D01*
X0165617Y0225782D02*
X0197050Y0225782D01*
X0197050Y0224983D02*
X0165617Y0224983D01*
X0165617Y0224185D02*
X0197050Y0224185D01*
X0197050Y0223386D02*
X0165617Y0223386D01*
X0165617Y0222588D02*
X0197050Y0222588D01*
X0197050Y0221789D02*
X0165617Y0221789D01*
X0165617Y0220991D02*
X0197050Y0220991D01*
X0197050Y0220192D02*
X0165617Y0220192D01*
X0165617Y0219394D02*
X0197050Y0219394D01*
X0197050Y0218595D02*
X0165617Y0218595D01*
X0165617Y0217797D02*
X0197050Y0217797D01*
X0197050Y0216998D02*
X0165617Y0216998D01*
X0165617Y0216200D02*
X0197050Y0216200D01*
X0197050Y0215401D02*
X0165617Y0215401D01*
X0165617Y0214603D02*
X0197050Y0214603D01*
X0197050Y0213804D02*
X0165617Y0213804D01*
X0165617Y0213005D02*
X0197050Y0213005D01*
X0197050Y0212207D02*
X0165617Y0212207D01*
X0165617Y0211408D02*
X0197050Y0211408D01*
X0197050Y0210610D02*
X0190584Y0210610D01*
X0192437Y0209811D02*
X0197050Y0209811D01*
X0197050Y0209013D02*
X0193820Y0209013D01*
X0194876Y0208214D02*
X0197050Y0208214D01*
X0197050Y0207416D02*
X0195674Y0207416D01*
X0196473Y0206617D02*
X0197050Y0206617D01*
X0197050Y0189849D02*
X0196438Y0189849D01*
X0197050Y0189050D02*
X0195640Y0189050D01*
X0194841Y0188252D02*
X0197050Y0188252D01*
X0197050Y0187453D02*
X0193760Y0187453D01*
X0192377Y0186655D02*
X0197050Y0186655D01*
X0197050Y0185856D02*
X0190454Y0185856D01*
X0197050Y0185058D02*
X0165617Y0185058D01*
X0165617Y0185856D02*
X0182425Y0185856D01*
X0180502Y0186655D02*
X0165617Y0186655D01*
X0165617Y0187453D02*
X0179119Y0187453D01*
X0178038Y0188252D02*
X0165617Y0188252D01*
X0165617Y0189050D02*
X0177239Y0189050D01*
X0176441Y0189849D02*
X0165617Y0189849D01*
X0165617Y0190647D02*
X0175805Y0190647D01*
X0175344Y0191446D02*
X0165617Y0191446D01*
X0165617Y0192244D02*
X0174883Y0192244D01*
X0174422Y0193043D02*
X0165617Y0193043D01*
X0165617Y0193841D02*
X0174151Y0193841D01*
X0173937Y0194640D02*
X0165617Y0194640D01*
X0165617Y0195438D02*
X0173723Y0195438D01*
X0173509Y0196237D02*
X0165617Y0196237D01*
X0165617Y0197035D02*
X0173428Y0197035D01*
X0173428Y0197834D02*
X0165617Y0197834D01*
X0165617Y0198632D02*
X0173428Y0198632D01*
X0173428Y0199431D02*
X0165617Y0199431D01*
X0165617Y0200229D02*
X0173500Y0200229D01*
X0173714Y0201028D02*
X0165617Y0201028D01*
X0165617Y0201826D02*
X0173928Y0201826D01*
X0174142Y0202625D02*
X0165617Y0202625D01*
X0165617Y0203423D02*
X0174402Y0203423D01*
X0174863Y0204222D02*
X0165617Y0204222D01*
X0165617Y0205020D02*
X0175324Y0205020D01*
X0175785Y0205819D02*
X0165617Y0205819D01*
X0165617Y0206617D02*
X0176406Y0206617D01*
X0177205Y0207416D02*
X0165617Y0207416D01*
X0165617Y0208214D02*
X0178003Y0208214D01*
X0179059Y0209013D02*
X0165617Y0209013D01*
X0165617Y0209811D02*
X0180442Y0209811D01*
X0182295Y0210610D02*
X0165617Y0210610D01*
X0160017Y0210610D02*
X0157743Y0210610D01*
X0157743Y0211408D02*
X0160017Y0211408D01*
X0160017Y0212207D02*
X0157743Y0212207D01*
X0157743Y0213005D02*
X0160017Y0213005D01*
X0160017Y0213804D02*
X0157743Y0213804D01*
X0157743Y0214603D02*
X0160017Y0214603D01*
X0160017Y0215401D02*
X0157743Y0215401D01*
X0157743Y0216200D02*
X0160017Y0216200D01*
X0160017Y0216998D02*
X0157743Y0216998D01*
X0157743Y0217797D02*
X0160017Y0217797D01*
X0160017Y0218595D02*
X0157743Y0218595D01*
X0157743Y0219394D02*
X0160017Y0219394D01*
X0160017Y0220192D02*
X0157743Y0220192D01*
X0157743Y0220991D02*
X0160017Y0220991D01*
X0160017Y0221789D02*
X0157743Y0221789D01*
X0157743Y0222588D02*
X0160017Y0222588D01*
X0160017Y0223386D02*
X0157743Y0223386D01*
X0157743Y0224185D02*
X0160017Y0224185D01*
X0160017Y0224983D02*
X0157743Y0224983D01*
X0157743Y0225782D02*
X0160017Y0225782D01*
X0160017Y0226580D02*
X0157743Y0226580D01*
X0157743Y0227379D02*
X0160017Y0227379D01*
X0160017Y0228177D02*
X0157743Y0228177D01*
X0157743Y0228976D02*
X0160017Y0228976D01*
X0160017Y0229774D02*
X0157743Y0229774D01*
X0157743Y0230573D02*
X0160017Y0230573D01*
X0160017Y0231371D02*
X0157743Y0231371D01*
X0157743Y0232170D02*
X0160017Y0232170D01*
X0160017Y0232968D02*
X0157743Y0232968D01*
X0157743Y0233767D02*
X0160017Y0233767D01*
X0160017Y0234565D02*
X0157743Y0234565D01*
X0157743Y0235364D02*
X0160017Y0235364D01*
X0160017Y0236162D02*
X0157743Y0236162D01*
X0157743Y0236961D02*
X0160017Y0236961D01*
X0160017Y0237759D02*
X0157743Y0237759D01*
X0157743Y0238558D02*
X0160017Y0238558D01*
X0160017Y0239356D02*
X0157743Y0239356D01*
X0157743Y0240155D02*
X0160017Y0240155D01*
X0160017Y0240953D02*
X0157743Y0240953D01*
X0157743Y0241752D02*
X0160017Y0241752D01*
X0160017Y0242550D02*
X0157743Y0242550D01*
X0157743Y0243349D02*
X0160017Y0243349D01*
X0160017Y0244147D02*
X0157743Y0244147D01*
X0157743Y0244946D02*
X0160017Y0244946D01*
X0160017Y0245744D02*
X0157743Y0245744D01*
X0157743Y0246543D02*
X0160017Y0246543D01*
X0160017Y0247341D02*
X0157743Y0247341D01*
X0157743Y0248140D02*
X0160017Y0248140D01*
X0160017Y0248939D02*
X0157743Y0248939D01*
X0157743Y0249737D02*
X0160017Y0249737D01*
X0160017Y0250536D02*
X0157743Y0250536D01*
X0157743Y0251334D02*
X0160017Y0251334D01*
X0160017Y0252133D02*
X0157743Y0252133D01*
X0157743Y0252931D02*
X0160017Y0252931D01*
X0160017Y0253730D02*
X0157743Y0253730D01*
X0157743Y0254528D02*
X0160017Y0254528D01*
X0160017Y0255327D02*
X0157743Y0255327D01*
X0157743Y0256125D02*
X0160017Y0256125D01*
X0160017Y0256924D02*
X0157743Y0256924D01*
X0157743Y0257722D02*
X0160017Y0257722D01*
X0160017Y0258521D02*
X0157743Y0258521D01*
X0157743Y0259319D02*
X0160017Y0259319D01*
X0160017Y0260118D02*
X0157743Y0260118D01*
X0157743Y0260916D02*
X0160017Y0260916D01*
X0160017Y0261715D02*
X0157743Y0261715D01*
X0157743Y0262513D02*
X0160017Y0262513D01*
X0160017Y0263312D02*
X0157743Y0263312D01*
X0157743Y0264110D02*
X0160017Y0264110D01*
X0160017Y0264909D02*
X0157743Y0264909D01*
X0157743Y0265707D02*
X0160017Y0265707D01*
X0160017Y0266506D02*
X0157743Y0266506D01*
X0157743Y0267304D02*
X0160017Y0267304D01*
X0160017Y0268103D02*
X0157743Y0268103D01*
X0157743Y0268901D02*
X0160017Y0268901D01*
X0160017Y0269700D02*
X0157743Y0269700D01*
X0157743Y0270498D02*
X0160017Y0270498D01*
X0160017Y0271297D02*
X0157743Y0271297D01*
X0157743Y0272095D02*
X0160017Y0272095D01*
X0160017Y0272894D02*
X0157743Y0272894D01*
X0157743Y0273692D02*
X0160017Y0273692D01*
X0160017Y0274491D02*
X0157743Y0274491D01*
X0157743Y0275289D02*
X0160017Y0275289D01*
X0160017Y0276088D02*
X0157743Y0276088D01*
X0157743Y0276886D02*
X0160017Y0276886D01*
X0160017Y0277685D02*
X0157743Y0277685D01*
X0157743Y0278483D02*
X0160017Y0278483D01*
X0160017Y0279282D02*
X0157743Y0279282D01*
X0157743Y0280080D02*
X0160017Y0280080D01*
X0160017Y0280879D02*
X0157743Y0280879D01*
X0157743Y0281677D02*
X0160017Y0281677D01*
X0160017Y0282476D02*
X0157743Y0282476D01*
X0157743Y0283274D02*
X0160017Y0283274D01*
X0160017Y0284073D02*
X0157743Y0284073D01*
X0157743Y0284872D02*
X0160017Y0284872D01*
X0160017Y0285670D02*
X0157743Y0285670D01*
X0157743Y0286469D02*
X0160017Y0286469D01*
X0160017Y0287267D02*
X0157743Y0287267D01*
X0157743Y0288066D02*
X0160017Y0288066D01*
X0160017Y0288864D02*
X0157743Y0288864D01*
X0157743Y0289663D02*
X0160017Y0289663D01*
X0160017Y0290461D02*
X0157743Y0290461D01*
X0157743Y0291260D02*
X0160017Y0291260D01*
X0160017Y0292058D02*
X0157743Y0292058D01*
X0157743Y0292857D02*
X0160017Y0292857D01*
X0160017Y0293655D02*
X0157743Y0293655D01*
X0157743Y0294454D02*
X0160017Y0294454D01*
X0160017Y0295252D02*
X0157743Y0295252D01*
X0157743Y0296051D02*
X0160017Y0296051D01*
X0160017Y0296849D02*
X0157743Y0296849D01*
X0157743Y0297648D02*
X0160017Y0297648D01*
X0160017Y0298446D02*
X0157743Y0298446D01*
X0157743Y0299245D02*
X0160017Y0299245D01*
X0160017Y0300043D02*
X0157743Y0300043D01*
X0157743Y0300842D02*
X0160017Y0300842D01*
X0160017Y0301640D02*
X0157743Y0301640D01*
X0157743Y0302439D02*
X0160017Y0302439D01*
X0160017Y0303237D02*
X0157743Y0303237D01*
X0157743Y0304036D02*
X0160017Y0304036D01*
X0160017Y0304834D02*
X0157743Y0304834D01*
X0157743Y0305633D02*
X0160017Y0305633D01*
X0160017Y0306431D02*
X0157743Y0306431D01*
X0157743Y0307230D02*
X0160017Y0307230D01*
X0160017Y0308028D02*
X0157743Y0308028D01*
X0157743Y0308827D02*
X0160017Y0308827D01*
X0160017Y0309625D02*
X0157743Y0309625D01*
X0157743Y0310424D02*
X0160017Y0310424D01*
X0160017Y0311222D02*
X0157743Y0311222D01*
X0157743Y0312021D02*
X0160017Y0312021D01*
X0160017Y0312819D02*
X0157743Y0312819D01*
X0157743Y0313618D02*
X0160017Y0313618D01*
X0160017Y0314416D02*
X0157743Y0314416D01*
X0157743Y0315215D02*
X0160017Y0315215D01*
X0160017Y0316013D02*
X0157743Y0316013D01*
X0157743Y0316812D02*
X0160017Y0316812D01*
X0160017Y0317610D02*
X0157743Y0317610D01*
X0157743Y0318409D02*
X0160017Y0318409D01*
X0160017Y0319208D02*
X0157743Y0319208D01*
X0157743Y0320006D02*
X0160017Y0320006D01*
X0160017Y0320805D02*
X0157743Y0320805D01*
X0157743Y0321603D02*
X0160017Y0321603D01*
X0160017Y0322402D02*
X0157743Y0322402D01*
X0157743Y0323200D02*
X0160017Y0323200D01*
X0160017Y0323999D02*
X0157743Y0323999D01*
X0157743Y0324797D02*
X0160017Y0324797D01*
X0160017Y0325596D02*
X0157743Y0325596D01*
X0157743Y0326394D02*
X0160017Y0326394D01*
X0160017Y0327193D02*
X0157743Y0327193D01*
X0157743Y0327991D02*
X0160017Y0327991D01*
X0160017Y0328790D02*
X0157743Y0328790D01*
X0157743Y0329588D02*
X0160017Y0329588D01*
X0160017Y0330387D02*
X0157743Y0330387D01*
X0157743Y0331185D02*
X0160017Y0331185D01*
X0160017Y0331984D02*
X0157743Y0331984D01*
X0157743Y0332782D02*
X0160017Y0332782D01*
X0160017Y0333581D02*
X0157743Y0333581D01*
X0157743Y0334379D02*
X0160017Y0334379D01*
X0160017Y0335178D02*
X0157743Y0335178D01*
X0157743Y0335976D02*
X0160017Y0335976D01*
X0160017Y0336775D02*
X0157672Y0336775D01*
X0157341Y0337573D02*
X0160017Y0337573D01*
X0160017Y0338372D02*
X0156577Y0338372D01*
X0155778Y0339170D02*
X0159670Y0339170D01*
X0158871Y0339969D02*
X0154980Y0339969D01*
X0154181Y0340767D02*
X0158073Y0340767D01*
X0157274Y0341566D02*
X0153383Y0341566D01*
X0152584Y0342364D02*
X0156476Y0342364D01*
X0155677Y0343163D02*
X0151786Y0343163D01*
X0150987Y0343961D02*
X0154879Y0343961D01*
X0154080Y0344760D02*
X0150189Y0344760D01*
X0149390Y0345558D02*
X0153282Y0345558D01*
X0152483Y0346357D02*
X0148592Y0346357D01*
X0147793Y0347155D02*
X0151685Y0347155D01*
X0150886Y0347954D02*
X0146995Y0347954D01*
X0146196Y0348752D02*
X0150088Y0348752D01*
X0149289Y0349551D02*
X0145398Y0349551D01*
X0144599Y0350349D02*
X0148491Y0350349D01*
X0147692Y0351148D02*
X0143801Y0351148D01*
X0143002Y0351946D02*
X0146894Y0351946D01*
X0146095Y0352745D02*
X0142204Y0352745D01*
X0141405Y0353543D02*
X0145297Y0353543D01*
X0144498Y0354342D02*
X0140360Y0354342D01*
X0142103Y0356738D02*
X0065377Y0356738D01*
X0066175Y0355939D02*
X0142901Y0355939D01*
X0143700Y0355141D02*
X0066974Y0355141D01*
X0064644Y0349551D02*
X0002600Y0349551D01*
X0002600Y0350349D02*
X0063845Y0350349D01*
X0063047Y0351148D02*
X0002600Y0351148D01*
X0002600Y0351946D02*
X0062248Y0351946D01*
X0061450Y0352745D02*
X0002600Y0352745D01*
X0002600Y0353543D02*
X0060651Y0353543D01*
X0059853Y0354342D02*
X0002600Y0354342D01*
X0002600Y0355141D02*
X0059054Y0355141D01*
X0058255Y0355939D02*
X0002600Y0355939D01*
X0002600Y0356738D02*
X0057457Y0356738D01*
X0056658Y0357536D02*
X0002600Y0357536D01*
X0002600Y0358335D02*
X0055860Y0358335D01*
X0055061Y0359133D02*
X0002600Y0359133D01*
X0002600Y0359932D02*
X0054263Y0359932D01*
X0053464Y0360730D02*
X0002600Y0360730D01*
X0002600Y0361529D02*
X0052666Y0361529D01*
X0048955Y0362327D02*
X0042102Y0362327D01*
X0042205Y0362430D02*
X0042390Y0362749D01*
X0042485Y0363105D01*
X0042485Y0367142D01*
X0037233Y0367142D01*
X0037233Y0361890D01*
X0041269Y0361890D01*
X0041625Y0361985D01*
X0041945Y0362169D01*
X0042205Y0362430D01*
X0042485Y0363126D02*
X0047318Y0363126D01*
X0046520Y0363924D02*
X0042485Y0363924D01*
X0042485Y0364723D02*
X0045879Y0364723D01*
X0045548Y0365521D02*
X0042485Y0365521D01*
X0042485Y0366320D02*
X0045218Y0366320D01*
X0045161Y0367118D02*
X0042485Y0367118D01*
X0037233Y0367118D02*
X0036433Y0367118D01*
X0036433Y0366320D02*
X0037233Y0366320D01*
X0037233Y0365521D02*
X0036433Y0365521D01*
X0036433Y0364723D02*
X0037233Y0364723D01*
X0037233Y0363924D02*
X0036433Y0363924D01*
X0036433Y0363126D02*
X0037233Y0363126D01*
X0037233Y0362327D02*
X0036433Y0362327D01*
X0036433Y0369514D02*
X0037233Y0369514D01*
X0037233Y0370312D02*
X0036433Y0370312D01*
X0036433Y0371111D02*
X0037233Y0371111D01*
X0037233Y0371909D02*
X0036433Y0371909D01*
X0036433Y0372708D02*
X0037233Y0372708D01*
X0031181Y0367118D02*
X0002600Y0367118D01*
X0002600Y0366320D02*
X0031181Y0366320D01*
X0031181Y0365521D02*
X0002600Y0365521D01*
X0002600Y0364723D02*
X0031181Y0364723D01*
X0031181Y0363924D02*
X0002600Y0363924D01*
X0002600Y0363126D02*
X0031181Y0363126D01*
X0031564Y0362327D02*
X0002600Y0362327D01*
X0002600Y0371111D02*
X0008393Y0371111D01*
X0006901Y0371909D02*
X0002600Y0371909D01*
X0002600Y0372708D02*
X0005518Y0372708D01*
X0004594Y0373506D02*
X0002600Y0373506D01*
X0002600Y0374305D02*
X0003796Y0374305D01*
X0002997Y0375103D02*
X0002600Y0375103D01*
X0002600Y0348752D02*
X0066242Y0348752D01*
X0066304Y0348762D02*
X0065527Y0348639D01*
X0064778Y0348396D01*
X0064077Y0348039D01*
X0063440Y0347576D01*
X0062884Y0347019D01*
X0062421Y0346383D01*
X0062064Y0345682D01*
X0061821Y0344933D01*
X0061698Y0344156D01*
X0061698Y0343953D01*
X0070107Y0343953D01*
X0070107Y0348762D01*
X0066304Y0348762D01*
X0063961Y0347954D02*
X0002600Y0347954D01*
X0002600Y0347155D02*
X0063020Y0347155D01*
X0062408Y0346357D02*
X0002600Y0346357D01*
X0002600Y0345558D02*
X0062024Y0345558D01*
X0061793Y0344760D02*
X0002600Y0344760D01*
X0002600Y0343961D02*
X0061698Y0343961D01*
X0061698Y0343572D02*
X0061698Y0343369D01*
X0061821Y0342591D01*
X0062064Y0341843D01*
X0062421Y0341142D01*
X0062884Y0340505D01*
X0063440Y0339948D01*
X0064077Y0339486D01*
X0064778Y0339129D01*
X0065527Y0338885D01*
X0066304Y0338762D01*
X0070107Y0338762D01*
X0070107Y0343572D01*
X0061698Y0343572D01*
X0061730Y0343163D02*
X0002600Y0343163D01*
X0002600Y0342364D02*
X0061895Y0342364D01*
X0062205Y0341566D02*
X0002600Y0341566D01*
X0002600Y0340767D02*
X0062693Y0340767D01*
X0063420Y0339969D02*
X0002600Y0339969D01*
X0002600Y0339170D02*
X0064696Y0339170D01*
X0065283Y0338372D02*
X0002600Y0338372D01*
X0002600Y0337573D02*
X0063720Y0337573D01*
X0063979Y0337831D02*
X0062628Y0336481D01*
X0061898Y0334717D01*
X0061898Y0332807D01*
X0062628Y0331043D01*
X0063979Y0329693D01*
X0065743Y0328962D01*
X0074852Y0328962D01*
X0076617Y0329693D01*
X0077967Y0331043D01*
X0078698Y0332807D01*
X0078698Y0334717D01*
X0077967Y0336481D01*
X0076617Y0337831D01*
X0074852Y0338562D01*
X0065743Y0338562D01*
X0063979Y0337831D01*
X0062922Y0336775D02*
X0002600Y0336775D01*
X0002600Y0335976D02*
X0062419Y0335976D01*
X0062088Y0335178D02*
X0002600Y0335178D01*
X0002600Y0334379D02*
X0061898Y0334379D01*
X0061898Y0333581D02*
X0002600Y0333581D01*
X0002600Y0332782D02*
X0061908Y0332782D01*
X0062239Y0331984D02*
X0002600Y0331984D01*
X0002600Y0331185D02*
X0062570Y0331185D01*
X0063285Y0330387D02*
X0002600Y0330387D01*
X0002600Y0329588D02*
X0064232Y0329588D01*
X0064364Y0327991D02*
X0002600Y0327991D01*
X0002600Y0327193D02*
X0063340Y0327193D01*
X0063979Y0327831D02*
X0062628Y0326481D01*
X0061898Y0324717D01*
X0061898Y0322807D01*
X0062628Y0321043D01*
X0063979Y0319693D01*
X0065743Y0318962D01*
X0074852Y0318962D01*
X0076617Y0319693D01*
X0077967Y0321043D01*
X0078265Y0321762D01*
X0102943Y0321762D01*
X0102943Y0239148D01*
X0078265Y0239148D01*
X0077967Y0239867D01*
X0076617Y0241217D01*
X0074852Y0241948D01*
X0065743Y0241948D01*
X0063979Y0241217D01*
X0062628Y0239867D01*
X0061898Y0238103D01*
X0061898Y0236193D01*
X0062628Y0234429D01*
X0063979Y0233079D01*
X0065743Y0232348D01*
X0074852Y0232348D01*
X0076617Y0233079D01*
X0077967Y0234429D01*
X0078265Y0235148D01*
X0102943Y0235148D01*
X0102943Y0136170D01*
X0095685Y0128912D01*
X0078265Y0128912D01*
X0077967Y0129631D01*
X0076617Y0130981D01*
X0074852Y0131712D01*
X0065743Y0131712D01*
X0063979Y0130981D01*
X0062628Y0129631D01*
X0061898Y0127867D01*
X0061898Y0125957D01*
X0062628Y0124193D01*
X0063979Y0122843D01*
X0065743Y0122112D01*
X0074852Y0122112D01*
X0076617Y0122843D01*
X0077967Y0124193D01*
X0078265Y0124912D01*
X0097342Y0124912D01*
X0098514Y0126083D01*
X0106943Y0134513D01*
X0106943Y0342963D01*
X0107034Y0343054D01*
X0107034Y0344786D01*
X0105809Y0346010D01*
X0104077Y0346010D01*
X0102853Y0344786D01*
X0102853Y0343054D01*
X0102943Y0342963D01*
X0102943Y0325762D01*
X0078265Y0325762D01*
X0077967Y0326481D01*
X0076617Y0327831D01*
X0074852Y0328562D01*
X0065743Y0328562D01*
X0063979Y0327831D01*
X0062592Y0326394D02*
X0002600Y0326394D01*
X0002600Y0325596D02*
X0062262Y0325596D01*
X0061931Y0324797D02*
X0002600Y0324797D01*
X0002600Y0323999D02*
X0061898Y0323999D01*
X0061898Y0323200D02*
X0002600Y0323200D01*
X0002600Y0322402D02*
X0062066Y0322402D01*
X0062397Y0321603D02*
X0002600Y0321603D01*
X0002600Y0320805D02*
X0062867Y0320805D01*
X0063666Y0320006D02*
X0002600Y0320006D01*
X0002600Y0319208D02*
X0065151Y0319208D01*
X0065373Y0318409D02*
X0002600Y0318409D01*
X0002600Y0317610D02*
X0063758Y0317610D01*
X0063979Y0317831D02*
X0062628Y0316481D01*
X0061898Y0314717D01*
X0061898Y0312807D01*
X0062628Y0311043D01*
X0063979Y0309693D01*
X0065743Y0308962D01*
X0074852Y0308962D01*
X0076617Y0309693D01*
X0077967Y0311043D01*
X0078698Y0312807D01*
X0078698Y0314717D01*
X0077967Y0316481D01*
X0076617Y0317831D01*
X0074852Y0318562D01*
X0065743Y0318562D01*
X0063979Y0317831D01*
X0062959Y0316812D02*
X0002600Y0316812D01*
X0002600Y0316013D02*
X0062435Y0316013D01*
X0062104Y0315215D02*
X0002600Y0315215D01*
X0002600Y0314416D02*
X0061898Y0314416D01*
X0061898Y0313618D02*
X0002600Y0313618D01*
X0002600Y0312819D02*
X0061898Y0312819D01*
X0062223Y0312021D02*
X0002600Y0312021D01*
X0002600Y0311222D02*
X0062554Y0311222D01*
X0063248Y0310424D02*
X0002600Y0310424D01*
X0002600Y0309625D02*
X0064142Y0309625D01*
X0064454Y0308028D02*
X0002600Y0308028D01*
X0002600Y0307230D02*
X0063377Y0307230D01*
X0063979Y0307831D02*
X0062628Y0306481D01*
X0061898Y0304717D01*
X0061898Y0302807D01*
X0062628Y0301043D01*
X0063979Y0299693D01*
X0065743Y0298962D01*
X0074852Y0298962D01*
X0076617Y0299693D01*
X0077967Y0301043D01*
X0078698Y0302807D01*
X0078698Y0304717D01*
X0077967Y0306481D01*
X0076617Y0307831D01*
X0074852Y0308562D01*
X0065743Y0308562D01*
X0063979Y0307831D01*
X0062608Y0306431D02*
X0002600Y0306431D01*
X0002600Y0305633D02*
X0062277Y0305633D01*
X0061946Y0304834D02*
X0002600Y0304834D01*
X0002600Y0304036D02*
X0061898Y0304036D01*
X0061898Y0303237D02*
X0002600Y0303237D01*
X0002600Y0302439D02*
X0062050Y0302439D01*
X0062381Y0301640D02*
X0002600Y0301640D01*
X0002600Y0300842D02*
X0062830Y0300842D01*
X0063628Y0300043D02*
X0002600Y0300043D01*
X0002600Y0299245D02*
X0065061Y0299245D01*
X0067711Y0285728D02*
X0065947Y0284997D01*
X0064597Y0283647D01*
X0063866Y0281882D01*
X0063866Y0279973D01*
X0064597Y0278209D01*
X0065815Y0276991D01*
X0064678Y0275854D01*
X0052024Y0275854D01*
X0050995Y0275427D01*
X0050207Y0274640D01*
X0046270Y0270703D01*
X0045844Y0269673D01*
X0045844Y0094622D01*
X0046270Y0093593D01*
X0047058Y0092805D01*
X0047058Y0092805D01*
X0050285Y0089578D01*
X0050285Y0089578D01*
X0051073Y0088790D01*
X0052102Y0088364D01*
X0061371Y0088364D01*
X0062640Y0087095D01*
X0064404Y0086364D01*
X0066159Y0086364D01*
X0066159Y0075016D01*
X0066585Y0073987D01*
X0067373Y0073199D01*
X0074617Y0065955D01*
X0075646Y0065529D01*
X0138232Y0065529D01*
X0138232Y0064132D01*
X0138935Y0063429D01*
X0147329Y0063429D01*
X0148032Y0064132D01*
X0148032Y0072526D01*
X0147329Y0073229D01*
X0138935Y0073229D01*
X0138232Y0072526D01*
X0138232Y0071129D01*
X0077363Y0071129D01*
X0071759Y0076733D01*
X0071759Y0086364D01*
X0073514Y0086364D01*
X0075278Y0087095D01*
X0076628Y0088445D01*
X0077359Y0090209D01*
X0077359Y0092119D01*
X0076628Y0093883D01*
X0075278Y0095233D01*
X0073514Y0095964D01*
X0064404Y0095964D01*
X0062640Y0095233D01*
X0061371Y0093964D01*
X0053819Y0093964D01*
X0051444Y0096339D01*
X0051444Y0199387D01*
X0063103Y0199387D01*
X0064240Y0198250D01*
X0063022Y0197032D01*
X0062291Y0195268D01*
X0062291Y0193359D01*
X0063022Y0191594D01*
X0064372Y0190244D01*
X0066137Y0189513D01*
X0075246Y0189513D01*
X0077010Y0190244D01*
X0078361Y0191594D01*
X0079091Y0193359D01*
X0079091Y0195268D01*
X0078361Y0197032D01*
X0077143Y0198250D01*
X0078361Y0199468D01*
X0079091Y0201233D01*
X0079091Y0203142D01*
X0078361Y0204906D01*
X0077010Y0206257D01*
X0075246Y0206987D01*
X0066137Y0206987D01*
X0064372Y0206257D01*
X0063103Y0204987D01*
X0051444Y0204987D01*
X0051444Y0267957D01*
X0053741Y0270254D01*
X0064678Y0270254D01*
X0065947Y0268984D01*
X0067711Y0268254D01*
X0076821Y0268254D01*
X0078585Y0268984D01*
X0079935Y0270335D01*
X0080666Y0272099D01*
X0080666Y0274008D01*
X0079935Y0275773D01*
X0078717Y0276991D01*
X0079935Y0278209D01*
X0080666Y0279973D01*
X0080666Y0281882D01*
X0079935Y0283647D01*
X0078585Y0284997D01*
X0076821Y0285728D01*
X0067711Y0285728D01*
X0067573Y0285670D02*
X0002600Y0285670D01*
X0002600Y0284872D02*
X0065822Y0284872D01*
X0065023Y0284073D02*
X0002600Y0284073D01*
X0002600Y0283274D02*
X0064443Y0283274D01*
X0064112Y0282476D02*
X0002600Y0282476D01*
X0002600Y0281677D02*
X0063866Y0281677D01*
X0063866Y0280879D02*
X0002600Y0280879D01*
X0002600Y0280080D02*
X0063866Y0280080D01*
X0064152Y0279282D02*
X0002600Y0279282D01*
X0002600Y0278483D02*
X0064483Y0278483D01*
X0065121Y0277685D02*
X0002600Y0277685D01*
X0002600Y0276886D02*
X0065711Y0276886D01*
X0064912Y0276088D02*
X0002600Y0276088D01*
X0002600Y0275289D02*
X0050857Y0275289D01*
X0050059Y0274491D02*
X0002600Y0274491D01*
X0002600Y0273692D02*
X0049260Y0273692D01*
X0048462Y0272894D02*
X0002600Y0272894D01*
X0002600Y0272095D02*
X0047663Y0272095D01*
X0046865Y0271297D02*
X0002600Y0271297D01*
X0002600Y0270498D02*
X0046186Y0270498D01*
X0045855Y0269700D02*
X0002600Y0269700D01*
X0002600Y0268901D02*
X0045844Y0268901D01*
X0045844Y0268103D02*
X0002600Y0268103D01*
X0002600Y0267304D02*
X0045844Y0267304D01*
X0045844Y0266506D02*
X0002600Y0266506D01*
X0002600Y0265707D02*
X0045844Y0265707D01*
X0045844Y0264909D02*
X0002600Y0264909D01*
X0002600Y0264110D02*
X0045844Y0264110D01*
X0045844Y0263312D02*
X0002600Y0263312D01*
X0002600Y0262513D02*
X0045844Y0262513D01*
X0045844Y0261715D02*
X0002600Y0261715D01*
X0002600Y0260916D02*
X0045844Y0260916D01*
X0045844Y0260118D02*
X0002600Y0260118D01*
X0002600Y0259319D02*
X0045844Y0259319D01*
X0045844Y0258521D02*
X0002600Y0258521D01*
X0002600Y0257722D02*
X0045844Y0257722D01*
X0045844Y0256924D02*
X0002600Y0256924D01*
X0002600Y0256125D02*
X0045844Y0256125D01*
X0045844Y0255327D02*
X0002600Y0255327D01*
X0002600Y0254528D02*
X0045844Y0254528D01*
X0045844Y0253730D02*
X0002600Y0253730D01*
X0002600Y0252931D02*
X0045844Y0252931D01*
X0045844Y0252133D02*
X0002600Y0252133D01*
X0002600Y0251334D02*
X0045844Y0251334D01*
X0045844Y0250536D02*
X0002600Y0250536D01*
X0002600Y0249737D02*
X0045844Y0249737D01*
X0045844Y0248939D02*
X0002600Y0248939D01*
X0002600Y0248140D02*
X0045844Y0248140D01*
X0045844Y0247341D02*
X0002600Y0247341D01*
X0002600Y0246543D02*
X0045844Y0246543D01*
X0045844Y0245744D02*
X0002600Y0245744D01*
X0002600Y0244946D02*
X0045844Y0244946D01*
X0045844Y0244147D02*
X0002600Y0244147D01*
X0002600Y0243349D02*
X0045844Y0243349D01*
X0045844Y0242550D02*
X0002600Y0242550D01*
X0002600Y0241752D02*
X0045844Y0241752D01*
X0045844Y0240953D02*
X0002600Y0240953D01*
X0002600Y0240155D02*
X0045844Y0240155D01*
X0045844Y0239356D02*
X0002600Y0239356D01*
X0002600Y0238558D02*
X0045844Y0238558D01*
X0045844Y0237759D02*
X0002600Y0237759D01*
X0002600Y0236961D02*
X0045844Y0236961D01*
X0045844Y0236162D02*
X0002600Y0236162D01*
X0002600Y0235364D02*
X0045844Y0235364D01*
X0045844Y0234565D02*
X0002600Y0234565D01*
X0002600Y0233767D02*
X0045844Y0233767D01*
X0045844Y0232968D02*
X0002600Y0232968D01*
X0002600Y0232170D02*
X0045844Y0232170D01*
X0045844Y0231371D02*
X0002600Y0231371D01*
X0002600Y0230573D02*
X0045844Y0230573D01*
X0045844Y0229774D02*
X0002600Y0229774D01*
X0002600Y0228976D02*
X0045844Y0228976D01*
X0045844Y0228177D02*
X0002600Y0228177D01*
X0002600Y0227379D02*
X0045844Y0227379D01*
X0045844Y0226580D02*
X0002600Y0226580D01*
X0002600Y0225782D02*
X0045844Y0225782D01*
X0045844Y0224983D02*
X0002600Y0224983D01*
X0002600Y0224185D02*
X0045844Y0224185D01*
X0045844Y0223386D02*
X0002600Y0223386D01*
X0002600Y0222588D02*
X0045844Y0222588D01*
X0045844Y0221789D02*
X0002600Y0221789D01*
X0002600Y0220991D02*
X0045844Y0220991D01*
X0045844Y0220192D02*
X0002600Y0220192D01*
X0002600Y0219394D02*
X0045844Y0219394D01*
X0045844Y0218595D02*
X0002600Y0218595D01*
X0002600Y0217797D02*
X0045844Y0217797D01*
X0045844Y0216998D02*
X0002600Y0216998D01*
X0002600Y0216200D02*
X0045844Y0216200D01*
X0045844Y0215401D02*
X0002600Y0215401D01*
X0002600Y0214603D02*
X0045844Y0214603D01*
X0045844Y0213804D02*
X0002600Y0213804D01*
X0002600Y0213005D02*
X0045844Y0213005D01*
X0045844Y0212207D02*
X0002600Y0212207D01*
X0002600Y0211408D02*
X0045844Y0211408D01*
X0045844Y0210610D02*
X0017355Y0210610D01*
X0019209Y0209811D02*
X0045844Y0209811D01*
X0045844Y0209013D02*
X0020592Y0209013D01*
X0021647Y0208214D02*
X0045844Y0208214D01*
X0045844Y0207416D02*
X0022446Y0207416D01*
X0023244Y0206617D02*
X0045844Y0206617D01*
X0045844Y0205819D02*
X0023865Y0205819D01*
X0024326Y0205020D02*
X0045844Y0205020D01*
X0045844Y0204222D02*
X0024787Y0204222D01*
X0025248Y0203423D02*
X0045844Y0203423D01*
X0045844Y0202625D02*
X0025509Y0202625D01*
X0025723Y0201826D02*
X0045844Y0201826D01*
X0045844Y0201028D02*
X0025937Y0201028D01*
X0026151Y0200229D02*
X0045844Y0200229D01*
X0045844Y0199431D02*
X0026222Y0199431D01*
X0026222Y0198632D02*
X0045844Y0198632D01*
X0045844Y0197834D02*
X0026222Y0197834D01*
X0026222Y0197035D02*
X0045844Y0197035D01*
X0045844Y0196237D02*
X0026141Y0196237D01*
X0025927Y0195438D02*
X0045844Y0195438D01*
X0045844Y0194640D02*
X0025714Y0194640D01*
X0025500Y0193841D02*
X0045844Y0193841D01*
X0045844Y0193043D02*
X0025228Y0193043D01*
X0024767Y0192244D02*
X0045844Y0192244D01*
X0045844Y0191446D02*
X0024306Y0191446D01*
X0023845Y0190647D02*
X0045844Y0190647D01*
X0045844Y0189849D02*
X0023210Y0189849D01*
X0022411Y0189050D02*
X0045844Y0189050D01*
X0045844Y0188252D02*
X0021613Y0188252D01*
X0020532Y0187453D02*
X0045844Y0187453D01*
X0045844Y0186655D02*
X0019149Y0186655D01*
X0017226Y0185856D02*
X0045844Y0185856D01*
X0045844Y0185058D02*
X0002600Y0185058D01*
X0002600Y0185856D02*
X0009196Y0185856D01*
X0007273Y0186655D02*
X0002600Y0186655D01*
X0002600Y0187453D02*
X0005890Y0187453D01*
X0004809Y0188252D02*
X0002600Y0188252D01*
X0002600Y0189050D02*
X0004011Y0189050D01*
X0003212Y0189849D02*
X0002600Y0189849D01*
X0002600Y0184259D02*
X0045844Y0184259D01*
X0045844Y0183461D02*
X0002600Y0183461D01*
X0002600Y0182662D02*
X0045844Y0182662D01*
X0045844Y0181864D02*
X0002600Y0181864D01*
X0002600Y0181065D02*
X0045844Y0181065D01*
X0045844Y0180267D02*
X0002600Y0180267D01*
X0002600Y0179468D02*
X0045844Y0179468D01*
X0045844Y0178670D02*
X0002600Y0178670D01*
X0002600Y0177871D02*
X0045844Y0177871D01*
X0045844Y0177072D02*
X0002600Y0177072D01*
X0002600Y0176274D02*
X0045844Y0176274D01*
X0045844Y0175475D02*
X0002600Y0175475D01*
X0002600Y0174677D02*
X0045844Y0174677D01*
X0045844Y0173878D02*
X0002600Y0173878D01*
X0002600Y0173080D02*
X0045844Y0173080D01*
X0045844Y0172281D02*
X0002600Y0172281D01*
X0002600Y0171483D02*
X0045844Y0171483D01*
X0045844Y0170684D02*
X0002600Y0170684D01*
X0002600Y0169886D02*
X0045844Y0169886D01*
X0045844Y0169087D02*
X0002600Y0169087D01*
X0002600Y0168289D02*
X0045844Y0168289D01*
X0045844Y0167490D02*
X0002600Y0167490D01*
X0002600Y0166692D02*
X0045844Y0166692D01*
X0045844Y0165893D02*
X0002600Y0165893D01*
X0002600Y0165095D02*
X0045844Y0165095D01*
X0045844Y0164296D02*
X0002600Y0164296D01*
X0002600Y0163498D02*
X0045844Y0163498D01*
X0045844Y0162699D02*
X0002600Y0162699D01*
X0002600Y0161901D02*
X0045844Y0161901D01*
X0045844Y0161102D02*
X0002600Y0161102D01*
X0002600Y0160304D02*
X0045844Y0160304D01*
X0045844Y0159505D02*
X0002600Y0159505D01*
X0002600Y0158707D02*
X0045844Y0158707D01*
X0045844Y0157908D02*
X0002600Y0157908D01*
X0002600Y0157110D02*
X0045844Y0157110D01*
X0045844Y0156311D02*
X0002600Y0156311D01*
X0002600Y0155513D02*
X0045844Y0155513D01*
X0045844Y0154714D02*
X0002600Y0154714D01*
X0002600Y0153916D02*
X0045844Y0153916D01*
X0045844Y0153117D02*
X0002600Y0153117D01*
X0002600Y0152319D02*
X0045844Y0152319D01*
X0045844Y0151520D02*
X0002600Y0151520D01*
X0002600Y0150722D02*
X0045844Y0150722D01*
X0045844Y0149923D02*
X0002600Y0149923D01*
X0002600Y0149125D02*
X0045844Y0149125D01*
X0045844Y0148326D02*
X0002600Y0148326D01*
X0002600Y0147528D02*
X0045844Y0147528D01*
X0045844Y0146729D02*
X0002600Y0146729D01*
X0002600Y0145931D02*
X0045844Y0145931D01*
X0045844Y0145132D02*
X0002600Y0145132D01*
X0002600Y0144334D02*
X0045844Y0144334D01*
X0045844Y0143535D02*
X0002600Y0143535D01*
X0002600Y0142737D02*
X0045844Y0142737D01*
X0045844Y0141938D02*
X0002600Y0141938D01*
X0002600Y0141139D02*
X0045844Y0141139D01*
X0045844Y0140341D02*
X0002600Y0140341D01*
X0002600Y0139542D02*
X0045844Y0139542D01*
X0045844Y0138744D02*
X0002600Y0138744D01*
X0002600Y0137945D02*
X0045844Y0137945D01*
X0045844Y0137147D02*
X0002600Y0137147D01*
X0002600Y0136348D02*
X0045844Y0136348D01*
X0045844Y0135550D02*
X0002600Y0135550D01*
X0002600Y0134751D02*
X0045844Y0134751D01*
X0045844Y0133953D02*
X0002600Y0133953D01*
X0002600Y0133154D02*
X0045844Y0133154D01*
X0045844Y0132356D02*
X0002600Y0132356D01*
X0002600Y0131557D02*
X0045844Y0131557D01*
X0045844Y0130759D02*
X0002600Y0130759D01*
X0002600Y0129960D02*
X0045844Y0129960D01*
X0045844Y0129162D02*
X0002600Y0129162D01*
X0002600Y0128363D02*
X0045844Y0128363D01*
X0045844Y0127565D02*
X0002600Y0127565D01*
X0002600Y0126766D02*
X0045844Y0126766D01*
X0045844Y0125968D02*
X0002600Y0125968D01*
X0002600Y0125169D02*
X0045844Y0125169D01*
X0045844Y0124371D02*
X0002600Y0124371D01*
X0002600Y0123572D02*
X0045844Y0123572D01*
X0045844Y0122774D02*
X0002600Y0122774D01*
X0002600Y0121975D02*
X0045844Y0121975D01*
X0045844Y0121177D02*
X0002600Y0121177D01*
X0002600Y0120378D02*
X0045844Y0120378D01*
X0045844Y0119580D02*
X0002600Y0119580D01*
X0002600Y0118781D02*
X0045844Y0118781D01*
X0045844Y0117983D02*
X0002600Y0117983D01*
X0002600Y0117184D02*
X0045844Y0117184D01*
X0045844Y0116386D02*
X0002600Y0116386D01*
X0002600Y0115587D02*
X0045844Y0115587D01*
X0045844Y0114789D02*
X0002600Y0114789D01*
X0002600Y0113990D02*
X0045844Y0113990D01*
X0045844Y0113192D02*
X0002600Y0113192D01*
X0002600Y0112393D02*
X0045844Y0112393D01*
X0045844Y0111595D02*
X0002600Y0111595D01*
X0002600Y0110796D02*
X0045844Y0110796D01*
X0045844Y0109998D02*
X0002600Y0109998D01*
X0002600Y0109199D02*
X0045844Y0109199D01*
X0045844Y0108401D02*
X0002600Y0108401D01*
X0002600Y0107602D02*
X0045844Y0107602D01*
X0045844Y0106803D02*
X0002600Y0106803D01*
X0002600Y0106005D02*
X0045844Y0106005D01*
X0045844Y0105206D02*
X0002600Y0105206D01*
X0002600Y0104408D02*
X0045844Y0104408D01*
X0045844Y0103609D02*
X0002600Y0103609D01*
X0002600Y0102811D02*
X0045844Y0102811D01*
X0045844Y0102012D02*
X0002600Y0102012D01*
X0002600Y0101214D02*
X0045844Y0101214D01*
X0045844Y0100415D02*
X0002600Y0100415D01*
X0002600Y0099617D02*
X0045844Y0099617D01*
X0045844Y0098818D02*
X0002600Y0098818D01*
X0002600Y0098020D02*
X0045844Y0098020D01*
X0045844Y0097221D02*
X0002600Y0097221D01*
X0002600Y0096423D02*
X0045844Y0096423D01*
X0045844Y0095624D02*
X0002600Y0095624D01*
X0002600Y0094826D02*
X0045844Y0094826D01*
X0046090Y0094027D02*
X0002600Y0094027D01*
X0002600Y0093229D02*
X0046634Y0093229D01*
X0047433Y0092430D02*
X0002600Y0092430D01*
X0002600Y0091632D02*
X0048231Y0091632D01*
X0049030Y0090833D02*
X0002600Y0090833D01*
X0002600Y0090035D02*
X0049828Y0090035D01*
X0050627Y0089236D02*
X0002600Y0089236D01*
X0002600Y0088438D02*
X0051924Y0088438D01*
X0053755Y0094027D02*
X0061434Y0094027D01*
X0062233Y0094826D02*
X0052957Y0094826D01*
X0052158Y0095624D02*
X0063585Y0095624D01*
X0065743Y0102112D02*
X0063979Y0102843D01*
X0062628Y0104193D01*
X0061898Y0105957D01*
X0061898Y0107867D01*
X0062628Y0109631D01*
X0063979Y0110981D01*
X0065743Y0111712D01*
X0074852Y0111712D01*
X0076617Y0110981D01*
X0077967Y0109631D01*
X0078698Y0107867D01*
X0078698Y0105957D01*
X0077967Y0104193D01*
X0076617Y0102843D01*
X0074852Y0102112D01*
X0065743Y0102112D01*
X0064055Y0102811D02*
X0051444Y0102811D01*
X0051444Y0103609D02*
X0063212Y0103609D01*
X0062539Y0104408D02*
X0051444Y0104408D01*
X0051444Y0105206D02*
X0062209Y0105206D01*
X0061898Y0106005D02*
X0051444Y0106005D01*
X0051444Y0106803D02*
X0061898Y0106803D01*
X0061898Y0107602D02*
X0051444Y0107602D01*
X0051444Y0108401D02*
X0062119Y0108401D01*
X0062450Y0109199D02*
X0051444Y0109199D01*
X0051444Y0109998D02*
X0062995Y0109998D01*
X0063794Y0110796D02*
X0051444Y0110796D01*
X0051444Y0111595D02*
X0065460Y0111595D01*
X0065743Y0112112D02*
X0074852Y0112112D01*
X0076617Y0112843D01*
X0077967Y0114193D01*
X0078698Y0115957D01*
X0078698Y0117867D01*
X0077967Y0119631D01*
X0076617Y0120981D01*
X0074852Y0121712D01*
X0065743Y0121712D01*
X0063979Y0120981D01*
X0062628Y0119631D01*
X0061898Y0117867D01*
X0061898Y0115957D01*
X0062628Y0114193D01*
X0063979Y0112843D01*
X0065743Y0112112D01*
X0065064Y0112393D02*
X0051444Y0112393D01*
X0051444Y0113192D02*
X0063630Y0113192D01*
X0062831Y0113990D02*
X0051444Y0113990D01*
X0051444Y0114789D02*
X0062382Y0114789D01*
X0062051Y0115587D02*
X0051444Y0115587D01*
X0051444Y0116386D02*
X0061898Y0116386D01*
X0061898Y0117184D02*
X0051444Y0117184D01*
X0051444Y0117983D02*
X0061946Y0117983D01*
X0062276Y0118781D02*
X0051444Y0118781D01*
X0051444Y0119580D02*
X0062607Y0119580D01*
X0063376Y0120378D02*
X0051444Y0120378D01*
X0051444Y0121177D02*
X0064451Y0121177D01*
X0064145Y0122774D02*
X0051444Y0122774D01*
X0051444Y0123572D02*
X0063249Y0123572D01*
X0062555Y0124371D02*
X0051444Y0124371D01*
X0051444Y0125169D02*
X0062224Y0125169D01*
X0061898Y0125968D02*
X0051444Y0125968D01*
X0051444Y0126766D02*
X0061898Y0126766D01*
X0061898Y0127565D02*
X0051444Y0127565D01*
X0051444Y0128363D02*
X0062103Y0128363D01*
X0062434Y0129162D02*
X0051444Y0129162D01*
X0051444Y0129960D02*
X0062958Y0129960D01*
X0063756Y0130759D02*
X0051444Y0130759D01*
X0051444Y0131557D02*
X0065370Y0131557D01*
X0065743Y0132112D02*
X0074852Y0132112D01*
X0076617Y0132843D01*
X0077967Y0134193D01*
X0078698Y0135957D01*
X0078698Y0137867D01*
X0077967Y0139631D01*
X0076617Y0140981D01*
X0074852Y0141712D01*
X0065743Y0141712D01*
X0063979Y0140981D01*
X0062628Y0139631D01*
X0061898Y0137867D01*
X0061898Y0135957D01*
X0062628Y0134193D01*
X0063979Y0132843D01*
X0065743Y0132112D01*
X0065154Y0132356D02*
X0051444Y0132356D01*
X0051444Y0133154D02*
X0063667Y0133154D01*
X0062868Y0133953D02*
X0051444Y0133953D01*
X0051444Y0134751D02*
X0062397Y0134751D01*
X0062066Y0135550D02*
X0051444Y0135550D01*
X0051444Y0136348D02*
X0061898Y0136348D01*
X0061898Y0137147D02*
X0051444Y0137147D01*
X0051444Y0137945D02*
X0061930Y0137945D01*
X0062261Y0138744D02*
X0051444Y0138744D01*
X0051444Y0139542D02*
X0062592Y0139542D01*
X0063339Y0140341D02*
X0051444Y0140341D01*
X0051444Y0141139D02*
X0064361Y0141139D01*
X0064778Y0142278D02*
X0064077Y0142635D01*
X0063440Y0143098D01*
X0062884Y0143655D01*
X0062421Y0144291D01*
X0062064Y0144992D01*
X0061821Y0145741D01*
X0061698Y0146518D01*
X0061698Y0146721D01*
X0070107Y0146721D01*
X0070488Y0146721D01*
X0070488Y0141912D01*
X0074291Y0141912D01*
X0075068Y0142035D01*
X0075817Y0142278D01*
X0076518Y0142635D01*
X0077155Y0143098D01*
X0077711Y0143655D01*
X0078174Y0144291D01*
X0078531Y0144992D01*
X0078775Y0145741D01*
X0078898Y0146518D01*
X0078898Y0146721D01*
X0070488Y0146721D01*
X0070488Y0147102D01*
X0078898Y0147102D01*
X0078898Y0147305D01*
X0078775Y0148083D01*
X0078531Y0148831D01*
X0078174Y0149532D01*
X0077711Y0150169D01*
X0077155Y0150726D01*
X0076518Y0151188D01*
X0075817Y0151545D01*
X0075068Y0151789D01*
X0074291Y0151912D01*
X0070488Y0151912D01*
X0070488Y0147102D01*
X0070107Y0147102D01*
X0070107Y0146721D01*
X0070107Y0141912D01*
X0066304Y0141912D01*
X0065527Y0142035D01*
X0064778Y0142278D01*
X0063938Y0142737D02*
X0051444Y0142737D01*
X0051444Y0143535D02*
X0063003Y0143535D01*
X0062400Y0144334D02*
X0051444Y0144334D01*
X0051444Y0145132D02*
X0062019Y0145132D01*
X0061791Y0145931D02*
X0051444Y0145931D01*
X0051444Y0146729D02*
X0070107Y0146729D01*
X0070107Y0147102D02*
X0061698Y0147102D01*
X0061698Y0147305D01*
X0061821Y0148083D01*
X0062064Y0148831D01*
X0062421Y0149532D01*
X0062884Y0150169D01*
X0063440Y0150726D01*
X0064077Y0151188D01*
X0064778Y0151545D01*
X0065527Y0151789D01*
X0066304Y0151912D01*
X0070107Y0151912D01*
X0070107Y0147102D01*
X0070107Y0147528D02*
X0070488Y0147528D01*
X0070488Y0148326D02*
X0070107Y0148326D01*
X0070107Y0149125D02*
X0070488Y0149125D01*
X0070488Y0149923D02*
X0070107Y0149923D01*
X0070107Y0150722D02*
X0070488Y0150722D01*
X0070488Y0151520D02*
X0070107Y0151520D01*
X0070488Y0146729D02*
X0102943Y0146729D01*
X0102943Y0145931D02*
X0078805Y0145931D01*
X0078577Y0145132D02*
X0102943Y0145132D01*
X0102943Y0144334D02*
X0078196Y0144334D01*
X0077592Y0143535D02*
X0102943Y0143535D01*
X0102943Y0142737D02*
X0076657Y0142737D01*
X0076234Y0141139D02*
X0102943Y0141139D01*
X0102943Y0140341D02*
X0077257Y0140341D01*
X0078003Y0139542D02*
X0102943Y0139542D01*
X0102943Y0138744D02*
X0078334Y0138744D01*
X0078665Y0137945D02*
X0102943Y0137945D01*
X0102943Y0137147D02*
X0078698Y0137147D01*
X0078698Y0136348D02*
X0102943Y0136348D01*
X0102323Y0135550D02*
X0078529Y0135550D01*
X0078198Y0134751D02*
X0101525Y0134751D01*
X0100726Y0133953D02*
X0077727Y0133953D01*
X0076928Y0133154D02*
X0099928Y0133154D01*
X0099129Y0132356D02*
X0075442Y0132356D01*
X0075225Y0131557D02*
X0098331Y0131557D01*
X0097532Y0130759D02*
X0076839Y0130759D01*
X0077637Y0129960D02*
X0096734Y0129960D01*
X0095935Y0129162D02*
X0078161Y0129162D01*
X0078041Y0124371D02*
X0140332Y0124371D01*
X0140332Y0125169D02*
X0097600Y0125169D01*
X0098398Y0125968D02*
X0140332Y0125968D01*
X0140332Y0126766D02*
X0099197Y0126766D01*
X0099995Y0127565D02*
X0140332Y0127565D01*
X0140332Y0128363D02*
X0100794Y0128363D01*
X0101592Y0129162D02*
X0140332Y0129162D01*
X0140332Y0129960D02*
X0102391Y0129960D01*
X0103189Y0130759D02*
X0140332Y0130759D01*
X0140332Y0131557D02*
X0103988Y0131557D01*
X0104786Y0132356D02*
X0140332Y0132356D01*
X0140332Y0133154D02*
X0105585Y0133154D01*
X0106383Y0133953D02*
X0140332Y0133953D01*
X0140332Y0134751D02*
X0106943Y0134751D01*
X0106943Y0135550D02*
X0140332Y0135550D01*
X0140332Y0136348D02*
X0106943Y0136348D01*
X0106943Y0137147D02*
X0140332Y0137147D01*
X0140332Y0137945D02*
X0106943Y0137945D01*
X0106943Y0138744D02*
X0140332Y0138744D01*
X0140332Y0139542D02*
X0106943Y0139542D01*
X0106943Y0140341D02*
X0140332Y0140341D01*
X0140332Y0141139D02*
X0106943Y0141139D01*
X0106943Y0141938D02*
X0140332Y0141938D01*
X0140332Y0142737D02*
X0106943Y0142737D01*
X0106943Y0143535D02*
X0140332Y0143535D01*
X0140332Y0144334D02*
X0106943Y0144334D01*
X0106943Y0145132D02*
X0140332Y0145132D01*
X0140332Y0145931D02*
X0106943Y0145931D01*
X0106943Y0146729D02*
X0140332Y0146729D01*
X0140332Y0147528D02*
X0106943Y0147528D01*
X0106943Y0148326D02*
X0140332Y0148326D01*
X0140332Y0149125D02*
X0106943Y0149125D01*
X0106943Y0149923D02*
X0140332Y0149923D01*
X0140332Y0150722D02*
X0106943Y0150722D01*
X0106943Y0151520D02*
X0140332Y0151520D01*
X0140332Y0152319D02*
X0106943Y0152319D01*
X0106943Y0153117D02*
X0140332Y0153117D01*
X0140332Y0153916D02*
X0106943Y0153916D01*
X0106943Y0154714D02*
X0140332Y0154714D01*
X0140332Y0155513D02*
X0106943Y0155513D01*
X0106943Y0156311D02*
X0140332Y0156311D01*
X0140332Y0157110D02*
X0106943Y0157110D01*
X0106943Y0157908D02*
X0140332Y0157908D01*
X0140332Y0158707D02*
X0106943Y0158707D01*
X0106943Y0159505D02*
X0140332Y0159505D01*
X0140332Y0160304D02*
X0106943Y0160304D01*
X0106943Y0161102D02*
X0140332Y0161102D01*
X0140332Y0161901D02*
X0106943Y0161901D01*
X0106943Y0162699D02*
X0140332Y0162699D01*
X0140332Y0163498D02*
X0106943Y0163498D01*
X0106943Y0164296D02*
X0140332Y0164296D01*
X0140332Y0165095D02*
X0106943Y0165095D01*
X0106943Y0165893D02*
X0140332Y0165893D01*
X0140332Y0166692D02*
X0106943Y0166692D01*
X0106943Y0167490D02*
X0140332Y0167490D01*
X0140332Y0168289D02*
X0106943Y0168289D01*
X0106943Y0169087D02*
X0140332Y0169087D01*
X0140332Y0169886D02*
X0106943Y0169886D01*
X0106943Y0170684D02*
X0140332Y0170684D01*
X0140332Y0171483D02*
X0106943Y0171483D01*
X0106943Y0172281D02*
X0140332Y0172281D01*
X0140332Y0173080D02*
X0106943Y0173080D01*
X0106943Y0173878D02*
X0140332Y0173878D01*
X0140332Y0174677D02*
X0106943Y0174677D01*
X0106943Y0175475D02*
X0140332Y0175475D01*
X0140332Y0176274D02*
X0106943Y0176274D01*
X0106943Y0177072D02*
X0140332Y0177072D01*
X0140332Y0177871D02*
X0106943Y0177871D01*
X0106943Y0178670D02*
X0140332Y0178670D01*
X0140332Y0179468D02*
X0106943Y0179468D01*
X0106943Y0180267D02*
X0140332Y0180267D01*
X0140332Y0181065D02*
X0106943Y0181065D01*
X0106943Y0181864D02*
X0140332Y0181864D01*
X0140332Y0182662D02*
X0106943Y0182662D01*
X0106943Y0183461D02*
X0140332Y0183461D01*
X0140332Y0184259D02*
X0106943Y0184259D01*
X0106943Y0185058D02*
X0140332Y0185058D01*
X0140332Y0185856D02*
X0106943Y0185856D01*
X0106943Y0186655D02*
X0140332Y0186655D01*
X0140332Y0187453D02*
X0106943Y0187453D01*
X0106943Y0188252D02*
X0140332Y0188252D01*
X0140332Y0189050D02*
X0106943Y0189050D01*
X0106943Y0189849D02*
X0123108Y0189849D01*
X0123440Y0189680D02*
X0124188Y0189437D01*
X0124966Y0189313D01*
X0128768Y0189313D01*
X0128768Y0194123D01*
X0120359Y0194123D01*
X0120359Y0193920D01*
X0120482Y0193143D01*
X0120725Y0192394D01*
X0121083Y0191693D01*
X0121545Y0191056D01*
X0122102Y0190500D01*
X0122738Y0190037D01*
X0123440Y0189680D01*
X0121954Y0190647D02*
X0106943Y0190647D01*
X0106943Y0191446D02*
X0121262Y0191446D01*
X0120802Y0192244D02*
X0106943Y0192244D01*
X0106943Y0193043D02*
X0120515Y0193043D01*
X0120372Y0193841D02*
X0106943Y0193841D01*
X0106943Y0194640D02*
X0120359Y0194640D01*
X0120359Y0194707D02*
X0120359Y0194504D01*
X0128768Y0194504D01*
X0128768Y0194123D01*
X0129150Y0194123D01*
X0129150Y0194504D01*
X0137559Y0194504D01*
X0137559Y0194707D01*
X0137436Y0195484D01*
X0137193Y0196233D01*
X0136835Y0196934D01*
X0136373Y0197571D01*
X0135816Y0198127D01*
X0135180Y0198590D01*
X0134478Y0198947D01*
X0133730Y0199190D01*
X0132953Y0199313D01*
X0129150Y0199313D01*
X0129150Y0194504D01*
X0128768Y0194504D01*
X0128768Y0199313D01*
X0124966Y0199313D01*
X0124188Y0199190D01*
X0123440Y0198947D01*
X0122738Y0198590D01*
X0122102Y0198127D01*
X0121545Y0197571D01*
X0121083Y0196934D01*
X0120725Y0196233D01*
X0120482Y0195484D01*
X0120359Y0194707D01*
X0120475Y0195438D02*
X0106943Y0195438D01*
X0106943Y0196237D02*
X0120727Y0196237D01*
X0121156Y0197035D02*
X0106943Y0197035D01*
X0106943Y0197834D02*
X0121808Y0197834D01*
X0122822Y0198632D02*
X0106943Y0198632D01*
X0106943Y0199431D02*
X0140332Y0199431D01*
X0140332Y0200229D02*
X0106943Y0200229D01*
X0106943Y0201028D02*
X0140332Y0201028D01*
X0140332Y0102625D01*
X0121193Y0102625D01*
X0119924Y0103894D01*
X0118159Y0104625D01*
X0109050Y0104625D01*
X0107286Y0103894D01*
X0105935Y0102544D01*
X0105205Y0100780D01*
X0105205Y0098870D01*
X0105935Y0097106D01*
X0107286Y0095756D01*
X0109050Y0095025D01*
X0118159Y0095025D01*
X0119924Y0095756D01*
X0121193Y0097025D01*
X0140332Y0097025D01*
X0140332Y0095331D01*
X0140759Y0094302D01*
X0160332Y0074728D01*
X0160332Y0072459D01*
X0158978Y0071105D01*
X0158232Y0069304D01*
X0158232Y0067354D01*
X0158978Y0065554D01*
X0160357Y0064175D01*
X0162158Y0063429D01*
X0164107Y0063429D01*
X0165908Y0064175D01*
X0167286Y0065554D01*
X0168032Y0067354D01*
X0168032Y0069304D01*
X0167286Y0071105D01*
X0165932Y0072459D01*
X0165932Y0076445D01*
X0165506Y0077474D01*
X0164718Y0078262D01*
X0145932Y0097048D01*
X0145932Y0202744D01*
X0145506Y0203773D01*
X0144718Y0204561D01*
X0138419Y0210860D01*
X0137390Y0211287D01*
X0128791Y0211287D01*
X0127522Y0212556D01*
X0125758Y0213287D01*
X0116648Y0213287D01*
X0114884Y0212556D01*
X0113534Y0211206D01*
X0112803Y0209441D01*
X0112803Y0207532D01*
X0113534Y0205768D01*
X0114884Y0204417D01*
X0116648Y0203687D01*
X0125758Y0203687D01*
X0127522Y0204417D01*
X0128791Y0205687D01*
X0135673Y0205687D01*
X0140332Y0201028D01*
X0139534Y0201826D02*
X0106943Y0201826D01*
X0106943Y0202625D02*
X0138735Y0202625D01*
X0137937Y0203423D02*
X0106943Y0203423D01*
X0106943Y0204222D02*
X0115356Y0204222D01*
X0114281Y0205020D02*
X0106943Y0205020D01*
X0106943Y0205819D02*
X0113513Y0205819D01*
X0113182Y0206617D02*
X0106943Y0206617D01*
X0106943Y0207416D02*
X0112851Y0207416D01*
X0112803Y0208214D02*
X0106943Y0208214D01*
X0106943Y0209013D02*
X0112803Y0209013D01*
X0112956Y0209811D02*
X0106943Y0209811D01*
X0106943Y0210610D02*
X0113287Y0210610D01*
X0113737Y0211408D02*
X0106943Y0211408D01*
X0106943Y0212207D02*
X0114535Y0212207D01*
X0115970Y0213005D02*
X0106943Y0213005D01*
X0106943Y0213804D02*
X0152143Y0213804D01*
X0152143Y0213005D02*
X0126437Y0213005D01*
X0127871Y0212207D02*
X0152143Y0212207D01*
X0152143Y0211408D02*
X0128669Y0211408D01*
X0128125Y0205020D02*
X0136339Y0205020D01*
X0137138Y0204222D02*
X0127050Y0204222D01*
X0128768Y0198632D02*
X0129150Y0198632D01*
X0129150Y0197834D02*
X0128768Y0197834D01*
X0128768Y0197035D02*
X0129150Y0197035D01*
X0129150Y0196237D02*
X0128768Y0196237D01*
X0128768Y0195438D02*
X0129150Y0195438D01*
X0129150Y0194640D02*
X0128768Y0194640D01*
X0129150Y0194123D02*
X0137559Y0194123D01*
X0137559Y0193920D01*
X0137436Y0193143D01*
X0137193Y0192394D01*
X0136835Y0191693D01*
X0136373Y0191056D01*
X0135816Y0190500D01*
X0135180Y0190037D01*
X0134478Y0189680D01*
X0133730Y0189437D01*
X0132953Y0189313D01*
X0129150Y0189313D01*
X0129150Y0194123D01*
X0129150Y0193841D02*
X0128768Y0193841D01*
X0128768Y0193043D02*
X0129150Y0193043D01*
X0129150Y0192244D02*
X0128768Y0192244D01*
X0128768Y0191446D02*
X0129150Y0191446D01*
X0129150Y0190647D02*
X0128768Y0190647D01*
X0128768Y0189849D02*
X0129150Y0189849D01*
X0134810Y0189849D02*
X0140332Y0189849D01*
X0140332Y0190647D02*
X0135964Y0190647D01*
X0136656Y0191446D02*
X0140332Y0191446D01*
X0140332Y0192244D02*
X0137116Y0192244D01*
X0137403Y0193043D02*
X0140332Y0193043D01*
X0140332Y0193841D02*
X0137547Y0193841D01*
X0137559Y0194640D02*
X0140332Y0194640D01*
X0140332Y0195438D02*
X0137443Y0195438D01*
X0137191Y0196237D02*
X0140332Y0196237D01*
X0140332Y0197035D02*
X0136762Y0197035D01*
X0136110Y0197834D02*
X0140332Y0197834D01*
X0140332Y0198632D02*
X0135096Y0198632D01*
X0140267Y0209013D02*
X0152143Y0209013D01*
X0152143Y0209811D02*
X0139468Y0209811D01*
X0138670Y0210610D02*
X0152143Y0210610D01*
X0152143Y0208214D02*
X0141065Y0208214D01*
X0141864Y0207416D02*
X0152143Y0207416D01*
X0152143Y0206617D02*
X0142662Y0206617D01*
X0143461Y0205819D02*
X0152143Y0205819D01*
X0152143Y0205020D02*
X0144259Y0205020D01*
X0145058Y0204222D02*
X0152143Y0204222D01*
X0152143Y0203423D02*
X0145651Y0203423D01*
X0145932Y0202625D02*
X0152143Y0202625D01*
X0152143Y0201826D02*
X0145932Y0201826D01*
X0145932Y0201028D02*
X0152143Y0201028D01*
X0152143Y0200229D02*
X0145932Y0200229D01*
X0145932Y0199431D02*
X0152143Y0199431D01*
X0152143Y0198632D02*
X0145932Y0198632D01*
X0145932Y0197834D02*
X0152143Y0197834D01*
X0152143Y0197035D02*
X0145932Y0197035D01*
X0145932Y0196237D02*
X0152143Y0196237D01*
X0152143Y0195438D02*
X0145932Y0195438D01*
X0145932Y0194640D02*
X0152143Y0194640D01*
X0152143Y0193841D02*
X0145932Y0193841D01*
X0145932Y0193043D02*
X0152143Y0193043D01*
X0152143Y0192244D02*
X0145932Y0192244D01*
X0145932Y0191446D02*
X0152143Y0191446D01*
X0152143Y0190647D02*
X0145932Y0190647D01*
X0145932Y0189849D02*
X0152143Y0189849D01*
X0152143Y0189050D02*
X0145932Y0189050D01*
X0145932Y0188252D02*
X0152143Y0188252D01*
X0152143Y0187453D02*
X0145932Y0187453D01*
X0145932Y0186655D02*
X0152143Y0186655D01*
X0152143Y0185856D02*
X0145932Y0185856D01*
X0145932Y0185058D02*
X0152143Y0185058D01*
X0152143Y0184259D02*
X0145932Y0184259D01*
X0145932Y0183461D02*
X0152143Y0183461D01*
X0152143Y0182662D02*
X0145932Y0182662D01*
X0145932Y0181864D02*
X0152143Y0181864D01*
X0152143Y0181065D02*
X0145932Y0181065D01*
X0145932Y0180267D02*
X0152143Y0180267D01*
X0152143Y0179468D02*
X0145932Y0179468D01*
X0145932Y0178670D02*
X0152143Y0178670D01*
X0152143Y0177871D02*
X0145932Y0177871D01*
X0145932Y0177072D02*
X0152143Y0177072D01*
X0152143Y0176274D02*
X0145932Y0176274D01*
X0145932Y0175475D02*
X0152143Y0175475D01*
X0152143Y0174677D02*
X0145932Y0174677D01*
X0145932Y0173878D02*
X0152143Y0173878D01*
X0152143Y0173080D02*
X0145932Y0173080D01*
X0145932Y0172281D02*
X0152143Y0172281D01*
X0152143Y0171483D02*
X0145932Y0171483D01*
X0145932Y0170684D02*
X0152143Y0170684D01*
X0152143Y0169886D02*
X0145932Y0169886D01*
X0145932Y0169087D02*
X0152143Y0169087D01*
X0152143Y0168289D02*
X0145932Y0168289D01*
X0145932Y0167490D02*
X0152143Y0167490D01*
X0152143Y0166692D02*
X0145932Y0166692D01*
X0145932Y0165893D02*
X0152143Y0165893D01*
X0152143Y0165095D02*
X0145932Y0165095D01*
X0145932Y0164296D02*
X0152143Y0164296D01*
X0152143Y0163498D02*
X0145932Y0163498D01*
X0145932Y0162699D02*
X0152143Y0162699D01*
X0152143Y0161901D02*
X0145932Y0161901D01*
X0145932Y0161102D02*
X0152143Y0161102D01*
X0152143Y0160304D02*
X0145932Y0160304D01*
X0145932Y0159505D02*
X0152143Y0159505D01*
X0152143Y0158707D02*
X0145932Y0158707D01*
X0145932Y0157908D02*
X0152143Y0157908D01*
X0152143Y0157110D02*
X0145932Y0157110D01*
X0145932Y0156311D02*
X0152143Y0156311D01*
X0152143Y0155513D02*
X0145932Y0155513D01*
X0145932Y0154714D02*
X0152143Y0154714D01*
X0152143Y0153916D02*
X0145932Y0153916D01*
X0145932Y0153117D02*
X0152143Y0153117D01*
X0152143Y0152319D02*
X0145932Y0152319D01*
X0145932Y0151520D02*
X0152143Y0151520D01*
X0152143Y0150722D02*
X0145932Y0150722D01*
X0145932Y0149923D02*
X0152143Y0149923D01*
X0152143Y0149125D02*
X0145932Y0149125D01*
X0145932Y0148326D02*
X0152143Y0148326D01*
X0152143Y0147528D02*
X0145932Y0147528D01*
X0145932Y0146729D02*
X0152143Y0146729D01*
X0152143Y0145931D02*
X0145932Y0145931D01*
X0145932Y0145132D02*
X0152143Y0145132D01*
X0152143Y0144334D02*
X0145932Y0144334D01*
X0145932Y0143535D02*
X0152143Y0143535D01*
X0152143Y0142737D02*
X0145932Y0142737D01*
X0145932Y0141938D02*
X0152143Y0141938D01*
X0152143Y0141139D02*
X0145932Y0141139D01*
X0145932Y0140341D02*
X0152143Y0140341D01*
X0152143Y0139542D02*
X0145932Y0139542D01*
X0145932Y0138744D02*
X0152143Y0138744D01*
X0152143Y0137945D02*
X0145932Y0137945D01*
X0145932Y0137147D02*
X0152143Y0137147D01*
X0152143Y0136348D02*
X0145932Y0136348D01*
X0145932Y0135550D02*
X0152143Y0135550D01*
X0152143Y0134751D02*
X0145932Y0134751D01*
X0145932Y0133953D02*
X0152143Y0133953D01*
X0152143Y0133154D02*
X0145932Y0133154D01*
X0145932Y0132356D02*
X0152143Y0132356D01*
X0152143Y0131557D02*
X0145932Y0131557D01*
X0145932Y0130759D02*
X0152143Y0130759D01*
X0152143Y0129960D02*
X0145932Y0129960D01*
X0145932Y0129162D02*
X0152143Y0129162D01*
X0152143Y0128363D02*
X0145932Y0128363D01*
X0145932Y0127565D02*
X0152143Y0127565D01*
X0152143Y0126766D02*
X0145932Y0126766D01*
X0145932Y0125968D02*
X0152143Y0125968D01*
X0152143Y0125169D02*
X0145932Y0125169D01*
X0145932Y0124371D02*
X0152143Y0124371D01*
X0152143Y0123572D02*
X0145932Y0123572D01*
X0145932Y0122774D02*
X0152143Y0122774D01*
X0152143Y0121975D02*
X0145932Y0121975D01*
X0145932Y0121177D02*
X0152143Y0121177D01*
X0152143Y0120378D02*
X0145932Y0120378D01*
X0145932Y0119580D02*
X0152143Y0119580D01*
X0152143Y0118781D02*
X0145932Y0118781D01*
X0145932Y0117983D02*
X0152143Y0117983D01*
X0152143Y0117184D02*
X0145932Y0117184D01*
X0145932Y0116386D02*
X0152143Y0116386D01*
X0152143Y0115587D02*
X0145932Y0115587D01*
X0145932Y0114789D02*
X0152143Y0114789D01*
X0152143Y0113990D02*
X0145932Y0113990D01*
X0145932Y0113192D02*
X0152143Y0113192D01*
X0152143Y0112393D02*
X0145932Y0112393D01*
X0145932Y0111595D02*
X0152143Y0111595D01*
X0152143Y0110796D02*
X0145932Y0110796D01*
X0145932Y0109998D02*
X0152143Y0109998D01*
X0152143Y0109199D02*
X0145932Y0109199D01*
X0145932Y0108401D02*
X0152143Y0108401D01*
X0152143Y0107602D02*
X0145932Y0107602D01*
X0145932Y0106803D02*
X0152143Y0106803D01*
X0152143Y0106005D02*
X0145932Y0106005D01*
X0145932Y0105206D02*
X0152143Y0105206D01*
X0152143Y0104408D02*
X0145932Y0104408D01*
X0145932Y0103609D02*
X0152143Y0103609D01*
X0152143Y0102811D02*
X0145932Y0102811D01*
X0145932Y0102012D02*
X0152143Y0102012D01*
X0152143Y0101214D02*
X0145932Y0101214D01*
X0145932Y0100415D02*
X0152143Y0100415D01*
X0152143Y0099617D02*
X0145932Y0099617D01*
X0145932Y0098818D02*
X0152330Y0098818D01*
X0152789Y0098020D02*
X0145932Y0098020D01*
X0145932Y0097221D02*
X0153587Y0097221D01*
X0154386Y0096423D02*
X0146557Y0096423D01*
X0147356Y0095624D02*
X0155184Y0095624D01*
X0155983Y0094826D02*
X0148154Y0094826D01*
X0148953Y0094027D02*
X0156781Y0094027D01*
X0157580Y0093229D02*
X0149751Y0093229D01*
X0150550Y0092430D02*
X0158378Y0092430D01*
X0159177Y0091632D02*
X0151348Y0091632D01*
X0152147Y0090833D02*
X0159975Y0090833D01*
X0160774Y0090035D02*
X0152945Y0090035D01*
X0153744Y0089236D02*
X0161572Y0089236D01*
X0162371Y0088438D02*
X0154543Y0088438D01*
X0155341Y0087639D02*
X0163169Y0087639D01*
X0163968Y0086841D02*
X0156140Y0086841D01*
X0156938Y0086042D02*
X0164766Y0086042D01*
X0165565Y0085244D02*
X0157737Y0085244D01*
X0158535Y0084445D02*
X0166364Y0084445D01*
X0167162Y0083647D02*
X0159334Y0083647D01*
X0160132Y0082848D02*
X0167961Y0082848D01*
X0168759Y0082050D02*
X0160931Y0082050D01*
X0161729Y0081251D02*
X0169558Y0081251D01*
X0170356Y0080453D02*
X0162528Y0080453D01*
X0163326Y0079654D02*
X0171155Y0079654D01*
X0171828Y0078856D02*
X0164125Y0078856D01*
X0164923Y0078057D02*
X0171828Y0078057D01*
X0171828Y0077259D02*
X0165595Y0077259D01*
X0165926Y0076460D02*
X0171828Y0076460D01*
X0171828Y0075662D02*
X0165932Y0075662D01*
X0165932Y0074863D02*
X0171828Y0074863D01*
X0171828Y0074065D02*
X0165932Y0074065D01*
X0165932Y0073266D02*
X0171828Y0073266D01*
X0171828Y0072468D02*
X0165932Y0072468D01*
X0166722Y0071669D02*
X0171828Y0071669D01*
X0171828Y0070870D02*
X0167383Y0070870D01*
X0167714Y0070072D02*
X0171828Y0070072D01*
X0171828Y0069273D02*
X0168032Y0069273D01*
X0168032Y0068475D02*
X0171828Y0068475D01*
X0171828Y0067676D02*
X0168032Y0067676D01*
X0167835Y0066878D02*
X0171828Y0066878D01*
X0171828Y0066079D02*
X0167504Y0066079D01*
X0167014Y0065281D02*
X0171828Y0065281D01*
X0171828Y0064482D02*
X0166215Y0064482D01*
X0164722Y0063684D02*
X0171828Y0063684D01*
X0171828Y0062885D02*
X0155932Y0062885D01*
X0155932Y0062087D02*
X0171828Y0062087D01*
X0171828Y0061288D02*
X0155932Y0061288D01*
X0155932Y0060490D02*
X0171828Y0060490D01*
X0171914Y0059691D02*
X0155847Y0059691D01*
X0155932Y0059898D02*
X0155932Y0064199D01*
X0157286Y0065554D01*
X0158032Y0067354D01*
X0158032Y0069304D01*
X0157286Y0071105D01*
X0155908Y0072483D01*
X0154107Y0073229D01*
X0152158Y0073229D01*
X0150357Y0072483D01*
X0148978Y0071105D01*
X0148232Y0069304D01*
X0148232Y0067354D01*
X0148978Y0065554D01*
X0150332Y0064199D01*
X0150332Y0063255D01*
X0134701Y0063255D01*
X0133672Y0062829D01*
X0132885Y0062041D01*
X0128948Y0058104D01*
X0128521Y0057075D01*
X0128521Y0048087D01*
X0128948Y0047058D01*
X0137609Y0038396D01*
X0138638Y0037970D01*
X0142143Y0037970D01*
X0142143Y0036804D01*
X0140200Y0034861D01*
X0140200Y0030931D01*
X0142979Y0028153D01*
X0146908Y0028153D01*
X0149687Y0030931D01*
X0149687Y0034861D01*
X0147743Y0036804D01*
X0147743Y0041327D01*
X0147317Y0042356D01*
X0146529Y0043144D01*
X0145500Y0043570D01*
X0140355Y0043570D01*
X0134121Y0049804D01*
X0134121Y0055358D01*
X0136418Y0057655D01*
X0153689Y0057655D01*
X0154718Y0058081D01*
X0155506Y0058869D01*
X0155932Y0059898D01*
X0155516Y0058893D02*
X0172245Y0058893D01*
X0173029Y0058094D02*
X0154731Y0058094D01*
X0154554Y0057296D02*
X0161710Y0057296D01*
X0160119Y0056497D02*
X0156146Y0056497D01*
X0155908Y0056735D02*
X0154107Y0057481D01*
X0152158Y0057481D01*
X0150357Y0056735D01*
X0148978Y0055357D01*
X0148232Y0053556D01*
X0148232Y0051606D01*
X0148978Y0049805D01*
X0150332Y0048451D01*
X0150332Y0042024D01*
X0150759Y0040995D01*
X0151546Y0040207D01*
X0152143Y0039610D01*
X0152143Y0036804D01*
X0150200Y0034861D01*
X0150200Y0030931D01*
X0152143Y0028988D01*
X0152143Y0028189D01*
X0151776Y0027822D01*
X0128544Y0027822D01*
X0126884Y0029482D01*
X0126096Y0030270D01*
X0125067Y0030696D01*
X0116380Y0030696D01*
X0116380Y0031936D01*
X0115677Y0032639D01*
X0107596Y0032639D01*
X0106893Y0031936D01*
X0106893Y0030696D01*
X0084883Y0030696D01*
X0084883Y0031936D01*
X0084181Y0032639D01*
X0076100Y0032639D01*
X0075397Y0031936D01*
X0075397Y0030696D01*
X0053387Y0030696D01*
X0053387Y0031936D01*
X0052684Y0032639D01*
X0044604Y0032639D01*
X0043901Y0031936D01*
X0043901Y0023856D01*
X0044604Y0023153D01*
X0052684Y0023153D01*
X0053387Y0023856D01*
X0053387Y0025096D01*
X0075397Y0025096D01*
X0075397Y0023856D01*
X0076100Y0023153D01*
X0084181Y0023153D01*
X0084883Y0023856D01*
X0084883Y0025096D01*
X0106893Y0025096D01*
X0106893Y0023856D01*
X0107596Y0023153D01*
X0115677Y0023153D01*
X0116380Y0023856D01*
X0116380Y0025096D01*
X0123350Y0025096D01*
X0125798Y0022648D01*
X0126827Y0022222D01*
X0153493Y0022222D01*
X0154522Y0022648D01*
X0155310Y0023436D01*
X0157317Y0025443D01*
X0157743Y0026473D01*
X0157743Y0028988D01*
X0159687Y0030931D01*
X0159687Y0034861D01*
X0157743Y0036804D01*
X0157743Y0041327D01*
X0157317Y0042356D01*
X0155932Y0043741D01*
X0155932Y0048451D01*
X0157286Y0049805D01*
X0158032Y0051606D01*
X0158032Y0053556D01*
X0157286Y0055357D01*
X0155908Y0056735D01*
X0156944Y0055699D02*
X0159320Y0055699D01*
X0158789Y0054900D02*
X0157475Y0054900D01*
X0157806Y0054102D02*
X0158458Y0054102D01*
X0158232Y0053303D02*
X0158032Y0053303D01*
X0158032Y0052505D02*
X0158232Y0052505D01*
X0158232Y0051706D02*
X0158032Y0051706D01*
X0157743Y0050908D02*
X0158522Y0050908D01*
X0158852Y0050109D02*
X0157412Y0050109D01*
X0156791Y0049311D02*
X0159473Y0049311D01*
X0160272Y0048512D02*
X0155993Y0048512D01*
X0155932Y0047714D02*
X0162079Y0047714D01*
X0164186Y0047714D02*
X0197050Y0047714D01*
X0197050Y0048512D02*
X0165993Y0048512D01*
X0166791Y0049311D02*
X0197050Y0049311D01*
X0197050Y0050109D02*
X0179914Y0050109D01*
X0180852Y0050908D02*
X0197050Y0050908D01*
X0197050Y0051706D02*
X0181650Y0051706D01*
X0182449Y0052505D02*
X0197050Y0052505D01*
X0197050Y0053303D02*
X0183247Y0053303D01*
X0184046Y0054102D02*
X0197050Y0054102D01*
X0197050Y0054900D02*
X0184844Y0054900D01*
X0185643Y0055699D02*
X0197050Y0055699D01*
X0197050Y0056497D02*
X0186441Y0056497D01*
X0187240Y0057296D02*
X0197050Y0057296D01*
X0197050Y0058094D02*
X0188038Y0058094D01*
X0188823Y0058893D02*
X0197050Y0058893D01*
X0197050Y0059691D02*
X0189154Y0059691D01*
X0189239Y0060490D02*
X0197050Y0060490D01*
X0197050Y0061288D02*
X0189239Y0061288D01*
X0189239Y0062087D02*
X0197050Y0062087D01*
X0197050Y0062885D02*
X0189239Y0062885D01*
X0189239Y0063684D02*
X0197050Y0063684D01*
X0197050Y0064482D02*
X0189239Y0064482D01*
X0189239Y0065281D02*
X0197050Y0065281D01*
X0197050Y0066079D02*
X0189239Y0066079D01*
X0189239Y0066878D02*
X0197050Y0066878D01*
X0197050Y0067676D02*
X0189239Y0067676D01*
X0189239Y0068475D02*
X0197050Y0068475D01*
X0197050Y0069273D02*
X0189239Y0069273D01*
X0189239Y0070072D02*
X0197050Y0070072D01*
X0197050Y0070870D02*
X0189239Y0070870D01*
X0189239Y0071669D02*
X0197050Y0071669D01*
X0197050Y0072468D02*
X0189239Y0072468D01*
X0189239Y0073266D02*
X0197050Y0073266D01*
X0197050Y0074065D02*
X0189239Y0074065D01*
X0189239Y0074863D02*
X0197050Y0074863D01*
X0197050Y0075662D02*
X0189239Y0075662D01*
X0189239Y0076460D02*
X0197050Y0076460D01*
X0197050Y0077259D02*
X0189239Y0077259D01*
X0189239Y0078057D02*
X0197050Y0078057D01*
X0197050Y0078856D02*
X0189239Y0078856D01*
X0189239Y0079654D02*
X0197050Y0079654D01*
X0197050Y0080453D02*
X0189239Y0080453D01*
X0189239Y0081251D02*
X0197050Y0081251D01*
X0197050Y0082050D02*
X0189239Y0082050D01*
X0189239Y0082848D02*
X0197050Y0082848D01*
X0197050Y0083647D02*
X0189239Y0083647D01*
X0189239Y0084445D02*
X0197050Y0084445D01*
X0197050Y0085244D02*
X0188987Y0085244D01*
X0188434Y0086042D02*
X0197050Y0086042D01*
X0197050Y0086841D02*
X0187636Y0086841D01*
X0186837Y0087639D02*
X0197050Y0087639D01*
X0197050Y0088438D02*
X0186039Y0088438D01*
X0185240Y0089236D02*
X0197050Y0089236D01*
X0197050Y0090035D02*
X0184442Y0090035D01*
X0183643Y0090833D02*
X0197050Y0090833D01*
X0197050Y0091632D02*
X0182845Y0091632D01*
X0182046Y0092430D02*
X0197050Y0092430D01*
X0197050Y0093229D02*
X0181248Y0093229D01*
X0180449Y0094027D02*
X0197050Y0094027D01*
X0197050Y0094826D02*
X0179650Y0094826D01*
X0178852Y0095624D02*
X0197050Y0095624D01*
X0197050Y0096423D02*
X0178053Y0096423D01*
X0177255Y0097221D02*
X0197050Y0097221D01*
X0197050Y0098020D02*
X0176456Y0098020D01*
X0175658Y0098818D02*
X0197050Y0098818D01*
X0197050Y0099617D02*
X0174859Y0099617D01*
X0174061Y0100415D02*
X0197050Y0100415D01*
X0197050Y0101214D02*
X0173262Y0101214D01*
X0172464Y0102012D02*
X0197050Y0102012D01*
X0197050Y0102811D02*
X0171665Y0102811D01*
X0170867Y0103609D02*
X0185067Y0103609D01*
X0185245Y0103552D02*
X0184482Y0103800D01*
X0183766Y0104164D01*
X0183117Y0104636D01*
X0182549Y0105204D01*
X0182077Y0105853D01*
X0181713Y0106568D01*
X0181465Y0107332D01*
X0181339Y0108125D01*
X0181339Y0108126D01*
X0186039Y0108126D01*
X0186039Y0108926D01*
X0181339Y0108926D01*
X0181339Y0108927D01*
X0181465Y0109720D01*
X0181713Y0110484D01*
X0182077Y0111199D01*
X0182549Y0111848D01*
X0183117Y0112416D01*
X0183766Y0112888D01*
X0184482Y0113252D01*
X0185245Y0113500D01*
X0186038Y0113626D01*
X0186039Y0113626D01*
X0186039Y0108926D01*
X0186839Y0108926D01*
X0186839Y0113626D01*
X0186841Y0113626D01*
X0187634Y0113500D01*
X0188397Y0113252D01*
X0189112Y0112888D01*
X0189762Y0112416D01*
X0190329Y0111848D01*
X0190801Y0111199D01*
X0191166Y0110484D01*
X0191414Y0109720D01*
X0191539Y0108927D01*
X0191539Y0108926D01*
X0186839Y0108926D01*
X0186839Y0108126D01*
X0186839Y0103426D01*
X0186841Y0103426D01*
X0187634Y0103552D01*
X0188397Y0103800D01*
X0189112Y0104164D01*
X0189762Y0104636D01*
X0190329Y0105204D01*
X0190801Y0105853D01*
X0191166Y0106568D01*
X0191414Y0107332D01*
X0191539Y0108125D01*
X0191539Y0108126D01*
X0186839Y0108126D01*
X0186039Y0108126D01*
X0186039Y0103426D01*
X0186038Y0103426D01*
X0185245Y0103552D01*
X0186039Y0103609D02*
X0186839Y0103609D01*
X0186839Y0104408D02*
X0186039Y0104408D01*
X0186039Y0105206D02*
X0186839Y0105206D01*
X0186839Y0106005D02*
X0186039Y0106005D01*
X0186039Y0106803D02*
X0186839Y0106803D01*
X0186839Y0107602D02*
X0186039Y0107602D01*
X0186039Y0108401D02*
X0166076Y0108401D01*
X0165617Y0109199D02*
X0181382Y0109199D01*
X0181555Y0109998D02*
X0165617Y0109998D01*
X0165617Y0110796D02*
X0181872Y0110796D01*
X0182365Y0111595D02*
X0165617Y0111595D01*
X0165617Y0112393D02*
X0183094Y0112393D01*
X0184362Y0113192D02*
X0165617Y0113192D01*
X0165617Y0113990D02*
X0184586Y0113990D01*
X0185465Y0113626D02*
X0183664Y0114372D01*
X0182285Y0115750D01*
X0181539Y0117551D01*
X0181539Y0119501D01*
X0182285Y0121302D01*
X0183664Y0122680D01*
X0185465Y0123426D01*
X0187414Y0123426D01*
X0189215Y0122680D01*
X0190593Y0121302D01*
X0191339Y0119501D01*
X0191339Y0117551D01*
X0190593Y0115750D01*
X0189215Y0114372D01*
X0187414Y0113626D01*
X0185465Y0113626D01*
X0186039Y0113192D02*
X0186839Y0113192D01*
X0186839Y0112393D02*
X0186039Y0112393D01*
X0186039Y0111595D02*
X0186839Y0111595D01*
X0186839Y0110796D02*
X0186039Y0110796D01*
X0186039Y0109998D02*
X0186839Y0109998D01*
X0186839Y0109199D02*
X0186039Y0109199D01*
X0186839Y0108401D02*
X0197050Y0108401D01*
X0197050Y0109199D02*
X0191496Y0109199D01*
X0191324Y0109998D02*
X0197050Y0109998D01*
X0197050Y0110796D02*
X0191007Y0110796D01*
X0190514Y0111595D02*
X0197050Y0111595D01*
X0197050Y0112393D02*
X0189785Y0112393D01*
X0188516Y0113192D02*
X0197050Y0113192D01*
X0197050Y0113990D02*
X0188293Y0113990D01*
X0189632Y0114789D02*
X0197050Y0114789D01*
X0197050Y0115587D02*
X0190430Y0115587D01*
X0190857Y0116386D02*
X0197050Y0116386D01*
X0197050Y0117184D02*
X0191187Y0117184D01*
X0191339Y0117983D02*
X0197050Y0117983D01*
X0197050Y0118781D02*
X0191339Y0118781D01*
X0191307Y0119580D02*
X0197050Y0119580D01*
X0197050Y0120378D02*
X0190976Y0120378D01*
X0190645Y0121177D02*
X0197050Y0121177D01*
X0197050Y0121975D02*
X0189920Y0121975D01*
X0188989Y0122774D02*
X0197050Y0122774D01*
X0197050Y0123572D02*
X0165617Y0123572D01*
X0165617Y0122774D02*
X0183890Y0122774D01*
X0182959Y0121975D02*
X0165617Y0121975D01*
X0165617Y0121177D02*
X0182234Y0121177D01*
X0181903Y0120378D02*
X0165617Y0120378D01*
X0165617Y0119580D02*
X0181572Y0119580D01*
X0181539Y0118781D02*
X0165617Y0118781D01*
X0165617Y0117983D02*
X0181539Y0117983D01*
X0181691Y0117184D02*
X0165617Y0117184D01*
X0165617Y0116386D02*
X0182022Y0116386D01*
X0182449Y0115587D02*
X0165617Y0115587D01*
X0165617Y0114789D02*
X0183247Y0114789D01*
X0181422Y0107602D02*
X0166874Y0107602D01*
X0167673Y0106803D02*
X0181637Y0106803D01*
X0182000Y0106005D02*
X0168471Y0106005D01*
X0169270Y0105206D02*
X0182547Y0105206D01*
X0183431Y0104408D02*
X0170068Y0104408D01*
X0166141Y0100415D02*
X0158313Y0100415D01*
X0157743Y0101214D02*
X0165343Y0101214D01*
X0164544Y0102012D02*
X0157743Y0102012D01*
X0157743Y0102811D02*
X0163746Y0102811D01*
X0162947Y0103609D02*
X0157743Y0103609D01*
X0157743Y0104408D02*
X0162149Y0104408D01*
X0161350Y0105206D02*
X0157743Y0105206D01*
X0157743Y0106005D02*
X0160552Y0106005D01*
X0160158Y0106803D02*
X0157743Y0106803D01*
X0157743Y0107602D02*
X0160017Y0107602D01*
X0160017Y0108401D02*
X0157743Y0108401D01*
X0157743Y0109199D02*
X0160017Y0109199D01*
X0160017Y0109998D02*
X0157743Y0109998D01*
X0157743Y0110796D02*
X0160017Y0110796D01*
X0160017Y0111595D02*
X0157743Y0111595D01*
X0157743Y0112393D02*
X0160017Y0112393D01*
X0160017Y0113192D02*
X0157743Y0113192D01*
X0157743Y0113990D02*
X0160017Y0113990D01*
X0160017Y0114789D02*
X0157743Y0114789D01*
X0157743Y0115587D02*
X0160017Y0115587D01*
X0160017Y0116386D02*
X0157743Y0116386D01*
X0157743Y0117184D02*
X0160017Y0117184D01*
X0160017Y0117983D02*
X0157743Y0117983D01*
X0157743Y0118781D02*
X0160017Y0118781D01*
X0160017Y0119580D02*
X0157743Y0119580D01*
X0157743Y0120378D02*
X0160017Y0120378D01*
X0160017Y0121177D02*
X0157743Y0121177D01*
X0157743Y0121975D02*
X0160017Y0121975D01*
X0160017Y0122774D02*
X0157743Y0122774D01*
X0157743Y0123572D02*
X0160017Y0123572D01*
X0160017Y0124371D02*
X0157743Y0124371D01*
X0157743Y0125169D02*
X0160017Y0125169D01*
X0160017Y0125968D02*
X0157743Y0125968D01*
X0157743Y0126766D02*
X0160017Y0126766D01*
X0160017Y0127565D02*
X0157743Y0127565D01*
X0157743Y0128363D02*
X0160017Y0128363D01*
X0160017Y0129162D02*
X0157743Y0129162D01*
X0157743Y0129960D02*
X0160017Y0129960D01*
X0160017Y0130759D02*
X0157743Y0130759D01*
X0157743Y0131557D02*
X0160017Y0131557D01*
X0160017Y0132356D02*
X0157743Y0132356D01*
X0157743Y0133154D02*
X0160017Y0133154D01*
X0160017Y0133953D02*
X0157743Y0133953D01*
X0157743Y0134751D02*
X0160017Y0134751D01*
X0160017Y0135550D02*
X0157743Y0135550D01*
X0157743Y0136348D02*
X0160017Y0136348D01*
X0160017Y0137147D02*
X0157743Y0137147D01*
X0157743Y0137945D02*
X0160017Y0137945D01*
X0160017Y0138744D02*
X0157743Y0138744D01*
X0157743Y0139542D02*
X0160017Y0139542D01*
X0160017Y0140341D02*
X0157743Y0140341D01*
X0157743Y0141139D02*
X0160017Y0141139D01*
X0160017Y0141938D02*
X0157743Y0141938D01*
X0157743Y0142737D02*
X0160017Y0142737D01*
X0160017Y0143535D02*
X0157743Y0143535D01*
X0157743Y0144334D02*
X0160017Y0144334D01*
X0160017Y0145132D02*
X0157743Y0145132D01*
X0157743Y0145931D02*
X0160017Y0145931D01*
X0160017Y0146729D02*
X0157743Y0146729D01*
X0157743Y0147528D02*
X0160017Y0147528D01*
X0160017Y0148326D02*
X0157743Y0148326D01*
X0157743Y0149125D02*
X0160017Y0149125D01*
X0160017Y0149923D02*
X0157743Y0149923D01*
X0157743Y0150722D02*
X0160017Y0150722D01*
X0160017Y0151520D02*
X0157743Y0151520D01*
X0157743Y0152319D02*
X0160017Y0152319D01*
X0160017Y0153117D02*
X0157743Y0153117D01*
X0157743Y0153916D02*
X0160017Y0153916D01*
X0160017Y0154714D02*
X0157743Y0154714D01*
X0157743Y0155513D02*
X0160017Y0155513D01*
X0160017Y0156311D02*
X0157743Y0156311D01*
X0157743Y0157110D02*
X0160017Y0157110D01*
X0160017Y0157908D02*
X0157743Y0157908D01*
X0157743Y0158707D02*
X0160017Y0158707D01*
X0160017Y0159505D02*
X0157743Y0159505D01*
X0157743Y0160304D02*
X0160017Y0160304D01*
X0160017Y0161102D02*
X0157743Y0161102D01*
X0157743Y0161901D02*
X0160017Y0161901D01*
X0160017Y0162699D02*
X0157743Y0162699D01*
X0157743Y0163498D02*
X0160017Y0163498D01*
X0160017Y0164296D02*
X0157743Y0164296D01*
X0157743Y0165095D02*
X0160017Y0165095D01*
X0160017Y0165893D02*
X0157743Y0165893D01*
X0157743Y0166692D02*
X0160017Y0166692D01*
X0160017Y0167490D02*
X0157743Y0167490D01*
X0157743Y0168289D02*
X0160017Y0168289D01*
X0160017Y0169087D02*
X0157743Y0169087D01*
X0157743Y0169886D02*
X0160017Y0169886D01*
X0160017Y0170684D02*
X0157743Y0170684D01*
X0157743Y0171483D02*
X0160017Y0171483D01*
X0160017Y0172281D02*
X0157743Y0172281D01*
X0157743Y0173080D02*
X0160017Y0173080D01*
X0160017Y0173878D02*
X0157743Y0173878D01*
X0157743Y0174677D02*
X0160017Y0174677D01*
X0160017Y0175475D02*
X0157743Y0175475D01*
X0157743Y0176274D02*
X0160017Y0176274D01*
X0160017Y0177072D02*
X0157743Y0177072D01*
X0157743Y0177871D02*
X0160017Y0177871D01*
X0160017Y0178670D02*
X0157743Y0178670D01*
X0157743Y0179468D02*
X0160017Y0179468D01*
X0160017Y0180267D02*
X0157743Y0180267D01*
X0157743Y0181065D02*
X0160017Y0181065D01*
X0160017Y0181864D02*
X0157743Y0181864D01*
X0157743Y0182662D02*
X0160017Y0182662D01*
X0160017Y0183461D02*
X0157743Y0183461D01*
X0157743Y0184259D02*
X0160017Y0184259D01*
X0160017Y0185058D02*
X0157743Y0185058D01*
X0157743Y0185856D02*
X0160017Y0185856D01*
X0160017Y0186655D02*
X0157743Y0186655D01*
X0157743Y0187453D02*
X0160017Y0187453D01*
X0160017Y0188252D02*
X0157743Y0188252D01*
X0157743Y0189050D02*
X0160017Y0189050D01*
X0160017Y0189849D02*
X0157743Y0189849D01*
X0157743Y0190647D02*
X0160017Y0190647D01*
X0160017Y0191446D02*
X0157743Y0191446D01*
X0157743Y0192244D02*
X0160017Y0192244D01*
X0160017Y0193043D02*
X0157743Y0193043D01*
X0157743Y0193841D02*
X0160017Y0193841D01*
X0160017Y0194640D02*
X0157743Y0194640D01*
X0157743Y0195438D02*
X0160017Y0195438D01*
X0160017Y0196237D02*
X0157743Y0196237D01*
X0157743Y0197035D02*
X0160017Y0197035D01*
X0160017Y0197834D02*
X0157743Y0197834D01*
X0157743Y0198632D02*
X0160017Y0198632D01*
X0160017Y0199431D02*
X0157743Y0199431D01*
X0157743Y0200229D02*
X0160017Y0200229D01*
X0160017Y0201028D02*
X0157743Y0201028D01*
X0157743Y0201826D02*
X0160017Y0201826D01*
X0160017Y0202625D02*
X0157743Y0202625D01*
X0157743Y0203423D02*
X0160017Y0203423D01*
X0160017Y0204222D02*
X0157743Y0204222D01*
X0157743Y0205020D02*
X0160017Y0205020D01*
X0160017Y0205819D02*
X0157743Y0205819D01*
X0157743Y0206617D02*
X0160017Y0206617D01*
X0160017Y0207416D02*
X0157743Y0207416D01*
X0157743Y0208214D02*
X0160017Y0208214D01*
X0160017Y0209013D02*
X0157743Y0209013D01*
X0157743Y0209811D02*
X0160017Y0209811D01*
X0152143Y0214603D02*
X0106943Y0214603D01*
X0106943Y0215401D02*
X0152143Y0215401D01*
X0152143Y0216200D02*
X0106943Y0216200D01*
X0106943Y0216998D02*
X0152143Y0216998D01*
X0152143Y0217797D02*
X0106943Y0217797D01*
X0106943Y0218595D02*
X0152143Y0218595D01*
X0152143Y0219394D02*
X0106943Y0219394D01*
X0106943Y0220192D02*
X0152143Y0220192D01*
X0152143Y0220991D02*
X0106943Y0220991D01*
X0106943Y0221789D02*
X0152143Y0221789D01*
X0152143Y0222588D02*
X0106943Y0222588D01*
X0106943Y0223386D02*
X0152143Y0223386D01*
X0152143Y0224185D02*
X0125389Y0224185D01*
X0124852Y0223962D02*
X0126617Y0224693D01*
X0127967Y0226043D01*
X0128698Y0227807D01*
X0128698Y0229717D01*
X0127967Y0231481D01*
X0126617Y0232831D01*
X0124852Y0233562D01*
X0115743Y0233562D01*
X0113979Y0232831D01*
X0112628Y0231481D01*
X0111898Y0229717D01*
X0111898Y0227807D01*
X0112628Y0226043D01*
X0113979Y0224693D01*
X0115743Y0223962D01*
X0124852Y0223962D01*
X0126907Y0224983D02*
X0152143Y0224983D01*
X0152143Y0225782D02*
X0127705Y0225782D01*
X0128189Y0226580D02*
X0152143Y0226580D01*
X0152143Y0227379D02*
X0128520Y0227379D01*
X0128698Y0228177D02*
X0152143Y0228177D01*
X0152143Y0228976D02*
X0128698Y0228976D01*
X0128674Y0229774D02*
X0152143Y0229774D01*
X0152143Y0230573D02*
X0128343Y0230573D01*
X0128012Y0231371D02*
X0152143Y0231371D01*
X0152143Y0232170D02*
X0127278Y0232170D01*
X0126286Y0232968D02*
X0152143Y0232968D01*
X0152143Y0233767D02*
X0106943Y0233767D01*
X0106943Y0234565D02*
X0152143Y0234565D01*
X0152143Y0235364D02*
X0106943Y0235364D01*
X0106943Y0236162D02*
X0152143Y0236162D01*
X0152143Y0236961D02*
X0106943Y0236961D01*
X0106943Y0237759D02*
X0152143Y0237759D01*
X0152143Y0238558D02*
X0106943Y0238558D01*
X0106943Y0239356D02*
X0152143Y0239356D01*
X0152143Y0240155D02*
X0106943Y0240155D01*
X0106943Y0240953D02*
X0152143Y0240953D01*
X0152143Y0241752D02*
X0106943Y0241752D01*
X0106943Y0242550D02*
X0152143Y0242550D01*
X0152143Y0243349D02*
X0106943Y0243349D01*
X0106943Y0244147D02*
X0152143Y0244147D01*
X0152143Y0244946D02*
X0106943Y0244946D01*
X0106943Y0245744D02*
X0152143Y0245744D01*
X0152143Y0246543D02*
X0106943Y0246543D01*
X0106943Y0247341D02*
X0152143Y0247341D01*
X0152143Y0248140D02*
X0106943Y0248140D01*
X0106943Y0248939D02*
X0152143Y0248939D01*
X0152143Y0249737D02*
X0106943Y0249737D01*
X0106943Y0250536D02*
X0152143Y0250536D01*
X0152143Y0251334D02*
X0106943Y0251334D01*
X0106943Y0252133D02*
X0152143Y0252133D01*
X0152143Y0252931D02*
X0106943Y0252931D01*
X0106943Y0253730D02*
X0152143Y0253730D01*
X0152143Y0254528D02*
X0106943Y0254528D01*
X0106943Y0255327D02*
X0152143Y0255327D01*
X0152143Y0256125D02*
X0106943Y0256125D01*
X0106943Y0256924D02*
X0152143Y0256924D01*
X0152143Y0257722D02*
X0106943Y0257722D01*
X0106943Y0258521D02*
X0152143Y0258521D01*
X0152143Y0259319D02*
X0106943Y0259319D01*
X0106943Y0260118D02*
X0152143Y0260118D01*
X0152143Y0260916D02*
X0106943Y0260916D01*
X0106943Y0261715D02*
X0152143Y0261715D01*
X0152143Y0262513D02*
X0106943Y0262513D01*
X0106943Y0263312D02*
X0152143Y0263312D01*
X0152143Y0264110D02*
X0106943Y0264110D01*
X0106943Y0264909D02*
X0152143Y0264909D01*
X0152143Y0265707D02*
X0106943Y0265707D01*
X0106943Y0266506D02*
X0152143Y0266506D01*
X0152143Y0267304D02*
X0106943Y0267304D01*
X0106943Y0268103D02*
X0123080Y0268103D01*
X0123391Y0268054D02*
X0127194Y0268054D01*
X0127194Y0272863D01*
X0127575Y0272863D01*
X0127575Y0273244D01*
X0135984Y0273244D01*
X0135984Y0273447D01*
X0135861Y0274224D01*
X0135618Y0274973D01*
X0135261Y0275674D01*
X0134798Y0276311D01*
X0134242Y0276867D01*
X0134072Y0276991D01*
X0134242Y0277114D01*
X0134798Y0277670D01*
X0135261Y0278307D01*
X0135618Y0279008D01*
X0135861Y0279757D01*
X0135984Y0280534D01*
X0135984Y0280737D01*
X0127575Y0280737D01*
X0127575Y0281118D01*
X0135984Y0281118D01*
X0135984Y0281321D01*
X0135861Y0282098D01*
X0135618Y0282847D01*
X0135261Y0283548D01*
X0134798Y0284185D01*
X0134242Y0284741D01*
X0133605Y0285204D01*
X0132904Y0285561D01*
X0132155Y0285804D01*
X0131378Y0285928D01*
X0127575Y0285928D01*
X0127575Y0281118D01*
X0127194Y0281118D01*
X0127194Y0285928D01*
X0123391Y0285928D01*
X0122613Y0285804D01*
X0121865Y0285561D01*
X0121164Y0285204D01*
X0120527Y0284741D01*
X0119970Y0284185D01*
X0119508Y0283548D01*
X0119151Y0282847D01*
X0118907Y0282098D01*
X0118784Y0281321D01*
X0118784Y0281118D01*
X0127194Y0281118D01*
X0127194Y0280737D01*
X0127575Y0280737D01*
X0127575Y0273244D01*
X0127194Y0273244D01*
X0127194Y0278054D01*
X0127194Y0280737D01*
X0118784Y0280737D01*
X0118784Y0280534D01*
X0118907Y0279757D01*
X0119151Y0279008D01*
X0119508Y0278307D01*
X0119970Y0277670D01*
X0120527Y0277114D01*
X0120697Y0276991D01*
X0120527Y0276867D01*
X0119970Y0276311D01*
X0119508Y0275674D01*
X0119151Y0274973D01*
X0118907Y0274224D01*
X0118784Y0273447D01*
X0118784Y0273244D01*
X0127194Y0273244D01*
X0127194Y0272863D01*
X0118784Y0272863D01*
X0118784Y0272660D01*
X0118907Y0271883D01*
X0119151Y0271134D01*
X0119508Y0270433D01*
X0119970Y0269796D01*
X0120527Y0269240D01*
X0121164Y0268777D01*
X0121865Y0268420D01*
X0122613Y0268177D01*
X0123391Y0268054D01*
X0120993Y0268901D02*
X0106943Y0268901D01*
X0106943Y0269700D02*
X0120067Y0269700D01*
X0119475Y0270498D02*
X0106943Y0270498D01*
X0106943Y0271297D02*
X0119098Y0271297D01*
X0118874Y0272095D02*
X0106943Y0272095D01*
X0106943Y0272894D02*
X0127194Y0272894D01*
X0127575Y0272894D02*
X0152143Y0272894D01*
X0152143Y0273692D02*
X0135945Y0273692D01*
X0135775Y0274491D02*
X0152143Y0274491D01*
X0152143Y0275289D02*
X0135457Y0275289D01*
X0134960Y0276088D02*
X0152143Y0276088D01*
X0152143Y0276886D02*
X0134215Y0276886D01*
X0134809Y0277685D02*
X0152143Y0277685D01*
X0152143Y0278483D02*
X0135351Y0278483D01*
X0135707Y0279282D02*
X0152143Y0279282D01*
X0152143Y0280080D02*
X0135912Y0280080D01*
X0135928Y0281677D02*
X0152143Y0281677D01*
X0152143Y0280879D02*
X0127575Y0280879D01*
X0127194Y0280879D02*
X0106943Y0280879D01*
X0106943Y0281677D02*
X0118841Y0281677D01*
X0119030Y0282476D02*
X0106943Y0282476D01*
X0106943Y0283274D02*
X0119368Y0283274D01*
X0119889Y0284073D02*
X0106943Y0284073D01*
X0106943Y0284872D02*
X0120706Y0284872D01*
X0122200Y0285670D02*
X0106943Y0285670D01*
X0106943Y0286469D02*
X0152143Y0286469D01*
X0152143Y0287267D02*
X0106943Y0287267D01*
X0106943Y0288066D02*
X0152143Y0288066D01*
X0152143Y0288864D02*
X0106943Y0288864D01*
X0106943Y0289663D02*
X0152143Y0289663D01*
X0152143Y0290461D02*
X0106943Y0290461D01*
X0106943Y0291260D02*
X0152143Y0291260D01*
X0152143Y0292058D02*
X0106943Y0292058D01*
X0106943Y0292857D02*
X0152143Y0292857D01*
X0152143Y0293655D02*
X0106943Y0293655D01*
X0106943Y0294454D02*
X0152143Y0294454D01*
X0152143Y0295252D02*
X0106943Y0295252D01*
X0106943Y0296051D02*
X0152143Y0296051D01*
X0152143Y0296849D02*
X0106943Y0296849D01*
X0106943Y0297648D02*
X0152143Y0297648D01*
X0152143Y0298446D02*
X0106943Y0298446D01*
X0106943Y0299245D02*
X0152143Y0299245D01*
X0152143Y0300043D02*
X0106943Y0300043D01*
X0106943Y0300842D02*
X0152143Y0300842D01*
X0152143Y0301640D02*
X0106943Y0301640D01*
X0106943Y0302439D02*
X0152143Y0302439D01*
X0152143Y0303237D02*
X0106943Y0303237D01*
X0106943Y0304036D02*
X0152143Y0304036D01*
X0152143Y0304834D02*
X0106943Y0304834D01*
X0106943Y0305633D02*
X0152143Y0305633D01*
X0152143Y0306431D02*
X0106943Y0306431D01*
X0106943Y0307230D02*
X0152143Y0307230D01*
X0152143Y0308028D02*
X0106943Y0308028D01*
X0106943Y0308827D02*
X0152143Y0308827D01*
X0152143Y0309625D02*
X0106943Y0309625D01*
X0106943Y0310424D02*
X0152143Y0310424D01*
X0152143Y0311222D02*
X0126412Y0311222D01*
X0126617Y0311307D02*
X0127967Y0312657D01*
X0128698Y0314422D01*
X0128698Y0316331D01*
X0127967Y0318095D01*
X0126617Y0319446D01*
X0124852Y0320176D01*
X0115743Y0320176D01*
X0113979Y0319446D01*
X0112628Y0318095D01*
X0111898Y0316331D01*
X0111898Y0314422D01*
X0112628Y0312657D01*
X0113979Y0311307D01*
X0115743Y0310576D01*
X0124852Y0310576D01*
X0126617Y0311307D01*
X0127330Y0312021D02*
X0152143Y0312021D01*
X0152143Y0312819D02*
X0128034Y0312819D01*
X0128365Y0313618D02*
X0152143Y0313618D01*
X0152143Y0314416D02*
X0128695Y0314416D01*
X0128698Y0315215D02*
X0152143Y0315215D01*
X0152143Y0316013D02*
X0128698Y0316013D01*
X0128498Y0316812D02*
X0152143Y0316812D01*
X0152143Y0317610D02*
X0128168Y0317610D01*
X0127653Y0318409D02*
X0152143Y0318409D01*
X0152143Y0319208D02*
X0126855Y0319208D01*
X0125264Y0320006D02*
X0152143Y0320006D01*
X0152143Y0320805D02*
X0106943Y0320805D01*
X0106943Y0321603D02*
X0152143Y0321603D01*
X0152143Y0322402D02*
X0106943Y0322402D01*
X0106943Y0323200D02*
X0152143Y0323200D01*
X0152143Y0323999D02*
X0106943Y0323999D01*
X0106943Y0324797D02*
X0152143Y0324797D01*
X0152143Y0325596D02*
X0106943Y0325596D01*
X0106943Y0326394D02*
X0152143Y0326394D01*
X0152143Y0327193D02*
X0106943Y0327193D01*
X0106943Y0327991D02*
X0152143Y0327991D01*
X0152143Y0328790D02*
X0106943Y0328790D01*
X0106943Y0329588D02*
X0152143Y0329588D01*
X0152143Y0330387D02*
X0106943Y0330387D01*
X0106943Y0331185D02*
X0152143Y0331185D01*
X0152143Y0331984D02*
X0106943Y0331984D01*
X0106943Y0332782D02*
X0152143Y0332782D01*
X0152143Y0333581D02*
X0106943Y0333581D01*
X0106943Y0334379D02*
X0152143Y0334379D01*
X0151851Y0335178D02*
X0106943Y0335178D01*
X0106943Y0335976D02*
X0151053Y0335976D01*
X0150254Y0336775D02*
X0106943Y0336775D01*
X0106943Y0337573D02*
X0149456Y0337573D01*
X0148657Y0338372D02*
X0106943Y0338372D01*
X0106943Y0339170D02*
X0147859Y0339170D01*
X0147060Y0339969D02*
X0106943Y0339969D01*
X0106943Y0340767D02*
X0146262Y0340767D01*
X0145463Y0341566D02*
X0106943Y0341566D01*
X0106943Y0342364D02*
X0144665Y0342364D01*
X0143866Y0343163D02*
X0107034Y0343163D01*
X0107034Y0343961D02*
X0143068Y0343961D01*
X0142269Y0344760D02*
X0107034Y0344760D01*
X0106261Y0345558D02*
X0141471Y0345558D01*
X0140672Y0346357D02*
X0078187Y0346357D01*
X0078174Y0346383D02*
X0077711Y0347019D01*
X0077155Y0347576D01*
X0076518Y0348039D01*
X0075817Y0348396D01*
X0075068Y0348639D01*
X0074291Y0348762D01*
X0070488Y0348762D01*
X0070488Y0343953D01*
X0070107Y0343953D01*
X0070107Y0343572D01*
X0070488Y0343572D01*
X0070488Y0343953D01*
X0078898Y0343953D01*
X0078898Y0344156D01*
X0078775Y0344933D01*
X0078531Y0345682D01*
X0078174Y0346383D01*
X0078571Y0345558D02*
X0103626Y0345558D01*
X0102853Y0344760D02*
X0078802Y0344760D01*
X0078898Y0343961D02*
X0102853Y0343961D01*
X0102853Y0343163D02*
X0078865Y0343163D01*
X0078898Y0343369D02*
X0078775Y0342591D01*
X0078531Y0341843D01*
X0078174Y0341142D01*
X0077711Y0340505D01*
X0077155Y0339948D01*
X0076518Y0339486D01*
X0075817Y0339129D01*
X0075068Y0338885D01*
X0074291Y0338762D01*
X0070488Y0338762D01*
X0070488Y0343572D01*
X0078898Y0343572D01*
X0078898Y0343369D01*
X0078701Y0342364D02*
X0102943Y0342364D01*
X0102943Y0341566D02*
X0078390Y0341566D01*
X0077902Y0340767D02*
X0102943Y0340767D01*
X0102943Y0339969D02*
X0077175Y0339969D01*
X0075899Y0339170D02*
X0102943Y0339170D01*
X0102943Y0338372D02*
X0075312Y0338372D01*
X0076875Y0337573D02*
X0102943Y0337573D01*
X0102943Y0336775D02*
X0077673Y0336775D01*
X0078176Y0335976D02*
X0102943Y0335976D01*
X0102943Y0335178D02*
X0078507Y0335178D01*
X0078698Y0334379D02*
X0102943Y0334379D01*
X0102943Y0333581D02*
X0078698Y0333581D01*
X0078687Y0332782D02*
X0102943Y0332782D01*
X0102943Y0331984D02*
X0078356Y0331984D01*
X0078026Y0331185D02*
X0102943Y0331185D01*
X0102943Y0330387D02*
X0077310Y0330387D01*
X0076364Y0329588D02*
X0102943Y0329588D01*
X0102943Y0328790D02*
X0002600Y0328790D01*
X0002600Y0308827D02*
X0102943Y0308827D01*
X0102943Y0309625D02*
X0076453Y0309625D01*
X0077348Y0310424D02*
X0102943Y0310424D01*
X0102943Y0311222D02*
X0078041Y0311222D01*
X0078372Y0312021D02*
X0102943Y0312021D01*
X0102943Y0312819D02*
X0078698Y0312819D01*
X0078698Y0313618D02*
X0102943Y0313618D01*
X0102943Y0314416D02*
X0078698Y0314416D01*
X0078491Y0315215D02*
X0102943Y0315215D01*
X0102943Y0316013D02*
X0078161Y0316013D01*
X0077636Y0316812D02*
X0102943Y0316812D01*
X0102943Y0317610D02*
X0076838Y0317610D01*
X0075222Y0318409D02*
X0102943Y0318409D01*
X0102943Y0319208D02*
X0075445Y0319208D01*
X0076930Y0320006D02*
X0102943Y0320006D01*
X0102943Y0320805D02*
X0077728Y0320805D01*
X0078199Y0321603D02*
X0102943Y0321603D01*
X0102943Y0326394D02*
X0078003Y0326394D01*
X0077255Y0327193D02*
X0102943Y0327193D01*
X0102943Y0327991D02*
X0076231Y0327991D01*
X0070488Y0339170D02*
X0070107Y0339170D01*
X0070107Y0339969D02*
X0070488Y0339969D01*
X0070488Y0340767D02*
X0070107Y0340767D01*
X0070107Y0341566D02*
X0070488Y0341566D01*
X0070488Y0342364D02*
X0070107Y0342364D01*
X0070107Y0343163D02*
X0070488Y0343163D01*
X0070488Y0343961D02*
X0070107Y0343961D01*
X0070107Y0344760D02*
X0070488Y0344760D01*
X0070488Y0345558D02*
X0070107Y0345558D01*
X0070107Y0346357D02*
X0070488Y0346357D01*
X0070488Y0347155D02*
X0070107Y0347155D01*
X0070107Y0347954D02*
X0070488Y0347954D01*
X0070488Y0348752D02*
X0070107Y0348752D01*
X0074353Y0348752D02*
X0138277Y0348752D01*
X0139075Y0347954D02*
X0076635Y0347954D01*
X0077575Y0347155D02*
X0139874Y0347155D01*
X0127601Y0375436D02*
X0125800Y0374690D01*
X0123851Y0374690D01*
X0122050Y0375436D01*
X0120671Y0376814D01*
X0119925Y0378615D01*
X0119925Y0387964D01*
X0120671Y0389765D01*
X0122050Y0391144D01*
X0123851Y0391890D01*
X0125800Y0391890D01*
X0127601Y0391144D01*
X0128979Y0389765D01*
X0129725Y0387964D01*
X0129725Y0378615D01*
X0128979Y0376814D01*
X0127601Y0375436D01*
X0128067Y0375902D02*
X0175681Y0375902D01*
X0175220Y0376700D02*
X0128865Y0376700D01*
X0129263Y0377499D02*
X0174759Y0377499D01*
X0174307Y0378297D02*
X0129594Y0378297D01*
X0129725Y0379096D02*
X0174093Y0379096D01*
X0173879Y0379894D02*
X0129725Y0379894D01*
X0129725Y0380693D02*
X0173665Y0380693D01*
X0173451Y0381491D02*
X0129725Y0381491D01*
X0129725Y0382290D02*
X0173428Y0382290D01*
X0173428Y0383088D02*
X0129725Y0383088D01*
X0129725Y0383887D02*
X0173428Y0383887D01*
X0173428Y0384685D02*
X0129725Y0384685D01*
X0129725Y0385484D02*
X0173557Y0385484D01*
X0173771Y0386282D02*
X0129725Y0386282D01*
X0129725Y0387081D02*
X0173985Y0387081D01*
X0174199Y0387879D02*
X0129725Y0387879D01*
X0129430Y0388678D02*
X0174526Y0388678D01*
X0174987Y0389477D02*
X0129099Y0389477D01*
X0128470Y0390275D02*
X0175448Y0390275D01*
X0175909Y0391074D02*
X0127671Y0391074D01*
X0125843Y0391872D02*
X0176621Y0391872D01*
X0177420Y0392671D02*
X0059246Y0392671D01*
X0058448Y0393469D02*
X0178218Y0393469D01*
X0176225Y0375103D02*
X0126798Y0375103D01*
X0122852Y0375103D02*
X0116798Y0375103D01*
X0117601Y0375436D02*
X0118979Y0376814D01*
X0119725Y0378615D01*
X0119725Y0387964D01*
X0118979Y0389765D01*
X0117601Y0391144D01*
X0115800Y0391890D01*
X0113851Y0391890D01*
X0112050Y0391144D01*
X0110671Y0389765D01*
X0109925Y0387964D01*
X0109925Y0378615D01*
X0110671Y0376814D01*
X0112050Y0375436D01*
X0113851Y0374690D01*
X0115800Y0374690D01*
X0117601Y0375436D01*
X0118067Y0375902D02*
X0121584Y0375902D01*
X0120785Y0376700D02*
X0118865Y0376700D01*
X0119263Y0377499D02*
X0120388Y0377499D01*
X0120057Y0378297D02*
X0119594Y0378297D01*
X0119725Y0379096D02*
X0119925Y0379096D01*
X0119925Y0379894D02*
X0119725Y0379894D01*
X0119725Y0380693D02*
X0119925Y0380693D01*
X0119925Y0381491D02*
X0119725Y0381491D01*
X0119725Y0382290D02*
X0119925Y0382290D01*
X0119925Y0383088D02*
X0119725Y0383088D01*
X0119725Y0383887D02*
X0119925Y0383887D01*
X0119925Y0384685D02*
X0119725Y0384685D01*
X0119725Y0385484D02*
X0119925Y0385484D01*
X0119925Y0386282D02*
X0119725Y0386282D01*
X0119725Y0387081D02*
X0119925Y0387081D01*
X0119925Y0387879D02*
X0119725Y0387879D01*
X0119430Y0388678D02*
X0120221Y0388678D01*
X0120552Y0389477D02*
X0119099Y0389477D01*
X0118470Y0390275D02*
X0121181Y0390275D01*
X0121979Y0391074D02*
X0117671Y0391074D01*
X0115843Y0391872D02*
X0123808Y0391872D01*
X0113808Y0391872D02*
X0105843Y0391872D01*
X0105800Y0391890D02*
X0103851Y0391890D01*
X0102050Y0391144D01*
X0100671Y0389765D01*
X0099925Y0387964D01*
X0099925Y0378615D01*
X0100671Y0376814D01*
X0102050Y0375436D01*
X0103851Y0374690D01*
X0105800Y0374690D01*
X0107601Y0375436D01*
X0108979Y0376814D01*
X0109725Y0378615D01*
X0109725Y0387964D01*
X0108979Y0389765D01*
X0107601Y0391144D01*
X0105800Y0391890D01*
X0103808Y0391872D02*
X0095843Y0391872D01*
X0097671Y0391074D02*
X0101979Y0391074D01*
X0101181Y0390275D02*
X0098470Y0390275D01*
X0099099Y0389477D02*
X0100552Y0389477D01*
X0100221Y0388678D02*
X0099430Y0388678D01*
X0099725Y0387879D02*
X0099925Y0387879D01*
X0099925Y0387081D02*
X0099725Y0387081D01*
X0099725Y0386282D02*
X0099925Y0386282D01*
X0099925Y0385484D02*
X0099725Y0385484D01*
X0099725Y0384685D02*
X0099925Y0384685D01*
X0099925Y0383887D02*
X0099725Y0383887D01*
X0099725Y0383088D02*
X0099925Y0383088D01*
X0099925Y0382290D02*
X0099725Y0382290D01*
X0099725Y0381491D02*
X0099925Y0381491D01*
X0099925Y0380693D02*
X0099725Y0380693D01*
X0099725Y0379894D02*
X0099925Y0379894D01*
X0099925Y0379096D02*
X0099725Y0379096D01*
X0099594Y0378297D02*
X0100057Y0378297D01*
X0100388Y0377499D02*
X0099263Y0377499D01*
X0098865Y0376700D02*
X0100785Y0376700D01*
X0101584Y0375902D02*
X0098067Y0375902D01*
X0097625Y0375103D02*
X0102852Y0375103D01*
X0106798Y0375103D02*
X0112852Y0375103D01*
X0111584Y0375902D02*
X0108067Y0375902D01*
X0108865Y0376700D02*
X0110785Y0376700D01*
X0110388Y0377499D02*
X0109263Y0377499D01*
X0109594Y0378297D02*
X0110057Y0378297D01*
X0109925Y0379096D02*
X0109725Y0379096D01*
X0109725Y0379894D02*
X0109925Y0379894D01*
X0109925Y0380693D02*
X0109725Y0380693D01*
X0109725Y0381491D02*
X0109925Y0381491D01*
X0109925Y0382290D02*
X0109725Y0382290D01*
X0109725Y0383088D02*
X0109925Y0383088D01*
X0109925Y0383887D02*
X0109725Y0383887D01*
X0109725Y0384685D02*
X0109925Y0384685D01*
X0109925Y0385484D02*
X0109725Y0385484D01*
X0109725Y0386282D02*
X0109925Y0386282D01*
X0109925Y0387081D02*
X0109725Y0387081D01*
X0109725Y0387879D02*
X0109925Y0387879D01*
X0110221Y0388678D02*
X0109430Y0388678D01*
X0109099Y0389477D02*
X0110552Y0389477D01*
X0111181Y0390275D02*
X0108470Y0390275D01*
X0107671Y0391074D02*
X0111979Y0391074D01*
X0097625Y0374305D02*
X0177024Y0374305D01*
X0177822Y0373506D02*
X0097625Y0373506D01*
X0097625Y0372708D02*
X0178746Y0372708D01*
X0180129Y0371909D02*
X0097625Y0371909D01*
X0097625Y0371111D02*
X0181621Y0371111D01*
X0184601Y0370312D02*
X0097625Y0370312D01*
X0092025Y0374305D02*
X0022626Y0374305D01*
X0023425Y0375103D02*
X0072397Y0375103D01*
X0072152Y0375228D02*
X0072867Y0374863D01*
X0073631Y0374615D01*
X0074424Y0374490D01*
X0074425Y0374490D01*
X0074425Y0382890D01*
X0069725Y0382890D01*
X0069725Y0379188D01*
X0069851Y0378395D01*
X0070099Y0377632D01*
X0070463Y0376917D01*
X0070935Y0376267D01*
X0071503Y0375700D01*
X0072152Y0375228D01*
X0071301Y0375902D02*
X0023969Y0375902D01*
X0024430Y0376700D02*
X0070621Y0376700D01*
X0070167Y0377499D02*
X0024891Y0377499D01*
X0025343Y0378297D02*
X0069883Y0378297D01*
X0069740Y0379096D02*
X0025557Y0379096D01*
X0025771Y0379894D02*
X0069725Y0379894D01*
X0069725Y0380693D02*
X0025985Y0380693D01*
X0026199Y0381491D02*
X0069725Y0381491D01*
X0069725Y0382290D02*
X0026222Y0382290D01*
X0026222Y0383088D02*
X0074425Y0383088D01*
X0074425Y0382890D02*
X0074425Y0383690D01*
X0074425Y0392090D01*
X0074424Y0392090D01*
X0073631Y0391964D01*
X0072867Y0391716D01*
X0072152Y0391352D01*
X0071503Y0390880D01*
X0070935Y0390312D01*
X0070463Y0389663D01*
X0070099Y0388947D01*
X0069851Y0388184D01*
X0069725Y0387391D01*
X0069725Y0383690D01*
X0074425Y0383690D01*
X0075225Y0383690D01*
X0075225Y0392090D01*
X0075227Y0392090D01*
X0076019Y0391964D01*
X0076783Y0391716D01*
X0077498Y0391352D01*
X0078148Y0390880D01*
X0078715Y0390312D01*
X0079187Y0389663D01*
X0079552Y0388947D01*
X0079800Y0388184D01*
X0079925Y0387391D01*
X0079925Y0383690D01*
X0075225Y0383690D01*
X0075225Y0382890D01*
X0079925Y0382890D01*
X0079925Y0379188D01*
X0079800Y0378395D01*
X0079552Y0377632D01*
X0079187Y0376917D01*
X0078715Y0376267D01*
X0078148Y0375700D01*
X0077498Y0375228D01*
X0076783Y0374863D01*
X0076019Y0374615D01*
X0075227Y0374490D01*
X0075225Y0374490D01*
X0075225Y0382890D01*
X0074425Y0382890D01*
X0074425Y0382290D02*
X0075225Y0382290D01*
X0075225Y0383088D02*
X0079925Y0383088D01*
X0079925Y0382290D02*
X0079925Y0382290D01*
X0079925Y0381491D02*
X0079925Y0381491D01*
X0079925Y0380693D02*
X0079925Y0380693D01*
X0079925Y0379894D02*
X0079925Y0379894D01*
X0079911Y0379096D02*
X0079925Y0379096D01*
X0079925Y0378615D02*
X0080671Y0376814D01*
X0082050Y0375436D01*
X0083851Y0374690D01*
X0085800Y0374690D01*
X0087601Y0375436D01*
X0088979Y0376814D01*
X0089725Y0378615D01*
X0089725Y0387964D01*
X0088979Y0389765D01*
X0087601Y0391144D01*
X0085800Y0391890D01*
X0083851Y0391890D01*
X0082050Y0391144D01*
X0080671Y0389765D01*
X0079925Y0387964D01*
X0079925Y0378615D01*
X0080057Y0378297D02*
X0079768Y0378297D01*
X0079484Y0377499D02*
X0080388Y0377499D01*
X0080785Y0376700D02*
X0079030Y0376700D01*
X0078350Y0375902D02*
X0081584Y0375902D01*
X0082852Y0375103D02*
X0077254Y0375103D01*
X0075225Y0375103D02*
X0074425Y0375103D01*
X0074425Y0375902D02*
X0075225Y0375902D01*
X0075225Y0376700D02*
X0074425Y0376700D01*
X0074425Y0377499D02*
X0075225Y0377499D01*
X0075225Y0378297D02*
X0074425Y0378297D01*
X0074425Y0379096D02*
X0075225Y0379096D01*
X0075225Y0379894D02*
X0074425Y0379894D01*
X0074425Y0380693D02*
X0075225Y0380693D01*
X0075225Y0381491D02*
X0074425Y0381491D01*
X0074425Y0383887D02*
X0075225Y0383887D01*
X0075225Y0384685D02*
X0074425Y0384685D01*
X0074425Y0385484D02*
X0075225Y0385484D01*
X0075225Y0386282D02*
X0074425Y0386282D01*
X0074425Y0387081D02*
X0075225Y0387081D01*
X0075225Y0387879D02*
X0074425Y0387879D01*
X0074425Y0388678D02*
X0075225Y0388678D01*
X0075225Y0389477D02*
X0074425Y0389477D01*
X0074425Y0390275D02*
X0075225Y0390275D01*
X0075225Y0391074D02*
X0074425Y0391074D01*
X0074425Y0391872D02*
X0075225Y0391872D01*
X0076303Y0391872D02*
X0083808Y0391872D01*
X0081979Y0391074D02*
X0077881Y0391074D01*
X0078742Y0390275D02*
X0081181Y0390275D01*
X0080552Y0389477D02*
X0079282Y0389477D01*
X0079639Y0388678D02*
X0080221Y0388678D01*
X0079925Y0387879D02*
X0079848Y0387879D01*
X0079925Y0387081D02*
X0079925Y0387081D01*
X0079925Y0386282D02*
X0079925Y0386282D01*
X0079925Y0385484D02*
X0079925Y0385484D01*
X0079925Y0384685D02*
X0079925Y0384685D01*
X0079925Y0383887D02*
X0079925Y0383887D01*
X0085843Y0391872D02*
X0093808Y0391872D01*
X0091979Y0391074D02*
X0087671Y0391074D01*
X0088470Y0390275D02*
X0091181Y0390275D01*
X0090552Y0389477D02*
X0089099Y0389477D01*
X0089430Y0388678D02*
X0090221Y0388678D01*
X0089925Y0387879D02*
X0089725Y0387879D01*
X0089725Y0387081D02*
X0089925Y0387081D01*
X0089925Y0386282D02*
X0089725Y0386282D01*
X0089725Y0385484D02*
X0089925Y0385484D01*
X0089925Y0384685D02*
X0089725Y0384685D01*
X0089725Y0383887D02*
X0089925Y0383887D01*
X0089925Y0383088D02*
X0089725Y0383088D01*
X0089725Y0382290D02*
X0089925Y0382290D01*
X0089925Y0381491D02*
X0089725Y0381491D01*
X0089725Y0380693D02*
X0089925Y0380693D01*
X0089925Y0379894D02*
X0089725Y0379894D01*
X0089725Y0379096D02*
X0089925Y0379096D01*
X0090057Y0378297D02*
X0089594Y0378297D01*
X0089263Y0377499D02*
X0090388Y0377499D01*
X0090785Y0376700D02*
X0088865Y0376700D01*
X0088067Y0375902D02*
X0091584Y0375902D01*
X0092025Y0375103D02*
X0086798Y0375103D01*
X0073347Y0391872D02*
X0060045Y0391872D01*
X0060443Y0391074D02*
X0071769Y0391074D01*
X0070908Y0390275D02*
X0060443Y0390275D01*
X0060443Y0389477D02*
X0070368Y0389477D01*
X0070011Y0388678D02*
X0060443Y0388678D01*
X0060443Y0387879D02*
X0069803Y0387879D01*
X0069725Y0387081D02*
X0060443Y0387081D01*
X0059809Y0386282D02*
X0069725Y0386282D01*
X0069725Y0385484D02*
X0059010Y0385484D01*
X0058212Y0384685D02*
X0069725Y0384685D01*
X0069725Y0383887D02*
X0057413Y0383887D01*
X0052473Y0383887D02*
X0035366Y0383887D01*
X0036164Y0384685D02*
X0051675Y0384685D01*
X0050876Y0385484D02*
X0036963Y0385484D01*
X0037761Y0386282D02*
X0050078Y0386282D01*
X0049443Y0387081D02*
X0038396Y0387081D01*
X0038396Y0387879D02*
X0049443Y0387879D01*
X0049443Y0388678D02*
X0038396Y0388678D01*
X0038396Y0389477D02*
X0049443Y0389477D01*
X0049443Y0390275D02*
X0038396Y0390275D01*
X0038396Y0391074D02*
X0049443Y0391074D01*
X0049842Y0391872D02*
X0037997Y0391872D01*
X0037199Y0392671D02*
X0050640Y0392671D01*
X0051439Y0393469D02*
X0036400Y0393469D01*
X0030426Y0383887D02*
X0026222Y0383887D01*
X0026222Y0384685D02*
X0029628Y0384685D01*
X0028829Y0385484D02*
X0026093Y0385484D01*
X0025879Y0386282D02*
X0028031Y0386282D01*
X0027396Y0387081D02*
X0025665Y0387081D01*
X0025451Y0387879D02*
X0027396Y0387879D01*
X0027396Y0388678D02*
X0025124Y0388678D01*
X0024663Y0389477D02*
X0027396Y0389477D01*
X0027396Y0390275D02*
X0024202Y0390275D01*
X0023741Y0391074D02*
X0027396Y0391074D01*
X0027795Y0391872D02*
X0023029Y0391872D01*
X0022231Y0392671D02*
X0028593Y0392671D01*
X0029392Y0393469D02*
X0021432Y0393469D01*
X0002600Y0298446D02*
X0102943Y0298446D01*
X0102943Y0297648D02*
X0002600Y0297648D01*
X0002600Y0296849D02*
X0102943Y0296849D01*
X0102943Y0296051D02*
X0002600Y0296051D01*
X0002600Y0295252D02*
X0102943Y0295252D01*
X0102943Y0294454D02*
X0002600Y0294454D01*
X0002600Y0293655D02*
X0102943Y0293655D01*
X0102943Y0292857D02*
X0002600Y0292857D01*
X0002600Y0292058D02*
X0102943Y0292058D01*
X0102943Y0291260D02*
X0002600Y0291260D01*
X0002600Y0290461D02*
X0102943Y0290461D01*
X0102943Y0289663D02*
X0002600Y0289663D01*
X0002600Y0288864D02*
X0102943Y0288864D01*
X0102943Y0288066D02*
X0002600Y0288066D01*
X0002600Y0287267D02*
X0102943Y0287267D01*
X0102943Y0286469D02*
X0002600Y0286469D01*
X0002600Y0210610D02*
X0009067Y0210610D01*
X0007213Y0209811D02*
X0002600Y0209811D01*
X0002600Y0209013D02*
X0005830Y0209013D01*
X0004775Y0208214D02*
X0002600Y0208214D01*
X0002600Y0207416D02*
X0003976Y0207416D01*
X0003178Y0206617D02*
X0002600Y0206617D01*
X0051444Y0206617D02*
X0065243Y0206617D01*
X0063935Y0205819D02*
X0051444Y0205819D01*
X0051444Y0205020D02*
X0063136Y0205020D01*
X0063858Y0198632D02*
X0051444Y0198632D01*
X0051444Y0197834D02*
X0063824Y0197834D01*
X0063025Y0197035D02*
X0051444Y0197035D01*
X0051444Y0196237D02*
X0062693Y0196237D01*
X0062362Y0195438D02*
X0051444Y0195438D01*
X0051444Y0194640D02*
X0062291Y0194640D01*
X0062291Y0193841D02*
X0051444Y0193841D01*
X0051444Y0193043D02*
X0062422Y0193043D01*
X0062753Y0192244D02*
X0051444Y0192244D01*
X0051444Y0191446D02*
X0063171Y0191446D01*
X0063969Y0190647D02*
X0051444Y0190647D01*
X0051444Y0189849D02*
X0065327Y0189849D01*
X0076056Y0189849D02*
X0102943Y0189849D01*
X0102943Y0190647D02*
X0077413Y0190647D01*
X0078212Y0191446D02*
X0102943Y0191446D01*
X0102943Y0192244D02*
X0078630Y0192244D01*
X0078960Y0193043D02*
X0102943Y0193043D01*
X0102943Y0193841D02*
X0079091Y0193841D01*
X0079091Y0194640D02*
X0102943Y0194640D01*
X0102943Y0195438D02*
X0079021Y0195438D01*
X0078690Y0196237D02*
X0102943Y0196237D01*
X0102943Y0197035D02*
X0078358Y0197035D01*
X0077559Y0197834D02*
X0102943Y0197834D01*
X0102943Y0198632D02*
X0077524Y0198632D01*
X0078323Y0199431D02*
X0102943Y0199431D01*
X0102943Y0200229D02*
X0078676Y0200229D01*
X0079006Y0201028D02*
X0102943Y0201028D01*
X0102943Y0201826D02*
X0079091Y0201826D01*
X0079091Y0202625D02*
X0102943Y0202625D01*
X0102943Y0203423D02*
X0078975Y0203423D01*
X0078644Y0204222D02*
X0102943Y0204222D01*
X0102943Y0205020D02*
X0078247Y0205020D01*
X0077448Y0205819D02*
X0102943Y0205819D01*
X0102943Y0206617D02*
X0076139Y0206617D01*
X0074852Y0212348D02*
X0076617Y0213079D01*
X0077967Y0214429D01*
X0078698Y0216193D01*
X0078698Y0218103D01*
X0077967Y0219867D01*
X0076617Y0221217D01*
X0074852Y0221948D01*
X0065743Y0221948D01*
X0063979Y0221217D01*
X0062628Y0219867D01*
X0061898Y0218103D01*
X0061898Y0216193D01*
X0062628Y0214429D01*
X0063979Y0213079D01*
X0065743Y0212348D01*
X0074852Y0212348D01*
X0076440Y0213005D02*
X0102943Y0213005D01*
X0102943Y0212207D02*
X0051444Y0212207D01*
X0051444Y0213005D02*
X0064156Y0213005D01*
X0063253Y0213804D02*
X0051444Y0213804D01*
X0051444Y0214603D02*
X0062557Y0214603D01*
X0062226Y0215401D02*
X0051444Y0215401D01*
X0051444Y0216200D02*
X0061898Y0216200D01*
X0061898Y0216998D02*
X0051444Y0216998D01*
X0051444Y0217797D02*
X0061898Y0217797D01*
X0062102Y0218595D02*
X0051444Y0218595D01*
X0051444Y0219394D02*
X0062432Y0219394D01*
X0062953Y0220192D02*
X0051444Y0220192D01*
X0051444Y0220991D02*
X0063752Y0220991D01*
X0065359Y0221789D02*
X0051444Y0221789D01*
X0051444Y0222588D02*
X0065164Y0222588D01*
X0065743Y0222348D02*
X0074852Y0222348D01*
X0076617Y0223079D01*
X0077967Y0224429D01*
X0078698Y0226193D01*
X0078698Y0228103D01*
X0077967Y0229867D01*
X0076617Y0231217D01*
X0074852Y0231948D01*
X0065743Y0231948D01*
X0063979Y0231217D01*
X0062628Y0229867D01*
X0061898Y0228103D01*
X0061898Y0226193D01*
X0062628Y0224429D01*
X0063979Y0223079D01*
X0065743Y0222348D01*
X0063671Y0223386D02*
X0051444Y0223386D01*
X0051444Y0224185D02*
X0062873Y0224185D01*
X0062399Y0224983D02*
X0051444Y0224983D01*
X0051444Y0225782D02*
X0062068Y0225782D01*
X0061898Y0226580D02*
X0051444Y0226580D01*
X0051444Y0227379D02*
X0061898Y0227379D01*
X0061928Y0228177D02*
X0051444Y0228177D01*
X0051444Y0228976D02*
X0062259Y0228976D01*
X0062590Y0229774D02*
X0051444Y0229774D01*
X0051444Y0230573D02*
X0063334Y0230573D01*
X0064350Y0231371D02*
X0051444Y0231371D01*
X0051444Y0232170D02*
X0102943Y0232170D01*
X0102943Y0232968D02*
X0076350Y0232968D01*
X0077305Y0233767D02*
X0102943Y0233767D01*
X0102943Y0234565D02*
X0078023Y0234565D01*
X0076245Y0231371D02*
X0102943Y0231371D01*
X0102943Y0230573D02*
X0077261Y0230573D01*
X0078005Y0229774D02*
X0102943Y0229774D01*
X0102943Y0228976D02*
X0078336Y0228976D01*
X0078667Y0228177D02*
X0102943Y0228177D01*
X0102943Y0227379D02*
X0078698Y0227379D01*
X0078698Y0226580D02*
X0102943Y0226580D01*
X0102943Y0225782D02*
X0078527Y0225782D01*
X0078196Y0224983D02*
X0102943Y0224983D01*
X0102943Y0224185D02*
X0077722Y0224185D01*
X0076924Y0223386D02*
X0102943Y0223386D01*
X0102943Y0222588D02*
X0075431Y0222588D01*
X0075236Y0221789D02*
X0102943Y0221789D01*
X0102943Y0220991D02*
X0076843Y0220991D01*
X0077642Y0220192D02*
X0102943Y0220192D01*
X0102943Y0219394D02*
X0078163Y0219394D01*
X0078494Y0218595D02*
X0102943Y0218595D01*
X0102943Y0217797D02*
X0078698Y0217797D01*
X0078698Y0216998D02*
X0102943Y0216998D01*
X0102943Y0216200D02*
X0078698Y0216200D01*
X0078369Y0215401D02*
X0102943Y0215401D01*
X0102943Y0214603D02*
X0078039Y0214603D01*
X0077342Y0213804D02*
X0102943Y0213804D01*
X0102943Y0211408D02*
X0051444Y0211408D01*
X0051444Y0210610D02*
X0102943Y0210610D01*
X0102943Y0209811D02*
X0051444Y0209811D01*
X0051444Y0209013D02*
X0102943Y0209013D01*
X0102943Y0208214D02*
X0051444Y0208214D01*
X0051444Y0207416D02*
X0102943Y0207416D01*
X0106943Y0224185D02*
X0115206Y0224185D01*
X0113688Y0224983D02*
X0106943Y0224983D01*
X0106943Y0225782D02*
X0112890Y0225782D01*
X0112406Y0226580D02*
X0106943Y0226580D01*
X0106943Y0227379D02*
X0112075Y0227379D01*
X0111898Y0228177D02*
X0106943Y0228177D01*
X0106943Y0228976D02*
X0111898Y0228976D01*
X0111921Y0229774D02*
X0106943Y0229774D01*
X0106943Y0230573D02*
X0112252Y0230573D01*
X0112583Y0231371D02*
X0106943Y0231371D01*
X0106943Y0232170D02*
X0113317Y0232170D01*
X0114309Y0232968D02*
X0106943Y0232968D01*
X0102943Y0239356D02*
X0078178Y0239356D01*
X0077679Y0240155D02*
X0102943Y0240155D01*
X0102943Y0240953D02*
X0076880Y0240953D01*
X0075326Y0241752D02*
X0102943Y0241752D01*
X0102943Y0242550D02*
X0075341Y0242550D01*
X0074852Y0242348D02*
X0076617Y0243079D01*
X0077967Y0244429D01*
X0078698Y0246193D01*
X0078698Y0248103D01*
X0077967Y0249867D01*
X0076617Y0251217D01*
X0074852Y0251948D01*
X0065743Y0251948D01*
X0063979Y0251217D01*
X0062628Y0249867D01*
X0061898Y0248103D01*
X0061898Y0246193D01*
X0062628Y0244429D01*
X0063979Y0243079D01*
X0065743Y0242348D01*
X0074852Y0242348D01*
X0076887Y0243349D02*
X0102943Y0243349D01*
X0102943Y0244147D02*
X0077685Y0244147D01*
X0078181Y0244946D02*
X0102943Y0244946D01*
X0102943Y0245744D02*
X0078512Y0245744D01*
X0078698Y0246543D02*
X0102943Y0246543D01*
X0102943Y0247341D02*
X0078698Y0247341D01*
X0078682Y0248140D02*
X0102943Y0248140D01*
X0102943Y0248939D02*
X0078351Y0248939D01*
X0078021Y0249737D02*
X0102943Y0249737D01*
X0102943Y0250536D02*
X0077298Y0250536D01*
X0076335Y0251334D02*
X0102943Y0251334D01*
X0102943Y0252133D02*
X0051444Y0252133D01*
X0051444Y0252931D02*
X0063995Y0252931D01*
X0064077Y0252872D02*
X0064778Y0252514D01*
X0065527Y0252271D01*
X0066304Y0252148D01*
X0070107Y0252148D01*
X0070107Y0256957D01*
X0070488Y0256957D01*
X0070488Y0252148D01*
X0074291Y0252148D01*
X0075068Y0252271D01*
X0075817Y0252514D01*
X0076518Y0252872D01*
X0077155Y0253334D01*
X0077711Y0253891D01*
X0078174Y0254527D01*
X0078531Y0255229D01*
X0078775Y0255977D01*
X0078898Y0256755D01*
X0078898Y0256957D01*
X0070488Y0256957D01*
X0070488Y0257339D01*
X0070107Y0257339D01*
X0070107Y0262148D01*
X0066304Y0262148D01*
X0065527Y0262025D01*
X0064778Y0261782D01*
X0064077Y0261424D01*
X0063440Y0260962D01*
X0062884Y0260405D01*
X0062421Y0259769D01*
X0062064Y0259067D01*
X0061821Y0258319D01*
X0061698Y0257542D01*
X0061698Y0257339D01*
X0070107Y0257339D01*
X0070107Y0256957D01*
X0061698Y0256957D01*
X0061698Y0256755D01*
X0061821Y0255977D01*
X0062064Y0255229D01*
X0062421Y0254527D01*
X0062884Y0253891D01*
X0063440Y0253334D01*
X0064077Y0252872D01*
X0063045Y0253730D02*
X0051444Y0253730D01*
X0051444Y0254528D02*
X0062421Y0254528D01*
X0062032Y0255327D02*
X0051444Y0255327D01*
X0051444Y0256125D02*
X0061797Y0256125D01*
X0061698Y0256924D02*
X0051444Y0256924D01*
X0051444Y0257722D02*
X0061726Y0257722D01*
X0061886Y0258521D02*
X0051444Y0258521D01*
X0051444Y0259319D02*
X0062192Y0259319D01*
X0062675Y0260118D02*
X0051444Y0260118D01*
X0051444Y0260916D02*
X0063395Y0260916D01*
X0064647Y0261715D02*
X0051444Y0261715D01*
X0051444Y0262513D02*
X0102943Y0262513D01*
X0102943Y0261715D02*
X0075948Y0261715D01*
X0075817Y0261782D02*
X0075068Y0262025D01*
X0074291Y0262148D01*
X0070488Y0262148D01*
X0070488Y0257339D01*
X0078898Y0257339D01*
X0078898Y0257542D01*
X0078775Y0258319D01*
X0078531Y0259067D01*
X0078174Y0259769D01*
X0077711Y0260405D01*
X0077155Y0260962D01*
X0076518Y0261424D01*
X0075817Y0261782D01*
X0077201Y0260916D02*
X0102943Y0260916D01*
X0102943Y0260118D02*
X0077920Y0260118D01*
X0078403Y0259319D02*
X0102943Y0259319D01*
X0102943Y0258521D02*
X0078709Y0258521D01*
X0078869Y0257722D02*
X0102943Y0257722D01*
X0102943Y0256924D02*
X0078898Y0256924D01*
X0078798Y0256125D02*
X0102943Y0256125D01*
X0102943Y0255327D02*
X0078563Y0255327D01*
X0078174Y0254528D02*
X0102943Y0254528D01*
X0102943Y0253730D02*
X0077550Y0253730D01*
X0076600Y0252931D02*
X0102943Y0252931D01*
X0102943Y0263312D02*
X0051444Y0263312D01*
X0051444Y0264110D02*
X0102943Y0264110D01*
X0102943Y0264909D02*
X0051444Y0264909D01*
X0051444Y0265707D02*
X0102943Y0265707D01*
X0102943Y0266506D02*
X0051444Y0266506D01*
X0051444Y0267304D02*
X0102943Y0267304D01*
X0102943Y0268103D02*
X0051590Y0268103D01*
X0052389Y0268901D02*
X0066148Y0268901D01*
X0065232Y0269700D02*
X0053187Y0269700D01*
X0051444Y0251334D02*
X0064261Y0251334D01*
X0063297Y0250536D02*
X0051444Y0250536D01*
X0051444Y0249737D02*
X0062575Y0249737D01*
X0062244Y0248939D02*
X0051444Y0248939D01*
X0051444Y0248140D02*
X0061913Y0248140D01*
X0061898Y0247341D02*
X0051444Y0247341D01*
X0051444Y0246543D02*
X0061898Y0246543D01*
X0062084Y0245744D02*
X0051444Y0245744D01*
X0051444Y0244946D02*
X0062414Y0244946D01*
X0062910Y0244147D02*
X0051444Y0244147D01*
X0051444Y0243349D02*
X0063709Y0243349D01*
X0065254Y0242550D02*
X0051444Y0242550D01*
X0051444Y0241752D02*
X0065269Y0241752D01*
X0063715Y0240953D02*
X0051444Y0240953D01*
X0051444Y0240155D02*
X0062916Y0240155D01*
X0062417Y0239356D02*
X0051444Y0239356D01*
X0051444Y0238558D02*
X0062086Y0238558D01*
X0061898Y0237759D02*
X0051444Y0237759D01*
X0051444Y0236961D02*
X0061898Y0236961D01*
X0061910Y0236162D02*
X0051444Y0236162D01*
X0051444Y0235364D02*
X0062241Y0235364D01*
X0062572Y0234565D02*
X0051444Y0234565D01*
X0051444Y0233767D02*
X0063291Y0233767D01*
X0064245Y0232968D02*
X0051444Y0232968D01*
X0070107Y0252931D02*
X0070488Y0252931D01*
X0070488Y0253730D02*
X0070107Y0253730D01*
X0070107Y0254528D02*
X0070488Y0254528D01*
X0070488Y0255327D02*
X0070107Y0255327D01*
X0070107Y0256125D02*
X0070488Y0256125D01*
X0070488Y0256924D02*
X0070107Y0256924D01*
X0070107Y0257722D02*
X0070488Y0257722D01*
X0070488Y0258521D02*
X0070107Y0258521D01*
X0070107Y0259319D02*
X0070488Y0259319D01*
X0070488Y0260118D02*
X0070107Y0260118D01*
X0070107Y0260916D02*
X0070488Y0260916D01*
X0070488Y0261715D02*
X0070107Y0261715D01*
X0078385Y0268901D02*
X0102943Y0268901D01*
X0102943Y0269700D02*
X0079301Y0269700D01*
X0080003Y0270498D02*
X0102943Y0270498D01*
X0102943Y0271297D02*
X0080334Y0271297D01*
X0080665Y0272095D02*
X0102943Y0272095D01*
X0102943Y0272894D02*
X0080666Y0272894D01*
X0080666Y0273692D02*
X0102943Y0273692D01*
X0102943Y0274491D02*
X0080466Y0274491D01*
X0080135Y0275289D02*
X0102943Y0275289D01*
X0102943Y0276088D02*
X0079620Y0276088D01*
X0078821Y0276886D02*
X0102943Y0276886D01*
X0102943Y0277685D02*
X0079412Y0277685D01*
X0080049Y0278483D02*
X0102943Y0278483D01*
X0102943Y0279282D02*
X0080380Y0279282D01*
X0080666Y0280080D02*
X0102943Y0280080D01*
X0102943Y0280879D02*
X0080666Y0280879D01*
X0080666Y0281677D02*
X0102943Y0281677D01*
X0102943Y0282476D02*
X0080420Y0282476D01*
X0080089Y0283274D02*
X0102943Y0283274D01*
X0102943Y0284073D02*
X0079509Y0284073D01*
X0078710Y0284872D02*
X0102943Y0284872D01*
X0102943Y0285670D02*
X0076960Y0285670D01*
X0075534Y0299245D02*
X0102943Y0299245D01*
X0102943Y0300043D02*
X0076967Y0300043D01*
X0077765Y0300842D02*
X0102943Y0300842D01*
X0102943Y0301640D02*
X0078214Y0301640D01*
X0078545Y0302439D02*
X0102943Y0302439D01*
X0102943Y0303237D02*
X0078698Y0303237D01*
X0078698Y0304036D02*
X0102943Y0304036D01*
X0102943Y0304834D02*
X0078649Y0304834D01*
X0078318Y0305633D02*
X0102943Y0305633D01*
X0102943Y0306431D02*
X0077988Y0306431D01*
X0077218Y0307230D02*
X0102943Y0307230D01*
X0102943Y0308028D02*
X0076141Y0308028D01*
X0106943Y0311222D02*
X0114183Y0311222D01*
X0113265Y0312021D02*
X0106943Y0312021D01*
X0106943Y0312819D02*
X0112561Y0312819D01*
X0112231Y0313618D02*
X0106943Y0313618D01*
X0106943Y0314416D02*
X0111900Y0314416D01*
X0111898Y0315215D02*
X0106943Y0315215D01*
X0106943Y0316013D02*
X0111898Y0316013D01*
X0112097Y0316812D02*
X0106943Y0316812D01*
X0106943Y0317610D02*
X0112428Y0317610D01*
X0112942Y0318409D02*
X0106943Y0318409D01*
X0106943Y0319208D02*
X0113741Y0319208D01*
X0115332Y0320006D02*
X0106943Y0320006D01*
X0127194Y0285670D02*
X0127575Y0285670D01*
X0127575Y0284872D02*
X0127194Y0284872D01*
X0127194Y0284073D02*
X0127575Y0284073D01*
X0127575Y0283274D02*
X0127194Y0283274D01*
X0127194Y0282476D02*
X0127575Y0282476D01*
X0127575Y0281677D02*
X0127194Y0281677D01*
X0127194Y0280080D02*
X0127575Y0280080D01*
X0127575Y0279282D02*
X0127194Y0279282D01*
X0127194Y0278483D02*
X0127575Y0278483D01*
X0127575Y0277685D02*
X0127194Y0277685D01*
X0127194Y0276886D02*
X0127575Y0276886D01*
X0127575Y0276088D02*
X0127194Y0276088D01*
X0127194Y0275289D02*
X0127575Y0275289D01*
X0127575Y0274491D02*
X0127194Y0274491D01*
X0127194Y0273692D02*
X0127575Y0273692D01*
X0127575Y0272863D02*
X0135984Y0272863D01*
X0135984Y0272660D01*
X0135861Y0271883D01*
X0135618Y0271134D01*
X0135261Y0270433D01*
X0134798Y0269796D01*
X0134242Y0269240D01*
X0133605Y0268777D01*
X0132904Y0268420D01*
X0132155Y0268177D01*
X0131378Y0268054D01*
X0127575Y0268054D01*
X0127575Y0272863D01*
X0127575Y0272095D02*
X0127194Y0272095D01*
X0127194Y0271297D02*
X0127575Y0271297D01*
X0127575Y0270498D02*
X0127194Y0270498D01*
X0127194Y0269700D02*
X0127575Y0269700D01*
X0127575Y0268901D02*
X0127194Y0268901D01*
X0127194Y0268103D02*
X0127575Y0268103D01*
X0131689Y0268103D02*
X0152143Y0268103D01*
X0152143Y0268901D02*
X0133776Y0268901D01*
X0134702Y0269700D02*
X0152143Y0269700D01*
X0152143Y0270498D02*
X0135294Y0270498D01*
X0135671Y0271297D02*
X0152143Y0271297D01*
X0152143Y0272095D02*
X0135895Y0272095D01*
X0135738Y0282476D02*
X0152143Y0282476D01*
X0152143Y0283274D02*
X0135400Y0283274D01*
X0134879Y0284073D02*
X0152143Y0284073D01*
X0152143Y0284872D02*
X0134062Y0284872D01*
X0132569Y0285670D02*
X0152143Y0285670D01*
X0120553Y0276886D02*
X0106943Y0276886D01*
X0106943Y0276088D02*
X0119809Y0276088D01*
X0119312Y0275289D02*
X0106943Y0275289D01*
X0106943Y0274491D02*
X0118994Y0274491D01*
X0118823Y0273692D02*
X0106943Y0273692D01*
X0106943Y0277685D02*
X0119960Y0277685D01*
X0119418Y0278483D02*
X0106943Y0278483D01*
X0106943Y0279282D02*
X0119062Y0279282D01*
X0118856Y0280080D02*
X0106943Y0280080D01*
X0102943Y0189050D02*
X0051444Y0189050D01*
X0051444Y0188252D02*
X0102943Y0188252D01*
X0102943Y0187453D02*
X0051444Y0187453D01*
X0051444Y0186655D02*
X0102943Y0186655D01*
X0102943Y0185856D02*
X0051444Y0185856D01*
X0051444Y0185058D02*
X0102943Y0185058D01*
X0102943Y0184259D02*
X0051444Y0184259D01*
X0051444Y0183461D02*
X0102943Y0183461D01*
X0102943Y0182662D02*
X0051444Y0182662D01*
X0051444Y0181864D02*
X0102943Y0181864D01*
X0102943Y0181065D02*
X0051444Y0181065D01*
X0051444Y0180267D02*
X0102943Y0180267D01*
X0102943Y0179468D02*
X0051444Y0179468D01*
X0051444Y0178670D02*
X0102943Y0178670D01*
X0102943Y0177871D02*
X0051444Y0177871D01*
X0051444Y0177072D02*
X0102943Y0177072D01*
X0102943Y0176274D02*
X0051444Y0176274D01*
X0051444Y0175475D02*
X0102943Y0175475D01*
X0102943Y0174677D02*
X0051444Y0174677D01*
X0051444Y0173878D02*
X0102943Y0173878D01*
X0102943Y0173080D02*
X0051444Y0173080D01*
X0051444Y0172281D02*
X0102943Y0172281D01*
X0102943Y0171483D02*
X0051444Y0171483D01*
X0051444Y0170684D02*
X0102943Y0170684D01*
X0102943Y0169886D02*
X0051444Y0169886D01*
X0051444Y0169087D02*
X0102943Y0169087D01*
X0102943Y0168289D02*
X0051444Y0168289D01*
X0051444Y0167490D02*
X0102943Y0167490D01*
X0102943Y0166692D02*
X0051444Y0166692D01*
X0051444Y0165893D02*
X0102943Y0165893D01*
X0102943Y0165095D02*
X0051444Y0165095D01*
X0051444Y0164296D02*
X0102943Y0164296D01*
X0102943Y0163498D02*
X0051444Y0163498D01*
X0051444Y0162699D02*
X0102943Y0162699D01*
X0102943Y0161901D02*
X0051444Y0161901D01*
X0051444Y0161102D02*
X0102943Y0161102D01*
X0102943Y0160304D02*
X0051444Y0160304D01*
X0051444Y0159505D02*
X0102943Y0159505D01*
X0102943Y0158707D02*
X0051444Y0158707D01*
X0051444Y0157908D02*
X0102943Y0157908D01*
X0102943Y0157110D02*
X0051444Y0157110D01*
X0051444Y0156311D02*
X0102943Y0156311D01*
X0102943Y0155513D02*
X0051444Y0155513D01*
X0051444Y0154714D02*
X0102943Y0154714D01*
X0102943Y0153916D02*
X0051444Y0153916D01*
X0051444Y0153117D02*
X0102943Y0153117D01*
X0102943Y0152319D02*
X0051444Y0152319D01*
X0051444Y0151520D02*
X0064729Y0151520D01*
X0063436Y0150722D02*
X0051444Y0150722D01*
X0051444Y0149923D02*
X0062705Y0149923D01*
X0062213Y0149125D02*
X0051444Y0149125D01*
X0051444Y0148326D02*
X0061900Y0148326D01*
X0061733Y0147528D02*
X0051444Y0147528D01*
X0051444Y0141938D02*
X0066139Y0141938D01*
X0070107Y0141938D02*
X0070488Y0141938D01*
X0070488Y0142737D02*
X0070107Y0142737D01*
X0070107Y0143535D02*
X0070488Y0143535D01*
X0070488Y0144334D02*
X0070107Y0144334D01*
X0070107Y0145132D02*
X0070488Y0145132D01*
X0070488Y0145931D02*
X0070107Y0145931D01*
X0074456Y0141938D02*
X0102943Y0141938D01*
X0102943Y0147528D02*
X0078862Y0147528D01*
X0078695Y0148326D02*
X0102943Y0148326D01*
X0102943Y0149125D02*
X0078382Y0149125D01*
X0077890Y0149923D02*
X0102943Y0149923D01*
X0102943Y0150722D02*
X0077159Y0150722D01*
X0075867Y0151520D02*
X0102943Y0151520D01*
X0110625Y0123326D02*
X0108861Y0122595D01*
X0107510Y0121245D01*
X0106780Y0119481D01*
X0106780Y0117571D01*
X0107510Y0115807D01*
X0108861Y0114457D01*
X0110625Y0113726D01*
X0119734Y0113726D01*
X0121498Y0114457D01*
X0122849Y0115807D01*
X0123580Y0117571D01*
X0123580Y0119481D01*
X0122849Y0121245D01*
X0121498Y0122595D01*
X0119734Y0123326D01*
X0110625Y0123326D01*
X0109291Y0122774D02*
X0076450Y0122774D01*
X0077346Y0123572D02*
X0140332Y0123572D01*
X0140332Y0122774D02*
X0121068Y0122774D01*
X0122119Y0121975D02*
X0140332Y0121975D01*
X0140332Y0121177D02*
X0122877Y0121177D01*
X0123208Y0120378D02*
X0140332Y0120378D01*
X0140332Y0119580D02*
X0123539Y0119580D01*
X0123580Y0118781D02*
X0140332Y0118781D01*
X0140332Y0117983D02*
X0123580Y0117983D01*
X0123419Y0117184D02*
X0140332Y0117184D01*
X0140332Y0116386D02*
X0123088Y0116386D01*
X0122629Y0115587D02*
X0140332Y0115587D01*
X0140332Y0114789D02*
X0121830Y0114789D01*
X0120372Y0113990D02*
X0140332Y0113990D01*
X0140332Y0113192D02*
X0076966Y0113192D01*
X0077764Y0113990D02*
X0109987Y0113990D01*
X0108529Y0114789D02*
X0078214Y0114789D01*
X0078544Y0115587D02*
X0107730Y0115587D01*
X0107271Y0116386D02*
X0078698Y0116386D01*
X0078698Y0117184D02*
X0106940Y0117184D01*
X0106780Y0117983D02*
X0078650Y0117983D01*
X0078319Y0118781D02*
X0106780Y0118781D01*
X0106821Y0119580D02*
X0077988Y0119580D01*
X0077219Y0120378D02*
X0107151Y0120378D01*
X0107482Y0121177D02*
X0076144Y0121177D01*
X0075531Y0112393D02*
X0140332Y0112393D01*
X0140332Y0111595D02*
X0075135Y0111595D01*
X0076802Y0110796D02*
X0140332Y0110796D01*
X0140332Y0109998D02*
X0077600Y0109998D01*
X0078146Y0109199D02*
X0140332Y0109199D01*
X0140332Y0108401D02*
X0078476Y0108401D01*
X0078698Y0107602D02*
X0140332Y0107602D01*
X0140332Y0106803D02*
X0078698Y0106803D01*
X0078698Y0106005D02*
X0140332Y0106005D01*
X0140332Y0105206D02*
X0078387Y0105206D01*
X0078056Y0104408D02*
X0108526Y0104408D01*
X0107001Y0103609D02*
X0077383Y0103609D01*
X0076540Y0102811D02*
X0106202Y0102811D01*
X0105715Y0102012D02*
X0051444Y0102012D01*
X0051444Y0101214D02*
X0105384Y0101214D01*
X0105205Y0100415D02*
X0051444Y0100415D01*
X0051444Y0099617D02*
X0105205Y0099617D01*
X0105226Y0098818D02*
X0051444Y0098818D01*
X0051444Y0098020D02*
X0105557Y0098020D01*
X0105888Y0097221D02*
X0051444Y0097221D01*
X0051444Y0096423D02*
X0106619Y0096423D01*
X0107603Y0095624D02*
X0074333Y0095624D01*
X0075685Y0094826D02*
X0140542Y0094826D01*
X0140332Y0095624D02*
X0119606Y0095624D01*
X0120591Y0096423D02*
X0140332Y0096423D01*
X0141033Y0094027D02*
X0076484Y0094027D01*
X0076899Y0093229D02*
X0141832Y0093229D01*
X0142630Y0092430D02*
X0077230Y0092430D01*
X0077359Y0091632D02*
X0143429Y0091632D01*
X0144227Y0090833D02*
X0077359Y0090833D01*
X0077287Y0090035D02*
X0145026Y0090035D01*
X0145824Y0089236D02*
X0125526Y0089236D01*
X0125816Y0089190D02*
X0125039Y0089313D01*
X0121236Y0089313D01*
X0121236Y0084504D01*
X0120855Y0084504D01*
X0120855Y0084123D01*
X0112446Y0084123D01*
X0112446Y0083920D01*
X0112569Y0083143D01*
X0112812Y0082394D01*
X0113169Y0081693D01*
X0113632Y0081056D01*
X0114188Y0080500D01*
X0114825Y0080037D01*
X0115526Y0079680D01*
X0116275Y0079437D01*
X0117052Y0079313D01*
X0120855Y0079313D01*
X0120855Y0084123D01*
X0121236Y0084123D01*
X0121236Y0079313D01*
X0125039Y0079313D01*
X0125816Y0079437D01*
X0126565Y0079680D01*
X0127266Y0080037D01*
X0127903Y0080500D01*
X0128459Y0081056D01*
X0128922Y0081693D01*
X0129279Y0082394D01*
X0129523Y0083143D01*
X0129646Y0083920D01*
X0129646Y0084123D01*
X0121236Y0084123D01*
X0121236Y0084504D01*
X0129646Y0084504D01*
X0129646Y0084707D01*
X0129523Y0085484D01*
X0129279Y0086233D01*
X0128922Y0086934D01*
X0128459Y0087571D01*
X0127903Y0088127D01*
X0127266Y0088590D01*
X0126565Y0088947D01*
X0125816Y0089190D01*
X0127475Y0088438D02*
X0146623Y0088438D01*
X0147421Y0087639D02*
X0128391Y0087639D01*
X0128970Y0086841D02*
X0148220Y0086841D01*
X0149018Y0086042D02*
X0129341Y0086042D01*
X0129561Y0085244D02*
X0149817Y0085244D01*
X0150615Y0084445D02*
X0121236Y0084445D01*
X0120855Y0084445D02*
X0071759Y0084445D01*
X0071759Y0083647D02*
X0112489Y0083647D01*
X0112664Y0082848D02*
X0071759Y0082848D01*
X0071759Y0082050D02*
X0112987Y0082050D01*
X0113490Y0081251D02*
X0071759Y0081251D01*
X0071759Y0080453D02*
X0114253Y0080453D01*
X0115605Y0079654D02*
X0071759Y0079654D01*
X0071759Y0078856D02*
X0156205Y0078856D01*
X0155407Y0079654D02*
X0126486Y0079654D01*
X0127838Y0080453D02*
X0154608Y0080453D01*
X0153810Y0081251D02*
X0128601Y0081251D01*
X0129104Y0082050D02*
X0153011Y0082050D01*
X0152213Y0082848D02*
X0129427Y0082848D01*
X0129602Y0083647D02*
X0151414Y0083647D01*
X0157004Y0078057D02*
X0071759Y0078057D01*
X0071759Y0077259D02*
X0157802Y0077259D01*
X0158601Y0076460D02*
X0072032Y0076460D01*
X0072831Y0075662D02*
X0159399Y0075662D01*
X0160198Y0074863D02*
X0073629Y0074863D01*
X0074428Y0074065D02*
X0160332Y0074065D01*
X0160332Y0073266D02*
X0075226Y0073266D01*
X0076025Y0072468D02*
X0138232Y0072468D01*
X0138232Y0071669D02*
X0076823Y0071669D01*
X0072896Y0067676D02*
X0002600Y0067676D01*
X0002600Y0066878D02*
X0073695Y0066878D01*
X0074493Y0066079D02*
X0002600Y0066079D01*
X0002600Y0065281D02*
X0138232Y0065281D01*
X0138232Y0064482D02*
X0002600Y0064482D01*
X0002600Y0063684D02*
X0138680Y0063684D01*
X0133809Y0062885D02*
X0002600Y0062885D01*
X0002600Y0062087D02*
X0132930Y0062087D01*
X0132885Y0062041D02*
X0132885Y0062041D01*
X0132132Y0061288D02*
X0002600Y0061288D01*
X0002600Y0060490D02*
X0131333Y0060490D01*
X0130535Y0059691D02*
X0002600Y0059691D01*
X0002600Y0058893D02*
X0129736Y0058893D01*
X0128943Y0058094D02*
X0002600Y0058094D01*
X0002600Y0057296D02*
X0128613Y0057296D01*
X0128521Y0056497D02*
X0002600Y0056497D01*
X0002600Y0055699D02*
X0128521Y0055699D01*
X0128521Y0054900D02*
X0002600Y0054900D01*
X0002600Y0054102D02*
X0128521Y0054102D01*
X0128521Y0053303D02*
X0002600Y0053303D01*
X0002600Y0052505D02*
X0128521Y0052505D01*
X0128521Y0051706D02*
X0002600Y0051706D01*
X0002600Y0050908D02*
X0128521Y0050908D01*
X0128521Y0050109D02*
X0002600Y0050109D01*
X0002600Y0049311D02*
X0128521Y0049311D01*
X0128521Y0048512D02*
X0002600Y0048512D01*
X0002600Y0047714D02*
X0128676Y0047714D01*
X0129090Y0046915D02*
X0002600Y0046915D01*
X0002600Y0046117D02*
X0129889Y0046117D01*
X0130687Y0045318D02*
X0002600Y0045318D01*
X0002600Y0044520D02*
X0131486Y0044520D01*
X0132284Y0043721D02*
X0002600Y0043721D01*
X0002600Y0042923D02*
X0133083Y0042923D01*
X0133881Y0042124D02*
X0114227Y0042124D01*
X0113534Y0042477D01*
X0112794Y0042718D01*
X0112036Y0042838D01*
X0112036Y0038296D01*
X0111236Y0038296D01*
X0111236Y0037496D01*
X0106695Y0037496D01*
X0106815Y0036738D01*
X0107055Y0035998D01*
X0107408Y0035305D01*
X0107866Y0034676D01*
X0108416Y0034126D01*
X0109045Y0033668D01*
X0109739Y0033315D01*
X0110479Y0033074D01*
X0111236Y0032954D01*
X0111236Y0037496D01*
X0112036Y0037496D01*
X0112036Y0032954D01*
X0112794Y0033074D01*
X0113534Y0033315D01*
X0114227Y0033668D01*
X0114857Y0034126D01*
X0115407Y0034676D01*
X0115864Y0035305D01*
X0116217Y0035998D01*
X0116458Y0036738D01*
X0116578Y0037496D01*
X0112036Y0037496D01*
X0112036Y0038296D01*
X0116578Y0038296D01*
X0116458Y0039054D01*
X0116217Y0039794D01*
X0115864Y0040487D01*
X0115407Y0041116D01*
X0114857Y0041667D01*
X0114227Y0042124D01*
X0115198Y0041326D02*
X0134680Y0041326D01*
X0135478Y0040527D02*
X0115835Y0040527D01*
X0116238Y0039729D02*
X0136277Y0039729D01*
X0137076Y0038930D02*
X0116477Y0038930D01*
X0116552Y0037333D02*
X0130282Y0037333D01*
X0130248Y0037299D02*
X0130064Y0036980D01*
X0129969Y0036624D01*
X0129969Y0033296D01*
X0134512Y0033296D01*
X0134512Y0037839D01*
X0131184Y0037839D01*
X0130828Y0037744D01*
X0130509Y0037560D01*
X0130248Y0037299D01*
X0129969Y0036534D02*
X0116392Y0036534D01*
X0116084Y0035736D02*
X0129969Y0035736D01*
X0129969Y0034937D02*
X0115597Y0034937D01*
X0114870Y0034139D02*
X0129969Y0034139D01*
X0129969Y0033340D02*
X0113584Y0033340D01*
X0112036Y0033340D02*
X0111236Y0033340D01*
X0111236Y0034139D02*
X0112036Y0034139D01*
X0112036Y0034937D02*
X0111236Y0034937D01*
X0111236Y0035736D02*
X0112036Y0035736D01*
X0112036Y0036534D02*
X0111236Y0036534D01*
X0111236Y0037333D02*
X0112036Y0037333D01*
X0112036Y0038132D02*
X0138249Y0038132D01*
X0138639Y0037839D02*
X0135312Y0037839D01*
X0135312Y0033296D01*
X0139855Y0033296D01*
X0139855Y0036624D01*
X0139760Y0036980D01*
X0139575Y0037299D01*
X0139315Y0037560D01*
X0138995Y0037744D01*
X0138639Y0037839D01*
X0139541Y0037333D02*
X0142143Y0037333D01*
X0141874Y0036534D02*
X0139855Y0036534D01*
X0139855Y0035736D02*
X0141075Y0035736D01*
X0140277Y0034937D02*
X0139855Y0034937D01*
X0139855Y0034139D02*
X0140200Y0034139D01*
X0140200Y0033340D02*
X0139855Y0033340D01*
X0139855Y0032496D02*
X0135312Y0032496D01*
X0135312Y0033296D01*
X0134512Y0033296D01*
X0134512Y0032496D01*
X0135312Y0032496D01*
X0135312Y0027953D01*
X0138639Y0027953D01*
X0138995Y0028048D01*
X0139315Y0028232D01*
X0139575Y0028493D01*
X0139760Y0028812D01*
X0139855Y0029168D01*
X0139855Y0032496D01*
X0140200Y0032542D02*
X0135312Y0032542D01*
X0135312Y0033340D02*
X0134512Y0033340D01*
X0134512Y0032542D02*
X0115774Y0032542D01*
X0116380Y0031743D02*
X0129969Y0031743D01*
X0129969Y0032496D02*
X0129969Y0029168D01*
X0130064Y0028812D01*
X0130248Y0028493D01*
X0130509Y0028232D01*
X0130828Y0028048D01*
X0131184Y0027953D01*
X0134512Y0027953D01*
X0134512Y0032496D01*
X0129969Y0032496D01*
X0129969Y0030945D02*
X0116380Y0030945D01*
X0116380Y0024557D02*
X0123890Y0024557D01*
X0124688Y0023758D02*
X0116282Y0023758D01*
X0109689Y0033340D02*
X0082088Y0033340D01*
X0082038Y0033315D02*
X0082731Y0033668D01*
X0083360Y0034126D01*
X0083911Y0034676D01*
X0084368Y0035305D01*
X0084721Y0035998D01*
X0084962Y0036738D01*
X0085082Y0037496D01*
X0080540Y0037496D01*
X0080540Y0032954D01*
X0081298Y0033074D01*
X0082038Y0033315D01*
X0080540Y0033340D02*
X0079740Y0033340D01*
X0079740Y0032954D02*
X0079740Y0037496D01*
X0075199Y0037496D01*
X0075319Y0036738D01*
X0075559Y0035998D01*
X0075912Y0035305D01*
X0076370Y0034676D01*
X0076920Y0034126D01*
X0077549Y0033668D01*
X0078243Y0033315D01*
X0078983Y0033074D01*
X0079740Y0032954D01*
X0079740Y0034139D02*
X0080540Y0034139D01*
X0080540Y0034937D02*
X0079740Y0034937D01*
X0079740Y0035736D02*
X0080540Y0035736D01*
X0080540Y0036534D02*
X0079740Y0036534D01*
X0079740Y0037333D02*
X0080540Y0037333D01*
X0080540Y0037496D02*
X0079740Y0037496D01*
X0079740Y0038296D01*
X0075199Y0038296D01*
X0075319Y0039054D01*
X0075559Y0039794D01*
X0075912Y0040487D01*
X0076370Y0041116D01*
X0076920Y0041667D01*
X0077549Y0042124D01*
X0078243Y0042477D01*
X0078983Y0042718D01*
X0079740Y0042838D01*
X0079740Y0038296D01*
X0080540Y0038296D01*
X0080540Y0042838D01*
X0081298Y0042718D01*
X0082038Y0042477D01*
X0082731Y0042124D01*
X0083360Y0041667D01*
X0083911Y0041116D01*
X0084368Y0040487D01*
X0084721Y0039794D01*
X0084962Y0039054D01*
X0085082Y0038296D01*
X0080540Y0038296D01*
X0080540Y0037496D01*
X0080540Y0038132D02*
X0111236Y0038132D01*
X0111236Y0038296D02*
X0106695Y0038296D01*
X0106815Y0039054D01*
X0107055Y0039794D01*
X0107408Y0040487D01*
X0107866Y0041116D01*
X0108416Y0041667D01*
X0109045Y0042124D01*
X0109739Y0042477D01*
X0110479Y0042718D01*
X0111236Y0042838D01*
X0111236Y0038296D01*
X0111236Y0038930D02*
X0112036Y0038930D01*
X0112036Y0039729D02*
X0111236Y0039729D01*
X0111236Y0040527D02*
X0112036Y0040527D01*
X0112036Y0041326D02*
X0111236Y0041326D01*
X0111236Y0042124D02*
X0112036Y0042124D01*
X0109046Y0042124D02*
X0082731Y0042124D01*
X0083702Y0041326D02*
X0108075Y0041326D01*
X0107437Y0040527D02*
X0084339Y0040527D01*
X0084742Y0039729D02*
X0107034Y0039729D01*
X0106795Y0038930D02*
X0084981Y0038930D01*
X0085056Y0037333D02*
X0106720Y0037333D01*
X0106881Y0036534D02*
X0084895Y0036534D01*
X0084588Y0035736D02*
X0107189Y0035736D01*
X0107675Y0034937D02*
X0084101Y0034937D01*
X0083374Y0034139D02*
X0108402Y0034139D01*
X0107498Y0032542D02*
X0084278Y0032542D01*
X0084883Y0031743D02*
X0106893Y0031743D01*
X0106893Y0030945D02*
X0084883Y0030945D01*
X0084883Y0024557D02*
X0106893Y0024557D01*
X0106990Y0023758D02*
X0084786Y0023758D01*
X0078192Y0033340D02*
X0050592Y0033340D01*
X0050542Y0033315D02*
X0051235Y0033668D01*
X0051864Y0034126D01*
X0052415Y0034676D01*
X0052872Y0035305D01*
X0053225Y0035998D01*
X0053466Y0036738D01*
X0053586Y0037496D01*
X0049044Y0037496D01*
X0049044Y0032954D01*
X0049802Y0033074D01*
X0050542Y0033315D01*
X0049044Y0033340D02*
X0048244Y0033340D01*
X0048244Y0032954D02*
X0048244Y0037496D01*
X0043703Y0037496D01*
X0043823Y0036738D01*
X0044063Y0035998D01*
X0044416Y0035305D01*
X0044874Y0034676D01*
X0045424Y0034126D01*
X0046053Y0033668D01*
X0046747Y0033315D01*
X0047487Y0033074D01*
X0048244Y0032954D01*
X0048244Y0034139D02*
X0049044Y0034139D01*
X0049044Y0034937D02*
X0048244Y0034937D01*
X0048244Y0035736D02*
X0049044Y0035736D01*
X0049044Y0036534D02*
X0048244Y0036534D01*
X0048244Y0037333D02*
X0049044Y0037333D01*
X0049044Y0037496D02*
X0048244Y0037496D01*
X0048244Y0038296D01*
X0043703Y0038296D01*
X0043823Y0039054D01*
X0044063Y0039794D01*
X0044416Y0040487D01*
X0044874Y0041116D01*
X0045424Y0041667D01*
X0046053Y0042124D01*
X0046747Y0042477D01*
X0047487Y0042718D01*
X0048244Y0042838D01*
X0048244Y0038296D01*
X0049044Y0038296D01*
X0049044Y0042838D01*
X0049802Y0042718D01*
X0050542Y0042477D01*
X0051235Y0042124D01*
X0051864Y0041667D01*
X0052415Y0041116D01*
X0052872Y0040487D01*
X0053225Y0039794D01*
X0053466Y0039054D01*
X0053586Y0038296D01*
X0049044Y0038296D01*
X0049044Y0037496D01*
X0049044Y0038132D02*
X0079740Y0038132D01*
X0079740Y0038930D02*
X0080540Y0038930D01*
X0080540Y0039729D02*
X0079740Y0039729D01*
X0079740Y0040527D02*
X0080540Y0040527D01*
X0080540Y0041326D02*
X0079740Y0041326D01*
X0079740Y0042124D02*
X0080540Y0042124D01*
X0077550Y0042124D02*
X0051235Y0042124D01*
X0052205Y0041326D02*
X0076579Y0041326D01*
X0075941Y0040527D02*
X0052843Y0040527D01*
X0053246Y0039729D02*
X0075538Y0039729D01*
X0075299Y0038930D02*
X0053485Y0038930D01*
X0053560Y0037333D02*
X0075224Y0037333D01*
X0075385Y0036534D02*
X0053399Y0036534D01*
X0053091Y0035736D02*
X0075693Y0035736D01*
X0076179Y0034937D02*
X0052605Y0034937D01*
X0051878Y0034139D02*
X0076906Y0034139D01*
X0076002Y0032542D02*
X0052782Y0032542D01*
X0053387Y0031743D02*
X0075397Y0031743D01*
X0075397Y0030945D02*
X0053387Y0030945D01*
X0053387Y0024557D02*
X0075397Y0024557D01*
X0075494Y0023758D02*
X0053290Y0023758D01*
X0046696Y0033340D02*
X0002600Y0033340D01*
X0002600Y0032542D02*
X0044506Y0032542D01*
X0043901Y0031743D02*
X0002600Y0031743D01*
X0002600Y0030945D02*
X0043901Y0030945D01*
X0043901Y0030146D02*
X0002600Y0030146D01*
X0002600Y0029348D02*
X0043901Y0029348D01*
X0043901Y0028549D02*
X0002600Y0028549D01*
X0002600Y0027751D02*
X0043901Y0027751D01*
X0043901Y0026952D02*
X0002600Y0026952D01*
X0002600Y0026154D02*
X0011244Y0026154D01*
X0008264Y0025355D02*
X0002600Y0025355D01*
X0002600Y0024557D02*
X0006841Y0024557D01*
X0005457Y0023758D02*
X0002600Y0023758D01*
X0002600Y0022960D02*
X0004559Y0022960D01*
X0003761Y0022161D02*
X0002600Y0022161D01*
X0002600Y0021363D02*
X0002962Y0021363D01*
X0002600Y0034139D02*
X0045410Y0034139D01*
X0044683Y0034937D02*
X0002600Y0034937D01*
X0002600Y0035736D02*
X0044197Y0035736D01*
X0043889Y0036534D02*
X0002600Y0036534D01*
X0002600Y0037333D02*
X0043728Y0037333D01*
X0043803Y0038930D02*
X0002600Y0038930D01*
X0002600Y0038132D02*
X0048244Y0038132D01*
X0048244Y0038930D02*
X0049044Y0038930D01*
X0049044Y0039729D02*
X0048244Y0039729D01*
X0048244Y0040527D02*
X0049044Y0040527D01*
X0049044Y0041326D02*
X0048244Y0041326D01*
X0048244Y0042124D02*
X0049044Y0042124D01*
X0046054Y0042124D02*
X0002600Y0042124D01*
X0002600Y0041326D02*
X0045083Y0041326D01*
X0044445Y0040527D02*
X0002600Y0040527D01*
X0002600Y0039729D02*
X0044042Y0039729D01*
X0043901Y0026154D02*
X0015178Y0026154D01*
X0018159Y0025355D02*
X0043901Y0025355D01*
X0043901Y0024557D02*
X0019582Y0024557D01*
X0020965Y0023758D02*
X0043998Y0023758D01*
X0026208Y0014975D02*
X0173442Y0014975D01*
X0173428Y0014176D02*
X0026222Y0014176D01*
X0026222Y0013378D02*
X0173428Y0013378D01*
X0173428Y0012579D02*
X0026222Y0012579D01*
X0026222Y0011781D02*
X0173428Y0011781D01*
X0173567Y0010982D02*
X0026084Y0010982D01*
X0025870Y0010184D02*
X0173781Y0010184D01*
X0173995Y0009385D02*
X0025656Y0009385D01*
X0025442Y0008587D02*
X0174208Y0008587D01*
X0174546Y0007788D02*
X0025104Y0007788D01*
X0024643Y0006990D02*
X0175007Y0006990D01*
X0175468Y0006191D02*
X0024182Y0006191D01*
X0023721Y0005393D02*
X0175930Y0005393D01*
X0176656Y0004594D02*
X0022994Y0004594D01*
X0022196Y0003796D02*
X0177454Y0003796D01*
X0178253Y0002997D02*
X0021397Y0002997D01*
X0025994Y0015773D02*
X0173656Y0015773D01*
X0173870Y0016572D02*
X0025781Y0016572D01*
X0025567Y0017370D02*
X0174084Y0017370D01*
X0174298Y0018169D02*
X0025353Y0018169D01*
X0024911Y0018967D02*
X0174739Y0018967D01*
X0175200Y0019766D02*
X0024450Y0019766D01*
X0023989Y0020564D02*
X0175661Y0020564D01*
X0176191Y0021363D02*
X0023460Y0021363D01*
X0022661Y0022161D02*
X0176989Y0022161D01*
X0177788Y0022960D02*
X0154833Y0022960D01*
X0155632Y0023758D02*
X0178686Y0023758D01*
X0180069Y0024557D02*
X0156430Y0024557D01*
X0157229Y0025355D02*
X0181492Y0025355D01*
X0184472Y0026154D02*
X0157611Y0026154D01*
X0157743Y0026952D02*
X0197050Y0026952D01*
X0197050Y0026154D02*
X0188407Y0026154D01*
X0191387Y0025355D02*
X0197050Y0025355D01*
X0197050Y0024557D02*
X0192810Y0024557D01*
X0194193Y0023758D02*
X0197050Y0023758D01*
X0197050Y0022960D02*
X0195091Y0022960D01*
X0195889Y0022161D02*
X0197050Y0022161D01*
X0197050Y0021363D02*
X0196688Y0021363D01*
X0197050Y0027751D02*
X0157743Y0027751D01*
X0157743Y0028549D02*
X0162582Y0028549D01*
X0162979Y0028153D02*
X0166908Y0028153D01*
X0169687Y0030931D01*
X0169687Y0034861D01*
X0166908Y0037639D01*
X0162979Y0037639D01*
X0160200Y0034861D01*
X0160200Y0030931D01*
X0162979Y0028153D01*
X0161783Y0029348D02*
X0158103Y0029348D01*
X0158902Y0030146D02*
X0160985Y0030146D01*
X0160200Y0030945D02*
X0159687Y0030945D01*
X0159687Y0031743D02*
X0160200Y0031743D01*
X0160200Y0032542D02*
X0159687Y0032542D01*
X0159687Y0033340D02*
X0160200Y0033340D01*
X0160200Y0034139D02*
X0159687Y0034139D01*
X0159610Y0034937D02*
X0160277Y0034937D01*
X0161075Y0035736D02*
X0158811Y0035736D01*
X0158013Y0036534D02*
X0161874Y0036534D01*
X0162672Y0037333D02*
X0157743Y0037333D01*
X0157743Y0038132D02*
X0197050Y0038132D01*
X0197050Y0038930D02*
X0157743Y0038930D01*
X0157743Y0039729D02*
X0197050Y0039729D01*
X0197050Y0040527D02*
X0157743Y0040527D01*
X0157743Y0041326D02*
X0197050Y0041326D01*
X0197050Y0042124D02*
X0157413Y0042124D01*
X0156751Y0042923D02*
X0197050Y0042923D01*
X0197050Y0043721D02*
X0155952Y0043721D01*
X0155932Y0044520D02*
X0197050Y0044520D01*
X0197050Y0045318D02*
X0155932Y0045318D01*
X0155932Y0046117D02*
X0197050Y0046117D01*
X0197050Y0046915D02*
X0155932Y0046915D01*
X0151227Y0040527D02*
X0147743Y0040527D01*
X0147743Y0039729D02*
X0152025Y0039729D01*
X0152143Y0038930D02*
X0147743Y0038930D01*
X0147743Y0038132D02*
X0152143Y0038132D01*
X0152143Y0037333D02*
X0147743Y0037333D01*
X0148013Y0036534D02*
X0151874Y0036534D01*
X0151075Y0035736D02*
X0148811Y0035736D01*
X0149610Y0034937D02*
X0150277Y0034937D01*
X0150200Y0034139D02*
X0149687Y0034139D01*
X0149687Y0033340D02*
X0150200Y0033340D01*
X0150200Y0032542D02*
X0149687Y0032542D01*
X0149687Y0031743D02*
X0150200Y0031743D01*
X0150200Y0030945D02*
X0149687Y0030945D01*
X0148902Y0030146D02*
X0150985Y0030146D01*
X0151783Y0029348D02*
X0148103Y0029348D01*
X0147305Y0028549D02*
X0152143Y0028549D01*
X0150622Y0041326D02*
X0147743Y0041326D01*
X0147413Y0042124D02*
X0150332Y0042124D01*
X0150332Y0042923D02*
X0146751Y0042923D01*
X0150332Y0043721D02*
X0140204Y0043721D01*
X0139406Y0044520D02*
X0150332Y0044520D01*
X0150332Y0045318D02*
X0138607Y0045318D01*
X0137809Y0046117D02*
X0150332Y0046117D01*
X0150332Y0046915D02*
X0137010Y0046915D01*
X0136211Y0047714D02*
X0138903Y0047714D01*
X0138935Y0047681D02*
X0147329Y0047681D01*
X0148032Y0048384D01*
X0148032Y0056778D01*
X0147329Y0057481D01*
X0138935Y0057481D01*
X0138232Y0056778D01*
X0138232Y0048384D01*
X0138935Y0047681D01*
X0138232Y0048512D02*
X0135413Y0048512D01*
X0134614Y0049311D02*
X0138232Y0049311D01*
X0138232Y0050109D02*
X0134121Y0050109D01*
X0134121Y0050908D02*
X0138232Y0050908D01*
X0138232Y0051706D02*
X0134121Y0051706D01*
X0134121Y0052505D02*
X0138232Y0052505D01*
X0138232Y0053303D02*
X0134121Y0053303D01*
X0134121Y0054102D02*
X0138232Y0054102D01*
X0138232Y0054900D02*
X0134121Y0054900D01*
X0134462Y0055699D02*
X0138232Y0055699D01*
X0138232Y0056497D02*
X0135260Y0056497D01*
X0136059Y0057296D02*
X0138750Y0057296D01*
X0147515Y0057296D02*
X0151710Y0057296D01*
X0150119Y0056497D02*
X0148032Y0056497D01*
X0148032Y0055699D02*
X0149320Y0055699D01*
X0148789Y0054900D02*
X0148032Y0054900D01*
X0148032Y0054102D02*
X0148458Y0054102D01*
X0148232Y0053303D02*
X0148032Y0053303D01*
X0148032Y0052505D02*
X0148232Y0052505D01*
X0148232Y0051706D02*
X0148032Y0051706D01*
X0148032Y0050908D02*
X0148522Y0050908D01*
X0148852Y0050109D02*
X0148032Y0050109D01*
X0148032Y0049311D02*
X0149473Y0049311D01*
X0150272Y0048512D02*
X0148032Y0048512D01*
X0147362Y0047714D02*
X0150332Y0047714D01*
X0150332Y0063684D02*
X0147584Y0063684D01*
X0148032Y0064482D02*
X0150049Y0064482D01*
X0149251Y0065281D02*
X0148032Y0065281D01*
X0148032Y0066079D02*
X0148760Y0066079D01*
X0148430Y0066878D02*
X0148032Y0066878D01*
X0148032Y0067676D02*
X0148232Y0067676D01*
X0148232Y0068475D02*
X0148032Y0068475D01*
X0148032Y0069273D02*
X0148232Y0069273D01*
X0148032Y0070072D02*
X0148550Y0070072D01*
X0148881Y0070870D02*
X0148032Y0070870D01*
X0148032Y0071669D02*
X0149543Y0071669D01*
X0150341Y0072468D02*
X0148032Y0072468D01*
X0155924Y0072468D02*
X0160332Y0072468D01*
X0159543Y0071669D02*
X0156722Y0071669D01*
X0157383Y0070870D02*
X0158881Y0070870D01*
X0158550Y0070072D02*
X0157714Y0070072D01*
X0158032Y0069273D02*
X0158232Y0069273D01*
X0158232Y0068475D02*
X0158032Y0068475D01*
X0158032Y0067676D02*
X0158232Y0067676D01*
X0158430Y0066878D02*
X0157835Y0066878D01*
X0157504Y0066079D02*
X0158760Y0066079D01*
X0159251Y0065281D02*
X0157014Y0065281D01*
X0156215Y0064482D02*
X0160049Y0064482D01*
X0161543Y0063684D02*
X0155932Y0063684D01*
X0164554Y0057296D02*
X0179320Y0057296D01*
X0178522Y0056497D02*
X0166146Y0056497D01*
X0166944Y0055699D02*
X0177723Y0055699D01*
X0176227Y0058094D02*
X0180119Y0058094D01*
X0180917Y0058893D02*
X0177012Y0058893D01*
X0177343Y0059691D02*
X0181716Y0059691D01*
X0182514Y0060490D02*
X0177428Y0060490D01*
X0177428Y0061288D02*
X0183313Y0061288D01*
X0183639Y0062087D02*
X0177428Y0062087D01*
X0177428Y0062885D02*
X0183639Y0062885D01*
X0183639Y0063684D02*
X0177428Y0063684D01*
X0177428Y0064482D02*
X0183639Y0064482D01*
X0183639Y0065281D02*
X0177428Y0065281D01*
X0177428Y0066079D02*
X0183639Y0066079D01*
X0183639Y0066878D02*
X0177428Y0066878D01*
X0177428Y0067676D02*
X0183639Y0067676D01*
X0183639Y0068475D02*
X0177428Y0068475D01*
X0177428Y0069273D02*
X0183639Y0069273D01*
X0183639Y0070072D02*
X0177428Y0070072D01*
X0177428Y0070870D02*
X0183639Y0070870D01*
X0183639Y0071669D02*
X0177428Y0071669D01*
X0177428Y0072468D02*
X0183639Y0072468D01*
X0183639Y0073266D02*
X0177428Y0073266D01*
X0177428Y0074065D02*
X0183639Y0074065D01*
X0183639Y0074863D02*
X0177428Y0074863D01*
X0177428Y0075662D02*
X0183639Y0075662D01*
X0183639Y0076460D02*
X0177428Y0076460D01*
X0177428Y0077259D02*
X0183639Y0077259D01*
X0183639Y0078057D02*
X0177428Y0078057D01*
X0177428Y0078856D02*
X0183639Y0078856D01*
X0183639Y0079654D02*
X0177428Y0079654D01*
X0177428Y0080453D02*
X0183639Y0080453D01*
X0183639Y0081251D02*
X0177199Y0081251D01*
X0176679Y0082050D02*
X0183639Y0082050D01*
X0183639Y0082848D02*
X0175880Y0082848D01*
X0175082Y0083647D02*
X0182910Y0083647D01*
X0182112Y0084445D02*
X0174283Y0084445D01*
X0173485Y0085244D02*
X0181313Y0085244D01*
X0180515Y0086042D02*
X0172686Y0086042D01*
X0171888Y0086841D02*
X0179716Y0086841D01*
X0178918Y0087639D02*
X0171089Y0087639D01*
X0170291Y0088438D02*
X0178119Y0088438D01*
X0177320Y0089236D02*
X0169492Y0089236D01*
X0168694Y0090035D02*
X0176522Y0090035D01*
X0175723Y0090833D02*
X0167895Y0090833D01*
X0167097Y0091632D02*
X0174925Y0091632D01*
X0174126Y0092430D02*
X0166298Y0092430D01*
X0165499Y0093229D02*
X0173328Y0093229D01*
X0172529Y0094027D02*
X0164701Y0094027D01*
X0163902Y0094826D02*
X0171731Y0094826D01*
X0170932Y0095624D02*
X0163104Y0095624D01*
X0162305Y0096423D02*
X0170134Y0096423D01*
X0169335Y0097221D02*
X0161507Y0097221D01*
X0160708Y0098020D02*
X0168537Y0098020D01*
X0167738Y0098818D02*
X0159910Y0098818D01*
X0159111Y0099617D02*
X0166940Y0099617D01*
X0165617Y0124371D02*
X0197050Y0124371D01*
X0197050Y0125169D02*
X0165617Y0125169D01*
X0165617Y0125968D02*
X0197050Y0125968D01*
X0197050Y0126766D02*
X0165617Y0126766D01*
X0165617Y0127565D02*
X0197050Y0127565D01*
X0197050Y0128363D02*
X0165617Y0128363D01*
X0165617Y0129162D02*
X0197050Y0129162D01*
X0197050Y0129960D02*
X0165617Y0129960D01*
X0165617Y0130759D02*
X0197050Y0130759D01*
X0197050Y0131557D02*
X0165617Y0131557D01*
X0165617Y0132356D02*
X0197050Y0132356D01*
X0197050Y0133154D02*
X0165617Y0133154D01*
X0165617Y0133953D02*
X0197050Y0133953D01*
X0197050Y0134751D02*
X0165617Y0134751D01*
X0165617Y0135550D02*
X0197050Y0135550D01*
X0197050Y0136348D02*
X0165617Y0136348D01*
X0165617Y0137147D02*
X0197050Y0137147D01*
X0197050Y0137945D02*
X0165617Y0137945D01*
X0165617Y0138744D02*
X0197050Y0138744D01*
X0197050Y0139542D02*
X0165617Y0139542D01*
X0165617Y0140341D02*
X0197050Y0140341D01*
X0197050Y0141139D02*
X0165617Y0141139D01*
X0165617Y0141938D02*
X0197050Y0141938D01*
X0197050Y0142737D02*
X0165617Y0142737D01*
X0165617Y0143535D02*
X0197050Y0143535D01*
X0197050Y0144334D02*
X0165617Y0144334D01*
X0165617Y0145132D02*
X0197050Y0145132D01*
X0197050Y0145931D02*
X0165617Y0145931D01*
X0165617Y0146729D02*
X0197050Y0146729D01*
X0197050Y0147528D02*
X0165617Y0147528D01*
X0165617Y0148326D02*
X0197050Y0148326D01*
X0197050Y0149125D02*
X0165617Y0149125D01*
X0165617Y0149923D02*
X0197050Y0149923D01*
X0197050Y0150722D02*
X0165617Y0150722D01*
X0165617Y0151520D02*
X0197050Y0151520D01*
X0197050Y0152319D02*
X0165617Y0152319D01*
X0165617Y0153117D02*
X0197050Y0153117D01*
X0197050Y0153916D02*
X0165617Y0153916D01*
X0165617Y0154714D02*
X0197050Y0154714D01*
X0197050Y0155513D02*
X0165617Y0155513D01*
X0165617Y0156311D02*
X0197050Y0156311D01*
X0197050Y0157110D02*
X0165617Y0157110D01*
X0165617Y0157908D02*
X0197050Y0157908D01*
X0197050Y0158707D02*
X0165617Y0158707D01*
X0165617Y0159505D02*
X0197050Y0159505D01*
X0197050Y0160304D02*
X0165617Y0160304D01*
X0165617Y0161102D02*
X0197050Y0161102D01*
X0197050Y0161901D02*
X0165617Y0161901D01*
X0165617Y0162699D02*
X0197050Y0162699D01*
X0197050Y0163498D02*
X0165617Y0163498D01*
X0165617Y0164296D02*
X0197050Y0164296D01*
X0197050Y0165095D02*
X0165617Y0165095D01*
X0165617Y0165893D02*
X0197050Y0165893D01*
X0197050Y0166692D02*
X0165617Y0166692D01*
X0165617Y0167490D02*
X0197050Y0167490D01*
X0197050Y0168289D02*
X0165617Y0168289D01*
X0165617Y0169087D02*
X0197050Y0169087D01*
X0197050Y0169886D02*
X0165617Y0169886D01*
X0165617Y0170684D02*
X0197050Y0170684D01*
X0197050Y0171483D02*
X0165617Y0171483D01*
X0165617Y0172281D02*
X0197050Y0172281D01*
X0197050Y0173080D02*
X0165617Y0173080D01*
X0165617Y0173878D02*
X0197050Y0173878D01*
X0197050Y0174677D02*
X0165617Y0174677D01*
X0165617Y0175475D02*
X0197050Y0175475D01*
X0197050Y0176274D02*
X0165617Y0176274D01*
X0165617Y0177072D02*
X0197050Y0177072D01*
X0197050Y0177871D02*
X0165617Y0177871D01*
X0165617Y0178670D02*
X0197050Y0178670D01*
X0197050Y0179468D02*
X0165617Y0179468D01*
X0165617Y0180267D02*
X0197050Y0180267D01*
X0197050Y0181065D02*
X0165617Y0181065D01*
X0165617Y0181864D02*
X0197050Y0181864D01*
X0197050Y0182662D02*
X0165617Y0182662D01*
X0165617Y0183461D02*
X0197050Y0183461D01*
X0197050Y0184259D02*
X0165617Y0184259D01*
X0191457Y0107602D02*
X0197050Y0107602D01*
X0197050Y0106803D02*
X0191242Y0106803D01*
X0190879Y0106005D02*
X0197050Y0106005D01*
X0197050Y0105206D02*
X0190332Y0105206D01*
X0189448Y0104408D02*
X0197050Y0104408D01*
X0197050Y0103609D02*
X0187812Y0103609D01*
X0178671Y0037839D02*
X0175343Y0037839D01*
X0175343Y0033296D01*
X0174543Y0033296D01*
X0174543Y0032496D01*
X0170000Y0032496D01*
X0170000Y0029168D01*
X0170095Y0028812D01*
X0170280Y0028493D01*
X0170540Y0028232D01*
X0170860Y0028048D01*
X0171216Y0027953D01*
X0174543Y0027953D01*
X0174543Y0032496D01*
X0175343Y0032496D01*
X0175343Y0027953D01*
X0178671Y0027953D01*
X0179027Y0028048D01*
X0179346Y0028232D01*
X0179607Y0028493D01*
X0179791Y0028812D01*
X0179887Y0029168D01*
X0179887Y0032496D01*
X0175343Y0032496D01*
X0175343Y0033296D01*
X0179887Y0033296D01*
X0179887Y0036624D01*
X0179791Y0036980D01*
X0179607Y0037299D01*
X0179346Y0037560D01*
X0179027Y0037744D01*
X0178671Y0037839D01*
X0179573Y0037333D02*
X0197050Y0037333D01*
X0197050Y0036534D02*
X0179887Y0036534D01*
X0179887Y0035736D02*
X0197050Y0035736D01*
X0197050Y0034937D02*
X0179887Y0034937D01*
X0179887Y0034139D02*
X0197050Y0034139D01*
X0197050Y0033340D02*
X0179887Y0033340D01*
X0179887Y0031743D02*
X0197050Y0031743D01*
X0197050Y0030945D02*
X0179887Y0030945D01*
X0179887Y0030146D02*
X0197050Y0030146D01*
X0197050Y0029348D02*
X0179887Y0029348D01*
X0179639Y0028549D02*
X0197050Y0028549D01*
X0197050Y0032542D02*
X0175343Y0032542D01*
X0175343Y0033340D02*
X0174543Y0033340D01*
X0174543Y0033296D02*
X0174543Y0037839D01*
X0171216Y0037839D01*
X0170860Y0037744D01*
X0170540Y0037560D01*
X0170280Y0037299D01*
X0170095Y0036980D01*
X0170000Y0036624D01*
X0170000Y0033296D01*
X0174543Y0033296D01*
X0174543Y0032542D02*
X0169687Y0032542D01*
X0169687Y0033340D02*
X0170000Y0033340D01*
X0170000Y0034139D02*
X0169687Y0034139D01*
X0169610Y0034937D02*
X0170000Y0034937D01*
X0170000Y0035736D02*
X0168811Y0035736D01*
X0168013Y0036534D02*
X0170000Y0036534D01*
X0170314Y0037333D02*
X0167214Y0037333D01*
X0169687Y0031743D02*
X0170000Y0031743D01*
X0170000Y0030945D02*
X0169687Y0030945D01*
X0170000Y0030146D02*
X0168902Y0030146D01*
X0168103Y0029348D02*
X0170000Y0029348D01*
X0170247Y0028549D02*
X0167305Y0028549D01*
X0174543Y0028549D02*
X0175343Y0028549D01*
X0175343Y0029348D02*
X0174543Y0029348D01*
X0174543Y0030146D02*
X0175343Y0030146D01*
X0175343Y0030945D02*
X0174543Y0030945D01*
X0174543Y0031743D02*
X0175343Y0031743D01*
X0175343Y0034139D02*
X0174543Y0034139D01*
X0174543Y0034937D02*
X0175343Y0034937D01*
X0175343Y0035736D02*
X0174543Y0035736D01*
X0174543Y0036534D02*
X0175343Y0036534D01*
X0175343Y0037333D02*
X0174543Y0037333D01*
X0142582Y0028549D02*
X0139608Y0028549D01*
X0139855Y0029348D02*
X0141783Y0029348D01*
X0140985Y0030146D02*
X0139855Y0030146D01*
X0139855Y0030945D02*
X0140200Y0030945D01*
X0140200Y0031743D02*
X0139855Y0031743D01*
X0135312Y0031743D02*
X0134512Y0031743D01*
X0134512Y0030945D02*
X0135312Y0030945D01*
X0135312Y0030146D02*
X0134512Y0030146D01*
X0134512Y0029348D02*
X0135312Y0029348D01*
X0135312Y0028549D02*
X0134512Y0028549D01*
X0134512Y0034139D02*
X0135312Y0034139D01*
X0135312Y0034937D02*
X0134512Y0034937D01*
X0134512Y0035736D02*
X0135312Y0035736D01*
X0135312Y0036534D02*
X0134512Y0036534D01*
X0134512Y0037333D02*
X0135312Y0037333D01*
X0129969Y0030146D02*
X0126220Y0030146D01*
X0127018Y0029348D02*
X0129969Y0029348D01*
X0130216Y0028549D02*
X0127817Y0028549D01*
X0125487Y0022960D02*
X0021863Y0022960D01*
X0002600Y0068475D02*
X0072098Y0068475D01*
X0071299Y0069273D02*
X0002600Y0069273D01*
X0002600Y0070072D02*
X0070501Y0070072D01*
X0069702Y0070870D02*
X0002600Y0070870D01*
X0002600Y0071669D02*
X0068903Y0071669D01*
X0068105Y0072468D02*
X0002600Y0072468D01*
X0002600Y0073266D02*
X0067306Y0073266D01*
X0066553Y0074065D02*
X0002600Y0074065D01*
X0002600Y0074863D02*
X0066223Y0074863D01*
X0066159Y0075662D02*
X0002600Y0075662D01*
X0002600Y0076460D02*
X0066159Y0076460D01*
X0066159Y0077259D02*
X0002600Y0077259D01*
X0002600Y0078057D02*
X0066159Y0078057D01*
X0066159Y0078856D02*
X0002600Y0078856D01*
X0002600Y0079654D02*
X0066159Y0079654D01*
X0066159Y0080453D02*
X0002600Y0080453D01*
X0002600Y0081251D02*
X0066159Y0081251D01*
X0066159Y0082050D02*
X0002600Y0082050D01*
X0002600Y0082848D02*
X0066159Y0082848D01*
X0066159Y0083647D02*
X0002600Y0083647D01*
X0002600Y0084445D02*
X0066159Y0084445D01*
X0066159Y0085244D02*
X0002600Y0085244D01*
X0002600Y0086042D02*
X0066159Y0086042D01*
X0063253Y0086841D02*
X0002600Y0086841D01*
X0002600Y0087639D02*
X0062095Y0087639D01*
X0071759Y0086042D02*
X0112750Y0086042D01*
X0112812Y0086233D02*
X0112569Y0085484D01*
X0112446Y0084707D01*
X0112446Y0084504D01*
X0120855Y0084504D01*
X0120855Y0089313D01*
X0117052Y0089313D01*
X0116275Y0089190D01*
X0115526Y0088947D01*
X0114825Y0088590D01*
X0114188Y0088127D01*
X0113632Y0087571D01*
X0113169Y0086934D01*
X0112812Y0086233D01*
X0113122Y0086841D02*
X0074665Y0086841D01*
X0075823Y0087639D02*
X0113700Y0087639D01*
X0114616Y0088438D02*
X0076621Y0088438D01*
X0076956Y0089236D02*
X0116565Y0089236D01*
X0112531Y0085244D02*
X0071759Y0085244D01*
X0051444Y0121975D02*
X0108241Y0121975D01*
X0118684Y0104408D02*
X0140332Y0104408D01*
X0140332Y0103609D02*
X0120209Y0103609D01*
X0121007Y0102811D02*
X0140332Y0102811D01*
X0121236Y0089236D02*
X0120855Y0089236D01*
X0120855Y0088438D02*
X0121236Y0088438D01*
X0121236Y0087639D02*
X0120855Y0087639D01*
X0120855Y0086841D02*
X0121236Y0086841D01*
X0121236Y0086042D02*
X0120855Y0086042D01*
X0120855Y0085244D02*
X0121236Y0085244D01*
X0121236Y0083647D02*
X0120855Y0083647D01*
X0120855Y0082848D02*
X0121236Y0082848D01*
X0121236Y0082050D02*
X0120855Y0082050D01*
X0120855Y0081251D02*
X0121236Y0081251D01*
X0121236Y0080453D02*
X0120855Y0080453D01*
X0120855Y0079654D02*
X0121236Y0079654D01*
D21*
X0127384Y0072266D03*
X0127384Y0064392D03*
X0127384Y0052581D03*
X0135258Y0052581D03*
X0127384Y0021085D03*
X0158880Y0025022D03*
X0170691Y0005337D03*
X0194313Y0028959D03*
X0174628Y0060455D03*
X0170691Y0072266D03*
X0178565Y0072266D03*
X0190376Y0072266D03*
X0166754Y0111636D03*
X0166754Y0123447D03*
X0158880Y0123447D03*
X0158880Y0111636D03*
X0151006Y0111636D03*
X0147069Y0123447D03*
X0139195Y0123447D03*
X0139195Y0111636D03*
X0139195Y0095888D03*
X0107699Y0139195D03*
X0099825Y0139195D03*
X0091951Y0131321D03*
X0091951Y0123447D03*
X0056518Y0095888D03*
X0056518Y0084077D03*
X0044707Y0095888D03*
X0044707Y0147069D03*
X0056518Y0198250D03*
X0056518Y0206124D03*
X0044707Y0206124D03*
X0044707Y0269117D03*
X0056518Y0269117D03*
X0056518Y0276991D03*
X0080140Y0328172D03*
X0088014Y0328172D03*
X0088014Y0339983D03*
X0099825Y0328172D03*
X0099825Y0320298D03*
X0107699Y0320298D03*
X0107699Y0328172D03*
X0104943Y0343920D03*
X0109668Y0367542D03*
X0119510Y0367542D03*
X0135258Y0363605D03*
X0135258Y0355731D03*
X0135258Y0347857D03*
X0151006Y0332109D03*
X0158880Y0332109D03*
X0166754Y0332109D03*
X0143132Y0316361D03*
X0135258Y0304550D03*
X0107699Y0241557D03*
X0107699Y0233683D03*
X0099825Y0233683D03*
X0099825Y0241557D03*
X0135258Y0233683D03*
X0135258Y0221872D03*
X0147069Y0233683D03*
X0147069Y0198250D03*
X0158880Y0198250D03*
X0166754Y0198250D03*
X0194313Y0367542D03*
X0170691Y0391164D03*
X0099825Y0367542D03*
X0088014Y0367542D03*
X0005337Y0367542D03*
X0005337Y0028959D03*
X0028959Y0005337D03*
X0064392Y0021085D03*
X0095888Y0021085D03*
D22*
X0080140Y0027896D02*
X0048644Y0027896D01*
X0076203Y0068329D02*
X0068959Y0075573D01*
X0068959Y0091164D01*
X0052659Y0091164D01*
X0048644Y0095179D01*
X0048644Y0202187D01*
X0070691Y0202187D01*
X0070691Y0194313D01*
X0048644Y0202187D02*
X0048644Y0269117D01*
X0052581Y0273054D01*
X0072266Y0273054D01*
X0072266Y0280928D01*
X0066361Y0351794D02*
X0050613Y0367542D01*
X0066361Y0351794D02*
X0139195Y0351794D01*
X0154943Y0336046D01*
X0154943Y0099825D01*
X0174628Y0080140D01*
X0174628Y0060455D01*
X0178565Y0052581D02*
X0186439Y0060455D01*
X0186439Y0084077D01*
X0162817Y0107699D01*
X0162817Y0339983D01*
X0143132Y0359668D01*
X0099825Y0359668D01*
X0094825Y0364668D01*
X0094825Y0383290D01*
X0121203Y0208487D02*
X0136833Y0208487D01*
X0143132Y0202187D01*
X0143132Y0099825D01*
X0143132Y0095888D01*
X0163132Y0075888D01*
X0163132Y0068329D01*
X0163132Y0052581D02*
X0178565Y0052581D01*
X0153132Y0052581D02*
X0153132Y0042581D01*
X0154943Y0040770D01*
X0154943Y0032896D01*
X0154943Y0027030D01*
X0152936Y0025022D01*
X0127384Y0025022D01*
X0124510Y0027896D01*
X0111636Y0027896D01*
X0080140Y0027896D01*
X0076203Y0068329D02*
X0143132Y0068329D01*
X0135258Y0060455D02*
X0153132Y0060455D01*
X0153132Y0068329D01*
X0144943Y0040770D02*
X0139195Y0040770D01*
X0131321Y0048644D01*
X0131321Y0056518D01*
X0135258Y0060455D01*
X0144943Y0040770D02*
X0144943Y0032896D01*
X0143132Y0099825D02*
X0113605Y0099825D01*
D23*
X0096514Y0126912D02*
X0104943Y0135341D01*
X0104943Y0237148D01*
X0070298Y0237148D01*
X0104943Y0237148D02*
X0104943Y0323762D01*
X0070298Y0323762D01*
X0104943Y0323762D02*
X0104943Y0343920D01*
X0096514Y0126912D02*
X0070298Y0126912D01*
D24*
X0054943Y0389195D03*
X0032896Y0389195D03*
M02*
