G75*
%MOIN*%
%OFA0B0*%
%FSLAX25Y25*%
%IPPOS*%
%LPD*%
%AMOC8*
5,1,8,0,0,1.08239X$1,22.5*
%
%ADD10C,0.00000*%
%ADD11R,0.02756X0.03543*%
%ADD12R,0.02362X0.00984*%
%ADD13R,0.00984X0.02362*%
%ADD14C,0.00100*%
D10*
X0002452Y0002452D02*
X0002452Y0061507D01*
X0073318Y0061507D01*
X0073318Y0002452D01*
X0002452Y0002452D01*
X0004459Y0005050D02*
X0004461Y0005098D01*
X0004467Y0005146D01*
X0004477Y0005193D01*
X0004490Y0005239D01*
X0004508Y0005284D01*
X0004528Y0005328D01*
X0004553Y0005370D01*
X0004581Y0005409D01*
X0004611Y0005446D01*
X0004645Y0005480D01*
X0004682Y0005512D01*
X0004720Y0005541D01*
X0004761Y0005566D01*
X0004804Y0005588D01*
X0004849Y0005606D01*
X0004895Y0005620D01*
X0004942Y0005631D01*
X0004990Y0005638D01*
X0005038Y0005641D01*
X0005086Y0005640D01*
X0005134Y0005635D01*
X0005182Y0005626D01*
X0005228Y0005614D01*
X0005273Y0005597D01*
X0005317Y0005577D01*
X0005359Y0005554D01*
X0005399Y0005527D01*
X0005437Y0005497D01*
X0005472Y0005464D01*
X0005504Y0005428D01*
X0005534Y0005390D01*
X0005560Y0005349D01*
X0005582Y0005306D01*
X0005602Y0005262D01*
X0005617Y0005217D01*
X0005629Y0005170D01*
X0005637Y0005122D01*
X0005641Y0005074D01*
X0005641Y0005026D01*
X0005637Y0004978D01*
X0005629Y0004930D01*
X0005617Y0004883D01*
X0005602Y0004838D01*
X0005582Y0004794D01*
X0005560Y0004751D01*
X0005534Y0004710D01*
X0005504Y0004672D01*
X0005472Y0004636D01*
X0005437Y0004603D01*
X0005399Y0004573D01*
X0005359Y0004546D01*
X0005317Y0004523D01*
X0005273Y0004503D01*
X0005228Y0004486D01*
X0005182Y0004474D01*
X0005134Y0004465D01*
X0005086Y0004460D01*
X0005038Y0004459D01*
X0004990Y0004462D01*
X0004942Y0004469D01*
X0004895Y0004480D01*
X0004849Y0004494D01*
X0004804Y0004512D01*
X0004761Y0004534D01*
X0004720Y0004559D01*
X0004682Y0004588D01*
X0004645Y0004620D01*
X0004611Y0004654D01*
X0004581Y0004691D01*
X0004553Y0004730D01*
X0004528Y0004772D01*
X0004508Y0004816D01*
X0004490Y0004861D01*
X0004477Y0004907D01*
X0004467Y0004954D01*
X0004461Y0005002D01*
X0004459Y0005050D01*
X0004459Y0012452D02*
X0004461Y0012500D01*
X0004467Y0012548D01*
X0004477Y0012595D01*
X0004490Y0012641D01*
X0004508Y0012686D01*
X0004528Y0012730D01*
X0004553Y0012772D01*
X0004581Y0012811D01*
X0004611Y0012848D01*
X0004645Y0012882D01*
X0004682Y0012914D01*
X0004720Y0012943D01*
X0004761Y0012968D01*
X0004804Y0012990D01*
X0004849Y0013008D01*
X0004895Y0013022D01*
X0004942Y0013033D01*
X0004990Y0013040D01*
X0005038Y0013043D01*
X0005086Y0013042D01*
X0005134Y0013037D01*
X0005182Y0013028D01*
X0005228Y0013016D01*
X0005273Y0012999D01*
X0005317Y0012979D01*
X0005359Y0012956D01*
X0005399Y0012929D01*
X0005437Y0012899D01*
X0005472Y0012866D01*
X0005504Y0012830D01*
X0005534Y0012792D01*
X0005560Y0012751D01*
X0005582Y0012708D01*
X0005602Y0012664D01*
X0005617Y0012619D01*
X0005629Y0012572D01*
X0005637Y0012524D01*
X0005641Y0012476D01*
X0005641Y0012428D01*
X0005637Y0012380D01*
X0005629Y0012332D01*
X0005617Y0012285D01*
X0005602Y0012240D01*
X0005582Y0012196D01*
X0005560Y0012153D01*
X0005534Y0012112D01*
X0005504Y0012074D01*
X0005472Y0012038D01*
X0005437Y0012005D01*
X0005399Y0011975D01*
X0005359Y0011948D01*
X0005317Y0011925D01*
X0005273Y0011905D01*
X0005228Y0011888D01*
X0005182Y0011876D01*
X0005134Y0011867D01*
X0005086Y0011862D01*
X0005038Y0011861D01*
X0004990Y0011864D01*
X0004942Y0011871D01*
X0004895Y0011882D01*
X0004849Y0011896D01*
X0004804Y0011914D01*
X0004761Y0011936D01*
X0004720Y0011961D01*
X0004682Y0011990D01*
X0004645Y0012022D01*
X0004611Y0012056D01*
X0004581Y0012093D01*
X0004553Y0012132D01*
X0004528Y0012174D01*
X0004508Y0012218D01*
X0004490Y0012263D01*
X0004477Y0012309D01*
X0004467Y0012356D01*
X0004461Y0012404D01*
X0004459Y0012452D01*
X0011861Y0012452D02*
X0011863Y0012500D01*
X0011869Y0012548D01*
X0011879Y0012595D01*
X0011892Y0012641D01*
X0011910Y0012686D01*
X0011930Y0012730D01*
X0011955Y0012772D01*
X0011983Y0012811D01*
X0012013Y0012848D01*
X0012047Y0012882D01*
X0012084Y0012914D01*
X0012122Y0012943D01*
X0012163Y0012968D01*
X0012206Y0012990D01*
X0012251Y0013008D01*
X0012297Y0013022D01*
X0012344Y0013033D01*
X0012392Y0013040D01*
X0012440Y0013043D01*
X0012488Y0013042D01*
X0012536Y0013037D01*
X0012584Y0013028D01*
X0012630Y0013016D01*
X0012675Y0012999D01*
X0012719Y0012979D01*
X0012761Y0012956D01*
X0012801Y0012929D01*
X0012839Y0012899D01*
X0012874Y0012866D01*
X0012906Y0012830D01*
X0012936Y0012792D01*
X0012962Y0012751D01*
X0012984Y0012708D01*
X0013004Y0012664D01*
X0013019Y0012619D01*
X0013031Y0012572D01*
X0013039Y0012524D01*
X0013043Y0012476D01*
X0013043Y0012428D01*
X0013039Y0012380D01*
X0013031Y0012332D01*
X0013019Y0012285D01*
X0013004Y0012240D01*
X0012984Y0012196D01*
X0012962Y0012153D01*
X0012936Y0012112D01*
X0012906Y0012074D01*
X0012874Y0012038D01*
X0012839Y0012005D01*
X0012801Y0011975D01*
X0012761Y0011948D01*
X0012719Y0011925D01*
X0012675Y0011905D01*
X0012630Y0011888D01*
X0012584Y0011876D01*
X0012536Y0011867D01*
X0012488Y0011862D01*
X0012440Y0011861D01*
X0012392Y0011864D01*
X0012344Y0011871D01*
X0012297Y0011882D01*
X0012251Y0011896D01*
X0012206Y0011914D01*
X0012163Y0011936D01*
X0012122Y0011961D01*
X0012084Y0011990D01*
X0012047Y0012022D01*
X0012013Y0012056D01*
X0011983Y0012093D01*
X0011955Y0012132D01*
X0011930Y0012174D01*
X0011910Y0012218D01*
X0011892Y0012263D01*
X0011879Y0012309D01*
X0011869Y0012356D01*
X0011863Y0012404D01*
X0011861Y0012452D01*
X0011861Y0005050D02*
X0011863Y0005098D01*
X0011869Y0005146D01*
X0011879Y0005193D01*
X0011892Y0005239D01*
X0011910Y0005284D01*
X0011930Y0005328D01*
X0011955Y0005370D01*
X0011983Y0005409D01*
X0012013Y0005446D01*
X0012047Y0005480D01*
X0012084Y0005512D01*
X0012122Y0005541D01*
X0012163Y0005566D01*
X0012206Y0005588D01*
X0012251Y0005606D01*
X0012297Y0005620D01*
X0012344Y0005631D01*
X0012392Y0005638D01*
X0012440Y0005641D01*
X0012488Y0005640D01*
X0012536Y0005635D01*
X0012584Y0005626D01*
X0012630Y0005614D01*
X0012675Y0005597D01*
X0012719Y0005577D01*
X0012761Y0005554D01*
X0012801Y0005527D01*
X0012839Y0005497D01*
X0012874Y0005464D01*
X0012906Y0005428D01*
X0012936Y0005390D01*
X0012962Y0005349D01*
X0012984Y0005306D01*
X0013004Y0005262D01*
X0013019Y0005217D01*
X0013031Y0005170D01*
X0013039Y0005122D01*
X0013043Y0005074D01*
X0013043Y0005026D01*
X0013039Y0004978D01*
X0013031Y0004930D01*
X0013019Y0004883D01*
X0013004Y0004838D01*
X0012984Y0004794D01*
X0012962Y0004751D01*
X0012936Y0004710D01*
X0012906Y0004672D01*
X0012874Y0004636D01*
X0012839Y0004603D01*
X0012801Y0004573D01*
X0012761Y0004546D01*
X0012719Y0004523D01*
X0012675Y0004503D01*
X0012630Y0004486D01*
X0012584Y0004474D01*
X0012536Y0004465D01*
X0012488Y0004460D01*
X0012440Y0004459D01*
X0012392Y0004462D01*
X0012344Y0004469D01*
X0012297Y0004480D01*
X0012251Y0004494D01*
X0012206Y0004512D01*
X0012163Y0004534D01*
X0012122Y0004559D01*
X0012084Y0004588D01*
X0012047Y0004620D01*
X0012013Y0004654D01*
X0011983Y0004691D01*
X0011955Y0004730D01*
X0011930Y0004772D01*
X0011910Y0004816D01*
X0011892Y0004861D01*
X0011879Y0004907D01*
X0011869Y0004954D01*
X0011863Y0005002D01*
X0011861Y0005050D01*
X0021782Y0005050D02*
X0021784Y0005098D01*
X0021790Y0005146D01*
X0021800Y0005193D01*
X0021813Y0005239D01*
X0021831Y0005284D01*
X0021851Y0005328D01*
X0021876Y0005370D01*
X0021904Y0005409D01*
X0021934Y0005446D01*
X0021968Y0005480D01*
X0022005Y0005512D01*
X0022043Y0005541D01*
X0022084Y0005566D01*
X0022127Y0005588D01*
X0022172Y0005606D01*
X0022218Y0005620D01*
X0022265Y0005631D01*
X0022313Y0005638D01*
X0022361Y0005641D01*
X0022409Y0005640D01*
X0022457Y0005635D01*
X0022505Y0005626D01*
X0022551Y0005614D01*
X0022596Y0005597D01*
X0022640Y0005577D01*
X0022682Y0005554D01*
X0022722Y0005527D01*
X0022760Y0005497D01*
X0022795Y0005464D01*
X0022827Y0005428D01*
X0022857Y0005390D01*
X0022883Y0005349D01*
X0022905Y0005306D01*
X0022925Y0005262D01*
X0022940Y0005217D01*
X0022952Y0005170D01*
X0022960Y0005122D01*
X0022964Y0005074D01*
X0022964Y0005026D01*
X0022960Y0004978D01*
X0022952Y0004930D01*
X0022940Y0004883D01*
X0022925Y0004838D01*
X0022905Y0004794D01*
X0022883Y0004751D01*
X0022857Y0004710D01*
X0022827Y0004672D01*
X0022795Y0004636D01*
X0022760Y0004603D01*
X0022722Y0004573D01*
X0022682Y0004546D01*
X0022640Y0004523D01*
X0022596Y0004503D01*
X0022551Y0004486D01*
X0022505Y0004474D01*
X0022457Y0004465D01*
X0022409Y0004460D01*
X0022361Y0004459D01*
X0022313Y0004462D01*
X0022265Y0004469D01*
X0022218Y0004480D01*
X0022172Y0004494D01*
X0022127Y0004512D01*
X0022084Y0004534D01*
X0022043Y0004559D01*
X0022005Y0004588D01*
X0021968Y0004620D01*
X0021934Y0004654D01*
X0021904Y0004691D01*
X0021876Y0004730D01*
X0021851Y0004772D01*
X0021831Y0004816D01*
X0021813Y0004861D01*
X0021800Y0004907D01*
X0021790Y0004954D01*
X0021784Y0005002D01*
X0021782Y0005050D01*
X0029183Y0005050D02*
X0029185Y0005098D01*
X0029191Y0005146D01*
X0029201Y0005193D01*
X0029214Y0005239D01*
X0029232Y0005284D01*
X0029252Y0005328D01*
X0029277Y0005370D01*
X0029305Y0005409D01*
X0029335Y0005446D01*
X0029369Y0005480D01*
X0029406Y0005512D01*
X0029444Y0005541D01*
X0029485Y0005566D01*
X0029528Y0005588D01*
X0029573Y0005606D01*
X0029619Y0005620D01*
X0029666Y0005631D01*
X0029714Y0005638D01*
X0029762Y0005641D01*
X0029810Y0005640D01*
X0029858Y0005635D01*
X0029906Y0005626D01*
X0029952Y0005614D01*
X0029997Y0005597D01*
X0030041Y0005577D01*
X0030083Y0005554D01*
X0030123Y0005527D01*
X0030161Y0005497D01*
X0030196Y0005464D01*
X0030228Y0005428D01*
X0030258Y0005390D01*
X0030284Y0005349D01*
X0030306Y0005306D01*
X0030326Y0005262D01*
X0030341Y0005217D01*
X0030353Y0005170D01*
X0030361Y0005122D01*
X0030365Y0005074D01*
X0030365Y0005026D01*
X0030361Y0004978D01*
X0030353Y0004930D01*
X0030341Y0004883D01*
X0030326Y0004838D01*
X0030306Y0004794D01*
X0030284Y0004751D01*
X0030258Y0004710D01*
X0030228Y0004672D01*
X0030196Y0004636D01*
X0030161Y0004603D01*
X0030123Y0004573D01*
X0030083Y0004546D01*
X0030041Y0004523D01*
X0029997Y0004503D01*
X0029952Y0004486D01*
X0029906Y0004474D01*
X0029858Y0004465D01*
X0029810Y0004460D01*
X0029762Y0004459D01*
X0029714Y0004462D01*
X0029666Y0004469D01*
X0029619Y0004480D01*
X0029573Y0004494D01*
X0029528Y0004512D01*
X0029485Y0004534D01*
X0029444Y0004559D01*
X0029406Y0004588D01*
X0029369Y0004620D01*
X0029335Y0004654D01*
X0029305Y0004691D01*
X0029277Y0004730D01*
X0029252Y0004772D01*
X0029232Y0004816D01*
X0029214Y0004861D01*
X0029201Y0004907D01*
X0029191Y0004954D01*
X0029185Y0005002D01*
X0029183Y0005050D01*
X0029183Y0012452D02*
X0029185Y0012500D01*
X0029191Y0012548D01*
X0029201Y0012595D01*
X0029214Y0012641D01*
X0029232Y0012686D01*
X0029252Y0012730D01*
X0029277Y0012772D01*
X0029305Y0012811D01*
X0029335Y0012848D01*
X0029369Y0012882D01*
X0029406Y0012914D01*
X0029444Y0012943D01*
X0029485Y0012968D01*
X0029528Y0012990D01*
X0029573Y0013008D01*
X0029619Y0013022D01*
X0029666Y0013033D01*
X0029714Y0013040D01*
X0029762Y0013043D01*
X0029810Y0013042D01*
X0029858Y0013037D01*
X0029906Y0013028D01*
X0029952Y0013016D01*
X0029997Y0012999D01*
X0030041Y0012979D01*
X0030083Y0012956D01*
X0030123Y0012929D01*
X0030161Y0012899D01*
X0030196Y0012866D01*
X0030228Y0012830D01*
X0030258Y0012792D01*
X0030284Y0012751D01*
X0030306Y0012708D01*
X0030326Y0012664D01*
X0030341Y0012619D01*
X0030353Y0012572D01*
X0030361Y0012524D01*
X0030365Y0012476D01*
X0030365Y0012428D01*
X0030361Y0012380D01*
X0030353Y0012332D01*
X0030341Y0012285D01*
X0030326Y0012240D01*
X0030306Y0012196D01*
X0030284Y0012153D01*
X0030258Y0012112D01*
X0030228Y0012074D01*
X0030196Y0012038D01*
X0030161Y0012005D01*
X0030123Y0011975D01*
X0030083Y0011948D01*
X0030041Y0011925D01*
X0029997Y0011905D01*
X0029952Y0011888D01*
X0029906Y0011876D01*
X0029858Y0011867D01*
X0029810Y0011862D01*
X0029762Y0011861D01*
X0029714Y0011864D01*
X0029666Y0011871D01*
X0029619Y0011882D01*
X0029573Y0011896D01*
X0029528Y0011914D01*
X0029485Y0011936D01*
X0029444Y0011961D01*
X0029406Y0011990D01*
X0029369Y0012022D01*
X0029335Y0012056D01*
X0029305Y0012093D01*
X0029277Y0012132D01*
X0029252Y0012174D01*
X0029232Y0012218D01*
X0029214Y0012263D01*
X0029201Y0012309D01*
X0029191Y0012356D01*
X0029185Y0012404D01*
X0029183Y0012452D01*
X0021782Y0012452D02*
X0021784Y0012500D01*
X0021790Y0012548D01*
X0021800Y0012595D01*
X0021813Y0012641D01*
X0021831Y0012686D01*
X0021851Y0012730D01*
X0021876Y0012772D01*
X0021904Y0012811D01*
X0021934Y0012848D01*
X0021968Y0012882D01*
X0022005Y0012914D01*
X0022043Y0012943D01*
X0022084Y0012968D01*
X0022127Y0012990D01*
X0022172Y0013008D01*
X0022218Y0013022D01*
X0022265Y0013033D01*
X0022313Y0013040D01*
X0022361Y0013043D01*
X0022409Y0013042D01*
X0022457Y0013037D01*
X0022505Y0013028D01*
X0022551Y0013016D01*
X0022596Y0012999D01*
X0022640Y0012979D01*
X0022682Y0012956D01*
X0022722Y0012929D01*
X0022760Y0012899D01*
X0022795Y0012866D01*
X0022827Y0012830D01*
X0022857Y0012792D01*
X0022883Y0012751D01*
X0022905Y0012708D01*
X0022925Y0012664D01*
X0022940Y0012619D01*
X0022952Y0012572D01*
X0022960Y0012524D01*
X0022964Y0012476D01*
X0022964Y0012428D01*
X0022960Y0012380D01*
X0022952Y0012332D01*
X0022940Y0012285D01*
X0022925Y0012240D01*
X0022905Y0012196D01*
X0022883Y0012153D01*
X0022857Y0012112D01*
X0022827Y0012074D01*
X0022795Y0012038D01*
X0022760Y0012005D01*
X0022722Y0011975D01*
X0022682Y0011948D01*
X0022640Y0011925D01*
X0022596Y0011905D01*
X0022551Y0011888D01*
X0022505Y0011876D01*
X0022457Y0011867D01*
X0022409Y0011862D01*
X0022361Y0011861D01*
X0022313Y0011864D01*
X0022265Y0011871D01*
X0022218Y0011882D01*
X0022172Y0011896D01*
X0022127Y0011914D01*
X0022084Y0011936D01*
X0022043Y0011961D01*
X0022005Y0011990D01*
X0021968Y0012022D01*
X0021934Y0012056D01*
X0021904Y0012093D01*
X0021876Y0012132D01*
X0021851Y0012174D01*
X0021831Y0012218D01*
X0021813Y0012263D01*
X0021800Y0012309D01*
X0021790Y0012356D01*
X0021784Y0012404D01*
X0021782Y0012452D01*
X0045404Y0012452D02*
X0045406Y0012500D01*
X0045412Y0012548D01*
X0045422Y0012595D01*
X0045435Y0012641D01*
X0045453Y0012686D01*
X0045473Y0012730D01*
X0045498Y0012772D01*
X0045526Y0012811D01*
X0045556Y0012848D01*
X0045590Y0012882D01*
X0045627Y0012914D01*
X0045665Y0012943D01*
X0045706Y0012968D01*
X0045749Y0012990D01*
X0045794Y0013008D01*
X0045840Y0013022D01*
X0045887Y0013033D01*
X0045935Y0013040D01*
X0045983Y0013043D01*
X0046031Y0013042D01*
X0046079Y0013037D01*
X0046127Y0013028D01*
X0046173Y0013016D01*
X0046218Y0012999D01*
X0046262Y0012979D01*
X0046304Y0012956D01*
X0046344Y0012929D01*
X0046382Y0012899D01*
X0046417Y0012866D01*
X0046449Y0012830D01*
X0046479Y0012792D01*
X0046505Y0012751D01*
X0046527Y0012708D01*
X0046547Y0012664D01*
X0046562Y0012619D01*
X0046574Y0012572D01*
X0046582Y0012524D01*
X0046586Y0012476D01*
X0046586Y0012428D01*
X0046582Y0012380D01*
X0046574Y0012332D01*
X0046562Y0012285D01*
X0046547Y0012240D01*
X0046527Y0012196D01*
X0046505Y0012153D01*
X0046479Y0012112D01*
X0046449Y0012074D01*
X0046417Y0012038D01*
X0046382Y0012005D01*
X0046344Y0011975D01*
X0046304Y0011948D01*
X0046262Y0011925D01*
X0046218Y0011905D01*
X0046173Y0011888D01*
X0046127Y0011876D01*
X0046079Y0011867D01*
X0046031Y0011862D01*
X0045983Y0011861D01*
X0045935Y0011864D01*
X0045887Y0011871D01*
X0045840Y0011882D01*
X0045794Y0011896D01*
X0045749Y0011914D01*
X0045706Y0011936D01*
X0045665Y0011961D01*
X0045627Y0011990D01*
X0045590Y0012022D01*
X0045556Y0012056D01*
X0045526Y0012093D01*
X0045498Y0012132D01*
X0045473Y0012174D01*
X0045453Y0012218D01*
X0045435Y0012263D01*
X0045422Y0012309D01*
X0045412Y0012356D01*
X0045406Y0012404D01*
X0045404Y0012452D01*
X0052805Y0012452D02*
X0052807Y0012500D01*
X0052813Y0012548D01*
X0052823Y0012595D01*
X0052836Y0012641D01*
X0052854Y0012686D01*
X0052874Y0012730D01*
X0052899Y0012772D01*
X0052927Y0012811D01*
X0052957Y0012848D01*
X0052991Y0012882D01*
X0053028Y0012914D01*
X0053066Y0012943D01*
X0053107Y0012968D01*
X0053150Y0012990D01*
X0053195Y0013008D01*
X0053241Y0013022D01*
X0053288Y0013033D01*
X0053336Y0013040D01*
X0053384Y0013043D01*
X0053432Y0013042D01*
X0053480Y0013037D01*
X0053528Y0013028D01*
X0053574Y0013016D01*
X0053619Y0012999D01*
X0053663Y0012979D01*
X0053705Y0012956D01*
X0053745Y0012929D01*
X0053783Y0012899D01*
X0053818Y0012866D01*
X0053850Y0012830D01*
X0053880Y0012792D01*
X0053906Y0012751D01*
X0053928Y0012708D01*
X0053948Y0012664D01*
X0053963Y0012619D01*
X0053975Y0012572D01*
X0053983Y0012524D01*
X0053987Y0012476D01*
X0053987Y0012428D01*
X0053983Y0012380D01*
X0053975Y0012332D01*
X0053963Y0012285D01*
X0053948Y0012240D01*
X0053928Y0012196D01*
X0053906Y0012153D01*
X0053880Y0012112D01*
X0053850Y0012074D01*
X0053818Y0012038D01*
X0053783Y0012005D01*
X0053745Y0011975D01*
X0053705Y0011948D01*
X0053663Y0011925D01*
X0053619Y0011905D01*
X0053574Y0011888D01*
X0053528Y0011876D01*
X0053480Y0011867D01*
X0053432Y0011862D01*
X0053384Y0011861D01*
X0053336Y0011864D01*
X0053288Y0011871D01*
X0053241Y0011882D01*
X0053195Y0011896D01*
X0053150Y0011914D01*
X0053107Y0011936D01*
X0053066Y0011961D01*
X0053028Y0011990D01*
X0052991Y0012022D01*
X0052957Y0012056D01*
X0052927Y0012093D01*
X0052899Y0012132D01*
X0052874Y0012174D01*
X0052854Y0012218D01*
X0052836Y0012263D01*
X0052823Y0012309D01*
X0052813Y0012356D01*
X0052807Y0012404D01*
X0052805Y0012452D01*
X0052805Y0005050D02*
X0052807Y0005098D01*
X0052813Y0005146D01*
X0052823Y0005193D01*
X0052836Y0005239D01*
X0052854Y0005284D01*
X0052874Y0005328D01*
X0052899Y0005370D01*
X0052927Y0005409D01*
X0052957Y0005446D01*
X0052991Y0005480D01*
X0053028Y0005512D01*
X0053066Y0005541D01*
X0053107Y0005566D01*
X0053150Y0005588D01*
X0053195Y0005606D01*
X0053241Y0005620D01*
X0053288Y0005631D01*
X0053336Y0005638D01*
X0053384Y0005641D01*
X0053432Y0005640D01*
X0053480Y0005635D01*
X0053528Y0005626D01*
X0053574Y0005614D01*
X0053619Y0005597D01*
X0053663Y0005577D01*
X0053705Y0005554D01*
X0053745Y0005527D01*
X0053783Y0005497D01*
X0053818Y0005464D01*
X0053850Y0005428D01*
X0053880Y0005390D01*
X0053906Y0005349D01*
X0053928Y0005306D01*
X0053948Y0005262D01*
X0053963Y0005217D01*
X0053975Y0005170D01*
X0053983Y0005122D01*
X0053987Y0005074D01*
X0053987Y0005026D01*
X0053983Y0004978D01*
X0053975Y0004930D01*
X0053963Y0004883D01*
X0053948Y0004838D01*
X0053928Y0004794D01*
X0053906Y0004751D01*
X0053880Y0004710D01*
X0053850Y0004672D01*
X0053818Y0004636D01*
X0053783Y0004603D01*
X0053745Y0004573D01*
X0053705Y0004546D01*
X0053663Y0004523D01*
X0053619Y0004503D01*
X0053574Y0004486D01*
X0053528Y0004474D01*
X0053480Y0004465D01*
X0053432Y0004460D01*
X0053384Y0004459D01*
X0053336Y0004462D01*
X0053288Y0004469D01*
X0053241Y0004480D01*
X0053195Y0004494D01*
X0053150Y0004512D01*
X0053107Y0004534D01*
X0053066Y0004559D01*
X0053028Y0004588D01*
X0052991Y0004620D01*
X0052957Y0004654D01*
X0052927Y0004691D01*
X0052899Y0004730D01*
X0052874Y0004772D01*
X0052854Y0004816D01*
X0052836Y0004861D01*
X0052823Y0004907D01*
X0052813Y0004954D01*
X0052807Y0005002D01*
X0052805Y0005050D01*
X0045404Y0005050D02*
X0045406Y0005098D01*
X0045412Y0005146D01*
X0045422Y0005193D01*
X0045435Y0005239D01*
X0045453Y0005284D01*
X0045473Y0005328D01*
X0045498Y0005370D01*
X0045526Y0005409D01*
X0045556Y0005446D01*
X0045590Y0005480D01*
X0045627Y0005512D01*
X0045665Y0005541D01*
X0045706Y0005566D01*
X0045749Y0005588D01*
X0045794Y0005606D01*
X0045840Y0005620D01*
X0045887Y0005631D01*
X0045935Y0005638D01*
X0045983Y0005641D01*
X0046031Y0005640D01*
X0046079Y0005635D01*
X0046127Y0005626D01*
X0046173Y0005614D01*
X0046218Y0005597D01*
X0046262Y0005577D01*
X0046304Y0005554D01*
X0046344Y0005527D01*
X0046382Y0005497D01*
X0046417Y0005464D01*
X0046449Y0005428D01*
X0046479Y0005390D01*
X0046505Y0005349D01*
X0046527Y0005306D01*
X0046547Y0005262D01*
X0046562Y0005217D01*
X0046574Y0005170D01*
X0046582Y0005122D01*
X0046586Y0005074D01*
X0046586Y0005026D01*
X0046582Y0004978D01*
X0046574Y0004930D01*
X0046562Y0004883D01*
X0046547Y0004838D01*
X0046527Y0004794D01*
X0046505Y0004751D01*
X0046479Y0004710D01*
X0046449Y0004672D01*
X0046417Y0004636D01*
X0046382Y0004603D01*
X0046344Y0004573D01*
X0046304Y0004546D01*
X0046262Y0004523D01*
X0046218Y0004503D01*
X0046173Y0004486D01*
X0046127Y0004474D01*
X0046079Y0004465D01*
X0046031Y0004460D01*
X0045983Y0004459D01*
X0045935Y0004462D01*
X0045887Y0004469D01*
X0045840Y0004480D01*
X0045794Y0004494D01*
X0045749Y0004512D01*
X0045706Y0004534D01*
X0045665Y0004559D01*
X0045627Y0004588D01*
X0045590Y0004620D01*
X0045556Y0004654D01*
X0045526Y0004691D01*
X0045498Y0004730D01*
X0045473Y0004772D01*
X0045453Y0004816D01*
X0045435Y0004861D01*
X0045422Y0004907D01*
X0045412Y0004954D01*
X0045406Y0005002D01*
X0045404Y0005050D01*
X0062727Y0005050D02*
X0062729Y0005098D01*
X0062735Y0005146D01*
X0062745Y0005193D01*
X0062758Y0005239D01*
X0062776Y0005284D01*
X0062796Y0005328D01*
X0062821Y0005370D01*
X0062849Y0005409D01*
X0062879Y0005446D01*
X0062913Y0005480D01*
X0062950Y0005512D01*
X0062988Y0005541D01*
X0063029Y0005566D01*
X0063072Y0005588D01*
X0063117Y0005606D01*
X0063163Y0005620D01*
X0063210Y0005631D01*
X0063258Y0005638D01*
X0063306Y0005641D01*
X0063354Y0005640D01*
X0063402Y0005635D01*
X0063450Y0005626D01*
X0063496Y0005614D01*
X0063541Y0005597D01*
X0063585Y0005577D01*
X0063627Y0005554D01*
X0063667Y0005527D01*
X0063705Y0005497D01*
X0063740Y0005464D01*
X0063772Y0005428D01*
X0063802Y0005390D01*
X0063828Y0005349D01*
X0063850Y0005306D01*
X0063870Y0005262D01*
X0063885Y0005217D01*
X0063897Y0005170D01*
X0063905Y0005122D01*
X0063909Y0005074D01*
X0063909Y0005026D01*
X0063905Y0004978D01*
X0063897Y0004930D01*
X0063885Y0004883D01*
X0063870Y0004838D01*
X0063850Y0004794D01*
X0063828Y0004751D01*
X0063802Y0004710D01*
X0063772Y0004672D01*
X0063740Y0004636D01*
X0063705Y0004603D01*
X0063667Y0004573D01*
X0063627Y0004546D01*
X0063585Y0004523D01*
X0063541Y0004503D01*
X0063496Y0004486D01*
X0063450Y0004474D01*
X0063402Y0004465D01*
X0063354Y0004460D01*
X0063306Y0004459D01*
X0063258Y0004462D01*
X0063210Y0004469D01*
X0063163Y0004480D01*
X0063117Y0004494D01*
X0063072Y0004512D01*
X0063029Y0004534D01*
X0062988Y0004559D01*
X0062950Y0004588D01*
X0062913Y0004620D01*
X0062879Y0004654D01*
X0062849Y0004691D01*
X0062821Y0004730D01*
X0062796Y0004772D01*
X0062776Y0004816D01*
X0062758Y0004861D01*
X0062745Y0004907D01*
X0062735Y0004954D01*
X0062729Y0005002D01*
X0062727Y0005050D01*
X0062727Y0012452D02*
X0062729Y0012500D01*
X0062735Y0012548D01*
X0062745Y0012595D01*
X0062758Y0012641D01*
X0062776Y0012686D01*
X0062796Y0012730D01*
X0062821Y0012772D01*
X0062849Y0012811D01*
X0062879Y0012848D01*
X0062913Y0012882D01*
X0062950Y0012914D01*
X0062988Y0012943D01*
X0063029Y0012968D01*
X0063072Y0012990D01*
X0063117Y0013008D01*
X0063163Y0013022D01*
X0063210Y0013033D01*
X0063258Y0013040D01*
X0063306Y0013043D01*
X0063354Y0013042D01*
X0063402Y0013037D01*
X0063450Y0013028D01*
X0063496Y0013016D01*
X0063541Y0012999D01*
X0063585Y0012979D01*
X0063627Y0012956D01*
X0063667Y0012929D01*
X0063705Y0012899D01*
X0063740Y0012866D01*
X0063772Y0012830D01*
X0063802Y0012792D01*
X0063828Y0012751D01*
X0063850Y0012708D01*
X0063870Y0012664D01*
X0063885Y0012619D01*
X0063897Y0012572D01*
X0063905Y0012524D01*
X0063909Y0012476D01*
X0063909Y0012428D01*
X0063905Y0012380D01*
X0063897Y0012332D01*
X0063885Y0012285D01*
X0063870Y0012240D01*
X0063850Y0012196D01*
X0063828Y0012153D01*
X0063802Y0012112D01*
X0063772Y0012074D01*
X0063740Y0012038D01*
X0063705Y0012005D01*
X0063667Y0011975D01*
X0063627Y0011948D01*
X0063585Y0011925D01*
X0063541Y0011905D01*
X0063496Y0011888D01*
X0063450Y0011876D01*
X0063402Y0011867D01*
X0063354Y0011862D01*
X0063306Y0011861D01*
X0063258Y0011864D01*
X0063210Y0011871D01*
X0063163Y0011882D01*
X0063117Y0011896D01*
X0063072Y0011914D01*
X0063029Y0011936D01*
X0062988Y0011961D01*
X0062950Y0011990D01*
X0062913Y0012022D01*
X0062879Y0012056D01*
X0062849Y0012093D01*
X0062821Y0012132D01*
X0062796Y0012174D01*
X0062776Y0012218D01*
X0062758Y0012263D01*
X0062745Y0012309D01*
X0062735Y0012356D01*
X0062729Y0012404D01*
X0062727Y0012452D01*
X0070128Y0012452D02*
X0070130Y0012500D01*
X0070136Y0012548D01*
X0070146Y0012595D01*
X0070159Y0012641D01*
X0070177Y0012686D01*
X0070197Y0012730D01*
X0070222Y0012772D01*
X0070250Y0012811D01*
X0070280Y0012848D01*
X0070314Y0012882D01*
X0070351Y0012914D01*
X0070389Y0012943D01*
X0070430Y0012968D01*
X0070473Y0012990D01*
X0070518Y0013008D01*
X0070564Y0013022D01*
X0070611Y0013033D01*
X0070659Y0013040D01*
X0070707Y0013043D01*
X0070755Y0013042D01*
X0070803Y0013037D01*
X0070851Y0013028D01*
X0070897Y0013016D01*
X0070942Y0012999D01*
X0070986Y0012979D01*
X0071028Y0012956D01*
X0071068Y0012929D01*
X0071106Y0012899D01*
X0071141Y0012866D01*
X0071173Y0012830D01*
X0071203Y0012792D01*
X0071229Y0012751D01*
X0071251Y0012708D01*
X0071271Y0012664D01*
X0071286Y0012619D01*
X0071298Y0012572D01*
X0071306Y0012524D01*
X0071310Y0012476D01*
X0071310Y0012428D01*
X0071306Y0012380D01*
X0071298Y0012332D01*
X0071286Y0012285D01*
X0071271Y0012240D01*
X0071251Y0012196D01*
X0071229Y0012153D01*
X0071203Y0012112D01*
X0071173Y0012074D01*
X0071141Y0012038D01*
X0071106Y0012005D01*
X0071068Y0011975D01*
X0071028Y0011948D01*
X0070986Y0011925D01*
X0070942Y0011905D01*
X0070897Y0011888D01*
X0070851Y0011876D01*
X0070803Y0011867D01*
X0070755Y0011862D01*
X0070707Y0011861D01*
X0070659Y0011864D01*
X0070611Y0011871D01*
X0070564Y0011882D01*
X0070518Y0011896D01*
X0070473Y0011914D01*
X0070430Y0011936D01*
X0070389Y0011961D01*
X0070351Y0011990D01*
X0070314Y0012022D01*
X0070280Y0012056D01*
X0070250Y0012093D01*
X0070222Y0012132D01*
X0070197Y0012174D01*
X0070177Y0012218D01*
X0070159Y0012263D01*
X0070146Y0012309D01*
X0070136Y0012356D01*
X0070130Y0012404D01*
X0070128Y0012452D01*
X0070128Y0005050D02*
X0070130Y0005098D01*
X0070136Y0005146D01*
X0070146Y0005193D01*
X0070159Y0005239D01*
X0070177Y0005284D01*
X0070197Y0005328D01*
X0070222Y0005370D01*
X0070250Y0005409D01*
X0070280Y0005446D01*
X0070314Y0005480D01*
X0070351Y0005512D01*
X0070389Y0005541D01*
X0070430Y0005566D01*
X0070473Y0005588D01*
X0070518Y0005606D01*
X0070564Y0005620D01*
X0070611Y0005631D01*
X0070659Y0005638D01*
X0070707Y0005641D01*
X0070755Y0005640D01*
X0070803Y0005635D01*
X0070851Y0005626D01*
X0070897Y0005614D01*
X0070942Y0005597D01*
X0070986Y0005577D01*
X0071028Y0005554D01*
X0071068Y0005527D01*
X0071106Y0005497D01*
X0071141Y0005464D01*
X0071173Y0005428D01*
X0071203Y0005390D01*
X0071229Y0005349D01*
X0071251Y0005306D01*
X0071271Y0005262D01*
X0071286Y0005217D01*
X0071298Y0005170D01*
X0071306Y0005122D01*
X0071310Y0005074D01*
X0071310Y0005026D01*
X0071306Y0004978D01*
X0071298Y0004930D01*
X0071286Y0004883D01*
X0071271Y0004838D01*
X0071251Y0004794D01*
X0071229Y0004751D01*
X0071203Y0004710D01*
X0071173Y0004672D01*
X0071141Y0004636D01*
X0071106Y0004603D01*
X0071068Y0004573D01*
X0071028Y0004546D01*
X0070986Y0004523D01*
X0070942Y0004503D01*
X0070897Y0004486D01*
X0070851Y0004474D01*
X0070803Y0004465D01*
X0070755Y0004460D01*
X0070707Y0004459D01*
X0070659Y0004462D01*
X0070611Y0004469D01*
X0070564Y0004480D01*
X0070518Y0004494D01*
X0070473Y0004512D01*
X0070430Y0004534D01*
X0070389Y0004559D01*
X0070351Y0004588D01*
X0070314Y0004620D01*
X0070280Y0004654D01*
X0070250Y0004691D01*
X0070222Y0004730D01*
X0070197Y0004772D01*
X0070177Y0004816D01*
X0070159Y0004861D01*
X0070146Y0004907D01*
X0070136Y0004954D01*
X0070130Y0005002D01*
X0070128Y0005050D01*
X0070128Y0038121D02*
X0070130Y0038169D01*
X0070136Y0038217D01*
X0070146Y0038264D01*
X0070159Y0038310D01*
X0070177Y0038355D01*
X0070197Y0038399D01*
X0070222Y0038441D01*
X0070250Y0038480D01*
X0070280Y0038517D01*
X0070314Y0038551D01*
X0070351Y0038583D01*
X0070389Y0038612D01*
X0070430Y0038637D01*
X0070473Y0038659D01*
X0070518Y0038677D01*
X0070564Y0038691D01*
X0070611Y0038702D01*
X0070659Y0038709D01*
X0070707Y0038712D01*
X0070755Y0038711D01*
X0070803Y0038706D01*
X0070851Y0038697D01*
X0070897Y0038685D01*
X0070942Y0038668D01*
X0070986Y0038648D01*
X0071028Y0038625D01*
X0071068Y0038598D01*
X0071106Y0038568D01*
X0071141Y0038535D01*
X0071173Y0038499D01*
X0071203Y0038461D01*
X0071229Y0038420D01*
X0071251Y0038377D01*
X0071271Y0038333D01*
X0071286Y0038288D01*
X0071298Y0038241D01*
X0071306Y0038193D01*
X0071310Y0038145D01*
X0071310Y0038097D01*
X0071306Y0038049D01*
X0071298Y0038001D01*
X0071286Y0037954D01*
X0071271Y0037909D01*
X0071251Y0037865D01*
X0071229Y0037822D01*
X0071203Y0037781D01*
X0071173Y0037743D01*
X0071141Y0037707D01*
X0071106Y0037674D01*
X0071068Y0037644D01*
X0071028Y0037617D01*
X0070986Y0037594D01*
X0070942Y0037574D01*
X0070897Y0037557D01*
X0070851Y0037545D01*
X0070803Y0037536D01*
X0070755Y0037531D01*
X0070707Y0037530D01*
X0070659Y0037533D01*
X0070611Y0037540D01*
X0070564Y0037551D01*
X0070518Y0037565D01*
X0070473Y0037583D01*
X0070430Y0037605D01*
X0070389Y0037630D01*
X0070351Y0037659D01*
X0070314Y0037691D01*
X0070280Y0037725D01*
X0070250Y0037762D01*
X0070222Y0037801D01*
X0070197Y0037843D01*
X0070177Y0037887D01*
X0070159Y0037932D01*
X0070146Y0037978D01*
X0070136Y0038025D01*
X0070130Y0038073D01*
X0070128Y0038121D01*
X0062727Y0038121D02*
X0062729Y0038169D01*
X0062735Y0038217D01*
X0062745Y0038264D01*
X0062758Y0038310D01*
X0062776Y0038355D01*
X0062796Y0038399D01*
X0062821Y0038441D01*
X0062849Y0038480D01*
X0062879Y0038517D01*
X0062913Y0038551D01*
X0062950Y0038583D01*
X0062988Y0038612D01*
X0063029Y0038637D01*
X0063072Y0038659D01*
X0063117Y0038677D01*
X0063163Y0038691D01*
X0063210Y0038702D01*
X0063258Y0038709D01*
X0063306Y0038712D01*
X0063354Y0038711D01*
X0063402Y0038706D01*
X0063450Y0038697D01*
X0063496Y0038685D01*
X0063541Y0038668D01*
X0063585Y0038648D01*
X0063627Y0038625D01*
X0063667Y0038598D01*
X0063705Y0038568D01*
X0063740Y0038535D01*
X0063772Y0038499D01*
X0063802Y0038461D01*
X0063828Y0038420D01*
X0063850Y0038377D01*
X0063870Y0038333D01*
X0063885Y0038288D01*
X0063897Y0038241D01*
X0063905Y0038193D01*
X0063909Y0038145D01*
X0063909Y0038097D01*
X0063905Y0038049D01*
X0063897Y0038001D01*
X0063885Y0037954D01*
X0063870Y0037909D01*
X0063850Y0037865D01*
X0063828Y0037822D01*
X0063802Y0037781D01*
X0063772Y0037743D01*
X0063740Y0037707D01*
X0063705Y0037674D01*
X0063667Y0037644D01*
X0063627Y0037617D01*
X0063585Y0037594D01*
X0063541Y0037574D01*
X0063496Y0037557D01*
X0063450Y0037545D01*
X0063402Y0037536D01*
X0063354Y0037531D01*
X0063306Y0037530D01*
X0063258Y0037533D01*
X0063210Y0037540D01*
X0063163Y0037551D01*
X0063117Y0037565D01*
X0063072Y0037583D01*
X0063029Y0037605D01*
X0062988Y0037630D01*
X0062950Y0037659D01*
X0062913Y0037691D01*
X0062879Y0037725D01*
X0062849Y0037762D01*
X0062821Y0037801D01*
X0062796Y0037843D01*
X0062776Y0037887D01*
X0062758Y0037932D01*
X0062745Y0037978D01*
X0062735Y0038025D01*
X0062729Y0038073D01*
X0062727Y0038121D01*
X0062727Y0045522D02*
X0062729Y0045570D01*
X0062735Y0045618D01*
X0062745Y0045665D01*
X0062758Y0045711D01*
X0062776Y0045756D01*
X0062796Y0045800D01*
X0062821Y0045842D01*
X0062849Y0045881D01*
X0062879Y0045918D01*
X0062913Y0045952D01*
X0062950Y0045984D01*
X0062988Y0046013D01*
X0063029Y0046038D01*
X0063072Y0046060D01*
X0063117Y0046078D01*
X0063163Y0046092D01*
X0063210Y0046103D01*
X0063258Y0046110D01*
X0063306Y0046113D01*
X0063354Y0046112D01*
X0063402Y0046107D01*
X0063450Y0046098D01*
X0063496Y0046086D01*
X0063541Y0046069D01*
X0063585Y0046049D01*
X0063627Y0046026D01*
X0063667Y0045999D01*
X0063705Y0045969D01*
X0063740Y0045936D01*
X0063772Y0045900D01*
X0063802Y0045862D01*
X0063828Y0045821D01*
X0063850Y0045778D01*
X0063870Y0045734D01*
X0063885Y0045689D01*
X0063897Y0045642D01*
X0063905Y0045594D01*
X0063909Y0045546D01*
X0063909Y0045498D01*
X0063905Y0045450D01*
X0063897Y0045402D01*
X0063885Y0045355D01*
X0063870Y0045310D01*
X0063850Y0045266D01*
X0063828Y0045223D01*
X0063802Y0045182D01*
X0063772Y0045144D01*
X0063740Y0045108D01*
X0063705Y0045075D01*
X0063667Y0045045D01*
X0063627Y0045018D01*
X0063585Y0044995D01*
X0063541Y0044975D01*
X0063496Y0044958D01*
X0063450Y0044946D01*
X0063402Y0044937D01*
X0063354Y0044932D01*
X0063306Y0044931D01*
X0063258Y0044934D01*
X0063210Y0044941D01*
X0063163Y0044952D01*
X0063117Y0044966D01*
X0063072Y0044984D01*
X0063029Y0045006D01*
X0062988Y0045031D01*
X0062950Y0045060D01*
X0062913Y0045092D01*
X0062879Y0045126D01*
X0062849Y0045163D01*
X0062821Y0045202D01*
X0062796Y0045244D01*
X0062776Y0045288D01*
X0062758Y0045333D01*
X0062745Y0045379D01*
X0062735Y0045426D01*
X0062729Y0045474D01*
X0062727Y0045522D01*
X0070128Y0045522D02*
X0070130Y0045570D01*
X0070136Y0045618D01*
X0070146Y0045665D01*
X0070159Y0045711D01*
X0070177Y0045756D01*
X0070197Y0045800D01*
X0070222Y0045842D01*
X0070250Y0045881D01*
X0070280Y0045918D01*
X0070314Y0045952D01*
X0070351Y0045984D01*
X0070389Y0046013D01*
X0070430Y0046038D01*
X0070473Y0046060D01*
X0070518Y0046078D01*
X0070564Y0046092D01*
X0070611Y0046103D01*
X0070659Y0046110D01*
X0070707Y0046113D01*
X0070755Y0046112D01*
X0070803Y0046107D01*
X0070851Y0046098D01*
X0070897Y0046086D01*
X0070942Y0046069D01*
X0070986Y0046049D01*
X0071028Y0046026D01*
X0071068Y0045999D01*
X0071106Y0045969D01*
X0071141Y0045936D01*
X0071173Y0045900D01*
X0071203Y0045862D01*
X0071229Y0045821D01*
X0071251Y0045778D01*
X0071271Y0045734D01*
X0071286Y0045689D01*
X0071298Y0045642D01*
X0071306Y0045594D01*
X0071310Y0045546D01*
X0071310Y0045498D01*
X0071306Y0045450D01*
X0071298Y0045402D01*
X0071286Y0045355D01*
X0071271Y0045310D01*
X0071251Y0045266D01*
X0071229Y0045223D01*
X0071203Y0045182D01*
X0071173Y0045144D01*
X0071141Y0045108D01*
X0071106Y0045075D01*
X0071068Y0045045D01*
X0071028Y0045018D01*
X0070986Y0044995D01*
X0070942Y0044975D01*
X0070897Y0044958D01*
X0070851Y0044946D01*
X0070803Y0044937D01*
X0070755Y0044932D01*
X0070707Y0044931D01*
X0070659Y0044934D01*
X0070611Y0044941D01*
X0070564Y0044952D01*
X0070518Y0044966D01*
X0070473Y0044984D01*
X0070430Y0045006D01*
X0070389Y0045031D01*
X0070351Y0045060D01*
X0070314Y0045092D01*
X0070280Y0045126D01*
X0070250Y0045163D01*
X0070222Y0045202D01*
X0070197Y0045244D01*
X0070177Y0045288D01*
X0070159Y0045333D01*
X0070146Y0045379D01*
X0070136Y0045426D01*
X0070130Y0045474D01*
X0070128Y0045522D01*
X0011861Y0045522D02*
X0011863Y0045570D01*
X0011869Y0045618D01*
X0011879Y0045665D01*
X0011892Y0045711D01*
X0011910Y0045756D01*
X0011930Y0045800D01*
X0011955Y0045842D01*
X0011983Y0045881D01*
X0012013Y0045918D01*
X0012047Y0045952D01*
X0012084Y0045984D01*
X0012122Y0046013D01*
X0012163Y0046038D01*
X0012206Y0046060D01*
X0012251Y0046078D01*
X0012297Y0046092D01*
X0012344Y0046103D01*
X0012392Y0046110D01*
X0012440Y0046113D01*
X0012488Y0046112D01*
X0012536Y0046107D01*
X0012584Y0046098D01*
X0012630Y0046086D01*
X0012675Y0046069D01*
X0012719Y0046049D01*
X0012761Y0046026D01*
X0012801Y0045999D01*
X0012839Y0045969D01*
X0012874Y0045936D01*
X0012906Y0045900D01*
X0012936Y0045862D01*
X0012962Y0045821D01*
X0012984Y0045778D01*
X0013004Y0045734D01*
X0013019Y0045689D01*
X0013031Y0045642D01*
X0013039Y0045594D01*
X0013043Y0045546D01*
X0013043Y0045498D01*
X0013039Y0045450D01*
X0013031Y0045402D01*
X0013019Y0045355D01*
X0013004Y0045310D01*
X0012984Y0045266D01*
X0012962Y0045223D01*
X0012936Y0045182D01*
X0012906Y0045144D01*
X0012874Y0045108D01*
X0012839Y0045075D01*
X0012801Y0045045D01*
X0012761Y0045018D01*
X0012719Y0044995D01*
X0012675Y0044975D01*
X0012630Y0044958D01*
X0012584Y0044946D01*
X0012536Y0044937D01*
X0012488Y0044932D01*
X0012440Y0044931D01*
X0012392Y0044934D01*
X0012344Y0044941D01*
X0012297Y0044952D01*
X0012251Y0044966D01*
X0012206Y0044984D01*
X0012163Y0045006D01*
X0012122Y0045031D01*
X0012084Y0045060D01*
X0012047Y0045092D01*
X0012013Y0045126D01*
X0011983Y0045163D01*
X0011955Y0045202D01*
X0011930Y0045244D01*
X0011910Y0045288D01*
X0011892Y0045333D01*
X0011879Y0045379D01*
X0011869Y0045426D01*
X0011863Y0045474D01*
X0011861Y0045522D01*
X0004459Y0045522D02*
X0004461Y0045570D01*
X0004467Y0045618D01*
X0004477Y0045665D01*
X0004490Y0045711D01*
X0004508Y0045756D01*
X0004528Y0045800D01*
X0004553Y0045842D01*
X0004581Y0045881D01*
X0004611Y0045918D01*
X0004645Y0045952D01*
X0004682Y0045984D01*
X0004720Y0046013D01*
X0004761Y0046038D01*
X0004804Y0046060D01*
X0004849Y0046078D01*
X0004895Y0046092D01*
X0004942Y0046103D01*
X0004990Y0046110D01*
X0005038Y0046113D01*
X0005086Y0046112D01*
X0005134Y0046107D01*
X0005182Y0046098D01*
X0005228Y0046086D01*
X0005273Y0046069D01*
X0005317Y0046049D01*
X0005359Y0046026D01*
X0005399Y0045999D01*
X0005437Y0045969D01*
X0005472Y0045936D01*
X0005504Y0045900D01*
X0005534Y0045862D01*
X0005560Y0045821D01*
X0005582Y0045778D01*
X0005602Y0045734D01*
X0005617Y0045689D01*
X0005629Y0045642D01*
X0005637Y0045594D01*
X0005641Y0045546D01*
X0005641Y0045498D01*
X0005637Y0045450D01*
X0005629Y0045402D01*
X0005617Y0045355D01*
X0005602Y0045310D01*
X0005582Y0045266D01*
X0005560Y0045223D01*
X0005534Y0045182D01*
X0005504Y0045144D01*
X0005472Y0045108D01*
X0005437Y0045075D01*
X0005399Y0045045D01*
X0005359Y0045018D01*
X0005317Y0044995D01*
X0005273Y0044975D01*
X0005228Y0044958D01*
X0005182Y0044946D01*
X0005134Y0044937D01*
X0005086Y0044932D01*
X0005038Y0044931D01*
X0004990Y0044934D01*
X0004942Y0044941D01*
X0004895Y0044952D01*
X0004849Y0044966D01*
X0004804Y0044984D01*
X0004761Y0045006D01*
X0004720Y0045031D01*
X0004682Y0045060D01*
X0004645Y0045092D01*
X0004611Y0045126D01*
X0004581Y0045163D01*
X0004553Y0045202D01*
X0004528Y0045244D01*
X0004508Y0045288D01*
X0004490Y0045333D01*
X0004477Y0045379D01*
X0004467Y0045426D01*
X0004461Y0045474D01*
X0004459Y0045522D01*
X0004459Y0038121D02*
X0004461Y0038169D01*
X0004467Y0038217D01*
X0004477Y0038264D01*
X0004490Y0038310D01*
X0004508Y0038355D01*
X0004528Y0038399D01*
X0004553Y0038441D01*
X0004581Y0038480D01*
X0004611Y0038517D01*
X0004645Y0038551D01*
X0004682Y0038583D01*
X0004720Y0038612D01*
X0004761Y0038637D01*
X0004804Y0038659D01*
X0004849Y0038677D01*
X0004895Y0038691D01*
X0004942Y0038702D01*
X0004990Y0038709D01*
X0005038Y0038712D01*
X0005086Y0038711D01*
X0005134Y0038706D01*
X0005182Y0038697D01*
X0005228Y0038685D01*
X0005273Y0038668D01*
X0005317Y0038648D01*
X0005359Y0038625D01*
X0005399Y0038598D01*
X0005437Y0038568D01*
X0005472Y0038535D01*
X0005504Y0038499D01*
X0005534Y0038461D01*
X0005560Y0038420D01*
X0005582Y0038377D01*
X0005602Y0038333D01*
X0005617Y0038288D01*
X0005629Y0038241D01*
X0005637Y0038193D01*
X0005641Y0038145D01*
X0005641Y0038097D01*
X0005637Y0038049D01*
X0005629Y0038001D01*
X0005617Y0037954D01*
X0005602Y0037909D01*
X0005582Y0037865D01*
X0005560Y0037822D01*
X0005534Y0037781D01*
X0005504Y0037743D01*
X0005472Y0037707D01*
X0005437Y0037674D01*
X0005399Y0037644D01*
X0005359Y0037617D01*
X0005317Y0037594D01*
X0005273Y0037574D01*
X0005228Y0037557D01*
X0005182Y0037545D01*
X0005134Y0037536D01*
X0005086Y0037531D01*
X0005038Y0037530D01*
X0004990Y0037533D01*
X0004942Y0037540D01*
X0004895Y0037551D01*
X0004849Y0037565D01*
X0004804Y0037583D01*
X0004761Y0037605D01*
X0004720Y0037630D01*
X0004682Y0037659D01*
X0004645Y0037691D01*
X0004611Y0037725D01*
X0004581Y0037762D01*
X0004553Y0037801D01*
X0004528Y0037843D01*
X0004508Y0037887D01*
X0004490Y0037932D01*
X0004477Y0037978D01*
X0004467Y0038025D01*
X0004461Y0038073D01*
X0004459Y0038121D01*
X0011861Y0038121D02*
X0011863Y0038169D01*
X0011869Y0038217D01*
X0011879Y0038264D01*
X0011892Y0038310D01*
X0011910Y0038355D01*
X0011930Y0038399D01*
X0011955Y0038441D01*
X0011983Y0038480D01*
X0012013Y0038517D01*
X0012047Y0038551D01*
X0012084Y0038583D01*
X0012122Y0038612D01*
X0012163Y0038637D01*
X0012206Y0038659D01*
X0012251Y0038677D01*
X0012297Y0038691D01*
X0012344Y0038702D01*
X0012392Y0038709D01*
X0012440Y0038712D01*
X0012488Y0038711D01*
X0012536Y0038706D01*
X0012584Y0038697D01*
X0012630Y0038685D01*
X0012675Y0038668D01*
X0012719Y0038648D01*
X0012761Y0038625D01*
X0012801Y0038598D01*
X0012839Y0038568D01*
X0012874Y0038535D01*
X0012906Y0038499D01*
X0012936Y0038461D01*
X0012962Y0038420D01*
X0012984Y0038377D01*
X0013004Y0038333D01*
X0013019Y0038288D01*
X0013031Y0038241D01*
X0013039Y0038193D01*
X0013043Y0038145D01*
X0013043Y0038097D01*
X0013039Y0038049D01*
X0013031Y0038001D01*
X0013019Y0037954D01*
X0013004Y0037909D01*
X0012984Y0037865D01*
X0012962Y0037822D01*
X0012936Y0037781D01*
X0012906Y0037743D01*
X0012874Y0037707D01*
X0012839Y0037674D01*
X0012801Y0037644D01*
X0012761Y0037617D01*
X0012719Y0037594D01*
X0012675Y0037574D01*
X0012630Y0037557D01*
X0012584Y0037545D01*
X0012536Y0037536D01*
X0012488Y0037531D01*
X0012440Y0037530D01*
X0012392Y0037533D01*
X0012344Y0037540D01*
X0012297Y0037551D01*
X0012251Y0037565D01*
X0012206Y0037583D01*
X0012163Y0037605D01*
X0012122Y0037630D01*
X0012084Y0037659D01*
X0012047Y0037691D01*
X0012013Y0037725D01*
X0011983Y0037762D01*
X0011955Y0037801D01*
X0011930Y0037843D01*
X0011910Y0037887D01*
X0011892Y0037932D01*
X0011879Y0037978D01*
X0011869Y0038025D01*
X0011863Y0038073D01*
X0011861Y0038121D01*
D11*
X0014853Y0015798D03*
X0019971Y0015798D03*
X0055798Y0015798D03*
X0060916Y0015798D03*
D12*
X0057963Y0037393D03*
X0057963Y0039361D03*
X0057963Y0041330D03*
X0046940Y0041330D03*
X0046940Y0039361D03*
X0046940Y0037393D03*
X0028830Y0037393D03*
X0028830Y0039361D03*
X0028830Y0041330D03*
X0017806Y0041330D03*
X0017806Y0039361D03*
X0017806Y0037393D03*
D13*
X0020365Y0043396D03*
X0022333Y0043396D03*
X0024302Y0043396D03*
X0026270Y0043396D03*
X0049499Y0043396D03*
X0051467Y0043396D03*
X0053436Y0043396D03*
X0055404Y0043396D03*
D14*
X0053143Y0035522D02*
X0052946Y0035326D01*
X0052946Y0034144D01*
X0053143Y0033948D01*
X0057769Y0033948D01*
X0057769Y0034243D01*
X0058950Y0034243D01*
X0059146Y0034440D01*
X0059146Y0035030D01*
X0058950Y0035227D01*
X0057769Y0035227D01*
X0057769Y0035522D01*
X0053143Y0035522D01*
X0053073Y0035453D02*
X0057769Y0035453D01*
X0057769Y0035354D02*
X0052974Y0035354D01*
X0052946Y0035256D02*
X0057769Y0035256D01*
X0057769Y0034172D02*
X0052946Y0034172D01*
X0052946Y0034271D02*
X0058977Y0034271D01*
X0059076Y0034369D02*
X0052946Y0034369D01*
X0052946Y0034468D02*
X0059146Y0034468D01*
X0059146Y0034566D02*
X0052946Y0034566D01*
X0052946Y0034665D02*
X0059146Y0034665D01*
X0059146Y0034763D02*
X0052946Y0034763D01*
X0052946Y0034862D02*
X0059146Y0034862D01*
X0059146Y0034960D02*
X0052946Y0034960D01*
X0052946Y0035059D02*
X0059118Y0035059D01*
X0059019Y0035157D02*
X0052946Y0035157D01*
X0051957Y0035157D02*
X0045884Y0035157D01*
X0045954Y0035227D02*
X0045757Y0035030D01*
X0045757Y0034440D01*
X0045954Y0034243D01*
X0047135Y0034243D01*
X0047135Y0033948D01*
X0051761Y0033948D01*
X0051957Y0034144D01*
X0051957Y0035326D01*
X0051761Y0035522D01*
X0047135Y0035522D01*
X0047135Y0035227D01*
X0045954Y0035227D01*
X0045785Y0035059D02*
X0051957Y0035059D01*
X0051957Y0034960D02*
X0045757Y0034960D01*
X0045757Y0034862D02*
X0051957Y0034862D01*
X0051957Y0034763D02*
X0045757Y0034763D01*
X0045757Y0034665D02*
X0051957Y0034665D01*
X0051957Y0034566D02*
X0045757Y0034566D01*
X0045757Y0034468D02*
X0051957Y0034468D01*
X0051957Y0034369D02*
X0045827Y0034369D01*
X0045926Y0034271D02*
X0051957Y0034271D01*
X0051957Y0034172D02*
X0047135Y0034172D01*
X0047135Y0034074D02*
X0051887Y0034074D01*
X0051788Y0033975D02*
X0047135Y0033975D01*
X0047135Y0035256D02*
X0051957Y0035256D01*
X0051929Y0035354D02*
X0047135Y0035354D01*
X0047135Y0035453D02*
X0051830Y0035453D01*
X0053016Y0034074D02*
X0057769Y0034074D01*
X0057769Y0033975D02*
X0053115Y0033975D01*
X0053143Y0031979D02*
X0052946Y0031782D01*
X0052946Y0030601D01*
X0053143Y0030404D01*
X0057769Y0030404D01*
X0057769Y0030700D01*
X0058950Y0030700D01*
X0059146Y0030896D01*
X0059146Y0031487D01*
X0058950Y0031684D01*
X0057769Y0031684D01*
X0057769Y0031979D01*
X0053143Y0031979D01*
X0053070Y0031906D02*
X0057769Y0031906D01*
X0057769Y0031808D02*
X0052971Y0031808D01*
X0052946Y0031709D02*
X0057769Y0031709D01*
X0057769Y0030626D02*
X0052946Y0030626D01*
X0052946Y0030724D02*
X0058974Y0030724D01*
X0059073Y0030823D02*
X0052946Y0030823D01*
X0052946Y0030921D02*
X0059146Y0030921D01*
X0059146Y0031020D02*
X0052946Y0031020D01*
X0052946Y0031118D02*
X0059146Y0031118D01*
X0059146Y0031217D02*
X0052946Y0031217D01*
X0052946Y0031315D02*
X0059146Y0031315D01*
X0059146Y0031414D02*
X0052946Y0031414D01*
X0052946Y0031512D02*
X0059121Y0031512D01*
X0059023Y0031611D02*
X0052946Y0031611D01*
X0051957Y0031611D02*
X0045881Y0031611D01*
X0045954Y0031684D02*
X0045757Y0031487D01*
X0045757Y0030896D01*
X0045954Y0030700D01*
X0047135Y0030700D01*
X0047135Y0030404D01*
X0051761Y0030404D01*
X0051957Y0030601D01*
X0051957Y0031782D01*
X0051761Y0031979D01*
X0047135Y0031979D01*
X0047135Y0031684D01*
X0045954Y0031684D01*
X0045782Y0031512D02*
X0051957Y0031512D01*
X0051957Y0031414D02*
X0045757Y0031414D01*
X0045757Y0031315D02*
X0051957Y0031315D01*
X0051957Y0031217D02*
X0045757Y0031217D01*
X0045757Y0031118D02*
X0051957Y0031118D01*
X0051957Y0031020D02*
X0045757Y0031020D01*
X0045757Y0030921D02*
X0051957Y0030921D01*
X0051957Y0030823D02*
X0045830Y0030823D01*
X0045929Y0030724D02*
X0051957Y0030724D01*
X0051957Y0030626D02*
X0047135Y0030626D01*
X0047135Y0030527D02*
X0051884Y0030527D01*
X0051785Y0030429D02*
X0047135Y0030429D01*
X0047135Y0031709D02*
X0051957Y0031709D01*
X0051932Y0031808D02*
X0047135Y0031808D01*
X0047135Y0031906D02*
X0051833Y0031906D01*
X0053020Y0030527D02*
X0057769Y0030527D01*
X0057769Y0030429D02*
X0053118Y0030429D01*
X0053143Y0028830D02*
X0052946Y0028633D01*
X0052946Y0027452D01*
X0053143Y0027255D01*
X0057769Y0027255D01*
X0057769Y0027550D01*
X0058950Y0027550D01*
X0059146Y0027747D01*
X0059146Y0028337D01*
X0058950Y0028534D01*
X0057769Y0028534D01*
X0057769Y0028830D01*
X0053143Y0028830D01*
X0053067Y0028754D02*
X0057769Y0028754D01*
X0057769Y0028656D02*
X0052969Y0028656D01*
X0052946Y0028557D02*
X0057769Y0028557D01*
X0057769Y0027473D02*
X0052946Y0027473D01*
X0052946Y0027572D02*
X0058972Y0027572D01*
X0059070Y0027670D02*
X0052946Y0027670D01*
X0052946Y0027769D02*
X0059146Y0027769D01*
X0059146Y0027867D02*
X0052946Y0027867D01*
X0052946Y0027966D02*
X0059146Y0027966D01*
X0059146Y0028065D02*
X0052946Y0028065D01*
X0052946Y0028163D02*
X0059146Y0028163D01*
X0059146Y0028262D02*
X0052946Y0028262D01*
X0052946Y0028360D02*
X0059124Y0028360D01*
X0059025Y0028459D02*
X0052946Y0028459D01*
X0051957Y0028459D02*
X0045878Y0028459D01*
X0045954Y0028534D02*
X0045757Y0028337D01*
X0045757Y0027747D01*
X0045954Y0027550D01*
X0047135Y0027550D01*
X0047135Y0027255D01*
X0051761Y0027255D01*
X0051957Y0027452D01*
X0051957Y0028633D01*
X0051761Y0028830D01*
X0047135Y0028830D01*
X0047135Y0028534D01*
X0045954Y0028534D01*
X0045779Y0028360D02*
X0051957Y0028360D01*
X0051957Y0028262D02*
X0045757Y0028262D01*
X0045757Y0028163D02*
X0051957Y0028163D01*
X0051957Y0028065D02*
X0045757Y0028065D01*
X0045757Y0027966D02*
X0051957Y0027966D01*
X0051957Y0027867D02*
X0045757Y0027867D01*
X0045757Y0027769D02*
X0051957Y0027769D01*
X0051957Y0027670D02*
X0045833Y0027670D01*
X0045932Y0027572D02*
X0051957Y0027572D01*
X0051957Y0027473D02*
X0047135Y0027473D01*
X0047135Y0027375D02*
X0051881Y0027375D01*
X0051782Y0027276D02*
X0047135Y0027276D01*
X0047135Y0028557D02*
X0051957Y0028557D01*
X0051935Y0028656D02*
X0047135Y0028656D01*
X0047135Y0028754D02*
X0051836Y0028754D01*
X0053022Y0027375D02*
X0057769Y0027375D01*
X0057769Y0027276D02*
X0053121Y0027276D01*
X0053143Y0025286D02*
X0052946Y0025089D01*
X0052946Y0023908D01*
X0053143Y0023711D01*
X0057769Y0023711D01*
X0057769Y0024007D01*
X0058950Y0024007D01*
X0059146Y0024204D01*
X0059146Y0024794D01*
X0058950Y0024991D01*
X0057769Y0024991D01*
X0057769Y0025286D01*
X0053143Y0025286D01*
X0053064Y0025208D02*
X0057769Y0025208D01*
X0057769Y0025109D02*
X0052965Y0025109D01*
X0052946Y0025011D02*
X0057769Y0025011D01*
X0057769Y0023927D02*
X0052946Y0023927D01*
X0052946Y0024026D02*
X0058968Y0024026D01*
X0059067Y0024124D02*
X0052946Y0024124D01*
X0052946Y0024223D02*
X0059146Y0024223D01*
X0059146Y0024321D02*
X0052946Y0024321D01*
X0052946Y0024420D02*
X0059146Y0024420D01*
X0059146Y0024518D02*
X0052946Y0024518D01*
X0052946Y0024617D02*
X0059146Y0024617D01*
X0059146Y0024715D02*
X0052946Y0024715D01*
X0052946Y0024814D02*
X0059127Y0024814D01*
X0059028Y0024912D02*
X0052946Y0024912D01*
X0053025Y0023829D02*
X0057769Y0023829D01*
X0057769Y0023730D02*
X0053124Y0023730D01*
X0053141Y0022924D02*
X0053731Y0022924D01*
X0053928Y0022727D01*
X0053928Y0019578D01*
X0053731Y0019381D01*
X0053141Y0019381D01*
X0052944Y0019578D01*
X0052944Y0022727D01*
X0053141Y0022924D01*
X0053060Y0022843D02*
X0053812Y0022843D01*
X0053910Y0022745D02*
X0052961Y0022745D01*
X0052944Y0022646D02*
X0053928Y0022646D01*
X0053928Y0022548D02*
X0052944Y0022548D01*
X0052944Y0022449D02*
X0053928Y0022449D01*
X0053928Y0022351D02*
X0052944Y0022351D01*
X0052944Y0022252D02*
X0053928Y0022252D01*
X0053928Y0022154D02*
X0052944Y0022154D01*
X0052944Y0022055D02*
X0053928Y0022055D01*
X0053928Y0021957D02*
X0052944Y0021957D01*
X0052944Y0021858D02*
X0053928Y0021858D01*
X0053928Y0021760D02*
X0052944Y0021760D01*
X0052944Y0021661D02*
X0053928Y0021661D01*
X0053928Y0021563D02*
X0052944Y0021563D01*
X0052944Y0021464D02*
X0053928Y0021464D01*
X0053928Y0021366D02*
X0052944Y0021366D01*
X0052944Y0021267D02*
X0053928Y0021267D01*
X0053928Y0021169D02*
X0052944Y0021169D01*
X0052944Y0021070D02*
X0053928Y0021070D01*
X0053928Y0020972D02*
X0052944Y0020972D01*
X0052944Y0020873D02*
X0053928Y0020873D01*
X0053928Y0020775D02*
X0052944Y0020775D01*
X0052944Y0020676D02*
X0053928Y0020676D01*
X0053928Y0020578D02*
X0052944Y0020578D01*
X0052944Y0020479D02*
X0053928Y0020479D01*
X0053928Y0020381D02*
X0052944Y0020381D01*
X0052944Y0020282D02*
X0053928Y0020282D01*
X0053928Y0020184D02*
X0052944Y0020184D01*
X0052944Y0020085D02*
X0053928Y0020085D01*
X0053928Y0019987D02*
X0052944Y0019987D01*
X0052944Y0019888D02*
X0053928Y0019888D01*
X0053928Y0019790D02*
X0052944Y0019790D01*
X0052944Y0019691D02*
X0053928Y0019691D01*
X0053928Y0019593D02*
X0052944Y0019593D01*
X0053027Y0019494D02*
X0053844Y0019494D01*
X0053746Y0019396D02*
X0053126Y0019396D01*
X0051959Y0019578D02*
X0051763Y0019381D01*
X0051172Y0019381D01*
X0050975Y0019578D01*
X0050975Y0022727D01*
X0051172Y0022924D01*
X0051763Y0022924D01*
X0051959Y0022727D01*
X0051959Y0019578D01*
X0051959Y0019593D02*
X0050975Y0019593D01*
X0050975Y0019691D02*
X0051959Y0019691D01*
X0051959Y0019790D02*
X0050975Y0019790D01*
X0050975Y0019888D02*
X0051959Y0019888D01*
X0051959Y0019987D02*
X0050975Y0019987D01*
X0050975Y0020085D02*
X0051959Y0020085D01*
X0051959Y0020184D02*
X0050975Y0020184D01*
X0050975Y0020282D02*
X0051959Y0020282D01*
X0051959Y0020381D02*
X0050975Y0020381D01*
X0050975Y0020479D02*
X0051959Y0020479D01*
X0051959Y0020578D02*
X0050975Y0020578D01*
X0050975Y0020676D02*
X0051959Y0020676D01*
X0051959Y0020775D02*
X0050975Y0020775D01*
X0050975Y0020873D02*
X0051959Y0020873D01*
X0051959Y0020972D02*
X0050975Y0020972D01*
X0050975Y0021070D02*
X0051959Y0021070D01*
X0051959Y0021169D02*
X0050975Y0021169D01*
X0050975Y0021267D02*
X0051959Y0021267D01*
X0051959Y0021366D02*
X0050975Y0021366D01*
X0050975Y0021464D02*
X0051959Y0021464D01*
X0051959Y0021563D02*
X0050975Y0021563D01*
X0050975Y0021661D02*
X0051959Y0021661D01*
X0051959Y0021760D02*
X0050975Y0021760D01*
X0050975Y0021858D02*
X0051959Y0021858D01*
X0051959Y0021957D02*
X0050975Y0021957D01*
X0050975Y0022055D02*
X0051959Y0022055D01*
X0051959Y0022154D02*
X0050975Y0022154D01*
X0050975Y0022252D02*
X0051959Y0022252D01*
X0051959Y0022351D02*
X0050975Y0022351D01*
X0050975Y0022449D02*
X0051959Y0022449D01*
X0051959Y0022548D02*
X0050975Y0022548D01*
X0050975Y0022646D02*
X0051959Y0022646D01*
X0051942Y0022745D02*
X0050993Y0022745D01*
X0051091Y0022843D02*
X0051843Y0022843D01*
X0051761Y0023711D02*
X0047135Y0023711D01*
X0047135Y0024007D01*
X0045954Y0024007D01*
X0045757Y0024204D01*
X0045757Y0024794D01*
X0045954Y0024991D01*
X0047135Y0024991D01*
X0047135Y0025286D01*
X0051761Y0025286D01*
X0051957Y0025089D01*
X0051957Y0023908D01*
X0051761Y0023711D01*
X0051779Y0023730D02*
X0047135Y0023730D01*
X0047135Y0023829D02*
X0051878Y0023829D01*
X0051957Y0023927D02*
X0047135Y0023927D01*
X0047135Y0025011D02*
X0051957Y0025011D01*
X0051957Y0024912D02*
X0045875Y0024912D01*
X0045776Y0024814D02*
X0051957Y0024814D01*
X0051957Y0024715D02*
X0045757Y0024715D01*
X0045757Y0024617D02*
X0051957Y0024617D01*
X0051957Y0024518D02*
X0045757Y0024518D01*
X0045757Y0024420D02*
X0051957Y0024420D01*
X0051957Y0024321D02*
X0045757Y0024321D01*
X0045757Y0024223D02*
X0051957Y0024223D01*
X0051957Y0024124D02*
X0045836Y0024124D01*
X0045935Y0024026D02*
X0051957Y0024026D01*
X0051938Y0025109D02*
X0047135Y0025109D01*
X0047135Y0025208D02*
X0051839Y0025208D01*
X0049794Y0022924D02*
X0049204Y0022924D01*
X0049007Y0022727D01*
X0049007Y0019578D01*
X0049204Y0019381D01*
X0049794Y0019381D01*
X0049991Y0019578D01*
X0049991Y0022727D01*
X0049794Y0022924D01*
X0049875Y0022843D02*
X0049123Y0022843D01*
X0049024Y0022745D02*
X0049973Y0022745D01*
X0049991Y0022646D02*
X0049007Y0022646D01*
X0049007Y0022548D02*
X0049991Y0022548D01*
X0049991Y0022449D02*
X0049007Y0022449D01*
X0049007Y0022351D02*
X0049991Y0022351D01*
X0049991Y0022252D02*
X0049007Y0022252D01*
X0049007Y0022154D02*
X0049991Y0022154D01*
X0049991Y0022055D02*
X0049007Y0022055D01*
X0049007Y0021957D02*
X0049991Y0021957D01*
X0049991Y0021858D02*
X0049007Y0021858D01*
X0049007Y0021760D02*
X0049991Y0021760D01*
X0049991Y0021661D02*
X0049007Y0021661D01*
X0049007Y0021563D02*
X0049991Y0021563D01*
X0049991Y0021464D02*
X0049007Y0021464D01*
X0049007Y0021366D02*
X0049991Y0021366D01*
X0049991Y0021267D02*
X0049007Y0021267D01*
X0049007Y0021169D02*
X0049991Y0021169D01*
X0049991Y0021070D02*
X0049007Y0021070D01*
X0049007Y0020972D02*
X0049991Y0020972D01*
X0049991Y0020873D02*
X0049007Y0020873D01*
X0049007Y0020775D02*
X0049991Y0020775D01*
X0049991Y0020676D02*
X0049007Y0020676D01*
X0049007Y0020578D02*
X0049991Y0020578D01*
X0049991Y0020479D02*
X0049007Y0020479D01*
X0049007Y0020381D02*
X0049991Y0020381D01*
X0049991Y0020282D02*
X0049007Y0020282D01*
X0049007Y0020184D02*
X0049991Y0020184D01*
X0049991Y0020085D02*
X0049007Y0020085D01*
X0049007Y0019987D02*
X0049991Y0019987D01*
X0049991Y0019888D02*
X0049007Y0019888D01*
X0049007Y0019790D02*
X0049991Y0019790D01*
X0049991Y0019691D02*
X0049007Y0019691D01*
X0049007Y0019593D02*
X0049991Y0019593D01*
X0049907Y0019494D02*
X0049090Y0019494D01*
X0049189Y0019396D02*
X0049809Y0019396D01*
X0051059Y0019494D02*
X0051876Y0019494D01*
X0051777Y0019396D02*
X0051157Y0019396D01*
X0054912Y0019578D02*
X0054912Y0022727D01*
X0055109Y0022924D01*
X0055700Y0022924D01*
X0055896Y0022727D01*
X0055896Y0019578D01*
X0055700Y0019381D01*
X0055109Y0019381D01*
X0054912Y0019578D01*
X0054912Y0019593D02*
X0055896Y0019593D01*
X0055896Y0019691D02*
X0054912Y0019691D01*
X0054912Y0019790D02*
X0055896Y0019790D01*
X0055896Y0019888D02*
X0054912Y0019888D01*
X0054912Y0019987D02*
X0055896Y0019987D01*
X0055896Y0020085D02*
X0054912Y0020085D01*
X0054912Y0020184D02*
X0055896Y0020184D01*
X0055896Y0020282D02*
X0054912Y0020282D01*
X0054912Y0020381D02*
X0055896Y0020381D01*
X0055896Y0020479D02*
X0054912Y0020479D01*
X0054912Y0020578D02*
X0055896Y0020578D01*
X0055896Y0020676D02*
X0054912Y0020676D01*
X0054912Y0020775D02*
X0055896Y0020775D01*
X0055896Y0020873D02*
X0054912Y0020873D01*
X0054912Y0020972D02*
X0055896Y0020972D01*
X0055896Y0021070D02*
X0054912Y0021070D01*
X0054912Y0021169D02*
X0055896Y0021169D01*
X0055896Y0021267D02*
X0054912Y0021267D01*
X0054912Y0021366D02*
X0055896Y0021366D01*
X0055896Y0021464D02*
X0054912Y0021464D01*
X0054912Y0021563D02*
X0055896Y0021563D01*
X0055896Y0021661D02*
X0054912Y0021661D01*
X0054912Y0021760D02*
X0055896Y0021760D01*
X0055896Y0021858D02*
X0054912Y0021858D01*
X0054912Y0021957D02*
X0055896Y0021957D01*
X0055896Y0022055D02*
X0054912Y0022055D01*
X0054912Y0022154D02*
X0055896Y0022154D01*
X0055896Y0022252D02*
X0054912Y0022252D01*
X0054912Y0022351D02*
X0055896Y0022351D01*
X0055896Y0022449D02*
X0054912Y0022449D01*
X0054912Y0022548D02*
X0055896Y0022548D01*
X0055896Y0022646D02*
X0054912Y0022646D01*
X0054930Y0022745D02*
X0055879Y0022745D01*
X0055780Y0022843D02*
X0055028Y0022843D01*
X0054996Y0019494D02*
X0055813Y0019494D01*
X0055714Y0019396D02*
X0055094Y0019396D01*
X0030013Y0024204D02*
X0030013Y0024794D01*
X0029816Y0024991D01*
X0028635Y0024991D01*
X0028635Y0025286D01*
X0024009Y0025286D01*
X0023812Y0025089D01*
X0023812Y0023908D01*
X0024009Y0023711D01*
X0028635Y0023711D01*
X0028635Y0024007D01*
X0029816Y0024007D01*
X0030013Y0024204D01*
X0030013Y0024223D02*
X0023812Y0024223D01*
X0023812Y0024321D02*
X0030013Y0024321D01*
X0030013Y0024420D02*
X0023812Y0024420D01*
X0023812Y0024518D02*
X0030013Y0024518D01*
X0030013Y0024617D02*
X0023812Y0024617D01*
X0023812Y0024715D02*
X0030013Y0024715D01*
X0029993Y0024814D02*
X0023812Y0024814D01*
X0023812Y0024912D02*
X0029895Y0024912D01*
X0029933Y0024124D02*
X0023812Y0024124D01*
X0023812Y0024026D02*
X0029835Y0024026D01*
X0028635Y0023927D02*
X0023812Y0023927D01*
X0023892Y0023829D02*
X0028635Y0023829D01*
X0028635Y0023730D02*
X0023990Y0023730D01*
X0024007Y0022924D02*
X0024597Y0022924D01*
X0024794Y0022727D01*
X0024794Y0019578D01*
X0024597Y0019381D01*
X0024007Y0019381D01*
X0023810Y0019578D01*
X0023810Y0022727D01*
X0024007Y0022924D01*
X0023926Y0022843D02*
X0024678Y0022843D01*
X0024776Y0022745D02*
X0023828Y0022745D01*
X0023810Y0022646D02*
X0024794Y0022646D01*
X0024794Y0022548D02*
X0023810Y0022548D01*
X0023810Y0022449D02*
X0024794Y0022449D01*
X0024794Y0022351D02*
X0023810Y0022351D01*
X0023810Y0022252D02*
X0024794Y0022252D01*
X0024794Y0022154D02*
X0023810Y0022154D01*
X0023810Y0022055D02*
X0024794Y0022055D01*
X0024794Y0021957D02*
X0023810Y0021957D01*
X0023810Y0021858D02*
X0024794Y0021858D01*
X0024794Y0021760D02*
X0023810Y0021760D01*
X0023810Y0021661D02*
X0024794Y0021661D01*
X0024794Y0021563D02*
X0023810Y0021563D01*
X0023810Y0021464D02*
X0024794Y0021464D01*
X0024794Y0021366D02*
X0023810Y0021366D01*
X0023810Y0021267D02*
X0024794Y0021267D01*
X0024794Y0021169D02*
X0023810Y0021169D01*
X0023810Y0021070D02*
X0024794Y0021070D01*
X0024794Y0020972D02*
X0023810Y0020972D01*
X0023810Y0020873D02*
X0024794Y0020873D01*
X0024794Y0020775D02*
X0023810Y0020775D01*
X0023810Y0020676D02*
X0024794Y0020676D01*
X0024794Y0020578D02*
X0023810Y0020578D01*
X0023810Y0020479D02*
X0024794Y0020479D01*
X0024794Y0020381D02*
X0023810Y0020381D01*
X0023810Y0020282D02*
X0024794Y0020282D01*
X0024794Y0020184D02*
X0023810Y0020184D01*
X0023810Y0020085D02*
X0024794Y0020085D01*
X0024794Y0019987D02*
X0023810Y0019987D01*
X0023810Y0019888D02*
X0024794Y0019888D01*
X0024794Y0019790D02*
X0023810Y0019790D01*
X0023810Y0019691D02*
X0024794Y0019691D01*
X0024794Y0019593D02*
X0023810Y0019593D01*
X0023893Y0019494D02*
X0024711Y0019494D01*
X0024612Y0019396D02*
X0023992Y0019396D01*
X0022826Y0019578D02*
X0022629Y0019381D01*
X0022038Y0019381D01*
X0021841Y0019578D01*
X0021841Y0022727D01*
X0022038Y0022924D01*
X0022629Y0022924D01*
X0022826Y0022727D01*
X0022826Y0019578D01*
X0022826Y0019593D02*
X0021841Y0019593D01*
X0021841Y0019691D02*
X0022826Y0019691D01*
X0022826Y0019790D02*
X0021841Y0019790D01*
X0021841Y0019888D02*
X0022826Y0019888D01*
X0022826Y0019987D02*
X0021841Y0019987D01*
X0021841Y0020085D02*
X0022826Y0020085D01*
X0022826Y0020184D02*
X0021841Y0020184D01*
X0021841Y0020282D02*
X0022826Y0020282D01*
X0022826Y0020381D02*
X0021841Y0020381D01*
X0021841Y0020479D02*
X0022826Y0020479D01*
X0022826Y0020578D02*
X0021841Y0020578D01*
X0021841Y0020676D02*
X0022826Y0020676D01*
X0022826Y0020775D02*
X0021841Y0020775D01*
X0021841Y0020873D02*
X0022826Y0020873D01*
X0022826Y0020972D02*
X0021841Y0020972D01*
X0021841Y0021070D02*
X0022826Y0021070D01*
X0022826Y0021169D02*
X0021841Y0021169D01*
X0021841Y0021267D02*
X0022826Y0021267D01*
X0022826Y0021366D02*
X0021841Y0021366D01*
X0021841Y0021464D02*
X0022826Y0021464D01*
X0022826Y0021563D02*
X0021841Y0021563D01*
X0021841Y0021661D02*
X0022826Y0021661D01*
X0022826Y0021760D02*
X0021841Y0021760D01*
X0021841Y0021858D02*
X0022826Y0021858D01*
X0022826Y0021957D02*
X0021841Y0021957D01*
X0021841Y0022055D02*
X0022826Y0022055D01*
X0022826Y0022154D02*
X0021841Y0022154D01*
X0021841Y0022252D02*
X0022826Y0022252D01*
X0022826Y0022351D02*
X0021841Y0022351D01*
X0021841Y0022449D02*
X0022826Y0022449D01*
X0022826Y0022548D02*
X0021841Y0022548D01*
X0021841Y0022646D02*
X0022826Y0022646D01*
X0022808Y0022745D02*
X0021859Y0022745D01*
X0021958Y0022843D02*
X0022709Y0022843D01*
X0022627Y0023711D02*
X0018001Y0023711D01*
X0018001Y0024007D01*
X0016820Y0024007D01*
X0016623Y0024204D01*
X0016623Y0024794D01*
X0016820Y0024991D01*
X0018001Y0024991D01*
X0018001Y0025286D01*
X0022627Y0025286D01*
X0022824Y0025089D01*
X0022824Y0023908D01*
X0022627Y0023711D01*
X0022645Y0023730D02*
X0018001Y0023730D01*
X0018001Y0023829D02*
X0022744Y0023829D01*
X0022824Y0023927D02*
X0018001Y0023927D01*
X0018001Y0025011D02*
X0022824Y0025011D01*
X0022824Y0024912D02*
X0016741Y0024912D01*
X0016642Y0024814D02*
X0022824Y0024814D01*
X0022824Y0024715D02*
X0016623Y0024715D01*
X0016623Y0024617D02*
X0022824Y0024617D01*
X0022824Y0024518D02*
X0016623Y0024518D01*
X0016623Y0024420D02*
X0022824Y0024420D01*
X0022824Y0024321D02*
X0016623Y0024321D01*
X0016623Y0024223D02*
X0022824Y0024223D01*
X0022824Y0024124D02*
X0016702Y0024124D01*
X0016801Y0024026D02*
X0022824Y0024026D01*
X0022804Y0025109D02*
X0018001Y0025109D01*
X0018001Y0025208D02*
X0022705Y0025208D01*
X0023812Y0025011D02*
X0028635Y0025011D01*
X0028635Y0025109D02*
X0023832Y0025109D01*
X0023930Y0025208D02*
X0028635Y0025208D01*
X0028635Y0027255D02*
X0028635Y0027550D01*
X0029816Y0027550D01*
X0030013Y0027747D01*
X0030013Y0028337D01*
X0029816Y0028534D01*
X0028635Y0028534D01*
X0028635Y0028830D01*
X0024009Y0028830D01*
X0023812Y0028633D01*
X0023812Y0027452D01*
X0024009Y0027255D01*
X0028635Y0027255D01*
X0028635Y0027276D02*
X0023987Y0027276D01*
X0023888Y0027375D02*
X0028635Y0027375D01*
X0028635Y0027473D02*
X0023812Y0027473D01*
X0023812Y0027572D02*
X0029838Y0027572D01*
X0029936Y0027670D02*
X0023812Y0027670D01*
X0023812Y0027769D02*
X0030013Y0027769D01*
X0030013Y0027867D02*
X0023812Y0027867D01*
X0023812Y0027966D02*
X0030013Y0027966D01*
X0030013Y0028065D02*
X0023812Y0028065D01*
X0023812Y0028163D02*
X0030013Y0028163D01*
X0030013Y0028262D02*
X0023812Y0028262D01*
X0023812Y0028360D02*
X0029990Y0028360D01*
X0029891Y0028459D02*
X0023812Y0028459D01*
X0023812Y0028557D02*
X0028635Y0028557D01*
X0028635Y0028656D02*
X0023835Y0028656D01*
X0023933Y0028754D02*
X0028635Y0028754D01*
X0028635Y0030404D02*
X0028635Y0030700D01*
X0029816Y0030700D01*
X0030013Y0030896D01*
X0030013Y0031487D01*
X0029816Y0031684D01*
X0028635Y0031684D01*
X0028635Y0031979D01*
X0024009Y0031979D01*
X0023812Y0031782D01*
X0023812Y0030601D01*
X0024009Y0030404D01*
X0028635Y0030404D01*
X0028635Y0030429D02*
X0023984Y0030429D01*
X0023886Y0030527D02*
X0028635Y0030527D01*
X0028635Y0030626D02*
X0023812Y0030626D01*
X0023812Y0030724D02*
X0029840Y0030724D01*
X0029939Y0030823D02*
X0023812Y0030823D01*
X0023812Y0030921D02*
X0030013Y0030921D01*
X0030013Y0031020D02*
X0023812Y0031020D01*
X0023812Y0031118D02*
X0030013Y0031118D01*
X0030013Y0031217D02*
X0023812Y0031217D01*
X0023812Y0031315D02*
X0030013Y0031315D01*
X0030013Y0031414D02*
X0023812Y0031414D01*
X0023812Y0031512D02*
X0029987Y0031512D01*
X0029889Y0031611D02*
X0023812Y0031611D01*
X0023812Y0031709D02*
X0028635Y0031709D01*
X0028635Y0031808D02*
X0023837Y0031808D01*
X0023936Y0031906D02*
X0028635Y0031906D01*
X0028635Y0033948D02*
X0028635Y0034243D01*
X0029816Y0034243D01*
X0030013Y0034440D01*
X0030013Y0035030D01*
X0029816Y0035227D01*
X0028635Y0035227D01*
X0028635Y0035522D01*
X0024009Y0035522D01*
X0023812Y0035326D01*
X0023812Y0034144D01*
X0024009Y0033948D01*
X0028635Y0033948D01*
X0028635Y0033975D02*
X0023981Y0033975D01*
X0023883Y0034074D02*
X0028635Y0034074D01*
X0028635Y0034172D02*
X0023812Y0034172D01*
X0023812Y0034271D02*
X0029844Y0034271D01*
X0029942Y0034369D02*
X0023812Y0034369D01*
X0023812Y0034468D02*
X0030013Y0034468D01*
X0030013Y0034566D02*
X0023812Y0034566D01*
X0023812Y0034665D02*
X0030013Y0034665D01*
X0030013Y0034763D02*
X0023812Y0034763D01*
X0023812Y0034862D02*
X0030013Y0034862D01*
X0030013Y0034960D02*
X0023812Y0034960D01*
X0023812Y0035059D02*
X0029984Y0035059D01*
X0029886Y0035157D02*
X0023812Y0035157D01*
X0023812Y0035256D02*
X0028635Y0035256D01*
X0028635Y0035354D02*
X0023840Y0035354D01*
X0023939Y0035453D02*
X0028635Y0035453D01*
X0022824Y0035326D02*
X0022824Y0034144D01*
X0022627Y0033948D01*
X0018001Y0033948D01*
X0018001Y0034243D01*
X0016820Y0034243D01*
X0016623Y0034440D01*
X0016623Y0035030D01*
X0016820Y0035227D01*
X0018001Y0035227D01*
X0018001Y0035522D01*
X0022627Y0035522D01*
X0022824Y0035326D01*
X0022795Y0035354D02*
X0018001Y0035354D01*
X0018001Y0035256D02*
X0022824Y0035256D01*
X0022824Y0035157D02*
X0016750Y0035157D01*
X0016651Y0035059D02*
X0022824Y0035059D01*
X0022824Y0034960D02*
X0016623Y0034960D01*
X0016623Y0034862D02*
X0022824Y0034862D01*
X0022824Y0034763D02*
X0016623Y0034763D01*
X0016623Y0034665D02*
X0022824Y0034665D01*
X0022824Y0034566D02*
X0016623Y0034566D01*
X0016623Y0034468D02*
X0022824Y0034468D01*
X0022824Y0034369D02*
X0016693Y0034369D01*
X0016792Y0034271D02*
X0022824Y0034271D01*
X0022824Y0034172D02*
X0018001Y0034172D01*
X0018001Y0034074D02*
X0022753Y0034074D01*
X0022654Y0033975D02*
X0018001Y0033975D01*
X0018001Y0035453D02*
X0022696Y0035453D01*
X0022627Y0031979D02*
X0022824Y0031782D01*
X0022824Y0030601D01*
X0022627Y0030404D01*
X0018001Y0030404D01*
X0018001Y0030700D01*
X0016820Y0030700D01*
X0016623Y0030896D01*
X0016623Y0031487D01*
X0016820Y0031684D01*
X0018001Y0031684D01*
X0018001Y0031979D01*
X0022627Y0031979D01*
X0022699Y0031906D02*
X0018001Y0031906D01*
X0018001Y0031808D02*
X0022798Y0031808D01*
X0022824Y0031709D02*
X0018001Y0031709D01*
X0018001Y0030626D02*
X0022824Y0030626D01*
X0022824Y0030724D02*
X0016795Y0030724D01*
X0016696Y0030823D02*
X0022824Y0030823D01*
X0022824Y0030921D02*
X0016623Y0030921D01*
X0016623Y0031020D02*
X0022824Y0031020D01*
X0022824Y0031118D02*
X0016623Y0031118D01*
X0016623Y0031217D02*
X0022824Y0031217D01*
X0022824Y0031315D02*
X0016623Y0031315D01*
X0016623Y0031414D02*
X0022824Y0031414D01*
X0022824Y0031512D02*
X0016648Y0031512D01*
X0016747Y0031611D02*
X0022824Y0031611D01*
X0022750Y0030527D02*
X0018001Y0030527D01*
X0018001Y0030429D02*
X0022651Y0030429D01*
X0022627Y0028830D02*
X0022824Y0028633D01*
X0022824Y0027452D01*
X0022627Y0027255D01*
X0018001Y0027255D01*
X0018001Y0027550D01*
X0016820Y0027550D01*
X0016623Y0027747D01*
X0016623Y0028337D01*
X0016820Y0028534D01*
X0018001Y0028534D01*
X0018001Y0028830D01*
X0022627Y0028830D01*
X0022702Y0028754D02*
X0018001Y0028754D01*
X0018001Y0028656D02*
X0022801Y0028656D01*
X0022824Y0028557D02*
X0018001Y0028557D01*
X0018001Y0027473D02*
X0022824Y0027473D01*
X0022824Y0027572D02*
X0016798Y0027572D01*
X0016699Y0027670D02*
X0022824Y0027670D01*
X0022824Y0027769D02*
X0016623Y0027769D01*
X0016623Y0027867D02*
X0022824Y0027867D01*
X0022824Y0027966D02*
X0016623Y0027966D01*
X0016623Y0028065D02*
X0022824Y0028065D01*
X0022824Y0028163D02*
X0016623Y0028163D01*
X0016623Y0028262D02*
X0022824Y0028262D01*
X0022824Y0028360D02*
X0016645Y0028360D01*
X0016744Y0028459D02*
X0022824Y0028459D01*
X0022747Y0027375D02*
X0018001Y0027375D01*
X0018001Y0027276D02*
X0022648Y0027276D01*
X0020660Y0022924D02*
X0020070Y0022924D01*
X0019873Y0022727D01*
X0019873Y0019578D01*
X0020070Y0019381D01*
X0020660Y0019381D01*
X0020857Y0019578D01*
X0020857Y0022727D01*
X0020660Y0022924D01*
X0020741Y0022843D02*
X0019989Y0022843D01*
X0019891Y0022745D02*
X0020839Y0022745D01*
X0020857Y0022646D02*
X0019873Y0022646D01*
X0019873Y0022548D02*
X0020857Y0022548D01*
X0020857Y0022449D02*
X0019873Y0022449D01*
X0019873Y0022351D02*
X0020857Y0022351D01*
X0020857Y0022252D02*
X0019873Y0022252D01*
X0019873Y0022154D02*
X0020857Y0022154D01*
X0020857Y0022055D02*
X0019873Y0022055D01*
X0019873Y0021957D02*
X0020857Y0021957D01*
X0020857Y0021858D02*
X0019873Y0021858D01*
X0019873Y0021760D02*
X0020857Y0021760D01*
X0020857Y0021661D02*
X0019873Y0021661D01*
X0019873Y0021563D02*
X0020857Y0021563D01*
X0020857Y0021464D02*
X0019873Y0021464D01*
X0019873Y0021366D02*
X0020857Y0021366D01*
X0020857Y0021267D02*
X0019873Y0021267D01*
X0019873Y0021169D02*
X0020857Y0021169D01*
X0020857Y0021070D02*
X0019873Y0021070D01*
X0019873Y0020972D02*
X0020857Y0020972D01*
X0020857Y0020873D02*
X0019873Y0020873D01*
X0019873Y0020775D02*
X0020857Y0020775D01*
X0020857Y0020676D02*
X0019873Y0020676D01*
X0019873Y0020578D02*
X0020857Y0020578D01*
X0020857Y0020479D02*
X0019873Y0020479D01*
X0019873Y0020381D02*
X0020857Y0020381D01*
X0020857Y0020282D02*
X0019873Y0020282D01*
X0019873Y0020184D02*
X0020857Y0020184D01*
X0020857Y0020085D02*
X0019873Y0020085D01*
X0019873Y0019987D02*
X0020857Y0019987D01*
X0020857Y0019888D02*
X0019873Y0019888D01*
X0019873Y0019790D02*
X0020857Y0019790D01*
X0020857Y0019691D02*
X0019873Y0019691D01*
X0019873Y0019593D02*
X0020857Y0019593D01*
X0020774Y0019494D02*
X0019956Y0019494D01*
X0020055Y0019396D02*
X0020675Y0019396D01*
X0021925Y0019494D02*
X0022742Y0019494D01*
X0022644Y0019396D02*
X0022023Y0019396D01*
X0025778Y0019578D02*
X0025975Y0019381D01*
X0026566Y0019381D01*
X0026763Y0019578D01*
X0026763Y0022727D01*
X0026566Y0022924D01*
X0025975Y0022924D01*
X0025778Y0022727D01*
X0025778Y0019578D01*
X0025778Y0019593D02*
X0026763Y0019593D01*
X0026763Y0019691D02*
X0025778Y0019691D01*
X0025778Y0019790D02*
X0026763Y0019790D01*
X0026763Y0019888D02*
X0025778Y0019888D01*
X0025778Y0019987D02*
X0026763Y0019987D01*
X0026763Y0020085D02*
X0025778Y0020085D01*
X0025778Y0020184D02*
X0026763Y0020184D01*
X0026763Y0020282D02*
X0025778Y0020282D01*
X0025778Y0020381D02*
X0026763Y0020381D01*
X0026763Y0020479D02*
X0025778Y0020479D01*
X0025778Y0020578D02*
X0026763Y0020578D01*
X0026763Y0020676D02*
X0025778Y0020676D01*
X0025778Y0020775D02*
X0026763Y0020775D01*
X0026763Y0020873D02*
X0025778Y0020873D01*
X0025778Y0020972D02*
X0026763Y0020972D01*
X0026763Y0021070D02*
X0025778Y0021070D01*
X0025778Y0021169D02*
X0026763Y0021169D01*
X0026763Y0021267D02*
X0025778Y0021267D01*
X0025778Y0021366D02*
X0026763Y0021366D01*
X0026763Y0021464D02*
X0025778Y0021464D01*
X0025778Y0021563D02*
X0026763Y0021563D01*
X0026763Y0021661D02*
X0025778Y0021661D01*
X0025778Y0021760D02*
X0026763Y0021760D01*
X0026763Y0021858D02*
X0025778Y0021858D01*
X0025778Y0021957D02*
X0026763Y0021957D01*
X0026763Y0022055D02*
X0025778Y0022055D01*
X0025778Y0022154D02*
X0026763Y0022154D01*
X0026763Y0022252D02*
X0025778Y0022252D01*
X0025778Y0022351D02*
X0026763Y0022351D01*
X0026763Y0022449D02*
X0025778Y0022449D01*
X0025778Y0022548D02*
X0026763Y0022548D01*
X0026763Y0022646D02*
X0025778Y0022646D01*
X0025796Y0022745D02*
X0026745Y0022745D01*
X0026646Y0022843D02*
X0025895Y0022843D01*
X0025862Y0019494D02*
X0026679Y0019494D01*
X0026581Y0019396D02*
X0025960Y0019396D01*
M02*
