G75*
%MOIN*%
%OFA0B0*%
%FSLAX25Y25*%
%IPPOS*%
%LPD*%
%AMOC8*
5,1,8,0,0,1.08239X$1,22.5*
%
%ADD10C,0.00000*%
%ADD11R,0.10630X0.10630*%
%ADD12R,0.02756X0.03543*%
%ADD13OC8,0.05906*%
%ADD14R,0.02362X0.00984*%
%ADD15R,0.13780X0.01969*%
%ADD16R,0.06594X0.01969*%
%ADD17R,0.13780X0.06299*%
%ADD18R,0.00984X0.02362*%
%ADD19C,0.00600*%
%ADD20R,0.02205X0.02205*%
%ADD21C,0.01000*%
%ADD22OC8,0.02205*%
%ADD23C,0.01600*%
D10*
X0002452Y0002452D02*
X0002452Y0061507D01*
X0073318Y0061507D01*
X0073318Y0002452D01*
X0002452Y0002452D01*
X0004459Y0005050D02*
X0004461Y0005098D01*
X0004467Y0005146D01*
X0004477Y0005193D01*
X0004490Y0005239D01*
X0004508Y0005284D01*
X0004528Y0005328D01*
X0004553Y0005370D01*
X0004581Y0005409D01*
X0004611Y0005446D01*
X0004645Y0005480D01*
X0004682Y0005512D01*
X0004720Y0005541D01*
X0004761Y0005566D01*
X0004804Y0005588D01*
X0004849Y0005606D01*
X0004895Y0005620D01*
X0004942Y0005631D01*
X0004990Y0005638D01*
X0005038Y0005641D01*
X0005086Y0005640D01*
X0005134Y0005635D01*
X0005182Y0005626D01*
X0005228Y0005614D01*
X0005273Y0005597D01*
X0005317Y0005577D01*
X0005359Y0005554D01*
X0005399Y0005527D01*
X0005437Y0005497D01*
X0005472Y0005464D01*
X0005504Y0005428D01*
X0005534Y0005390D01*
X0005560Y0005349D01*
X0005582Y0005306D01*
X0005602Y0005262D01*
X0005617Y0005217D01*
X0005629Y0005170D01*
X0005637Y0005122D01*
X0005641Y0005074D01*
X0005641Y0005026D01*
X0005637Y0004978D01*
X0005629Y0004930D01*
X0005617Y0004883D01*
X0005602Y0004838D01*
X0005582Y0004794D01*
X0005560Y0004751D01*
X0005534Y0004710D01*
X0005504Y0004672D01*
X0005472Y0004636D01*
X0005437Y0004603D01*
X0005399Y0004573D01*
X0005359Y0004546D01*
X0005317Y0004523D01*
X0005273Y0004503D01*
X0005228Y0004486D01*
X0005182Y0004474D01*
X0005134Y0004465D01*
X0005086Y0004460D01*
X0005038Y0004459D01*
X0004990Y0004462D01*
X0004942Y0004469D01*
X0004895Y0004480D01*
X0004849Y0004494D01*
X0004804Y0004512D01*
X0004761Y0004534D01*
X0004720Y0004559D01*
X0004682Y0004588D01*
X0004645Y0004620D01*
X0004611Y0004654D01*
X0004581Y0004691D01*
X0004553Y0004730D01*
X0004528Y0004772D01*
X0004508Y0004816D01*
X0004490Y0004861D01*
X0004477Y0004907D01*
X0004467Y0004954D01*
X0004461Y0005002D01*
X0004459Y0005050D01*
X0004459Y0012452D02*
X0004461Y0012500D01*
X0004467Y0012548D01*
X0004477Y0012595D01*
X0004490Y0012641D01*
X0004508Y0012686D01*
X0004528Y0012730D01*
X0004553Y0012772D01*
X0004581Y0012811D01*
X0004611Y0012848D01*
X0004645Y0012882D01*
X0004682Y0012914D01*
X0004720Y0012943D01*
X0004761Y0012968D01*
X0004804Y0012990D01*
X0004849Y0013008D01*
X0004895Y0013022D01*
X0004942Y0013033D01*
X0004990Y0013040D01*
X0005038Y0013043D01*
X0005086Y0013042D01*
X0005134Y0013037D01*
X0005182Y0013028D01*
X0005228Y0013016D01*
X0005273Y0012999D01*
X0005317Y0012979D01*
X0005359Y0012956D01*
X0005399Y0012929D01*
X0005437Y0012899D01*
X0005472Y0012866D01*
X0005504Y0012830D01*
X0005534Y0012792D01*
X0005560Y0012751D01*
X0005582Y0012708D01*
X0005602Y0012664D01*
X0005617Y0012619D01*
X0005629Y0012572D01*
X0005637Y0012524D01*
X0005641Y0012476D01*
X0005641Y0012428D01*
X0005637Y0012380D01*
X0005629Y0012332D01*
X0005617Y0012285D01*
X0005602Y0012240D01*
X0005582Y0012196D01*
X0005560Y0012153D01*
X0005534Y0012112D01*
X0005504Y0012074D01*
X0005472Y0012038D01*
X0005437Y0012005D01*
X0005399Y0011975D01*
X0005359Y0011948D01*
X0005317Y0011925D01*
X0005273Y0011905D01*
X0005228Y0011888D01*
X0005182Y0011876D01*
X0005134Y0011867D01*
X0005086Y0011862D01*
X0005038Y0011861D01*
X0004990Y0011864D01*
X0004942Y0011871D01*
X0004895Y0011882D01*
X0004849Y0011896D01*
X0004804Y0011914D01*
X0004761Y0011936D01*
X0004720Y0011961D01*
X0004682Y0011990D01*
X0004645Y0012022D01*
X0004611Y0012056D01*
X0004581Y0012093D01*
X0004553Y0012132D01*
X0004528Y0012174D01*
X0004508Y0012218D01*
X0004490Y0012263D01*
X0004477Y0012309D01*
X0004467Y0012356D01*
X0004461Y0012404D01*
X0004459Y0012452D01*
X0011861Y0012452D02*
X0011863Y0012500D01*
X0011869Y0012548D01*
X0011879Y0012595D01*
X0011892Y0012641D01*
X0011910Y0012686D01*
X0011930Y0012730D01*
X0011955Y0012772D01*
X0011983Y0012811D01*
X0012013Y0012848D01*
X0012047Y0012882D01*
X0012084Y0012914D01*
X0012122Y0012943D01*
X0012163Y0012968D01*
X0012206Y0012990D01*
X0012251Y0013008D01*
X0012297Y0013022D01*
X0012344Y0013033D01*
X0012392Y0013040D01*
X0012440Y0013043D01*
X0012488Y0013042D01*
X0012536Y0013037D01*
X0012584Y0013028D01*
X0012630Y0013016D01*
X0012675Y0012999D01*
X0012719Y0012979D01*
X0012761Y0012956D01*
X0012801Y0012929D01*
X0012839Y0012899D01*
X0012874Y0012866D01*
X0012906Y0012830D01*
X0012936Y0012792D01*
X0012962Y0012751D01*
X0012984Y0012708D01*
X0013004Y0012664D01*
X0013019Y0012619D01*
X0013031Y0012572D01*
X0013039Y0012524D01*
X0013043Y0012476D01*
X0013043Y0012428D01*
X0013039Y0012380D01*
X0013031Y0012332D01*
X0013019Y0012285D01*
X0013004Y0012240D01*
X0012984Y0012196D01*
X0012962Y0012153D01*
X0012936Y0012112D01*
X0012906Y0012074D01*
X0012874Y0012038D01*
X0012839Y0012005D01*
X0012801Y0011975D01*
X0012761Y0011948D01*
X0012719Y0011925D01*
X0012675Y0011905D01*
X0012630Y0011888D01*
X0012584Y0011876D01*
X0012536Y0011867D01*
X0012488Y0011862D01*
X0012440Y0011861D01*
X0012392Y0011864D01*
X0012344Y0011871D01*
X0012297Y0011882D01*
X0012251Y0011896D01*
X0012206Y0011914D01*
X0012163Y0011936D01*
X0012122Y0011961D01*
X0012084Y0011990D01*
X0012047Y0012022D01*
X0012013Y0012056D01*
X0011983Y0012093D01*
X0011955Y0012132D01*
X0011930Y0012174D01*
X0011910Y0012218D01*
X0011892Y0012263D01*
X0011879Y0012309D01*
X0011869Y0012356D01*
X0011863Y0012404D01*
X0011861Y0012452D01*
X0011861Y0005050D02*
X0011863Y0005098D01*
X0011869Y0005146D01*
X0011879Y0005193D01*
X0011892Y0005239D01*
X0011910Y0005284D01*
X0011930Y0005328D01*
X0011955Y0005370D01*
X0011983Y0005409D01*
X0012013Y0005446D01*
X0012047Y0005480D01*
X0012084Y0005512D01*
X0012122Y0005541D01*
X0012163Y0005566D01*
X0012206Y0005588D01*
X0012251Y0005606D01*
X0012297Y0005620D01*
X0012344Y0005631D01*
X0012392Y0005638D01*
X0012440Y0005641D01*
X0012488Y0005640D01*
X0012536Y0005635D01*
X0012584Y0005626D01*
X0012630Y0005614D01*
X0012675Y0005597D01*
X0012719Y0005577D01*
X0012761Y0005554D01*
X0012801Y0005527D01*
X0012839Y0005497D01*
X0012874Y0005464D01*
X0012906Y0005428D01*
X0012936Y0005390D01*
X0012962Y0005349D01*
X0012984Y0005306D01*
X0013004Y0005262D01*
X0013019Y0005217D01*
X0013031Y0005170D01*
X0013039Y0005122D01*
X0013043Y0005074D01*
X0013043Y0005026D01*
X0013039Y0004978D01*
X0013031Y0004930D01*
X0013019Y0004883D01*
X0013004Y0004838D01*
X0012984Y0004794D01*
X0012962Y0004751D01*
X0012936Y0004710D01*
X0012906Y0004672D01*
X0012874Y0004636D01*
X0012839Y0004603D01*
X0012801Y0004573D01*
X0012761Y0004546D01*
X0012719Y0004523D01*
X0012675Y0004503D01*
X0012630Y0004486D01*
X0012584Y0004474D01*
X0012536Y0004465D01*
X0012488Y0004460D01*
X0012440Y0004459D01*
X0012392Y0004462D01*
X0012344Y0004469D01*
X0012297Y0004480D01*
X0012251Y0004494D01*
X0012206Y0004512D01*
X0012163Y0004534D01*
X0012122Y0004559D01*
X0012084Y0004588D01*
X0012047Y0004620D01*
X0012013Y0004654D01*
X0011983Y0004691D01*
X0011955Y0004730D01*
X0011930Y0004772D01*
X0011910Y0004816D01*
X0011892Y0004861D01*
X0011879Y0004907D01*
X0011869Y0004954D01*
X0011863Y0005002D01*
X0011861Y0005050D01*
X0021782Y0005050D02*
X0021784Y0005098D01*
X0021790Y0005146D01*
X0021800Y0005193D01*
X0021813Y0005239D01*
X0021831Y0005284D01*
X0021851Y0005328D01*
X0021876Y0005370D01*
X0021904Y0005409D01*
X0021934Y0005446D01*
X0021968Y0005480D01*
X0022005Y0005512D01*
X0022043Y0005541D01*
X0022084Y0005566D01*
X0022127Y0005588D01*
X0022172Y0005606D01*
X0022218Y0005620D01*
X0022265Y0005631D01*
X0022313Y0005638D01*
X0022361Y0005641D01*
X0022409Y0005640D01*
X0022457Y0005635D01*
X0022505Y0005626D01*
X0022551Y0005614D01*
X0022596Y0005597D01*
X0022640Y0005577D01*
X0022682Y0005554D01*
X0022722Y0005527D01*
X0022760Y0005497D01*
X0022795Y0005464D01*
X0022827Y0005428D01*
X0022857Y0005390D01*
X0022883Y0005349D01*
X0022905Y0005306D01*
X0022925Y0005262D01*
X0022940Y0005217D01*
X0022952Y0005170D01*
X0022960Y0005122D01*
X0022964Y0005074D01*
X0022964Y0005026D01*
X0022960Y0004978D01*
X0022952Y0004930D01*
X0022940Y0004883D01*
X0022925Y0004838D01*
X0022905Y0004794D01*
X0022883Y0004751D01*
X0022857Y0004710D01*
X0022827Y0004672D01*
X0022795Y0004636D01*
X0022760Y0004603D01*
X0022722Y0004573D01*
X0022682Y0004546D01*
X0022640Y0004523D01*
X0022596Y0004503D01*
X0022551Y0004486D01*
X0022505Y0004474D01*
X0022457Y0004465D01*
X0022409Y0004460D01*
X0022361Y0004459D01*
X0022313Y0004462D01*
X0022265Y0004469D01*
X0022218Y0004480D01*
X0022172Y0004494D01*
X0022127Y0004512D01*
X0022084Y0004534D01*
X0022043Y0004559D01*
X0022005Y0004588D01*
X0021968Y0004620D01*
X0021934Y0004654D01*
X0021904Y0004691D01*
X0021876Y0004730D01*
X0021851Y0004772D01*
X0021831Y0004816D01*
X0021813Y0004861D01*
X0021800Y0004907D01*
X0021790Y0004954D01*
X0021784Y0005002D01*
X0021782Y0005050D01*
X0029183Y0005050D02*
X0029185Y0005098D01*
X0029191Y0005146D01*
X0029201Y0005193D01*
X0029214Y0005239D01*
X0029232Y0005284D01*
X0029252Y0005328D01*
X0029277Y0005370D01*
X0029305Y0005409D01*
X0029335Y0005446D01*
X0029369Y0005480D01*
X0029406Y0005512D01*
X0029444Y0005541D01*
X0029485Y0005566D01*
X0029528Y0005588D01*
X0029573Y0005606D01*
X0029619Y0005620D01*
X0029666Y0005631D01*
X0029714Y0005638D01*
X0029762Y0005641D01*
X0029810Y0005640D01*
X0029858Y0005635D01*
X0029906Y0005626D01*
X0029952Y0005614D01*
X0029997Y0005597D01*
X0030041Y0005577D01*
X0030083Y0005554D01*
X0030123Y0005527D01*
X0030161Y0005497D01*
X0030196Y0005464D01*
X0030228Y0005428D01*
X0030258Y0005390D01*
X0030284Y0005349D01*
X0030306Y0005306D01*
X0030326Y0005262D01*
X0030341Y0005217D01*
X0030353Y0005170D01*
X0030361Y0005122D01*
X0030365Y0005074D01*
X0030365Y0005026D01*
X0030361Y0004978D01*
X0030353Y0004930D01*
X0030341Y0004883D01*
X0030326Y0004838D01*
X0030306Y0004794D01*
X0030284Y0004751D01*
X0030258Y0004710D01*
X0030228Y0004672D01*
X0030196Y0004636D01*
X0030161Y0004603D01*
X0030123Y0004573D01*
X0030083Y0004546D01*
X0030041Y0004523D01*
X0029997Y0004503D01*
X0029952Y0004486D01*
X0029906Y0004474D01*
X0029858Y0004465D01*
X0029810Y0004460D01*
X0029762Y0004459D01*
X0029714Y0004462D01*
X0029666Y0004469D01*
X0029619Y0004480D01*
X0029573Y0004494D01*
X0029528Y0004512D01*
X0029485Y0004534D01*
X0029444Y0004559D01*
X0029406Y0004588D01*
X0029369Y0004620D01*
X0029335Y0004654D01*
X0029305Y0004691D01*
X0029277Y0004730D01*
X0029252Y0004772D01*
X0029232Y0004816D01*
X0029214Y0004861D01*
X0029201Y0004907D01*
X0029191Y0004954D01*
X0029185Y0005002D01*
X0029183Y0005050D01*
X0029183Y0012452D02*
X0029185Y0012500D01*
X0029191Y0012548D01*
X0029201Y0012595D01*
X0029214Y0012641D01*
X0029232Y0012686D01*
X0029252Y0012730D01*
X0029277Y0012772D01*
X0029305Y0012811D01*
X0029335Y0012848D01*
X0029369Y0012882D01*
X0029406Y0012914D01*
X0029444Y0012943D01*
X0029485Y0012968D01*
X0029528Y0012990D01*
X0029573Y0013008D01*
X0029619Y0013022D01*
X0029666Y0013033D01*
X0029714Y0013040D01*
X0029762Y0013043D01*
X0029810Y0013042D01*
X0029858Y0013037D01*
X0029906Y0013028D01*
X0029952Y0013016D01*
X0029997Y0012999D01*
X0030041Y0012979D01*
X0030083Y0012956D01*
X0030123Y0012929D01*
X0030161Y0012899D01*
X0030196Y0012866D01*
X0030228Y0012830D01*
X0030258Y0012792D01*
X0030284Y0012751D01*
X0030306Y0012708D01*
X0030326Y0012664D01*
X0030341Y0012619D01*
X0030353Y0012572D01*
X0030361Y0012524D01*
X0030365Y0012476D01*
X0030365Y0012428D01*
X0030361Y0012380D01*
X0030353Y0012332D01*
X0030341Y0012285D01*
X0030326Y0012240D01*
X0030306Y0012196D01*
X0030284Y0012153D01*
X0030258Y0012112D01*
X0030228Y0012074D01*
X0030196Y0012038D01*
X0030161Y0012005D01*
X0030123Y0011975D01*
X0030083Y0011948D01*
X0030041Y0011925D01*
X0029997Y0011905D01*
X0029952Y0011888D01*
X0029906Y0011876D01*
X0029858Y0011867D01*
X0029810Y0011862D01*
X0029762Y0011861D01*
X0029714Y0011864D01*
X0029666Y0011871D01*
X0029619Y0011882D01*
X0029573Y0011896D01*
X0029528Y0011914D01*
X0029485Y0011936D01*
X0029444Y0011961D01*
X0029406Y0011990D01*
X0029369Y0012022D01*
X0029335Y0012056D01*
X0029305Y0012093D01*
X0029277Y0012132D01*
X0029252Y0012174D01*
X0029232Y0012218D01*
X0029214Y0012263D01*
X0029201Y0012309D01*
X0029191Y0012356D01*
X0029185Y0012404D01*
X0029183Y0012452D01*
X0021782Y0012452D02*
X0021784Y0012500D01*
X0021790Y0012548D01*
X0021800Y0012595D01*
X0021813Y0012641D01*
X0021831Y0012686D01*
X0021851Y0012730D01*
X0021876Y0012772D01*
X0021904Y0012811D01*
X0021934Y0012848D01*
X0021968Y0012882D01*
X0022005Y0012914D01*
X0022043Y0012943D01*
X0022084Y0012968D01*
X0022127Y0012990D01*
X0022172Y0013008D01*
X0022218Y0013022D01*
X0022265Y0013033D01*
X0022313Y0013040D01*
X0022361Y0013043D01*
X0022409Y0013042D01*
X0022457Y0013037D01*
X0022505Y0013028D01*
X0022551Y0013016D01*
X0022596Y0012999D01*
X0022640Y0012979D01*
X0022682Y0012956D01*
X0022722Y0012929D01*
X0022760Y0012899D01*
X0022795Y0012866D01*
X0022827Y0012830D01*
X0022857Y0012792D01*
X0022883Y0012751D01*
X0022905Y0012708D01*
X0022925Y0012664D01*
X0022940Y0012619D01*
X0022952Y0012572D01*
X0022960Y0012524D01*
X0022964Y0012476D01*
X0022964Y0012428D01*
X0022960Y0012380D01*
X0022952Y0012332D01*
X0022940Y0012285D01*
X0022925Y0012240D01*
X0022905Y0012196D01*
X0022883Y0012153D01*
X0022857Y0012112D01*
X0022827Y0012074D01*
X0022795Y0012038D01*
X0022760Y0012005D01*
X0022722Y0011975D01*
X0022682Y0011948D01*
X0022640Y0011925D01*
X0022596Y0011905D01*
X0022551Y0011888D01*
X0022505Y0011876D01*
X0022457Y0011867D01*
X0022409Y0011862D01*
X0022361Y0011861D01*
X0022313Y0011864D01*
X0022265Y0011871D01*
X0022218Y0011882D01*
X0022172Y0011896D01*
X0022127Y0011914D01*
X0022084Y0011936D01*
X0022043Y0011961D01*
X0022005Y0011990D01*
X0021968Y0012022D01*
X0021934Y0012056D01*
X0021904Y0012093D01*
X0021876Y0012132D01*
X0021851Y0012174D01*
X0021831Y0012218D01*
X0021813Y0012263D01*
X0021800Y0012309D01*
X0021790Y0012356D01*
X0021784Y0012404D01*
X0021782Y0012452D01*
X0045404Y0012452D02*
X0045406Y0012500D01*
X0045412Y0012548D01*
X0045422Y0012595D01*
X0045435Y0012641D01*
X0045453Y0012686D01*
X0045473Y0012730D01*
X0045498Y0012772D01*
X0045526Y0012811D01*
X0045556Y0012848D01*
X0045590Y0012882D01*
X0045627Y0012914D01*
X0045665Y0012943D01*
X0045706Y0012968D01*
X0045749Y0012990D01*
X0045794Y0013008D01*
X0045840Y0013022D01*
X0045887Y0013033D01*
X0045935Y0013040D01*
X0045983Y0013043D01*
X0046031Y0013042D01*
X0046079Y0013037D01*
X0046127Y0013028D01*
X0046173Y0013016D01*
X0046218Y0012999D01*
X0046262Y0012979D01*
X0046304Y0012956D01*
X0046344Y0012929D01*
X0046382Y0012899D01*
X0046417Y0012866D01*
X0046449Y0012830D01*
X0046479Y0012792D01*
X0046505Y0012751D01*
X0046527Y0012708D01*
X0046547Y0012664D01*
X0046562Y0012619D01*
X0046574Y0012572D01*
X0046582Y0012524D01*
X0046586Y0012476D01*
X0046586Y0012428D01*
X0046582Y0012380D01*
X0046574Y0012332D01*
X0046562Y0012285D01*
X0046547Y0012240D01*
X0046527Y0012196D01*
X0046505Y0012153D01*
X0046479Y0012112D01*
X0046449Y0012074D01*
X0046417Y0012038D01*
X0046382Y0012005D01*
X0046344Y0011975D01*
X0046304Y0011948D01*
X0046262Y0011925D01*
X0046218Y0011905D01*
X0046173Y0011888D01*
X0046127Y0011876D01*
X0046079Y0011867D01*
X0046031Y0011862D01*
X0045983Y0011861D01*
X0045935Y0011864D01*
X0045887Y0011871D01*
X0045840Y0011882D01*
X0045794Y0011896D01*
X0045749Y0011914D01*
X0045706Y0011936D01*
X0045665Y0011961D01*
X0045627Y0011990D01*
X0045590Y0012022D01*
X0045556Y0012056D01*
X0045526Y0012093D01*
X0045498Y0012132D01*
X0045473Y0012174D01*
X0045453Y0012218D01*
X0045435Y0012263D01*
X0045422Y0012309D01*
X0045412Y0012356D01*
X0045406Y0012404D01*
X0045404Y0012452D01*
X0052805Y0012452D02*
X0052807Y0012500D01*
X0052813Y0012548D01*
X0052823Y0012595D01*
X0052836Y0012641D01*
X0052854Y0012686D01*
X0052874Y0012730D01*
X0052899Y0012772D01*
X0052927Y0012811D01*
X0052957Y0012848D01*
X0052991Y0012882D01*
X0053028Y0012914D01*
X0053066Y0012943D01*
X0053107Y0012968D01*
X0053150Y0012990D01*
X0053195Y0013008D01*
X0053241Y0013022D01*
X0053288Y0013033D01*
X0053336Y0013040D01*
X0053384Y0013043D01*
X0053432Y0013042D01*
X0053480Y0013037D01*
X0053528Y0013028D01*
X0053574Y0013016D01*
X0053619Y0012999D01*
X0053663Y0012979D01*
X0053705Y0012956D01*
X0053745Y0012929D01*
X0053783Y0012899D01*
X0053818Y0012866D01*
X0053850Y0012830D01*
X0053880Y0012792D01*
X0053906Y0012751D01*
X0053928Y0012708D01*
X0053948Y0012664D01*
X0053963Y0012619D01*
X0053975Y0012572D01*
X0053983Y0012524D01*
X0053987Y0012476D01*
X0053987Y0012428D01*
X0053983Y0012380D01*
X0053975Y0012332D01*
X0053963Y0012285D01*
X0053948Y0012240D01*
X0053928Y0012196D01*
X0053906Y0012153D01*
X0053880Y0012112D01*
X0053850Y0012074D01*
X0053818Y0012038D01*
X0053783Y0012005D01*
X0053745Y0011975D01*
X0053705Y0011948D01*
X0053663Y0011925D01*
X0053619Y0011905D01*
X0053574Y0011888D01*
X0053528Y0011876D01*
X0053480Y0011867D01*
X0053432Y0011862D01*
X0053384Y0011861D01*
X0053336Y0011864D01*
X0053288Y0011871D01*
X0053241Y0011882D01*
X0053195Y0011896D01*
X0053150Y0011914D01*
X0053107Y0011936D01*
X0053066Y0011961D01*
X0053028Y0011990D01*
X0052991Y0012022D01*
X0052957Y0012056D01*
X0052927Y0012093D01*
X0052899Y0012132D01*
X0052874Y0012174D01*
X0052854Y0012218D01*
X0052836Y0012263D01*
X0052823Y0012309D01*
X0052813Y0012356D01*
X0052807Y0012404D01*
X0052805Y0012452D01*
X0052805Y0005050D02*
X0052807Y0005098D01*
X0052813Y0005146D01*
X0052823Y0005193D01*
X0052836Y0005239D01*
X0052854Y0005284D01*
X0052874Y0005328D01*
X0052899Y0005370D01*
X0052927Y0005409D01*
X0052957Y0005446D01*
X0052991Y0005480D01*
X0053028Y0005512D01*
X0053066Y0005541D01*
X0053107Y0005566D01*
X0053150Y0005588D01*
X0053195Y0005606D01*
X0053241Y0005620D01*
X0053288Y0005631D01*
X0053336Y0005638D01*
X0053384Y0005641D01*
X0053432Y0005640D01*
X0053480Y0005635D01*
X0053528Y0005626D01*
X0053574Y0005614D01*
X0053619Y0005597D01*
X0053663Y0005577D01*
X0053705Y0005554D01*
X0053745Y0005527D01*
X0053783Y0005497D01*
X0053818Y0005464D01*
X0053850Y0005428D01*
X0053880Y0005390D01*
X0053906Y0005349D01*
X0053928Y0005306D01*
X0053948Y0005262D01*
X0053963Y0005217D01*
X0053975Y0005170D01*
X0053983Y0005122D01*
X0053987Y0005074D01*
X0053987Y0005026D01*
X0053983Y0004978D01*
X0053975Y0004930D01*
X0053963Y0004883D01*
X0053948Y0004838D01*
X0053928Y0004794D01*
X0053906Y0004751D01*
X0053880Y0004710D01*
X0053850Y0004672D01*
X0053818Y0004636D01*
X0053783Y0004603D01*
X0053745Y0004573D01*
X0053705Y0004546D01*
X0053663Y0004523D01*
X0053619Y0004503D01*
X0053574Y0004486D01*
X0053528Y0004474D01*
X0053480Y0004465D01*
X0053432Y0004460D01*
X0053384Y0004459D01*
X0053336Y0004462D01*
X0053288Y0004469D01*
X0053241Y0004480D01*
X0053195Y0004494D01*
X0053150Y0004512D01*
X0053107Y0004534D01*
X0053066Y0004559D01*
X0053028Y0004588D01*
X0052991Y0004620D01*
X0052957Y0004654D01*
X0052927Y0004691D01*
X0052899Y0004730D01*
X0052874Y0004772D01*
X0052854Y0004816D01*
X0052836Y0004861D01*
X0052823Y0004907D01*
X0052813Y0004954D01*
X0052807Y0005002D01*
X0052805Y0005050D01*
X0045404Y0005050D02*
X0045406Y0005098D01*
X0045412Y0005146D01*
X0045422Y0005193D01*
X0045435Y0005239D01*
X0045453Y0005284D01*
X0045473Y0005328D01*
X0045498Y0005370D01*
X0045526Y0005409D01*
X0045556Y0005446D01*
X0045590Y0005480D01*
X0045627Y0005512D01*
X0045665Y0005541D01*
X0045706Y0005566D01*
X0045749Y0005588D01*
X0045794Y0005606D01*
X0045840Y0005620D01*
X0045887Y0005631D01*
X0045935Y0005638D01*
X0045983Y0005641D01*
X0046031Y0005640D01*
X0046079Y0005635D01*
X0046127Y0005626D01*
X0046173Y0005614D01*
X0046218Y0005597D01*
X0046262Y0005577D01*
X0046304Y0005554D01*
X0046344Y0005527D01*
X0046382Y0005497D01*
X0046417Y0005464D01*
X0046449Y0005428D01*
X0046479Y0005390D01*
X0046505Y0005349D01*
X0046527Y0005306D01*
X0046547Y0005262D01*
X0046562Y0005217D01*
X0046574Y0005170D01*
X0046582Y0005122D01*
X0046586Y0005074D01*
X0046586Y0005026D01*
X0046582Y0004978D01*
X0046574Y0004930D01*
X0046562Y0004883D01*
X0046547Y0004838D01*
X0046527Y0004794D01*
X0046505Y0004751D01*
X0046479Y0004710D01*
X0046449Y0004672D01*
X0046417Y0004636D01*
X0046382Y0004603D01*
X0046344Y0004573D01*
X0046304Y0004546D01*
X0046262Y0004523D01*
X0046218Y0004503D01*
X0046173Y0004486D01*
X0046127Y0004474D01*
X0046079Y0004465D01*
X0046031Y0004460D01*
X0045983Y0004459D01*
X0045935Y0004462D01*
X0045887Y0004469D01*
X0045840Y0004480D01*
X0045794Y0004494D01*
X0045749Y0004512D01*
X0045706Y0004534D01*
X0045665Y0004559D01*
X0045627Y0004588D01*
X0045590Y0004620D01*
X0045556Y0004654D01*
X0045526Y0004691D01*
X0045498Y0004730D01*
X0045473Y0004772D01*
X0045453Y0004816D01*
X0045435Y0004861D01*
X0045422Y0004907D01*
X0045412Y0004954D01*
X0045406Y0005002D01*
X0045404Y0005050D01*
X0062727Y0005050D02*
X0062729Y0005098D01*
X0062735Y0005146D01*
X0062745Y0005193D01*
X0062758Y0005239D01*
X0062776Y0005284D01*
X0062796Y0005328D01*
X0062821Y0005370D01*
X0062849Y0005409D01*
X0062879Y0005446D01*
X0062913Y0005480D01*
X0062950Y0005512D01*
X0062988Y0005541D01*
X0063029Y0005566D01*
X0063072Y0005588D01*
X0063117Y0005606D01*
X0063163Y0005620D01*
X0063210Y0005631D01*
X0063258Y0005638D01*
X0063306Y0005641D01*
X0063354Y0005640D01*
X0063402Y0005635D01*
X0063450Y0005626D01*
X0063496Y0005614D01*
X0063541Y0005597D01*
X0063585Y0005577D01*
X0063627Y0005554D01*
X0063667Y0005527D01*
X0063705Y0005497D01*
X0063740Y0005464D01*
X0063772Y0005428D01*
X0063802Y0005390D01*
X0063828Y0005349D01*
X0063850Y0005306D01*
X0063870Y0005262D01*
X0063885Y0005217D01*
X0063897Y0005170D01*
X0063905Y0005122D01*
X0063909Y0005074D01*
X0063909Y0005026D01*
X0063905Y0004978D01*
X0063897Y0004930D01*
X0063885Y0004883D01*
X0063870Y0004838D01*
X0063850Y0004794D01*
X0063828Y0004751D01*
X0063802Y0004710D01*
X0063772Y0004672D01*
X0063740Y0004636D01*
X0063705Y0004603D01*
X0063667Y0004573D01*
X0063627Y0004546D01*
X0063585Y0004523D01*
X0063541Y0004503D01*
X0063496Y0004486D01*
X0063450Y0004474D01*
X0063402Y0004465D01*
X0063354Y0004460D01*
X0063306Y0004459D01*
X0063258Y0004462D01*
X0063210Y0004469D01*
X0063163Y0004480D01*
X0063117Y0004494D01*
X0063072Y0004512D01*
X0063029Y0004534D01*
X0062988Y0004559D01*
X0062950Y0004588D01*
X0062913Y0004620D01*
X0062879Y0004654D01*
X0062849Y0004691D01*
X0062821Y0004730D01*
X0062796Y0004772D01*
X0062776Y0004816D01*
X0062758Y0004861D01*
X0062745Y0004907D01*
X0062735Y0004954D01*
X0062729Y0005002D01*
X0062727Y0005050D01*
X0062727Y0012452D02*
X0062729Y0012500D01*
X0062735Y0012548D01*
X0062745Y0012595D01*
X0062758Y0012641D01*
X0062776Y0012686D01*
X0062796Y0012730D01*
X0062821Y0012772D01*
X0062849Y0012811D01*
X0062879Y0012848D01*
X0062913Y0012882D01*
X0062950Y0012914D01*
X0062988Y0012943D01*
X0063029Y0012968D01*
X0063072Y0012990D01*
X0063117Y0013008D01*
X0063163Y0013022D01*
X0063210Y0013033D01*
X0063258Y0013040D01*
X0063306Y0013043D01*
X0063354Y0013042D01*
X0063402Y0013037D01*
X0063450Y0013028D01*
X0063496Y0013016D01*
X0063541Y0012999D01*
X0063585Y0012979D01*
X0063627Y0012956D01*
X0063667Y0012929D01*
X0063705Y0012899D01*
X0063740Y0012866D01*
X0063772Y0012830D01*
X0063802Y0012792D01*
X0063828Y0012751D01*
X0063850Y0012708D01*
X0063870Y0012664D01*
X0063885Y0012619D01*
X0063897Y0012572D01*
X0063905Y0012524D01*
X0063909Y0012476D01*
X0063909Y0012428D01*
X0063905Y0012380D01*
X0063897Y0012332D01*
X0063885Y0012285D01*
X0063870Y0012240D01*
X0063850Y0012196D01*
X0063828Y0012153D01*
X0063802Y0012112D01*
X0063772Y0012074D01*
X0063740Y0012038D01*
X0063705Y0012005D01*
X0063667Y0011975D01*
X0063627Y0011948D01*
X0063585Y0011925D01*
X0063541Y0011905D01*
X0063496Y0011888D01*
X0063450Y0011876D01*
X0063402Y0011867D01*
X0063354Y0011862D01*
X0063306Y0011861D01*
X0063258Y0011864D01*
X0063210Y0011871D01*
X0063163Y0011882D01*
X0063117Y0011896D01*
X0063072Y0011914D01*
X0063029Y0011936D01*
X0062988Y0011961D01*
X0062950Y0011990D01*
X0062913Y0012022D01*
X0062879Y0012056D01*
X0062849Y0012093D01*
X0062821Y0012132D01*
X0062796Y0012174D01*
X0062776Y0012218D01*
X0062758Y0012263D01*
X0062745Y0012309D01*
X0062735Y0012356D01*
X0062729Y0012404D01*
X0062727Y0012452D01*
X0070128Y0012452D02*
X0070130Y0012500D01*
X0070136Y0012548D01*
X0070146Y0012595D01*
X0070159Y0012641D01*
X0070177Y0012686D01*
X0070197Y0012730D01*
X0070222Y0012772D01*
X0070250Y0012811D01*
X0070280Y0012848D01*
X0070314Y0012882D01*
X0070351Y0012914D01*
X0070389Y0012943D01*
X0070430Y0012968D01*
X0070473Y0012990D01*
X0070518Y0013008D01*
X0070564Y0013022D01*
X0070611Y0013033D01*
X0070659Y0013040D01*
X0070707Y0013043D01*
X0070755Y0013042D01*
X0070803Y0013037D01*
X0070851Y0013028D01*
X0070897Y0013016D01*
X0070942Y0012999D01*
X0070986Y0012979D01*
X0071028Y0012956D01*
X0071068Y0012929D01*
X0071106Y0012899D01*
X0071141Y0012866D01*
X0071173Y0012830D01*
X0071203Y0012792D01*
X0071229Y0012751D01*
X0071251Y0012708D01*
X0071271Y0012664D01*
X0071286Y0012619D01*
X0071298Y0012572D01*
X0071306Y0012524D01*
X0071310Y0012476D01*
X0071310Y0012428D01*
X0071306Y0012380D01*
X0071298Y0012332D01*
X0071286Y0012285D01*
X0071271Y0012240D01*
X0071251Y0012196D01*
X0071229Y0012153D01*
X0071203Y0012112D01*
X0071173Y0012074D01*
X0071141Y0012038D01*
X0071106Y0012005D01*
X0071068Y0011975D01*
X0071028Y0011948D01*
X0070986Y0011925D01*
X0070942Y0011905D01*
X0070897Y0011888D01*
X0070851Y0011876D01*
X0070803Y0011867D01*
X0070755Y0011862D01*
X0070707Y0011861D01*
X0070659Y0011864D01*
X0070611Y0011871D01*
X0070564Y0011882D01*
X0070518Y0011896D01*
X0070473Y0011914D01*
X0070430Y0011936D01*
X0070389Y0011961D01*
X0070351Y0011990D01*
X0070314Y0012022D01*
X0070280Y0012056D01*
X0070250Y0012093D01*
X0070222Y0012132D01*
X0070197Y0012174D01*
X0070177Y0012218D01*
X0070159Y0012263D01*
X0070146Y0012309D01*
X0070136Y0012356D01*
X0070130Y0012404D01*
X0070128Y0012452D01*
X0070128Y0005050D02*
X0070130Y0005098D01*
X0070136Y0005146D01*
X0070146Y0005193D01*
X0070159Y0005239D01*
X0070177Y0005284D01*
X0070197Y0005328D01*
X0070222Y0005370D01*
X0070250Y0005409D01*
X0070280Y0005446D01*
X0070314Y0005480D01*
X0070351Y0005512D01*
X0070389Y0005541D01*
X0070430Y0005566D01*
X0070473Y0005588D01*
X0070518Y0005606D01*
X0070564Y0005620D01*
X0070611Y0005631D01*
X0070659Y0005638D01*
X0070707Y0005641D01*
X0070755Y0005640D01*
X0070803Y0005635D01*
X0070851Y0005626D01*
X0070897Y0005614D01*
X0070942Y0005597D01*
X0070986Y0005577D01*
X0071028Y0005554D01*
X0071068Y0005527D01*
X0071106Y0005497D01*
X0071141Y0005464D01*
X0071173Y0005428D01*
X0071203Y0005390D01*
X0071229Y0005349D01*
X0071251Y0005306D01*
X0071271Y0005262D01*
X0071286Y0005217D01*
X0071298Y0005170D01*
X0071306Y0005122D01*
X0071310Y0005074D01*
X0071310Y0005026D01*
X0071306Y0004978D01*
X0071298Y0004930D01*
X0071286Y0004883D01*
X0071271Y0004838D01*
X0071251Y0004794D01*
X0071229Y0004751D01*
X0071203Y0004710D01*
X0071173Y0004672D01*
X0071141Y0004636D01*
X0071106Y0004603D01*
X0071068Y0004573D01*
X0071028Y0004546D01*
X0070986Y0004523D01*
X0070942Y0004503D01*
X0070897Y0004486D01*
X0070851Y0004474D01*
X0070803Y0004465D01*
X0070755Y0004460D01*
X0070707Y0004459D01*
X0070659Y0004462D01*
X0070611Y0004469D01*
X0070564Y0004480D01*
X0070518Y0004494D01*
X0070473Y0004512D01*
X0070430Y0004534D01*
X0070389Y0004559D01*
X0070351Y0004588D01*
X0070314Y0004620D01*
X0070280Y0004654D01*
X0070250Y0004691D01*
X0070222Y0004730D01*
X0070197Y0004772D01*
X0070177Y0004816D01*
X0070159Y0004861D01*
X0070146Y0004907D01*
X0070136Y0004954D01*
X0070130Y0005002D01*
X0070128Y0005050D01*
X0070128Y0038121D02*
X0070130Y0038169D01*
X0070136Y0038217D01*
X0070146Y0038264D01*
X0070159Y0038310D01*
X0070177Y0038355D01*
X0070197Y0038399D01*
X0070222Y0038441D01*
X0070250Y0038480D01*
X0070280Y0038517D01*
X0070314Y0038551D01*
X0070351Y0038583D01*
X0070389Y0038612D01*
X0070430Y0038637D01*
X0070473Y0038659D01*
X0070518Y0038677D01*
X0070564Y0038691D01*
X0070611Y0038702D01*
X0070659Y0038709D01*
X0070707Y0038712D01*
X0070755Y0038711D01*
X0070803Y0038706D01*
X0070851Y0038697D01*
X0070897Y0038685D01*
X0070942Y0038668D01*
X0070986Y0038648D01*
X0071028Y0038625D01*
X0071068Y0038598D01*
X0071106Y0038568D01*
X0071141Y0038535D01*
X0071173Y0038499D01*
X0071203Y0038461D01*
X0071229Y0038420D01*
X0071251Y0038377D01*
X0071271Y0038333D01*
X0071286Y0038288D01*
X0071298Y0038241D01*
X0071306Y0038193D01*
X0071310Y0038145D01*
X0071310Y0038097D01*
X0071306Y0038049D01*
X0071298Y0038001D01*
X0071286Y0037954D01*
X0071271Y0037909D01*
X0071251Y0037865D01*
X0071229Y0037822D01*
X0071203Y0037781D01*
X0071173Y0037743D01*
X0071141Y0037707D01*
X0071106Y0037674D01*
X0071068Y0037644D01*
X0071028Y0037617D01*
X0070986Y0037594D01*
X0070942Y0037574D01*
X0070897Y0037557D01*
X0070851Y0037545D01*
X0070803Y0037536D01*
X0070755Y0037531D01*
X0070707Y0037530D01*
X0070659Y0037533D01*
X0070611Y0037540D01*
X0070564Y0037551D01*
X0070518Y0037565D01*
X0070473Y0037583D01*
X0070430Y0037605D01*
X0070389Y0037630D01*
X0070351Y0037659D01*
X0070314Y0037691D01*
X0070280Y0037725D01*
X0070250Y0037762D01*
X0070222Y0037801D01*
X0070197Y0037843D01*
X0070177Y0037887D01*
X0070159Y0037932D01*
X0070146Y0037978D01*
X0070136Y0038025D01*
X0070130Y0038073D01*
X0070128Y0038121D01*
X0062727Y0038121D02*
X0062729Y0038169D01*
X0062735Y0038217D01*
X0062745Y0038264D01*
X0062758Y0038310D01*
X0062776Y0038355D01*
X0062796Y0038399D01*
X0062821Y0038441D01*
X0062849Y0038480D01*
X0062879Y0038517D01*
X0062913Y0038551D01*
X0062950Y0038583D01*
X0062988Y0038612D01*
X0063029Y0038637D01*
X0063072Y0038659D01*
X0063117Y0038677D01*
X0063163Y0038691D01*
X0063210Y0038702D01*
X0063258Y0038709D01*
X0063306Y0038712D01*
X0063354Y0038711D01*
X0063402Y0038706D01*
X0063450Y0038697D01*
X0063496Y0038685D01*
X0063541Y0038668D01*
X0063585Y0038648D01*
X0063627Y0038625D01*
X0063667Y0038598D01*
X0063705Y0038568D01*
X0063740Y0038535D01*
X0063772Y0038499D01*
X0063802Y0038461D01*
X0063828Y0038420D01*
X0063850Y0038377D01*
X0063870Y0038333D01*
X0063885Y0038288D01*
X0063897Y0038241D01*
X0063905Y0038193D01*
X0063909Y0038145D01*
X0063909Y0038097D01*
X0063905Y0038049D01*
X0063897Y0038001D01*
X0063885Y0037954D01*
X0063870Y0037909D01*
X0063850Y0037865D01*
X0063828Y0037822D01*
X0063802Y0037781D01*
X0063772Y0037743D01*
X0063740Y0037707D01*
X0063705Y0037674D01*
X0063667Y0037644D01*
X0063627Y0037617D01*
X0063585Y0037594D01*
X0063541Y0037574D01*
X0063496Y0037557D01*
X0063450Y0037545D01*
X0063402Y0037536D01*
X0063354Y0037531D01*
X0063306Y0037530D01*
X0063258Y0037533D01*
X0063210Y0037540D01*
X0063163Y0037551D01*
X0063117Y0037565D01*
X0063072Y0037583D01*
X0063029Y0037605D01*
X0062988Y0037630D01*
X0062950Y0037659D01*
X0062913Y0037691D01*
X0062879Y0037725D01*
X0062849Y0037762D01*
X0062821Y0037801D01*
X0062796Y0037843D01*
X0062776Y0037887D01*
X0062758Y0037932D01*
X0062745Y0037978D01*
X0062735Y0038025D01*
X0062729Y0038073D01*
X0062727Y0038121D01*
X0062727Y0045522D02*
X0062729Y0045570D01*
X0062735Y0045618D01*
X0062745Y0045665D01*
X0062758Y0045711D01*
X0062776Y0045756D01*
X0062796Y0045800D01*
X0062821Y0045842D01*
X0062849Y0045881D01*
X0062879Y0045918D01*
X0062913Y0045952D01*
X0062950Y0045984D01*
X0062988Y0046013D01*
X0063029Y0046038D01*
X0063072Y0046060D01*
X0063117Y0046078D01*
X0063163Y0046092D01*
X0063210Y0046103D01*
X0063258Y0046110D01*
X0063306Y0046113D01*
X0063354Y0046112D01*
X0063402Y0046107D01*
X0063450Y0046098D01*
X0063496Y0046086D01*
X0063541Y0046069D01*
X0063585Y0046049D01*
X0063627Y0046026D01*
X0063667Y0045999D01*
X0063705Y0045969D01*
X0063740Y0045936D01*
X0063772Y0045900D01*
X0063802Y0045862D01*
X0063828Y0045821D01*
X0063850Y0045778D01*
X0063870Y0045734D01*
X0063885Y0045689D01*
X0063897Y0045642D01*
X0063905Y0045594D01*
X0063909Y0045546D01*
X0063909Y0045498D01*
X0063905Y0045450D01*
X0063897Y0045402D01*
X0063885Y0045355D01*
X0063870Y0045310D01*
X0063850Y0045266D01*
X0063828Y0045223D01*
X0063802Y0045182D01*
X0063772Y0045144D01*
X0063740Y0045108D01*
X0063705Y0045075D01*
X0063667Y0045045D01*
X0063627Y0045018D01*
X0063585Y0044995D01*
X0063541Y0044975D01*
X0063496Y0044958D01*
X0063450Y0044946D01*
X0063402Y0044937D01*
X0063354Y0044932D01*
X0063306Y0044931D01*
X0063258Y0044934D01*
X0063210Y0044941D01*
X0063163Y0044952D01*
X0063117Y0044966D01*
X0063072Y0044984D01*
X0063029Y0045006D01*
X0062988Y0045031D01*
X0062950Y0045060D01*
X0062913Y0045092D01*
X0062879Y0045126D01*
X0062849Y0045163D01*
X0062821Y0045202D01*
X0062796Y0045244D01*
X0062776Y0045288D01*
X0062758Y0045333D01*
X0062745Y0045379D01*
X0062735Y0045426D01*
X0062729Y0045474D01*
X0062727Y0045522D01*
X0070128Y0045522D02*
X0070130Y0045570D01*
X0070136Y0045618D01*
X0070146Y0045665D01*
X0070159Y0045711D01*
X0070177Y0045756D01*
X0070197Y0045800D01*
X0070222Y0045842D01*
X0070250Y0045881D01*
X0070280Y0045918D01*
X0070314Y0045952D01*
X0070351Y0045984D01*
X0070389Y0046013D01*
X0070430Y0046038D01*
X0070473Y0046060D01*
X0070518Y0046078D01*
X0070564Y0046092D01*
X0070611Y0046103D01*
X0070659Y0046110D01*
X0070707Y0046113D01*
X0070755Y0046112D01*
X0070803Y0046107D01*
X0070851Y0046098D01*
X0070897Y0046086D01*
X0070942Y0046069D01*
X0070986Y0046049D01*
X0071028Y0046026D01*
X0071068Y0045999D01*
X0071106Y0045969D01*
X0071141Y0045936D01*
X0071173Y0045900D01*
X0071203Y0045862D01*
X0071229Y0045821D01*
X0071251Y0045778D01*
X0071271Y0045734D01*
X0071286Y0045689D01*
X0071298Y0045642D01*
X0071306Y0045594D01*
X0071310Y0045546D01*
X0071310Y0045498D01*
X0071306Y0045450D01*
X0071298Y0045402D01*
X0071286Y0045355D01*
X0071271Y0045310D01*
X0071251Y0045266D01*
X0071229Y0045223D01*
X0071203Y0045182D01*
X0071173Y0045144D01*
X0071141Y0045108D01*
X0071106Y0045075D01*
X0071068Y0045045D01*
X0071028Y0045018D01*
X0070986Y0044995D01*
X0070942Y0044975D01*
X0070897Y0044958D01*
X0070851Y0044946D01*
X0070803Y0044937D01*
X0070755Y0044932D01*
X0070707Y0044931D01*
X0070659Y0044934D01*
X0070611Y0044941D01*
X0070564Y0044952D01*
X0070518Y0044966D01*
X0070473Y0044984D01*
X0070430Y0045006D01*
X0070389Y0045031D01*
X0070351Y0045060D01*
X0070314Y0045092D01*
X0070280Y0045126D01*
X0070250Y0045163D01*
X0070222Y0045202D01*
X0070197Y0045244D01*
X0070177Y0045288D01*
X0070159Y0045333D01*
X0070146Y0045379D01*
X0070136Y0045426D01*
X0070130Y0045474D01*
X0070128Y0045522D01*
X0011861Y0045522D02*
X0011863Y0045570D01*
X0011869Y0045618D01*
X0011879Y0045665D01*
X0011892Y0045711D01*
X0011910Y0045756D01*
X0011930Y0045800D01*
X0011955Y0045842D01*
X0011983Y0045881D01*
X0012013Y0045918D01*
X0012047Y0045952D01*
X0012084Y0045984D01*
X0012122Y0046013D01*
X0012163Y0046038D01*
X0012206Y0046060D01*
X0012251Y0046078D01*
X0012297Y0046092D01*
X0012344Y0046103D01*
X0012392Y0046110D01*
X0012440Y0046113D01*
X0012488Y0046112D01*
X0012536Y0046107D01*
X0012584Y0046098D01*
X0012630Y0046086D01*
X0012675Y0046069D01*
X0012719Y0046049D01*
X0012761Y0046026D01*
X0012801Y0045999D01*
X0012839Y0045969D01*
X0012874Y0045936D01*
X0012906Y0045900D01*
X0012936Y0045862D01*
X0012962Y0045821D01*
X0012984Y0045778D01*
X0013004Y0045734D01*
X0013019Y0045689D01*
X0013031Y0045642D01*
X0013039Y0045594D01*
X0013043Y0045546D01*
X0013043Y0045498D01*
X0013039Y0045450D01*
X0013031Y0045402D01*
X0013019Y0045355D01*
X0013004Y0045310D01*
X0012984Y0045266D01*
X0012962Y0045223D01*
X0012936Y0045182D01*
X0012906Y0045144D01*
X0012874Y0045108D01*
X0012839Y0045075D01*
X0012801Y0045045D01*
X0012761Y0045018D01*
X0012719Y0044995D01*
X0012675Y0044975D01*
X0012630Y0044958D01*
X0012584Y0044946D01*
X0012536Y0044937D01*
X0012488Y0044932D01*
X0012440Y0044931D01*
X0012392Y0044934D01*
X0012344Y0044941D01*
X0012297Y0044952D01*
X0012251Y0044966D01*
X0012206Y0044984D01*
X0012163Y0045006D01*
X0012122Y0045031D01*
X0012084Y0045060D01*
X0012047Y0045092D01*
X0012013Y0045126D01*
X0011983Y0045163D01*
X0011955Y0045202D01*
X0011930Y0045244D01*
X0011910Y0045288D01*
X0011892Y0045333D01*
X0011879Y0045379D01*
X0011869Y0045426D01*
X0011863Y0045474D01*
X0011861Y0045522D01*
X0004459Y0045522D02*
X0004461Y0045570D01*
X0004467Y0045618D01*
X0004477Y0045665D01*
X0004490Y0045711D01*
X0004508Y0045756D01*
X0004528Y0045800D01*
X0004553Y0045842D01*
X0004581Y0045881D01*
X0004611Y0045918D01*
X0004645Y0045952D01*
X0004682Y0045984D01*
X0004720Y0046013D01*
X0004761Y0046038D01*
X0004804Y0046060D01*
X0004849Y0046078D01*
X0004895Y0046092D01*
X0004942Y0046103D01*
X0004990Y0046110D01*
X0005038Y0046113D01*
X0005086Y0046112D01*
X0005134Y0046107D01*
X0005182Y0046098D01*
X0005228Y0046086D01*
X0005273Y0046069D01*
X0005317Y0046049D01*
X0005359Y0046026D01*
X0005399Y0045999D01*
X0005437Y0045969D01*
X0005472Y0045936D01*
X0005504Y0045900D01*
X0005534Y0045862D01*
X0005560Y0045821D01*
X0005582Y0045778D01*
X0005602Y0045734D01*
X0005617Y0045689D01*
X0005629Y0045642D01*
X0005637Y0045594D01*
X0005641Y0045546D01*
X0005641Y0045498D01*
X0005637Y0045450D01*
X0005629Y0045402D01*
X0005617Y0045355D01*
X0005602Y0045310D01*
X0005582Y0045266D01*
X0005560Y0045223D01*
X0005534Y0045182D01*
X0005504Y0045144D01*
X0005472Y0045108D01*
X0005437Y0045075D01*
X0005399Y0045045D01*
X0005359Y0045018D01*
X0005317Y0044995D01*
X0005273Y0044975D01*
X0005228Y0044958D01*
X0005182Y0044946D01*
X0005134Y0044937D01*
X0005086Y0044932D01*
X0005038Y0044931D01*
X0004990Y0044934D01*
X0004942Y0044941D01*
X0004895Y0044952D01*
X0004849Y0044966D01*
X0004804Y0044984D01*
X0004761Y0045006D01*
X0004720Y0045031D01*
X0004682Y0045060D01*
X0004645Y0045092D01*
X0004611Y0045126D01*
X0004581Y0045163D01*
X0004553Y0045202D01*
X0004528Y0045244D01*
X0004508Y0045288D01*
X0004490Y0045333D01*
X0004477Y0045379D01*
X0004467Y0045426D01*
X0004461Y0045474D01*
X0004459Y0045522D01*
X0004459Y0038121D02*
X0004461Y0038169D01*
X0004467Y0038217D01*
X0004477Y0038264D01*
X0004490Y0038310D01*
X0004508Y0038355D01*
X0004528Y0038399D01*
X0004553Y0038441D01*
X0004581Y0038480D01*
X0004611Y0038517D01*
X0004645Y0038551D01*
X0004682Y0038583D01*
X0004720Y0038612D01*
X0004761Y0038637D01*
X0004804Y0038659D01*
X0004849Y0038677D01*
X0004895Y0038691D01*
X0004942Y0038702D01*
X0004990Y0038709D01*
X0005038Y0038712D01*
X0005086Y0038711D01*
X0005134Y0038706D01*
X0005182Y0038697D01*
X0005228Y0038685D01*
X0005273Y0038668D01*
X0005317Y0038648D01*
X0005359Y0038625D01*
X0005399Y0038598D01*
X0005437Y0038568D01*
X0005472Y0038535D01*
X0005504Y0038499D01*
X0005534Y0038461D01*
X0005560Y0038420D01*
X0005582Y0038377D01*
X0005602Y0038333D01*
X0005617Y0038288D01*
X0005629Y0038241D01*
X0005637Y0038193D01*
X0005641Y0038145D01*
X0005641Y0038097D01*
X0005637Y0038049D01*
X0005629Y0038001D01*
X0005617Y0037954D01*
X0005602Y0037909D01*
X0005582Y0037865D01*
X0005560Y0037822D01*
X0005534Y0037781D01*
X0005504Y0037743D01*
X0005472Y0037707D01*
X0005437Y0037674D01*
X0005399Y0037644D01*
X0005359Y0037617D01*
X0005317Y0037594D01*
X0005273Y0037574D01*
X0005228Y0037557D01*
X0005182Y0037545D01*
X0005134Y0037536D01*
X0005086Y0037531D01*
X0005038Y0037530D01*
X0004990Y0037533D01*
X0004942Y0037540D01*
X0004895Y0037551D01*
X0004849Y0037565D01*
X0004804Y0037583D01*
X0004761Y0037605D01*
X0004720Y0037630D01*
X0004682Y0037659D01*
X0004645Y0037691D01*
X0004611Y0037725D01*
X0004581Y0037762D01*
X0004553Y0037801D01*
X0004528Y0037843D01*
X0004508Y0037887D01*
X0004490Y0037932D01*
X0004477Y0037978D01*
X0004467Y0038025D01*
X0004461Y0038073D01*
X0004459Y0038121D01*
X0011861Y0038121D02*
X0011863Y0038169D01*
X0011869Y0038217D01*
X0011879Y0038264D01*
X0011892Y0038310D01*
X0011910Y0038355D01*
X0011930Y0038399D01*
X0011955Y0038441D01*
X0011983Y0038480D01*
X0012013Y0038517D01*
X0012047Y0038551D01*
X0012084Y0038583D01*
X0012122Y0038612D01*
X0012163Y0038637D01*
X0012206Y0038659D01*
X0012251Y0038677D01*
X0012297Y0038691D01*
X0012344Y0038702D01*
X0012392Y0038709D01*
X0012440Y0038712D01*
X0012488Y0038711D01*
X0012536Y0038706D01*
X0012584Y0038697D01*
X0012630Y0038685D01*
X0012675Y0038668D01*
X0012719Y0038648D01*
X0012761Y0038625D01*
X0012801Y0038598D01*
X0012839Y0038568D01*
X0012874Y0038535D01*
X0012906Y0038499D01*
X0012936Y0038461D01*
X0012962Y0038420D01*
X0012984Y0038377D01*
X0013004Y0038333D01*
X0013019Y0038288D01*
X0013031Y0038241D01*
X0013039Y0038193D01*
X0013043Y0038145D01*
X0013043Y0038097D01*
X0013039Y0038049D01*
X0013031Y0038001D01*
X0013019Y0037954D01*
X0013004Y0037909D01*
X0012984Y0037865D01*
X0012962Y0037822D01*
X0012936Y0037781D01*
X0012906Y0037743D01*
X0012874Y0037707D01*
X0012839Y0037674D01*
X0012801Y0037644D01*
X0012761Y0037617D01*
X0012719Y0037594D01*
X0012675Y0037574D01*
X0012630Y0037557D01*
X0012584Y0037545D01*
X0012536Y0037536D01*
X0012488Y0037531D01*
X0012440Y0037530D01*
X0012392Y0037533D01*
X0012344Y0037540D01*
X0012297Y0037551D01*
X0012251Y0037565D01*
X0012206Y0037583D01*
X0012163Y0037605D01*
X0012122Y0037630D01*
X0012084Y0037659D01*
X0012047Y0037691D01*
X0012013Y0037725D01*
X0011983Y0037762D01*
X0011955Y0037801D01*
X0011930Y0037843D01*
X0011910Y0037887D01*
X0011892Y0037932D01*
X0011879Y0037978D01*
X0011869Y0038025D01*
X0011863Y0038073D01*
X0011861Y0038121D01*
D11*
X0008751Y0041822D03*
X0008751Y0008751D03*
X0026074Y0008751D03*
X0049696Y0008751D03*
X0067019Y0008751D03*
X0067019Y0041822D03*
D12*
X0060916Y0015798D03*
X0055798Y0015798D03*
X0019971Y0015798D03*
X0014853Y0015798D03*
D13*
X0014263Y0057570D03*
X0022137Y0057570D03*
X0030011Y0057570D03*
X0037885Y0057570D03*
X0045759Y0057570D03*
X0053633Y0057570D03*
X0061507Y0057570D03*
D14*
X0057963Y0041330D03*
X0057963Y0039361D03*
X0057963Y0037393D03*
X0046940Y0037393D03*
X0046940Y0039361D03*
X0046940Y0041330D03*
X0028830Y0041330D03*
X0028830Y0039361D03*
X0028830Y0037393D03*
X0017806Y0037393D03*
X0017806Y0039361D03*
X0017806Y0041330D03*
D15*
X0023318Y0034735D03*
X0052452Y0034735D03*
D16*
X0056046Y0031192D03*
X0056046Y0028042D03*
X0048857Y0028042D03*
X0048857Y0031192D03*
X0026912Y0031192D03*
X0026912Y0028042D03*
X0019723Y0028042D03*
X0019723Y0031192D03*
D17*
X0023318Y0022333D03*
X0052452Y0022333D03*
D18*
X0053436Y0043396D03*
X0051467Y0043396D03*
X0049499Y0043396D03*
X0055404Y0043396D03*
X0026270Y0043396D03*
X0024302Y0043396D03*
X0022333Y0043396D03*
X0020365Y0043396D03*
D19*
X0022333Y0043396D02*
X0022334Y0043396D01*
X0022334Y0043397D01*
X0023926Y0043397D01*
X0024302Y0043397D01*
X0025894Y0043397D01*
X0026270Y0043397D01*
X0026270Y0045678D01*
X0025634Y0045678D01*
X0025354Y0045603D01*
X0025286Y0045564D01*
X0025219Y0045603D01*
X0024939Y0045678D01*
X0024494Y0045678D01*
X0024533Y0045717D01*
X0024533Y0047375D01*
X0023360Y0048548D01*
X0021701Y0048548D01*
X0020528Y0047375D01*
X0020528Y0047352D01*
X0016128Y0047352D01*
X0015425Y0046649D01*
X0014966Y0046190D01*
X0014966Y0047509D01*
X0014439Y0048037D01*
X0003539Y0048037D01*
X0003539Y0056670D01*
X0010410Y0056670D01*
X0010410Y0055974D01*
X0012667Y0053717D01*
X0015858Y0053717D01*
X0016138Y0053997D01*
X0018096Y0052039D01*
X0023569Y0052039D01*
X0028417Y0047191D01*
X0028417Y0042722D01*
X0027863Y0042722D01*
X0027863Y0043396D01*
X0026271Y0043396D01*
X0026271Y0043397D01*
X0026270Y0043397D01*
X0026270Y0043396D01*
X0024302Y0043396D01*
X0024302Y0041115D01*
X0024939Y0041115D01*
X0025219Y0041190D01*
X0025286Y0041229D01*
X0025354Y0041190D01*
X0025634Y0041115D01*
X0026270Y0041115D01*
X0026270Y0043396D01*
X0026271Y0043396D01*
X0026271Y0041115D01*
X0026748Y0041115D01*
X0026748Y0040465D01*
X0026868Y0040345D01*
X0026748Y0040226D01*
X0026748Y0038526D01*
X0026623Y0038309D01*
X0026548Y0038029D01*
X0026548Y0037393D01*
X0028829Y0037393D01*
X0028829Y0037392D01*
X0026548Y0037392D01*
X0026548Y0036756D01*
X0026585Y0036619D01*
X0019887Y0036619D01*
X0019887Y0038228D01*
X0020012Y0038444D01*
X0020087Y0038724D01*
X0020087Y0039361D01*
X0017806Y0039361D01*
X0017806Y0039361D01*
X0020087Y0039361D01*
X0020087Y0039998D01*
X0020012Y0040278D01*
X0019887Y0040494D01*
X0019887Y0041315D01*
X0021200Y0041315D01*
X0021417Y0041190D01*
X0021697Y0041115D01*
X0022333Y0041115D01*
X0022333Y0043396D01*
X0022334Y0043396D02*
X0022334Y0041115D01*
X0022970Y0041115D01*
X0023250Y0041190D01*
X0023318Y0041229D01*
X0023385Y0041190D01*
X0023665Y0041115D01*
X0024302Y0041115D01*
X0024302Y0043396D01*
X0024302Y0043396D01*
X0024302Y0043397D01*
X0024302Y0043396D01*
X0022334Y0043396D01*
X0022333Y0043150D02*
X0022334Y0043150D01*
X0022333Y0042552D02*
X0022334Y0042552D01*
X0022333Y0041953D02*
X0022334Y0041953D01*
X0022333Y0041355D02*
X0022334Y0041355D01*
X0024302Y0041355D02*
X0024302Y0041355D01*
X0024302Y0041953D02*
X0024302Y0041953D01*
X0024302Y0042552D02*
X0024302Y0042552D01*
X0024302Y0043150D02*
X0024302Y0043150D01*
X0026270Y0043150D02*
X0026271Y0043150D01*
X0026271Y0043397D02*
X0027863Y0043397D01*
X0027863Y0044722D01*
X0027788Y0045002D01*
X0027643Y0045253D01*
X0027438Y0045458D01*
X0027187Y0045603D01*
X0026907Y0045678D01*
X0026271Y0045678D01*
X0026271Y0043397D01*
X0026270Y0043749D02*
X0026271Y0043749D01*
X0026270Y0044347D02*
X0026271Y0044347D01*
X0026270Y0044946D02*
X0026271Y0044946D01*
X0026270Y0045544D02*
X0026271Y0045544D01*
X0027288Y0045544D02*
X0028417Y0045544D01*
X0028417Y0044946D02*
X0027803Y0044946D01*
X0027863Y0044347D02*
X0028417Y0044347D01*
X0028417Y0043749D02*
X0027863Y0043749D01*
X0027863Y0043150D02*
X0028417Y0043150D01*
X0028830Y0041330D02*
X0029617Y0041330D01*
X0029617Y0047688D01*
X0024066Y0053239D01*
X0018593Y0053239D01*
X0014263Y0057570D01*
X0011263Y0055121D02*
X0003539Y0055121D01*
X0003539Y0055719D02*
X0010665Y0055719D01*
X0010410Y0056318D02*
X0003539Y0056318D01*
X0003539Y0054522D02*
X0011862Y0054522D01*
X0012460Y0053924D02*
X0003539Y0053924D01*
X0003539Y0053325D02*
X0016810Y0053325D01*
X0016212Y0053924D02*
X0016065Y0053924D01*
X0017409Y0052727D02*
X0003539Y0052727D01*
X0003539Y0052128D02*
X0018007Y0052128D01*
X0021689Y0048537D02*
X0003539Y0048537D01*
X0003539Y0049135D02*
X0026473Y0049135D01*
X0027071Y0048537D02*
X0023371Y0048537D01*
X0023970Y0047938D02*
X0027670Y0047938D01*
X0028268Y0047340D02*
X0024533Y0047340D01*
X0024533Y0046741D02*
X0028417Y0046741D01*
X0028417Y0046143D02*
X0024533Y0046143D01*
X0022530Y0046546D02*
X0022137Y0046152D01*
X0016625Y0046152D01*
X0015050Y0044578D01*
X0015050Y0038186D01*
X0015844Y0037393D01*
X0017806Y0037393D01*
X0019887Y0037165D02*
X0026548Y0037165D01*
X0026548Y0037764D02*
X0019887Y0037764D01*
X0019965Y0038362D02*
X0026654Y0038362D01*
X0026748Y0038961D02*
X0020087Y0038961D01*
X0020087Y0039559D02*
X0026748Y0039559D01*
X0026748Y0040158D02*
X0020044Y0040158D01*
X0019887Y0040756D02*
X0026748Y0040756D01*
X0026271Y0041355D02*
X0026270Y0041355D01*
X0026270Y0041953D02*
X0026271Y0041953D01*
X0026270Y0042552D02*
X0026271Y0042552D01*
X0028830Y0039361D02*
X0031192Y0039361D01*
X0031192Y0048515D01*
X0022137Y0057570D01*
X0025989Y0056670D02*
X0025989Y0055974D01*
X0025709Y0055694D01*
X0032392Y0049012D01*
X0032392Y0038864D01*
X0031689Y0038161D01*
X0031075Y0038161D01*
X0031111Y0038029D01*
X0031111Y0037393D01*
X0028830Y0037393D01*
X0028830Y0037392D01*
X0031111Y0037392D01*
X0031111Y0037138D01*
X0031960Y0037988D01*
X0032663Y0038691D01*
X0041606Y0038691D01*
X0041606Y0040387D01*
X0040804Y0041189D01*
X0040804Y0042848D01*
X0041977Y0044021D01*
X0043635Y0044021D01*
X0044808Y0042848D01*
X0044808Y0041189D01*
X0044006Y0040387D01*
X0044006Y0039563D01*
X0044659Y0038910D01*
X0044659Y0039361D01*
X0046940Y0039361D01*
X0046940Y0039361D01*
X0049221Y0039361D01*
X0049221Y0038724D01*
X0049146Y0038444D01*
X0049021Y0038228D01*
X0049021Y0036619D01*
X0055719Y0036619D01*
X0055682Y0036756D01*
X0055682Y0037392D01*
X0057963Y0037392D01*
X0057963Y0037393D01*
X0055682Y0037393D01*
X0055682Y0038029D01*
X0055757Y0038309D01*
X0055882Y0038526D01*
X0055882Y0040226D01*
X0056002Y0040345D01*
X0055882Y0040465D01*
X0055882Y0041115D01*
X0055404Y0041115D01*
X0055404Y0043396D01*
X0055404Y0043396D01*
X0053436Y0043396D01*
X0053436Y0041115D01*
X0054073Y0041115D01*
X0054353Y0041190D01*
X0054420Y0041229D01*
X0054488Y0041190D01*
X0054767Y0041115D01*
X0055404Y0041115D01*
X0055404Y0043396D01*
X0055404Y0043397D01*
X0055404Y0045678D01*
X0054767Y0045678D01*
X0054488Y0045603D01*
X0054420Y0045564D01*
X0054353Y0045603D01*
X0054073Y0045678D01*
X0053436Y0045678D01*
X0053436Y0043397D01*
X0053436Y0043397D01*
X0053436Y0045678D01*
X0052799Y0045678D01*
X0052519Y0045603D01*
X0052452Y0045564D01*
X0052384Y0045603D01*
X0052104Y0045678D01*
X0051467Y0045678D01*
X0050830Y0045678D01*
X0050551Y0045603D01*
X0050334Y0045478D01*
X0048634Y0045478D01*
X0048107Y0044950D01*
X0048107Y0042722D01*
X0045386Y0042722D01*
X0044859Y0042194D01*
X0044859Y0040494D01*
X0044734Y0040278D01*
X0044659Y0039998D01*
X0044659Y0039361D01*
X0046940Y0039361D01*
X0049221Y0039361D01*
X0049221Y0039998D01*
X0049146Y0040278D01*
X0049021Y0040494D01*
X0049021Y0041315D01*
X0050334Y0041315D01*
X0050551Y0041190D01*
X0050830Y0041115D01*
X0051467Y0041115D01*
X0051467Y0043396D01*
X0051467Y0043396D01*
X0051467Y0041115D01*
X0052104Y0041115D01*
X0052384Y0041190D01*
X0052452Y0041229D01*
X0052519Y0041190D01*
X0052799Y0041115D01*
X0053436Y0041115D01*
X0053436Y0043396D01*
X0053436Y0043396D01*
X0053436Y0043397D01*
X0055028Y0043397D01*
X0055404Y0043397D01*
X0055404Y0043397D01*
X0055404Y0045678D01*
X0055954Y0045678D01*
X0055104Y0046527D01*
X0044474Y0046527D01*
X0039356Y0051645D01*
X0034238Y0051645D01*
X0031886Y0053997D01*
X0031606Y0053717D01*
X0028415Y0053717D01*
X0026158Y0055974D01*
X0026158Y0056670D01*
X0025989Y0056670D01*
X0025989Y0056318D02*
X0026158Y0056318D01*
X0026413Y0055719D02*
X0025735Y0055719D01*
X0026283Y0055121D02*
X0027011Y0055121D01*
X0026881Y0054522D02*
X0027610Y0054522D01*
X0027480Y0053924D02*
X0028208Y0053924D01*
X0028078Y0053325D02*
X0032558Y0053325D01*
X0031960Y0053924D02*
X0031813Y0053924D01*
X0033157Y0052727D02*
X0028677Y0052727D01*
X0029275Y0052128D02*
X0033755Y0052128D01*
X0034735Y0052845D02*
X0030011Y0057570D01*
X0034735Y0052845D02*
X0039853Y0052845D01*
X0044971Y0047727D01*
X0055601Y0047727D01*
X0057963Y0045365D01*
X0057963Y0041330D01*
X0055882Y0040756D02*
X0049021Y0040756D01*
X0049178Y0040158D02*
X0055882Y0040158D01*
X0055882Y0039559D02*
X0049221Y0039559D01*
X0049221Y0038961D02*
X0055882Y0038961D01*
X0055788Y0038362D02*
X0049099Y0038362D01*
X0049021Y0037764D02*
X0055682Y0037764D01*
X0055682Y0037165D02*
X0049021Y0037165D01*
X0046940Y0037393D02*
X0044479Y0037393D01*
X0042806Y0039066D01*
X0042806Y0042019D01*
X0040804Y0041953D02*
X0032392Y0041953D01*
X0032392Y0041355D02*
X0040804Y0041355D01*
X0041236Y0040756D02*
X0032392Y0040756D01*
X0032392Y0040158D02*
X0041606Y0040158D01*
X0041606Y0039559D02*
X0032392Y0039559D01*
X0032392Y0038961D02*
X0041606Y0038961D01*
X0042609Y0037491D02*
X0044578Y0035522D01*
X0045759Y0035522D01*
X0045759Y0033948D01*
X0030011Y0033948D01*
X0030011Y0035522D01*
X0031192Y0035522D01*
X0033160Y0037491D01*
X0042609Y0037491D01*
X0042935Y0037165D02*
X0032835Y0037165D01*
X0032236Y0036567D02*
X0043533Y0036567D01*
X0044132Y0035968D02*
X0031637Y0035968D01*
X0031137Y0037165D02*
X0031111Y0037165D01*
X0031111Y0037764D02*
X0031736Y0037764D01*
X0031890Y0038362D02*
X0032334Y0038362D01*
X0030011Y0035370D02*
X0045759Y0035370D01*
X0045759Y0034771D02*
X0030011Y0034771D01*
X0030011Y0034173D02*
X0045759Y0034173D01*
X0045759Y0031979D02*
X0045759Y0027255D01*
X0044184Y0027255D01*
X0044184Y0017412D01*
X0054814Y0017412D01*
X0054814Y0013475D01*
X0054746Y0013475D01*
X0054091Y0014130D01*
X0052701Y0014130D01*
X0052047Y0013475D01*
X0047344Y0013475D01*
X0046690Y0014130D01*
X0045300Y0014130D01*
X0044646Y0013475D01*
X0039459Y0013475D01*
X0039459Y0031979D01*
X0045759Y0031979D01*
X0045759Y0031779D02*
X0039459Y0031779D01*
X0039459Y0031180D02*
X0045759Y0031180D01*
X0045759Y0030582D02*
X0039459Y0030582D01*
X0039459Y0029983D02*
X0045759Y0029983D01*
X0045759Y0029385D02*
X0039459Y0029385D01*
X0039459Y0028786D02*
X0045759Y0028786D01*
X0045759Y0028188D02*
X0039459Y0028188D01*
X0039459Y0027589D02*
X0045759Y0027589D01*
X0044184Y0026991D02*
X0039459Y0026991D01*
X0039459Y0026392D02*
X0044184Y0026392D01*
X0044184Y0025794D02*
X0039459Y0025794D01*
X0039459Y0025195D02*
X0044184Y0025195D01*
X0044184Y0024596D02*
X0039459Y0024596D01*
X0039459Y0023998D02*
X0044184Y0023998D01*
X0044184Y0023399D02*
X0039459Y0023399D01*
X0039459Y0022801D02*
X0044184Y0022801D01*
X0044184Y0022202D02*
X0039459Y0022202D01*
X0039459Y0021604D02*
X0044184Y0021604D01*
X0044184Y0021005D02*
X0039459Y0021005D01*
X0039459Y0020407D02*
X0044184Y0020407D01*
X0044184Y0019808D02*
X0039459Y0019808D01*
X0039459Y0019210D02*
X0044184Y0019210D01*
X0044184Y0018611D02*
X0039459Y0018611D01*
X0039459Y0018013D02*
X0044184Y0018013D01*
X0044184Y0017414D02*
X0039459Y0017414D01*
X0039459Y0016816D02*
X0054814Y0016816D01*
X0054814Y0016217D02*
X0039459Y0016217D01*
X0039459Y0015619D02*
X0054814Y0015619D01*
X0054814Y0015020D02*
X0039459Y0015020D01*
X0039459Y0014422D02*
X0054814Y0014422D01*
X0054814Y0013823D02*
X0054398Y0013823D01*
X0052395Y0013823D02*
X0046996Y0013823D01*
X0044994Y0013823D02*
X0039459Y0013823D01*
X0036310Y0013823D02*
X0030776Y0013823D01*
X0030469Y0014130D02*
X0031124Y0013475D01*
X0036310Y0013475D01*
X0036310Y0031979D01*
X0030011Y0031979D01*
X0030011Y0027255D01*
X0031585Y0027255D01*
X0031585Y0017806D01*
X0021349Y0017806D01*
X0021349Y0013801D01*
X0021678Y0014130D01*
X0023068Y0014130D01*
X0023722Y0013475D01*
X0028425Y0013475D01*
X0029079Y0014130D01*
X0030469Y0014130D01*
X0028773Y0013823D02*
X0023374Y0013823D01*
X0021372Y0013823D02*
X0021349Y0013823D01*
X0021349Y0014422D02*
X0036310Y0014422D01*
X0036310Y0015020D02*
X0021349Y0015020D01*
X0021349Y0015619D02*
X0036310Y0015619D01*
X0036310Y0016217D02*
X0021349Y0016217D01*
X0021349Y0016816D02*
X0036310Y0016816D01*
X0036310Y0017414D02*
X0021349Y0017414D01*
X0023018Y0019887D02*
X0023018Y0022033D01*
X0023618Y0022033D01*
X0023618Y0019887D01*
X0023018Y0019887D01*
X0023018Y0020407D02*
X0023618Y0020407D01*
X0023618Y0021005D02*
X0023018Y0021005D01*
X0023018Y0021604D02*
X0023618Y0021604D01*
X0023618Y0022033D02*
X0029504Y0022033D01*
X0029504Y0022633D01*
X0023618Y0022633D01*
X0023618Y0022033D01*
X0023618Y0022202D02*
X0029504Y0022202D01*
X0031585Y0022202D02*
X0036310Y0022202D01*
X0036310Y0021604D02*
X0031585Y0021604D01*
X0031585Y0021005D02*
X0036310Y0021005D01*
X0036310Y0020407D02*
X0031585Y0020407D01*
X0031585Y0019808D02*
X0036310Y0019808D01*
X0036310Y0019210D02*
X0031585Y0019210D01*
X0031585Y0018611D02*
X0036310Y0018611D01*
X0036310Y0018013D02*
X0031585Y0018013D01*
X0031585Y0022801D02*
X0036310Y0022801D01*
X0036310Y0023399D02*
X0031585Y0023399D01*
X0031585Y0023998D02*
X0036310Y0023998D01*
X0036310Y0024596D02*
X0031585Y0024596D01*
X0031585Y0025195D02*
X0036310Y0025195D01*
X0036310Y0025794D02*
X0031585Y0025794D01*
X0031585Y0026392D02*
X0036310Y0026392D01*
X0036310Y0026991D02*
X0031585Y0026991D01*
X0030011Y0027589D02*
X0036310Y0027589D01*
X0036310Y0028188D02*
X0030011Y0028188D01*
X0030011Y0028786D02*
X0036310Y0028786D01*
X0036310Y0029385D02*
X0030011Y0029385D01*
X0030011Y0029983D02*
X0036310Y0029983D01*
X0036310Y0030582D02*
X0030011Y0030582D01*
X0030011Y0031180D02*
X0036310Y0031180D01*
X0036310Y0031779D02*
X0030011Y0031779D01*
X0023618Y0024780D02*
X0023618Y0022634D01*
X0023018Y0022634D01*
X0023018Y0024780D01*
X0023618Y0024780D01*
X0023618Y0024596D02*
X0023018Y0024596D01*
X0023018Y0023998D02*
X0023618Y0023998D01*
X0023618Y0023399D02*
X0023018Y0023399D01*
X0023018Y0022801D02*
X0023618Y0022801D01*
X0023018Y0022633D02*
X0017131Y0022633D01*
X0017131Y0022033D01*
X0023018Y0022033D01*
X0023018Y0022633D01*
X0023018Y0022202D02*
X0017131Y0022202D01*
X0014263Y0022202D02*
X0008751Y0022202D01*
X0008751Y0021604D02*
X0014263Y0021604D01*
X0014263Y0021005D02*
X0008751Y0021005D01*
X0008751Y0020407D02*
X0014263Y0020407D01*
X0014263Y0019808D02*
X0008751Y0019808D01*
X0008751Y0019210D02*
X0014263Y0019210D01*
X0014263Y0018611D02*
X0008751Y0018611D01*
X0008751Y0018013D02*
X0014263Y0018013D01*
X0014263Y0017414D02*
X0008751Y0017414D01*
X0008751Y0016816D02*
X0014263Y0016816D01*
X0014263Y0016217D02*
X0008751Y0016217D01*
X0008751Y0015619D02*
X0014263Y0015619D01*
X0014263Y0015020D02*
X0008751Y0015020D01*
X0008751Y0014422D02*
X0014263Y0014422D01*
X0014263Y0013823D02*
X0013453Y0013823D01*
X0013147Y0014130D02*
X0011757Y0014130D01*
X0011102Y0013475D01*
X0008751Y0013475D01*
X0008751Y0031979D01*
X0016625Y0031979D01*
X0016625Y0027255D01*
X0014263Y0027255D01*
X0014263Y0013475D01*
X0013801Y0013475D01*
X0013147Y0014130D01*
X0011450Y0013823D02*
X0008751Y0013823D01*
X0008751Y0022801D02*
X0014263Y0022801D01*
X0014263Y0023399D02*
X0008751Y0023399D01*
X0008751Y0023998D02*
X0014263Y0023998D01*
X0014263Y0024596D02*
X0008751Y0024596D01*
X0008751Y0025195D02*
X0014263Y0025195D01*
X0014263Y0025794D02*
X0008751Y0025794D01*
X0008751Y0026392D02*
X0014263Y0026392D01*
X0014263Y0026991D02*
X0008751Y0026991D01*
X0008751Y0027589D02*
X0016625Y0027589D01*
X0016625Y0028188D02*
X0008751Y0028188D01*
X0008751Y0028786D02*
X0016625Y0028786D01*
X0016625Y0029385D02*
X0008751Y0029385D01*
X0008751Y0029983D02*
X0016625Y0029983D01*
X0016625Y0030582D02*
X0008751Y0030582D01*
X0008751Y0031180D02*
X0016625Y0031180D01*
X0016625Y0031779D02*
X0008751Y0031779D01*
X0004026Y0033948D02*
X0017019Y0033948D01*
X0017019Y0035522D01*
X0013869Y0035522D01*
X0013869Y0037097D01*
X0013801Y0037097D01*
X0013147Y0036443D01*
X0011757Y0036443D01*
X0011102Y0037097D01*
X0006399Y0037097D01*
X0005745Y0036443D01*
X0004355Y0036443D01*
X0004026Y0036772D01*
X0004026Y0033948D01*
X0004026Y0034173D02*
X0017019Y0034173D01*
X0017019Y0034771D02*
X0004026Y0034771D01*
X0004026Y0035370D02*
X0017019Y0035370D01*
X0013869Y0035968D02*
X0004026Y0035968D01*
X0004026Y0036567D02*
X0004231Y0036567D01*
X0005869Y0036567D02*
X0011633Y0036567D01*
X0013270Y0036567D02*
X0013869Y0036567D01*
X0015425Y0046649D02*
X0015425Y0046649D01*
X0015517Y0046741D02*
X0014966Y0046741D01*
X0014966Y0047340D02*
X0016115Y0047340D01*
X0014537Y0047938D02*
X0021091Y0047938D01*
X0024677Y0050931D02*
X0003539Y0050931D01*
X0003539Y0051530D02*
X0024079Y0051530D01*
X0025276Y0050332D02*
X0003539Y0050332D01*
X0003539Y0049734D02*
X0025874Y0049734D01*
X0029874Y0051530D02*
X0039472Y0051530D01*
X0040070Y0050931D02*
X0030472Y0050931D01*
X0031071Y0050332D02*
X0040669Y0050332D01*
X0041267Y0049734D02*
X0031669Y0049734D01*
X0032268Y0049135D02*
X0041866Y0049135D01*
X0042464Y0048537D02*
X0032392Y0048537D01*
X0032392Y0047938D02*
X0043063Y0047938D01*
X0043661Y0047340D02*
X0032392Y0047340D01*
X0032392Y0046741D02*
X0044260Y0046741D01*
X0046152Y0049302D02*
X0037885Y0057570D01*
X0041737Y0056670D02*
X0041737Y0055974D01*
X0041457Y0055694D01*
X0046649Y0050502D01*
X0056492Y0050502D01*
X0057195Y0049799D01*
X0060604Y0046390D01*
X0060604Y0047281D01*
X0060679Y0047561D01*
X0060823Y0047812D01*
X0061028Y0048017D01*
X0061279Y0048162D01*
X0061559Y0048237D01*
X0066719Y0048237D01*
X0066719Y0042122D01*
X0067318Y0042122D01*
X0067318Y0048237D01*
X0072230Y0048237D01*
X0072230Y0056670D01*
X0065559Y0056670D01*
X0065559Y0055891D01*
X0063185Y0053517D01*
X0061807Y0053517D01*
X0061807Y0056670D01*
X0061207Y0056670D01*
X0061207Y0053517D01*
X0059828Y0053517D01*
X0057454Y0055891D01*
X0057454Y0055942D01*
X0055229Y0053717D01*
X0052037Y0053717D01*
X0049780Y0055974D01*
X0049780Y0056670D01*
X0049611Y0056670D01*
X0049611Y0055974D01*
X0047355Y0053717D01*
X0044163Y0053717D01*
X0041906Y0055974D01*
X0041906Y0056670D01*
X0041737Y0056670D01*
X0041737Y0056318D02*
X0041906Y0056318D01*
X0042161Y0055719D02*
X0041483Y0055719D01*
X0042031Y0055121D02*
X0042759Y0055121D01*
X0042629Y0054522D02*
X0043358Y0054522D01*
X0043228Y0053924D02*
X0043956Y0053924D01*
X0043826Y0053325D02*
X0072230Y0053325D01*
X0072230Y0052727D02*
X0044425Y0052727D01*
X0045023Y0052128D02*
X0072230Y0052128D01*
X0072230Y0051530D02*
X0045622Y0051530D01*
X0046220Y0050931D02*
X0072230Y0050931D01*
X0072230Y0050332D02*
X0056661Y0050332D01*
X0057260Y0049734D02*
X0072230Y0049734D01*
X0072230Y0049135D02*
X0057858Y0049135D01*
X0058457Y0048537D02*
X0072230Y0048537D01*
X0067318Y0047938D02*
X0066719Y0047938D01*
X0066719Y0047340D02*
X0067318Y0047340D01*
X0067318Y0046741D02*
X0066719Y0046741D01*
X0066719Y0046143D02*
X0067318Y0046143D01*
X0067318Y0045544D02*
X0066719Y0045544D01*
X0066719Y0044946D02*
X0067318Y0044946D01*
X0067318Y0044347D02*
X0066719Y0044347D01*
X0066719Y0043749D02*
X0067318Y0043749D01*
X0067318Y0043150D02*
X0066719Y0043150D01*
X0066719Y0042552D02*
X0067318Y0042552D01*
X0067318Y0041522D02*
X0067318Y0035407D01*
X0072230Y0035407D01*
X0072230Y0014966D01*
X0068218Y0014966D01*
X0068218Y0032397D01*
X0067516Y0033100D01*
X0063097Y0033100D01*
X0063509Y0033512D01*
X0063509Y0035171D01*
X0063273Y0035407D01*
X0066719Y0035407D01*
X0066719Y0041522D01*
X0067318Y0041522D01*
X0067318Y0041355D02*
X0066719Y0041355D01*
X0066719Y0040756D02*
X0067318Y0040756D01*
X0067318Y0040158D02*
X0066719Y0040158D01*
X0066719Y0039559D02*
X0067318Y0039559D01*
X0067318Y0038961D02*
X0066719Y0038961D01*
X0066719Y0038362D02*
X0067318Y0038362D01*
X0067318Y0037764D02*
X0066719Y0037764D01*
X0066719Y0037165D02*
X0067318Y0037165D01*
X0067318Y0036567D02*
X0066719Y0036567D01*
X0066719Y0035968D02*
X0067318Y0035968D01*
X0063509Y0034771D02*
X0072230Y0034771D01*
X0072230Y0034173D02*
X0063509Y0034173D01*
X0063509Y0033574D02*
X0072230Y0033574D01*
X0072230Y0032976D02*
X0067640Y0032976D01*
X0068218Y0032377D02*
X0072230Y0032377D01*
X0072230Y0031779D02*
X0068218Y0031779D01*
X0068218Y0031180D02*
X0072230Y0031180D01*
X0072230Y0030582D02*
X0068218Y0030582D01*
X0068218Y0029983D02*
X0072230Y0029983D01*
X0072230Y0029385D02*
X0068218Y0029385D01*
X0068218Y0028786D02*
X0072230Y0028786D01*
X0072230Y0028188D02*
X0068218Y0028188D01*
X0068218Y0027589D02*
X0072230Y0027589D01*
X0072230Y0026991D02*
X0068218Y0026991D01*
X0068218Y0026392D02*
X0072230Y0026392D01*
X0072230Y0025794D02*
X0068218Y0025794D01*
X0068218Y0025195D02*
X0072230Y0025195D01*
X0072230Y0024596D02*
X0068218Y0024596D01*
X0068218Y0023998D02*
X0072230Y0023998D01*
X0072230Y0023399D02*
X0068218Y0023399D01*
X0068218Y0022801D02*
X0072230Y0022801D01*
X0072230Y0022202D02*
X0068218Y0022202D01*
X0068218Y0021604D02*
X0072230Y0021604D01*
X0072230Y0021005D02*
X0068218Y0021005D01*
X0068218Y0020407D02*
X0072230Y0020407D01*
X0072230Y0019808D02*
X0068218Y0019808D01*
X0068218Y0019210D02*
X0072230Y0019210D01*
X0072230Y0018611D02*
X0068218Y0018611D01*
X0068218Y0018013D02*
X0072230Y0018013D01*
X0072230Y0017414D02*
X0068218Y0017414D01*
X0068218Y0016816D02*
X0072230Y0016816D01*
X0072230Y0016217D02*
X0068218Y0016217D01*
X0068218Y0015619D02*
X0072230Y0015619D01*
X0072230Y0015020D02*
X0068218Y0015020D01*
X0067019Y0015020D02*
X0062294Y0015020D01*
X0062294Y0014422D02*
X0067019Y0014422D01*
X0067019Y0013823D02*
X0064319Y0013823D01*
X0064013Y0014130D02*
X0064667Y0013475D01*
X0067019Y0013475D01*
X0067019Y0031900D01*
X0059144Y0031900D01*
X0059144Y0027255D01*
X0062294Y0027255D01*
X0062294Y0013801D01*
X0062623Y0014130D01*
X0064013Y0014130D01*
X0062316Y0013823D02*
X0062294Y0013823D01*
X0062294Y0015619D02*
X0067019Y0015619D01*
X0067019Y0016217D02*
X0062294Y0016217D01*
X0062294Y0016816D02*
X0067019Y0016816D01*
X0067019Y0017414D02*
X0062294Y0017414D01*
X0062294Y0018013D02*
X0067019Y0018013D01*
X0067019Y0018611D02*
X0062294Y0018611D01*
X0062294Y0019210D02*
X0067019Y0019210D01*
X0067019Y0019808D02*
X0062294Y0019808D01*
X0062294Y0020407D02*
X0067019Y0020407D01*
X0067019Y0021005D02*
X0062294Y0021005D01*
X0062294Y0021604D02*
X0067019Y0021604D01*
X0067019Y0022202D02*
X0062294Y0022202D01*
X0062294Y0022801D02*
X0067019Y0022801D01*
X0067019Y0023399D02*
X0062294Y0023399D01*
X0062294Y0023998D02*
X0067019Y0023998D01*
X0067019Y0024596D02*
X0062294Y0024596D01*
X0062294Y0025195D02*
X0067019Y0025195D01*
X0067019Y0025794D02*
X0062294Y0025794D01*
X0062294Y0026392D02*
X0067019Y0026392D01*
X0067019Y0026991D02*
X0062294Y0026991D01*
X0059144Y0027589D02*
X0067019Y0027589D01*
X0067019Y0028188D02*
X0059144Y0028188D01*
X0059144Y0028786D02*
X0067019Y0028786D01*
X0067019Y0029385D02*
X0059144Y0029385D01*
X0059144Y0029983D02*
X0067019Y0029983D01*
X0067019Y0030582D02*
X0059144Y0030582D01*
X0059144Y0031180D02*
X0067019Y0031180D01*
X0067019Y0031779D02*
X0059144Y0031779D01*
X0063310Y0035370D02*
X0072230Y0035370D01*
X0062373Y0037373D02*
X0054932Y0037373D01*
X0054932Y0037530D01*
X0057964Y0037393D02*
X0060244Y0037393D01*
X0060244Y0038029D01*
X0060209Y0038161D01*
X0060604Y0038161D01*
X0060604Y0036435D01*
X0060146Y0036435D01*
X0060170Y0036476D01*
X0060244Y0036756D01*
X0060244Y0037392D01*
X0057964Y0037392D01*
X0057964Y0037393D01*
X0057963Y0039361D02*
X0060326Y0039361D01*
X0060326Y0044971D01*
X0055995Y0049302D01*
X0046152Y0049302D01*
X0050450Y0045544D02*
X0032392Y0045544D01*
X0032392Y0044946D02*
X0048107Y0044946D01*
X0048107Y0044347D02*
X0032392Y0044347D01*
X0032392Y0043749D02*
X0041705Y0043749D01*
X0041106Y0043150D02*
X0032392Y0043150D01*
X0032392Y0042552D02*
X0040804Y0042552D01*
X0043907Y0043749D02*
X0048107Y0043749D01*
X0048107Y0043150D02*
X0044506Y0043150D01*
X0044808Y0042552D02*
X0045216Y0042552D01*
X0044859Y0041953D02*
X0044808Y0041953D01*
X0044808Y0041355D02*
X0044859Y0041355D01*
X0044859Y0040756D02*
X0044375Y0040756D01*
X0044701Y0040158D02*
X0044006Y0040158D01*
X0044009Y0039559D02*
X0044659Y0039559D01*
X0044659Y0038961D02*
X0044608Y0038961D01*
X0046940Y0039361D02*
X0046940Y0039361D01*
X0051467Y0041355D02*
X0051467Y0041355D01*
X0051467Y0041953D02*
X0051467Y0041953D01*
X0051467Y0042552D02*
X0051467Y0042552D01*
X0051467Y0043150D02*
X0051467Y0043150D01*
X0051467Y0043396D02*
X0051467Y0043397D01*
X0051467Y0045678D01*
X0051467Y0043397D01*
X0051467Y0043397D01*
X0053059Y0043397D01*
X0053436Y0043397D01*
X0053436Y0043396D01*
X0051467Y0043396D01*
X0051467Y0043749D02*
X0051467Y0043749D01*
X0051467Y0044347D02*
X0051467Y0044347D01*
X0051467Y0044946D02*
X0051467Y0044946D01*
X0051467Y0045544D02*
X0051467Y0045544D01*
X0053436Y0045544D02*
X0053436Y0045544D01*
X0053436Y0044946D02*
X0053436Y0044946D01*
X0053436Y0044347D02*
X0053436Y0044347D01*
X0053436Y0043749D02*
X0053436Y0043749D01*
X0053436Y0043150D02*
X0053436Y0043150D01*
X0053436Y0042552D02*
X0053436Y0042552D01*
X0053436Y0041953D02*
X0053436Y0041953D01*
X0053436Y0041355D02*
X0053436Y0041355D01*
X0055404Y0041355D02*
X0055404Y0041355D01*
X0055404Y0041953D02*
X0055404Y0041953D01*
X0055404Y0042552D02*
X0055404Y0042552D01*
X0055404Y0043150D02*
X0055404Y0043150D01*
X0055404Y0043749D02*
X0055404Y0043749D01*
X0055404Y0044347D02*
X0055404Y0044347D01*
X0055404Y0044946D02*
X0055404Y0044946D01*
X0055404Y0045544D02*
X0055404Y0045544D01*
X0055488Y0046143D02*
X0032392Y0046143D01*
X0047561Y0053924D02*
X0051830Y0053924D01*
X0051232Y0054522D02*
X0048160Y0054522D01*
X0048758Y0055121D02*
X0050633Y0055121D01*
X0050035Y0055719D02*
X0049357Y0055719D01*
X0049611Y0056318D02*
X0049780Y0056318D01*
X0055435Y0053924D02*
X0059421Y0053924D01*
X0058823Y0054522D02*
X0056034Y0054522D01*
X0056632Y0055121D02*
X0058224Y0055121D01*
X0057626Y0055719D02*
X0057231Y0055719D01*
X0061207Y0055719D02*
X0061807Y0055719D01*
X0061807Y0055121D02*
X0061207Y0055121D01*
X0061207Y0054522D02*
X0061807Y0054522D01*
X0061807Y0053924D02*
X0061207Y0053924D01*
X0063592Y0053924D02*
X0072230Y0053924D01*
X0072230Y0054522D02*
X0064191Y0054522D01*
X0064789Y0055121D02*
X0072230Y0055121D01*
X0072230Y0055719D02*
X0065388Y0055719D01*
X0065559Y0056318D02*
X0072230Y0056318D01*
X0061807Y0056318D02*
X0061207Y0056318D01*
X0060950Y0047938D02*
X0059055Y0047938D01*
X0059654Y0047340D02*
X0060619Y0047340D01*
X0060604Y0046741D02*
X0060252Y0046741D01*
X0060244Y0037764D02*
X0060604Y0037764D01*
X0060604Y0037165D02*
X0060244Y0037165D01*
X0060194Y0036567D02*
X0060604Y0036567D01*
X0052752Y0024780D02*
X0052752Y0022634D01*
X0052152Y0022634D01*
X0052152Y0024780D01*
X0052752Y0024780D01*
X0052752Y0024596D02*
X0052152Y0024596D01*
X0052152Y0023998D02*
X0052752Y0023998D01*
X0052752Y0023399D02*
X0052152Y0023399D01*
X0052152Y0022801D02*
X0052752Y0022801D01*
X0052752Y0022633D02*
X0058638Y0022633D01*
X0058638Y0022033D01*
X0052752Y0022033D01*
X0052752Y0022633D01*
X0052752Y0022202D02*
X0058638Y0022202D01*
X0052752Y0022033D02*
X0052752Y0019887D01*
X0052152Y0019887D01*
X0052152Y0022033D01*
X0052752Y0022033D01*
X0052752Y0021604D02*
X0052152Y0021604D01*
X0052152Y0022033D02*
X0046265Y0022033D01*
X0046265Y0022633D01*
X0052152Y0022633D01*
X0052152Y0022033D01*
X0052152Y0022202D02*
X0046265Y0022202D01*
X0052152Y0021005D02*
X0052752Y0021005D01*
X0052752Y0020407D02*
X0052152Y0020407D01*
D20*
X0052452Y0020562D03*
X0053830Y0022333D03*
X0055207Y0020562D03*
X0056585Y0022333D03*
X0057963Y0020562D03*
X0057963Y0024105D03*
X0055207Y0024105D03*
X0052452Y0024105D03*
X0051074Y0022333D03*
X0049696Y0020562D03*
X0048318Y0022333D03*
X0046940Y0020562D03*
X0046940Y0024105D03*
X0049696Y0024105D03*
X0050877Y0039066D03*
X0054026Y0039066D03*
X0042609Y0045759D03*
X0033554Y0042609D03*
X0022924Y0038672D03*
X0023318Y0024105D03*
X0024696Y0022333D03*
X0026074Y0020562D03*
X0027452Y0022333D03*
X0028830Y0020562D03*
X0028830Y0024105D03*
X0026074Y0024105D03*
X0023318Y0020562D03*
X0021940Y0022333D03*
X0020562Y0020562D03*
X0019184Y0022333D03*
X0017806Y0020562D03*
X0017806Y0024105D03*
X0020562Y0024105D03*
D21*
X0057570Y0050877D02*
X0057570Y0055210D01*
X0058085Y0055725D01*
X0058085Y0056070D01*
X0071818Y0056070D01*
X0071818Y0047380D01*
X0071585Y0047613D01*
X0069853Y0047613D01*
X0068629Y0046388D01*
X0068629Y0046152D01*
X0065408Y0046152D01*
X0065408Y0046388D01*
X0064184Y0047613D01*
X0062452Y0047613D01*
X0061643Y0046804D01*
X0057570Y0050877D01*
X0057570Y0051379D02*
X0071818Y0051379D01*
X0071818Y0052377D02*
X0057570Y0052377D01*
X0057570Y0053376D02*
X0071818Y0053376D01*
X0071818Y0054374D02*
X0057570Y0054374D01*
X0057733Y0055373D02*
X0071818Y0055373D01*
X0071818Y0050380D02*
X0058066Y0050380D01*
X0059065Y0049382D02*
X0071818Y0049382D01*
X0071818Y0048383D02*
X0060063Y0048383D01*
X0061062Y0047385D02*
X0062223Y0047385D01*
X0064412Y0047385D02*
X0069625Y0047385D01*
X0068629Y0046386D02*
X0065408Y0046386D01*
X0071814Y0047385D02*
X0071818Y0047385D01*
D22*
X0061507Y0034341D03*
X0042806Y0042019D03*
X0022530Y0046546D03*
D23*
X0052452Y0034735D02*
X0061113Y0034735D01*
X0061507Y0034341D01*
M02*
