G75*
%MOIN*%
%OFA0B0*%
%FSLAX25Y25*%
%IPPOS*%
%LPD*%
%AMOC8*
5,1,8,0,0,1.08239X$1,22.5*
%
%ADD10C,0.00000*%
%ADD11R,0.03000X0.01000*%
%ADD12R,0.01000X0.03000*%
%ADD13R,0.10400X0.10400*%
%ADD14C,0.00100*%
%ADD15R,0.02362X0.02953*%
%ADD16R,0.01969X0.01181*%
%ADD17R,0.02165X0.02165*%
%ADD18R,0.03937X0.06693*%
%ADD19R,0.02756X0.03543*%
%ADD20R,0.04724X0.03150*%
%ADD21R,0.03543X0.02756*%
%ADD22R,0.02756X0.03150*%
%ADD23R,0.02480X0.03268*%
%ADD24R,0.03150X0.04724*%
D10*
X0034486Y0027830D02*
X0034486Y0086885D01*
X0095509Y0086885D01*
X0095509Y0027830D01*
X0034486Y0027830D01*
D11*
X0063350Y0062279D03*
X0063350Y0064247D03*
X0063350Y0066216D03*
X0063350Y0068184D03*
X0063350Y0070153D03*
X0063350Y0072121D03*
X0078850Y0072121D03*
X0078850Y0070153D03*
X0078850Y0068184D03*
X0078850Y0066216D03*
X0078850Y0064247D03*
X0078850Y0062279D03*
D12*
X0076021Y0059450D03*
X0074053Y0059450D03*
X0072084Y0059450D03*
X0070116Y0059450D03*
X0068147Y0059450D03*
X0066179Y0059450D03*
X0066179Y0074950D03*
X0068147Y0074950D03*
X0070116Y0074950D03*
X0072084Y0074950D03*
X0074053Y0074950D03*
X0076021Y0074950D03*
D13*
X0071100Y0067200D03*
D14*
X0071494Y0066806D02*
X0075906Y0066806D01*
X0075906Y0062394D01*
X0071494Y0062394D01*
X0071494Y0066806D01*
X0071494Y0066738D02*
X0075906Y0066738D01*
X0075906Y0066640D02*
X0071494Y0066640D01*
X0071494Y0066541D02*
X0075906Y0066541D01*
X0075906Y0066443D02*
X0071494Y0066443D01*
X0071494Y0066344D02*
X0075906Y0066344D01*
X0075906Y0066246D02*
X0071494Y0066246D01*
X0071494Y0066147D02*
X0075906Y0066147D01*
X0075906Y0066049D02*
X0071494Y0066049D01*
X0071494Y0065950D02*
X0075906Y0065950D01*
X0075906Y0065852D02*
X0071494Y0065852D01*
X0071494Y0065753D02*
X0075906Y0065753D01*
X0075906Y0065655D02*
X0071494Y0065655D01*
X0071494Y0065556D02*
X0075906Y0065556D01*
X0075906Y0065458D02*
X0071494Y0065458D01*
X0071494Y0065359D02*
X0075906Y0065359D01*
X0075906Y0065261D02*
X0071494Y0065261D01*
X0071494Y0065162D02*
X0075906Y0065162D01*
X0075906Y0065064D02*
X0071494Y0065064D01*
X0071494Y0064965D02*
X0075906Y0064965D01*
X0075906Y0064867D02*
X0071494Y0064867D01*
X0071494Y0064768D02*
X0075906Y0064768D01*
X0075906Y0064670D02*
X0071494Y0064670D01*
X0071494Y0064571D02*
X0075906Y0064571D01*
X0075906Y0064473D02*
X0071494Y0064473D01*
X0071494Y0064374D02*
X0075906Y0064374D01*
X0075906Y0064276D02*
X0071494Y0064276D01*
X0071494Y0064177D02*
X0075906Y0064177D01*
X0075906Y0064079D02*
X0071494Y0064079D01*
X0071494Y0063980D02*
X0075906Y0063980D01*
X0075906Y0063882D02*
X0071494Y0063882D01*
X0071494Y0063783D02*
X0075906Y0063783D01*
X0075906Y0063685D02*
X0071494Y0063685D01*
X0071494Y0063586D02*
X0075906Y0063586D01*
X0075906Y0063488D02*
X0071494Y0063488D01*
X0071494Y0063389D02*
X0075906Y0063389D01*
X0075906Y0063291D02*
X0071494Y0063291D01*
X0071494Y0063192D02*
X0075906Y0063192D01*
X0075906Y0063094D02*
X0071494Y0063094D01*
X0071494Y0062995D02*
X0075906Y0062995D01*
X0075906Y0062897D02*
X0071494Y0062897D01*
X0071494Y0062798D02*
X0075906Y0062798D01*
X0075906Y0062699D02*
X0071494Y0062699D01*
X0071494Y0062601D02*
X0075906Y0062601D01*
X0075906Y0062502D02*
X0071494Y0062502D01*
X0071494Y0062404D02*
X0075906Y0062404D01*
X0075906Y0067594D02*
X0071494Y0067594D01*
X0071494Y0072006D01*
X0075906Y0072006D01*
X0075906Y0067594D01*
X0075906Y0067625D02*
X0071494Y0067625D01*
X0071494Y0067724D02*
X0075906Y0067724D01*
X0075906Y0067822D02*
X0071494Y0067822D01*
X0071494Y0067921D02*
X0075906Y0067921D01*
X0075906Y0068019D02*
X0071494Y0068019D01*
X0071494Y0068118D02*
X0075906Y0068118D01*
X0075906Y0068216D02*
X0071494Y0068216D01*
X0071494Y0068315D02*
X0075906Y0068315D01*
X0075906Y0068413D02*
X0071494Y0068413D01*
X0071494Y0068512D02*
X0075906Y0068512D01*
X0075906Y0068610D02*
X0071494Y0068610D01*
X0071494Y0068709D02*
X0075906Y0068709D01*
X0075906Y0068807D02*
X0071494Y0068807D01*
X0071494Y0068906D02*
X0075906Y0068906D01*
X0075906Y0069004D02*
X0071494Y0069004D01*
X0071494Y0069103D02*
X0075906Y0069103D01*
X0075906Y0069201D02*
X0071494Y0069201D01*
X0071494Y0069300D02*
X0075906Y0069300D01*
X0075906Y0069398D02*
X0071494Y0069398D01*
X0071494Y0069497D02*
X0075906Y0069497D01*
X0075906Y0069595D02*
X0071494Y0069595D01*
X0071494Y0069694D02*
X0075906Y0069694D01*
X0075906Y0069792D02*
X0071494Y0069792D01*
X0071494Y0069891D02*
X0075906Y0069891D01*
X0075906Y0069989D02*
X0071494Y0069989D01*
X0071494Y0070088D02*
X0075906Y0070088D01*
X0075906Y0070186D02*
X0071494Y0070186D01*
X0071494Y0070285D02*
X0075906Y0070285D01*
X0075906Y0070383D02*
X0071494Y0070383D01*
X0071494Y0070482D02*
X0075906Y0070482D01*
X0075906Y0070580D02*
X0071494Y0070580D01*
X0071494Y0070679D02*
X0075906Y0070679D01*
X0075906Y0070777D02*
X0071494Y0070777D01*
X0071494Y0070876D02*
X0075906Y0070876D01*
X0075906Y0070974D02*
X0071494Y0070974D01*
X0071494Y0071073D02*
X0075906Y0071073D01*
X0075906Y0071171D02*
X0071494Y0071171D01*
X0071494Y0071270D02*
X0075906Y0071270D01*
X0075906Y0071368D02*
X0071494Y0071368D01*
X0071494Y0071467D02*
X0075906Y0071467D01*
X0075906Y0071566D02*
X0071494Y0071566D01*
X0071494Y0071664D02*
X0075906Y0071664D01*
X0075906Y0071763D02*
X0071494Y0071763D01*
X0071494Y0071861D02*
X0075906Y0071861D01*
X0075906Y0071960D02*
X0071494Y0071960D01*
X0070706Y0071960D02*
X0066294Y0071960D01*
X0066294Y0072006D02*
X0070706Y0072006D01*
X0070706Y0067594D01*
X0066294Y0067594D01*
X0066294Y0072006D01*
X0066294Y0071861D02*
X0070706Y0071861D01*
X0070706Y0071763D02*
X0066294Y0071763D01*
X0066294Y0071664D02*
X0070706Y0071664D01*
X0070706Y0071566D02*
X0066294Y0071566D01*
X0066294Y0071467D02*
X0070706Y0071467D01*
X0070706Y0071368D02*
X0066294Y0071368D01*
X0066294Y0071270D02*
X0070706Y0071270D01*
X0070706Y0071171D02*
X0066294Y0071171D01*
X0066294Y0071073D02*
X0070706Y0071073D01*
X0070706Y0070974D02*
X0066294Y0070974D01*
X0066294Y0070876D02*
X0070706Y0070876D01*
X0070706Y0070777D02*
X0066294Y0070777D01*
X0066294Y0070679D02*
X0070706Y0070679D01*
X0070706Y0070580D02*
X0066294Y0070580D01*
X0066294Y0070482D02*
X0070706Y0070482D01*
X0070706Y0070383D02*
X0066294Y0070383D01*
X0066294Y0070285D02*
X0070706Y0070285D01*
X0070706Y0070186D02*
X0066294Y0070186D01*
X0066294Y0070088D02*
X0070706Y0070088D01*
X0070706Y0069989D02*
X0066294Y0069989D01*
X0066294Y0069891D02*
X0070706Y0069891D01*
X0070706Y0069792D02*
X0066294Y0069792D01*
X0066294Y0069694D02*
X0070706Y0069694D01*
X0070706Y0069595D02*
X0066294Y0069595D01*
X0066294Y0069497D02*
X0070706Y0069497D01*
X0070706Y0069398D02*
X0066294Y0069398D01*
X0066294Y0069300D02*
X0070706Y0069300D01*
X0070706Y0069201D02*
X0066294Y0069201D01*
X0066294Y0069103D02*
X0070706Y0069103D01*
X0070706Y0069004D02*
X0066294Y0069004D01*
X0066294Y0068906D02*
X0070706Y0068906D01*
X0070706Y0068807D02*
X0066294Y0068807D01*
X0066294Y0068709D02*
X0070706Y0068709D01*
X0070706Y0068610D02*
X0066294Y0068610D01*
X0066294Y0068512D02*
X0070706Y0068512D01*
X0070706Y0068413D02*
X0066294Y0068413D01*
X0066294Y0068315D02*
X0070706Y0068315D01*
X0070706Y0068216D02*
X0066294Y0068216D01*
X0066294Y0068118D02*
X0070706Y0068118D01*
X0070706Y0068019D02*
X0066294Y0068019D01*
X0066294Y0067921D02*
X0070706Y0067921D01*
X0070706Y0067822D02*
X0066294Y0067822D01*
X0066294Y0067724D02*
X0070706Y0067724D01*
X0070706Y0067625D02*
X0066294Y0067625D01*
X0066294Y0066806D02*
X0070706Y0066806D01*
X0070706Y0062394D01*
X0066294Y0062394D01*
X0066294Y0066806D01*
X0066294Y0066738D02*
X0070706Y0066738D01*
X0070706Y0066640D02*
X0066294Y0066640D01*
X0066294Y0066541D02*
X0070706Y0066541D01*
X0070706Y0066443D02*
X0066294Y0066443D01*
X0066294Y0066344D02*
X0070706Y0066344D01*
X0070706Y0066246D02*
X0066294Y0066246D01*
X0066294Y0066147D02*
X0070706Y0066147D01*
X0070706Y0066049D02*
X0066294Y0066049D01*
X0066294Y0065950D02*
X0070706Y0065950D01*
X0070706Y0065852D02*
X0066294Y0065852D01*
X0066294Y0065753D02*
X0070706Y0065753D01*
X0070706Y0065655D02*
X0066294Y0065655D01*
X0066294Y0065556D02*
X0070706Y0065556D01*
X0070706Y0065458D02*
X0066294Y0065458D01*
X0066294Y0065359D02*
X0070706Y0065359D01*
X0070706Y0065261D02*
X0066294Y0065261D01*
X0066294Y0065162D02*
X0070706Y0065162D01*
X0070706Y0065064D02*
X0066294Y0065064D01*
X0066294Y0064965D02*
X0070706Y0064965D01*
X0070706Y0064867D02*
X0066294Y0064867D01*
X0066294Y0064768D02*
X0070706Y0064768D01*
X0070706Y0064670D02*
X0066294Y0064670D01*
X0066294Y0064571D02*
X0070706Y0064571D01*
X0070706Y0064473D02*
X0066294Y0064473D01*
X0066294Y0064374D02*
X0070706Y0064374D01*
X0070706Y0064276D02*
X0066294Y0064276D01*
X0066294Y0064177D02*
X0070706Y0064177D01*
X0070706Y0064079D02*
X0066294Y0064079D01*
X0066294Y0063980D02*
X0070706Y0063980D01*
X0070706Y0063882D02*
X0066294Y0063882D01*
X0066294Y0063783D02*
X0070706Y0063783D01*
X0070706Y0063685D02*
X0066294Y0063685D01*
X0066294Y0063586D02*
X0070706Y0063586D01*
X0070706Y0063488D02*
X0066294Y0063488D01*
X0066294Y0063389D02*
X0070706Y0063389D01*
X0070706Y0063291D02*
X0066294Y0063291D01*
X0066294Y0063192D02*
X0070706Y0063192D01*
X0070706Y0063094D02*
X0066294Y0063094D01*
X0066294Y0062995D02*
X0070706Y0062995D01*
X0070706Y0062897D02*
X0066294Y0062897D01*
X0066294Y0062798D02*
X0070706Y0062798D01*
X0070706Y0062699D02*
X0066294Y0062699D01*
X0066294Y0062601D02*
X0070706Y0062601D01*
X0070706Y0062502D02*
X0066294Y0062502D01*
X0066294Y0062404D02*
X0070706Y0062404D01*
D15*
X0058600Y0061157D03*
X0058600Y0056708D03*
X0052104Y0056708D03*
X0052104Y0061157D03*
D16*
X0068738Y0081373D03*
X0071494Y0081373D03*
D17*
X0070116Y0079011D03*
X0070116Y0083735D03*
D18*
X0077202Y0082751D03*
X0087045Y0082751D03*
D19*
X0057911Y0066216D03*
X0052793Y0066216D03*
X0052793Y0051452D03*
X0057911Y0051452D03*
X0073265Y0053814D03*
X0078383Y0053814D03*
X0085470Y0050271D03*
X0090588Y0050271D03*
D20*
X0084486Y0055783D03*
X0084486Y0062869D03*
D21*
X0089998Y0062672D03*
X0089998Y0057554D03*
X0058108Y0074877D03*
X0052990Y0074877D03*
X0052990Y0079995D03*
X0058108Y0079995D03*
D22*
X0052596Y0044169D03*
X0047872Y0044169D03*
X0047872Y0039050D03*
X0052596Y0039050D03*
D23*
X0076021Y0038263D03*
X0085076Y0038263D03*
D24*
X0072675Y0043578D03*
X0065588Y0043578D03*
M02*
